<?xml version="1.0" encoding="utf-8"?>
<!-- Generator: Adobe Illustrator 19.2.1, SVG Export Plug-In . SVG Version: 6.00 Build 0)  -->
<svg version="1.1" id="Capa_1" xmlns="http://www.w3.org/2000/svg" xmlns:xlink="http://www.w3.org/1999/xlink" x="0px" y="0px"
	 viewBox="0 0 100 100" style="enable-background:new 0 0 100 100;" xml:space="preserve">
<style type="text/css">
	.st0{fill:#9C824A;stroke:#9C824A;stroke-width:0.793;stroke-miterlimit:282;}
	.st1{fill:#023474;stroke:#023474;stroke-width:0.793;stroke-miterlimit:282;}
	.st2{fill:#FFFFFF;stroke:#FFFFFF;stroke-width:0.793;stroke-miterlimit:282;}
	.st3{fill:#EF0107;stroke:#EF0107;stroke-width:0.793;stroke-miterlimit:282;}
	.st4{fill:#DB0007;stroke:#DB0007;stroke-width:0.793;stroke-miterlimit:282;}
	.st5{fill:#FFFFFF;}
	.st6{fill:#9C824A;}
	.st7{fill:#EF0107;stroke:#EF0107;stroke-width:0.3115;stroke-miterlimit:282;}
	.st8{fill:#DB0007;stroke:#DB0007;stroke-width:0.3115;stroke-miterlimit:282;}
	.st9{fill:#DB0007;}
	.st10{fill:#FFFFFF;stroke:#FFFFFF;stroke-width:0.3115;stroke-miterlimit:282;}
	.st11{fill:#FFFFFF;stroke:#FFFFFF;stroke-width:0.554;stroke-miterlimit:3.864;}
	.st12{fill:#231F20;}
	.st13{fill:#00B6F1;}
	.st14{fill:#EF3E2E;}
	.st15{fill:#BBBDBF;}
	.st16{fill:#F0B83D;}
	.st17{fill:#001C58;}
	.st18{fill:#94BEE5;}
	.st19{fill:none;stroke:#7A003C;stroke-width:2.2437;stroke-miterlimit:6;}
	.st20{fill:#7A003C;}
	.st21{fill:#FFE600;}
	.st22{fill:#DBA111;}
	.st23{fill:#034694;}
	.st24{fill:#D1D3D4;}
	.st25{fill:#ED1C24;}
	.st26{fill:#6A7AB5;}
	.st27{fill:none;}
	.st28{fill:#274488;}
	.st29{fill:#004798;stroke:#004798;stroke-width:9.375000e-02;}
	.st30{fill:#FFFFFF;stroke:#FFFFFF;stroke-width:9.375000e-02;}
	.st31{fill:#FABC00;stroke:#FABC00;stroke-width:9.375000e-02;}
	.st32{fill:none;stroke:#FFFFFF;stroke-width:7.865;stroke-miterlimit:3.864;}
	.st33{fill:none;stroke:#FFFFFF;stroke-width:7.865;stroke-miterlimit:12;}
	.st34{fill:none;stroke:#FFFFFF;stroke-width:7.865;stroke-miterlimit:22;}
	.st35{fill:none;stroke:#FFFFFF;stroke-width:7.865;stroke-miterlimit:6;}
	.st36{fill:#00A398;}
	.st37{fill:#D00027;}
	.st38{fill:none;stroke:#FFFFFF;stroke-width:17.3907;stroke-miterlimit:3.864;}
	.st39{fill:none;stroke:#FFFFFF;stroke-width:13.1107;stroke-miterlimit:3.864;}
	.st40{fill:#FEF667;}
	.st41{fill:#D00027;stroke:#D00027;}
	.st42{fill:#5299C6;}
	.st43{fill:#60223B;}
	.st44{fill:#F7C240;}
	.st45{fill:#292D6B;}
	.st46{fill:#1B458F;}
	.st47{fill:#C4122E;}
	.st48{fill:#27409B;}
	.st49{clip-path:url(#SVGID_2_);}
	.st50{fill:#F4F4F4;}
	.st51{fill:#D3D2D2;}
	.st52{fill:#A7A5A6;}
	.st53{fill:#091453;}
	.st54{fill:none;stroke:#FFFFFF;stroke-width:6.6301;}
	.st55{clip-path:url(#SVGID_4_);}
	.st56{fill:#724314;}
	.st57{fill:#240B08;}
	.st58{fill:#018B4B;}
	.st59{fill:#A6181D;}
	.st60{fill:#592D09;}
	.st61{fill:#FFCE65;}
	.st62{fill:#5CBFEB;}
	.st63{fill:none;stroke:#000000;stroke-width:10;}
	.st64{fill:none;stroke:#000000;}
	.st65{fill:#B2B2B2;}
	.st66{fill:none;stroke:#000000;stroke-width:0.3;}
	.st67{fill:#00A650;stroke:#000000;stroke-width:2;}
	.st68{fill:#241F20;stroke:#241F20;stroke-width:9.375000e-02;}
	.st69{fill:#FFF200;stroke:#FFF200;stroke-width:9.375000e-02;}
	.st70{fill:#A68A26;}
	.st71{fill:none;stroke:#A68A26;stroke-width:4.792100e-02;stroke-miterlimit:3.8637;}
	.st72{fill:#211E1E;}
	.st73{fill:none;stroke:#211E1E;stroke-width:4.792100e-02;stroke-miterlimit:3.8637;}
	.st74{fill:#EB172B;}
	.st75{fill:none;stroke:#EB172B;stroke-width:4.792100e-02;stroke-miterlimit:3.8637;}
	.st76{fill:#A68A26;stroke:#A68A26;stroke-width:4.792100e-02;stroke-miterlimit:3.8637;}
	.st77{fill:#D1BF7F;}
	.st78{fill:none;stroke:#D1BF7F;stroke-width:4.792100e-02;stroke-miterlimit:3.8637;}
	.st79{fill:none;stroke:#FFFFFF;stroke-width:4.792100e-02;stroke-miterlimit:3.8637;}
	.st80{fill:#EB172B;stroke:#EB172B;stroke-width:4.792100e-02;stroke-miterlimit:3.8637;}
	.st81{fill:#ED2127;}
	.st82{fill:#FBEE23;}
	.st83{stroke:#000000;}
	.st84{fill:#CF1F44;}
	.st85{fill:#1B449C;}
	.st86{fill:#E03A3E;}
	.st87{fill:#2E6ABD;stroke:#2E6ABD;stroke-width:0.617;}
	.st88{fill:#FFFFFF;stroke:#FFFFFF;stroke-width:0.6175;}
	.st89{fill:#ED1248;}
	.st90{fill:#2E6ABD;}
	.st91{fill:#FDE100;}
	.st92{fill:#CC0000;}
	.st93{fill:#211E1F;}
	.st94{fill:#ED1A3B;}
	.st95{fill:#00AEEF;}
	.st96{fill:#FFC40D;}
	.st97{fill:#22B24C;}
	.st98{fill:#FFC20E;}
	.st99{fill:#0A3F86;}
	.st100{fill:#005CA9;}
	.st101{fill:#FFE000;}
	.st102{fill:#E2001A;}
	.st103{opacity:0;}
	.st104{opacity:0;fill:#FFFFFF;}
	.st105{fill:#FFFFFF;stroke:#000000;}
	.st106{fill:#0060A9;}
	.st107{fill:#E32219;}
	.st108{fill:#FFED00;}
	.st109{fill:#1D9053;}
	.st110{fill:#52A600;}
	.st111{fill:#EE2523;}
	.st112{fill:#F7D117;}
	.st113{fill:#171796;}
	.st114{fill:#009959;}
	.st115{fill:#D42E12;}
	.st116{fill:#703824;}
	.st117{fill:#E5254E;}
	.st118{fill:#8AC3EE;}
	.st119{fill:#B19221;}
	.st120{fill:#F5C03E;}
	.st121{fill:#FF1119;}
	.st122{fill:#1E6BC0;}
	.st123{fill:#B4742A;}
	.st124{fill:#371B02;}
	.st125{fill:url(#SVGID_5_);}
	.st126{fill:url(#SVGID_6_);}
	.st127{fill:url(#SVGID_7_);}
	.st128{fill:url(#SVGID_8_);}
	.st129{fill:url(#SVGID_9_);}
	.st130{fill:url(#SVGID_10_);}
	.st131{fill:url(#SVGID_11_);}
	.st132{fill:url(#SVGID_12_);}
	.st133{fill:url(#SVGID_13_);}
	.st134{fill:url(#SVGID_14_);}
	.st135{fill:#EB2626;}
	.st136{fill:#E9C32C;}
	.st137{fill:#D9D9D9;}
	.st138{fill:#009C5E;}
	.st139{fill:#1C75BC;}
	.st140{fill:#611D5C;}
	.st141{fill:#E2B900;}
	.st142{fill:#004B95;}
	.st143{fill:#A4234B;}
	.st144{fill:#DB2F36;}
	.st145{fill:#FFDF00;}
	.st146{fill:#A38D44;}
	.st147{fill:#57175E;}
	.st148{fill:#AFDCFD;}
	.st149{fill:#0090C6;}
	.st150{fill:#DB5232;}
	.st151{fill:#23C1E0;}
	.st152{fill:#F1A92A;}
	.st153{fill:#167FB6;}
	.st154{fill:#FED75D;}
	.st155{fill:#378CBF;}
	.st156{fill:#3E9692;}
	.st157{fill:#E67F29;}
	.st158{fill:#D8B43C;}
	.st159{fill:#EF3B33;}
	.st160{fill:#24923D;}
	.st161{opacity:6.000001e-02;fill:#101010;enable-background:new    ;}
	.st162{fill:#00529F;}
	.st163{fill:#EE324E;}
	.st164{fill:#FEBE10;}
	.st165{fill:#143C8B;}
	.st166{fill:#FFE24A;}
	.st167{fill:#EC1D24;}
	.st168{fill:#E6A514;}
	.st169{fill:#FFDF1C;}
	.st170{fill:#EE3524;}
	.st171{fill:#B23428;}
	.st172{fill:#D18816;}
	.st173{fill:#0097D7;}
	.st174{fill:#ED1C23;}
	.st175{fill:#E30613;}
	.st176{fill:#FFE400;}
	.st177{fill:#C51A1B;}
	.st178{clip-path:url(#SVGID_17_);}
	.st179{clip-path:url(#SVGID_18_);fill:none;stroke:#000000;stroke-width:0.8131;stroke-miterlimit:3.864;}
	.st180{fill:#0093D5;}
	.st181{fill:#004B9D;}
	.st182{fill:#FCC24F;}
	.st183{fill:#009545;}
	.st184{fill:#0072BB;}
	.st185{fill:#C4974E;}
	.st186{fill:url(#path1292_1_);}
	.st187{fill:#004996;}
	.st188{fill:#FFE667;}
	.st189{fill:none;stroke:#005187;stroke-width:0.153;stroke-miterlimit:3.864;}
	.st190{fill:#005187;}
	.st191{clip-path:url(#SVGID_20_);}
	.st192{clip-path:url(#SVGID_22_);fill:none;stroke:#000000;stroke-width:0.296;stroke-miterlimit:3.864;}
	.st193{clip-path:url(#SVGID_24_);fill:#FFE667;}
	.st194{clip-path:url(#SVGID_26_);fill:none;stroke:#000000;stroke-width:8.300000e-02;stroke-miterlimit:3.864;}
	.st195{fill:none;stroke:#000000;stroke-width:0.153;stroke-miterlimit:3.864;}
	.st196{clip-path:url(#SVGID_28_);fill:#E70005;}
	.st197{clip-path:url(#SVGID_30_);fill:none;stroke:#E70005;stroke-width:0.296;stroke-miterlimit:3.864;}
	.st198{clip-path:url(#SVGID_32_);fill:#E70005;}
	.st199{clip-path:url(#SVGID_34_);fill:none;stroke:#E70005;stroke-width:0.296;stroke-miterlimit:3.864;}
	.st200{clip-path:url(#SVGID_36_);fill:#E70005;}
	.st201{clip-path:url(#SVGID_38_);fill:none;stroke:#E70005;stroke-width:0.296;stroke-miterlimit:3.864;}
	.st202{clip-path:url(#SVGID_40_);fill:#E70005;}
	.st203{clip-path:url(#SVGID_42_);fill:none;stroke:#E70005;stroke-width:0.296;stroke-miterlimit:3.864;}
	.st204{fill:#E70005;}
	.st205{fill:none;stroke:#000000;stroke-width:0.141;stroke-miterlimit:3.864;}
	.st206{fill:#00276D;}
	.st207{fill:#C49308;}
	.st208{fill:#179D33;}
	.st209{fill:#999999;}
	.st210{fill:#FF0000;}
	.st211{fill:#E31837;}
	.st212{fill:#06357A;}
	.st213{fill:#B4053F;}
	.st214{fill:#DCA43E;}
	.st215{fill:#005CA5;}
	.st216{fill:#FAC400;}
	.st217{fill:#004083;}
	.st218{fill:#A95932;}
	.st219{fill:none;stroke:#000000;stroke-width:1.2215;}
	.st220{fill:#E62627;}
	.st221{fill:#00458C;}
	.st222{fill:#E11B22;}
	.st223{fill:#00AB4E;}
	.st224{fill:#F47920;}
	.st225{fill:#C7C8CA;}
	.st226{fill:#E11515;}
	.st227{fill:#A4965F;}
	.st228{fill:#E51636;}
	.st229{fill:#EACC00;}
	.st230{fill:#4F846B;}
	.st231{fill:#E22227;}
	.st232{fill:#FAE700;}
	.st233{fill:url(#SVGID_43_);}
	.st234{fill:#666666;}
	.st235{fill:#FFF200;}
	.st236{fill:#00275D;}
	.st237{fill:#EF3E33;}
	.st238{fill:none;stroke:#00275D;stroke-width:2.632;}
	.st239{fill:#3F7652;}
	.st240{fill:#F1D261;}
	.st241{fill:#004D8F;}
	.st242{fill:#E7B137;stroke:#E7B137;stroke-miterlimit:10;}
	.st243{fill:#E7B137;}
	.st244{fill:#162577;}
	.st245{fill:#12692C;}
	.st246{fill:#D8141D;}
	.st247{fill:#AB830D;}
	.st248{fill:#0086CB;}
	.st249{fill:#001F42;}
	.st250{fill:#9A8F4A;}
	.st251{fill:#00559D;}
	.st252{fill:#FDDE00;}
	.st253{fill:#00924C;}
	.st254{fill:#233984;}
	.st255{fill:#FFD42E;}
	.st256{fill:#BA3733;}
	.st257{fill:#46714D;}
	.st258{fill:#221F1F;}
	.st259{fill:#00559E;}
	.st260{fill:#005C46;}
	.st261{fill:#FBC860;}
	.st262{fill:#D57C48;}
	.st263{fill:#040403;}
	.st264{fill:#4AB969;}
	.st265{fill:#8ED8F8;}
	.st266{fill:#FEC34E;}
	.st267{fill:#FFC95B;}
	.st268{fill:#00644C;}
	.st269{fill:#70B865;}
	.st270{fill:#CA6F44;}
	.st271{fill:#A8B8BE;}
	.st272{fill:#1C2C80;}
	.st273{fill:#E10321;}
	.st274{fill:none;stroke:#231F20;stroke-width:0.318;stroke-miterlimit:3.864;}
	.st275{fill:#D71920;}
	.st276{fill:#484749;}
	.st277{fill:#D9DBDC;}
	.st278{fill:#DF725A;}
	.st279{fill:#F2CABA;}
	.st280{fill:#E89C84;}
	.st281{fill:#264F99;}
	.st282{clip-path:url(#SVGID_45_);}
	.st283{fill:#161413;}
	.st284{fill:#ED1B26;}
	.st285{fill:#E60D2E;}
	.st286{fill:#FCD600;}
	.st287{fill:#004D91;}
	.st288{fill:#EAB412;}
	.st289{fill:#FDD31D;}
	.st290{fill:#EFB800;}
	.st291{fill:#FFF100;}
	.st292{fill:#ED3024;}
</style>
<g>
	<g>
		<path class="st12" d="M64.9,3.2c-0.4-0.3-0.8-0.3-1.2-0.1c0,0,0,0,0,0c0-0.7-0.4-1.4-0.7-1.8c-3.2-3-8.3,2-8.5,2.3l-0.1,0.1l0,0.1
			c-0.2,0.6-0.2,1.1,0,1.5c0.6,1.1,2.4,1.6,6.3,2.5c2.8,0.6,4-0.3,4.5-1.2C65.7,5.4,65.4,3.7,64.9,3.2z M60.8,3.8
			C60.8,3.8,60.9,3.8,60.8,3.8c0.1,0,0.2,0,0.2,0C61,3.9,60.8,3.9,60.8,3.8z M38,0.3L38,0.3L38,0.3c-1.1,0.2-1.6,1.2-1.7,2.2
			c0,0.1,0,0.2,0,0.3c-0.8-0.1-1.5,0.2-1.9,0.8c-0.5,0.7-0.5,1.9,0.2,3.4c0.3,0.6,0.8,1.3,2.2,1.5c2.7,0.4,7.4-1.8,8.6-3.4l0.3-0.3
			l-0.3-0.3C45.2,4.2,42.1,0.3,38,0.3z M52.5,1.2c-0.5-0.5-2-1.4-3.2-1.3c-0.5,0.1-0.9,0.3-1.1,0.6c-0.2,0.2-0.3,0.5-0.3,0.7
			c0,0.1,0,0.2,0.1,0.3c0.2,0.4,0.5,0.4,0.9,0.5c-0.4,0.2-0.9,0.4-1,0.3l-0.7-0.9l-0.3,1l-0.2,0.8c-0.2,0.8-0.4,1.4,0.2,2
			c0.5,0.5,2.7,0.6,6.7,0.5l0.7,0L54.1,5C53.9,4.5,53.2,1.8,52.5,1.2z"/>
		<path class="st291" d="M38,0.9c-1.4,0.2-1.4,2.6-0.9,2.8c0.4,0.1,2.2-1.4,2.4-0.7c0.2,0.7-2.9,2.6-3.2,0.4c-1-0.1-2.5,0.4-1.2,3.4
			c1.3,3,8.5-0.3,9.9-2C44.9,4.7,41.9,0.8,38,0.9z M48.6,0.8c-0.7,1,1.6,0.3,1.1,1.1c-0.5,0.8-2.1,1.2-2.3,0.6
			c-0.3,1.4-0.7,1.8-0.1,2.3c0.5,0.5,6.3,0.3,6.3,0.3s-0.7-3-1.4-3.6C51.4,0.9,49.3-0.2,48.6,0.8z M64.5,3.7
			c-0.5-0.5-1.6,0.5-2.6,0.7c-1,0.2-2-0.1-1.4-0.9c0.6-0.9,0.5,0.3,1.8,0.3c1.3,0.1,0.8-1.5,0.3-2.2c-2.8-2.6-7.7,2.3-7.7,2.3
			c-0.6,1.6,0.9,2.2,6,3.3C65.9,8.4,65,4.1,64.5,3.7z"/>
	</g>
	<path class="st12" d="M59.3,89.9c-2.7,0-4.8,1.8-5.1,4c-0.7-1.4-2.3-2.4-4-2.4c-2,0-3.7,1.2-4.3,2.9c0,0,0,0,0,0
		c0-2.5-2.3-4.5-5.2-4.5c-2.9,0-5.2,2-5.2,4.5c0,2.5,2.3,4.5,5.2,4.5c2.3,0,4.3-1.3,4.9-3.2c0,0,0,0,0,0.1c0,2.4,2,4.3,4.5,4.3
		c2.3,0,4.2-1.7,4.5-3.8c0.8,1.5,2.6,2.6,4.7,2.6c2.9,0,5.2-2,5.2-4.5C64.4,91.9,62.1,89.9,59.3,89.9z"/>
	<path class="st291" d="M40.6,90.7c-2.4,0-4.4,1.7-4.4,3.7c0,2,2,3.7,4.4,3.7c2.4,0,4.4-1.7,4.4-3.7C45,92.4,43.1,90.7,40.6,90.7z
		 M44.4,94.2c0,0-1,2.7-3,2.5c0.5-0.8,2.3-1.7,2.4-3C43.9,92.4,44.4,94.2,44.4,94.2z M50.1,92.4c-2.1,0-3.7,1.6-3.7,3.5
		c0,1.9,1.7,3.5,3.7,3.5c2.1,0,3.7-1.6,3.7-3.5C53.8,93.9,52.1,92.4,50.1,92.4z M50.5,97.4c0.3-0.9,2.1-1.3,1.7-3.2
		c-0.4-2,0.5,0.1,0.5,0.1S53.7,97.5,50.5,97.4z M59.3,90.7c-2.4,0-4.4,1.7-4.4,3.7c0,2,2,3.7,4.4,3.7c2.4,0,4.4-1.7,4.4-3.7
		C63.6,92.4,61.7,90.7,59.3,90.7z M55.5,94.6c2.7,2.4,3,0.1,5.2-0.8C58,98.8,55.5,94.6,55.5,94.6z"/>
	<path class="st12" d="M90.4,65.3L90.4,65.3c-1.8-2.8-4.6-3.2-6.1-3.3c-2.1-0.1-4.1,0.6-4.9,1.7c-7.4,9.8-18.3,15.4-30,15.4
		c-11.1,0-21.7-5.2-29.1-14.3c-0.5-0.6-3.1-3.5-7.2-2.7c-2,0.4-3.7,1.8-4.7,3.9c-0.8,1.7-1.7,5.2,1,10.2c9.1,12.7,24,20.2,40.1,20.2
		c15.8,0,30.6-7.3,39.6-19.6c0,0,0.3-0.4,0.3-0.4C89.5,76.5,93.8,71.1,90.4,65.3z"/>
	<path class="st291" d="M89.7,65.7L89.7,65.7c-1.6-2.4-4.1-2.9-5.5-2.9c-1.8,0-3.5,0.5-4.2,1.4C72.5,74.3,61.3,80,49.4,80
		c-11.4,0-22.2-5.3-29.7-14.6c-0.1-0.1-2.5-3.2-6.4-2.4c-1.7,0.3-3.3,1.6-4.1,3.4c-0.7,1.5-1.6,4.8,1,9.5
		C19,88.3,33.7,95.7,49.6,95.7c15.6,0,30.1-7.2,39-19.2c0,0,0.3-0.4,0.3-0.4C88.9,75.9,92.8,71,89.7,65.7z"/>
	<g>
		<path class="st292" d="M89,66.1c-2.3-3.5-7.4-2.6-8.3-1.4c0,0,0,0,0,0c-7.4,9.8-18.6,16.1-31.3,16.1c-12.1,0-22.9-5.8-30.3-14.9
			l0,0c0,0-2.1-2.8-5.6-2.1c-3,0.6-6.2,5-2.6,11.7c8.3,11.7,22.5,19.4,38.7,19.4c15.9,0,29.9-7.5,38.3-18.9l0.2-0.4
			C88.1,75.6,91.8,71,89,66.1z"/>
	</g>
	<polygon class="st12" points="30.3,26 30.3,69.2 49.6,82.8 69.1,69.2 69.1,26 	"/>
	<polygon class="st291" points="31.1,26.8 31.1,68.8 49.6,81.8 68.3,68.8 68.3,26.8 	"/>
	<path class="st12" d="M95.6,33.4l0-1.4c0,0-1.1-0.1-1.3-0.1c-0.4-0.2-1.8-1.5-4-3.9c0,0-1.4-1.4-1.4-1.4c0,0-0.8-1.1-0.8-1.1
		C78,11.4,65.5,4.3,51.2,4.3C25.9,4.3,15.5,20,12.1,25.1l-0.2,0.2c-2.7,4.1-7.3,6.7-7.4,6.7l-0.9,0.5l0,1C3.9,39.1,5.9,43.6,9,45.3
		c3,1.6,9.3,0.6,13.9-6.6c8.5-10.5,15.1-17.4,27-17.4c14.5,0,22.9,11.9,26.4,17c5,7.2,9.5,7.7,11.2,7.6c2.3-0.1,8.2-2.5,8.2-11.7
		C95.7,34.2,95.6,33.5,95.6,33.4z"/>
	<path class="st291" d="M95,33.5l0-0.7c0,0-0.6-0.1-0.7-0.1c-0.7-0.2-3.2-2.8-4.4-4.1l-1.3-1.4L87.6,26c-10-13.9-22.3-21-36.3-21
		c-24.8,0-35.1,15.4-38.4,20.5l-0.2,0.2c-2.8,4.2-7.6,7-7.6,7L4.7,33l0,0.5c0.1,5.3,2,9.5,4.8,11C12.2,46,18,45,22.4,38.2
		C31.1,27.5,37.7,20.4,50,20.4c14.9,0,23.4,12.2,27.1,17.4c4.8,6.8,8.9,7.3,10.5,7.2C89.7,45,95,42.7,95,34.2C95,34,95,33.7,95,33.5
		z"/>
	<path class="st292" d="M5.3,33.5c0,0,4.9-2.8,7.9-7.2c3-4.5,13.1-20.4,37.9-20.4c23.6,0,35.1,20.4,36.6,21.9
		c1.5,1.5,5.1,5.8,6.2,5.8c0.3,8.1-4.3,10.6-6.6,10.8c-2.3,0.1-6-1.5-9.7-6.9C73.9,31.9,65,19.6,49.9,19.6
		c-13.1,0-20.3,8.2-28.3,18.1c-3.9,6.1-9.3,7.4-11.8,6.1C7.2,42.5,5.5,38.4,5.3,33.5z"/>
	<path class="st292" d="M32.1,41.6h35.2v-2.4H32.1V41.6z M45.3,36.8v-1.6h-2.4V31c0,0-1.4,3.2-2.6,5.8
		C40.3,36.8,42.5,36.8,45.3,36.8z M32.1,28.6v9.9h5v-3.2c0.1,0.3,0.5,0.6,0.8,0.8l5-5h2.4v-1.4h0.4V31h2v4.2h-2v1.6h5.4v-1.6h-1.8
		V31h1.8v-1.4h0.4V31h2.6v4.2h-2.6v1.6h5.6v-1.6h-2.3V31h2.3v-1.4h0.5V31h2.2v4.2h-2.2v1.6h3c0,0.2-0.4,1.1-0.7,1.7h7.4v-9.9H32.1z
		 M37.9,36.1c1,0.5,2.4,0.8,2.4,0.8C39.9,35.5,37.9,36.1,37.9,36.1z"/>
	<path class="st291" d="M71.1,77.4l-3.9,2.2l4.3,7.4l3.9-2.3c1-0.8,2.7-2.7,1-5.6C74.4,75.7,71.1,77.4,71.1,77.4z M73.9,84.2
		l-1.3,0.8l-2.9-5.1L71,79c1.4-0.8,2.7-0.1,3.7,1.5C76.1,83.1,73.9,84.2,73.9,84.2z"/>
	<polygon class="st291" points="42.4,82.6 41.1,88.2 37.8,81.5 37.8,81.5 37.8,81.5 37.7,81.5 37.7,81.5 36,81.1 34.1,89.4 36,89.9 
		37.3,84.3 40.4,90.9 42.3,91.4 44.3,83 	"/>
	<polygon class="st291" points="58.3,83.2 51.3,84.2 51.4,85.4 54,85 55,92.3 57,92.1 55.9,84.7 58.5,84.4 	"/>
	<polygon class="st291" points="64.5,88.8 63.4,86.3 66.1,85.2 65.6,84.1 63,85.3 62.1,83.1 64.7,82 64.3,80.9 59.8,82.8 63.1,90.7 
		68.3,88.5 67.8,87.5 	"/>
	<path class="st291" d="M32.2,79.8l-2.8,5.1l0,0c-0.5,1-1.7,1.2-2.6,0.7C25.9,85.1,25.4,84,26,83l0,0l2.8-5.1L27,77l-3,5.4l0,0
		c-0.6,1.2,0.4,3,2.3,4c1.9,1,4,0.9,4.6-0.3l3-5.4L32.2,79.8z"/>
	<rect x="47.2" y="84" class="st291" width="2" height="8.5"/>
	<path class="st12" d="M12,18c-0.8-0.3-1.6-0.1-2.2,0.5l0-0.1l-1.1,1.1c0,0-3.2,3-5.5,5.6l-0.1,0.1l-0.1,0.2
		c-0.4,1.4-0.3,2.5,0.2,3.3c0.7,1,2,1,2.1,1l0.3,0L6.3,29l0.2,2.8l1.3-1.3c0.6-0.6,5.8-6.2,6.7-8.4l0-0.1l0-0.1
		C14.6,20.2,13.5,18.5,12,18z"/>
	<path class="st12" d="M96.4,25.4l-0.1-0.2l-0.1-0.1c-2.3-2.5-5.4-5.5-5.5-5.6l-1.1-1.1l0,0.1c-0.6-0.6-1.3-0.8-2.2-0.5
		c-1.4,0.5-2.6,2.2-2.5,3.8l0,0.1l0,0.1c0.8,2.3,6.1,7.8,6.7,8.4l1.3,1.3l0.2-2.8l0.5,0.6l0.3,0c0.1,0,1.3,0,2.1-1
		C96.8,27.9,96.8,26.8,96.4,25.4z"/>
	<g>
		<g>
			<path class="st291" d="M10.8,22.8l-5.4,6c0,0-2.5,0.1-1.5-3.2c2.3-2.5,5.4-5.5,5.4-5.5S9.6,22.3,10.8,22.8z"/>
			<path class="st291" d="M7.2,29.9L7,28.2l4.9-5.5c0,0-2.7-1.7-1.6-3.3c1.1-1.6,3.5,0.4,3.4,2.4C12.9,23.9,7.2,29.9,7.2,29.9z"/>
		</g>
		<g>
			<path class="st291" d="M88.7,22.8l5.4,6c0,0,2.5,0.1,1.5-3.2c-2.3-2.5-5.4-5.5-5.4-5.5S89.9,22.3,88.7,22.8z"/>
			<path class="st291" d="M92.3,29.9l0.1-1.8l-4.9-5.5c0,0,2.7-1.7,1.6-3.3c-1.1-1.6-3.5,0.4-3.4,2.4C86.6,23.9,92.3,29.9,92.3,29.9
				z"/>
		</g>
	</g>
	<g>
		<ellipse class="st12" cx="9" cy="54.5" rx="9" ry="9"/>
		<circle class="st291" cx="9" cy="54.5" r="8.3"/>
		<circle class="st292" cx="9" cy="54.5" r="7.3"/>
		<path class="st291" d="M9.2,55.8c2.6-0.1,4.8-1.7,5.5-4.1c-0.4-0.8-1-1.5-1.7-2.1c-0.8,0.5-1.6,0.8-2.5,0.9
			C9.8,52,9.3,53.8,9.2,55.8z M15,52.3c-0.9,2.3-3.2,3.9-5.8,3.9c0,0,0,0,0,0c0,1.6,0.3,3.2,0.8,4.5c3-0.5,5.4-3.1,5.4-6.3
			C15.4,53.7,15.2,53,15,52.3z M12.7,49.3c-1-0.7-2.3-1.2-3.7-1.2c-1.1,0-2.1,0.3-3,0.8c1,0.8,2.3,1.3,3.6,1.3
			C10.7,50.2,11.8,49.8,12.7,49.3z M9.9,50.6c-0.1,0-0.2,0-0.3,0c-1.2,0-2.4-0.4-3.3-1c-1.2,1.7-1.9,4-1.9,6.6c0,1,0.1,2,0.3,2.9
			c1.1,1,2.6,1.7,4.3,1.7c0.2,0,0.3,0,0.5,0c-0.5-1.4-0.7-2.9-0.7-4.6C8.7,54.1,9.2,52.2,9.9,50.6z M5.6,49.1
			c-0.9,0.6-1.6,1.4-2.2,2.3c0.2,0.7,0.5,1.2,0.8,1.8c0.3-1.5,0.9-2.8,1.6-3.9C5.8,49.3,5.7,49.2,5.6,49.1z M3.1,52.1
			c-0.3,0.7-0.5,1.6-0.5,2.4c0,1.6,0.6,3,1.5,4.1c-0.1-0.8-0.2-1.5-0.2-2.3c0-0.8,0.1-1.6,0.2-2.4C3.7,53.3,3.4,52.7,3.1,52.1z"/>
	</g>
	<g>
		<circle class="st12" cx="91" cy="54.5" r="9"/>
		<circle class="st291" cx="91" cy="54.5" r="8.3"/>
		<circle class="st292" cx="91" cy="54.5" r="7.3"/>
		<path class="st291" d="M89.5,50.5c-0.9-0.1-1.8-0.5-2.5-0.9c-0.7,0.6-1.3,1.3-1.7,2.1c0.8,2.3,2.9,4,5.5,4.1
			C90.7,53.8,90.2,52,89.5,50.5z M84.6,54.5c0,3.2,2.3,5.8,5.4,6.3c0.5-1.3,0.8-2.9,0.8-4.5c0,0,0,0,0,0c-2.6,0-4.8-1.6-5.8-3.9
			C84.8,53,84.6,53.7,84.6,54.5z M90.4,50.2c1.4,0,2.6-0.5,3.6-1.3c-0.9-0.5-1.9-0.8-3-0.8c-1.4,0-2.6,0.4-3.7,1.2
			C88.2,49.8,89.3,50.2,90.4,50.2z M91.3,56.2c0,1.7-0.3,3.2-0.7,4.6c0.2,0,0.3,0,0.5,0c1.6,0,3.1-0.6,4.3-1.7
			c0.2-0.9,0.3-1.9,0.3-2.9c0-2.6-0.7-5-1.9-6.6c-1,0.6-2.1,1-3.3,1c-0.1,0-0.2,0-0.3,0C90.8,52.2,91.3,54.1,91.3,56.2z M94.2,49.3
			c0.7,1.1,1.3,2.4,1.6,3.9c0.4-0.5,0.7-1.1,0.8-1.8c-0.5-0.9-1.3-1.7-2.2-2.3C94.3,49.2,94.2,49.3,94.2,49.3z M95.8,53.8
			c0.1,0.8,0.2,1.6,0.2,2.4c0,0.8-0.1,1.6-0.2,2.3c0.9-1.1,1.5-2.5,1.5-4.1c0-0.9-0.2-1.7-0.5-2.4C96.6,52.7,96.3,53.3,95.8,53.8z"
			/>
	</g>
	<g>
		<polygon class="st291" points="16.4,27.4 18.7,34 12.6,31.2 10.8,32.9 16.7,39.1 17.9,38 13.5,33.4 19.8,36.1 20.7,35.2 
			18.6,29.3 22.6,33.4 24,32 18,25.9 		"/>
		<polygon class="st291" points="32.2,12.6 35.3,17.5 28.2,15.2 28.2,15.2 28.2,15.2 28.2,15.2 28.2,15.2 26.7,16.1 31.3,23.4 
			33,22.3 29.9,17.5 36.8,19.9 38.5,18.8 33.9,11.6 		"/>
		<polygon class="st291" points="53,8.5 53,12.1 49.1,12.1 49.1,8.5 47.2,8.5 47.2,17.1 49.1,17.1 49.1,13.1 53,13.1 53,17.1 
			55,17.1 55,8.5 		"/>
		<polygon class="st291" points="78.7,21.3 73.4,16.4 72.7,17.2 74.5,19 69.5,24.4 70.9,25.8 76,20.4 77.9,22.1 		"/>
		<polygon class="st291" points="59.2,16.5 60.1,13.9 62.9,14.9 63.3,13.9 60.6,12.9 61.4,10.6 64.1,11.7 64.5,10.6 59.9,8.9 
			56.9,16.9 62.1,18.8 62.5,17.8 		"/>
		<polygon class="st291" points="76.2,29 78.2,27.2 80.1,29.3 81,28.6 79,26.4 80.8,24.8 82.7,27 83.6,26.2 80.3,22.6 74,28.3 
			77.7,32.5 78.6,31.7 		"/>
		<path class="st291" d="M45,15.5c-0.4,0.5-0.9,0.9-1.6,1.1c-1.7,0.6-3.6-0.4-4.2-2.2c-0.6-1.8,0.4-3.7,2.1-4.2
			c0.6-0.2,1.3-0.2,1.9,0l0.4-1.2c-1-0.3-2.1-0.3-3.2,0c-2.6,0.8-4.1,3.6-3.3,6.1c0.8,2.5,3.6,3.9,6.2,3c1.1-0.4,2.1-1.1,2.7-2
			L45,15.5z"/>
		<path class="st291" d="M71,16.7l1.2-0.3c0,0-0.1-1.5-1.6-2.4c-1.5-1-3.7-0.9-4.4,0.3c-0.8,1.3,0.2,2.9,0.6,3.5
			c0.4,0.5,0.7,1.4,0.7,1.4s0.4,1-0.6,1.4c-0.8,0.4-2.5-0.8-2.6-2.2C63.3,18.8,63,19,63,19s0,1.2,2,2.5c2,1.2,3.7,0.4,4.3-0.4
			c0.5-0.8,0.6-1.7,0.1-2.6c-0.3-0.7-1.1-2.2-1.1-2.2s-0.5-1,0.3-1.4c0.6-0.3,1.6,0.4,2,0.9C70.9,16.3,71,16.7,71,16.7z"/>
		<path class="st291" d="M21.8,20.6l-1.4,1.5l3.9,8.4l1.2-1.2L24.3,27l2.1-2.2l2.3,1l1.6-1.7L21.8,20.6z M23.8,26.1l-1.6-3l3.2,1.4
			L23.8,26.1z"/>
		<path class="st291" d="M84.6,35.7c0.5,0.4,1.9,0.7,3.1-0.5c1.8-1.7-0.3-4-0.3-4l-2.7-2.8l-6.2,5.9l1.4,1.4l2.4-2.3l0.9,0.9
			l-1.4,3.2l1.9,2C83.6,39.7,84.4,37,84.6,35.7z M83.7,33.5L83,32.8l2.3-2.2l0.6,0.6c0.2,0.2,1,1.4-0.1,2.4
			C84.8,34.7,83.7,33.5,83.7,33.5z"/>
	</g>
	<path class="st292" d="M61.1,43.9l-1.2,2.8h0.4v2.7h-1.6v-2.7h0.7l-1.4-2.8l-1.2,2.8h0.5v2.7h-1.6v-2.7h0.7L55,43.9l-1.2,2.8h0.5
		v4.9h3V53c-1.2-0.1-2.5,0.3-2.7,0.6c-0.5,0.6-3.1,1.1-1.8,0c1.3-1.1,2-1.1,0.9-1.7c-1.1-0.6-1.4-1.2-1.4-1.2l0.1-3.8l1.6-2.7h-1.9
		l-1.2-2.4l-1.2,2.4H48l-1.2-2.4l-1.2,2.4h-2.1l3.3,6.4l-1.9,1.9c0,0-0.4,1.7,0.6,2.8c1,1.1,1.3,1.7,0.5,2.8
		c-0.8,1.1-0.8,1.5-0.8,1.5s-1.1,1.6-1.2-0.4c-0.1-2.1-0.5-5.4-0.5-5.4l1.8-3.2c0,0-2.4-0.6-2.9-5.7c-1.2,1.6-2.4,0.7-3.1,0.2
		c-0.8,2.3-1.9,3.9-2.6,3.3c-0.6-0.6-1.6-0.8-1.6-0.8s1.8,2.9,1,4.6c2.1-2.1,3.8-2.8,4.5-2.4c0.7,0.4,0.8,1-1.1,2.7
		c1.4,0.6,1.7,0.6,1.8,0.6v9.5c0,0-0.4,3.4,2.1,3.4c1.4,0,1.7,0,1.7,0l-0.5,5.5c0,0,0.2,1,0.4,1.5c0.3,0.5,1.3,1.6,1.3,1.6
		s0.3,0.5,0.2,1.1c-0.1,0.6-0.6,2.4,0.6,2.8c1.1,0.3,3.2-1,3.6-1.3c0.4-0.3,1.1-0.9,0-2.1c-1.1-1.3-2-3.1-1-3.6
		c1-0.5,1.8-0.8,0.9-2.4c-0.9-1.6-2.5-5.5-1.2-4l5.8,6.4c0,0,0.9,0.9,1,0.3c-0.1-0.8-0.6-6-0.1-6.5c0.5-0.5-0.2-1.2-1.6-1.1
		c-0.1-1.3,0.3-1.9,0.3-2.4c0.1-0.5-0.9-0.6-2.4,0.3c-0.8,0.3,0.1-1.5,0.6-2c0.4-0.5,0.7-1,0.7-1l3.6,1.8c0,0,0,0,0.1,0v10.9h0
		c0,0.4,0.3,0.7,0.7,0.7c0.4,0,0.7-0.3,0.7-0.7h0V60.6c1-0.3,2-1.1,0.8-3c0.6-0.5,1.4-0.9,0.2-3.2c-0.2-0.5-0.6-0.8-1-1v-1.9h3v-4.9
		h0.7L61.1,43.9z M47.4,47.6l-0.1-2l1.1,1.6L47.4,47.6z M49.2,52.1L48.3,50c0.3,0,1.9,0,1.9,0L49.2,52.1z M50.8,47.6l-0.9-0.4
		l1.1-1.6L50.8,47.6z"/>
</g>
</svg>
