<?xml version="1.0" encoding="utf-8"?>
<!-- Generator: Adobe Illustrator 19.2.1, SVG Export Plug-In . SVG Version: 6.00 Build 0)  -->
<svg version="1.1" id="Capa_1" xmlns="http://www.w3.org/2000/svg" xmlns:xlink="http://www.w3.org/1999/xlink" x="0px" y="0px"
	 viewBox="0 0 100 100" style="enable-background:new 0 0 100 100;" xml:space="preserve">
<style type="text/css">
	.st0{fill:#9C824A;stroke:#9C824A;stroke-width:0.793;stroke-miterlimit:282;}
	.st1{fill:#023474;stroke:#023474;stroke-width:0.793;stroke-miterlimit:282;}
	.st2{fill:#FFFFFF;stroke:#FFFFFF;stroke-width:0.793;stroke-miterlimit:282;}
	.st3{fill:#EF0107;stroke:#EF0107;stroke-width:0.793;stroke-miterlimit:282;}
	.st4{fill:#DB0007;stroke:#DB0007;stroke-width:0.793;stroke-miterlimit:282;}
	.st5{fill:#FFFFFF;}
	.st6{fill:#9C824A;}
	.st7{fill:#EF0107;stroke:#EF0107;stroke-width:0.3115;stroke-miterlimit:282;}
	.st8{fill:#DB0007;stroke:#DB0007;stroke-width:0.3115;stroke-miterlimit:282;}
	.st9{fill:#DB0007;}
	.st10{fill:#FFFFFF;stroke:#FFFFFF;stroke-width:0.3115;stroke-miterlimit:282;}
	.st11{fill:#FFFFFF;stroke:#FFFFFF;stroke-width:0.554;stroke-miterlimit:3.864;}
	.st12{fill:#231F20;}
	.st13{fill:#00B6F1;}
	.st14{fill:#EF3E2E;}
	.st15{fill:#BBBDBF;}
	.st16{fill:#F0B83D;}
	.st17{fill:#001C58;}
	.st18{fill:#94BEE5;}
	.st19{fill:none;stroke:#7A003C;stroke-width:2.2437;stroke-miterlimit:6;}
	.st20{fill:#7A003C;}
	.st21{fill:#FFE600;}
	.st22{fill:#DBA111;}
	.st23{fill:#034694;}
	.st24{fill:#D1D3D4;}
	.st25{fill:#ED1C24;}
	.st26{fill:#6A7AB5;}
	.st27{fill:none;}
	.st28{fill:#274488;}
	.st29{fill:#004798;stroke:#004798;stroke-width:9.375000e-02;}
	.st30{fill:#FFFFFF;stroke:#FFFFFF;stroke-width:9.375000e-02;}
	.st31{fill:#FABC00;stroke:#FABC00;stroke-width:9.375000e-02;}
	.st32{fill:none;stroke:#FFFFFF;stroke-width:7.865;stroke-miterlimit:3.864;}
	.st33{fill:none;stroke:#FFFFFF;stroke-width:7.865;stroke-miterlimit:12;}
	.st34{fill:none;stroke:#FFFFFF;stroke-width:7.865;stroke-miterlimit:22;}
	.st35{fill:none;stroke:#FFFFFF;stroke-width:7.865;stroke-miterlimit:6;}
	.st36{fill:#00A398;}
	.st37{fill:#D00027;}
	.st38{fill:none;stroke:#FFFFFF;stroke-width:17.3907;stroke-miterlimit:3.864;}
	.st39{fill:none;stroke:#FFFFFF;stroke-width:13.1107;stroke-miterlimit:3.864;}
	.st40{fill:#FEF667;}
	.st41{fill:#D00027;stroke:#D00027;}
	.st42{fill:#5299C6;}
	.st43{fill:#60223B;}
	.st44{fill:#F7C240;}
	.st45{fill:#292D6B;}
	.st46{fill:#1B458F;}
	.st47{fill:#C4122E;}
	.st48{fill:#27409B;}
	.st49{clip-path:url(#SVGID_2_);}
	.st50{fill:#F4F4F4;}
	.st51{fill:#D3D2D2;}
	.st52{fill:#A7A5A6;}
	.st53{fill:#091453;}
	.st54{fill:none;stroke:#FFFFFF;stroke-width:6.6301;}
	.st55{clip-path:url(#SVGID_4_);}
	.st56{fill:#724314;}
	.st57{fill:#240B08;}
	.st58{fill:#018B4B;}
	.st59{fill:#A6181D;}
	.st60{fill:#592D09;}
	.st61{fill:#FFCE65;}
	.st62{fill:#5CBFEB;}
	.st63{fill:none;stroke:#000000;stroke-width:10;}
	.st64{fill:none;stroke:#000000;}
	.st65{fill:#B2B2B2;}
	.st66{fill:none;stroke:#000000;stroke-width:0.3;}
	.st67{fill:#00A650;stroke:#000000;stroke-width:2;}
	.st68{fill:#241F20;stroke:#241F20;stroke-width:9.375000e-02;}
	.st69{fill:#FFF200;stroke:#FFF200;stroke-width:9.375000e-02;}
	.st70{fill:#A68A26;}
	.st71{fill:none;stroke:#A68A26;stroke-width:4.792100e-02;stroke-miterlimit:3.8637;}
	.st72{fill:#211E1E;}
	.st73{fill:none;stroke:#211E1E;stroke-width:4.792100e-02;stroke-miterlimit:3.8637;}
	.st74{fill:#EB172B;}
	.st75{fill:none;stroke:#EB172B;stroke-width:4.792100e-02;stroke-miterlimit:3.8637;}
	.st76{fill:#A68A26;stroke:#A68A26;stroke-width:4.792100e-02;stroke-miterlimit:3.8637;}
	.st77{fill:#D1BF7F;}
	.st78{fill:none;stroke:#D1BF7F;stroke-width:4.792100e-02;stroke-miterlimit:3.8637;}
	.st79{fill:none;stroke:#FFFFFF;stroke-width:4.792100e-02;stroke-miterlimit:3.8637;}
	.st80{fill:#EB172B;stroke:#EB172B;stroke-width:4.792100e-02;stroke-miterlimit:3.8637;}
	.st81{fill:#ED2127;}
	.st82{fill:#FBEE23;}
	.st83{stroke:#000000;}
	.st84{fill:#CF1F44;}
	.st85{fill:#1B449C;}
	.st86{fill:#E03A3E;}
	.st87{fill:#2E6ABD;stroke:#2E6ABD;stroke-width:0.617;}
	.st88{fill:#FFFFFF;stroke:#FFFFFF;stroke-width:0.6175;}
	.st89{fill:#ED1248;}
	.st90{fill:#2E6ABD;}
	.st91{fill:#FDE100;}
	.st92{fill:#CC0000;}
	.st93{fill:#211E1F;}
	.st94{fill:#ED1A3B;}
	.st95{fill:#00AEEF;}
	.st96{fill:#FFC40D;}
	.st97{fill:#22B24C;}
	.st98{fill:#FFC20E;}
	.st99{fill:#0A3F86;}
	.st100{fill:#005CA9;}
	.st101{fill:#FFE000;}
	.st102{fill:#E2001A;}
	.st103{opacity:0;}
	.st104{opacity:0;fill:#FFFFFF;}
	.st105{fill:#FFFFFF;stroke:#000000;}
	.st106{fill:#0060A9;}
	.st107{fill:#E32219;}
	.st108{fill:#FFED00;}
	.st109{fill:#1D9053;}
	.st110{fill:#52A600;}
	.st111{fill:#EE2523;}
	.st112{fill:#F7D117;}
	.st113{fill:#171796;}
	.st114{fill:#009959;}
	.st115{fill:#D42E12;}
	.st116{fill:#703824;}
	.st117{fill:#E5254E;}
	.st118{fill:#8AC3EE;}
	.st119{fill:#B19221;}
	.st120{fill:#F5C03E;}
	.st121{fill:#FF1119;}
	.st122{fill:#1E6BC0;}
	.st123{fill:#B4742A;}
	.st124{fill:#371B02;}
	.st125{fill:url(#SVGID_5_);}
	.st126{fill:url(#SVGID_6_);}
	.st127{fill:url(#SVGID_7_);}
	.st128{fill:url(#SVGID_8_);}
	.st129{fill:url(#SVGID_9_);}
	.st130{fill:url(#SVGID_10_);}
	.st131{fill:url(#SVGID_11_);}
	.st132{fill:url(#SVGID_12_);}
	.st133{fill:url(#SVGID_13_);}
	.st134{fill:url(#SVGID_14_);}
	.st135{fill:#EB2626;}
	.st136{fill:#E9C32C;}
	.st137{fill:#D9D9D9;}
	.st138{fill:#009C5E;}
	.st139{fill:#1C75BC;}
	.st140{fill:#611D5C;}
	.st141{fill:#E2B900;}
	.st142{fill:#004B95;}
	.st143{fill:#A4234B;}
	.st144{fill:#DB2F36;}
	.st145{fill:#FFDF00;}
	.st146{fill:#A38D44;}
	.st147{fill:#57175E;}
	.st148{fill:#AFDCFD;}
	.st149{fill:#0090C6;}
	.st150{fill:#DB5232;}
	.st151{fill:#23C1E0;}
	.st152{fill:#F1A92A;}
	.st153{fill:#167FB6;}
	.st154{fill:#FED75D;}
	.st155{fill:#378CBF;}
	.st156{fill:#3E9692;}
	.st157{fill:#E67F29;}
	.st158{fill:#D8B43C;}
	.st159{fill:#EF3B33;}
	.st160{fill:#24923D;}
	.st161{opacity:6.000001e-02;fill:#101010;enable-background:new    ;}
	.st162{fill:#00529F;}
	.st163{fill:#EE324E;}
	.st164{fill:#FEBE10;}
	.st165{fill:#143C8B;}
	.st166{fill:#FFE24A;}
	.st167{fill:#EC1D24;}
	.st168{fill:#E6A514;}
	.st169{fill:#FFDF1C;}
	.st170{fill:#EE3524;}
	.st171{fill:#B23428;}
	.st172{fill:#D18816;}
	.st173{fill:#0097D7;}
	.st174{fill:#ED1C23;}
	.st175{fill:#E30613;}
	.st176{fill:#FFE400;}
	.st177{fill:#C51A1B;}
	.st178{clip-path:url(#SVGID_17_);}
	.st179{clip-path:url(#SVGID_18_);fill:none;stroke:#000000;stroke-width:0.8131;stroke-miterlimit:3.864;}
	.st180{fill:#0093D5;}
	.st181{fill:#004B9D;}
	.st182{fill:#FCC24F;}
	.st183{fill:#009545;}
	.st184{fill:#0072BB;}
	.st185{fill:#C4974E;}
	.st186{fill:url(#path1292_1_);}
	.st187{fill:#004996;}
	.st188{fill:#FFE667;}
	.st189{fill:none;stroke:#005187;stroke-width:0.153;stroke-miterlimit:3.864;}
	.st190{fill:#005187;}
	.st191{clip-path:url(#SVGID_20_);}
	.st192{clip-path:url(#SVGID_22_);fill:none;stroke:#000000;stroke-width:0.296;stroke-miterlimit:3.864;}
	.st193{clip-path:url(#SVGID_24_);fill:#FFE667;}
	.st194{clip-path:url(#SVGID_26_);fill:none;stroke:#000000;stroke-width:8.300000e-02;stroke-miterlimit:3.864;}
	.st195{fill:none;stroke:#000000;stroke-width:0.153;stroke-miterlimit:3.864;}
	.st196{clip-path:url(#SVGID_28_);fill:#E70005;}
	.st197{clip-path:url(#SVGID_30_);fill:none;stroke:#E70005;stroke-width:0.296;stroke-miterlimit:3.864;}
	.st198{clip-path:url(#SVGID_32_);fill:#E70005;}
	.st199{clip-path:url(#SVGID_34_);fill:none;stroke:#E70005;stroke-width:0.296;stroke-miterlimit:3.864;}
	.st200{clip-path:url(#SVGID_36_);fill:#E70005;}
	.st201{clip-path:url(#SVGID_38_);fill:none;stroke:#E70005;stroke-width:0.296;stroke-miterlimit:3.864;}
	.st202{clip-path:url(#SVGID_40_);fill:#E70005;}
	.st203{clip-path:url(#SVGID_42_);fill:none;stroke:#E70005;stroke-width:0.296;stroke-miterlimit:3.864;}
	.st204{fill:#E70005;}
	.st205{fill:none;stroke:#000000;stroke-width:0.141;stroke-miterlimit:3.864;}
	.st206{fill:#00276D;}
	.st207{fill:#C49308;}
	.st208{fill:#179D33;}
	.st209{fill:#999999;}
	.st210{fill:#FF0000;}
	.st211{fill:#E31837;}
	.st212{fill:#06357A;}
	.st213{fill:#B4053F;}
	.st214{fill:#DCA43E;}
	.st215{fill:#005CA5;}
	.st216{fill:#FAC400;}
	.st217{fill:#004083;}
	.st218{fill:#A95932;}
	.st219{fill:none;stroke:#000000;stroke-width:1.2215;}
	.st220{fill:#E62627;}
	.st221{fill:#00458C;}
	.st222{fill:#E11B22;}
	.st223{fill:#00AB4E;}
	.st224{fill:#F47920;}
	.st225{fill:#C7C8CA;}
	.st226{fill:#E11515;}
	.st227{fill:#A4965F;}
	.st228{fill:#E51636;}
	.st229{fill:#EACC00;}
	.st230{fill:#4F846B;}
	.st231{fill:#E22227;}
	.st232{fill:#FAE700;}
	.st233{fill:url(#SVGID_43_);}
	.st234{fill:#666666;}
	.st235{fill:#FFF200;}
	.st236{fill:#00275D;}
	.st237{fill:#EF3E33;}
	.st238{fill:none;stroke:#00275D;stroke-width:2.632;}
	.st239{fill:#3F7652;}
	.st240{fill:#F1D261;}
	.st241{fill:#004D8F;}
	.st242{fill:#E7B137;stroke:#E7B137;stroke-miterlimit:10;}
	.st243{fill:#E7B137;}
	.st244{fill:#162577;}
	.st245{fill:#12692C;}
	.st246{fill:#D8141D;}
	.st247{fill:#AB830D;}
	.st248{fill:#0086CB;}
	.st249{fill:#001F42;}
	.st250{fill:#9A8F4A;}
	.st251{fill:#00559D;}
	.st252{fill:#FDDE00;}
	.st253{fill:#00924C;}
	.st254{fill:#233984;}
	.st255{fill:#FFD42E;}
	.st256{fill:#BA3733;}
	.st257{fill:#46714D;}
	.st258{fill:#221F1F;}
	.st259{fill:#00559E;}
	.st260{fill:#005C46;}
	.st261{fill:#FBC860;}
	.st262{fill:#D57C48;}
	.st263{fill:#040403;}
	.st264{fill:#4AB969;}
	.st265{fill:#8ED8F8;}
	.st266{fill:#FEC34E;}
	.st267{fill:#FFC95B;}
	.st268{fill:#00644C;}
	.st269{fill:#70B865;}
	.st270{fill:#CA6F44;}
	.st271{fill:#A8B8BE;}
	.st272{fill:#1C2C80;}
	.st273{fill:#E10321;}
	.st274{fill:none;stroke:#231F20;stroke-width:0.318;stroke-miterlimit:3.864;}
	.st275{fill:#D71920;}
	.st276{fill:#484749;}
	.st277{fill:#D9DBDC;}
	.st278{fill:#DF725A;}
	.st279{fill:#F2CABA;}
	.st280{fill:#E89C84;}
	.st281{fill:#264F99;}
	.st282{clip-path:url(#SVGID_45_);}
	.st283{fill:#161413;}
	.st284{fill:#ED1B26;}
	.st285{fill:#E60D2E;}
	.st286{fill:#FCD600;}
	.st287{fill:#004D91;}
	.st288{fill:#EAB412;}
	.st289{fill:#FDD31D;}
	.st290{fill:#EFB800;}
	.st291{fill:#FFF100;}
	.st292{fill:#ED3024;}
</style>
<path id="path5809"  class="st5" d="M98.8,63c0-0.1-0.1-0.1-0.1-0.1l-6.1-2.3
	c0.1-0.4,0.3-1,0.8-1.6l3.1,1.4c0.1,0.1,0.2,0.1,0.3,0.1c0.3,0,0.5-0.2,0.7-0.4c0.1-0.1,0.3-0.5,0.5-1c0.3-0.8,0.4-1.6,0.2-2.2
	c-0.2-0.6-0.6-1.1-1.3-1.4l-8.4-3.8c0,0,0,0-0.1,0l0,0c-0.3-0.1-0.9-0.3-1.7-0.1c0-0.3,0-0.5,0-0.8c0-0.6,0-1.3-0.1-2
	c0-0.7-0.1-1.4-0.2-2.2c-0.5-4.2-1.5-7.4-1.9-8.5l-0.2-0.4c-1.6-4.6-2.9-8.2-2.9-12.5c0-3.3,4.1-7.8,5.7-9.3l1.5-1.4L73.4,0.2
	L72.1,1c-2.8,1.9-6.5,2.9-10.3,2.9c-4,0-7.8-1.1-10.7-3.1L50,0l-1.1,0.8c-2.9,2-6.7,3.1-10.7,3.1c-3.8,0-7.5-1-10.3-2.9l-1.2-0.8
	L12.6,13l-1.5,1.4l1.5,1.4c1.6,1.5,5.7,6.1,5.7,9.3c0,4.3-1.3,8-2.9,12.5L15.3,38c-0.4,1.1-1.4,4.3-1.9,8.5
	c-0.1,0.7-0.1,1.5-0.2,2.2c0,0.7-0.1,1.4-0.1,2c0,0.3,0,0.5,0,0.8c-0.7-0.2-1.3-0.1-1.6,0.1h0c0,0,0,0-0.1,0l-8.4,3.8
	c-0.7,0.3-1.1,0.8-1.3,1.4c-0.2,0.6-0.1,1.3,0.2,2.2c0.2,0.5,0.5,0.9,0.5,1c0.1,0.2,0.4,0.4,0.7,0.4c0.1,0,0.2,0,0.3-0.1l3.1-1.4
	c0.4,0.6,0.6,1.2,0.8,1.6l-6.1,2.3c-0.1,0-0.1,0-0.1,0.1c0,0.1,0,0.1,0,0.2l0.4,0.9c3.8,9.5,10.3,17.6,18.7,23.5
	c7.8,5.4,17,8.6,26.5,9.2l3.1,3.1c0,0,0.1,0.1,0.1,0.1c0,0,0.1,0,0.1-0.1l3.1-3.1c9.5-0.6,18.7-3.8,26.5-9.2
	c8.4-5.9,14.9-14,18.7-23.5l0.4-0.9C98.9,63.1,98.9,63.1,98.8,63"/>
<path id="path5813"  class="st28" d="M10.8,55.8c-0.3-0.8-0.4-1.6-0.3-2.3c0,0,0-0.1,0-0.2l0.1-0.4
	l-7.2,3.3c-0.4,0.2-0.7,0.5-0.8,0.8c-0.2,0.8,0.2,1.7,0.5,2.1l0.1,0.2l7.6-3.4L10.8,55.8z"/>
<path id="path5817"  class="st28" d="M89.2,55.8c0.3-0.8,0.4-1.6,0.3-2.3c0,0,0-0.1,0-0.2L89.4,53
	l7.2,3.3c0.4,0.2,0.7,0.5,0.8,0.8c0.2,0.8-0.2,1.7-0.5,2.1l-0.1,0.2L89.1,56L89.2,55.8z"/>
<path id="path5821"  class="st28" d="M25.2,83l-1.1,0.9l1,0.6l0.4-1.4c0-0.2,0.1-0.3,0.1-0.4l0,0
	C25.5,82.8,25.4,82.9,25.2,83"/>
<path id="path5825"  class="st28" d="M64.2,87.2c-0.6,0.2-0.8,0.8-0.5,1.8c0.3,1,0.9,1.4,1.5,1.2
	c0.6-0.2,0.8-0.8,0.5-1.8C65.3,87.3,64.8,87,64.2,87.2"/>
<path id="path5829"  class="st28" d="M68.6,85.5l-0.3,0.2l0.6,1.3c0.1,0,0.3-0.1,0.4-0.2
	c0.5-0.2,0.6-0.5,0.4-1C69.4,85.3,69,85.3,68.6,85.5"/>
<path id="path5833"  class="st28" d="M58.2,46.1c0,0-0.9-0.3-1.5-0.4c-0.8-0.1-1.3-0.2-1.4-0.2
	c-0.2,0-0.6,0-0.6-0.3c0-0.2,0.2-0.2,0.4-0.2c0.3,0,1,0.1,1.5,0.1c1,0.2,1.7,0.4,1.7,0.3v-1.3c0,0-1.5-0.5-3-0.7
	c-1.1-0.1-1.6-0.1-2.2-0.1c-0.1,0-0.4,0-0.4-0.2S52.9,43,53,43c0.8-0.1,1.8-0.1,2.9,0c1.2,0.1,2.4,0.5,2.4,0.5V42
	c-0.5-0.2-1.1-0.4-1.7-0.5c-0.7-0.1-1.6-0.2-1.8-0.2s-0.2-0.1-0.2-0.1c0-0.1,0-0.2,0.2-0.2c0.2,0,0.7-0.1,1.3,0
	c0.5,0,1.6,0.1,2.1,0.2l0-1.1c-1-0.5-2.6-0.8-3.7-1c-1.6-0.2-3-0.3-3.3-0.3c-0.1,0-0.3,0-0.3-0.2c0-0.1,0.1-0.2,0.3-0.2
	c0.2,0,1.4,0,3.3,0.1c0.9,0.1,2.8,0.4,3.6,0.6l0-1.1c-0.9-0.5-2.4-0.8-4.5-1.1c-2.6-0.4-7.5-0.2-7.8-0.2c-0.4,0-0.4-0.1-0.4-0.2
	c0-0.1,0.1-0.2,0.4-0.3c0.3,0,3.6-0.4,6.4-0.2c2.1,0.1,5,0.7,5.9,0.9l0-0.8c-1.6-1.1-4.1-1.2-4.3-1.2c-0.2,0-0.3-0.1-0.3-0.2
	c0-0.1,0.1-0.2,0.2-0.2c0.1,0,0.5-0.1,1.3,0c0.6,0,2.4,0.4,3,0.5l0-0.8c-1.2-0.7-3.8-1.1-5.9-1.3c0,0-0.2,0-0.7,0l0,0.5
	c0,0.2-0.1,0.3-0.3,0.3c-1.2-0.1-1.6-0.1-2.9,0h0c-0.2,0-0.3-0.1-0.3-0.3l0-0.5c-1.1,0-2.4,0.1-3.8,0.3c-0.2,0-0.4,0.1-0.4-0.1
	c0-0.1,0-0.2,0.3-0.2c0.2,0,3.1-0.4,3.8-0.5c0,0,0.1,0,0.2,0L47.8,29c0-0.1,0-0.2,0.1-0.2c0.1-0.1,0.1-0.1,0.2-0.1
	c1.5-0.1,2-0.1,3.4,0c0.1,0,0.2,0,0.2,0.1c0,0.1,0.1,0.1,0.1,0.2c0.7,0,1.3,0.1,1.9,0.1c1.1,0.1,3.7,0.4,4.4,0.5v-0.8
	c-0.1-0.1-0.3-0.2-0.5-0.2c-0.7-0.3-3.6-0.8-7.7-0.8c-4.1,0-6.5,0.5-6.9,0.6c-0.4,0.1-0.9,0.3-0.9,0.5l0.1,9.2c-0.1,0.6,0,3.1,0,3.7
	c0,1,1.5,1.6,4.8,2.7c3.5,1.3,7.8,2.6,11.1,3.5V46.1"/>
<path id="path5837"  class="st28" d="M55.3,48.1c-0.7-0.2-1-0.3-1.7-0.5c-0.1,0-0.1,0-0.1,0.1
	c0,1.2,0,1.8,0,2.9c0,0.1,0.1,0.1,0.1,0.2c0.7,0.2,1,0.3,1.7,0.6c0.1,0,0.1,0,0.1-0.1c0-1.1,0-1.7,0-3
	C55.4,48.1,55.4,48.1,55.3,48.1"/>
<path id="path5841"  class="st28" d="M52.5,47.2c-0.7-0.2-1-0.3-1.7-0.5c-0.1,0-0.1,0-0.1,0.1
	c0,1.1,0,1.7,0,2.8c0,0.1,0.1,0.1,0.1,0.2c0.7,0.2,1,0.4,1.7,0.6c0.1,0,0.1,0,0.1-0.1c0-1.1,0-1.7,0-2.9
	C52.6,47.3,52.6,47.2,52.5,47.2"/>
<path id="path5845"  class="st28" d="M46.9,45.4c-0.7-0.2-1-0.3-1.7-0.6c-0.1,0-0.1,0-0.1,0.1v2.7
	c0,0.1,0.1,0.1,0.1,0.2c0.7,0.2,1,0.4,1.7,0.6c0.1,0,0.1,0,0.1-0.1c0-1.1,0-1.7,0-2.7C47,45.4,47,45.4,46.9,45.4"/>
<path id="path5849"  class="st28" d="M56.5,25.1c-0.1-0.1-0.1-0.2-0.2-0.4
	c-0.7-0.2-2.3-0.7-3.5-0.8c-0.2,0-0.6,0-0.6-0.2c0-0.2,0.1-0.2,0.5-0.2c1,0,2.5,0.3,3.2,0.4c-0.2-0.4-0.4-0.9-0.7-1.4
	c-1.3-0.5-3.7-0.6-4.2-0.7c-0.5-0.1-0.6-0.1-0.6-0.3c0-0.2,0.3-0.1,1.1-0.2c0.9,0,2.7,0.1,3.3,0.2c-0.2-0.4-0.4-0.8-0.5-1.2
	c-0.7-0.5-2.1-0.6-2.5-0.6c-0.4,0-0.5-0.2-0.5-0.3c0-0.1,0.2-0.2,0.4-0.2c0.1,0,1.7,0,1.8,0c0.1,0,0.2-0.1,0.1-0.2
	c-0.2-0.3-0.2-0.5-0.4-0.9C53,18.1,52.7,18,52.5,18c-0.2,0-1-0.1-1.3-0.1c-0.2-0.1-0.2-0.1-0.2-0.2c0-0.1,0.1-0.2,0.2-0.2
	c0.5,0,1.3,0,1.5,0c0.1,0,0.3-0.1,0.2-0.2c-0.1-0.2-0.2-0.4-0.3-0.6c-0.2-0.1-0.5-0.2-0.8-0.2c-0.3-0.1-1-0.1-1.5-0.2
	c-0.1,0-0.2-0.1-0.2-0.2s0.1-0.2,0.2-0.2c0.4-0.1,1.1-0.1,1.4-0.1c0.2,0,0.5-0.1,0.5-0.3c-0.2-0.3-0.3-0.6-0.4-0.9
	c-0.2,0-0.6,0-0.9-0.1c-0.1,0-0.3,0-0.3-0.1c0-0.1,0.1-0.2,0.3-0.2c0.1,0,0.4-0.1,0.6-0.2c-0.1-0.2-0.2-0.4-0.3-0.6
	c-0.3,0-0.9-0.1-1.4-0.1c-0.2,0-0.3-0.1-0.3-0.2s0-0.1,0.2-0.2c0.3-0.1,0.9-0.1,1.1-0.2c-0.3-0.6-0.6-1.3-0.9-1.8
	c-2.1,4.4-5.9,12.6-6.5,13.9c2.2-0.5,5.1-0.7,6.4-0.7C51.3,24.4,54.4,24.6,56.5,25.1"/>
<path id="path5853"  class="st28" d="M44.1,44.3c-0.7-0.2-1-0.4-1.7-0.6c-0.1,0-0.1,0-0.1,0.1v2.8
	c0,0.1,0.1,0.2,0.1,0.2c0.7,0.2,1,0.4,1.7,0.6c0.1,0,0.1,0,0.1-0.1v-2.7C44.2,44.4,44.2,44.4,44.1,44.3"/>
<path id="path5857"  class="st28" d="M49.7,46.3c-0.7-0.2-1-0.3-1.7-0.6c-0.1,0-0.1,0-0.1,0.1v2.7
	c0,0.1,0.1,0.1,0.1,0.2c0.7,0.2,1,0.4,1.7,0.6c0.1,0,0.1,0,0.1-0.1c0-1.1,0-1.7,0-2.8C49.8,46.4,49.8,46.3,49.7,46.3"/>
<path id="path5861"  class="st28" d="M44.3,60.3c0-0.7-0.5-1.2-1.2-1.2c-1,0-1.4,0.7-1.5,2l1.8-0.1
	C44,61,44.3,60.8,44.3,60.3"/>
<path id="path5865"  class="st28" d="M62.4,59c-1.3,0-1.8,1.2-1.8,3c0,2.2,0.6,3.3,1.8,3.3
	s1.8-1,1.8-3C64.3,60.1,63.6,59,62.4,59"/>
<path id="path5869"  class="st28" d="M54.3,30.9c0.2,0,0.8,0,1.7,0.1c0.7,0.1,1.6,0.3,2.1,0.4v-0.8
	c-0.9-0.4-3-0.8-4.1-0.9c-0.7-0.1-1.5-0.2-2.3-0.2l-0.2,3c0.4,0,0.7,0,0.7,0c0.5,0,1,0.1,1.5,0.1c2,0.2,3.6,0.6,4.3,0.7v-1.1
	c-1.1-0.9-3.7-1-3.8-1S54,31.2,54,31C54,30.9,54.1,30.9,54.3,30.9"/>
<path id="path5873"  class="st28" d="M42.2,27.8c0.3-0.1,3-1,7.7-1c4.7,0,7.6,1,7.9,1.2
	c0.4,0.2,0.7,0.3,0.9,0c0.2-0.3,0-0.6-0.3-0.8c-1-0.7-4.7-1.5-8.5-1.4c-3.8,0-7.7,0.9-8.2,1.1c-0.5,0.2-0.8,0.5-0.6,0.8
	C41.4,28.1,41.9,27.9,42.2,27.8"/>
<path id="path5877"  class="st28" d="M58.1,48.9c-0.7-0.2-1-0.3-1.7-0.5c-0.1,0-0.1,0-0.1,0.1
	c0,1.2,0,1.9,0,3c0,0.1,0.1,0.1,0.1,0.2c0.7,0.2,1,0.3,1.7,0.6c0.1,0,0.1,0,0.1-0.1v-3.1C58.2,49,58.2,48.9,58.1,48.9"/>
<path id="path5881"  class="st28" d="M49,33.3c0.9,0,2,0,2,0l0.2-3.8c-0.9-0.1-2.4,0-2.4,0L49,33.3
	z"/>
<path id="path5885"  class="st28" d="M70.6,85.3c0.5,1-0.1,1.9-1,2.3c-0.1,0-0.3,0.1-0.4,0.2
	l0.6,1.3c0.1,0.1,0,0.2-0.1,0.3l-0.6,0.3c-0.1,0.1-0.2,0-0.3-0.1l-1.9-4c-0.1-0.2,0-0.2,0.1-0.3l1-0.5c0.7-0.3,1.3-0.4,1.8-0.2
	C70.2,84.7,70.5,85,70.6,85.3 M88,67.1c-0.1-0.1-0.1-0.2,0-0.3l0.3-0.4c0.1-0.1,0.1-0.1,0.2-0.1l3.9,2.1l0,0
	c0.1,0.1,0.2,0.2,0.1,0.3l-0.4,0.6c-0.1,0.2-0.2,0.2-0.3,0.1l-2.1-1.2h0l1.6,2.2c0.1,0.1,0.1,0.2,0,0.3l-0.1,0.2
	C91,70.9,91,71,90.8,71l-2.8-0.3l0,0l2.1,1.3c0.2,0.1,0.2,0.2,0.1,0.3l-0.3,0.5c-0.1,0.1-0.2,0.2-0.3,0.1l0,0l-3.6-2.5
	c-0.1-0.1-0.1-0.2-0.1-0.3l0.3-0.4c0.1-0.2,0.2-0.2,0.3-0.2l3.5,0.4l0,0L88,67.1z M86.2,73.9l-1.9-1.5c-0.1-0.1-0.1-0.2,0-0.3
	l0.4-0.5c0.1-0.1,0.2-0.1,0.3,0l1.9,1.6c1.2,1,1.2,2.1,0.4,3.1c-0.9,1.1-1.9,1.1-3.1,0.2l-1.9-1.6c-0.1-0.1-0.1-0.2,0-0.3l0.4-0.5
	c0.1-0.1,0.2-0.1,0.3,0l1.9,1.5c0.9,0.7,1.3,0.6,1.7,0.1C87.1,75,87.1,74.5,86.2,73.9 M80.8,76.3c0-0.1,0-0.2,0.1-0.3l0.3-0.3
	c0.1-0.1,0.2-0.1,0.3,0l3.2,3.1c0,0,0,0,0,0c0.1,0.1,0.1,0.2,0,0.3l-0.5,0.5c-0.1,0.1-0.2,0.1-0.4-0.1l-1.7-1.7l0,0l0.9,2.6
	c0.1,0.1,0,0.2-0.1,0.3l-0.2,0.2c-0.1,0.1-0.2,0.1-0.3,0.1l-2.6-1l0,0l1.6,1.8c0.1,0.2,0.1,0.2,0,0.3l-0.4,0.4
	c-0.1,0.1-0.2,0.1-0.3,0l0,0L77.9,79c-0.1-0.1-0.1-0.2,0-0.3l0.4-0.3c0.1-0.1,0.2-0.1,0.3-0.1l3.3,1.3l0,0L80.8,76.3z M78.7,83.2
	L79,83c0.1-0.1,0.2,0,0.2,0l0.2,0.3c0.1,0.1,0.1,0.2,0,0.2L78,84.6c-0.1,0.1-0.2,0-0.2,0l-0.2-0.3c-0.1-0.1-0.1-0.2,0-0.2l0.3-0.2
	l-2-2.7l-0.3,0.2c-0.1,0.1-0.2,0-0.2-0.1L75,81c-0.1-0.1-0.1-0.2,0-0.2l1.5-1.1c0.1-0.1,0.2-0.1,0.2,0L77,80c0.1,0.1,0.1,0.2,0,0.2
	l-0.3,0.2L78.7,83.2z M75.2,86.2c0.1,0.2,0.1,0.2,0,0.2l-0.7,0.4c-0.1,0.1-0.1,0.1-0.2-0.1l-1.9-3.2l-1.1,0.6
	c-0.1,0.1-0.2,0.1-0.3-0.1l-0.3-0.4c-0.1-0.1,0-0.2,0.1-0.2l2.9-1.7l0.3-0.2c0.1-0.1,0.2,0,0.2,0v0l0.2,0.5c0.1,0.1,0,0.2-0.1,0.3
	l-1.1,0.6L75.2,86.2z M63.9,86.3c1.4-0.5,2.4,0.3,2.9,1.6c0.5,1.5-0.1,2.7-1.3,3.1c-1.3,0.4-2.4-0.2-2.9-1.7
	C62.1,88,62.6,86.7,63.9,86.3 M58.7,92l0.3-0.1c0.1,0,0.2,0.1,0.2,0.2l0.1,0.4c0,0.1,0,0.2-0.1,0.2l-1.8,0.3c-0.1,0-0.2,0-0.2-0.1
	l-0.1-0.4c0-0.1,0-0.2,0.1-0.2l0.3-0.1L57,88.8l-0.4,0.1c-0.1,0-0.2-0.1-0.2-0.2l-0.1-0.4c0-0.1,0-0.2,0.1-0.2l1.9-0.3
	c0.1,0,0.2,0.1,0.2,0.1l0.1,0.4c0,0.1,0,0.2-0.1,0.2l-0.4,0.1L58.7,92z M53.1,89.8c0,0.2,0.3,0.3,0.5,0.4l0.8,0.3
	c0.6,0.2,0.9,0.5,1,1.2c0.1,1-0.7,1.6-1.6,1.7c-0.5,0-1,0-1.5-0.1c-0.1,0-0.2-0.1-0.2-0.1c0,0,0-0.1,0-0.1l0.2-0.6
	c0-0.1,0-0.1,0.1-0.1c0,0,0.1,0,0.1,0c0.4,0.1,0.8,0.2,1.1,0.1c0.3,0,0.6-0.2,0.6-0.5c0-0.3-0.2-0.4-0.5-0.5l-0.9-0.4
	c-0.5-0.2-0.9-0.6-1-1.2c-0.1-0.9,0.8-1.5,1.6-1.5c0.5,0,0.9,0,1.4,0.2c0.1,0,0.2,0.1,0.2,0.2c0,0,0,0.1,0,0.1l-0.2,0.5
	c0,0.1-0.1,0.1-0.1,0.1c0,0-0.1,0-0.1,0c-0.3-0.1-0.7-0.2-1-0.2C53.3,89.4,53,89.5,53.1,89.8 M10.6,68.1l-2.3,1.4
	c-0.1,0.1-0.2,0-0.3-0.1l-0.3-0.5c-0.1-0.1-0.1-0.2,0-0.3l3.8-2.3c0.2-0.1,0.2,0,0.3,0.1l0.3,0.5c0.1,0.1,0.1,0.2,0,0.3l-1.3,3.2
	l0,0l2.3-1.4c0.1-0.1,0.2,0,0.3,0.1l0.4,0.6c0.1,0.2,0,0.2-0.1,0.3L10,72.2c-0.2,0.1-0.2,0.1-0.3-0.1l-0.3-0.5
	c-0.1-0.1-0.1-0.2,0-0.3L10.6,68.1L10.6,68.1z M12.6,74.9c0.1,0.1,0,0.2-0.1,0.2l-0.3,0.2c-0.1,0-0.2,0-0.2,0L11,73.9
	c-0.1-0.1,0-0.2,0-0.2l0.3-0.2c0.1-0.1,0.2-0.1,0.2,0l0.2,0.3l2.7-2.1l-0.2-0.3c-0.1-0.1,0-0.2,0-0.2l0.3-0.2c0.1-0.1,0.2-0.1,0.2,0
	l1.1,1.5c0.1,0.1,0.1,0.2,0,0.2l-0.3,0.2c-0.1,0.1-0.2,0.1-0.2,0l-0.2-0.3l-2.7,2L12.6,74.9z M16.1,78.4c0.1,0.1,0.1,0.2,0,0.3
	l-0.4,0.4c-0.1,0.1-0.2,0.1-0.3,0l-1.8-1.9c-0.1-0.1-0.1-0.2,0-0.3l3.3-3c0.1-0.1,0.2-0.1,0.3,0l0.5,0.5c0.1,0.1,0.1,0.2,0,0.3
	l-2.7,2.5L16.1,78.4z M20.9,81.4l-0.5-0.9c-0.3-0.5-0.2-1,0.1-1.5c0.6-0.7,1.6-0.5,2.2,0c0.4,0.3,0.7,0.7,0.9,1.1
	c0.1,0.1,0.1,0.2,0,0.2c0,0-0.1,0.1-0.1,0.1L23,80.7c-0.1,0-0.1,0-0.2,0c0,0,0-0.1-0.1-0.1c-0.1-0.3-0.4-0.6-0.6-0.8
	c-0.2-0.2-0.5-0.3-0.7-0.1c-0.1,0.2,0,0.5,0.1,0.6l0.4,0.8c0.3,0.5,0.3,1-0.1,1.5c-0.6,0.8-1.6,0.7-2.4,0.1c-0.3-0.3-0.7-0.7-1-1.1
	c-0.1-0.1-0.1-0.2,0-0.2c0,0,0.1-0.1,0.1-0.1l0.5-0.3c0.1,0,0.1-0.1,0.2,0c0,0,0,0.1,0.1,0.1c0.2,0.3,0.5,0.6,0.7,0.9
	c0.2,0.2,0.6,0.3,0.8,0C21,81.9,21,81.7,20.9,81.4 M24.7,85.2l-1-0.7l-0.2-0.1l-0.7,0.5c-0.1,0.1-0.2,0.1-0.3,0l-0.7-0.4
	c-0.1,0-0.1-0.1,0-0.2c0,0,0,0,0.1-0.1l3.8-2.8c0.1-0.1,0.2-0.1,0.3,0l0.6,0.4c0.1,0.1,0.2,0.2,0.1,0.3l-1,4.6c0,0.1,0,0.1,0,0.1
	c-0.1,0.1-0.1,0.1-0.2,0.1l-0.6-0.4c-0.2-0.1-0.2-0.2-0.1-0.3l0.2-0.8L24.7,85.2L24.7,85.2z M27.8,83.7c-0.1-0.1-0.1-0.2-0.1-0.3
	L28,83c0.1-0.1,0.1-0.1,0.2-0.1l3,1.6l0.3,0.2c0.1,0.1,0.1,0.1,0.1,0.2v0l-0.3,0.5c-0.1,0.1-0.2,0.1-0.3,0l-1.1-0.5l-1.7,3.3
	c-0.1,0.1-0.1,0.2-0.2,0.1l-0.7-0.4c-0.1-0.1-0.1-0.1-0.1-0.2l1.7-3.3L27.8,83.7L27.8,83.7z M33,89.7c0.1,0,0.1,0.1,0.1,0.2L33,90.2
	c0,0.1-0.1,0.1-0.2,0.1l-1.6-0.6C31,89.6,31,89.5,31,89.5l0.2-0.4c0-0.1,0.1-0.1,0.2-0.1l0.3,0.1l1.3-3.1l-0.3-0.1
	c-0.1-0.1-0.1-0.2-0.1-0.2l0.2-0.3c0-0.1,0.1-0.1,0.2-0.1l1.7,0.7c0.1,0,0.1,0.1,0.1,0.2l-0.2,0.3c-0.1,0.1-0.1,0.1-0.2,0.1L34,86.4
	l-1.3,3.1L33,89.7z M36.9,88.5l0.7,0.6c0.5,0.4,0.7,0.9,0.5,1.5c-0.3,0.9-1.2,1.3-2.1,1c-0.4-0.1-0.9-0.4-1.3-0.7
	c-0.1-0.1-0.1-0.1-0.1-0.2c0,0,0-0.1,0.1-0.1l0.3-0.5C35,90,35,90,35.1,90c0,0,0.1,0,0.1,0.1c0.3,0.2,0.6,0.4,1,0.5
	c0.3,0.1,0.7,0,0.8-0.3c0.1-0.3-0.1-0.4-0.3-0.6L35.9,89c-0.4-0.4-0.6-0.9-0.5-1.4c0.3-0.9,1.3-1.1,2-0.8c0.5,0.1,0.9,0.3,1.2,0.6
	c0.1,0.1,0.1,0.2,0.1,0.2c0,0,0,0.1-0.1,0.1l-0.4,0.5c-0.1,0.1-0.1,0.1-0.2,0.1c0,0-0.1,0-0.1-0.1c-0.2-0.2-0.6-0.4-0.8-0.5
	c-0.3-0.1-0.6-0.1-0.7,0.2C36.6,88.1,36.8,88.3,36.9,88.5 M46.8,88.8l-0.5,4.3c0,0.2-0.1,0.2-0.2,0.2l-0.6-0.1
	c-0.1,0-0.2-0.1-0.3-0.2l-1.7-3h0L43,92.8c0,0.2-0.1,0.2-0.2,0.2l-0.6-0.1c-0.2,0-0.2-0.1-0.2-0.2l0.5-4.4c0-0.2,0.1-0.2,0.3-0.2
	l0.6,0.1c0.2,0,0.2,0.1,0.3,0.2l1.7,3h0l0.3-2.7c0-0.2,0.1-0.2,0.2-0.2l0.7,0.1C46.8,88.6,46.8,88.7,46.8,88.8 M98.1,63.9
	c-3.8,9.4-10.2,17.5-18.5,23.3c-7.8,5.4-16.9,8.6-26.4,9.2c-0.1,0-0.1,0-0.1,0.1l-3,3l-3-3c0,0-0.1-0.1-0.1-0.1
	c-9.5-0.6-18.6-3.7-26.4-9.2C12.1,81.4,5.7,73.4,1.9,63.9l-0.3-0.7l11.5-4.4c0.3-0.1,0.6,0,0.8,0.2l0,0c0.1,0.1,0.2,0.3,0.5,0.5
	c0.1,0.3,0.2,0.6,0.3,0.9c-0.6-0.2-1-0.8-1.2-1l0-0.1c0,0-0.1,0-0.1,0c0,0,0,0,0,0l-0.8,0.3l-0.4,0.2l0.1,0.2c0,0.1,0.1,0.2,0.1,0.2
	c0.3,0.9,0.7,1.7,1.1,2.5c0.1,0.1,0.1,0.2,0.2,0.4l0.4-0.1l1.5-0.5c0.1,0.2,0.2,0.4,0.3,0.5l-1.5,0.5l-0.4,0.1
	c0.1,0.1,0.1,0.2,0.2,0.3c3,5.7,7.4,10.7,12.8,14.5c6.1,4.3,13.2,6.7,20.7,7.2l0.6,0.6c-7.8-0.3-15.3-2.9-21.7-7.3
	c-6.7-4.7-11.8-11.1-14.8-18.6L11.6,60l-9.2,3.5l0.1,0.2C6.2,73,12.5,81,20.8,86.8c7.8,5.4,16.9,8.5,26.4,9.1l2.7,2.7l0.1,0.1
	l2.8-2.8c9.5-0.5,18.6-3.7,26.4-9.1C87.5,81,93.8,73,97.5,63.7l0.1-0.2L88.4,60l-0.1,0.2c-3,7.5-8.2,14-14.8,18.6
	c-6.4,4.5-13.8,7-21.7,7.3l0.6-0.6c7.5-0.5,14.5-2.9,20.7-7.2c5.4-3.8,9.8-8.7,12.8-14.5c0.1-0.1,0.1-0.2,0.2-0.3l-0.4-0.1l-1.5-0.5
	c0.1-0.2,0.2-0.3,0.2-0.5l1.5,0.5l0.4,0.1c0.1-0.1,0.1-0.2,0.2-0.4c0.4-0.8,0.8-1.6,1.1-2.5c0,0,0.1-0.1,0.1-0.2l0.1-0.2l-0.4-0.2
	l-0.8-0.3c0,0,0,0-0.1,0c0,0-0.1,0-0.1,0l0,0.1c-0.2,0.2-0.6,0.8-1.2,1.1c0.1-0.3,0.2-0.6,0.3-0.9c0.2-0.2,0.4-0.4,0.5-0.5l0,0
	c0.2-0.3,0.5-0.4,0.8-0.2l11.5,4.4L98.1,63.9z M6.8,58.6l-0.1-0.2L3.3,60c-0.2,0.1-0.4,0-0.5-0.2c-0.1-0.1-0.3-0.5-0.5-1
	c-0.2-0.5-0.4-1.2-0.2-1.9c0.2-0.5,0.5-0.9,1.1-1.2l8.4-3.8c0,0,0,0,0.1,0c0.2-0.1,0.4-0.2,0.8-0.2c0.2,0,0.5,0.1,0.7,0.2
	c0,0.2,0,0.5,0,0.7c-0.3-0.2-0.5-0.2-0.8-0.2c-0.2,0-0.3,0-0.5,0.1l-0.1,0c-0.4,0.2-0.6,0.6-0.8,1.2c-0.1,0.7,0,1.4,0.3,2.2l0.1,0.2
	c0.1,0.2,0,0.4-0.2,0.5l-4,1.8l0.1,0.2c0.5,0.7,0.7,1.3,0.9,1.8l-0.6,0.2C7.6,59.9,7.3,59.3,6.8,58.6 M47.1,85.1
	c-7.2-0.5-14.1-3-20-7.1c-5.3-3.7-9.6-8.6-12.7-14.3l1.5-0.5c0,0.1,0.1,0.2,0.1,0.3c0.3,0.6,0.7,1.2,1.1,1.8c0,0.1,0.1,0.1,0.2,0.2
	l0,0.1c6.8,10.1,16.7,16.4,28,17.7L47.1,85.1z M50.2,92.8c0.1,0,0.2,0.1,0.2,0.2v0.4c0,0.1-0.1,0.2-0.2,0.2l-1.8,0
	c-0.1,0-0.2-0.1-0.2-0.2v-0.4c0-0.1,0.1-0.2,0.2-0.2h0.3l0-3.4l-0.4,0c-0.1,0-0.2-0.1-0.2-0.2v-0.4c0-0.1,0.1-0.2,0.2-0.2l1.9,0
	c0.1,0,0.2,0.1,0.2,0.2v0.4c0,0.1-0.1,0.2-0.2,0.2h-0.4l-0.1,3.4H50.2z M84.1,63.2l1.5,0.5c-3,5.7-7.3,10.6-12.7,14.3
	c-5.9,4.1-12.8,6.6-20,7.1l1.8-1.8c11.3-1.3,21.2-7.6,27.9-17.7l0-0.1c0.1-0.1,0.1-0.2,0.2-0.2c0.4-0.5,0.8-1.2,1.1-1.8
	C84,63.3,84.1,63.3,84.1,63.2 M13.8,48.7c0-0.7,0.1-1.4,0.2-2.1c0.5-4.2,1.4-7.2,1.8-8.4l0.1-0.4c1.7-4.6,3-8.3,2.9-12.7
	c0-3.5-4.2-8.2-5.9-9.8l-1-0.9l1-0.9L26.7,0.9l0.8,0.5c3,1.9,6.7,3,10.7,3c4.1,0,8.1-1.2,11-3.3L50,0.7l0.7,0.5
	c3,2.1,6.9,3.3,11,3.3c3.9,0,7.7-1.1,10.7-3l0.8-0.5L88,14.3l-1,1c-1.6,1.5-5.8,6.3-5.9,9.8c0,4.4,1.3,8.1,2.9,12.7l0.1,0.4
	c0.4,1.1,1.4,4.2,1.8,8.4c0.1,0.7,0.2,1.4,0.2,2.1c0,0.7,0.1,1.3,0.1,2c0,4.8-0.9,9.1-2.8,12.5c-0.3,0.6-0.7,1.2-1.1,1.7
	c0,0.1-0.1,0.2-0.2,0.3l0,0c-6.7,10-16.5,16.2-27.6,17.5h-0.1L50,87.1l-4.5-4.5h-0.1c-11.2-1.3-21-7.5-27.6-17.5l0,0
	c-0.1-0.1-0.1-0.2-0.2-0.2c-0.4-0.5-0.7-1.1-1.1-1.7c-1.9-3.4-2.8-7.7-2.8-12.5C13.7,50,13.8,49.3,13.8,48.7 M86.8,51.9
	c0.3-0.1,0.5-0.2,0.8-0.2c0.3,0,0.6,0.1,0.8,0.2c0,0,0,0,0.1,0l8.4,3.8c0.6,0.2,0.9,0.7,1.1,1.2c0.2,0.7,0,1.4-0.2,1.9
	c-0.2,0.5-0.4,0.9-0.5,1c-0.1,0.2-0.3,0.3-0.5,0.2l-3.4-1.5l-0.1,0.2c-0.5,0.7-0.8,1.3-0.9,1.8l-0.5-0.2c0.1-0.5,0.4-1.1,0.9-1.8
	l0.1-0.2l-4-1.8c-0.2-0.1-0.3-0.3-0.2-0.5l0.1-0.2c0.3-0.8,0.5-1.5,0.3-2.2c-0.1-0.6-0.4-1-0.8-1.2l0,0c-0.2-0.1-0.3-0.1-0.5-0.1
	c-0.3,0-0.5,0.1-0.8,0.3C86.8,52.3,86.8,52.1,86.8,51.9 M98.8,63C98.8,63,98.8,62.9,98.8,63l-6.2-2.4c0.1-0.4,0.3-1,0.7-1.6l3.1,1.4
	c0.1,0,0.2,0.1,0.3,0.1c0.3,0,0.5-0.2,0.7-0.4c0.1-0.1,0.3-0.5,0.5-1c0.3-0.8,0.4-1.5,0.2-2.2c-0.2-0.6-0.6-1.1-1.3-1.4l-8.4-3.8
	c0,0,0,0-0.1,0l0,0c-0.3-0.2-0.9-0.3-1.7-0.1v-0.8c0-0.7,0-1.3-0.1-2c0-0.7-0.1-1.4-0.2-2.1c-0.5-4.3-1.5-7.4-1.9-8.5l-0.1-0.4
	c-1.6-4.6-2.9-8.2-2.9-12.5c0-3.3,4.1-7.9,5.7-9.4l1.5-1.4L73.4,0.2L72.1,1c-2.8,1.9-6.5,2.9-10.3,2.9c-4,0-7.8-1.1-10.7-3.1L50,0
	l-1.1,0.8c-2.9,2-6.7,3.1-10.7,3.1c-3.8,0-7.5-1-10.3-2.9l-1.2-0.8L12.6,13l-1.5,1.4l1.5,1.4c1.6,1.5,5.7,6.1,5.7,9.4
	c0,4.3-1.3,7.9-2.9,12.5L15.3,38c-0.4,1.1-1.4,4.2-1.9,8.5c-0.1,0.7-0.1,1.4-0.2,2.1c0,0.7-0.1,1.4-0.1,2c0,0.3,0,0.5,0,0.8
	c-0.7-0.2-1.3-0.1-1.6,0.1h0c0,0,0,0-0.1,0l-8.4,3.8c-0.7,0.3-1.1,0.8-1.3,1.4c-0.2,0.6-0.1,1.3,0.2,2.2c0.2,0.5,0.5,0.9,0.5,1
	c0.1,0.2,0.4,0.4,0.7,0.4c0.1,0,0.2,0,0.3-0.1l3.1-1.4c0.4,0.6,0.6,1.2,0.8,1.6l-6.1,2.3c-0.1,0-0.1,0.1-0.1,0.1c0,0.1,0,0.1,0,0.2
	l0.4,0.9c3.8,9.5,10.3,17.6,18.7,23.5c7.8,5.5,17,8.7,26.5,9.2l3.1,3.1c0,0,0.1,0.1,0.1,0.1s0.1,0,0.1-0.1l3.1-3.1
	c9.5-0.6,18.7-3.8,26.5-9.2c8.4-5.9,14.9-14,18.7-23.5l0.4-0.9C98.9,63.1,98.9,63.1,98.8,63"/>
<path id="path5889"  class="st28" d="M47.4,72.9c0.4-0.2,0.9-0.5,0.9-1.1c0-0.5-0.4-0.9-0.9-0.9
	c-0.5,0-0.9,0.4-0.9,0.9C46.4,72.2,46.9,72.6,47.4,72.9"/>
<path id="path5893"  class="st28" d="M75.9,19.7c-0.5,0.3-1,0.4-1.4,0.3c0.1-0.4,0.5-0.8,0.9-1.2
	c0.5-0.3,1-0.4,1.4-0.3C76.7,19,76.4,19.4,75.9,19.7 M74.9,21.5c-0.5,0.3-1,0.4-1.4,0.3c0.1-0.4,0.5-0.8,0.9-1.1
	c0.5-0.3,1-0.4,1.4-0.3C75.8,20.7,75.4,21.2,74.9,21.5 M74,23c-0.5,0.1-1.1,0-1.4-0.2c0.2-0.3,0.7-0.6,1.2-0.7s1.1,0,1.4,0.2
	C75,22.6,74.6,22.9,74,23 M73.6,65.9c-0.5,0-1,0-1.3,0c0.2-0.9,0.2-1.8,0.2-3v-1.4c0-0.9-0.1-2-1.4-2c-0.5,0-0.9,0.2-1.3,0.5
	c-0.4,0.4-0.5,0.7-0.5,1.7v1.1c0,1.5,0.1,2.3,0.3,3c-0.2,0-0.8,0-1.2,0c-0.5,0-1,0-1.3,0c0.1-0.9,0.2-1.8,0.2-3V61
	c0-0.8-0.1-1.9-0.3-2.8c0.7,0,1.7,0,2.3-0.1l-0.1,1.4l0.6-0.5c0.8-0.6,1.4-0.9,2.2-0.9c1.8,0,2.4,1,2.4,2.8v2c0,1.5,0.1,2.3,0.3,3
	C74.6,65.9,74.1,65.9,73.6,65.9 M62.3,66.2c-2.4,0-3.9-1.4-3.9-3.9c0-2.4,1.5-4.2,4.2-4.2c2.5,0,3.9,1.4,3.9,3.8
	C66.5,64.5,64.9,66.2,62.3,66.2 M58.3,58.4c-0.1,0.2-0.2,0.9-0.3,1.1c-0.6-0.1-1-0.1-1.4-0.1h-0.7c0,0.5,0,1.2,0,1.6v1.8
	c0,1.2,0.1,2.1,1.2,2.1c0.3,0,0.6-0.1,1-0.3c0.1,0,0.2,0,0.2,0.2c-0.1,0.3-0.2,0.7-0.3,1.1c-0.9,0.2-1.3,0.3-1.8,0.3
	c-1.4,0-2.2-0.6-2.2-2.5v-2.4c0-0.8,0-1.3,0-1.9c-0.4,0-0.9,0.1-1.1,0.1c0,0-0.2,0-0.1-0.2c0-0.1,0.2-0.8,0.3-1c0.2,0,0.6,0,0.9,0
	c0-0.6,0-0.9-0.1-1.4c0.5-0.2,1.6-0.6,2-0.9c0.2-0.1,0.2,0,0.2,0.2c0,0.2-0.1,0.7-0.2,2.1H57c0.4,0,0.8,0,1.2-0.1
	C58.2,58.2,58.3,58.3,58.3,58.4 M55.2,76.6c-1,0-1.8-0.6-1.8-1.5c0-0.8,0.5-1.2,1.3-1.7c-0.5-0.3-1-0.7-1-1.4c0-0.9,0.7-1.5,1.7-1.5
	c0.9,0,1.6,0.6,1.6,1.4c0,0.7-0.5,1.1-1.1,1.4c0.7,0.4,1.2,0.8,1.2,1.6C57.2,75.9,56.3,76.6,55.2,76.6 M50.9,76.4L50.9,76.4
	L50.9,76.4c-0.1,0-0.7,0-1.1,0.1h0l-0.1-0.2l2.9-5h-1.8c-0.3,0-0.6,0-0.9,0.3l0,0l-0.1-0.1l0,0c0.1-0.3,0.2-0.7,0.2-0.9v0h0
	c0.2,0,0.4,0,0.7,0h2.1c0.3,0,0.4,0,0.6,0l0.1,0v0.1c0,0.1,0.1,0.5,0.1,0.5l0,0l0,0c-0.5,0.5-1,1.5-1.5,2.3
	C51.2,74.9,50.9,75.6,50.9,76.4 M49.6,65.9c-0.2,0-0.8,0-1.2,0c-0.5,0-1,0-1.3,0c0.2-0.9,0.2-1.7,0.2-2.8v-1.9
	c0-0.7-0.1-2.1-0.3-2.9c0.6,0,1.5,0,2.1-0.1l0,1.8l0.6-0.7c0.7-0.9,1.2-1.2,1.9-1.2c0.3,0,0.4,0,0.7,0.2c-0.2,0.8-0.5,1.6-0.6,2.1
	c0,0.1-0.1,0.2-0.3,0.1C51.1,60.1,51,60,50.7,60c-0.5,0-0.8,0.2-1.1,0.7c-0.2,0.4-0.3,0.7-0.3,1.4v1.3
	C49.3,64.7,49.4,65.3,49.6,65.9 M47.1,76.5c-1,0-1.8-0.6-1.8-1.5c0-0.8,0.5-1.2,1.3-1.7c-0.5-0.3-1-0.7-1-1.4c0-0.9,0.7-1.5,1.7-1.5
	c0.9,0,1.6,0.6,1.6,1.4c0,0.7-0.5,1.1-1.1,1.4c0.7,0.4,1.2,0.8,1.2,1.6C49.1,75.8,48.3,76.5,47.1,76.5 M44.6,76.3
	c-0.1,0-0.3,0-0.5,0c-0.2,0-0.3,0-0.5,0h-0.1l0-0.1c0.1-0.5,0.1-0.9,0.1-1.5v-2.7c0-0.8-0.1-0.8-0.3-0.8c-0.1,0-0.2,0-0.3,0
	l-0.4,0.1c-0.1,0-0.2,0.1-0.3,0.1h0l-0.1-0.1l0,0c0.1-0.1,0.1-0.3,0.2-0.5l0,0h0c0.2,0,0.4,0,0.6-0.1l0.9-0.2c0.2,0,0.4-0.1,0.5-0.1
	h0l0.1,0.1l0,0c-0.1,0.5-0.1,1.1-0.1,1.4v2.9C44.5,75.5,44.5,76,44.6,76.3L44.6,76.3L44.6,76.3L44.6,76.3z M39.4,62.2
	c0-2.4,1.5-4.1,3.7-4.1c1.9,0,3.1,1.1,3.1,3c0,0.2,0,0.8-0.3,0.8h-2c-0.8,0-1.9,0-2.5,0c0,1.9,1,2.9,2.7,2.9c0.7,0,1.1-0.2,1.6-0.5
	c0.1-0.1,0.3,0,0.2,0.2c-0.2,0.5-0.2,0.7-0.3,1.1c-0.7,0.2-1.6,0.5-2.4,0.5C41,66.2,39.4,64.6,39.4,62.2 M37.1,64.3
	c-0.2,0.5-0.3,1-0.5,1.6c-0.2,0-0.5,0-0.9,0c-0.3,0-0.7,0-1,0c-0.1-0.7-0.2-1.1-0.5-1.8l-1-3.1c-0.3-0.9-0.7-2-1.4-2.8
	c1,0,1.8,0,2.8-0.1c0.1,0.8,0.2,1.5,0.5,2.2l0.6,2c0.2,0.5,0.5,1.5,0.5,1.5c0.1-0.3,0.2-0.7,0.3-1l0.9-2.3c0.2-0.4,0.4-1,0.4-1.7
	c0-0.2,0-0.4,0-0.7c0.2,0,0.6,0,1,0c0.3,0,0.8,0,1-0.1c0.2,0,0.2,0.1,0.1,0.2c-0.5,0.7-1,1.6-1.4,2.6L37.1,64.3z M32.5,64.3
	C32.4,64.7,32,65.9,32,66c-1.7-0.1-2.9-0.1-3.9-0.1c-1.3,0-2.1,0-2.8,0c0.1-0.8,0.2-1.8,0.2-2.9v-4.9c0-0.8,0-2.3-0.3-3
	c0.5,0,0.9,0,1.3,0h2.9c1,0,1.5,0,2.6,0c-0.2,0.7-0.4,1.5-0.5,1.8c-0.1,0.3-0.2,0.1-0.3,0c-0.5-0.7-1.4-0.8-2.3-0.8
	c-0.3,0-0.6,0-1,0c0,0.3-0.1,1-0.1,1.7v1.6h1.3c0.9,0,1.9-0.1,2.3-0.1c0.2,0,0.1,0.1,0.1,0.1c-0.1,0.4-0.3,1-0.4,1.3
	c-1-0.1-1.5-0.1-2.2-0.1h-1.1v2.2c0,1.4,0.2,1.9,1.9,1.9c0.9,0,1.5,0,2.5-0.8C32.3,63.9,32.6,63.9,32.5,64.3 M24.7,22.3
	c0.3-0.2,0.9-0.3,1.4-0.2c0.5,0.1,1,0.4,1.2,0.7c-0.3,0.2-0.9,0.3-1.4,0.2C25.4,22.9,25,22.6,24.7,22.3 M24.1,20.3
	c0.4-0.1,0.9,0,1.4,0.3c0.5,0.3,0.8,0.7,0.9,1.1c-0.4,0.1-0.9,0-1.4-0.3C24.6,21.2,24.2,20.7,24.1,20.3 M23.1,18.5
	c0.4-0.1,0.9,0,1.4,0.3c0.5,0.3,0.8,0.8,0.9,1.2c-0.4,0.1-0.9,0-1.4-0.3C23.6,19.4,23.3,19,23.1,18.5 M23.4,14.3
	c0.4,0.2,0.7,0.5,1,1.1c0.3,0.5,0.4,1.1,0.3,1.5c-0.4-0.2-0.7-0.5-1-1.1C23.4,15.3,23.3,14.7,23.4,14.3 M24.4,12.8
	c0.3,0.3,0.5,0.8,0.6,1.4c0.1,0.6,0,1.2-0.2,1.6c-0.3-0.3-0.5-0.8-0.6-1.4C24.2,13.8,24.2,13.2,24.4,12.8 M25,12.5
	c0-0.6,0.2-1.2,0.5-1.5c0.2,0.3,0.4,0.9,0.3,1.5c0,0.6-0.2,1.1-0.5,1.4C25.1,13.7,25,13.1,25,12.5 M25.6,17.4
	c0.3,0.3,0.5,0.8,0.6,1.4c0.1,0.6,0,1.2-0.2,1.6c-0.3-0.3-0.5-0.8-0.6-1.4C25.4,18.4,25.4,17.8,25.6,17.4 M25.1,18.9
	c-0.4-0.1-0.8-0.4-1.2-0.9c-0.4-0.5-0.5-1-0.5-1.4c0.4,0.1,0.8,0.4,1.2,0.8C24.9,17.9,25.1,18.5,25.1,18.9 M24.8,17.4
	c-0.1-0.4,0-0.9,0.3-1.3c0.3-0.5,0.6-0.8,0.9-0.9c0.1,0.4,0,0.9-0.3,1.4C25.5,17,25.1,17.4,24.8,17.4 M26,13.9
	c0.4-0.3,0.8-0.5,1.2-0.5c-0.1,0.4-0.3,0.8-0.7,1.2c-0.4,0.3-0.8,0.5-1.2,0.5C25.4,14.7,25.6,14.2,26,13.9 M26.5,11.9
	c0.3-0.5,0.7-0.9,1.1-1c0.1,0.4-0.1,1-0.4,1.5c-0.3,0.5-0.7,0.9-1.1,1C26.1,12.9,26.2,12.4,26.5,11.9 M27.6,22.6
	c-0.4-0.2-0.7-0.5-1-1.1s-0.3-1.1-0.2-1.5c0.3,0.2,0.7,0.5,1,1.1C27.6,21.6,27.7,22.2,27.6,22.6 M28.8,23.5
	c-0.3,0.3-0.7,0.6-1.3,0.6c-0.6,0.1-1.1-0.1-1.4-0.3c0.2-0.3,0.7-0.5,1.3-0.6C28,23.2,28.5,23.3,28.8,23.5 M29.3,22.5
	c0.5,0.4,0.8,0.8,0.9,1.2c-0.4,0.1-0.9-0.1-1.3-0.4c-0.5-0.3-0.8-0.8-0.9-1.2C28.3,22,28.8,22.2,29.3,22.5 M30.4,24
	C30.4,24,30.4,24,30.4,24c0.2,0.1,0.3,0.2,0.5,0.2c0,0,0.2-0.1,0.5-0.2c0.3-0.1,0.8-0.2,1.2,0c0.5,0.1,1,0.4,1.2,0.8
	C33.5,25,33,25,32.4,24.9c-0.5-0.1-0.9-0.4-1.2-0.7c-0.1,0.1-0.1,0.1-0.2,0.2c0.6,0.4,1.1,0.8,1.5,1.4c-0.2,0.3-0.3,0.4-0.5,0.7
	c-0.4-0.8-0.7-1.4-1.2-2c-0.5,0.5-0.9,1.2-1.3,2c-0.2-0.3-0.3-0.4-0.5-0.7c0.5-0.6,1-1.1,1.6-1.4c-0.1-0.1-0.1-0.1-0.2-0.2
	c-0.2,0.3-0.7,0.6-1.2,0.8c-0.5,0.1-1.1,0.1-1.4-0.1c0.2-0.3,0.7-0.6,1.2-0.8C29.6,23.8,30.1,23.9,30.4,24L30.4,24 M32.4,22.5
	c0.5-0.3,1-0.5,1.3-0.4c-0.1,0.4-0.4,0.9-0.9,1.2c-0.5,0.4-1,0.5-1.3,0.4C31.6,23.3,31.9,22.9,32.4,22.5 M34.3,23.3
	c0.5,0.1,1,0.3,1.3,0.6c-0.3,0.2-0.8,0.4-1.4,0.3c-0.5-0.1-1-0.3-1.3-0.6C33.2,23.3,33.7,23.2,34.3,23.3 M34.3,21
	c0.3-0.5,0.6-0.9,1-1.1c0.1,0.4,0,1-0.2,1.5c-0.2,0.5-0.6,0.9-1,1.1C34,22.2,34.1,21.6,34.3,21 M34.1,10.9c0.4,0.1,0.8,0.5,1.1,1
	c0.3,0.5,0.5,1.1,0.4,1.5c-0.4-0.1-0.8-0.4-1.1-1C34.2,11.9,34,11.3,34.1,10.9 M36.4,15c-0.3,0-0.8-0.2-1.2-0.5
	c-0.4-0.4-0.6-0.8-0.7-1.2c0.3,0,0.8,0.2,1.2,0.5C36.1,14.2,36.3,14.7,36.4,15 M36.2,11c0.3,0.3,0.5,0.8,0.5,1.5
	c0.1,0.6-0.1,1.2-0.3,1.5c-0.3-0.3-0.5-0.8-0.5-1.4C35.8,11.9,36,11.4,36.2,11 M37.3,12.8c0.2,0.4,0.3,0.9,0.2,1.6
	c-0.1,0.6-0.4,1.1-0.6,1.4c-0.2-0.4-0.3-0.9-0.2-1.6C36.7,13.6,37,13.1,37.3,12.8 M38.3,14.3c0.1,0.4,0,1-0.2,1.5
	c-0.3,0.5-0.7,0.9-1,1.1c-0.1-0.4,0-1,0.2-1.5C37.6,14.8,38,14.4,38.3,14.3 M36.2,20c0.1-0.4,0.5-0.8,0.9-1.2c0.5-0.3,1-0.4,1.4-0.3
	c-0.1,0.4-0.5,0.9-0.9,1.2C37.1,20,36.6,20.1,36.2,20 M36.1,17.4c0.2,0.4,0.3,0.9,0.2,1.5c-0.1,0.6-0.3,1.1-0.6,1.4
	c-0.2-0.4-0.3-0.9-0.2-1.6C35.5,18.2,35.8,17.7,36.1,17.4 M37.2,17.4c0.4-0.5,0.8-0.8,1.2-0.8c0,0.4-0.2,0.9-0.5,1.4
	c-0.4,0.5-0.8,0.8-1.2,0.9C36.6,18.5,36.8,17.9,37.2,17.4 M36.9,17.4c-0.3-0.1-0.7-0.4-1-0.9c-0.3-0.5-0.4-1-0.3-1.4
	c0.3,0.1,0.7,0.5,0.9,0.9C36.8,16.6,36.9,17.1,36.9,17.4 M36.9,22.3c-0.2,0.3-0.7,0.6-1.2,0.7c-0.5,0.1-1.1,0-1.4-0.2
	c0.2-0.3,0.7-0.6,1.2-0.7C36.1,22,36.6,22.1,36.9,22.3 M36.6,21.5c-0.5,0.3-1,0.4-1.4,0.3c0.1-0.4,0.5-0.8,0.9-1.1
	c0.5-0.3,1-0.4,1.4-0.3C37.5,20.7,37.1,21.2,36.6,21.5 M41.4,25.9l7.8-16.5C48.8,8.8,49.3,8,49.9,8s1.2,0.8,0.9,1.4l7.8,16.4
	c1.3,0.6,1.9,1.5,1.8,2c-0.1,0.6-0.5,0.9-1,1.1c0,3-0.1,13.5-0.1,19.5c0.7,0.2,0.7,0.9,0.6,3.1c0,2.2,0.2,2.9-1.3,2.9
	c-0.2,0-0.6,0-0.6,0v-0.7c0-0.4,0-0.5-0.2-0.6c-0.6-0.2-1.2-0.5-1.9-0.7c-0.5-0.2-15.3-5.5-15.3-5.5S40,46.7,40,46.1
	c0-0.1,0-0.6,0-0.8v-2.1c0-0.5,0.4-0.7,0.7-0.7c0,0,0-0.1,0-0.1c0-1.9,0-12.1,0-13.2c-0.7-0.2-0.9-0.7-0.9-0.7
	C39.5,27.7,39.8,26.7,41.4,25.9 M62.8,18.9c0.5,0.3,0.8,0.8,0.9,1.2c-0.4,0.1-0.9,0-1.4-0.3c-0.5-0.3-0.9-0.7-1-1.2
	C61.8,18.5,62.3,18.6,62.8,18.9 M61.7,14.3c0.4,0.2,0.7,0.5,1,1.1s0.4,1.1,0.3,1.5c-0.4-0.2-0.7-0.5-1-1.1
	C61.7,15.3,61.6,14.7,61.7,14.3 M62.7,12.8c0.3,0.3,0.5,0.8,0.6,1.4c0.1,0.6,0,1.2-0.2,1.6c-0.3-0.3-0.5-0.8-0.6-1.4
	C62.5,13.8,62.5,13.2,62.7,12.8 M63.3,12.5c0-0.6,0.2-1.2,0.5-1.5c0.2,0.3,0.4,0.9,0.3,1.5c0,0.6-0.2,1.1-0.5,1.4
	C63.4,13.7,63.3,13.1,63.3,12.5 M64.3,13.9c0.4-0.3,0.8-0.5,1.2-0.5c-0.1,0.4-0.3,0.8-0.7,1.2c-0.4,0.3-0.9,0.5-1.2,0.5
	C63.7,14.7,63.9,14.2,64.3,13.9 M64.8,11.9c0.3-0.5,0.7-0.9,1.1-1c0.1,0.4-0.1,1-0.4,1.5c-0.3,0.5-0.7,0.9-1.1,1
	C64.4,12.9,64.5,12.4,64.8,11.9 M65.9,22.6c-0.4-0.2-0.7-0.5-1-1.1c-0.3-0.5-0.3-1.1-0.2-1.5c0.4,0.2,0.7,0.5,1,1.1
	C65.9,21.6,66,22.2,65.9,22.6 M64.4,22.1c0.5,0.1,1,0.4,1.2,0.7c-0.3,0.2-0.8,0.3-1.4,0.2s-1-0.4-1.2-0.7
	C63.4,22.1,63.9,22,64.4,22.1 M64.7,21.8c-0.4,0.1-0.9,0-1.4-0.3c-0.5-0.3-0.8-0.7-0.9-1.1c0.4-0.1,0.9,0,1.4,0.3
	C64.3,21,64.6,21.4,64.7,21.8 M63.9,17.4c0.3,0.3,0.5,0.8,0.6,1.4c0.1,0.6,0,1.2-0.2,1.6c-0.3-0.3-0.5-0.8-0.6-1.4
	C63.7,18.4,63.7,17.8,63.9,17.4 M63.4,18.9c-0.4-0.1-0.8-0.4-1.2-0.9c-0.4-0.5-0.5-1-0.5-1.4c0.4,0.1,0.8,0.4,1.2,0.8
	C63.2,17.9,63.4,18.5,63.4,18.9 M63.1,17.4c-0.1-0.4,0-0.9,0.3-1.3c0.3-0.5,0.6-0.8,1-0.9c0.1,0.4-0.1,0.9-0.3,1.4
	C63.8,17,63.4,17.4,63.1,17.4 M67.1,23.5c-0.2,0.3-0.7,0.6-1.3,0.6c-0.6,0.1-1.1-0.1-1.4-0.3c0.3-0.3,0.7-0.5,1.3-0.6
	C66.3,23.2,66.8,23.3,67.1,23.5 M67.6,22.5c0.5,0.4,0.8,0.8,0.9,1.2c-0.4,0.1-0.9-0.1-1.3-0.4c-0.5-0.3-0.8-0.8-0.9-1.2
	C66.6,22,67.2,22.2,67.6,22.5 M69.1,24.2c0.1-0.1,0.3-0.1,0.4-0.2c0,0,0,0,0,0l0,0c0.3-0.1,0.8-0.2,1.2,0c0.5,0.1,1,0.4,1.2,0.8
	c-0.3,0.2-0.9,0.3-1.4,0.1c-0.5-0.1-1-0.4-1.2-0.8c-0.1,0.1-0.1,0.1-0.2,0.2c0.6,0.4,1.2,0.8,1.6,1.4c-0.2,0.3-0.3,0.4-0.5,0.7
	c-0.3-0.8-0.8-1.4-1.3-2c-0.5,0.5-0.9,1.2-1.2,2c-0.2-0.3-0.3-0.4-0.4-0.7c0.5-0.6,0.9-1.1,1.5-1.4c-0.1-0.1-0.1-0.1-0.2-0.2
	c-0.2,0.3-0.7,0.6-1.2,0.7c-0.5,0.1-1.1,0.1-1.4-0.1c0.2-0.3,0.7-0.6,1.2-0.8c0.5-0.1,0.9-0.1,1.2,0C68.9,24.1,69.1,24.2,69.1,24.2
	 M70.7,22.5c0.5-0.3,1-0.5,1.3-0.4c-0.1,0.4-0.4,0.9-0.9,1.2c-0.5,0.4-1,0.5-1.4,0.4C69.9,23.3,70.2,22.9,70.7,22.5 M72.6,23.3
	c0.5,0.1,1,0.3,1.3,0.6c-0.3,0.2-0.8,0.4-1.4,0.3c-0.6-0.1-1-0.3-1.3-0.6C71.5,23.3,72,23.2,72.6,23.3 M72.6,21
	c0.3-0.5,0.6-0.9,1-1.1c0.1,0.4,0,1-0.2,1.5c-0.3,0.5-0.6,0.9-1,1.1C72.3,22.2,72.4,21.6,72.6,21 M72.4,10.9c0.4,0.1,0.8,0.5,1.1,1
	c0.3,0.5,0.5,1.1,0.4,1.5c-0.4-0.1-0.8-0.4-1.1-1C72.5,11.9,72.3,11.3,72.4,10.9 M74.7,15c-0.3,0-0.8-0.2-1.2-0.5
	c-0.4-0.4-0.6-0.8-0.7-1.2c0.3,0,0.8,0.2,1.2,0.5C74.4,14.2,74.6,14.7,74.7,15 M74.5,11c0.3,0.3,0.5,0.8,0.5,1.5
	c0,0.6-0.1,1.2-0.3,1.5c-0.3-0.3-0.5-0.8-0.5-1.4C74.1,11.9,74.3,11.4,74.5,11 M75.6,12.8c0.2,0.4,0.3,0.9,0.2,1.6
	c-0.1,0.6-0.4,1.1-0.6,1.4c-0.2-0.4-0.3-0.9-0.2-1.6C75,13.6,75.3,13.1,75.6,12.8 M75.5,17.4c0.4-0.5,0.8-0.8,1.2-0.8
	c0,0.4-0.2,0.9-0.5,1.4c-0.4,0.5-0.8,0.8-1.2,0.9C74.9,18.5,75.1,17.9,75.5,17.4 M74.6,19c-0.1,0.6-0.3,1.1-0.6,1.4
	c-0.2-0.4-0.3-0.9-0.2-1.6c0.1-0.6,0.3-1.1,0.6-1.4C74.6,17.8,74.7,18.4,74.6,19 M74.2,16.5c-0.3-0.5-0.4-1-0.3-1.4
	c0.3,0.1,0.7,0.5,0.9,0.9c0.3,0.5,0.4,1,0.3,1.3C74.9,17.4,74.5,17,74.2,16.5 M76.6,14.3c0.1,0.4,0,1-0.3,1.5
	c-0.3,0.5-0.6,0.9-1,1.1c-0.1-0.4,0-1,0.2-1.5C75.9,14.8,76.3,14.4,76.6,14.3 M86.1,14.3L73.2,2.6c-3,2-7,3.2-11.4,3.2
	c-4.6,0-8.7-1.3-11.8-3.5c-3.1,2.2-7.2,3.5-11.8,3.5c-4.4,0-8.3-1.2-11.4-3.2L13.9,14.3c0,0,6.2,5.9,6.3,10.7
	c0,4.8-1.4,8.7-3.2,13.6c-0.6,1.8-1.4,4.7-1.8,8.1c-0.1,0.6-0.2,1.3-0.2,2c0,0.6,0,1.3-0.1,1.9c0,4,0.7,8.2,2.7,11.9
	c0.3,0.5,0.6,1.1,1,1.6c1,1.5,9.5,15.5,27.4,17.3l0.1,0.1l3.8,3.8l3.8-3.8l0.1-0.1c17.9-1.8,26.4-15.8,27.4-17.3
	c0.4-0.5,0.7-1,1-1.6c2-3.7,2.7-7.9,2.7-11.9c0-0.6,0-1.3-0.1-1.9c0-0.7-0.1-1.4-0.2-2c-0.4-3.3-1.1-6.2-1.8-8.1
	c-1.7-4.9-3.2-8.8-3.1-13.6C79.8,20.3,86.1,14.3,86.1,14.3"/>
<path id="path5897"  class="st28" d="M55.4,73c0.4-0.2,0.9-0.5,0.9-1.1c0-0.5-0.4-0.9-0.9-0.9
	c-0.5,0-0.9,0.4-0.9,0.9C54.5,72.4,54.9,72.7,55.4,73"/>
<path id="path5901"  class="st28" d="M55.2,73.7c-0.7,0.3-1,0.8-1,1.3c0,0.6,0.5,1.1,1.1,1.1
	c0.6,0,1.1-0.5,1.1-1.1C56.4,74.5,56,74.1,55.2,73.7"/>
<path id="path5905"  class="st28" d="M47.1,73.6c-0.7,0.3-1,0.8-1,1.3c0,0.6,0.5,1.1,1.1,1.1
	s1.1-0.5,1.1-1.1S47.9,74,47.1,73.6"/>
</svg>
