<?xml version="1.0" encoding="utf-8"?>
<!-- Generator: Adobe Illustrator 19.2.1, SVG Export Plug-In . SVG Version: 6.00 Build 0)  -->
<svg version="1.1" id="Capa_1" xmlns="http://www.w3.org/2000/svg" xmlns:xlink="http://www.w3.org/1999/xlink" x="0px" y="0px"
	 viewBox="0 0 100 100" style="enable-background:new 0 0 100 100;" xml:space="preserve">
<style type="text/css">
	.st0{fill:url(#path34_4_);}
	.st1{fill:url(#path890_1_);}
	.st2{fill:#FFE500;stroke:#000000;stroke-width:2.098;stroke-miterlimit:3.863;}
	.st3{fill:#DA020E;}
	.st4{fill:#FFE500;}
	.st5{clip-path:url(#SVGID_2_);}
	.st6{fill:none;stroke:#B54005;stroke-width:10;stroke-miterlimit:3.863;}
	.st7{fill:url(#path7506_1_);}
	.st8{fill:url(#path8794_1_);}
	.st9{fill:url(#path15846_1_);}
	.st10{fill:url(#path16274_1_);}
	.st11{fill:url(#path39821_1_);}
	.st12{fill:url(#path39847_1_);}
	.st13{fill:url(#path39878_1_);}
	.st14{fill:url(#path39888_1_);}
	.st15{fill:url(#path41035_1_);}
	.st16{fill:url(#path9646-8_1_);}
	.st17{fill:url(#path41092_1_);}
	.st18{fill:url(#path41094_1_);}
	.st19{fill:none;stroke:#000000;stroke-width:2.098;stroke-miterlimit:3.863;}
	.st20{fill:url(#path41152_1_);}
	.st21{fill:url(#path39854_1_);}
	.st22{fill:url(#path39874_1_);}
	.st23{fill:#9C824A;stroke:#9C824A;stroke-width:0.793;stroke-miterlimit:282;}
	.st24{fill:#023474;stroke:#023474;stroke-width:0.793;stroke-miterlimit:282;}
	.st25{fill:#FFFFFF;stroke:#FFFFFF;stroke-width:0.793;stroke-miterlimit:282;}
	.st26{fill:#EF0107;stroke:#EF0107;stroke-width:0.793;stroke-miterlimit:282;}
	.st27{fill:#DB0007;stroke:#DB0007;stroke-width:0.793;stroke-miterlimit:282;}
	.st28{fill:#FFFFFF;}
	.st29{fill:#9C824A;}
	.st30{fill:#EF0107;stroke:#EF0107;stroke-width:0.3115;stroke-miterlimit:282;}
	.st31{fill:#DB0007;stroke:#DB0007;stroke-width:0.3115;stroke-miterlimit:282;}
	.st32{fill:#DB0007;}
	.st33{fill:#FFFFFF;stroke:#FFFFFF;stroke-width:0.3115;stroke-miterlimit:282;}
	.st34{fill:#FFFFFF;stroke:#FFFFFF;stroke-width:0.554;stroke-miterlimit:3.864;}
	.st35{fill:#231F20;}
	.st36{fill:#00B6F1;stroke:#00B6F1;stroke-width:1.700000e-02;stroke-miterlimit:3.864;}
	.st37{fill:#EF3E2E;}
	.st38{fill:#BBBDBF;}
	.st39{fill:#F0B83D;}
	.st40{fill:#00B6F1;stroke:#FFFFFF;stroke-width:1.700000e-02;stroke-miterlimit:3.864;}
	.st41{fill:#001C58;}
	.st42{fill:#94BEE5;}
	.st43{fill:none;stroke:#7A003C;stroke-width:2.2437;stroke-miterlimit:6;}
	.st44{fill:#7A003C;}
	.st45{fill:#FFE600;}
	.st46{fill:#DBA111;}
	.st47{fill:#034694;}
	.st48{fill:#D1D3D4;}
	.st49{fill:#ED1C24;}
	.st50{fill:#6A7AB5;}
	.st51{fill:none;}
	.st52{fill:#274488;}
	.st53{fill:#004798;stroke:#004798;stroke-width:9.375000e-02;}
	.st54{fill:#FFFFFF;stroke:#FFFFFF;stroke-width:9.375000e-02;}
	.st55{fill:#FABC00;stroke:#FABC00;stroke-width:9.375000e-02;}
	.st56{fill:none;stroke:#FFFFFF;stroke-width:7.865;stroke-miterlimit:3.864;}
	.st57{fill:none;stroke:#FFFFFF;stroke-width:7.865;stroke-miterlimit:12;}
	.st58{fill:none;stroke:#FFFFFF;stroke-width:7.865;stroke-miterlimit:22;}
	.st59{fill:none;stroke:#FFFFFF;stroke-width:7.865;stroke-miterlimit:6;}
	.st60{fill:#00A398;}
	.st61{fill:#D00027;}
	.st62{fill:none;stroke:#FFFFFF;stroke-width:17.3907;stroke-miterlimit:3.864;}
	.st63{fill:none;stroke:#FFFFFF;stroke-width:13.1107;stroke-miterlimit:3.864;}
	.st64{fill:#FEF667;}
	.st65{fill:#D00027;stroke:#D00027;}
	.st66{fill:#5299C6;}
	.st67{fill:#60223B;}
	.st68{fill:#F7C240;}
	.st69{fill:#292D6B;}
	.st70{fill:#1B458F;}
	.st71{fill:#C4122E;}
	.st72{fill:#27409B;}
	.st73{clip-path:url(#SVGID_4_);}
	.st74{fill:#F4F4F4;}
	.st75{fill:#D3D2D2;}
	.st76{fill:#A7A5A6;}
	.st77{fill:#091453;}
	.st78{fill:none;stroke:#FFFFFF;stroke-width:6.6301;}
	.st79{clip-path:url(#SVGID_6_);}
	.st80{fill:#724314;}
	.st81{fill:#240B08;}
	.st82{fill:#018B4B;}
	.st83{fill:#A6181D;}
	.st84{fill:#592D09;}
	.st85{fill:#FFCE65;}
	.st86{fill:#5CBFEB;}
	.st87{fill:none;stroke:#000000;stroke-width:10;}
	.st88{fill:none;stroke:#000000;}
	.st89{fill:#B2B2B2;}
	.st90{fill:none;stroke:#000000;stroke-width:0.3;}
	.st91{fill:#00A650;stroke:#000000;stroke-width:2;}
	.st92{fill:#241F20;stroke:#241F20;stroke-width:9.375000e-02;}
	.st93{fill:#FFF200;stroke:#FFF200;stroke-width:9.375000e-02;}
	.st94{fill:#A68A26;}
	.st95{fill:none;stroke:#A68A26;stroke-width:4.792100e-02;stroke-miterlimit:3.8637;}
	.st96{fill:#211E1E;}
	.st97{fill:none;stroke:#211E1E;stroke-width:4.792100e-02;stroke-miterlimit:3.8637;}
	.st98{fill:#EB172B;}
	.st99{fill:none;stroke:#EB172B;stroke-width:4.792100e-02;stroke-miterlimit:3.8637;}
	.st100{fill:#A68A26;stroke:#A68A26;stroke-width:4.792100e-02;stroke-miterlimit:3.8637;}
	.st101{fill:#D1BF7F;}
	.st102{fill:none;stroke:#D1BF7F;stroke-width:4.792100e-02;stroke-miterlimit:3.8637;}
	.st103{fill:none;stroke:#FFFFFF;stroke-width:4.792100e-02;stroke-miterlimit:3.8637;}
	.st104{fill:#EB172B;stroke:#EB172B;stroke-width:4.792100e-02;stroke-miterlimit:3.8637;}
	.st105{fill:#ED2127;}
	.st106{fill:#FBEE23;}
	.st107{stroke:#000000;}
	.st108{fill:#CF1F44;}
	.st109{fill:#1B449C;}
	.st110{fill:#E03A3E;}
	.st111{fill:#2E6ABD;stroke:#2E6ABD;stroke-width:0.617;}
	.st112{fill:#FFFFFF;stroke:#FFFFFF;stroke-width:0.6175;}
	.st113{fill:#ED1248;}
	.st114{fill:#2E6ABD;}
	.st115{fill:#FDE100;}
	.st116{fill:#CC0000;}
	.st117{fill:#211E1F;}
	.st118{fill:#ED1A3B;}
	.st119{fill:#00AEEF;}
	.st120{fill:#FFC40D;}
	.st121{fill:#22B24C;}
	.st122{fill:#FFC20E;}
	.st123{fill:#0A3F86;}
	.st124{fill:#005CA9;}
	.st125{fill:#FFE000;}
	.st126{fill:#E2001A;}
	.st127{opacity:0;}
	.st128{opacity:0;fill:#FFFFFF;}
	.st129{fill:#FFFFFF;stroke:#000000;}
	.st130{fill:#0060A9;}
	.st131{fill:#E32219;}
	.st132{fill:#FFED00;}
	.st133{fill:#1D9053;}
	.st134{fill:#52A600;}
	.st135{fill:#EE2523;}
	.st136{fill:#F7D117;}
	.st137{fill:#171796;}
	.st138{fill:#009959;}
	.st139{fill:#D42E12;}
	.st140{fill:#703824;}
	.st141{fill:#E5254E;}
	.st142{fill:#8AC3EE;}
	.st143{fill:#B19221;}
	.st144{fill:#F5C03E;}
	.st145{fill:#FF1119;}
	.st146{fill:#1E6BC0;}
	.st147{fill:#B4742A;}
	.st148{fill:#371B02;}
	.st149{fill:url(#SVGID_7_);}
	.st150{fill:url(#SVGID_8_);}
	.st151{fill:url(#SVGID_9_);}
	.st152{fill:url(#SVGID_10_);}
	.st153{fill:url(#SVGID_11_);}
	.st154{fill:url(#SVGID_12_);}
	.st155{fill:url(#SVGID_13_);}
	.st156{fill:url(#SVGID_14_);}
	.st157{fill:url(#SVGID_15_);}
	.st158{fill:url(#SVGID_16_);}
	.st159{fill:#EB2626;}
	.st160{fill:#E9C32C;}
	.st161{fill:#D9D9D9;}
	.st162{fill:#009C5E;}
	.st163{fill:#1C75BC;}
	.st164{fill:#611D5C;}
	.st165{fill:#E2B900;}
	.st166{fill:#004B95;}
	.st167{fill:#A4234B;}
	.st168{fill:#DB2F36;}
	.st169{fill:#FFDF00;}
	.st170{fill:#A38D44;}
	.st171{fill:#57175E;}
	.st172{fill:#AFDCFD;}
	.st173{fill:#0090C6;}
	.st174{fill:#DB5232;}
	.st175{fill:#23C1E0;}
	.st176{fill:#F1A92A;}
	.st177{fill:#167FB6;}
	.st178{fill:#FED75D;}
	.st179{fill:#378CBF;}
	.st180{fill:#3E9692;}
	.st181{fill:#E67F29;}
	.st182{fill:#D8B43C;}
	.st183{fill:#EF3B33;}
	.st184{fill:#24923D;}
	.st185{opacity:6.000001e-02;fill:#101010;enable-background:new    ;}
	.st186{fill:#00529F;}
	.st187{fill:#EE324E;}
	.st188{fill:#FEBE10;}
	.st189{fill:#143C8B;}
	.st190{fill:#FFE24A;}
	.st191{fill:#EC1D24;}
	.st192{fill:#E6A514;}
	.st193{fill:#FFDF1C;}
	.st194{fill:#EE3524;}
	.st195{fill:#B23428;}
	.st196{fill:#D18816;}
	.st197{fill:#0097D7;}
	.st198{fill:#ED1C23;}
	.st199{fill:#E30613;}
	.st200{fill:#FFE400;}
	.st201{fill:#C51A1B;}
	.st202{clip-path:url(#SVGID_19_);}
	.st203{clip-path:url(#SVGID_20_);fill:none;stroke:#000000;stroke-width:0.8131;stroke-miterlimit:3.864;}
	.st204{fill:#0093D5;}
	.st205{fill:#004B9D;}
	.st206{fill:#FCC24F;}
	.st207{fill:#009545;}
	.st208{fill:#0072BB;}
	.st209{fill:#C4974E;}
	.st210{fill:url(#path1292_1_);}
	.st211{fill:#004996;}
	.st212{fill:#FFE667;}
	.st213{fill:none;stroke:#005187;stroke-width:0.153;stroke-miterlimit:3.864;}
	.st214{fill:#005187;}
	.st215{clip-path:url(#SVGID_22_);}
	.st216{clip-path:url(#SVGID_24_);fill:none;stroke:#000000;stroke-width:0.296;stroke-miterlimit:3.864;}
	.st217{clip-path:url(#SVGID_26_);fill:#FFE667;}
	.st218{clip-path:url(#SVGID_28_);fill:none;stroke:#000000;stroke-width:8.300000e-02;stroke-miterlimit:3.864;}
	.st219{fill:none;stroke:#000000;stroke-width:0.153;stroke-miterlimit:3.864;}
	.st220{clip-path:url(#SVGID_30_);fill:#E70005;}
	.st221{clip-path:url(#SVGID_32_);fill:none;stroke:#E70005;stroke-width:0.296;stroke-miterlimit:3.864;}
	.st222{clip-path:url(#SVGID_34_);fill:#E70005;}
	.st223{clip-path:url(#SVGID_36_);fill:none;stroke:#E70005;stroke-width:0.296;stroke-miterlimit:3.864;}
	.st224{clip-path:url(#SVGID_38_);fill:#E70005;}
	.st225{clip-path:url(#SVGID_40_);fill:none;stroke:#E70005;stroke-width:0.296;stroke-miterlimit:3.864;}
	.st226{clip-path:url(#SVGID_42_);fill:#E70005;}
	.st227{clip-path:url(#SVGID_44_);fill:none;stroke:#E70005;stroke-width:0.296;stroke-miterlimit:3.864;}
	.st228{fill:#E70005;}
	.st229{fill:none;stroke:#000000;stroke-width:0.141;stroke-miterlimit:3.864;}
	.st230{fill:#00276D;}
	.st231{fill:#C49308;}
	.st232{fill:#179D33;}
	.st233{fill:#999999;}
	.st234{fill:#FF0000;}
	.st235{fill:#E31837;}
	.st236{fill:#06357A;}
	.st237{fill:#B4053F;}
	.st238{fill:#DCA43E;}
	.st239{fill:#005CA5;}
	.st240{fill:#FAC400;}
	.st241{fill:#004083;}
	.st242{fill:#A95932;}
	.st243{fill:none;stroke:#000000;stroke-width:1.2215;}
	.st244{fill:#E62627;}
	.st245{fill:#00458C;}
	.st246{fill:#E11B22;}
	.st247{fill:#00AB4E;}
	.st248{fill:#F47920;}
	.st249{fill:#C7C8CA;}
	.st250{fill:#E11515;}
	.st251{fill:#A4965F;}
	.st252{fill:#E51636;}
	.st253{fill:#EACC00;}
	.st254{fill:#4F846B;}
	.st255{fill:#E22227;}
	.st256{fill:#FAE700;}
	.st257{fill:url(#SVGID_45_);}
	.st258{fill:#666666;}
	.st259{fill:#FFF200;}
	.st260{fill:#00275D;}
	.st261{fill:#EF3E33;}
	.st262{fill:none;stroke:#00275D;stroke-width:2.632;}
	.st263{fill:#3F7652;}
	.st264{fill:#F1D261;}
	.st265{fill:#004D8F;}
	.st266{fill:#E7B137;stroke:#E7B137;stroke-miterlimit:10;}
	.st267{fill:#E7B137;}
	.st268{fill:#162577;}
	.st269{fill:#12692C;}
	.st270{fill:#D8141D;}
	.st271{fill:#AB830D;}
	.st272{fill:#0086CB;}
	.st273{fill:#001F42;}
	.st274{fill:#9A8F4A;}
	.st275{fill:#00559D;}
	.st276{fill:#FDDE00;}
	.st277{fill:#00924C;}
	.st278{fill:#233984;}
	.st279{fill:#FFD42E;}
	.st280{fill:#BA3733;}
	.st281{fill:#46714D;}
	.st282{fill:#221F1F;}
	.st283{fill:#00559E;}
	.st284{fill:#005C46;}
	.st285{fill:#FBC860;}
	.st286{fill:#D57C48;}
	.st287{fill:#040403;}
	.st288{fill:#4AB969;}
	.st289{fill:#8ED8F8;}
	.st290{fill:#FEC34E;}
	.st291{fill:#FFC95B;}
	.st292{fill:#00644C;}
	.st293{fill:#70B865;}
	.st294{fill:#CA6F44;}
	.st295{fill:#A8B8BE;}
	.st296{fill:#1C2C80;}
	.st297{fill:#E10321;}
	.st298{fill:none;stroke:#231F20;stroke-width:0.318;stroke-miterlimit:3.864;}
	.st299{fill:#D71920;}
	.st300{fill:#484749;}
	.st301{fill:#D9DBDC;}
	.st302{fill:#DF725A;}
	.st303{fill:#F2CABA;}
	.st304{fill:#E89C84;}
	.st305{fill:#264F99;}
	.st306{clip-path:url(#SVGID_47_);}
	.st307{fill:#161413;}
	.st308{fill:#ED1B26;}
	.st309{fill:#E60D2E;}
	.st310{fill:#FCD600;}
	.st311{fill:#004D91;}
	.st312{fill:#EAB412;}
	.st313{fill:#FDD31D;}
	.st314{fill:#EFB800;}
</style>
<g id="path4313">
	<path class="st28" d="M91.2,68.3L91.2,68.3L87,64.7l-0.9-0.8c-0.8-0.8-2.1-1.9-4.3-1.8c-0.4,0-0.7,0-1.1,0.1
		c0.4-1.7,0.7-3.6,0.8-5.5c0.1-1.4,0.2-2.7,0.2-4c0,0,0-0.5,0-0.5l0-1.1l0,0.1V0H18.2v51.2l0-0.1l0,1.1l0,0.5c0,1.3,0.1,2.6,0.2,4
		c0.2,1.9,0.5,3.8,0.8,5.5c-0.3-0.1-0.7-0.1-1-0.1c-2.2-0.1-3.5,0.9-4.3,1.8L13,64.7l-4.1,3.6l0,0c-1.4,1.4-1.6,2.8-1.4,3.7
		c0.4,2.6,3.7,4.5,4,4.7l1.9-1.5c1.4-0.5,2.2,0.2,2.2,0.2c0.1,0.1,0.6,0.5,0.9,2l0.2,0.9c-1.1,0.9-1.8,1.6-1.8,1.6l0.7,0.9
		c1.9,2.8,2.6,3.6,3.9,5C27.4,95.1,38,100,49.9,100h0.2c11.8,0,22.5-4.9,30.7-14.2c1.2-1.4,2-2.2,3.9-5l0.7-0.9c0,0-0.7-0.6-1.8-1.5
		l0.2-0.9c0.3-1.5,0.7-1.9,0.9-2c0,0,0.8-0.7,2.2-0.2l1.9,1.5c0.3-0.2,3.6-2.1,4-4.7C92.8,71.1,92.6,69.8,91.2,68.3L91.2,68.3z"/>
</g>
<g id="path4315">
	<path class="st109" d="M86.2,65.4c0,0,2.1,4.5-4.2,4.9l6.5,5.1c0,0,5.2-3.1,1.9-6.3L86.2,65.4L86.2,65.4z"/>
</g>
<g id="path4317">
	<path class="st110" d="M84.9,68.3c1.2-1.2,0-3.3,0-3.3s-1-1.9-3-1.8c-0.5,0-1,0.1-1.5,0.2c-0.4,1.6-0.9,3.2-1.5,4.6l0,0
		c-0.1,0.2-0.8,1.9-2.2,4.3c0.2,0.1,0.4,0.4,0.8,0.7l4.9,4.2c0.6-4.2,2.9-3.1,2.9-3.1l-5.5-4.4C84,69.7,84.9,68.3,84.9,68.3
		L84.9,68.3z"/>
</g>
<g id="path4319">
	<path class="st109" d="M13.7,65.5c0,0-2.1,4.5,4.2,4.9l-6.5,5.1c0,0-5.2-3.1-1.9-6.3L13.7,65.5L13.7,65.5z"/>
</g>
<g id="path4321">
	<path class="st110" d="M15,68.4c-1.2-1.2,0-3.3,0-3.3s1-1.9,3-1.8c0.5,0,1,0.1,1.5,0.2c0.4,1.6,0.9,3.2,1.5,4.6l0,0
		c0.1,0.2,0.8,1.9,2.2,4.3c-0.2,0.1-0.4,0.4-0.8,0.7l-4.9,4.2c-0.6-4.2-2.9-3.1-2.9-3.1l5.5-4.4C16,69.7,15,68.4,15,68.4L15,68.4z"
		/>
</g>
<g id="path4323">
	<path class="st109" d="M75,72.7c1.8-2.8,2.6-4.9,2.7-5l0,0.1c1.4-3.2,2.2-6.9,2.6-11.2c0.1-1.3,0.2-2.6,0.2-3.9c0-0.2,0-0.3,0-0.5
		c0-0.4,0-0.7,0-1c0-0.1,0-49.9,0-49.9h-61c0,0,0,49.8,0,49.9c0,0.3,0,0.6,0,1c0,0.2,0,0.3,0,0.5c0,1.3,0.1,2.6,0.2,3.9
		c0.4,4.2,1.2,7.9,2.6,11.1c0.1,0.3,1,2.3,2.7,5l-8.5,7.4c1.9,2.8,2.6,3.6,3.8,4.9c8,9,18.3,13.8,29.7,13.8h0.2
		c11.5,0,21.7-4.8,29.7-13.8c1.2-1.3,1.9-2.1,3.8-4.9L75,72.7L75,72.7z"/>
</g>
<g id="path4325">
	<path class="st28" d="M50,4.1H22.3v47.2c0,0-0.4,8.4,2.5,15.4c0,0,7.1,18.1,25.1,18.1H50c18,0,25.2-18.1,25.2-18.1
		c3-7,2.5-15.4,2.5-15.4V4.1H50L50,4.1z"/>
</g>
<g id="polygon4327">
	<polygon class="st110" points="44.8,30.9 55.1,30.9 55.1,70.9 44.8,70.9 	"/>
</g>
<g id="path4329">
	<path class="st110" d="M36.4,15.8V9.1c-1.4,0.1-2.7,0.4-3.9,1l0.8-2.5h9.9l-1.1,2.2c-0.9-0.4-1.8-0.7-2.9-0.7v6.7
		c0,1.1,0.1,2,0.6,2.9h-3.9C36.3,17.8,36.4,16.9,36.4,15.8L36.4,15.8z"/>
</g>
<g id="path4331">
	<path class="st110" d="M55.6,15.8v-5.4c0-1.1-0.1-2-0.6-2.9h3.9c-0.4,0.9-0.6,1.8-0.6,2.9v2.2l3.4-3.9c0.3-0.4,0.5-0.7,0.5-1.1
		c0,0,0-0.1,0-0.1h4.4c-1,0.7-1.9,1.2-2.4,1.8l-2.9,3.2l4,4.7c0.4,0.4,0.9,0.9,1.5,1.5h-4.4c0-0.1,0-0.3,0-0.4
		c0-0.4-0.2-0.8-0.6-1.2l-3.6-4.3v3c0,1.1,0.1,2,0.6,2.9H55C55.4,17.8,55.6,16.9,55.6,15.8L55.6,15.8z"/>
</g>
<g id="path4333">
	<path class="st110" d="M68,15.8v-5.4c0-1.1-0.1-2-0.6-2.9H75l-1.3,2.2c-0.8-0.3-1.8-0.5-3-0.5v3.1h3.9l-1.4,2
		c-0.6-0.3-1.3-0.5-2.2-0.5c-0.1,0-0.2,0-0.2,0V17c0.4,0,0.7,0,1.1,0c1.6,0,2.9-0.2,4.1-0.6l-1.1,2.2h-7.5
		C67.8,17.8,68,16.9,68,15.8L68,15.8z"/>
</g>
<g id="path4335">
	<path class="st110" d="M41.6,22.3c-1.5,0-2.6,1-2.6,2.6c0,1.6,1.1,2.6,2.8,2.6c0.9,0,1.7-0.3,2.3-1l-0.3,1.7
		c-0.8,0.3-1.7,0.5-2.6,0.5c-1,0-1.9-0.2-2.6-0.7c-1.1-0.7-1.6-1.6-1.6-2.8c0-1.2,0.6-2.3,1.6-3.1c0.9-0.6,2-1,3.3-1
		c0.6,0,1.3,0.1,2,0.3v1.9C43.2,22.7,42.4,22.3,41.6,22.3L41.6,22.3L41.6,22.3z"/>
	<path class="st110" d="M41.3,29.1c-1.1,0-2-0.3-2.8-0.8c-1.2-0.8-1.7-1.8-1.7-3.1c0-1.3,0.6-2.5,1.8-3.3c1.5-1,3.4-1.4,5.6-0.7
		l0.2,0.1V24l-0.5-0.5c-0.7-0.6-1.4-0.9-2.1-0.9c-1.4,0-2.3,0.9-2.3,2.3c0,1.4,1,2.3,2.5,2.3c0.9,0,1.5-0.3,2.1-0.9l0.7-0.8
		l-0.4,2.9L44,28.6C43.1,28.9,42.2,29.1,41.3,29.1z M42,21.5c-1.2,0-2.2,0.3-3.1,0.9c-1,0.7-1.5,1.7-1.5,2.8c0,1.1,0.5,1.9,1.4,2.5
		c0.7,0.4,1.5,0.7,2.5,0.7c0.8,0,1.6-0.1,2.3-0.4l0.1-0.6c-0.5,0.3-1.1,0.5-1.8,0.5c-1.9,0-3.1-1.2-3.1-3c0-1.7,1.2-2.9,2.9-2.9
		c0.7,0,1.4,0.2,2,0.6v-0.9C43,21.5,42.5,21.5,42,21.5z"/>
</g>
<g id="path4337">
	<path class="st110" d="M45.5,26.7v-3.6c0-0.7-0.1-1.3-0.4-1.9h2.5c-0.3,0.6-0.4,1.2-0.4,1.9v3.6c0,0.7,0.1,1.3,0.4,1.9h-2.5
		C45.4,28,45.5,27.4,45.5,26.7L45.5,26.7L45.5,26.7z"/>
	<path class="st110" d="M48.2,29h-3.6l0.2-0.5c0.2-0.5,0.3-1.1,0.3-1.8v-3.6c0-0.7-0.1-1.3-0.3-1.8l-0.2-0.5h3.6L48,21.3
		c-0.2,0.5-0.3,1.1-0.3,1.8v3.6c0,0.7,0.1,1.3,0.3,1.8L48.2,29z M45.6,28.3h1.6c-0.1-0.5-0.2-1-0.2-1.6v-3.6c0-0.6,0.1-1.1,0.2-1.6
		h-1.6c0.1,0.5,0.2,1,0.2,1.6v3.6C45.8,27.3,45.8,27.8,45.6,28.3z"/>
</g>
<g id="path4339">
	<path class="st110" d="M50.9,26.7v-4.5c-0.9,0-1.7,0.3-2.5,0.6l0.5-1.7h6.4l-0.7,1.5c-0.5-0.3-1.2-0.4-1.9-0.5v4.5
		c0,0.7,0.1,1.3,0.4,1.9h-2.5C50.8,28,50.9,27.4,50.9,26.7L50.9,26.7L50.9,26.7z"/>
	<path class="st110" d="M53.5,29H50l0.2-0.5c0.2-0.5,0.3-1.1,0.3-1.8v-4.1c-0.7,0.1-1.4,0.3-2,0.6l-0.7,0.3l0.8-2.6h7.1l-1,2.3
		L54.4,23c-0.4-0.2-0.9-0.3-1.4-0.4v4.1c0,0.7,0.1,1.3,0.3,1.8L53.5,29z M51,28.3h1.6c-0.1-0.5-0.2-1-0.2-1.6v-4.8l0.3,0
		c0.6,0,1.2,0.1,1.7,0.3l0.3-0.7h-5.6l-0.2,0.8c0.6-0.2,1.3-0.4,2-0.4l0.3,0v4.8C51.2,27.3,51.1,27.8,51,28.3z"/>
</g>
<g id="path4341">
	<path class="st110" d="M60.8,28.6h-2.5c0.3-0.6,0.4-1.2,0.4-1.9v-1.5l-1.9-2.7c-0.3-0.4-0.7-0.8-1-1.2h2.5c0,0.1,0,0.1,0,0.2
		c0,0.2,0,0.4,0.1,0.5l1.3,1.9l1.1-1.8c0.1-0.2,0.2-0.4,0.2-0.6c0-0.1,0-0.1,0-0.2h2.3c-0.4,0.4-0.8,0.8-1.1,1.3l-1.6,2.4v1.8
		C60.5,27.4,60.5,28,60.8,28.6L60.8,28.6L60.8,28.6z"/>
	<path class="st110" d="M61.3,29h-3.6l0.2-0.5c0.2-0.5,0.3-1.1,0.3-1.8v-1.4l-1.8-2.6c-0.3-0.4-0.6-0.8-1-1.2l-0.5-0.6h3.7l-0.1,0.4
		c0,0,0,0.1,0,0.1c0,0.1,0,0.2,0.1,0.3l1,1.5l0.8-1.3c0.1-0.1,0.1-0.3,0.1-0.4c0,0,0-0.1,0-0.1l0-0.4l0.4,0H64l-0.7,0.6
		c-0.4,0.4-0.8,0.8-1.1,1.2L60.8,25v1.7c0,0.7,0.1,1.3,0.3,1.8L61.3,29z M58.8,28.3h1.6c-0.1-0.5-0.2-1-0.2-1.6v-1.9l1.7-2.5
		c0.2-0.3,0.4-0.5,0.6-0.8h-1.2c0,0.2-0.1,0.4-0.2,0.6l-1.3,2.2L58.1,22c-0.1-0.1-0.2-0.3-0.2-0.5h-1.5c0.2,0.2,0.4,0.5,0.6,0.7
		l2,2.8v1.6C59,27.3,58.9,27.8,58.8,28.3z"/>
</g>
<g id="path4343">
	<path class="st110" d="M48.4,8.8c-1.8,0-2.6,2.1-2.6,4.3c0,2.2,0.8,4.3,2.6,4.3c1.8,0,2.6-2.1,2.6-4.3C51.1,10.9,50.2,8.8,48.4,8.8
		L48.4,8.8z M54.2,13.1c0,3.7-2.6,5.7-5.8,5.7c-3.2,0-5.8-1.9-5.8-5.7c0-3.1,2.6-5.7,5.8-5.7C51.6,7.4,54.2,10,54.2,13.1L54.2,13.1
		L54.2,13.1z"/>
</g>
<g id="path4345">
	<path class="st109" d="M45.6,79c0-1.3,0.3-1.9,0.9-1.9c0.6,0,0.9,0.6,0.9,1.9c0,1.3-0.3,1.9-0.9,1.9C45.8,80.9,45.6,80.3,45.6,79
		L45.6,79z M47.6,76.7c0.8-0.3,1.2-0.9,1.2-1.8c0-1.3-0.8-2-2.3-2c-1.5,0-2.4,0.8-2.4,2c0,0.9,0.4,1.6,1.3,1.8v0.1
		c-1,0.3-1.5,1.1-1.5,2.3c0,1.6,0.9,2.2,2.6,2.6c1.7,0.3,2.6-0.5,2.6-2.1C49.1,78.4,48.6,77,47.6,76.7L47.6,76.7L47.6,76.7z
		 M45.6,74.9c0-1,0.3-1.5,0.9-1.5c0.6,0,0.8,0.5,0.8,1.5c0,1-0.3,1.5-0.8,1.5C45.9,76.4,45.6,75.9,45.6,74.9L45.6,74.9L45.6,74.9z"
		/>
</g>
<g id="path4347">
	<path class="st109" d="M47.2,82.1c-0.2,0-0.5,0-0.8-0.1c-1.4-0.3-2.9-0.8-2.9-2.9c0-1.1,0.4-2,1.1-2.4c-0.5-0.4-0.8-1-0.8-1.9
		c0-1.5,1.1-2.4,2.8-2.4c1.7,0,2.6,0.9,2.6,2.4c0,0.8-0.3,1.5-0.9,1.9c0.8,0.6,1.2,1.8,1.2,2.9c0,0.9-0.3,1.6-0.8,2
		C48.3,81.9,47.8,82.1,47.2,82.1z M46.5,81.3C46.5,81.3,46.5,81.3,46.5,81.3c0.7,0.1,1.3,0.1,1.7-0.2c0.4-0.4,0.5-1,0.5-1.5
		c0-1-0.5-2.3-1.3-2.5L47.3,77c0.3,0.4,0.5,1,0.5,2C47.8,80.8,47.1,81.3,46.5,81.3z M45.8,76.5v0.4l-0.3,0.2c-0.9,0.2-1.3,0.9-1.3,2
		c0,1.1,0.5,1.7,1.7,2c-0.7-0.4-0.7-1.6-0.7-2.1c0-1.3,0.3-2.1,1-2.3C46,76.7,45.9,76.6,45.8,76.5z M46.5,77.5
		c-0.4,0-0.5,0.8-0.5,1.5c0,1.5,0.4,1.5,0.5,1.5c0.5,0,0.5-1.2,0.5-1.5C47,78.4,46.9,77.5,46.5,77.5z M46.8,76.7
		c0.2,0,0.3,0.1,0.4,0.2v-0.4C47.1,76.6,46.9,76.7,46.8,76.7z M47,73.2c0.7,0.3,0.7,1.3,0.7,1.8c0,0.7-0.1,1.1-0.3,1.4l0.1-0.1
		c0.8-0.3,1-1,1-1.5C48.4,73.8,47.9,73.3,47,73.2z M46,73.2c-0.9,0.2-1.4,0.7-1.4,1.6c0,0.5,0.2,1.2,1,1.5l0.1,0
		c-0.2-0.3-0.3-0.7-0.3-1.4C45.2,73.9,45.6,73.4,46,73.2z M46.5,73.8c-0.3,0-0.5,0.4-0.5,1.1c0,1.1,0.3,1.1,0.5,1.1
		c0.1,0,0.5,0,0.5-1.1C46.9,73.8,46.7,73.8,46.5,73.8z"/>
</g>
<g id="path4349">
	<path class="st109" d="M51.7,77C51.7,77,51.7,77,51.7,77c0-2.2,0.4-3.4,1.4-3.4c0.5,0,0.8,0.3,1.1,0.8l0.1,0c0-0.4,0.1-0.8,0.1-1.3
		c-0.4-0.2-1.3-0.3-1.8-0.3c-2.1,0-2.8,2.4-2.8,5.7c0,2.5,0.9,3.7,2.7,3.4c1.6-0.3,2.6-1.1,2.6-3.1c0-1.6-0.8-2.5-2-2.5
		C52.5,76.3,52,76.6,51.7,77L51.7,77z M53.3,79.1c0,1.3-0.3,2-0.8,2c-0.6,0-0.8-0.7-0.8-2.1c0-1.2,0.3-1.8,0.8-1.8
		C53.1,77.3,53.3,77.9,53.3,79.1L53.3,79.1L53.3,79.1z"/>
</g>
<g id="path4351">
	<path class="st109" d="M52.1,82.3c-0.6,0-1.1-0.2-1.5-0.5c-0.7-0.6-1.1-1.7-1.1-3.3c0-4,1.1-6.1,3.2-6.1c0.5,0,1.4,0.1,1.9,0.3
		l0.3,0.1l0,0.3c-0.1,0.5-0.1,0.9-0.1,1.2l0,0.2l-0.5,0.2l-0.2-0.2C53.6,74,53.3,74,53.1,74c-0.7,0-0.9,1.2-1,2.2
		c0.3-0.2,0.7-0.2,1.1-0.2c0,0,0,0,0,0c1.4,0,2.3,1.1,2.3,2.9c0,2-1,3.1-2.9,3.4C52.4,82.3,52.2,82.3,52.1,82.3z M52.7,73.1
		c-1.6,0-2.4,1.8-2.4,5.3c0,1.3,0.3,2.3,0.8,2.7c0.3,0.3,0.7,0.4,1.2,0.3c-0.9-0.3-0.9-1.9-0.9-2.4c0-0.4,0-0.7,0.1-1l-0.1,0.2V77
		c0-2.5,0.6-3.8,1.8-3.8c0.3,0,0.6,0.1,0.9,0.3c0-0.1,0-0.1,0-0.2C53.6,73.2,53,73.1,52.7,73.1z M52.5,76.9c1.2,0,1.2,1.6,1.2,2.3
		c0,0.5,0,1.7-0.6,2.2c1.1-0.4,1.6-1.2,1.6-2.5c0-1.3-0.6-2.1-1.6-2.1h0c-0.3,0-0.6,0.1-0.8,0.2C52.4,76.9,52.5,76.9,52.5,76.9z
		 M52.5,77.6c-0.4,0-0.4,1.1-0.4,1.4c0,1,0.2,1.7,0.5,1.7c0.2,0,0.4-0.4,0.4-1.6C53,77.6,52.6,77.6,52.5,77.6z"/>
</g>
<g id="path4353">
	<path class="st109" d="M56.2,79.5c0.3,0.5,1,0.6,1,0.6c1.6-0.1,1.4-2.5,1.4-2.5c-0.2-1.3-1.1-1.1-1.9-1c-0.1,0-0.3,0-0.4,0l0-0.9
		c0.1,0,0.2,0,0.3,0c0.8-0.1,1.4-0.3,1.5-1.1c0.1-0.5,0-1.3-0.8-1.2c-0.9,0-1.1,0.7-1.4,1.1l-0.1-0.1l-0.1-1.1
		c0.5-0.6,1.7-0.7,1.7-0.7c1.3-0.1,2.2,0.6,2.3,1.6c0.1,0.7-0.2,1-1.1,1.5l0,0.1c1.1-0.1,1.5,0.3,1.7,1c0.4,1.2,0.3,4.2-4.9,4.5
		c0,0,0.4-0.5,0.6-1.6L56.2,79.5L56.2,79.5z"/>
	<path class="st109" d="M54.7,81.5l0.5-0.6c0,0,0.4-0.4,0.5-1.5l0-0.2l0.6-0.2l0.1,0.2c0.2,0.4,0.8,0.4,0.8,0.4
		c0.2,0,0.4-0.1,0.6-0.3c0.4-0.5,0.5-1.5,0.4-1.9c-0.1-0.8-0.6-0.8-1.4-0.8l-0.1,0c-0.1,0-0.3,0-0.4,0L56,77l0-1.6l0.3,0
		c0.1,0,0.2,0,0.2,0c0.8-0.1,1.1-0.3,1.3-0.9c0-0.2,0-0.5-0.1-0.7c-0.1-0.1-0.2-0.1-0.4-0.1c-0.6,0-0.7,0.3-0.9,0.7
		c-0.1,0.1-0.1,0.2-0.2,0.3L56,74.8l-0.5-0.3l-0.1-1.4l0.1-0.1c0.6-0.7,1.8-0.8,1.9-0.8c1.4-0.1,2.6,0.7,2.7,1.9
		c0.1,0.6-0.1,1-0.5,1.3c0.6,0.2,0.9,0.5,1.1,1.2c0.2,0.7,0.3,1.9-0.4,2.9c-0.8,1.2-2.4,1.9-4.8,2L54.7,81.5z M56.2,80
		c-0.1,0.3-0.2,0.6-0.2,0.8c1.8-0.2,3.1-0.7,3.7-1.7c0.6-0.8,0.5-1.8,0.3-2.4c-0.2-0.6-0.5-0.9-1.4-0.8l-0.3,0l-0.1-0.5l0.2-0.2
		c0.9-0.4,1-0.6,0.9-1.1c-0.1-0.8-0.9-1.4-2-1.3c-0.3,0-1.1,0.1-1.4,0.5l0,0.2c0.2-0.3,0.6-0.6,1.2-0.6c0.5,0,0.8,0.2,0.9,0.4
		c0.4,0.4,0.3,1.1,0.2,1.2c-0.2,1.1-1.1,1.3-1.8,1.4l0,0.3c0,0,0,0,0.1,0l0.1,0c0.7-0.1,1.9-0.2,2.1,1.3c0,0.1,0.1,1.6-0.6,2.4
		c-0.3,0.3-0.6,0.5-1.1,0.5C57.2,80.4,56.7,80.4,56.2,80z"/>
</g>
<g id="path4355">
	<path class="st109" d="M43,80.7c-0.9-0.3-2.2-1-2.2-1C40.9,79,41,77.5,41,75c0-0.3,0-0.5,0-0.9c-0.4,0.2-0.2,0-0.7,0.3l-0.5-0.7
		c1.1-0.4,1.6-0.4,2.7-1l0.2,0.1c0,2.2,0,3.5,0,4.2c0,0.9,0.1,2.4,0.2,3.3C43,80.6,43,80.7,43,80.7L43,80.7z"/>
	<path class="st109" d="M43.4,81.3L42.9,81c-0.9-0.3-2.2-1-2.2-1l-0.2-0.1l0-0.2c0.1-0.7,0.2-2.2,0.2-4.6c0-0.1,0-0.3,0-0.4
		c0,0-0.1,0-0.2,0.1l-0.3,0.2l-0.9-1.3l0.4-0.1c0.3-0.1,0.6-0.2,0.8-0.3c0.6-0.2,1-0.3,1.8-0.7l0.2-0.1l0.6,0.3l0,0.2
		c0,1.7,0,2.9,0,3.6l0,0.6c0,1,0.1,2.6,0.2,3.3c0,0.2,0,0.3,0,0.3L43.4,81.3z M41.2,79.5c0.3,0.2,0.9,0.4,1.4,0.7
		c-0.1-0.8-0.2-2.2-0.2-3.1l0-0.6c0-0.7,0-1.8,0-3.3c-0.7,0.3-1.1,0.5-1.6,0.6c-0.1,0-0.2,0.1-0.4,0.1l0,0.1c0.1,0,0.1,0,0.2-0.1
		c0,0,0.1,0,0.2-0.1l0.4-0.2l0,0.8c0,0.2,0,0.3,0,0.5C41.4,77.3,41.2,78.7,41.2,79.5z"/>
</g>
<g id="path4357">
	<path class="st110" d="M35.1,76.3c-0.8-0.7-1.6-1.5-2.3-2.3c-3.7-4.1-5.4-8.3-5.4-8.4l0,0l0,0c-2.1-5-2.3-10.8-2.3-13.1
		c0-0.6,0-1,0-1l0-0.1c0,0,0-8.7,0-30.3h10L35.1,76.3L35.1,76.3z"/>
</g>
<g id="path4359">
	<path class="st110" d="M64.8,76.3c0.8-0.7,1.6-1.5,2.3-2.3c3.7-4.1,5.4-8.3,5.4-8.4l0,0l0,0c2.1-5,2.3-10.8,2.3-13.1c0-0.6,0-1,0-1
		l0-0.1c0,0,0-8.7,0-30.3h-10L64.8,76.3L64.8,76.3z"/>
</g>
<g id="path4361">
	<path class="st28" d="M41.5,91.6c0.1,0,0.2,0.1,0.3,0.1c1.5,0.4,2.4-0.1,2.8-1.4c0.3-1.2-0.2-1.8-1.4-2.2c-0.5-0.1-1-0.2-1.5-0.3
		c-0.2,0-0.4-0.1-0.6-0.2c-0.2,1.2-0.5,2.2-0.7,3.1c-0.2,0.8-0.5,1.9-0.9,3.1c0.3,0.1,0.6,0.1,0.8,0.2c0.2,0.1,0.5,0.1,0.8,0.2
		c0.1-0.8,0.2-1.2,0.3-1.4L41.5,91.6L41.5,91.6z M41.6,91l0.4-1.4c0.1-0.2,0.1-0.4,0.1-0.5c0,0,0-0.2,0.1-0.4c0.2,0,0.2,0,0.3,0
		c0.6,0.2,0.8,0.6,0.6,1.3C42.9,90.9,42.5,91.2,41.6,91L41.6,91L41.6,91z"/>
</g>
<g id="path4363">
	<path class="st28" d="M45.6,92.2c0,2.1,1.1,3.2,3.1,3.2c2.1,0,3.3-1.3,3.3-3.5c0-2.1-1.2-3.2-3.1-3.2
		C46.9,88.8,45.6,90.1,45.6,92.2L45.6,92.2z M47.2,92.2c0-1.7,0.7-2.7,1.7-2.7c1,0,1.7,1,1.7,2.7c0,1.7-0.7,2.7-1.7,2.7
		C47.8,94.9,47.2,93.9,47.2,92.2L47.2,92.2L47.2,92.2z"/>
</g>
<g id="path4365">
	<path class="st28" d="M55.7,89.2c0.1,0.5,0.1,1,0.2,1.3c0,0.1,0,0.3,0.1,0.4c0.2,1.4,0.5,2.6,0.8,3.9c-0.4,0-0.6,0.1-0.8,0.1
		c-0.2,0-0.5,0.1-0.8,0.2c-0.1-1.2-0.3-2.2-0.4-3.2c-0.1-0.5-0.3-1.3-0.5-2.4c-0.5,0.1-1,0.2-1.5,0.4c0-0.2,0-0.3-0.1-0.5
		c0-0.1-0.1-0.2-0.1-0.4c0.9-0.1,1.6-0.2,2.2-0.3c0.5-0.1,1.3-0.2,2.2-0.4c0,0.2,0,0.3,0,0.4c0,0.1,0.1,0.3,0.1,0.5
		C56.7,89.1,56.2,89.2,55.7,89.2L55.7,89.2z"/>
</g>
<g id="path4367">
	<path class="st28" d="M61.1,87.7c0.1,0.5,0.3,0.9,0.4,1.3c0,0.1,0.1,0.3,0.1,0.4c0.5,1.3,0.9,2.5,1.4,3.7c-0.4,0.1-0.6,0.2-0.8,0.2
		c-0.2,0.1-0.4,0.2-0.7,0.3c-0.3-1.1-0.6-2.1-0.9-3.1c-0.2-0.5-0.5-1.3-0.8-2.3c-0.5,0.2-0.9,0.4-1.4,0.6c0-0.2-0.1-0.3-0.1-0.5
		c0-0.1-0.1-0.2-0.2-0.4c0.9-0.3,1.6-0.5,2.1-0.7c0.5-0.2,1.2-0.5,2.1-0.8c0,0.2,0.1,0.3,0.1,0.4c0,0.1,0.1,0.3,0.2,0.5
		C62,87.4,61.6,87.5,61.1,87.7L61.1,87.7z"/>
</g>
<g id="path4369">
	<path class="st28" d="M65.2,89c-0.1-0.2-0.2-0.4-0.3-0.6c-0.1-0.1-0.1-0.2-0.2-0.3c-0.5-0.8-0.9-1.6-1.5-2.4
		c0.7-0.4,1.2-0.6,1.5-0.7c0.4-0.2,0.9-0.5,1.5-0.9c0.1,0.2,0.1,0.3,0.2,0.4c0.1,0.1,0.1,0.2,0.2,0.3c-0.4,0.2-0.8,0.4-1.2,0.6
		c-0.2,0.1-0.3,0.2-0.5,0.3c0.2,0.4,0.4,0.8,0.6,1.2l0.2,0.4c0.4-0.2,0.9-0.6,1.6-1c0.1,0.2,0.1,0.3,0.2,0.4c0,0.1,0.1,0.2,0.2,0.4
		c-0.6,0.3-1.1,0.5-1.6,0.8l0.5,0.9c0.2,0.4,0.4,0.8,0.6,1.1c0.5-0.3,1-0.6,1.5-1c0.1,0.2,0.1,0.3,0.2,0.4c0,0.1,0.1,0.2,0.2,0.4
		c-0.9,0.4-1.5,0.8-1.9,1c-0.3,0.2-0.7,0.4-1.1,0.7C66,90.5,65.6,89.8,65.2,89L65.2,89z"/>
</g>
<g id="path4371">
	<path class="st28" d="M71.3,88.2c0.2-0.2,0.4-0.4,0.6-0.5c0.1-0.1,0.4-0.3,0.6-0.4c-0.4-0.4-0.8-0.9-1.2-1.4l-0.8-1
		c1.5,0.6,2.5,1.1,3.1,1.4c0.2-0.2,0.4-0.4,0.6-0.5c0.2-0.1,0.4-0.3,0.7-0.5c-1-0.3-2.1-0.8-3.4-1.4c0.6-0.6,0.6-1.3,0.1-2.1
		c-0.7-0.9-1.5-0.9-2.5-0.2c-0.5,0.4-0.9,0.8-1.3,1.1c-0.2,0.1-0.3,0.2-0.5,0.4c0.8,0.9,1.5,1.7,2.1,2.5c0.1,0.1,0.1,0.2,0.2,0.3
		C70.1,86.5,70.6,87.3,71.3,88.2L71.3,88.2z M70.2,84.6l-0.8-1c-0.2-0.2-0.4-0.5-0.6-0.9c0.1-0.1,0.2-0.1,0.2-0.1
		c0.6-0.5,1.1-0.4,1.6,0.2C71.1,83.5,71,84,70.2,84.6C70.2,84.6,70.2,84.6,70.2,84.6L70.2,84.6L70.2,84.6z"/>
</g>
<g id="path4373">
	<path class="st28" d="M75,82.6l0.1-0.1c0.7,0.4,1.3,0.4,1.7-0.1c0.4-0.5,0.4-1,0-1.4c-0.4-0.4-0.8-0.2-1.6,0.1
		c-1.1,0.4-1.7,0.6-2.5-0.1c-0.9-0.8-1-1.9-0.1-2.9c0.4-0.4,0.8-0.7,1.3-0.9c0.2,0.4,0.5,0.7,0.7,1.1l-0.1,0.1
		c-0.7-0.3-1.1-0.2-1.5,0.2c-0.4,0.4-0.3,0.9,0,1.3c0.4,0.4,0.8,0.1,1.7-0.2c1-0.4,1.6-0.6,2.5,0.2c1,0.9,1,2.1,0,3.2
		c-0.4,0.4-0.8,0.7-1.2,0.9C75.6,83.3,75.3,82.9,75,82.6L75,82.6z"/>
</g>
<g id="path4375">
	<path class="st110" d="M31.3,13c-0.4-0.3-1.3-0.7-2.4-1.4c-0.9-0.5-1.5-0.9-1.5-1.5c0-0.6,0.6-1.2,1.6-1.2c1,0,2.1,0.7,2.9,1.7
		l0-2.8c-0.7-0.2-1.4-0.3-2.2-0.4c-3-0.1-4.9,1.2-5,3.2c0,1.3,0.8,2.1,2.4,3c1.4,0.8,2.6,1.2,2.7,2.2h0c0,0.7-0.7,1.4-1.8,1.3
		c-1.1,0-2.2-0.8-3-1.9l0,3.1c0.7,0.2,1.7,0.4,2.4,0.4c3.2,0.1,5.1-1.3,5.2-3.6C32.6,14.3,32.2,13.6,31.3,13L31.3,13z"/>
</g>
<g id="path4377">
	<path class="st28" d="M26.8,78.9c-0.4,0.3-0.7,0.7-1,0.9c-0.1,0.1-0.2,0.2-0.3,0.3c-1,1-1.9,1.9-2.7,2.8c-0.2-0.3-0.4-0.5-0.5-0.6
		c-0.1-0.2-0.3-0.3-0.6-0.5c0.9-0.7,1.7-1.5,2.4-2.2c0.4-0.4,0.9-1,1.7-1.7c-0.4-0.4-0.7-0.7-1.1-1c0.1-0.1,0.3-0.2,0.4-0.3
		c0.1-0.1,0.1-0.2,0.3-0.3c0.6,0.7,1.1,1.2,1.5,1.7c0.4,0.4,0.9,0.9,1.6,1.6c-0.2,0.1-0.3,0.2-0.3,0.3c-0.1,0.1-0.2,0.2-0.3,0.4
		C27.5,79.7,27.1,79.3,26.8,78.9L26.8,78.9z"/>
</g>
<g id="path4379">
	<path class="st28" d="M27.1,83.3c0.1-0.1,0.2-0.2,0.2-0.3c0.6-0.7,1.3-1.6,2-2.5c0.2,0.2,0.4,0.4,0.6,0.5c0.2,0.1,0.4,0.3,0.7,0.5
		c-0.4,0.4-0.7,0.7-1,1.1l-0.7,0.8c0.4,0.4,0.7,0.6,0.8,0.7c0.3,0.2,0.6,0.5,0.9,0.7l0.7-0.8c0.3-0.4,0.6-0.8,0.9-1.2
		c0.3,0.3,0.4,0.4,0.6,0.6c0.1,0.1,0.3,0.2,0.6,0.4c-0.8,0.9-1.5,1.7-2.1,2.4c-0.1,0.1-0.1,0.2-0.2,0.3c-0.5,0.6-1.1,1.3-1.7,2.3
		c-0.2-0.2-0.4-0.4-0.6-0.5c-0.2-0.1-0.4-0.3-0.6-0.5c0.3-0.3,0.6-0.7,0.9-1l1.1-1.3c-0.3-0.3-0.7-0.6-0.9-0.8
		c-0.2-0.1-0.5-0.4-0.9-0.7l-1.1,1.3c-0.3,0.4-0.6,0.7-0.8,1.1c-0.2-0.2-0.4-0.4-0.6-0.5c-0.2-0.1-0.4-0.3-0.6-0.5
		C26,84.6,26.6,83.9,27.1,83.3L27.1,83.3z"/>
</g>
<g id="path4381">
	<path class="st28" d="M32.9,88.1c0.1-0.2,0.2-0.4,0.3-0.6c0.1-0.1,0.1-0.2,0.2-0.3c0.4-0.8,0.9-1.7,1.2-2.5
		c0.7,0.4,1.2,0.7,1.4,0.8c0.4,0.2,0.9,0.5,1.6,0.8c-0.1,0.1-0.2,0.3-0.2,0.4c0,0.1-0.1,0.2-0.2,0.4c-0.4-0.3-0.8-0.5-1.1-0.7
		c-0.2-0.1-0.3-0.2-0.5-0.2c-0.2,0.4-0.5,0.8-0.7,1.2l-0.2,0.4c0.4,0.2,1,0.5,1.6,0.8c-0.1,0.2-0.2,0.3-0.2,0.4
		c0,0.1-0.1,0.2-0.2,0.4c-0.5-0.3-1.1-0.7-1.6-0.9l-0.5,0.9c-0.2,0.4-0.4,0.8-0.6,1.1c0.5,0.3,1,0.5,1.6,0.8
		c-0.1,0.2-0.2,0.3-0.2,0.4c0,0.1-0.1,0.2-0.2,0.4c-0.8-0.5-1.4-0.8-1.8-1c-0.3-0.2-0.7-0.3-1.1-0.6C32.1,89.6,32.5,88.8,32.9,88.1
		L32.9,88.1z"/>
</g>
</svg>
