<?xml version="1.0" encoding="utf-8"?>
<!-- Generator: Adobe Illustrator 19.2.1, SVG Export Plug-In . SVG Version: 6.00 Build 0)  -->
<svg version="1.1" id="Capa_1" xmlns="http://www.w3.org/2000/svg" xmlns:xlink="http://www.w3.org/1999/xlink" x="0px" y="0px"
	 viewBox="0 0 100 100" style="enable-background:new 0 0 100 100;" xml:space="preserve">
<style type="text/css">
	.st0{fill:url(#path34_4_);}
	.st1{fill:url(#path890_1_);}
	.st2{fill:#FFE500;stroke:#000000;stroke-width:2.098;stroke-miterlimit:3.863;}
	.st3{fill:#DA020E;}
	.st4{fill:#FFE500;}
	.st5{clip-path:url(#SVGID_2_);}
	.st6{fill:none;stroke:#B54005;stroke-width:10;stroke-miterlimit:3.863;}
	.st7{fill:url(#path7506_1_);}
	.st8{fill:url(#path8794_1_);}
	.st9{fill:url(#path15846_1_);}
	.st10{fill:url(#path16274_1_);}
	.st11{fill:url(#path39821_1_);}
	.st12{fill:url(#path39847_1_);}
	.st13{fill:url(#path39878_1_);}
	.st14{fill:url(#path39888_1_);}
	.st15{fill:url(#path41035_1_);}
	.st16{fill:url(#path9646-8_1_);}
	.st17{fill:url(#path41092_1_);}
	.st18{fill:url(#path41094_1_);}
	.st19{fill:none;stroke:#000000;stroke-width:2.098;stroke-miterlimit:3.863;}
	.st20{fill:url(#path41152_1_);}
	.st21{fill:url(#path39854_1_);}
	.st22{fill:url(#path39874_1_);}
	.st23{fill:#9C824A;stroke:#9C824A;stroke-width:0.793;stroke-miterlimit:282;}
	.st24{fill:#023474;stroke:#023474;stroke-width:0.793;stroke-miterlimit:282;}
	.st25{fill:#FFFFFF;stroke:#FFFFFF;stroke-width:0.793;stroke-miterlimit:282;}
	.st26{fill:#EF0107;stroke:#EF0107;stroke-width:0.793;stroke-miterlimit:282;}
	.st27{fill:#DB0007;stroke:#DB0007;stroke-width:0.793;stroke-miterlimit:282;}
	.st28{fill:#FFFFFF;}
	.st29{fill:#9C824A;}
	.st30{fill:#EF0107;stroke:#EF0107;stroke-width:0.3115;stroke-miterlimit:282;}
	.st31{fill:#DB0007;stroke:#DB0007;stroke-width:0.3115;stroke-miterlimit:282;}
	.st32{fill:#DB0007;}
	.st33{fill:#FFFFFF;stroke:#FFFFFF;stroke-width:0.3115;stroke-miterlimit:282;}
	.st34{fill:#FFFFFF;stroke:#FFFFFF;stroke-width:0.554;stroke-miterlimit:3.864;}
	.st35{fill:#231F20;}
	.st36{fill:#00B6F1;stroke:#00B6F1;stroke-width:1.700000e-02;stroke-miterlimit:3.864;}
	.st37{fill:#EF3E2E;}
	.st38{fill:#BBBDBF;}
	.st39{fill:#F0B83D;}
	.st40{fill:#00B6F1;stroke:#FFFFFF;stroke-width:1.700000e-02;stroke-miterlimit:3.864;}
	.st41{fill:#001C58;}
	.st42{fill:#94BEE5;}
	.st43{fill:none;stroke:#7A003C;stroke-width:2.2437;stroke-miterlimit:6;}
	.st44{fill:#7A003C;}
	.st45{fill:#FFE600;}
	.st46{fill:#DBA111;}
	.st47{fill:#034694;}
	.st48{fill:#D1D3D4;}
	.st49{fill:#ED1C24;}
	.st50{fill:#6A7AB5;}
	.st51{fill:none;}
	.st52{fill:#274488;}
	.st53{fill:#004798;stroke:#004798;stroke-width:9.375000e-02;}
	.st54{fill:#FFFFFF;stroke:#FFFFFF;stroke-width:9.375000e-02;}
	.st55{fill:#FABC00;stroke:#FABC00;stroke-width:9.375000e-02;}
	.st56{fill:none;stroke:#FFFFFF;stroke-width:7.865;stroke-miterlimit:3.864;}
	.st57{fill:none;stroke:#FFFFFF;stroke-width:7.865;stroke-miterlimit:12;}
	.st58{fill:none;stroke:#FFFFFF;stroke-width:7.865;stroke-miterlimit:22;}
	.st59{fill:none;stroke:#FFFFFF;stroke-width:7.865;stroke-miterlimit:6;}
	.st60{fill:#00A398;}
	.st61{fill:#D00027;}
	.st62{fill:none;stroke:#FFFFFF;stroke-width:17.3907;stroke-miterlimit:3.864;}
	.st63{fill:none;stroke:#FFFFFF;stroke-width:13.1107;stroke-miterlimit:3.864;}
	.st64{fill:#FEF667;}
	.st65{fill:#D00027;stroke:#D00027;}
	.st66{fill:#5299C6;}
	.st67{fill:#60223B;}
	.st68{fill:#F7C240;}
	.st69{fill:#292D6B;}
	.st70{fill:#1B458F;}
	.st71{fill:#C4122E;}
	.st72{fill:#27409B;}
	.st73{clip-path:url(#SVGID_4_);}
	.st74{fill:#F4F4F4;}
	.st75{fill:#D3D2D2;}
	.st76{fill:#A7A5A6;}
	.st77{fill:#091453;}
	.st78{fill:none;stroke:#FFFFFF;stroke-width:6.6301;}
	.st79{clip-path:url(#SVGID_6_);}
	.st80{fill:#724314;}
	.st81{fill:#240B08;}
	.st82{fill:#018B4B;}
	.st83{fill:#A6181D;}
	.st84{fill:#592D09;}
	.st85{fill:#FFCE65;}
	.st86{fill:#5CBFEB;}
	.st87{fill:none;stroke:#000000;stroke-width:10;}
	.st88{fill:none;stroke:#000000;}
	.st89{fill:#B2B2B2;}
	.st90{fill:none;stroke:#000000;stroke-width:0.3;}
	.st91{fill:#00A650;stroke:#000000;stroke-width:2;}
	.st92{fill:#241F20;stroke:#241F20;stroke-width:9.375000e-02;}
	.st93{fill:#FFF200;stroke:#FFF200;stroke-width:9.375000e-02;}
	.st94{fill:#A68A26;}
	.st95{fill:none;stroke:#A68A26;stroke-width:4.792100e-02;stroke-miterlimit:3.8637;}
	.st96{fill:#211E1E;}
	.st97{fill:none;stroke:#211E1E;stroke-width:4.792100e-02;stroke-miterlimit:3.8637;}
	.st98{fill:#EB172B;}
	.st99{fill:none;stroke:#EB172B;stroke-width:4.792100e-02;stroke-miterlimit:3.8637;}
	.st100{fill:#A68A26;stroke:#A68A26;stroke-width:4.792100e-02;stroke-miterlimit:3.8637;}
	.st101{fill:#D1BF7F;}
	.st102{fill:none;stroke:#D1BF7F;stroke-width:4.792100e-02;stroke-miterlimit:3.8637;}
	.st103{fill:none;stroke:#FFFFFF;stroke-width:4.792100e-02;stroke-miterlimit:3.8637;}
	.st104{fill:#EB172B;stroke:#EB172B;stroke-width:4.792100e-02;stroke-miterlimit:3.8637;}
	.st105{fill:#ED2127;}
	.st106{fill:#FBEE23;}
	.st107{stroke:#000000;}
	.st108{fill:#CF1F44;}
	.st109{fill:#1B449C;}
	.st110{fill:#E03A3E;}
	.st111{fill:#E03A3E;stroke:#E03A3E;stroke-width:0.6565;}
	.st112{fill:none;stroke:#1B449C;stroke-width:0.7493;}
	.st113{fill:none;stroke:#1B449C;stroke-width:0.7567;}
	.st114{fill:#1B449C;stroke:#1B449C;stroke-width:0.6274;}
	.st115{fill:#1B449C;stroke:#1B449C;stroke-width:0.6755;}
	.st116{fill:#2E6ABD;stroke:#2E6ABD;stroke-width:0.617;}
	.st117{fill:#FFFFFF;stroke:#FFFFFF;stroke-width:0.6175;}
	.st118{fill:#ED1248;}
	.st119{fill:#2E6ABD;}
	.st120{fill:#FDE100;}
	.st121{fill:#CC0000;}
	.st122{fill:#211E1F;}
	.st123{fill:#ED1A3B;}
	.st124{fill:#00AEEF;}
	.st125{fill:#FFC40D;}
	.st126{fill:#22B24C;}
	.st127{fill:#FFC20E;}
	.st128{fill:#0A3F86;}
	.st129{fill:#005CA9;}
	.st130{fill:#FFE000;}
	.st131{fill:#E2001A;}
	.st132{opacity:0;}
	.st133{opacity:0;fill:#FFFFFF;}
	.st134{fill:#FFFFFF;stroke:#000000;}
	.st135{fill:#0060A9;}
	.st136{fill:#E32219;}
	.st137{fill:#FFED00;}
	.st138{fill:#1D9053;}
	.st139{fill:#52A600;}
	.st140{fill:#EE2523;}
	.st141{fill:#F7D117;}
	.st142{fill:#171796;}
	.st143{fill:#009959;}
	.st144{fill:#D42E12;}
	.st145{fill:#703824;}
	.st146{fill:#E5254E;}
	.st147{fill:#8AC3EE;}
	.st148{fill:#B19221;}
	.st149{fill:#F5C03E;}
	.st150{fill:#FF1119;}
	.st151{fill:#1E6BC0;}
	.st152{fill:#B4742A;}
	.st153{fill:#371B02;}
	.st154{fill:url(#SVGID_7_);}
	.st155{fill:url(#SVGID_8_);}
	.st156{fill:url(#SVGID_9_);}
	.st157{fill:url(#SVGID_10_);}
	.st158{fill:url(#SVGID_11_);}
	.st159{fill:url(#SVGID_12_);}
	.st160{fill:url(#SVGID_13_);}
	.st161{fill:url(#SVGID_14_);}
	.st162{fill:url(#SVGID_15_);}
	.st163{fill:url(#SVGID_16_);}
	.st164{fill:#EB2626;}
	.st165{fill:#E9C32C;}
	.st166{fill:#D9D9D9;}
	.st167{fill:#009C5E;}
	.st168{fill:#1C75BC;}
	.st169{fill:#611D5C;}
	.st170{fill:#E2B900;}
	.st171{fill:#004B95;}
	.st172{fill:#A4234B;}
	.st173{fill:#DB2F36;}
	.st174{fill:#FFDF00;}
	.st175{fill:#A38D44;}
	.st176{fill:#57175E;}
	.st177{fill:#AFDCFD;}
	.st178{fill:#0090C6;}
	.st179{fill:#DB5232;}
	.st180{fill:#23C1E0;}
	.st181{fill:#F1A92A;}
	.st182{fill:#167FB6;}
	.st183{fill:#FED75D;}
	.st184{fill:#378CBF;}
	.st185{fill:#3E9692;}
	.st186{fill:#E67F29;}
	.st187{fill:#D8B43C;}
	.st188{fill:#EF3B33;}
	.st189{fill:#24923D;}
	.st190{opacity:6.000001e-02;fill:#101010;enable-background:new    ;}
	.st191{fill:#00529F;}
	.st192{fill:#EE324E;}
	.st193{fill:#FEBE10;}
	.st194{fill:#143C8B;}
	.st195{fill:#FFE24A;}
	.st196{fill:#EC1D24;}
	.st197{fill:#E6A514;}
	.st198{fill:#FFDF1C;}
	.st199{fill:#EE3524;}
	.st200{fill:#B23428;}
	.st201{fill:#D18816;}
	.st202{fill:#0097D7;}
	.st203{fill:#ED1C23;}
	.st204{fill:#E30613;}
	.st205{fill:#FFE400;}
	.st206{fill:#C51A1B;}
	.st207{clip-path:url(#SVGID_19_);}
	.st208{clip-path:url(#SVGID_20_);fill:none;stroke:#000000;stroke-width:0.8131;stroke-miterlimit:3.864;}
	.st209{fill:#0093D5;}
	.st210{fill:#004B9D;}
	.st211{fill:#FCC24F;}
	.st212{fill:#009545;}
	.st213{fill:#0072BB;}
	.st214{fill:#C4974E;}
	.st215{fill:url(#path1292_1_);}
	.st216{fill:#004996;}
	.st217{fill:#FFE667;}
	.st218{fill:none;stroke:#005187;stroke-width:0.153;stroke-miterlimit:3.864;}
	.st219{fill:#005187;}
	.st220{clip-path:url(#SVGID_22_);}
	.st221{clip-path:url(#SVGID_24_);fill:none;stroke:#000000;stroke-width:0.296;stroke-miterlimit:3.864;}
	.st222{clip-path:url(#SVGID_26_);fill:#FFE667;}
	.st223{clip-path:url(#SVGID_28_);fill:none;stroke:#000000;stroke-width:8.300000e-02;stroke-miterlimit:3.864;}
	.st224{fill:none;stroke:#000000;stroke-width:0.153;stroke-miterlimit:3.864;}
	.st225{clip-path:url(#SVGID_30_);fill:#E70005;}
	.st226{clip-path:url(#SVGID_32_);fill:none;stroke:#E70005;stroke-width:0.296;stroke-miterlimit:3.864;}
	.st227{clip-path:url(#SVGID_34_);fill:#E70005;}
	.st228{clip-path:url(#SVGID_36_);fill:none;stroke:#E70005;stroke-width:0.296;stroke-miterlimit:3.864;}
	.st229{clip-path:url(#SVGID_38_);fill:#E70005;}
	.st230{clip-path:url(#SVGID_40_);fill:none;stroke:#E70005;stroke-width:0.296;stroke-miterlimit:3.864;}
	.st231{clip-path:url(#SVGID_42_);fill:#E70005;}
	.st232{clip-path:url(#SVGID_44_);fill:none;stroke:#E70005;stroke-width:0.296;stroke-miterlimit:3.864;}
	.st233{fill:#E70005;}
	.st234{fill:none;stroke:#000000;stroke-width:0.141;stroke-miterlimit:3.864;}
	.st235{fill:#00276D;}
	.st236{fill:#C49308;}
	.st237{fill:#179D33;}
	.st238{fill:#999999;}
	.st239{fill:#FF0000;}
	.st240{fill:#E31837;}
	.st241{fill:#06357A;}
	.st242{fill:#B4053F;}
	.st243{fill:#DCA43E;}
	.st244{fill:#005CA5;}
	.st245{fill:#FAC400;}
	.st246{fill:#004083;}
	.st247{fill:#A95932;}
	.st248{fill:none;stroke:#000000;stroke-width:1.2215;}
	.st249{fill:#E62627;}
	.st250{fill:#00458C;}
	.st251{fill:#E11B22;}
	.st252{fill:#00AB4E;}
	.st253{fill:#F47920;}
	.st254{fill:#C7C8CA;}
	.st255{fill:#E11515;}
	.st256{fill:#A4965F;}
	.st257{fill:#E51636;}
	.st258{fill:#EACC00;}
	.st259{fill:#4F846B;}
	.st260{fill:#E22227;}
	.st261{fill:#FAE700;}
	.st262{fill:url(#SVGID_45_);}
	.st263{fill:#666666;}
	.st264{fill:#FFF200;}
	.st265{fill:#00275D;}
	.st266{fill:#EF3E33;}
	.st267{fill:none;stroke:#00275D;stroke-width:2.632;}
	.st268{fill:#3F7652;}
	.st269{fill:#F1D261;}
	.st270{fill:#004D8F;}
	.st271{fill:#E7B137;stroke:#E7B137;stroke-miterlimit:10;}
	.st272{fill:#E7B137;}
	.st273{fill:#162577;}
	.st274{fill:#12692C;}
	.st275{fill:#D8141D;}
	.st276{fill:#AB830D;}
	.st277{fill:#0086CB;}
	.st278{fill:#001F42;}
	.st279{fill:#9A8F4A;}
	.st280{fill:#00559D;}
	.st281{fill:#FDDE00;}
	.st282{fill:#00924C;}
	.st283{fill:#233984;}
	.st284{fill:#FFD42E;}
	.st285{fill:#BA3733;}
	.st286{fill:#46714D;}
	.st287{fill:#221F1F;}
	.st288{fill:#00559E;}
	.st289{fill:#005C46;}
	.st290{fill:#FBC860;}
	.st291{fill:#D57C48;}
	.st292{fill:#040403;}
	.st293{fill:#4AB969;}
	.st294{fill:#8ED8F8;}
	.st295{fill:#FEC34E;}
	.st296{fill:#FFC95B;}
	.st297{fill:#00644C;}
	.st298{fill:#70B865;}
	.st299{fill:#CA6F44;}
	.st300{fill:#A8B8BE;}
	.st301{fill:#1C2C80;}
	.st302{fill:#E10321;}
	.st303{fill:none;stroke:#231F20;stroke-width:0.318;stroke-miterlimit:3.864;}
	.st304{fill:#D71920;}
	.st305{fill:#484749;}
	.st306{fill:#D9DBDC;}
	.st307{fill:#DF725A;}
	.st308{fill:#F2CABA;}
	.st309{fill:#E89C84;}
	.st310{fill:#264F99;}
	.st311{clip-path:url(#SVGID_47_);}
	.st312{fill:#161413;}
	.st313{fill:#ED1B26;}
	.st314{fill:#E60D2E;}
	.st315{fill:#FCD600;}
	.st316{fill:#004D91;}
	.st317{fill:#EAB412;}
	.st318{fill:#FDD31D;}
	.st319{fill:#EFB800;}
</style>
<g>
	<path class="st258" d="M34,22.2l-4-9.7l5.7,2.9l0.2,3.5h1.4V18l-0.4-0.3c0.3-0.2,0.6-0.5,1-0.7c0.3,0.3,0.6,0.5,0.9,0.7l-0.3,0.3
		v0.8h1.9v-1.4L39.6,17c0.6-0.2,1-0.5,1.4-0.8c0.5,0.3,1,0.6,1.5,0.9l-0.7,0.3v1.4l3.1-0.1v-0.7l-0.4-0.3c0.3-0.2,0.6-0.5,1-0.7
		c0.3,0.3,0.6,0.5,0.9,0.7L46,18.1v0.7h2.2V17l-1.8-1.5c1.3-0.5,2.4-1.3,3.4-2.2c1,0.9,2.1,1.7,3.4,2.2L51.5,17v1.8h2.3v-0.7
		l-0.4-0.3c0.3-0.2,0.7-0.5,1-0.7c0.3,0.3,0.6,0.6,1,0.7L55,18.1v0.7l3.1,0.1v-1.4l-0.7-0.3c0.6-0.2,1.1-0.6,1.5-0.9
		c0.4,0.3,0.9,0.6,1.4,0.8l-0.7,0.4v1.4h1.9V18L61,17.8c0.3-0.2,0.7-0.5,1-0.7c0.3,0.3,0.6,0.6,1,0.7L62.6,18v0.8h1.4l0.2-3.5
		l5.7-2.9l-4,9.7H34L34,22.2z"/>
	<path d="M50,24.6c-20.8,0-37.7,17-37.7,37.7C12.3,83.1,29.2,100,50,100s37.7-16.9,37.7-37.7C87.7,41.6,70.8,24.6,50,24.6L50,24.6z"
		/>
	<path class="st28" d="M50,25.7c-20.2,0-36.7,16.4-36.7,36.7S29.8,99,50,99s36.7-16.4,36.7-36.7S70.2,25.7,50,25.7L50,25.7z"/>
	<path d="M67.8,55.9L67.8,55.9v0.1l-1.1,1V62c0.1,0.1,0.2,0.2,0.3,0.3c0.1,0.1,0.2,0.2,0.2,0.3c0,0.1-0.1,0.2-0.2,0.2
		c-0.1,0.1-0.2,0.1-0.4,0.1c-0.3,0-0.7,0-1,0.1c-0.3,0.1-0.7,0.2-1,0.3c-0.2,0.1-0.3,0.1-0.5,0.2c-0.1,0.1-0.2,0.1-0.4,0.2l0,0
		c-0.2,0.1-0.3,0.2-0.5,0.3c-0.2,0.1-0.3,0.2-0.4,0.4v0.1h-0.5v-0.1c-0.5-0.5-0.8-0.7-1.1-1c-0.3-0.2-0.5-0.3-0.6-0.3
		c-0.1,0-0.1,0-0.2,0.1c-0.1,0.1-0.1,0.1-0.2,0.2c-0.1,0.1-0.1,0.1-0.2,0.2c-0.1,0.1-0.1,0.1-0.1,0.1H60v-0.1l-0.3-0.3l-0.1-0.1
		l0.1-0.1l1.1-1v-5c-0.2-0.1-0.3-0.2-0.3-0.3c-0.1-0.1-0.1-0.2-0.1-0.3c0-0.1,0-0.1,0-0.1c0-0.1,0-0.1,0.1-0.1l0.1-0.1
		c0,0,0.1,0,0.1-0.1h0.1h0.1h0.1h0.1c0.3,0,0.7-0.1,1-0.1c0.3-0.1,0.7-0.2,1.1-0.3c0.2-0.1,0.4-0.2,0.6-0.2c0.1-0.1,0.2-0.1,0.3-0.1
		c0.2-0.1,0.3-0.2,0.5-0.3c0.2-0.1,0.3-0.2,0.4-0.3h0.1h0.4l0,0c0.2,0.2,0.3,0.4,0.5,0.6c0.2,0.2,0.3,0.3,0.5,0.4
		c0.2,0.1,0.3,0.2,0.4,0.2s0.2,0.1,0.3,0.1c0.1,0,0.2-0.1,0.3-0.1c0.1-0.1,0.2-0.2,0.4-0.4l0.1-0.1l0.1,0.1L67.8,55.9L67.8,55.9z"/>
	<path class="st28" d="M65.1,62.4v-5l-1.4-0.9l-0.3-0.2l-1,0.4v5l1.4,1l0,0l0.2,0.2c0.2-0.1,0.4-0.2,0.6-0.3
		C64.8,62.5,64.9,62.5,65.1,62.4L65.1,62.4z"/>
	<path d="M54.4,62.7l0.3-0.3l0.1-0.1l0.1,0.1l0.2,0.4l0.1,0.1L55,62.9l-1.6,1.5h-0.1H53l0,0c-0.3-0.3-0.6-0.6-0.7-1
		c-0.2-0.3-0.2-0.6-0.2-1v-5.2l-0.7-0.9l-2,2v3.5l0.7,0.6l0.4-0.3l0.1-0.1l0.1,0.1l0.3,0.2l0.1,0.1l-0.1,0.1L49,64.3H49h-0.3v-0.1
		c-0.3-0.3-0.5-0.6-0.7-0.8c-0.2-0.2-0.3-0.2-0.5-0.2c-0.2,0-0.3,0.1-0.4,0.2c-0.1,0.1-0.2,0.3-0.3,0.5l-0.1,0.1l-0.1-0.1l-0.3-0.3
		l-0.1-0.1l0.1-0.1l1.4-1.4v-4.8l-0.7-0.9l-0.4,0.4l-0.1,0.1l-0.1-0.1l-0.3-0.3l-0.1-0.1l0.1-0.1l1.7-1.7H48h0.4l0,0
		c0.2,0.3,0.4,0.6,0.6,0.8c0.1,0.2,0.2,0.3,0.2,0.4c0.1,0.1,0.1,0.2,0.1,0.3c0,0.1,0,0.1,0.1,0.1l0,0c0,0.1,0,0.1,0,0.2s0,0.2,0,0.4
		v0.6l3-2.8h0.1h0.3v0.1c0.2,0.4,0.5,0.7,0.7,1c0.2,0.2,0.3,0.3,0.5,0.3c0.1,0,0.1,0,0.1,0c0.1,0,0.1-0.1,0.1-0.1l0,0
		c0.1-0.1,0.1-0.1,0.1-0.1c0.1-0.1,0.1-0.1,0.1-0.1c0.1-0.1,0.1-0.1,0.2-0.2c0.1-0.1,0.1-0.1,0.2-0.2l0.1-0.1l0.1,0.1l0.2,0.3
		l0.1,0.1L55,55.7L53.6,57v3.8c0,0.5,0.1,0.8,0.2,1.1C53.9,62.4,54.1,62.6,54.4,62.7L54.4,62.7z"/>
	<path d="M59.2,62.5L60,62l0.1-0.1l0.1,0.1l0.2,0.3l0.1,0.1l-0.1,0.1l-2.2,1.9h-0.1h-0.2h-0.1c-0.4-0.4-0.7-0.7-1-0.9
		c-0.3-0.2-0.5-0.2-0.6-0.2c-0.1,0-0.2,0-0.4,0.1c-0.1,0.1-0.3,0.1-0.4,0.2l-0.1,0.1l-0.1-0.1l-0.2-0.2L55,63.2l0.1-0.1l1.5-1.2
		v-5.7H56c-0.2,0-0.3,0.1-0.4,0.1c-0.1,0.1-0.2,0.2-0.2,0.3l-0.1,0.1l-0.1-0.1l-0.2-0.1H55v-0.1l0.6-1.6v-0.1h1v-3.3h0.1l1.6-1.2
		l0.1-0.1v4.6h0.8c0.2,0,0.3-0.1,0.5-0.1c0.1-0.1,0.3-0.2,0.4-0.4l0.1-0.1l0.1,0.1l0.2,0.2l0.1,0.1v0.1l-0.6,1.6v0.1h-1.3v5.7
		L59.2,62.5L59.2,62.5z"/>
	<path d="M45.8,62.7l0.4-0.3l0.1-0.1l0.1,0.1l0.2,0.3l0.1,0.1l-0.1,0.1l-1.8,1.6h-0.1h-0.2v-0.1c-0.2-0.2-0.3-0.3-0.4-0.5
		c-0.1-0.1-0.2-0.1-0.2-0.2c-0.1-0.1-0.2-0.2-0.2-0.3c-0.1-0.1-0.1-0.2-0.1-0.3c-0.1-0.1-0.1-0.2-0.1-0.4c0-0.1,0-0.3,0-0.5L42,63.3
		l0,0l-1.3,0.9h-0.1h-0.3c-0.1,0-0.1-0.1-0.2-0.1c-0.1-0.1-0.2-0.1-0.3-0.2l0,0c-0.1-0.1-0.2-0.2-0.3-0.3c-0.1-0.1-0.2-0.3-0.3-0.5
		c-0.1-0.2-0.2-0.3-0.3-0.5c-0.1-0.2-0.1-0.4-0.1-0.6c0-0.3,0.1-0.6,0.2-0.9c0.1-0.3,0.3-0.6,0.5-0.9c0.2-0.3,0.6-0.6,0.9-0.9
		c0.3-0.2,0.7-0.5,1.1-0.7l-1.3-1.7c-0.2-0.2-0.4-0.5-0.5-0.7c-0.1-0.2-0.2-0.5-0.2-0.6c0-0.2,0.1-0.3,0.1-0.4
		c0.1-0.1,0.1-0.2,0.2-0.3c0.1-0.1,0.2-0.2,0.3-0.2s0.2-0.1,0.3-0.1s0.2,0,0.3,0.1c0.1,0.1,0.2,0.1,0.3,0.2c0.1,0.1,0.2,0.2,0.2,0.3
		c0.1,0.1,0.1,0.3,0.1,0.5c0,0.1,0,0.3-0.1,0.4c-0.1,0.1-0.1,0.2-0.2,0.4c0.1,0,0.2-0.1,0.3-0.1c0.2-0.1,0.3-0.1,0.5-0.2h0.1
		c0,0,0,0,0.1,0l0,0l0,0c0.2-0.1,0.3-0.2,0.5-0.3c0.2-0.1,0.3-0.2,0.5-0.3c0.2-0.1,0.3-0.3,0.5-0.4c0.1-0.2,0.2-0.3,0.3-0.5l0,0H44
		v0.1c0.1,0.2,0.2,0.3,0.2,0.5c0.1,0.2,0.2,0.3,0.3,0.4c0.1,0.1,0.2,0.2,0.3,0.3c0.1,0.1,0.2,0.1,0.3,0.1c0.1,0,0.1,0,0.1,0
		s0.1-0.1,0.1-0.1c0,0,0,0,0.1-0.1s0.2-0.1,0.3-0.2c0.1-0.1,0.1-0.1,0.2-0.1c0.1-0.1,0.1-0.1,0.1-0.1l0.1-0.1l0.2,0.3v0.1L46.3,56
		l-1.4,1.3v4.6L45.8,62.7L45.8,62.7z"/>
	<path class="st28" d="M43.5,61.5v-4.1l-0.8-0.9c-0.1,0.1-0.2,0.2-0.3,0.2c-0.1,0.1-0.2,0.1-0.3,0.2l0,0c-0.1,0-0.2,0.1-0.2,0.1
		h-0.1l0,0c-0.1,0.1-0.3,0.1-0.5,0.1c-0.1,0.1-0.3,0.1-0.4,0.1l1.1,1.5l0.7,0.9l0.1,0.1l-0.1,0.1L42.5,60l-0.1,0.1L42.4,60l-0.5-0.6
		l-0.1-0.2c-0.2,0.1-0.5,0.3-0.6,0.4c-0.2,0.2-0.3,0.3-0.5,0.5c-0.1,0.1-0.2,0.3-0.2,0.5c-0.1,0.2-0.1,0.3-0.1,0.6
		c0,0.2,0.1,0.4,0.1,0.6c0.1,0.2,0.2,0.3,0.3,0.5c0.1,0.2,0.3,0.3,0.5,0.4c0.2,0.1,0.3,0.2,0.6,0.3l0.2-0.1L43.5,61.5L43.5,61.5z"/>
	<path d="M74.8,58.7c0,0.1-0.1,0.2-0.1,0.3s-0.2,0.1-0.3,0.2v2.6c0.1,0,0.1,0.1,0.1,0.1c0.1,0.1,0.1,0.1,0.1,0.2
		c0.1,0.1,0.1,0.1,0.1,0.2c0,0.1,0.1,0.1,0.1,0.2c0,0.1-0.1,0.1-0.1,0.2l0,0c-0.1,0.1-0.2,0.1-0.3,0.1c-0.6,0.1-1.1,0.2-1.5,0.5
		c-0.5,0.2-0.9,0.6-1.1,1v0.1h-0.4l-0.1-0.1c-0.1-0.1-0.1-0.1-0.1-0.1c-0.1,0-0.1-0.1-0.1-0.1c-0.1,0-0.1-0.1-0.1-0.1
		c-0.1-0.1-0.2-0.2-0.4-0.2c-0.2-0.1-0.3-0.2-0.5-0.2c-0.2-0.1-0.3-0.1-0.5-0.1c-0.1,0-0.2,0-0.3,0.1c-0.1,0.1-0.2,0.1-0.3,0.2
		c-0.1,0.1-0.2,0.1-0.3,0.2c-0.1,0.1-0.2,0.2-0.4,0.3l-0.1,0.1l-0.1-0.1L68,63.9L68,63.9l0.1-0.1l2.6-3.6h-2.2c-0.1,0-0.2,0-0.2-0.1
		c-0.1-0.1-0.1-0.2-0.1-0.2c0-0.1,0-0.1,0.1-0.2c0.1-0.1,0.1-0.1,0.1-0.2l0,0c0.1-0.1,0.1-0.1,0.2-0.1c0.1-0.1,0.1-0.1,0.2-0.1V57
		c-0.1,0-0.1-0.1-0.1-0.1c-0.1-0.1-0.1-0.1-0.1-0.1c-0.1-0.1-0.1-0.1-0.1-0.1c-0.1-0.1-0.1-0.1-0.1-0.1l0,0c0-0.1-0.1-0.1-0.1-0.1
		c0-0.1,0-0.1,0-0.1s0.1-0.2,0.2-0.2s0.2-0.1,0.4-0.1c0.2-0.1,0.5-0.1,0.7-0.1c0.2-0.1,0.5-0.1,0.6-0.2c0.2-0.1,0.3-0.2,0.6-0.3
		c0.2-0.1,0.4-0.3,0.6-0.5l0.1-0.1c0.1-0.1,0.1-0.1,0.1-0.1h0.1h0.3h0.1c0.3,0.2,0.6,0.4,0.8,0.5s0.5,0.2,0.6,0.2s0.4-0.1,0.6-0.2
		c0.2-0.1,0.5-0.3,0.7-0.5l0.1-0.1l0.1,0.1l0.2,0.2l0.1,0.1l-0.1,0.1l-2.4,3.5h2.2c0.2,0,0.3,0,0.3,0.1
		C74.8,58.5,74.8,58.6,74.8,58.7L74.8,58.7L74.8,58.7z"/>
	<path class="st28" d="M72.9,62.5v-2.9h-1.5L71.1,60l0,0l-1.8,2.6c0.3-0.2,0.6-0.4,0.8-0.5c0.3-0.2,0.6-0.2,0.9-0.2h0.1
		c0.1,0,0.3,0,0.4,0.1s0.3,0.1,0.5,0.1l0,0c0.2,0.1,0.3,0.2,0.4,0.2c0.1,0.1,0.2,0.2,0.3,0.3L72.9,62.5L72.9,62.5z"/>
	<path class="st28" d="M70,58.7h1.4l1.9-2.7l0,0c-0.3,0.3-0.6,0.5-0.9,0.6c-0.3,0.1-0.6,0.2-1,0.2c-0.1,0-0.2,0-0.2,0
		c-0.1,0-0.1,0-0.2-0.1c-0.1,0-0.1,0-0.1,0s-0.1-0.1-0.1-0.1l0,0c-0.1-0.1-0.2-0.1-0.3-0.2c-0.1-0.1-0.2-0.2-0.3-0.3L70,56.3
		L70,58.7L70,58.7z"/>
	<path d="M35.4,54.6c0.6,0.2,1,0.4,1.5,0.6c0.5,0.2,0.8,0.6,1,0.9l0,0c0.2,0.3,0.4,0.7,0.5,1.1c0.1,0.4,0.2,0.9,0.2,1.4
		c0,0.3-0.1,0.6-0.1,0.9S38.2,60,38,60.3c-0.2,0.3-0.3,0.6-0.6,0.8s-0.4,0.5-0.6,0.7c-0.2,0.2-0.5,0.5-0.7,0.7
		c-0.2,0.2-0.5,0.5-0.8,0.7l0,0c-0.1,0.1-0.2,0.2-0.2,0.2s-0.2,0.2-0.2,0.2c-0.2,0.1-0.3,0.2-0.4,0.3c-0.1,0.1-0.2,0.2-0.2,0.2l0,0
		h-0.6h-0.1c-0.3-0.3-0.7-0.6-1.2-0.9c-0.5-0.2-0.9-0.5-1.4-0.7c-0.2,0.4-0.5,0.7-0.7,1.1c-0.2,0.4-0.5,0.7-0.7,1
		c-0.2,0.3-0.5,0.6-0.7,0.9c-0.2,0.3-0.5,0.5-0.7,0.7c-0.1,0.1-0.2,0.2-0.3,0.3c-0.1,0.1-0.2,0.2-0.3,0.2c-0.1,0.1-0.3,0.2-0.4,0.3
		c-0.1,0.1-0.3,0.2-0.4,0.2c-0.2,0.1-0.5,0.2-0.6,0.3c-0.2,0.1-0.4,0.1-0.6,0.1c-0.5-0.1-0.9-0.2-1.1-0.5c-0.2-0.3-0.4-0.7-0.4-1.2
		s0.1-1,0.3-1.5s0.5-0.9,0.8-1.4c0.2-0.2,0.4-0.5,0.6-0.7c0.2-0.2,0.5-0.4,0.7-0.6c0.2-0.1,0.3-0.2,0.5-0.3c0.2-0.1,0.3-0.2,0.5-0.3
		c0.1-0.1,0.3-0.1,0.4-0.2c0.1-0.1,0.3-0.1,0.5-0.2c0.3-0.1,0.6-0.2,0.9-0.2c0.3-0.1,0.6-0.1,0.9-0.1c0.2,0,0.4,0,0.6,0.1
		c0.2,0,0.4,0.1,0.7,0.1l1.1-2.1c-0.7-0.2-1.3-0.3-1.7-0.5c-0.6-0.2-1.1-0.3-1.4-0.5c-0.3-0.1-0.7-0.3-1-0.5
		c-0.3-0.2-0.6-0.5-0.8-0.7l0,0c-0.1-0.1-0.1-0.1-0.2-0.2l-0.1-0.1c-0.2-0.2-0.3-0.5-0.4-0.7C27.1,55.3,27,55,27,54.7
		s0.1-0.6,0.1-0.9s0.2-0.6,0.4-0.9v-0.1l0.1,0.1l0.3,0.1h0.1v0.1c-0.1,0.1-0.1,0.2-0.1,0.3c0,0.1,0,0.2,0,0.2c0,0.2,0.1,0.5,0.1,0.6
		c0.1,0.2,0.2,0.3,0.4,0.5c0.2,0.2,0.3,0.3,0.6,0.5c0.2,0.1,0.5,0.2,0.7,0.3c0.3,0.1,0.6,0.2,0.9,0.3c0.3,0.1,0.6,0.2,0.9,0.3
		s0.6,0.2,1,0.3c0.3,0.1,0.7,0.2,1.1,0.3l0.5-0.9c-0.1-0.1-0.3-0.1-0.6-0.2c-0.1,0-0.1-0.1-0.2-0.1c-0.2-0.1-0.3-0.1-0.4-0.1
		c-0.3-0.1-0.6-0.2-0.9-0.2c-0.2-0.1-0.4-0.1-0.6-0.2c-0.2-0.1-0.3-0.1-0.5-0.2c-0.3-0.2-0.7-0.3-1-0.5c-0.3-0.2-0.6-0.4-0.8-0.7
		c-0.2-0.2-0.4-0.5-0.5-0.9c-0.1-0.3-0.2-0.7-0.2-1.1c0-0.3,0.1-0.7,0.2-1c0.1-0.3,0.2-0.6,0.5-0.9l0,0l0,0l0,0
		c0.2-0.2,0.4-0.5,0.6-0.6c0.2-0.2,0.5-0.3,0.8-0.5l0,0c0.3-0.1,0.6-0.2,0.9-0.2c0.3-0.1,0.6-0.1,0.8-0.1c0.5,0,1,0.1,1.4,0.2
		c0.5,0.1,0.9,0.3,1.3,0.6c0.2,0.1,0.3,0.2,0.4,0.3c0.1,0.1,0.2,0.2,0.3,0.3l1.1-1l0.1-0.1l0.1,0.1l0.2,0.3l0.1,0.1L37,49.6
		l-2.2,1.9l-0.7,0.6l-0.1,0.1l-0.1-0.1c-0.2-0.3-0.3-0.6-0.5-0.7c-0.2-0.2-0.3-0.5-0.5-0.6l0,0c-0.1-0.2-0.3-0.3-0.5-0.5
		c-0.2-0.1-0.3-0.2-0.5-0.3c-0.2-0.1-0.3-0.1-0.5-0.2c-0.2-0.1-0.3-0.1-0.5-0.1c-0.3,0-0.6,0.1-0.8,0.1c-0.2,0.1-0.5,0.2-0.6,0.3
		c-0.2,0.1-0.3,0.3-0.4,0.5s-0.1,0.4-0.1,0.7c0,0.2,0.1,0.5,0.2,0.7c0.1,0.2,0.3,0.4,0.6,0.6c0.2,0.1,0.3,0.2,0.5,0.3
		c0.2,0.1,0.4,0.2,0.6,0.3c0.2,0.1,0.4,0.2,0.6,0.2c0.2,0.1,0.4,0.2,0.6,0.2c0.2,0.1,0.3,0.1,0.6,0.2c0.3,0.1,0.6,0.2,0.9,0.2l0,0
		c0.2,0.1,0.4,0.1,0.6,0.2c0.2,0.1,0.3,0.1,0.4,0.1l0,0h0.1l0,0c0.2-0.3,0.4-0.6,0.6-0.9c0.2-0.3,0.4-0.5,0.6-0.7s0.3-0.5,0.5-0.6
		c0.2-0.2,0.3-0.3,0.5-0.5c0.2-0.2,0.4-0.3,0.6-0.5c0.2-0.1,0.4-0.3,0.6-0.4l0.1-0.1l0.1,0.1l0.1,0.3v0.1l-0.2,0
		c-0.2,0.2-0.4,0.3-0.6,0.5c-0.2,0.2-0.3,0.3-0.5,0.5c-0.2,0.2-0.3,0.3-0.5,0.5c-0.2,0.2-0.3,0.3-0.5,0.6l-0.1,0.1
		C36.1,53.6,35.7,54,35.4,54.6L35.4,54.6z"/>
	<path class="st28" d="M37,60.8c0.2-0.3,0.3-0.6,0.5-0.9c0.1-0.3,0.2-0.5,0.2-0.7c0-0.4-0.1-0.7-0.2-1c-0.1-0.3-0.3-0.6-0.6-0.8
		c-0.2-0.2-0.5-0.4-0.9-0.6c-0.3-0.2-0.8-0.3-1.3-0.5c-0.1-0.1-0.2-0.1-0.2-0.1s-0.1-0.1-0.2-0.1L33.9,57c0.1,0.1,0.2,0.1,0.4,0.2
		c0.2,0.1,0.3,0.1,0.5,0.2c0.1,0,0.1,0.1,0.1,0.1h0.1H35c0.2,0.1,0.3,0.1,0.5,0.2c0.2,0.1,0.3,0.2,0.5,0.2c0.1,0.1,0.2,0.2,0.3,0.3
		c0.1,0.1,0.2,0.2,0.3,0.4l0,0c0.2,0.3,0.2,0.6,0.2,1c0,0.3-0.1,0.7-0.2,1c-0.2,0.3-0.4,0.6-0.7,0.9l-0.1,0.1l-0.1-0.1l-0.2-0.2
		l-0.1-0.1l0.1-0.1c0.1-0.1,0.2-0.2,0.2-0.3c0.1-0.1,0.1-0.2,0.1-0.3c0-0.1-0.1-0.2-0.1-0.3c-0.1-0.1-0.2-0.2-0.3-0.3
		c-0.1-0.1-0.2-0.1-0.3-0.2c-0.1-0.1-0.2-0.1-0.4-0.2c-0.1-0.1-0.2-0.1-0.3-0.1c-0.1-0.1-0.2-0.1-0.3-0.1c-0.2-0.1-0.3-0.1-0.5-0.2
		c-0.2-0.1-0.4-0.2-0.6-0.2L31.9,61c0.4,0.1,0.9,0.3,1.3,0.6c0.5,0.3,1,0.6,1.5,1.1c0.1,0.1,0.1,0.1,0.1,0.1c0.1,0,0.1,0.1,0.1,0.1
		c0.5-0.4,0.9-0.7,1.1-1.1C36.5,61.5,36.7,61.2,37,60.8L37,60.8z"/>
	<path class="st28" d="M28.8,64.9c0.3-0.3,0.6-0.7,0.9-1.1c0.3-0.4,0.5-0.8,0.8-1.2c-0.1-0.1-0.2-0.1-0.3-0.1
		c-0.1-0.1-0.3-0.1-0.5-0.1c-0.7-0.1-1.4,0-2,0.3c-0.7,0.3-1.3,0.9-1.8,1.5c-0.2,0.3-0.6,0.9-0.7,1.5c-0.1,0.3-0.1,0.6-0.1,0.8
		c0,0.2,0.1,0.4,0.3,0.5c0.1,0.1,0.2,0.1,0.4,0.1c0.2,0,0.5-0.1,0.6-0.1c0.2-0.1,0.4-0.2,0.7-0.4l0,0c0.1-0.1,0.1-0.1,0.2-0.1
		c0.1-0.1,0.1-0.1,0.2-0.2c0.2-0.2,0.5-0.4,0.7-0.6C28.4,65.5,28.6,65.2,28.8,64.9L28.8,64.9z"/>
	<path class="st258" d="M50,11.2c0.7,0,1.3,0.7,1.3,1.7h2.6C53.8,11.4,53,10.6,52,10l1.1-1.3c2.4,2,4.6,4.2,6,6.5l3.5-1.7
		C62,12,60.1,10.4,58,8.9c2-0.1,4.9,1.4,8.3,4c0.7-1.8,1.6-2.3,3.8-2.6c-2.9-2.5-7.7-4-12.8-4h-5.7c-0.2-0.4-0.5-0.7-0.9-0.9v-2
		c0.1-0.1,0.1-0.1,0.2-0.2h1.5V1.7h-1.5c-0.1-0.1-0.1-0.1-0.2-0.2V0h-1.5v1.5c-0.1,0.1-0.1,0.1-0.2,0.2h-1.5v1.5H49
		c0.1,0.1,0.1,0.1,0.2,0.2v2c-0.4,0.2-0.7,0.5-0.9,0.9h-5.8c-5.1,0-9.8,1.5-12.8,4c2.2,0.3,3.1,0.8,3.8,2.6c3.4-2.5,6.3-4,8.4-4
		c-2.1,1.5-3.9,3.1-4.6,4.7l3.5,1.7c1.4-2.4,3.5-4.5,6-6.5L48,10c-1,0.7-1.7,1.5-1.8,2.9h2.6C48.7,11.9,49.3,11.2,50,11.2L50,11.2z"
		/>
	<path class="st28" d="M50,6.1c0.5,0,0.9,0.4,0.9,0.9S50.5,8,50,8s-0.9-0.4-0.9-0.9S49.5,6.1,50,6.1L50,6.1z"/>
	<path class="st28" d="M43.9,20.9c-0.2,0-0.4-0.2-0.4-0.4s0.2-0.4,0.4-0.4s0.4,0.2,0.4,0.4S44.1,20.9,43.9,20.9L43.9,20.9z"/>
	<path class="st28" d="M37.8,20.9c-0.2,0-0.4-0.2-0.4-0.4c0-0.2,0.2-0.4,0.4-0.4s0.4,0.2,0.4,0.4C38.2,20.8,38,20.9,37.8,20.9
		L37.8,20.9z"/>
	<path class="st28" d="M50,20.9c0.2,0,0.4-0.2,0.4-0.4c0-0.2-0.2-0.4-0.4-0.4c-0.2,0-0.4,0.2-0.4,0.4C49.6,20.8,49.8,20.9,50,20.9
		L50,20.9z"/>
	<path class="st28" d="M56.1,20.9c0.2,0,0.4-0.2,0.4-0.4s-0.2-0.4-0.4-0.4c-0.2,0-0.4,0.2-0.4,0.4C55.7,20.7,55.9,20.9,56.1,20.9
		L56.1,20.9z"/>
	<path class="st28" d="M62.2,20.9c0.2,0,0.4-0.2,0.4-0.4c0-0.2-0.2-0.4-0.4-0.4c-0.2,0-0.4,0.2-0.4,0.4C61.8,20.8,62,20.9,62.2,20.9
		L62.2,20.9z"/>
	<path class="st259" d="M17.2,46c-2.3,4.6-3.6,9.8-3.8,15.3l5.4,6.3l6.8-11.8l-0.1-13.3L17.2,46L17.2,46z"/>
	<path class="st259" d="M21.8,85.7c3.4,4.1,7.6,7.4,12.4,9.7l7.9-2.4l-8-10.9l-12.2-4.9V85.7L21.8,85.7z"/>
	<path class="st259" d="M63.5,96.5c5-1.9,9.3-5,13-8.7l-0.1-8.6l-12.5,4.4l-8.5,10.3L63.5,96.5L63.5,96.5z"/>
	<path class="st259" d="M86.6,60.4c-0.3-5.5-1.8-10.6-4.2-15.1l-7.5-2.8l-0.2,13.3L81,67.2L86.6,60.4L86.6,60.4z"/>
	<path class="st259" d="M50,25.7c-3.5,0-6.9,0.5-10.2,1.5l-1.5,5.7L51,37.1l12.9-3.1l-2.4-6.4C57.9,26.4,54,25.7,50,25.7L50,25.7z"
		/>
	<path d="M56.2,47.6v-6h2.7c0.3,0,0.6,0,0.9,0.1c0.2,0.1,0.5,0.1,0.7,0.2c0.3,0.1,0.5,0.3,0.6,0.6c0.1,0.2,0.2,0.6,0.2,0.9
		c0,0.4-0.1,0.7-0.3,0.9c-0.1,0.1-0.3,0.2-0.5,0.3c0.2,0.1,0.4,0.2,0.6,0.3c0.2,0.2,0.4,0.6,0.4,1.1c0,0.3-0.1,0.6-0.2,0.7
		c-0.1,0.2-0.2,0.4-0.4,0.6c-0.2,0.2-0.6,0.3-0.9,0.4c-0.3,0.1-0.7,0.1-1.2,0.1L56.2,47.6L56.2,47.6z"/>
	<path class="st28" d="M57.9,45.2v1.1h0.9c0.4,0,0.7-0.1,0.9-0.1c0.2-0.1,0.2-0.2,0.2-0.4c0-0.2-0.1-0.3-0.2-0.4
		c-0.2-0.1-0.5-0.1-0.9-0.1L57.9,45.2L57.9,45.2z"/>
	<path class="st28" d="M57.9,43v1h0.7c0.3,0,0.6-0.1,0.7-0.1c0.1-0.1,0.2-0.2,0.2-0.4c0-0.2-0.1-0.3-0.2-0.4C59.2,43,59,43,58.7,43
		L57.9,43L57.9,43z"/>
	<path d="M49.5,41.6h1.8V45c0,0.5,0.1,0.7,0.3,1c0.2,0.2,0.5,0.3,0.9,0.3c0.4,0,0.7-0.1,0.9-0.3c0.2-0.2,0.3-0.6,0.3-1v-3.4h1.8V45
		c0,1-0.2,1.7-0.7,2.1c-0.5,0.5-1.3,0.7-2.2,0.7c-0.5,0-0.9-0.1-1.3-0.2c-0.4-0.1-0.7-0.3-0.9-0.5c-0.3-0.2-0.5-0.6-0.6-0.9
		c-0.1-0.3-0.1-0.7-0.1-1.2v-3.4H49.5z"/>
	<polygon points="44.8,47.6 44.8,41.6 46.5,41.6 46.5,46.1 49.3,46.1 49.3,47.6 	"/>
	<path d="M44.3,45.4v0.1c0,0.7-0.3,1.3-0.7,1.7c-0.5,0.4-1.1,0.6-1.9,0.6c-1,0-1.8-0.3-2.3-0.8s-0.8-1.3-0.8-2.3
		c0-1,0.3-1.8,0.8-2.3c0.5-0.5,1.3-0.8,2.3-0.8c0.8,0,1.4,0.2,1.8,0.5c0.5,0.3,0.7,0.9,0.7,1.6v0.1h-1.7v-0.1
		c-0.1-0.2-0.1-0.4-0.3-0.5s-0.4-0.2-0.6-0.2c-0.5,0-0.7,0.1-1,0.4s-0.3,0.7-0.3,1.3c0,0.6,0.1,1,0.3,1.3c0.2,0.3,0.5,0.4,0.9,0.4
		c0.3,0,0.6-0.1,0.7-0.2c0.2-0.1,0.2-0.3,0.3-0.6v-0.1L44.3,45.4L44.3,45.4z"/>
	<polygon points="33.3,75.5 33.3,69.6 34.8,69.6 34.8,74 37.3,74 37.3,75.5 	"/>
	<path d="M49.7,69.6h1.6v3.3c0,0.4,0.1,0.7,0.2,0.9c0.2,0.2,0.4,0.3,0.7,0.3c0.3,0,0.6-0.1,0.8-0.3c0.2-0.2,0.2-0.5,0.2-0.9v-3.3
		h1.6v3.3c0,0.9-0.2,1.6-0.6,2c-0.5,0.5-1.1,0.6-2,0.6c-0.4,0-0.8-0.1-1.1-0.2c-0.3-0.1-0.6-0.3-0.8-0.5c-0.2-0.2-0.4-0.5-0.5-0.9
		c-0.1-0.3-0.1-0.7-0.1-1.1L49.7,69.6L49.7,69.6z"/>
	<polygon points="55.9,75.5 55.9,69.6 57.8,69.6 57.8,69.7 59.7,73.2 59.7,69.6 61.1,69.6 61.1,75.5 59.2,75.5 59.2,75.4 57.3,71.9 
		57.3,75.5 	"/>
	<polygon points="61.3,75.5 63.7,69.7 63.8,69.6 65.4,69.6 65.5,69.7 67.7,75.5 66,75.5 65.6,74.3 63.4,74.3 63,75.5 	"/>
	<polygon class="st28" points="63.9,73 65.1,73 64.5,71.3 	"/>
	<polygon points="37.4,75.5 39.8,69.7 39.9,69.6 41.5,69.6 41.6,69.7 43.8,75.5 42.1,75.5 41.7,74.3 39.5,74.3 39.1,75.5 	"/>
	<polygon class="st28" points="40,73 41.2,73 40.6,71.3 	"/>
	<path d="M47.4,73.9v-0.5h-0.9v-1.3h2.4v3.4h-1.2V75c-0.5,0.3-1,0.4-1.5,0.4c-1,0-1.5-0.2-2-0.7c-0.5-0.5-0.8-1.3-0.8-2.2
		s0.2-1.7,0.7-2.2c0.5-0.5,1.3-0.8,2.2-0.8c0.8,0,1.4,0.2,1.8,0.5c0.4,0.3,0.7,0.9,0.7,1.5v0.1h-1.7v-0.1c0-0.2-0.1-0.4-0.2-0.5
		c-0.1-0.1-0.3-0.2-0.6-0.2c-0.4,0-0.7,0.1-1,0.4c-0.2,0.3-0.3,0.7-0.3,1.3s0.1,1,0.4,1.3c0.2,0.3,0.5,0.4,1,0.4
		C47,74.2,47.2,74,47.4,73.9L47.4,73.9z"/>
	<g>
		<polygon class="st258" points="40.2,78.3 41,80.5 43.4,80.5 41.4,82 41.6,82.4 42.2,84.3 40.2,82.9 38.3,84.3 39,82 37,80.5 
			39.5,80.5 		"/>
		<polygon class="st258" points="49.2,78.3 49.9,80.5 52.3,80.5 50.3,82 50.5,82.4 51.1,84.3 49.1,82.9 47.2,84.3 48,82 46,80.5 
			48.4,80.5 		"/>
		<polygon class="st258" points="58.2,78.3 58.9,80.6 61.4,80.6 59.4,82.1 59.6,82.5 60.2,84.3 58.2,82.9 56.3,84.3 57,82.1 
			55,80.6 57.5,80.6 		"/>
	</g>
</g>
</svg>
