<?xml version="1.0" encoding="utf-8"?>
<!-- Generator: Adobe Illustrator 19.2.1, SVG Export Plug-In . SVG Version: 6.00 Build 0)  -->
<svg version="1.1" id="Capa_1" xmlns="http://www.w3.org/2000/svg" xmlns:xlink="http://www.w3.org/1999/xlink" x="0px" y="0px"
	 viewBox="0 0 100 100" style="enable-background:new 0 0 100 100;" xml:space="preserve">
<style type="text/css">
	.st0{fill:#9C824A;stroke:#9C824A;stroke-width:0.793;stroke-miterlimit:282;}
	.st1{fill:#023474;stroke:#023474;stroke-width:0.793;stroke-miterlimit:282;}
	.st2{fill:#FFFFFF;stroke:#FFFFFF;stroke-width:0.793;stroke-miterlimit:282;}
	.st3{fill:#EF0107;stroke:#EF0107;stroke-width:0.793;stroke-miterlimit:282;}
	.st4{fill:#DB0007;stroke:#DB0007;stroke-width:0.793;stroke-miterlimit:282;}
	.st5{fill:#FFFFFF;}
	.st6{fill:#9C824A;}
	.st7{fill:#EF0107;stroke:#EF0107;stroke-width:0.3115;stroke-miterlimit:282;}
	.st8{fill:#DB0007;stroke:#DB0007;stroke-width:0.3115;stroke-miterlimit:282;}
	.st9{fill:#DB0007;}
	.st10{fill:#FFFFFF;stroke:#FFFFFF;stroke-width:0.3115;stroke-miterlimit:282;}
	.st11{fill:#FFFFFF;stroke:#FFFFFF;stroke-width:0.554;stroke-miterlimit:3.864;}
	.st12{fill:#231F20;}
	.st13{fill:#00B6F1;}
	.st14{fill:#EF3E2E;}
	.st15{fill:#BBBDBF;}
	.st16{fill:#F0B83D;}
	.st17{fill:#001C58;}
	.st18{fill:#94BEE5;}
	.st19{fill:none;stroke:#7A003C;stroke-width:2.2437;stroke-miterlimit:6;}
	.st20{fill:#7A003C;}
	.st21{fill:#FFE600;}
	.st22{fill:#DBA111;}
	.st23{fill:#034694;}
	.st24{fill:#D1D3D4;}
	.st25{fill:#ED1C24;}
	.st26{fill:#6A7AB5;}
	.st27{fill:none;}
	.st28{fill:#274488;}
	.st29{fill:#004798;stroke:#004798;stroke-width:9.375000e-02;}
	.st30{fill:#FFFFFF;stroke:#FFFFFF;stroke-width:9.375000e-02;}
	.st31{fill:#FABC00;stroke:#FABC00;stroke-width:9.375000e-02;}
	.st32{fill:#5299C6;}
	.st33{fill:#60223B;}
	.st34{fill:#F7C240;}
	.st35{fill:#292D6B;}
	.st36{fill:#1B458F;}
	.st37{fill:#C4122E;}
	.st38{fill:#27409B;}
	.st39{clip-path:url(#SVGID_2_);fill:#FFFFFF;}
	.st40{fill:#F4F4F4;}
	.st41{fill:#D3D2D2;}
	.st42{fill:#A7A5A6;}
	.st43{fill:#091453;}
	.st44{fill:none;stroke:#FFFFFF;stroke-width:6.6301;}
	.st45{clip-path:url(#SVGID_4_);}
	.st46{fill:#724314;}
	.st47{fill:#240B08;}
	.st48{fill:#018B4B;}
	.st49{fill:#A6181D;}
	.st50{fill:#592D09;}
	.st51{fill:#FFCE65;}
	.st52{fill:#5CBFEB;}
	.st53{fill:none;stroke:#000000;stroke-width:10;}
	.st54{fill:none;stroke:#000000;}
	.st55{fill:#B2B2B2;}
	.st56{fill:none;stroke:#000000;stroke-width:0.3;}
	.st57{fill:#00A650;stroke:#000000;stroke-width:2;}
	.st58{fill:#241F20;stroke:#241F20;stroke-width:9.375000e-02;}
	.st59{fill:#FFF200;stroke:#FFF200;stroke-width:9.375000e-02;}
	.st60{fill:#A68A26;}
	.st61{fill:none;stroke:#A68A26;stroke-width:4.792100e-02;stroke-miterlimit:3.8637;}
	.st62{fill:#211E1E;}
	.st63{fill:none;stroke:#211E1E;stroke-width:4.792100e-02;stroke-miterlimit:3.8637;}
	.st64{fill:#EB172B;}
	.st65{fill:none;stroke:#EB172B;stroke-width:4.792100e-02;stroke-miterlimit:3.8637;}
	.st66{fill:#A68A26;stroke:#A68A26;stroke-width:4.792100e-02;stroke-miterlimit:3.8637;}
	.st67{fill:#D1BF7F;}
	.st68{fill:none;stroke:#D1BF7F;stroke-width:4.792100e-02;stroke-miterlimit:3.8637;}
	.st69{fill:none;stroke:#FFFFFF;stroke-width:4.792100e-02;stroke-miterlimit:3.8637;}
	.st70{fill:#EB172B;stroke:#EB172B;stroke-width:4.792100e-02;stroke-miterlimit:3.8637;}
	.st71{fill:#ED2127;}
	.st72{fill:#FBEE23;}
	.st73{stroke:#000000;}
	.st74{fill:#CF1F44;}
	.st75{fill:#1B449C;}
	.st76{fill:#E03A3E;}
	.st77{fill:#2E6ABD;stroke:#2E6ABD;stroke-width:0.617;}
	.st78{fill:#FFFFFF;stroke:#FFFFFF;stroke-width:0.6175;}
	.st79{fill:#ED1248;}
	.st80{fill:#2E6ABD;}
	.st81{fill:#FDE100;}
	.st82{fill:#CC0000;}
	.st83{fill:#211E1F;}
	.st84{fill:#ED1A3B;}
	.st85{fill:#00AEEF;}
	.st86{fill:#FFC40D;}
	.st87{fill:#22B24C;}
	.st88{fill:#FFC20E;}
	.st89{fill:#0A3F86;}
	.st90{fill:#005CA9;}
	.st91{fill:#0060A9;}
	.st92{fill:#E32219;}
	.st93{fill:#FFED00;}
	.st94{fill:#1D9053;}
	.st95{fill:#52A600;}
	.st96{fill:#EE2523;}
	.st97{fill:#F7D117;}
	.st98{fill:#171796;}
	.st99{fill:#009959;}
	.st100{fill:#D42E12;}
	.st101{fill:#703824;}
	.st102{fill:#E5254E;}
	.st103{fill:#8AC3EE;}
	.st104{fill:#B19221;}
	.st105{fill:#F5C03E;}
	.st106{fill:#FF1119;}
	.st107{fill:#1E6BC0;}
	.st108{fill:#B4742A;}
	.st109{fill:#371B02;}
	.st110{fill:url(#SVGID_5_);}
	.st111{fill:url(#SVGID_6_);}
	.st112{fill:url(#SVGID_7_);}
	.st113{fill:url(#SVGID_8_);}
	.st114{fill:url(#SVGID_9_);}
	.st115{fill:url(#SVGID_10_);}
	.st116{fill:url(#SVGID_11_);}
	.st117{fill:url(#SVGID_12_);}
	.st118{fill:url(#SVGID_13_);}
	.st119{fill:url(#SVGID_14_);}
	.st120{fill:#EB2626;}
	.st121{fill:#E9C32C;}
	.st122{fill:#D9D9D9;}
	.st123{fill:#009C5E;}
	.st124{fill:#1C75BC;}
	.st125{fill:#611D5C;}
	.st126{fill:#E2B900;}
	.st127{fill:#004B95;}
	.st128{fill:#A4234B;}
	.st129{fill:#DB2F36;}
	.st130{fill:#FFDF00;}
	.st131{fill:#23C1E0;}
	.st132{fill:#F1A92A;}
	.st133{fill:#167FB6;}
	.st134{fill:#FED75D;}
	.st135{fill:#378CBF;}
	.st136{fill:#3E9692;}
	.st137{fill:#E67F29;}
	.st138{fill:#D8B43C;}
	.st139{fill:#EF3B33;}
	.st140{fill:#24923D;}
	.st141{opacity:6.000001e-02;fill:#101010;enable-background:new    ;}
	.st142{fill:#00529F;}
	.st143{fill:#EE324E;}
	.st144{fill:#FEBE10;}
	.st145{fill:#143C8B;}
	.st146{fill:#FFE24A;}
	.st147{fill:#EC1D24;}
	.st148{fill:#E6A514;}
	.st149{fill:#FFDF1C;}
	.st150{fill:#EE3524;}
	.st151{fill:#B23428;}
	.st152{fill:#D18816;}
	.st153{fill:#0097D7;}
	.st154{fill:#ED1C23;}
	.st155{fill:#E30613;}
	.st156{fill:#FFE400;}
	.st157{fill:#C51A1B;}
	.st158{clip-path:url(#SVGID_17_);}
	.st159{clip-path:url(#SVGID_18_);fill:none;stroke:#000000;stroke-width:0.8131;stroke-miterlimit:3.864;}
	.st160{fill:#0093D5;}
	.st161{fill:#004B9D;}
	.st162{fill:#FCC24F;}
	.st163{fill:#009545;}
	.st164{fill:#0072BB;}
	.st165{fill:#C4974E;}
	.st166{fill:url(#path1292_1_);}
	.st167{fill:#004996;}
	.st168{fill:#FFE667;}
	.st169{fill:none;stroke:#005187;stroke-width:0.153;stroke-miterlimit:3.864;}
	.st170{fill:#005187;}
	.st171{clip-path:url(#SVGID_20_);}
	.st172{clip-path:url(#SVGID_22_);fill:none;stroke:#000000;stroke-width:0.296;stroke-miterlimit:3.864;}
	.st173{clip-path:url(#SVGID_24_);fill:#FFE667;}
	.st174{clip-path:url(#SVGID_26_);fill:none;stroke:#000000;stroke-width:8.300000e-02;stroke-miterlimit:3.864;}
	.st175{fill:none;stroke:#000000;stroke-width:0.153;stroke-miterlimit:3.864;}
	.st176{clip-path:url(#SVGID_28_);fill:#E70005;}
	.st177{clip-path:url(#SVGID_30_);fill:none;stroke:#E70005;stroke-width:0.296;stroke-miterlimit:3.864;}
	.st178{clip-path:url(#SVGID_32_);fill:#E70005;}
	.st179{clip-path:url(#SVGID_34_);fill:none;stroke:#E70005;stroke-width:0.296;stroke-miterlimit:3.864;}
	.st180{clip-path:url(#SVGID_36_);fill:#E70005;}
	.st181{clip-path:url(#SVGID_38_);fill:none;stroke:#E70005;stroke-width:0.296;stroke-miterlimit:3.864;}
	.st182{clip-path:url(#SVGID_40_);fill:#E70005;}
	.st183{clip-path:url(#SVGID_42_);fill:none;stroke:#E70005;stroke-width:0.296;stroke-miterlimit:3.864;}
	.st184{fill:#E70005;}
	.st185{fill:none;stroke:#000000;stroke-width:0.141;stroke-miterlimit:3.864;}
	.st186{fill:#E2001A;}
	.st187{fill:#00276D;}
	.st188{fill:#C49308;}
	.st189{fill:#179D33;}
	.st190{fill:#999999;}
	.st191{fill:#FF0000;}
	.st192{fill:#E31837;}
	.st193{fill:#06357A;}
	.st194{fill:#B4053F;}
	.st195{fill:#DCA43E;}
	.st196{fill:#005CA5;}
	.st197{fill:#FAC400;}
	.st198{fill:#004083;}
	.st199{fill:#A95932;}
	.st200{fill:none;stroke:#000000;stroke-width:1.2215;}
	.st201{fill:#E62627;}
	.st202{fill:#00458C;}
	.st203{fill:#E11B22;}
	.st204{fill:#00AB4E;}
	.st205{fill:#F47920;}
	.st206{fill:#C7C8CA;}
	.st207{fill:#E11515;}
	.st208{fill:#A4965F;}
	.st209{fill:#E51636;}
	.st210{fill:#EACC00;}
	.st211{fill:#4F846B;}
	.st212{fill:#E22227;}
	.st213{fill:#FAE700;}
	.st214{fill:url(#SVGID_43_);}
	.st215{fill:#666666;}
	.st216{fill:#FFF200;}
	.st217{fill:#00275D;}
	.st218{fill:#EF3E33;}
	.st219{fill:none;stroke:#00275D;stroke-width:2.632;}
	.st220{fill:#3F7652;}
	.st221{fill:#F1D261;}
	.st222{fill:#004D8F;}
	.st223{fill:#E7B137;stroke:#E7B137;stroke-miterlimit:10;}
	.st224{fill:#E7B137;}
	.st225{fill:#162577;}
	.st226{fill:#12692C;}
	.st227{fill:#D8141D;}
	.st228{fill:#AB830D;}
	.st229{fill:#0086CB;}
	.st230{fill:#001F42;}
	.st231{fill:#9A8F4A;}
	.st232{fill:#00559D;}
	.st233{fill:#FDDE00;}
	.st234{fill:#00924C;}
	.st235{fill:#233984;}
	.st236{fill:#FFD42E;}
	.st237{fill:#BA3733;}
	.st238{fill:#46714D;}
	.st239{fill:#221F1F;}
	.st240{fill:#00559E;}
	.st241{fill:#005C46;}
	.st242{fill:#FBC860;}
	.st243{fill:#D57C48;}
	.st244{fill:#040403;}
	.st245{fill:#4AB969;}
	.st246{fill:#8ED8F8;}
	.st247{fill:#FEC34E;}
	.st248{fill:#FFC95B;}
	.st249{fill:#00644C;}
	.st250{fill:#70B865;}
	.st251{fill:#CA6F44;}
	.st252{fill:#A8B8BE;}
	.st253{fill:#1C2C80;}
	.st254{fill:#E10321;}
	.st255{fill:none;stroke:#231F20;stroke-width:0.318;stroke-miterlimit:3.864;}
	.st256{fill:#D71920;}
	.st257{fill:#484749;}
	.st258{fill:#D9DBDC;}
	.st259{fill:#DF725A;}
	.st260{fill:#F2CABA;}
	.st261{fill:#E89C84;}
	.st262{fill:#264F99;}
	.st263{clip-path:url(#SVGID_45_);}
	.st264{fill:#161413;}
	.st265{fill:#ED1B26;}
	.st266{fill:#E60D2E;}
	.st267{fill:#FCD600;}
	.st268{fill:#004D91;}
	.st269{fill:#EAB412;}
	.st270{fill:#FDD31D;}
	.st271{fill:#EFB800;}
	.st272{fill:#FFF100;}
	.st273{fill:#ED3024;}
	.st274{fill:#00A398;}
	.st275{fill:#D00027;}
	.st276{fill:#FEF667;}
	.st277{fill:#FFE000;}
	.st278{opacity:0;fill:#FFFFFF;}
	.st279{fill:#937430;}
	.st280{fill:#5A2D6B;}
	.st281{fill:#D4E5F1;}
	.st282{fill:#4897D2;}
	.st283{fill:#CC6323;}
	.st284{fill:#DE9500;}
	.st285{fill:#00954C;}
	.st286{fill:#D7013E;}
</style>
<g>
	<circle class="st202" cx="50" cy="62.1" r="37.9"/>
	<circle class="st5" cx="50" cy="62.1" r="36.3"/>
	<circle class="st202" cx="50" cy="62.1" r="35.4"/>
	<circle class="st5" cx="50" cy="62.1" r="25.7"/>
	<path class="st203" d="M50,38.8c-0.9,0-1.7,0-2.6,0.1v46.3c0.8,0.1,1.7,0.1,2.6,0.1c0.9,0,1.7,0,2.6-0.1V38.9
		C51.7,38.8,50.9,38.8,50,38.8z"/>
	<path class="st203" d="M38,42.1V82c1.6,1,3.3,1.7,5.1,2.3V39.8C41.3,40.4,39.6,41.2,38,42.1z"/>
	<path class="st203" d="M28.5,53v18.1c1.2,2.8,2.9,5.4,5.1,7.5V45.5C31.5,47.6,29.7,50.2,28.5,53z"/>
	<path class="st203" d="M66.4,45.5v33.1c2.2-2.1,3.9-4.7,5.1-7.5V53C70.3,50.2,68.5,47.6,66.4,45.5z"/>
	<path class="st203" d="M56.9,39.8v44.5c1.8-0.6,3.5-1.3,5.1-2.3V42.1C60.4,41.2,58.7,40.4,56.9,39.8z"/>
	<path class="st202" d="M50,37.2c-13.7,0-24.8,11.1-24.8,24.8S36.3,86.9,50,86.9c13.7,0,24.8-11.1,24.8-24.8
		C74.8,48.4,63.7,37.2,50,37.2z M50,85.4c-12.9,0-23.3-10.4-23.3-23.3S37.1,38.8,50,38.8c12.9,0,23.3,10.4,23.3,23.3
		C73.3,74.9,62.9,85.4,50,85.4z"/>
	<path class="st88" d="M35.5,31.3c0,0,1.5,1.9,1.5,4.6c0,8.1,0,19.9,0,20.7C37.1,65,50,69.2,50,69.2S62.9,65,62.9,56.7
		c0-1,0-12.7,0-20.7c0-2.8,1.5-4.6,1.5-4.6L35.5,31.3L35.5,31.3z"/>
	<path class="st202" d="M41.1,35.1v20.1c0,5.7,8.9,8.6,8.9,8.6s8.9-2.9,8.9-8.6V35.1H41.1L41.1,35.1z"/>
	<polygon class="st203" points="38.5,34.8 39,34 39.5,34.8 40.4,34.8 39.4,33.4 40.3,32.2 39.5,32.2 39,32.9 38.5,32.2 37.7,32.2 
		38.6,33.5 37.6,34.8 	"/>
	<polygon class="st203" points="51.3,64.7 50.5,64.7 50,65.5 49.6,64.7 48.7,64.7 49.6,66 48.6,67.3 49.5,67.3 50,66.5 50.5,67.3 
		51.4,67.3 50.4,66 	"/>
	<polygon class="st203" points="60.5,34.8 61,34 61.5,34.8 62.4,34.8 61.4,33.4 62.3,32.2 61.5,32.2 61,32.9 60.6,32.2 59.7,32.2 
		60.6,33.5 59.6,34.8 	"/>
	<polygon class="st203" points="40.9,57.1 40.1,57.1 39.6,57.9 39.1,57.1 38.2,57.1 39.1,58.4 38.2,59.7 39.1,59.7 39.6,58.9 
		40.1,59.7 41,59.7 40,58.4 	"/>
	<polygon class="st203" points="61.8,57.1 60.9,57.1 60.4,57.9 60,57.1 59.1,57.1 60,58.4 59,59.7 59.9,59.7 60.4,58.9 60.9,59.7 
		61.8,59.7 60.8,58.4 	"/>
	<polygon class="st203" points="39,47.8 39.5,48.5 40.4,48.5 39.4,47.2 40.3,46 39.5,46 39,46.7 38.5,46 37.7,46 38.6,47.2 
		37.6,48.5 38.5,48.5 	"/>
	<polygon class="st203" points="62.3,46 61.5,46 61,46.7 60.6,46 59.7,46 60.6,47.2 59.6,48.5 60.5,48.5 61,47.8 61.5,48.5 
		62.4,48.5 61.4,47.2 	"/>
	<path class="st88" d="M46.5,51.6C46.1,51,47,50.7,47,50.7l-0.1-0.4C46,50.7,46,50,46,50c0.2-0.9,1.1-0.1,1.1-0.1l0.2-0.6l-2.7-1.1
		c0,0-0.1,0.6-0.6,0.8c-0.6,0.3-0.5,1.2-0.5,1.2s0.3,0.1,0.1,0.4c0,0-0.2,0.2-0.1,0.3c0,0,0.3,0,0.1,0.5c0,0,0.4,0,0.2,0.4
		c0,0,0.4,0,0.4,0.3c0,0,0.3,0.2,0.5,0c-0.8,2.1-1.5,2-1.5,2c-0.7-0.9-0.4-2.5-0.4-2.5c0.2-1.3-0.3-2.1-0.3-2.1
		c0.4-1-0.5-1.3-0.5-1.3c-0.4,0.8,0.1,1.4,0.1,1.4c0.7,0.8,0.4,1.9,0.4,1.9c-0.6,2.1,0.2,3.2,0.2,3.2c-0.3,1,0.3,1.6,0.3,1.6
		c-0.4,0.3-0.3,0.8-0.3,0.8c0,0,1.6,1.6,1.6,1.6h1.5c-0.2-0.5-0.7-0.4-0.7-0.4c-0.9,0-0.9-0.5-0.9-0.5c-0.1-0.5-0.2-0.9-0.2-0.9
		c0.7-0.4,0.5-1,0.5-1c0.8,0,1.4,0.4,1.4,0.4c0.6,0.7,1.2,0.6,1.2,0.6l2.1-1.4V55h-0.3l-1.3,1c-0.4,0.3-0.8,0-0.8,0L45.4,55
		c1.2-0.6,1.2-1.6,1.2-1.6h0.8c0.9-1.5,1.7-1.4,1.7-1.4v-0.9H49l-1.2,1.3c-0.5,0.4-1.1-0.2-1.1-0.2l0.6-0.1l0.9-1.1
		c0.5-0.5,1-0.6,1-0.6v-1.2h-0.2C47.6,52,46.5,51.6,46.5,51.6z"/>
	<path class="st88" d="M58.1,48.1c0,0-0.9,0.4-0.5,1.3c0,0-0.5,0.8-0.3,2.1c0,0,0.3,1.6-0.4,2.5c0,0-0.6,0.1-1.5-2
		c0.2,0.2,0.5,0,0.5,0c-0.1-0.4,0.4-0.3,0.4-0.3c-0.1-0.4,0.2-0.4,0.2-0.4c-0.3-0.5,0.1-0.5,0.1-0.5c0-0.1-0.1-0.3-0.1-0.3
		c-0.1-0.3,0.1-0.4,0.1-0.4s0.1-0.9-0.5-1.2c-0.6-0.3-0.6-0.8-0.6-0.8l-2.7,1.1l0.2,0.6c0,0,0.9-0.8,1.1,0.1c0,0,0.1,0.8-0.9,0.4
		L53,50.7c0,0,0.8,0.3,0.5,0.9c0,0-1.1,0.5-2.4-2.2h-0.2v1.2c0,0,0.5,0.1,1,0.6l0.9,1.1l0.6,0.1c0,0-0.6,0.5-1.1,0.2L51,51.1h-0.2
		V52c0,0,0.8-0.1,1.7,1.4h0.8c0,0-0.1,1,1.2,1.6l-1.4,0.9c0,0-0.4,0.4-0.8,0l-1.2-1h-0.3v0.5l2.1,1.4c0,0,0.5,0.1,1.2-0.6
		c0,0,0.5-0.4,1.4-0.4c0,0-0.1,0.5,0.5,1c0,0-0.1,0.4-0.2,0.9c0,0,0,0.4-0.9,0.5c0,0-0.5-0.1-0.7,0.4h1.5c0,0,1.6-1.6,1.6-1.6
		c0,0,0.1-0.4-0.3-0.8c0,0,0.6-0.6,0.3-1.6c0,0,0.8-1.1,0.2-3.2c0,0-0.4-1.1,0.4-1.9C57.9,49.5,58.4,49,58.1,48.1z"/>
	<path class="st204" d="M50,37.7c-3.5,0-6.3,2-6.3,4.5c0,2.5,2.8,4.5,6.3,4.5c3.5,0,6.3-2,6.3-4.5C56.3,39.8,53.5,37.7,50,37.7z"/>
	<path class="st205" d="M50.6,55.9V47h-1.3v8.9c0,0,0,1.5-1.4,3.7c0,0,0.8,0.6,2,0.6c1.2,0,2-0.6,2-0.6
		C50.6,57.4,50.6,55.9,50.6,55.9z"/>
	<path class="st202" d="M25.3,18.5c-1.9,2-2.7,4.3-2.7,7c0,1.6,0.5,4.3,2.8,8.1l4,6.4c0.8,1.3,1.1,3,1.1,4.1c0,0.4-0.1,0.8-0.1,1.2
		c-0.1,0.4-0.1,0.8-0.1,1.2c0,1.2,0.5,2.1,1.3,2.5c0.1,1,0.5,2,1.5,2.3c0,0.3-0.1,0.6-0.1,1c0,1.2,0.2,2.7,1.1,3.8l0.3,0.3l0.3-0.2
		c1-0.6,2.2-2.4,2.2-5.3c0-5.4-3.7-11.6-4.8-13.4L28,30.9c-1.2-2-1.5-3.8-1.5-5c0-3,2.1-6.1,5.5-6.1c2.5,0,3.8,1.6,3.8,2.8
		c0,0.6-0.4,2.2-1.8,2.2c-0.9,0-1.6-0.6-1.6-1.5c0-0.3,0.1-0.8,0.3-1.2l0.4-0.9l-1,0.2C29.4,22,28,23.5,28,25.9
		c0,1.9,0.8,3.3,2.4,4.5c0,0.1,0,0.3,0,0.5c0,0.8,0.2,1.8,0.9,2.6c0.7,0.7,1.6,1.1,2.9,1.1l0.8,0l-0.4-0.7c-0.6-0.9-0.8-1.7-0.8-2.3
		c0-0.3,0.1-0.5,0.2-0.7c2.6-0.2,4.5-1.5,5.1-3.5c0.2,0.1,1.4,1.1,1.4,1.1l0.3-0.3c0.7-0.6,0.9-1.5,0.9-2.3c0-0.1,0-0.2,0-0.3
		c0.5,0.2,1.5,0.8,1.5,0.8l0.1-0.6c0.1-0.4,0.1-0.8,0.1-1.1c0-1.3-0.4-2.4-1-3.3c0.7-0.6,1.1-1.5,1.1-2.4c0,0,0,0,0-0.1l0-0.5
		l-0.5,0.1c-2.2,0.2-3.8-0.4-5.5-1.1c-1.7-0.7-3.4-1.4-5.9-1.4C28.9,16,26.8,16.8,25.3,18.5z"/>
	<path class="st88" d="M33.9,52.3c0-0.6,0.1-1.1,0.1-1.3l0.1-0.5l-0.5,0c-1-0.1-1.1-1.4-1.1-1.8c0,0,0-0.4,0-0.4l-0.4-0.1
		c-0.8-0.2-1-1.2-1-1.7c0-0.3,0.1-0.7,0.1-1c0.1-0.4,0.1-0.8,0.1-1.3c0-1.3-0.3-3.1-1.2-4.6l-4-6.4c-2.3-3.8-2.7-6.4-2.7-7.6
		c0-2.5,0.8-4.5,2.5-6.3c1.3-1.5,3.1-2.2,5.4-2.2c2.3,0,4,0.7,5.6,1.3c1.6,0.6,3.2,1.3,5.4,1.2c-0.1,0.6-0.5,1.2-1,1.5l-0.5,0.3
		l0.4,0.4c0.7,0.7,1.1,1.8,1.1,3c0,0.1,0,0.2,0,0.3c-0.5-0.3-2-1-2-1l0.2,0.9c0,0.2,0.1,0.6,0.1,1c0,0.4-0.1,0.9-0.3,1.3
		c-0.2-0.1-1.9-1.5-1.9-1.5l-0.1,0.8c-0.3,2.1-2.1,3.4-4.7,3.5l-0.2,0l-0.1,0.2c-0.2,0.2-0.5,0.7-0.5,1.5c0,0.5,0.1,1.2,0.5,2
		c-0.6-0.1-1-0.3-1.4-0.7c-0.5-0.6-0.6-1.3-0.6-1.9c0-0.3,0-0.5,0-0.6l0-0.3l-0.2-0.2c-1.6-1.2-2.2-2.3-2.2-4c0-1.7,0.9-2.8,2.7-3.4
		c-0.1,0.3-0.1,0.5-0.1,0.7c0,1.4,1.1,2.5,2.5,2.5c2,0,2.7-2.1,2.7-3.1c0-1.8-1.8-3.7-4.7-3.7c-4,0-6.5,3.7-6.5,7.1
		c0,1.3,0.3,3.3,1.6,5.5l4.1,6.5c1.1,1.7,4.6,7.8,4.6,12.9c0,2.1-0.7,3.5-1.4,4.2C34,54.3,33.9,53.2,33.9,52.3z"/>
	<path class="st202" d="M68.6,16c-2.5,0-4.2,0.7-5.9,1.4c-1.7,0.7-3.3,1.3-5.5,1.1l-0.5-0.1l0,0.5c0,0,0,0,0,0.1
		c0,0.9,0.4,1.8,1.1,2.4c-0.7,0.9-1,2-1,3.3c0,0.4,0,0.7,0.1,1.1l0.1,0.6c0,0,1.1-0.5,1.5-0.8c0,0.1,0,0.2,0,0.3
		c0,0.8,0.2,1.7,0.9,2.3l0.3,0.3c0,0,1.2-1,1.4-1.1c0.6,2,2.5,3.3,5.1,3.5c0.1,0.2,0.2,0.4,0.2,0.7c0,0.6-0.3,1.4-0.8,2.3L65,34.6
		l0.8,0c1.3,0,2.3-0.3,2.9-1.1c0.7-0.8,0.9-1.8,0.9-2.6c0-0.2,0-0.3,0-0.5c1.7-1.3,2.4-2.7,2.4-4.5c0-2.4-1.4-3.9-4.2-4.6l-1-0.2
		l0.4,0.9c0.2,0.5,0.3,0.9,0.3,1.2c0,0.9-0.7,1.5-1.6,1.5c-1.4,0-1.8-1.6-1.8-2.2c0-1.2,1.3-2.8,3.8-2.8c3.4,0,5.5,3.2,5.5,6.1
		c0,1.2-0.3,3-1.5,5l-4.1,6.5c-1.1,1.8-4.8,8.1-4.8,13.4c0,2.9,1.2,4.7,2.2,5.3l0.3,0.2l0.3-0.3c0.9-1,1.1-2.6,1.1-3.8
		c0-0.4,0-0.7-0.1-1c1-0.3,1.4-1.3,1.5-2.3c0.8-0.4,1.3-1.3,1.3-2.5c0-0.4-0.1-0.8-0.1-1.2c-0.1-0.4-0.1-0.8-0.1-1.2
		c0-1.1,0.3-2.8,1.1-4.1l4-6.4c2.3-3.8,2.8-6.5,2.8-8.1c0-2.7-0.9-4.9-2.7-7C73.2,16.8,71.1,16,68.6,16z"/>
	<path class="st88" d="M65.5,55.1c-0.8-0.7-1.4-2.2-1.4-4.2c0-5.1,3.5-11.2,4.6-12.9l4.1-6.5c1.4-2.2,1.6-4.2,1.6-5.5
		c0-3.4-2.5-7.1-6.5-7.1c-2.9,0-4.7,1.9-4.7,3.7c0,1,0.7,3.1,2.7,3.1c1.4,0,2.5-1.1,2.5-2.5c0-0.2,0-0.5-0.1-0.7
		c1.8,0.6,2.7,1.8,2.7,3.4c0,1.6-0.7,2.8-2.2,4L68.6,30l0,0.3c0,0.2,0,0.4,0,0.6c0,0.6-0.1,1.4-0.6,1.9c-0.3,0.4-0.8,0.6-1.4,0.7
		c0.4-0.8,0.5-1.5,0.5-2c0-0.8-0.3-1.2-0.5-1.5L66.6,30l-0.2,0c-2.6-0.1-4.4-1.4-4.7-3.5l-0.1-0.8c0,0-1.7,1.4-1.9,1.5
		c-0.2-0.4-0.3-0.8-0.3-1.3c0-0.4,0.1-0.8,0.1-1l0.2-0.9c0,0-1.5,0.7-2,1c0-0.1,0-0.2,0-0.3c0-1.2,0.4-2.3,1.1-3l0.4-0.4l-0.5-0.3
		c-0.5-0.4-0.9-0.9-1-1.5c2.2,0.1,3.8-0.6,5.4-1.2c1.6-0.6,3.3-1.3,5.6-1.3c2.3,0,4.1,0.7,5.4,2.2c1.7,1.9,2.5,3.8,2.5,6.3
		c0,1.2-0.4,3.8-2.7,7.6l-4,6.4c-0.9,1.5-1.2,3.3-1.2,4.6c0,0.5,0.1,0.9,0.1,1.3c0.1,0.4,0.1,0.7,0.1,1c0,0.6-0.1,1.5-1,1.7
		l-0.4,0.1c0,0,0,0.4,0,0.4c0,0.4-0.1,1.7-1.1,1.8l-0.5,0L66,51c0,0.3,0.1,0.8,0.1,1.3C66.1,53.2,66,54.3,65.5,55.1z"/>
	<path class="st202" d="M56.8,28.6c-0.5-2.1-2.1-2.9-2.1-2.9c0.4-1-0.4-1.6-0.6-1.7c1.4-1.2,2.4-3,2.4-5c0-1.3-0.4-2.4-1-3.4
		c1.4-0.8,2.7-2.4,2.7-4.6c0-3-2.4-4.2-3.8-4.5l-0.1,0c0.1-0.3,0.1-0.6,0.1-0.9V3.2c0-0.6-0.3-1.3-0.7-1.7c-0.8-0.8-2.3-1.3-4.1-1.5
		v4c-4.5,1.8-5.6,4.6-5.7,6.7l3.4-1c-0.5,1.3-0.5,2.9-0.4,3.5c-2,1.1-3.3,3.2-3.3,5.7c0,2,0.9,3.8,2.4,5c-0.1,0.1-0.9,0.7-0.6,1.7
		c0,0-1.6,0.8-2.1,2.9c0,0-3.1,0.7-3.3,2.3l10.1,4h0l10.1-4C59.9,29.3,56.8,28.6,56.8,28.6z"/>
	<path class="st206" d="M53.2,24.4c-1.5,1-3.2,1.1-3.2,1.1h0c0,0-1.7,0-3.2-1.1c0,0-0.7,0.5-0.5,1.1c0,0,2.3,0.8,3.7,1.8h0
		c1.4-1,3.7-1.8,3.7-1.8C53.9,24.8,53.2,24.4,53.2,24.4z"/>
	<path class="st206" d="M54,26.3c-1.8,0.4-4,2.1-4,2.1h0c0,0-2.2-1.7-4-2.1c0,0-1.6,0.9-1.9,2.5c0,0,3.4,1.9,5.9,1.9h0
		c2.5,0,5.9-1.9,5.9-1.9C55.6,27.3,54,26.3,54,26.3z"/>
	<path class="st206" d="M55.2,30.2c-2.6,1.3-5,1.5-5.2,1.5c-0.2,0-2.6-0.2-5.2-1.5c0,0-1.7-0.5-2.9,0.2l8.1,3.3h0l8.1-3.3
		C56.9,29.7,55.2,30.2,55.2,30.2z"/>
	<path class="st206" d="M55.6,18.5c-3.4-0.2-5.6-2.2-5.6-2.2h0c0,0-2.2,2-5.6,2.2c0,0-0.2,1.4,0.2,2.2c0,0,2.3-0.5,5.3,0.9h0
		c3.1-1.4,5.3-0.9,5.3-0.9C55.7,19.9,55.6,18.5,55.6,18.5z"/>
	<path class="st206" d="M50,23L50,23c-1.6-1.5-4.7-1.4-4.7-1.4s1,2.3,4.6,2.9h0c3.6-0.7,4.6-2.9,4.6-2.9S51.6,21.5,50,23z"/>
	<path class="st206" d="M50.1,15.1c0,0,2.5,2.2,5.2,2.3c0,0-1.1-3.6-5.3-3.6h0c-4.2,0-5.3,3.6-5.3,3.6c2.7-0.1,5.2-2.3,5.2-2.3
		S50.1,15.1,50.1,15.1z"/>
	<path class="st5" d="M53.1,2c-0.5-0.5-1.5-0.9-2.8-1.1v3.7c-3.7,1.3-5.1,3.2-5.5,5.1l7.2-2c1.4-0.4,1.6-1.5,1.6-2.1V3.2
		C53.6,2.8,53.4,2.3,53.1,2z"/>
	<path class="st203" d="M50.5,4.8c-2.8,1-4.6,2.5-5.3,4.3l6.7-1.9C53,7,53.3,6.1,53.3,5.4V3.3C52.9,3.9,51.7,4.4,50.5,4.8z"/>
	<path class="st203" d="M50.6,1.3v3.2c0.8-0.3,2.4-0.9,2.5-1.5c0-0.1,0-0.2-0.1-0.4C53,2.4,53,2.3,52.9,2.2
		C52.4,1.8,51.6,1.5,50.6,1.3z"/>
	<path class="st206" d="M54,7.1l0.2,0c0.3,0.1,3.2,0.8,3.3,3.7c-2.2,0.2-3.4,1.2-4.3,2.6c-0.8-0.5-1.7-0.8-2.7-0.8
		C51.1,10.3,52.2,8.5,54,7.1z"/>
	<path class="st206" d="M47.6,12.6c0-0.7,0.1-1.8,0.4-2.7c0,0,0.1-0.2,0.2-0.5l3.4-1c-0.9,1.2-1.5,2.5-1.9,4.1c-0.7,0-1.4,0.2-2,0.5
		C47.6,13,47.6,12.8,47.6,12.6z"/>
	<path class="st206" d="M53.8,13.9c0.8-1.2,1.8-2,3.6-2.3c-0.2,1.6-1.3,2.7-2.3,3.2L54.9,15C54.6,14.6,54.2,14.2,53.8,13.9z"/>
	<path class="st5" d="M24.6,47.9c0.3-0.1,0.5-0.3,0.6-0.5c0.1-0.2,0.2-0.4,0.2-0.6c0-0.2,0-0.4-0.1-0.6c-0.1-0.2-0.2-0.4-0.4-0.5
		c-0.2-0.2-0.3-0.3-0.5-0.4c-0.2-0.1-0.4-0.2-0.7-0.3c-0.2-0.1-0.4-0.1-0.6-0.1c-0.2,0-0.4,0.1-0.6,0.2c-0.2,0.1-0.3,0.3-0.5,0.5
		c-0.1,0.2-0.1,0.3-0.2,0.5c0,0.2,0,0.3,0,0.5c0,0.1,0.1,0.3,0.2,0.4c0.1,0.1,0.2,0.3,0.4,0.4l-0.3,0.5c-0.5-0.3-0.7-0.7-0.8-1.2
		c-0.1-0.4,0-0.9,0.3-1.4c0.2-0.3,0.4-0.5,0.6-0.7c0.2-0.1,0.5-0.2,0.7-0.3c0.3,0,0.5,0,0.8,0.1c0.3,0.1,0.6,0.2,0.8,0.4
		c0.3,0.2,0.5,0.4,0.7,0.6c0.2,0.2,0.3,0.5,0.4,0.7c0.1,0.3,0.1,0.5,0.1,0.8c0,0.3-0.1,0.6-0.3,0.9c-0.1,0.2-0.3,0.4-0.4,0.5
		c-0.2,0.2-0.3,0.3-0.5,0.3c-0.2,0.1-0.4,0.1-0.6,0.1c-0.2,0-0.4-0.1-0.6-0.1l0.3-0.5C24.1,48,24.4,48,24.6,47.9"/>
	<polygon class="st5" points="24.2,50.1 20.5,48.5 19.6,50.6 19.2,50.4 20.3,47.8 24.4,49.6 	"/>
	<path class="st5" d="M18.3,54.3c-0.2-0.4-0.2-0.8-0.1-1.3c0.2-0.5,0.4-0.9,0.8-1.1c0.3-0.2,0.8-0.2,1.4-0.1l2.7,0.8L23,53.1
		l-2.7-0.8c-0.4-0.1-0.7-0.1-1,0c-0.3,0.1-0.4,0.4-0.5,0.8c-0.1,0.4-0.1,0.7,0.1,0.9c0.1,0.2,0.4,0.4,0.8,0.5l2.7,0.8l-0.2,0.6
		l-2.7-0.8C18.9,54.9,18.5,54.7,18.3,54.3"/>
	<path class="st5" d="M21.8,58.1c0,0.1,0,0.2,0,0.3c0,0.1,0,0.2-0.1,0.3c0,0.1-0.1,0.2-0.1,0.3c0,0.1-0.1,0.2-0.1,0.2
		c-0.1,0.1-0.2,0.2-0.4,0.3c-0.2,0.1-0.4,0.1-0.6,0.1c-0.2,0-0.4-0.1-0.6-0.2c-0.2-0.1-0.3-0.3-0.3-0.5h0c-0.1,0.3-0.2,0.4-0.5,0.6
		c-0.2,0.1-0.4,0.1-0.7,0.1c-0.2,0-0.3-0.1-0.5-0.2c-0.1-0.1-0.3-0.2-0.4-0.3c-0.1-0.1-0.2-0.3-0.2-0.5c0-0.2-0.1-0.4,0-0.6l0.3-2.1
		l4.4,0.6L21.8,58.1z M17.8,58c0,0.3,0,0.5,0.1,0.6c0.1,0.2,0.3,0.2,0.6,0.3c0.1,0,0.3,0,0.4,0c0.1,0,0.2-0.1,0.3-0.2
		c0.1-0.1,0.1-0.2,0.2-0.3c0-0.1,0.1-0.2,0.1-0.3l0.2-1.3L18,56.6L17.8,58z M19.9,58c0,0.3,0,0.6,0.1,0.7c0.1,0.2,0.3,0.3,0.5,0.3
		c0.2,0,0.3,0,0.4,0c0.1,0,0.2-0.1,0.2-0.2c0.1-0.1,0.1-0.2,0.1-0.3c0-0.1,0.1-0.2,0.1-0.3l0.2-1.1l-1.4-0.2L19.9,58z"/>
	<path class="st5" d="M21.6,63.6c0,0.7-0.1,1.2-0.4,1.6c-0.3,0.4-0.8,0.6-1.6,0.6c-0.4,0-0.7,0-1-0.1c-0.3-0.1-0.5-0.2-0.7-0.3
		c-0.2-0.2-0.4-0.4-0.5-0.6c-0.1-0.3-0.2-0.6-0.2-0.9l-0.1-1.5l4.5-0.3L21.6,63.6z M17.6,63.9c0,0.1,0,0.1,0,0.2
		c0,0.1,0,0.2,0.1,0.3c0,0.1,0.1,0.2,0.2,0.3c0.1,0.1,0.2,0.2,0.3,0.3c0.1,0.1,0.3,0.1,0.5,0.2c0.2,0.1,0.4,0.1,0.7,0
		c0.3,0,0.5-0.1,0.7-0.1c0.2-0.1,0.4-0.2,0.5-0.3c0.1-0.1,0.2-0.3,0.3-0.5c0.1-0.2,0.1-0.4,0.1-0.7l-0.1-1l-3.5,0.2L17.6,63.9z"/>
	<polygon class="st5" points="22.4,69.1 21.9,69.2 21.4,66.8 20,67.1 20.5,69.3 20,69.4 19.6,67.2 18,67.5 18.5,69.9 18,70 17.4,67 
		21.8,66.2 	"/>
	<path class="st5" d="M23.1,71.4c0.1,0.4,0.1,0.8,0,1c-0.1,0.3-0.4,0.5-0.8,0.6c-0.4,0.1-0.7,0.1-1,0c-0.3-0.1-0.5-0.4-0.6-0.8
		L20.2,71l-1.7,0.6l-0.2-0.5l4.2-1.4L23.1,71.4z M21,71.9c0.1,0.3,0.2,0.5,0.4,0.6c0.2,0.1,0.4,0.1,0.7,0c0.2-0.1,0.4-0.2,0.5-0.4
		c0.1-0.2,0.1-0.4,0-0.7l-0.4-1.1l-1.6,0.5L21,71.9z"/>
	<path class="st5" d="M22.5,73.7c0.3-0.1,0.6,0,0.8,0c0.3,0.1,0.5,0.2,0.8,0.3c0.2,0.2,0.4,0.4,0.6,0.7c0.2,0.3,0.2,0.6,0.2,0.9
		c0,0.3-0.1,0.6-0.2,0.8c-0.1,0.3-0.3,0.5-0.5,0.7c-0.2,0.2-0.5,0.4-0.7,0.5c-0.3,0.1-0.6,0.2-0.9,0.3c-0.3,0-0.6,0-0.8,0
		c-0.3-0.1-0.5-0.2-0.7-0.3c-0.2-0.2-0.4-0.4-0.6-0.7c-0.2-0.3-0.2-0.6-0.2-0.9c0-0.3,0.1-0.6,0.2-0.8c0.1-0.3,0.3-0.5,0.5-0.7
		c0.2-0.2,0.5-0.4,0.7-0.5C21.9,73.8,22.2,73.7,22.5,73.7 M21.3,74.9c-0.2,0.1-0.3,0.3-0.4,0.5c-0.1,0.2-0.2,0.4-0.2,0.6
		c0,0.2,0,0.5,0.2,0.7c0.1,0.2,0.3,0.4,0.4,0.5c0.2,0.1,0.4,0.2,0.6,0.2c0.2,0,0.4,0,0.6,0c0.2,0,0.4-0.1,0.6-0.2
		c0.2-0.1,0.4-0.2,0.6-0.4c0.2-0.1,0.3-0.3,0.4-0.5c0.1-0.2,0.2-0.4,0.2-0.6c0-0.2,0-0.4-0.2-0.7c-0.1-0.2-0.3-0.4-0.4-0.5
		c-0.2-0.1-0.4-0.2-0.6-0.2c-0.2,0-0.4,0-0.6,0c-0.2,0.1-0.4,0.1-0.6,0.2C21.7,74.6,21.5,74.7,21.3,74.9"/>
	<path class="st5" d="M26.9,78.7c0.2,0.3,0.3,0.7,0.3,1c0,0.3-0.2,0.6-0.5,0.8c-0.2,0.2-0.4,0.2-0.7,0.3c-0.2,0-0.5-0.1-0.7-0.2l0,0
		c0,0.1,0.1,0.2,0.1,0.3c0,0.1,0,0.2-0.1,0.3c0,0.1-0.1,0.2-0.2,0.2c-0.1,0.1-0.1,0.1-0.2,0.2c-0.1,0.1-0.2,0.1-0.3,0.2
		c-0.1,0.1-0.2,0.1-0.3,0.2c-0.1,0.1-0.2,0.2-0.2,0.2c-0.1,0.1-0.1,0.2-0.1,0.3L23.8,82c0-0.1,0-0.1,0.1-0.2
		c0.1-0.1,0.1-0.1,0.2-0.2c0.1-0.1,0.2-0.1,0.3-0.2c0.1-0.1,0.2-0.1,0.3-0.2c0.1-0.1,0.1-0.2,0.2-0.2c0.1-0.1,0.1-0.2,0.1-0.2
		c0-0.1,0-0.2,0-0.3c0-0.1-0.1-0.2-0.1-0.3L24,79l-1.6,1.1l-0.3-0.5l3.7-2.6L26.9,78.7z M25.4,80c0.1,0.1,0.2,0.1,0.3,0.2
		c0.1,0,0.2,0,0.3,0c0.1,0,0.2-0.1,0.4-0.2c0.2-0.1,0.3-0.3,0.4-0.5c0-0.2,0-0.4-0.2-0.6l-0.8-1.2l-1.3,0.9l0.7,1
		C25.2,79.8,25.3,79.9,25.4,80"/>
	<polygon class="st5" points="27.4,80.2 27.7,79.9 30.1,82.4 29.7,82.8 28.7,81.7 25.8,84.4 25.4,83.9 28.3,81.3 	"/>
	<polygon class="st5" points="30.8,83.1 27.7,86.3 27.3,85.9 30.4,82.7 	"/>
	<polygon class="st5" points="29.5,87.8 31.1,83.4 31.5,83.8 30.1,87.6 30.1,87.6 33.5,85.3 34,85.7 30,88.2 	"/>
	<path class="st5" d="M33.4,86.9c0.2-0.2,0.5-0.3,0.7-0.5c0.3-0.1,0.5-0.1,0.8-0.1c0.3,0,0.6,0.1,0.9,0.3c0.3,0.2,0.5,0.4,0.7,0.6
		c0.2,0.2,0.3,0.5,0.3,0.8c0,0.3,0,0.6,0,0.8c-0.1,0.3-0.2,0.6-0.3,0.8c-0.2,0.3-0.3,0.5-0.6,0.7c-0.2,0.2-0.5,0.4-0.7,0.5
		C34.9,91,34.7,91,34.4,91c-0.3,0-0.6-0.1-0.9-0.3c-0.3-0.2-0.5-0.4-0.7-0.6c-0.2-0.2-0.3-0.5-0.3-0.8c0-0.3,0-0.5,0-0.8
		c0.1-0.3,0.2-0.6,0.3-0.8C33,87.4,33.2,87.1,33.4,86.9 M33.1,88.5c-0.1,0.2-0.1,0.4-0.1,0.7c0,0.2,0.1,0.4,0.2,0.6
		c0.1,0.2,0.3,0.3,0.5,0.5c0.2,0.1,0.5,0.2,0.7,0.2c0.2,0,0.4,0,0.6-0.1c0.2-0.1,0.4-0.2,0.5-0.4c0.2-0.2,0.3-0.3,0.4-0.5
		c0.1-0.2,0.2-0.4,0.3-0.6c0.1-0.2,0.1-0.4,0.1-0.6c0-0.2-0.1-0.4-0.2-0.6c-0.1-0.2-0.3-0.3-0.5-0.5c-0.2-0.1-0.5-0.2-0.7-0.2
		c-0.2,0-0.4,0-0.6,0.1c-0.2,0.1-0.4,0.2-0.5,0.4c-0.2,0.2-0.3,0.3-0.4,0.5C33.3,88.1,33.2,88.3,33.1,88.5"/>
	<path class="st5" d="M40.7,93.6c-0.3,0-0.5,0-0.8-0.1c-0.3-0.1-0.6-0.2-0.8-0.4c-0.2-0.2-0.4-0.4-0.5-0.7c-0.1-0.3-0.2-0.5-0.2-0.8
		c0-0.3,0-0.6,0.1-0.8c0.1-0.3,0.2-0.6,0.4-0.8c0.2-0.3,0.4-0.5,0.6-0.6c0.2-0.2,0.5-0.3,0.8-0.3c0.3,0,0.6,0,0.9,0.1
		c0.2,0.1,0.4,0.2,0.6,0.3c0.2,0.1,0.3,0.3,0.4,0.4c0.1,0.2,0.2,0.4,0.3,0.6c0,0.2,0.1,0.4,0,0.7l-0.6-0.2c0-0.2,0-0.3,0-0.5
		c0-0.1-0.1-0.3-0.2-0.4c-0.1-0.1-0.2-0.2-0.3-0.3c-0.1-0.1-0.3-0.1-0.4-0.2c-0.2-0.1-0.5-0.1-0.7-0.1c-0.2,0-0.4,0.1-0.6,0.3
		c-0.2,0.1-0.3,0.3-0.4,0.5c-0.1,0.2-0.2,0.4-0.3,0.6c-0.1,0.2-0.1,0.5-0.1,0.7c0,0.2,0,0.4,0.1,0.6c0.1,0.2,0.2,0.4,0.3,0.5
		c0.1,0.1,0.3,0.3,0.6,0.3c0.2,0.1,0.4,0.1,0.6,0.1c0.2,0,0.4-0.1,0.5-0.2c0.2-0.1,0.3-0.2,0.4-0.4c0.1-0.1,0.2-0.3,0.2-0.5
		l-1.3-0.4l0.2-0.5l1.8,0.6L41.7,94l-0.3-0.1l0-0.6C41.2,93.5,40.9,93.6,40.7,93.6"/>
	<path class="st5" d="M46,94.5c-0.3,0.2-0.8,0.3-1.3,0.2c-0.6-0.1-1-0.3-1.2-0.6c-0.3-0.3-0.4-0.8-0.3-1.4l0.5-2.8l0.6,0.1l-0.5,2.8
		c-0.1,0.4,0,0.7,0.2,0.9c0.2,0.2,0.4,0.4,0.8,0.5c0.4,0.1,0.7,0,0.9-0.2c0.2-0.2,0.4-0.5,0.4-0.8l0.5-2.8l0.6,0.1l-0.5,2.8
		C46.6,93.8,46.4,94.2,46,94.5"/>
	<path class="st5" d="M49.7,90.5l1.6,4.5l-0.6,0l-0.4-1.4l-1.8,0L47.8,95l-0.6,0l1.8-4.4L49.7,90.5z M50,93.2l-0.7-2.1h0l-0.8,2.1
		L50,93.2z"/>
	<path class="st5" d="M53.1,90.4c0.7-0.1,1.2,0,1.6,0.3c0.4,0.3,0.6,0.8,0.7,1.5c0,0.4,0,0.7,0,1c-0.1,0.3-0.1,0.6-0.3,0.8
		c-0.2,0.2-0.3,0.4-0.6,0.5c-0.2,0.1-0.5,0.2-0.9,0.3L52.1,95l-0.5-4.4L53.1,90.4z M53.6,94.3c0.1,0,0.1,0,0.2,0
		c0.1,0,0.2-0.1,0.3-0.1c0.1,0,0.2-0.1,0.3-0.2c0.1-0.1,0.2-0.2,0.3-0.3c0.1-0.1,0.1-0.3,0.2-0.5c0-0.2,0-0.4,0-0.7
		c0-0.3-0.1-0.5-0.2-0.7c-0.1-0.2-0.2-0.4-0.3-0.5c-0.1-0.1-0.3-0.2-0.5-0.3c-0.2-0.1-0.4-0.1-0.7,0l-1,0.1l0.4,3.4L53.6,94.3z"/>
	<path class="st5" d="M57.4,89.6l2.7,3.9l-0.6,0.2l-0.8-1.2L57,92.9l-0.1,1.4l-0.6,0.1l0.5-4.7L57.4,89.6z M58.5,92l-1.2-1.8l0,0
		L57,92.4L58.5,92z"/>
	<polygon class="st5" points="59.8,88.8 61.3,92.5 63.4,91.7 63.6,92.2 60.9,93.2 59.3,89 	"/>
	<path class="st5" d="M63.9,87l3.6,3.1l-0.6,0.3l-1.1-1l-1.6,0.9l0.2,1.4L64,92l-0.7-4.7L63.9,87z M65.5,89.1l-1.6-1.5l0,0l0.3,2.2
		L65.5,89.1z"/>
	<path class="st5" d="M69.5,87.9c0,0.1,0.1,0.3,0.1,0.4c0,0.2-0.1,0.3-0.2,0.5c-0.1,0.2-0.2,0.3-0.4,0.4c-0.3,0.2-0.7,0.3-1,0.3
		c-0.3-0.1-0.6-0.3-0.8-0.6L67,88.6l0.5-0.3l0.1,0.2c0.1,0.1,0.2,0.2,0.2,0.3c0.1,0.1,0.2,0.1,0.2,0.2c0.1,0,0.2,0,0.3,0
		c0.1,0,0.2-0.1,0.3-0.1c0.2-0.2,0.3-0.3,0.3-0.5c0-0.2-0.1-0.4-0.2-0.6l-1.9-2.7l0.5-0.3l1.9,2.7C69.4,87.6,69.4,87.7,69.5,87.9"/>
	<path class="st5" d="M69.3,83l4.2,2.2l-0.5,0.4L71.8,85l-1.4,1.2l0.5,1.3l-0.4,0.4l-1.7-4.5L69.3,83z M71.4,84.7l-1.9-1.1l0,0
		l0.8,2L71.4,84.7z"/>
	<path class="st5" d="M72,80.2c0.3-0.3,0.6-0.5,0.9-0.5c0.3,0,0.6,0.1,0.9,0.3c0.2,0.2,0.3,0.4,0.4,0.6c0.1,0.2,0.1,0.5-0.1,0.7l0,0
		c0.1-0.1,0.2-0.1,0.3-0.2c0.1,0,0.2,0,0.3,0c0.1,0,0.2,0.1,0.3,0.1c0.1,0,0.2,0.1,0.3,0.2c0.1,0.1,0.2,0.1,0.3,0.2
		c0.1,0.1,0.2,0.1,0.3,0.2c0.1,0.1,0.2,0.1,0.3,0.1c0.1,0,0.2,0.1,0.3,0.1L76,82.4c-0.1,0-0.1,0-0.2-0.1c-0.1,0-0.1-0.1-0.2-0.2
		c-0.1-0.1-0.2-0.1-0.2-0.2c-0.1-0.1-0.2-0.1-0.3-0.2c-0.1-0.1-0.2-0.1-0.3-0.2c-0.1,0-0.2-0.1-0.3-0.1c-0.1,0-0.2,0-0.3,0.1
		c-0.1,0-0.2,0.1-0.3,0.2l-0.9,1.1l1.5,1.2l-0.4,0.4l-3.4-2.9L72,80.2z M73.7,81.4c0.1-0.1,0.1-0.2,0.1-0.3c0-0.1,0-0.2,0-0.3
		c0-0.1-0.1-0.2-0.3-0.3c-0.2-0.1-0.3-0.2-0.5-0.2c-0.2,0-0.4,0.1-0.5,0.3l-0.9,1.1l1.2,1l0.8-0.9C73.5,81.6,73.6,81.5,73.7,81.4"/>
	<path class="st5" d="M74.2,77.1l4.7,1l-0.3,0.5l-1.4-0.3l-1,1.5l0.9,1.1l-0.3,0.5l-2.9-3.8L74.2,77.1z M76.7,78.2l-2.1-0.5l0,0
		l1.4,1.7L76.7,78.2z"/>
	<path class="st5" d="M77.3,72.2c-0.2,0.1-0.4,0.3-0.5,0.6c0,0.1-0.1,0.2-0.1,0.3c0,0.1,0,0.2,0,0.3c0,0.1,0.1,0.2,0.1,0.3
		c0.1,0.1,0.2,0.2,0.3,0.2c0.1,0.1,0.2,0.1,0.4,0c0.1,0,0.2-0.1,0.3-0.2c0.1-0.1,0.2-0.2,0.3-0.4c0.1-0.1,0.2-0.3,0.3-0.4
		c0.1-0.1,0.2-0.3,0.3-0.4c0.1-0.1,0.2-0.2,0.4-0.3c0.1-0.1,0.3-0.1,0.5-0.2c0.2,0,0.3,0,0.6,0.1c0.2,0.1,0.4,0.2,0.5,0.4
		c0.1,0.2,0.2,0.3,0.2,0.5c0,0.2,0,0.4,0,0.6c0,0.2-0.1,0.4-0.2,0.6c-0.1,0.2-0.2,0.4-0.3,0.6c-0.1,0.2-0.3,0.3-0.5,0.4
		c-0.2,0.1-0.4,0.2-0.6,0.2c-0.2,0-0.5,0-0.7-0.1l0.2-0.5c0.2,0.1,0.3,0.1,0.5,0.1c0.2,0,0.3-0.1,0.4-0.1c0.1-0.1,0.2-0.2,0.3-0.3
		c0.1-0.1,0.2-0.3,0.2-0.4c0.1-0.1,0.1-0.2,0.1-0.4c0-0.1,0-0.3,0-0.4c0-0.1-0.1-0.2-0.1-0.3c-0.1-0.1-0.2-0.2-0.3-0.2
		c-0.1-0.1-0.3-0.1-0.4,0c-0.1,0-0.2,0.1-0.3,0.2c-0.1,0.1-0.2,0.2-0.3,0.4c-0.1,0.1-0.2,0.3-0.3,0.4c-0.1,0.1-0.2,0.3-0.3,0.4
		c-0.1,0.1-0.2,0.2-0.3,0.3c-0.1,0.1-0.3,0.1-0.4,0.2c-0.2,0-0.3,0-0.5-0.1c-0.2-0.1-0.4-0.2-0.5-0.3c-0.1-0.1-0.2-0.3-0.2-0.5
		c0-0.2-0.1-0.4,0-0.6c0-0.2,0.1-0.4,0.1-0.6c0.1-0.2,0.2-0.4,0.3-0.5c0.1-0.2,0.3-0.3,0.4-0.4c0.2-0.1,0.3-0.1,0.5-0.1
		c0.2,0,0.4,0,0.6,0.1l-0.2,0.5C77.8,72.1,77.5,72.1,77.3,72.2"/>
	<polygon class="st5" points="81,71.3 81.6,71.5 81.4,72.2 80.8,72 	"/>
	<path class="st5" d="M78,67.6l4.7-0.7l-0.1,0.6l-1.4,0.2l-0.4,1.8l1.2,0.8l-0.1,0.6l-4-2.6L78,67.6z M80.6,67.8l-2.2,0.3v0l1.9,1.1
		L80.6,67.8z"/>
	<polygon class="st5" points="82.1,65.7 82.8,65.7 82.7,66.4 82,66.3 	"/>
	<path class="st5" d="M78.5,61.3c0-0.7,0.1-1.2,0.5-1.6c0.3-0.4,0.9-0.6,1.6-0.6c0.4,0,0.7,0,1,0.1c0.3,0.1,0.5,0.2,0.7,0.3
		c0.2,0.2,0.4,0.4,0.5,0.6c0.1,0.3,0.2,0.6,0.2,0.9l0,1.5l-4.5,0.1L78.5,61.3z M82.5,61.1c0-0.1,0-0.2,0-0.2c0-0.1,0-0.2-0.1-0.3
		c0-0.1-0.1-0.2-0.2-0.3C82.1,60.1,82,60,81.9,60c-0.1-0.1-0.3-0.1-0.5-0.2c-0.2,0-0.4-0.1-0.7-0.1c-0.3,0-0.5,0-0.7,0.1
		c-0.2,0.1-0.4,0.1-0.5,0.3c-0.1,0.1-0.3,0.3-0.3,0.5C79,60.7,79,60.9,79,61.2l0,1l3.5-0.1L82.5,61.1z"/>
	<polygon class="st5" points="77.9,55.7 78.4,55.7 78.8,58 80.2,57.8 79.8,55.6 80.3,55.5 80.7,57.7 82.2,57.5 81.8,55.1 82.3,55 
		82.8,57.9 78.4,58.7 	"/>
	<path class="st5" d="M77,51c-0.1,0.3-0.1,0.5,0.1,0.8c0.1,0.2,0.2,0.4,0.4,0.6c0.2,0.1,0.3,0.2,0.5,0.3c0.2,0,0.4,0.1,0.6,0
		c0.2,0,0.5-0.1,0.7-0.2c0.2-0.1,0.5-0.2,0.6-0.3c0.2-0.1,0.3-0.3,0.5-0.5c0.1-0.2,0.2-0.4,0.2-0.6c0-0.2,0-0.4-0.1-0.7
		c-0.1-0.2-0.2-0.3-0.3-0.4c-0.1-0.1-0.2-0.2-0.4-0.3c-0.1-0.1-0.3-0.1-0.5-0.1c-0.2,0-0.3,0-0.5,0.1l-0.2-0.5
		c0.6-0.1,1-0.1,1.4,0.1c0.4,0.2,0.7,0.5,0.9,1.1c0.1,0.3,0.2,0.6,0.1,0.9c0,0.3-0.1,0.5-0.2,0.8c-0.1,0.2-0.3,0.4-0.6,0.6
		c-0.2,0.2-0.5,0.3-0.8,0.4c-0.3,0.1-0.6,0.2-0.9,0.2c-0.3,0-0.6,0-0.8-0.1c-0.3-0.1-0.5-0.2-0.7-0.4c-0.2-0.2-0.4-0.5-0.5-0.8
		c-0.1-0.2-0.1-0.4-0.1-0.6c0-0.2,0-0.4,0.1-0.6c0.1-0.2,0.2-0.4,0.3-0.5c0.1-0.2,0.3-0.3,0.5-0.4l0.2,0.5
		C77.2,50.5,77.1,50.7,77,51"/>
	<polygon class="st5" points="79.1,48 79.7,47.7 80,48.3 79.3,48.6 	"/>
	<polygon class="st5" points="78.6,45.6 75.5,49.2 75.2,48.7 77.9,45.6 77.9,45.6 73.9,46.5 73.6,46 78.3,45 	"/>
	<polygon class="st5" points="76.9,44.2 77.4,43.8 77.8,44.4 77.2,44.7 	"/>
</g>
</svg>
