<?xml version="1.0" encoding="utf-8"?>
<!-- Generator: Adobe Illustrator 19.2.1, SVG Export Plug-In . SVG Version: 6.00 Build 0)  -->
<svg version="1.1" id="Capa_1" xmlns="http://www.w3.org/2000/svg" xmlns:xlink="http://www.w3.org/1999/xlink" x="0px" y="0px"
	 viewBox="0 0 100 100" style="enable-background:new 0 0 100 100;" xml:space="preserve">
<style type="text/css">
	.st0{fill:url(#path34_4_);}
	.st1{fill:url(#path890_1_);}
	.st2{fill:#FFE500;stroke:#000000;stroke-width:2.098;stroke-miterlimit:3.863;}
	.st3{fill:#DA020E;}
	.st4{fill:#FFE500;}
	.st5{clip-path:url(#SVGID_2_);}
	.st6{fill:none;stroke:#B54005;stroke-width:10;stroke-miterlimit:3.863;}
	.st7{fill:url(#path7506_1_);}
	.st8{fill:url(#path8794_1_);}
	.st9{fill:url(#path15846_1_);}
	.st10{fill:url(#path16274_1_);}
	.st11{fill:url(#path39821_1_);}
	.st12{fill:url(#path39847_1_);}
	.st13{fill:url(#path39878_1_);}
	.st14{fill:url(#path39888_1_);}
	.st15{fill:url(#path41035_1_);}
	.st16{fill:url(#path9646-8_1_);}
	.st17{fill:url(#path41092_1_);}
	.st18{fill:url(#path41094_1_);}
	.st19{fill:none;stroke:#000000;stroke-width:2.098;stroke-miterlimit:3.863;}
	.st20{fill:url(#path41152_1_);}
	.st21{fill:url(#path39854_1_);}
	.st22{fill:url(#path39874_1_);}
	.st23{fill:#9C824A;stroke:#9C824A;stroke-width:0.793;stroke-miterlimit:282;}
	.st24{fill:#023474;stroke:#023474;stroke-width:0.793;stroke-miterlimit:282;}
	.st25{fill:#FFFFFF;stroke:#FFFFFF;stroke-width:0.793;stroke-miterlimit:282;}
	.st26{fill:#EF0107;stroke:#EF0107;stroke-width:0.793;stroke-miterlimit:282;}
	.st27{fill:#DB0007;stroke:#DB0007;stroke-width:0.793;stroke-miterlimit:282;}
	.st28{fill:#FFFFFF;}
	.st29{fill:#9C824A;}
	.st30{fill:#EF0107;stroke:#EF0107;stroke-width:0.3115;stroke-miterlimit:282;}
	.st31{fill:#DB0007;stroke:#DB0007;stroke-width:0.3115;stroke-miterlimit:282;}
	.st32{fill:#DB0007;}
	.st33{fill:#FFFFFF;stroke:#FFFFFF;stroke-width:0.3115;stroke-miterlimit:282;}
	.st34{fill:#FFFFFF;stroke:#FFFFFF;stroke-width:0.554;stroke-miterlimit:3.864;}
	.st35{fill:#231F20;}
	.st36{fill:#00B6F1;stroke:#00B6F1;stroke-width:1.700000e-02;stroke-miterlimit:3.864;}
	.st37{fill:#EF3E2E;}
	.st38{fill:#BBBDBF;}
	.st39{fill:#F0B83D;}
	.st40{fill:#00B6F1;stroke:#FFFFFF;stroke-width:1.700000e-02;stroke-miterlimit:3.864;}
	.st41{fill:#001C58;}
	.st42{fill:#94BEE5;}
	.st43{fill:none;stroke:#7A003C;stroke-width:2.2437;stroke-miterlimit:6;}
	.st44{fill:#7A003C;}
	.st45{fill:#FFE600;}
	.st46{fill:#DBA111;}
	.st47{fill:#034694;}
	.st48{fill:#D1D3D4;}
	.st49{fill:#ED1C24;}
	.st50{fill:#6A7AB5;}
	.st51{fill:none;}
	.st52{fill:#274488;}
	.st53{fill:#004798;stroke:#004798;stroke-width:9.375000e-02;}
	.st54{fill:#FFFFFF;stroke:#FFFFFF;stroke-width:9.375000e-02;}
	.st55{fill:#FABC00;stroke:#FABC00;stroke-width:9.375000e-02;}
	.st56{fill:none;stroke:#FFFFFF;stroke-width:7.865;stroke-miterlimit:3.864;}
	.st57{fill:none;stroke:#FFFFFF;stroke-width:7.865;stroke-miterlimit:12;}
	.st58{fill:none;stroke:#FFFFFF;stroke-width:7.865;stroke-miterlimit:22;}
	.st59{fill:none;stroke:#FFFFFF;stroke-width:7.865;stroke-miterlimit:6;}
	.st60{fill:#00A398;}
	.st61{fill:#D00027;}
	.st62{fill:none;stroke:#FFFFFF;stroke-width:17.3907;stroke-miterlimit:3.864;}
	.st63{fill:none;stroke:#FFFFFF;stroke-width:13.1107;stroke-miterlimit:3.864;}
	.st64{fill:#FEF667;}
	.st65{fill:#D00027;stroke:#D00027;}
	.st66{fill:#5299C6;}
	.st67{fill:#60223B;}
	.st68{fill:#F7C240;}
	.st69{fill:#292D6B;}
	.st70{fill:#1B458F;}
	.st71{fill:#C4122E;}
	.st72{fill:#27409B;}
	.st73{clip-path:url(#SVGID_4_);}
	.st74{fill:#F4F4F4;}
	.st75{fill:#D3D2D2;}
	.st76{fill:#A7A5A6;}
	.st77{fill:#091453;}
	.st78{fill:none;stroke:#FFFFFF;stroke-width:6.6301;}
	.st79{clip-path:url(#SVGID_6_);}
	.st80{fill:#724314;}
	.st81{fill:#240B08;}
	.st82{fill:#018B4B;}
	.st83{fill:#A6181D;}
	.st84{fill:#592D09;}
	.st85{fill:#FFCE65;}
	.st86{fill:#5CBFEB;}
	.st87{fill:none;stroke:#000000;stroke-width:10;}
	.st88{fill:none;stroke:#000000;}
	.st89{fill:#B2B2B2;}
	.st90{fill:none;stroke:#000000;stroke-width:0.3;}
	.st91{fill:#00A650;stroke:#000000;stroke-width:2;}
	.st92{fill:#241F20;stroke:#241F20;stroke-width:9.375000e-02;}
	.st93{fill:#FFF200;stroke:#FFF200;stroke-width:9.375000e-02;}
	.st94{fill:#A68A26;}
	.st95{fill:none;stroke:#A68A26;stroke-width:4.792100e-02;stroke-miterlimit:3.8637;}
	.st96{fill:#211E1E;}
	.st97{fill:none;stroke:#211E1E;stroke-width:4.792100e-02;stroke-miterlimit:3.8637;}
	.st98{fill:#EB172B;}
	.st99{fill:none;stroke:#EB172B;stroke-width:4.792100e-02;stroke-miterlimit:3.8637;}
	.st100{fill:#A68A26;stroke:#A68A26;stroke-width:4.792100e-02;stroke-miterlimit:3.8637;}
	.st101{fill:#D1BF7F;}
	.st102{fill:none;stroke:#D1BF7F;stroke-width:4.792100e-02;stroke-miterlimit:3.8637;}
	.st103{fill:none;stroke:#FFFFFF;stroke-width:4.792100e-02;stroke-miterlimit:3.8637;}
	.st104{fill:#EB172B;stroke:#EB172B;stroke-width:4.792100e-02;stroke-miterlimit:3.8637;}
	.st105{fill:#ED2127;}
	.st106{fill:#FBEE23;}
	.st107{stroke:#000000;}
	.st108{fill:#CF1F44;}
	.st109{fill:#1B449C;}
	.st110{fill:#E03A3E;}
	.st111{fill:#E03A3E;stroke:#E03A3E;stroke-width:0.6565;}
	.st112{fill:none;stroke:#1B449C;stroke-width:0.7493;}
	.st113{fill:none;stroke:#1B449C;stroke-width:0.7567;}
	.st114{fill:#1B449C;stroke:#1B449C;stroke-width:0.6274;}
	.st115{fill:#1B449C;stroke:#1B449C;stroke-width:0.6755;}
	.st116{fill:#2E6ABD;stroke:#2E6ABD;stroke-width:0.617;}
	.st117{fill:#FFFFFF;stroke:#FFFFFF;stroke-width:0.6175;}
	.st118{fill:#ED1248;}
	.st119{fill:#2E6ABD;}
	.st120{fill:#FDE100;}
	.st121{fill:#CC0000;}
	.st122{fill:#211E1F;}
	.st123{fill:#ED1A3B;}
	.st124{fill:#00AEEF;}
	.st125{fill:#FFC40D;}
	.st126{fill:#22B24C;}
	.st127{fill:#FFC20E;}
	.st128{fill:#0A3F86;}
	.st129{fill:#005CA9;}
	.st130{fill:#FFE000;}
	.st131{fill:#E2001A;}
	.st132{opacity:0;}
	.st133{opacity:0;fill:#FFFFFF;}
	.st134{fill:#FFFFFF;stroke:#000000;}
	.st135{fill:#0060A9;}
	.st136{fill:#E32219;}
	.st137{fill:#FFED00;}
	.st138{fill:#1D9053;}
	.st139{fill:#52A600;}
	.st140{fill:#EE2523;}
	.st141{fill:#F7D117;}
	.st142{fill:#171796;}
	.st143{fill:#009959;}
	.st144{fill:#D42E12;}
	.st145{fill:#703824;}
	.st146{fill:#E5254E;}
	.st147{fill:#8AC3EE;}
	.st148{fill:#B19221;}
	.st149{fill:#F5C03E;}
	.st150{fill:#FF1119;}
	.st151{fill:#1E6BC0;}
	.st152{fill:#B4742A;}
	.st153{fill:#371B02;}
	.st154{fill:url(#SVGID_7_);}
	.st155{fill:url(#SVGID_8_);}
	.st156{fill:url(#SVGID_9_);}
	.st157{fill:url(#SVGID_10_);}
	.st158{fill:url(#SVGID_11_);}
	.st159{fill:url(#SVGID_12_);}
	.st160{fill:url(#SVGID_13_);}
	.st161{fill:url(#SVGID_14_);}
	.st162{fill:url(#SVGID_15_);}
	.st163{fill:url(#SVGID_16_);}
	.st164{fill:#EB2626;}
	.st165{fill:#E9C32C;}
	.st166{fill:#D9D9D9;}
	.st167{fill:#009C5E;}
	.st168{fill:#1C75BC;}
	.st169{fill:#611D5C;}
	.st170{fill:#E2B900;}
	.st171{fill:#004B95;}
	.st172{fill:#A4234B;}
	.st173{fill:#DB2F36;}
	.st174{fill:#FFDF00;}
	.st175{fill:#A38D44;}
	.st176{fill:#57175E;}
	.st177{fill:#AFDCFD;}
	.st178{fill:#0090C6;}
	.st179{fill:#DB5232;}
	.st180{fill:#23C1E0;}
	.st181{fill:#F1A92A;}
	.st182{fill:#167FB6;}
	.st183{fill:#FED75D;}
	.st184{fill:#378CBF;}
	.st185{fill:#3E9692;}
	.st186{fill:#E67F29;}
	.st187{fill:#D8B43C;}
	.st188{fill:#EF3B33;}
	.st189{fill:#24923D;}
	.st190{opacity:6.000001e-02;fill:#101010;enable-background:new    ;}
	.st191{fill:#00529F;}
	.st192{fill:#EE324E;}
	.st193{fill:#FEBE10;}
	.st194{fill:#143C8B;}
	.st195{fill:#FFE24A;}
	.st196{fill:#EC1D24;}
	.st197{fill:#E6A514;}
	.st198{fill:#FFDF1C;}
	.st199{fill:#EE3524;}
	.st200{fill:#B23428;}
	.st201{fill:#D18816;}
	.st202{fill:#0097D7;}
	.st203{fill:#ED1C23;}
	.st204{fill:#E30613;}
	.st205{fill:#FFE400;}
	.st206{fill:#C51A1B;}
	.st207{clip-path:url(#SVGID_19_);}
	.st208{clip-path:url(#SVGID_20_);fill:none;stroke:#000000;stroke-width:0.8131;stroke-miterlimit:3.864;}
	.st209{fill:#0093D5;}
	.st210{fill:#004B9D;}
	.st211{fill:#FCC24F;}
	.st212{fill:#009545;}
	.st213{fill:#0072BB;}
	.st214{fill:#C4974E;}
	.st215{fill:url(#path1292_1_);}
	.st216{fill:#004996;}
	.st217{fill:#FFE667;}
	.st218{fill:none;stroke:#005187;stroke-width:0.153;stroke-miterlimit:3.864;}
	.st219{fill:#005187;}
	.st220{clip-path:url(#SVGID_22_);}
	.st221{clip-path:url(#SVGID_24_);fill:none;stroke:#000000;stroke-width:0.296;stroke-miterlimit:3.864;}
	.st222{clip-path:url(#SVGID_26_);fill:#FFE667;}
	.st223{clip-path:url(#SVGID_28_);fill:none;stroke:#000000;stroke-width:8.300000e-02;stroke-miterlimit:3.864;}
	.st224{fill:none;stroke:#000000;stroke-width:0.153;stroke-miterlimit:3.864;}
	.st225{clip-path:url(#SVGID_30_);fill:#E70005;}
	.st226{clip-path:url(#SVGID_32_);fill:none;stroke:#E70005;stroke-width:0.296;stroke-miterlimit:3.864;}
	.st227{clip-path:url(#SVGID_34_);fill:#E70005;}
	.st228{clip-path:url(#SVGID_36_);fill:none;stroke:#E70005;stroke-width:0.296;stroke-miterlimit:3.864;}
	.st229{clip-path:url(#SVGID_38_);fill:#E70005;}
	.st230{clip-path:url(#SVGID_40_);fill:none;stroke:#E70005;stroke-width:0.296;stroke-miterlimit:3.864;}
	.st231{clip-path:url(#SVGID_42_);fill:#E70005;}
	.st232{clip-path:url(#SVGID_44_);fill:none;stroke:#E70005;stroke-width:0.296;stroke-miterlimit:3.864;}
	.st233{fill:#E70005;}
	.st234{fill:none;stroke:#000000;stroke-width:0.141;stroke-miterlimit:3.864;}
	.st235{fill:#00276D;}
	.st236{fill:#C49308;}
	.st237{fill:#179D33;}
	.st238{fill:#999999;}
	.st239{fill:#FF0000;}
	.st240{fill:#E31837;}
	.st241{fill:#06357A;}
	.st242{fill:#B4053F;}
	.st243{fill:#DCA43E;}
	.st244{fill:#005CA5;}
	.st245{fill:#FAC400;}
	.st246{fill:#004083;}
	.st247{fill:#A95932;}
	.st248{fill:none;stroke:#000000;stroke-width:1.2215;}
	.st249{fill:#E62627;}
	.st250{fill:#00458C;}
	.st251{fill:#E11B22;}
	.st252{fill:#00AB4E;}
	.st253{fill:#F47920;}
	.st254{fill:#C7C8CA;}
	.st255{fill:#E11515;}
	.st256{fill:#A4965F;}
	.st257{fill:#E51636;}
	.st258{fill:#EACC00;}
	.st259{fill:#4F846B;}
	.st260{fill:#E22227;}
	.st261{fill:#FAE700;}
	.st262{fill:url(#SVGID_45_);}
	.st263{fill:#666666;}
	.st264{fill:#FFF200;}
	.st265{fill:#00275D;}
	.st266{fill:#EF3E33;}
	.st267{fill:none;stroke:#00275D;stroke-width:2.632;}
	.st268{fill:#3F7652;}
	.st269{fill:#F1D261;}
	.st270{fill:#004D8F;}
	.st271{fill:#E7B137;stroke:#E7B137;stroke-miterlimit:10;}
	.st272{fill:#E7B137;}
	.st273{fill:#162577;}
	.st274{fill:#12692C;}
	.st275{fill:#D8141D;}
	.st276{fill:#AB830D;}
	.st277{fill:#0086CB;}
	.st278{fill:#001F42;}
	.st279{fill:#9A8F4A;}
	.st280{fill:#00559D;}
	.st281{fill:#FDDE00;}
	.st282{fill:#00924C;}
	.st283{fill:#233984;}
	.st284{fill:#FFD42E;}
	.st285{fill:#BA3733;}
	.st286{fill:#46714D;}
	.st287{fill:#221F1F;}
	.st288{fill:#00559E;}
	.st289{fill:#005C46;}
	.st290{fill:#FBC860;}
	.st291{fill:#D57C48;}
	.st292{fill:#040403;}
	.st293{fill:#4AB969;}
	.st294{fill:#8ED8F8;}
	.st295{fill:#FEC34E;}
	.st296{fill:#FFC95B;}
	.st297{fill:#00644C;}
	.st298{fill:#70B865;}
	.st299{fill:#CA6F44;}
	.st300{fill:#A8B8BE;}
	.st301{fill:#1C2C80;}
	.st302{fill:#E10321;}
	.st303{fill:none;stroke:#231F20;stroke-width:0.318;stroke-miterlimit:3.864;}
	.st304{fill:#D71920;}
	.st305{fill:#484749;}
	.st306{fill:#D9DBDC;}
	.st307{fill:#DF725A;}
	.st308{fill:#F2CABA;}
	.st309{fill:#E89C84;}
	.st310{fill:#264F99;}
	.st311{clip-path:url(#SVGID_47_);}
	.st312{fill:#161413;}
	.st313{fill:#ED1B26;}
	.st314{fill:#E60D2E;}
	.st315{fill:#FCD600;}
	.st316{fill:#004D91;}
	.st317{fill:#EAB412;}
	.st318{fill:#FDD31D;}
	.st319{fill:#EFB800;}
</style>
<g id="g10_1_" transform="matrix(1.25,0,0,-1.25,0,326.8)">
	<g id="g12" transform="scale(0.1,0.1)">
		<path id="path14_1_"  class="st28" d="M627.4,2202.7c0-132.4-105.8-239.7-236.2-239.7
			c-130.5,0-236.3,107.3-236.3,239.7c0,132.4,105.8,239.7,236.3,239.7C521.7,2442.4,627.4,2335.1,627.4,2202.7"/>
		<path id="path16_1_"  class="st35" d="M225.5,2198.3c0,92.2,75,167.2,167.2,167.2
			c92.2,0,167.2-75,167.2-167.2c0-92.2-75-167.2-167.2-167.2C300.5,2031.1,225.5,2106.1,225.5,2198.3L225.5,2198.3z M218,2198.3
			c0-96.3,78.4-174.7,174.7-174.7c96.3,0,174.7,78.4,174.7,174.7c0,96.3-78.4,174.7-174.7,174.7C296.3,2373,218,2294.6,218,2198.3"
			/>
		<path id="path18_1_"  class="st35" d="M375.6,2303.9c0.2,0,0.5,0.1,0.7,0.1
			C376.1,2304,375.8,2304,375.6,2303.9"/>
		<path id="path20_1_"  class="st35" d="M376.2,2091.3c-0.2,0-0.4,0.1-0.6,0.1
			C375.8,2091.4,376,2091.4,376.2,2091.3"/>
		<path id="path22_3_"  class="st35" d="M308.7,1824.2l-4.8-3.7l46.5-5.9l0.9,0.9
			c0.3,0.3,7.7,7.8,19.4,21.9c11.3,13.8,49.2,40.2,49.6,40.5l-2,4.5C368.1,1869.8,309.3,1824.7,308.7,1824.2"/>
		<path id="path24_1_"  class="st35" d="M433.2,1868.7c0.3-0.2,29.4-20.5,38.1-31.1
			c9-10.9,14.7-16.7,15-16.9l0.9-0.9l37.5,4.8l-4.8,3.7c-1.9,1.4-46,35.2-84.7,44.9L433.2,1868.7"/>
		<path id="path26_3_"  class="st35" d="M493.9,1954.2c-1,0-23.7-0.2-44.2-16.4
			c-20.9-16.5-19.4-37.2-19.3-38.1l0.2-2.8l2.7,0.5c0.8,0.1,19.2,3.6,35.4,17.2c16.1,13.5,26.9,35,27.4,35.9l1.8,3.6H493.9"/>
		<path id="path28_1_"  class="st35" d="M552.5,1983.4c-0.9-0.2-23.2-4.8-40-24.8
			c-17.2-20.3-11.7-40.3-11.5-41.1l0.8-2.7l2.6,1c0.7,0.3,18.1,7.3,31.3,23.9c13.1,16.4,19.5,39.6,19.8,40.6l1.1,3.9L552.5,1983.4"
			/>
		<path id="path30_3_"  class="st35" d="M597.3,2028.3c-0.9-0.4-21.5-9.9-33.5-33.1
			c-12.2-23.6-2.4-41.9-1.9-42.7l1.3-2.4l2.3,1.6c0.7,0.5,16,11.2,25.2,30.3c9.1,19,10.1,42.9,10.2,43.9l0.2,4.1L597.3,2028.3"/>
		<path id="path32_2_"  class="st35" d="M628.8,2088.6c-0.8-0.6-19-14.1-26-39.3
			c-7.1-25.6,6.3-41.5,6.8-42.2l1.8-2.1l1.9,2c0.5,0.6,13.4,14.2,18.5,34.8c5,20.4,1.1,44.1,1,45.1l-0.7,4L628.8,2088.6"/>
		<path id="path34_2_"  class="st35" d="M648.1,2151.4c-0.7-0.7-16.3-17.2-18.8-43.2
			c-2.6-26.5,13.3-39.8,14-40.3l2.1-1.7l1.5,2.3c0.4,0.7,10.7,16.3,12.2,37.5c1.4,21-6.5,43.6-6.8,44.6l-1.3,3.8L648.1,2151.4"/>
		<path id="path36"  class="st35" d="M673.2,2217.6c-0.7-0.7-16.3-17.2-18.9-43.2
			c-2.6-26.5,13.3-39.8,14-40.3l2.1-1.7l1.5,2.3c0.4,0.6,10.7,16.3,12.2,37.5c1.4,21-6.5,43.6-6.8,44.6l-1.4,3.8L673.2,2217.6"/>
		<path id="path38"  class="st35" d="M444.8,1893.9l-3.7-1.6l3.1-2.6c0.7-0.6,18.2-15.2,44.3-16
			c26.6-0.8,38.8,15.9,39.3,16.6l1.6,2.2l-2.4,1.4c-0.7,0.4-17,9.6-38.2,9.7C467.8,1903.7,445.7,1894.3,444.8,1893.9"/>
		<path id="path40_1_"  class="st35" d="M544.6,1931.9c-22.2-3.1-44.1-16.4-45-16.9l-3.7-2.3
			l3.7-2.3c0.9-0.6,21.6-13.2,49.3-10.1c28.2,3.1,38.5,22.6,39,23.5l1.4,2.6l-2.7,1.1C585.7,1927.8,567,1935,544.6,1931.9"/>
		<path id="path42_1_"  class="st35" d="M606.4,1983.6c-19.9-9.8-37.1-29.5-37.8-30.3l-2.7-3.1
			l4-1.2c0.9-0.3,23.2-6.6,48.3,4.8c25.4,11.6,30.4,33.8,30.6,34.8l0.6,2.9l-3,0.3C645.6,1991.9,626.4,1993.5,606.4,1983.6"/>
		<path id="path44_1_"  class="st35" d="M687.6,2059.2c-0.9-0.1-20.9-1.4-40.1-14.4
			c-19.1-12.9-33.7-35.5-34.3-36.4l-2.4-3.7l4.3-0.6c1-0.1,25.1-3.1,49.3,12.2c24.5,15.6,26.1,38.9,26.1,39.9l0.2,3.1L687.6,2059.2"
			/>
		<path id="path46_1_"  class="st35" d="M702.3,2135c-0.8-0.4-19.6-10.1-32.8-29.6
			c-13.1-19.4-18.1-45.4-18.3-46.5l-0.8-4.5l4.4,1.3c1,0.3,25.5,8,42.6,31.6c17.4,24.1,9.2,45.4,8.8,46.2l-1.1,2.8L702.3,2135"/>
		<path id="path48_1_"  class="st35" d="M313.8,1940l-4-0.9l2.6-3.1c0.6-0.8,15.9-19.3,34.5-29
			c18.8-9.8,37.5-9.1,38.3-9.1l2.8,0.1l-0.4,2.7c-0.1,0.9-3.2,21.4-27.2,32.9C336.9,1945,314.7,1940.2,313.8,1940"/>
		<path id="path50_1_"  class="st35" d="M254,1973.6c0.3-1,6.7-24.1,19.7-40.6
			c13.2-16.6,30.6-23.6,31.3-23.9l2.6-1l0.8,2.7c0.3,0.8,5.8,20.8-11.4,41.1c-16.9,19.9-39.1,24.6-40.1,24.8l-4,0.8L254,1973.6"/>
		<path id="path52_1_"  class="st35" d="M205.3,2015.1c0-1,1.1-25,10.2-43.9
			c9.2-19.1,24.5-29.8,25.2-30.3l2.3-1.6l1.3,2.4c0.4,0.8,10.3,19-1.9,42.7c-12,23.2-32.6,32.7-33.5,33.1l-3.7,1.7L205.3,2015.1"/>
		<path id="path54_1_"  class="st35" d="M157.5,2071.2c-0.2-1-4.1-24.7,1-45.1
			c5-20.6,17.9-34.2,18.4-34.8l1.9-2l1.8,2.1c0.6,0.7,14,16.5,6.8,42.2c-7,25.2-25.2,38.7-26,39.3l-3.3,2.4L157.5,2071.2"/>
		<path id="path56_1_"  class="st35" d="M133,2157.2c-0.3-0.9-8.2-23.6-6.8-44.6
			c1.4-21.1,11.7-36.8,12.2-37.5l1.5-2.3l2.1,1.7c0.7,0.6,16.6,13.9,14,40.4c-2.6,26-18.2,42.5-18.9,43.2l-2.8,2.9L133,2157.2"/>
		<path id="path58"  class="st35" d="M107.9,2223.3c-0.3-1-8.2-23.6-6.8-44.6
			c1.4-21.1,11.7-36.8,12.2-37.5l1.5-2.3l2.1,1.7c0.7,0.6,16.6,13.9,14,40.4c-2.6,26-18.2,42.5-18.9,43.2l-2.8,2.9L107.9,2223.3"/>
		<path id="path60_1_"  class="st35" d="M329.9,1891.8c-20.6-4.7-34.6-17.3-35.1-17.8l-2-1.9l2-1.9
			c0.7-0.6,16.3-14.3,42-7.6c25.3,6.5,39.2,24.5,39.7,25.3l2.4,3.2l-4,0.8C374,1892.1,350.4,1896.4,329.9,1891.8"/>
		<path id="path62_1_"  class="st35" d="M223,1920.7l-2.7-1.1l1.3-2.6c0.4-0.8,10.7-20.3,39-23.5
			c27.7-3.1,48.4,9.6,49.3,10.1l3.7,2.3l-3.7,2.3c-0.9,0.6-22.8,13.8-45,16.9C242.5,1928.4,223.8,1921.1,223,1920.7"/>
		<path id="path64_1_"  class="st35" d="M159.8,1981l-3-0.3l0.6-2.9c0.2-0.9,5.2-23.2,30.6-34.8
			c25.1-11.4,47.4-5.1,48.3-4.8l4,1.2l-2.7,3.1c-0.7,0.8-17.9,20.5-37.8,30.3C179.7,1982.6,160.6,1981.1,159.8,1981"/>
		<path id="path66_1_"  class="st35" d="M99.8,2040.4c0.1-1,1.6-24.3,26.1-39.9
			c24.2-15.4,48.3-12.4,49.3-12.2l4.3,0.6l-2.4,3.7c-0.6,0.9-15.3,23.5-34.3,36.4c-19.2,13.1-39.3,14.4-40.2,14.4l-3.1,0.2
			L99.8,2040.4"/>
		<path id="path68_1_"  class="st35" d="M79.1,2140.2c-0.4-0.9-8.5-22.1,8.8-46.2
			c17-23.7,41.5-31.3,42.6-31.6l4.4-1.3l-0.8,4.5c-0.2,1.1-5.1,27.1-18.2,46.5c-13.2,19.6-32,29.2-32.8,29.6l-2.7,1.4L79.1,2140.2"
			/>
		<path id="path70_1_"  class="st35" d="M393.3,1963.4c-129.2,0-234.3,105.1-234.3,234.3
			c0,72.9,32.9,139.9,90.3,184.7l3.1,1.9c0.4-0.6,0.9-1.2,1.3-1.8c-1.3-1.6-2.1-3.6-2.1-5.7c0-2.4,0.9-4.7,2.6-6.4
			c1.7-1.7,4-2.6,6.4-2.6h0.7l0.6,0.4c0,0,0.3,0.2,0.8,0.5c5.9-9.9,10.2-18.7,10.3-18.8l1.3-2.7l2.4,1.8
			c0.5,0.3,47.9,34.4,116.9,34.4c69,0,120.8-34.1,121.3-34.4l2.4-1.6l1.3,2.6c0.1,0.1,4.6,9.4,10.8,19.6c1.3-0.7,2-1.2,2.1-1.2
			l0.6-0.4h0.7c2.4,0,4.7,0.9,6.3,2.6c1.7,1.7,2.6,4,2.6,6.4c0,0.9-0.1,1.7-0.4,2.5c54.9-44.8,86.3-110.6,86.3-181.5
			C627.6,2068.5,522.5,1963.4,393.3,1963.4L393.3,1963.4z M542.2,2388.2l-0.1-0.1c3.3,3.8,6.1,6.4,8.5,7.9
			c20.8,13.9,43.1,13,43.1,13l-1.4,2.9c-6.7,9.6-15.1,16.5-23.4,19.3c-0.4,3.9-2.5,8.1-6,11.6l0,0c-1.9,2-5.2,4-9.9,6.1c0,0,0,0,0,0
			c1.1,1.6,1.7,3.4,1.7,5.4c0,4.6-3,9.9-8.2,13.9c-2.9,2.2-8.3,4.1-15.8,5.6c1.1,1.1,1.9,2.3,2.3,3.5c0.3,0.9,0.5,1.9,0.5,2.8
			c0,5.4-4.8,10.9-12.2,13.8c-2.6,1-6.4,1.3-11.3,1.2c0.5,0.9,1,1.8,1.1,2.6c0.1,0.5,0.1,1,0.1,1.5c0,5.8-5.9,11.3-14.4,13.1
			c-3.2,0.7-8.2,0.2-14.6-1.2c0.6,1.1,1,2.1,1.1,3.1c0,0.3,0.1,0.6,0.1,1c0,6-6.3,11.4-15.1,12.7c-2.9,0.4-7.1-0.1-12.4-1.5
			c0.5,1,0.9,2,1.1,3c0,0.3,0,0.7,0,1c0,6-6.3,11.4-15.1,12.7c-6.8,1-19.3-3.4-25.7-5.9l-12,33.1c-0.5,1.5-1.1,2.9-1.4,3.9
			c3.2-1.8,10.1-5.6,10.1-5.6l17.2-9.6v43.3l-3.7-2.1l-13.4-7.5c0,0-5.9-3.3-7.8-4.3c0.8,1.7,4.1,8.8,4.1,8.8l0,0l8,17.3h-42.6
			l8-17.3l0,0c0,0,0.8-1.8,1.7-3.6l0.6-1.4c0.4-0.8,0.7-1.5,0.8-1.8c0,0-4.1,2.3-4.1,2.3l-17.2,9.6v-43.3l17.2,9.6
			c0,0,5.4,3,6.7,3.7c-0.3-0.8-0.8-2.3-1.4-3.8l-11.2-30.9c-6.8,2.6-18.2,6.4-24.6,5.5c-8.8-1.3-15.1-6.7-15.1-12.7
			c0-0.3,0-0.7,0.1-1c0.1-0.9,0.5-1.9,1.1-3c-5.3,1.4-9.5,1.9-12.4,1.5c-8.8-1.3-15.1-6.7-15.1-12.7c0-0.3,0-0.7,0.1-1
			c0.1-1,0.5-2.1,1.1-3.1c-6.4,1.4-11.3,1.9-14.6,1.2c-8.5-1.8-14.4-7.2-14.4-13.1c0-0.5,0-1,0.1-1.5c0.1-0.8,0.6-1.7,1.1-2.6
			c-4.9,0.1-8.7-0.3-11.3-1.2c-7.5-2.8-12.2-8.4-12.2-13.8c0-1,0.2-1.9,0.5-2.8c0.4-1.2,1.2-2.3,2.3-3.5c-7.5-1.5-12.8-3.4-15.8-5.6
			c-5.3-4-8.2-9.3-8.2-13.9c0-2,0.5-3.8,1.7-5.4c0,0,0,0,0,0c-4.7-2.1-8-4.1-9.9-6.1c-3.3-3.4-5.3-7.3-5.9-11.1
			c-12.4-3.4-21.6-14.9-25.1-19.8l-3.8-5.5l6.5,1.6c7.9,2,22.2-2.4,39.1-12.1c1.9-1.1,4.1-3,6.5-5.6
			c-60.9-46.2-95.8-116.4-95.8-192.7c0-133.3,108.5-241.8,241.8-241.8c133.3,0,241.8,108.5,241.8,241.8
			C635.1,2272.5,601.2,2342,542.2,2388.2"/>
		<path id="path74_1_"  class="st256" d="M404.9,1872.9c-12.4-9.1-30.5-23.2-38.1-32.4
			c-9.4-11.4-16-18.4-18.2-20.7c-1.9,0.2-23.4,3-31.8,4.1C329.9,1833.6,368,1859.9,404.9,1872.9"/>
		<path id="path76_1_"  class="st256" d="M475.2,1840.8c-5.3,6.4-17.1,15.8-26.4,22.8
			c26.1-10,52.4-27.9,63.1-35.6c-7.5-1-21-2.7-22.8-2.9C487.1,1827,482.1,1832.4,475.2,1840.8"/>
		<path id="path78_1_"  class="st256" d="M452.9,1933.9c14,11.1,29.3,14.1,36.6,15
			c-3.9-6.8-12.6-20.8-23.9-30.3c-11.5-9.7-24.4-13.9-30.1-15.4C435.9,1909,438.4,1922.4,452.9,1933.9"/>
		<path id="path80_1_"  class="st256" d="M505,1926.4c0,7,1.9,17.9,11.3,28.9
			c11.5,13.6,25.9,19.6,33,21.9c-2.5-7.4-8.3-22.9-17.5-34.4c-9.3-11.7-21.2-18.4-26.5-21.1C505.2,1923,505,1924.5,505,1926.4"/>
		<path id="path82"  class="st256" d="M562.7,1971.2c0,6.1,1.3,13.5,5.5,21.7
			c8.2,15.8,20.9,24.9,27.2,28.7c-0.7-7.8-3-24.1-9.4-37.5c-6.5-13.5-16.5-22.7-21.1-26.4C564,1960.5,562.7,1965,562.7,1971.2"/>
		<path id="path84"  class="st256" d="M605.7,2034.6c0,4,0.5,8.5,1.9,13.4
			c4.8,17.2,15.3,28.7,20.8,33.7c0.4-3.7,0.9-9.5,0.9-16.1c0-7.1-0.6-15.1-2.4-22.5c-3.6-14.5-11.5-25.6-15.2-30.2
			C609.4,2016.5,605.7,2023.9,605.7,2034.6"/>
		<path id="path86"  class="st256" d="M634,2102.5c0,1.7,0.1,3.4,0.3,5.3
			c1.7,17.7,10.2,30.9,14.6,36.7c2-6.7,5.3-20.1,5.3-33.5c0-1.6,0-3.2-0.1-4.8c-1-15-6.9-27.2-9.8-32.4
			C640.7,2077.8,634,2087.2,634,2102.5"/>
		<path id="path88"  class="st256" d="M659,2168.6c0,1.7,0.1,3.4,0.3,5.3
			c1.7,17.7,10.2,30.9,14.7,36.7c2-6.7,5.4-20.1,5.4-33.5c0-1.6,0-3.2-0.2-4.8c-1-14.9-6.9-27.2-9.8-32.4
			C665.8,2143.9,659,2153.4,659,2168.6"/>
		<path id="path90"  class="st256" d="M488.8,1898.6c15,0,27.6-5.1,32.9-7.6
			c-4.1-4.2-14.7-12.9-33.1-12.3c-17.8,0.6-31.5,8.1-37.6,12.2C458.3,1893.6,474,1898.7,488.8,1898.6"/>
		<path id="path92"  class="st256" d="M545.4,1926.6c15.9,2.2,30-1.2,36-3.1
			c-3.6-5-13.4-15.8-33.1-17.9c-18.9-2.1-34.6,3.8-41.7,7.2C514,1916.7,529.8,1924.4,545.4,1926.6"/>
		<path id="path94"  class="st256" d="M608.7,1978.8c14,6.9,27.7,7.8,33.8,7.8
			c-2.2-6.1-9-19.9-26.6-27.9c-16.9-7.7-32.8-6.6-40.2-5.5C581.5,1959.3,594.6,1971.9,608.7,1978.8"/>
		<path id="path96"  class="st256" d="M650.5,2040.2c13.4,9.1,27.6,12.1,34,13.1
			c-1.3-6.5-5.9-21.4-23.1-32.3c-16.4-10.4-33-11.7-40.9-11.7C625.6,2016.4,637.1,2031.1,650.5,2040.2"/>
		<path id="path98"  class="st256" d="M674.1,2102.3c9.4,13.9,22.1,22.7,27.8,26.1
			c0.5-2.1,0.9-5,0.9-8.7c0-7.5-2-17.9-10-29.1c-11.6-16.2-27.3-24.4-35-27.7C659.9,2071.3,665,2088.7,674.1,2102.3"/>
		<path id="path100"  class="st256" d="M358.3,1929.2c16.7-8,22.1-20.6,23.7-26.2
			c-5.9,0.2-19.4,1.6-32.7,8.5c-13.1,6.8-24.7,18.6-30,24.3C326.6,1936.5,342.2,1936.9,358.3,1929.2"/>
		<path id="path102"  class="st256" d="M277.7,1936.1c-9.2,11.5-15,27-17.5,34.4
			c7-2.3,21.4-8.3,33-21.9c9.4-11.1,11.3-22,11.3-28.9c0-1.9-0.1-3.4-0.3-4.7C298.9,1917.7,287,1924.4,277.7,1936.1"/>
		<path id="path104"  class="st256" d="M220,1973.3c-6.4,13.3-8.6,29.7-9.3,37.4
			c6.3-3.8,19-12.9,27.2-28.7c4.2-8.2,5.5-15.6,5.5-21.7c0-6.2-1.3-10.8-2.4-13.5C236.5,1950.6,226.5,1959.8,220,1973.3"/>
		<path id="path106"  class="st256" d="M163.4,2027.2c-1.8,7.4-2.4,15.4-2.4,22.5
			c0,6.6,0.5,12.3,0.9,16.1c5.4-5,16-16.5,20.8-33.7c1.4-4.9,1.9-9.4,1.9-13.4c0-10.6-3.7-18.1-6-21.7
			C174.9,2001.6,167,2012.7,163.4,2027.2"/>
		<path id="path108"  class="st256" d="M131.2,2112.9c-0.1,1.6-0.1,3.2-0.1,4.8
			c0,13.3,3.4,26.8,5.4,33.5c4.5-5.9,12.9-19,14.6-36.8c0.2-1.8,0.3-3.6,0.3-5.3c0-15.2-6.8-24.7-10.3-28.6
			C138.1,2085.7,132.2,2097.9,131.2,2112.9"/>
		<path id="path110_1_"  class="st256" d="M106.1,2179.1c-0.1,1.6-0.2,3.2-0.2,4.8
			c0,13.3,3.4,26.8,5.4,33.5c4.5-5.9,12.9-19,14.7-36.7c0.2-1.8,0.3-3.6,0.3-5.3c0-15.2-6.8-24.7-10.3-28.6
			C113,2151.8,107.1,2164.1,106.1,2179.1"/>
		<path id="path112"  class="st256" d="M331,1886.9c14.4,3.3,30.9,1.8,38.6,0.8
			c-5.1-5.3-16.8-15.7-34.1-20.2c-17.9-4.6-30.1,1.5-35,4.7C305.2,1875.9,316.4,1883.6,331,1886.9"/>
		<path id="path114_1_"  class="st256" d="M264.1,1919.9c15.6-2.2,31.4-9.9,38.7-13.8
			c-7.1-3.4-22.7-9.3-41.7-7.2c-19.6,2.2-29.4,12.9-33.1,17.9C234.1,1918.7,248.2,1922.1,264.1,1919.9"/>
		<path id="path116_1_"  class="st256" d="M190.2,1947.8c-17.6,8-24.4,21.8-26.6,27.9
			c6.1,0,19.9-0.9,33.8-7.8c14.1-6.9,27.2-19.6,33-25.6C223,1941.2,207.2,1940.1,190.2,1947.8"/>
		<path id="path118"  class="st256" d="M128.9,2005.2c-17.2,10.9-21.8,25.8-23.1,32.3
			c6.3-0.9,20.5-4,34-13.1c13.5-9.2,24.9-23.8,30-30.9C161.9,1993.4,145.2,1994.7,128.9,2005.2"/>
		<path id="path120_1_"  class="st256" d="M92.4,2097.2c-8,11.2-10,21.6-10,29.1
			c0,3.7,0.5,6.6,0.9,8.7c5.7-3.4,18.4-12.2,27.8-26.1c9.2-13.6,14.2-31,16.3-39.4C119.7,2072.8,104.1,2081.1,92.4,2097.2"/>
		<path id="path122"  class="st256" d="M290.4,2494.4c-2.8,2.4-3.3,3.8-3.4,4.3
			c0,0.2-0.1,0.4-0.1,0.6c0,3,3.7,6.8,10.4,8.2c3.3,0.7,9.7-0.3,18-2.6c-7.7-4.7-14.8-9.5-20.6-14.3
			C293.1,2492.1,290.4,2494.4,290.4,2494.4"/>
		<path id="path124_1_"  class="st256" d="M319.7,2508.7c-4.4,3.7-4.9,5.7-5,6.2c0,0.1,0,0.2,0,0.4
			c0,3,4,6.8,10.8,7.8c3.1,0.5,9-0.7,16.6-3.2c-7-3.6-13.8-7.3-20.9-11.5C320.6,2508,319.7,2508.7,319.7,2508.7"/>
		<path id="path126"  class="st256" d="M346.6,2523.5c-3.8,3.1-5.3,5.4-5.4,6.6c0,0.1,0,0.2,0,0.4
			c0,3.1,4,6.8,10.8,7.8c4.1,0.6,12-1.5,19.5-4.2c-12.6-5.3-23.4-11.1-23.4-11.1L346.6,2523.5"/>
		<path id="path128_1_"  class="st256" d="M269.8,2474.7c-4,2.3-4.7,4-4.9,4.4
			c-0.1,0.4-0.2,0.8-0.2,1.2c0,2.9,3.1,6.9,9,9.1c1.9,0.7,6,1.4,14.9,0.6c0,0,2.6-0.2,4.9-0.4c-0.7-0.6-18.9-16.8-19.8-17.2
			C271.8,2473.4,269.8,2474.7,269.8,2474.7"/>
		<path id="path130"  class="st256" d="M233.9,2439.6c1.3,1.4,4.5,3.6,12,6.5l5.4,2.1l-5.2,2.5
			c-1.2,0.6-1.7,1.1-1.9,1.4c-0.5,0.7-0.7,1.5-0.7,2.5c0,2.8,2,6.6,6.2,9.9c2.9,2.2,13,5.2,18.4,5.6c1.1,0,2.4-0.2,3.3-0.6
			c-10.6-11.6-22.7-30.8-22.7-31c0.8,1.8-3.5-6.8-4-7.5c-6.6,2-15.3,1.9-15,1.9C230.4,2435,231.8,2437.4,233.9,2439.6"/>
		<path id="path132_1_"  class="st256" d="M441.4,2538.2c6.8-1,10.8-4.7,10.8-7.8
			c0-0.1,0-0.3,0-0.4c-0.1-1.2-1.6-3.5-5.4-6.6c0,0-0.5-0.6-1.2-0.7c-6.2,3-11.6,5.5-15.7,7.3c0,0-7.1,3.1-8.7,3.6
			C428.2,2536.3,436.9,2538.9,441.4,2538.2"/>
		<path id="path134"  class="st256" d="M467.8,2523.1c6.9-1,10.8-4.7,10.8-7.8c0-0.1,0-0.3,0-0.4
			c-0.1-0.5-0.6-2.5-5-6.2v0c-7.2,3.8-15,7.7-22.2,11.2C458.9,2522.4,464.7,2523.5,467.8,2523.1"/>
		<path id="path136_1_"  class="st256" d="M496,2507.5c6.6-1.4,10.4-5.2,10.4-8.2
			c0-0.2,0-0.4-0.1-0.6c-0.1-0.5-0.6-1.9-3.4-4.3c0,0-1.3-1.1-2.6-2.3c-0.8,0.6-1.6,1.3-2.3,1.9c-4,3.2-10.6,7.2-18.2,11.4
			C487.2,2507.4,492.9,2508.2,496,2507.5"/>
		<path id="path138"  class="st256" d="M504.8,2490c8.9,0.8,13,0.1,14.9-0.6c5.9-2.2,9-6.2,9-9.1
			c0-0.4,0-0.8-0.2-1.2c-0.2-0.4-0.9-2-4.9-4.3c0,0-1.3-0.8-2.6-1.5c-5.8,5.8-11.8,11.5-17.8,16.6
			C503.7,2489.9,504.8,2490,504.8,2490"/>
		<path id="path140_1_"  class="st256" d="M524,2470.2c0,0,0.4-0.1,0.4-0.1
			c9.5-1.5,16.3-3.6,19.2-5.7c4.3-3.2,6.2-7.1,6.2-9.9c0-1-0.2-1.8-0.7-2.5c-0.2-0.2-0.7-0.7-1.9-1.4c0,0-3.2-1.6-4.3-2.1
			C538.5,2454.4,531.7,2462.2,524,2470.2"/>
		<path id="path142"  class="st256" d="M543.6,2447.5c1.6-0.6,3.8-1.5,3.8-1.5
			c7.6-2.9,10.7-5.2,12-6.5c2.1-2.2,3.6-4.7,4.3-7.1c-1.1,0.1-2.2,0.4-3.3,0.4c-0.1,0-2.9,0-6.8-0.6
			C550.5,2437.7,547.1,2442.8,543.6,2447.5"/>
		<path id="path144_1_"  class="st256" d="M409.1,2534c13-3,69.8-30.9,87.1-44.2
			c28.2-21.7,42.7-42.7,52.3-58.6c-3.7-1-12.3-5.3-12.7-5.4c-1.6,1.2-4.5,3.3-7.5,4.9c-34.2,46.8-90.4,89.3-90.4,89.3l-3.7-3.3
			c0,0,29.4-47.9,31.3-50.9c-0.3-0.4-2-2.1-3.2-3.4c-1.8,0.7-4.8,1.5-7.9,1.8c-12,17.1-4.2,6-44.2,63c0,0,3.3-49.5,3.6-53
			c-1.6-0.5-3-1-3.8-1.2c-2.2,39.9-11.9,51.6-12.3,52.1l-1.8,2.1l-1.7-1.7c-10.6-9.8-11.8-45.7-12.4-52.4c-0.9,0.4-2.5,0.9-4.6,1.5
			c0.3,3.6,3.6,52.8,3.6,52.8s-43-61.4-44.2-63.1c-2.7-0.4-5.4-1.1-7-1.7c-0.7,0.8-1,1.1-1.8,1.9c1.9,3.1,31.3,51,31.3,51l-3.7,3.3
			c0,0-40.2-30.9-56.2-49c0,0-22.1-23.8-30.3-35.1c-4.2-1.6-9.9-5.2-14.6-7.7c-0.9,0.7-3.9,2-4.8,2.6c14.3,26.2,32.6,44.3,45,54.7
			c21,18.8,64.3,40.7,88.7,49.7C384.3,2533.9,398.7,2534,409.1,2534"/>
		<path id="path146"  class="st256" d="M408.1,2584.4c0-2.8,0-4.3,0-7.1c-2.7,1.5-4.6,2.6-6.4,3.5
			C402.4,2581.2,405.2,2582.7,408.1,2584.4z M396.4,2577.8c0.4-1,1.6-4.4,2.7-7.4c-2.4,0-3.6,0-6,0c1.1,3,2.5,6.9,2.5,7
			C395.8,2577.5,396,2577.7,396.4,2577.8z M401.5,2592.3c-1.2-2.7-4.2-9.1-4.2-9.1c-1.6,0.9-3.3,1.8-3.4,1.9c0,0.1-2.2,4.8-3.3,7.2
			C394.2,2592.3,397.9,2592.3,401.5,2592.3z M386.8,2584.4c1.7-1,4.9-2.7,6.4-3.6c-0.4-0.2-3.9-2.2-6.4-3.5
			C386.8,2580.1,386.8,2581.5,386.8,2584.4z M382.3,2540.7c1.8,5,7.5,20.6,7.5,20.6s0.9,2.5,1.5,4.1c2.2,0,7.4,0,9.7,0
			c0.6-1.7,6.6-18.2,9-24.7C405.3,2540.7,386.8,2540.7,382.3,2540.7z M388.3,2597.3c-0.9,1.9-3.8,8.3-5.7,12.3c4.7,0,13.5,0,13.5,0
			s8.8,0,13.5,0c-1.9-4-4.8-10.4-5.7-12.3C401.4,2597.3,390.7,2597.3,388.3,2597.3z M413.1,2587.2c0.1,0,0.3,0.2,0.3,0.2
			s7.6,4.2,11.9,6.6c0-4.9,0-21.4,0-26.2c-4.3,2.4-12,6.7-12.1,6.8C413.1,2576.6,413.1,2585,413.1,2587.2L413.1,2587.2z
			 M369.6,2580.8c0,0,0,8.3,0,13.1c4.3-2.4,11.9-6.6,11.9-6.6l0,0c0,0,0.2-0.1,0.3-0.2c0-2.2,0-10.5,0-12.7c-0.1,0-7.5-4.2-12.1-6.8
			C369.6,2572.6,369.6,2580.8,369.6,2580.8"/>
		<path id="path148_1_"  class="st256" d="M546.5,2401.4c-5.6-3.6-12.6-12.6-12.6-12.6l-18,10.1
			c0,0,1.3,0.2,2.9,1.1c2.3,1.4,5.1,8,5.4,12.5c0.6,8.9-5.3,13.2-6.5,15.2c9.6-2.4,17-10.1,18.2-11.2c1.3,0.9,3,2.1,3,2.1
			c9.2,6.5,12.6,6.7,20.4,7.1c10.7,1.3,21.2-10.8,21.2-10.8l-4.9-1.2C567.6,2411.7,552.1,2405,546.5,2401.4L546.5,2401.4z
			 M370.6,2433.9l3.3,4.1c1.8,2.2,2.7,4.6,2.7,7.3c0,3.9-4.1,9-12.1,15.2l-2.5,1.9l2.4,2c2.4,2,5,3,7.7,3.3l0.4,0.1l7.4-2.4l0.1,0
			c0,0,4.6-3.1,7.9-5.3c0.6,6.2,2.5,27.9,2.5,27.9h11.2c0,0,2-21.7,2.5-27.9c3.3,2.2,7.6,5.1,7.6,5.1l0,0.1l7.6,2.5l0.5,0
			c2.7-0.2,5.3-1.3,7.7-3.3l2.4-2l-2.5-1.9c-8-6.2-12.1-11.3-12.1-15.2c0-2.7,0.9-5.1,2.7-7.3l3.3-4.1H370.6L370.6,2433.9z
			 M257.3,2389l-1.4,1.8c-4.3,5.3-8.1,8.9-11.3,10.8c-10.5,6-20.3,10.2-28.5,12.1l-4.9,1.2l3.9,3.2c5.6,4.6,11.1,7,16.3,7
			c0.1,0,12.1,0.1,21.4-6.5c0,0,1.6-1.1,3-2.1c4.3,5.3,16.9,9.7,16.9,9.7l-3.5-5.1c-1.3-2.6-1.3-5.4-1.3-7.8c0,0,0-0.3,0-0.4
			c0.1-4.9,1.3-8.7,3.4-11.3l1.6-2.2L257.3,2389L257.3,2389z M536.1,2420c0,0-11,12-24.4,10.4c4.6-3.8,10.1-9.8,10.1-16.3
			c0-0.1,0-0.2,0-0.3c-0.2-7.3-2.6-11.6-7.4-13.1c-1.3-0.4-2.7-0.6-4.3-0.6c-1.9,0-5,1-11.7,8.6c0,0-3.1,3.8-4.5,5.6
			c-1.2-0.3-3.1-0.7-5.6-0.8l-1.8-0.1c-3.1,0-6.6,1.7-9.4,4.6c-3.2,3.3-5.1,7.7-5.1,11.8c0,7.9,7.3,11.5,12.3,11.5
			c1.6,0,4.2-0.5,6.4-1c-1.2,3.6-3,7.2-5,8.2c-4.8,2.3-7.2,3-7.2,3l-1.6,0.5c0,0-1,10.7-1.6,16.6c-0.4-0.4-1.7-1.8-3.4-3.6l-6-6.4
			c-0.6-0.6-1.1-1.2-1.5-1.6l-0.6-0.7l-1.6,0.7c-0.1,0-5.1,2.2-9,2.2c-1.1,0-1.7-0.1-2-0.3c-1.4-0.6-2.6-1.2-3.7-1.9
			c0.7-0.4,1.3-0.9,2-1.5c4.1-3.3,8.7-8.9,8.7-17c0-0.7,0-1.4-0.1-2.2c-0.5-5.3-6.1-7.7-9.4-8.3l-0.3-0.1l-0.3,0
			c-3.9,0.3-11.8,5.2-11.8,5.2c-0.7,0.3-4.6,1.4-7.9,1.9c-4.5,0.6-10.9,4.4-10.9,10.8c0,2.2,1.3,5.8,11.6,13.7c0,0,2.1,1.5,3.8,2.7
			c-2.1,2.8-6.8,7.9-13.7,8.1c-0.6-0.2-1.9-0.5-1.9-0.5l-6-1.9c0,0-0.5-0.2-0.5-0.2l-5-3.3l-0.4,4.2c0,0-1.5,16.5-1.5,16.4l-0.1,0.9
			c-0.1,0.5-0.1,1.3-0.2,2l-0.3,2.8c-2.5,0-8.2,0-8.2,0s-4.2,0-6.7,0c-0.3-3.5-1.2-13.4-1.7-18.7c0-0.5-0.1-0.9-0.1-1.3
			c0-0.5-0.1-0.9-0.1-1.2c0-0.1,0-0.2,0-0.3c0-0.4-0.1-0.6-0.1-0.6l-0.3-4.2c0,0-4.9,3.3-5,3.3c-0.1,0-0.1,0.1-0.2,0.1
			c-0.7,0.3-2.7,1.1-7,2.3c0,0-0.7,0.2-1.2,0.3c-0.6,0-1.9-0.2-2-0.2c0,0-0.3,0-0.4-0.1c0,0-2-0.5-2-0.5c-4.5-1.6-7.6-5.1-9.2-7.3
			c5.8-4.1,15.4-11.5,15.4-16.5c0-6.4-6.4-10.1-10.9-10.8c-3.3-0.5-7.2-1.6-7.7-1.8c-0.1-0.1-8-5-11.9-5.3l-0.3,0l-0.3,0.1
			c-3.2,0.6-8.8,3-9.4,8.3c-0.1,0.7-0.1,1.5-0.1,2.2c0,9.6,6.5,15.6,10.7,18.5c-0.9,0.6-2,1.2-3.3,1.7c0,0-0.3,0.1-0.4,0.2
			c-0.4,0.2-1.3,0.3-2.7,0.3c-3.8-0.3-8.3-2.2-8.3-2.2l-1.6-0.7l-0.3,0.3c-1.6,1.7-10.1,10.8-11.3,12c-0.6-5.9-1.4-14.9-1.4-14.9
			l-0.2-1.7l-1.6-0.5c0,0-2.4-0.7-7.2-3c-2-0.9-3.8-4.6-5-8.2c2.2,0.5,4.8,1,6.4,1c4.9,0,12.3-3.7,12.3-11.5c0-2.9-0.9-5.9-2.7-8.7
			c-2.9-4.7-7.5-7.7-11.8-7.7c-1.9,0-3.7,0.2-5.4,0.5c-0.7-0.3-2.8-1.2-3.4-1.5c-9.9-12.3-13.5-12.4-14.8-12.4
			c-2.2,0-5.4,0.3-7.9,2.6c-1.6,1.5-2.7,3.5-3.3,6.1l-0.6,4.9c0,0.1,0,0.2,0,0.3c0,2.7,0.9,5.5,2.8,8.4c2,3.1,4.8,5.8,7.3,8
			c0,0-5.3,0.4-12.5-2.9c-7.1-3.3-12.7-7-12.7-7l-2,1.3l-2.3,1.3c-7.4,3.9-15.2,4.7-18.2,4.8c-0.1,0-0.6,0-0.9,0c0,0,0,0,0,0
			c-0.1,0-0.2,0-0.2,0l-4.1-0.4c-6.8-1.4-14-6.4-20.2-13.9c12.1-0.3,27.6-8,36.5-13.1c3.1-1.8,6.5-4.9,10.4-9.7
			c1.3-1.7,2.7-3.4,4-5.3c14.5,9.2,71,41.8,138.7,41.8c66.2,0,121.7-31.1,137.7-41.1c0.5,0.7,1.1,1.4,1.6,2.1
			c4.7,6.2,8.7,10.2,12.3,12.2c9,5.1,24.9,11.9,36.2,13.6C563.8,2441.9,536.1,2420,536.1,2420"/>
		<path id="path150"  class="st256" d="M508,2360.9c-4.2,0-7.7,3.4-7.7,7.7c0,4.2,3.4,7.7,7.7,7.7
			c4.2,0,7.7-3.4,7.7-7.7C515.7,2364.3,512.2,2360.9,508,2360.9z M466.9,2387c-0.8-3.5-4.4-5.7-7.9-4.9l-17.1,4.1
			c-3.6,0.8-5.7,4.4-4.9,7.9c0.8,3.5,4.4,5.7,7.9,4.9l17.1-4C465.6,2394.1,467.8,2390.5,466.9,2387L466.9,2387z M394.9,2390.4
			c-4.2,0-7.7,3.4-7.7,7.7c0,4.2,3.4,7.7,7.7,7.7s7.7-3.4,7.7-7.7C402.6,2393.9,399.1,2390.4,394.9,2390.4z M348.6,2386.2l-17.1-4.1
			c-3.5-0.8-7.1,1.3-7.9,4.9c-0.8,3.5,1.4,7.1,4.9,7.9l17.1,4c3.5,0.8,7.1-1.3,7.9-4.9C354.4,2390.6,352.2,2387,348.6,2386.2z
			 M282.6,2360.9c-4.2,0-7.7,3.4-7.7,7.7c0,4.2,3.4,7.7,7.7,7.7c4.2,0,7.7-3.4,7.7-7.7C290.2,2364.3,286.8,2360.9,282.6,2360.9z
			 M398,2410c-55.2,0-113.2-29.2-130.7-38.8c4.1-6.9,7.4-13.2,9.1-16.5c10.7,7,55.6,33.7,117.4,33.7c62.2,0,110.7-27.1,121.7-33.8
			c1.7,3.4,5.2,10,9.6,17.3C506.8,2382,452,2410,398,2410"/>
		<path id="path152_1_"  class="st256" d="M257.8,2373.9c-0.8,0.8-1.2,1.8-1.2,2.8
			c0,1.1,0.4,2.1,1.2,2.8c0.4,0.3,61.8,42.7,138.8,42.7c77,0,138.4-42.4,138.9-42.8c0.6-0.6,1-1.6,1-2.7c0-1.1-0.4-2.1-1.2-2.8
			c-0.6-0.6-1.4-0.9-2.3-1.1c-7.5,4.5-71.7,42.1-135.2,42.1c-63.7,0-130.4-37.8-137.9-42.1C259.2,2373,258.4,2373.3,257.8,2373.9"/>
		<path id="path156_1_"  class="st257" d="M502.9,2368.5c0,2.9,2.3,5.2,5.2,5.2
			c2.8,0,5.2-2.3,5.2-5.2c0-2.8-2.3-5.2-5.2-5.2C505.2,2363.4,502.9,2365.7,502.9,2368.5"/>
		<path id="path158"  class="st257" d="M277.4,2368.5c0,2.9,2.3,5.2,5.2,5.2c2.8,0,5.2-2.3,5.2-5.2
			c0-2.8-2.3-5.2-5.2-5.2C279.7,2363.4,277.4,2365.7,277.4,2368.5"/>
		<path id="path160_1_"  class="st257" d="M459.6,2384.5l-17.1,4c-2.2,0.5-3.6,2.7-3,4.9
			c0.5,2.2,2.7,3.5,4.9,3l17.1-4.1c1.1-0.3,2-0.9,2.5-1.8c0.6-0.9,0.7-2,0.5-3.1l0,0C464,2385.4,461.8,2384,459.6,2384.5"/>
		<path id="path162"  class="st257" d="M326.1,2387.6L326.1,2387.6c-0.2,1.1-0.1,2.2,0.5,3.1
			c0.6,0.9,1.5,1.6,2.5,1.8l17.1,4.1c2.2,0.5,4.4-0.8,4.9-3c0.3-1.1,0.1-2.2-0.5-3.1c-0.6-0.9-1.5-1.6-2.5-1.8l-17.1-4
			C328.8,2384,326.6,2385.4,326.1,2387.6"/>
		<path id="path164_1_"  class="st257" d="M389.7,2398.1c0,2.9,2.3,5.2,5.2,5.2
			c2.8,0,5.2-2.3,5.2-5.2c0-2.8-2.3-5.2-5.2-5.2C392.1,2392.9,389.7,2395.3,389.7,2398.1"/>
		<path id="path166"  class="st257" d="M231.4,2420c0.1,0,10.6,0,18.5-5.6c0,0,6.2-4.4,6.2-4.4
			l5.7,5c0.3,0.3,0.9,0.7,1.5,1.2c-0.2-1-0.4-2-0.4-3l0-0.5c0.1-4.8,1.2-8.8,3-12.1c-2.2-1.5-5.5-3.7-7.6-5.1
			c-4.1,4.8-7.8,8.2-11.2,10.2c-9,5.1-17.2,8.8-24.7,11.2C225.6,2419,228.6,2420,231.4,2420"/>
		<path id="path168_1_"  class="st257" d="M537.3,2411.2l4.6,3.2c7.9,5.6,18.5,5.6,18.6,5.6
			c2.8,0,5.8-1,9-3c-7.5-2.4-15.7-6.1-24.7-11.2l0,0c-3.9-2.2-7.1-5-11.9-11c-2,1.4-5.3,2.8-7.9,4.2c2.9,3.5,3.7,7.7,3.9,13.7
			c0,0,0,0.5,0,0.5c0,1-0.3,2-0.4,3c0.6-0.5,1.1-0.9,1.5-1.2l5.7-5L537.3,2411.2"/>
		<path id="path170"  class="st257" d="M396.7,2482.9c0,0,0.2,0,0.2,0c0.3-3.9,2.9-31.7,2.9-31.7
			s13.9,9.3,14.4,9.6c0.2,0.1,4.6,1.5,5.5,1.8c0.6-0.1,1.2-0.2,1.8-0.5c-11.1-9.3-11.2-14.7-11.2-16.8c0-2.2,0.6-4.3,1.5-6.4
			c-6,0-25.5,0-31.5,0c0.9,2,1.5,4.1,1.5,6.4c0,2.1-0.2,7.5-11.2,16.8c0.6,0.2,1.2,0.4,1.8,0.5c0.9-0.3,5.3-1.7,5.5-1.8
			c0.5-0.3,14.4-9.6,14.4-9.6s2.5,27.8,2.9,31.7C395.8,2482.9,396.7,2482.9,396.7,2482.9"/>
		<path id="path172_1_"  class="st257" d="M511,2151.6c-18.6-47.7-64.9-81.4-119.1-81.4
			c-70.6,0-127.8,57.2-127.8,127.8c0,70.6,57.2,127.8,127.8,127.8c54.7,0,101.3-34.4,119.6-82.7h25.2
			c-19.2,61.7-76.8,106.5-144.8,106.5c-83.7,0-151.6-67.9-151.6-151.6c0-83.7,67.9-151.6,151.6-151.6c67.6,0,124.8,44.2,144.3,105.2
			H511"/>
		<path id="path174"  class="st257" d="M395.7,2306v-25.4c5.2-0.2,10.2-0.8,15-1.8v-187.2
			c10.6,1.9,20.7,5.3,30.1,10v163.9c7.9-5.6,14.9-12.6,20.4-20.6h28.1C472.3,2280.1,436.9,2304.6,395.7,2306"/>
		<path id="path176_1_"  class="st257" d="M386.8,2293.9c-0.1,5.8-4.8,10.6-10.7,10.6
			c-0.4,0-0.8-0.1-1.2-0.1c-0.2,0-0.5-0.1-0.7-0.1c-0.3-0.1-0.7-0.1-1-0.2c-33-5.8-60.9-26.7-76.3-55.2c-0.3-1.1-0.6-2.2-0.6-3.4
			c0-5.7,4.3-10.4,9.6-10.4c0.8,0,1.5,0.1,2.3,0.3v-75.1c-0.7,0.2-1.5,0.3-2.3,0.3c-5.3,0-9.6-4.7-9.6-10.4c0-0.9,0.2-1.8,0.4-2.6
			c15.3-28.8,43.3-49.8,76.4-55.6c0.4-0.1,0.7-0.1,1.1-0.2c0.2,0,0.4-0.1,0.7-0.1c0.4-0.1,0.8-0.1,1.2-0.1c5.9,0,10.7,4.8,10.7,10.7
			c0,0.1,0,191.3,0,191.3v0.3C386.8,2293.8,386.8,2293.8,386.8,2293.9C386.8,2293.8,386.8,2293.9,386.8,2293.9L386.8,2293.9z
			 M331.8,2256c7.4,7.8,16.3,14.2,26.3,18.7v-150.9c-10,4.5-18.9,10.9-26.3,18.7V2256"/>
		<path id="path178"  class="st257" d="M497.5,2459.6c8.7-9.5,16.2-18.5,21.2-24.8
			c-0.1,0-0.2,0-0.3,0.1l-2.9,0.3c-0.2,0-0.9,0.1-0.9,0.1l-1.5,0.1c0,0-2.1,0.1-2.1,0.1c-4.5,0.1-6.8-0.3-7-0.4l-6.3-1.3l5.5-3.3
			c3.9-2.3,13.8-9.8,13.7-16.6c-0.2-7.3-2.9-8.1-3.9-8.4c-0.8-0.2-1.7-0.4-2.9-0.4c-0.1,0-2.1,0.2-8,6.9l-6.6,8.1l-1.8-0.7
			c0,0-1.9-0.8-5.7-1l-1.6,0c-1.8,0-3.9,1.1-5.7,3.1c-2.3,2.4-3.7,5.5-3.7,8.3c0,5.4,5.8,6.5,7.2,6.5c1.9,0,6.7-1.1,9.3-1.9l4-1.1
			l-0.9,4c-0.3,1.3-2.9,12.8-8.9,15.6c-3,1.4-5,2.2-6.3,2.7c-0.2,2.1-1.5,16.2-2.1,22C480.1,2477.2,489.7,2468,497.5,2459.6"/>
		<path id="path180_1_"  class="st257" d="M448.7,2463.6c-4.6-1.9-7.6-4.6-7.7-4.7l-2.7-2.5
			l3.4-1.6c0,0,2.1-1,4.5-2.9c3.2-2.6,6.9-7,6.9-13.2c0-0.5,0-1.1-0.1-1.6c-0.3-2.5-3.9-3.5-4.9-3.8c-2.2,0.3-8.1,3.6-9.3,4.4
			c-1.5,1-7.3,2.2-9.8,2.6c-2.2,0.3-6.6,2.4-6.6,5.8c0,0,0.3,2.5,9.7,9.7l7.3,5.3l-1,2c-0.3,0.5-6.9,12.5-19.5,12.5h-0.1
			c-0.5,7.1-1.7,24.8-2.3,34C422.7,2500.7,441.5,2474,448.7,2463.6"/>
		<path id="path182"  class="st257" d="M402.8,2495.8h-13.6c2.7,13.7,4.9,20.1,6.5,23.1
			C397.9,2515.1,401.5,2507.3,402.8,2495.8"/>
		<path id="path184_1_"  class="st257" d="M374.5,2509.6c-0.6-8.6-1.7-25.8-2.3-34.1l-2.3-0.2
			l-0.4-0.1c-0.1,0-2.8-0.7-2.8-0.7c-8.6-3-13.1-11.1-13.3-11.4l-1.1-2l1.9-1.3c7.9-5.3,15.1-11.8,15.2-13.8c0-3.4-4.4-5.5-6.6-5.8
			c-2.6-0.4-8.3-1.6-9.8-2.6c-1.2-0.8-7.1-4.1-9.3-4.4c-1,0.2-4.6,1.3-4.9,3.8c0,0.6-0.1,1.1-0.1,1.6c0,10.7,10.8,15.8,11.3,16.1
			l3.4,1.6l-2.8,2.5c-0.1,0.1-3.1,2.8-7.7,4.7c-0.1,0.1-0.4,0.2-0.4,0.2c-0.1,0-0.2,0-0.3,0.1
			C349.8,2474.3,368.3,2500.8,374.5,2509.6"/>
		<path id="path186"  class="st257" d="M342,2501.7c0,0,2.1,1.7,2.1,1.7s2.2,1.7,3.4,2.7
			c-6.6-10.8-18.1-29.5-23.3-38c-3.2,3.4-6.9,7.4-9.3,9.9C323.9,2486.3,334,2495,342,2501.7"/>
		<path id="path188_1_"  class="st257" d="M295.1,2457.9l7.7,8.3c2.8,2.9,6,6.1,9.4,9.3
			c-0.6-6.6-1.7-17.7-1.9-19.6c-1.3-0.5-3.3-1.3-6.3-2.7c-6.1-2.9-8.7-14.3-8.9-15.6l-0.9-4l4,1.1c2.6,0.7,7.4,1.9,9.3,1.9
			c1.4,0,7.2-1.2,7.2-6.5c0-1.9-0.7-4.1-1.9-6c-2-3.1-5.1-5.3-7.5-5.3c-2,0-3.7,0.2-5.3,0.5l-0.8,0.2l-5.9-2.6l-0.4-0.5
			c-7-8.8-10.6-10.9-11.3-11c-2.2,0-3.6,0.4-4.5,1.3c-0.8,0.8-1.4,1.9-1.8,3.6l-0.4,3.9c0,1.8,0.6,3.7,2,5.8
			c3.8,6,11.6,10.7,11.7,10.7l5.4,3.2l-6.1,1.4c-0.2,0-4.2,0.9-12.2,0C280.4,2441,287.2,2449.1,295.1,2457.9"/>
		<path id="path190"  class="st257" d="M469,2469.6c3.4,3.6,7.5,8,8.9,9.5
			c-15.1,13.8-31,26.9-31.7,27.6L469,2469.6"/>
		<path id="path192_1_"  class="st257" d="M195.3,2287.7c-0.4-0.9-0.6-1.7-0.6-2.4
			c0-0.7,0.4-1.3,1.1-2c0.7-0.7,1.8-1.4,3.3-2.2c1.5-0.8,3.5-1.7,6-2.9c2.5-1.1,4.5-2,6.1-2.6c1.6-0.6,2.8-0.9,3.8-1
			c1-0.1,1.7,0.1,2.2,0.5c0.5,0.4,1,1.1,1.4,2l0.9,1.9l-23.2,10.5L195.3,2287.7L195.3,2287.7z M224.3,2271.7
			c-1.3-2.8-2.8-4.7-4.5-5.8c-1.7-1.1-3.6-1.6-5.7-1.6c-2.1,0-4.2,0.4-6.6,1.3c-2.3,0.8-4.7,1.8-7.1,2.9c-2.4,1.1-4.7,2.2-6.9,3.4
			c-2.1,1.2-3.9,2.6-5.3,4.1c-1.4,1.6-2.2,3.3-2.5,5.3c-0.3,2,0.2,4.4,1.4,7.2l6.3,14l37-16.7L224.3,2271.7"/>
		<path id="path194"  class="st257" d="M211.7,2233.2l-8.4,2.3l3.5,13l-6.7,1.8l-3.3-12.2l-8,2.2
			l3.3,12.2l-7.8,2.1l-3.6-13.5l-8.4,2.3l6.4,23.8l39.2-10.6L211.7,2233.2"/>
		<path id="path196_1_"  class="st257" d="M192.3,2219.3c-0.1-1.3,0.1-2.4,0.9-3.2
			c0.7-0.8,1.9-1.3,3.6-1.4c3.3-0.4,5.1,0.8,5.3,3.6l0.2,2l-9.8,1L192.3,2219.3L192.3,2219.3z M209.4,2214.1c-0.2-2-0.7-3.7-1.5-5.1
			c-0.8-1.4-1.8-2.5-3-3.4c-1.2-0.8-2.6-1.4-4.2-1.7c-1.6-0.3-3.2-0.4-5-0.2c-4.2,0.4-7.2,1.9-9.1,4.4c-1.9,2.5-2.6,5.9-2.1,10.2
			l0.4,3.7l-15.4,1.6l1.1,10.5l40.4-4.3L209.4,2214.1"/>
		<path id="path198"  class="st257" d="M181.7,2188.7c-1.8-0.2-3.2-0.4-4.2-0.7
			c-1.1-0.3-1.8-0.7-2.2-1.2c-0.4-0.5-0.6-1.1-0.5-1.9c0-0.8,0.3-1.4,0.7-1.9c0.4-0.5,1.2-0.8,2.3-1c1.1-0.2,2.5-0.3,4.3-0.3
			c1.8,0,4.1,0.1,6.8,0.3c2.7,0.2,5,0.3,6.8,0.5c1.8,0.2,3.2,0.4,4.3,0.7c1,0.3,1.8,0.7,2.1,1.2c0.4,0.5,0.6,1.1,0.5,1.9
			c0,0.8-0.3,1.4-0.7,1.9c-0.4,0.5-1.2,0.8-2.3,1c-1.1,0.2-2.5,0.3-4.3,0.2c-1.8,0-4.1-0.1-6.8-0.3
			C185.7,2189,183.5,2188.8,181.7,2188.7L181.7,2188.7z M197.6,2199.9c2.7-0.3,4.9-1,6.7-2.1c1.7-1.1,3.1-2.5,3.9-4.3
			c0.9-1.8,1.4-4.1,1.5-6.8c0.1-2.7-0.1-5-0.8-6.9c-0.7-1.9-1.8-3.5-3.4-4.7c-1.6-1.2-3.8-2.2-6.4-2.8c-2.6-0.6-5.9-1.1-9.6-1.3
			c-3.8-0.2-7-0.1-9.7,0.2c-2.7,0.4-4.9,1-6.7,2.1c-1.7,1.1-3,2.5-3.9,4.3c-0.8,1.8-1.3,4.1-1.5,6.8c-0.1,2.7,0.1,5,0.7,6.9
			c0.6,1.9,1.7,3.5,3.4,4.7c1.6,1.2,3.8,2.2,6.4,2.8c2.6,0.6,5.9,1.1,9.6,1.3C191.6,2200.3,194.9,2200.2,197.6,2199.9"/>
		<path id="path200_1_"  class="st257" d="M196.2,2153.4c0.3-1.5,1-2.5,2-3c1-0.5,2.2-0.6,3.6-0.3
			c1.6,0.4,2.7,1,3.3,1.8c0.5,0.8,0.6,2,0.3,3.6l-0.5,2l-9.2-2.1C195.8,2155.4,196.2,2153.4,196.2,2153.4z M213.7,2153.4
			c0.4-2,0.6-3.7,0.4-5.2c-0.2-1.5-0.7-2.8-1.4-3.9c-0.7-1.1-1.7-2-2.9-2.6c-1.2-0.7-2.5-1.2-4.1-1.5c-2.7-0.6-4.9-0.5-6.8,0.1
			c-1.9,0.7-3.3,2.2-4.2,4.4l-0.1,0c0.3-2.5-0.2-4.4-1.5-5.7c-1.3-1.3-3.3-2.2-6-2.8l-3.4-0.8c-0.5-0.1-1.1-0.2-1.6-0.4
			c-0.6-0.1-1.1-0.3-1.6-0.4c-0.5-0.2-0.9-0.3-1.3-0.5c-0.4-0.2-0.7-0.3-0.9-0.5c-0.2-0.2-0.4-0.4-0.5-0.6c-0.2-0.2-0.3-0.5-0.4-0.8
			l-0.6-0.1l-2.5,10.9c0.5,0.4,1,0.7,1.7,1c0.7,0.3,1.4,0.5,2.1,0.7c0.7,0.2,1.4,0.4,2,0.6c0.6,0.2,1.2,0.3,1.6,0.4l2.7,0.6
			c1.1,0.3,2,0.5,2.7,0.8c0.7,0.3,1.3,0.6,1.6,1c0.4,0.4,0.6,0.8,0.7,1.3c0.1,0.5,0,1-0.1,1.7l-0.6,2.8l-15.9-3.6l-2.3,10.3l39.6,9
			L213.7,2153.4"/>
		<path id="path202"  class="st257" d="M208.2,2138.3l8.4,3.3l9.7-24.5l-8.4-3.3l-2.9,7.4
			l-29.4-11.6l-3.9,9.8l29.4,11.6L208.2,2138.3"/>
		<path id="path204_1_"  class="st257" d="M233,2105.2l-35.8-19.2l-5,9.3l35.8,19.2L233,2105.2"/>
		<path id="path206"  class="st257" d="M240,2094l-22.5-21.2l0.1-0.1l27.5,14.2l6.5-9.2l-38.2-16.3
			l-7.9,11.1l28.2,30.5L240,2094"/>
		<path id="path208"  class="st257" d="M239.8,2051.1c-1.2-1.3-2.1-2.4-2.7-3.3
			c-0.6-0.9-0.9-1.7-0.8-2.3c0-0.6,0.3-1.2,0.9-1.8c0.6-0.6,1.2-0.9,1.8-0.9c0.6,0,1.4,0.2,2.3,0.8c0.9,0.6,2.1,1.5,3.4,2.7
			c1.3,1.2,3,2.8,4.9,4.7c1.9,1.9,3.5,3.5,4.8,4.8c1.2,1.3,2.1,2.4,2.7,3.3c0.6,0.9,0.9,1.7,0.8,2.3c0,0.6-0.3,1.2-0.9,1.8
			c-0.6,0.6-1.2,0.9-1.8,0.9c-0.6,0-1.4-0.2-2.3-0.8c-0.9-0.6-2.1-1.5-3.4-2.7c-1.3-1.2-3-2.8-4.9-4.7
			C242.6,2054.1,241,2052.5,239.8,2051.1z M244.3,2070c2.3,1.5,4.4,2.5,6.4,2.8c2,0.4,3.9,0.2,5.8-0.6c1.9-0.8,3.7-2.1,5.6-4
			c1.9-1.9,3.2-3.8,4-5.7c0.7-1.9,0.9-3.8,0.5-5.8c-0.4-2-1.4-4.1-3-6.3c-1.6-2.2-3.7-4.7-6.4-7.3c-2.7-2.7-5.2-4.7-7.4-6.3
			c-2.2-1.5-4.4-2.5-6.4-2.8c-2-0.4-3.9-0.1-5.7,0.7c-1.8,0.8-3.7,2.2-5.6,4.1c-1.9,1.9-3.2,3.8-4,5.6c-0.8,1.8-1,3.7-0.6,5.7
			c0.4,2,1.4,4.1,2.9,6.3c1.6,2.2,3.7,4.7,6.4,7.3C239.6,2066.4,242.1,2068.5,244.3,2070"/>
		<path id="path210"  class="st257" d="M280.9,2038.7l4.7,7.7l22.4-13.8l-4.7-7.7l-6.8,4.2
			l-16.5-26.9l-9,5.5l16.5,26.9L280.9,2038.7"/>
		<path id="path212"  class="st257" d="M308.4,2003c-0.6-1.7-1-3.1-1.2-4.1
			c-0.2-1.1-0.1-1.9,0.1-2.5c0.3-0.6,0.8-1,1.5-1.3c0.7-0.3,1.4-0.4,2-0.2c0.6,0.2,1.2,0.8,1.9,1.6c0.6,0.9,1.3,2.1,2.1,3.8
			c0.8,1.6,1.7,3.7,2.7,6.2c1.1,2.5,1.9,4.6,2.5,6.3c0.6,1.7,1,3.1,1.2,4.1c0.2,1.1,0.1,1.9-0.1,2.5c-0.3,0.6-0.8,1-1.5,1.3
			c-0.7,0.3-1.4,0.4-2,0.1c-0.6-0.2-1.2-0.7-1.8-1.6c-0.6-0.9-1.3-2.1-2.1-3.8c-0.8-1.6-1.7-3.7-2.7-6.2
			C309.9,2006.8,309.1,2004.7,308.4,2003z M305.3,2022.2c1.5,2.3,3.1,4,4.8,5.1c1.7,1.1,3.5,1.7,5.6,1.7c2,0,4.3-0.5,6.7-1.5
			c2.5-1,4.4-2.3,5.8-3.7c1.4-1.4,2.3-3.2,2.7-5.2c0.4-2,0.3-4.3-0.3-7c-0.6-2.7-1.6-5.7-3.1-9.2c-1.5-3.5-2.9-6.4-4.4-8.7
			c-1.5-2.3-3.1-4-4.8-5.1c-1.7-1.1-3.5-1.7-5.5-1.6c-2,0-4.2,0.6-6.7,1.6c-2.5,1-4.4,2.2-5.9,3.6c-1.4,1.4-2.4,3.1-2.8,5.1
			c-0.4,2-0.3,4.3,0.3,7c0.6,2.7,1.6,5.7,3.1,9.2C302.3,2017,303.8,2019.9,305.3,2022.2"/>
		<path id="path214"  class="st257" d="M348.9,2017.8l-7.6-31l12.6-3.1l-2.1-8.4l-22.9,5.6
			l9.7,39.4L348.9,2017.8"/>
		<path id="path216_1_"  class="st257" d="M371.3,1984.3c-0.2-2,0-3.3,0.5-4
			c0.5-0.7,1.3-1.1,2.3-1.2c1-0.1,1.8,0.2,2.4,0.8c0.6,0.6,1,1.9,1.2,3.9l2.5,29.1l10.5-0.9l-2.3-26.5c-0.2-2.8-0.8-5.2-1.5-7
			c-0.8-1.8-1.8-3.3-3-4.3c-1.2-1-2.7-1.7-4.5-1.9c-1.7-0.3-3.7-0.3-5.9-0.1c-2.2,0.2-4.1,0.6-5.8,1.1c-1.7,0.6-3,1.5-4.1,2.7
			c-1.1,1.2-1.8,2.8-2.3,4.8c-0.4,1.9-0.5,4.3-0.3,7.1l2.3,26.5l10.5-0.9L371.3,1984.3"/>
		<path id="path218"  class="st257" d="M410.6,2005.5c-0.5,0.8-1.3,1.2-2.3,1.1
			c-0.8-0.1-1.4-0.3-1.9-0.8c-0.4-0.5-0.7-1.2-0.9-2.3c-0.2-1.1-0.2-2.5-0.2-4.3c0.1-1.8,0.2-4.1,0.4-6.8c0.2-2.7,0.4-5,0.6-6.7
			c0.2-1.8,0.5-3.2,0.8-4.2c0.3-1,0.7-1.7,1.2-2.1c0.5-0.4,1.2-0.5,2-0.5c0.6,0,1.1,0.3,1.5,0.6c0.4,0.3,0.7,0.9,0.8,1.7
			c0.2,0.8,0.3,1.8,0.3,3.1c0,1.3-0.1,2.9-0.2,4.8l10.2,0.8l0.2-3c0.2-2.8,0-5.2-0.6-7.1c-0.6-1.9-1.5-3.4-2.7-4.5
			c-1.2-1.1-2.5-1.9-4.1-2.4c-1.6-0.5-3.2-0.8-4.9-0.9c-3-0.2-5.4-0.1-7.4,0.5c-2,0.6-3.5,1.7-4.7,3.3c-1.2,1.6-2.1,3.7-2.7,6.3
			c-0.6,2.6-1,5.8-1.3,9.6c-0.3,3.9-0.3,7.1,0,9.9c0.3,2.7,0.9,4.9,1.9,6.7c1,1.7,2.4,3.1,4.2,3.9c1.8,0.9,4.1,1.4,6.8,1.6
			c2.4,0.2,4.5,0,6.2-0.5c1.7-0.5,3.1-1.2,4.3-2.3c1.1-1,2-2.3,2.6-3.9c0.6-1.5,1-3.3,1.1-5.3l0.2-2.5l-10.3-0.8l-0.2,2.3
			C411.4,2003.2,411.1,2004.7,410.6,2005.5"/>
		<path id="path220"  class="st257" d="M438.8,2009.6l1.2-17.4l5.8,1.4l-6.9,16.1L438.8,2009.6z
			 M443.4,2019.2l19.2-37.1l-10.9-2.7l-2.7,6.7l-8.2-2l0.6-7.2l-10.8-2.6l-0.1,41.8L443.4,2019.2"/>
		<path id="path222"  class="st257" d="M490.8,2039.8l4-7.6l-11.9-6.3l3.2-6.2l11.2,5.9l3.9-7.3
			l-11.2-5.9l7.8-14.8l-9.3-4.9l-19,35.9L490.8,2039.8"/>
		<path id="path224"  class="st257" d="M518.8,2023.9c1.2-1.6,2.2-2.5,3-2.6c0.9-0.2,1.7,0,2.5,0.6
			c0.8,0.6,1.2,1.3,1.3,2.2c0.1,0.9-0.5,2.1-1.7,3.7l-17.6,23.5l8.5,6.3l16-21.3c1.7-2.3,2.9-4.4,3.5-6.2c0.6-1.9,0.9-3.6,0.6-5.2
			c-0.2-1.6-0.9-3.1-2-4.5c-1.1-1.3-2.6-2.7-4.4-4.1c-1.8-1.3-3.5-2.3-5.1-3c-1.6-0.7-3.2-0.9-4.9-0.7c-1.6,0.2-3.2,0.9-4.8,2.1
			c-1.6,1.1-3.3,2.9-5,5.1l-16,21.3l8.5,6.3L518.8,2023.9"/>
		<path id="path226"  class="st257" d="M522.3,2052.2l-6.4,6.3l18.5,18.9l6.4-6.3l-5.6-5.7
			l22.6-22.1l-7.4-7.6l-22.6,22.1L522.3,2052.2"/>
		<path id="path228_1_"  class="st257" d="M570.5,2070.9c0.6,0.8,0.7,1.7,0.5,2.8
			c-0.2,1.1-1,2.1-2.4,3.1c-1.3,0.9-2.5,1.3-3.6,1.2c-1.1-0.1-2-0.6-2.5-1.4l-1.7-2.4l8-5.7C568.8,2068.5,570.5,2070.9,570.5,2070.9
			z M556.4,2080.5c0.6,0.9,0.8,1.8,0.5,2.7c-0.3,0.9-0.9,1.7-1.9,2.4c-0.9,0.7-1.9,1-2.9,1c-1,0-1.8-0.4-2.5-1.3l-1.5-2.1l6.8-4.8
			C554.9,2078.4,556.4,2080.5,556.4,2080.5z M545.1,2092c2.2,3.1,4.6,4.8,7.1,5.2c2.5,0.4,5.1-0.3,7.6-2.1c0.9-0.6,1.6-1.3,2.3-2.1
			c0.7-0.8,1.2-1.6,1.6-2.5c0.4-0.9,0.5-1.8,0.5-2.8c0-1-0.2-2-0.7-3.1l0.1-0.1c0.9,1,1.8,1.8,2.8,2.2c1,0.4,2.1,0.7,3.1,0.6
			c1.1,0,2.1-0.2,3.1-0.6c1-0.4,1.9-0.9,2.8-1.5c1.4-1,2.6-2.1,3.5-3.4c0.9-1.2,1.6-2.5,1.8-4c0.3-1.4,0.2-2.9-0.2-4.5
			c-0.4-1.6-1.3-3.3-2.6-5.1l-9.3-13l-33.1,23.6L545.1,2092"/>
		<path id="path230"  class="st257" d="M582.3,2101.7c1.7-0.7,3-1.2,4.1-1.4c1.1-0.2,1.9-0.2,2.5,0
			c0.6,0.2,1,0.7,1.4,1.4c0.3,0.7,0.4,1.4,0.2,2c-0.2,0.6-0.7,1.3-1.5,1.9c-0.8,0.7-2.1,1.5-3.7,2.3c-1.6,0.8-3.6,1.9-6.1,3.1
			c-2.5,1.2-4.5,2.2-6.2,2.9c-1.7,0.7-3,1.2-4.1,1.4c-1.1,0.2-1.9,0.2-2.5,0c-0.6-0.2-1-0.7-1.4-1.4c-0.3-0.7-0.4-1.4-0.3-2
			c0.2-0.6,0.7-1.3,1.5-1.9c0.8-0.7,2.1-1.5,3.7-2.3c1.6-0.8,3.6-1.9,6.1-3.1C578.6,2103.4,580.7,2102.4,582.3,2101.7z M563,2099.6
			c-2.2,1.6-3.8,3.3-4.8,5c-1,1.8-1.5,3.7-1.4,5.7c0.1,2,0.7,4.2,1.9,6.7c1.2,2.4,2.5,4.3,4,5.6c1.5,1.3,3.3,2.1,5.3,2.4
			c2,0.3,4.3,0.1,7-0.7c2.6-0.7,5.6-1.9,9.1-3.6c3.4-1.7,6.2-3.3,8.4-4.9c2.2-1.6,3.8-3.3,4.8-5c1-1.8,1.5-3.6,1.3-5.6
			c-0.2-2-0.8-4.2-2-6.6c-1.2-2.4-2.5-4.3-4-5.7c-1.5-1.3-3.2-2.2-5.2-2.4c-2-0.3-4.3-0.1-7,0.7c-2.6,0.7-5.6,1.9-9,3.6
			C568,2096.4,565.2,2098,563,2099.6"/>
		<path id="path232_1_"  class="st257" d="M569.7,2142.9l30.6-9.4l3.8,12.5l8.3-2.5l-6.9-22.5
			l-38.9,11.9L569.7,2142.9"/>
		<path id="path234"  class="st257" d="M585.3,2189.4c-0.9-0.4-1.3-1.1-1.4-2.1
			c0-0.8,0.1-1.4,0.5-1.9c0.4-0.5,1.1-0.9,2.1-1.2c1.1-0.3,2.5-0.6,4.2-0.7c1.8-0.2,4.1-0.3,6.8-0.5c2.7-0.2,5-0.2,6.8-0.3
			c1.8,0,3.2,0.1,4.3,0.3c1.1,0.2,1.8,0.5,2.3,1c0.4,0.5,0.7,1.1,0.7,1.9c0,0.6-0.1,1.2-0.4,1.6c-0.3,0.4-0.8,0.8-1.6,1.1
			c-0.8,0.3-1.8,0.5-3,0.6c-1.3,0.2-2.9,0.3-4.8,0.4l0.6,10.3l3-0.2c2.9-0.1,5.1-0.6,6.9-1.5c1.8-0.9,3.2-1.9,4.1-3.2
			c1-1.3,1.6-2.8,1.9-4.4c0.3-1.6,0.4-3.3,0.3-5c-0.2-3-0.6-5.4-1.5-7.2c-0.8-1.9-2.1-3.3-3.8-4.2c-1.8-1-4-1.6-6.6-1.8
			c-2.7-0.2-5.9-0.3-9.7-0.1c-3.9,0.2-7.1,0.6-9.8,1.2c-2.7,0.6-4.8,1.5-6.4,2.8c-1.6,1.2-2.7,2.8-3.4,4.7c-0.6,1.9-0.9,4.2-0.7,7
			c0.1,2.4,0.6,4.4,1.2,6c0.7,1.6,1.6,3,2.8,3.9c1.2,1,2.6,1.7,4.2,2.1c1.6,0.4,3.4,0.5,5.3,0.4l2.6-0.1l-0.5-10.3l-2.3,0.1
			C587.8,2189.9,586.2,2189.8,585.3,2189.4"/>
		<path id="path236_1_"  class="st257" d="M577,2214.9l31.8,3.1l-1.3,13l8.6,0.8l2.3-23.5
			l-40.4-3.9L577,2214.9"/>
		<path id="path238"  class="st257" d="M601.2,2247.1c1.9,0.5,3.1,1.1,3.6,1.8
			c0.5,0.7,0.6,1.6,0.4,2.5c-0.2,1-0.8,1.6-1.5,2c-0.8,0.4-2.1,0.3-4.1-0.2l-28.4-7.3l-2.6,10.3l25.8,6.6c2.8,0.7,5.1,1,7.1,0.9
			c2-0.1,3.7-0.6,5.1-1.4c1.4-0.8,2.5-2,3.3-3.6c0.8-1.5,1.5-3.4,2.1-5.6c0.5-2.1,0.8-4.1,0.8-5.8c0-1.8-0.4-3.4-1.2-4.8
			c-0.8-1.4-2.1-2.6-3.7-3.7c-1.7-1.1-3.9-1.9-6.7-2.6l-25.8-6.6l-2.6,10.3L601.2,2247.1"/>
		<path id="path240_1_"  class="st257" d="M592,2285.7c-0.4,0.9-1.1,1.6-2.2,1.9
			c-1.1,0.4-2.4,0.2-3.9-0.5c-1.5-0.7-2.4-1.5-2.9-2.5c-0.5-1-0.5-2-0.1-2.9l1.2-2.8l9.1,4L592,2285.7L592,2285.7z M576.6,2278.3
			c-0.4,1-1.2,1.6-2.1,1.8c-1,0.2-2,0.1-3-0.4c-1-0.5-1.8-1.1-2.4-2c-0.5-0.9-0.6-1.8-0.1-2.8l1-2.4l7.6,3.4L576.6,2278.3
			L576.6,2278.3z M560.9,2274.5c-1.6,3.5-1.9,6.4-0.9,8.8c0.9,2.4,2.8,4.2,5.6,5.5c1,0.4,2,0.7,3,0.9c1,0.2,2,0.2,2.9,0.1
			c0.9-0.1,1.9-0.5,2.7-0.9c0.8-0.5,1.6-1.2,2.3-2.2l0.1,0.1c-0.4,1.3-0.6,2.5-0.4,3.6c0.1,1.1,0.5,2.1,1,3c0.6,0.9,1.2,1.7,2.1,2.4
			c0.8,0.7,1.8,1.2,2.7,1.7c1.6,0.7,3.1,1.2,4.7,1.3c1.5,0.2,3,0.1,4.4-0.4c1.4-0.5,2.6-1.3,3.8-2.5c1.2-1.2,2.2-2.8,3.1-4.8
			l6.5-14.7l-37.1-16.5L560.9,2274.5"/>
	</g>
</g>
</svg>
