<?xml version="1.0" encoding="utf-8"?>
<!-- Generator: Adobe Illustrator 19.2.1, SVG Export Plug-In . SVG Version: 6.00 Build 0)  -->
<svg version="1.1" id="Capa_1" xmlns="http://www.w3.org/2000/svg" xmlns:xlink="http://www.w3.org/1999/xlink" x="0px" y="0px"
	 viewBox="0 0 100 100" style="enable-background:new 0 0 100 100;" xml:space="preserve">
<style type="text/css">
	.st0{fill:url(#path34_4_);}
	.st1{fill:url(#path890_1_);}
	.st2{fill:#FFE500;stroke:#000000;stroke-width:2.098;stroke-miterlimit:3.863;}
	.st3{fill:#DA020E;}
	.st4{fill:#FFE500;}
	.st5{clip-path:url(#SVGID_2_);}
	.st6{fill:none;stroke:#B54005;stroke-width:10;stroke-miterlimit:3.863;}
	.st7{fill:url(#path7506_1_);}
	.st8{fill:url(#path8794_1_);}
	.st9{fill:url(#path15846_1_);}
	.st10{fill:url(#path16274_1_);}
	.st11{fill:url(#path39821_1_);}
	.st12{fill:url(#path39847_1_);}
	.st13{fill:url(#path39878_1_);}
	.st14{fill:url(#path39888_1_);}
	.st15{fill:url(#path41035_1_);}
	.st16{fill:url(#path9646-8_1_);}
	.st17{fill:url(#path41092_1_);}
	.st18{fill:url(#path41094_1_);}
	.st19{fill:none;stroke:#000000;stroke-width:2.098;stroke-miterlimit:3.863;}
	.st20{fill:url(#path41152_1_);}
	.st21{fill:url(#path39854_1_);}
	.st22{fill:url(#path39874_1_);}
	.st23{fill:#9C824A;stroke:#9C824A;stroke-width:0.793;stroke-miterlimit:282;}
	.st24{fill:#023474;stroke:#023474;stroke-width:0.793;stroke-miterlimit:282;}
	.st25{fill:#FFFFFF;stroke:#FFFFFF;stroke-width:0.793;stroke-miterlimit:282;}
	.st26{fill:#EF0107;stroke:#EF0107;stroke-width:0.793;stroke-miterlimit:282;}
	.st27{fill:#DB0007;stroke:#DB0007;stroke-width:0.793;stroke-miterlimit:282;}
	.st28{fill:#FFFFFF;}
	.st29{fill:#9C824A;}
	.st30{fill:#EF0107;stroke:#EF0107;stroke-width:0.3115;stroke-miterlimit:282;}
	.st31{fill:#DB0007;stroke:#DB0007;stroke-width:0.3115;stroke-miterlimit:282;}
	.st32{fill:#DB0007;}
	.st33{fill:#FFFFFF;stroke:#FFFFFF;stroke-width:0.3115;stroke-miterlimit:282;}
	.st34{fill:#FFFFFF;stroke:#FFFFFF;stroke-width:0.554;stroke-miterlimit:3.864;}
	.st35{fill:#231F20;}
	.st36{fill:#00B6F1;stroke:#00B6F1;stroke-width:1.700000e-02;stroke-miterlimit:3.864;}
	.st37{fill:#EF3E2E;}
	.st38{fill:#BBBDBF;}
	.st39{fill:#F0B83D;}
	.st40{fill:#00B6F1;stroke:#FFFFFF;stroke-width:1.700000e-02;stroke-miterlimit:3.864;}
	.st41{fill:#001C58;}
	.st42{fill:#94BEE5;}
	.st43{fill:none;stroke:#7A003C;stroke-width:2.2437;stroke-miterlimit:6;}
	.st44{fill:#7A003C;}
	.st45{fill:#FFE600;}
	.st46{fill:#DBA111;}
	.st47{fill:#034694;}
	.st48{fill:#D1D3D4;}
	.st49{fill:#ED1C24;}
	.st50{fill:#6A7AB5;}
	.st51{fill:none;}
	.st52{fill:#274488;}
	.st53{fill:#004798;stroke:#004798;stroke-width:9.375000e-02;}
	.st54{fill:#FFFFFF;stroke:#FFFFFF;stroke-width:9.375000e-02;}
	.st55{fill:#FABC00;stroke:#FABC00;stroke-width:9.375000e-02;}
	.st56{fill:none;stroke:#FFFFFF;stroke-width:7.865;stroke-miterlimit:3.864;}
	.st57{fill:none;stroke:#FFFFFF;stroke-width:7.865;stroke-miterlimit:12;}
	.st58{fill:none;stroke:#FFFFFF;stroke-width:7.865;stroke-miterlimit:22;}
	.st59{fill:none;stroke:#FFFFFF;stroke-width:7.865;stroke-miterlimit:6;}
	.st60{fill:#00A398;}
	.st61{fill:#D00027;}
	.st62{fill:none;stroke:#FFFFFF;stroke-width:17.3907;stroke-miterlimit:3.864;}
	.st63{fill:none;stroke:#FFFFFF;stroke-width:13.1107;stroke-miterlimit:3.864;}
	.st64{fill:#FEF667;}
	.st65{fill:#D00027;stroke:#D00027;}
	.st66{fill:#5299C6;}
	.st67{fill:#60223B;}
	.st68{fill:#F7C240;}
	.st69{fill:#292D6B;}
	.st70{fill:#1B458F;}
	.st71{fill:#C4122E;}
	.st72{fill:#27409B;}
	.st73{clip-path:url(#SVGID_4_);}
	.st74{fill:#F4F4F4;}
	.st75{fill:#D3D2D2;}
	.st76{fill:#A7A5A6;}
	.st77{fill:#091453;}
	.st78{fill:none;stroke:#FFFFFF;stroke-width:6.6301;}
	.st79{clip-path:url(#SVGID_6_);}
	.st80{fill:#724314;}
	.st81{fill:#240B08;}
	.st82{fill:#018B4B;}
	.st83{fill:#A6181D;}
	.st84{fill:#592D09;}
	.st85{fill:#FFCE65;}
	.st86{fill:#5CBFEB;}
	.st87{fill:none;stroke:#000000;stroke-width:10;}
	.st88{fill:none;stroke:#000000;}
	.st89{fill:#B2B2B2;}
	.st90{fill:none;stroke:#000000;stroke-width:0.3;}
	.st91{fill:#00A650;stroke:#000000;stroke-width:2;}
	.st92{fill:#241F20;stroke:#241F20;stroke-width:9.375000e-02;}
	.st93{fill:#FFF200;stroke:#FFF200;stroke-width:9.375000e-02;}
	.st94{fill:#A68A26;}
	.st95{fill:none;stroke:#A68A26;stroke-width:4.792100e-02;stroke-miterlimit:3.8637;}
	.st96{fill:#211E1E;}
	.st97{fill:none;stroke:#211E1E;stroke-width:4.792100e-02;stroke-miterlimit:3.8637;}
	.st98{fill:#EB172B;}
	.st99{fill:none;stroke:#EB172B;stroke-width:4.792100e-02;stroke-miterlimit:3.8637;}
	.st100{fill:#A68A26;stroke:#A68A26;stroke-width:4.792100e-02;stroke-miterlimit:3.8637;}
	.st101{fill:#D1BF7F;}
	.st102{fill:none;stroke:#D1BF7F;stroke-width:4.792100e-02;stroke-miterlimit:3.8637;}
	.st103{fill:none;stroke:#FFFFFF;stroke-width:4.792100e-02;stroke-miterlimit:3.8637;}
	.st104{fill:#EB172B;stroke:#EB172B;stroke-width:4.792100e-02;stroke-miterlimit:3.8637;}
	.st105{fill:#ED2127;}
	.st106{fill:#FBEE23;}
	.st107{stroke:#000000;}
	.st108{fill:#CF1F44;}
	.st109{fill:#1B449C;}
	.st110{fill:#E03A3E;}
	.st111{fill:#E03A3E;stroke:#E03A3E;stroke-width:0.6565;}
	.st112{fill:none;stroke:#1B449C;stroke-width:0.7493;}
	.st113{fill:none;stroke:#1B449C;stroke-width:0.7567;}
	.st114{fill:#1B449C;stroke:#1B449C;stroke-width:0.6274;}
	.st115{fill:#1B449C;stroke:#1B449C;stroke-width:0.6755;}
	.st116{fill:#2E6ABD;stroke:#2E6ABD;stroke-width:0.617;}
	.st117{fill:#FFFFFF;stroke:#FFFFFF;stroke-width:0.6175;}
	.st118{fill:#ED1248;}
	.st119{fill:#2E6ABD;}
	.st120{fill:#FDE100;}
	.st121{fill:#CC0000;}
	.st122{fill:#211E1F;}
	.st123{fill:#ED1A3B;}
	.st124{fill:#00AEEF;}
	.st125{fill:#FFC40D;}
	.st126{fill:#22B24C;}
	.st127{fill:#FFC20E;}
	.st128{fill:#0A3F86;}
	.st129{fill:#005CA9;}
	.st130{fill:#FFE000;}
	.st131{fill:#E2001A;}
	.st132{opacity:0;}
	.st133{opacity:0;fill:#FFFFFF;}
	.st134{fill:#FFFFFF;stroke:#000000;}
	.st135{fill:#0060A9;}
	.st136{fill:#E32219;}
	.st137{fill:#FFED00;}
	.st138{fill:#1D9053;}
	.st139{fill:#52A600;}
	.st140{fill:#EE2523;}
	.st141{fill:#F7D117;}
	.st142{fill:#171796;}
	.st143{fill:#009959;}
	.st144{fill:#D42E12;}
	.st145{fill:#703824;}
	.st146{fill:#E5254E;}
	.st147{fill:#8AC3EE;}
	.st148{fill:#B19221;}
	.st149{fill:#F5C03E;}
	.st150{fill:#FF1119;}
	.st151{fill:#1E6BC0;}
	.st152{fill:#B4742A;}
	.st153{fill:#371B02;}
	.st154{fill:url(#SVGID_7_);}
	.st155{fill:url(#SVGID_8_);}
	.st156{fill:url(#SVGID_9_);}
	.st157{fill:url(#SVGID_10_);}
	.st158{fill:url(#SVGID_11_);}
	.st159{fill:url(#SVGID_12_);}
	.st160{fill:url(#SVGID_13_);}
	.st161{fill:url(#SVGID_14_);}
	.st162{fill:url(#SVGID_15_);}
	.st163{fill:url(#SVGID_16_);}
	.st164{fill:#EB2626;}
	.st165{fill:#E9C32C;}
	.st166{fill:#D9D9D9;}
	.st167{fill:#009C5E;}
	.st168{fill:#1C75BC;}
	.st169{fill:#611D5C;}
	.st170{fill:#E2B900;}
	.st171{fill:#004B95;}
	.st172{fill:#A4234B;}
	.st173{fill:#DB2F36;}
	.st174{fill:#FFDF00;}
	.st175{fill:#A38D44;}
	.st176{fill:#57175E;}
	.st177{fill:#AFDCFD;}
	.st178{fill:#0090C6;}
	.st179{fill:#DB5232;}
	.st180{fill:#23C1E0;}
	.st181{fill:#F1A92A;}
	.st182{fill:#167FB6;}
	.st183{fill:#FED75D;}
	.st184{fill:#378CBF;}
	.st185{fill:#3E9692;}
	.st186{fill:#E67F29;}
	.st187{fill:#D8B43C;}
	.st188{fill:#EF3B33;}
	.st189{fill:#24923D;}
	.st190{opacity:6.000001e-02;fill:#101010;enable-background:new    ;}
	.st191{fill:#00529F;}
	.st192{fill:#EE324E;}
	.st193{fill:#FEBE10;}
	.st194{fill:#143C8B;}
	.st195{fill:#FFE24A;}
	.st196{fill:#EC1D24;}
	.st197{fill:#E6A514;}
	.st198{fill:#FFDF1C;}
	.st199{fill:#EE3524;}
	.st200{fill:#B23428;}
	.st201{fill:#D18816;}
	.st202{fill:#0097D7;}
	.st203{fill:#ED1C23;}
	.st204{fill:#E30613;}
	.st205{fill:#FFE400;}
	.st206{fill:#C51A1B;}
	.st207{clip-path:url(#SVGID_19_);}
	.st208{clip-path:url(#SVGID_20_);fill:none;stroke:#000000;stroke-width:0.8131;stroke-miterlimit:3.864;}
	.st209{fill:#0093D5;}
	.st210{fill:#004B9D;}
	.st211{fill:#FCC24F;}
	.st212{fill:#009545;}
	.st213{fill:#0072BB;}
	.st214{fill:#C4974E;}
	.st215{fill:url(#path1292_1_);}
	.st216{fill:#004996;}
	.st217{fill:#FFE667;}
	.st218{fill:none;stroke:#005187;stroke-width:0.153;stroke-miterlimit:3.864;}
	.st219{fill:#005187;}
	.st220{clip-path:url(#SVGID_22_);}
	.st221{clip-path:url(#SVGID_24_);fill:none;stroke:#000000;stroke-width:0.296;stroke-miterlimit:3.864;}
	.st222{clip-path:url(#SVGID_26_);fill:#FFE667;}
	.st223{clip-path:url(#SVGID_28_);fill:none;stroke:#000000;stroke-width:8.300000e-02;stroke-miterlimit:3.864;}
	.st224{fill:none;stroke:#000000;stroke-width:0.153;stroke-miterlimit:3.864;}
	.st225{clip-path:url(#SVGID_30_);fill:#E70005;}
	.st226{clip-path:url(#SVGID_32_);fill:none;stroke:#E70005;stroke-width:0.296;stroke-miterlimit:3.864;}
	.st227{clip-path:url(#SVGID_34_);fill:#E70005;}
	.st228{clip-path:url(#SVGID_36_);fill:none;stroke:#E70005;stroke-width:0.296;stroke-miterlimit:3.864;}
	.st229{clip-path:url(#SVGID_38_);fill:#E70005;}
	.st230{clip-path:url(#SVGID_40_);fill:none;stroke:#E70005;stroke-width:0.296;stroke-miterlimit:3.864;}
	.st231{clip-path:url(#SVGID_42_);fill:#E70005;}
	.st232{clip-path:url(#SVGID_44_);fill:none;stroke:#E70005;stroke-width:0.296;stroke-miterlimit:3.864;}
	.st233{fill:#E70005;}
	.st234{fill:none;stroke:#000000;stroke-width:0.141;stroke-miterlimit:3.864;}
	.st235{fill:#00276D;}
	.st236{fill:#C49308;}
	.st237{fill:#179D33;}
	.st238{fill:#999999;}
	.st239{fill:#FF0000;}
	.st240{fill:#E31837;}
	.st241{fill:#06357A;}
	.st242{fill:#B4053F;}
	.st243{fill:#DCA43E;}
	.st244{fill:#005CA5;}
	.st245{fill:#FAC400;}
	.st246{fill:#004083;}
	.st247{fill:#A95932;}
	.st248{fill:none;stroke:#000000;stroke-width:1.2215;}
	.st249{fill:#E62627;}
	.st250{fill:#00458C;}
	.st251{fill:#E11B22;}
	.st252{fill:#00AB4E;}
	.st253{fill:#F47920;}
	.st254{fill:#C7C8CA;}
	.st255{fill:#E11515;}
	.st256{fill:#A4965F;}
	.st257{fill:#E51636;}
	.st258{fill:#EACC00;}
	.st259{fill:#4F846B;}
	.st260{fill:#E22227;}
	.st261{fill:#FAE700;}
	.st262{fill:url(#SVGID_45_);}
	.st263{fill:#666666;}
	.st264{fill:#FFF200;}
	.st265{fill:#00275D;}
	.st266{fill:#EF3E33;}
	.st267{fill:none;stroke:#00275D;stroke-width:2.632;}
	.st268{fill:#3F7652;}
	.st269{fill:#F1D261;}
	.st270{fill:#004D8F;}
	.st271{fill:#E7B137;stroke:#E7B137;stroke-miterlimit:10;}
	.st272{fill:#E7B137;}
	.st273{fill:#162577;}
	.st274{fill:#12692C;}
	.st275{fill:#D8141D;}
	.st276{fill:#AB830D;}
	.st277{fill:#0086CB;}
	.st278{fill:#001F42;}
	.st279{fill:#9A8F4A;}
	.st280{fill:#00559D;}
	.st281{fill:#FDDE00;}
	.st282{fill:#00924C;}
	.st283{fill:#233984;}
	.st284{fill:#FFD42E;}
	.st285{fill:#BA3733;}
	.st286{fill:#46714D;}
	.st287{fill:#221F1F;}
	.st288{fill:#00559E;}
	.st289{fill:#005C46;}
	.st290{fill:#FBC860;}
	.st291{fill:#D57C48;}
	.st292{fill:#040403;}
	.st293{fill:#4AB969;}
	.st294{fill:#8ED8F8;}
	.st295{fill:#FEC34E;}
	.st296{fill:#FFC95B;}
	.st297{fill:#00644C;}
	.st298{fill:#70B865;}
	.st299{fill:#CA6F44;}
	.st300{fill:#A8B8BE;}
	.st301{fill:#1C2C80;}
	.st302{fill:#E10321;}
	.st303{fill:none;stroke:#231F20;stroke-width:0.318;stroke-miterlimit:3.864;}
	.st304{fill:#D71920;}
	.st305{fill:#484749;}
	.st306{fill:#D9DBDC;}
	.st307{fill:#DF725A;}
	.st308{fill:#F2CABA;}
	.st309{fill:#E89C84;}
	.st310{fill:#264F99;}
	.st311{clip-path:url(#SVGID_47_);}
	.st312{fill:#161413;}
	.st313{fill:#ED1B26;}
	.st314{fill:#E60D2E;}
	.st315{fill:#FCD600;}
	.st316{fill:#004D91;}
	.st317{fill:#EAB412;}
	.st318{fill:#FDD31D;}
	.st319{fill:#EFB800;}
</style>
<g>
	<path class="st28" d="M78.2,49c0.5-5,0.6-9.6,0.6-12.8c0-1.4,0-2.6,0-3.4c0-0.4,0-0.7,0-0.9c0-0.1,0-0.2,0-0.2c0,0,0-0.1,0-0.1
		c0,0,0,0,0,0c0,0,0,0,0,0c0,0,0,0,0,0c0,0,0,0,0,0l0-0.5c0-0.7-0.7-1.3-1.4-1.3h-0.5H64.4c-1.5-4.7-5.3-8.5-10.4-9.9
		c-0.3-0.1-0.6-0.1-0.8-0.2c0-0.2,0.1-0.4,0-0.6l-0.2-1.3l0.9-0.9c0.4-0.4,0.5-0.9,0.4-1.4c-0.2-0.5-0.6-0.9-1.1-0.9l-1.3-0.2
		l-0.6-1.2c-0.2-0.5-0.7-0.8-1.3-0.8c-0.5,0-1,0.3-1.3,0.8l-0.6,1.2l-1.3,0.2c-0.5,0.1-1,0.4-1.1,0.9c-0.2,0.5,0,1.1,0.4,1.4
		l0.9,0.9l-0.2,1.3c0,0.2,0,0.4,0,0.6c-5.1,1.1-9.5,4.8-11.2,10.1h-13c-0.7,0-1.4,0.6-1.4,1.3l0,0.5l0,0h0c0,0,0,0,0,0c0,0,0,0,0,0
		c0,0.2-0.1,1.9-0.1,4.6c0,3.2,0.1,7.7,0.6,12.8c-5.5,5.8-8.9,13.7-8.9,22.3c0,0.1,0,0.1,0,0.2c0.1,10.9,5.4,20.2,13.2,25.7
		c0.5,0.4,1.2,0.3,1.7-0.1l8-7c0.3-0.3,0.5-0.7,0.5-1.1c0-0.4-0.2-0.8-0.6-1.1c-2.2-1.6-4.2-3.8-5.7-6.3c-1.5-2.6-2.4-5.6-2.5-8.9
		c0-0.1,0-0.1,0-0.2c0-0.3,0-0.6,0-0.9c3,5.7,9.5,15.5,21.4,22.9h-0.5c-0.2,0-0.3,0.1-0.5,0.2c-0.1,0.1-0.2,0.3-0.2,0.5v0.6
		c-0.1-0.2-0.3-0.4-0.5-0.5c-0.6-0.5-1.4-0.8-2.2-0.8c-0.5,0-1.1,0.1-1.5,0.4c-0.5,0.2-0.9,0.6-1.2,1c-0.1,0.1-0.1,0.2-0.2,0.4
		L41.9,95c-0.1-0.3-0.3-0.5-0.6-0.5h-0.1c-0.2,0-0.4,0.1-0.6,0.3l-1.4,2.4l-1.4-2.4c-0.1-0.2-0.3-0.3-0.6-0.3h-0.1
		c-0.3,0-0.6,0.2-0.6,0.5l-0.7,4.1c0,0.2,0,0.4,0.1,0.5c0.1,0.1,0.3,0.2,0.5,0.2H37c0.3,0,0.6-0.2,0.6-0.5l0.2-1.2l0.8,1.4
		c0.1,0.2,0.3,0.3,0.6,0.3h0.1c0.2,0,0.4-0.1,0.6-0.3l0.8-1.4l0.2,1.2c0,0.3,0.3,0.5,0.6,0.5h0.5c0.2,0,0.4-0.1,0.5-0.2
		c0.1-0.1,0.2-0.3,0.1-0.5l0-0.2c0.1,0.1,0.2,0.2,0.2,0.2c0.6,0.5,1.4,0.8,2.2,0.8c0,0,0,0,0,0c0.8,0,1.6-0.3,2.2-0.8
		c0.2-0.2,0.4-0.3,0.5-0.5v0.6c0,0.2,0.1,0.3,0.2,0.5c0.1,0.1,0.3,0.2,0.5,0.2h0.5c0.2,0,0.3-0.1,0.5-0.2c0.1-0.1,0.2-0.3,0.2-0.5
		v-0.5l0.8,0.9c0.1,0.1,0.3,0.2,0.5,0.2h0.6c0.2,0,0.3-0.1,0.4-0.1c0.1,0.1,0.3,0.1,0.4,0.1h2.7c0.1,0,0.2,0,0.3-0.1
		c0.1,0.1,0.2,0.1,0.3,0.1h2.3c0.1,0,0.2,0,0.3-0.1c0.1,0,0.2,0.1,0.3,0.1h0.5c0.1,0,0.2,0,0.3-0.1c0.1,0,0.2,0.1,0.3,0.1h0.5
		c0.2,0,0.5-0.1,0.6-0.3l0.6-1h1.3l0.6,1c0.1,0.2,0.3,0.3,0.6,0.3H64c0.2,0,0.4-0.1,0.6-0.3c0.1-0.2,0.1-0.4,0-0.6l-2.2-4.1
		c-0.1-0.2-0.3-0.3-0.6-0.3h-0.1c-0.2,0-0.5,0.1-0.6,0.3l-1.6,2.8v-2.5c0-0.2-0.1-0.3-0.2-0.5c-0.1-0.1-0.3-0.2-0.5-0.2h-0.5
		c-0.2,0-0.3,0.1-0.5,0.2c-0.1,0.1-0.2,0.3-0.2,0.5v3.1h-1.1v-3.1c0-0.2-0.1-0.3-0.2-0.5c-0.1-0.1-0.3-0.2-0.5-0.2h-0.5
		c-0.1,0-0.2,0-0.3,0.1c-0.1-0.1-0.2-0.1-0.3-0.1h-2.7c-0.2,0-0.3,0.1-0.5,0.2c-0.1,0.1-0.2,0.3-0.2,0.4c0,0,0,0,0,0
		c-0.2-0.2-0.4-0.3-0.7-0.4l0.2-0.1c8.9-5.5,14.8-12.4,18.5-18c1.2-1.9,2.2-3.6,3-5c0,0.3,0,0.6,0,0.9c0,0,0,0.1,0,0.2
		c0,3.4-1,6.4-2.5,8.9c-1.5,2.6-3.5,4.7-5.7,6.3c-0.3,0.3-0.6,0.6-0.6,1.1c0,0.4,0.2,0.8,0.5,1.1l8,7c0.3,0.2,0.6,0.3,0.9,0.3
		c0.3,0,0.6-0.1,0.8-0.3c7.7-5.5,13.1-14.9,13.2-25.7c0-0.1,0-0.1,0-0.2C87.1,62.6,83.7,54.7,78.2,49z M46.2,97.7
		c-0.1,0.2-0.3,0.3-0.5,0.4c-0.2,0.1-0.5,0.2-0.7,0.2c-0.4,0-0.7-0.1-1-0.3c-0.3-0.2-0.4-0.4-0.4-0.8c0-0.2,0.1-0.4,0.2-0.5
		c0.1-0.2,0.3-0.3,0.5-0.4c0.2-0.1,0.5-0.2,0.7-0.2c0.3,0,0.5,0.1,0.7,0.2c0.2,0.1,0.4,0.3,0.5,0.4c0.1,0.2,0.2,0.3,0.2,0.5
		C46.4,97.4,46.3,97.6,46.2,97.7z M53.3,96.2h1.6c0,0,0,0,0,0v0c0,0,0,0,0,0L53.3,96.2L53.3,96.2L53.3,96.2z M53.3,97.9h1.6
		c0,0,0,0,0,0v0.3c0,0,0,0,0,0h-1.6V97.9z M50.1,96.2c0,0-0.2,0-0.5,0l-0.2,0v-0.1h0.2C49.9,96.2,50.1,96.2,50.1,96.2
		C50.2,96.2,50.2,96.2,50.1,96.2C50.2,96.2,50.2,96.2,50.1,96.2z M51.5,97.3v1.1l-0.6-0.7C51.2,97.7,51.4,97.5,51.5,97.3z"/>
	<path class="st28" d="M21.4,28.8c0.3,0.3,0.6,0.5,1,0.5c0,0,0.1,0,0.1,0c0.4,0,0.8-0.3,1.1-0.7l1.2-2c0.3-0.5,0.3-1.1,0-1.5l0.4,0
		c0.5,0,0.9-0.3,1.2-0.7c0.3-0.4,0.3-0.9,0.1-1.3l-0.2-0.5c0.6,0.1,1.1-0.2,1.4-0.7l1.3-2.1c0.2-0.4,0.3-0.8,0.1-1.2
		c-0.1-0.1-0.1-0.2-0.2-0.3c0.1,0,0.2,0,0.4,0c0,0,0,0,0,0c1.3,0,2.5-0.4,3.6-1.2c1.5-1.1,2.4-2.9,2.5-4.6l0.1,0.4
		c0.1,0.4,0.4,0.6,0.7,0.8c0.2,0.1,0.4,0.1,0.6,0.1c0.2,0,0.3,0,0.5-0.1l2.3-0.8c0.7-0.3,1.1-1.1,0.8-1.8l-0.2-0.6l3.4,1
		c0.5,0.1,1,0,1.3-0.3l2.4-0.1c0.6,0,1.1-0.4,1.3-0.9l0-0.1L50,9.8l0,0.1c0.2,0.5,0.8,0.8,1.3,0.8l2.3-0.1c0.2,0.2,0.4,0.4,0.7,0.5
		l2.3,0.7c0.3,0.1,0.7,0.1,1-0.1c0.2,0.3,0.5,0.5,0.8,0.6l2.8,0.8c0.1,0,0.3,0.1,0.4,0.1c0.3,0,0.5-0.1,0.7-0.2c0,0,0,0.1,0,0.1
		c0.4,0.8,1.1,1.7,2.2,2.5c0.2,0.2,1.1,0.7,2.4,1c0,0.1,0.1,0.2,0.2,0.2l1.7,2c0.4,0.4,1,0.6,1.5,0.4l0.1,0l0.8,0.9l0,0.1
		c-0.2,0.5-0.1,1.1,0.2,1.5l1.7,1.9c0,0.2,0,0.9,0.3,1.8c0.3,1,0.9,2.2,2.1,3.2l0.2,0.1c0.1,0.1,0.9,0.6,2.2,0.6c0,0,0,0,0,0
		c0.5,0,1.1-0.1,1.7-0.4c0.6-0.3,1.1-0.9,1.5-1.5l0,0c0-0.1,0.1-0.2,0.1-0.3c0.3,0,0.5,0,0.7-0.1l1.9-0.9c0.5-0.2,0.8-0.7,0.8-1.3
		c0-0.1,0-1.1-0.4-2.4c-0.2-0.6-0.6-1.3-1.1-1.9c-0.6-0.6-1.4-1.1-2.4-1.3l-0.1,0c-0.1,0-0.2,0-0.4,0c-0.4,0-1,0.1-1.7,0.4
		c-0.5,0.3-1.1,0.7-1.4,1.4c-0.2-0.1-0.5-0.2-0.7-0.1l2.1-6.4c0.2-0.5,0.1-1-0.3-1.4c-0.3-0.4-0.8-0.5-1.3-0.4l-6.2,1.3
		c0.1-0.4,0.1-0.9-0.1-1.2c0,0-0.1-0.1-0.1-0.1c0.3,0,0.7-0.2,0.9-0.5l1.4-1.8c0.4-0.5,0.4-1.1,0.1-1.6c0-0.1-0.5-0.8-1.5-1.6
		c-0.9-0.8-2.3-1.6-4.2-1.7c-0.2,0-0.4,0-0.6,0l0,0c-0.3,0-1.1,0.1-2.1,0.7c-0.4,0.2-0.9,0.6-1.3,1c0.1-0.2,0.2-0.5,0.2-0.7
		c0-0.2,0.1-0.4,0.1-0.7c0-0.6-0.1-1.1-0.4-1.5c-0.3-0.6-0.7-1-1.1-1.3c-0.3-0.2-0.5-0.4-0.6-0.4c-0.2-0.1-1.2-0.7-3.1-1.1l-1.3-0.3
		c-0.7-0.2-1.5,0.2-1.7,1l-1.5,5l-3.9-6.2C49.9,0.2,49.5,0,49,0c-0.5,0-1,0.3-1.2,0.8l-3.3,6.4L42.6,2c-0.3-0.7-1-1.1-1.8-0.8
		l-2.2,0.8c-0.7,0.3-1.1,1-0.9,1.8l0.2,0.6l-3.4-0.9c-0.5-0.1-1,0-1.4,0.4c-0.4,0.4-0.5,0.9-0.3,1.4L34,8.5C33,7.4,31.5,6.8,30,6.8
		c-1.3,0-2.5,0.4-3.6,1.2c-1.6,1.2-2.5,3-2.5,4.8c0,1.1,0.3,2.2,1,3.2c0.3,0.4,0.7,0.8,1.1,1.1l-5.9-1.6c-0.5-0.1-1.1,0-1.4,0.5
		c-0.3,0.4-0.4,1-0.2,1.5l1.3,2.8l-3,0.1c-0.5,0-1,0.3-1.3,0.8c-0.2,0.5-0.1,1.1,0.3,1.5L21.4,28.8z M67.5,10.5L67.5,10.5L67.5,10.5
		L67.5,10.5c0-0.1,0.1-0.1,0.2-0.1c0.1,0,0.1-0.1,0.2-0.1c0,0,0.1,0,0.2,0c0,0,0,0,0,0c0.1,0,0.3,0.1,0.5,0.3
		c0.2,0.2,0.4,0.4,0.5,0.8l0,0c0,0.2,0.1,0.4,0.3,0.5c0,0-0.1,0-0.1,0l0,0c0,0,0,0-0.1,0c-0.1,0-0.2,0-0.3,0c-0.2,0-0.5,0-0.8-0.1
		c-0.3-0.1-0.5-0.2-0.7-0.5l-0.1-0.1l0,0c0,0,0,0,0,0c0,0-0.1-0.1-0.1-0.2C67.2,11.1,67.2,10.9,67.5,10.5z M62.6,8.2
		c-0.1,0.3-0.3,0.6-0.4,0.9l-0.2-0.5C62.3,8.5,62.4,8.3,62.6,8.2z M29.2,11.9c0.1-0.1,0.2-0.1,0.3-0.1c0.2,0,0.4,0.1,0.6,0.3
		c0.1,0.1,0.1,0.3,0.1,0.4c0,0.2-0.1,0.4-0.2,0.5l0,0c-0.1,0.1-0.2,0.1-0.3,0.1c-0.2,0-0.4-0.1-0.6-0.3C29,12.7,29,12.6,29,12.4
		C29,12.2,29,12.1,29.2,11.9z"/>
	<path class="st260" d="M77.3,31.6l0-0.5h-0.5H50l0,0l0,0H23.2h-0.5l0,0.5c0,0-0.1,1.8-0.1,4.6c0,6.8,0.5,19.8,4.1,30.1
		c0,0.1,5.6,16.3,23.1,27.1l0.3,0.2l0,0l0,0l0.3-0.2c17.4-10.8,23-27,23.1-27.1C76.9,56,77.4,43,77.4,36.2
		C77.4,33.4,77.3,31.6,77.3,31.6z"/>
	<path class="st261" d="M76.3,32.9c0-0.3,0-0.5,0-0.7H50l0,0l0,0H23.7c0,0.2,0,0.4,0,0.7c0,0.8,0,1.9,0,3.3c0,6.7,0.5,19.6,4,29.7
		c0,0,0,0.1,0.1,0.2c0.6,1.7,6.5,16.2,22.3,26.2c15.8-9.9,21.6-24.4,22.3-26.2c0-0.1,0.1-0.2,0.1-0.2c3.5-10.1,4-23,4-29.7
		C76.4,34.8,76.4,33.7,76.3,32.9z"/>
	<path class="st260" d="M74.6,34.5l0-0.5H74h-9.6l0,0.5c0,8-6.5,14.4-14.5,14.4c-8,0-14.4-6.4-14.5-14.4l0-0.5H25.5l0,0.5
		c0,0.5,0,1.1,0,1.7c0,0,0,0,0,0c0,3.3,0.1,8.2,0.7,13.4c0.6,5.2,1.6,10.9,3.2,15.7l0,0c0,0,0,0,0,0l0,0.1l0,0
		c0.3,0.7,1.7,4.3,4.8,9c3.2,4.8,8.2,10.6,15.5,15.5l0.3,0.2l0.3-0.2c7.3-4.9,12.3-10.7,15.5-15.5c3.1-4.6,4.5-8.3,4.8-9l0,0l0-0.1
		c0,0,0,0,0,0c1.7-4.9,2.7-10.5,3.2-15.7c0.6-5.2,0.7-10.1,0.7-13.4l0,0v0C74.6,35.6,74.6,35,74.6,34.5z"/>
	<path class="st261" d="M30.3,64.9l0,0.1c0,0,1.4,3.9,4.7,8.9l0,0c3.1,4.6,7.9,10.3,14.9,15l0,0c7-4.7,11.8-10.4,14.9-15l0,0
		c3.4-5,4.7-8.8,4.7-8.9l0,0l0-0.1l0,0c1.6-4.7,2.6-10.2,3.2-15.4l0,0c0.6-5.2,0.7-10,0.7-13.3l0,0v0c0,0,0,0,0,0l0,0
		c0-0.4,0-0.8,0-1.1l0,0h-8C65.2,43.3,58.4,50,50,50l0,0c-8.4,0-15.2-6.6-15.5-14.9l0,0h-8c0,0.4,0,0.8,0,1.2l0,0v0
		c0,3.3,0.1,8.1,0.7,13.3l0,0C27.7,54.6,28.7,60.2,30.3,64.9L30.3,64.9L30.3,64.9L30.3,64.9z"/>
	<path class="st260" d="M67.4,43L50,59.8L32.6,43c-10.7,4.7-18.4,15.8-18.3,28.5c0.1,10.4,5.2,19.3,12.6,24.6l8-7
		c-4.7-3.4-8.7-9.1-8.7-16.4c0-5.5,2.1-10.7,5.3-14L50,76.5l18.6-17.9c3.2,3.4,5.4,8.5,5.3,14c-0.1,7.3-4.1,13-8.7,16.4l8,7
		c7.4-5.3,12.5-14.2,12.6-24.6C85.8,58.7,78.1,47.6,67.4,43z"/>
	
		<radialGradient id="SVGID_2_" cx="136.0238" cy="737.395" r="19.8915" gradientTransform="matrix(0.9796 0 0 -0.9796 -89.5841 761.1947)" gradientUnits="userSpaceOnUse">
		<stop  offset="0" style="stop-color:#FFFFFF"/>
		<stop  offset="0.1" style="stop-color:#FFFFFF"/>
		<stop  offset="0.45" style="stop-color:#FFFFFF"/>
		<stop  offset="0.63" style="stop-color:#E5E4E4"/>
		<stop  offset="0.84" style="stop-color:#D1D3D4"/>
		<stop  offset="1" style="stop-color:#BCBEC0"/>
	</radialGradient>
	<circle style="fill:url(#SVGID_2_);" cx="50" cy="34.5" r="13.7"/>
	<path d="M50,42.8L45.2,45l0,0l2,2.9c1.9,0.4,3.9,0.4,5.7,0l2.2-3.1L50,42.8z"/>
	<polygon points="46.8,27.5 44.6,33.3 44.7,33.3 50,36.9 55.1,33.1 53.3,27.4 	"/>
	<path d="M38,41l2.1,0.3l0-5.9l-3.5-3.6C35.9,35.1,36.5,38.3,38,41C37.9,41,37.9,41,38,41L38,41z"/>
	<path d="M60.2,41.1L60.2,41.1l1.8,0.1l0,0c0.1-0.1,0.1-0.2,0.1-0.2c0.5-0.9,0.9-1.9,1.2-2.9c0.4-1.6,0.6-3.1,0.4-4.7
		c0,0,0-0.1,0-0.1c0-0.6-0.1-1.1-0.3-1.7l-3.3,4.2L60.2,41.1z"/>
	<path d="M38.7,26.6l5.2-2.4l3.3-3.2l-0.1,0c0,0,0,0,0,0c-0.1,0-0.2,0-0.3,0.1c-3.2,0.8-6.1,2.7-8,5.4
		C38.8,26.5,38.8,26.6,38.7,26.6L38.7,26.6z"/>
	<path d="M55.9,24.1l5.4,2.6c-1.8-2.6-4.4-4.6-7.7-5.5c-0.2,0-0.3-0.1-0.5-0.1l0,0L55.9,24.1z"/>
	<polygon class="st263" points="40,35.5 44.7,33.3 44.7,33.3 44.6,33.3 44.6,33.3 40,35.4 40,35.4 	"/>
	<polygon class="st263" points="50,36.9 50,36.9 50,42.8 50,42.8 50,42.8 50,36.9 	"/>
	<polygon class="st263" points="45.2,45 45.2,45 40.1,41.3 40.1,41.3 40,41.3 45.2,45 45.2,45 	"/>
	<polygon class="st263" points="60.2,41.1 60.2,41.1 55.1,44.7 55.2,44.8 55.1,44.8 60.2,41.1 60.2,41.1 	"/>
	<polygon class="st263" points="55.1,33.1 60.1,35.8 60.1,35.8 60.1,35.8 55.1,33.1 55.1,33.1 	"/>
	<polygon class="st263" points="53.3,27.5 55.9,24.1 55.9,24.1 55.9,24.1 53.2,27.4 53.3,27.4 	"/>
	<polygon class="st263" points="46.8,27.5 43.9,24.2 43.9,24.2 43.9,24.2 46.8,27.5 46.8,27.5 	"/>
	<polygon points="22.5,27.8 16.8,21.7 22,21.5 19.7,16.8 27.8,19 26.5,21.1 23.7,20.4 25.3,23.6 21.7,23.7 23.7,25.8 	"/>
	<polygon points="34.1,4.7 36.9,12.3 39.1,11.4 38,8.3 44,10 41.3,2.4 39.1,3.2 40.1,6.3 	"/>
	<path d="M49,1.4l-4.3,8.2l2.6-0.1l0.4-1l3-0.1l0.4,0.9l2.7-0.1L49,1.4z M48.4,6.7l0.7-1.5l0.8,1.4L48.4,6.7z"/>
	<path d="M68.1,15.8l1.7,2l1-0.3l2,2.3l-0.4,0.9l1.8,2l2.9-8.7L68.1,15.8z M73.6,18.1L72.7,17l1.6-0.4L73.6,18.1z"/>
	<path d="M60.9,3.6c0,0-0.9-0.5-2.7-1L57,2.3l-2.2,7.5l2.3,0.7l0.8-2.9l1,3.4l2.8,0.8l-1.3-3.9c0,0,1.6-0.2,1.9-1.8
		C62.6,4.4,60.9,3.6,60.9,3.6z M59.7,5.7c0,0-0.2,1-1.4,0.5l0.4-1.5C58.8,4.7,60,4.8,59.7,5.7z"/>
	<path d="M70.4,11.1C70.3,11.1,70.3,11.1,70.4,11.1c-0.5-1.8-2-2.1-2-2.1c-1.3-0.3-2,0.7-2,0.7c-1.2,1.5-0.2,2.6-0.2,2.6
		c1.2,1.6,3.3,1.1,3.3,1.1L68,15.3c-1.7-0.1-2.6-0.9-2.6-0.9c-2.6-1.8-2-4.1-2-4.1c0.6-3.5,3.5-3.6,3.5-3.6c3-0.3,4.9,2.6,4.9,2.6
		L70.4,11.1"/>
	<path d="M83.3,24.6c0,0,0-3.6-2.8-4.2c0,0-1.7-0.2-2.3,1.5c0,0-0.2,0.3-0.1,2.2c0,0,0.1,1.7-0.8,1.1c0,0-0.8-0.7-0.7-3.1l-2,1.2
		c0,0,0.1,2.5,1.9,4c0,0,2.2,1.4,3.4-0.9c0,0,0.3-0.5,0.3-2.4c0,0,0-0.8,0.1-1c0,0,0-0.4,0.5-0.3c0,0,0.4,0,0.6,1.5
		c0,0,0.1,0.5,0,1.3L83.3,24.6z"/>
	<path d="M33.3,9.8c-1.4-1.9-4.1-2.2-6.1-0.7c-2,1.5-2.5,4.2-1.2,6c1.4,1.9,4.1,2.2,6.1,0.7C34.1,14.3,34.6,11.6,33.3,9.8z
		 M30.8,14.2c-0.9,0.7-2.2,0.4-2.8-0.5c-0.7-0.9-0.5-2.2,0.4-2.9c0.9-0.7,2.2-0.4,2.9,0.5C31.9,12.3,31.7,13.5,30.8,14.2z"/>
	<polygon points="41.2,95 41.1,95 39.2,98.3 37.3,95 37.2,95 37.1,95 36.4,99.3 36.5,99.3 37.1,99.3 37.5,96.5 39.1,99.3 39.3,99.3 
		39.3,99.3 40.9,96.5 41.4,99.3 42,99.3 41.3,95 	"/>
	<path d="M46.8,95.6c-0.5-0.4-1.1-0.6-1.9-0.6c-0.5,0-0.9,0.1-1.3,0.3c-0.4,0.2-0.7,0.5-0.9,0.8c-0.2,0.4-0.3,0.7-0.3,1.1
		c0,0.6,0.3,1.2,0.8,1.6c0.5,0.4,1.1,0.6,1.8,0.6c0,0,0,0,0,0c0.7,0,1.3-0.2,1.8-0.7c0.5-0.4,0.8-1,0.8-1.6
		C47.6,96.5,47.3,96,46.8,95.6z M46.9,97.2c0,0.3-0.1,0.6-0.3,0.9c-0.2,0.3-0.4,0.5-0.7,0.6c-0.3,0.1-0.6,0.2-1,0.2
		c-0.5,0-1-0.2-1.4-0.5c-0.4-0.3-0.6-0.7-0.6-1.2c0-0.3,0.1-0.6,0.3-0.9c0.2-0.3,0.4-0.5,0.7-0.6c0.3-0.2,0.6-0.2,1-0.2
		c0.3,0,0.7,0.1,1,0.2c0.3,0.2,0.5,0.4,0.7,0.6C46.8,96.6,46.9,96.9,46.9,97.2z"/>
	<path d="M50.6,97.3c0.2-0.1,0.4-0.2,0.6-0.4c0.1-0.2,0.2-0.4,0.2-0.6c0-0.3-0.1-0.5-0.3-0.7c-0.2-0.2-0.4-0.3-0.7-0.4
		c-0.2,0-0.6-0.1-1.1-0.1h-1v0.1v4.2h0.6v-1.9H49l1.7,1.9h0.8l-1.7-1.9C50.2,97.4,50.4,97.3,50.6,97.3z M50.3,96.8
		c-0.1,0-0.4,0.1-0.7,0.1l-0.7,0l0-1.2h0.8c0.3,0,0.6,0,0.7,0.1c0.1,0,0.2,0.1,0.3,0.2c0.1,0.1,0.1,0.2,0.1,0.3c0,0.1,0,0.2-0.1,0.3
		C50.6,96.6,50.5,96.7,50.3,96.8z"/>
	<polygon points="52.1,95.1 52.1,99.3 55,99.3 55,98.8 52.7,98.8 52.7,97.3 55,97.3 55,96.7 52.7,96.7 52.7,95.6 55,95.6 55,95 
		52.1,95 	"/>
	<polygon points="56.1,95 55.5,95 55.5,95.1 55.5,99.3 58,99.3 58,98.8 56.1,98.8 	"/>
	<polygon points="58.3,95.1 58.3,99.3 59,99.3 59,95 58.3,95 	"/>
	<path d="M61.8,95L61.8,95h-0.2h0l-2.3,4.3H60l0.7-1.4h2l0.7,1.4h0.7L61.8,95z M62.4,97.4H61l0.7-1.3L62.4,97.4z"/>
	<polygon class="st260" points="50,18.4 51.8,19.3 51.4,17.3 52.9,15.9 50.9,15.6 50,13.8 49.1,15.6 47.1,15.9 48.6,17.3 48.2,19.3 
			"/>
</g>
</svg>
