<?xml version="1.0" encoding="utf-8"?>
<!-- Generator: Adobe Illustrator 19.2.1, SVG Export Plug-In . SVG Version: 6.00 Build 0)  -->
<svg version="1.1" id="Capa_1" xmlns="http://www.w3.org/2000/svg" xmlns:xlink="http://www.w3.org/1999/xlink" x="0px" y="0px"
	 viewBox="0 0 100 100" style="enable-background:new 0 0 100 100;" xml:space="preserve">
<style type="text/css">
	.st0{fill:url(#path34_4_);}
	.st1{fill:url(#path890_1_);}
	.st2{fill:#FFE500;stroke:#000000;stroke-width:2.098;stroke-miterlimit:3.863;}
	.st3{fill:#DA020E;}
	.st4{fill:#FFE500;}
	.st5{clip-path:url(#SVGID_2_);}
	.st6{fill:none;stroke:#B54005;stroke-width:10;stroke-miterlimit:3.863;}
	.st7{fill:url(#path7506_1_);}
	.st8{fill:url(#path8794_1_);}
	.st9{fill:url(#path15846_1_);}
	.st10{fill:url(#path16274_1_);}
	.st11{fill:url(#path39821_1_);}
	.st12{fill:url(#path39847_1_);}
	.st13{fill:url(#path39878_1_);}
	.st14{fill:url(#path39888_1_);}
	.st15{fill:url(#path41035_1_);}
	.st16{fill:url(#path9646-8_1_);}
	.st17{fill:url(#path41092_1_);}
	.st18{fill:url(#path41094_1_);}
	.st19{fill:none;stroke:#000000;stroke-width:2.098;stroke-miterlimit:3.863;}
	.st20{fill:url(#path41152_1_);}
	.st21{fill:url(#path39854_1_);}
	.st22{fill:url(#path39874_1_);}
	.st23{fill:#9C824A;stroke:#9C824A;stroke-width:0.793;stroke-miterlimit:282;}
	.st24{fill:#023474;stroke:#023474;stroke-width:0.793;stroke-miterlimit:282;}
	.st25{fill:#FFFFFF;stroke:#FFFFFF;stroke-width:0.793;stroke-miterlimit:282;}
	.st26{fill:#EF0107;stroke:#EF0107;stroke-width:0.793;stroke-miterlimit:282;}
	.st27{fill:#DB0007;stroke:#DB0007;stroke-width:0.793;stroke-miterlimit:282;}
	.st28{fill:#FFFFFF;}
	.st29{fill:#9C824A;}
	.st30{fill:#EF0107;stroke:#EF0107;stroke-width:0.3115;stroke-miterlimit:282;}
	.st31{fill:#DB0007;stroke:#DB0007;stroke-width:0.3115;stroke-miterlimit:282;}
	.st32{fill:#DB0007;}
	.st33{fill:#FFFFFF;stroke:#FFFFFF;stroke-width:0.3115;stroke-miterlimit:282;}
	.st34{fill:#FFFFFF;stroke:#FFFFFF;stroke-width:0.554;stroke-miterlimit:3.864;}
	.st35{fill:#231F20;}
	.st36{fill:#00B6F1;stroke:#00B6F1;stroke-width:1.700000e-02;stroke-miterlimit:3.864;}
	.st37{fill:#EF3E2E;}
	.st38{fill:#BBBDBF;}
	.st39{fill:#F0B83D;}
	.st40{fill:#00B6F1;stroke:#FFFFFF;stroke-width:1.700000e-02;stroke-miterlimit:3.864;}
	.st41{fill:#001C58;}
	.st42{fill:#94BEE5;}
	.st43{fill:none;stroke:#7A003C;stroke-width:2.2437;stroke-miterlimit:6;}
	.st44{fill:#7A003C;}
	.st45{fill:#FFE600;}
	.st46{fill:#DBA111;}
	.st47{fill:#034694;}
	.st48{fill:#D1D3D4;}
	.st49{fill:#ED1C24;}
	.st50{fill:#6A7AB5;}
	.st51{fill:none;}
	.st52{fill:#274488;}
	.st53{fill:#004798;stroke:#004798;stroke-width:9.375000e-02;}
	.st54{fill:#FFFFFF;stroke:#FFFFFF;stroke-width:9.375000e-02;}
	.st55{fill:#FABC00;stroke:#FABC00;stroke-width:9.375000e-02;}
	.st56{fill:none;stroke:#FFFFFF;stroke-width:7.865;stroke-miterlimit:3.864;}
	.st57{fill:none;stroke:#FFFFFF;stroke-width:7.865;stroke-miterlimit:12;}
	.st58{fill:none;stroke:#FFFFFF;stroke-width:7.865;stroke-miterlimit:22;}
	.st59{fill:none;stroke:#FFFFFF;stroke-width:7.865;stroke-miterlimit:6;}
	.st60{fill:#00A398;}
	.st61{fill:#D00027;}
	.st62{fill:none;stroke:#FFFFFF;stroke-width:17.3907;stroke-miterlimit:3.864;}
	.st63{fill:none;stroke:#FFFFFF;stroke-width:13.1107;stroke-miterlimit:3.864;}
	.st64{fill:#FEF667;}
	.st65{fill:#D00027;stroke:#D00027;}
	.st66{fill:#5299C6;}
	.st67{fill:#60223B;}
	.st68{fill:#F7C240;}
	.st69{fill:#292D6B;}
	.st70{fill:#1B458F;}
	.st71{fill:#C4122E;}
	.st72{fill:#27409B;}
	.st73{clip-path:url(#SVGID_4_);}
	.st74{fill:#F4F4F4;}
	.st75{fill:#D3D2D2;}
	.st76{fill:#A7A5A6;}
	.st77{fill:#091453;}
	.st78{fill:none;stroke:#FFFFFF;stroke-width:6.6301;}
	.st79{clip-path:url(#SVGID_6_);}
	.st80{fill:#724314;}
	.st81{fill:#240B08;}
	.st82{fill:#018B4B;}
	.st83{fill:#A6181D;}
	.st84{fill:#592D09;}
	.st85{fill:#FFCE65;}
	.st86{fill:#5CBFEB;}
	.st87{fill:none;stroke:#000000;stroke-width:10;}
	.st88{fill:none;stroke:#000000;}
	.st89{fill:#B2B2B2;}
	.st90{fill:none;stroke:#000000;stroke-width:0.3;}
	.st91{fill:#00A650;stroke:#000000;stroke-width:2;}
	.st92{fill:#241F20;stroke:#241F20;stroke-width:9.375000e-02;}
	.st93{fill:#FFF200;stroke:#FFF200;stroke-width:9.375000e-02;}
	.st94{fill:#A68A26;}
	.st95{fill:none;stroke:#A68A26;stroke-width:4.792100e-02;stroke-miterlimit:3.8637;}
	.st96{fill:#211E1E;}
	.st97{fill:none;stroke:#211E1E;stroke-width:4.792100e-02;stroke-miterlimit:3.8637;}
	.st98{fill:#EB172B;}
	.st99{fill:none;stroke:#EB172B;stroke-width:4.792100e-02;stroke-miterlimit:3.8637;}
	.st100{fill:#A68A26;stroke:#A68A26;stroke-width:4.792100e-02;stroke-miterlimit:3.8637;}
	.st101{fill:#D1BF7F;}
	.st102{fill:none;stroke:#D1BF7F;stroke-width:4.792100e-02;stroke-miterlimit:3.8637;}
	.st103{fill:none;stroke:#FFFFFF;stroke-width:4.792100e-02;stroke-miterlimit:3.8637;}
	.st104{fill:#EB172B;stroke:#EB172B;stroke-width:4.792100e-02;stroke-miterlimit:3.8637;}
	.st105{fill:#ED2127;}
	.st106{fill:#FBEE23;}
	.st107{stroke:#000000;}
	.st108{fill:#CF1F44;}
	.st109{fill:#1B449C;}
	.st110{fill:#E03A3E;}
	.st111{fill:#E03A3E;stroke:#E03A3E;stroke-width:0.6565;}
	.st112{fill:none;stroke:#1B449C;stroke-width:0.7493;}
	.st113{fill:none;stroke:#1B449C;stroke-width:0.7567;}
	.st114{fill:#1B449C;stroke:#1B449C;stroke-width:0.6274;}
	.st115{fill:#1B449C;stroke:#1B449C;stroke-width:0.6755;}
	.st116{fill:#2E6ABD;stroke:#2E6ABD;stroke-width:0.617;}
	.st117{fill:#FFFFFF;stroke:#FFFFFF;stroke-width:0.6175;}
	.st118{fill:#ED1248;}
	.st119{fill:#2E6ABD;}
	.st120{fill:#FDE100;}
	.st121{fill:#CC0000;}
	.st122{fill:#211E1F;}
	.st123{fill:#ED1A3B;}
	.st124{fill:#00AEEF;}
	.st125{fill:#FFC40D;}
	.st126{fill:#22B24C;}
	.st127{fill:#FFC20E;}
	.st128{fill:#0A3F86;}
	.st129{fill:#005CA9;}
	.st130{fill:#FFE000;}
	.st131{fill:#E2001A;}
	.st132{opacity:0;}
	.st133{opacity:0;fill:#FFFFFF;}
	.st134{fill:#FFFFFF;stroke:#000000;}
	.st135{fill:#0060A9;}
	.st136{fill:#E32219;}
	.st137{fill:#FFED00;}
	.st138{fill:#1D9053;}
	.st139{fill:#52A600;}
	.st140{fill:#EE2523;}
	.st141{fill:#F7D117;}
	.st142{fill:#171796;}
	.st143{fill:#009959;}
	.st144{fill:#D42E12;}
	.st145{fill:#703824;}
	.st146{fill:#E5254E;}
	.st147{fill:#8AC3EE;}
	.st148{fill:#B19221;}
	.st149{fill:#F5C03E;}
	.st150{fill:#FF1119;}
	.st151{fill:#1E6BC0;}
	.st152{fill:#B4742A;}
	.st153{fill:#371B02;}
	.st154{fill:url(#SVGID_7_);}
	.st155{fill:url(#SVGID_8_);}
	.st156{fill:url(#SVGID_9_);}
	.st157{fill:url(#SVGID_10_);}
	.st158{fill:url(#SVGID_11_);}
	.st159{fill:url(#SVGID_12_);}
	.st160{fill:url(#SVGID_13_);}
	.st161{fill:url(#SVGID_14_);}
	.st162{fill:url(#SVGID_15_);}
	.st163{fill:url(#SVGID_16_);}
	.st164{fill:#EB2626;}
	.st165{fill:#E9C32C;}
	.st166{fill:#D9D9D9;}
	.st167{fill:#009C5E;}
	.st168{fill:#1C75BC;}
	.st169{fill:#611D5C;}
	.st170{fill:#E2B900;}
	.st171{fill:#004B95;}
	.st172{fill:#A4234B;}
	.st173{fill:#DB2F36;}
	.st174{fill:#FFDF00;}
	.st175{fill:#A38D44;}
	.st176{fill:#57175E;}
	.st177{fill:#AFDCFD;}
	.st178{fill:#0090C6;}
	.st179{fill:#DB5232;}
	.st180{fill:#23C1E0;}
	.st181{fill:#F1A92A;}
	.st182{fill:#167FB6;}
	.st183{fill:#FED75D;}
	.st184{fill:#378CBF;}
	.st185{fill:#3E9692;}
	.st186{fill:#E67F29;}
	.st187{fill:#D8B43C;}
	.st188{fill:#EF3B33;}
	.st189{fill:#24923D;}
	.st190{opacity:6.000001e-02;fill:#101010;enable-background:new    ;}
	.st191{fill:#00529F;}
	.st192{fill:#EE324E;}
	.st193{fill:#FEBE10;}
	.st194{fill:#143C8B;}
	.st195{fill:#FFE24A;}
	.st196{fill:#EC1D24;}
	.st197{fill:#E6A514;}
	.st198{fill:#FFDF1C;}
	.st199{fill:#EE3524;}
	.st200{fill:#B23428;}
	.st201{fill:#D18816;}
	.st202{fill:#0097D7;}
	.st203{fill:#ED1C23;}
	.st204{fill:#E30613;}
	.st205{fill:#FFE400;}
	.st206{fill:#C51A1B;}
	.st207{clip-path:url(#SVGID_19_);}
	.st208{clip-path:url(#SVGID_20_);fill:none;stroke:#000000;stroke-width:0.8131;stroke-miterlimit:3.864;}
	.st209{fill:#0093D5;}
	.st210{fill:#004B9D;}
	.st211{fill:#FCC24F;}
	.st212{fill:#009545;}
	.st213{fill:#0072BB;}
	.st214{fill:#C4974E;}
	.st215{fill:url(#path1292_1_);}
	.st216{fill:#004996;}
	.st217{fill:#FFE667;}
	.st218{fill:none;stroke:#005187;stroke-width:0.153;stroke-miterlimit:3.864;}
	.st219{fill:#005187;}
	.st220{clip-path:url(#SVGID_22_);}
	.st221{clip-path:url(#SVGID_24_);fill:none;stroke:#000000;stroke-width:0.296;stroke-miterlimit:3.864;}
	.st222{clip-path:url(#SVGID_26_);fill:#FFE667;}
	.st223{clip-path:url(#SVGID_28_);fill:none;stroke:#000000;stroke-width:8.300000e-02;stroke-miterlimit:3.864;}
	.st224{fill:none;stroke:#000000;stroke-width:0.153;stroke-miterlimit:3.864;}
	.st225{clip-path:url(#SVGID_30_);fill:#E70005;}
	.st226{clip-path:url(#SVGID_32_);fill:none;stroke:#E70005;stroke-width:0.296;stroke-miterlimit:3.864;}
	.st227{clip-path:url(#SVGID_34_);fill:#E70005;}
	.st228{clip-path:url(#SVGID_36_);fill:none;stroke:#E70005;stroke-width:0.296;stroke-miterlimit:3.864;}
	.st229{clip-path:url(#SVGID_38_);fill:#E70005;}
	.st230{clip-path:url(#SVGID_40_);fill:none;stroke:#E70005;stroke-width:0.296;stroke-miterlimit:3.864;}
	.st231{clip-path:url(#SVGID_42_);fill:#E70005;}
	.st232{clip-path:url(#SVGID_44_);fill:none;stroke:#E70005;stroke-width:0.296;stroke-miterlimit:3.864;}
	.st233{fill:#E70005;}
	.st234{fill:none;stroke:#000000;stroke-width:0.141;stroke-miterlimit:3.864;}
	.st235{fill:#00276D;}
	.st236{fill:#C49308;}
	.st237{fill:#179D33;}
	.st238{fill:#999999;}
	.st239{fill:#FF0000;}
	.st240{fill:#E31837;}
	.st241{fill:#06357A;}
	.st242{fill:#B4053F;}
	.st243{fill:#DCA43E;}
	.st244{fill:#005CA5;}
	.st245{fill:#FAC400;}
	.st246{fill:#004083;}
	.st247{fill:#A95932;}
	.st248{fill:none;stroke:#000000;stroke-width:1.2215;}
	.st249{fill:#E62627;}
	.st250{fill:#00458C;}
	.st251{fill:#E11B22;}
	.st252{fill:#00AB4E;}
	.st253{fill:#F47920;}
	.st254{fill:#C7C8CA;}
	.st255{fill:#E11515;}
	.st256{fill:#A4965F;}
	.st257{fill:#E51636;}
	.st258{fill:#EACC00;}
	.st259{fill:#4F846B;}
	.st260{fill:#E22227;}
	.st261{fill:#FAE700;}
	.st262{fill:url(#SVGID_45_);}
	.st263{fill:#666666;}
	.st264{fill:#FFF200;}
	.st265{fill:#00275D;}
	.st266{fill:#EF3E33;}
	.st267{fill:none;stroke:#00275D;stroke-width:2.632;}
	.st268{fill:#3F7652;}
	.st269{fill:#F1D261;}
	.st270{fill:#004D8F;}
	.st271{fill:#E7B137;stroke:#E7B137;stroke-miterlimit:10;}
	.st272{fill:#E7B137;}
	.st273{fill:#162577;}
	.st274{fill:#12692C;}
	.st275{fill:#D8141D;}
	.st276{fill:#AB830D;}
	.st277{fill:#0086CB;}
	.st278{fill:#001F42;}
	.st279{fill:#9A8F4A;}
	.st280{fill:#00559D;}
	.st281{fill:#FDDE00;}
	.st282{fill:#00924C;}
	.st283{fill:#233984;}
	.st284{fill:#FFD42E;}
	.st285{fill:#BA3733;}
	.st286{fill:#46714D;}
	.st287{fill:#221F1F;}
	.st288{fill:#00559E;}
	.st289{fill:#005C46;}
	.st290{fill:#FBC860;}
	.st291{fill:#D57C48;}
	.st292{fill:#040403;}
	.st293{fill:#4AB969;}
	.st294{fill:#8ED8F8;}
	.st295{fill:#FEC34E;}
	.st296{fill:#FFC95B;}
	.st297{fill:#00644C;}
	.st298{fill:#70B865;}
	.st299{fill:#CA6F44;}
	.st300{fill:#A8B8BE;}
	.st301{fill:#1C2C80;}
	.st302{fill:#E10321;}
	.st303{fill:none;stroke:#231F20;stroke-width:0.318;stroke-miterlimit:3.864;}
	.st304{fill:#D71920;}
	.st305{fill:#484749;}
	.st306{fill:#D9DBDC;}
	.st307{fill:#DF725A;}
	.st308{fill:#F2CABA;}
	.st309{fill:#E89C84;}
	.st310{fill:#264F99;}
	.st311{clip-path:url(#SVGID_47_);}
	.st312{fill:#161413;}
	.st313{fill:#ED1B26;}
	.st314{fill:#E60D2E;}
	.st315{fill:#FCD600;}
	.st316{fill:#004D91;}
	.st317{fill:#EAB412;}
	.st318{fill:#FDD31D;}
	.st319{fill:#EFB800;}
</style>
<g>
	<rect x="20.5" y="14.6" class="st270" width="58.9" height="85.4"/>
	<g>
		<path class="st271" d="M33.5,88.1h0.9v5.8c0,0.7,0,1.1,0,1.3c0,0.4,0.2,0.7,0.3,0.9c0.2,0.2,0.4,0.5,0.8,0.6
			c0.4,0.2,0.7,0.2,1.1,0.2c0.3,0,0.6-0.1,0.9-0.2c0.3-0.1,0.5-0.3,0.7-0.6c0.2-0.2,0.3-0.5,0.4-0.9c0.1-0.2,0.1-0.7,0.1-1.5v-5.8
			h0.9v5.8c0,0.8-0.1,1.5-0.2,2.1c-0.2,0.5-0.5,1-1,1.4c-0.5,0.4-1.1,0.6-1.8,0.6c-0.8,0-1.4-0.2-2-0.5c-0.5-0.4-0.9-0.8-1.1-1.5
			c-0.1-0.4-0.2-1-0.2-2C33.5,93.8,33.5,88.1,33.5,88.1z"/>
	</g>
	<g>
		<path class="st271" d="M46.1,88.1l4.4,9.6h-1L48,94.5h-4.1l-1.5,3.1h-1.1l4.5-9.6H46.1z M46,90.1l-1.6,3.5h3.3L46,90.1z"/>
	</g>
	<g>
		<polygon class="st271" points="52,97.7 52,88.1 52.2,88.1 58.6,95.4 58.6,88.1 59.5,88.1 59.5,97.7 59.3,97.7 53,90.4 53,97.7 		
			"/>
	</g>
	<g>
		<polygon class="st271" points="61.8,88.1 62.7,88.1 62.7,96.7 66.4,96.7 66.4,97.7 61.8,97.7 		"/>
	</g>
	<g>
		<polygon class="st271" points="30.4,97.8 27.4,95.6 24.4,97.8 25.5,94.2 22.5,92 26.3,92 27.4,88.4 28.6,92 32.3,92 29.3,94.2 		
			"/>
	</g>
	<g>
		<polygon class="st271" points="68.7,97.8 71.8,95.6 74.8,97.8 73.6,94.2 76.7,92 72.9,92 71.8,88.4 70.6,92 66.9,92 69.9,94.2 		
			"/>
	</g>
	<g>
		<g>
			<polygon class="st271" points="23.1,18 23.1,16.8 30,16.8 30,18 27.2,18 27.2,29.4 25.9,29.4 25.9,18 			"/>
		</g>
		<g>
			<rect x="31.6" y="16.8" class="st271" width="1.3" height="12.6"/>
		</g>
		<g>
			<path class="st271" d="M47.9,18.9l-1,0.9c-0.7-0.7-1.5-1.2-2.3-1.6c-0.8-0.4-1.6-0.5-2.4-0.5c-1,0-1.9,0.2-2.8,0.7
				c-0.9,0.5-1.6,1.1-2.1,2c-0.5,0.8-0.7,1.7-0.7,2.6c0,0.9,0.2,1.9,0.8,2.7s1.2,1.5,2.1,2c0.9,0.5,1.9,0.7,3,0.7
				c1.3,0,2.4-0.4,3.3-1.1c0.9-0.7,1.4-1.7,1.6-2.8h-4v-1.2h5.4c0,1.9-0.6,3.5-1.7,4.7c-1.1,1.1-2.7,1.7-4.6,1.7
				c-2.3,0-4.2-0.8-5.6-2.4c-1-1.2-1.6-2.6-1.6-4.3c0-1.2,0.3-2.3,0.9-3.3c0.6-1,1.4-1.8,2.5-2.4s2.2-0.9,3.6-0.9
				c1.1,0,2.1,0.2,3,0.6C46,17.4,47,18.1,47.9,18.9z"/>
		</g>
		<g>
			<path class="st271" d="M51,16.8h2.5c1.4,0,2.4,0,2.8,0.2c0.7,0.2,1.4,0.5,1.8,1.1c0.5,0.6,0.7,1.2,0.7,2.1c0,0.7-0.2,1.3-0.5,1.8
				s-0.8,0.9-1.4,1.2s-1.4,0.4-2.5,0.4l4.5,5.9h-1.6L53,23.5h-0.7v5.9H51V16.8z M52.3,18v4.3l2.2,0c0.8,0,1.5-0.1,1.9-0.2
				c0.4-0.2,0.7-0.4,0.9-0.8s0.3-0.7,0.3-1.2c0-0.4-0.1-0.8-0.3-1.1c-0.2-0.3-0.5-0.6-0.9-0.7c-0.4-0.1-1-0.2-1.9-0.2L52.3,18
				L52.3,18z"/>
		</g>
		<g>
			<polygon class="st271" points="61.5,16.8 68.7,16.8 68.7,18 62.7,18 62.7,22 68.7,22 68.7,23.2 62.7,23.2 62.7,28.2 68.7,28.2 
				68.7,29.4 61.5,29.4 			"/>
		</g>
		<g>
			<path class="st271" d="M69.5,27.1l1.1-0.6c0.7,1.4,1.6,2.1,2.6,2.1c0.4,0,0.8-0.1,1.2-0.3c0.4-0.2,0.6-0.5,0.8-0.8
				s0.3-0.7,0.3-1.1c0-0.4-0.1-0.8-0.4-1.2c-0.4-0.6-1.1-1.2-2.2-2c-1-0.8-1.7-1.4-2-1.7c-0.4-0.6-0.7-1.2-0.7-1.9
				c0-0.5,0.1-1,0.4-1.5c0.3-0.4,0.6-0.8,1.1-1.1c0.5-0.3,1-0.4,1.6-0.4c0.6,0,1.1,0.1,1.7,0.4s1.1,0.8,1.6,1.6l-1,0.8
				c-0.5-0.6-0.9-1-1.2-1.2s-0.7-0.3-1.1-0.3c-0.5,0-0.9,0.1-1.2,0.5c-0.3,0.3-0.5,0.7-0.5,1.1c0,0.3,0,0.5,0.2,0.8
				c0.1,0.2,0.3,0.5,0.6,0.8c0.2,0.2,0.7,0.6,1.6,1.3c1.1,0.8,1.8,1.5,2.2,2.2c0.4,0.6,0.6,1.3,0.6,1.9c0,0.9-0.3,1.7-1,2.4
				c-0.7,0.7-1.5,1-2.5,1c-0.8,0-1.5-0.2-2.1-0.6C70.6,28.7,70,28,69.5,27.1z"/>
		</g>
	</g>
	<polygon points="53.1,13.3 48.8,10.1 44.5,13.3 46.1,8.2 41.8,5.1 47.1,5.1 48.8,0 50.4,5.1 55.8,5.1 51.4,8.2 	"/>
	<polygon class="st272" points="42.8,5.4 46.5,8.1 45.1,12.4 48.8,9.7 52.5,12.4 51,8.1 54.7,5.4 50.2,5.4 48.8,1.1 47.4,5.4 	"/>
	<path class="st271" d="M58.6,31.4v14.9c-8.5-6-16.2-0.3-16.2-0.3V31.3H22.9v6.2c0,0,3-0.4,3.1,1.8v26.2c0.4,9.2,5,13.7,5,13.7
		c4.5,4.6,11.5,7.5,19.4,7.5c8.1,0,15.3-3.1,19.8-7.8c0,0,4.1-4.5,4.4-11.7V40.3c0.2-2.6,2.4-2.8,2.4-2.8v-6.2L58.6,31.4L58.6,31.4z
		"/>
	<path class="st28" d="M41.3,60.4c0.2,0,0.4,0,0.7,0c0.2,0.4,0.3,0.8,0.5,1.2c0.3-0.1,0.1-0.6,0.7-0.5C44.3,63,40,62.4,41.3,60.4z"
		/>
	<path class="st28" d="M58.7,60.4c0.4,0,0.6,0,0.8,0.2c0.6,2.2-3.2,2.2-2,0.5c0.4,0,0.5,0.1,0.5,0.5C58.5,61.4,58.5,60.8,58.7,60.4z
		"/>
	<g>
		<g>
			<path class="st270" d="M72.4,44.8c-0.7-0.6-0.7-1.8-1.7-2.2c-2,0.7-2-1-3.5-1c-1.6,0-6.7,6.7-7.2,1.5c0.6,0,1,0.3,1.5,0.5
				C64,41.6,73,38.2,72.4,44.8z"/>
			<path class="st270" d="M51.6,45.3c0.8,0.3,1.2,1,2,1.3c0.6,0,1.2-0.7,1.8-0.7c1,0.1,1.3,1.4,2.3,1.8c1,0.4,2.3,0.2,3,0.7
				c1,0.7,2,3,2.8,4.3c1.1,1.8,2,3.4,2.5,4.7c-0.4,0.7-1.2-0.6-1.8-0.7c0.2,1.7,0.9,3.3-0.5,4.2c4.1,1.6,1.7,8.9-1.3,9.8
				c-1.4-0.4-1.9-1.6-2.3-3c1.6-0.2,2.5-1.2,3.7-1.8c0-0.7-0.4-0.8-0.3-1.5c-0.1-0.7,0.9-0.4,1-1c-0.1-0.7-0.5-1-1-1.3
				c-0.8,0.9-2.3,1.1-2.5,2.7c-0.9,0.3-2.4,0.1-2.5-0.8c1.8-0.4,3.1-1.5,3.8-3c-1.4-0.3-1.7,1.3-2.7,1.8c-0.5,0.3-1.3,0.2-1.8,0.5
				c-1.5,0.9-1.6,2.8-2.2,4.8c-1.6-1.1-1.4-4.6,0.5-5.2c0.3-2.8,3.2-3.1,6.3-3.2c0.6-0.4,0.7-1.2,0.8-2.2c0-0.7-0.6-0.8-0.8-1.3
				c-0.2-0.7,0.6-0.5,0.5-1.2c-1.1-2.4-3-4.2-4.8-6c-2.5,0.6-3.7-1.8-6.3-0.7C51.8,47.4,52.2,46.1,51.6,45.3z M58.1,61.6
				c0-0.4-0.1-0.5-0.5-0.5c-1.2,1.7,2.6,1.7,2-0.5c-0.2-0.1-0.4-0.2-0.8-0.2C58.5,60.8,58.5,61.4,58.1,61.6z"/>
			<path class="st270" d="M72.4,46.3c0.2,0,0.3,0,0.5,0c-0.2,3-1.7,4.9-3.7,6.2c-1.3-0.6-1.7-2.1-3.5-2.3c-0.3,2.1,1.3,3.9,3,5.5
				c1.2,1.1,3.3,1.9,3.8,3.3c1.1,3-0.1,7.2,0.3,10.8c-3.9-0.5-1.3-7-2.7-10.3c-1.7-4.2-7-6.1-8-11.1c2.7-1,4.5,1.5,6.2,2.7
				C69.9,49.5,71.9,48.7,72.4,46.3z"/>
			<path class="st270" d="M50.9,49.6c1.3,0.6,2.3,1.4,3.2,2.5c-0.3,0.9-0.2,0.9,0.3,1.5c0.4-0.1,0-1.2,0.3-1.3
				c2.4,0.5,4.2,1.6,5.7,3c0.5,0.2,0.1-0.5,0.7-0.3c0.5,2.7-1.2,4.4-3.8,4.5c0.2-1.4,1.7-1.9,1.5-3.2c-0.2-1.4-2.2-1.2-3.2-2.3
				c-0.4,0-0.1,0.6-0.2,0.8c-2.2,0.7-3.3-0.9-4.3-2C51.6,51.4,51.1,51,50.9,49.6z"/>
			<path class="st270" d="M66.7,58.1c1.6,1.2,3.7,4.5,1.8,6.7c1,3.1-0.6,5.2-1.3,7.5c-0.8,0.3-2.2,0.1-3.3,0.2
				c-0.5,1-1.3,1.5-0.5,2.7c-0.6,0.3-1,1.6-1.7,1.3c-0.5-2.8-1.9-4.8-3.2-6.8c1.5,0.7,2.7,1.7,4,2.7c0.5-0.4,0.7-1.1,1.2-1.7
				c4.7,0.3,4-7.2,2.8-10.3C66.8,59.4,67.2,59,66.7,58.1z"/>
		</g>
		<g>
			<path class="st270" d="M40.6,43.3c-0.6,5.1-5.2-1.6-7.2-1.7c-0.6,0-0.9,0.8-1.8,1c-0.6,0.1-1.3-0.1-1.7,0c-1.2,0.4-1,1.6-1.8,2.2
				c-0.5-6.4,8.4-3.4,10.8-1.2C39.5,43.5,40,42.9,40.6,43.3z"/>
			<path class="st270" d="M48.8,45.3c0.1,0.4,0,2.3,0,3.3c-2.2-1.5-3.7,1.1-6,0.5c-1.9,1.8-5.2,3.8-4.7,7c0.1,0.8-0.7,0.6-0.7,1.3
				c-0.1,1.1,0.2,1.8,0.7,2.3c0.2,0,0.3,0,0.3,0.2c3.8-0.6,4.7,0.7,6.2,2.8c1,1.5,2.4,3.1,0.7,5.5c-0.9-1.7-0.6-3.7-2-4.8
				c-0.6-0.4-1.5-0.3-2.2-0.7c-1-0.6-1.2-2-2.5-1.8c0,1.6,2.2,2.4,3.7,3.2c-0.4,0.6-1.1,0.9-2.2,0.8c-0.6-1.2-1.9-1.9-2.8-2.8
				c-0.7,0.2-0.9,0.8-1.2,1.3c0.1,0.5,1.1,0.2,1.2,0.8c0,0.6-0.3,0.8-0.3,1.3c0.7,1.2,2,1.7,3.5,2.2c-0.1,1.6-0.9,2.4-2,3
				c-3.1-0.5-5.7-8.1-1.7-9.7c-1-1-0.8-2.7-0.3-4.2c-0.9-0.1-0.9,0.7-1.8,0.7c0.4-1.7,1.5-3.2,2.5-4.8c0.8-1.2,1.6-3.5,2.8-4.3
				c0.7-0.5,1.6-0.2,2.5-0.5c1.1-0.4,1.6-1.5,2.7-2c0.9,0,1.1,0.6,1.8,0.7C47.7,46.3,48.2,45.8,48.8,45.3z M43.1,61.1
				c-0.5-0.1-0.3,0.4-0.7,0.5c-0.2-0.3-0.3-0.8-0.5-1.2c-0.2,0-0.4,0-0.7,0C40,62.4,44.3,63,43.1,61.1z"/>
			<path class="st270" d="M27.8,46.3c0.2,0,0.3,0,0.5,0c0.2,2.6,2.6,2.9,3.7,4.7c2-0.9,3.3-3.4,6.3-2.8c0,4.9-7.1,7.3-8.2,11.8
				c-0.8,3.4,1.3,9.1-2.5,9.8c0.6-3.3-0.7-7.6,0.3-10.6c0.4-1.3,1.9-1.8,3.2-2.8c1.9-1.5,3.6-3.8,4.2-6c-1.8-0.5-2.5,1.5-3.7,2.2
				C29.4,51.3,28,49.4,27.8,46.3z"/>
			<path class="st270" d="M49.4,49.6c0.7,0.4-0.1,1.2-0.3,1.7c0,0.5,0.5,0.6,0.5,1.2c-0.7,1.4-2.1,2.9-4.3,2.3c0-0.3,0-0.5,0-0.8
				c-1.1,0.8-2.9,1-3.5,2.3c0.3,1.2,1.1,2,1.7,3c-2.4,0.4-4.7-1.9-3.8-4.3c0.4-0.1,0.2,0.3,0.5,0.3c1.6-1.3,3.3-2.6,5.8-3
				c0.2,0.5,0,0.5,0,1.2c1.1,0.2,0.6-1,0.7-1.2C47.2,51,48.4,50.4,49.4,49.6z"/>
			<path class="st270" d="M33.8,57.9c0.1,0.7-0.3,1.6,0.3,2.3c-1.2,3-2,10.8,2.8,10.3c0.3,0.6,0.6,1.1,1,1.7c1.4-0.8,2.5-2,4.2-2.7
				c-1.5,1.9-2.5,4.2-3.3,6.8c-1-0.1-2-1.7-1-2.3c-0.2-0.7-0.9-0.9-1-1.7c-1.2-0.1-2.8,0.2-3.5-0.3c-0.5-2.1-2.3-4.2-1.2-7
				C30.1,62.6,32.4,59.5,33.8,57.9z"/>
			<path class="st270" d="M53,75.6c0,0-1.4,1.1-2.5,1.1c0,0-0.9,0.3-2.5-0.8c0,0-1.3-0.8-1.3,0.3c0,0-0.1,0.6,0.6,1
				c0,0,2.4,1.8,2.7,2.7c0,0,0.3,0.7,0.8,0c0,0,1.2-1.8,2.6-2.4c0,0,0.7-0.4,0.6-1.6C54,75.8,54,75.2,53,75.6z"/>
		</g>
	</g>
	<path class="st28" d="M61,71.1c0,0,0.5,0.5,1.5,1.1c0,0,0.5-0.2,1.2-1.7c0,0,3.2,0.6,3.6-4c0,0,0.3-3.3-0.5-5.3c0,0-0.5,0-0.6,0.7
		c0,0,0,1-0.2,1.4c0,0-0.1,0.5-0.2,1.2c0,0-0.1,4.6-3.5,6.3c0,0-0.4,0.2-0.4-0.2L61.6,71L61,71.1z"/>
	<path class="st28" d="M34.8,63.5c0,0,0.1-0.5-0.2-0.9c0,0,0.2-1.6-0.9-1.2c0,0-0.7,2.3-0.5,4.1c0,0-0.7,5.3,3.7,5.1
		c0,0,0.7,1.3,1,1.7c0.3,0.4,1.8-1.2,1.8-1.2s-1.1,0.1-1.9-0.7L37.1,70C37.1,70,34.7,67.9,34.8,63.5z"/>
	<path class="st28" d="M43.8,52.8c0,0,0.5-1.1-0.7-0.8c0,0-4.9,0.8-5,2.6c0,0-0.1,0.8,0,1.3c0,0,0.2,0.6-0.4,0.9
		c0,0-0.4,0.1-0.3,1.3c0,0,0,0.9,0.7,1.5c0,0,0.2,0,0.3,0.2c0.1,0.2,0-0.1,0-0.1l0.2,0.1c0,0,2.3-0.8,4.1,0.6c0,0,1.2,1.3,1.8,2.2
		c0,0,1.2-2-1.3-3.1c0,0-2-0.5-2.3-0.9c0,0-1.5-0.7-1.6-2.9l0.2-0.9c0,0,0.2-0.1,0.3,0.1c0,0,0,0.1,0.2,0.2
		C40.1,55.3,42.2,53.5,43.8,52.8z"/>
	<path class="st28" d="M38.6,60.9c0,0,0.7-0.5,2,1.5c0,0,0.6,0.6,1.7,0.7c0,0,1.4-0.2,2,2c0,0-1.5-0.1-2-1c0,0-2-0.7-3-1.8
		C39.3,62.3,38.5,61.8,38.6,60.9z"/>
	<path class="st28" d="M62.2,60.9c0,0-1.1-0.2-1.8,0.9c0,0-0.6,1-1.6,1.1c0,0-2-0.4-2.7,2.9c0,0,0.9-1.6,2.4-1.7l-0.1-0.3
		C58.4,63.9,61.5,63.6,62.2,60.9z"/>
	<path class="st28" d="M57.2,59.4c0,0-2.1,1.5-1.2,3.5c0,0,0.1-2.2,3.1-2.9c0,0,2-0.3,3.2-0.3c0,0,0.8-0.2,0.8-2.2
		c0,0,0.3-0.4-0.7-1.1c0,0-0.3-0.5,0.1-0.9c0,0,0.7-0.2,0.1-0.9c0,0-0.3-1.5-3-2.1c0,0-3.2-1.1-2.7-0.1c0,0,0.1,0.3,0.4,0.6
		c0,0,1.5,0.9,2.8,2c0,0,0.4,0.6,0.5-0.1c0,0,0.3-0.3,0.4,0.1c0,0,0.3,2.1-1.4,3.5C59.7,58.7,57.6,59.5,57.2,59.4z"/>
</g>
</svg>
