<?xml version="1.0" encoding="utf-8"?>
<!-- Generator: Adobe Illustrator 19.2.1, SVG Export Plug-In . SVG Version: 6.00 Build 0)  -->
<svg version="1.1" id="Capa_1" xmlns="http://www.w3.org/2000/svg" xmlns:xlink="http://www.w3.org/1999/xlink" x="0px" y="0px"
	 viewBox="0 0 100 100" style="enable-background:new 0 0 100 100;" xml:space="preserve">
<style type="text/css">
	.st0{fill:url(#path34_4_);}
	.st1{fill:url(#path890_1_);}
	.st2{fill:#FFE500;stroke:#000000;stroke-width:2.098;stroke-miterlimit:3.863;}
	.st3{fill:#DA020E;}
	.st4{fill:#FFE500;}
	.st5{clip-path:url(#SVGID_2_);}
	.st6{fill:none;stroke:#B54005;stroke-width:10;stroke-miterlimit:3.863;}
	.st7{fill:url(#path7506_1_);}
	.st8{fill:url(#path8794_1_);}
	.st9{fill:url(#path15846_1_);}
	.st10{fill:url(#path16274_1_);}
	.st11{fill:url(#path39821_1_);}
	.st12{fill:url(#path39847_1_);}
	.st13{fill:url(#path39878_1_);}
	.st14{fill:url(#path39888_1_);}
	.st15{fill:url(#path41035_1_);}
	.st16{fill:url(#path9646-8_1_);}
	.st17{fill:url(#path41092_1_);}
	.st18{fill:url(#path41094_1_);}
	.st19{fill:none;stroke:#000000;stroke-width:2.098;stroke-miterlimit:3.863;}
	.st20{fill:url(#path41152_1_);}
	.st21{fill:url(#path39854_1_);}
	.st22{fill:url(#path39874_1_);}
	.st23{fill:#9C824A;stroke:#9C824A;stroke-width:0.793;stroke-miterlimit:282;}
	.st24{fill:#023474;stroke:#023474;stroke-width:0.793;stroke-miterlimit:282;}
	.st25{fill:#FFFFFF;stroke:#FFFFFF;stroke-width:0.793;stroke-miterlimit:282;}
	.st26{fill:#EF0107;stroke:#EF0107;stroke-width:0.793;stroke-miterlimit:282;}
	.st27{fill:#DB0007;stroke:#DB0007;stroke-width:0.793;stroke-miterlimit:282;}
	.st28{fill:#FFFFFF;}
	.st29{fill:#9C824A;}
	.st30{fill:#EF0107;stroke:#EF0107;stroke-width:0.3115;stroke-miterlimit:282;}
	.st31{fill:#DB0007;stroke:#DB0007;stroke-width:0.3115;stroke-miterlimit:282;}
	.st32{fill:#DB0007;}
	.st33{fill:#FFFFFF;stroke:#FFFFFF;stroke-width:0.3115;stroke-miterlimit:282;}
	.st34{fill:#FFFFFF;stroke:#FFFFFF;stroke-width:0.554;stroke-miterlimit:3.864;}
	.st35{fill:#231F20;}
	.st36{fill:#00B6F1;stroke:#00B6F1;stroke-width:1.700000e-02;stroke-miterlimit:3.864;}
	.st37{fill:#EF3E2E;}
	.st38{fill:#BBBDBF;}
	.st39{fill:#F0B83D;}
	.st40{fill:#00B6F1;stroke:#FFFFFF;stroke-width:1.700000e-02;stroke-miterlimit:3.864;}
	.st41{fill:#001C58;}
	.st42{fill:#94BEE5;}
	.st43{fill:none;stroke:#7A003C;stroke-width:2.2437;stroke-miterlimit:6;}
	.st44{fill:#7A003C;}
	.st45{fill:#FFE600;}
	.st46{fill:#DBA111;}
	.st47{fill:#034694;}
	.st48{fill:#D1D3D4;}
	.st49{fill:#ED1C24;}
	.st50{fill:#6A7AB5;}
	.st51{fill:none;}
	.st52{fill:#274488;}
	.st53{fill:#004798;stroke:#004798;stroke-width:9.375000e-02;}
	.st54{fill:#FFFFFF;stroke:#FFFFFF;stroke-width:9.375000e-02;}
	.st55{fill:#FABC00;stroke:#FABC00;stroke-width:9.375000e-02;}
	.st56{fill:none;stroke:#FFFFFF;stroke-width:7.865;stroke-miterlimit:3.864;}
	.st57{fill:none;stroke:#FFFFFF;stroke-width:7.865;stroke-miterlimit:12;}
	.st58{fill:none;stroke:#FFFFFF;stroke-width:7.865;stroke-miterlimit:22;}
	.st59{fill:none;stroke:#FFFFFF;stroke-width:7.865;stroke-miterlimit:6;}
	.st60{fill:#00A398;}
	.st61{fill:#D00027;}
	.st62{fill:none;stroke:#FFFFFF;stroke-width:17.3907;stroke-miterlimit:3.864;}
	.st63{fill:none;stroke:#FFFFFF;stroke-width:13.1107;stroke-miterlimit:3.864;}
	.st64{fill:#FEF667;}
	.st65{fill:#D00027;stroke:#D00027;}
	.st66{fill:#5299C6;}
	.st67{fill:#60223B;}
	.st68{fill:#F7C240;}
	.st69{fill:#292D6B;}
	.st70{fill:#1B458F;}
	.st71{fill:#C4122E;}
	.st72{fill:#27409B;}
	.st73{clip-path:url(#SVGID_4_);}
	.st74{fill:#F4F4F4;}
	.st75{fill:#D3D2D2;}
	.st76{fill:#A7A5A6;}
	.st77{fill:#091453;}
	.st78{fill:none;stroke:#FFFFFF;stroke-width:6.6301;}
	.st79{clip-path:url(#SVGID_6_);}
	.st80{fill:#724314;}
	.st81{fill:#240B08;}
	.st82{fill:#018B4B;}
	.st83{fill:#A6181D;}
	.st84{fill:#592D09;}
	.st85{fill:#FFCE65;}
	.st86{fill:#5CBFEB;}
	.st87{fill:none;stroke:#000000;stroke-width:10;}
	.st88{fill:none;stroke:#000000;}
	.st89{fill:#B2B2B2;}
	.st90{fill:none;stroke:#000000;stroke-width:0.3;}
	.st91{fill:#00A650;stroke:#000000;stroke-width:2;}
	.st92{fill:#241F20;stroke:#241F20;stroke-width:9.375000e-02;}
	.st93{fill:#FFF200;stroke:#FFF200;stroke-width:9.375000e-02;}
	.st94{fill:#A68A26;}
	.st95{fill:none;stroke:#A68A26;stroke-width:4.792100e-02;stroke-miterlimit:3.8637;}
	.st96{fill:#211E1E;}
	.st97{fill:none;stroke:#211E1E;stroke-width:4.792100e-02;stroke-miterlimit:3.8637;}
	.st98{fill:#EB172B;}
	.st99{fill:none;stroke:#EB172B;stroke-width:4.792100e-02;stroke-miterlimit:3.8637;}
	.st100{fill:#A68A26;stroke:#A68A26;stroke-width:4.792100e-02;stroke-miterlimit:3.8637;}
	.st101{fill:#D1BF7F;}
	.st102{fill:none;stroke:#D1BF7F;stroke-width:4.792100e-02;stroke-miterlimit:3.8637;}
	.st103{fill:none;stroke:#FFFFFF;stroke-width:4.792100e-02;stroke-miterlimit:3.8637;}
	.st104{fill:#EB172B;stroke:#EB172B;stroke-width:4.792100e-02;stroke-miterlimit:3.8637;}
	.st105{fill:#ED2127;}
	.st106{fill:#FBEE23;}
	.st107{stroke:#000000;}
	.st108{fill:#CF1F44;}
	.st109{fill:#1B449C;}
	.st110{fill:#E03A3E;}
	.st111{fill:#E03A3E;stroke:#E03A3E;stroke-width:0.6565;}
	.st112{fill:none;stroke:#1B449C;stroke-width:0.7493;}
	.st113{fill:none;stroke:#1B449C;stroke-width:0.7567;}
	.st114{fill:#1B449C;stroke:#1B449C;stroke-width:0.6274;}
	.st115{fill:#1B449C;stroke:#1B449C;stroke-width:0.6755;}
	.st116{fill:#2E6ABD;stroke:#2E6ABD;stroke-width:0.617;}
	.st117{fill:#FFFFFF;stroke:#FFFFFF;stroke-width:0.6175;}
	.st118{fill:#ED1248;}
	.st119{fill:#2E6ABD;}
	.st120{fill:#FDE100;}
	.st121{fill:#CC0000;}
	.st122{fill:#211E1F;}
	.st123{fill:#ED1A3B;}
	.st124{fill:#00AEEF;}
	.st125{fill:#FFC40D;}
	.st126{fill:#22B24C;}
	.st127{fill:#FFC20E;}
	.st128{fill:#0A3F86;}
	.st129{fill:#005CA9;}
	.st130{fill:#FFE000;}
	.st131{fill:#E2001A;}
	.st132{opacity:0;}
	.st133{opacity:0;fill:#FFFFFF;}
	.st134{fill:#FFFFFF;stroke:#000000;}
	.st135{fill:#0060A9;}
	.st136{fill:#E32219;}
	.st137{fill:#FFED00;}
	.st138{fill:#1D9053;}
	.st139{fill:#52A600;}
	.st140{fill:#EE2523;}
	.st141{fill:#F7D117;}
	.st142{fill:#171796;}
	.st143{fill:#009959;}
	.st144{fill:#D42E12;}
	.st145{fill:#703824;}
	.st146{fill:#E5254E;}
	.st147{fill:#8AC3EE;}
	.st148{fill:#B19221;}
	.st149{fill:#F5C03E;}
	.st150{fill:#FF1119;}
	.st151{fill:#1E6BC0;}
	.st152{fill:#B4742A;}
	.st153{fill:#371B02;}
	.st154{fill:url(#SVGID_7_);}
	.st155{fill:url(#SVGID_8_);}
	.st156{fill:url(#SVGID_9_);}
	.st157{fill:url(#SVGID_10_);}
	.st158{fill:url(#SVGID_11_);}
	.st159{fill:url(#SVGID_12_);}
	.st160{fill:url(#SVGID_13_);}
	.st161{fill:url(#SVGID_14_);}
	.st162{fill:url(#SVGID_15_);}
	.st163{fill:url(#SVGID_16_);}
	.st164{fill:#EB2626;}
	.st165{fill:#E9C32C;}
	.st166{fill:#D9D9D9;}
	.st167{fill:#009C5E;}
	.st168{fill:#1C75BC;}
	.st169{fill:#611D5C;}
	.st170{fill:#E2B900;}
	.st171{fill:#004B95;}
	.st172{fill:#A4234B;}
	.st173{fill:#DB2F36;}
	.st174{fill:#FFDF00;}
	.st175{fill:#A38D44;}
	.st176{fill:#57175E;}
	.st177{fill:#AFDCFD;}
	.st178{fill:#0090C6;}
	.st179{fill:#DB5232;}
	.st180{fill:#23C1E0;}
	.st181{fill:#F1A92A;}
	.st182{fill:#167FB6;}
	.st183{fill:#FED75D;}
	.st184{fill:#378CBF;}
	.st185{fill:#3E9692;}
	.st186{fill:#E67F29;}
	.st187{fill:#D8B43C;}
	.st188{fill:#EF3B33;}
	.st189{fill:#24923D;}
	.st190{opacity:6.000001e-02;fill:#101010;enable-background:new    ;}
	.st191{fill:#00529F;}
	.st192{fill:#EE324E;}
	.st193{fill:#FEBE10;}
	.st194{fill:#143C8B;}
	.st195{fill:#FFE24A;}
	.st196{fill:#EC1D24;}
	.st197{fill:#E6A514;}
	.st198{fill:#FFDF1C;}
	.st199{fill:#EE3524;}
	.st200{fill:#B23428;}
	.st201{fill:#D18816;}
	.st202{fill:#0097D7;}
	.st203{fill:#ED1C23;}
	.st204{fill:#E30613;}
	.st205{fill:#FFE400;}
	.st206{fill:#C51A1B;}
	.st207{clip-path:url(#SVGID_19_);}
	.st208{clip-path:url(#SVGID_20_);fill:none;stroke:#000000;stroke-width:0.8131;stroke-miterlimit:3.864;}
	.st209{fill:#0093D5;}
	.st210{fill:#004B9D;}
	.st211{fill:#FCC24F;}
	.st212{fill:#009545;}
	.st213{fill:#0072BB;}
	.st214{fill:#C4974E;}
	.st215{fill:url(#path1292_1_);}
	.st216{fill:#004996;}
	.st217{fill:#FFE667;}
	.st218{fill:none;stroke:#005187;stroke-width:0.153;stroke-miterlimit:3.864;}
	.st219{fill:#005187;}
	.st220{clip-path:url(#SVGID_22_);}
	.st221{clip-path:url(#SVGID_24_);fill:none;stroke:#000000;stroke-width:0.296;stroke-miterlimit:3.864;}
	.st222{clip-path:url(#SVGID_26_);fill:#FFE667;}
	.st223{clip-path:url(#SVGID_28_);fill:none;stroke:#000000;stroke-width:8.300000e-02;stroke-miterlimit:3.864;}
	.st224{fill:none;stroke:#000000;stroke-width:0.153;stroke-miterlimit:3.864;}
	.st225{clip-path:url(#SVGID_30_);fill:#E70005;}
	.st226{clip-path:url(#SVGID_32_);fill:none;stroke:#E70005;stroke-width:0.296;stroke-miterlimit:3.864;}
	.st227{clip-path:url(#SVGID_34_);fill:#E70005;}
	.st228{clip-path:url(#SVGID_36_);fill:none;stroke:#E70005;stroke-width:0.296;stroke-miterlimit:3.864;}
	.st229{clip-path:url(#SVGID_38_);fill:#E70005;}
	.st230{clip-path:url(#SVGID_40_);fill:none;stroke:#E70005;stroke-width:0.296;stroke-miterlimit:3.864;}
	.st231{clip-path:url(#SVGID_42_);fill:#E70005;}
	.st232{clip-path:url(#SVGID_44_);fill:none;stroke:#E70005;stroke-width:0.296;stroke-miterlimit:3.864;}
	.st233{fill:#E70005;}
	.st234{fill:none;stroke:#000000;stroke-width:0.141;stroke-miterlimit:3.864;}
	.st235{fill:#00276D;}
	.st236{fill:#C49308;}
	.st237{fill:#179D33;}
	.st238{fill:#999999;}
	.st239{fill:#FF0000;}
	.st240{fill:#E31837;}
	.st241{fill:#06357A;}
	.st242{fill:#B4053F;}
	.st243{fill:#DCA43E;}
	.st244{fill:#005CA5;}
	.st245{fill:#FAC400;}
	.st246{fill:#004083;}
	.st247{fill:#A95932;}
	.st248{fill:none;stroke:#000000;stroke-width:1.2215;}
	.st249{fill:#E62627;}
	.st250{fill:#00458C;}
	.st251{fill:#E11B22;}
	.st252{fill:#00AB4E;}
	.st253{fill:#F47920;}
	.st254{fill:#C7C8CA;}
	.st255{fill:#E11515;}
	.st256{fill:#A4965F;}
	.st257{fill:#E51636;}
	.st258{fill:#EACC00;}
	.st259{fill:#4F846B;}
	.st260{fill:#E22227;}
	.st261{fill:#FAE700;}
	.st262{fill:url(#SVGID_45_);}
	.st263{fill:#666666;}
	.st264{fill:#FFF200;}
	.st265{fill:#00275D;}
	.st266{fill:#EF3E33;}
	.st267{fill:none;stroke:#00275D;stroke-width:2.632;}
	.st268{fill:#3F7652;}
	.st269{fill:#F1D261;}
	.st270{fill:#004D8F;}
	.st271{fill:#E7B137;stroke:#E7B137;stroke-miterlimit:10;}
	.st272{fill:#E7B137;}
	.st273{fill:#162577;}
	.st274{fill:#12692C;}
	.st275{fill:#D8141D;}
	.st276{fill:#AB830D;}
	.st277{fill:#0086CB;}
	.st278{fill:#001F42;}
	.st279{fill:#9A8F4A;}
	.st280{fill:#00559D;}
	.st281{fill:#FDDE00;}
	.st282{fill:#00924C;}
	.st283{fill:#233984;}
	.st284{fill:#FFD42E;}
	.st285{fill:#BA3733;}
	.st286{fill:#46714D;}
	.st287{fill:#221F1F;}
	.st288{fill:#00559E;}
	.st289{fill:#005C46;}
	.st290{fill:#FBC860;}
	.st291{fill:#D57C48;}
	.st292{fill:#040403;}
	.st293{fill:#4AB969;}
	.st294{fill:#8ED8F8;}
	.st295{fill:#FEC34E;}
	.st296{fill:#FFC95B;}
	.st297{fill:#00644C;}
	.st298{fill:#70B865;}
	.st299{fill:#CA6F44;}
	.st300{fill:#A8B8BE;}
	.st301{fill:#1C2C80;}
	.st302{fill:#E10321;}
	.st303{fill:none;stroke:#231F20;stroke-width:0.318;stroke-miterlimit:3.864;}
	.st304{fill:#D71920;}
	.st305{fill:#484749;}
	.st306{fill:#D9DBDC;}
	.st307{fill:#DF725A;}
	.st308{fill:#F2CABA;}
	.st309{fill:#E89C84;}
	.st310{fill:#264F99;}
	.st311{clip-path:url(#SVGID_47_);}
	.st312{fill:#161413;}
	.st313{fill:#ED1B26;}
	.st314{fill:#E60D2E;}
	.st315{fill:#FCD600;}
	.st316{fill:#004D91;}
	.st317{fill:#EAB412;}
	.st318{fill:#FDD31D;}
	.st319{fill:#EFB800;}
</style>
<g>
	<path class="st28" d="M49.4,14.4c-11.2,7.6-13.2,7.6-26.7,7.6h-1l0,6.7c-0.1,22.2-0.2,45.2,27.8,58.9l0.4,0.2l0.4-0.2
		c28.3-13.5,28-36.5,27.8-58.6l0-7l-1,0c-12.4,0-14,0-26.6-7.6L50,14L49.4,14.4z"/>
	<path class="st273" d="M49.4,12.9c-11.6,7.9-13.7,7.9-27.7,7.9h-1.1l0,7c-0.1,23.1-0.2,47,28.9,61.2l0.5,0.2l0.5-0.2
		c29.4-14,29.1-37.9,28.9-60.9l-0.1-7.3l-1.1,0c-12.9,0-14.6,0-27.7-7.9L50,12.6L49.4,12.9z M50,15.1C62.8,22.7,65.2,23,77.2,23
		c0,1.5,0,5.1,0,5.1c0,2,0,4.1,0,6.1c0,9.3-0.4,18.6-3.3,27c-3.8,11.4-11.5,19.5-24,25.6C37.6,80.7,30,72.5,26.1,61
		c-3.1-9-3.4-19.1-3.4-29.1c0-1.4,0-2.7,0-4.1c0,0,0-3.4,0-4.9C35.8,23,38.7,22.8,50,15.1z"/>
	<path class="st273" d="M62.6,31.6c-0.2-0.4-0.3-1.2-0.3-2.3c0-0.9,0.1-1.5,0.3-1.9c0.3-0.5,0.6-0.7,1.1-0.6c0.2,0,0.4,0.1,0.5,0.3
		c0.1,0.1,0.3,0.3,0.4,0.6c0.1,0.1,0.1,0.4,0.2,0.7l1.8-0.3c-0.2-1-0.5-1.7-1-2.3c-0.5-0.6-1.1-1-1.9-1.2c-1-0.2-1.8,0-2.4,0.8
		c-0.6,0.8-0.9,2.1-0.9,3.8c0,1.3,0.1,2.4,0.5,3.2c0.3,0.8,0.7,1.4,1.1,1.7c0.4,0.3,1,0.5,1.7,0.5c0.6,0,1-0.1,1.4-0.4
		c0.4-0.2,0.7-0.6,0.9-1c0.2-0.5,0.4-1,0.6-1.7l-1.7-0.9c-0.1,0.6-0.2,1-0.4,1.3c-0.2,0.3-0.5,0.4-0.9,0.4
		C63.1,32.3,62.8,32.1,62.6,31.6z M71.7,34.4h2.1l-2.3-8.3L69.3,26l-2.5,8.4h2l0.3-1.4l1.1,0l1.1,0L71.7,34.4z M29.3,31.3
		c0.8,0,1.4-0.3,1.8-0.8c0.2-0.2,0.3-0.5,0.4-0.8c0.1-0.4,0.2-0.8,0.2-1.3c0-0.5-0.1-0.9-0.2-1.2c-0.1-0.2-0.2-0.4-0.3-0.6
		c-0.4-0.4-0.9-0.6-1.6-0.5l-0.5,0l-2.8,0.1v8.2h2v-3.1l0.8,0L29.3,31.3L29.3,31.3z M36.2,34.3h2.1l-2.3-9.1l-2.2,0.2l-2.2,8.2
		l-0.2,0.7h0.2h1.8l0.3-1.5l1.1,0l1.1,0L36.2,34.3z M44.1,32.7c0.3-0.6,0.5-1.4,0.6-2.3L43,29.7c-0.1,0.7-0.2,1.3-0.4,1.7
		c-0.2,0.4-0.5,0.6-0.9,0.6c-0.4,0-0.7-0.2-0.9-0.6c-0.2-0.4-0.3-1.2-0.3-2.3c0-0.9,0.1-1.6,0.3-2.1c0.2-0.7,0.6-1,1-1.2
		c0.2,0,0.4,0,0.5,0.1c0.2,0.1,0.3,0.3,0.4,0.5c0.1,0.1,0.1,0.4,0.2,0.7l1.8-1.1c-0.2-1.2-0.6-2-1-2.5c-0.5-0.4-1.1-0.5-1.9-0.3
		c-1,0.3-1.8,1-2.4,2.1c-0.6,1-0.9,2.3-0.9,4c0,1.2,0.1,2.2,0.5,3c0.3,0.8,0.7,1.4,1.1,1.7c0.4,0.3,1,0.5,1.7,0.5
		c0.6,0,1-0.1,1.4-0.4C43.6,33.8,43.9,33.3,44.1,32.7z M51.8,34.3l0.1-12.5l-2-0.2l0,4.4l-2.1,0.1l0-4.3l-2,0.4l-0.1,12l2,0l0-5
		l2.1-0.1l0,5.1L51.8,34.3C51.8,34.3,51.8,34.3,51.8,34.3z M59.2,30l0.1-6.4l-2-0.5L57.2,30c0,0.6-0.1,1.1-0.3,1.4
		c-0.2,0.3-0.5,0.5-0.8,0.5c-0.4,0-0.6-0.2-0.8-0.6c-0.2-0.4-0.3-0.9-0.3-1.5l0.1-7.2l-2-0.5l-0.1,7.3c0,0.6,0,1.3,0.2,2.1
		c0.1,0.5,0.2,1,0.4,1.4c0.2,0.5,0.4,0.8,0.7,1c0.2,0.3,0.6,0.4,0.9,0.5c0.4,0.1,0.7,0.1,1,0.1c0.5,0,1-0.1,1.4-0.4
		c0.3-0.2,0.5-0.5,0.8-0.9c0.2-0.4,0.4-0.9,0.6-1.5C59.1,31.2,59.2,30.7,59.2,30z M75.1,24.6l0.1,11.1H24.8l0-11.1
		c12.5,0,14.7,0.1,25.2-7.1C61.9,24.6,63.6,24.6,75.1,24.6z M70.3,28.4l0.1-0.2l0.6,3l-0.7,0l-0.7,0L70.3,28.4z M29,27.8
		c0.3,0,0.5,0.1,0.6,0.2c0.1,0.2,0.2,0.4,0.2,0.6c0,0.3-0.1,0.5-0.2,0.7c-0.1,0.1-0.3,0.2-0.5,0.3c-0.1,0-0.2,0-0.3,0l-0.5,0v-1.8
		l0.6,0C28.8,27.8,28.9,27.8,29,27.8z M34.7,27.7l0.7,3.2l-0.7,0.1l-0.7,0L34.7,27.7z"/>
	<path class="st273" d="M59.2,72.1l-0.5-0.3l-0.3-4.2l-0.3-0.4l-0.3-6.5l-2.6-1.3l0.3-0.1c0,0,1.8,0.9,2.3,1.1
		c0.2-0.4,0.3-0.7,0.6-0.9c0.1-0.3-0.4-1-0.4-1l-1-2.3l-0.5,0.1l-0.3-2.9V53c0.8-3.9,1-2.1-0.2-5.5l-3.2-0.8v-1.3l0.2-0.1
		c0.1,0.1,0.7,0.6,0.7,0.7l-0.1,0.1c0,0.3,0.5,0.5,0.6,0.7h0.4c0.2-0.2,0.4-0.4,0.4-0.4c0.2,0.2,0.2,0.1,0.2,0.2
		c0.1,0-0.3,0.4-0.2,0.4l0.4-0.1c0.1-0.1,0.5-0.6,0.1-0.9c-0.1-0.5-0.6-0.7-0.6-1.1l-0.5-0.4v-1.3l-0.1-0.1v-0.3l-0.6-0.5
		c-0.3,0,0,0-0.6,0.2c0,0.1,0,0.1,0,0.1c-0.1,0-0.2,0.1-0.2,0c0-0.1-0.1-0.1,0-0.3c-0.1-0.2-0.4-0.5-0.6-0.6L52.3,42
		c-0.1-0.1-0.2-0.2-0.2-0.1l-0.3,0.3c-0.2,0-0.2-0.6-0.2-0.7c0-0.1-0.1-0.1-0.1-0.1v0.3l-0.3,0.6h-0.1c-0.6-0.5-0.7-0.8-1.4-0.8
		L49.3,42l-0.1-0.1c-0.2,0.5-0.6,0.5-0.4,0.9c0,0.2,0,0.4-0.1,0.5c-0.2,0.1-0.1,0-0.3-0.1c-0.1,0.1-0.1,0.2-0.3,0.3
		c0-0.1-0.1-0.1-0.1-0.1l-0.4,0.2c0,0,0,0-0.1,0c-0.2,0.1-0.3,0.2-0.4,0.3L47,44.4c-0.3,0-0.2,0-0.2,0.1c0,0.2-0.3,0.1-0.3,0.1
		s-0.1-0.3-0.2-0.1c0,0.2,0,0.4,0.2,0.4c0.4,0.2,0.6,0.3,0.6,0.5c0,0.1-0.1,0.6-0.1,0.9l-0.6,0.4c0,0.1-0.1,0.1-0.1,0.1
		c0,0.1,0.2,0.3,0.2,0.3c0,0.1,0,0.1-0.1,0.2c-0.1,0-0.2-0.1-0.3-0.1c-0.1,0-0.2,0.1-0.2,0.2c0,0.2,0,0.5,0,0.9
		c0-0.4-0.1,0.4-0.2,0.4L45.5,49l0.1,0.9l0.1,0.2c0.2,0.1,0.1,0.6,0.1,0.6l-0.6,6.7l-0.6,0c0,0,0,0-0.1,0c0.1,0.2,0.1,0.4,0.1,0.6
		c-0.1,0-0.2,0-0.2,0.1l-0.2,0.1c0,0.1,0,0.1-0.1,0.1l-0.1,0.6L43.5,59v0.6l0.8,0.7l-0.2,3.5L44,63.9l-0.1,3l-0.4,0.4l-0.1,1v0.1
		l-0.1,2l-0.1,1.3l-0.4,0.4v1.4l9.8,0.6l6.6-0.7L59.2,72.1z M58.2,68.8L58.1,69l-2.5-0.3l0,0.8h-0.5l0.1-1L58.2,68.8z M57.7,67.6
		L54,67.3l0.1-0.7l1,0.1l0.8,0.2l0.1,0.3l1.9,0.1L57.7,67.6z M56.7,64.5l0.4,0.7l0.4,0.1l0,0.8L57,66.1L56.5,66L56.7,64.5z
		 M56.9,66.5l-1.7-0.1l-1.5-0.1l0.4-0.6l0.8,0.5l1,0L56.9,66.5z M53.6,64.9l0-4.1l0.6-1.3l0.2,0.6l0,5.1L53.6,64.9z M55.6,65.9
		l-1.1,0v-1.2l1.1,0.2V65.9z M55.3,60.6l0.3,0.7l0,3.2l-1.1-0.2v-3.5l0.4-0.1L55.3,60.6z M55.1,54.5c0.1,0.1,0.2,0.2,0.3,0.3
		L55,55.1l-0.2-0.4L55.1,54.5z M55.8,56.9l-1.1,0l-0.8,0l1-0.6C55,56.4,55.7,56.8,55.8,56.9z M53.8,52.6l0.1-2l0.4,0.2l0,1.9l0,1.8
		c-0.2,0.1-0.4,0.2-0.6,0.1C53.8,53.7,53.8,53.7,53.8,52.6z M53.7,55.9c0.1,0.1,0.2,0.2,0.3,0.3l-0.5,0.4l-0.2-0.3L53.7,55.9z
		 M53,57.2l3.6-0.1c0.1,0.1-0.3,0.4-0.2,0.4l-3.9,0.3L53,57.2z M45.3,59.7l-0.6-0.3l5.4-0.7l0.2,0l0,0.2L50,59.1L45.3,59.7z
		 M45.4,60L45,60.1c0,0-0.2,0.1-0.2,0.3c0,0-0.2-0.1-0.2-0.2c0,0,0.4-0.4,0.4-0.4L45.4,60z M46.8,57.3l0.7-0.5l0.9,0.2l-0.9,0.9
		L46.8,57.3z M49.3,64.3l0.1-3.5l0.5-0.4l0.2-0.4l0.4,0.2l0,3.9L49.3,64.3z M50.5,64.4v1.3l-1.4,0.1l0.1-1.1L50.5,64.4z M49.4,59.9
		c0-0.1,0.4-0.7,0.5-0.7l0.1,0.2l-0.4,0.6L49.4,59.9z M49,65.1l0,0.5l-0.4-0.2L48.2,66l-1.7,0v-0.7L49,65.1z M46.3,60.7l0,1.4
		L46,62.2l0.1-1.4h0.1L46.3,60.7L46.3,60.7z M46,63l0.2-0.5l0.1,0.2l0,3.3l-0.5,0.2L46,63L46,63z M46.4,66.3l2.1-0.2l2-0.2l-0.4,0.3
		l-1.6,0.2l-3.1,0.3L46.4,66.3z M50.8,66l0.8,0.1l1.7,0.1l-0.6,0.3l-1.1,0.1l-1.3-0.2L50.8,66z M50.7,49.4l0.5,0.2v3.8
		c-0.1,0.2-0.3,0.2-0.5,0.1C50.7,53.5,50.7,49.4,50.7,49.4z M50.7,53.7l0.5,0.2v2.6l-0.5,0.3L50.7,53.7z M51.7,56.6
		c0.1,0.1,0.8,0.5,0.9,0.6l-1,0.5L51,57.1L51.7,56.6z M51.2,65.8l-0.5-0.1l0-5.6l0.3,0.1l0.2-0.4L51.2,65.8L51.2,65.8L51.2,65.8z
		 M51.5,65.9l0-5.4l0.8-0.2l0.6-1.7l0.4,0.7l0,6.6L51.5,65.9z M51.9,46.2l0.9-0.4l0,1l-1,0.3L51.9,46.2z M46.4,47.4
		c0.1,0.1,0.1,0.1,0.2,0l0.2,0.1l0.7-0.6l0.1,0.1l0.6-0.4c0.1-0.1-0.4-0.5-0.4-0.6l0.2-0.2l0.3,0.3l0.2,0.2l0.6-0.4
		c0-0.1-0.5-0.5-0.6-0.6c0.2-0.2,0.3-0.2,0.4-0.4v0l0.4,0.5l0,0.2l0.6,0.5l0.3,0l0.1,0.1c-0.1,0.3,0.7,0.2,1,0.1c0.1,0,0.2,0,0.3,0
		c-0.1,0.8-1.2,0.4-1.2,1.2c-0.2,0-0.7-0.4-0.6-0.7l0.2-0.3c0-0.1-0.8-0.5-0.7-0.5c-0.7-0.2-1.6,1.2-2.2,1.7l0.1,0.1
		c0,0-0.2,0.2-0.2,0.2l-0.9,0.1c0,0-0.1-0.7-0.1-0.7C46.3,47.4,46.3,47.4,46.4,47.4z M49.1,48l-0.2-0.1l0.2-0.3l0.3,0
		C49.3,47.6,49.1,47.8,49.1,48z M49.2,48.6c0,0.1-0.2,0.4-0.3,0.5L48.7,49l0.3-0.4L49.2,48.6z M49.4,48l0-0.1l0.2-0.1h0
		c0.1,0,0.1,0,0.1,0.1l-0.1,0.1c0,0,0,0-0.1,0c0,0,0,0.1,0,0.1c-0.1,0.1-0.1,0.1-0.2,0.2c-0.1,0-0.1-0.1-0.1-0.1
		C49.3,48,49.3,48,49.4,48z M48.6,48.3l-0.2,0.2l-0.3-0.3l0.1-0.3C48.3,48,48.5,48.2,48.6,48.3z M46.9,48.9C47,49,47,50,47.1,50
		l-0.7,0.1l-0.2-0.7L46.9,48.9z M46,50.5l1.1,0.5l-0.4,4.8l-1.3,0.5L46,50.5z M45.5,56.6L47,56l0.3-4.9c0,0,0.1-0.1,0.1-0.2
		c0.2-0.3,0.4-0.5,0.7-0.8c-0.2-0.1-0.4-0.3-0.6-0.4c0.1-0.2-0.1-0.7,0.2-0.7l1.2,1c0.1,0,0-0.2,0-0.2l-0.7-0.5l0.1,0
		c0.1,0,0.2,0.2,0.5,0.2c0.4,0.1,0.8-0.1,1-0.2c0,0,1-1,1.1-1c0.4,0.2,0.1,0.4,0.3,0.6c0.2-0.1,0.3-0.2,0.5-0.3
		c0.6,0.1,0.6,0.2,1-0.1l0.2,0.1c0,0.1,0.1,7.6,0.1,7.6l-0.3,0.2c-0.1,0.1-0.2,0.2-0.3,0.2c-0.1,0-0.1-0.1-0.1-0.1
		c-0.1,0-0.1,0.1-0.1,0.1l-0.5-0.3v-7l-0.4-0.4l-0.6,0.4l-0.1,2c-0.2-0.1-0.3-0.3-0.4-0.4c-0.2-0.2,0-0.4-0.1-0.6l-0.2-0.2
		c0.1-0.2,0.2-0.2,0.3-0.4c0.1,0,0.2-0.2,0.1-0.3c-0.1,0-0.2,0.2-0.3,0.3c-0.1,0.1-0.1,0.2-0.2,0.3l0.1,0.3l0.2,0.2l0,0.3l-0.3,0.1
		l-0.1-0.1l-0.5,0.4c0,0-0.2-0.2-0.3-0.2c-0.1,0.1-0.7,0.6-0.8,0.9c0,0.1,0.1,0.1,0.1,0.1c0.1,0,0.5-0.5,0.6-0.6l0.2,0.1
		c-0.3,0.4-0.6,0.8-0.9,1.2l-0.1,1.9l-0.1,0.8c0.1,0,0.1,0.1,0.2,0.1c0.1-0.3,0.1-0.6,0.1-1c0.1-0.5,0.1-1.1,0.1-1.6l0.8-0.9
		l0.1,0.1c0,0-0.3,0.7-0.3,0.7v2l0,0.7l0,0.1c0.1,0,0.6,0,0.7,0.1l-0.1,0.3c0,0,0,0.1-0.1,0.1h-0.8c0,0,0,0,0,0.1
		c0,0.1,0.1,0.1,0.1,0.1c0.1-0.1,0.2-0.1,0.3,0l0.1-0.1l0.2,0.1l0,0.1l-0.2,0.4c0,0-1-0.3-1.2-0.3c-0.2-0.1-0.3-0.1-0.4,0
		c-0.1,0.1-1.8,1.3-1.9,1.4L45.5,56.6z M50.1,56.3L50.1,56.3L49.7,56l0.1-0.1c0,0,0-0.1-0.1-0.1l-0.1,0c0,0,0,0.1,0,0.1
		c0,0,0-0.1-0.1-0.1c0,0,0.1,0,0.1-0.1c0,0,0-0.1-0.1-0.1c0,0,0,0-0.1,0l0-0.3c0,0,0.1,0,0.2-0.1c0,0,0,0,0.1,0.1
		c0.1-0.1,0.4-0.2,0.4-0.2l0-3.2l-0.4-0.5l-0.1-0.2l0.6,0.2L49.3,51c-0.1,0-0.3,0.3-0.3,0.3l-0.2-0.1l0.4-0.5l0.8,0.4l0.2,0.2
		c0,0,0,0,0.1,0.1l0.1,1.6l0,3.3L50.1,56.3z M50.4,56.6l0,0.5l-1.5-0.4l0.4-0.6C49.4,56.2,50.3,56.5,50.4,56.6z M49,53.7v1.1
		c0,0-0.3,0.2-0.3,0.1l-0.1-2.3C48.8,53.1,48.8,53.3,49,53.7z M43.7,59.1l3.7-2.7l3.6,1l-0.5,0l-3.1-0.8l-3.7,2.7L43.7,59.1z
		 M43.8,59.6l0.6-0.1l0.4,0.2l-0.4,0.4L43.8,59.6z M44.5,60.8l0.3-0.1l0.7-0.6l0.3,0.3l-0.1,3.9l-1.4,0.2L44.5,60.8z M44.3,64.9
		l1.4-0.2L45.6,66l-1.4,0.1L44.3,64.9z M44.2,66.9l0-0.5l1.3-0.1l-0.3,0.6L45,67.2l-1.1,0L44.2,66.9z M45.2,72c0,0.1,0,0,0,0.2
		l-1.1,0l-1.1-0.1l0-0.2L45.2,72z M42.9,73.1v-0.4l2.5,0.1l0,0.4L42.9,73.1z M45.5,71.7l-1.7-0.4l1.7,0.1
		C45.5,71.5,45.5,71.6,45.5,71.7z M45.4,70.8l-1.8,0l0.3-1.1l0.1-1.2l1.4,0.1l0.2,1.2L45.4,70.8z M46,68.5l0-0.6l0.5,0.1l1.8-0.1
		l0.1,0.3l-0.3,0.2L46,68.5z M50.3,69.8l-0.2,1.1l-2,0.1l0.1-1.5l0.4-0.9l1.6,0.1L50.3,69.8z M51.2,73.2l-0.5,0.1l0-5.2l0.5,0.1
		L51.2,73.2L51.2,73.2L51.2,73.2z M53.1,73.3h-1.5c-0.1-0.1,0.1-0.1,0.2-0.1H52h1.4C53.3,73.3,53.3,73.3,53.1,73.3z M51.5,70.9
		l0.2-1.4l0.5-0.1L52,68.2l1.3,0.3l0.1,1.2l0.1,1.2L51.5,70.9z M48.9,67.3l-3.6,0.1l1.4-0.6l2.4-0.1l4.5,0.1l0.1,0.6L48.9,67.3z
		 M54.6,69.8L54.5,71l-0.7,0l0.2-0.9l0.1-0.6l0.1-0.9l0.4,0L54.6,69.8z M55.7,71.8c0,0.1-0.1,0.1-0.1,0.1L55.4,72c0,0-0.1,0-0.1,0
		c0,0-0.1,0-0.1-0.1l-0.2-0.2L55,71.7c0,0,0,0,0.1,0c0,0,0.1,0,0.1,0l0.1,0c0,0,0.1,0,0.1,0c0,0,0.1,0,0.1,0c0,0,0.1,0,0.1,0
		c0,0,0,0,0.1,0L55.7,71.8C55.7,71.7,55.7,71.8,55.7,71.8z M58.9,73.1L56,73.3l-0.1-0.7l1,0l1.2,0.1l0.8,0L58.9,73.1z"/>
	<path class="st273" d="M31.1,48.9l0-0.6c0.3-0.2,0.5-0.5,0.7-0.8c0.1-0.3,0.2-0.6,0.2-1c0-0.6-0.3-1.1-0.7-1.4
		c-0.4-0.4-1-0.6-1.6-0.5c-0.6,0-1.1,0.3-1.5,0.7c-0.4,0.4-0.6,0.9-0.6,1.5c0,0.4,0.1,0.7,0.3,1c0.2,0.3,0.4,0.5,0.7,0.7l0,0.6
		c-0.5-0.2-0.8-0.5-1.1-0.9c-0.3-0.4-0.4-0.8-0.4-1.3c0-0.7,0.2-1.4,0.7-1.9c0.5-0.5,1.1-0.8,1.9-0.8c0.4,0,0.7,0,1,0.2
		c0.3,0.1,0.6,0.3,0.9,0.6c0.3,0.2,0.5,0.5,0.6,0.8c0.1,0.3,0.2,0.6,0.2,1c0,0.5-0.1,1-0.3,1.4C31.9,48.3,31.6,48.7,31.1,48.9z"/>
	<path class="st273" d="M32.6,49.9l0.1,0.5L28,50.9l0.2,1.8l-0.5,0.1l-0.3-2.3L32.6,49.9z"/>
	<path class="st273" d="M33,53.1l0.1,0.5l-3,0.6c-0.3,0.1-0.6,0.1-0.7,0.2c-0.1,0.1-0.3,0.1-0.3,0.2c-0.1,0.1-0.2,0.3-0.3,0.5
		c-0.1,0.2-0.1,0.4,0,0.6c0,0.2,0.1,0.4,0.2,0.5c0.1,0.1,0.3,0.2,0.5,0.3c0.1,0,0.3,0.1,0.4,0.1c0.2,0,0.4,0,0.7-0.1l3-0.6l0.1,0.5
		L30.5,57c-0.7,0.1-1.2,0.1-1.5-0.1c-0.4-0.2-0.6-0.6-0.7-1.1c-0.1-0.6,0-1,0.2-1.3c0.3-0.3,0.7-0.6,1.4-0.7L33,53.1z"/>
	<path class="st273" d="M31.8,59.5c0.1,0.4,0.1,0.7,0.1,0.9c-0.1,0.2-0.3,0.4-0.6,0.5c-0.3,0.1-0.6,0.1-0.8-0.1
		c-0.2-0.1-0.4-0.4-0.5-0.8l-0.2-0.7l1.8-0.6L31.8,59.5z M33.9,58.6c0.1,0.4,0.1,0.7,0.1,0.9c-0.1,0.2-0.2,0.4-0.5,0.5
		c-0.3,0.1-0.5,0.1-0.7-0.1c-0.2-0.1-0.4-0.5-0.5-0.9l-0.1-0.3l1.7-0.6L33.9,58.6z M29.1,59.1l0.4,1.1c0.2,0.6,0.5,0.9,0.8,1.1
		c0.3,0.2,0.8,0.2,1.3,0.1c0.3-0.1,0.5-0.2,0.6-0.4c0.2-0.2,0.2-0.4,0.2-0.7c0.2,0.1,0.3,0.2,0.5,0.2c0.2,0,0.4,0,0.6-0.1
		c0.4-0.1,0.7-0.4,0.8-0.7c0.1-0.3,0.1-0.7,0-1.2l-0.3-1L29.1,59.1z"/>
	<path class="st273" d="M36.5,64.6c0.3,0.5,0.4,1.1,0.3,1.5c-0.1,0.5-0.5,0.9-1,1.2c-0.6,0.3-1.1,0.4-1.6,0.3
		c-0.5-0.1-0.9-0.4-1.2-0.9l-0.6-1l3.6-2.1L36.5,64.6z M31.6,65.5l0.7,1.2c0.2,0.4,0.4,0.7,0.6,0.9c0.2,0.2,0.4,0.3,0.6,0.4
		c0.4,0.2,0.8,0.2,1.2,0.2c0.4,0,0.8-0.2,1.2-0.4c0.7-0.4,1.1-0.9,1.2-1.5c0.2-0.6,0.1-1.3-0.3-2l-0.8-1.3L31.6,65.5z"/>
	<path class="st273" d="M38.7,67.2l1.7,2.1L40,69.6l-1.4-1.7L37.2,69l1.3,1.7L38.2,71l-1.3-1.7l-1.4,1.2l1.3,1.7l-0.4,0.3l-1.7-2.1
		L38.7,67.2z"/>
	<path class="st273" d="M67.7,46.5l0-0.5l4.6,0.1l0.1-1.8l0.5,0l-0.1,2.3L67.7,46.5z"/>
	<path class="st273" d="M68.5,49.1c0.5-0.4,1-0.5,1.6-0.4c0.6,0.1,1.1,0.3,1.5,0.8c0.4,0.4,0.5,1,0.5,1.5c-0.1,0.6-0.3,1.1-0.8,1.4
		c-0.5,0.4-1,0.5-1.6,0.4c-0.6-0.1-1.1-0.3-1.5-0.8c-0.4-0.5-0.5-1-0.5-1.5C67.8,50,68.1,49.5,68.5,49.1z M67.3,51.5
		c0.1,0.3,0.2,0.6,0.5,0.9c0.2,0.3,0.5,0.5,0.8,0.7c0.3,0.2,0.6,0.3,1,0.3c0.8,0.1,1.4-0.1,2-0.5c0.6-0.4,0.9-1,1-1.8
		c0-0.4,0-0.7-0.1-1.1c-0.1-0.3-0.3-0.7-0.5-1c-0.2-0.3-0.5-0.5-0.8-0.6c-0.3-0.1-0.6-0.2-1-0.3c-0.4,0-0.7,0-1.1,0.1
		c-0.3,0.1-0.6,0.3-0.9,0.5c-0.3,0.2-0.5,0.5-0.7,0.8c-0.2,0.3-0.3,0.6-0.3,1C67.2,50.8,67.3,51.2,67.3,51.5z"/>
	<path class="st273" d="M69.1,56.5c0.1-0.4,0.2-0.7,0.4-0.8c0.2-0.2,0.5-0.2,0.8-0.1c0.3,0.1,0.5,0.2,0.6,0.5c0.1,0.2,0.1,0.5,0,0.9
		l-0.2,0.7l-1.9-0.4L69.1,56.5z M66.9,56.2c0.1-0.4,0.2-0.6,0.4-0.8c0.2-0.2,0.4-0.2,0.7-0.1c0.3,0.1,0.5,0.2,0.6,0.4
		c0.1,0.2,0.1,0.6,0,1.1l-0.1,0.3l-1.7-0.4L66.9,56.2z M71.2,58.3l0.3-1.1c0.1-0.6,0.1-1-0.1-1.4c-0.2-0.4-0.5-0.6-1-0.7
		c-0.3-0.1-0.5-0.1-0.8,0c-0.2,0.1-0.4,0.2-0.6,0.5c-0.1-0.2-0.2-0.3-0.3-0.5c-0.1-0.1-0.3-0.2-0.5-0.3c-0.4-0.1-0.8,0-1.1,0.2
		c-0.3,0.2-0.5,0.6-0.6,1l-0.3,1.1L71.2,58.3z"/>
	<path class="st273" d="M65,60.6l0.9-2.4l0.5,0.2l-0.3,1l4.4,1.5l-0.2,0.5l-4.4-1.5l-0.3,1L65,60.6z"/>
	<path class="st273" d="M63.1,64.6l0.2-0.5l2.8,1.4c0.3,0.1,0.5,0.2,0.7,0.3c0.1,0,0.3,0.1,0.4,0c0.2,0,0.4-0.1,0.5-0.2
		c0.2-0.1,0.3-0.2,0.4-0.4c0.1-0.2,0.1-0.4,0.1-0.6c0-0.2-0.1-0.4-0.2-0.5c-0.1-0.1-0.2-0.2-0.3-0.3c-0.1-0.1-0.3-0.2-0.6-0.4
		l-2.8-1.4l0.2-0.4l2.9,1.5c0.6,0.3,1,0.6,1.2,1c0.2,0.4,0.1,0.8-0.1,1.3c-0.3,0.5-0.6,0.8-1,0.9c-0.4,0.1-0.9,0-1.5-0.3L63.1,64.6z
		"/>
	<path class="st273" d="M60.9,67.9l1.5-2.1l0.4,0.3l-1.2,1.7l1.5,1l1.2-1.7l0.4,0.3L63.5,69l1.9,1.3l-0.3,0.4L60.9,67.9z"/>
	<polygon class="st273" points="49.9,0 51.2,3.2 54.8,3.3 51.9,5.4 52.9,8.7 49.9,6.7 46.9,8.7 47.9,5.4 45,3.3 48.7,3.2 	"/>
	<polygon class="st273" points="62.7,4.6 63.9,7.8 67.6,7.9 64.7,10 65.7,13.2 62.7,11.3 59.7,13.2 60.7,10 57.8,7.9 61.5,7.8 	"/>
	<polygon class="st273" points="74.6,8.1 75.9,11.3 79.5,11.4 76.6,13.5 77.7,16.7 74.6,14.8 71.6,16.7 72.7,13.5 69.8,11.4 
		73.4,11.3 	"/>
	<polygon class="st273" points="25.4,8.1 26.6,11.3 30.2,11.4 27.3,13.5 28.4,16.7 25.4,14.8 22.3,16.7 23.4,13.5 20.5,11.4 
		24.1,11.3 	"/>
	<polygon class="st273" points="36.8,4.6 38.1,7.8 41.7,7.9 38.8,10 39.9,13.3 36.8,11.4 33.8,13.3 34.9,10 31.9,7.9 35.6,7.8 	"/>
	<path class="st273" d="M24.8,40.3c0.5,20.4,5.2,34.3,25.2,44c20.1-9.5,24.8-23.5,25.1-44H24.8z M50,83.8
		c-19.6-9.5-24.2-23.1-24.6-43h49.2C74.2,60.9,69.7,74.5,50,83.8z"/>
	<rect x="24.7" y="36.7" class="st274" width="18.2" height="2.7"/>
	<rect x="56.9" y="36.7" class="st275" width="18.2" height="2.7"/>
	<polygon class="st276" points="38.3,86.5 39.5,89.7 43.2,89.8 40.3,91.9 41.3,95.1 38.3,93.2 35.3,95.1 36.3,91.9 33.4,89.8 
		37.1,89.7 	"/>
	<polygon class="st276" points="26.5,77.5 27.7,80.7 31.4,80.8 28.5,82.9 29.5,86.2 26.5,84.2 23.5,86.2 24.5,82.9 21.6,80.8 
		25.3,80.7 	"/>
	<polygon class="st276" points="62,86.5 60.8,89.7 57.1,89.8 60.1,91.9 59,95.1 62,93.2 65,95.1 64,91.9 66.9,89.8 63.2,89.7 	"/>
	<polygon class="st276" points="73.8,77.5 72.6,80.7 68.9,80.8 71.8,82.9 70.8,86.2 73.8,84.2 76.8,86.2 75.8,82.9 78.7,80.8 
		75,80.7 	"/>
	<polygon class="st276" points="49.9,91.3 48.7,94.6 45,94.6 47.9,96.7 46.9,100 49.9,98.1 52.9,100 51.9,96.7 54.8,94.6 51.1,94.6 
			"/>
</g>
</svg>
