<?xml version="1.0" encoding="utf-8"?>
<!-- Generator: Adobe Illustrator 19.2.1, SVG Export Plug-In . SVG Version: 6.00 Build 0)  -->
<svg version="1.1" id="Capa_1" xmlns="http://www.w3.org/2000/svg" xmlns:xlink="http://www.w3.org/1999/xlink" x="0px" y="0px"
	 viewBox="0 0 100 100" style="enable-background:new 0 0 100 100;" xml:space="preserve">
<style type="text/css">
	.st0{fill:url(#path34_4_);}
	.st1{fill:url(#path890_1_);}
	.st2{fill:#FFE500;stroke:#000000;stroke-width:2.098;stroke-miterlimit:3.863;}
	.st3{fill:#DA020E;}
	.st4{fill:#FFE500;}
	.st5{clip-path:url(#SVGID_2_);}
	.st6{fill:none;stroke:#B54005;stroke-width:10;stroke-miterlimit:3.863;}
	.st7{fill:url(#path7506_1_);}
	.st8{fill:url(#path8794_1_);}
	.st9{fill:url(#path15846_1_);}
	.st10{fill:url(#path16274_1_);}
	.st11{fill:url(#path39821_1_);}
	.st12{fill:url(#path39847_1_);}
	.st13{fill:url(#path39878_1_);}
	.st14{fill:url(#path39888_1_);}
	.st15{fill:url(#path41035_1_);}
	.st16{fill:url(#path9646-8_1_);}
	.st17{fill:url(#path41092_1_);}
	.st18{fill:url(#path41094_1_);}
	.st19{fill:none;stroke:#000000;stroke-width:2.098;stroke-miterlimit:3.863;}
	.st20{fill:url(#path41152_1_);}
	.st21{fill:url(#path39854_1_);}
	.st22{fill:url(#path39874_1_);}
	.st23{fill:#9C824A;stroke:#9C824A;stroke-width:0.793;stroke-miterlimit:282;}
	.st24{fill:#023474;stroke:#023474;stroke-width:0.793;stroke-miterlimit:282;}
	.st25{fill:#FFFFFF;stroke:#FFFFFF;stroke-width:0.793;stroke-miterlimit:282;}
	.st26{fill:#EF0107;stroke:#EF0107;stroke-width:0.793;stroke-miterlimit:282;}
	.st27{fill:#DB0007;stroke:#DB0007;stroke-width:0.793;stroke-miterlimit:282;}
	.st28{fill:#FFFFFF;}
	.st29{fill:#9C824A;}
	.st30{fill:#EF0107;stroke:#EF0107;stroke-width:0.3115;stroke-miterlimit:282;}
	.st31{fill:#DB0007;stroke:#DB0007;stroke-width:0.3115;stroke-miterlimit:282;}
	.st32{fill:#DB0007;}
	.st33{fill:#FFFFFF;stroke:#FFFFFF;stroke-width:0.3115;stroke-miterlimit:282;}
	.st34{fill:#FFFFFF;stroke:#FFFFFF;stroke-width:0.554;stroke-miterlimit:3.864;}
	.st35{fill:#231F20;}
	.st36{fill:#00B6F1;stroke:#00B6F1;stroke-width:1.700000e-02;stroke-miterlimit:3.864;}
	.st37{fill:#EF3E2E;}
	.st38{fill:#BBBDBF;}
	.st39{fill:#F0B83D;}
	.st40{fill:#00B6F1;stroke:#FFFFFF;stroke-width:1.700000e-02;stroke-miterlimit:3.864;}
	.st41{fill:#001C58;}
	.st42{fill:#94BEE5;}
	.st43{fill:none;stroke:#7A003C;stroke-width:2.2437;stroke-miterlimit:6;}
	.st44{fill:#7A003C;}
	.st45{fill:#FFE600;}
	.st46{fill:#DBA111;}
	.st47{fill:#034694;}
	.st48{fill:#D1D3D4;}
	.st49{fill:#ED1C24;}
	.st50{fill:#6A7AB5;}
	.st51{fill:none;}
	.st52{fill:#274488;}
	.st53{fill:#004798;stroke:#004798;stroke-width:9.375000e-02;}
	.st54{fill:#FFFFFF;stroke:#FFFFFF;stroke-width:9.375000e-02;}
	.st55{fill:#FABC00;stroke:#FABC00;stroke-width:9.375000e-02;}
	.st56{fill:none;stroke:#FFFFFF;stroke-width:7.865;stroke-miterlimit:3.864;}
	.st57{fill:none;stroke:#FFFFFF;stroke-width:7.865;stroke-miterlimit:12;}
	.st58{fill:none;stroke:#FFFFFF;stroke-width:7.865;stroke-miterlimit:22;}
	.st59{fill:none;stroke:#FFFFFF;stroke-width:7.865;stroke-miterlimit:6;}
	.st60{fill:#00A398;}
	.st61{fill:#D00027;}
	.st62{fill:none;stroke:#FFFFFF;stroke-width:17.3907;stroke-miterlimit:3.864;}
	.st63{fill:none;stroke:#FFFFFF;stroke-width:13.1107;stroke-miterlimit:3.864;}
	.st64{fill:#FEF667;}
	.st65{fill:#D00027;stroke:#D00027;}
	.st66{fill:#5299C6;}
	.st67{fill:#60223B;}
	.st68{fill:#F7C240;}
	.st69{fill:#292D6B;}
	.st70{fill:#1B458F;}
	.st71{fill:#C4122E;}
	.st72{fill:#27409B;}
	.st73{clip-path:url(#SVGID_4_);}
	.st74{fill:#F4F4F4;}
	.st75{fill:#D3D2D2;}
	.st76{fill:#A7A5A6;}
	.st77{fill:#091453;}
	.st78{fill:none;stroke:#FFFFFF;stroke-width:6.6301;}
	.st79{clip-path:url(#SVGID_6_);}
	.st80{fill:#724314;}
	.st81{fill:#240B08;}
	.st82{fill:#018B4B;}
	.st83{fill:#A6181D;}
	.st84{fill:#592D09;}
	.st85{fill:#FFCE65;}
	.st86{fill:#5CBFEB;}
	.st87{fill:none;stroke:#000000;stroke-width:10;}
	.st88{fill:none;stroke:#000000;}
	.st89{fill:#B2B2B2;}
	.st90{fill:none;stroke:#000000;stroke-width:0.3;}
	.st91{fill:#00A650;stroke:#000000;stroke-width:2;}
	.st92{fill:#241F20;stroke:#241F20;stroke-width:9.375000e-02;}
	.st93{fill:#FFF200;stroke:#FFF200;stroke-width:9.375000e-02;}
	.st94{fill:#A68A26;}
	.st95{fill:none;stroke:#A68A26;stroke-width:4.792100e-02;stroke-miterlimit:3.8637;}
	.st96{fill:#211E1E;}
	.st97{fill:none;stroke:#211E1E;stroke-width:4.792100e-02;stroke-miterlimit:3.8637;}
	.st98{fill:#EB172B;}
	.st99{fill:none;stroke:#EB172B;stroke-width:4.792100e-02;stroke-miterlimit:3.8637;}
	.st100{fill:#A68A26;stroke:#A68A26;stroke-width:4.792100e-02;stroke-miterlimit:3.8637;}
	.st101{fill:#D1BF7F;}
	.st102{fill:none;stroke:#D1BF7F;stroke-width:4.792100e-02;stroke-miterlimit:3.8637;}
	.st103{fill:none;stroke:#FFFFFF;stroke-width:4.792100e-02;stroke-miterlimit:3.8637;}
	.st104{fill:#EB172B;stroke:#EB172B;stroke-width:4.792100e-02;stroke-miterlimit:3.8637;}
	.st105{fill:#ED2127;}
	.st106{fill:#FBEE23;}
	.st107{stroke:#000000;}
	.st108{fill:#CF1F44;}
	.st109{fill:#1B449C;}
	.st110{fill:#E03A3E;}
	.st111{fill:#E03A3E;stroke:#E03A3E;stroke-width:0.6565;}
	.st112{fill:none;stroke:#1B449C;stroke-width:0.7493;}
	.st113{fill:none;stroke:#1B449C;stroke-width:0.7567;}
	.st114{fill:#1B449C;stroke:#1B449C;stroke-width:0.6274;}
	.st115{fill:#1B449C;stroke:#1B449C;stroke-width:0.6755;}
	.st116{fill:#2E6ABD;stroke:#2E6ABD;stroke-width:0.617;}
	.st117{fill:#FFFFFF;stroke:#FFFFFF;stroke-width:0.6175;}
	.st118{fill:#ED1248;}
	.st119{fill:#2E6ABD;}
	.st120{fill:#FDE100;}
	.st121{fill:#CC0000;}
	.st122{fill:#211E1F;}
	.st123{fill:#ED1A3B;}
	.st124{fill:#00AEEF;}
	.st125{fill:#FFC40D;}
	.st126{fill:#22B24C;}
	.st127{fill:#FFC20E;}
	.st128{fill:#0A3F86;}
	.st129{fill:#005CA9;}
	.st130{fill:#FFE000;}
	.st131{fill:#E2001A;}
	.st132{opacity:0;}
	.st133{opacity:0;fill:#FFFFFF;}
	.st134{fill:#FFFFFF;stroke:#000000;}
	.st135{fill:#0060A9;}
	.st136{fill:#E32219;}
	.st137{fill:#FFED00;}
	.st138{fill:#1D9053;}
	.st139{fill:#52A600;}
	.st140{fill:#EE2523;}
	.st141{fill:#F7D117;}
	.st142{fill:#171796;}
	.st143{fill:#009959;}
	.st144{fill:#D42E12;}
	.st145{fill:#703824;}
	.st146{fill:#E5254E;}
	.st147{fill:#8AC3EE;}
	.st148{fill:#B19221;}
	.st149{fill:#F5C03E;}
	.st150{fill:#FF1119;}
	.st151{fill:#1E6BC0;}
	.st152{fill:#B4742A;}
	.st153{fill:#371B02;}
	.st154{fill:url(#SVGID_7_);}
	.st155{fill:url(#SVGID_8_);}
	.st156{fill:url(#SVGID_9_);}
	.st157{fill:url(#SVGID_10_);}
	.st158{fill:url(#SVGID_11_);}
	.st159{fill:url(#SVGID_12_);}
	.st160{fill:url(#SVGID_13_);}
	.st161{fill:url(#SVGID_14_);}
	.st162{fill:url(#SVGID_15_);}
	.st163{fill:url(#SVGID_16_);}
	.st164{fill:#EB2626;}
	.st165{fill:#E9C32C;}
	.st166{fill:#D9D9D9;}
	.st167{fill:#009C5E;}
	.st168{fill:#1C75BC;}
	.st169{fill:#611D5C;}
	.st170{fill:#E2B900;}
	.st171{fill:#004B95;}
	.st172{fill:#A4234B;}
	.st173{fill:#DB2F36;}
	.st174{fill:#FFDF00;}
	.st175{fill:#A38D44;}
	.st176{fill:#57175E;}
	.st177{fill:#AFDCFD;}
	.st178{fill:#0090C6;}
	.st179{fill:#DB5232;}
	.st180{fill:#23C1E0;}
	.st181{fill:#F1A92A;}
	.st182{fill:#167FB6;}
	.st183{fill:#FED75D;}
	.st184{fill:#378CBF;}
	.st185{fill:#3E9692;}
	.st186{fill:#E67F29;}
	.st187{fill:#D8B43C;}
	.st188{fill:#EF3B33;}
	.st189{fill:#24923D;}
	.st190{opacity:6.000001e-02;fill:#101010;enable-background:new    ;}
	.st191{fill:#00529F;}
	.st192{fill:#EE324E;}
	.st193{fill:#FEBE10;}
	.st194{fill:#143C8B;}
	.st195{fill:#FFE24A;}
	.st196{fill:#EC1D24;}
	.st197{fill:#E6A514;}
	.st198{fill:#FFDF1C;}
	.st199{fill:#EE3524;}
	.st200{fill:#B23428;}
	.st201{fill:#D18816;}
	.st202{fill:#0097D7;}
	.st203{fill:#ED1C23;}
	.st204{fill:#E30613;}
	.st205{fill:#FFE400;}
	.st206{fill:#C51A1B;}
	.st207{clip-path:url(#SVGID_19_);}
	.st208{clip-path:url(#SVGID_20_);fill:none;stroke:#000000;stroke-width:0.8131;stroke-miterlimit:3.864;}
	.st209{fill:#0093D5;}
	.st210{fill:#004B9D;}
	.st211{fill:#FCC24F;}
	.st212{fill:#009545;}
	.st213{fill:#0072BB;}
	.st214{fill:#C4974E;}
	.st215{fill:url(#path1292_1_);}
	.st216{fill:#004996;}
	.st217{fill:#FFE667;}
	.st218{fill:none;stroke:#005187;stroke-width:0.153;stroke-miterlimit:3.864;}
	.st219{fill:#005187;}
	.st220{clip-path:url(#SVGID_22_);}
	.st221{clip-path:url(#SVGID_24_);fill:none;stroke:#000000;stroke-width:0.296;stroke-miterlimit:3.864;}
	.st222{clip-path:url(#SVGID_26_);fill:#FFE667;}
	.st223{clip-path:url(#SVGID_28_);fill:none;stroke:#000000;stroke-width:8.300000e-02;stroke-miterlimit:3.864;}
	.st224{fill:none;stroke:#000000;stroke-width:0.153;stroke-miterlimit:3.864;}
	.st225{clip-path:url(#SVGID_30_);fill:#E70005;}
	.st226{clip-path:url(#SVGID_32_);fill:none;stroke:#E70005;stroke-width:0.296;stroke-miterlimit:3.864;}
	.st227{clip-path:url(#SVGID_34_);fill:#E70005;}
	.st228{clip-path:url(#SVGID_36_);fill:none;stroke:#E70005;stroke-width:0.296;stroke-miterlimit:3.864;}
	.st229{clip-path:url(#SVGID_38_);fill:#E70005;}
	.st230{clip-path:url(#SVGID_40_);fill:none;stroke:#E70005;stroke-width:0.296;stroke-miterlimit:3.864;}
	.st231{clip-path:url(#SVGID_42_);fill:#E70005;}
	.st232{clip-path:url(#SVGID_44_);fill:none;stroke:#E70005;stroke-width:0.296;stroke-miterlimit:3.864;}
	.st233{fill:#E70005;}
	.st234{fill:none;stroke:#000000;stroke-width:0.141;stroke-miterlimit:3.864;}
	.st235{fill:#00276D;}
	.st236{fill:#C49308;}
	.st237{fill:#179D33;}
	.st238{fill:#999999;}
	.st239{fill:#FF0000;}
	.st240{fill:#E31837;}
	.st241{fill:#06357A;}
	.st242{fill:#B4053F;}
	.st243{fill:#DCA43E;}
	.st244{fill:#005CA5;}
	.st245{fill:#FAC400;}
	.st246{fill:#004083;}
	.st247{fill:#A95932;}
	.st248{fill:none;stroke:#000000;stroke-width:1.2215;}
	.st249{fill:#E62627;}
	.st250{fill:#00458C;}
	.st251{fill:#E11B22;}
	.st252{fill:#00AB4E;}
	.st253{fill:#F47920;}
	.st254{fill:#C7C8CA;}
	.st255{fill:#E11515;}
	.st256{fill:#A4965F;}
	.st257{fill:#E51636;}
	.st258{fill:#EACC00;}
	.st259{fill:#4F846B;}
	.st260{fill:#E22227;}
	.st261{fill:#FAE700;}
	.st262{fill:url(#SVGID_45_);}
	.st263{fill:#666666;}
	.st264{fill:#FFF200;}
	.st265{fill:#00275D;}
	.st266{fill:#EF3E33;}
	.st267{fill:none;stroke:#00275D;stroke-width:2.632;}
	.st268{fill:#3F7652;}
	.st269{fill:#F1D261;}
	.st270{fill:#004D8F;}
	.st271{fill:#E7B137;stroke:#E7B137;stroke-miterlimit:10;}
	.st272{fill:#E7B137;}
	.st273{fill:#162577;}
	.st274{fill:#12692C;}
	.st275{fill:#D8141D;}
	.st276{fill:#AB830D;}
	.st277{fill:#0086CB;}
	.st278{fill:#001F42;}
	.st279{fill:#9A8F4A;}
	.st280{fill:#00559D;}
	.st281{fill:#FDDE00;}
	.st282{fill:#00924C;}
	.st283{fill:#233984;}
	.st284{fill:#FFD42E;}
	.st285{fill:#BA3733;}
	.st286{fill:#46714D;}
	.st287{fill:#221F1F;}
	.st288{fill:#00559E;}
	.st289{fill:#005C46;}
	.st290{fill:#FBC860;}
	.st291{fill:#D57C48;}
	.st292{fill:#040403;}
	.st293{fill:#4AB969;}
	.st294{fill:#8ED8F8;}
	.st295{fill:#FEC34E;}
	.st296{fill:#FFC95B;}
	.st297{fill:#00644C;}
	.st298{fill:#70B865;}
	.st299{fill:#CA6F44;}
	.st300{fill:#A8B8BE;}
	.st301{fill:#1C2C80;}
	.st302{fill:#E10321;}
	.st303{fill:none;stroke:#231F20;stroke-width:0.318;stroke-miterlimit:3.864;}
	.st304{fill:#D71920;}
	.st305{fill:#484749;}
	.st306{fill:#D9DBDC;}
	.st307{fill:#DF725A;}
	.st308{fill:#F2CABA;}
	.st309{fill:#E89C84;}
	.st310{fill:#264F99;}
	.st311{clip-path:url(#SVGID_47_);}
	.st312{fill:#161413;}
	.st313{fill:#ED1B26;}
	.st314{fill:#E60D2E;}
	.st315{fill:#FCD600;}
	.st316{fill:#004D91;}
	.st317{fill:#EAB412;}
	.st318{fill:#FDD31D;}
	.st319{fill:#EFB800;}
</style>
<g>
	<polygon class="st277" points="68.3,34.6 69.6,38.3 73.9,38.3 70.4,40.6 71.7,44.3 68.2,42.1 64.8,44.3 66.1,40.6 62.6,38.3 
		67,38.3 	"/>
	<polygon class="st277" points="54.8,34.6 56.1,38.3 60.4,38.3 56.9,40.6 58.2,44.3 54.7,42.1 51.3,44.3 52.6,40.6 49.1,38.3 
		53.5,38.3 	"/>
	<path class="st277" d="M51,32.8c-1.8,1.2-3.8,2.1-6.1,2.6c-3.9,1-8.1,0.9-11.7-0.1c-3.7-1.1-6.5-3.4-6.7-7.6c0-1.2,0.2-2.5,0.7-4.1
		c0.7,0.9,1.4,1.8,2.1,2.4c-0.5,3.4,1.9,4.5,6.1,4.6c6.8,0.2,12.8-3.6,14.3-4.7c3.8,2.8,8.5,3.8,13.4,3.8c4.4,0,8.9-0.7,12.9-1.6
		c3.3,1.2,10.9,8.2,10.2,11.6c-1.1,0.7-2.2,1.6-2.9,2.4c-2.4,2.8-2.2,6.3-1.4,9.3c-1.3,1.1-2.8,2.6-4.1,4.1c0-5.8-0.7-11,2.3-16.4
		c-1.4-2.5-2.4-3.9-6.4-7.6c-4.5,2.3-8.9,3.3-13.2,3.2C57.2,34.9,54.1,34.4,51,32.8L51,32.8z M75.8,29.7c2,1.2,6,5.4,7.6,7.9
		c-5.9,3.9-4.9,10-2.9,14.4c0.3-0.3,0.6-0.5,0.9-0.8c-1.5-5.6-0.5-9.8,4-13.2c-1.8-3.2-5.6-7.4-9.5-9.2c-6.1,3.3-11.2,4.6-15.5,4.6
		c-3.4,0-6.1-0.8-9.7-2.2c-2.1,1-3.8,1.8-5.4,2.3c-1.9,0.6-4,0.9-6,1c-3.6,0.1-7.5-0.7-10.6-2.6c0.9,1.5,2.7,2.4,4.9,3
		c3.6,0.9,7.2,1,10.9,0.1c2.7-0.7,5.1-1.8,6.4-2.8c2.6,1.4,5.9,2.3,9.6,2.2C65.1,34.2,70.3,32.9,75.8,29.7L75.8,29.7z"/>
	<path class="st277" d="M18.1,47.4h-0.7l0,0c0-2.2-0.9-4.6-2-6.4c-0.7-1.2-1.4-2.9-0.9-4.2c2-2.9,6.2-7.3,8.3-7.3
		c1.2,0,3.5,1.6,6.3,4.4l0,0l17.4,17l0,0c-2.7,0.2-4.3,1-5.5,3c-0.2,0.3-0.5,0.5-0.9,0.1l0,0l-2.5-2.7l-5.8,0L21.2,41l0,0
		c-2.1-2.1-3.1-4.1-5.9-3.4c-0.5,0.6,0.3,2.5,0.8,3.2C17.2,42.6,18.1,44.6,18.1,47.4L18.1,47.4z"/>
	<polygon class="st277" points="46.9,12.6 48.2,9.7 51.4,10.1 49.1,7.9 50.4,5 47.6,6.5 45.3,4.3 45.9,7.5 43.1,9.1 46.3,9.5 	"/>
	<polygon class="st277" points="37.6,0 38.6,3.1 41.8,3.1 39.2,5 40.2,8 37.6,6.2 35,8 36,5 33.4,3.1 36.6,3.1 	"/>
	<polygon class="st277" points="27.6,12.2 28.6,9.1 31.8,9.1 29.2,7.2 30.2,4.2 27.6,6 25.1,4.2 26,7.2 23.4,9.1 26.7,9.1 	"/>
	<polygon class="st277" points="23,11.2 24,14.3 27.2,14.3 24.6,16.2 25.6,19.2 23,17.4 20.4,19.2 21.4,16.2 18.8,14.3 22,14.2 	"/>
	<path class="st277" d="M74.9,85.3c0,1-0.1,2.2-0.3,3.7c1.5,0,4.8-0.3,8.1-0.9c-1.1,1.7-3.4,2.9-5.5,3.6c-3.1,1-6.7,1.3-9.8,1.5
		C64,93.4,60,93.9,57.5,95c-2,0.9-4.4,2.4-6.8,5c-1.7-2.7-3.6-5.3-8.7-6.9c-1.8-0.6-4.2-0.8-7.1-1c-3.9-0.2-7.4-0.3-11.2-1.4
		c-2.4-0.7-4.7-1.7-6.6-3c-4.1-2.8-6.8-7.2-7.1-14.4c-0.1-2.6,0.4-5.7,0.9-7.9l0,0l4.4,0l0,0C14,67,13,70.4,13.1,72.5
		c0.1,2.4,0.7,4.9,1.8,6.7c1.8,2.8,4.8,4.8,7.9,5.7c2.5,0.8,5.3,1,8.1,1c3.5,0,6.9-0.5,10-0.6c3.4-0.1,5.2,0.7,6.6,1.6
		c2.5,1.6,3.7,3.8,4.4,5c0.9-1.1,2-1.9,3.1-2.4c2-1,4.1-1.4,6.4-1.5c1.5,0,3,0,4.7,0c2,0,3.9-0.9,5.5-2c1.5-1,2.6-2,3.2-2.4
		c0,0.3,0.1,0.5,0.1,0.8c-1,0.8-1.9,1.5-2.7,2.1c-1.6,1.1-3,1.7-4.5,2c-1.6,0.3-3.3,0.3-5.2,0.2c-1.3,0-2.6,0-3.8,0.3
		c-0.7,0.1-1.4,0.3-2.1,0.6c-2.2,0.9-3.5,2.2-4.8,3.3c-1-1.6-2.2-3.6-4.1-5.1c-1.9-1.5-4.1-2-6-2c-3.1,0-7.3,0.5-10.7,0.6
		c-4.4,0-8.9-0.6-12.3-2.8c-2-1.3-3.6-2.9-4.6-4.7c-1.4-2.5-1.8-5.4-1.7-8.6c0-1.6,0.3-2.9,0.7-4.4l0,0l-1.3,0l0,0
		c-0.7,3.4-1,7.1,0,10.5c0.8,2.6,2.3,4.9,4.9,7.1c1.7,1.4,3.3,2.3,5,2.8c4.2,1.4,8.7,1.3,13,0.9c2.2-0.2,4.4-0.4,6.3-0.4
		c5.6,0,7.6,2.7,10.7,7.2c1.3-1.6,3-3.1,5.5-4.1c0.3-0.1,0.8-0.3,1.5-0.4c2.5-0.6,5.1-0.3,7.6-0.4C69.8,89.3,72.3,87.5,74.9,85.3
		L74.9,85.3z"/>
	<path class="st277" d="M17.1,38.7c-0.4,0.4-0.5,1-0.2,1.8c2.3,2.8,2.5,4.2,2.5,7.3c1.4,0.6,2.4,1.9,3.2,2.7c0.7-1.8,0.8-3,0.6-6.3
		c-1.3-1.1-2.5-2.4-3.5-3.4C18.6,39.8,17.7,38.9,17.1,38.7L17.1,38.7z"/>
	<path class="st277" d="M64.9,66.9l0.3-0.7l14.3,13.1l0,0c0.6,0.6,1.4,1.2,2.3,1.2c0.5,0,1-0.1,1.5-0.5c1-1,1.4-2.7,1.4-4.4
		c0.1-4.1-1.6-7-2.9-10.7l0,0l5.9,0l0,0c0.8,2.3,1.3,4.5,1.5,6.5c0.4,3.3,0.5,7.6-1.1,10.6c-1.3,2.4-3.3,3.1-5.1,3.5
		c-1.9,0.5-4.3,0.8-7,1.2l0,0l0-2.7l0,0c0-0.8-0.3-1.2-0.7-1.3c-1.5,1.1-4.5,3.1-6.1,3.4l0,0L62.6,80l0.7-0.3l0,0
		c1,0.8,1.6,1.4,3.3,1.4c1.1,0,2-0.8,2-2.7l0,0l0-3.8l0,0c0-1-1-1.4-1.7-1.4c-0.6-0.1-1.5,0-2.1,0l0,0l0-5l14.4,13.8l0,0
		c1.3,1.2,2.2,2.2,4.1,2.2c1.1,0,2-0.4,2.8-1.1c1.7-1.6,2.2-3.8,2.4-6c0.1-0.9,0.1-1.9,0.1-2.8c0-0.9-0.1-1.8-0.2-2.7
		c-0.2-1.8-0.8-4.7-1.3-6l0,0l-0.9,0l0,0c0.3,0.9,0.7,2,0.9,3.3c0.5,2.7,0.8,5.7,0.4,8.4c-0.4,2.5-1.2,4.8-4,4.9
		c-2.2,0.1-3.2-1.2-4.7-2.5l0,0L64.9,66.9L64.9,66.9z"/>
	<path class="st277" d="M31.3,10.4c-2.2,1.5-3.7,3.9-4.1,6.5c-0.5,2.6,0.1,5.3,1.7,7.5c1.5,2.2,3.9,3.7,6.5,4.1
		c5.5,1,10.7-2.7,11.7-8.2c0.5-2.6-0.1-5.3-1.7-7.5c-1.5-2.2-3.9-3.7-6.5-4.1C36.2,8.3,33.5,8.9,31.3,10.4z"/>
	<path class="st277" d="M47.6,22.6l0.2-0.6l0,0c1.6,0.8,3.4,1.5,5.4,1.9C58.8,25,65,24,70.4,21.7c1.2-0.5,2.5-1.2,3.7-1.8l0,0
		l0.2-1.2l-1.5,0l0,0c-3.7,1.8-8.5,4-14.5,4.1c-3,0-6.5-0.5-10.4-2.2c0-2.1,0.1-3.5,0-4.5c9,1.4,12.2,1.9,21.8-3.3
		c0,0.3,0,0.8-0.1,1.3c0.6-0.3,1.2-0.6,1.8-0.9c-0.3,1.7-0.7,3.3-1,4.9c1.5,0,3.4,0,5,0l0,0l-0.3,2.1l0,0c-2,1.6-5.8,3-6.9,3.4
		c-4.3,1.3-9.3,1.9-13.8,1.2C52.4,24.5,50.4,23.9,47.6,22.6L47.6,22.6z M69.1,18l0.5-3.4l0,0c0.4-0.2,0.6-0.3,1-0.5
		C70.4,14.9,70,17,69.8,18C69.6,18,69.3,18,69.1,18L69.1,18z"/>
	<path class="st28" d="M46.3,16.5L46,17c0.1,0.9,0.1,2.4-0.1,3.9c0.1,0.1,0.2,0.2,0.3,0.3c0.1-0.3,0.1-0.5,0.2-0.8
		C46.7,19,46.6,17.8,46.3,16.5z"/>
	<path class="st28" d="M34.2,18.8c-0.6,0-1.2,0-1.9-0.1c-0.6,0-1.2,0-1.8,0c-0.5,0.8-0.8,2-0.8,2.7c0.3,0.8,1.5,2.9,2.7,4.1
		c0.9,0,1.8-0.1,2.7-0.2l1.2-3.6C35.6,20.7,34.8,19.7,34.2,18.8z"/>
	<path class="st28" d="M41.9,11.7c0.3-0.2,0.6-0.4,0.9-0.6c-1.2-0.9-2.6-1.5-4.1-1.8c-0.2,0-0.4-0.1-0.6-0.1
		c0.1,0.3,0.2,0.5,0.3,0.8l0,0C39.4,10.6,40.6,11.1,41.9,11.7z"/>
	<path class="st28" d="M40.5,16.5l2.1-1.7c-0.2-1.1-0.5-1.9-0.9-2.5c-1.3-0.6-2.5-1.1-3.6-1.7c-0.6,0.2-1.7,0.8-2.3,1.4
		c0.2,1,0.7,2.3,1.1,3.3C38.2,15.6,39.4,16.1,40.5,16.5z"/>
	<path class="st28" d="M31.9,12.1c0-0.4-0.1-0.8-0.2-1.3c0,0-0.1,0-0.1,0.1c-1.6,1.1-2.7,2.6-3.4,4.3c0.4,0,0.8-0.1,1.2-0.2
		C30,14.1,31,12.9,31.9,12.1z"/>
	<path class="st28" d="M32.3,18.2c0.6,0,1.3,0,1.9,0.1c0.8-1,1.7-2,2.3-2.9l0,0c-0.4-0.9-0.9-2.2-1.1-3.2c-0.9-0.1-2.1,0.1-2.9,0.3
		c-1,0.7-2.1,2-2.7,3c0.1,0.7,0.2,2,0.7,2.9C31.1,18.2,31.7,18.2,32.3,18.2z"/>
	<path class="st28" d="M28.1,21.9c0.7,1.9,2,3.6,3.7,4.7c0-0.2,0.1-0.4,0.1-0.6c-1.1-1.1-2.2-3-2.7-4C29,21.9,28.6,21.9,28.1,21.9z"
		/>
	<path class="st28" d="M45.4,16.8c-0.7-0.7-1.5-1.2-2.5-1.5L40.8,17l-0.1,3.6c1,0.7,1.8,1.5,2.2,2l0,0c0.7-0.3,1.7-0.9,2.4-1.4
		C45.6,19.5,45.5,17.8,45.4,16.8z"/>
	<path class="st28" d="M38.1,28.1c1.3-0.1,2.6-0.6,3.8-1.3c-0.1-0.1-0.2-0.2-0.2-0.3c-1,0.5-2.3,1-3.4,1.3
		C38.1,27.9,38.1,28,38.1,28.1z"/>
	<path class="st28" d="M40.2,21l-3.5,1l-1.2,3.6c0.5,0.5,1.3,1.2,2.4,1.7c1.3-0.3,2.7-0.8,3.8-1.4c0.5-0.8,0.8-2.1,0.9-2.7L42.6,23
		C42.1,22.5,41.3,21.8,40.2,21z"/>
	<path class="st277" d="M93.7,59.6c0,0-1.3,0-1.6,0c0-0.4,0-3.4,0-3.4c0-2.6-2.9-4.7-5.6-4.7c-1.2,0-2.7,0.4-3.7,1l-0.2,0l-0.7,0.6
		l0,0c0,0-0.1,0.1-0.1,0.1l-2.9,2.7l0.3,0.6l0.9,0c-1.1,0.7-2,1.8-2,3.6c0,2.3,2.2,4,4.6,4.1c2.4,0,3.2-0.6,4.1-1v1h5.5l1.5-3h0
		V59.6z"/>
	<path class="st277" d="M67.7,55.7c0-2.3-1.4-3.7-3.6-3.8c-1.5,0-3,0.6-4.1,1.7c0-0.9,0-5.8,0-5.8h-0.2H54v0l-1.3,2.6v3.5h2v5.5
		c-0.4,0-0.7,0-0.7,0v0l-1.1,2.2v2.7l5.4,0l0-1.1c0.9,0.8,3.2,1.2,4.5,1.1c1.9-0.1,4.1-1.4,4.8-4.6c0.2-0.8,0.2-2.7,0.2-3.7
		C67.7,55.9,67.7,55.8,67.7,55.7z"/>
	<path class="st277" d="M51.3,59l1.3-1.8c0,0,0,0,0,0l0-0.7c0-2.7-2.6-4.9-5.9-4.9c-3.2,0-5.9,2.2-5.9,4.9l0,0l0,2.2
		c0,2.6,2.3,5.5,5.4,5.5c3.9,0,6-1.7,6.5-2.6L51.3,59z"/>
	<path class="st277" d="M17.1,58.5c2.6,0,4.2-3,4.2-5.1c0-1-0.2-2.2-1-3.3c-0.7-1.3-2-2.3-3.3-2.3h-5.8l-4.9,0v2.1h0l1.5,2
		c0,2.7,0,7.2,0,7.5c-0.3,0-1.5,0-1.5,0v1.8h0L8,64.6h9.7V63l-2.3-3.7v0c0,0-0.7,0-1.5,0l0-0.9L17.1,58.5z M14.1,52.9h2.2
		c-0.2,0.3-0.6,0.5-1.1,0.5c0,0-0.5,0-1,0C14.1,53.4,14.1,52.9,14.1,52.9z"/>
	<path class="st277" d="M67,75.7C67,75.6,67,75.6,67,75.7l0-0.3h0c-0.1-0.8-0.8-1.4-1.6-1.4c-0.8,0-1.5,0.6-1.6,1.4h0v0.3
		c0,0,0,0,0,0c0,0,0,0,0,0l0,2.8c0,0.9,0.7,1.7,1.7,1.7c0.9,0,1.7-0.7,1.7-1.7L67,75.7C67,75.7,67,75.7,67,75.7z"/>
	<path class="st28" d="M64.2,75.7c0-0.7,0.5-1.2,1.2-1.2c0.7,0,1.2,0.5,1.2,1.2c0,0.7-0.5,1.2-1.2,1.2
		C64.7,76.9,64.2,76.3,64.2,75.7z"/>
	<path class="st277" d="M51.7,77.8l-1.9-3.1c-0.3-0.5-0.8-0.9-1.5-0.9c-0.9,0-1.7,0.7-1.7,1.7c0,0.4,0.1,0.7,0.3,1l0,0l2,2.9
		c0.3,0.5,0.9,0.8,1.4,0.8c0.8,0,1.5-0.7,1.5-1.5C51.9,78.4,51.8,78.1,51.7,77.8z"/>
	<path class="st28" d="M47.1,75.5c0-0.7,0.5-1.2,1.2-1.2s1.2,0.5,1.2,1.2c0,0.7-0.5,1.2-1.2,1.2C47.6,76.7,47.1,76.1,47.1,75.5z"/>
	<path class="st277" d="M48,64.7L48,64.7l-7.5,0l-5.3,0h-0.2v2c0,0,0,0,0,0h0l1.5,2c0,2.3,0,5.9,0,6.2c-0.3,0-1.5,0-1.5,0l0,2.1h0
		l2,3.8H46l0-1.7l-2.9-4.2l0,0c0,0-1.8,0-2.1,0c0-0.1,0-0.3,0-0.6h5.1l0-2.1l-1.8-2.8l3.1,0.1l0,1.3l1.9,0l0-4.1L48,64.7z"/>
	<path class="st28" d="M40.5,65.1c0,0,6.6,0,7.1,0c0,0.3,0,1.8,0,2.1c-0.3,0-1,0-1.3,0c0-0.3,0-1.1,0-1.1h-5.7v3.6c0,0,1.5,0,1.8,0
		c0,0.3,0,1.5,0,1.8c-0.3,0-1.8,0-1.8,0v3.8c0,0,1.7,0,2.1,0c0,0.3,0,0.9,0,1.2c-0.4,0-6.9,0-7.4,0c0-0.3,0-0.9,0-1.2
		c0.3,0,1.5,0,1.5,0v-9.1c0,0-1.2,0-1.5,0c0-0.3,0-0.9,0-1.1C35.8,65.1,40.5,65.1,40.5,65.1z"/>
	<path class="st277" d="M60.5,73.3l2.2-4.2h0v-4.4h-2.5c0,0,0,0,0,0l-0.4,0.5c-0.2-0.2-0.4-0.3-0.7-0.4c-0.6-0.3-1.3-0.4-2.2-0.4
		c-1.7,0-3.1,0.6-4.1,1.8c-1,1.2-1.5,2.8-1.5,4.7c0,0,0,0.1,0,0.1l0,0l0,3.4c0,2.2,0.5,3.5,1.5,4.6c1.1,1.2,2.6,2.1,4.7,2
		c1.2,0,3.3-0.5,4-2.5c0.4-1.1,0.4-3.5,0.4-5.1l0,0h-1.3l-0.1,0.1c-0.5,1-1.5,1.5-2.5,1.5c-0.4,0-1.1-0.1-1.8-0.6l0-3
		c0-1.3,0.3-1.9,1.5-1.9c0.7,0,1.1,1,1.1,1.7l0,2.1H60.5L60.5,73.3z"/>
	<path class="st28" d="M53.3,75.2c-1-1.1-1.5-2.5-1.5-4.4c0-1.9,0.5-3.3,1.4-4.4c0.9-1.1,2.2-1.6,3.8-1.6c0.8,0,1.4,0.1,2,0.4
		c0.5,0.3,1,0.7,1.3,1.2l0.4,0.7c0,0,0-1.6,0-1.9c0.3,0,1.3,0,1.6,0c0,0.4,0,3.1,0,3.5c-0.3,0-1.7,0-1.9,0c-0.5-1.1-1.7-1.6-2.7-1.6
		c-1.6,0-3.3,1-3.3,3.8c0,3.3,1.9,4.5,3.6,4.5c1.2,0,2.2-0.6,2.9-1.6c0.1,0,0.3,0,0.5,0c-0.5,3-3,3.3-3.8,3.3
		C55.5,77.1,54.1,76.1,53.3,75.2z"/>
	<path class="st28" d="M86.5,51.9c2.4,0.1,5.1,1.9,5.1,4.3v3.9c0,0,1.3,0,1.6,0c0,0.2,0,0.5,0,0.7c-0.4,0-4.8,0-5.2,0
		c0-0.3,0-1.9,0-1.9l-0.4,0.6c-0.6,0.8-1.9,1.3-3.2,1.3c-1.9,0-3.6-1.1-3.5-2.4l0,0c0-2.1,2.5-2.6,3.8-2.6c1.2,0,1.8,0.4,2.5,1
		l0.6,0.5l0-0.5l0-0.9c0-1.3-1.6-3-3.4-3c-1,0-1.8,0.4-2.3,0.7c0,0,0,0-0.1-0.1C83,52.6,84.9,51.9,86.5,51.9z M85.9,57
		c-0.7,0-1.8,0.3-1.8,1.1l0,0c0,0.9,0.9,1.3,1.8,1.3c0.6,0,1.2-0.2,1.6-0.5l0.1-0.1l0-1.3l-0.1-0.1C86.9,57.1,86.4,57,85.9,57z"/>
	<path class="st277" d="M77.9,59.4c0,0-1.2,0-1.5,0c0-0.4,0-11.6,0-11.6h-0.2h-6.4v0l-1.6,3.1v3.1h2v5.4c-0.2,0-0.4,0-0.4,0v0
		l-2.2,2.3v2.5h7.9l2.5-3.1h0L77.9,59.4L77.9,59.4z"/>
	<path class="st28" d="M75.9,48.2c0,0.4,0,11.6,0,11.6s1.2,0,1.5,0c0,0.2,0,0.6,0,0.9c-0.4,0-6.8,0-7.2,0c0-0.2,0-0.6,0-0.9
		c0.3,0,1.5,0,1.5,0V49.5c0,0-1.2,0-1.5,0c0-0.3,0-1,0-1.2C70.6,48.2,75.5,48.2,75.9,48.2z"/>
	<path class="st28" d="M59.6,48.2c0,0.4,0,6.5,0,6.5l0.4-0.4c1.1-1.2,2.7-1.9,4.2-1.9c2,0.1,3.1,1.3,3.2,3.4c0,2.2-1.8,4.3-4,4.4
		c-1.2,0.1-2.5-0.3-3.4-1.1l-0.4-0.3c0,0,0,1.7,0,2.1c-0.4,0-4.7,0-5.1,0c0-0.2,0-0.6,0-0.9c0.3,0,1.5,0,1.5,0V49.5c0,0-1.2,0-1.5,0
		c0-0.3,0-1,0-1.2C54.9,48.2,59.2,48.2,59.6,48.2z M60.5,56.2L60.5,56.2l-0.1,2.5l0.2,0c1,0.1,1.8-0.2,2.6-1
		c0.5-0.5,1.3-1.5,1.4-2.3c0-0.5-0.1-0.9-0.3-1.2c-0.2-0.2-0.4-0.3-0.7-0.3C62.7,54,61.6,55.1,60.5,56.2z"/>
	<path class="st28" d="M41.3,56.5c0-2.5,2.4-4.5,5.5-4.5c3,0,5.4,2,5.4,4.5c0,0,0,0.1,0,0.2c-0.4,0-8.1,0-8.1,0l0,0.3
		c0.2,1.8,1.9,2.8,3.3,2.9c0.7,0,1.9-0.5,2.3-0.7c0,0.1,0.1,0.1,0.1,0.1c-0.5,0.8-1.7,1.7-3.6,1.7C43.3,61,41.3,59.2,41.3,56.5z
		 M44.3,55.6l-0.1,0.3h5.1l-0.1-0.3c-0.4-1.1-1.4-1.8-2.4-1.8C45.6,53.8,44.7,54.5,44.3,55.6z"/>
	<path class="st277" d="M39.5,59.6l0-5l-2.3-2.5v0H37h-4.3v4.6c0,0.1,0,0.2,0,0.3c-1.1-0.1-1.7-0.5-1.7-1.6v-1.7l-2-1.6v0h-5.6v1.8
		c0,0,0.7,0,1,0c0,0.4,0,3.2,0,3.2c0,0.1,0,0.1,0,0.2l0,0.1c0,3.7,2.5,6.9,6.3,6.9c1.5,0,3.2-0.7,3.8-1.5l1.6,1.5h5.7v-2.8
		L39.5,59.6z"/>
	<path class="st28" d="M36.7,52.5c0,0.4,0,7.6,0,7.6s1.3,0,1.6,0c0,0.2,0,0.5,0,0.7c-0.4,0-4.8,0-5.2,0c0-0.3,0-1.9,0-1.9l-0.4,0.6
		c-1,1.4-2.8,1.5-4,1.5l0,0c-2.8-0.1-4.1-2.1-4.1-4v-3.6c0,0-0.7,0-1,0c0-0.2,0-0.6,0-0.9c0.4,0,4.4,0,4.7,0c0,0.4,0,3.8,0,3.8
		c0,1.5,0.9,2.6,2.2,2.6c0.7,0,1.4-0.3,1.9-0.7c0.4-0.4,0.6-0.9,0.6-1.5c0,0,0-3.8,0-4.2C33.5,52.5,36.4,52.5,36.7,52.5z"/>
	<path class="st28" d="M11.2,48.2l5.8,0c1.6,0,3.3,1.8,3.3,3.5c0,1.7-1.7,3.6-3.3,3.6h-5.4v4.5c0,0,2.9,0,3.3,0c0,0.2,0,0.6,0,0.9
		c-0.4,0-7.7,0-8.1,0c0-0.2,0-0.6,0-0.9c0.3,0,1.5,0,1.5,0V49.5c0,0-1.2,0-1.5,0c0-0.3,0-1,0-1.2C7.2,48.2,11.2,48.2,11.2,48.2z
		 M11.9,50.3h-0.2v3.6h3.5c1.2,0,1.9-0.9,1.9-1.9c0-0.8-0.7-1.7-1.9-1.7H11.9z"/>
</g>
</svg>
