<?xml version="1.0" encoding="utf-8"?>
<!-- Generator: Adobe Illustrator 19.2.1, SVG Export Plug-In . SVG Version: 6.00 Build 0)  -->
<svg version="1.1" id="Capa_1" xmlns="http://www.w3.org/2000/svg" xmlns:xlink="http://www.w3.org/1999/xlink" x="0px" y="0px"
	 viewBox="0 0 100 100" style="enable-background:new 0 0 100 100;" xml:space="preserve">
<style type="text/css">
	.st0{fill:url(#path34_4_);}
	.st1{fill:url(#path890_1_);}
	.st2{fill:#FFE500;stroke:#000000;stroke-width:2.098;stroke-miterlimit:3.863;}
	.st3{fill:#DA020E;}
	.st4{fill:#FFE500;}
	.st5{clip-path:url(#SVGID_2_);}
	.st6{fill:none;stroke:#B54005;stroke-width:10;stroke-miterlimit:3.863;}
	.st7{fill:url(#path7506_1_);}
	.st8{fill:url(#path8794_1_);}
	.st9{fill:url(#path15846_1_);}
	.st10{fill:url(#path16274_1_);}
	.st11{fill:url(#path39821_1_);}
	.st12{fill:url(#path39847_1_);}
	.st13{fill:url(#path39878_1_);}
	.st14{fill:url(#path39888_1_);}
	.st15{fill:url(#path41035_1_);}
	.st16{fill:url(#path9646-8_1_);}
	.st17{fill:url(#path41092_1_);}
	.st18{fill:url(#path41094_1_);}
	.st19{fill:none;stroke:#000000;stroke-width:2.098;stroke-miterlimit:3.863;}
	.st20{fill:url(#path41152_1_);}
	.st21{fill:url(#path39854_1_);}
	.st22{fill:url(#path39874_1_);}
	.st23{fill:#9C824A;stroke:#9C824A;stroke-width:0.793;stroke-miterlimit:282;}
	.st24{fill:#023474;stroke:#023474;stroke-width:0.793;stroke-miterlimit:282;}
	.st25{fill:#FFFFFF;stroke:#FFFFFF;stroke-width:0.793;stroke-miterlimit:282;}
	.st26{fill:#EF0107;stroke:#EF0107;stroke-width:0.793;stroke-miterlimit:282;}
	.st27{fill:#DB0007;stroke:#DB0007;stroke-width:0.793;stroke-miterlimit:282;}
	.st28{fill:#FFFFFF;}
	.st29{fill:#9C824A;}
	.st30{fill:#EF0107;stroke:#EF0107;stroke-width:0.3115;stroke-miterlimit:282;}
	.st31{fill:#DB0007;stroke:#DB0007;stroke-width:0.3115;stroke-miterlimit:282;}
	.st32{fill:#DB0007;}
	.st33{fill:#FFFFFF;stroke:#FFFFFF;stroke-width:0.3115;stroke-miterlimit:282;}
	.st34{fill:#FFFFFF;stroke:#FFFFFF;stroke-width:0.554;stroke-miterlimit:3.864;}
	.st35{fill:#231F20;}
	.st36{fill:#00B6F1;stroke:#00B6F1;stroke-width:1.700000e-02;stroke-miterlimit:3.864;}
	.st37{fill:#EF3E2E;}
	.st38{fill:#BBBDBF;}
	.st39{fill:#F0B83D;}
	.st40{fill:#00B6F1;stroke:#FFFFFF;stroke-width:1.700000e-02;stroke-miterlimit:3.864;}
	.st41{fill:#001C58;}
	.st42{fill:#94BEE5;}
	.st43{fill:none;stroke:#7A003C;stroke-width:2.2437;stroke-miterlimit:6;}
	.st44{fill:#7A003C;}
	.st45{fill:#FFE600;}
	.st46{fill:#DBA111;}
	.st47{fill:#034694;}
	.st48{fill:#D1D3D4;}
	.st49{fill:#ED1C24;}
	.st50{fill:#6A7AB5;}
	.st51{fill:none;}
	.st52{fill:#274488;}
	.st53{fill:#004798;stroke:#004798;stroke-width:9.375000e-02;}
	.st54{fill:#FFFFFF;stroke:#FFFFFF;stroke-width:9.375000e-02;}
	.st55{fill:#FABC00;stroke:#FABC00;stroke-width:9.375000e-02;}
	.st56{fill:none;stroke:#FFFFFF;stroke-width:7.865;stroke-miterlimit:3.864;}
	.st57{fill:none;stroke:#FFFFFF;stroke-width:7.865;stroke-miterlimit:12;}
	.st58{fill:none;stroke:#FFFFFF;stroke-width:7.865;stroke-miterlimit:22;}
	.st59{fill:none;stroke:#FFFFFF;stroke-width:7.865;stroke-miterlimit:6;}
	.st60{fill:#00A398;}
	.st61{fill:#D00027;}
	.st62{fill:none;stroke:#FFFFFF;stroke-width:17.3907;stroke-miterlimit:3.864;}
	.st63{fill:none;stroke:#FFFFFF;stroke-width:13.1107;stroke-miterlimit:3.864;}
	.st64{fill:#FEF667;}
	.st65{fill:#D00027;stroke:#D00027;}
	.st66{fill:#5299C6;}
	.st67{fill:#60223B;}
	.st68{fill:#F7C240;}
	.st69{fill:#292D6B;}
	.st70{fill:#1B458F;}
	.st71{fill:#C4122E;}
	.st72{fill:#27409B;}
	.st73{clip-path:url(#SVGID_4_);}
	.st74{fill:#F4F4F4;}
	.st75{fill:#D3D2D2;}
	.st76{fill:#A7A5A6;}
	.st77{fill:#091453;}
	.st78{fill:none;stroke:#FFFFFF;stroke-width:6.6301;}
	.st79{clip-path:url(#SVGID_6_);}
	.st80{fill:#724314;}
	.st81{fill:#240B08;}
	.st82{fill:#018B4B;}
	.st83{fill:#A6181D;}
	.st84{fill:#592D09;}
	.st85{fill:#FFCE65;}
	.st86{fill:#5CBFEB;}
	.st87{fill:none;stroke:#000000;stroke-width:10;}
	.st88{fill:none;stroke:#000000;}
	.st89{fill:#B2B2B2;}
	.st90{fill:none;stroke:#000000;stroke-width:0.3;}
	.st91{fill:#00A650;stroke:#000000;stroke-width:2;}
	.st92{fill:#241F20;stroke:#241F20;stroke-width:9.375000e-02;}
	.st93{fill:#FFF200;stroke:#FFF200;stroke-width:9.375000e-02;}
	.st94{fill:#A68A26;}
	.st95{fill:none;stroke:#A68A26;stroke-width:4.792100e-02;stroke-miterlimit:3.8637;}
	.st96{fill:#211E1E;}
	.st97{fill:none;stroke:#211E1E;stroke-width:4.792100e-02;stroke-miterlimit:3.8637;}
	.st98{fill:#EB172B;}
	.st99{fill:none;stroke:#EB172B;stroke-width:4.792100e-02;stroke-miterlimit:3.8637;}
	.st100{fill:#A68A26;stroke:#A68A26;stroke-width:4.792100e-02;stroke-miterlimit:3.8637;}
	.st101{fill:#D1BF7F;}
	.st102{fill:none;stroke:#D1BF7F;stroke-width:4.792100e-02;stroke-miterlimit:3.8637;}
	.st103{fill:none;stroke:#FFFFFF;stroke-width:4.792100e-02;stroke-miterlimit:3.8637;}
	.st104{fill:#EB172B;stroke:#EB172B;stroke-width:4.792100e-02;stroke-miterlimit:3.8637;}
	.st105{fill:#ED2127;}
	.st106{fill:#FBEE23;}
	.st107{stroke:#000000;}
	.st108{fill:#CF1F44;}
	.st109{fill:#1B449C;}
	.st110{fill:#E03A3E;}
	.st111{fill:#E03A3E;stroke:#E03A3E;stroke-width:0.6565;}
	.st112{fill:none;stroke:#1B449C;stroke-width:0.7493;}
	.st113{fill:none;stroke:#1B449C;stroke-width:0.7567;}
	.st114{fill:#1B449C;stroke:#1B449C;stroke-width:0.6274;}
	.st115{fill:#1B449C;stroke:#1B449C;stroke-width:0.6755;}
	.st116{fill:#2E6ABD;stroke:#2E6ABD;stroke-width:0.617;}
	.st117{fill:#FFFFFF;stroke:#FFFFFF;stroke-width:0.6175;}
	.st118{fill:#ED1248;}
	.st119{fill:#2E6ABD;}
	.st120{fill:#FDE100;}
	.st121{fill:#CC0000;}
	.st122{fill:#211E1F;}
	.st123{fill:#ED1A3B;}
	.st124{fill:#00AEEF;}
	.st125{fill:#FFC40D;}
	.st126{fill:#22B24C;}
	.st127{fill:#FFC20E;}
	.st128{fill:#0A3F86;}
	.st129{fill:#005CA9;}
	.st130{fill:#FFE000;}
	.st131{fill:#E2001A;}
	.st132{opacity:0;}
	.st133{opacity:0;fill:#FFFFFF;}
	.st134{fill:#FFFFFF;stroke:#000000;}
	.st135{fill:#0060A9;}
	.st136{fill:#E32219;}
	.st137{fill:#FFED00;}
	.st138{fill:#1D9053;}
	.st139{fill:#52A600;}
	.st140{fill:#EE2523;}
	.st141{fill:#F7D117;}
	.st142{fill:#171796;}
	.st143{fill:#009959;}
	.st144{fill:#D42E12;}
	.st145{fill:#703824;}
	.st146{fill:#E5254E;}
	.st147{fill:#8AC3EE;}
	.st148{fill:#B19221;}
	.st149{fill:#F5C03E;}
	.st150{fill:#FF1119;}
	.st151{fill:#1E6BC0;}
	.st152{fill:#B4742A;}
	.st153{fill:#371B02;}
	.st154{fill:url(#SVGID_7_);}
	.st155{fill:url(#SVGID_8_);}
	.st156{fill:url(#SVGID_9_);}
	.st157{fill:url(#SVGID_10_);}
	.st158{fill:url(#SVGID_11_);}
	.st159{fill:url(#SVGID_12_);}
	.st160{fill:url(#SVGID_13_);}
	.st161{fill:url(#SVGID_14_);}
	.st162{fill:url(#SVGID_15_);}
	.st163{fill:url(#SVGID_16_);}
	.st164{fill:#EB2626;}
	.st165{fill:#E9C32C;}
	.st166{fill:#D9D9D9;}
	.st167{fill:#009C5E;}
	.st168{fill:#1C75BC;}
	.st169{fill:#611D5C;}
	.st170{fill:#E2B900;}
	.st171{fill:#004B95;}
	.st172{fill:#A4234B;}
	.st173{fill:#DB2F36;}
	.st174{fill:#FFDF00;}
	.st175{fill:#A38D44;}
	.st176{fill:#57175E;}
	.st177{fill:#AFDCFD;}
	.st178{fill:#0090C6;}
	.st179{fill:#DB5232;}
	.st180{fill:#23C1E0;}
	.st181{fill:#F1A92A;}
	.st182{fill:#167FB6;}
	.st183{fill:#FED75D;}
	.st184{fill:#378CBF;}
	.st185{fill:#3E9692;}
	.st186{fill:#E67F29;}
	.st187{fill:#D8B43C;}
	.st188{fill:#EF3B33;}
	.st189{fill:#24923D;}
	.st190{opacity:6.000001e-02;fill:#101010;enable-background:new    ;}
	.st191{fill:#00529F;}
	.st192{fill:#EE324E;}
	.st193{fill:#FEBE10;}
	.st194{fill:#143C8B;}
	.st195{fill:#FFE24A;}
	.st196{fill:#EC1D24;}
	.st197{fill:#E6A514;}
	.st198{fill:#FFDF1C;}
	.st199{fill:#EE3524;}
	.st200{fill:#B23428;}
	.st201{fill:#D18816;}
	.st202{fill:#0097D7;}
	.st203{fill:#ED1C23;}
	.st204{fill:#E30613;}
	.st205{fill:#FFE400;}
	.st206{fill:#C51A1B;}
	.st207{clip-path:url(#SVGID_19_);}
	.st208{clip-path:url(#SVGID_20_);fill:none;stroke:#000000;stroke-width:0.8131;stroke-miterlimit:3.864;}
	.st209{fill:#0093D5;}
	.st210{fill:#004B9D;}
	.st211{fill:#FCC24F;}
	.st212{fill:#009545;}
	.st213{fill:#0072BB;}
	.st214{fill:#C4974E;}
	.st215{fill:url(#path1292_1_);}
	.st216{fill:#004996;}
	.st217{fill:#FFE667;}
	.st218{fill:none;stroke:#005187;stroke-width:0.153;stroke-miterlimit:3.864;}
	.st219{fill:#005187;}
	.st220{clip-path:url(#SVGID_22_);}
	.st221{clip-path:url(#SVGID_24_);fill:none;stroke:#000000;stroke-width:0.296;stroke-miterlimit:3.864;}
	.st222{clip-path:url(#SVGID_26_);fill:#FFE667;}
	.st223{clip-path:url(#SVGID_28_);fill:none;stroke:#000000;stroke-width:8.300000e-02;stroke-miterlimit:3.864;}
	.st224{fill:none;stroke:#000000;stroke-width:0.153;stroke-miterlimit:3.864;}
	.st225{clip-path:url(#SVGID_30_);fill:#E70005;}
	.st226{clip-path:url(#SVGID_32_);fill:none;stroke:#E70005;stroke-width:0.296;stroke-miterlimit:3.864;}
	.st227{clip-path:url(#SVGID_34_);fill:#E70005;}
	.st228{clip-path:url(#SVGID_36_);fill:none;stroke:#E70005;stroke-width:0.296;stroke-miterlimit:3.864;}
	.st229{clip-path:url(#SVGID_38_);fill:#E70005;}
	.st230{clip-path:url(#SVGID_40_);fill:none;stroke:#E70005;stroke-width:0.296;stroke-miterlimit:3.864;}
	.st231{clip-path:url(#SVGID_42_);fill:#E70005;}
	.st232{clip-path:url(#SVGID_44_);fill:none;stroke:#E70005;stroke-width:0.296;stroke-miterlimit:3.864;}
	.st233{fill:#E70005;}
	.st234{fill:none;stroke:#000000;stroke-width:0.141;stroke-miterlimit:3.864;}
	.st235{fill:#00276D;}
	.st236{fill:#C49308;}
	.st237{fill:#179D33;}
	.st238{fill:#999999;}
	.st239{fill:#FF0000;}
	.st240{fill:#E31837;}
	.st241{fill:#06357A;}
	.st242{fill:#B4053F;}
	.st243{fill:#DCA43E;}
	.st244{fill:#005CA5;}
	.st245{fill:#FAC400;}
	.st246{fill:#004083;}
	.st247{fill:#A95932;}
	.st248{fill:none;stroke:#000000;stroke-width:1.2215;}
	.st249{fill:#E62627;}
	.st250{fill:#00458C;}
	.st251{fill:#E11B22;}
	.st252{fill:#00AB4E;}
	.st253{fill:#F47920;}
	.st254{fill:#C7C8CA;}
	.st255{fill:#E11515;}
	.st256{fill:#A4965F;}
	.st257{fill:#E51636;}
	.st258{fill:#EACC00;}
	.st259{fill:#4F846B;}
	.st260{fill:#E22227;}
	.st261{fill:#FAE700;}
	.st262{fill:url(#SVGID_45_);}
	.st263{fill:#666666;}
	.st264{fill:#FFF200;}
	.st265{fill:#00275D;}
	.st266{fill:#EF3E33;}
	.st267{fill:none;stroke:#00275D;stroke-width:2.632;}
	.st268{fill:#3F7652;}
	.st269{fill:#F1D261;}
	.st270{fill:#004D8F;}
	.st271{fill:#E7B137;stroke:#E7B137;stroke-miterlimit:10;}
	.st272{fill:#E7B137;}
	.st273{fill:#162577;}
	.st274{fill:#12692C;}
	.st275{fill:#D8141D;}
	.st276{fill:#AB830D;}
	.st277{fill:#0086CB;}
	.st278{fill:#001F42;}
	.st279{fill:#9A8F4A;}
	.st280{fill:#00559D;}
	.st281{fill:#FDDE00;}
	.st282{fill:#00924C;}
	.st283{fill:#233984;}
	.st284{fill:#FFD42E;}
	.st285{fill:#BA3733;}
	.st286{fill:#46714D;}
	.st287{fill:#221F1F;}
	.st288{fill:#00559E;}
	.st289{fill:#005C46;}
	.st290{fill:#FBC860;}
	.st291{fill:#D57C48;}
	.st292{fill:#040403;}
	.st293{fill:#4AB969;}
	.st294{fill:#8ED8F8;}
	.st295{fill:#FEC34E;}
	.st296{fill:#FFC95B;}
	.st297{fill:#00644C;}
	.st298{fill:#70B865;}
	.st299{fill:#CA6F44;}
	.st300{fill:#A8B8BE;}
	.st301{fill:#1C2C80;}
	.st302{fill:#E10321;}
	.st303{fill:none;stroke:#231F20;stroke-width:0.318;stroke-miterlimit:3.864;}
	.st304{fill:#D71920;}
	.st305{fill:#484749;}
	.st306{fill:#D9DBDC;}
	.st307{fill:#DF725A;}
	.st308{fill:#F2CABA;}
	.st309{fill:#E89C84;}
	.st310{fill:#264F99;}
	.st311{clip-path:url(#SVGID_47_);}
	.st312{fill:#161413;}
	.st313{fill:#ED1B26;}
	.st314{fill:#E60D2E;}
	.st315{fill:#FCD600;}
	.st316{fill:#004D91;}
	.st317{fill:#EAB412;}
	.st318{fill:#FDD31D;}
	.st319{fill:#EFB800;}
</style>
<g>
	<path class="st53" d="M48.3,0c7.4-0.3,14.9,1.2,21.7,4.1c9.3,4,17.2,11,22.5,19.6c7.2,11.6,9.3,26.3,5.6,39.5
		c-2.9,10.5-9.3,20-17.9,26.5c-7.8,6-17.5,9.6-27.3,10.1c-7.1,0.4-14.2-0.7-20.8-3.2C20.8,92.4,11.2,83.8,5.6,73
		C0.9,64-0.9,53.4,0.4,43.3C1.8,32.8,6.6,22.9,14,15.3C22.8,6,35.4,0.4,48.3,0 M47.2,4.2c-11,0.6-21.7,5.5-29.6,13.3
		c-7,7-11.7,16.2-13,26c-0.5,3.2-0.5,6.4-0.4,9.6c0.5,7.7,3,15.3,7.2,21.8c4.9,7.6,12,13.6,20.3,17.2c5.4,2.4,11.3,3.6,17.2,3.8
		c9.4,0.2,18.9-2.5,26.6-7.8c5.1-3.4,9.5-7.9,12.8-13c4.7-7.2,7.4-15.8,7.4-24.5c0.1-6.4-1.2-12.9-3.8-18.8
		C88,22.2,80.6,14.2,71.4,9.4C64,5.5,55.5,3.7,47.2,4.2z"/>
	<path class="st54" d="M47.2,4.2C55.5,3.7,64,5.5,71.4,9.4c9.2,4.8,16.7,12.9,20.8,22.4c2.6,5.9,3.8,12.4,3.8,18.8
		c-0.1,8.6-2.7,17.2-7.4,24.5c-3.4,5.1-7.7,9.6-12.8,13c-7.8,5.3-17.2,8-26.6,7.8c-5.9-0.1-11.8-1.4-17.2-3.8
		c-8.3-3.6-15.4-9.6-20.3-17.2c-4.2-6.5-6.7-14.1-7.2-21.8c-0.2-3.2-0.1-6.4,0.4-9.6c1.3-9.8,6-19.1,13-26
		C25.4,9.7,36.1,4.8,47.2,4.2 M44.1,5.6c0.3,0.9-0.2,1.8-0.2,2.7c0.9-0.8,2.1-1,3.2-1c0.1,2.5,0.2,5,0.3,7.5c0,0.5-0.2,0.9-0.5,1.3
		c1.1,0,2.1-0.1,3.1-0.1c-0.5-0.5-0.7-1.2-0.7-1.9c-0.1-2.3-0.2-4.6-0.3-6.9c1.2-0.1,2.4,0,3.4,0.7c-0.1-0.9-0.7-1.8-0.5-2.7
		C49.3,5.3,46.7,5.5,44.1,5.6 M54.1,5.3c0.3,0.5,0.4,1.1,0.3,1.6c-0.4,2.5-0.9,5-1.4,7.4c-0.1,0.6-0.4,1-0.8,1.4
		c2.7,0.5,5.4,1,8.1,1.5c-0.1-1.1,0.8-1.9,1.2-2.9c-0.9,0.6-2.1,0.9-3.1,0.6c-1.1-0.2-2.2-0.4-3.4-0.6c0.2-0.9,0.3-1.7,0.5-2.6
		c1.1,0.2,2.2,0.5,3.3,0.6c0.8-0.3,1.1-1.2,1.6-1.8c-0.4,0.1-0.7,0.2-1.1,0.1c-1.1-0.2-2.3-0.4-3.4-0.6c0.1-0.8,0.3-1.6,0.5-2.4
		c1.9,0.5,4.3,0.4,5.8,2c0.1-0.9-0.3-1.9,0.1-2.7C59.5,6.3,56.8,5.8,54.1,5.3 M36.7,7.4c-1.7,1.2-1.6,4.1,0.2,5.2
		c1.3,0.7,2.8,0.2,4.1,0.3c0.9,0,1.3,1.4,0.7,2c-1.3,1.2-3.4,1-5,0.5c0.4,0.9,0.8,1.8,1.2,2.7c0.5-0.3,1.2-0.3,1.8-0.4
		c1.3-0.2,2.7-0.6,3.6-1.6c1-1.2,0.8-3.1-0.1-4.4c-0.8-1-2.2-1.1-3.4-1.1c-0.7,0-1.4,0.2-2.1-0.1c-0.6-0.4-0.5-1.3,0.1-1.7
		c1.2-0.6,2.7-0.6,3.9-0.1c-0.1-0.9-0.2-1.7-0.2-2.6C40,6.5,38.2,6.3,36.7,7.4 M65,7.6c0.2,0.6,0.1,1.2-0.1,1.7c-1,2.1-2,4.2-3,6.4
		c-0.3,0.6-0.7,1.3-1.4,1.5c0.9,0.5,1.9,0.9,2.8,1.4c-0.4-1.4,0.7-2.7,1.2-3.9c0.5,0.3,1.2,0.5,1.5,1c0.5,0.7,0.6,1.6,0.6,2.4
		c0,0.6-0.1,1.4-0.7,1.7c1,0.5,2,0.9,3,1.4c-0.6-1.7,0.2-3.6-0.7-5.3c0.7,0,1.4,0,2-0.4c1.1-0.8,1.8-2.4,1.5-3.7
		c-0.2-0.8-0.9-1.4-1.6-1.7C68.4,9.3,66.7,8.5,65,7.6 M24.8,13.1c0.6,0.2,1,0.7,1.3,1.2c1.2,2.1,2.3,4.2,3.5,6.3
		c0.3,0.5,0.5,1.2,0.3,1.7c2.4-1.4,4.9-2.7,7.3-4.1c-0.8-0.8-0.6-2-1-2.9c-0.2,0.8-0.7,1.6-1.4,2.1c-1.1,0.8-2.4,1.4-3.6,2
		c-0.4-0.8-0.9-1.5-1.3-2.3c0.9-0.6,1.9-1,2.8-1.6c0.5-0.7,0.1-1.6,0.1-2.4c-0.2,0.3-0.5,0.6-0.8,0.7c-1,0.6-2,1.1-3,1.7
		c-0.4-0.7-0.8-1.4-1.2-2.2c1.8-0.8,3.5-2.5,5.7-2.1c-0.5-0.8-1.4-1.3-1.7-2.2C29.6,10.4,27.1,11.7,24.8,13.1 M21.6,15.7
		c-1.1,0.6-2.1,1.4-2.7,2.5c-0.8,1.5-0.5,3.4,0.5,4.8c1.1,1.6,2.6,3.1,4.6,3.4c1.6,0.2,3.1-0.8,4-2c0.5-0.6,0.9-1.4,1.6-1.7
		c-0.6-0.7-1.3-1.4-1.9-2.1c-0.2,0.8-0.5,1.7-1,2.4c-0.6,0.8-1.5,1.4-2.4,1.2c-1.1-0.2-2-1-2.8-1.9c-0.7-0.9-1.2-2.1-0.7-3.2
		c0.5-1.2,1.9-1.9,3.1-1.9c-0.4-0.8-0.8-1.6-1.3-2.4C22.3,15.2,22,15.4,21.6,15.7 M47.7,17.2c-6.6,0.4-13,3-18.1,7.1
		C21.8,30.3,17,40,17.1,49.8c-0.1,4.5,0.8,9,2.6,13.1c3.5,8.3,10.6,15,19,18c7.9,2.9,17,2.6,24.7-0.9c6-2.7,11.2-7.2,14.6-12.8
		c3.1-4.9,4.8-10.7,4.9-16.6c0.3-8.6-3.1-17.3-9.1-23.5c-4.6-4.9-10.8-8.3-17.4-9.6C53.5,17.1,50.6,17,47.7,17.2 M75.8,19.9
		c-1.2,1.1-2.3,2.6-2.3,4.3c0,1.5,1,2.8,2.2,3.6c0.5,0.4,1.3,0.8,1.5,1.5c0.7-0.7,1.4-1.3,2-2c-1.3-0.3-2.8-0.9-3.4-2.2
		c-0.5-1,0-2.2,0.7-3c0.9-1.1,2.3-2.1,3.8-1.8c1.5,0.3,2.3,1.8,2.3,3.3c0.8-0.4,1.6-0.9,2.4-1.3c-0.7-0.4-0.9-1.2-1.3-1.8
		c-0.8-1.2-2-2.2-3.5-2.3C78.7,18,77,18.8,75.8,19.9 M13.4,24.7c0.6-0.1,1.2,0.2,1.7,0.6c1.9,1.4,3.9,2.9,5.8,4.3
		c0.5,0.4,0.9,0.8,1,1.5c0.7-0.8,1.2-1.7,1.9-2.5c-0.6,0.1-1.2-0.1-1.6-0.5c-2-1.4-3.9-2.9-5.8-4.3c-0.5-0.4-1.1-0.9-1.1-1.6
		C14.7,23,14.1,23.8,13.4,24.7 M84.6,26c-1.8,1.2-3.6,2.3-5.3,3.5c-0.5,0.3-1.1,0.6-1.7,0.4c0.6,0.9,1.2,1.8,1.8,2.7
		c0.1-0.7,0.6-1.2,1.2-1.5c1.9-1.3,3.8-2.5,5.7-3.8c0.6-0.4,1.2-0.7,1.9-0.5c-0.6-0.9-1.2-1.7-1.7-2.6C86.3,25,85.3,25.5,84.6,26
		 M8.3,34.2c0.7-0.3,1.3,0,1.9,0.3c2.1,1.1,4.3,2.1,6.4,3.1c0.5,0.3,1,0.7,1.2,1.2c1.2-2.5,2.5-5,3.6-7.5c-0.3,0-0.6-0.1-0.8-0.3
		c-0.6-0.5-1.1-1.1-1.7-1.6c0.4,1,0.3,2.1-0.1,3.1c-0.5,1.1-1.1,2.1-1.6,3.2c-0.8-0.3-1.6-0.8-2.4-1.1c0.4-1,0.9-1.9,1.3-2.8
		c0.2-0.9-0.8-1.5-1.2-2.2c0,0.4-0.1,0.7-0.2,1.1c-0.5,1-1,2.1-1.5,3.1c-0.7-0.4-1.5-0.7-2.2-1.1c0.5-1,1-2.1,1.5-3.1
		c0.4-0.8,1.1-1.5,1.9-1.9c-0.9-0.3-1.9-0.2-2.6-0.8C10.7,29.3,9.4,31.8,8.3,34.2 M86.2,28.2c1,0.6,1.7,1.5,2.1,2.6
		c-2.3,1.1-4.5,2.1-6.8,3.2c-0.4,0.2-0.9,0.2-1.4,0c0.5,1,0.9,1.9,1.4,2.9c0.3-0.7,0.9-1.2,1.6-1.5c2-0.9,4-1.9,6.1-2.8
		c0.5,1,0.9,2.2,0.6,3.3c0.8-0.5,1.4-1.3,2.3-1.5c-1.1-2.3-2.2-4.7-3.3-7C88.1,28,87.1,27.9,86.2,28.2 M90.7,37.4
		c-1.3,1.1-2.7,2.3-4,3.4c-0.3,0.3-0.8,0.3-1.1,0.4c-0.8,0.2-1.8,0.5-2.6-0.1c0.2,1,0.5,2.1,0.7,3.1c0.4-0.6,1.1-0.9,1.8-1
		c0.7-0.1,1.4-0.5,2-0.1c2.4,0.8,4.9,1.4,7.2,2.3c-0.1-1-0.4-2-0.6-3.1c-0.3,0.4-0.8,0.5-1.3,0.4c-1.3-0.3-2.6-0.7-3.9-1.1
		c1-0.9,2-1.7,3.1-2.5c0.4-0.3,0.9-0.5,1.4-0.3c-0.2-1.1-0.5-2.2-0.7-3.3C92.2,36.3,91.4,36.8,90.7,37.4 M14.9,37.9
		c0.3,0.6,0.6,1.2,0.7,1.8c0.1,1.2-0.4,2.4-0.6,3.6c-2.3-0.5-4.6-1-6.9-1.5c-0.6-0.1-1.2-0.4-1.6-1C6.3,42,6.1,43,5.9,44
		c0.5-0.3,1.1-0.4,1.6-0.3c2.4,0.5,4.9,1.1,7.3,1.6c0.6,0.1,1.1,0.4,1.4,0.9c0.5-2.4,1.1-4.7,1.6-7.1c-0.3,0-0.5,0.1-0.7-0.1
		C16.3,38.7,15.6,38.3,14.9,37.9 M9.3,47.3c-0.9,0.3-1.2,1.5-0.6,2.2c0.6,0.8,2.1,0.6,2.4-0.4C11.5,48,10.3,46.9,9.3,47.3
		 M89.8,47.3c-0.4,0.2-0.7,0.5-0.8,1c-0.2,0.8,0.5,1.7,1.3,1.7c0.9,0.1,1.7-0.9,1.4-1.8C91.4,47.5,90.5,47,89.8,47.3 M14.2,52.6
		c-2.4,0.4-4.8,0.9-7.2,1.3C6.4,54,5.7,54,5.2,53.6c0.2,1,0.4,2.1,0.6,3.1c1-1.2,2.7-1,4.1-1.4c0.3,1.1,0.3,2.2,0.6,3.3
		c0.5,0.6,1.5,0.6,2.2,0.8c-0.2-0.3-0.4-0.6-0.4-0.9c-0.2-1.1-0.4-2.3-0.6-3.4c0.9-0.2,1.7-0.4,2.6-0.5c0.2,1.8,1,3.6,0.1,5.3
		c0.9-0.2,1.6-0.9,2.6-0.8c-0.4-2.4-0.9-4.9-1.3-7.3C15.3,52.3,14.8,52.6,14.2,52.6 M85.4,52.4c-1,0.4-1.3,1.5-1.6,2.5
		c-0.3,1.7-0.6,3.4-0.9,5.1c0.6-0.5,1.5-0.4,2.2-0.3c2.2,0.4,4.5,0.8,6.7,1.2c0.6,0.1,1.2,0.3,1.5,0.8c0.3-1.6,0.5-3.2,0.8-4.7
		c0.2-1.1,0.3-2.2-0.3-3.2c-0.7-1-2-1.4-3.2-1.3c-0.9,0.1-1.5,0.7-1.8,1.5C88.5,52.5,86.7,51.9,85.4,52.4 M81.7,63.3
		c0.5-0.2,1-0.2,1.4,0c1.6,0.7,3.2,1.5,4.8,2.2c0.6,0.3,1.3,0.7,1.5,1.4c0.2,0.9-0.3,2-1.2,2.4c-0.6,0.3-1.4,0-2-0.2
		c-1.5-0.7-3-1.3-4.5-2c-0.5-0.2-1-0.6-1.2-1.2c-0.5,0.9-0.9,1.9-1.3,2.8c0.8-0.3,1.6,0.1,2.3,0.4c1.3,0.6,2.6,1.2,3.9,1.8
		c1,0.4,2.1,0.8,3.2,0.5c1-0.3,1.7-1.1,2.1-2c0.5-0.9,0.8-2,0.5-3.1c-0.3-1.1-1.2-1.8-2.2-2.3c-1.6-0.7-3.1-1.4-4.7-2.1
		c-0.6-0.3-1.2-0.7-1.4-1.4C82.6,61.4,82.2,62.4,81.7,63.3 M14.2,61.2c-1.9,0.3-3.9,1.3-5,2.9c-1.5,2.3-0.2,5.8,2.3,6.6
		c1.7,0.5,3.5,0.1,5-0.7c1.4-0.7,2.7-1.9,3-3.5c0.3-1.8-0.5-3.7-2-4.7C16.5,61.2,15.3,61.1,14.2,61.2 M20.1,69.8
		c-1.7,0.3-3.3,1.4-4.4,2.7c-0.8,1-1.4,2.2-1.3,3.5c0.2,2.1,2.1,4,4.2,4.1c1.6,0.1,3.2-0.7,4.3-1.8c1.1-1,2.1-2.4,2.2-3.9
		C25.2,71.8,22.8,69.4,20.1,69.8 M75,73.2c0.7-0.2,1.3,0.2,1.9,0.6c1.9,1.5,3.8,2.9,5.6,4.4c0.5,0.4,0.8,0.8,0.9,1.4
		c1.5-1.9,3-3.8,4.4-5.7c-0.2-0.1-0.5-0.2-0.6-0.4c-0.5-0.7-0.9-1.4-1.4-2c0.3,1.4-0.5,2.8-1.4,3.8c-0.4,0.3-0.6,0.9-1,1.1
		c-1.8-1.4-3.6-2.8-5.4-4.2c-0.5-0.4-1-0.9-1.1-1.6C76.4,71.5,75.7,72.3,75,73.2 M72.8,75.2c-1.4,0.7-2.5,2.1-2.6,3.7
		c-0.2,2,0.9,3.9,2.3,5.2c1,1,2.5,1.8,4,1.5c1.4-0.2,2.5-1.2,3.3-2.3c0.3-0.4,0.7-0.9,1.2-1c-0.6-0.7-1.2-1.5-1.8-2.2
		c-0.4,1.4-1.2,2.8-2.6,3.3c-1.3,0.4-2.5-0.5-3.2-1.5c-0.8-0.9-1.4-2.2-1.1-3.5c0.5-1.4,2-2.1,3.4-2c-0.4-0.8-0.7-1.6-1.1-2.5
		C74.2,74.6,73.4,74.8,72.8,75.2 M25,77.2c1.2-0.1,2.3,0.5,3.2,1.2c-1.4,2-2.9,4-4.3,6c-0.3,0.4-0.7,0.6-1.2,0.8
		c0.8,0.6,1.7,1.2,2.5,1.8c-0.2-0.7,0.2-1.4,0.6-1.9c1.3-1.8,2.6-3.5,3.8-5.3c0.1-0.1,0.1-0.2,0.3-0.2c1,0.6,1.8,1.5,2.1,2.6
		c0.4-0.8,0.6-1.8,1.3-2.4c-2.1-1.5-4.2-3-6.2-4.5C26.5,76.1,25.6,76.5,25,77.2 M34.2,80.5c0.3,0.6,0.1,1.2-0.1,1.8
		c-0.9,2.2-1.8,4.5-2.7,6.7c-0.2,0.5-0.6,1-1.1,1.3c2.1,0.7,4.2,2,6.4,2.3c1.9,0.3,3.3-1.6,3.2-3.3c0-0.7-0.5-1.3-1.1-1.7
		c1.5-0.1,2.5-1.8,2.2-3.2c-0.3-1-1.3-1.6-2.2-2C37.2,81.7,35.7,81.1,34.2,80.5 M57.8,83.3c0.8,0.3,1.1,1.2,1.3,1.9
		c0.7,2.1,1.5,4.3,2.2,6.4c0.2,0.5,0.2,1.1,0,1.6c2.3-0.8,4.5-1.6,6.8-2.4c-0.6-0.9-0.2-2-0.4-3c-0.3,0.4-0.6,0.9-1,1.3
		c-1,0.9-2.4,1.1-3.7,1.6c-0.8-2.2-1.6-4.4-2.3-6.6c-0.2-0.6-0.3-1.3,0-1.8C59.9,82.6,58.8,82.9,57.8,83.3 M44.3,83.6
		c0,0.3,0,0.6-0.1,0.8c-1.3,2.5-2.5,4.9-3.7,7.4c-0.3,0.6-0.7,1.3-1.1,1.8c1,0.1,2,0.2,3,0.3c-0.3-0.7-0.1-1.5,0.2-2.1
		c1.5,0.2,3,0.3,4.5,0.6c0.2,0.7,0.3,1.5-0.2,2.2c1,0.1,1.9,0.3,2.9,0.3c-0.3-0.6-0.5-1.3-0.7-1.9c-0.6-2.7-1.1-5.5-1.7-8.2
		c-0.1-0.3,0-0.6,0.1-0.8C46.4,83.8,45.3,83.6,44.3,83.6 M50.4,84.2c0.5,0.4,0.7,1,0.8,1.5c0.3,2.3,0.5,4.5,0.8,6.8
		c0.1,0.7,0.2,1.5-0.4,2.1c2.4-0.2,4.8-0.6,7.2-0.9c-0.1-0.2-0.3-0.4-0.2-0.6c0.1-0.8,0.3-1.6,0.4-2.4c-0.7,1-1.9,1.5-3.1,1.6
		c-0.7,0-1.4,0.3-2,0.2c-0.3-2.3-0.6-4.6-0.8-6.9c-0.1-0.6,0-1.2,0.4-1.7C52.5,83.9,51.5,84.1,50.4,84.2z"/>
	<path class="st53" d="M44.1,5.6c2.6-0.1,5.2-0.3,7.8-0.4c-0.2,0.9,0.4,1.8,0.5,2.7c-1-0.7-2.2-0.8-3.4-0.7c0.1,2.3,0.2,4.6,0.3,6.9
		c0,0.7,0.2,1.4,0.7,1.9c-1.1,0-2.1,0.2-3.1,0.1c0.3-0.4,0.5-0.8,0.5-1.3c-0.1-2.5-0.3-5-0.3-7.5c-1.1,0-2.4,0.2-3.2,1
		C43.9,7.4,44.4,6.5,44.1,5.6z"/>
	<path class="st53" d="M54.1,5.3c2.7,0.5,5.4,1,8.1,1.5c-0.4,0.9,0,1.8-0.1,2.7c-1.4-1.6-3.8-1.5-5.8-2c-0.2,0.8-0.4,1.6-0.5,2.4
		c1.1,0.2,2.3,0.4,3.4,0.6c0.4,0.1,0.7,0,1.1-0.1c-0.5,0.6-0.8,1.5-1.6,1.8c-1.1-0.1-2.2-0.4-3.3-0.6c-0.2,0.9-0.3,1.7-0.5,2.6
		c1.1,0.2,2.2,0.4,3.4,0.6c1.1,0.2,2.2,0,3.1-0.6c-0.3,1-1.2,1.8-1.2,2.9c-2.7-0.5-5.4-1-8.1-1.5c0.4-0.4,0.7-0.8,0.8-1.4
		c0.5-2.5,1-4.9,1.4-7.4C54.5,6.4,54.4,5.8,54.1,5.3z"/>
	<path class="st53" d="M36.7,7.4c1.4-1.1,3.3-0.9,5-1.3c0,0.9,0.1,1.7,0.2,2.6c-1.2-0.5-2.7-0.5-3.9,0.1c-0.6,0.3-0.6,1.3-0.1,1.7
		c0.7,0.3,1.4,0.1,2.1,0.1c1.2-0.1,2.6,0,3.4,1.1c0.9,1.3,1.1,3.2,0.1,4.4c-0.9,1.1-2.3,1.5-3.6,1.6c-0.6,0.1-1.3,0.1-1.8,0.4
		c-0.4-0.9-0.8-1.8-1.2-2.7c1.6,0.5,3.6,0.7,5-0.5c0.6-0.6,0.2-2-0.7-2c-1.4-0.1-2.9,0.5-4.1-0.3C35.1,11.6,35,8.6,36.7,7.4z"/>
	<path class="st53" d="M65,7.6c1.7,0.8,3.4,1.6,5.1,2.4c0.7,0.3,1.4,0.9,1.6,1.7c0.3,1.4-0.4,2.9-1.5,3.7c-0.6,0.4-1.3,0.4-2,0.4
		c0.8,1.7,0.1,3.6,0.7,5.3c-1-0.5-2-1-3-1.4c0.6-0.4,0.7-1.1,0.7-1.7c0-0.8,0-1.7-0.6-2.4c-0.4-0.5-1-0.7-1.5-1
		c-0.5,1.3-1.6,2.5-1.2,3.9c-0.9-0.5-1.9-0.9-2.8-1.4c0.7-0.3,1.1-0.9,1.4-1.5c1-2.1,2-4.2,3-6.4C65.1,8.8,65.2,8.2,65,7.6
		 M66.5,10.5c-0.4,0.9-0.8,1.7-1.2,2.6c0.9,0.4,1.7,0.9,2.6,1.2c1.4,0.5,2.5-1.9,1.2-2.6C68.3,11.2,67.4,10.8,66.5,10.5z"/>
	<path class="st53" d="M24.8,13.1c2.3-1.4,4.8-2.7,7.1-4c0.3,0.9,1.2,1.4,1.7,2.2c-2.2-0.4-3.9,1.3-5.7,2.1c0.3,0.8,0.8,1.4,1.2,2.2
		c1-0.5,2-1.1,3-1.7c0.3-0.2,0.6-0.4,0.8-0.7c0,0.8,0.4,1.7-0.1,2.4c-0.9,0.6-1.9,1.1-2.8,1.6c0.4,0.8,0.9,1.5,1.3,2.3
		c1.2-0.7,2.4-1.3,3.6-2c0.7-0.5,1.2-1.3,1.4-2.1c0.4,1,0.2,2.2,1,2.9c-2.4,1.3-4.9,2.7-7.3,4.1c0.2-0.6,0.1-1.2-0.3-1.7
		c-1.2-2.1-2.3-4.2-3.5-6.3C25.8,13.7,25.4,13.2,24.8,13.1z"/>
	<path class="st54" d="M66.5,10.5c0.9,0.3,1.7,0.8,2.5,1.2c1.3,0.7,0.2,3.1-1.2,2.6c-0.9-0.3-1.7-0.8-2.6-1.2
		C65.7,12.2,66.1,11.3,66.5,10.5z"/>
	<path class="st53" d="M21.6,15.7c0.4-0.2,0.8-0.5,1-0.8c0.4,0.8,0.8,1.6,1.3,2.4c-1.3,0-2.6,0.7-3.1,1.9c-0.5,1.1,0,2.3,0.7,3.2
		c0.7,0.9,1.6,1.7,2.8,1.9c1,0.2,1.9-0.5,2.4-1.2c0.6-0.7,0.8-1.6,1-2.4c0.6,0.7,1.3,1.4,1.9,2.1c-0.8,0.3-1.1,1.1-1.6,1.7
		c-0.9,1.2-2.4,2.2-4,2c-2-0.3-3.5-1.8-4.6-3.4c-0.9-1.4-1.3-3.3-0.5-4.8C19.5,17.1,20.5,16.3,21.6,15.7z"/>
	<path class="st53" d="M47.7,17.2c2.9-0.2,5.8-0.1,8.7,0.5c6.6,1.3,12.8,4.7,17.4,9.6c6,6.2,9.4,14.8,9.1,23.5
		c-0.1,5.8-1.8,11.6-4.9,16.6c-3.5,5.6-8.6,10.1-14.6,12.8c-7.7,3.5-16.7,3.8-24.7,0.9c-8.5-3-15.5-9.7-19-18
		c-1.8-4.1-2.7-8.6-2.6-13.1C17,40,21.8,30.3,29.5,24.2C34.7,20.1,41.1,17.6,47.7,17.2 M47.7,17.6c-7.4,0.5-14.5,3.6-19.9,8.7
		c-6.4,5.9-10.2,14.4-10.3,23c-0.2,5.6,1.2,11.3,3.9,16.2c3,5.5,7.6,10.1,13.1,13.1c4.9,2.7,10.6,4,16.2,3.9
		c8.3-0.2,16.4-3.7,22.2-9.6c6.1-6.1,9.7-14.7,9.5-23.4c-0.1-8.1-3.4-16.1-9-21.9C67,20.6,57.3,16.9,47.7,17.6z"/>
	<path class="st54" d="M47.7,17.6c9.5-0.7,19.2,3.1,25.8,10c5.6,5.8,8.9,13.8,9,21.9c0.2,8.7-3.3,17.3-9.5,23.4
		c-5.8,5.9-13.9,9.4-22.2,9.6c-5.6,0.2-11.3-1.2-16.2-3.9c-5.5-3-10.1-7.6-13.1-13.1c-2.7-4.9-4.1-10.6-3.9-16.2
		c0.1-8.7,4-17.2,10.3-23C33.2,21.2,40.4,18.1,47.7,17.6 M32.1,25.7c2.5,1,4.6,2.7,7,3.9c0.4-1.5,1.1-2.9,2.3-3.9
		c1.8-1.6,4.4-1.8,6.3-3.3c0.8-0.6,1.3-1.5,1.5-2.4C43.1,19.9,37,22,32.1,25.7 M51.7,19.9c-0.2,0.9,0.4,1.6,0.9,2.1
		c0.3,0.5,0.9,0.6,1.4,0.8c2.1,0.8,4.3,1.6,5.9,3.3c0.8,0.8,1.3,1.9,1.5,3c2-1.2,3.9-2.6,5.9-3.8C62.8,22,57.3,20.2,51.7,19.9
		 M49.6,22.3c-2.1,2.1-5.2,2.5-7.4,4.4c-0.8,0.7-1.4,1.6-1.8,2.7c-0.1,0.4-0.3,0.7-0.2,1.1c0.2,0.4,0.6,0.7,1,0.8
		c-0.1-1.4,0.4-2.8,1.4-3.8c1.9-1.8,4.7-2.3,6.6-4.1c0.5-0.4,0.9-1,1.2-1.5c1.3,2.5,4.3,3.2,6.5,4.6c1.5,0.8,2.5,2.4,2.5,4.2
		c0.4-0.2,0.8-0.4,0.9-0.8c-0.2-1.4-1-2.6-2.1-3.5c-1.8-1.4-4.2-1.9-6.2-3c-1-0.7-1.5-1.9-1.9-3.1C50,21,50.2,21.9,49.6,22.3
		 M50.1,25.5c0.1,0.1,0.3,0.2,0.4,0.2c0-0.2,0.1-0.5,0-0.7C50.2,24.9,50.1,25.3,50.1,25.5 M51.4,26.1c-0.1,0.2,0,0.5,0,0.7
		c0.2-0.1,0.3-0.3,0.4-0.4C51.7,26.3,51.6,26.1,51.4,26.1 M49.2,26.2c0,0.2,0,0.4,0,0.6c0.1,0,0.2,0,0.3-0.1c0-0.2,0-0.3,0-0.5
		C49.4,26.2,49.3,26.2,49.2,26.2 M58.9,32.8c-0.3,0.3-0.8,0.4-1.2,0.5c-0.4-0.4-1.1-0.4-1.6-0.5c-4.8-0.8-9.7-0.5-14.4,0.6
		c-2.8-3.2-6.5-5.3-10.3-6.8c-1.2,1.4-1.5,3.4-1.4,5.2c0.2,1.6,0.4,3.2,1.3,4.6c0.8,1.6,0.7,3.5,0.9,5.2c0.2,1.3,0.5,2.7,1.4,3.7
		c-0.7,0.8-1.4,1.5-2.1,2.2c-0.5,0.2-1.5,0.1-1.5,0.8c0.4,1,1.4,1.6,1.7,2.7c0.1,0.3-0.1,0.6-0.2,0.8c0.8,0.7,1.7,1.4,2.4,2.1
		c0.3,0.4,0.7,0.8,0.3,1.3c0.1,0.1,0.3,0.2,0.4,0.3c0,1.3,0.5,2.5,1.5,3.3c1.6,1.4,3.6,2.1,5,3.7c1.3,0.9,2.7,2.1,3.2,3.7
		c0.2,0.5-0.1,1.1,0.1,1.6c0.1,0.7,0.6,1.4,1.3,1.7c1.2,0.8,2.6,1.1,3.8,2c1.7,0.6,3-1,4.6-1.4c1.5-0.5,2-2.2,2.1-3.7
		c-0.1-1,0.9-1.5,1.4-2.2c0.4-0.4,0.4-1,0.8-1.3c1.4-1.1,2.8-2.3,4.3-3.3c0.7-0.4,1.2-0.9,1.6-1.5c1-1.4,1.2-3.2,2.1-4.7
		c0.5-0.8,1.3-1.4,2.1-1.8c-0.1-0.3-0.2-0.7-0.1-1.1c0.3-1,1.4-1.7,1.7-2.7c-0.9-0.6-1.7-1.1-2.5-1.9c-0.3-0.4-0.9-0.6-0.9-1.1
		c-0.1-1.2,1-2,1.2-3c0.3-1.2,0.1-2.4,0.2-3.6c0.1-0.9,0.7-1.5,0.9-2.3c0.6-1.9,0.7-3.8,1.1-5.7c-0.3-1.5-0.8-3-2-4
		C64.8,27.9,61.5,29.9,58.9,32.8 M21.7,39.4c1.1,0.1,2.2-0.3,3-1.1c1.6-1.5,2.4-3.6,4.3-4.7c-0.1-2-0.3-4.1,0.7-5.9
		C26.1,30.9,23.3,34.9,21.7,39.4 M49.6,31.3c0.4,0,0.9,0.1,1.3-0.1c-0.2-1.1-0.6-2.1-0.5-3.2C50.2,29.1,49.8,30.2,49.6,31.3
		 M71.4,28.7c0.2,1.5,0,3.1-0.5,4.6c2,1,3,3.1,4.6,4.5c0.7,0.5,1.5,1,2.3,0.9C76.6,34.9,74.3,31.6,71.4,28.7 M70.7,34.7
		c-0.1,0.3-0.1,0.5-0.1,0.8c2.1,1.7,4.1,4,6.8,4.8c-2,2.8-1,6.5-2.5,9.4c-0.7,1.4-2.2,2.1-3.7,2.4c-0.7,0.1-1.7,0.1-1.9,0.9
		c1.3,0.1,2.6,0.1,3.8-0.4c1.3-0.5,2.4-1.4,2.9-2.7c1-2.6-0.1-5.6,1-8.2c0.3-0.8,1-1.4,1.6-2c-0.7,0-1.5,0-2.2-0.3
		C74,38.4,72.7,36.1,70.7,34.7 M24.1,39.9c-0.8,0.5-1.8,0.7-2.8,0.5c0.8,0.5,1.6,1.1,2,2c1.3,2.6,0.4,5.7,1.8,8.3
		c1.3,2.4,4.4,3.4,7,2.8c-0.6-0.7-1.6-0.3-2.4-0.6c-1.6-0.4-2.9-1.5-3.7-3c-1-2-1.3-4.3-1.8-6.4c-0.2-1-1.1-1.7-1.5-2.7
		c3-0.7,5.1-3.2,7.1-5.5c-0.2-0.2-0.3-0.4-0.4-0.5C27.3,36.1,26.2,38.6,24.1,39.9 M71.6,40.4c0.1,0,0.2,0,0.3,0c0-0.3,0-0.5-0.1-0.7
		C71.5,39.9,71.6,40.1,71.6,40.4 M28.8,40.1c0,0.1,0,0.2,0,0.4c0.2,0.1,0.3,0.2,0.5,0.2C29.5,40.3,29.2,39.8,28.8,40.1 M70.4,41
		c-0.2,0.1-0.1,0.5,0.1,0.6C70.9,41.6,70.8,40.7,70.4,41 M72.7,40.9c-0.1,0.3,0,0.5,0.2,0.6c0.1-0.2,0.1-0.4,0.1-0.6
		C72.9,40.9,72.8,40.9,72.7,40.9 M30,41.6c0.2,0.1,0.4,0.1,0.6-0.1C30.5,40.9,30,41.2,30,41.6 M77.5,44.5c-0.1,1.3,0.2,2.7,0,4
		c-0.1,1-0.6,2-1.1,2.9c-1.1,1.7-3.1,2.6-5.1,2.9c-1.2,0.1-2.3-0.5-3.5-0.2c-0.7,0.2-1,1-0.9,1.6c1.9,0.8,3.6,1.9,4.8,3.6
		c0.9,1.2,1.3,2.9,1,4.4c-0.3,1.5-1.1,2.9-1.9,4.2c-0.9,1.6-1.9,3.4-1.6,5.3c0.4-0.3,0.7-0.7,1.1-1c4.4-3.9,7.6-9.3,9-15.1
		c1.3-5.3,1.1-11-0.6-16.2C77.9,41.9,77.5,43.2,77.5,44.5 M27.9,41.2c0,0.2,0,0.5,0,0.7C28.3,41.8,28.3,41.3,27.9,41.2 M21,41.6
		c-0.3,1-0.7,2-0.8,3c-1,5.9-0.4,12.1,2.1,17.6c1.9,4.3,4.8,8,8.4,11c0.3,0.2,0.6,0.5,0.9,0.7c0.1-0.5,0.4-0.9,0.3-1.4
		c-0.8-3.1-3.2-5.5-3.9-8.7c-0.3-1.5-0.1-3.2,0.7-4.5c1.1-1.8,3-3.1,4.9-3.8c-0.1-0.3-0.2-0.6-0.4-0.9c-1.7,0.1-3.4,0.6-5-0.1
		c-2.2-0.7-4.2-2.4-4.7-4.7c-0.4-2,0.1-4-0.4-6C22.8,42.8,22,42,21,41.6 M70.5,46.9c0.2,0,0.5-0.1,0.7-0.1c0.2,0.2,0.3,0.5,0.4,0.8
		c0.3-0.4,0.5-0.9,1-0.9c-0.3-1.3-0.8-2.6-0.8-3.9C71.3,44.2,70.9,45.5,70.5,46.9 M28.1,47c0.6-0.2,1,0.4,1.1,0.9
		c0.2-0.4,0.4-0.9,1-0.9c-0.5-1.3-1-2.6-1-3.9C29,44.4,28.5,45.7,28.1,47 M29.1,63.2c0.4,3.1,2.9,5.2,3.7,8.2
		c0.3,1.1,0.2,2.2-0.2,3.2c0.8-0.8,1.9-1.4,3-1.5c2.5-0.2,4.8,1,7.3,1c1.7,0.1,3.5-0.9,4.2-2.4c-0.3-0.2-0.6-0.3-0.9-0.3
		c-0.7,0.8-1.8,1-2.8,1.2c-2.7,0.4-5.5,0.1-8.2,0.2c-0.6,0-1.2,0.7-1.8,0.4c0.1-1.3-0.2-2.5-0.7-3.7c-0.9-1.9-2.2-3.6-2.5-5.7
		c-0.1-0.9-0.1-1.9,0.3-2.7c0.7-1.5,2.2-2.5,3.6-3.2c0-0.4-0.1-0.7-0.2-1.1C31.1,57.4,28.8,60.2,29.1,63.2 M66.1,57.9
		c1.1,0.4,2.1,1,3,1.7c1.1,1.1,1.7,2.8,1.4,4.3c-0.4,2.5-2,4.5-3,6.8c-0.2,0.6,0,1.3-0.2,1.9c-2.5-0.5-4.9,0.6-7.4,0.8
		c-1.7,0.2-3.5-0.4-4.6-1.8c-0.3-0.3-0.6-0.6-1-0.6c-0.3,0.2-0.7,0.4-0.6,0.8c0.8,1.2,2.2,2.1,3.6,2.3c2.1,0.2,4.1-0.6,6.1-0.9
		c1.6-0.3,3.3-0.3,4.7,0.4c-0.5-1.5-0.2-3.2,0.6-4.6c0.8-1.6,2-3,2.5-4.7c0.4-1.2,0.5-2.6-0.1-3.8c-0.9-1.9-2.8-3.1-4.8-3.9
		C66.2,57,65.7,57.5,66.1,57.9 M62.6,62.6c0.1,0,0.2,0,0.3,0c0-0.2,0-0.5,0-0.7C62.5,61.9,62.4,62.3,62.6,62.6 M38.5,62.8
		c0-0.2,0-0.5,0-0.7C37.9,62,38,62.8,38.5,62.8 M63.8,63.6c0.1,0,0.2,0,0.4-0.1c-0.1-0.2,0.1-0.6-0.3-0.5
		C63.6,63.1,63.8,63.5,63.8,63.6 M39.4,63.7c0.1,0,0.2,0,0.3,0c0-0.2,0-0.4-0.2-0.6C39.3,63.2,39.4,63.5,39.4,63.7 M37,63.5
		c0,0.1,0,0.2,0,0.2c0.1,0.1,0.1,0.1,0.2,0.2c0.1,0,0.2,0,0.3,0c0-0.2,0-0.4,0-0.6C37.3,63.3,37.1,63.4,37,63.5 M61.4,63.3
		c0,0.2,0,0.4,0,0.7c0.2,0,0.3,0,0.5,0c0-0.2,0-0.4,0-0.7C61.7,63.3,61.5,63.3,61.4,63.3 M62.9,65c-0.4,1.4-0.7,2.7-1.1,4.1
		c0.6-0.3,0.9,0.3,1,0.8c0.2-0.3,0.4-0.5,0.5-0.8c0.1,0,0.3,0,0.4-0.1C63.4,67.7,63,66.4,62.9,65 M37.3,69c0.5,0,0.9,0.2,1.1,0.7
		c0.2-0.4,0.5-0.8,1-0.7c-0.4-1.3-0.7-2.6-0.8-3.9C38.1,66.4,37.9,67.8,37.3,69 M50.6,72.7c0,0.1,0,0.1,0,0.2c0.5,0,0.9,0.6,0.8,1.1
		c-0.1,1.2-0.2,2.5-0.8,3.7c-0.4-1.1-0.8-2.1-0.9-3.3c0-0.6,0.3-1.2,0.7-1.6c-0.7,0.1-1.4,0-2.1-0.3c-0.9,1.5-2.6,2.4-4.3,2.5
		c-2.2,0.2-4.4-0.3-6.5-0.7c-1.4-0.4-3.1,0-4,1.1c1.2,0.8,2.5,1.5,3.7,2.2c6.2,3,13.5,3.3,20.2,1.7c3.5-0.9,6.9-2.3,9.8-4.4
		c-0.5-0.2-1.1-0.4-1.7-0.4c-2.4-0.2-4.5,1.2-6.9,1c-2.4,0.1-4.9-1.1-6.2-3.2C51.9,72.4,51.2,72.7,50.6,72.7z"/>
	<path class="st53" d="M75.8,19.9c1.2-1.1,2.8-1.9,4.5-1.7c1.5,0.2,2.7,1.1,3.5,2.3c0.4,0.6,0.7,1.4,1.3,1.8
		c-0.8,0.4-1.6,0.9-2.4,1.3c0-1.4-0.9-3-2.3-3.3c-1.5-0.3-2.9,0.7-3.8,1.8c-0.7,0.8-1.2,2-0.7,3c0.6,1.3,2.1,1.9,3.4,2.2
		c-0.6,0.7-1.4,1.3-2,2c-0.3-0.7-1-1-1.5-1.5c-1.2-0.9-2.2-2.1-2.2-3.6C73.6,22.5,74.6,21,75.8,19.9z"/>
	<path class="st53" d="M32.1,25.7c4.8-3.7,10.9-5.8,17-5.8c-0.2,1-0.7,1.8-1.5,2.4c-1.9,1.5-4.5,1.8-6.3,3.3c-1.2,1-1.9,2.4-2.3,3.9
		C36.7,28.4,34.6,26.7,32.1,25.7z"/>
	<path class="st53" d="M51.7,19.9c5.6,0.2,11.1,2.1,15.6,5.4c-2,1.3-3.9,2.6-5.9,3.8c-0.2-1.1-0.7-2.2-1.5-3
		c-1.6-1.6-3.8-2.4-5.9-3.3c-0.5-0.2-1.1-0.3-1.4-0.8C52.1,21.5,51.5,20.8,51.7,19.9z"/>
	<path class="st53" d="M49.6,22.3c0.6-0.5,0.4-1.4,0.8-2c0.3,1.2,0.8,2.3,1.9,3.1c2,1.1,4.3,1.5,6.2,3c1.1,0.8,1.9,2.1,2.1,3.5
		c-0.1,0.4-0.6,0.6-0.9,0.8c0-1.7-1.1-3.3-2.5-4.2c-2.2-1.4-5.2-2-6.5-4.6c-0.3,0.6-0.7,1.1-1.2,1.5c-2,1.8-4.7,2.3-6.6,4.1
		c-1,1-1.5,2.4-1.4,3.8c-0.4-0.2-0.8-0.4-1-0.8c-0.2-0.4,0.1-0.7,0.2-1.1c0.3-1,0.9-2,1.8-2.7C44.4,24.9,47.5,24.4,49.6,22.3z"/>
	<path class="st53" d="M13.4,24.7c0.7-0.8,1.3-1.7,1.9-2.6c0,0.7,0.5,1.2,1.1,1.6c1.9,1.4,3.9,2.9,5.8,4.3c0.5,0.4,1,0.5,1.6,0.5
		c-0.7,0.8-1.2,1.7-1.9,2.5c-0.1-0.6-0.5-1.1-1-1.5c-1.9-1.4-3.8-2.9-5.8-4.3C14.6,24.9,14,24.6,13.4,24.7z"/>
	<path class="st53" d="M84.6,26c0.7-0.5,1.6-1,1.8-1.9c0.6,0.9,1.2,1.7,1.7,2.6c-0.7-0.2-1.3,0.2-1.9,0.5c-1.9,1.3-3.8,2.5-5.7,3.8
		c-0.6,0.4-1.1,0.8-1.2,1.5c-0.6-0.9-1.2-1.8-1.8-2.7c0.6,0.2,1.2-0.1,1.7-0.4C81.1,28.3,82.8,27.2,84.6,26z"/>
	<path class="st53" d="M50.1,25.5c0-0.2,0.1-0.6,0.4-0.5c0.1,0.2,0.1,0.5,0,0.7C50.4,25.7,50.2,25.6,50.1,25.5z"/>
	<path class="st53" d="M51.4,26.1c0.2,0,0.3,0.2,0.4,0.3c-0.1,0.2-0.2,0.3-0.4,0.4C51.4,26.6,51.4,26.4,51.4,26.1z"/>
	<path class="st53" d="M49.2,26.2c0.1,0,0.2,0,0.3,0c0,0.2,0,0.4,0,0.5c-0.1,0-0.2,0-0.3,0.1C49.2,26.6,49.2,26.4,49.2,26.2z"/>
	<path class="st53" d="M58.9,32.8c2.5-2.9,5.9-4.9,9.3-6.6c1.2,1,1.7,2.5,2,4c-0.4,1.9-0.5,3.9-1.1,5.7c-0.2,0.8-0.8,1.5-0.9,2.3
		c-0.2,1.2,0,2.4-0.2,3.6c-0.3,1.1-1.3,1.9-1.2,3c0,0.6,0.6,0.8,0.9,1.1c0.7,0.8,1.6,1.3,2.5,1.9c-0.3,1.1-1.3,1.7-1.7,2.7
		c-0.1,0.4,0,0.7,0.1,1.1c-0.9,0.4-1.6,1-2.1,1.8c-0.9,1.5-1.2,3.3-2.1,4.7c-0.4,0.6-1,1.1-1.6,1.5c-1.5,1-2.8,2.2-4.3,3.3
		c-0.5,0.3-0.5,0.9-0.8,1.3c-0.5,0.7-1.5,1.2-1.4,2.2c-0.1,1.4-0.6,3.1-2.1,3.7c-1.5,0.5-2.9,2-4.6,1.4c-1.1-0.9-2.5-1.2-3.8-2
		c-0.6-0.4-1.2-1-1.3-1.7c-0.1-0.5,0.2-1.1-0.1-1.6c-0.5-1.6-1.8-2.8-3.2-3.7c-1.4-1.6-3.5-2.3-5-3.7c-1-0.8-1.5-2-1.5-3.3
		c-0.1-0.1-0.3-0.2-0.4-0.3c0.4-0.4-0.1-0.9-0.3-1.3c-0.8-0.8-1.6-1.4-2.4-2.1c0.1-0.3,0.3-0.5,0.2-0.8c-0.2-1.1-1.3-1.7-1.7-2.7
		c0-0.7,1-0.6,1.5-0.8c0.7-0.7,1.4-1.5,2.1-2.2c-0.9-1-1.3-2.4-1.4-3.7c-0.2-1.7-0.1-3.6-0.9-5.2c-0.9-1.4-1.1-3-1.3-4.6
		c-0.1-1.8,0.1-3.8,1.4-5.2c3.8,1.6,7.6,3.7,10.3,6.8c4.7-1.2,9.6-1.4,14.4-0.6c0.6,0.1,1.2,0.1,1.6,0.5
		C58.2,33.3,58.6,33.2,58.9,32.8 M62.7,31.3c-0.4,0.3-0.8,0.5-1.1,0.9c-1.1,1.4-2.4,2.7-3.8,3.7c-0.5,0.4-1,0.8-1.6,0.9
		c0.2-0.7,0.8-1.2,0.8-1.9c-0.2-0.4-0.7-0.5-1.1-0.6c-4.2-1.4-8.8-0.7-13,0.6c0.1,0.7,0.8,1.3,0.6,2c-1.3-0.9-2.5-2-3.8-3
		c-0.3-0.2-0.6-0.5-0.9-0.8c-1.8-1.7-4.1-2.9-6.1-4.4c-0.4-0.2-0.8,0-1.2-0.1c-0.1,0.8-0.7,1.4-0.6,2.2c0.1,0.4,0.3,0.7,0.5,1.1
		c0.9,2.3,0.8,4.9,1.8,7.2c0.2,0.4,0.2,1,0.2,1.4c0.2,1.3,0.8,2.4,1.2,3.7c0.3,0.5,0.6,1.1,0.3,1.7c-0.5,1.1-1.7,1.6-2.4,2.5
		c-0.5,1.2,0.7,2,1.1,3c0.2,0.5-0.2,1.2,0.5,1.4c1.3,0.5,1.7,2.3,3.1,2.7c1.2,0.2,2.6,0.5,3.3,1.6c-0.3,0.2-0.7,0.3-1,0.2
		c-0.8-0.5-1.8-0.5-2.7-1c-0.2,0.6-0.1,1.3,0.3,1.8c0.9,1,2.3,1.2,3.3,2c0.4,0.2,0.4,0.7,0.6,1c1,1.6,3.3,2,3.9,3.9
		c0.6-0.5,0.5-1.4,0.6-2.1c0.2,0.1,0.5,0.2,0.7,0.3c0.3-0.2,0.4-0.6,0.5-0.9c1.2-2.6,0.7-5.6,1.7-8.2c-0.2-0.4-0.9-0.9-0.3-1.4
		c0.6,0,0.8,0.7,1.3,0.9c0.1,0.8-0.5,1.5-0.4,2.3c0.1,2.3-0.6,4.4-1.2,6.6c-0.1,0.6-0.4,1.2,0,1.6c-0.2,0.6-0.8,0.8-1.2,0.4
		c-0.2,1.1-0.8,2-0.9,3.1c0.2,0.9,0.9,1.6,1.8,1.8c1.2,0.3,2.5,0.2,3.7,0.3c0.9,0.1,1.7-0.2,2.5-0.5c0.5-0.2,0.7-0.7,0.8-1.1
		c0.5-1.2,0.1-2.6-0.4-3.8c-0.3,0.2-0.5,0.4-0.9,0.6c-0.1-2.4-1.2-4.7-1.5-7c-0.1-0.7,0-1.5-0.1-2.2c-0.2-0.8-0.6-1.8,0.1-2.6
		c0.3-0.4,0.6-1.3,1.2-1.1c-0.3-0.5,0.1-0.9,0.3-1.3c0.6-1.1,1.9-1.7,3.2-1.8c2.4-0.2,4.8,0.5,7.1,0.1c-0.9,0.9-2.2,1-3.3,0.9
		c-1.5-0.1-3.2-0.6-4.5,0.2c-1.6,1-2.6,2.7-3.6,4.3c1,2.6,1,5.4,1.8,8.1c0.3,0.1,0.7,0.2,0.9,0.5c0.4,0.7,0.2,1.5,0.5,2.2
		c0.1,0.1,0.2,0.3,0.3,0.2c0.7-0.7,1.1-1.8,2-2.3c1.3-1,1.8-2.8,3.2-3.7c0.9-0.4,1.8-0.9,2.6-1.6c0.5-0.5,0.6-1.3,0.3-1.9
		c-0.4,0.2-0.8,0.4-1.2,0.6c-0.3,0.1-0.7,0-0.9,0.2c-0.3,0.3-0.4,0.7-0.7,1c-0.2,0.1-0.2-0.3-0.3-0.4c-0.2,0-0.4,0-0.5-0.1
		c0.6-0.7,1.1-1.5,1.9-1.9c1.8-0.7,3.3-1.9,4.7-3.2c-0.6-1.5,0.9-2.6,1.3-3.9c-0.6-0.6-1.3-1.2-1.9-1.8c-0.4-0.9-0.7-1.9-0.6-2.9
		c0-0.4,0.4-0.7,0.6-1.1c1-1.8,0.4-4.1,1.5-5.9c0.2-0.2,0.1-0.5,0.1-0.7c0.1-1.9,1.2-3.5,1.2-5.4c0.1-0.7-0.4-1.4-0.6-2.1
		C66.1,28.7,64.4,30.1,62.7,31.3 M49.4,70.4c0,0.1,0,0.2,0,0.3c0.3,0.1,0.7,0.2,1,0.2c0.1-0.1,0.2-0.3,0.3-0.4
		C50.2,70.5,49.8,70.3,49.4,70.4z"/>
	<path class="st53" d="M8.3,34.2c1.2-2.5,2.4-4.9,3.6-7.4c0.7,0.6,1.8,0.5,2.6,0.8c-0.8,0.4-1.5,1.1-1.9,1.9c-0.5,1-1,2.1-1.5,3.1
		c0.7,0.4,1.5,0.7,2.2,1.1c0.5-1,1-2.1,1.5-3.1c0.2-0.3,0.2-0.7,0.2-1.1c0.5,0.7,1.5,1.2,1.2,2.2c-0.4,1-0.9,1.9-1.3,2.8
		c0.8,0.4,1.6,0.8,2.4,1.1c0.5-1.1,1.1-2.1,1.6-3.2c0.4-1,0.5-2.1,0.1-3.1c0.6,0.5,1.1,1.1,1.7,1.6c0.2,0.2,0.5,0.3,0.8,0.3
		c-1.1,2.5-2.4,5-3.6,7.5c-0.2-0.5-0.7-1-1.2-1.2c-2.1-1.1-4.3-2.1-6.4-3.1C9.6,34.2,8.9,34,8.3,34.2z"/>
	<path class="st53" d="M86.2,28.2c0.8-0.3,1.9-0.2,2.6-0.8c1.1,2.3,2.2,4.7,3.3,7c-0.9,0.2-1.5,1.1-2.3,1.5c0.3-1.2-0.1-2.3-0.6-3.3
		c-2,0.9-4,1.9-6.1,2.8c-0.7,0.3-1.4,0.7-1.6,1.5c-0.5-0.9-0.9-1.9-1.4-2.9c0.4,0.2,0.9,0.2,1.4,0c2.3-1.1,4.5-2.1,6.8-3.2
		C87.9,29.8,87.2,28.8,86.2,28.2z"/>
	<path class="st53" d="M21.7,39.4c1.6-4.5,4.4-8.5,8-11.7c-1,1.8-0.9,3.9-0.7,5.9c-1.9,1.1-2.8,3.3-4.3,4.7
		C23.9,39.1,22.8,39.6,21.7,39.4z"/>
	<path class="st53" d="M49.6,31.3c0.3-1.1,0.6-2.2,0.9-3.3c-0.1,1.1,0.2,2.1,0.5,3.2C50.5,31.3,50,31.2,49.6,31.3z"/>
	<path class="st55" d="M62.7,31.3c1.8-1.2,3.5-2.7,5.7-3.1c0.2,0.7,0.6,1.4,0.6,2.1c0,1.9-1.2,3.5-1.2,5.4c0,0.3,0,0.5-0.1,0.7
		c-1.1,1.8-0.5,4-1.5,5.9c-0.2,0.4-0.6,0.7-0.6,1.1c-0.1,1,0.2,2,0.6,2.9c0.6,0.6,1.3,1.2,1.9,1.8c-0.4,1.3-1.9,2.4-1.3,3.9
		c-1.4,1.3-3,2.5-4.7,3.2c-0.9,0.4-1.4,1.2-1.9,1.9c0.2,0.1,0.4,0.1,0.5,0.1c0.1,0.1,0.1,0.5,0.3,0.4c0.3-0.3,0.4-0.7,0.7-1
		c0.3-0.2,0.6-0.1,0.9-0.2c0.4-0.2,0.8-0.4,1.2-0.6c0.3,0.6,0.2,1.4-0.3,1.9c-0.8,0.7-1.7,1.2-2.6,1.6c-1.4,0.9-1.9,2.7-3.2,3.7
		c-0.9,0.5-1.3,1.6-2,2.3c-0.1,0.1-0.2-0.1-0.3-0.2c-0.4-0.7-0.1-1.5-0.5-2.2c-0.2-0.3-0.6-0.4-0.9-0.5c-0.8-2.6-0.8-5.5-1.8-8.1
		c1-1.6,2-3.3,3.6-4.3c1.4-0.8,3-0.4,4.5-0.2c1.2,0.2,2.5,0,3.3-0.9c-2.4,0.5-4.8-0.3-7.1-0.1c-1.2,0.1-2.5,0.7-3.2,1.8
		c-0.2,0.4-0.6,0.8-0.3,1.3c-0.7-0.2-0.9,0.7-1.2,1.1c-0.6,0.8-0.3,1.7-0.1,2.6c0,0.7-0.1,1.5,0.1,2.2c0.3,2.4,1.5,4.6,1.5,7
		c0.3-0.1,0.6-0.4,0.9-0.6c0.6,1.2,0.9,2.5,0.4,3.8c-0.2,0.4-0.4,0.9-0.8,1.1c-0.8,0.3-1.6,0.6-2.5,0.5c-1.2-0.1-2.5,0.1-3.7-0.3
		c-0.9-0.2-1.6-0.9-1.8-1.8c0.1-1.1,0.7-2.1,0.9-3.1c0.5,0.4,1.1,0.2,1.2-0.4c-0.4-0.5-0.1-1.1,0-1.6c0.6-2.2,1.3-4.3,1.2-6.6
		c-0.1-0.8,0.4-1.5,0.4-2.3c-0.5-0.2-0.7-0.9-1.3-0.9c-0.6,0.5,0.1,1,0.3,1.4c-1,2.7-0.4,5.7-1.7,8.2c-0.1,0.3-0.2,0.7-0.5,0.9
		c-0.2-0.1-0.5-0.2-0.7-0.3c-0.1,0.7,0.1,1.6-0.6,2.1c-0.6-1.9-2.8-2.4-3.9-3.9c-0.2-0.3-0.3-0.8-0.6-1c-1.1-0.7-2.4-1-3.3-2
		c-0.5-0.5-0.5-1.2-0.3-1.8c0.8,0.5,1.8,0.5,2.7,1c0.3,0.2,0.7,0.1,1-0.2c-0.6-1.1-2.1-1.5-3.3-1.6c-1.4-0.5-1.7-2.2-3.1-2.7
		c-0.7-0.2-0.3-1-0.5-1.4c-0.4-1-1.6-1.8-1.1-3c0.7-0.9,1.9-1.4,2.4-2.5c0.3-0.6,0-1.2-0.3-1.7c-0.4-1.2-1-2.4-1.2-3.7
		c-0.1-0.5,0-1-0.2-1.4c-1-2.3-0.9-4.9-1.8-7.2c-0.1-0.4-0.4-0.7-0.5-1.1c-0.1-0.8,0.6-1.4,0.6-2.2c0.4,0,0.8-0.1,1.2,0.1
		c2,1.5,4.3,2.7,6.1,4.4c0.3,0.3,0.6,0.6,0.9,0.8c1.3,0.9,2.4,2,3.8,3c0.2-0.8-0.5-1.3-0.6-2c4.2-1.3,8.7-2,13-0.6
		c0.4,0.2,0.9,0.2,1.1,0.6c-0.1,0.7-0.6,1.2-0.8,1.9c0.6-0.2,1.1-0.6,1.6-0.9c1.4-1.1,2.7-2.4,3.8-3.7
		C61.8,31.8,62.3,31.6,62.7,31.3 M60.9,33.4c-0.6,1.1-0.2,2.4-0.5,3.5c-0.1,0.6-0.6,1.1-1.1,1.4c1.6,1.5,3,3.2,4.9,4.3
		c0.1,0.1,0.2,0.1,0.3,0c0.8-0.6,1.2-1.6,1.3-2.5c0.1-0.7,0-1.4,0.4-2c1.1-2.6,0.6-5.5,1.6-8.1c0-0.5,0.1-1.3-0.5-1.4
		C65.2,30.4,62.5,31.2,60.9,33.4 M31.7,29.1c0.3,2.7,0.6,5.3,1.2,8c0.2,0.7,0.4,1.5,0.7,2.2c0.5,1,0.1,2.2,0.7,3.2
		c0.2,0.4,0.6,0.6,0.9,0.8c1.7-1.2,3.2-2.7,4.6-4.3c0.5-1-1.3-1.4-0.8-2.4c0.5-1.5-0.8-2.6-1.6-3.7c-0.3-0.5-0.9-0.6-1.3-0.9
		C34.6,31,33.5,29.3,31.7,29.1 M50.1,37.3c0.1,0.6-0.1,1.4,0.6,1.6c0-0.3-0.1-0.5,0-0.8c0.3-1.2,2-1.3,1.9-2.6
		C51.7,36,50.9,36.6,50.1,37.3 M47,35.7c0.2,0.4,0.3,0.8,0.5,1.1c0.3,0.3,0.7,0.4,1,0.6c0.1,0.3-0.1,0.6,0.2,0.8
		c0.2,0.2,0.5,0.3,0.7,0.5c0.1-0.5,0.2-0.9,0.1-1.3C48.8,36.7,47.8,36.3,47,35.7 M55,42.8c-0.1,0.2-0.2,0.3-0.3,0.5
		c1-0.2,1.8,0.8,2.9,0.6C56.7,43.4,55.9,43.1,55,42.8 M42.2,44c0.3,0.1,0.5,0.2,0.8,0.2c0.5-0.2,0.9-0.8,1.5-0.6
		c0.4,0.1,0.5-0.3,0.6-0.6c-0.4,0-0.8,0-1.2,0C43.6,43.6,42.7,43.5,42.2,44 M42.4,48.8c-1.7,0.4-3.4,0.5-5.1,0.3
		c0.6,0.7,1.5,1,2.3,0.9c1.3-0.2,2.7-0.8,4-0.5c1.7,0.4,2.4,2.2,3.9,3c0.1-0.3,0.2-0.5,0.2-0.8C46.8,49.9,44.6,48.6,42.4,48.8
		 M55.3,50.3C55,50.6,55,51,54.9,51.4c0.3,0.6,1,0.9,1.6,0.8c0.6-0.3,0.7-1.1,0.5-1.6C56.7,50,55.8,50,55.3,50.3 M43.1,50.3
		c-1.1,0.3-0.7,2.3,0.5,2.1c0.7,0,1.1-0.7,1.2-1.4C44.6,50.4,43.7,50.1,43.1,50.3 M59.4,50.4c-0.8,0.8-1.4,1.8-2.5,2.2
		c-0.5,0.2-1,0.1-1.5-0.1c-0.4,0.1-0.8,0.4-0.8,0.9c1.5,0,3.1-0.2,4.3-1.2c0.5-0.5,1.1-1,1-1.8C59.8,50.4,59.6,50.4,59.4,50.4
		 M39.5,51.1c1,0.8,1.9,1.8,3.2,2.2c0.6,0.1,1.1,0.3,1.7,0.3c0.4,0,0.6-0.3,0.7-0.7c-2,0.1-3.8-1.1-5.2-2.3
		C39.8,50.8,39.7,50.9,39.5,51.1 M54.5,53.8c-0.3,1.3-0.7,2.6-1.1,3.9c-0.4,2.1,1.1,4,1.5,6c0.5-0.4,0.6-1.2,0.4-1.8
		c-0.6-0.7-0.9-1.5-1-2.4c-0.2-1.9,0.5-3.8,0.6-5.7C54.8,53.8,54.7,53.8,54.5,53.8 M44.8,55c1.1,2,0.9,4.5-0.2,6.5
		c-0.3,0.5-0.6,1.3-0.1,1.7c0.4-0.8,1-1.3,1.4-2c0.2-0.4,0.1-0.8,0.3-1.2c0.5-0.8,0.4-1.8,0.1-2.7c-0.4-1.1-1-2.1-1.2-3.3
		C44.6,54,44.5,54.6,44.8,55 M57.7,58c0.1,0.3,0.3,0.6,0.7,0.5c0.5-0.2,1-0.7,1.6-0.7c-0.2-0.3-0.4-0.7-0.8-0.6
		C58.7,57.4,58.3,57.8,57.7,58 M40.3,57.8c0.4,0.5,0.9,0.8,1.4,1.2C42.4,58.2,41,57.6,40.3,57.8 M47.9,64.8
		c-0.6,0.6-0.6,1.5-0.4,2.2c0.7,0.8,1.4,1.9,2.6,1.8c1.5-0.2,2.3-1.8,2.4-3.2C51.2,64.6,49.4,64.6,47.9,64.8z"/>
	<path class="st53" d="M60.9,33.4c1.6-2.2,4.3-3,6.2-4.7c0.6,0.1,0.5,0.9,0.5,1.4c-1,2.6-0.4,5.5-1.6,8.1c-0.4,0.6-0.3,1.4-0.4,2
		c-0.1,1-0.5,2-1.3,2.5c-0.1,0.1-0.2,0-0.3,0c-1.9-1.1-3.3-2.8-4.9-4.3c0.5-0.3,1-0.8,1.1-1.4C60.7,35.8,60.3,34.5,60.9,33.4
		 M62.7,33.1c-0.6,0.6-1,1.3-1,2.1c0.1,0.4,0.3,0.7,0.3,1.1c-0.1,0.7-0.7,1.3-0.9,2c1.1,0.9,1.8,2.5,3.3,2.8c1-1.5,0.6-3.6,1.6-5.1
		c-0.2-2,0.7-3.9,0.8-5.9C65.5,31.4,63.9,32,62.7,33.1z"/>
	<path class="st53" d="M71.4,28.7c2.9,2.8,5.2,6.2,6.5,10c-0.9,0-1.7-0.4-2.3-0.9c-1.7-1.4-2.7-3.5-4.6-4.5
		C71.4,31.8,71.6,30.3,71.4,28.7z"/>
	<path class="st53" d="M31.7,29.1c1.8,0.2,2.9,1.9,4.4,2.8c0.4,0.3,1.1,0.4,1.3,0.9c0.8,1.1,2.1,2.2,1.6,3.7c-0.4,1,1.3,1.5,0.8,2.4
		c-1.3,1.6-2.9,3.1-4.6,4.3c-0.4-0.2-0.7-0.4-0.9-0.8c-0.5-1-0.2-2.2-0.7-3.2c-0.4-0.7-0.6-1.4-0.7-2.2C32.3,34.5,32,31.8,31.7,29.1
		 M32.8,30.8c1.5,2.3,0.1,5.3,1.7,7.6c0.7,0.6,0.4,1.6,0.6,2.4c0.1,0.5,0.4,1,1,1c1.2-0.7,1.6-2.1,2.8-2.7c0-0.6-0.3-1-0.7-1.4
		c0.1-1.4-0.3-2.8-1.3-3.8c-0.5-0.5-1.1-0.7-1.6-1.1C34.5,32.2,33.9,31.2,32.8,30.8z"/>
	<path class="st55" d="M62.7,33.1c1.2-1.2,2.9-1.7,4-3c0,2-1,3.9-0.8,5.9c-1,1.5-0.6,3.6-1.6,5.1c-1.6-0.2-2.2-1.9-3.3-2.8
		c0.2-0.7,0.8-1.3,0.9-2c0.1-0.4-0.2-0.7-0.3-1.1C61.7,34.5,62.1,33.7,62.7,33.1z"/>
	<path class="st55" d="M32.8,30.8c1.1,0.4,1.7,1.3,2.5,2c0.5,0.5,1.1,0.6,1.6,1.1c1,1,1.4,2.4,1.3,3.8c0.4,0.4,0.7,0.9,0.7,1.4
		c-1.2,0.6-1.7,2-2.8,2.7c-0.5,0-0.9-0.5-1-1c-0.2-0.8,0.2-1.8-0.6-2.4C32.9,36.2,34.3,33.1,32.8,30.8z"/>
	<path class="st53" d="M70.7,34.7c2,1.4,3.3,3.7,5.6,4.7c0.7,0.3,1.4,0.3,2.2,0.3c-0.6,0.6-1.3,1.2-1.6,2c-1.1,2.6,0,5.6-1,8.2
		c-0.5,1.3-1.6,2.2-2.9,2.7c-1.2,0.4-2.5,0.4-3.8,0.4c0.3-0.8,1.3-0.7,1.9-0.9c1.5-0.3,3-1.1,3.7-2.4c1.5-2.9,0.5-6.7,2.5-9.4
		c-2.7-0.8-4.7-3-6.8-4.8C70.5,35.2,70.6,35,70.7,34.7z"/>
	<path class="st53" d="M24.1,39.9c2.1-1.3,3.2-3.8,5.3-5.1c0.2,0.2,0.3,0.4,0.4,0.5c-2,2.2-4,4.8-7.1,5.5c0.3,1,1.3,1.7,1.5,2.7
		C24.8,45.7,25,48,26,50c0.7,1.5,2.1,2.6,3.7,3c0.8,0.3,1.7-0.1,2.4,0.6c-2.6,0.7-5.7-0.4-7-2.8c-1.4-2.6-0.5-5.7-1.8-8.3
		c-0.4-0.9-1.2-1.5-2-2C22.2,40.6,23.3,40.4,24.1,39.9z"/>
	<path class="st53" d="M50.1,37.3c0.8-0.7,1.6-1.3,2.5-1.8c0.1,1.3-1.7,1.5-1.9,2.6c0,0.3,0,0.5,0,0.8
		C50.1,38.6,50.2,37.8,50.1,37.3z"/>
	<path class="st53" d="M90.7,37.4c0.7-0.6,1.4-1.1,1.8-1.9c0.2,1.1,0.5,2.2,0.7,3.3c-0.5-0.2-1-0.1-1.4,0.3c-1,0.9-2.1,1.6-3.1,2.5
		c1.3,0.4,2.6,0.7,3.9,1.1c0.5,0.1,1,0,1.3-0.4c0.2,1,0.5,2,0.6,3.1c-2.3-0.9-4.8-1.5-7.2-2.3c-0.7-0.3-1.4,0-2,0.1
		c-0.7,0.1-1.4,0.4-1.8,1c-0.2-1-0.4-2.1-0.7-3.1c0.7,0.6,1.7,0.3,2.6,0.1c0.4-0.1,0.8-0.1,1.1-0.4C88,39.7,89.4,38.5,90.7,37.4z"/>
	<path class="st53" d="M47,35.7c0.9,0.5,1.9,1,2.5,1.8c0.1,0.4-0.1,0.9-0.1,1.3c-0.3-0.2-0.5-0.3-0.7-0.5c-0.3-0.2-0.1-0.6-0.2-0.8
		c-0.3-0.3-0.7-0.3-1-0.6C47.2,36.5,47.1,36.1,47,35.7z"/>
	<path class="st53" d="M14.9,37.9c0.7,0.4,1.4,0.8,2.1,1.2c0.2,0.1,0.5,0.1,0.7,0.1c-0.5,2.4-1,4.7-1.6,7.1
		c-0.3-0.5-0.9-0.8-1.4-0.9c-2.4-0.6-4.9-1.1-7.3-1.6c-0.5-0.1-1.1-0.1-1.6,0.3c0.2-1,0.4-2.1,0.7-3.1c0.4,0.5,1,0.9,1.6,1
		c2.3,0.5,4.6,1,6.9,1.5c0.2-1.2,0.7-2.4,0.6-3.6C15.5,39.1,15.2,38.5,14.9,37.9z"/>
	<path class="st53" d="M71.6,40.4c0-0.3-0.1-0.5,0.1-0.8c0.1,0.2,0.1,0.5,0.1,0.7C71.8,40.4,71.6,40.4,71.6,40.4z"/>
	<path class="st53" d="M28.8,40.1c0.4-0.3,0.7,0.2,0.5,0.5c-0.2,0-0.3-0.1-0.5-0.2C28.8,40.3,28.8,40.2,28.8,40.1z"/>
	<path class="st53" d="M70.4,41c0.4-0.3,0.5,0.7,0.1,0.6C70.3,41.5,70.2,41.1,70.4,41z"/>
	<path class="st53" d="M72.7,40.9c0.1,0,0.3,0,0.4,0c0,0.2,0,0.4-0.1,0.6C72.7,41.4,72.6,41.2,72.7,40.9z"/>
	<path class="st53" d="M30,41.6c0-0.4,0.5-0.7,0.6-0.1C30.4,41.7,30.2,41.7,30,41.6z"/>
	<path class="st53" d="M77.5,44.5c0-1.3,0.3-2.6,1.2-3.5c1.7,5.2,1.8,10.9,0.6,16.2c-1.4,5.8-4.5,11.1-9,15.1
		c-0.4,0.3-0.7,0.7-1.1,1c-0.3-1.9,0.6-3.7,1.6-5.3c0.8-1.3,1.6-2.7,1.9-4.2c0.3-1.5-0.1-3.1-1-4.4c-1.2-1.6-2.9-2.8-4.8-3.6
		c-0.1-0.7,0.2-1.5,0.9-1.6c1.2-0.2,2.3,0.3,3.5,0.2c2-0.3,4-1.2,5.1-2.9c0.5-0.9,1-1.8,1.1-2.9C77.7,47.2,77.5,45.8,77.5,44.5
		 M70.8,55.7c-0.3,0.2-0.4,0.7,0,0.8c1.5,1.2,3.5,1.4,5.3,1.4c-1-1.3-2.5-2-4-2.4C71.7,55.4,71.2,55.4,70.8,55.7z"/>
	<path class="st53" d="M27.9,41.2c0.4,0.1,0.4,0.6,0,0.7C27.9,41.7,27.9,41.5,27.9,41.2z"/>
	<path class="st53" d="M21,41.6c1,0.4,1.8,1.3,2,2.3c0.5,2,0,4,0.4,6c0.5,2.3,2.5,4.1,4.7,4.7c1.6,0.6,3.4,0.2,5,0.1
		c0.1,0.3,0.3,0.6,0.4,0.9c-2,0.7-3.8,2-4.9,3.8c-0.8,1.3-1,3-0.7,4.5c0.7,3.2,3.2,5.5,3.9,8.7c0.1,0.5-0.1,0.9-0.3,1.4
		c-0.4-0.2-0.6-0.4-0.9-0.7c-3.5-3-6.5-6.7-8.4-11c-2.5-5.5-3.1-11.7-2.1-17.6C20.3,43.5,20.7,42.6,21,41.6 M24.1,58.5
		c1.6,0.1,3.2-0.2,4.5-1c0.4-0.3,0.7-1.1,0.2-1.3C26.9,56,25.4,57.3,24.1,58.5z"/>
	<path class="st53" d="M55,42.8c0.9,0.3,1.7,0.7,2.6,1.1c-1,0.2-1.8-0.8-2.9-0.6C54.8,43.1,54.9,42.9,55,42.8z"/>
	<path class="st53" d="M70.5,46.9c0.4-1.4,0.8-2.8,1.3-4.2c0,1.4,0.5,2.6,0.8,3.9c-0.6,0-0.7,0.5-1,0.9c-0.1-0.3-0.1-0.6-0.4-0.8
		C71,46.8,70.7,46.9,70.5,46.9z"/>
	<path class="st53" d="M42.2,44c0.5-0.4,1.3-0.4,1.7-1.1c0.4,0,0.8,0,1.2,0c-0.1,0.2-0.3,0.7-0.6,0.6c-0.6-0.2-1,0.4-1.5,0.6
		C42.8,44.2,42.5,44,42.2,44z"/>
	<path class="st53" d="M28.1,47c0.4-1.3,0.9-2.6,1.1-4c0,1.4,0.5,2.7,1,3.9c-0.6-0.1-0.8,0.5-1,0.9C29.1,47.4,28.8,46.8,28.1,47z"/>
	<path class="st53" d="M9.3,47.3c1-0.5,2.2,0.7,1.8,1.7c-0.3,1-1.8,1.3-2.4,0.4C8.1,48.8,8.4,47.7,9.3,47.3z"/>
	<path class="st53" d="M89.8,47.3c0.7-0.3,1.6,0.1,1.8,0.9c0.3,0.8-0.5,1.9-1.4,1.8c-0.9,0.1-1.5-0.9-1.3-1.7
		C89.1,47.9,89.4,47.5,89.8,47.3z"/>
	<path class="st53" d="M42.4,48.8c2.2-0.3,4.4,1.1,5.4,3c-0.1,0.3-0.2,0.5-0.2,0.8c-1.5-0.8-2.2-2.6-3.9-3c-1.4-0.4-2.7,0.2-4,0.5
		c-0.9,0.1-1.8-0.2-2.3-0.9C39,49.4,40.7,49.2,42.4,48.8z"/>
	<path class="st53" d="M55.3,50.3c0.5-0.4,1.4-0.4,1.8,0.3c0.2,0.6,0.1,1.3-0.5,1.6c-0.6,0.1-1.4-0.2-1.6-0.8
		C55,51,55,50.6,55.3,50.3 M56.2,51.4c0-0.2,0-0.4,0-0.6C55.8,50.9,56,51.2,56.2,51.4z"/>
	<path class="st53" d="M43.1,50.3c0.6-0.2,1.5,0.1,1.6,0.8c-0.1,0.6-0.5,1.3-1.2,1.4C42.5,52.7,42,50.6,43.1,50.3 M43.4,51.4
		c0.2,0.1,0.4,0.1,0.6,0.1c-0.1-0.2-0.2-0.3-0.3-0.5C43.6,51.1,43.5,51.3,43.4,51.4z"/>
	<path class="st53" d="M59.4,50.4c0.2,0,0.4,0,0.7,0c0.1,0.7-0.5,1.3-1,1.8c-1.2,1-2.8,1.2-4.3,1.2c0-0.5,0.4-0.8,0.8-0.9
		c0.5,0.2,1,0.3,1.5,0.1C58,52.2,58.6,51.2,59.4,50.4z"/>
	<path class="st53" d="M39.5,51.1c0.1-0.2,0.3-0.3,0.4-0.5c1.4,1.3,3.2,2.5,5.2,2.3c-0.1,0.3-0.4,0.7-0.7,0.7
		c-0.6,0-1.1-0.2-1.7-0.3C41.4,52.9,40.5,51.9,39.5,51.1z"/>
	<path class="st55" d="M56.2,51.4c-0.2-0.2-0.4-0.5,0-0.6C56.2,51,56.2,51.2,56.2,51.4z"/>
	<path class="st55" d="M43.4,51.4c0.1-0.1,0.2-0.3,0.3-0.4c0.1,0.2,0.2,0.3,0.3,0.5C43.8,51.5,43.6,51.5,43.4,51.4z"/>
	<path class="st53" d="M14.2,52.6c0.6-0.1,1.1-0.4,1.5-0.9c0.4,2.4,0.8,4.9,1.3,7.3c-0.9,0-1.7,0.6-2.6,0.8c0.9-1.7,0.2-3.6-0.1-5.3
		c-0.9,0.1-1.7,0.3-2.6,0.5c0.2,1.1,0.4,2.3,0.6,3.4c0.1,0.3,0.3,0.6,0.4,0.9c-0.7-0.2-1.7-0.2-2.2-0.8c-0.3-1.1-0.4-2.2-0.6-3.3
		c-1.4,0.4-3.1,0.1-4.1,1.4c-0.2-1-0.4-2.1-0.6-3.1C5.7,54,6.4,54,6.9,53.9C9.4,53.5,11.8,53.1,14.2,52.6z"/>
	<path class="st53" d="M85.4,52.4c1.3-0.5,3.1,0.1,3.5,1.5c0.3-0.8,0.9-1.5,1.8-1.5c1.2-0.1,2.5,0.3,3.2,1.3c0.6,1,0.5,2.1,0.3,3.2
		c-0.3,1.6-0.5,3.2-0.8,4.7c-0.4-0.5-0.9-0.7-1.5-0.8c-2.2-0.4-4.5-0.8-6.7-1.2c-0.7-0.1-1.6-0.3-2.2,0.3c0.3-1.7,0.5-3.4,0.9-5.1
		C84.1,53.9,84.5,52.8,85.4,52.4 M85.7,55c-0.3,0.9-0.3,1.8-0.5,2.7c0.8,0.1,1.7,0.3,2.5,0.4c0.1-0.9,0.4-1.8,0.3-2.7
		C88,54.3,86.1,53.9,85.7,55 M89.8,55.8c-0.2,0.9-0.3,1.7-0.4,2.6c0.9,0.2,1.8,0.3,2.7,0.5c0.1-0.8,0.3-1.6,0.4-2.4
		c0.1-0.5,0.1-1-0.2-1.4c-0.4-0.5-1-0.6-1.5-0.5C90.2,54.7,89.9,55.3,89.8,55.8z"/>
	<path class="st53" d="M54.5,53.8c0.1,0,0.3,0,0.4,0c-0.1,1.9-0.8,3.7-0.6,5.7c0.1,0.9,0.5,1.7,1,2.4c0.2,0.6,0.1,1.3-0.4,1.8
		c-0.4-2-1.9-3.8-1.5-6C53.9,56.4,54.2,55.1,54.5,53.8z"/>
	<path class="st53" d="M44.8,55c-0.3-0.4-0.1-1,0.3-1.1c0.2,1.2,0.7,2.2,1.2,3.3c0.4,0.9,0.4,1.9-0.1,2.7c-0.2,0.4-0.1,0.8-0.3,1.2
		c-0.4,0.7-1.1,1.3-1.4,2c-0.6-0.4-0.2-1.2,0.1-1.7C45.6,59.5,45.9,56.9,44.8,55z"/>
	<path class="st54" d="M85.7,55c0.4-1.1,2.3-0.7,2.3,0.4c0,0.9-0.3,1.8-0.3,2.7c-0.8-0.1-1.7-0.3-2.5-0.4
		C85.4,56.8,85.4,55.9,85.7,55z"/>
	<path class="st54" d="M89.8,55.8c0.1-0.5,0.4-1.1,0.9-1.3c0.6-0.1,1.2,0,1.5,0.5c0.3,0.4,0.3,1,0.2,1.4c-0.1,0.8-0.3,1.6-0.4,2.4
		c-0.9-0.1-1.8-0.3-2.7-0.5C89.5,57.5,89.7,56.7,89.8,55.8z"/>
	<path class="st54" d="M70.8,55.7c0.3-0.3,0.8-0.3,1.2-0.2c1.5,0.4,3.1,1.1,4,2.4c-1.8,0-3.8-0.2-5.3-1.4
		C70.5,56.3,70.6,55.9,70.8,55.7z"/>
	<path class="st54" d="M24.1,58.5c1.2-1.2,2.8-2.5,4.7-2.3c0.5,0.3,0.3,1.1-0.2,1.3C27.3,58.3,25.7,58.6,24.1,58.5z"/>
	<path class="st53" d="M29.1,63.2c-0.4-3,2-5.8,4.8-6.5c0.1,0.3,0.2,0.7,0.2,1.1c-1.4,0.7-2.9,1.7-3.6,3.2c-0.4,0.8-0.4,1.8-0.3,2.7
		c0.3,2.1,1.6,3.8,2.5,5.7c0.5,1.2,0.8,2.4,0.7,3.7c0.6,0.4,1.2-0.4,1.8-0.4c2.7-0.1,5.5,0.2,8.2-0.2c1-0.2,2.1-0.4,2.8-1.2
		c0.3,0,0.7,0.2,0.9,0.3C46.5,73.1,44.7,74,43,74c-2.5,0.1-4.8-1.1-7.3-1c-1.2,0.1-2.2,0.7-3,1.5c0.4-1,0.5-2.1,0.2-3.2
		C32,68.4,29.5,66.2,29.1,63.2z"/>
	<path class="st53" d="M66.1,57.9c-0.4-0.4,0.1-0.9,0.3-1.3c1.9,0.8,3.8,2,4.8,3.9c0.5,1.2,0.5,2.6,0.1,3.8
		c-0.6,1.7-1.7,3.2-2.5,4.7c-0.8,1.4-1.1,3-0.6,4.6c-1.4-0.7-3.1-0.7-4.7-0.4c-2,0.4-4,1.1-6.1,0.9c-1.5-0.1-2.8-1-3.6-2.3
		c0-0.4,0.3-0.6,0.6-0.8c0.4,0,0.7,0.4,1,0.6c1.1,1.3,2.9,1.9,4.6,1.8c2.5-0.3,4.9-1.4,7.4-0.8c0.2-0.6,0-1.3,0.2-1.9
		c1-2.2,2.5-4.3,3-6.8c0.3-1.6-0.2-3.2-1.4-4.3C68.2,58.9,67.2,58.3,66.1,57.9z"/>
	<path class="st53" d="M57.7,58c0.6-0.2,1-0.6,1.5-0.8c0.4-0.1,0.6,0.3,0.8,0.6c-0.6,0-1,0.5-1.6,0.7C58.1,58.6,57.9,58.3,57.7,58z"
		/>
	<path class="st53" d="M40.3,57.8c0.7-0.3,2.1,0.4,1.4,1.2C41.3,58.6,40.7,58.3,40.3,57.8z"/>
	<path class="st53" d="M81.7,63.3c0.4-1,0.9-1.9,1.3-2.9c0.2,0.7,0.8,1.1,1.4,1.4c1.6,0.7,3.1,1.4,4.7,2.1c1,0.5,1.9,1.2,2.2,2.3
		c0.3,1,0,2.1-0.5,3.1c-0.4,0.9-1.1,1.7-2.1,2c-1.1,0.3-2.2,0-3.2-0.5c-1.3-0.6-2.6-1.2-3.9-1.8c-0.7-0.3-1.5-0.7-2.3-0.4
		c0.4-0.9,0.8-1.9,1.3-2.8c0.2,0.6,0.7,0.9,1.2,1.2c1.5,0.7,3,1.4,4.5,2c0.6,0.3,1.3,0.5,2,0.2c0.9-0.4,1.3-1.5,1.2-2.4
		c-0.2-0.7-0.9-1.1-1.5-1.4c-1.6-0.7-3.2-1.5-4.8-2.2C82.7,63.2,82.2,63.1,81.7,63.3z"/>
	<path class="st53" d="M14.2,61.2c1.1-0.1,2.3,0,3.3,0.6c1.5,1,2.3,3,2,4.7c-0.3,1.6-1.6,2.8-3,3.5c-1.5,0.8-3.3,1.2-5,0.7
		c-2.6-0.9-3.9-4.3-2.3-6.6C10.4,62.5,12.3,61.5,14.2,61.2 M14.6,63.2c-1.5,0.3-3,0.9-3.8,2.2c-0.9,1.4,0.4,3.4,2,3.5
		c1.5,0.1,3-0.6,4.1-1.6c0.8-0.7,1-2,0.4-3C16.7,63.5,15.6,63.1,14.6,63.2z"/>
	<path class="st53" d="M62.6,62.6c-0.2-0.3-0.1-0.7,0.3-0.7c0,0.2,0,0.5,0,0.7C62.8,62.6,62.7,62.6,62.6,62.6z"/>
	<path class="st53" d="M38.5,62.8c-0.5,0-0.6-0.8,0-0.7C38.5,62.3,38.5,62.5,38.5,62.8z"/>
	<path class="st53" d="M63.8,63.6c0-0.2-0.2-0.5,0.1-0.6c0.3,0,0.2,0.3,0.3,0.5C64,63.6,63.9,63.6,63.8,63.6z"/>
	<path class="st54" d="M14.6,63.2c1-0.2,2.1,0.2,2.6,1.1c0.6,0.9,0.5,2.2-0.4,3c-1.1,1-2.6,1.6-4.1,1.6c-1.6-0.1-2.8-2.1-2-3.5
		C11.6,64.1,13.2,63.5,14.6,63.2z"/>
	<path class="st53" d="M39.4,63.7c0-0.2-0.1-0.5,0.2-0.7c0.1,0.2,0.2,0.4,0.2,0.6C39.6,63.7,39.5,63.7,39.4,63.7z"/>
	<path class="st53" d="M37,63.5c0.1-0.1,0.3-0.2,0.5-0.2c0,0.2,0,0.4,0,0.6c-0.1,0-0.2,0-0.3,0c-0.1-0.1-0.1-0.1-0.2-0.2
		C37,63.7,37,63.6,37,63.5z"/>
	<path class="st53" d="M61.4,63.3c0.2,0,0.3,0,0.5,0c0,0.2,0,0.4,0,0.7c-0.2,0-0.3,0-0.5,0C61.4,63.7,61.4,63.5,61.4,63.3z"/>
	<path class="st53" d="M47.9,64.8c1.5-0.3,3.3-0.2,4.6,0.8c-0.1,1.4-0.9,3-2.4,3.2c-1.2,0.1-1.9-1-2.6-1.8
		C47.2,66.3,47.3,65.4,47.9,64.8 M49.3,65.8c-0.3,0.1-0.8,0.2-0.7,0.6c0.2,0.6,0.4,1.3,1,1.5c0.6,0.2,1-0.3,1.3-0.7s0.4-1.2-0.2-1.3
		C50.3,65.9,49.8,65.8,49.3,65.8z"/>
	<path class="st53" d="M62.9,65c0.2,1.4,0.6,2.7,0.9,4c-0.1,0-0.3,0-0.4,0.1c-0.2,0.3-0.3,0.5-0.5,0.8c-0.1-0.5-0.4-1-1-0.8
		C62.2,67.8,62.5,66.4,62.9,65z"/>
	<path class="st53" d="M37.3,69c0.7-1.2,0.8-2.6,1.2-3.9c0.1,1.3,0.5,2.6,0.8,3.9c-0.5-0.1-0.8,0.3-1,0.7C38.2,69.3,37.7,69,37.3,69
		z"/>
	<path class="st55" d="M49.3,65.8c0.5-0.1,1,0.1,1.5,0.2c0.6,0.2,0.5,1,0.2,1.3s-0.8,0.9-1.3,0.7c-0.6-0.3-0.8-1-1-1.5
		C48.5,66.1,49,65.9,49.3,65.8z"/>
	<path class="st53" d="M20.1,69.8c2.6-0.4,5.1,2,5.1,4.6c-0.1,1.6-1,2.9-2.2,3.9c-1.2,1.1-2.7,1.8-4.3,1.8c-2.2-0.1-4-2-4.2-4.1
		c-0.1-1.3,0.4-2.5,1.3-3.5C16.8,71.2,18.4,70.1,20.1,69.8 M20.6,71.8c-1.6,0.3-3.1,1.5-3.9,2.9c-0.8,1.4,0.5,3.3,2,3.3
		c1,0.1,2-0.5,2.8-1.1c0.8-0.6,1.5-1.4,1.7-2.5C23.4,73.1,22,71.7,20.6,71.8z"/>
	<path class="st55" d="M49.4,70.4c0.4-0.1,0.9,0.1,1.3,0.1c-0.1,0.1-0.2,0.3-0.3,0.4c-0.3-0.1-0.7-0.2-1-0.2
		C49.3,70.6,49.4,70.5,49.4,70.4z"/>
	<path class="st53" d="M75,73.2c0.7-0.8,1.3-1.7,2-2.5c0.1,0.7,0.6,1.2,1.1,1.6c1.8,1.4,3.5,2.8,5.4,4.2c0.4-0.2,0.7-0.8,1-1.1
		c0.9-1,1.7-2.4,1.4-3.8c0.5,0.7,0.9,1.4,1.4,2c0.1,0.2,0.4,0.3,0.6,0.4c-1.5,1.9-3,3.8-4.4,5.7c-0.1-0.6-0.5-1.1-0.9-1.4
		c-1.9-1.5-3.8-2.9-5.6-4.4C76.4,73.4,75.7,73,75,73.2z"/>
	<path class="st54" d="M20.6,71.8c1.4-0.2,2.9,1.2,2.6,2.7c-0.2,1-0.9,1.8-1.7,2.5c-0.8,0.6-1.7,1.2-2.8,1.1c-1.5-0.1-2.8-1.9-2-3.3
		C17.4,73.3,18.9,72.1,20.6,71.8z"/>
	<path class="st53" d="M50.6,72.7c0.6,0,1.2-0.2,1.8-0.5c1.3,2.1,3.8,3.2,6.2,3.2c2.4,0.2,4.5-1.2,6.9-1c0.6,0,1.1,0.2,1.7,0.4
		c-2.9,2.1-6.3,3.6-9.8,4.4c-6.7,1.6-14,1.2-20.2-1.7c-1.3-0.7-2.5-1.5-3.7-2.2c0.9-1.1,2.6-1.4,4-1.1c2.1,0.4,4.3,1,6.5,0.7
		c1.7-0.1,3.4-1,4.3-2.5c0.7,0.3,1.4,0.4,2.1,0.3c-0.4,0.5-0.7,1-0.7,1.6c0,1.1,0.5,2.2,0.9,3.3c0.6-1.1,0.7-2.4,0.8-3.7
		c0.1-0.5-0.3-1.1-0.8-1.1C50.6,72.8,50.6,72.8,50.6,72.7z"/>
	<path class="st53" d="M72.8,75.2c0.6-0.4,1.4-0.6,1.9-1.2c0.4,0.8,0.7,1.6,1.1,2.5c-1.4-0.1-3,0.6-3.4,2C72,79.7,72.6,81,73.4,82
		c0.8,0.9,1.9,1.8,3.2,1.5c1.4-0.5,2.2-1.9,2.6-3.3c0.6,0.7,1.2,1.5,1.8,2.2c-0.5,0.1-0.9,0.6-1.2,1c-0.9,1.1-2,2-3.3,2.3
		c-1.5,0.3-3-0.5-4-1.5c-1.4-1.4-2.5-3.2-2.3-5.2C70.3,77.2,71.4,75.9,72.8,75.2z"/>
	<path class="st53" d="M25,77.2c0.6-0.7,1.5-1.1,1.9-1.9c2.1,1.5,4.2,3,6.2,4.5c-0.7,0.6-0.8,1.6-1.3,2.4c-0.3-1.1-1.1-2-2.1-2.6
		c-0.1-0.1-0.2,0.1-0.3,0.2c-1.3,1.8-2.6,3.5-3.8,5.3c-0.4,0.6-0.7,1.2-0.6,1.9c-0.8-0.6-1.7-1.2-2.5-1.8c0.5-0.1,0.9-0.3,1.2-0.8
		c1.4-2,2.9-4,4.3-6C27.3,77.7,26.2,77.1,25,77.2z"/>
	<path class="st53" d="M34.2,80.5c1.5,0.6,3.1,1.2,4.6,1.9c0.9,0.4,1.9,1,2.2,2c0.2,1.4-0.7,3.1-2.2,3.2c0.6,0.4,1.1,1,1.1,1.7
		c0.1,1.7-1.3,3.6-3.2,3.3c-2.3-0.4-4.3-1.6-6.4-2.3c0.6-0.2,0.9-0.7,1.1-1.3c0.9-2.2,1.8-4.5,2.7-6.7
		C34.3,81.7,34.4,81.1,34.2,80.5 M34.9,85.3c0.8,0.4,1.6,0.7,2.4,0.9c1.2,0.4,2.1-1.6,1-2.2c-0.8-0.4-1.7-0.7-2.5-1
		C35.5,83.8,35.2,84.6,34.9,85.3 M34.2,87c-0.3,0.8-0.7,1.7-1,2.5c1,0.4,1.9,0.9,3,1.2c1.3,0.3,2.1-1.7,1-2.4
		C36.3,87.8,35.2,87.4,34.2,87z"/>
	<path class="st53" d="M57.8,83.3c1-0.4,2-0.7,3-1.1c-0.3,0.6-0.2,1.2,0,1.8c0.8,2.2,1.6,4.4,2.3,6.6c1.2-0.5,2.6-0.7,3.7-1.6
		c0.4-0.4,0.7-0.8,1-1.3c0.2,1-0.2,2.1,0.4,3c-2.3,0.8-4.5,1.6-6.8,2.4c0.2-0.5,0.2-1.1,0-1.6c-0.7-2.1-1.5-4.3-2.2-6.4
		C58.9,84.5,58.6,83.6,57.8,83.3z"/>
	<path class="st54" d="M34.9,85.3c0.3-0.8,0.6-1.5,0.9-2.3c0.8,0.4,1.7,0.6,2.5,1c1.1,0.6,0.1,2.6-1,2.2
		C36.4,86.1,35.6,85.7,34.9,85.3z"/>
	<path class="st53" d="M44.3,83.6c1.1,0.1,2.1,0.3,3.2,0.4c-0.1,0.3-0.2,0.5-0.1,0.8c0.6,2.7,1.1,5.5,1.7,8.2
		c0.1,0.7,0.4,1.3,0.7,1.9c-1-0.1-1.9-0.2-2.9-0.3c0.5-0.6,0.4-1.4,0.2-2.2c-1.5-0.2-3-0.4-4.5-0.6c-0.3,0.7-0.6,1.4-0.2,2.1
		c-1-0.1-2-0.3-3-0.3c0.5-0.6,0.8-1.2,1.1-1.8c1.3-2.5,2.5-4.9,3.7-7.4C44.3,84.1,44.3,83.8,44.3,83.6 M43.4,89.9
		c1.1,0.2,2.2,0.3,3.3,0.4c-0.4-1.7-0.7-3.3-1.1-5C44.8,86.8,44.1,88.4,43.4,89.9z"/>
	<path class="st53" d="M50.4,84.2c1.1-0.1,2.1-0.3,3.2-0.4c-0.4,0.5-0.5,1.1-0.4,1.7c0.3,2.3,0.6,4.6,0.8,6.9c0.6,0.2,1.4-0.1,2-0.2
		c1.2-0.1,2.4-0.6,3.1-1.6c-0.1,0.8-0.3,1.6-0.4,2.4c-0.1,0.2,0.1,0.4,0.2,0.6c-2.4,0.3-4.8,0.6-7.2,0.9c0.5-0.6,0.4-1.4,0.4-2.1
		c-0.3-2.3-0.6-4.5-0.8-6.8C51.2,85.1,50.9,84.5,50.4,84.2z"/>
	<path class="st54" d="M43.4,89.9c0.7-1.5,1.4-3.1,2.1-4.6c0.4,1.7,0.7,3.3,1.1,5C45.6,90.2,44.5,90.1,43.4,89.9z"/>
	<path class="st54" d="M34.2,87c1,0.4,2.1,0.7,3,1.3c1.1,0.7,0.2,2.7-1,2.4c-1-0.3-2-0.8-3-1.2C33.5,88.7,33.9,87.9,34.2,87z"/>
</g>
</svg>
