<?xml version="1.0" encoding="utf-8"?>
<!-- Generator: Adobe Illustrator 19.2.1, SVG Export Plug-In . SVG Version: 6.00 Build 0)  -->
<svg version="1.1" id="Capa_1" xmlns="http://www.w3.org/2000/svg" xmlns:xlink="http://www.w3.org/1999/xlink" x="0px" y="0px"
	 viewBox="0 0 100 100" style="enable-background:new 0 0 100 100;" xml:space="preserve">
<style type="text/css">
	.st0{fill:url(#path34_4_);}
	.st1{fill:url(#path890_1_);}
	.st2{fill:#FFE500;stroke:#000000;stroke-width:2.098;stroke-miterlimit:3.863;}
	.st3{fill:#DA020E;}
	.st4{fill:#FFE500;}
	.st5{clip-path:url(#SVGID_2_);}
	.st6{fill:none;stroke:#B54005;stroke-width:10;stroke-miterlimit:3.863;}
	.st7{fill:url(#path7506_1_);}
	.st8{fill:url(#path8794_1_);}
	.st9{fill:url(#path15846_1_);}
	.st10{fill:url(#path16274_1_);}
	.st11{fill:url(#path39821_1_);}
	.st12{fill:url(#path39847_1_);}
	.st13{fill:url(#path39878_1_);}
	.st14{fill:url(#path39888_1_);}
	.st15{fill:url(#path41035_1_);}
	.st16{fill:url(#path9646-8_1_);}
	.st17{fill:url(#path41092_1_);}
	.st18{fill:url(#path41094_1_);}
	.st19{fill:none;stroke:#000000;stroke-width:2.098;stroke-miterlimit:3.863;}
	.st20{fill:url(#path41152_1_);}
	.st21{fill:url(#path39854_1_);}
	.st22{fill:url(#path39874_1_);}
	.st23{fill:#9C824A;stroke:#9C824A;stroke-width:0.793;stroke-miterlimit:282;}
	.st24{fill:#023474;stroke:#023474;stroke-width:0.793;stroke-miterlimit:282;}
	.st25{fill:#FFFFFF;stroke:#FFFFFF;stroke-width:0.793;stroke-miterlimit:282;}
	.st26{fill:#EF0107;stroke:#EF0107;stroke-width:0.793;stroke-miterlimit:282;}
	.st27{fill:#DB0007;stroke:#DB0007;stroke-width:0.793;stroke-miterlimit:282;}
	.st28{fill:#FFFFFF;}
	.st29{fill:#9C824A;}
	.st30{fill:#EF0107;stroke:#EF0107;stroke-width:0.3115;stroke-miterlimit:282;}
	.st31{fill:#DB0007;stroke:#DB0007;stroke-width:0.3115;stroke-miterlimit:282;}
	.st32{fill:#DB0007;}
	.st33{fill:#FFFFFF;stroke:#FFFFFF;stroke-width:0.3115;stroke-miterlimit:282;}
	.st34{fill:#FFFFFF;stroke:#FFFFFF;stroke-width:0.554;stroke-miterlimit:3.864;}
	.st35{fill:#231F20;}
	.st36{fill:#00B6F1;stroke:#00B6F1;stroke-width:1.700000e-02;stroke-miterlimit:3.864;}
	.st37{fill:#EF3E2E;}
	.st38{fill:#BBBDBF;}
	.st39{fill:#F0B83D;}
	.st40{fill:#00B6F1;stroke:#FFFFFF;stroke-width:1.700000e-02;stroke-miterlimit:3.864;}
	.st41{fill:#001C58;}
	.st42{fill:#94BEE5;}
	.st43{fill:none;stroke:#7A003C;stroke-width:2.2437;stroke-miterlimit:6;}
	.st44{fill:#7A003C;}
	.st45{fill:#FFE600;}
	.st46{fill:#DBA111;}
	.st47{fill:#034694;}
	.st48{fill:#D1D3D4;}
	.st49{fill:#ED1C24;}
	.st50{fill:#6A7AB5;}
	.st51{fill:none;}
	.st52{fill:#274488;}
	.st53{fill:#004798;stroke:#004798;stroke-width:9.375000e-02;}
	.st54{fill:#FFFFFF;stroke:#FFFFFF;stroke-width:9.375000e-02;}
	.st55{fill:#FABC00;stroke:#FABC00;stroke-width:9.375000e-02;}
	.st56{fill:none;stroke:#FFFFFF;stroke-width:7.865;stroke-miterlimit:3.864;}
	.st57{fill:none;stroke:#FFFFFF;stroke-width:7.865;stroke-miterlimit:12;}
	.st58{fill:none;stroke:#FFFFFF;stroke-width:7.865;stroke-miterlimit:22;}
	.st59{fill:none;stroke:#FFFFFF;stroke-width:7.865;stroke-miterlimit:6;}
	.st60{fill:#00A398;}
	.st61{fill:#D00027;}
	.st62{fill:none;stroke:#FFFFFF;stroke-width:17.3907;stroke-miterlimit:3.864;}
	.st63{fill:none;stroke:#FFFFFF;stroke-width:13.1107;stroke-miterlimit:3.864;}
	.st64{fill:#FEF667;}
	.st65{fill:#D00027;stroke:#D00027;}
	.st66{fill:#5299C6;}
	.st67{fill:#60223B;}
	.st68{fill:#F7C240;}
	.st69{fill:#292D6B;}
	.st70{fill:#1B458F;}
	.st71{fill:#C4122E;}
	.st72{fill:#27409B;}
	.st73{clip-path:url(#SVGID_4_);}
	.st74{fill:#F4F4F4;}
	.st75{fill:#D3D2D2;}
	.st76{fill:#A7A5A6;}
	.st77{fill:#091453;}
	.st78{fill:none;stroke:#FFFFFF;stroke-width:6.6301;}
	.st79{clip-path:url(#SVGID_6_);}
	.st80{fill:#724314;}
	.st81{fill:#240B08;}
	.st82{fill:#018B4B;}
	.st83{fill:#A6181D;}
	.st84{fill:#592D09;}
	.st85{fill:#FFCE65;}
	.st86{fill:#5CBFEB;}
	.st87{fill:none;stroke:#000000;stroke-width:10;}
	.st88{fill:none;stroke:#000000;}
	.st89{fill:#B2B2B2;}
	.st90{fill:none;stroke:#000000;stroke-width:0.3;}
	.st91{fill:#00A650;stroke:#000000;stroke-width:2;}
	.st92{fill:#241F20;stroke:#241F20;stroke-width:9.375000e-02;}
	.st93{fill:#FFF200;stroke:#FFF200;stroke-width:9.375000e-02;}
	.st94{fill:#A68A26;}
	.st95{fill:none;stroke:#A68A26;stroke-width:4.792100e-02;stroke-miterlimit:3.8637;}
	.st96{fill:#211E1E;}
	.st97{fill:none;stroke:#211E1E;stroke-width:4.792100e-02;stroke-miterlimit:3.8637;}
	.st98{fill:#EB172B;}
	.st99{fill:none;stroke:#EB172B;stroke-width:4.792100e-02;stroke-miterlimit:3.8637;}
	.st100{fill:#A68A26;stroke:#A68A26;stroke-width:4.792100e-02;stroke-miterlimit:3.8637;}
	.st101{fill:#D1BF7F;}
	.st102{fill:none;stroke:#D1BF7F;stroke-width:4.792100e-02;stroke-miterlimit:3.8637;}
	.st103{fill:none;stroke:#FFFFFF;stroke-width:4.792100e-02;stroke-miterlimit:3.8637;}
	.st104{fill:#EB172B;stroke:#EB172B;stroke-width:4.792100e-02;stroke-miterlimit:3.8637;}
	.st105{fill:#ED2127;}
	.st106{fill:#FBEE23;}
	.st107{stroke:#000000;}
	.st108{fill:#CF1F44;}
	.st109{fill:#1B449C;}
	.st110{fill:#E03A3E;}
	.st111{fill:#E03A3E;stroke:#E03A3E;stroke-width:0.6565;}
	.st112{fill:none;stroke:#1B449C;stroke-width:0.7493;}
	.st113{fill:none;stroke:#1B449C;stroke-width:0.7567;}
	.st114{fill:#1B449C;stroke:#1B449C;stroke-width:0.6274;}
	.st115{fill:#1B449C;stroke:#1B449C;stroke-width:0.6755;}
	.st116{fill:#2E6ABD;stroke:#2E6ABD;stroke-width:0.617;}
	.st117{fill:#FFFFFF;stroke:#FFFFFF;stroke-width:0.6175;}
	.st118{fill:#ED1248;}
	.st119{fill:#2E6ABD;}
	.st120{fill:#FDE100;}
	.st121{fill:#CC0000;}
	.st122{fill:#211E1F;}
	.st123{fill:#ED1A3B;}
	.st124{fill:#00AEEF;}
	.st125{fill:#FFC40D;}
	.st126{fill:#22B24C;}
	.st127{fill:#FFC20E;}
	.st128{fill:#0A3F86;}
	.st129{fill:#005CA9;}
	.st130{fill:#FFE000;}
	.st131{fill:#E2001A;}
	.st132{opacity:0;}
	.st133{opacity:0;fill:#FFFFFF;}
	.st134{fill:#FFFFFF;stroke:#000000;}
	.st135{fill:#0060A9;}
	.st136{fill:#E32219;}
	.st137{fill:#FFED00;}
	.st138{fill:#1D9053;}
	.st139{fill:#52A600;}
	.st140{fill:#EE2523;}
	.st141{fill:#F7D117;}
	.st142{fill:#171796;}
	.st143{fill:#009959;}
	.st144{fill:#D42E12;}
	.st145{fill:#703824;}
	.st146{fill:#E5254E;}
	.st147{fill:#8AC3EE;}
	.st148{fill:#B19221;}
	.st149{fill:#F5C03E;}
	.st150{fill:#FF1119;}
	.st151{fill:#1E6BC0;}
	.st152{fill:#B4742A;}
	.st153{fill:#371B02;}
	.st154{fill:url(#SVGID_7_);}
	.st155{fill:url(#SVGID_8_);}
	.st156{fill:url(#SVGID_9_);}
	.st157{fill:url(#SVGID_10_);}
	.st158{fill:url(#SVGID_11_);}
	.st159{fill:url(#SVGID_12_);}
	.st160{fill:url(#SVGID_13_);}
	.st161{fill:url(#SVGID_14_);}
	.st162{fill:url(#SVGID_15_);}
	.st163{fill:url(#SVGID_16_);}
	.st164{fill:#EB2626;}
	.st165{fill:#E9C32C;}
	.st166{fill:#D9D9D9;}
	.st167{fill:#009C5E;}
	.st168{fill:#1C75BC;}
	.st169{fill:#611D5C;}
	.st170{fill:#E2B900;}
	.st171{fill:#004B95;}
	.st172{fill:#A4234B;}
	.st173{fill:#DB2F36;}
	.st174{fill:#FFDF00;}
	.st175{fill:#A38D44;}
	.st176{fill:#57175E;}
	.st177{fill:#AFDCFD;}
	.st178{fill:#0090C6;}
	.st179{fill:#DB5232;}
	.st180{fill:#23C1E0;}
	.st181{fill:#F1A92A;}
	.st182{fill:#167FB6;}
	.st183{fill:#FED75D;}
	.st184{fill:#378CBF;}
	.st185{fill:#3E9692;}
	.st186{fill:#E67F29;}
	.st187{fill:#D8B43C;}
	.st188{fill:#EF3B33;}
	.st189{fill:#24923D;}
	.st190{opacity:6.000001e-02;fill:#101010;enable-background:new    ;}
	.st191{fill:#00529F;}
	.st192{fill:#EE324E;}
	.st193{fill:#FEBE10;}
	.st194{fill:#143C8B;}
	.st195{fill:#FFE24A;}
	.st196{fill:#EC1D24;}
	.st197{fill:#E6A514;}
	.st198{fill:#FFDF1C;}
	.st199{fill:#EE3524;}
	.st200{fill:#B23428;}
	.st201{fill:#D18816;}
	.st202{fill:#0097D7;}
	.st203{fill:#ED1C23;}
	.st204{fill:#E30613;}
	.st205{fill:#FFE400;}
	.st206{fill:#C51A1B;}
	.st207{clip-path:url(#SVGID_19_);}
	.st208{clip-path:url(#SVGID_20_);fill:none;stroke:#000000;stroke-width:0.8131;stroke-miterlimit:3.864;}
	.st209{fill:#0093D5;}
	.st210{fill:#004B9D;}
	.st211{fill:#FCC24F;}
	.st212{fill:#009545;}
	.st213{fill:#0072BB;}
	.st214{fill:#C4974E;}
	.st215{fill:url(#path1292_1_);}
	.st216{fill:#004996;}
	.st217{fill:#FFE667;}
	.st218{fill:none;stroke:#005187;stroke-width:0.153;stroke-miterlimit:3.864;}
	.st219{fill:#005187;}
	.st220{clip-path:url(#SVGID_22_);}
	.st221{clip-path:url(#SVGID_24_);fill:none;stroke:#000000;stroke-width:0.296;stroke-miterlimit:3.864;}
	.st222{clip-path:url(#SVGID_26_);fill:#FFE667;}
	.st223{clip-path:url(#SVGID_28_);fill:none;stroke:#000000;stroke-width:8.300000e-02;stroke-miterlimit:3.864;}
	.st224{fill:none;stroke:#000000;stroke-width:0.153;stroke-miterlimit:3.864;}
	.st225{clip-path:url(#SVGID_30_);fill:#E70005;}
	.st226{clip-path:url(#SVGID_32_);fill:none;stroke:#E70005;stroke-width:0.296;stroke-miterlimit:3.864;}
	.st227{clip-path:url(#SVGID_34_);fill:#E70005;}
	.st228{clip-path:url(#SVGID_36_);fill:none;stroke:#E70005;stroke-width:0.296;stroke-miterlimit:3.864;}
	.st229{clip-path:url(#SVGID_38_);fill:#E70005;}
	.st230{clip-path:url(#SVGID_40_);fill:none;stroke:#E70005;stroke-width:0.296;stroke-miterlimit:3.864;}
	.st231{clip-path:url(#SVGID_42_);fill:#E70005;}
	.st232{clip-path:url(#SVGID_44_);fill:none;stroke:#E70005;stroke-width:0.296;stroke-miterlimit:3.864;}
	.st233{fill:#E70005;}
	.st234{fill:none;stroke:#000000;stroke-width:0.141;stroke-miterlimit:3.864;}
	.st235{fill:#00276D;}
	.st236{fill:#C49308;}
	.st237{fill:#179D33;}
	.st238{fill:#999999;}
	.st239{fill:#FF0000;}
	.st240{fill:#E31837;}
	.st241{fill:#06357A;}
	.st242{fill:#B4053F;}
	.st243{fill:#DCA43E;}
	.st244{fill:#005CA5;}
	.st245{fill:#FAC400;}
	.st246{fill:#004083;}
	.st247{fill:#A95932;}
	.st248{fill:none;stroke:#000000;stroke-width:1.2215;}
	.st249{fill:#E62627;}
	.st250{fill:#00458C;}
	.st251{fill:#E11B22;}
	.st252{fill:#00AB4E;}
	.st253{fill:#F47920;}
	.st254{fill:#C7C8CA;}
	.st255{fill:#E11515;}
	.st256{fill:#A4965F;}
	.st257{fill:#E51636;}
	.st258{fill:#EACC00;}
	.st259{fill:#4F846B;}
	.st260{fill:#E22227;}
	.st261{fill:#FAE700;}
	.st262{fill:url(#SVGID_45_);}
	.st263{fill:#666666;}
	.st264{fill:#FFF200;}
	.st265{fill:#00275D;}
	.st266{fill:#EF3E33;}
	.st267{fill:none;stroke:#00275D;stroke-width:2.632;}
	.st268{fill:#3F7652;}
	.st269{fill:#F1D261;}
	.st270{fill:#004D8F;}
	.st271{fill:#E7B137;stroke:#E7B137;stroke-miterlimit:10;}
	.st272{fill:#E7B137;}
	.st273{fill:#162577;}
	.st274{fill:#12692C;}
	.st275{fill:#D8141D;}
	.st276{fill:#AB830D;}
	.st277{fill:#0086CB;}
	.st278{fill:#001F42;}
	.st279{fill:#9A8F4A;}
	.st280{fill:#00559D;}
	.st281{fill:#FDDE00;}
	.st282{fill:#00924C;}
	.st283{fill:#233984;}
	.st284{fill:#FFD42E;}
	.st285{fill:#BA3733;}
	.st286{fill:#46714D;}
	.st287{fill:#221F1F;}
	.st288{fill:#00559E;}
	.st289{fill:#005C46;}
	.st290{fill:#FBC860;}
	.st291{fill:#D57C48;}
	.st292{fill:#040403;}
	.st293{fill:#4AB969;}
	.st294{fill:#8ED8F8;}
	.st295{fill:#FEC34E;}
	.st296{fill:#FFC95B;}
	.st297{fill:#00644C;}
	.st298{fill:#70B865;}
	.st299{fill:#CA6F44;}
	.st300{fill:#A8B8BE;}
	.st301{fill:#1C2C80;}
	.st302{fill:#E10321;}
	.st303{fill:none;stroke:#231F20;stroke-width:0.318;stroke-miterlimit:3.864;}
	.st304{fill:#D71920;}
	.st305{fill:#484749;}
	.st306{fill:#D9DBDC;}
	.st307{fill:#DF725A;}
	.st308{fill:#F2CABA;}
	.st309{fill:#E89C84;}
	.st310{fill:#264F99;}
	.st311{clip-path:url(#SVGID_47_);}
	.st312{fill:#161413;}
	.st313{fill:#ED1B26;}
	.st314{fill:#E60D2E;}
	.st315{fill:#FCD600;}
	.st316{fill:#004D91;}
	.st317{fill:#EAB412;}
	.st318{fill:#FDD31D;}
	.st319{fill:#EFB800;}
</style>
<g>
	<path d="M62.3,6.7c8.2,2.2,15.5,6.5,21.3,12.3c8.6,8.6,13.9,20.5,13.9,33.5c0,13.1-5.3,24.9-13.9,33.6C74.9,94.7,63.1,100,50,100
		s-24.9-5.3-33.5-13.9C7.9,77.5,2.5,65.6,2.5,52.5c0-13.1,5.3-24.9,13.9-33.5c5.8-5.8,13.1-10.1,21.3-12.3C40.3,2.7,44.9,0,50,0
		S59.7,2.7,62.3,6.7L62.3,6.7z M33.3,27h8.8c-1.2-0.8-2.3-1.8-3.3-2.9C36.9,24.9,35.1,25.9,33.3,27L33.3,27z M57.9,27h8.8
		c-1.7-1.1-3.6-2.1-5.5-2.9C60.2,25.3,59.1,26.2,57.9,27L57.9,27z M74.2,34v27.2c0,5.6-1.8,10.7-4.9,14.8c0.8-0.6,1.5-1.3,2.2-2
		c5.5-5.5,9-13.1,9-21.5C80.5,45.6,78.1,39.2,74.2,34L74.2,34z M30.7,76.1c-3.1-4.1-4.9-9.3-4.9-14.8V34.1
		c-3.9,5.2-6.3,11.5-6.3,18.4c0,8.4,3.4,16,9,21.5C29.2,74.8,29.9,75.5,30.7,76.1z"/>
	<path class="st280" d="M61.7,23.5c2.3,0.9,4.5,2.1,6.5,3.6h6v5.6c4.5,5.4,7.1,12.3,7.1,19.9c0,8.6-3.5,16.5-9.2,22.1
		c-1.7,1.7-3.5,3.1-5.5,4.4c-4.3,4.2-10.2,6.8-16.7,6.8S37.7,83.2,33.3,79c-2-1.3-3.8-2.7-5.5-4.4c-5.7-5.7-9.2-13.5-9.2-22.1
		c0-7.5,2.7-14.4,7.1-19.9V27h6c2-1.4,4.2-2.6,6.5-3.6c-1.8-2.5-2.9-5.5-2.9-8.8c0-2.5,0.6-4.9,1.7-6.9c-7.7,2.2-14.5,6.4-20,11.8
		C8.6,28,3.4,39.7,3.4,52.5c0,12.8,5.2,24.5,13.7,32.9c8.4,8.4,20.1,13.7,32.9,13.7s24.5-5.2,32.9-13.7c8.4-8.4,13.7-20.1,13.7-32.9
		c0-12.8-5.2-24.5-13.7-32.9c-5.5-5.5-12.3-9.6-20-11.8c1.1,2.1,1.7,4.4,1.7,6.9C64.7,18,63.6,21,61.7,23.5z"/>
	<path class="st28" d="M7.5,57.1c-0.2-0.5-0.4-1-0.5-1.5c-0.1-0.5-0.2-1-0.2-1.5c0-0.5,0-1,0.1-1.5c0.1-0.5,0.3-0.9,0.5-1.3
		c0.4-0.7,0.9-1.2,1.5-1.6c0.6-0.4,1.3-0.6,2.1-0.6c0.6,0,1.2,0.1,1.7,0.3c0.5,0.2,1,0.5,1.4,1c0.4,0.4,0.7,1,0.9,1.5
		c0.2,0.6,0.3,1.2,0.3,1.9c0,0.5,0,1-0.1,1.6c-0.1,0.5-0.3,1-0.5,1.5l-1.9,0c0.2-0.4,0.4-0.9,0.5-1.3s0.2-0.8,0.2-1.2
		c0-0.7-0.2-1.3-0.7-1.8c-0.4-0.4-1-0.7-1.7-0.6c-0.6,0-1.2,0.2-1.6,0.6c-0.4,0.4-0.6,0.9-0.6,1.6c0,0.1,0,0.2,0,0.3
		c0,0.1,0,0.2,0.1,0.4l0.9,0l0-1l1.7,0l0.1,3.1L7.5,57.1z"/>
	<polygon class="st28" points="7.5,60.2 15.6,58.4 17,64.3 15.2,64.7 14.5,61.6 13.1,61.9 13.8,64.9 12.1,65.3 11.4,62.3 9.9,62.6 
		10.7,65.8 8.9,66.3 	"/>
	<polygon class="st28" points="11.5,71.9 17,68.9 15.7,66.6 17.6,65.6 21.5,72.7 19.6,73.7 18.3,71.5 12.9,74.4 	"/>
	<path class="st28" d="M19.1,77.9l1.6,1.9l1.6-2.9L19.1,77.9L19.1,77.9z M14.1,76.7l8.9-2.4l1.9,2.3L21,84.9l-1.8-2.2l0.7-1.3
		l-2.4-2.9L16,78.9L14.1,76.7z"/>
	<polygon class="st28" points="22.9,86.1 27.8,79.4 32.7,82.9 31.7,84.4 29.1,82.5 28.2,83.7 30.7,85.5 29.6,87 27.2,85.2 
		25.3,87.8 	"/>
	<polygon class="st28" points="30.6,91 34.1,83.4 39.6,86 38.8,87.6 35.9,86.3 35.3,87.6 38.1,88.9 37.4,90.5 34.6,89.2 34,90.5 
		37,91.9 36.2,93.6 	"/>
	<path class="st28" d="M52.4,90.2c-0.4-0.3-0.8-0.5-1.2-0.6c-0.4-0.2-0.8-0.2-1.3-0.2c-0.7,0-1.2,0.2-1.7,0.5
		c-0.4,0.4-0.7,0.9-0.7,1.5c0,0.6,0.2,1.1,0.6,1.5c0.4,0.4,0.9,0.6,1.6,0.6c0.4,0,0.8,0,1.3-0.2s0.9-0.3,1.3-0.6l0,2.2
		c-0.5,0.2-1,0.4-1.5,0.5c-0.5,0.1-1.1,0.2-1.7,0.1c-0.6,0-1.2-0.1-1.8-0.4c-0.5-0.2-1-0.6-1.4-1c-0.4-0.4-0.7-0.9-1-1.4
		c-0.2-0.5-0.3-1.1-0.3-1.7c0-0.6,0.2-1.2,0.4-1.7c0.2-0.5,0.6-1,1-1.3c0.5-0.4,1-0.7,1.5-0.9c0.6-0.2,1.2-0.3,1.9-0.2
		c0.5,0,1,0.1,1.5,0.2c0.5,0.1,1,0.3,1.4,0.6L52.4,90.2z"/>
	<path class="st28" d="M54.8,94.1c-0.1-0.4,0-0.8,0.2-1.1c0.2-0.3,0.5-0.6,0.9-0.6c0.4-0.1,0.8,0,1.1,0.2c0.3,0.2,0.5,0.5,0.6,1
		c0.1,0.4,0,0.8-0.2,1.1s-0.5,0.5-1,0.6c-0.4,0.1-0.8,0-1.1-0.2C55.1,94.8,54.9,94.5,54.8,94.1z"/>
	<polygon class="st28" points="61.1,94.3 58.4,86.4 64.1,84.5 64.7,86.2 61.6,87.2 62.1,88.6 65,87.7 65.6,89.3 62.7,90.3 
		63.8,93.4 	"/>
	<path class="st28" d="M66.9,90.8c-0.2-0.4-0.2-0.7-0.1-1.1s0.4-0.7,0.7-0.9c0.4-0.2,0.7-0.2,1.1-0.1s0.7,0.4,0.9,0.7
		c0.2,0.4,0.2,0.7,0.1,1.1c-0.1,0.4-0.4,0.7-0.7,0.9c-0.4,0.2-0.7,0.2-1.1,0.1C67.4,91.4,67.1,91.2,66.9,90.8z"/>
	<path class="st28" d="M75.4,86.8l-1.5-1.7c0.5-0.1,0.9-0.2,1.3-0.3c0.4-0.1,0.7-0.3,0.9-0.5c0.2-0.2,0.4-0.4,0.4-0.5
		c0.1-0.2,0-0.3-0.1-0.5c-0.1-0.2-0.5-0.2-1.1,0c-0.2,0-0.3,0.1-0.4,0.1c-0.8,0.1-1.4,0.2-1.9,0.1c-0.5-0.1-0.9-0.3-1.2-0.7
		c-0.5-0.6-0.7-1.2-0.6-1.9c0.1-0.7,0.5-1.3,1.1-1.9c0.4-0.4,0.8-0.6,1.2-0.8c0.4-0.2,0.9-0.3,1.4-0.3l1.4,1.7
		c-0.6,0-1.1,0.1-1.4,0.2c-0.4,0.1-0.7,0.3-0.9,0.5c-0.2,0.2-0.3,0.3-0.3,0.5s0,0.3,0.1,0.4c0.1,0.1,0.2,0.2,0.4,0.2
		c0.2,0,0.5,0,1.1-0.2c1-0.2,1.7-0.3,2.2-0.2c0.4,0.1,0.8,0.3,1.1,0.7c0.5,0.6,0.7,1.3,0.6,2c-0.2,0.7-0.6,1.4-1.4,2.1
		c-0.3,0.3-0.7,0.5-1.1,0.7C76.3,86.6,75.8,86.7,75.4,86.8z"/>
	<path class="st28" d="M81,80.4c-0.3-0.3-0.5-0.6-0.5-1c0-0.4,0.1-0.8,0.4-1.1c0.3-0.3,0.6-0.5,1-0.5c0.4,0,0.8,0.1,1.1,0.4
		c0.3,0.3,0.5,0.6,0.5,1c0,0.4-0.1,0.8-0.4,1.1c-0.3,0.3-0.6,0.5-1,0.5C81.6,80.8,81.3,80.7,81,80.4z"/>
	<path class="st28" d="M84.7,72.6l1.1-2.2l-3.3-0.3L84.7,72.6L84.7,72.6z M85.5,77.6l-5.6-7.2l1.4-2.7l9.1,0.4L89,70.7l-1.5-0.2
		l-1.7,3.3l1,1.2L85.5,77.6z"/>
	<path class="st28" d="M89.7,65.8c-0.4-0.1-0.7-0.4-0.9-0.7c-0.2-0.4-0.2-0.7-0.1-1.1c0.1-0.4,0.4-0.7,0.7-0.9
		c0.4-0.2,0.7-0.2,1.1-0.1c0.4,0.1,0.7,0.4,0.9,0.7c0.2,0.4,0.2,0.7,0.1,1.1c-0.1,0.4-0.4,0.7-0.7,0.9
		C90.5,65.8,90.1,65.9,89.7,65.8z"/>
	<path class="st28" d="M86.7,57.3l4.1,0.3l0.1-1.1c0.1-0.6-0.1-1.1-0.4-1.5c-0.4-0.4-0.8-0.6-1.4-0.7c-0.6-0.1-1.1,0.1-1.5,0.4
		c-0.4,0.3-0.6,0.8-0.7,1.4L86.7,57.3L86.7,57.3z M92.6,60.7L84.3,60l0.3-4.1c0.1-0.7,0.2-1.4,0.4-1.9c0.2-0.5,0.5-1,1-1.4
		c0.4-0.4,0.9-0.7,1.4-0.9c0.5-0.2,1.1-0.3,1.7-0.2c0.6,0.1,1.2,0.2,1.7,0.5c0.5,0.3,0.9,0.6,1.3,1.1c0.4,0.5,0.6,1,0.7,1.6
		s0.2,1.2,0.1,1.9L92.6,60.7z"/>
	<path class="st28" d="M91.8,50.7c-0.4,0-0.8-0.1-1.1-0.3c-0.3-0.3-0.5-0.6-0.5-1c0-0.4,0.1-0.8,0.3-1.1c0.3-0.3,0.6-0.5,1-0.5
		c0.4,0,0.8,0.1,1.1,0.3c0.3,0.3,0.5,0.6,0.5,1c0,0.4-0.1,0.8-0.3,1.1C92.5,50.5,92.2,50.6,91.8,50.7z"/>
	<polygon class="st28" points="41.7,18.3 46,16.9 49.7,20 49.7,23.7 46.5,26 41.5,22.4 	"/>
	<polygon class="st28" points="44.3,7.5 40.8,8.1 37.8,16 41.4,17.9 45.9,16.4 47.3,11.5 	"/>
	<polygon class="st28" points="55.7,7.5 59.2,8.1 62.2,16 58.6,17.9 54.1,16.4 52.7,11.5 	"/>
	<polygon class="st28" points="54.2,4.6 45.9,3.7 44.7,7.2 47.8,11.3 52.2,11.3 55.3,7.2 	"/>
	<path class="st28" d="M63.9,17.3c0.2-0.8,0.2-1.7,0.2-2.6c0-3.5-1.3-6.7-3.4-9.2l-1.1,2.3l3.3,8.4L63.9,17.3z"/>
	<path class="st28" d="M53,28.5c3.3-0.7,6.2-2.6,8.2-5.2l-2.3-0.5l-5.2,3.8L53,28.5z"/>
	<path class="st28" d="M38.8,23.3c2,2.6,4.9,4.5,8.2,5.2l-0.6-1.9l-5.2-3.8L38.8,23.3z"/>
	<path class="st28" d="M39.3,5.4c-2.1,2.5-3.4,5.7-3.4,9.2c0,0.9,0.1,1.8,0.2,2.6l1-1.1l3.3-8.4L39.3,5.4z"/>
	<path class="st28" d="M50,0.5c-2.1,0-4.1,0.4-5.8,1.3l1.6,1.4l8.5,0.9l1.9-2.1C54.3,1,52.2,0.5,50,0.5z"/>
	<polygon class="st28" points="50.3,20 54,16.9 58.3,18.3 58.5,22.4 53.5,26 50.3,23.7 	"/>
	<path class="st131" d="M34.2,38.4c0.6,1.6,1.2,4.8,0.8,6.4l8.1,0c-0.3-0.3-0.6-0.6-0.8-0.9c-1-1.1-0.7-1.2-0.3-2.3
		c0.2-0.7,0.4-1.4,0.4-2.1c-0.4,0.7-1,1.2-1.6,1.8c0.2-1.5,0.4-3,0.1-4.4c-0.3,1.2-0.9,2.3-1.4,3.4c-0.3-1.1-0.6-2.1-1.2-3
		c0,1.1-0.2,2.2-0.3,3.3c-0.5-1-1-1.8-1.7-2.6c0.2,1.1,0.3,2.2,0.1,3.4C35.7,40.2,35.1,39.2,34.2,38.4z"/>
	<path class="st281" d="M34.8,45.3c-0.3,0.5-0.7,1.1-0.8,1.7c3.7-1,6.4-1,10.2-0.6c-0.1-0.4-0.3-0.7-0.6-1.1L34.8,45.3z"/>
	<path class="st281" d="M33.9,47.6c0,0.1,0,0.3,0,0.4c0,0.2,0,0.3,0.1,0.4c3.4-1,6.9-1.2,10.4-0.5c0-0.3,0-0.6-0.1-0.9
		C40.4,46.5,37.7,46.5,33.9,47.6z"/>
	<path class="st281" d="M34.1,48.9c0.1,0.3,0.2,0.6,0.3,0.9c3.1-1.2,6.5-1.1,9.6-0.2l0,0c0.1-0.3,0.2-0.7,0.3-1.1
		C40.9,47.7,37.4,47.9,34.1,48.9z"/>
	<path class="st131" d="M34.7,50.3c0.5,1,1.3,1.8,2.2,2.6c0.8,0.7,1.6,1.4,2.4,2.2c0.2,0.2,0.3,0.2,0.5,0c0.9-0.8,1.7-1.7,2.4-2.5
		c0.7-0.8,1.2-1.7,1.6-2.4C40.8,49.3,37.6,49.2,34.7,50.3z"/>
	<path class="st131" d="M49.6,42.9V29.3c-2.1-0.1-4.1-0.6-5.9-1.4h-1.4v10.7c0.2-0.2,0.4-0.5,0.6-0.7c0.2,1.3,0.1,2.6-0.3,3.8
		c-0.1,0.2-0.2,0.4-0.2,0.6v0.6H49.6z"/>
	<path class="st131" d="M42.3,83.6c2.3,0.8,4.7,1.3,7.3,1.3V50.4h-5.3c-0.4,0.8-1,1.7-1.6,2.5c-0.1,0.2-0.2,0.3-0.4,0.4V83.6z"/>
	<path class="st131" d="M26.7,50.4v10.9c0,6.5,2.6,12.5,6.9,16.8c0.4,0.4,0.8,0.8,1.3,1.2V51.5c-0.3-0.3-0.5-0.7-0.7-1.1H26.7z"/>
	<path class="st281" d="M35.6,37.6v1.5c0.1,0.1,0.1,0.2,0.2,0.3C35.8,38.8,35.7,38.2,35.6,37.6z"/>
	<path class="st281" d="M41.4,37.1v-9.2h-5.8v8.6c0.7,0.6,1.4,1.3,2,2.1c0.1-1,0.1-2,0-3c0.9,0.9,1.5,1.7,1.9,3
		c0.5-1.1,0.7-2.4,1.3-3.5C41.1,35.8,41.3,36.4,41.4,37.1z"/>
	<path class="st281" d="M44.7,49.6h4.9v-5.8H43c0.4,0.4,0.9,0.8,1.2,1.3c0.7,0.9,0.8,2,0.7,3.1C44.9,48.7,44.8,49.1,44.7,49.6z"/>
	<path class="st281" d="M35.6,52.5v27.5c1.7,1.4,3.7,2.5,5.8,3.4v-29c-0.4,0.4-0.7,0.7-1.1,1.1c-0.5,0.4-0.9,0.5-1.4,0
		c-0.8-0.7-1.5-1.4-2.3-2.1C36.2,53,35.9,52.8,35.6,52.5z"/>
	<path class="st281" d="M26.7,43.8v5.8h7.1c-0.2-0.5-0.3-1-0.4-1.5c-0.1-1.2,0.4-2,0.9-2.9c0.2-0.3,0.3-0.8,0.3-1.3L26.7,43.8
		L26.7,43.8z"/>
	<path class="st131" d="M26.7,27.9v15h7.9c-0.1-1.9-0.9-4.2-1.3-5.5c0.5,0,1.1,0.3,1.5,0.7V27.9H26.7z"/>
	<path class="st282" d="M50.4,85c3.4-0.1,6.6-0.9,9.6-2.3c0.4-0.4,0.7-0.9,0.7-1.5l-0.1-1c0,0-0.1-0.1-0.2-0.1
		c-0.3-0.1-0.5-0.2-0.8-0.3c-0.8-0.3-1.7-0.6-2.1-1.5c0.6-0.7,1.3-0.7,2.1-0.8c0.6-0.1,1.2-0.1,1.2-0.5c0-0.1,0-0.3,0-0.4
		c-0.1-0.8,0.3-1.4,1-1.9c0.7,0.5,1,1,1,1.9c0,0.1,0,0.3,0,0.4c0,0.4,0.6,0.5,1.2,0.5c0.8,0.1,1.5,0.1,2.1,0.8
		c0,0.1-0.1,0.1-0.1,0.2c0.1-0.1,0.3-0.3,0.4-0.4c0.9-0.9,1.8-2,2.5-3h-1.4h-2.3c0.5-0.5,1.2-1.2,1.1-2l-0.1-1c0,0-0.1-0.1-0.2-0.1
		c-0.3-0.1-0.5-0.2-0.8-0.3c-0.8-0.3-1.7-0.6-2.1-1.5c0.6-0.7,1.3-0.7,2.1-0.8c0.6,0,1.2-0.1,1.2-0.5c0-0.1,0-0.3,0-0.4
		c-0.1-0.8,0.3-1.4,1-1.9c0.7,0.5,1,1,1,1.9c0,0.1,0,0.3,0,0.4c0,0.4,0.6,0.5,1.2,0.5c0.7,0.1,1.4,0.1,1.9,0.6c0.4-1,0.7-2,1-3.1H71
		c0.5-0.5,1.2-1.2,1.1-2l-0.1-1c0,0-0.1-0.1-0.2-0.1c-0.3-0.1-0.5-0.2-0.8-0.3c-0.8-0.3-1.7-0.6-2.1-1.5c0.6-0.7,1.3-0.7,2.1-0.8
		c0.6-0.1,1.2-0.1,1.2-0.5c0-0.1,0-0.3,0-0.4c-0.1-0.8,0.3-1.4,0.9-1.8v-7.9H71c0.5-0.5,1.2-1.2,1.1-2l-0.1-1c0,0-0.1-0.1-0.2-0.1
		c-0.3-0.1-0.5-0.2-0.8-0.3c-0.8-0.3-1.7-0.6-2.1-1.5c0.6-0.7,1.3-0.7,2.1-0.8c0.6-0.1,1.2-0.1,1.2-0.5c0-0.1,0-0.3,0-0.4
		c-0.1-0.8,0.3-1.4,0.9-1.9v-7.8H71c0.5-0.5,1.2-1.2,1.1-2l-0.1-1c0,0-0.1-0.1-0.2-0.1c-0.3-0.1-0.5-0.2-0.8-0.3
		c-0.8-0.3-1.7-0.6-2.1-1.5c0.6-0.7,1.3-0.7,2.1-0.8c0.6,0,1.2-0.1,1.2-0.5h-9.6c0.1,0.4,0.6,0.4,1.2,0.5c0.8,0.1,1.5,0.1,2.1,0.8
		c-0.4,0.9-1.2,1.2-2.1,1.5c-0.3,0.1-0.6,0.2-0.8,0.3c-0.1,0.1-0.2,0.1-0.2,0.1l-0.1,1c-0.1,0.8,0.6,1.4,1.1,2h-2.3h-2.3
		c0.5-0.5,1.2-1.2,1.1-2l-0.1-1c0,0-0.1-0.1-0.2-0.1c-0.3-0.1-0.5-0.2-0.8-0.3c-0.8-0.3-1.7-0.6-2.1-1.5c0.6-0.7,1.3-0.7,2.1-0.8
		c0.6,0,1.2-0.1,1.2-0.5h-4.6c-0.7,0.3-1.4,0.6-2.1,0.8c0.2,0.1,0.4,0.3,0.5,0.4c-0.4,0.9-1.2,1.2-2.1,1.5c-0.3,0.1-0.6,0.2-0.8,0.3
		c-0.1,0.1-0.2,0.1-0.2,0.1l-0.1,1c-0.1,0.8,0.6,1.4,1.1,2h-2.3V42c0.7,0.5,1,1,0.9,1.9c0,0.1,0,0.3,0,0.4c0,0.4,0.6,0.5,1.2,0.5
		c0.8,0.1,1.5,0.1,2.1,0.8c-0.4,0.9-1.2,1.2-2.1,1.5c-0.3,0.1-0.6,0.2-0.8,0.3c-0.1,0.1-0.2,0.1-0.2,0.1l-0.1,1
		c-0.1,0.8,0.6,1.4,1.1,2h-2.3v7.9c0.7,0.5,1,1,0.9,1.8c0,0.1,0,0.3,0,0.4c0,0.4,0.6,0.5,1.2,0.5c0.8,0.1,1.5,0.1,2.1,0.8
		c-0.4,0.9-1.2,1.2-2.1,1.5c-0.3,0.1-0.6,0.2-0.8,0.3c-0.1,0.1-0.2,0.1-0.2,0.1l-0.1,1c-0.1,0.8,0.6,1.4,1.1,2h-2.3v7.8
		c0.7,0.5,1,1,0.9,1.9c0,0.1,0,0.3,0,0.4c0,0.4,0.6,0.5,1.2,0.5c0.8,0.1,1.5,0.1,2.1,0.8c-0.4,0.9-1.2,1.2-2.1,1.5
		c-0.3,0.1-0.6,0.2-0.8,0.3c-0.1,0.1-0.2,0.1-0.2,0.1l-0.1,1c-0.1,0.8,0.6,1.4,1.1,2h-2.3L50.4,85L50.4,85z M56.1,75h-2.3
		c0.5-0.5,1.2-1.2,1.1-2l-0.1-1c0,0-0.1-0.1-0.2-0.1c-0.3-0.1-0.5-0.2-0.8-0.3c-0.9-0.3-1.7-0.6-2.1-1.5c0.6-0.7,1.3-0.7,2.1-0.8
		c0.6,0,1.2-0.1,1.2-0.5c0-0.1,0-0.3,0-0.4c-0.1-0.8,0.3-1.4,1-1.9c0.7,0.5,1,1,1,1.9c0,0.1,0,0.3,0,0.4c0,0.4,0.6,0.5,1.2,0.5
		c0.8,0.1,1.6,0.1,2.1,0.8c-0.4,0.9-1.2,1.2-2.1,1.5c-0.3,0.1-0.6,0.2-0.8,0.3c-0.1,0.1-0.2,0.1-0.2,0.1l-0.1,1c0,0.8,0.6,1.4,1.1,2
		H56.1L56.1,75z M61.9,66.8h-2.3c0.5-0.5,1.2-1.2,1.1-2l-0.1-1c0,0-0.1-0.1-0.2-0.1c-0.3-0.1-0.5-0.2-0.8-0.3
		c-0.8-0.3-1.7-0.6-2.1-1.5c0.6-0.7,1.3-0.7,2.1-0.8c0.6-0.1,1.2-0.1,1.2-0.5c0-0.1,0-0.3,0-0.4c-0.1-0.8,0.3-1.4,1-1.9
		c0.7,0.5,1,1,1,1.9c0,0.1,0,0.3,0,0.4c0,0.4,0.6,0.5,1.2,0.5c0.8,0.1,1.5,0.1,2.1,0.8c-0.4,0.9-1.2,1.2-2.1,1.5
		c-0.3,0.1-0.6,0.2-0.8,0.3c-0.1,0.1-0.2,0.1-0.2,0.1l-0.1,1c-0.1,0.8,0.6,1.4,1.1,2H61.9L61.9,66.8z M67.6,58.6h-2.3
		c0.5-0.5,1.2-1.2,1.1-2l-0.1-1c0,0-0.1-0.1-0.2-0.1c-0.3-0.1-0.5-0.2-0.8-0.3c-0.8-0.3-1.7-0.6-2.1-1.5c0.6-0.7,1.3-0.7,2.1-0.8
		c0.6-0.1,1.2-0.1,1.2-0.5c0-0.1,0-0.3,0-0.4c-0.1-0.8,0.3-1.4,1-1.9c0.7,0.5,1,1,1,1.9c0,0.1,0,0.3,0,0.4c0,0.4,0.6,0.5,1.2,0.5
		c0.8,0.1,1.5,0.1,2.1,0.8c-0.4,0.9-1.2,1.2-2.1,1.5c-0.3,0.1-0.6,0.2-0.8,0.3c-0.1,0.1-0.2,0.1-0.2,0.1l-0.1,1c0,0.8,0.6,1.4,1.1,2
		H67.6L67.6,58.6z M61.9,50.4h-2.3c0.5-0.5,1.2-1.2,1.1-2l-0.1-1c0,0-0.1-0.1-0.2-0.1c-0.3-0.1-0.5-0.2-0.8-0.3
		c-0.8-0.3-1.7-0.6-2.1-1.5c0.6-0.7,1.3-0.7,2.1-0.8c0.6-0.1,1.2-0.1,1.2-0.5c0-0.1,0-0.3,0-0.4c-0.1-0.8,0.3-1.4,1-1.9
		c0.7,0.5,1,1,1,1.9c0,0.1,0,0.3,0,0.4c0,0.4,0.6,0.5,1.2,0.5c0.8,0.1,1.5,0.1,2.1,0.8c-0.4,0.9-1.2,1.2-2.1,1.5
		c-0.3,0.1-0.6,0.2-0.8,0.3c-0.1,0.1-0.2,0.1-0.2,0.1l-0.1,1c-0.1,0.8,0.6,1.4,1.1,2H61.9L61.9,50.4z M56.1,58.6h-2.3
		c0.5-0.5,1.2-1.2,1.1-2l-0.1-1c0,0-0.1-0.1-0.2-0.1c-0.3-0.1-0.5-0.2-0.8-0.3c-0.9-0.3-1.7-0.6-2.1-1.5c0.6-0.7,1.3-0.7,2.1-0.8
		c0.6-0.1,1.2-0.1,1.2-0.5c0-0.1,0-0.3,0-0.4c-0.1-0.8,0.3-1.4,1-1.9c0.7,0.5,1,1,1,1.9c0,0.1,0,0.3,0,0.4c0,0.4,0.6,0.5,1.2,0.5
		c0.8,0.1,1.6,0.1,2.1,0.8c-0.4,0.9-1.2,1.2-2.1,1.5c-0.3,0.1-0.6,0.2-0.8,0.3c-0.1,0.1-0.2,0.1-0.2,0.1l-0.1,1c0,0.8,0.6,1.4,1.1,2
		H56.1L56.1,58.6z M67.6,42.3h-2.3c0.5-0.5,1.2-1.2,1.1-2l-0.1-1c0,0-0.1-0.1-0.2-0.1c-0.3-0.1-0.5-0.2-0.8-0.3
		c-0.8-0.3-1.7-0.6-2.1-1.5c0.6-0.7,1.3-0.7,2.1-0.8c0.6-0.1,1.2-0.1,1.2-0.5c0-0.1,0-0.3,0-0.4c-0.1-0.8,0.3-1.4,1-1.9
		c0.7,0.5,1,1,1,1.9c0,0.1,0,0.3,0,0.4c0,0.4,0.6,0.5,1.2,0.5c0.8,0.1,1.5,0.1,2.1,0.8c-0.4,0.9-1.2,1.2-2.1,1.5
		c-0.3,0.1-0.6,0.2-0.8,0.3c-0.1,0.1-0.2,0.1-0.2,0.1l-0.1,1c0,0.8,0.6,1.4,1.1,2H67.6L67.6,42.3z M56.1,42.3h-2.3
		c0.5-0.5,1.2-1.2,1.1-2l-0.1-1c0,0-0.1-0.1-0.2-0.1c-0.3-0.1-0.5-0.2-0.8-0.3c-0.9-0.3-1.7-0.6-2.1-1.5c0.6-0.7,1.3-0.7,2.1-0.8
		c0.6-0.1,1.2-0.1,1.2-0.5c0-0.1,0-0.3,0-0.4c-0.1-0.8,0.3-1.4,1-1.9c0.7,0.5,1,1,1,1.9c0,0.1,0,0.3,0,0.4c0,0.4,0.6,0.5,1.2,0.5
		c0.8,0.1,1.6,0.1,2.1,0.8c-0.4,0.9-1.2,1.2-2.1,1.5c-0.3,0.1-0.6,0.2-0.8,0.3c-0.1,0.1-0.2,0.1-0.2,0.1l-0.1,1c0,0.8,0.6,1.4,1.1,2
		H56.1z"/>
	<path class="st28" d="M61.9,42.5c-0.4,0.4-0.5,0.7-0.5,1.2c0,0.2,0,0.3,0,0.5c0,0.8-0.8,0.9-1.7,0.9c-0.6,0.1-1.2,0.1-1.6,0.4
		c0.3,0.5,1.1,0.7,1.7,1c0.3,0.1,0.6,0.2,0.9,0.4c0.2,0.1,0.4,0.3,0.4,0.5l0.1,1c0,0.6-0.2,1.1-0.6,1.5h1.4h1.4
		c-0.4-0.4-0.6-0.9-0.6-1.5l0.1-1c0-0.2,0.2-0.4,0.4-0.5c0.3-0.2,0.6-0.2,0.9-0.4c0.6-0.2,1.4-0.5,1.7-1c-0.4-0.3-1-0.4-1.6-0.4
		c-0.9-0.1-1.6-0.1-1.7-0.9c0-0.2,0-0.3,0-0.5C62.4,43.2,62.3,42.9,61.9,42.5z"/>
	<path class="st28" d="M61.9,58.9c-0.4,0.4-0.5,0.7-0.5,1.2c0,0.1,0,0.3,0,0.5c0,0.8-0.8,0.9-1.7,0.9c-0.6,0-1.2,0.1-1.6,0.4
		c0.3,0.5,1.1,0.7,1.7,1c0.3,0.1,0.6,0.2,0.9,0.4c0.2,0.1,0.4,0.3,0.4,0.5l0.1,1c0,0.6-0.2,1.1-0.6,1.6h1.4h1.4
		c-0.4-0.4-0.6-1-0.6-1.6l0.1-1c0-0.2,0.2-0.4,0.4-0.5c0.3-0.2,0.6-0.3,0.9-0.4c0.6-0.2,1.4-0.5,1.7-1c-0.4-0.3-1-0.4-1.6-0.4
		c-0.9-0.1-1.6-0.1-1.7-0.9c0-0.2,0-0.3,0-0.5C62.4,59.6,62.3,59.3,61.9,58.9z"/>
	<path class="st28" d="M56.1,34.4c-0.4,0.4-0.5,0.7-0.5,1.2c0,0.1,0,0.3,0,0.5c-0.1,0.8-0.8,0.9-1.7,0.9c-0.6,0-1.2,0.1-1.6,0.4
		c0.3,0.5,1.1,0.8,1.7,1c0.3,0.1,0.6,0.2,0.9,0.4c0.2,0.1,0.4,0.3,0.4,0.5l0.1,1c0,0.6-0.2,1.1-0.6,1.6h1.4h1.4
		c-0.4-0.4-0.6-1-0.6-1.6l0.1-1c0-0.2,0.2-0.4,0.4-0.5c0.3-0.1,0.6-0.2,0.9-0.4c0.6-0.2,1.4-0.5,1.7-1c-0.4-0.3-1-0.4-1.6-0.4
		c-0.9-0.1-1.6-0.1-1.7-0.9c0-0.2,0-0.3,0-0.5C56.7,35,56.6,34.8,56.1,34.4z"/>
	<path class="st28" d="M67.6,34.4c-0.4,0.4-0.5,0.7-0.5,1.2c0,0.1,0,0.3,0,0.5c0,0.8-0.8,0.9-1.7,0.9c-0.6,0-1.2,0.1-1.6,0.4
		c0.3,0.5,1.1,0.8,1.7,1c0.3,0.1,0.6,0.2,0.9,0.4c0.2,0.1,0.4,0.3,0.4,0.5l0.1,1c0,0.6-0.2,1.1-0.6,1.6h1.4H69
		c-0.4-0.4-0.6-1-0.6-1.6l0.1-1c0-0.2,0.2-0.4,0.4-0.5c0.3-0.1,0.6-0.2,0.9-0.4c0.6-0.2,1.4-0.5,1.7-1c-0.4-0.3-1-0.4-1.6-0.4
		c-0.9-0.1-1.6-0.1-1.7-0.9c0-0.2,0-0.3,0-0.5C68.2,35,68.1,34.8,67.6,34.4z"/>
	<path class="st28" d="M56.1,50.7c-0.4,0.4-0.5,0.7-0.5,1.2c0,0.1,0,0.3,0,0.5c-0.1,0.8-0.8,0.9-1.7,0.9c-0.6,0.1-1.2,0.1-1.6,0.4
		c0.3,0.5,1.1,0.7,1.7,1c0.3,0.1,0.6,0.2,0.9,0.4c0.2,0.1,0.4,0.3,0.4,0.5l0.1,1c0,0.6-0.2,1.1-0.6,1.6h1.4h1.4
		c-0.4-0.4-0.6-1-0.6-1.6l0.1-1c0-0.2,0.2-0.4,0.4-0.5c0.3-0.2,0.6-0.3,0.9-0.4c0.6-0.2,1.4-0.5,1.7-1c-0.4-0.3-1-0.4-1.6-0.4
		c-0.9-0.1-1.6-0.1-1.7-0.9c0-0.2,0-0.3,0-0.5C56.7,51.4,56.6,51.1,56.1,50.7z"/>
	<path class="st28" d="M67.6,50.7c-0.4,0.4-0.5,0.7-0.5,1.2c0,0.1,0,0.3,0,0.5c0,0.8-0.8,0.9-1.7,0.9c-0.6,0.1-1.2,0.1-1.6,0.4
		c0.3,0.5,1.1,0.7,1.7,1c0.3,0.1,0.6,0.2,0.9,0.4c0.2,0.1,0.4,0.3,0.4,0.5l0.1,1c0,0.6-0.2,1.1-0.6,1.6h1.4H69
		c-0.4-0.4-0.6-1-0.6-1.6l0.1-1c0-0.2,0.2-0.4,0.4-0.5c0.3-0.2,0.6-0.3,0.9-0.4c0.6-0.2,1.4-0.5,1.7-1c-0.4-0.3-1-0.4-1.6-0.4
		c-0.9-0.1-1.6-0.1-1.7-0.9c0-0.2,0-0.3,0-0.5C68.2,51.4,68.1,51.1,67.6,50.7z"/>
	<path class="st28" d="M56.1,67.1c-0.4,0.4-0.5,0.7-0.5,1.2c0,0.1,0,0.3,0,0.5c-0.1,0.8-0.8,0.9-1.7,0.9c-0.6,0-1.2,0.1-1.6,0.4
		c0.3,0.5,1.1,0.8,1.7,1c0.3,0.1,0.6,0.2,0.9,0.4c0.2,0.1,0.4,0.3,0.4,0.5l0.1,1c0,0.6-0.2,1.1-0.6,1.6h1.4h1.4
		c-0.4-0.4-0.6-1-0.6-1.6l0.1-1c0-0.2,0.2-0.4,0.4-0.5c0.3-0.2,0.6-0.3,0.9-0.4c0.6-0.2,1.4-0.5,1.7-1c-0.4-0.3-1-0.4-1.6-0.4
		c-0.9-0.1-1.6-0.1-1.7-0.9c0-0.2,0-0.3,0-0.5C56.7,67.7,56.6,67.5,56.1,67.1z"/>
	<path class="st28" d="M50.4,75.2v7.5h1.3c-0.4-0.4-0.6-1-0.6-1.6l0.1-1c0-0.2,0.2-0.4,0.4-0.5c0.3-0.1,0.6-0.2,0.9-0.4
		c0.6-0.2,1.4-0.5,1.7-1c-0.4-0.3-1-0.4-1.6-0.4c-0.9-0.1-1.6-0.1-1.7-0.9c0-0.2,0-0.3,0-0.5C51,75.9,50.9,75.6,50.4,75.2z"/>
	<path class="st28" d="M50.4,58.9v7.5h1.3c-0.4-0.4-0.6-1-0.6-1.6l0.1-1c0-0.2,0.2-0.4,0.4-0.5c0.3-0.2,0.6-0.3,0.9-0.4
		c0.6-0.2,1.4-0.5,1.7-1c-0.4-0.3-1-0.4-1.6-0.4c-0.9-0.1-1.6-0.1-1.7-0.9c0-0.2,0-0.3,0-0.5C51,59.6,50.9,59.3,50.4,58.9z"/>
	<path class="st28" d="M50.4,42.5V50h1.3c-0.4-0.4-0.6-0.9-0.6-1.5l0.1-1c0-0.2,0.2-0.4,0.4-0.5c0.3-0.2,0.6-0.2,0.9-0.4
		c0.6-0.2,1.4-0.5,1.7-1c-0.4-0.3-1-0.4-1.6-0.4c-0.9-0.1-1.6-0.1-1.7-0.9c0-0.2,0-0.3,0-0.5C51,43.2,50.9,43,50.4,42.5z"/>
	<path class="st28" d="M53.4,28.9c-1,0.2-2,0.4-3,0.4v4.3h1.3c-0.4-0.4-0.6-1-0.6-1.6l0.1-1c0-0.2,0.2-0.4,0.4-0.5
		c0.3-0.2,0.6-0.3,0.9-0.4c0.6-0.2,1.4-0.5,1.7-1C54,29.1,53.7,29,53.4,28.9z"/>
	<path class="st28" d="M62.4,27.9h-1c0,0.8-0.8,0.9-1.7,0.9c-0.6,0-1.2,0.1-1.6,0.4c0.3,0.5,1.1,0.8,1.7,1c0.3,0.1,0.6,0.2,0.9,0.4
		c0.2,0.1,0.4,0.3,0.4,0.5l0.1,1c0,0.6-0.2,1.1-0.6,1.6h1.4h1.4c-0.4-0.4-0.6-1-0.6-1.6l0.1-1c0-0.2,0.2-0.4,0.4-0.5
		c0.3-0.2,0.6-0.3,0.9-0.4c0.6-0.2,1.4-0.5,1.7-1c-0.4-0.3-1-0.4-1.6-0.4C63.2,28.8,62.4,28.7,62.4,27.9z"/>
	<path class="st28" d="M73.3,33.7v-5.8h-0.5c0,0.8-0.8,0.9-1.7,0.9c-0.6,0-1.2,0.1-1.6,0.4c0.3,0.5,1.1,0.8,1.7,1
		c0.3,0.1,0.6,0.2,0.9,0.4c0.2,0.1,0.4,0.3,0.4,0.5l0.1,1c0,0.6-0.2,1.1-0.6,1.6L73.3,33.7L73.3,33.7z"/>
	<path class="st28" d="M73.3,50v-7.5c-0.4,0.4-0.5,0.7-0.5,1.2c0,0.2,0,0.3,0,0.5c0,0.8-0.8,0.9-1.7,0.9c-0.6,0.1-1.2,0.1-1.6,0.4
		c0.3,0.5,1.1,0.7,1.7,1c0.3,0.1,0.6,0.2,0.9,0.4c0.2,0.1,0.4,0.3,0.4,0.5l0.1,1c0,0.6-0.2,1.1-0.6,1.5L73.3,50L73.3,50z"/>
	<path class="st28" d="M72.8,66.3c0.4-1.6,0.5-3.3,0.5-5.1v-2.4c-0.4,0.4-0.5,0.7-0.5,1.2c0,0.1,0,0.3,0,0.5c0,0.8-0.8,0.9-1.7,0.9
		c-0.6,0-1.2,0.1-1.6,0.4c0.3,0.5,1.1,0.7,1.7,1c0.3,0.1,0.6,0.2,0.9,0.4c0.2,0.1,0.4,0.3,0.4,0.5l0.1,1c0,0.6-0.2,1.1-0.6,1.6
		L72.8,66.3L72.8,66.3z"/>
	<path class="st282" d="M69.4,74.4c0.7-1.1,1.4-2.3,2-3.6c-0.4,0.4-1,0.5-1.5,0.7c-0.3,0.1-0.6,0.2-0.8,0.3
		c-0.1,0.1-0.2,0.1-0.2,0.1l-0.1,1C68.8,73.5,69.1,74,69.4,74.4z"/>
	<path class="st282" d="M63.1,80.9c0.7-0.5,1.4-1,2-1.6c-0.3,0.2-0.7,0.3-1,0.4c-0.3,0.1-0.6,0.2-0.8,0.3c-0.1,0.1-0.2,0.1-0.2,0.1
		L63.1,80.9z"/>
	<path class="st28" d="M60.9,82.2c0.6-0.3,1.2-0.7,1.8-1.1c0,0,0,0,0,0l0.1-1c0-0.2,0.2-0.4,0.4-0.5c0.3-0.1,0.6-0.2,0.9-0.4
		c0.6-0.2,1.4-0.5,1.7-1c-0.4-0.3-1-0.4-1.6-0.4c-0.9-0.1-1.6-0.1-1.7-0.9c0-0.2,0-0.3,0-0.5c0.1-0.6-0.1-0.9-0.5-1.2
		c-0.4,0.4-0.5,0.7-0.5,1.2c0,0.1,0,0.3,0,0.5c0,0.8-0.8,0.9-1.7,0.9c-0.6,0-1.2,0.1-1.6,0.4c0.3,0.5,1.1,0.8,1.7,1
		c0.3,0.1,0.6,0.2,0.9,0.4c0.2,0.1,0.4,0.3,0.4,0.5l0.1,1C61.2,81.5,61,81.9,60.9,82.2z"/>
	<path class="st28" d="M67.6,67.1c-0.4,0.4-0.5,0.7-0.5,1.2c0,0.1,0,0.3,0,0.5c0,0.8-0.8,0.9-1.7,0.9c-0.6,0-1.2,0.1-1.6,0.4
		c0.3,0.5,1.1,0.8,1.7,1c0.3,0.1,0.6,0.2,0.9,0.4c0.2,0.1,0.4,0.3,0.4,0.5l0.1,1c0,0.6-0.2,1.1-0.6,1.6h1.4H69
		c-0.4-0.4-0.6-1-0.6-1.6l0.1-1c0-0.2,0.2-0.4,0.4-0.5c0.3-0.2,0.6-0.3,0.9-0.4c0.6-0.2,1.4-0.5,1.7-1c-0.4-0.3-1-0.4-1.6-0.4
		c-0.9-0.1-1.6-0.1-1.7-0.9c0-0.2,0-0.3,0-0.5C68.2,67.7,68.1,67.5,67.6,67.1z"/>
</g>
</svg>
