<?xml version="1.0" encoding="utf-8"?>
<!-- Generator: Adobe Illustrator 19.2.1, SVG Export Plug-In . SVG Version: 6.00 Build 0)  -->
<svg version="1.1" id="Capa_1" xmlns="http://www.w3.org/2000/svg" xmlns:xlink="http://www.w3.org/1999/xlink" x="0px" y="0px"
	 viewBox="0 0 100 100" style="enable-background:new 0 0 100 100;" xml:space="preserve">
<style type="text/css">
	.st0{fill:url(#path34_4_);}
	.st1{fill:url(#path890_1_);}
	.st2{fill:#FFE500;stroke:#000000;stroke-width:2.098;stroke-miterlimit:3.863;}
	.st3{fill:#DA020E;}
	.st4{fill:#FFE500;}
	.st5{clip-path:url(#SVGID_2_);}
	.st6{fill:none;stroke:#B54005;stroke-width:10;stroke-miterlimit:3.863;}
	.st7{fill:url(#path7506_1_);}
	.st8{fill:url(#path8794_1_);}
	.st9{fill:url(#path15846_1_);}
	.st10{fill:url(#path16274_1_);}
	.st11{fill:url(#path39821_1_);}
	.st12{fill:url(#path39847_1_);}
	.st13{fill:url(#path39878_1_);}
	.st14{fill:url(#path39888_1_);}
	.st15{fill:url(#path41035_1_);}
	.st16{fill:url(#path9646-8_1_);}
	.st17{fill:url(#path41092_1_);}
	.st18{fill:url(#path41094_1_);}
	.st19{fill:none;stroke:#000000;stroke-width:2.098;stroke-miterlimit:3.863;}
	.st20{fill:url(#path41152_1_);}
	.st21{fill:url(#path39854_1_);}
	.st22{fill:url(#path39874_1_);}
	.st23{fill:#9C824A;stroke:#9C824A;stroke-width:0.793;stroke-miterlimit:282;}
	.st24{fill:#023474;stroke:#023474;stroke-width:0.793;stroke-miterlimit:282;}
	.st25{fill:#FFFFFF;stroke:#FFFFFF;stroke-width:0.793;stroke-miterlimit:282;}
	.st26{fill:#EF0107;stroke:#EF0107;stroke-width:0.793;stroke-miterlimit:282;}
	.st27{fill:#DB0007;stroke:#DB0007;stroke-width:0.793;stroke-miterlimit:282;}
	.st28{fill:#FFFFFF;}
	.st29{fill:#9C824A;}
	.st30{fill:#EF0107;stroke:#EF0107;stroke-width:0.3115;stroke-miterlimit:282;}
	.st31{fill:#DB0007;stroke:#DB0007;stroke-width:0.3115;stroke-miterlimit:282;}
	.st32{fill:#DB0007;}
	.st33{fill:#FFFFFF;stroke:#FFFFFF;stroke-width:0.3115;stroke-miterlimit:282;}
	.st34{fill:#FFFFFF;stroke:#FFFFFF;stroke-width:0.554;stroke-miterlimit:3.864;}
	.st35{fill:#231F20;}
	.st36{fill:#00B6F1;stroke:#00B6F1;stroke-width:1.700000e-02;stroke-miterlimit:3.864;}
	.st37{fill:#EF3E2E;}
	.st38{fill:#BBBDBF;}
	.st39{fill:#F0B83D;}
	.st40{fill:#00B6F1;stroke:#FFFFFF;stroke-width:1.700000e-02;stroke-miterlimit:3.864;}
	.st41{fill:#001C58;}
	.st42{fill:#94BEE5;}
	.st43{fill:none;stroke:#7A003C;stroke-width:2.2437;stroke-miterlimit:6;}
	.st44{fill:#7A003C;}
	.st45{fill:#FFE600;}
	.st46{fill:#DBA111;}
	.st47{fill:#034694;}
	.st48{fill:#D1D3D4;}
	.st49{fill:#ED1C24;}
	.st50{fill:#6A7AB5;}
	.st51{fill:none;}
	.st52{fill:#274488;}
	.st53{fill:#004798;stroke:#004798;stroke-width:9.375000e-02;}
	.st54{fill:#FFFFFF;stroke:#FFFFFF;stroke-width:9.375000e-02;}
	.st55{fill:#FABC00;stroke:#FABC00;stroke-width:9.375000e-02;}
	.st56{fill:none;stroke:#FFFFFF;stroke-width:7.865;stroke-miterlimit:3.864;}
	.st57{fill:none;stroke:#FFFFFF;stroke-width:7.865;stroke-miterlimit:12;}
	.st58{fill:none;stroke:#FFFFFF;stroke-width:7.865;stroke-miterlimit:22;}
	.st59{fill:none;stroke:#FFFFFF;stroke-width:7.865;stroke-miterlimit:6;}
	.st60{fill:#00A398;}
	.st61{fill:#D00027;}
	.st62{fill:none;stroke:#FFFFFF;stroke-width:17.3907;stroke-miterlimit:3.864;}
	.st63{fill:none;stroke:#FFFFFF;stroke-width:13.1107;stroke-miterlimit:3.864;}
	.st64{fill:#FEF667;}
	.st65{fill:#D00027;stroke:#D00027;}
	.st66{fill:#5299C6;}
	.st67{fill:#60223B;}
	.st68{fill:#F7C240;}
	.st69{fill:#292D6B;}
	.st70{fill:#1B458F;}
	.st71{fill:#C4122E;}
	.st72{fill:#27409B;}
	.st73{clip-path:url(#SVGID_4_);}
	.st74{fill:#F4F4F4;}
	.st75{fill:#D3D2D2;}
	.st76{fill:#A7A5A6;}
	.st77{fill:#091453;}
	.st78{fill:none;stroke:#FFFFFF;stroke-width:6.6301;}
	.st79{clip-path:url(#SVGID_6_);}
	.st80{fill:#724314;}
	.st81{fill:#240B08;}
	.st82{fill:#018B4B;}
	.st83{fill:#A6181D;}
	.st84{fill:#592D09;}
	.st85{fill:#FFCE65;}
	.st86{fill:#5CBFEB;}
	.st87{fill:none;stroke:#000000;stroke-width:10;}
	.st88{fill:none;stroke:#000000;}
	.st89{fill:#B2B2B2;}
	.st90{fill:none;stroke:#000000;stroke-width:0.3;}
	.st91{fill:#00A650;stroke:#000000;stroke-width:2;}
	.st92{fill:#241F20;stroke:#241F20;stroke-width:9.375000e-02;}
	.st93{fill:#FFF200;stroke:#FFF200;stroke-width:9.375000e-02;}
	.st94{fill:#A68A26;}
	.st95{fill:none;stroke:#A68A26;stroke-width:4.792100e-02;stroke-miterlimit:3.8637;}
	.st96{fill:#211E1E;}
	.st97{fill:none;stroke:#211E1E;stroke-width:4.792100e-02;stroke-miterlimit:3.8637;}
	.st98{fill:#EB172B;}
	.st99{fill:none;stroke:#EB172B;stroke-width:4.792100e-02;stroke-miterlimit:3.8637;}
	.st100{fill:#A68A26;stroke:#A68A26;stroke-width:4.792100e-02;stroke-miterlimit:3.8637;}
	.st101{fill:#D1BF7F;}
	.st102{fill:none;stroke:#D1BF7F;stroke-width:4.792100e-02;stroke-miterlimit:3.8637;}
	.st103{fill:none;stroke:#FFFFFF;stroke-width:4.792100e-02;stroke-miterlimit:3.8637;}
	.st104{fill:#EB172B;stroke:#EB172B;stroke-width:4.792100e-02;stroke-miterlimit:3.8637;}
	.st105{fill:#ED2127;}
	.st106{fill:#FBEE23;}
	.st107{stroke:#000000;}
	.st108{fill:#CF1F44;}
	.st109{fill:#1B449C;}
	.st110{fill:#E03A3E;}
	.st111{fill:#E03A3E;stroke:#E03A3E;stroke-width:0.6565;}
	.st112{fill:none;stroke:#1B449C;stroke-width:0.7493;}
	.st113{fill:none;stroke:#1B449C;stroke-width:0.7567;}
	.st114{fill:#1B449C;stroke:#1B449C;stroke-width:0.6274;}
	.st115{fill:#1B449C;stroke:#1B449C;stroke-width:0.6755;}
	.st116{fill:#2E6ABD;stroke:#2E6ABD;stroke-width:0.617;}
	.st117{fill:#FFFFFF;stroke:#FFFFFF;stroke-width:0.6175;}
	.st118{fill:#ED1248;}
	.st119{fill:#2E6ABD;}
	.st120{fill:#FDE100;}
	.st121{fill:#CC0000;}
	.st122{fill:#211E1F;}
	.st123{fill:#ED1A3B;}
	.st124{fill:#00AEEF;}
	.st125{fill:#FFC40D;}
	.st126{fill:#22B24C;}
	.st127{fill:#FFC20E;}
	.st128{fill:#0A3F86;}
	.st129{fill:#005CA9;}
	.st130{fill:#FFE000;}
	.st131{fill:#E2001A;}
	.st132{opacity:0;}
	.st133{opacity:0;fill:#FFFFFF;}
	.st134{fill:#FFFFFF;stroke:#000000;}
	.st135{fill:#0060A9;}
	.st136{fill:#E32219;}
	.st137{fill:#FFED00;}
	.st138{fill:#1D9053;}
	.st139{fill:#52A600;}
	.st140{fill:#EE2523;}
	.st141{fill:#F7D117;}
	.st142{fill:#171796;}
	.st143{fill:#009959;}
	.st144{fill:#D42E12;}
	.st145{fill:#703824;}
	.st146{fill:#E5254E;}
	.st147{fill:#8AC3EE;}
	.st148{fill:#B19221;}
	.st149{fill:#F5C03E;}
	.st150{fill:#FF1119;}
	.st151{fill:#1E6BC0;}
	.st152{fill:#B4742A;}
	.st153{fill:#371B02;}
	.st154{fill:url(#SVGID_7_);}
	.st155{fill:url(#SVGID_8_);}
	.st156{fill:url(#SVGID_9_);}
	.st157{fill:url(#SVGID_10_);}
	.st158{fill:url(#SVGID_11_);}
	.st159{fill:url(#SVGID_12_);}
	.st160{fill:url(#SVGID_13_);}
	.st161{fill:url(#SVGID_14_);}
	.st162{fill:url(#SVGID_15_);}
	.st163{fill:url(#SVGID_16_);}
	.st164{fill:#EB2626;}
	.st165{fill:#E9C32C;}
	.st166{fill:#D9D9D9;}
	.st167{fill:#009C5E;}
	.st168{fill:#1C75BC;}
	.st169{fill:#611D5C;}
	.st170{fill:#E2B900;}
	.st171{fill:#004B95;}
	.st172{fill:#A4234B;}
	.st173{fill:#DB2F36;}
	.st174{fill:#FFDF00;}
	.st175{fill:#A38D44;}
	.st176{fill:#57175E;}
	.st177{fill:#AFDCFD;}
	.st178{fill:#0090C6;}
	.st179{fill:#DB5232;}
	.st180{fill:#23C1E0;}
	.st181{fill:#F1A92A;}
	.st182{fill:#167FB6;}
	.st183{fill:#FED75D;}
	.st184{fill:#378CBF;}
	.st185{fill:#3E9692;}
	.st186{fill:#E67F29;}
	.st187{fill:#D8B43C;}
	.st188{fill:#EF3B33;}
	.st189{fill:#24923D;}
	.st190{opacity:6.000001e-02;fill:#101010;enable-background:new    ;}
	.st191{fill:#00529F;}
	.st192{fill:#EE324E;}
	.st193{fill:#FEBE10;}
	.st194{fill:#143C8B;}
	.st195{fill:#FFE24A;}
	.st196{fill:#EC1D24;}
	.st197{fill:#E6A514;}
	.st198{fill:#FFDF1C;}
	.st199{fill:#EE3524;}
	.st200{fill:#B23428;}
	.st201{fill:#D18816;}
	.st202{fill:#0097D7;}
	.st203{fill:#ED1C23;}
	.st204{fill:#E30613;}
	.st205{fill:#FFE400;}
	.st206{fill:#C51A1B;}
	.st207{clip-path:url(#SVGID_19_);}
	.st208{clip-path:url(#SVGID_20_);fill:none;stroke:#000000;stroke-width:0.8131;stroke-miterlimit:3.864;}
	.st209{fill:#0093D5;}
	.st210{fill:#004B9D;}
	.st211{fill:#FCC24F;}
	.st212{fill:#009545;}
	.st213{fill:#0072BB;}
	.st214{fill:#C4974E;}
	.st215{fill:url(#path1292_1_);}
	.st216{fill:#004996;}
	.st217{fill:#FFE667;}
	.st218{fill:none;stroke:#005187;stroke-width:0.153;stroke-miterlimit:3.864;}
	.st219{fill:#005187;}
	.st220{clip-path:url(#SVGID_22_);}
	.st221{clip-path:url(#SVGID_24_);fill:none;stroke:#000000;stroke-width:0.296;stroke-miterlimit:3.864;}
	.st222{clip-path:url(#SVGID_26_);fill:#FFE667;}
	.st223{clip-path:url(#SVGID_28_);fill:none;stroke:#000000;stroke-width:8.300000e-02;stroke-miterlimit:3.864;}
	.st224{fill:none;stroke:#000000;stroke-width:0.153;stroke-miterlimit:3.864;}
	.st225{clip-path:url(#SVGID_30_);fill:#E70005;}
	.st226{clip-path:url(#SVGID_32_);fill:none;stroke:#E70005;stroke-width:0.296;stroke-miterlimit:3.864;}
	.st227{clip-path:url(#SVGID_34_);fill:#E70005;}
	.st228{clip-path:url(#SVGID_36_);fill:none;stroke:#E70005;stroke-width:0.296;stroke-miterlimit:3.864;}
	.st229{clip-path:url(#SVGID_38_);fill:#E70005;}
	.st230{clip-path:url(#SVGID_40_);fill:none;stroke:#E70005;stroke-width:0.296;stroke-miterlimit:3.864;}
	.st231{clip-path:url(#SVGID_42_);fill:#E70005;}
	.st232{clip-path:url(#SVGID_44_);fill:none;stroke:#E70005;stroke-width:0.296;stroke-miterlimit:3.864;}
	.st233{fill:#E70005;}
	.st234{fill:none;stroke:#000000;stroke-width:0.141;stroke-miterlimit:3.864;}
	.st235{fill:#00276D;}
	.st236{fill:#C49308;}
	.st237{fill:#179D33;}
	.st238{fill:#999999;}
	.st239{fill:#FF0000;}
	.st240{fill:#E31837;}
	.st241{fill:#06357A;}
	.st242{fill:#B4053F;}
	.st243{fill:#DCA43E;}
	.st244{fill:#005CA5;}
	.st245{fill:#FAC400;}
	.st246{fill:#004083;}
	.st247{fill:#A95932;}
	.st248{fill:none;stroke:#000000;stroke-width:1.2215;}
	.st249{fill:#E62627;}
	.st250{fill:#00458C;}
	.st251{fill:#E11B22;}
	.st252{fill:#00AB4E;}
	.st253{fill:#F47920;}
	.st254{fill:#C7C8CA;}
	.st255{fill:#E11515;}
	.st256{fill:#A4965F;}
	.st257{fill:#E51636;}
	.st258{fill:#EACC00;}
	.st259{fill:#4F846B;}
	.st260{fill:#E22227;}
	.st261{fill:#FAE700;}
	.st262{fill:url(#SVGID_45_);}
	.st263{fill:#666666;}
	.st264{fill:#FFF200;}
	.st265{fill:#00275D;}
	.st266{fill:#EF3E33;}
	.st267{fill:none;stroke:#00275D;stroke-width:2.632;}
	.st268{fill:#3F7652;}
	.st269{fill:#F1D261;}
	.st270{fill:#004D8F;}
	.st271{fill:#E7B137;stroke:#E7B137;stroke-miterlimit:10;}
	.st272{fill:#E7B137;}
	.st273{fill:#162577;}
	.st274{fill:#12692C;}
	.st275{fill:#D8141D;}
	.st276{fill:#AB830D;}
	.st277{fill:#0086CB;}
	.st278{fill:#001F42;}
	.st279{fill:#9A8F4A;}
	.st280{fill:#00559D;}
	.st281{fill:#FDDE00;}
	.st282{fill:#00924C;}
	.st283{fill:#233984;}
	.st284{fill:#FFD42E;}
	.st285{fill:#BA3733;}
	.st286{fill:#46714D;}
	.st287{fill:#221F1F;}
	.st288{fill:#00559E;}
	.st289{fill:#005C46;}
	.st290{fill:#FBC860;}
	.st291{fill:#D57C48;}
	.st292{fill:#040403;}
	.st293{fill:#4AB969;}
	.st294{fill:#8ED8F8;}
	.st295{fill:#FEC34E;}
	.st296{fill:#FFC95B;}
	.st297{fill:#00644C;}
	.st298{fill:#70B865;}
	.st299{fill:#CA6F44;}
	.st300{fill:#A8B8BE;}
	.st301{fill:#1C2C80;}
	.st302{fill:#E10321;}
	.st303{fill:none;stroke:#231F20;stroke-width:0.318;stroke-miterlimit:3.864;}
	.st304{fill:#D71920;}
	.st305{fill:#484749;}
	.st306{fill:#D9DBDC;}
	.st307{fill:#DF725A;}
	.st308{fill:#F2CABA;}
	.st309{fill:#E89C84;}
	.st310{fill:#264F99;}
	.st311{clip-path:url(#SVGID_47_);}
	.st312{fill:#161413;}
	.st313{fill:#ED1B26;}
	.st314{fill:#E60D2E;}
	.st315{fill:#FCD600;}
	.st316{fill:#004D91;}
	.st317{fill:#EAB412;}
	.st318{fill:#FDD31D;}
	.st319{fill:#EFB800;}
	.st320{fill:#1F53A9;}
	.st321{fill:#122657;}
</style>
<g>
	<path  class="st320" d="M78.4,72.3c4.9-6.2,7.8-13.9,7.8-22.4c0-18.3-13.6-33.4-31.3-35.8
		C54.9,45,66.6,61.8,78.4,72.3"/>
	<path  class="st28" d="M100,50c0,27.6-22.4,49.9-50,49.9C22.4,99.9,0,77.6,0,50
		C0,22.4,22.4,0.1,50,0.1C77.6,0.1,100,22.4,100,50"/>
	<path class="st321" d="M50,99.9c-3.4,0-6.8-0.3-10.1-1c-3.2-0.7-6.4-1.6-9.4-2.9c-3-1.3-5.8-2.8-8.5-4.6c-2.6-1.8-5.1-3.8-7.4-6.1
		c-2.3-2.3-4.3-4.7-6.1-7.4c-1.8-2.7-3.4-5.5-4.6-8.5c-1.3-3-2.3-6.2-2.9-9.4C0.3,56.8,0,53.4,0,50c0-3.4,0.3-6.8,1-10.1
		c0.7-3.2,1.6-6.4,2.9-9.4c1.3-3,2.8-5.8,4.6-8.5c1.8-2.6,3.8-5.1,6.1-7.4c2.3-2.3,4.8-4.3,7.4-6.1c2.7-1.8,5.5-3.4,8.5-4.6
		c3-1.3,6.2-2.3,9.4-2.9c3.3-0.7,6.7-1,10.1-1c3.4,0,6.8,0.3,10.1,1c3.2,0.7,6.4,1.6,9.4,2.9c3,1.3,5.8,2.8,8.5,4.6
		c2.6,1.8,5.1,3.8,7.4,6.1c2.3,2.3,4.3,4.7,6.1,7.4c1.8,2.7,3.4,5.5,4.6,8.5c1.3,3,2.3,6.2,2.9,9.4c0.7,3.3,1,6.7,1,10.1
		c0,3.4-0.3,6.8-1,10.1c-0.7,3.2-1.6,6.4-2.9,9.4c-1.3,3-2.8,5.8-4.6,8.5c-1.8,2.6-3.8,5.1-6.1,7.4c-2.3,2.3-4.8,4.3-7.4,6.1
		c-2.7,1.8-5.5,3.4-8.5,4.6c-3,1.3-6.2,2.3-9.4,2.9C56.8,99.6,53.4,99.9,50,99.9z M50,0.1c-3.4,0-6.8,0.3-10.1,1
		c-3.2,0.7-6.4,1.6-9.4,2.9c-3,1.3-5.8,2.8-8.5,4.6c-2.6,1.8-5.1,3.8-7.4,6.1c-2.3,2.3-4.3,4.7-6.1,7.4c-1.8,2.7-3.4,5.5-4.6,8.5
		c-1.3,3-2.3,6.2-2.9,9.4C0.3,43.2,0,46.6,0,50c0,3.4,0.3,6.8,1,10.1c0.7,3.2,1.6,6.4,2.9,9.4c1.3,3,2.8,5.8,4.6,8.5
		c1.8,2.6,3.8,5.1,6.1,7.4c2.3,2.3,4.8,4.3,7.4,6.1c2.7,1.8,5.5,3.4,8.5,4.6c3,1.3,6.2,2.3,9.4,2.9c3.3,0.7,6.7,1,10.1,1
		c3.4,0,6.8-0.3,10.1-1c3.2-0.7,6.4-1.6,9.4-2.9c3-1.3,5.8-2.8,8.5-4.6c2.6-1.8,5.1-3.8,7.4-6.1c2.3-2.3,4.3-4.7,6.1-7.4
		c1.8-2.7,3.4-5.5,4.6-8.5c1.3-3,2.3-6.2,2.9-9.4c0.7-3.3,1-6.7,1-10.1c0-3.4-0.3-6.8-1-10.1c-0.7-3.2-1.6-6.4-2.9-9.4
		c-1.3-3-2.8-5.8-4.6-8.5c-1.8-2.6-3.8-5.1-6.1-7.4c-2.3-2.3-4.8-4.3-7.4-6.1c-2.7-1.8-5.5-3.4-8.5-4.6c-3-1.3-6.2-2.3-9.4-2.9
		C56.8,0.4,53.4,0.1,50,0.1z"/>
	<path  class="st321" d="M98.2,50.1c0,26.6-21.6,48.2-48.2,48.2S1.7,76.7,1.7,50.1
		S23.3,1.9,49.9,1.9S98.2,23.5,98.2,50.1"/>
	<path  class="st28" d="M12,50.2c0,20.9,17,37.9,37.9,37.9c21,0,37.9-17,37.9-37.9
		c0-20.9-17-37.9-37.9-37.9C29,12.3,12,29.3,12,50.2"/>
	<path  class="st49" d="M50,61.4c14.5,0,16.9,11.6,16.5,21.4c3.9-1.9,7.3-4.5,10.2-7.6
		c-6-6.2-11.7-13-16-22.2H39.3c-4.2,9.2-9.9,16-16,22.2c2.9,3.1,6.4,5.7,10.2,7.6C33.1,72.9,35.5,61.4,50,61.4"/>
	<path  class="st49" d="M60.3,52c-4.2-9.5-6.9-21.6-6.9-38.2c-1.1-0.1-2.3-0.2-3.5-0.2
		c-1.2,0-2.3,0.1-3.5,0.2c0,16.7-2.7,28.7-6.9,38.2"/>
	<path  class="st321" d="M21.3,72.8c-4.9-6.2-7.9-14.1-7.9-22.6c0-18.5,13.8-33.8,31.6-36.2
		C45.1,45.1,33.2,62.1,21.3,72.8"/>
	<path  class="st321" d="M50,86.6c4.1,0,8.1-0.7,11.8-1.9C65.4,75,63.1,62.3,50,62.3
		c-13.1,0-15.4,12.7-11.8,22.5C41.9,86,45.9,86.6,50,86.6"/>
	<path  class="st321" d="M78.7,72.8c4.9-6.2,7.9-14.1,7.9-22.6c0-18.5-13.8-33.8-31.6-36.2
		C54.9,45.1,66.8,62.1,78.7,72.8"/>
	<path  class="st28" d="M54.1,69.9v7H40c0,0,0.6,0.2,1,1c0.4,0.7,0.6,1.9,1.5,2.8
		c0.9,0.8,1.3,1,3,1c0.2,0,0.6,0.5,0.6,1h0.2c0-0.5,0.5-1,0.6-1c1.7,0,4.2,0,6.5,0c0.2,0,0.6,0.5,0.6,1h0.2c0-0.5,0.5-1,0.6-1
		c3.5,0,4.4-2.2,4.4-4.8C59.3,73,57.4,69.9,54.1,69.9"/>
	<path  class="st28" d="M49.9,69.7c-0.3,0-0.5,0-0.7,0.9c-0.2,0.9-0.8,1.2-1.2,1.2
		c-0.1,0-0.2,0-0.3,0c0-0.7,0-1.3,0-1.3c0.8-1.2,0.8-2.3-0.3-3.4c-1,1.1-1.1,2.2-0.3,3.4c0,0,0,0.7,0,1.3c-0.1,0-0.2,0-0.3,0
		c-0.4,0-0.9-0.3-1.2-1.2c-0.2-0.9-0.4-0.9-0.7-0.9c-0.2,0-0.8,0.2-0.7,0.7c0.1,0.5,0.4,0.9,0.6,0.8c0.1-0.1,0.1-0.2,0.2-0.3
		c0.1-0.1,0.2-0.1,0.4,0.1c0.2,0.2,0.4,0.9,0.9,1.4c0.4,0.4,0.7,0.4,0.9,0.4c0,0.2,0,0.4,0,0.5c0,0.4-0.4,0.5-0.4,0.5l0.7,0.7
		l0.7-0.7c0,0-0.4-0.1-0.4-0.5c0-0.1,0-0.3,0-0.5c0.2,0,0.5-0.1,0.9-0.4c0.5-0.5,0.7-1.2,0.9-1.4c0.2-0.2,0.3-0.2,0.4-0.1
		c0.1,0.1,0,0.3,0.2,0.3c0.2,0.1,0.5-0.3,0.6-0.8C50.7,69.9,50.1,69.7,49.9,69.7"/>
	<path  class="st28" d="M40.8,90.3L41,89l2.3,0.4l-1,5.7l-1.5-0.3l0.8-4.4"/>
	<path  class="st28" d="M47.7,91.8c0-0.5-0.4-1-0.9-1c-0.5,0-1,0.4-1,0.9c0,0.5,0.4,1,0.9,1
		C47.2,92.7,47.7,92.3,47.7,91.8z M45.1,95.5l1.5-1.6l-0.1,0l-0.1,0l-0.2,0c-0.2,0-0.5-0.1-0.7-0.2c-0.8-0.4-1.3-1.1-1.2-2
		c0.1-1.3,1.2-2.1,2.6-2c1.4,0.1,2.3,1,2.3,2.2c0,0.7-0.4,1.5-1,2.1l-1.4,1.6L45.1,95.5"/>
	<path  class="st28" d="M50.2,91.3L50.2,90l4.9-0.3l-2.9,5.9l-1.6,0.1l2.3-4.6"/>
	<path  class="st28" d="M57.2,92.2c0.2,1.1,0.7,1.7,1.3,1.6c0.6-0.1,0.8-0.8,0.6-1.9
		c-0.2-1.1-0.7-1.7-1.2-1.6C57.2,90.4,57,91.1,57.2,92.2z M60.5,91.6c0.3,1.8-0.4,3.2-1.8,3.5c-1.4,0.3-2.6-0.8-3-2.6
		c-0.3-1.8,0.4-3.2,1.8-3.5C59,88.7,60.2,89.8,60.5,91.6"/>
	<path  class="st28" d="M12.2,28.4c0.3-0.5,0.2-0.8-0.2-1.1c-0.4-0.2-0.8-0.1-1,0.3l-0.3,0.4
		l1.2,0.7L12.2,28.4L12.2,28.4z M14.7,30.4l-0.8,1.3l-5-2.9l1.2-2.1c0.3-0.6,0.6-0.9,1.1-1c0.5-0.1,1-0.1,1.5,0.2
		c1.1,0.6,1.3,1.6,0.7,2.6L13,29.5L14.7,30.4"/>
	<path  class="st28" d="M14.7,23.2l1.1,1.6l0.8-1L14.7,23.2L14.7,23.2z M16.4,25.9l0.6,0.9L16,28
		l-3.2-5.3l1-1.3l5.9,1.8l-1,1.3l-1-0.3L16.4,25.9"/>
	<path  class="st28" d="M19,19.5c0.4-0.4,0.5-0.8,0.2-1.2c-0.1-0.1-0.4-0.2-0.6-0.2
		c-0.2,0-0.4,0.1-0.6,0.3l-0.2,0.2l1,1L19,19.5L19,19.5z M23.4,19.6l-1.3,1.3l-2.6-0.6l1.6,1.6L20,23l-4-4.1l1.7-1.6
		c0.5-0.5,0.9-0.6,1.4-0.6c0.4,0,0.9,0.2,1.2,0.6c0.3,0.3,0.5,0.7,0.5,1c0.1,0.4,0,0.7-0.3,1L23.4,19.6"/>
	<path  class="st28" d="M25,18.4l-1.2,0.9l-3.6-4.5l1.2-0.9"/>
	<path  class="st28" d="M26.1,12.4c-0.4,0-0.7,0-1,0.2c-0.3,0.2-0.4,0.5-0.3,0.8
		c0.1,0.1,0.2,0.1,0.3,0.2c0.1,0,0.3,0,0.4,0c0.1,0,0.3-0.1,0.5-0.2c0.5-0.2,0.8-0.2,1.2-0.1c0.4,0.1,0.6,0.3,0.9,0.6
		c0.2,0.3,0.4,0.7,0.4,1c0.1,0.7-0.3,1.5-1.1,2c-0.4,0.3-0.7,0.4-1.2,0.5c-0.3,0.1-0.5,0.1-0.8,0.1l-0.1-1.3c0.6,0.1,1.1,0,1.4-0.3
		c0.4-0.2,0.5-0.6,0.3-0.9c-0.1-0.1-0.2-0.2-0.3-0.2c-0.2,0-0.4,0-0.8,0.1c-0.5,0.2-0.7,0.2-0.9,0.2c-0.5,0.1-0.9-0.2-1.3-0.7
		c-0.6-1-0.4-2.1,0.5-2.7c0.5-0.3,1.1-0.6,1.8-0.6"/>
	<path  class="st28" d="M32.8,8.9c-0.4-0.1-0.7-0.1-1,0c-0.3,0.2-0.5,0.5-0.4,0.7
		c0,0.1,0.1,0.2,0.2,0.2c0.1,0,0.3,0.1,0.4,0c0.1,0,0.3,0,0.5-0.1c0.5-0.1,0.9,0,1.2,0.1c0.4,0.1,0.6,0.4,0.8,0.8
		c0.1,0.3,0.2,0.8,0.2,1c0,0.7-0.6,1.4-1.4,1.8c-0.4,0.2-0.8,0.3-1.3,0.3c-0.3,0-0.5,0-0.8-0.1l0.1-1.4c0.6,0.2,1,0.2,1.4,0
		c0.4-0.2,0.6-0.5,0.4-0.8c0-0.1-0.1-0.2-0.2-0.2c-0.2-0.1-0.4-0.1-0.9,0c-0.5,0.1-0.7,0.1-0.9,0.1c-0.5,0-0.9-0.3-1.1-0.9
		C29.6,9.5,30,8.4,31,8c0.6-0.2,1.2-0.4,1.9-0.3"/>
	<path  class="st28" d="M37.3,7.7l-0.1,1.9l1.2-0.4L37.3,7.7z M37.1,10.8L37,11.9l-1.5,0.4L36,6.2
		l1.6-0.5l3.7,4.9l-1.5,0.5l-0.6-0.8L37.1,10.8"/>
	<path  class="st28" d="M43.3,10.4l-1.5,0.3l-1-5.7l1.5-0.3"/>
	<path  class="st28" d="M43.9,4.4l1.5-0.1l3,3.3l-0.2-3.5L49.7,4l0.4,5.7l-1.5,0.1l-3-3.3l0.2,3.5
		l-1.5,0.1"/>
	<path  class="st28" d="M53.3,10l-1.5-0.1L52,5.4l-1.2-0.1l0.1-1.3l3.9,0.2l-0.1,1.3l-1.2-0.1"/>
	<path  class="st28" d="M56.7,8l-0.1,1l-1.9-0.3l0.1-1"/>
	<path  class="st28" d="M63.2,8.6c-0.1,0.2-0.1,0.4-0.1,0.5c-0.1,0.3-0.2,0.5-0.3,0.7
		c-0.6,1.2-1.9,1.7-3.3,1.4c-1.8-0.4-2.7-1.9-2.3-3.7c0.4-1.8,2-2.7,3.8-2.3c0.8,0.2,1.3,0.5,1.7,1.1c0.2,0.3,0.3,0.5,0.4,1.1
		l-1.5,0.2c-0.1-0.3-0.1-0.5-0.2-0.7c-0.2-0.3-0.4-0.4-0.7-0.5c-0.8-0.2-1.6,0.4-1.9,1.4c-0.3,1,0.2,1.9,1.1,2.1
		c0.3,0.1,0.6,0.1,0.8-0.1c0.1,0,0.2-0.1,0.3-0.2c0.1-0.1,0.2-0.2,0.3-0.4L60.1,9l0.3-1.1"/>
	<path  class="st28" d="M66.2,8.4l-0.3,0.9l1.6,0.6l-0.5,1.2l-1.6-0.6L65,11.4l1.7,0.6l-0.5,1.2
		l-3-1.2l2.1-5.4l3,1.2L67.8,9"/>
	<path  class="st28" d="M70,11.5c0.5,0.3,0.9,0.2,1.1-0.2c0.1-0.2,0.1-0.4,0-0.6
		c-0.1-0.2-0.2-0.3-0.5-0.4l-0.2-0.1l-0.7,1.3L70,11.5L70,11.5z M71.2,15.7l-1.6-0.9l-0.2-2.6l-1,2l-1.3-0.7l2.7-5.1l2.1,1.1
		c0.6,0.3,0.9,0.6,1,1.1c0.1,0.4,0.1,0.9-0.2,1.4c-0.2,0.3-0.5,0.6-0.8,0.8c-0.3,0.2-0.6,0.2-1.1,0.1L71.2,15.7"/>
	<path  class="st28" d="M75.6,11.8l1.2,0.9l-0.9,3.2l2.8-1.7l1.2,0.9l-2.8,5.1l-1.2-0.9l1.7-2.9
		l-3.1,1.8L74,17.8l0.9-3.4l-2.4,2.3l-1.2-0.9"/>
	<path  class="st28" d="M82.1,19.7l-1.8,0.8l0.9,0.9L82.1,19.7L82.1,19.7z M79.3,21l-1,0.4
		l-1.1-1.1l5.7-2.4l1.1,1.2l-2.7,5.5l-1.1-1.2l0.5-1L79.3,21"/>
	<path  class="st28" d="M82.5,26.3l-0.9-1.2l4.6-3.5l0.9,1.2"/>
	<path  class="st28" d="M88.1,24.1l0.8,1.3l-1.6,4.2l3-1.8l0.8,1.3L86.1,32l-0.8-1.3l1.6-4.2
		l-3,1.8l-0.8-1.3"/>
</g>
</svg>
