<?xml version="1.0" encoding="utf-8"?>
<!-- Generator: Adobe Illustrator 19.2.1, SVG Export Plug-In . SVG Version: 6.00 Build 0)  -->
<svg version="1.1" id="Capa_1" xmlns="http://www.w3.org/2000/svg" xmlns:xlink="http://www.w3.org/1999/xlink" x="0px" y="0px"
	 viewBox="0 0 100 100" style="enable-background:new 0 0 100 100;" xml:space="preserve">
<style type="text/css">
	.st0{fill:#9C824A;stroke:#9C824A;stroke-width:0.793;stroke-miterlimit:282;}
	.st1{fill:#023474;stroke:#023474;stroke-width:0.793;stroke-miterlimit:282;}
	.st2{fill:#FFFFFF;stroke:#FFFFFF;stroke-width:0.793;stroke-miterlimit:282;}
	.st3{fill:#EF0107;stroke:#EF0107;stroke-width:0.793;stroke-miterlimit:282;}
	.st4{fill:#DB0007;stroke:#DB0007;stroke-width:0.793;stroke-miterlimit:282;}
	.st5{fill:#FFFFFF;}
	.st6{fill:#9C824A;}
	.st7{fill:#EF0107;stroke:#EF0107;stroke-width:0.3115;stroke-miterlimit:282;}
	.st8{fill:#DB0007;stroke:#DB0007;stroke-width:0.3115;stroke-miterlimit:282;}
	.st9{fill:#DB0007;}
	.st10{fill:#FFFFFF;stroke:#FFFFFF;stroke-width:0.3115;stroke-miterlimit:282;}
	.st11{fill:#FFFFFF;stroke:#FFFFFF;stroke-width:0.554;stroke-miterlimit:3.864;}
	.st12{fill:#231F20;}
	.st13{fill:#00B6F1;}
	.st14{fill:#EF3E2E;}
	.st15{fill:#BBBDBF;}
	.st16{fill:#F0B83D;}
	.st17{fill:#001C58;}
	.st18{fill:#94BEE5;}
	.st19{fill:none;stroke:#7A003C;stroke-width:2.2437;stroke-miterlimit:6;}
	.st20{fill:#7A003C;}
	.st21{fill:#FFE600;}
	.st22{fill:#DBA111;}
	.st23{fill:#034694;}
	.st24{fill:#D1D3D4;}
	.st25{fill:#ED1C24;}
	.st26{fill:#6A7AB5;}
	.st27{fill:none;}
	.st28{fill:#274488;}
	.st29{fill:#004798;stroke:#004798;stroke-width:9.375000e-02;}
	.st30{fill:#FFFFFF;stroke:#FFFFFF;stroke-width:9.375000e-02;}
	.st31{fill:#FABC00;stroke:#FABC00;stroke-width:9.375000e-02;}
	.st32{fill:#5299C6;}
	.st33{fill:#60223B;}
	.st34{fill:#F7C240;}
	.st35{fill:#292D6B;}
	.st36{fill:#1B458F;}
	.st37{fill:#C4122E;}
	.st38{fill:#27409B;}
	.st39{clip-path:url(#SVGID_2_);fill:#FFFFFF;}
	.st40{fill:#F4F4F4;}
	.st41{fill:#D3D2D2;}
	.st42{fill:#A7A5A6;}
	.st43{fill:#091453;}
	.st44{fill:none;stroke:#FFFFFF;stroke-width:6.6301;}
	.st45{clip-path:url(#SVGID_4_);}
	.st46{fill:#724314;}
	.st47{fill:#240B08;}
	.st48{fill:#018B4B;}
	.st49{fill:#A6181D;}
	.st50{fill:#592D09;}
	.st51{fill:#FFCE65;}
	.st52{fill:#5CBFEB;}
	.st53{fill:none;stroke:#000000;stroke-width:10;}
	.st54{fill:none;stroke:#000000;}
	.st55{fill:#B2B2B2;}
	.st56{fill:none;stroke:#000000;stroke-width:0.3;}
	.st57{fill:#00A650;stroke:#000000;stroke-width:2;}
	.st58{fill:#241F20;stroke:#241F20;stroke-width:9.375000e-02;}
	.st59{fill:#FFF200;stroke:#FFF200;stroke-width:9.375000e-02;}
	.st60{fill:#A68A26;}
	.st61{fill:none;stroke:#A68A26;stroke-width:4.792100e-02;stroke-miterlimit:3.8637;}
	.st62{fill:#211E1E;}
	.st63{fill:none;stroke:#211E1E;stroke-width:4.792100e-02;stroke-miterlimit:3.8637;}
	.st64{fill:#EB172B;}
	.st65{fill:none;stroke:#EB172B;stroke-width:4.792100e-02;stroke-miterlimit:3.8637;}
	.st66{fill:#A68A26;stroke:#A68A26;stroke-width:4.792100e-02;stroke-miterlimit:3.8637;}
	.st67{fill:#D1BF7F;}
	.st68{fill:none;stroke:#D1BF7F;stroke-width:4.792100e-02;stroke-miterlimit:3.8637;}
	.st69{fill:none;stroke:#FFFFFF;stroke-width:4.792100e-02;stroke-miterlimit:3.8637;}
	.st70{fill:#EB172B;stroke:#EB172B;stroke-width:4.792100e-02;stroke-miterlimit:3.8637;}
	.st71{fill:#ED2127;}
	.st72{fill:#FBEE23;}
	.st73{stroke:#000000;}
	.st74{fill:#CF1F44;}
	.st75{fill:#1B449C;}
	.st76{fill:#E03A3E;}
	.st77{fill:#2E6ABD;stroke:#2E6ABD;stroke-width:0.617;}
	.st78{fill:#FFFFFF;stroke:#FFFFFF;stroke-width:0.6175;}
	.st79{fill:#ED1248;}
	.st80{fill:#2E6ABD;}
	.st81{fill:#FDE100;}
	.st82{fill:#CC0000;}
	.st83{fill:#211E1F;}
	.st84{fill:#ED1A3B;}
	.st85{fill:#00AEEF;}
	.st86{fill:#FFC40D;}
	.st87{fill:#22B24C;}
	.st88{fill:#FFC20E;}
	.st89{fill:#0A3F86;}
	.st90{fill:#005CA9;}
	.st91{fill:#FFE000;}
	.st92{fill:#E2001A;}
	.st93{opacity:0;}
	.st94{opacity:0;fill:#FFFFFF;}
	.st95{fill:#FFFFFF;stroke:#000000;}
	.st96{fill:#0060A9;}
	.st97{fill:#E32219;}
	.st98{fill:#FFED00;}
	.st99{fill:#1D9053;}
	.st100{fill:#52A600;}
	.st101{fill:#EE2523;}
	.st102{fill:#F7D117;}
	.st103{fill:#171796;}
	.st104{fill:#009959;}
	.st105{fill:#D42E12;}
	.st106{fill:#703824;}
	.st107{fill:#E5254E;}
	.st108{fill:#8AC3EE;}
	.st109{fill:#B19221;}
	.st110{fill:#F5C03E;}
	.st111{fill:#FF1119;}
	.st112{fill:#1E6BC0;}
	.st113{fill:#B4742A;}
	.st114{fill:#371B02;}
	.st115{fill:url(#SVGID_5_);}
	.st116{fill:url(#SVGID_6_);}
	.st117{fill:url(#SVGID_7_);}
	.st118{fill:url(#SVGID_8_);}
	.st119{fill:url(#SVGID_9_);}
	.st120{fill:url(#SVGID_10_);}
	.st121{fill:url(#SVGID_11_);}
	.st122{fill:url(#SVGID_12_);}
	.st123{fill:url(#SVGID_13_);}
	.st124{fill:url(#SVGID_14_);}
	.st125{fill:#EB2626;}
	.st126{fill:#E9C32C;}
	.st127{fill:#D9D9D9;}
	.st128{fill:#009C5E;}
	.st129{fill:#1C75BC;}
	.st130{fill:#611D5C;}
	.st131{fill:#E2B900;}
	.st132{fill:#004B95;}
	.st133{fill:#A4234B;}
	.st134{fill:#DB2F36;}
	.st135{fill:#FFDF00;}
	.st136{fill:#A38D44;}
	.st137{fill:#57175E;}
	.st138{fill:#AFDCFD;}
	.st139{fill:#0090C6;}
	.st140{fill:#DB5232;}
	.st141{fill:#23C1E0;}
	.st142{fill:#F1A92A;}
	.st143{fill:#167FB6;}
	.st144{fill:#FED75D;}
	.st145{fill:#378CBF;}
	.st146{fill:#3E9692;}
	.st147{fill:#E67F29;}
	.st148{fill:#D8B43C;}
	.st149{fill:#EF3B33;}
	.st150{fill:#24923D;}
	.st151{opacity:6.000001e-02;fill:#101010;enable-background:new    ;}
	.st152{fill:#00529F;}
	.st153{fill:#EE324E;}
	.st154{fill:#FEBE10;}
	.st155{fill:#143C8B;}
	.st156{fill:#FFE24A;}
	.st157{fill:#EC1D24;}
	.st158{fill:#E6A514;}
	.st159{fill:#FFDF1C;}
	.st160{fill:#EE3524;}
	.st161{fill:#B23428;}
	.st162{fill:#D18816;}
	.st163{fill:#0097D7;}
	.st164{fill:#ED1C23;}
	.st165{fill:#E30613;}
	.st166{fill:#FFE400;}
	.st167{fill:#C51A1B;}
	.st168{clip-path:url(#SVGID_17_);}
	.st169{clip-path:url(#SVGID_18_);fill:none;stroke:#000000;stroke-width:0.8131;stroke-miterlimit:3.864;}
	.st170{fill:#0093D5;}
	.st171{fill:#004B9D;}
	.st172{fill:#FCC24F;}
	.st173{fill:#009545;}
	.st174{fill:#0072BB;}
	.st175{fill:#C4974E;}
	.st176{fill:url(#path1292_1_);}
	.st177{fill:#004996;}
	.st178{fill:#FFE667;}
	.st179{fill:none;stroke:#005187;stroke-width:0.153;stroke-miterlimit:3.864;}
	.st180{fill:#005187;}
	.st181{clip-path:url(#SVGID_20_);}
	.st182{clip-path:url(#SVGID_22_);fill:none;stroke:#000000;stroke-width:0.296;stroke-miterlimit:3.864;}
	.st183{clip-path:url(#SVGID_24_);fill:#FFE667;}
	.st184{clip-path:url(#SVGID_26_);fill:none;stroke:#000000;stroke-width:8.300000e-02;stroke-miterlimit:3.864;}
	.st185{fill:none;stroke:#000000;stroke-width:0.153;stroke-miterlimit:3.864;}
	.st186{clip-path:url(#SVGID_28_);fill:#E70005;}
	.st187{clip-path:url(#SVGID_30_);fill:none;stroke:#E70005;stroke-width:0.296;stroke-miterlimit:3.864;}
	.st188{clip-path:url(#SVGID_32_);fill:#E70005;}
	.st189{clip-path:url(#SVGID_34_);fill:none;stroke:#E70005;stroke-width:0.296;stroke-miterlimit:3.864;}
	.st190{clip-path:url(#SVGID_36_);fill:#E70005;}
	.st191{clip-path:url(#SVGID_38_);fill:none;stroke:#E70005;stroke-width:0.296;stroke-miterlimit:3.864;}
	.st192{clip-path:url(#SVGID_40_);fill:#E70005;}
	.st193{clip-path:url(#SVGID_42_);fill:none;stroke:#E70005;stroke-width:0.296;stroke-miterlimit:3.864;}
	.st194{fill:#E70005;}
	.st195{fill:none;stroke:#000000;stroke-width:0.141;stroke-miterlimit:3.864;}
	.st196{fill:#00276D;}
	.st197{fill:#C49308;}
	.st198{fill:#179D33;}
	.st199{fill:#999999;}
	.st200{fill:#FF0000;}
	.st201{fill:#E31837;}
	.st202{fill:#06357A;}
	.st203{fill:#B4053F;}
	.st204{fill:#DCA43E;}
	.st205{fill:#005CA5;}
	.st206{fill:#FAC400;}
	.st207{fill:#004083;}
	.st208{fill:#A95932;}
	.st209{fill:none;stroke:#000000;stroke-width:1.2215;}
	.st210{fill:#E62627;}
	.st211{fill:#00458C;}
	.st212{fill:#E11B22;}
	.st213{fill:#00AB4E;}
	.st214{fill:#F47920;}
	.st215{fill:#C7C8CA;}
	.st216{fill:#E11515;}
	.st217{fill:#A4965F;}
	.st218{fill:#E51636;}
	.st219{fill:#EACC00;}
	.st220{fill:#4F846B;}
	.st221{fill:#E22227;}
	.st222{fill:#FAE700;}
	.st223{fill:url(#SVGID_43_);}
	.st224{fill:#666666;}
	.st225{fill:#FFF200;}
	.st226{fill:#00275D;}
	.st227{fill:#EF3E33;}
	.st228{fill:none;stroke:#00275D;stroke-width:2.632;}
	.st229{fill:#3F7652;}
	.st230{fill:#F1D261;}
	.st231{fill:#004D8F;}
	.st232{fill:#E7B137;stroke:#E7B137;stroke-miterlimit:10;}
	.st233{fill:#E7B137;}
	.st234{fill:#162577;}
	.st235{fill:#12692C;}
	.st236{fill:#D8141D;}
	.st237{fill:#AB830D;}
	.st238{fill:#0086CB;}
	.st239{fill:#001F42;}
	.st240{fill:#9A8F4A;}
	.st241{fill:#00559D;}
	.st242{fill:#FDDE00;}
	.st243{fill:#00924C;}
	.st244{fill:#233984;}
	.st245{fill:#FFD42E;}
	.st246{fill:#BA3733;}
	.st247{fill:#46714D;}
	.st248{fill:#221F1F;}
	.st249{fill:#00559E;}
	.st250{fill:#005C46;}
	.st251{fill:#FBC860;}
	.st252{fill:#D57C48;}
	.st253{fill:#040403;}
	.st254{fill:#4AB969;}
	.st255{fill:#8ED8F8;}
	.st256{fill:#FEC34E;}
	.st257{fill:#FFC95B;}
	.st258{fill:#00644C;}
	.st259{fill:#70B865;}
	.st260{fill:#CA6F44;}
	.st261{fill:#A8B8BE;}
	.st262{fill:#1C2C80;}
	.st263{fill:#E10321;}
	.st264{fill:none;stroke:#231F20;stroke-width:0.318;stroke-miterlimit:3.864;}
	.st265{fill:#D71920;}
	.st266{fill:#484749;}
	.st267{fill:#D9DBDC;}
	.st268{fill:#DF725A;}
	.st269{fill:#F2CABA;}
	.st270{fill:#E89C84;}
	.st271{fill:#264F99;}
	.st272{clip-path:url(#SVGID_45_);}
	.st273{fill:#161413;}
	.st274{fill:#ED1B26;}
	.st275{fill:#E60D2E;}
	.st276{fill:#FCD600;}
	.st277{fill:#004D91;}
	.st278{fill:#EAB412;}
	.st279{fill:#FDD31D;}
	.st280{fill:#EFB800;}
	.st281{fill:#FFF100;}
	.st282{fill:#ED3024;}
	.st283{fill:#00A398;}
	.st284{fill:#D00027;}
	.st285{fill:#FEF667;}
</style>
<path id="path22527"  class="st81" d="M-0.1,50c0-27.6,22.4-50,50-50s50,22.4,50,50s-22.4,50-50,50
	S-0.1,77.6-0.1,50"/>
<path id="path22531"  class="st12" d="M49.9,2.4C23.6,2.4,2.3,23.7,2.3,50s21.3,47.6,47.6,47.6
	c26.3,0,47.6-21.3,47.6-47.6S76.2,2.4,49.9,2.4z M49.9,5c24.8,0,44.9,20.1,44.9,45S74.7,94.9,49.9,94.9c-24.8,0-45-20.1-45-44.9
	S25.1,5,49.9,5z M35,12.3l12.2,37.8h5.3l12.1-37.8h-7.4l-7.4,25.3l-7.3-25.3H35z M16.1,30.9v37.3h11.7c9.5,0,14.3-11.5,7.7-18.6
	c0,0,0,0,0-0.1c0,0,0.1-0.1,0.1-0.1c5.5-6.2,3.2-17.1-7-18.6H16.1z M64.6,30.9v37.3h11.8c9.5,0,14.3-11.5,7.7-18.6c0,0,0,0,0-0.1
	c0,0,0.1-0.1,0.1-0.1c5.5-6.2,3.2-17.1-7-18.6H64.6z M22.9,37.9h5.8c3.7,0,4.5,7.2,0.2,8.3h-6V37.9z M71.5,37.9h5.7
	c3.7,0,4.5,7.2,0.2,8.3h-5.9V37.9z M22.9,52.9H28c4.2,0,5.8,7.7,0.3,8.8h-5.4V52.9z M71.5,52.9h5c4.2,0,5.8,7.7,0.3,8.8h-5.3V52.9z
	 M42.5,69c-3,0-5.5,2.5-5.5,5.5v8.3c0,3,2.5,5.5,5.5,5.5h0.1c3,0,5.5-2.5,5.5-5.5v-8.3c0-3-2.5-5.5-5.5-5.5H42.5z M57.1,69
	c-3,0-5.6,2.4-5.6,5.4v1.4c0,3,2.8,5.5,5.6,5.6c0,0,1.2,0,1.8-0.3l0.1,1.9c0,0.9-0.8,1.8-1.7,1.8c-0.8,0-1.8-0.4-1.8-1.4
	c0,0,0.2-1.2-0.7-1.2h-3.2c0,0.3,0,0.5,0,0.9c0,2.9,2.5,5.4,5.8,5.4c3.1,0,5.3-2.4,5.3-5.6v-8.3c0-3-2.4-5.4-5.4-5.4H57.1z M57.2,73
	c1,0,1.8,0.8,1.8,1.7v1.1c0,0.9-0.8,1.7-1.7,1.7c-1,0-1.8-0.8-1.8-1.7v-1.1C55.4,73.7,56.2,73,57.2,73z M42.5,73
	c1,0,1.8,0.8,1.8,1.7v8.2c0,0.9-0.8,1.7-1.8,1.7c-1,0-1.8-0.8-1.8-1.7v-8.2C40.8,73.8,41.6,73,42.5,73z"/>
</svg>
