<?xml version="1.0" encoding="utf-8"?>
<!-- Generator: Adobe Illustrator 19.2.1, SVG Export Plug-In . SVG Version: 6.00 Build 0)  -->
<svg version="1.1" id="Capa_1" xmlns="http://www.w3.org/2000/svg" xmlns:xlink="http://www.w3.org/1999/xlink" x="0px" y="0px"
	 viewBox="0 0 100 100" style="enable-background:new 0 0 100 100;" xml:space="preserve">
<style type="text/css">
	.st0{fill:#A6A6A6;}
	.st1{fill:#AFAFAF;}
	.st2{fill:#AEAEAE;}
	.st3{fill:#6C6C6C;}
	.st4{fill:#979797;}
	.st5{fill:#707070;}
	.st6{fill:#939393;}
	.st7{fill:#FEFEFE;}
	.st8{fill:#FEDF00;}
	.st9{fill:#E1001A;}
	.st10{fill:#FDFDFD;}
	.st11{fill:#030000;}
	.st12{fill:#040000;}
	.st13{fill:#FBFBFB;}
	.st14{fill:#FAFAFA;}
	.st15{fill:#FCFCFC;}
	.st16{fill:#FADC00;}
	.st17{fill:#FCDD00;}
	.st18{fill:#FDDF00;}
	.st19{fill:#FBDC00;}
	.st20{fill:#C20016;}
	.st21{fill:#BE0016;}
</style>
<g>
	<path d="M54.6,88.2c-0.1,0-0.2,0-0.3,0c-0.1-0.1-0.2-0.1-0.3-0.1c-0.1,0-0.2,0-0.3,0.1c-2.5,0-4.9,0-7.4,0
		c-0.1-0.1-0.2-0.1-0.4-0.1c-0.1,0-0.2,0-0.3,0.1c-0.2,0-0.3,0-0.5,0c-1.6-0.2-3.2-0.3-4.8-0.5c-2.8-0.5-5.5-1.2-8.3-2.1
		c-2.8-0.9-5.5-1.8-8.3-2.4c-2.8-0.6-5.6-0.5-8.4,0.2c-0.1,0-0.2,0.1-0.3,0.1c-1.6,0.4-2.2,0-2.6-1.6c-0.8-3.5-1.6-7-2.4-10.5
		c-0.1-0.3-0.1-0.7-0.2-1c0-1,0.3-1.5,1.3-1.7c0.7-0.2,1.4-0.3,2.1-0.4c0.6-0.1,0.6-0.2,0.4-0.8c-0.9-2.2-2.5-3.8-4.4-5.3
		c-0.6-0.4-1.1-0.8-1.6-1.3c-0.6-0.7-0.7-1.3-0.2-2.1c0.5-0.8,1.2-1.4,1.7-2.1c0.7-0.8,1-1.7,0.9-2.7c-0.1-1-0.8-1.4-1.8-1.3
		c-4.2,0.4-7.8-2.1-8.3-6.2c-0.3-2.3,0.3-4.4,1.5-6.4C2.3,39,3,38,3.6,36.9c0.7-1.4,0.7-3,0.6-4.5c0-0.5-0.3-0.7-0.7-0.8
		c-0.7-0.1-1.3-0.5-1.6-1.2c-0.2-0.3-0.3-0.7-0.5-1c-0.2-0.7-0.5-1.3-1.1-1.7c-0.1-0.1-0.2-0.2-0.2-0.3c-0.1-0.6,0.1-1,0.6-1.3
		c1.5-1,3.1-1.4,4.8-0.8c1.9,0.6,3,2.7,2.5,4.6c-0.1,0.3-0.2,0.6-0.4,0.8c-0.5,0.5-0.5,1-0.4,1.6c0.4,2.7,0,5.3-1.6,7.6
		c-0.8,1.2-1.6,2.4-2,3.8c-0.2,0.6-0.3,1.3-0.3,1.9c0,1.9,1.5,3.5,3.4,3.8c1.3,0.2,1.3,0.2,1.6-1.2c0.3-1.5,1.1-2.8,2.1-4
		c1.5-1.8,2.4-3.9,2.9-6.1c0.1-0.5,0-0.7-0.5-0.8c-0.6-0.1-1.1-0.4-1.5-0.8c-0.5-0.5-0.4-1,0.3-1.2c0.8-0.3,1.4-1.7,1.1-2.4
		c-0.1-0.2-0.2-0.2-0.3-0.2c-0.6,0.2-1.1,0.2-1.6-0.2c-0.5-0.4-0.7-1-0.9-1.6c-0.1-0.2-0.1-0.5,0-0.7c0-0.6,0.2-0.7,0.8-0.6
		c0.1,0,0.3,0.1,0.4,0.1c0.2,0,0.5,0,0.5-0.4c0-0.3-0.1-0.6-0.5-0.6c-0.7,0-1.3-0.1-1.6-0.8c-0.4-0.8-0.4-1.7-0.2-2.6
		c0.1-0.3,0.3-0.4,0.6-0.3C9.9,24.9,10,25,10.1,25c0.4,0.1,0.7,0.1,0.8-0.3c0.2-0.5,0-0.8-0.4-0.9c-0.8-0.1-1.2-0.6-1.4-1.4
		c-0.2-0.9,0-1.7,0.5-2.5c0.2-0.4,0.5-0.4,0.8-0.1c0,0,0.1,0.1,0.1,0.1c0.3,0.2,0.5,0.4,0.8,0.1c0.3-0.3,0.2-1-0.1-1.2
		c-0.8-0.7-1-1.5-0.6-2.4c0.2-0.4,0.4-0.8,0.7-1.2c0.5-0.6,0.9-0.5,1.2,0.2c0.1,0.3,0.3,0.5,0.6,0.6c0.2,0,0.4-0.2,0.5-0.3
		c0.2-0.2,0.1-0.4,0-0.6c-0.5-0.8-0.4-1.4,0.3-1.9c0.5-0.4,1.1-0.7,1.7-0.8c0.5-0.1,0.7,0.1,0.7,0.6c0,0.5,0.2,0.6,0.7,0.6
		c0.3,0,0.5-0.1,0.8-0.1c0.2,0,0.3-0.1,0.4-0.3c0.1-0.8,0.8-0.9,1.4-1.1c0.3-0.1,0.5-0.1,0.8-0.1c0.2,0,0.4,0,0.6,0
		c0.3,0,0.4,0.2,0.4,0.4c-0.1,0.6,0.3,0.8,0.7,0.9c0.4,0.1,0.9,0.2,1.3,0.4c0.5,0.2,0.9,0.6,0.8,1.2c0,0.3,0.1,0.5,0.4,0.6
		c0.3,0.1,0.6,0.2,0.8,0.4c0.8,0.9,1.9,0.7,2.9,0.9c0.2,0,0.4-0.1,0.5-0.3c0.2-0.3,0.4-0.7,0.6-0.9c0.3-0.3,0.6-0.7,1-0.7
		c0.9-0.1,1.8-0.4,2.7-0.5c0.5-0.1,0.9,0,1.3,0.3c0.2,0.1,0.4,0.2,0.6,0.1c0.3,0,0.7,0,0.9,0.1c0.6,0.3,1.1,0.2,1.7,0
		c3.4-1.1,6.9-1.8,10.5-2c4.7-0.3,9.2,0.4,13.7,1.8c0.2,0.1,0.4,0.1,0.7,0.2c0.5,0.2,1,0.2,1.6,0c0.8-0.3,1.7-0.2,2.4-0.6
		c0.1,0,0.1,0,0.2,0c1,0,1.9,0.4,2.9,0.5c0.7,0.1,1.2,0.8,1.5,1.4c0.3,0.5,0.6,0.7,1.1,0.5c0.3-0.1,0.7-0.1,1-0.1
		c0.5-0.1,0.9-0.2,1.2-0.6c0.1-0.1,0.1-0.2,0.2-0.2c0.7-0.3,1.2-0.6,1.2-1.6c0-0.4,0.5-0.5,0.8-0.6c0.5-0.1,0.9-0.2,1.4-0.4
		c0.3-0.1,0.5-0.3,0.5-0.7c-0.1-0.3,0-0.5,0.3-0.6c0.2,0,0.4,0,0.6,0c0.6,0,1.1,0.1,1.7,0.4c0.2,0.1,0.4,0.3,0.5,0.6
		c0.1,0.4,1.2,0.8,1.6,0.6c0.2-0.1,0.2-0.3,0.2-0.4c0.1-0.7,0.3-0.9,1-0.7c0.6,0.2,1.2,0.4,1.6,0.9c0.5,0.6,0.6,1.1,0.1,1.7
		c-0.3,0.4-0.1,0.7,0.2,0.9c0.3,0.3,0.6,0,0.8-0.3c0.2-0.3,0.2-0.8,0.7-0.8c0.5,0,0.7,0.4,1,0.7c0.4,0.6,0.7,1.2,0.6,2
		c-0.1,0.5-0.2,1-0.7,1.3c-0.3,0.2-0.4,0.9-0.2,1.2c0.3,0.3,0.5,0.1,0.8,0c0.8-0.5,1.1-0.4,1.4,0.5c0.2,0.6,0.3,1.2,0.2,1.8
		c-0.1,0.7-0.7,1.3-1.5,1.4c-0.5,0.1-0.6,0.3-0.5,0.8c0.1,0.4,0.4,0.6,0.8,0.5c0.1,0,0,0,0.1,0c0.9-0.3,1-0.2,1.2,0.7
		c0.1,0.6,0,1.1-0.1,1.6c-0.2,0.8-0.7,1.2-1.5,1.1c-0.5,0-0.7,0.2-0.6,0.6c0,0.5,0.4,0.4,0.7,0.3c0.8-0.1,0.9,0,0.9,0.8
		c0,0.6-0.2,1.2-0.5,1.7c-0.5,0.6-1,0.8-1.7,0.6c-0.5-0.1-0.6,0-0.6,0.5c0,0.4,0.1,0.8,0.2,1.1c0.1,0.5,0.4,0.8,0.9,0.9
		c0.7,0.2,0.9,0.6,0.4,1.2c-0.4,0.5-0.9,0.7-1.5,0.9c-0.7,0.2-0.8,0.2-0.6,1c0.5,2,1.3,3.9,2.6,5.5c0.8,1,1.5,2,2,3.1
		c0.2,0.6,0.4,1.2,0.4,1.9c0,0.4,0.1,0.6,0.6,0.6c1.7-0.1,3.5-0.7,4.2-2.7c0.4-1.3,0.1-2.6-0.4-3.9c-0.5-1.1-1-2.1-1.7-3
		c-1.7-2.4-2.1-5-1.6-7.8c0.1-0.5,0-0.9-0.3-1.3c-1.3-1.7-0.4-4.1,1.1-5.1c2-1.3,4.4-0.5,5.8,0.5c0.2,0.1,0.2,0.3,0.3,0.5
		c0,0.3,0,0.5,0,0.8c-0.9,0.7-1.2,1.7-1.6,2.7c-0.3,0.8-0.9,1.4-1.9,1.5c-0.4,0.1-0.5,0.3-0.6,0.6c-0.3,2-0.1,3.8,1,5.5
		c0.9,1.4,1.8,2.7,2.4,4.2c0.4,0.9,0.5,1.8,0.5,2.7c0,0.4-0.1,0.7,0.1,1.1c0,0.1,0,0.3,0,0.4c-0.1,1.4-0.6,2.7-1.5,3.8
		c-1.1,1.4-2.6,2.3-4.4,2.5c-0.9,0.2-1.8,0.2-2.8,0.1c-0.7-0.1-1.3,0.5-1.4,1.3c-0.1,1.1,0.2,2.1,1,2.9c0.5,0.6,1,1.2,1.5,1.8
		c0.7,1,0.6,1.7-0.3,2.5c-1.2,1-2.4,1.8-3.5,2.9c-1,1-1.8,2.2-2.3,3.5C86,68,86,68.1,86.6,68.2c0.7,0.1,1.3,0.2,2,0.4
		c1.2,0.3,1.7,0.9,1.4,2.2c-0.8,3.7-1.7,7.4-2.5,11.1c-0.1,0.3-0.1,0.5-0.2,0.8c-0.3,0.7-0.9,1-1.7,0.9c-1-0.1-1.9-0.4-2.9-0.6
		c-2.6-0.4-5.1-0.2-7.6,0.4c-2.6,0.6-5.1,1.5-7.6,2.3c-3.5,1.1-7.1,1.9-10.7,2.4C56.1,88.1,55.3,88.1,54.6,88.2z"/>
	<path class="st0" d="M99.9,44.6c0,0,0.1,0,0.1,0c0,0.4,0,0.8,0,1.1C99.7,45.4,99.9,45,99.9,44.6z"/>
	<path class="st1" d="M79,11.9c0,0,0-0.1,0-0.1c0.2,0,0.4,0,0.6,0c0,0,0,0.1,0,0.1C79.4,11.9,79.2,11.9,79,11.9z"/>
	<path class="st2" d="M21.1,11.8c0,0,0,0.1,0,0.1c-0.2,0-0.4,0-0.7,0c0,0,0-0.1,0-0.1C20.7,11.8,20.9,11.8,21.1,11.8z"/>
	<path class="st3" d="M46,88.1c0.1,0,0.3-0.1,0.4,0.1c-0.1,0-0.3,0-0.4,0C46,88.2,46,88.1,46,88.1C46,88.1,46,88.1,46,88.1z"/>
	<path class="st4" d="M46,88.1c0,0,0,0.1,0,0.1c-0.1,0-0.2,0-0.3,0C45.8,88,45.9,88.1,46,88.1z"/>
	<path class="st5" d="M53.8,88.2c0-0.1,0.1-0.1,0.3-0.1c0,0,0,0.1,0,0.1c0,0,0,0,0,0C54,88.2,53.9,88.2,53.8,88.2z"/>
	<path class="st6" d="M54,88.2c0,0,0-0.1,0-0.1c0.1,0,0.2-0.1,0.2,0.1C54.2,88.2,54.1,88.2,54,88.2z"/>
	<path class="st7" d="M72.1,50.6C72,62.6,62.2,72.4,50,72.3c-12.2,0-22-9.8-22-21.8c0.1-12,9.9-21.8,22.1-21.7
		C62.3,28.8,72.1,38.6,72.1,50.6z"/>
	<path class="st8" d="M19.2,69.3c4.1,0,8.1,0.8,12,1.8c3.9,1,7.8,2.1,11.9,2.8c5.1,0.8,10.2,0.7,15.3-0.2c4.4-0.8,8.7-2.2,13-3.2
		c4.1-0.9,8.2-1.5,12.4-1.1c1.3,0.1,2.6,0.3,3.9,0.6c0.6,0.1,0.7,0.4,0.5,0.9c-0.6,2.5-1.1,5-1.7,7.5c-0.2,0.9-0.4,1.9-0.6,2.8
		c-0.1,0.6-0.4,0.7-0.9,0.5c-1.9-0.5-3.8-0.7-5.7-0.6c-2.9,0.1-5.7,0.9-8.4,1.7c-3.7,1.2-7.4,2.4-11.3,3.1c-4.8,0.8-9.6,1-14.4,0.6
		c-5.7-0.4-11-2.1-16.4-3.8c-3.2-1-6.5-1.8-10-1.6c-1.3,0.1-2.5,0.3-3.8,0.6c-0.5,0.1-0.8,0.1-0.9-0.6c-0.8-3.5-1.6-6.9-2.3-10.4
		c-0.1-0.4,0-0.6,0.5-0.7C14.6,69.6,16.9,69.3,19.2,69.3z"/>
	<path class="st9" d="M23.9,40.3c-0.3,0.6-0.7,1-1.2,1.4c-1.4,1.1-2.5,2.3-3.4,3.8c-0.5,0.8-0.8,1.7-0.9,2.7c0,0.3-0.1,0.5-0.5,0.5
		c-0.6,0-1.1,0.2-1.6,0.5c-0.3,0.1-0.5,0.3-0.3,0.7c0.1,0.3,0.4,0.4,0.7,0.3c1.3-0.5,2.7-0.5,4-0.3c2.1,0.3,3.1,2.6,2,4.4
		c-0.5,0.8-1.2,1.4-2,1.8c-0.8,0.5-1.6,0.9-2.3,1.4c-1.1,0.7-1.3,1.6-0.4,2.6c1.6,1.9,3.6,3.4,6.2,3.8c1.3,0.2,2.2,1.6,1.9,2.9
		c0,0.2-0.1,0.4-0.3,0.5c-0.1,0.1-0.3,0.2-0.4,0.2C25,67.3,25,67.1,25,67c-0.1-0.6-0.3-1.2-0.6-1.8c-0.2-0.3-0.4-0.4-0.8-0.2
		c-0.3,0.2-0.3,0.5-0.1,0.8c0.3,0.4,0.4,1,0.5,1.5c0.1,0.5-0.2,0.7-0.6,0.8c-0.3,0-0.5,0.1-0.8,0.1c-0.6-0.1-1.1-0.2-1-1
		c0-0.6-0.3-1.1-0.6-1.6c-0.2-0.3-0.4-0.4-0.8-0.2c-0.3,0.2-0.3,0.5-0.1,0.8c0.2,0.3,0.3,0.6,0.4,0.9c0.2,0.5,0,0.8-0.5,1
		c-0.8,0.2-1.5,0-1.8-0.8c-1.2-2.8-3.2-4.9-5.7-6.6c-1.1-0.8-1.1-0.8-0.2-1.8c0.1-0.1,0.2-0.2,0.3-0.3c1.4-1.5,1.4-2.9,0-4.5
		c-0.5-0.6-1.2-1.1-1.8-1.6c-1.6-1.5-2-3.2-1.2-5.2c0.3-0.8,0.7-1.5,1.3-2.1c2-2.4,3.2-5.1,3.6-8.1c0-0.1,0-0.3,0.1-0.4
		c0.5-0.6,0.7-1.3,0.9-2c0-0.1,0.1-0.3,0.1-0.4c0.1-0.2,0.2-0.5,0.5-0.4c0.3,0.1,0.3,0.4,0.3,0.6c-0.1,0.6-0.3,1.2-0.4,1.8
		c-0.1,0.8,0.1,1.5,0.8,1.9c0.7,0.4,1.4,0.5,2.1,0.1c0.3-0.2,0.6-0.3,0.2-0.8c-0.4-0.4-0.2-1-0.2-1.5c0.1-0.4,0.2-0.9,0.3-1.3
		c0.1-0.2,0.1-0.5,0.4-0.4c0.3,0.1,0.5,0.3,0.5,0.5c0,0.3,0,0.7,0,1c-0.1,1.2,0.1,2.3,1.3,2.9c0.1,0,0.1,0.1,0.2,0.2
		C22,39.7,22.8,40.2,23.9,40.3z"/>
	<path class="st9" d="M81.1,49.6c0.8-0.1,1.7,0,2.4,0.4c0.3,0.1,0.6,0.1,0.7-0.3c0.2-0.4-0.1-0.5-0.4-0.7c-0.5-0.3-1.1-0.4-1.7-0.5
		c-0.2,0-0.4-0.1-0.4-0.4c-0.2-1.9-1.2-3.4-2.4-4.7c-0.6-0.7-1.3-1.3-2-1.9c-0.3-0.3-0.6-0.6-0.9-0.9c-0.2-0.3-0.2-0.4,0.2-0.5
		c0.8-0.1,1.4-0.5,1.8-1.3c0.1-0.1,0.1-0.2,0.2-0.3c1.3-0.7,1.4-1.9,1.3-3.2c0-0.3-0.1-0.6,0-0.9c0.1-0.3,0.2-0.4,0.5-0.4
		c0.3,0,0.3,0.2,0.4,0.4c0.2,0.6,0.3,1.3,0.4,2c0,0.3,0,0.5-0.2,0.7c-0.3,0.6-0.2,0.8,0.4,1c1.6,0.5,3-0.8,2.7-2.5
		c-0.1-0.5-0.2-1-0.4-1.5c0-0.2,0-0.5,0.2-0.5c0.3-0.1,0.4,0.2,0.5,0.4c0.3,1.5,1.2,2.7,1.4,4.2c0.4,2.4,1.5,4.5,3,6.4
		c0.9,1.1,1.7,2.3,1.9,3.8c0.2,1.4-0.2,2.6-1.2,3.6c-0.6,0.6-1.2,1.1-1.8,1.6c-0.4,0.4-0.8,0.9-1.1,1.4c-0.5,1-0.4,1.9,0.3,2.8
		c0.3,0.4,0.7,0.8,1.1,1.2c0.5,0.6,0.5,0.8-0.1,1.3c-0.6,0.5-1.2,0.9-1.8,1.4c-1.9,1.5-3.3,3.3-4.3,5.5C81.7,67.7,81.4,68,81,68
		c-0.5,0.1-1,0.1-1.4-0.3c-0.3-0.3,0-0.8,0.2-1.1c0.1-0.2,0.2-0.3,0.3-0.5c0.2-0.3,0.1-0.5-0.2-0.7c-0.3-0.2-0.5-0.1-0.7,0.2
		c-0.4,0.6-0.7,1.2-0.7,2c0,0.4-0.2,0.5-0.5,0.6c-0.6,0.1-1.4,0.2-1.7-0.3c-0.4-0.5,0-1.2,0.2-1.8c0-0.1,0.1-0.1,0.1-0.2
		c0.2-0.3,0.3-0.6-0.1-0.8c-0.4-0.2-0.6,0-0.8,0.3c-0.3,0.5-0.5,1.1-0.6,1.7c0,0.1,0,0.3-0.1,0.3c-0.2,0.1-0.3-0.1-0.4-0.1
		c-0.2-0.1-0.3-0.3-0.3-0.5c-0.3-1.3,0.6-2.7,1.9-2.8c0.9-0.1,1.7-0.4,2.4-0.8c1.2-0.7,2.3-1.4,3.2-2.4c0.3-0.3,0.5-0.6,0.7-0.9
		c0.5-0.9,0.4-1.5-0.4-2.2c-0.6-0.5-1.2-0.8-1.8-1.1c-0.7-0.4-1.5-0.9-2.1-1.5c-1-1-1.3-2.2-0.8-3.5c0.4-1.3,1.5-1.7,2.7-1.8
		C80.4,49.6,80.7,49.6,81.1,49.6z"/>
	<path class="st8" d="M60.5,28.9c-7-3.1-13.9-3.1-20.9,0c0.1-0.9,0-1.8-0.7-2.4c-0.2-0.2-0.1-0.3-0.1-0.5c0.1-1.1-0.4-1.8-1.4-1.9
		c-0.3,0-0.5-0.1-0.6-0.5c-0.1-0.4-0.2-0.8-0.4-1.2c-0.3-0.6-0.3-1.1,0.2-1.6c0.6-0.6,0.2-1.4-0.6-2c-0.8-0.5-0.7-0.4-0.1-1.2
		c0.6-0.8,1.5-1.1,2.4-1.4c8.3-2.7,16.5-2.5,24.7,0.5c0.7,0.3,1,1,1.5,1.5c0.1,0.1,0.1,0.3-0.1,0.5c-0.3,0.1-0.6,0.3-0.8,0.5
		c-0.6,0.6-0.7,1.3,0,1.9c0.3,0.3,0.4,0.6,0.2,0.9c-0.1,0.3-0.2,0.5-0.3,0.8c-0.2,0.7-0.4,1.4-1.4,1.5c-0.7,0.1-1,0.8-0.9,1.6
		c0,0.3,0,0.6-0.3,0.8C60.5,27.2,60.4,27.8,60.5,28.9z"/>
	<path class="st9" d="M13.1,18.2c-0.3,0-0.6,0-0.8-0.1c-0.6-0.1-0.8-0.4-0.7-0.9c0.1-0.6,0.2-0.7,0.8-0.4c0.8,0.6,1.6,0.4,2.2-0.3
		c0.2-0.3,0.5-0.7,0.9-0.9c0.2-0.2,0.3-0.3,0-0.5c-0.2-0.1-0.4-0.3-0.5-0.4c-0.4-0.3-0.3-0.6,0-0.9c0.3-0.2,0.5-0.4,0.7,0.1
		c0.2,0.6,0.9,0.8,1.6,0.6c0.9-0.2,1.8-0.3,2.9-0.1c-0.2-0.3-0.3-0.6-0.4-0.9c-0.1-0.3,0-0.5,0.3-0.6c0.4-0.1,0.4,0.1,0.4,0.3
		c0.1,0.5,0.6,0.7,1,0.9c0.4,0.2,0.8,0.3,1.2,0.4c0.2,0.1,0.6,0,0.6,0.4c-0.1,0.4-0.3,0.4-0.6,0.4c-0.9,0-1.7-0.1-2.6,0.1
		c-0.4,0.1-0.7,0.2-1,0.5c-0.1,0.2-0.3,0.2-0.5,0.2c-0.3,0-0.6,0-0.9,0.1c-1.1,0.2-1.5,1.2-0.7,2c0.6,0.6,0.5,1.2,0.3,1.8
		c-0.6,1.9,0.1,3.2,2.1,3.7c0.5,0.1,1,0.4,1.4,0.8c0.6,0.6,1.4,1,2.3,0.9c0.6,0,1.3,0,1.9,0c0.7-0.1,1,0.3,1.2,0.8
		c0.2,0.5,0.2,1,0.2,1.4c0.2,0.9,0.7,1.5,1.4,2c0.1,0.1,0.3,0.1,0.5,0.2c0.2,0.1,0.5-0.3,0.6,0.1c0.1,0.3-0.1,0.7-0.3,0.9
		c-0.2,0.3-0.5,0.1-0.8,0c-0.2-0.1-0.5-0.3-0.7-0.4c-0.2,0.6-0.4,1.1-0.6,1.7c-0.2,0.7-0.3,1.5,0.4,2c0.2,0.2,0.1,0.3,0,0.4
		c-0.5,0.6-1.1,0.5-1.5-0.3c-0.5-1.2-1-1.5-2-1.5c-0.6,0-0.9,0.3-1,0.9c-0.1,0.8-0.1,1.6,0.1,2.3c0.1,0.6,0.3,1.2,0.8,1.6
		c-1.1,0.4-2-0.2-2-1.3c0-0.6,0-1.2,0-1.8c0-0.8-0.5-1.4-1.3-1.5c-0.7-0.1-1.2,0.2-1.4,1.1c-0.3,1-0.6,2.1-0.3,3.2
		c-0.8,0-1.2-0.4-1.2-1.1c0-0.5,0.2-1,0.3-1.4c0.1-0.3,0.1-0.6,0.1-0.9c0-0.7-0.4-1.2-1-1.3c-0.6-0.1-1.2,0.2-1.4,0.8
		c-0.2,0.5-0.3,1.1-0.5,1.6c-0.4,1-0.9,1.2-1.9,0.6c1.2-0.9,1.2-2.2,1.1-3.5c-0.1-1-0.8-1.4-1.7-0.9c-0.5,0.3-0.8,0.2-1-0.3
		c-0.2-0.3-0.3-0.5,0.3-0.6c1,0,1.5-0.8,1.2-1.8c-0.1-0.4-0.3-0.9-0.4-1.3c-0.1-0.2-0.1-0.3-0.4-0.2c-0.1,0.1-0.3,0.2-0.5,0.2
		c-0.8,0.3-1.3-0.1-1.2-1c0-0.2,0.1-0.2,0.3-0.2c1.3,0.2,1.9-0.3,1.8-1.6c0-0.4,0-0.9,0-1.3c0-0.5-0.2-0.6-0.6-0.5
		c-0.2,0-0.3,0.1-0.5,0.1c-0.3,0-0.6,0-0.8-0.4c-0.2-0.4-0.1-0.7,0-1.1c0.1-0.3,0.2-0.1,0.3,0c1.2,0.4,2-0.1,2.1-1.3
		C12.6,19.3,12.8,18.8,13.1,18.2z"/>
	<path class="st9" d="M77.1,37.9c1-1.4,1-2.8,0.7-4.3c0-0.3-0.2-0.4-0.5-0.5c-1.1-0.3-1.9,0.1-2.4,1.4c-0.3,0.8-0.9,0.9-1.5,0.3
		c-0.1-0.2-0.2-0.3,0-0.4c0.5-0.4,0.6-1,0.5-1.7c-0.2-0.7-0.5-1.4-0.7-2c-0.3,0.2-0.5,0.3-0.7,0.4c-0.5,0.3-0.8,0.1-0.9-0.4
		c-0.1-0.4-0.3-0.7,0.4-0.6c0.7,0.1,1.7-1,1.9-1.9c0.1-0.5,0.1-1,0.2-1.5c0.2-0.9,0.5-1,1.3-1c0.4,0,0.7,0,1.1,0
		c1.3,0.1,2.4-0.1,3.3-1.2c0.2-0.2,0.5-0.3,0.8-0.4c0.5-0.1,0.9-0.3,1.4-0.5c1.1-0.7,1.5-1.8,1.1-3c-0.3-0.8-0.5-1.5,0.3-2.3
		c0.7-0.8,0.2-1.7-1-1.9c-0.6-0.1-1.1,0-1.6-0.5c-0.3-0.3-0.9-0.3-1.3-0.4c-0.6,0-1.2,0-1.8,0c-0.3,0-0.7,0.1-0.7-0.4
		c-0.1-0.5,0.4-0.4,0.6-0.5c0.5-0.1,0.9-0.3,1.4-0.5c0.4-0.2,0.7-0.4,0.7-0.9c0-0.3,0.2-0.3,0.4-0.2c0.2,0.1,0.6,0.1,0.4,0.5
		c-0.1,0.3-0.3,0.6-0.5,1c1.2-0.1,2.3,0.1,3.4,0.2c0.7,0,1-0.3,1.3-1.1c0.4,0.1,0.7,0.3,0.8,0.7c0.1,0.4-0.3,0.6-0.6,0.8
		c-0.4,0.3-0.5,0.5,0,0.8c0.3,0.2,0.4,0.5,0.6,0.7c0.7,0.9,1.7,1,2.5,0.2c0.1-0.1,0.1-0.1,0.2-0.2c0.1,0.2,0.2,0.3,0.2,0.4
		c0.3,0.8,0,1.3-0.8,1.3c-0.4,0-0.6,0.1-0.4,0.5c0.2,0.4,0.3,0.9,0.3,1.3c-0.1,0.9,1,1.7,2,1.3c0.6-0.3,0.6,0,0.6,0.4
		c0,0.8-0.3,1.1-1.1,1c-0.9-0.1-0.9-0.1-0.9,0.8c0,0.4,0,0.7,0,1.1c0,1.1,0.7,1.7,1.7,1.5c0.5-0.1,0.5,0.1,0.4,0.4
		c-0.1,0.9-0.5,1.1-1.2,0.8c-0.7-0.3-0.9-0.1-1,0.5c-0.1,0.3-0.2,0.6-0.3,1c-0.2,0.9,0.3,1.6,1.2,1.7c0.2,0,0.6-0.2,0.5,0.2
		c-0.1,0.4-0.3,0.8-0.8,0.8c-0.1,0-0.2-0.1-0.3-0.1c-1-0.5-1.7-0.2-1.8,0.9c-0.1,1.2-0.1,2.4,1,3.3c0.2,0.1,0.1,0.2,0,0.3
		c-0.5,0.4-1.2,0.2-1.5-0.4c-0.3-0.5-0.4-1.2-0.6-1.7c-0.3-0.9-0.9-1.3-1.6-1.1c-0.7,0.2-1.1,0.9-0.9,1.8c0.1,0.6,0.3,1.1,0.4,1.7
		c0.1,0.6-0.2,1.2-0.8,1.3c-0.2,0.1-0.4,0.1-0.3-0.3c0.2-1.1-0.1-2.1-0.4-3.2c-0.2-0.5-0.6-0.9-1.2-0.8c-0.6,0-1.1,0.3-1.3,0.9
		c-0.2,0.7-0.1,1.3-0.1,2C79.1,37.5,78.6,38,77.1,37.9z"/>
	<path class="st7" d="M64.4,31.1c0.7-0.5,1.3-0.3,2.1-0.2c1.2,0.1,1.8,0.9,2.4,1.8c1.2,1.8,2.2,3.8,3.6,5.5c0.6,0.7,1.3,1.4,2.1,1.8
		c0.2,0.1,0.3,0.2,0.4,0.4c0.5,0.9,1.2,1.6,2,2.3c1.2,0.9,2.2,2,2.9,3.3c0.2,0.3,0.4,0.7,0.5,1.1c0.2,0.4,0.4,0.9,0.2,1.3
		c-0.2,0.5-0.8,0.2-1.1,0.3c-1.6,0.3-2.8,0.9-3.3,2.5c-0.5,1.7-0.2,3.2,1,4.5c0.9,0.9,2.1,1.6,3.2,2.2c1.5,0.8,1.5,1.2,0.3,2.3
		c-1,0.9-2.1,1.6-3.3,2.3c-0.4,0.2-0.9,0.3-1.4,0.4c-2,0.2-3.5,2.3-2.9,4.2c0.2,0.6,0.6,1.1,1.3,1.4c-4.2,0.7-8.2,2-12.3,3
		c7.3-4.6,11.6-11,12.1-19.6C74.7,43.2,71.1,36.4,64.4,31.1z"/>
	<path class="st7" d="M35.7,31.1C21.9,41,22.5,62.1,37.6,71.2c-4-0.9-7.8-2.1-11.9-2.8c1.6-0.9,1.8-2.9,0.7-4.3
		c-0.6-0.8-1.4-1.2-2.4-1.3c-0.3,0-0.7-0.1-1-0.2c-1.5-0.7-2.8-1.6-4-2.8c-0.8-0.9-0.8-1.1,0.2-1.7c1.2-0.7,2.4-1.3,3.4-2.3
		c0.9-0.8,1.5-1.8,1.5-3.1c0-2.5-1.5-4-4.1-4.1c-0.7,0-0.7-0.3-0.6-0.8c0.3-1.2,0.9-2.2,1.6-3.1c0.6-0.8,1.4-1.5,2.2-2.1
		c0.8-0.6,1.4-1.3,1.8-2.2c0.1-0.1,0.1-0.3,0.3-0.4c1.7-0.8,2.7-2.3,3.7-3.8c0.9-1.3,1.7-2.6,2.5-4c0.4-0.7,0.9-1.3,1.8-1.2
		c0.1,0,0.1,0,0.2,0C34.3,30.7,35,30.6,35.7,31.1z"/>
	<path class="st9" d="M28,23.9c0,0.4-0.3,0.5-0.6,0.6c-1.7,0.2-3.5,0.3-5.3,0.2c-0.4,0-0.6-0.3-0.9-0.5c-0.6-0.5-1.2-0.9-1.9-1
		c-0.7-0.1-1.2-0.5-1.5-1.1c-0.2-0.3-0.2-0.7-0.1-1c0.1-0.3,0.2-0.7,0.3-1c0.3-0.7,0.4-1.4-0.5-1.9c-0.2-0.1-0.4-0.3-0.3-0.6
		c0.1-0.3,0.4-0.2,0.6-0.3c0.3,0,0.5-0.1,0.8-0.1c0.3,0,0.6,0,0.7-0.3c0.2-0.3,0.5-0.4,0.8-0.4c1.3-0.1,2.7-0.1,4,0.1
		c0.2,0,0.4,0.1,0.5,0.3c0.6,0.8,1.5,0.9,2.4,1c0.8,0,1.6,0.3,2.3,0.5c0.3,0.1,0.5,0.3,0.3,0.6c-0.3,0.8-0.7,1.5-0.6,2.4
		c0,0.3-0.2,0.2-0.4,0.2c-1.1,0-2.3,0.1-3.4,0.1c-0.4,0-0.5,0.1-0.5,0.5c0,0.5,0,1,0,1.5c0,0.4,0.1,0.5,0.5,0.5
		C26.2,23.9,27.1,23.9,28,23.9z"/>
	<path class="st9" d="M73,21.4c-0.6,0-1.1,0-1.7,0c-0.3,0-0.5-0.1-0.5-0.4c0.1-0.6-0.1-1.2-0.4-1.8c-0.3-0.6-0.2-0.8,0.5-1
		c0.9-0.3,1.9-0.5,2.9-0.5c0.5,0,0.9-0.2,1.2-0.5c0.4-0.5,0.9-0.7,1.4-0.7c1.1-0.1,2.2-0.1,3.4,0c0.2,0,0.5,0,0.6,0.2
		c0.5,0.7,1.2,0.5,1.9,0.7c0.2,0,0.5,0,0.6,0.3c0.1,0.3-0.1,0.5-0.3,0.6c-0.9,0.5-0.7,1.1-0.5,1.9c0.1,0.2,0.1,0.5,0.2,0.7
		c0.4,1.1,0,2-1.1,2.4c-1,0.3-1.9,0.7-2.6,1.5c-0.2,0.2-0.5,0.3-0.8,0.3c-1.6,0.1-3.2,0-4.8-0.2c-0.2,0-0.3-0.1-0.5-0.1
		c-0.2-0.1-0.3-0.2-0.3-0.4c0-0.2,0.2-0.1,0.4-0.1c0.8,0,1.5,0,2.3,0c0.4,0,0.5-0.1,0.5-0.5c0-0.5,0-1,0-1.5c0-0.3-0.1-0.5-0.5-0.5
		C74.2,21.5,73.6,21.4,73,21.4C73,21.4,73,21.4,73,21.4z"/>
	<path class="st9" d="M77.2,38.8c-1,0.6-1.8,0.5-2.6,0c-1.2-0.8-2-2-2.8-3.2c-1.1-1.6-2-3.4-3.2-4.9c-0.3-0.3-0.5-0.5-1-0.5
		c-0.7,0-1.3-0.2-2-0.5c-0.3-0.1-0.5-0.1-0.7,0.1c-0.3,0.3-0.7,0.4-1.1,0.4c-0.3,0-0.6,0-0.8-0.3c-0.1-0.3,0-0.6,0.2-0.8
		c0.2-0.2,0.3-0.3,0.5-0.5c0.2-0.2,0.2-0.4,0.1-0.7c-0.2-0.2-0.4-0.3-0.6-0.1c-0.4,0.2-0.7,0.5-0.9,0.9c-0.1,0.2-0.2,0.4-0.4,0.3
		c-0.3-0.1-0.3-0.3-0.3-0.5c-0.1-0.8,0.5-1.4,1.4-1.6c0.2,0,0.4,0,0.6,0c0.2,0,0.4-0.2,0.4-0.4c0-0.3-0.1-0.5-0.4-0.5
		c-0.2-0.1-0.5,0-0.7,0c-0.2,0-0.4,0.2-0.5-0.1c0-0.3,0.1-0.4,0.4-0.5c0.5-0.1,1-0.1,1.5,0c1.7,0.3,3.4,1,5,1.8
		c1.1,0.6,2.3,1.2,3.5,1.7c-0.4,0.5-0.8,0.6-1.4,0.3c-0.4-0.2-0.6-0.1-0.6,0.3c-0.1,0.9,0,1.7,0.5,2.4c0.3,0.4,0.7,0.6,1.2,0.4
		c0.3-0.2,0.4,0,0.5,0.3c0.1,0.2,0.2,0.4,0.2,0.7c0.1,0.4-0.1,0.7-0.4,0.8c-0.7,0.1-0.5,0.5-0.4,0.9c0.3,0.9,1,1.5,1.9,1.5
		c0.7,0,1.2-0.3,1.5-0.9c0.1-0.3,0.3-0.6,0.4-0.9c0.1-0.2,0.4-0.4,0.6-0.3c0.3,0,0.2,0.4,0.3,0.6c0.1,0.7,0,1.5-0.2,2.2
		c-0.1,0.3-0.3,0.6-0.6,0.7c-0.6,0.2-0.4,0.5-0.1,0.9C76.3,38.5,76.7,38.6,77.2,38.8z"/>
	<path class="st9" d="M22.9,38.8c0.5-0.2,0.9-0.3,1.2-0.7c0.2-0.3,0.4-0.6-0.1-0.8c-0.4-0.2-0.6-0.5-0.7-0.9c-0.2-0.7-0.2-1.3-0.2-2
		c0-0.2,0-0.4,0.2-0.5c0.2-0.1,0.4,0,0.6,0.2c0.2,0.2,0.3,0.4,0.4,0.7c0.3,0.8,0.8,1.3,1.6,1.2c0.9,0,1.4-0.5,1.8-1.2
		c0.1-0.2,0.2-0.4,0.2-0.7c0-0.2,0-0.3-0.2-0.4c-0.6-0.2-0.8-0.5-0.6-1.1c0.1-0.3,0.2-0.5,0.3-0.8c1.1,0.3,1.6,0,1.9-1.1
		c0.2-0.5,0.2-1,0.1-1.6c0-0.4-0.2-0.6-0.6-0.3C28.6,29,28.4,29,28.2,29c-0.2,0-0.5-0.1-0.6-0.3c-0.1-0.3,0.3-0.3,0.4-0.3
		c1.9-0.9,3.7-2,5.7-2.6c1-0.3,2.1-0.7,3.2-0.7c0.2,0,0.5,0,0.7,0.2c0.1,0.1,0.2,0.3,0.2,0.5c-0.1,0.3-0.3,0.1-0.4,0.1
		c-0.2,0-0.5-0.1-0.7-0.1c-0.3,0-0.5,0.2-0.5,0.5c0,0.3,0.2,0.5,0.5,0.5c0.3,0,0.7,0.1,1,0.2c0.6,0.2,1,0.9,0.9,1.5
		c0,0.2-0.1,0.4-0.3,0.5c-0.2,0.1-0.3-0.1-0.4-0.3c-0.2-0.3-0.5-0.6-0.9-0.8c-0.3-0.2-0.5-0.2-0.7,0.1c-0.2,0.2-0.1,0.5,0.2,0.7
		c0,0,0,0,0.1,0c0.5,0.3,0.9,0.7,0.6,1.2c-0.3,0.6-1,0.4-1.4,0.1c-0.6-0.4-1.1-0.3-1.7-0.1c-0.3,0.1-0.7,0.3-1,0.2
		c-0.9-0.1-1.3,0.5-1.8,1.1c-1,1.4-1.8,2.9-2.8,4.4c-0.7,1.1-1.5,2.2-2.6,3C24.8,39.4,23.8,39.4,22.9,38.8z"/>
	<path class="st9" d="M7.4,51.6c-4.8,0-7.5-4.5-5.7-9.1c0.5-1.4,1.4-2.6,2.2-3.8c1.6-2.3,1.9-4.8,1.2-7.5c-0.1-0.4-0.2-0.6-0.7-0.6
		c-1,0.1-1.5-0.4-1.8-1.3C2.3,28.5,2,27.6,1.4,27c-0.2-0.2-0.1-0.3,0.1-0.4c1.2-0.6,2.4-1,3.7-0.5c1.1,0.4,1.8,1.5,1.7,2.7
		c0,0.5-0.2,1-0.7,1.2c-0.5,0.2-0.5,0.6-0.4,1c0.4,2,0.5,4-0.3,6c-0.3,0.9-0.9,1.6-1.4,2.4c-1,1.6-1.9,3.2-2.1,5.1
		c-0.3,2.7,1.5,5.1,4.2,5.5c0.5,0.1,1.1,0.2,1.6,0.1c0.3,0,0.5,0,0.6,0.3c0.3,0.8,0.3,0.8-0.6,0.9C7.7,51.6,7.5,51.6,7.4,51.6z"/>
	<path class="st9" d="M91.4,51.5c0-0.1,0.1-0.2,0.1-0.2c0.1-0.8,0.6-0.9,1.3-0.9c4.1,0,6.3-3.4,4.9-7.5c-0.4-1.1-0.9-2.1-1.6-3
		c-2.1-2.7-2.5-5.7-1.8-9c0.1-0.2,0.1-0.4-0.2-0.6c-0.9-0.4-1.1-1.1-0.8-2.3c0.3-1.3,1.5-2.1,3-2.1c0.8,0,1.5,0.3,2.2,0.6
		c0.3,0.2,0.4,0.3,0.1,0.6c-0.6,0.6-0.8,1.3-1,2.1c-0.4,1.1-0.6,1.3-1.8,1.4c-0.4,0-0.6,0.1-0.7,0.5c-0.6,2.6-0.5,5.1,1.1,7.4
		c0.7,1.1,1.5,2.2,2,3.4c1,2.1,1.2,4.2,0.2,6.3c-1,2.1-2.7,3.2-5.1,3.4C92.7,51.6,92.1,51.6,91.4,51.5z"/>
	<path class="st9" d="M73.5,25.5c-0.2,0.6-0.4,1.2-0.4,1.8c0,0.3-0.2,0.3-0.4,0.2c-0.6-0.3-1.3-0.6-1.9-0.9
		c-0.3-0.1-0.3-0.4-0.3-0.7c-0.3-1.7-1.1-3-2.4-4.1c-0.3-0.2-0.5-0.3-0.8-0.1c-0.4,0.3-0.8,0.2-1.2-0.1c-0.5-0.4-1-0.7-1.5-1.1
		c-0.5-0.4-0.5-0.7,0.1-1c0,0,0.1,0,0.1-0.1c0.3-0.2,0.8-0.1,0.9-0.6c0.1-0.6,0-1.2-0.5-1.7c-0.2-0.2-0.5-0.5-0.7-0.7
		c-0.3-0.4-0.2-0.7,0.3-0.8c0.5-0.1,0.9,0.1,1.1,0.5c0.1,0.2,0.2,0.4,0.3,0.6c0.2,0.3,0.4,0.3,0.7,0.2c0.3-0.1,0.3-0.4,0.2-0.6
		c-0.1-0.3-0.3-0.5-0.4-0.8c-0.2-0.3-0.1-0.4,0.2-0.4c0.5,0,0.8,0.1,1,0.6c0.1,0.2,0.2,0.4,0.2,0.6c0.1,0.3,0.3,0.5,0.6,0.4
		c0.3-0.1,0.5-0.3,0.4-0.7c0-0.1-0.1-0.3-0.1-0.4c0.6,0.1,1.3,0.9,1.4,1.4c0,0.2,0,0.2-0.2,0.3c-0.3,0.2-0.7,0.1-0.8,0.4
		c-0.2,0.5-0.1,1,0.1,1.4c0.3,0.7,0.5,1.4,0.5,2.2c0.1,0.7,0.3,0.9,1.1,0.9c1,0,1.9,0,2.9,0c0.3,0,0.4,0.1,0.4,0.4
		c0,0.3-0.2,0.4-0.4,0.4c-0.8,0-1.6,0-2.4,0c-0.5,0-0.6,0.2-0.5,0.6c0.2,1,0.7,1.6,1.8,1.7C73,25.4,73.3,25.4,73.5,25.5z"/>
	<path class="st9" d="M27.1,27.6c-0.1-0.4-0.1-0.8-0.2-1.1c-0.1-0.3-0.2-0.6-0.3-1c0.3,0,0.6-0.1,0.9-0.1c0.9-0.1,1.5-0.8,1.6-1.8
		c0-0.4-0.1-0.6-0.5-0.6c-0.8,0-1.6,0-2.4,0c-0.2,0-0.5,0-0.5-0.3c0-0.4,0.2-0.4,0.5-0.4c1,0,1.9,0,2.9,0c0.6,0,1-0.3,1-0.8
		c0-0.8,0.2-1.5,0.5-2.3c0.1-0.2,0.1-0.5,0.1-0.8c0.1-0.5-0.1-0.8-0.6-0.9c-0.5-0.1-0.5-0.3-0.3-0.7c0.2-0.3,0.4-0.7,0.8-0.9
		c0.1-0.1,0.2-0.2,0.3-0.1c0.1,0.1,0.1,0.2,0,0.3c-0.1,0.4,0,0.7,0.4,0.8c0.4,0.1,0.6-0.2,0.7-0.6c0.2-0.5,0.4-1,1.1-1
		c0.1,0,0.3-0.1,0.4,0.1c0.1,0.1-0.1,0.2-0.1,0.3c-0.1,0.2-0.2,0.4-0.3,0.6c-0.2,0.3-0.2,0.6,0.2,0.8c0.3,0.2,0.6,0,0.7-0.3
		c0.1-0.2,0.2-0.3,0.2-0.4c0.3-0.5,0.7-0.6,1.2-0.6c0.5,0.1,0.6,0.4,0.3,0.8c-0.1,0.2-0.3,0.4-0.5,0.5c-0.3,0.3-0.6,0.6-0.7,1.1
		c-0.2,0.8-0.1,1,0.7,1.3c0.2,0.1,0.3,0.1,0.5,0.2c0.4,0.2,0.4,0.5,0.1,0.7c-0.6,0.5-1.3,1-2,1.4c-0.3,0.2-0.7,0.1-1-0.1
		c-0.3-0.2-0.5-0.1-0.7,0.1c-1.3,1.1-2.2,2.5-2.5,4.3c0,0.2-0.1,0.4-0.3,0.6C28.6,26.9,27.9,27.3,27.1,27.6z"/>
	<path class="st9" d="M11.4,54.4c1.4,1,1.5,2.2,0.4,3.4c-0.3,0.3-0.6,0.6-0.8,1c-0.6,0.8-0.6,1.5,0.3,2.2c0.7,0.6,1.5,1.1,2.3,1.7
		c1.4,1.2,2.6,2.5,3.4,4.2c0.2,0.4,0.1,0.6-0.3,0.6c0,0-0.1,0-0.1,0c-1.2,0.3-1.2,0.3-1.7-0.8c-1.2-2.5-3.1-4.3-5.3-6
		c-1.2-0.9-1.2-1-0.2-2.1c0.3-0.3,0.6-0.7,0.9-1C10.9,56.7,11.4,55.7,11.4,54.4z"/>
	<path class="st9" d="M88.7,54.4c0,1.4,0.6,2.4,1.4,3.4c0.4,0.4,0.8,0.9,1.2,1.3c0.5,0.6,0.5,0.8-0.1,1.3c-0.7,0.6-1.5,1.1-2.2,1.7
		C87.3,63.5,86,65,85.2,67c-0.3,0.7-0.6,0.8-1.3,0.6c-0.1,0-0.3,0-0.4-0.1c-0.5-0.1-0.6-0.2-0.4-0.7c1.1-2.1,2.8-3.7,4.7-5.1
		c0.4-0.3,0.8-0.5,1.1-0.9c0.6-0.6,0.7-1.2,0.2-1.9c-0.3-0.4-0.5-0.7-0.9-1C87.2,56.8,87.2,55.6,88.7,54.4z"/>
	<path class="st10" d="M69.4,25.8c-1.5-0.7-3-1.3-4.5-1.6c-0.3-0.1-0.3-0.2-0.2-0.4c0.2-0.5,0.3-1,0.5-1.6c0.7,0.4,1.4,0.8,2.2,0.4
		c0.2-0.1,0.3,0.1,0.5,0.3C68.7,23.7,69.2,24.7,69.4,25.8z"/>
	<path class="st10" d="M30.7,25.8c0.3-1.2,0.8-2.2,1.7-3c0.1-0.1,0.2-0.2,0.4-0.1c0.6,0.3,1.2,0.1,1.7-0.3c0.3-0.2,0.4-0.2,0.5,0.2
		c0.1,0.5,0.5,1,0.4,1.4c-0.1,0.4-0.8,0.3-1.3,0.5C33,24.9,31.9,25.3,30.7,25.8z"/>
	<path d="M47,34.5c0-0.9,0-1.9,0-2.8c0-0.4,0.1-0.6,0.5-0.5c1.3,0,2.7,0,4,0c1.7,0,2.6,1.5,1.8,2.9c-0.1,0.2-0.1,0.3,0,0.5
		c0.9,1.4,0.1,3.1-1.6,3.2c-1.5,0.1-2.9,0-4.4,0c-0.4,0-0.4-0.2-0.4-0.5C47,36.4,47,35.5,47,34.5z"/>
	<path d="M30.5,50.6c0-1,0-1.9,0-2.9c0-0.3,0.1-0.4,0.4-0.4c1.4,0,2.8,0,4.3,0c1.5,0,2.4,1.5,1.7,2.8c-0.1,0.3-0.1,0.4,0,0.7
		c0.9,1.4,0,3.1-1.6,3.1c-1.5,0.1-3,0-4.5,0c-0.3,0-0.4-0.1-0.4-0.4C30.5,52.6,30.5,51.6,30.5,50.6z"/>
	<path d="M54.3,70.4c-0.7,0-1.2,0-1.7,0c-0.2,0-0.3-0.2-0.4-0.3c-0.4-0.5-0.8-1-1.1-1.5c-0.4-0.6-0.8-0.8-1.5-0.7c-1,0.1-1,0-1,1
		c0,0.2,0,0.3,0,0.5c0,1.1-0.2,1.3-1.3,1.1c-0.2,0-0.3-0.1-0.3-0.3c0-2,0-4,0-6c0-0.3,0.1-0.3,0.4-0.3c1.5,0,2.9,0,4.4,0
		c0.8,0,1.6,0.7,1.8,1.5c0.2,0.8,0,1.7-0.8,2.2c-0.5,0.3-0.4,0.5-0.1,0.8C53.2,68.9,53.7,69.6,54.3,70.4z"/>
	<path d="M47,58.7c0-1,0-1.9,0-2.9c0-0.4,0.1-0.5,0.5-0.5c1.7,0,3.5,0,5.2,0c0.4,0,0.5,0.2,0.5,0.5c0,1.1,0.1,0.9-0.9,0.9
		c-1,0-2.1,0-3.1,0c-0.4,0-0.6,0.1-0.6,0.6c0,0.4,0.1,0.6,0.5,0.6c1.1,0,2.2,0,3.3,0c0.4,0,0.6,0.1,0.5,0.5c0,0.2,0,0.3,0,0.5
		c0,0.3-0.1,0.4-0.4,0.4c-1.1,0-2.3,0-3.4,0c-0.5,0-0.5,0.2-0.5,0.6c0,0.3-0.2,0.7,0.5,0.7c1.1,0,2.3,0,3.4,0c0.5,0,0.7,0.1,0.6,0.6
		c0,0.8,0,0.8-0.9,0.8c-1.5,0-3.1,0-4.6,0c-0.5,0-0.8-0.1-0.7-0.7C47,60.5,47,59.6,47,58.7z"/>
	<path d="M55.2,50.6c0-1,0-1.9,0-2.9c0-0.3,0-0.5,0.4-0.5c1.8,0,3.5,0,5.3,0c0.4,0,0.4,0.1,0.4,0.5c0,1,0,1-0.9,1
		c-1.1,0-2.1,0-3.2,0c-0.5,0-0.5,0.2-0.4,0.5c0,0.3-0.1,0.6,0.4,0.6c1.1,0,2.3,0,3.4,0c0.4,0,0.6,0.1,0.5,0.5c0,0.2,0,0.3,0,0.5
		c0.1,0.4-0.1,0.5-0.5,0.4c-1.1,0-2.2,0-3.3,0c-0.5,0-0.6,0.2-0.6,0.6c0,0.4,0,0.7,0.6,0.7c1.1-0.1,2.2,0,3.4,0
		c0.4,0,0.6,0.1,0.6,0.6c0,0.9,0,0.9-0.9,0.9c-1.5,0-3.1,0-4.6,0c-0.6,0-0.7-0.2-0.7-0.7C55.3,52.4,55.2,51.5,55.2,50.6z"/>
	<path d="M70.3,54c-0.7,0-1.2,0-1.8,0c-0.2,0-0.3-0.2-0.4-0.3c-0.5-0.6-1-1.2-1.4-1.8c-0.4-0.6-0.9-0.4-1.4-0.4
		c-0.3,0-0.2,0.3-0.2,0.4c0,0.6,0,1.2,0,1.8c0,0.3-0.1,0.3-0.4,0.4c-1.3,0.1-1.3,0.1-1.3-1.2c0-1.6,0-3.3,0-4.9
		c0-0.4,0.1-0.6,0.6-0.6c1.2,0,2.3,0,3.5,0c1,0,1.8,0.6,2.1,1.5c0.3,0.9-0.1,1.9-1.1,2.3c-0.4,0.2-0.3,0.3-0.1,0.5
		C69.2,52.4,69.7,53.1,70.3,54z"/>
	<path d="M45.9,45.8c1.1-2.2,2.2-4.3,3.2-6.4c0.1-0.2,0.2-0.3,0.4-0.3c0.5,0.1,1.1-0.3,1.4,0.2c1.1,2.1,2.2,4.3,3.3,6.5
		c-0.4,0-0.6,0-0.9,0c-0.6,0.1-1-0.1-1.2-0.7c-0.1-0.3-0.3-0.4-0.6-0.4c-1,0-2,0-3,0c-0.3,0-0.5,0-0.5,0.3c-0.2,0.8-0.7,0.9-1.4,0.8
		C46.4,45.8,46.2,45.8,45.9,45.8z"/>
	<path d="M46.5,54c-0.4,0-0.6,0-0.9,0c-0.6,0.1-1.1-0.1-1.2-0.7c-0.1-0.3-0.3-0.4-0.6-0.4c-1,0-1.9,0-2.9,0c-0.3,0-0.5,0-0.6,0.3
		c-0.2,0.7-0.7,0.9-1.3,0.8c-0.2,0-0.5,0-0.8,0c0.3-0.6,0.5-1.1,0.8-1.6c0.8-1.6,1.6-3.1,2.4-4.7c0.2-0.5,1.7-0.6,1.9-0.1
		C44.4,49.7,45.4,51.8,46.5,54z"/>
	<path d="M45.8,47.3c0.6,0,1.1,0,1.6,0c0.3,0,0.4,0.2,0.6,0.3c0.7,0.9,1.3,1.8,2,2.7c0.6-0.8,1.3-1.6,1.8-2.4
		c0.3-0.4,0.6-0.7,1.2-0.6c0.3,0,0.7,0,1.1,0c0,0.3-0.3,0.5-0.4,0.7c-0.6,0.7-1.1,1.5-1.7,2.1c-0.9,1-1.4,2-1.2,3.4
		c0.1,0.4-0.1,0.5-0.5,0.5c-1.1,0-1.2,0-1.1-1.1c0.1-0.9-0.2-1.5-0.7-2.2C47.6,49.6,46.8,48.5,45.8,47.3z"/>
	<path d="M51.7,81.4c0.5-0.7,1-1.3,1.4-2c0.3-0.4,0.6-0.6,1-0.5c0.4,0,0.8,0,1.4,0c-0.6,0.7-1.2,1.4-1.8,2c-0.2,0.3-0.2,0.4,0,0.7
		c0.7,0.8,1.3,1.6,1.9,2.4c0.1,0.2,0.3,0.3,0.4,0.7c-0.6,0-1.2,0-1.8,0c-0.3,0-0.4-0.2-0.5-0.4c-0.5-0.6-0.9-1.3-1.4-2
		c-0.6,0.3-0.5,0.9-0.5,1.5c0,0.3,0.2,0.8-0.1,0.9c-0.4,0.2-1,0.1-1.4,0.1c-0.2,0-0.1-0.2-0.1-0.4c-0.1-2.5-0.2-5-0.3-7.5
		c0-0.4,0.1-0.5,0.5-0.5c1.2,0,1.2-0.1,1.2,1.1C51.6,78.7,51.6,80,51.7,81.4z"/>
	<path d="M61.7,82.6c-0.5,0.9-1.1,1.3-1.9,1.4c-1,0.1-1.8-0.3-2.2-1.3c-0.5-1.2-0.6-2.6-0.8-3.8c0-0.2,0-0.3,0.2-0.3
		c0.4-0.1,0.7-0.1,1.1-0.2c0.3-0.1,0.3,0.1,0.4,0.4c0.2,1,0.4,2,0.6,3c0.3,0.9,1.2,1.2,1.8,0.5c0.3-0.3,0.4-0.7,0.3-1.1
		c-0.2-0.9-0.4-1.8-0.6-2.7c-0.1-0.4,0-0.5,0.4-0.6c1.2-0.2,1.2-0.3,1.4,0.9c0.3,1.3,0.5,2.7,0.8,4c0.1,0.3,0.1,0.5-0.3,0.5
		c-0.1,0-0.3,0-0.4,0.1C61.9,83.6,61.7,83.3,61.7,82.6z"/>
	<path d="M28.2,80.3c-0.9-0.1-1.7-0.2-2.5-0.6c-1-0.6-1.5-1.4-1.4-2.6c0.1-1.3,0.7-2.4,2-2.8c1.1-0.4,2.2-0.2,3.1,0.7
		c0.7,0.7,0.9,2.1,0.5,3c-0.2,0.3-0.4,0.2-0.6,0.2c-1-0.2-2-0.5-3-0.7c-0.1,0-0.3-0.1-0.4,0c-0.1,0.1-0.1,0.3,0,0.5
		c0.2,0.5,0.7,0.8,1.2,1c0.5,0.1,1,0.2,1.4,0.2c0.2,0,0.6-0.1,0.5,0.3c-0.1,0.3,0.2,0.8-0.4,0.8C28.5,80.2,28.3,80.3,28.2,80.3z"/>
	<path d="M41,84c-0.8,0-1.6-0.1-2.3-0.5c-1-0.6-1.5-1.5-1.4-2.6c0.1-1.3,0.7-2.3,2-2.8c1.1-0.4,2.2-0.2,3.1,0.6
		c0.7,0.6,0.9,2,0.6,2.9c-0.1,0.4-0.4,0.2-0.6,0.2c-1-0.2-2-0.4-2.9-0.6c-0.2,0-0.4-0.1-0.5,0c-0.1,0.1,0,0.3,0.1,0.5
		c0.2,0.4,0.6,0.7,1,0.8c0.5,0.2,1.1,0.3,1.6,0.2c0.3,0,0.6-0.1,0.5,0.4c0,0.3,0.2,0.8-0.5,0.8C41.4,84,41.2,84,41,84z"/>
	<path d="M72.2,80.2c-1.2,0-2.1-0.5-2.6-1.6c-0.5-1.2-0.5-2.3,0.3-3.4c0.8-0.9,1.8-1.3,3-1c1.1,0.2,2,1.5,2,2.6
		c0,0.4-0.3,0.4-0.5,0.4c-1,0.2-1.9,0.4-2.9,0.5c-0.2,0-0.4,0-0.5,0.2c0,0.2,0.1,0.3,0.3,0.5c0.5,0.4,1,0.4,1.6,0.3
		c0.4-0.1,0.8-0.2,1.2-0.3c0.3-0.1,0.5-0.4,0.7,0.2c0.1,0.4,0.4,0.7-0.2,0.9C73.8,79.9,73.1,80.2,72.2,80.2z"/>
	<path d="M77.9,74.4c0.1-0.1,0.2-0.2,0.4-0.3c0.7-0.6,1.5-0.7,2.4-0.4c0.8,0.3,1.2,1,1.3,1.9c0.1,1.1,0,2.3,0,3.4
		c0,0.3-0.1,0.3-0.4,0.4c-1.3,0.1-1.3,0.1-1.3-1.2c0-0.7,0-1.3,0-2c0-0.9-0.4-1.3-1.1-1.3c-0.7,0-1.1,0.5-1.1,1.3c0,0.9,0,1.8,0,2.7
		c0,0.3-0.1,0.4-0.4,0.4c-1.3,0-1.3,0.1-1.3-1.2c0-1.3,0-2.7,0-4c0-0.4,0.1-0.5,0.5-0.5C77.7,73.6,77.7,73.6,77.9,74.4z"/>
	<path d="M20.7,79.4c-0.7,0-1.3,0-2,0c-0.4,0-0.6-0.1-0.6-0.5c-0.1-2.3-0.1-4.7-0.2-7c0-0.3,0.1-0.4,0.4-0.4
		c1.3-0.1,1.3-0.1,1.4,1.3c0,1.5,0.1,3.1,0.1,4.6c0,0.5,0.2,0.6,0.6,0.5c0.8-0.1,1.6,0,2.4-0.1c0.4,0,0.5,0.1,0.5,0.5
		c0,1.1,0.1,0.9-0.9,0.9c-0.6,0-1.2,0-1.8,0C20.7,79.3,20.7,79.4,20.7,79.4z"/>
	<path d="M37.5,77.4c-1.3,1.5-2.6,2.9-3.9,4.3c-0.2,0.2-0.4,0.2-0.7,0.1c-1.2-0.4-1.2-0.4-1.2-1.7c0-1.6,0-3.2,0-4.9
		c0.5,0.2,0.9,0.4,1.4,0.5c0.3,0.1,0.2,0.3,0.2,0.5c0,1.2,0,2.5,0,3.7c0.6-0.8,1.3-1.6,2-2.6c0.4-0.5,0.7-0.7,1.3-0.3
		C36.8,77.2,37.1,77.3,37.5,77.4z"/>
	<path d="M65.4,81.1c0.5,0,0.9,0,1.3-0.2c0.2-0.1,0.5-0.2,0.5-0.5c0-0.3-0.3-0.5-0.6-0.5c-0.3,0-0.6,0-0.9-0.1
		c-1-0.1-1.7-0.5-1.8-1.3c-0.2-0.8,0.3-1.6,1.2-2.1c0.5-0.3,1-0.4,1.5-0.4c0.8-0.1,0.9,0,0.9,0.8c0,0.4-0.1,0.5-0.5,0.4
		c-0.4,0-0.8,0-1.2,0.2c-0.2,0.1-0.4,0.3-0.3,0.6c0,0.2,0.2,0.4,0.5,0.4c0.5,0.1,1,0.1,1.4,0.2c0.7,0.1,1.2,0.5,1.4,1.2
		c0.2,0.7-0.1,1.3-0.6,1.7c-0.8,0.6-1.8,0.8-2.8,0.8c-0.7,0-0.4-0.6-0.5-0.9C64.7,80.9,65.1,81.1,65.4,81.1
		C65.4,81.1,65.5,81.1,65.4,81.1z"/>
	<path d="M46.3,80.1c0.5-0.6,0.9-1.1,1.7-1.1c0.4,0,0.5,0.1,0.5,0.5c0,0.1,0,0.3,0,0.4c0,0.5-0.1,0.7-0.7,0.6
		c-0.8-0.1-1.3,0.4-1.4,1.2c-0.1,0.9-0.2,1.7-0.2,2.6c0,0.3-0.1,0.4-0.5,0.4c-1.3-0.1-1.3-0.1-1.2-1.5c0.1-1.3,0.3-2.6,0.3-3.9
		c0-0.4,0.1-0.5,0.5-0.4c0.1,0,0.2,0,0.3,0c0.6,0,0.9,0.2,0.7,0.8C46.3,79.8,46.3,79.9,46.3,80.1z"/>
	<path d="M46.5,21.5c-0.4,0.1-0.6,0.3-0.9,0.4c-1.1,0.3-2.2-0.1-2.6-1c-0.5-1-0.2-2.2,0.6-2.9c1.6-1.3,3.7-0.6,4.3,1.3
		c0.8,2.6-0.7,4.8-3.4,5.2c-0.6,0.1-0.5-0.3-0.6-0.6c-0.1-0.3,0-0.5,0.4-0.6c0.7-0.1,1.4-0.3,1.8-0.9C46.4,22.2,46.6,21.9,46.5,21.5
		z"/>
	<path d="M54.3,20.2c-0.1,0.9-0.1,1.7-0.5,2.5c-0.5,1-1.4,1.4-2.5,1.3c-1-0.1-1.7-0.7-2-1.6c-0.4-1.2-0.4-2.4,0.1-3.5
		c0.5-1.2,1.4-1.8,2.6-1.7c1.2,0.1,2,0.8,2.3,2.1C54.2,19.6,54.2,20,54.3,20.2z"/>
	<path d="M58.7,25.2c-0.1,0-0.2,0-0.2-0.1c-0.9-0.2-1-0.2-0.6-1.1c0.2-0.6,0-0.8-0.5-0.9c-0.6-0.1-1.1-0.3-1.7-0.4
		c-0.7-0.2-0.9-0.7-0.4-1.2c1.1-1.1,2.3-2.1,3.5-3.1c0.3-0.3,0.6,0,0.9,0.1c1.1,0.3,1.1,0.3,0.8,1.4c-0.2,0.8-0.4,1.6-0.6,2.3
		c-0.1,0.4,0,0.5,0.3,0.6c0.5,0.1,0.4,0.3,0.3,0.6c-0.1,0.3-0.1,0.7-0.6,0.4c-0.3-0.1-0.5,0-0.5,0.3c0,0.3-0.1,0.6-0.2,0.9
		C58.9,25.1,58.9,25.3,58.7,25.2z"/>
	<path d="M40,20.1c-0.3,0-0.4,0.2-0.5,0.4c-0.6,0.5-0.8,0.5-1-0.3c0-0.1-0.1-0.2,0.1-0.3c0.7-0.6,1.2-1.3,2.1-1.4
		c0.3,0,0.4,0,0.5,0.3c0.6,1.9,1.2,3.8,1.8,5.8c0.1,0.3,0,0.4-0.2,0.4c0,0-0.1,0-0.1,0c-0.9,0.3-0.9,0.3-1.2-0.6
		C40.9,23,40.4,21.5,40,20.1z"/>
	<path class="st11" d="M22.9,18.7c-0.7,0-0.9-0.2-0.6-0.8c0.2-0.4,0.5-0.8,1-0.8c0.6,0,1,0.4,1.3,0.8c0.2,0.2,0,0.3-0.2,0.3
		C23.9,18.5,23.4,18.7,22.9,18.7z"/>
	<path class="st12" d="M77.3,18.7c-0.5,0-0.9-0.2-1.3-0.3c-0.2-0.1-0.5,0-0.6-0.3c0-0.2,0.3-0.4,0.4-0.5c0.8-0.7,1.5-0.5,1.9,0.4
		C78,18.5,77.9,18.7,77.3,18.7z"/>
	<path class="st13" d="M50.2,35.2c0.4,0,0.8,0,1.3,0c0.4,0,0.7,0.2,0.7,0.7c0,0.4-0.3,0.6-0.7,0.6c-0.8,0-1.7,0-2.5,0
		c-0.5,0-0.3-0.4-0.3-0.6c0-0.3-0.3-0.7,0.3-0.7C49.3,35.1,49.8,35.1,50.2,35.2C50.2,35.1,50.2,35.1,50.2,35.2z"/>
	<path class="st14" d="M50.1,33.7c-0.3,0-0.6,0-1,0c-0.5,0.1-0.6-0.1-0.6-0.6c0-0.4,0.1-0.5,0.5-0.5c0.7,0,1.5,0,2.2,0
		c0.4,0,0.7,0.2,0.7,0.6c0,0.4-0.3,0.6-0.7,0.6C50.9,33.7,50.5,33.7,50.1,33.7z"/>
	<path class="st7" d="M33.8,51.3c0.4,0,0.8,0,1.2,0c0.4,0,0.7,0.2,0.7,0.7c0,0.4-0.3,0.6-0.7,0.6c-0.8,0-1.7,0-2.5,0
		c-0.3,0-0.3-0.1-0.3-0.3c-0.1-1-0.1-1,0.9-1C33.3,51.3,33.5,51.3,33.8,51.3z"/>
	<path class="st15" d="M33.7,48.7c0.4,0,0.8,0,1.2,0c0.4,0,0.6,0.2,0.6,0.6c0,0.3-0.2,0.5-0.6,0.5c-0.8,0-1.7,0-2.5,0
		c-0.5,0-0.2-0.5-0.2-0.7c0-0.2-0.1-0.4,0.3-0.4C32.9,48.7,33.3,48.7,33.7,48.7z"/>
	<path class="st10" d="M50.1,65.1c0.4,0,0.8,0,1.1,0c0.4,0,0.7,0.2,0.7,0.6c0,0.4-0.3,0.6-0.7,0.6c-0.8,0-1.6,0-2.4,0
		c-0.3,0-0.3-0.1-0.3-0.3c-0.1-0.9-0.1-0.9,0.9-0.9C49.7,65.1,49.9,65.1,50.1,65.1z"/>
	<path class="st7" d="M66.5,50c-0.2,0-0.4,0-0.6,0c-0.6,0.1-0.7-0.1-0.7-0.7c0-0.5,0.1-0.6,0.6-0.6c0.6,0,1.1,0,1.7,0
		c0.4,0,0.7,0.2,0.7,0.6c0,0.4-0.3,0.7-0.7,0.7C67.2,50,66.9,50,66.5,50z"/>
	<path class="st15" d="M48.9,43.3c0.4-0.8,0.8-1.6,1.2-2.4c0.4,0.8,0.8,1.6,1.2,2.4C50.4,43.3,49.7,43.3,48.9,43.3z"/>
	<path class="st15" d="M43.5,51.4c-0.8,0-1.5,0-2.3,0c0.4-0.8,0.8-1.6,1.2-2.4C42.8,49.8,43.1,50.6,43.5,51.4z"/>
	<path class="st16" d="M26.2,76.2c0.4-0.8,0.9-1.1,1.5-0.9c0.5,0.1,0.9,0.4,1,1c0,0.3,0,0.5-0.4,0.4C27.5,76.4,26.9,76.3,26.2,76.2z
		"/>
	<path class="st17" d="M39.1,80c0.3-0.8,0.7-1.1,1.4-1c0.5,0.1,0.9,0.4,1,0.9c0.1,0.4,0,0.6-0.4,0.5C40.4,80.3,39.8,80.1,39.1,80z"
		/>
	<path class="st16" d="M71.1,76.8c-0.3,0.1-0.3,0-0.3-0.2c0-0.5,0.4-1.1,1-1.2c0.6-0.1,1,0.1,1.3,0.6c0.1,0.2,0.1,0.4-0.2,0.4
		C72.3,76.6,71.7,76.7,71.1,76.8z"/>
	<path class="st18" d="M45.3,20.9c-0.7,0-1.1-0.5-1.1-1.2c0-0.7,0.4-1.2,1.1-1.1c0.6,0,1.2,0.7,1.2,1.4
		C46.4,20.5,45.9,20.9,45.3,20.9z"/>
	<path class="st18" d="M52.7,20.3c0,0.6-0.1,1.3-0.4,1.9c-0.2,0.4-0.5,0.7-0.9,0.6c-0.4,0-0.7-0.3-0.8-0.7c-0.3-1.2-0.3-2.3,0.2-3.4
		c0.2-0.4,0.4-0.6,0.9-0.6c0.5,0,0.7,0.3,0.8,0.7C52.7,19.4,52.7,19.8,52.7,20.3z"/>
	<path class="st19" d="M58.9,19.8c-0.2,0.7-0.4,1.5-0.6,2.2c-0.1,0.3-0.2,0.2-0.4,0.2c-0.4-0.1-0.8-0.2-1.3-0.3
		c0.7-0.8,1.6-1.3,2.2-2.1C58.8,19.7,58.9,19.7,58.9,19.8z"/>
	<path class="st20" d="M22.8,18.2c0.2-0.5,0.5-0.7,0.9-0.3C23.5,18.1,23.2,18.1,22.8,18.2z"/>
	<path class="st21" d="M76.3,17.9c0.5-0.4,0.7-0.2,0.9,0.2C76.9,18.2,76.7,18.1,76.3,17.9z"/>
</g>
</svg>
