<?xml version="1.0" encoding="utf-8"?>
<!-- Generator: Adobe Illustrator 19.2.1, SVG Export Plug-In . SVG Version: 6.00 Build 0)  -->
<svg version="1.1" id="Capa_1" xmlns="http://www.w3.org/2000/svg" xmlns:xlink="http://www.w3.org/1999/xlink" x="0px" y="0px"
	 viewBox="0 0 100 100" style="enable-background:new 0 0 100 100;" xml:space="preserve">
<style type="text/css">
	.st0{fill:url(#path34_4_);}
	.st1{fill:url(#path890_1_);}
	.st2{fill:#FFE500;stroke:#000000;stroke-width:2.098;stroke-miterlimit:3.863;}
	.st3{fill:#DA020E;}
	.st4{fill:#FFE500;}
	.st5{clip-path:url(#SVGID_2_);}
	.st6{fill:none;stroke:#B54005;stroke-width:10;stroke-miterlimit:3.863;}
	.st7{fill:url(#path7506_1_);}
	.st8{fill:url(#path8794_1_);}
	.st9{fill:url(#path15846_1_);}
	.st10{fill:url(#path16274_1_);}
	.st11{fill:url(#path39821_1_);}
	.st12{fill:url(#path39847_1_);}
	.st13{fill:url(#path39878_1_);}
	.st14{fill:url(#path39888_1_);}
	.st15{fill:url(#path41035_1_);}
	.st16{fill:url(#path9646-8_1_);}
	.st17{fill:url(#path41092_1_);}
	.st18{fill:url(#path41094_1_);}
	.st19{fill:none;stroke:#000000;stroke-width:2.098;stroke-miterlimit:3.863;}
	.st20{fill:url(#path41152_1_);}
	.st21{fill:url(#path39854_1_);}
	.st22{fill:url(#path39874_1_);}
	.st23{fill:#9C824A;stroke:#9C824A;stroke-width:0.793;stroke-miterlimit:282;}
	.st24{fill:#023474;stroke:#023474;stroke-width:0.793;stroke-miterlimit:282;}
	.st25{fill:#FFFFFF;stroke:#FFFFFF;stroke-width:0.793;stroke-miterlimit:282;}
	.st26{fill:#EF0107;stroke:#EF0107;stroke-width:0.793;stroke-miterlimit:282;}
	.st27{fill:#DB0007;stroke:#DB0007;stroke-width:0.793;stroke-miterlimit:282;}
	.st28{fill:#FFFFFF;}
	.st29{fill:#9C824A;}
	.st30{fill:#EF0107;stroke:#EF0107;stroke-width:0.3115;stroke-miterlimit:282;}
	.st31{fill:#DB0007;stroke:#DB0007;stroke-width:0.3115;stroke-miterlimit:282;}
	.st32{fill:#DB0007;}
	.st33{fill:#FFFFFF;stroke:#FFFFFF;stroke-width:0.3115;stroke-miterlimit:282;}
	.st34{fill:#FFFFFF;stroke:#FFFFFF;stroke-width:0.554;stroke-miterlimit:3.864;}
	.st35{fill:#231F20;}
	.st36{fill:#00B6F1;stroke:#00B6F1;stroke-width:1.700000e-02;stroke-miterlimit:3.864;}
	.st37{fill:#EF3E2E;}
	.st38{fill:#BBBDBF;}
	.st39{fill:#F0B83D;}
	.st40{fill:#00B6F1;stroke:#FFFFFF;stroke-width:1.700000e-02;stroke-miterlimit:3.864;}
	.st41{fill:#001C58;}
	.st42{fill:#94BEE5;}
	.st43{fill:none;stroke:#7A003C;stroke-width:2.2437;stroke-miterlimit:6;}
	.st44{fill:#7A003C;}
	.st45{fill:#FFE600;}
	.st46{fill:#DBA111;}
	.st47{fill:#034694;}
	.st48{fill:#D1D3D4;}
	.st49{fill:#ED1C24;}
	.st50{fill:#6A7AB5;}
	.st51{fill:none;}
	.st52{fill:#274488;}
	.st53{fill:#004798;stroke:#004798;stroke-width:9.375000e-02;}
	.st54{fill:#FFFFFF;stroke:#FFFFFF;stroke-width:9.375000e-02;}
	.st55{fill:#FABC00;stroke:#FABC00;stroke-width:9.375000e-02;}
	.st56{fill:none;stroke:#FFFFFF;stroke-width:7.865;stroke-miterlimit:3.864;}
	.st57{fill:none;stroke:#FFFFFF;stroke-width:7.865;stroke-miterlimit:12;}
	.st58{fill:none;stroke:#FFFFFF;stroke-width:7.865;stroke-miterlimit:22;}
	.st59{fill:none;stroke:#FFFFFF;stroke-width:7.865;stroke-miterlimit:6;}
	.st60{fill:#00A398;}
	.st61{fill:#D00027;}
	.st62{fill:none;stroke:#FFFFFF;stroke-width:17.3907;stroke-miterlimit:3.864;}
	.st63{fill:none;stroke:#FFFFFF;stroke-width:13.1107;stroke-miterlimit:3.864;}
	.st64{fill:#FEF667;}
	.st65{fill:#D00027;stroke:#D00027;}
	.st66{fill:#5299C6;}
	.st67{fill:#60223B;}
	.st68{fill:#F7C240;}
	.st69{fill:#292D6B;}
	.st70{fill:#1B458F;}
	.st71{fill:#C4122E;}
	.st72{fill:#27409B;}
	.st73{clip-path:url(#SVGID_4_);}
	.st74{fill:#F4F4F4;}
	.st75{fill:#D3D2D2;}
	.st76{fill:#A7A5A6;}
	.st77{fill:#091453;}
	.st78{fill:none;stroke:#FFFFFF;stroke-width:6.6301;}
	.st79{clip-path:url(#SVGID_6_);}
	.st80{fill:#724314;}
	.st81{fill:#240B08;}
	.st82{fill:#018B4B;}
	.st83{fill:#A6181D;}
	.st84{fill:#592D09;}
	.st85{fill:#FFCE65;}
	.st86{fill:#5CBFEB;}
	.st87{fill:none;stroke:#000000;stroke-width:10;}
	.st88{fill:none;stroke:#000000;}
	.st89{fill:#B2B2B2;}
	.st90{fill:none;stroke:#000000;stroke-width:0.3;}
	.st91{fill:#00A650;stroke:#000000;stroke-width:2;}
	.st92{fill:#241F20;stroke:#241F20;stroke-width:9.375000e-02;}
	.st93{fill:#FFF200;stroke:#FFF200;stroke-width:9.375000e-02;}
	.st94{fill:#A68A26;}
	.st95{fill:none;stroke:#A68A26;stroke-width:4.792100e-02;stroke-miterlimit:3.8637;}
	.st96{fill:#211E1E;}
	.st97{fill:none;stroke:#211E1E;stroke-width:4.792100e-02;stroke-miterlimit:3.8637;}
	.st98{fill:#EB172B;}
	.st99{fill:none;stroke:#EB172B;stroke-width:4.792100e-02;stroke-miterlimit:3.8637;}
	.st100{fill:#A68A26;stroke:#A68A26;stroke-width:4.792100e-02;stroke-miterlimit:3.8637;}
	.st101{fill:#D1BF7F;}
	.st102{fill:none;stroke:#D1BF7F;stroke-width:4.792100e-02;stroke-miterlimit:3.8637;}
	.st103{fill:none;stroke:#FFFFFF;stroke-width:4.792100e-02;stroke-miterlimit:3.8637;}
	.st104{fill:#EB172B;stroke:#EB172B;stroke-width:4.792100e-02;stroke-miterlimit:3.8637;}
	.st105{fill:#ED2127;}
	.st106{fill:#FBEE23;}
	.st107{stroke:#000000;}
	.st108{fill:#CF1F44;}
	.st109{fill:#1B449C;}
	.st110{fill:#E03A3E;}
	.st111{fill:#E03A3E;stroke:#E03A3E;stroke-width:0.6565;}
	.st112{fill:none;stroke:#1B449C;stroke-width:0.7493;}
	.st113{fill:none;stroke:#1B449C;stroke-width:0.7567;}
	.st114{fill:#1B449C;stroke:#1B449C;stroke-width:0.6274;}
	.st115{fill:#1B449C;stroke:#1B449C;stroke-width:0.6755;}
	.st116{fill:#2E6ABD;stroke:#2E6ABD;stroke-width:0.617;}
	.st117{fill:#FFFFFF;stroke:#FFFFFF;stroke-width:0.6175;}
	.st118{fill:#ED1248;}
	.st119{fill:#2E6ABD;}
	.st120{fill:#FDE100;}
	.st121{fill:#CC0000;}
	.st122{fill:#211E1F;}
	.st123{fill:#ED1A3B;}
	.st124{fill:#00AEEF;}
	.st125{fill:#FFC40D;}
	.st126{fill:#22B24C;}
	.st127{fill:#FFC20E;}
	.st128{fill:#0A3F86;}
	.st129{fill:#005CA9;}
	.st130{fill:#FFE000;}
	.st131{fill:#E2001A;}
	.st132{opacity:0;}
	.st133{opacity:0;fill:#FFFFFF;}
	.st134{fill:#FFFFFF;stroke:#000000;}
	.st135{fill:#0060A9;}
	.st136{fill:#E32219;}
	.st137{fill:#FFED00;}
	.st138{fill:#1D9053;}
	.st139{fill:#52A600;}
	.st140{fill:#EE2523;}
	.st141{fill:#F7D117;}
	.st142{fill:#171796;}
	.st143{fill:#009959;}
	.st144{fill:#D42E12;}
	.st145{fill:#703824;}
	.st146{fill:#E5254E;}
	.st147{fill:#8AC3EE;}
	.st148{fill:#B19221;}
	.st149{fill:#F5C03E;}
	.st150{fill:#FF1119;}
	.st151{fill:#1E6BC0;}
	.st152{fill:#B4742A;}
	.st153{fill:#371B02;}
	.st154{fill:url(#SVGID_7_);}
	.st155{fill:url(#SVGID_8_);}
	.st156{fill:url(#SVGID_9_);}
	.st157{fill:url(#SVGID_10_);}
	.st158{fill:url(#SVGID_11_);}
	.st159{fill:url(#SVGID_12_);}
	.st160{fill:url(#SVGID_13_);}
	.st161{fill:url(#SVGID_14_);}
	.st162{fill:url(#SVGID_15_);}
	.st163{fill:url(#SVGID_16_);}
	.st164{fill:#EB2626;}
	.st165{fill:#E9C32C;}
	.st166{fill:#D9D9D9;}
	.st167{fill:#009C5E;}
	.st168{fill:#1C75BC;}
	.st169{fill:#611D5C;}
	.st170{fill:#E2B900;}
	.st171{fill:#004B95;}
	.st172{fill:#A4234B;}
	.st173{fill:#DB2F36;}
	.st174{fill:#FFDF00;}
	.st175{fill:#A38D44;}
	.st176{fill:#57175E;}
	.st177{fill:#AFDCFD;}
	.st178{fill:#0090C6;}
	.st179{fill:#DB5232;}
	.st180{fill:#23C1E0;}
	.st181{fill:#F1A92A;}
	.st182{fill:#167FB6;}
	.st183{fill:#FED75D;}
	.st184{fill:#378CBF;}
	.st185{fill:#3E9692;}
	.st186{fill:#E67F29;}
	.st187{fill:#D8B43C;}
	.st188{fill:#EF3B33;}
	.st189{fill:#24923D;}
	.st190{opacity:6.000001e-02;fill:#101010;enable-background:new    ;}
	.st191{fill:#00529F;}
	.st192{fill:#EE324E;}
	.st193{fill:#FEBE10;}
	.st194{fill:#143C8B;}
	.st195{fill:#FFE24A;}
	.st196{fill:#EC1D24;}
	.st197{fill:#E6A514;}
	.st198{fill:#FFDF1C;}
	.st199{fill:#EE3524;}
	.st200{fill:#B23428;}
	.st201{fill:#D18816;}
	.st202{fill:#0097D7;}
	.st203{fill:#ED1C23;}
	.st204{fill:#E30613;}
	.st205{fill:#FFE400;}
	.st206{fill:#C51A1B;}
	.st207{clip-path:url(#SVGID_19_);}
	.st208{clip-path:url(#SVGID_20_);fill:none;stroke:#000000;stroke-width:0.8131;stroke-miterlimit:3.864;}
	.st209{fill:#0093D5;}
	.st210{fill:#004B9D;}
	.st211{fill:#FCC24F;}
	.st212{fill:#009545;}
	.st213{fill:#0072BB;}
	.st214{fill:#C4974E;}
	.st215{fill:url(#path1292_1_);}
	.st216{fill:#004996;}
	.st217{fill:#FFE667;}
	.st218{fill:none;stroke:#005187;stroke-width:0.153;stroke-miterlimit:3.864;}
	.st219{fill:#005187;}
	.st220{clip-path:url(#SVGID_22_);}
	.st221{clip-path:url(#SVGID_24_);fill:none;stroke:#000000;stroke-width:0.296;stroke-miterlimit:3.864;}
	.st222{clip-path:url(#SVGID_26_);fill:#FFE667;}
	.st223{clip-path:url(#SVGID_28_);fill:none;stroke:#000000;stroke-width:8.300000e-02;stroke-miterlimit:3.864;}
	.st224{fill:none;stroke:#000000;stroke-width:0.153;stroke-miterlimit:3.864;}
	.st225{clip-path:url(#SVGID_30_);fill:#E70005;}
	.st226{clip-path:url(#SVGID_32_);fill:none;stroke:#E70005;stroke-width:0.296;stroke-miterlimit:3.864;}
	.st227{clip-path:url(#SVGID_34_);fill:#E70005;}
	.st228{clip-path:url(#SVGID_36_);fill:none;stroke:#E70005;stroke-width:0.296;stroke-miterlimit:3.864;}
	.st229{clip-path:url(#SVGID_38_);fill:#E70005;}
	.st230{clip-path:url(#SVGID_40_);fill:none;stroke:#E70005;stroke-width:0.296;stroke-miterlimit:3.864;}
	.st231{clip-path:url(#SVGID_42_);fill:#E70005;}
	.st232{clip-path:url(#SVGID_44_);fill:none;stroke:#E70005;stroke-width:0.296;stroke-miterlimit:3.864;}
	.st233{fill:#E70005;}
	.st234{fill:none;stroke:#000000;stroke-width:0.141;stroke-miterlimit:3.864;}
	.st235{fill:#00276D;}
	.st236{fill:#C49308;}
	.st237{fill:#179D33;}
	.st238{fill:#999999;}
	.st239{fill:#FF0000;}
	.st240{fill:#E31837;}
	.st241{fill:#06357A;}
	.st242{fill:#B4053F;}
	.st243{fill:#DCA43E;}
	.st244{fill:#005CA5;}
	.st245{fill:#FAC400;}
	.st246{fill:#004083;}
	.st247{fill:#A95932;}
	.st248{fill:none;stroke:#000000;stroke-width:1.2215;}
	.st249{fill:#E62627;}
	.st250{fill:#00458C;}
	.st251{fill:#E11B22;}
	.st252{fill:#00AB4E;}
	.st253{fill:#F47920;}
	.st254{fill:#C7C8CA;}
	.st255{fill:#E11515;}
	.st256{fill:#A4965F;}
	.st257{fill:#E51636;}
	.st258{fill:#EACC00;}
	.st259{fill:#4F846B;}
	.st260{fill:#E22227;}
	.st261{fill:#FAE700;}
	.st262{fill:url(#SVGID_45_);}
	.st263{fill:#666666;}
	.st264{fill:#FFF200;}
	.st265{fill:#00275D;}
	.st266{fill:#EF3E33;}
	.st267{fill:none;stroke:#00275D;stroke-width:2.632;}
	.st268{fill:#3F7652;}
	.st269{fill:#F1D261;}
	.st270{fill:#004D8F;}
	.st271{fill:#E7B137;stroke:#E7B137;stroke-miterlimit:10;}
	.st272{fill:#E7B137;}
	.st273{fill:#162577;}
	.st274{fill:#12692C;}
	.st275{fill:#D8141D;}
	.st276{fill:#AB830D;}
	.st277{fill:#0086CB;}
	.st278{fill:#001F42;}
	.st279{fill:#9A8F4A;}
	.st280{fill:#00559D;}
	.st281{fill:#FDDE00;}
	.st282{fill:#00924C;}
	.st283{fill:#233984;}
	.st284{fill:#FFD42E;}
	.st285{fill:#BA3733;}
	.st286{fill:#46714D;}
	.st287{fill:#221F1F;}
	.st288{fill:#00559E;}
	.st289{fill:#005C46;}
	.st290{fill:#FBC860;}
	.st291{fill:#D57C48;}
	.st292{fill:#040403;}
	.st293{fill:#4AB969;}
	.st294{fill:#8ED8F8;}
	.st295{fill:#FEC34E;}
	.st296{fill:#FFC95B;}
	.st297{fill:#00644C;}
	.st298{fill:#70B865;}
	.st299{fill:#CA6F44;}
	.st300{fill:#A8B8BE;}
	.st301{fill:#1C2C80;}
	.st302{fill:#E10321;}
	.st303{fill:none;stroke:#231F20;stroke-width:0.318;stroke-miterlimit:3.864;}
	.st304{fill:#D71920;}
	.st305{fill:#484749;}
	.st306{fill:#D9DBDC;}
	.st307{fill:#DF725A;}
	.st308{fill:#F2CABA;}
	.st309{fill:#E89C84;}
	.st310{fill:#264F99;}
	.st311{clip-path:url(#SVGID_47_);}
	.st312{fill:#161413;}
	.st313{fill:#ED1B26;}
	.st314{fill:#E60D2E;}
	.st315{fill:#FCD600;}
	.st316{fill:#004D91;}
	.st317{fill:#EAB412;}
	.st318{fill:#FDD31D;}
	.st319{fill:#EFB800;}
</style>
<g id="layer1_5_">
	<path id="path3680" class="st28" d="M99.4,50c0,27.3-22.1,49.4-49.3,49.4C22.7,99.4,0.6,77.3,0.6,50c0,0,0,0,0,0
		C0.6,22.7,22.7,0.6,50,0.6C77.3,0.6,99.4,22.7,99.4,50C99.4,50,99.4,50,99.4,50z"/>
	<path id="path1896" class="st135" d="M47.8,100c-10.7-0.5-20.8-4.3-29.1-11C5,78-1.9,60.7,0.5,43.2c1.3-9.7,5.5-18.8,12-26.3
		c0.9-1,2.9-3.1,3.9-4C27.9,2.6,43.3-1.9,58.7,0.7c21.5,3.7,38.2,21.2,41,42.9c0.3,2.3,0.4,3.5,0.4,6.3c0,2.7-0.1,3.7-0.3,5.9
		c-1,8.6-4.2,16.7-9.4,23.7c-4.7,6.4-10.9,11.6-18,15.2c-5.7,2.9-11.7,4.5-18.4,5.1C53,100,48.9,100,47.8,100z M54.1,94.7
		c5.2-0.5,9.5-1.6,13.8-3.6c3.7-1.7,5.6-2.8,8.1-4.6c4.9-3.5,9.1-8.1,12.2-13.3c4-6.7,6.1-14,6.3-21.7l0-1.4l-14.9,0l-14.9,0v8.3
		v8.3l2.4,0c2.2,0,2.4,0,2.5,0.1c0.1,0.2,0.1,11.7,0,12.6c-0.3,2.4-1,4.3-2.3,6c-0.4,0.6-1.4,1.6-2.1,2.1c-2.3,1.9-5.3,3.1-9.1,3.7
		C50.4,92,43.3,91.6,38.1,90c-2.6-0.8-4.9-1.9-7-3.3c-0.3-0.2-0.7-0.5-0.9-0.6L30,85.9V50.1c0-28.6,0-35.9,0.1-35.9
		c0.1-0.1,1.4-0.9,2.4-1.4c3.5-1.8,8.2-3.4,11.8-3.8c7.3-1,13.6-0.2,19.3,2.2c2.8,1.2,4.5,2.9,5.5,5.7c0.2,0.7,0.5,1.7,0.6,2.4
		c0,0.4,0.1,3.2,0.1,8l0,7.4l10.8,0c6,0,10.9,0,10.9,0c0.1-0.1-0.3-1.2-0.7-2.3c-0.7-1.8-2.2-4.6-3.7-6.8c-2.6-3.9-5.8-7.5-9.5-10.4
		c-3.4-2.7-7.3-5-11.4-6.6c-4.2-1.6-8.7-2.7-13.4-3c-1.3-0.1-4.7-0.1-5.9,0c-2.3,0.2-3.7,0.4-6.2,0.8c-3.1,0.6-5.2,1.2-7.8,2.3
		c-10.6,4.4-20.2,14.2-24.5,25c-0.8,2-1.3,3.4-1.8,5.8c-1,4-1.4,7.3-1.4,11.2c0,2.7,0.2,4.6,0.6,7.2c1.7,10.6,7.3,20,15.8,27.1
		c3.6,3,7,5,11.2,6.7c4.6,1.8,9.7,2.9,14.9,3.2C49,94.8,52.9,94.8,54.1,94.7z M42,88c0.6-0.2,1.1-0.4,1.7-0.8c1.3-0.8,2.1-1.8,2.5-3
		l0.1-0.4l0-9.6c0-6.6,0-9.7,0-10c-0.2-1.2-0.9-2.4-2-3.4c-1.1-1-2.2-1.4-3.8-1.4c-1.2,0-2.1,0.3-3.1,0.9c-1.1,0.8-2,2-2.4,3.3
		c-0.1,0.3-0.1,1.6-0.1,10.2c0,9.8,0,9.8,0.1,10.3c0.4,1.6,2.1,3.3,3.9,3.9C39.9,88.2,41.1,88.2,42,88z M40,84.3
		c-0.6-0.2-1.1-0.7-1.3-1.2c-0.1-0.3-0.1-0.4-0.1-9.4l0-9.1l0.2-0.3c0.2-0.4,0.6-0.8,0.9-1c0.4-0.2,1.2-0.2,1.7-0.1
		c0.5,0.2,0.9,0.6,1.1,1.1l0.1,0.3l0,9.2l0,9.2l-0.1,0.2c-0.2,0.4-0.6,0.7-0.9,0.9c-0.3,0.2-0.4,0.2-0.8,0.2
		C40.5,84.4,40.1,84.3,40,84.3z M59.5,84.3c0-3,0-3.4,0.1-3.5c0.1-0.1,0.4-0.1,1.2,0c0.6,0,1.1,0,1.1,0c0,0,0-0.9,0-2l0-1.9l-1.2,0
		c-0.9,0-1.2,0-1.2-0.1c0,0,0-1,0-2.2l0-2.1h-1.9h-1.9l0,2.2c0,1.9,0,2.2-0.1,2.2c-0.1,0.1-2.6,0-2.7-0.1c0,0,0.8-3.7,3.4-14.3
		c0.3-1.4,0.6-2.6,0.6-2.6c0,0-0.9,0-2,0h-2l-0.1,0.1c0,0.1-0.7,2.7-1.4,5.9c-0.8,3.2-1.9,7.8-2.5,10.3c-0.6,2.5-1.1,4.5-1.1,4.6
		c0,0.1,0.4,0.1,3.8,0.1c2.8,0,3.8,0,3.8,0c0,0,0.1,1,0.1,3.5v3.4h2h2V84.3z M49.7,57.6c3-0.3,5.7-1.4,7.8-3.1
		c0.6-0.5,1.7-1.6,2.1-2.2c1-1.3,1.7-3,2-4.8c0.1-0.7,0.2-2.7,0.1-3.5c-0.1-0.7-0.3-1.6-0.4-2.2c-0.1-0.4-0.3-0.7-1.3-2.2
		c-1.2-1.8-2.1-3.2-4.6-6.6c-3.3-4.7-5.1-7.4-6.5-9.7l-0.4-0.6l-0.1-1.1c-0.1-0.9-0.1-1.2,0-1.4c0.2-0.8,0.8-1.7,1.6-2.2
		c0.9-0.6,1.1-0.7,2.6-0.7c1.3,0,1.7,0.1,2.5,0.5c0.8,0.4,1.3,0.9,1.8,1.7c0.8,1.4,1.2,2.6,1.4,4.7c0,0.4,0.1,0.8,0.1,0.8
		c0,0.1,0.4,0.1,1.5,0.1c0.8,0,1.5,0,1.5,0c0.1,0,0.1-0.7,0.1-6.7c0-3.7,0-6.7,0-6.7c0,0-0.4,0-0.9,0l-0.9,0l-0.6,0.9
		c-0.4,0.6-0.6,0.9-0.7,0.9c-0.1,0-0.3-0.1-0.5-0.2c-1.1-0.7-2.7-1.3-4.4-1.8c-2.1-0.6-5.1-0.6-7.5,0.1c-1.5,0.4-3.3,1.2-4.6,2
		c-2.5,1.6-4.5,4.5-5.3,7.4c-0.3,1.3-0.4,2.6-0.3,3.8c0.1,1,0.5,2.4,0.8,3.1c0.1,0.2,9.3,13.7,11.8,17.2c0.2,0.3,0.3,0.6,0.5,1.3
		c0.2,0.8,0.3,0.9,0.2,1.4c-0.1,0.9-0.5,1.7-1.3,2.5c-0.4,0.4-0.6,0.5-1,0.7c-0.9,0.4-1.3,0.5-2.4,0.5c-0.8,0-1,0-1.4-0.1
		c-1.2-0.4-2.2-1.1-2.7-2.2c-0.5-0.9-0.7-1.8-0.9-3.9c-0.2-1.6-0.2-2.2-0.3-2.3c0,0-0.8-0.1-2.1,0l-2,0l0,7.1l0,7.1h1.4h1.4l0.1-0.1
		c0.1-0.1,0.3-0.5,0.6-0.9c0.4-0.6,0.5-0.8,0.6-0.8c0.1,0,0.4,0.1,0.7,0.3c2,1,3,1.4,4.6,1.6C46.1,57.7,48.1,57.8,49.7,57.6z"/>
</g>
</svg>
