<?xml version="1.0" encoding="utf-8"?>
<!-- Generator: Adobe Illustrator 19.2.1, SVG Export Plug-In . SVG Version: 6.00 Build 0)  -->
<svg version="1.1" id="Capa_1" xmlns="http://www.w3.org/2000/svg" xmlns:xlink="http://www.w3.org/1999/xlink" x="0px" y="0px"
	 viewBox="0 0 100 100" style="enable-background:new 0 0 100 100;" xml:space="preserve">
<style type="text/css">
	.st0{fill:url(#path34_4_);}
	.st1{fill:url(#path890_1_);}
	.st2{fill:#FFE500;stroke:#000000;stroke-width:2.098;stroke-miterlimit:3.863;}
	.st3{fill:#DA020E;}
	.st4{fill:#FFE500;}
	.st5{clip-path:url(#SVGID_2_);}
	.st6{fill:none;stroke:#B54005;stroke-width:10;stroke-miterlimit:3.863;}
	.st7{fill:url(#path7506_1_);}
	.st8{fill:url(#path8794_1_);}
	.st9{fill:url(#path15846_1_);}
	.st10{fill:url(#path16274_1_);}
	.st11{fill:url(#path39821_1_);}
	.st12{fill:url(#path39847_1_);}
	.st13{fill:url(#path39878_1_);}
	.st14{fill:url(#path39888_1_);}
	.st15{fill:url(#path41035_1_);}
	.st16{fill:url(#path9646-8_1_);}
	.st17{fill:url(#path41092_1_);}
	.st18{fill:url(#path41094_1_);}
	.st19{fill:none;stroke:#000000;stroke-width:2.098;stroke-miterlimit:3.863;}
	.st20{fill:url(#path41152_1_);}
	.st21{fill:url(#path39854_1_);}
	.st22{fill:url(#path39874_1_);}
	.st23{fill:#9C824A;stroke:#9C824A;stroke-width:0.793;stroke-miterlimit:282;}
	.st24{fill:#023474;stroke:#023474;stroke-width:0.793;stroke-miterlimit:282;}
	.st25{fill:#FFFFFF;stroke:#FFFFFF;stroke-width:0.793;stroke-miterlimit:282;}
	.st26{fill:#EF0107;stroke:#EF0107;stroke-width:0.793;stroke-miterlimit:282;}
	.st27{fill:#DB0007;stroke:#DB0007;stroke-width:0.793;stroke-miterlimit:282;}
	.st28{fill:#FFFFFF;}
	.st29{fill:#9C824A;}
	.st30{fill:#EF0107;stroke:#EF0107;stroke-width:0.3115;stroke-miterlimit:282;}
	.st31{fill:#DB0007;stroke:#DB0007;stroke-width:0.3115;stroke-miterlimit:282;}
	.st32{fill:#DB0007;}
	.st33{fill:#FFFFFF;stroke:#FFFFFF;stroke-width:0.3115;stroke-miterlimit:282;}
	.st34{fill:#FFFFFF;stroke:#FFFFFF;stroke-width:0.554;stroke-miterlimit:3.864;}
	.st35{fill:#231F20;}
	.st36{fill:#00B6F1;stroke:#00B6F1;stroke-width:1.700000e-02;stroke-miterlimit:3.864;}
	.st37{fill:#EF3E2E;}
	.st38{fill:#BBBDBF;}
	.st39{fill:#F0B83D;}
	.st40{fill:#00B6F1;stroke:#FFFFFF;stroke-width:1.700000e-02;stroke-miterlimit:3.864;}
	.st41{fill:#001C58;}
	.st42{fill:#94BEE5;}
	.st43{fill:none;stroke:#7A003C;stroke-width:2.2437;stroke-miterlimit:6;}
	.st44{fill:#7A003C;}
	.st45{fill:#FFE600;}
	.st46{fill:#DBA111;}
	.st47{fill:#034694;}
	.st48{fill:#D1D3D4;}
	.st49{fill:#ED1C24;}
	.st50{fill:#6A7AB5;}
	.st51{fill:none;}
	.st52{fill:#274488;}
	.st53{fill:#004798;stroke:#004798;stroke-width:9.375000e-02;}
	.st54{fill:#FFFFFF;stroke:#FFFFFF;stroke-width:9.375000e-02;}
	.st55{fill:#FABC00;stroke:#FABC00;stroke-width:9.375000e-02;}
	.st56{fill:none;stroke:#FFFFFF;stroke-width:7.865;stroke-miterlimit:3.864;}
	.st57{fill:none;stroke:#FFFFFF;stroke-width:7.865;stroke-miterlimit:12;}
	.st58{fill:none;stroke:#FFFFFF;stroke-width:7.865;stroke-miterlimit:22;}
	.st59{fill:none;stroke:#FFFFFF;stroke-width:7.865;stroke-miterlimit:6;}
	.st60{fill:#00A398;}
	.st61{fill:#D00027;}
	.st62{fill:none;stroke:#FFFFFF;stroke-width:17.3907;stroke-miterlimit:3.864;}
	.st63{fill:none;stroke:#FFFFFF;stroke-width:13.1107;stroke-miterlimit:3.864;}
	.st64{fill:#FEF667;}
	.st65{fill:#D00027;stroke:#D00027;}
	.st66{fill:#5299C6;}
	.st67{fill:#60223B;}
	.st68{fill:#F7C240;}
	.st69{fill:#292D6B;}
	.st70{fill:#1B458F;}
	.st71{fill:#C4122E;}
	.st72{fill:#27409B;}
	.st73{clip-path:url(#SVGID_4_);}
	.st74{fill:#F4F4F4;}
	.st75{fill:#D3D2D2;}
	.st76{fill:#A7A5A6;}
	.st77{fill:#091453;}
	.st78{fill:none;stroke:#FFFFFF;stroke-width:6.6301;}
	.st79{clip-path:url(#SVGID_6_);}
	.st80{fill:#724314;}
	.st81{fill:#240B08;}
	.st82{fill:#018B4B;}
	.st83{fill:#A6181D;}
	.st84{fill:#592D09;}
	.st85{fill:#FFCE65;}
	.st86{fill:#5CBFEB;}
	.st87{fill:none;stroke:#000000;stroke-width:10;}
	.st88{fill:none;stroke:#000000;}
	.st89{fill:#B2B2B2;}
	.st90{fill:none;stroke:#000000;stroke-width:0.3;}
	.st91{fill:#00A650;stroke:#000000;stroke-width:2;}
	.st92{fill:#241F20;stroke:#241F20;stroke-width:9.375000e-02;}
	.st93{fill:#FFF200;stroke:#FFF200;stroke-width:9.375000e-02;}
	.st94{fill:#A68A26;}
	.st95{fill:none;stroke:#A68A26;stroke-width:4.792100e-02;stroke-miterlimit:3.8637;}
	.st96{fill:#211E1E;}
	.st97{fill:none;stroke:#211E1E;stroke-width:4.792100e-02;stroke-miterlimit:3.8637;}
	.st98{fill:#EB172B;}
	.st99{fill:none;stroke:#EB172B;stroke-width:4.792100e-02;stroke-miterlimit:3.8637;}
	.st100{fill:#A68A26;stroke:#A68A26;stroke-width:4.792100e-02;stroke-miterlimit:3.8637;}
	.st101{fill:#D1BF7F;}
	.st102{fill:none;stroke:#D1BF7F;stroke-width:4.792100e-02;stroke-miterlimit:3.8637;}
	.st103{fill:none;stroke:#FFFFFF;stroke-width:4.792100e-02;stroke-miterlimit:3.8637;}
	.st104{fill:#EB172B;stroke:#EB172B;stroke-width:4.792100e-02;stroke-miterlimit:3.8637;}
	.st105{fill:#ED2127;}
	.st106{fill:#FBEE23;}
	.st107{stroke:#000000;}
	.st108{fill:#CF1F44;}
	.st109{fill:#1B449C;}
	.st110{fill:#E03A3E;}
	.st111{fill:#E03A3E;stroke:#E03A3E;stroke-width:0.6565;}
	.st112{fill:none;stroke:#1B449C;stroke-width:0.7493;}
	.st113{fill:none;stroke:#1B449C;stroke-width:0.7567;}
	.st114{fill:#1B449C;stroke:#1B449C;stroke-width:0.6274;}
	.st115{fill:#1B449C;stroke:#1B449C;stroke-width:0.6755;}
	.st116{fill:#2E6ABD;stroke:#2E6ABD;stroke-width:0.617;}
	.st117{fill:#FFFFFF;stroke:#FFFFFF;stroke-width:0.6175;}
	.st118{fill:#ED1248;}
	.st119{fill:#2E6ABD;}
	.st120{fill:#FDE100;}
	.st121{fill:#CC0000;}
	.st122{fill:#211E1F;}
	.st123{fill:#ED1A3B;}
	.st124{fill:#00AEEF;}
	.st125{fill:#FFC40D;}
	.st126{fill:#22B24C;}
	.st127{fill:#FFC20E;}
	.st128{fill:#0A3F86;}
	.st129{fill:#005CA9;}
	.st130{fill:#FFE000;}
	.st131{fill:#E2001A;}
	.st132{opacity:0;}
	.st133{opacity:0;fill:#FFFFFF;}
	.st134{fill:#FFFFFF;stroke:#000000;}
	.st135{fill:#0060A9;}
	.st136{fill:#E32219;}
	.st137{fill:#FFED00;}
	.st138{fill:#1D9053;}
	.st139{fill:#52A600;}
	.st140{fill:#EE2523;}
	.st141{fill:#F7D117;}
	.st142{fill:#171796;}
	.st143{fill:#009959;}
	.st144{fill:#D42E12;}
	.st145{fill:#703824;}
	.st146{fill:#E5254E;}
	.st147{fill:#8AC3EE;}
	.st148{fill:#B19221;}
	.st149{fill:#F5C03E;}
	.st150{fill:#FF1119;}
	.st151{fill:#1E6BC0;}
	.st152{fill:#B4742A;}
	.st153{fill:#371B02;}
	.st154{fill:url(#SVGID_7_);}
	.st155{fill:url(#SVGID_8_);}
	.st156{fill:url(#SVGID_9_);}
	.st157{fill:url(#SVGID_10_);}
	.st158{fill:url(#SVGID_11_);}
	.st159{fill:url(#SVGID_12_);}
	.st160{fill:url(#SVGID_13_);}
	.st161{fill:url(#SVGID_14_);}
	.st162{fill:url(#SVGID_15_);}
	.st163{fill:url(#SVGID_16_);}
	.st164{fill:#EB2626;}
	.st165{fill:#E9C32C;}
	.st166{fill:#D9D9D9;}
	.st167{fill:#009C5E;}
	.st168{fill:#1C75BC;}
	.st169{fill:#611D5C;}
	.st170{fill:#E2B900;}
	.st171{fill:#004B95;}
	.st172{fill:#A4234B;}
	.st173{fill:#DB2F36;}
	.st174{fill:#FFDF00;}
	.st175{fill:#A38D44;}
	.st176{fill:#57175E;}
	.st177{fill:#AFDCFD;}
	.st178{fill:#0090C6;}
	.st179{fill:#DB5232;}
	.st180{fill:#23C1E0;}
	.st181{fill:#F1A92A;}
	.st182{fill:#167FB6;}
	.st183{fill:#FED75D;}
	.st184{fill:#378CBF;}
	.st185{fill:#3E9692;}
	.st186{fill:#E67F29;}
	.st187{fill:#D8B43C;}
	.st188{fill:#EF3B33;}
	.st189{fill:#24923D;}
	.st190{opacity:6.000001e-02;fill:#101010;enable-background:new    ;}
	.st191{fill:#00529F;}
	.st192{fill:#EE324E;}
	.st193{fill:#FEBE10;}
	.st194{fill:#143C8B;}
	.st195{fill:#FFE24A;}
	.st196{fill:#EC1D24;}
	.st197{fill:#E6A514;}
	.st198{fill:#FFDF1C;}
	.st199{fill:#EE3524;}
	.st200{fill:#B23428;}
	.st201{fill:#D18816;}
	.st202{fill:#0097D7;}
	.st203{fill:#ED1C23;}
	.st204{fill:#E30613;}
	.st205{fill:#FFE400;}
	.st206{fill:#C51A1B;}
	.st207{clip-path:url(#SVGID_19_);}
	.st208{clip-path:url(#SVGID_20_);fill:none;stroke:#000000;stroke-width:0.8131;stroke-miterlimit:3.864;}
	.st209{fill:#0093D5;}
	.st210{fill:#004B9D;}
	.st211{fill:#FCC24F;}
	.st212{fill:#009545;}
	.st213{fill:#0072BB;}
	.st214{fill:#C4974E;}
	.st215{fill:url(#path1292_1_);}
	.st216{fill:#004996;}
	.st217{fill:#FFE667;}
	.st218{fill:none;stroke:#005187;stroke-width:0.153;stroke-miterlimit:3.864;}
	.st219{fill:#005187;}
	.st220{clip-path:url(#SVGID_22_);}
	.st221{clip-path:url(#SVGID_24_);fill:none;stroke:#000000;stroke-width:0.296;stroke-miterlimit:3.864;}
	.st222{clip-path:url(#SVGID_26_);fill:#FFE667;}
	.st223{clip-path:url(#SVGID_28_);fill:none;stroke:#000000;stroke-width:8.300000e-02;stroke-miterlimit:3.864;}
	.st224{fill:none;stroke:#000000;stroke-width:0.153;stroke-miterlimit:3.864;}
	.st225{clip-path:url(#SVGID_30_);fill:#E70005;}
	.st226{clip-path:url(#SVGID_32_);fill:none;stroke:#E70005;stroke-width:0.296;stroke-miterlimit:3.864;}
	.st227{clip-path:url(#SVGID_34_);fill:#E70005;}
	.st228{clip-path:url(#SVGID_36_);fill:none;stroke:#E70005;stroke-width:0.296;stroke-miterlimit:3.864;}
	.st229{clip-path:url(#SVGID_38_);fill:#E70005;}
	.st230{clip-path:url(#SVGID_40_);fill:none;stroke:#E70005;stroke-width:0.296;stroke-miterlimit:3.864;}
	.st231{clip-path:url(#SVGID_42_);fill:#E70005;}
	.st232{clip-path:url(#SVGID_44_);fill:none;stroke:#E70005;stroke-width:0.296;stroke-miterlimit:3.864;}
	.st233{fill:#E70005;}
	.st234{fill:none;stroke:#000000;stroke-width:0.141;stroke-miterlimit:3.864;}
	.st235{fill:#00276D;}
	.st236{fill:#C49308;}
	.st237{fill:#179D33;}
	.st238{fill:#999999;}
	.st239{fill:#FF0000;}
	.st240{fill:#E31837;}
	.st241{fill:#06357A;}
	.st242{fill:#B4053F;}
	.st243{fill:#DCA43E;}
	.st244{fill:#005CA5;}
	.st245{fill:#FAC400;}
	.st246{fill:#004083;}
	.st247{fill:#A95932;}
	.st248{fill:none;stroke:#000000;stroke-width:1.2215;}
	.st249{fill:#E62627;}
	.st250{fill:#00458C;}
	.st251{fill:#E11B22;}
	.st252{fill:#00AB4E;}
	.st253{fill:#F47920;}
	.st254{fill:#C7C8CA;}
	.st255{fill:#E11515;}
	.st256{fill:#A4965F;}
	.st257{fill:#E51636;}
	.st258{fill:#EACC00;}
	.st259{fill:#4F846B;}
	.st260{fill:#E22227;}
	.st261{fill:#FAE700;}
	.st262{fill:url(#SVGID_45_);}
	.st263{fill:#666666;}
	.st264{fill:#FFF200;}
	.st265{fill:#00275D;}
	.st266{fill:#EF3E33;}
	.st267{fill:none;stroke:#00275D;stroke-width:2.632;}
	.st268{fill:#3F7652;}
	.st269{fill:#F1D261;}
	.st270{fill:#004D8F;}
	.st271{fill:#E7B137;stroke:#E7B137;stroke-miterlimit:10;}
	.st272{fill:#E7B137;}
	.st273{fill:#162577;}
	.st274{fill:#12692C;}
	.st275{fill:#D8141D;}
	.st276{fill:#AB830D;}
	.st277{fill:#0086CB;}
	.st278{fill:#001F42;}
	.st279{fill:#9A8F4A;}
	.st280{fill:#00559D;}
	.st281{fill:#FDDE00;}
	.st282{fill:#00924C;}
	.st283{fill:#233984;}
	.st284{fill:#FFD42E;}
	.st285{fill:#BA3733;}
	.st286{fill:#46714D;}
	.st287{fill:#221F1F;}
	.st288{fill:#00559E;}
	.st289{fill:#005C46;}
	.st290{fill:#FBC860;}
	.st291{fill:#D57C48;}
	.st292{fill:#040403;}
	.st293{fill:#4AB969;}
	.st294{fill:#8ED8F8;}
	.st295{fill:#FEC34E;}
	.st296{fill:#FFC95B;}
	.st297{fill:#00644C;}
	.st298{fill:#70B865;}
	.st299{fill:#CA6F44;}
	.st300{fill:#A8B8BE;}
	.st301{fill:#1C2C80;}
	.st302{fill:#E10321;}
	.st303{fill:none;stroke:#231F20;stroke-width:0.318;stroke-miterlimit:3.864;}
	.st304{fill:#D71920;}
	.st305{fill:#484749;}
	.st306{fill:#D9DBDC;}
	.st307{fill:#DF725A;}
	.st308{fill:#F2CABA;}
	.st309{fill:#E89C84;}
	.st310{fill:#264F99;}
	.st311{clip-path:url(#SVGID_47_);}
	.st312{fill:#161413;}
	.st313{fill:#ED1B26;}
	.st314{fill:#E60D2E;}
	.st315{fill:#FCD600;}
	.st316{fill:#004D91;}
	.st317{fill:#EAB412;}
	.st318{fill:#FDD31D;}
	.st319{fill:#EFB800;}
</style>
<g id="g3_2_" transform="translate(-31.630382,-57.897)">
	<path id="path5_1_"  d="M53.3,127.9c-13.9-21.3-15.6-46.9-16-70h88.6c-0.4,23.1-2.1,48.7-16,70
		c-11.2,17.1-28.3,30-28.3,30S64.5,145,53.3,127.9z"/>
	<path id="path7_3_"  class="st28" d="M123.9,59.9c-0.4,21.8-2.2,46.4-15.6,67
		c-9.2,14.1-22.6,25.3-26.7,28.6c-4-3.2-17.5-14.5-26.7-28.6l0,0c-13.4-20.5-15.2-45.2-15.6-67C43.1,59.9,120.2,59.9,123.9,59.9z"/>
	<path id="path9_4_"  d="M112.4,71c-0.9,17.1-3.8,35-13.4,49.8c-5.2,8-12.1,15.1-17.3,20
		c-5.2-4.8-12.1-11.9-17.3-20l0,0C54.6,106,51.8,88.1,50.9,71C66.8,71,96.5,71,112.4,71z"/>
	<path id="path11_4_"  class="st28" d="M57.8,101.9c-0.2-0.6-0.3-1.1-0.5-1.7l0,0
		c0-0.1,0.1-0.1,0.1-0.1c0.1,0,0.1,0.1,0.2,0.2c0.1,0.2,0.2,0.4,0.5,0.4c0.3,0,0.4-0.2,0.5-0.4c0.1-0.1,0.1-0.2,0.2-0.2
		c0.1,0,0.1,0.1,0.2,0.2c0.1,0.2,0.2,0.4,0.5,0.4v-0.3c-0.1,0-0.2-0.1-0.3-0.2c-0.1-0.1-0.2-0.3-0.5-0.3s-0.4,0.2-0.5,0.3
		c-0.1,0.2-0.2,0.2-0.3,0.2c-0.1,0-0.2-0.1-0.3-0.2c-0.1-0.1-0.2-0.3-0.5-0.3c-0.1,0-0.2,0-0.2,0.1l0,0c-0.2-0.7-0.4-1.3-0.5-2l0,0
		h12.8c0,0,0-2,0.6-3.4c0.4-1.1,1.3-2.4,2.2-2.4l0,0c0.9,0,1.8,1.3,2.2,2.4c0.4,1,0.5,2.3,0.5,3l0,0l-2.4,1.8l0,0v-0.3
		c-0.1,0-0.2-0.1-0.3-0.2c-0.1-0.1-0.2-0.3-0.5-0.3s-0.4,0.2-0.5,0.3c-0.1,0.2-0.2,0.2-0.3,0.2c-0.1,0-0.2-0.1-0.3-0.2
		c-0.1-0.1-0.2-0.3-0.5-0.3c-0.3,0-0.4,0.2-0.5,0.3c-0.1,0.2-0.2,0.2-0.3,0.2s-0.2-0.1-0.3-0.2c-0.1-0.1-0.2-0.3-0.5-0.3
		c-0.3,0-0.4,0.2-0.5,0.3c-0.1,0.2-0.2,0.2-0.3,0.2v0.3c0.3,0,0.4-0.2,0.5-0.4c0.1-0.1,0.1-0.2,0.2-0.2c0.1,0,0.1,0.1,0.2,0.2
		c0.1,0.2,0.2,0.4,0.5,0.4s0.4-0.2,0.5-0.4c0.1-0.1,0.1-0.2,0.2-0.2c0.1,0,0.1,0.1,0.2,0.2c0.1,0.2,0.2,0.4,0.5,0.4
		c0.3,0,0.4-0.2,0.5-0.4c0.1-0.1,0.1-0.2,0.2-0.2c0.1,0,0.1,0.1,0.2,0.2c0.1,0.2,0.2,0.4,0.5,0.4l0,0l-3.2,2.3l0,0c0,0,0,0,0,0
		c-0.1-0.1-0.2-0.3-0.5-0.3c-0.3,0-0.4,0.2-0.5,0.3c-0.1,0.2-0.2,0.2-0.3,0.2v0.3c0.3,0,0.4-0.2,0.5-0.4c0.1-0.1,0.1-0.2,0.2-0.2
		c0.1,0,0.1,0.1,0.2,0.2c0,0,0,0,0,0l0,0l-1.2,0.9l0,0c0,0-0.1,0-0.1,0c-0.3,0-0.4,0.2-0.5,0.3c-0.1,0.2-0.2,0.2-0.3,0.2
		s-0.2-0.1-0.3-0.2c-0.1-0.1-0.2-0.3-0.5-0.3c-0.3,0-0.4,0.2-0.5,0.3c-0.1,0.2-0.2,0.2-0.3,0.2v0.3c0.3,0,0.4-0.2,0.5-0.4
		c0.1-0.1,0.1-0.2,0.2-0.2c0.1,0,0.1,0.1,0.2,0.2c0.1,0.1,0.1,0.2,0.3,0.3l0,0l-1.2,0.9l0,0c-0.1-0.1-0.2-0.3-0.4-0.3
		c-0.3,0-0.4,0.2-0.5,0.3c-0.1,0.2-0.2,0.2-0.3,0.2s-0.2-0.1-0.3-0.2c-0.1-0.1-0.2-0.3-0.5-0.3c-0.3,0-0.4,0.2-0.5,0.3
		c-0.1,0.2-0.2,0.2-0.3,0.2v0.3c0.3,0,0.4-0.2,0.5-0.4c0.1-0.1,0.1-0.2,0.2-0.2c0.1,0,0.1,0.1,0.2,0.2c0.1,0.2,0.2,0.4,0.5,0.4
		c0.3,0,0.4-0.2,0.5-0.4c0.1-0.1,0.1-0.2,0.2-0.2c0.1,0,0.1,0,0.2,0.1l0,0l-1.3,1l0,0c-0.2,0-0.3,0.1-0.4,0.3l0,0l-0.4,0.3l0,0
		c-0.1,0-0.1-0.1-0.2-0.2c-0.1-0.1-0.2-0.3-0.5-0.3s-0.4,0.2-0.5,0.3c-0.1,0.2-0.2,0.2-0.3,0.2c-0.1,0-0.2-0.1-0.3-0.2
		c-0.1-0.1-0.2-0.3-0.5-0.3s-0.4,0.2-0.5,0.3c-0.1,0.2-0.2,0.2-0.3,0.2v0.3c0.3,0,0.4-0.2,0.5-0.4c0.1-0.1,0.1-0.2,0.2-0.2
		c0.1,0,0.1,0.1,0.2,0.2c0.1,0.2,0.2,0.4,0.5,0.4c0.3,0,0.4-0.2,0.5-0.4c0.1-0.1,0.1-0.2,0.2-0.2c0.1,0,0.1,0.1,0.2,0.2
		c0,0.1,0.1,0.2,0.2,0.2l0,0l-1.2,0.9l0,0c-0.1-0.1-0.2-0.2-0.4-0.2c-0.3,0-0.4,0.2-0.5,0.3c-0.1,0.2-0.2,0.2-0.3,0.2
		c-0.1,0-0.2-0.1-0.3-0.2c-0.1-0.1-0.2-0.3-0.5-0.3c-0.2,0-0.3,0.1-0.4,0.2c0,0,0,0,0,0l0,0c-0.1-0.3-0.2-0.6-0.4-0.9l0,0
		c0.1,0.1,0.2,0.2,0.4,0.2v-0.3c-0.1,0-0.2-0.1-0.3-0.2c-0.1-0.1-0.2-0.3-0.4-0.3l0,0c-0.1-0.4-0.3-0.7-0.4-1.1l0,0
		c0,0,0.1,0.1,0.1,0.2c0.1,0.2,0.2,0.4,0.5,0.4c0.3,0,0.4-0.2,0.5-0.4c0.1-0.1,0.1-0.2,0.2-0.2c0.1,0,0.1,0.1,0.2,0.2
		c0.1,0.2,0.2,0.4,0.5,0.4c0.3,0,0.4-0.2,0.5-0.4c0.1-0.1,0.1-0.2,0.2-0.2c0.1,0,0.1,0.1,0.2,0.2c0.1,0.2,0.2,0.4,0.5,0.4v-0.3
		c-0.1,0-0.2-0.1-0.3-0.2c-0.1-0.1-0.2-0.3-0.5-0.3s-0.4,0.2-0.5,0.3c-0.1,0.2-0.2,0.2-0.3,0.2c-0.1,0-0.2-0.1-0.3-0.2
		c-0.1-0.1-0.2-0.3-0.5-0.3c-0.3,0-0.4,0.2-0.5,0.3c-0.1,0.2-0.2,0.2-0.3,0.2c-0.1,0-0.2-0.1-0.3-0.2c-0.1-0.1-0.2-0.3-0.5-0.3
		c0,0,0,0,0,0l0,0c-0.1-0.2-0.1-0.4-0.2-0.6l0,0c0.2-0.1,0.3-0.2,0.4-0.4c0.1-0.1,0.1-0.2,0.2-0.2c0.1,0,0.1,0.1,0.2,0.2
		c0.1,0.2,0.2,0.4,0.5,0.4v-0.3c-0.1,0-0.2-0.1-0.3-0.2c-0.1-0.1-0.2-0.3-0.5-0.3s-0.4,0.2-0.5,0.3c-0.1,0.1-0.1,0.2-0.2,0.2l0,0
		c-0.1-0.4-0.2-0.7-0.4-1.1l0,0c0.3,0,0.4-0.2,0.5-0.4c0.1-0.1,0.1-0.2,0.2-0.2c0.1,0,0.1,0.1,0.2,0.2c0.1,0.2,0.2,0.4,0.5,0.4
		c0.3,0,0.4-0.2,0.5-0.4c0.1-0.1,0.1-0.2,0.2-0.2c0.1,0,0.1,0.1,0.2,0.2c0.1,0.2,0.2,0.4,0.5,0.4c0.3,0,0.4-0.2,0.5-0.4
		c0.1-0.1,0.1-0.2,0.2-0.2c0.1,0,0.1,0.1,0.2,0.2c0.1,0.2,0.2,0.4,0.5,0.4v-0.3c-0.1,0-0.2-0.1-0.3-0.2c-0.1-0.1-0.2-0.3-0.5-0.3
		s-0.4,0.2-0.5,0.3c-0.1,0.2-0.2,0.2-0.3,0.2c-0.1,0-0.2-0.1-0.3-0.2c-0.1-0.1-0.2-0.3-0.5-0.3c-0.3,0-0.4,0.2-0.5,0.3
		c-0.1,0.2-0.2,0.2-0.3,0.2s-0.2-0.1-0.3-0.2c-0.1-0.1-0.2-0.3-0.5-0.3s-0.4,0.2-0.5,0.3c-0.1,0.2-0.2,0.2-0.3,0.2L57.8,101.9
		C57.8,101.9,57.8,101.9,57.8,101.9z"/>
	<path id="path13_3_"  class="st28" d="M85.5,89.6l-2.4-0.6l0,0v-2.9l0,0c0.2,0,0.4,0,0.5-0.1
		c0.1,0,0.1,0.3,0.2,0.4c0.1,0.1,0.2,0.2,0.1,0.3C83.8,87,83.7,87,83.5,87c-0.2,0-0.3,0.1-0.3,0.2c0,0.1,0.1,0,0.3,0
		c0.2,0,0.4,0,0.6-0.2c0.1-0.2,0.2-0.3,0.2-0.4c0,0,0,0,0.1,0c0.1,0,0.2,0.1,0.3,0.1c0.2,0,0.3,0.1,0.3,0.3c0,0.2,0,0.2-0.1,0.2
		c-0.1,0-0.2,0-0.2,0.1c0,0.1,0.1,0.1,0.3,0.1c0.2,0,0.3-0.1,0.4-0.3c0-0.2,0-0.5-0.1-0.6c-0.2-0.1-0.3-0.2-0.2-0.4s0-0.4,0-0.4
		s0.2,0.2,0.4,0.5c0.2,0.3,0.4,0.5,0.8,0.6c0.4,0.1,0.6-0.1,0.7-0.2c0.1-0.1,0-0.3-0.2-0.2c-0.2,0-0.6,0.1-0.9-0.2
		c-0.2-0.3-0.5-0.6-1-0.8c-0.5-0.2-0.9-0.2-1.4-0.2c-0.2,0-0.3,0-0.5,0l0,0v-3.3l0,0c0.2,0,0.4,0,0.5-0.1c0.1,0,0.1,0.3,0.2,0.4
		c0.1,0.1,0.2,0.2,0.1,0.3c-0.1,0.2-0.2,0.2-0.4,0.2c-0.2,0-0.3,0.1-0.3,0.2s0.1,0,0.3,0c0.2,0,0.4,0,0.6-0.2
		c0.1-0.2,0.2-0.3,0.2-0.4c0,0,0,0,0.1,0c0.1,0,0.2,0.1,0.3,0.1c0.2,0,0.3,0.1,0.3,0.3c0,0.2,0,0.2-0.1,0.2c-0.1,0-0.2,0-0.2,0.1
		c0,0.1,0.1,0.1,0.3,0.1c0.2,0,0.3-0.1,0.4-0.3s0-0.5-0.1-0.6c-0.2-0.1-0.3-0.2-0.2-0.4c0-0.3,0-0.4,0-0.4s0.2,0.2,0.4,0.5
		c0.2,0.3,0.4,0.5,0.8,0.6c0.4,0.1,0.6-0.1,0.7-0.2c0.1-0.1,0-0.3-0.2-0.2c-0.2,0-0.6,0.1-0.9-0.2c-0.2-0.3-0.5-0.6-1-0.8
		c-0.5-0.2-0.9-0.2-1.4-0.2c-0.2,0-0.3,0-0.5,0l0,0v-1.2l0,0c1.1-0.3,1.9-1.1,2.2-2.2l0,0h1.1c0.1,0,0.1-0.1,0.1-0.1v-1.1
		c0-0.1-0.1-0.1-0.1-0.1h-1.1l0,0c-0.3-1.1-1.1-1.9-2.2-2.2l0,0v-0.5c0-0.1-0.1-0.1-0.1-0.1h-1.1c-0.1,0-0.1,0.1-0.1,0.1v0.5l0,0
		c-1.1,0.3-1.9,1.1-2.2,2.2l0,0h-1.1c-0.1,0-0.1,0.1-0.1,0.1v1.1c0,0.1,0.1,0.1,0.1,0.1h1.1l0,0c0.3,1.1,1.1,1.9,2.2,2.2l0,0v1.3
		l0,0c-0.5,0-0.9,0-1.1-0.1c-0.2-0.1-0.3-0.3-0.4-0.5c0-0.1-0.1-0.3-0.1-0.3c0,0,0,0,0,0c0,0-0.1,0.1-0.1,0.1c0,0,0,0,0-0.1
		c0,0,0,0,0,0c0,0-0.1,0.1-0.2,0.1c-0.1,0.1,0,0.2-0.2,0.2c-0.1,0-0.2,0.2-0.4,0.2c-0.1,0-0.3,0.1-0.2,0.1c0,0.1,0.1,0.3,0.3,0.3
		c0.2,0,0.3,0,0.4,0.1c0.1,0,0.2,0.1,0.3,0.3c0.1,0.2,0.2,0.3,0.2,0.4c0,0.1-0.2,0.1-0.3,0.1c-0.1,0-0.4,0.1-0.5,0.2
		c-0.1,0.1-0.2,0.1-0.1,0.2c0.1,0,0.2,0,0.3,0c0.1-0.1,0.4-0.2,0.7-0.2c0.3,0,0.4,0,0.6,0.1c0.1,0.1,0.3,0.3,0.3,0.4
		c0,0.2,0,0.5-0.1,0.5c-0.1,0-0.2,0-0.2,0.1c0,0.1,0.1,0.1,0.3,0.1s0.3-0.1,0.3-0.3c0-0.2,0-0.3,0.1-0.5c0-0.1,0-0.2,0.1-0.2
		c0.1-0.2,0.1-0.3,0.3-0.3l0,0v3.3l0,0c-0.5,0-0.9,0-1.1-0.1c-0.2-0.1-0.3-0.3-0.4-0.5c0-0.1-0.1-0.3-0.1-0.3c0,0,0,0,0,0
		c0,0-0.1,0.1-0.1,0.1c0,0,0,0,0-0.1c0,0,0,0,0,0c0,0-0.1,0.1-0.2,0.1c-0.1,0.1,0,0.2-0.2,0.2c-0.1,0-0.2,0.2-0.4,0.2
		c-0.1,0-0.3,0.1-0.2,0.1c0,0.1,0.1,0.3,0.3,0.3c0.2,0,0.3,0,0.4,0.1c0.1,0,0.2,0.1,0.3,0.3c0.1,0.2,0.2,0.3,0.2,0.4
		c0,0.1-0.2,0.1-0.3,0.1c-0.1,0-0.4,0.1-0.5,0.2c-0.1,0.1-0.2,0.1-0.1,0.2c0.1,0,0.2,0,0.3,0s0.4-0.2,0.7-0.2c0.3,0,0.4,0,0.6,0.1
		c0.1,0.1,0.3,0.3,0.3,0.4c0,0.2,0,0.5-0.1,0.5c-0.1,0-0.2,0-0.2,0.1c0,0.1,0.1,0.1,0.3,0.1c0.2,0,0.3-0.1,0.3-0.3
		c0-0.2,0-0.3,0.1-0.5c0-0.1,0-0.2,0.1-0.2c0.1-0.2,0.1-0.3,0.3-0.3l0,0v2.5l0,0l-7.4-1.8c-0.1,0-0.2,0-0.2,0l-4.5,3
		c-0.1,0-0.1,0-0.1-0.1V82c0-0.1-0.1-0.1-0.1-0.1h-5.1c-0.1,0-0.1,0.1-0.1,0.1v5.7c0,0.1-0.1,0.1-0.1,0.1h-9.5l0,0
		c-0.7-4.5-1.2-9.4-1.6-14.9c3.4,0,44.5,0,55.1,0l0,0L85.5,89.6L85.5,89.6L85.5,89.6z"/>
	<path id="path15_3_"  d="M44.7,92.6c0,0.1-0.1,0.1-0.2,0.1h-1.7c-0.1,0-0.1,0,0-0.1l3.2-4.1
		c0-0.1,0-0.1,0-0.2l-3.2-4.1c0-0.1,0-0.1,0-0.1h1.7c0.1,0,0.1,0,0.2,0.1l2.3,2.9c0,0.1,0.1,0.1,0.1,0l2.3-2.9
		c0-0.1,0.1-0.1,0.2-0.1h1.7c0.1,0,0.1,0,0,0.1L48,88.3c0,0.1,0,0.1,0,0.2l3.2,4.1c0,0.1,0,0.1,0,0.1h-1.7c-0.1,0-0.1,0-0.2-0.1
		l-2.3-2.9c0-0.1-0.1-0.1-0.1,0L44.7,92.6z"/>
	<path id="path17_3_"  d="M118.6,92.6c0,0.1,0.1,0.1,0.2,0.1h1.7c0.1,0,0.1,0,0-0.1l-3.2-4.1
		c0-0.1,0-0.1,0-0.2l3.2-4.1c0-0.1,0-0.1,0-0.1h-1.7c-0.1,0-0.1,0-0.2,0.1l-2.3,2.9c0,0.1-0.1,0.1-0.1,0l-2.3-2.9
		c0-0.1-0.1-0.1-0.2-0.1h-1.7c-0.1,0-0.1,0,0,0.1l3.2,4.1c0,0.1,0,0.1,0,0.2l-3.2,4.1c0,0.1,0,0.1,0,0.1h1.7c0.1,0,0.1,0,0.2-0.1
		l2.3-2.9c0-0.1,0.1-0.1,0.1,0L118.6,92.6z"/>
	<path id="path19_1_"  d="M59.6,85.8c-1.1,0-2,0.5-2.4,1.3h4.9C61.7,86.4,60.7,85.8,59.6,85.8
		L59.6,85.8z"/>
	<path id="path21_4_"  class="st28" d="M80.2,93.6l-4.5,3.3l0,0c0.1-0.7,0.2-1.7,0.5-2.4
		c0.4-1.1,1.3-2.4,2.2-2.4l0,0C79.1,92,79.7,92.7,80.2,93.6C80.2,93.6,80.2,93.6,80.2,93.6z"/>
	<path id="path23_2_"  class="st28" d="M60.9,110.3l49.4-36.5l0,0c-0.6,8.6-1.6,15.8-3.2,22.5
		c-2.2,9.1-5.4,16.7-9.7,23.4c-4.8,7.3-10.9,13.8-15.7,18.3c-4.8-4.5-10.9-11-15.7-18.3C64,116.7,62.3,113.6,60.9,110.3
		C60.9,110.3,60.9,110.3,60.9,110.3z"/>
	<path id="path25_2_"  class="st140" d="M78,134.4c1.3,1.3,2.5,2.5,3.6,3.6c1-1,2.1-2,3.2-3.2l0,0
		V92.5l0,0L78,97.6l0,0L78,134.4C78,134.4,78,134.4,78,134.4z"/>
	<path id="path27_3_"  class="st140" d="M91.1,127.9v-40l0,0l6.9-5.1l0,0v35.7l0,0
		c-0.2,0.4-0.5,0.7-0.7,1.1C95.4,122.6,93.3,125.4,91.1,127.9C91.1,127.9,91.1,127.9,91.1,127.9z"/>
	<path id="path29_3_"  class="st140" d="M64.9,118c0.4,0.6,0.7,1.1,1.1,1.7
		c1.8,2.7,3.8,5.4,5.8,7.8l0,0v-25.2l0,0l-6.9,5.1l0,0L64.9,118C64.9,118,64.9,118,64.9,118z"/>
	<path id="path31_3_"  class="st140" d="M104.3,105.5V78.2l0,0l5.9-4.4l0,0
		c-0.6,8.6-1.6,15.8-3.2,22.5C106.2,99.5,105.3,102.6,104.3,105.5C104.3,105.5,104.3,105.5,104.3,105.5z"/>
	<path id="path33_3_"  d="M66.9,75.9l2.5,5c0,0.1,0,0.1-0.1,0.1h-5.1c-0.1,0-0.1,0-0.1-0.1l2.5-5
		l0,0v-1l0,0c-0.2-0.2-0.3-0.6-0.3-0.8c0-0.2,0.2-0.4,0.4-0.4s0.4,0.2,0.4,0.4c0,0.2-0.1,0.6-0.3,0.8l0,0L66.9,75.9
		C66.9,75.8,66.9,75.9,66.9,75.9z"/>
	<path id="path35_3_"  d="M66.2,98.7c-0.1,0.2-0.2,0.2-0.3,0.2s-0.2-0.1-0.3-0.2
		c-0.1-0.1-0.2-0.3-0.5-0.3c-0.3,0-0.4,0.2-0.5,0.3c-0.1,0.2-0.2,0.2-0.3,0.2s-0.2-0.1-0.3-0.2c-0.1-0.1-0.2-0.3-0.5-0.3
		c-0.3,0-0.4,0.2-0.5,0.3c-0.1,0.2-0.2,0.2-0.3,0.2v0.3c0.3,0,0.4-0.2,0.5-0.4c0.1-0.1,0.1-0.2,0.2-0.2c0.1,0,0.1,0.1,0.2,0.2
		c0.1,0.2,0.2,0.4,0.5,0.4c0.3,0,0.4-0.2,0.5-0.4c0.1-0.1,0.1-0.2,0.2-0.2c0.1,0,0.1,0.1,0.2,0.2c0.1,0.2,0.2,0.4,0.5,0.4
		c0.3,0,0.4-0.2,0.5-0.4c0.1-0.1,0.1-0.2,0.2-0.2c0.1,0,0.1,0.1,0.2,0.2c0.1,0.2,0.2,0.4,0.5,0.4v-0.3c-0.1,0-0.2-0.1-0.3-0.2
		c-0.1-0.1-0.2-0.3-0.5-0.3C66.4,98.3,66.3,98.5,66.2,98.7L66.2,98.7z"/>
	<path id="path37_3_"  d="M61,98.7c-0.1,0.2-0.2,0.2-0.3,0.2s-0.2-0.1-0.3-0.2
		c-0.1-0.1-0.2-0.3-0.5-0.3c-0.3,0-0.4,0.2-0.5,0.3c-0.1,0.2-0.2,0.2-0.3,0.2s-0.2-0.1-0.3-0.2c-0.1-0.1-0.2-0.3-0.5-0.3
		s-0.4,0.2-0.5,0.3c-0.1,0.2-0.2,0.2-0.3,0.2v0.3c0.3,0,0.4-0.2,0.5-0.4c0.1-0.1,0.1-0.2,0.2-0.2c0.1,0,0.1,0.1,0.2,0.2
		c0.1,0.2,0.2,0.4,0.5,0.4c0.3,0,0.4-0.2,0.5-0.4c0.1-0.1,0.1-0.2,0.2-0.2c0.1,0,0.1,0.1,0.2,0.2c0.1,0.2,0.2,0.4,0.5,0.4
		c0.3,0,0.4-0.2,0.5-0.4c0.1-0.1,0.1-0.2,0.2-0.2c0.1,0,0.1,0.1,0.2,0.2c0.1,0.2,0.2,0.4,0.5,0.4v-0.3c-0.1,0-0.2-0.1-0.3-0.2
		c-0.1-0.1-0.2-0.3-0.5-0.3C61.2,98.3,61.1,98.5,61,98.7z"/>
	<path id="path39_1_"  d="M73.1,97.2c-0.1,0.2-0.2,0.2-0.3,0.2c-0.1,0-0.2-0.1-0.3-0.2
		c-0.1-0.1-0.2-0.3-0.5-0.3c-0.3,0-0.4,0.2-0.5,0.3c-0.1,0.2-0.2,0.2-0.3,0.2c-0.1,0-0.2-0.1-0.3-0.2c-0.1-0.1-0.2-0.3-0.5-0.3
		c-0.3,0-0.4,0.2-0.5,0.3c-0.1,0.2-0.2,0.2-0.3,0.2v0.3c0.3,0,0.4-0.2,0.5-0.4c0.1-0.1,0.1-0.2,0.2-0.2c0.1,0,0.1,0.1,0.2,0.2
		c0.1,0.2,0.2,0.4,0.5,0.4c0.3,0,0.4-0.2,0.5-0.4c0.1-0.1,0.1-0.2,0.2-0.2s0.1,0.1,0.2,0.2c0.1,0.2,0.2,0.4,0.5,0.4
		c0.3,0,0.4-0.2,0.5-0.4c0.1-0.1,0.1-0.2,0.2-0.2c0.1,0,0.1,0.1,0.2,0.2c0.1,0.2,0.2,0.4,0.5,0.4v-0.3c-0.1,0-0.2-0.1-0.3-0.2
		c-0.1-0.1-0.2-0.3-0.5-0.3C73.3,96.9,73.2,97.1,73.1,97.2z"/>
	<path id="path41_2_"  d="M66.2,101.6c-0.1,0.2-0.2,0.2-0.3,0.2s-0.2-0.1-0.3-0.2
		c-0.1-0.1-0.2-0.3-0.5-0.3c-0.3,0-0.4,0.2-0.5,0.3c-0.1,0.2-0.2,0.2-0.3,0.2s-0.2-0.1-0.3-0.2c-0.1-0.1-0.2-0.3-0.5-0.3
		c-0.3,0-0.4,0.2-0.5,0.3c-0.1,0.2-0.2,0.2-0.3,0.2v0.3c0.3,0,0.4-0.2,0.5-0.4c0.1-0.1,0.1-0.2,0.2-0.2c0.1,0,0.1,0.1,0.2,0.2
		c0.1,0.2,0.2,0.4,0.5,0.4c0.3,0,0.4-0.2,0.5-0.4c0.1-0.1,0.1-0.2,0.2-0.2c0.1,0,0.1,0.1,0.2,0.2c0.1,0.2,0.2,0.4,0.5,0.4
		c0.3,0,0.4-0.2,0.5-0.4c0.1-0.1,0.1-0.2,0.2-0.2c0.1,0,0.1,0.1,0.2,0.2c0.1,0.2,0.2,0.4,0.5,0.4v-0.3c-0.1,0-0.2-0.1-0.3-0.2
		c-0.1-0.1-0.2-0.3-0.5-0.3C66.4,101.2,66.3,101.4,66.2,101.6L66.2,101.6z"/>
	<path id="path43_2_"  d="M63.6,100.1c-0.1,0.2-0.2,0.2-0.3,0.2c-0.1,0-0.2-0.1-0.3-0.2
		c-0.1-0.1-0.2-0.3-0.5-0.3s-0.4,0.2-0.5,0.3c-0.1,0.2-0.2,0.2-0.3,0.2c-0.1,0-0.2-0.1-0.3-0.2c-0.1-0.1-0.2-0.3-0.5-0.3
		s-0.4,0.2-0.5,0.3c-0.1,0.2-0.2,0.2-0.3,0.2v0.3c0.3,0,0.4-0.2,0.5-0.4c0.1-0.1,0.1-0.2,0.2-0.2c0.1,0,0.1,0.1,0.2,0.2
		c0.1,0.2,0.2,0.4,0.5,0.4c0.3,0,0.4-0.2,0.5-0.4c0.1-0.1,0.1-0.2,0.2-0.2c0.1,0,0.1,0.1,0.2,0.2c0.1,0.2,0.2,0.4,0.5,0.4
		c0.3,0,0.4-0.2,0.5-0.4c0.1-0.1,0.1-0.2,0.2-0.2c0.1,0,0.1,0.1,0.2,0.2c0.1,0.2,0.2,0.4,0.5,0.4v-0.3c-0.1,0-0.2-0.1-0.3-0.2
		c-0.1-0.1-0.2-0.3-0.5-0.3C63.8,99.8,63.7,100,63.6,100.1z"/>
	<path id="path45_2_"  d="M68.8,100.1c-0.1,0.2-0.2,0.2-0.3,0.2s-0.2-0.1-0.3-0.2
		c-0.1-0.1-0.2-0.3-0.5-0.3c-0.3,0-0.4,0.2-0.5,0.3c-0.1,0.2-0.2,0.2-0.3,0.2c-0.1,0-0.2-0.1-0.3-0.2c-0.1-0.1-0.2-0.3-0.5-0.3
		c-0.3,0-0.4,0.2-0.5,0.3c-0.1,0.2-0.2,0.2-0.3,0.2v0.3c0.3,0,0.4-0.2,0.5-0.4c0.1-0.1,0.1-0.2,0.2-0.2c0.1,0,0.1,0.1,0.2,0.2
		c0.1,0.2,0.2,0.4,0.5,0.4c0.3,0,0.4-0.2,0.5-0.4c0.1-0.1,0.1-0.2,0.2-0.2c0.1,0,0.1,0.1,0.2,0.2c0.1,0.2,0.2,0.4,0.5,0.4
		c0.3,0,0.4-0.2,0.5-0.4c0.1-0.1,0.1-0.2,0.2-0.2c0.1,0,0.1,0.1,0.2,0.2c0.1,0.2,0.2,0.4,0.5,0.4v-0.3c-0.1,0-0.2-0.1-0.3-0.2
		c-0.1-0.1-0.2-0.3-0.5-0.3C69,99.8,68.8,100,68.8,100.1z"/>
	<path id="path47_2_"  d="M63.6,103c-0.1,0.2-0.2,0.2-0.3,0.2c-0.1,0-0.2-0.1-0.3-0.2
		c-0.1-0.1-0.2-0.3-0.5-0.3s-0.4,0.2-0.5,0.3c-0.1,0.2-0.2,0.2-0.3,0.2c-0.1,0-0.2-0.1-0.3-0.2c-0.1-0.1-0.2-0.3-0.5-0.3
		s-0.4,0.2-0.5,0.3c-0.1,0.2-0.2,0.2-0.3,0.2v0.3c0.3,0,0.4-0.2,0.5-0.4c0.1-0.1,0.1-0.2,0.2-0.2c0.1,0,0.1,0.1,0.2,0.2
		c0.1,0.2,0.2,0.4,0.5,0.4c0.3,0,0.4-0.2,0.5-0.4c0.1-0.1,0.1-0.2,0.2-0.2c0.1,0,0.1,0.1,0.2,0.2c0.1,0.2,0.2,0.4,0.5,0.4
		c0.3,0,0.4-0.2,0.5-0.4c0.1-0.1,0.1-0.2,0.2-0.2c0.1,0,0.1,0.1,0.2,0.2c0.1,0.2,0.2,0.4,0.5,0.4v-0.3c-0.1,0-0.2-0.1-0.3-0.2
		c-0.1-0.1-0.2-0.3-0.5-0.3C63.8,102.6,63.7,102.8,63.6,103z"/>
	<path id="path49_3_"  class="st28" d="M59.7,107.5c0.1,0.3,0.2,0.6,0.3,0.9l0,0l0.8-0.6l0,0
		c0,0-0.1,0-0.2,0c-0.3,0-0.4-0.2-0.5-0.4c-0.1-0.1-0.1-0.2-0.2-0.2C59.9,107.2,59.9,107.3,59.7,107.5
		C59.8,107.5,59.7,107.5,59.7,107.5C59.7,107.5,59.7,107.5,59.7,107.5z"/>
	<path id="path51_3_"  class="st28" d="M61.1,107.6l0.4-0.3l0,0c0,0-0.1,0-0.1,0
		c-0.1,0-0.1,0.1-0.2,0.2C61.2,107.5,61.2,107.6,61.1,107.6L61.1,107.6z"/>
	<path id="path53_3_"  d="M96,132.7c-0.1-2.5,0.8-3.7,1.4-4.2c0.7-0.4,1.6-0.4,1.7,2.2
		c0.1,2.5-0.8,3.7-1.4,4.2C97.1,135.3,96.2,135.2,96,132.7z M94.8,133.4c0.2,4.3,2.3,3.5,3,3c0.8-0.5,2.8-2.3,2.5-6.5
		c-0.2-4.3-2.3-3.5-3-3C96.6,127.4,94.6,129.2,94.8,133.4z"/>
	<path id="path55_2_"  d="M66.1,133l1.7,1.8c0.5,0.5,0.9,1.3,0.9,2.1c0,0.9-0.4,1-1,0.3l-1.6-1.7
		L66.1,133L66.1,133z M64.9,135.7l2.6,2.9c1.3,1.4,1.6,1.4,2,1.3c0.3-0.1,0.5-0.6,0.5-1.3c0-0.9-0.2-2-1-3.3
		c0.3,0.1,0.8,0.3,0.8-1.1c0-1-0.4-2.8-1.9-4.4l-3-3.3L64.9,135.7L64.9,135.7z M66.1,129.4l1.5,1.6c0.6,0.6,1,1.3,1,2
		c0,0.7-0.4,0.6-0.9,0l-1.5-1.7L66.1,129.4L66.1,129.4z"/>
	<path id="path57_2_"  d="M72.8,144.5l-1.4-1.4v-9.2l1.4,1.4V144.5z"/>
	<path id="path59_3_"  d="M77.2,147l3.1,2.9l0,1.7l-4.5-4.2v-9.2l1.4,1.3
		C77.2,139.5,77.2,147,77.2,147z"/>
	<path id="path61_3_"  d="M83.7,147l1.7-1.5c0.5-0.4,0.9-0.5,0.9,0.3c0,0.9-0.4,1.6-1,2.2l-1.6,1.4
		V147z M82.4,152.1l2.7-2.3c1.3-1.1,1.6-1.7,2-2.6c0.3-0.8,0.5-1.6,0.5-2.3c0-0.9-0.2-1.6-1-1.3c0.3-0.4,0.8-1.2,0.8-2.5
		c0-0.9-0.4-2-1.9-0.6l-3.1,2.7L82.4,152.1L82.4,152.1z M83.7,143.5l1.5-1.3c0.6-0.5,1-0.6,1,0.1c0,0.7-0.4,1.4-0.9,1.8l-1.5,1.4
		V143.5z"/>
	<path id="path63_2_"  d="M91.8,136.1L91.8,136.1l0.9,2.9l-1.7,1.6L91.8,136.1z M90.6,142.5
		l2.5-2.3l0.4,1.5l1.4-1.2l-2.4-7.1l-1.5,1.4l-2.4,11.4l1.5-1.4L90.6,142.5L90.6,142.5z"/>
	<g id="g65">
		<g id="g67">
			<path id="path69_3_"  d="M46.8,62.4C46.8,62.4,46.8,62.4,46.8,62.4l-2.7,5.9c0,0,0,0,0,0.1
				c0,0,0,0,0,0h0.9c0,0,0,0,0.1,0c0,0,0.8-1.8,0.8-1.9c0.1,0,2.5,0,2.5,0c0,0.1,0.8,1.9,0.8,1.9c0,0,0,0,0.1,0h0.9c0,0,0,0,0,0
				c0,0,0,0,0-0.1l-2.6-5.8c0,0,0,0-0.1,0H46.8z M47.3,63.6c0.1,0.2,0.8,1.7,0.8,1.8c-0.1,0-1.5,0-1.7,0
				C46.5,65.3,47.2,63.8,47.3,63.6z"/>
		</g>
		<g id="g71">
			<path id="path73_3_"  d="M50.7,62.4C50.7,62.4,50.7,62.4,50.7,62.4l-0.1,0.9c0,0,0,0.1,0.1,0.1
				c0,0,1.9,0,2,0c0,0.1,0,4.9,0,4.9c0,0,0,0.1,0.1,0.1h0.8c0,0,0.1,0,0.1-0.1c0,0,0-4.8,0-4.9c0.1,0,2,0,2,0c0,0,0.1,0,0.1-0.1
				v-0.8c0,0,0-0.1-0.1-0.1C55.7,62.4,50.7,62.4,50.7,62.4z"/>
		</g>
		<g id="g75">
			<path id="path77_2_"  d="M61.4,62.4C61.3,62.4,61.3,62.4,61.4,62.4c-0.1,0.1-0.1,2.2-0.1,2.3
				c-0.1,0-3.2,0-3.3,0c0-0.1,0-2.3,0-2.3c0,0,0-0.1-0.1-0.1h-0.8c0,0-0.1,0-0.1,0.1v5.8c0,0,0,0.1,0.1,0.1h0.8c0,0,0.1,0,0.1-0.1
				c0,0,0-2.5,0-2.6c0.1,0,3.2,0,3.3,0c0,0.1,0,2.6,0,2.6c0,0,0,0.1,0.1,0.1h0.8c0,0,0.1,0,0.1-0.1v-5.8c0,0,0-0.1-0.1-0.1H61.4z"/>
		</g>
		<g id="g79">
			<path id="path81_2_"  d="M64.4,62.4C64.3,62.4,64.3,62.4,64.4,62.4l-0.1,5.9c0,0,0,0.1,0.1,0.1
				h4.4c0,0,0.1,0,0.1-0.1v-0.8c0,0,0-0.1-0.1-0.1c0,0-3.4,0-3.5,0c0-0.1,0-4.9,0-4.9c0,0,0-0.1-0.1-0.1
				C65.2,62.4,64.4,62.4,64.4,62.4z"/>
		</g>
		<g id="g83">
			<path id="path85_1_"  d="M69.7,62.4C69.6,62.4,69.6,62.4,69.7,62.4l-0.1,5.9c0,0,0,0.1,0.1,0.1
				h4.9c0,0,0.1,0,0.1-0.1v-0.8c0,0,0-0.1-0.1-0.1c0,0-3.9,0-4,0c0-0.1,0-1.6,0-1.7c0.1,0,1.9,0,1.9,0c0,0,0.1,0,0.1-0.1v-0.8
				c0,0,0-0.1-0.1-0.1c0,0-1.8,0-1.9,0c0-0.1,0-1.3,0-1.4c0.1,0,3.9,0,3.9,0c0,0,0.1,0,0.1-0.1v-0.8c0,0,0-0.1-0.1-0.1L69.7,62.4
				L69.7,62.4z"/>
		</g>
		<g id="g87">
			<path id="path89_1_"  d="M75.5,62.4C75.5,62.4,75.4,62.4,75.5,62.4l-0.1,0.9c0,0,0,0.1,0.1,0.1
				c0,0,1.9,0,2,0c0,0.1,0,4.9,0,4.9c0,0,0,0.1,0.1,0.1h0.8c0,0,0.1,0,0.1-0.1c0,0,0-4.8,0-4.9c0.1,0,2,0,2,0c0,0,0.1,0,0.1-0.1
				v-0.8c0,0,0-0.1-0.1-0.1C80.4,62.4,75.5,62.4,75.5,62.4z"/>
		</g>
		<g id="g91">
			<path id="path93_2_"  d="M81.8,62.4C81.7,62.4,81.7,62.4,81.8,62.4l-0.1,5.9c0,0,0,0.1,0.1,0.1
				h0.8c0,0,0.1,0,0.1-0.1v-5.8c0,0,0-0.1-0.1-0.1H81.8z"/>
		</g>
		<g id="g95_1_">
			<path id="path97_1_"  d="M85.9,62.5c-0.4,0.2-0.7,0.4-1,0.7c-0.3,0.3-0.5,0.6-0.7,1
				c-0.2,0.4-0.2,0.8-0.2,1.2c0,0.5,0.1,0.9,0.3,1.2c0.2,0.4,0.4,0.7,0.7,1c0.3,0.3,0.6,0.5,1,0.6c0.4,0.1,0.8,0.2,1.2,0.2
				c0.4,0,0.8,0,1.1-0.1c0.3-0.1,0.6-0.2,0.8-0.3c0.2-0.1,0.4-0.2,0.6-0.4c0.2-0.1,0.3-0.3,0.5-0.4c0,0,0-0.1,0-0.1l-0.6-0.6
				c0,0,0,0,0,0c0,0,0,0,0,0l-0.3,0.3c-0.1,0.1-0.3,0.2-0.4,0.3c-0.2,0.1-0.4,0.2-0.6,0.2c-0.2,0.1-0.5,0.1-0.8,0.1
				c-0.4,0-0.7-0.1-1-0.2c-0.3-0.1-0.5-0.3-0.7-0.5c-0.2-0.2-0.3-0.4-0.4-0.7c-0.1-0.2-0.2-0.5-0.2-0.8c0-0.4,0.1-0.7,0.2-0.9
				c0.1-0.3,0.3-0.5,0.5-0.7c0.2-0.2,0.4-0.3,0.7-0.4c0.3-0.1,0.5-0.1,0.8-0.1c0.3,0,0.6,0,0.8,0.1c0.2,0.1,0.4,0.2,0.6,0.2
				c0.2,0.1,0.3,0.2,0.5,0.3l0.3,0.2c0,0,0,0,0.1,0l0.6-0.5c0,0,0,0,0,0c0,0,0,0,0,0l-0.3-0.3c-0.2-0.1-0.4-0.3-0.6-0.4
				c-0.2-0.1-0.5-0.3-0.8-0.3c-0.3-0.1-0.7-0.1-1.1-0.1C86.7,62.3,86.3,62.4,85.9,62.5L85.9,62.5z"/>
		</g>
		<g id="g99">
			<path id="path101_1_"  d="M95.5,62.5c-0.4,0.2-0.7,0.4-1,0.7c-0.3,0.3-0.5,0.6-0.7,1
				c-0.2,0.4-0.2,0.8-0.2,1.2c0,0.5,0.1,0.9,0.3,1.2c0.2,0.4,0.4,0.7,0.7,1c0.3,0.3,0.6,0.5,1,0.6c0.4,0.1,0.8,0.2,1.2,0.2
				c0.4,0,0.8,0,1.1-0.1c0.3-0.1,0.6-0.2,0.8-0.3c0.2-0.1,0.4-0.2,0.6-0.4c0.2-0.1,0.3-0.3,0.5-0.4c0,0,0-0.1,0-0.1l-0.6-0.6
				c0,0,0,0,0,0c0,0,0,0,0,0l-0.3,0.3c-0.1,0.1-0.3,0.2-0.4,0.3c-0.2,0.1-0.4,0.2-0.6,0.2c-0.2,0.1-0.5,0.1-0.8,0.1
				c-0.4,0-0.7-0.1-1-0.2c-0.3-0.1-0.5-0.3-0.7-0.5c-0.2-0.2-0.3-0.4-0.4-0.7c-0.1-0.2-0.2-0.5-0.2-0.8c0-0.4,0.1-0.7,0.2-0.9
				c0.1-0.3,0.3-0.5,0.5-0.7c0.2-0.2,0.4-0.3,0.7-0.4c0.3-0.1,0.5-0.1,0.8-0.1c0.3,0,0.6,0,0.8,0.1c0.2,0.1,0.4,0.2,0.6,0.2
				c0.2,0.1,0.3,0.2,0.5,0.3l0.3,0.2c0,0,0,0,0.1,0l0.6-0.5c0,0,0,0,0,0c0,0,0,0,0,0l-0.3-0.3c-0.2-0.1-0.4-0.3-0.6-0.4
				c-0.2-0.1-0.5-0.3-0.8-0.3c-0.3-0.1-0.7-0.1-1.1-0.1C96.3,62.3,95.9,62.4,95.5,62.5L95.5,62.5z"/>
		</g>
		<g id="g103_1_">
			<path id="path105_1_"  d="M101.2,62.4C101.2,62.4,101.1,62.4,101.2,62.4l-0.1,5.9
				c0,0,0,0.1,0.1,0.1h4.4c0,0,0.1,0,0.1-0.1v-0.8c0,0,0-0.1-0.1-0.1c0,0-3.4,0-3.5,0c0-0.1,0-4.9,0-4.9c0,0,0-0.1-0.1-0.1H101.2z"
				/>
		</g>
		<g id="g107">
			<path id="path109_1_"  d="M110.9,62.4C110.9,62.4,110.9,62.4,110.9,62.4l-0.1,3.7
				c0,0.2,0,0.4-0.1,0.6c0,0.2-0.1,0.3-0.3,0.4c-0.1,0.1-0.3,0.2-0.5,0.3c-0.2,0.1-0.5,0.1-0.8,0.1c-0.3,0-0.6,0-0.8-0.1
				c-0.2-0.1-0.4-0.2-0.5-0.3c-0.1-0.1-0.2-0.3-0.3-0.4c-0.1-0.2-0.1-0.4-0.1-0.6v-3.6c0,0,0-0.1-0.1-0.1h-0.8c0,0-0.1,0-0.1,0.1
				v3.6c0,0.3,0,0.6,0.1,0.8c0.1,0.3,0.2,0.5,0.4,0.8c0.2,0.2,0.5,0.4,0.8,0.6c0.3,0.1,0.8,0.2,1.3,0.2c0.5,0,1-0.1,1.3-0.2
				c0.3-0.1,0.6-0.3,0.8-0.6c0.2-0.2,0.3-0.5,0.4-0.8c0.1-0.3,0.1-0.6,0.1-0.8v-3.6c0,0,0-0.1-0.1-0.1H110.9L110.9,62.4z"/>
		</g>
		<g id="g111">
			<path id="path113_1_"  d="M113.8,62.4C113.7,62.4,113.7,62.4,113.8,62.4l-0.1,5.9
				c0,0,0,0.1,0.1,0.1h3.3c0.3,0,0.6,0,0.8-0.1c0.2-0.1,0.5-0.2,0.7-0.3c0.2-0.1,0.3-0.3,0.4-0.5c0.1-0.2,0.2-0.5,0.2-0.8
				c0-0.2,0-0.4-0.1-0.5c-0.1-0.2-0.1-0.3-0.2-0.4c-0.1-0.1-0.2-0.2-0.3-0.3c-0.1-0.1-0.1-0.1-0.2-0.1c0-0.1,0.1-0.1,0.1-0.1
				c0.1-0.1,0.1-0.2,0.2-0.3c0.1-0.1,0.1-0.2,0.1-0.3c0-0.1,0.1-0.3,0.1-0.4c0-0.3-0.1-0.5-0.2-0.7c-0.1-0.2-0.2-0.4-0.4-0.5
				c-0.2-0.1-0.4-0.2-0.6-0.3c-0.2-0.1-0.4-0.1-0.6-0.1L113.8,62.4L113.8,62.4z M117.1,63.3c0.3,0,0.5,0.1,0.6,0.2
				c0.1,0.1,0.2,0.3,0.2,0.5c0,0.2-0.1,0.4-0.2,0.6c-0.1,0.1-0.3,0.2-0.6,0.2c0,0-2.3,0-2.4,0c0-0.1,0-1.4,0-1.5
				C114.8,63.3,117.1,63.3,117.1,63.3z M117.1,65.8c0.2,0,0.4,0,0.5,0.1c0.1,0,0.3,0.1,0.3,0.2c0.1,0.1,0.1,0.1,0.2,0.2
				c0,0.1,0.1,0.2,0.1,0.3c0,0.3-0.1,0.5-0.3,0.6c-0.2,0.1-0.5,0.2-0.8,0.2c0,0-2.3,0-2.4,0c0-0.1,0-1.5,0-1.6
				C114.8,65.8,117.1,65.8,117.1,65.8z"/>
		</g>
	</g>
</g>
</svg>
