<?xml version="1.0" encoding="utf-8"?>
<!-- Generator: Adobe Illustrator 19.2.1, SVG Export Plug-In . SVG Version: 6.00 Build 0)  -->
<svg version="1.1" id="Capa_1" xmlns="http://www.w3.org/2000/svg" xmlns:xlink="http://www.w3.org/1999/xlink" x="0px" y="0px"
	 viewBox="0 0 100 100" style="enable-background:new 0 0 100 100;" xml:space="preserve">
<style type="text/css">
	.st0{fill:url(#path34_4_);}
	.st1{fill:url(#path890_1_);}
	.st2{fill:#FFE500;stroke:#000000;stroke-width:2.098;stroke-miterlimit:3.863;}
	.st3{fill:#DA020E;}
	.st4{fill:#FFE500;}
	.st5{clip-path:url(#SVGID_2_);}
	.st6{fill:none;stroke:#B54005;stroke-width:10;stroke-miterlimit:3.863;}
	.st7{fill:url(#path7506_1_);}
	.st8{fill:url(#path8794_1_);}
	.st9{fill:url(#path15846_1_);}
	.st10{fill:url(#path16274_1_);}
	.st11{fill:url(#path39821_1_);}
	.st12{fill:url(#path39847_1_);}
	.st13{fill:url(#path39878_1_);}
	.st14{fill:url(#path39888_1_);}
	.st15{fill:url(#path41035_1_);}
	.st16{fill:url(#path9646-8_1_);}
	.st17{fill:url(#path41092_1_);}
	.st18{fill:url(#path41094_1_);}
	.st19{fill:none;stroke:#000000;stroke-width:2.098;stroke-miterlimit:3.863;}
	.st20{fill:url(#path41152_1_);}
	.st21{fill:url(#path39854_1_);}
	.st22{fill:url(#path39874_1_);}
	.st23{fill:#9C824A;stroke:#9C824A;stroke-width:0.793;stroke-miterlimit:282;}
	.st24{fill:#023474;stroke:#023474;stroke-width:0.793;stroke-miterlimit:282;}
	.st25{fill:#FFFFFF;stroke:#FFFFFF;stroke-width:0.793;stroke-miterlimit:282;}
	.st26{fill:#EF0107;stroke:#EF0107;stroke-width:0.793;stroke-miterlimit:282;}
	.st27{fill:#DB0007;stroke:#DB0007;stroke-width:0.793;stroke-miterlimit:282;}
	.st28{fill:#FFFFFF;}
	.st29{fill:#9C824A;}
	.st30{fill:#EF0107;stroke:#EF0107;stroke-width:0.3115;stroke-miterlimit:282;}
	.st31{fill:#DB0007;stroke:#DB0007;stroke-width:0.3115;stroke-miterlimit:282;}
	.st32{fill:#DB0007;}
	.st33{fill:#FFFFFF;stroke:#FFFFFF;stroke-width:0.3115;stroke-miterlimit:282;}
	.st34{fill:#FFFFFF;stroke:#FFFFFF;stroke-width:0.554;stroke-miterlimit:3.864;}
	.st35{fill:#231F20;}
	.st36{fill:#00B6F1;stroke:#00B6F1;stroke-width:1.700000e-02;stroke-miterlimit:3.864;}
	.st37{fill:#EF3E2E;}
	.st38{fill:#BBBDBF;}
	.st39{fill:#F0B83D;}
	.st40{fill:#00B6F1;stroke:#FFFFFF;stroke-width:1.700000e-02;stroke-miterlimit:3.864;}
	.st41{fill:#001C58;}
	.st42{fill:#94BEE5;}
	.st43{fill:none;stroke:#7A003C;stroke-width:2.2437;stroke-miterlimit:6;}
	.st44{fill:#7A003C;}
	.st45{fill:#FFE600;}
	.st46{fill:#DBA111;}
	.st47{fill:#034694;}
	.st48{fill:#D1D3D4;}
	.st49{fill:#ED1C24;}
	.st50{fill:#6A7AB5;}
	.st51{fill:none;}
	.st52{fill:#274488;}
	.st53{fill:#004798;stroke:#004798;stroke-width:9.375000e-02;}
	.st54{fill:#FFFFFF;stroke:#FFFFFF;stroke-width:9.375000e-02;}
	.st55{fill:#FABC00;stroke:#FABC00;stroke-width:9.375000e-02;}
	.st56{fill:none;stroke:#FFFFFF;stroke-width:7.865;stroke-miterlimit:3.864;}
	.st57{fill:none;stroke:#FFFFFF;stroke-width:7.865;stroke-miterlimit:12;}
	.st58{fill:none;stroke:#FFFFFF;stroke-width:7.865;stroke-miterlimit:22;}
	.st59{fill:none;stroke:#FFFFFF;stroke-width:7.865;stroke-miterlimit:6;}
	.st60{fill:#00A398;}
	.st61{fill:#D00027;}
	.st62{fill:none;stroke:#FFFFFF;stroke-width:17.3907;stroke-miterlimit:3.864;}
	.st63{fill:none;stroke:#FFFFFF;stroke-width:13.1107;stroke-miterlimit:3.864;}
	.st64{fill:#FEF667;}
	.st65{fill:#D00027;stroke:#D00027;}
	.st66{fill:#5299C6;}
	.st67{fill:#60223B;}
	.st68{fill:#F7C240;}
	.st69{fill:#292D6B;}
	.st70{fill:#1B458F;}
	.st71{fill:#C4122E;}
	.st72{fill:#27409B;}
	.st73{clip-path:url(#SVGID_4_);}
	.st74{fill:#F4F4F4;}
	.st75{fill:#D3D2D2;}
	.st76{fill:#A7A5A6;}
	.st77{fill:#091453;}
	.st78{fill:none;stroke:#FFFFFF;stroke-width:6.6301;}
	.st79{clip-path:url(#SVGID_6_);}
	.st80{fill:#724314;}
	.st81{fill:#240B08;}
	.st82{fill:#018B4B;}
	.st83{fill:#A6181D;}
	.st84{fill:#592D09;}
	.st85{fill:#FFCE65;}
	.st86{fill:#5CBFEB;}
	.st87{fill:none;stroke:#000000;stroke-width:10;}
	.st88{fill:none;stroke:#000000;}
	.st89{fill:#B2B2B2;}
	.st90{fill:none;stroke:#000000;stroke-width:0.3;}
	.st91{fill:#00A650;stroke:#000000;stroke-width:2;}
	.st92{fill:#241F20;stroke:#241F20;stroke-width:9.375000e-02;}
	.st93{fill:#FFF200;stroke:#FFF200;stroke-width:9.375000e-02;}
	.st94{fill:#A68A26;}
	.st95{fill:none;stroke:#A68A26;stroke-width:4.792100e-02;stroke-miterlimit:3.8637;}
	.st96{fill:#211E1E;}
	.st97{fill:none;stroke:#211E1E;stroke-width:4.792100e-02;stroke-miterlimit:3.8637;}
	.st98{fill:#EB172B;}
	.st99{fill:none;stroke:#EB172B;stroke-width:4.792100e-02;stroke-miterlimit:3.8637;}
	.st100{fill:#A68A26;stroke:#A68A26;stroke-width:4.792100e-02;stroke-miterlimit:3.8637;}
	.st101{fill:#D1BF7F;}
	.st102{fill:none;stroke:#D1BF7F;stroke-width:4.792100e-02;stroke-miterlimit:3.8637;}
	.st103{fill:none;stroke:#FFFFFF;stroke-width:4.792100e-02;stroke-miterlimit:3.8637;}
	.st104{fill:#EB172B;stroke:#EB172B;stroke-width:4.792100e-02;stroke-miterlimit:3.8637;}
	.st105{fill:#ED2127;}
	.st106{fill:#FBEE23;}
	.st107{stroke:#000000;}
	.st108{fill:#CF1F44;}
	.st109{fill:#1B449C;}
	.st110{fill:#E03A3E;}
	.st111{fill:#E03A3E;stroke:#E03A3E;stroke-width:0.6565;}
	.st112{fill:none;stroke:#1B449C;stroke-width:0.7493;}
	.st113{fill:none;stroke:#1B449C;stroke-width:0.7567;}
	.st114{fill:#1B449C;stroke:#1B449C;stroke-width:0.6274;}
	.st115{fill:#1B449C;stroke:#1B449C;stroke-width:0.6755;}
	.st116{fill:#2E6ABD;stroke:#2E6ABD;stroke-width:0.617;}
	.st117{fill:#FFFFFF;stroke:#FFFFFF;stroke-width:0.6175;}
	.st118{fill:#ED1248;}
	.st119{fill:#2E6ABD;}
	.st120{fill:#FDE100;}
	.st121{fill:#CC0000;}
	.st122{fill:#211E1F;}
	.st123{fill:#ED1A3B;}
	.st124{fill:#00AEEF;}
	.st125{fill:#FFC40D;}
	.st126{fill:#22B24C;}
	.st127{fill:#FFC20E;}
	.st128{fill:#0A3F86;}
	.st129{fill:#005CA9;}
	.st130{fill:#FFE000;}
	.st131{fill:#E2001A;}
	.st132{opacity:0;}
	.st133{opacity:0;fill:#FFFFFF;}
	.st134{fill:#FFFFFF;stroke:#000000;}
	.st135{fill:#0060A9;}
	.st136{fill:#E32219;}
	.st137{fill:#FFED00;}
	.st138{fill:#1D9053;}
	.st139{fill:#52A600;}
	.st140{fill:#EE2523;}
	.st141{fill:#F7D117;}
	.st142{fill:#171796;}
	.st143{fill:#009959;}
	.st144{fill:#D42E12;}
	.st145{fill:#703824;}
	.st146{fill:#E5254E;}
	.st147{fill:#8AC3EE;}
	.st148{fill:#B19221;}
	.st149{fill:#F5C03E;}
	.st150{fill:#FF1119;}
	.st151{fill:#1E6BC0;}
	.st152{fill:#B4742A;}
	.st153{fill:#371B02;}
	.st154{fill:url(#SVGID_7_);}
	.st155{fill:url(#SVGID_8_);}
	.st156{fill:url(#SVGID_9_);}
	.st157{fill:url(#SVGID_10_);}
	.st158{fill:url(#SVGID_11_);}
	.st159{fill:url(#SVGID_12_);}
	.st160{fill:url(#SVGID_13_);}
	.st161{fill:url(#SVGID_14_);}
	.st162{fill:url(#SVGID_15_);}
	.st163{fill:url(#SVGID_16_);}
	.st164{fill:#EB2626;}
	.st165{fill:#E9C32C;}
	.st166{fill:#D9D9D9;}
	.st167{fill:#009C5E;}
	.st168{fill:#1C75BC;}
	.st169{fill:#611D5C;}
	.st170{fill:#E2B900;}
	.st171{fill:#004B95;}
	.st172{fill:#A4234B;}
	.st173{fill:#DB2F36;}
	.st174{fill:#FFDF00;}
	.st175{fill:#A38D44;}
	.st176{fill:#57175E;}
	.st177{fill:#AFDCFD;}
	.st178{fill:#0090C6;}
	.st179{fill:#DB5232;}
	.st180{fill:#23C1E0;}
	.st181{fill:#F1A92A;}
	.st182{fill:#167FB6;}
	.st183{fill:#FED75D;}
	.st184{fill:#378CBF;}
	.st185{fill:#3E9692;}
	.st186{fill:#E67F29;}
	.st187{fill:#D8B43C;}
	.st188{fill:#EF3B33;}
	.st189{fill:#24923D;}
	.st190{opacity:6.000001e-02;fill:#101010;enable-background:new    ;}
	.st191{fill:#00529F;}
	.st192{fill:#EE324E;}
	.st193{fill:#FEBE10;}
	.st194{fill:#143C8B;}
	.st195{fill:#FFE24A;}
	.st196{fill:#EC1D24;}
	.st197{fill:#E6A514;}
	.st198{fill:#FFDF1C;}
	.st199{fill:#EE3524;}
	.st200{fill:#B23428;}
	.st201{fill:#D18816;}
	.st202{fill:#0097D7;}
	.st203{fill:#ED1C23;}
	.st204{fill:#E30613;}
	.st205{fill:#FFE400;}
	.st206{fill:#C51A1B;}
	.st207{clip-path:url(#SVGID_19_);}
	.st208{clip-path:url(#SVGID_20_);fill:none;stroke:#000000;stroke-width:0.8131;stroke-miterlimit:3.864;}
	.st209{fill:#0093D5;}
	.st210{fill:#004B9D;}
	.st211{fill:#FCC24F;}
	.st212{fill:#009545;}
	.st213{fill:#0072BB;}
	.st214{fill:#C4974E;}
	.st215{fill:url(#path1292_1_);}
	.st216{fill:#004996;}
	.st217{fill:#FFE667;}
	.st218{fill:none;stroke:#005187;stroke-width:0.153;stroke-miterlimit:3.864;}
	.st219{fill:#005187;}
	.st220{clip-path:url(#SVGID_22_);}
	.st221{clip-path:url(#SVGID_24_);fill:none;stroke:#000000;stroke-width:0.296;stroke-miterlimit:3.864;}
	.st222{clip-path:url(#SVGID_26_);fill:#FFE667;}
	.st223{clip-path:url(#SVGID_28_);fill:none;stroke:#000000;stroke-width:8.300000e-02;stroke-miterlimit:3.864;}
	.st224{fill:none;stroke:#000000;stroke-width:0.153;stroke-miterlimit:3.864;}
	.st225{clip-path:url(#SVGID_30_);fill:#E70005;}
	.st226{clip-path:url(#SVGID_32_);fill:none;stroke:#E70005;stroke-width:0.296;stroke-miterlimit:3.864;}
	.st227{clip-path:url(#SVGID_34_);fill:#E70005;}
	.st228{clip-path:url(#SVGID_36_);fill:none;stroke:#E70005;stroke-width:0.296;stroke-miterlimit:3.864;}
	.st229{clip-path:url(#SVGID_38_);fill:#E70005;}
	.st230{clip-path:url(#SVGID_40_);fill:none;stroke:#E70005;stroke-width:0.296;stroke-miterlimit:3.864;}
	.st231{clip-path:url(#SVGID_42_);fill:#E70005;}
	.st232{clip-path:url(#SVGID_44_);fill:none;stroke:#E70005;stroke-width:0.296;stroke-miterlimit:3.864;}
	.st233{fill:#E70005;}
	.st234{fill:none;stroke:#000000;stroke-width:0.141;stroke-miterlimit:3.864;}
	.st235{fill:#00276D;}
	.st236{fill:#C49308;}
	.st237{fill:#179D33;}
	.st238{fill:#999999;}
	.st239{fill:#FF0000;}
	.st240{fill:#E31837;}
	.st241{fill:#06357A;}
	.st242{fill:#B4053F;}
	.st243{fill:#DCA43E;}
	.st244{fill:#005CA5;}
	.st245{fill:#FAC400;}
	.st246{fill:#004083;}
	.st247{fill:#A95932;}
	.st248{fill:none;stroke:#000000;stroke-width:1.2215;}
	.st249{fill:#E62627;}
	.st250{fill:#00458C;}
	.st251{fill:#E11B22;}
	.st252{fill:#00AB4E;}
	.st253{fill:#F47920;}
	.st254{fill:#C7C8CA;}
	.st255{fill:#E11515;}
	.st256{fill:#A4965F;}
	.st257{fill:#E51636;}
	.st258{fill:#EACC00;}
	.st259{fill:#4F846B;}
	.st260{fill:#E22227;}
	.st261{fill:#FAE700;}
	.st262{fill:url(#SVGID_45_);}
	.st263{fill:#666666;}
	.st264{fill:#FFF200;}
	.st265{fill:#00275D;}
	.st266{fill:#EF3E33;}
	.st267{fill:none;stroke:#00275D;stroke-width:2.632;}
	.st268{fill:#3F7652;}
	.st269{fill:#F1D261;}
	.st270{fill:#004D8F;}
	.st271{fill:#E7B137;stroke:#E7B137;stroke-miterlimit:10;}
	.st272{fill:#E7B137;}
	.st273{fill:#162577;}
	.st274{fill:#12692C;}
	.st275{fill:#D8141D;}
	.st276{fill:#AB830D;}
	.st277{fill:#0086CB;}
	.st278{fill:#001F42;}
	.st279{fill:#9A8F4A;}
	.st280{fill:#00559D;}
	.st281{fill:#FDDE00;}
	.st282{fill:#00924C;}
	.st283{fill:#233984;}
	.st284{fill:#FFD42E;}
	.st285{fill:#BA3733;}
	.st286{fill:#46714D;}
	.st287{fill:#221F1F;}
	.st288{fill:#00559E;}
	.st289{fill:#005C46;}
	.st290{fill:#FBC860;}
	.st291{fill:#D57C48;}
	.st292{fill:#040403;}
	.st293{fill:#4AB969;}
	.st294{fill:#8ED8F8;}
	.st295{fill:#FEC34E;}
	.st296{fill:#FFC95B;}
	.st297{fill:#00644C;}
	.st298{fill:#70B865;}
	.st299{fill:#CA6F44;}
	.st300{fill:#A8B8BE;}
	.st301{fill:#1C2C80;}
	.st302{fill:#E10321;}
	.st303{fill:none;stroke:#231F20;stroke-width:0.318;stroke-miterlimit:3.864;}
	.st304{fill:#D71920;}
	.st305{fill:#484749;}
	.st306{fill:#D9DBDC;}
	.st307{fill:#DF725A;}
	.st308{fill:#F2CABA;}
	.st309{fill:#E89C84;}
	.st310{fill:#264F99;}
	.st311{clip-path:url(#SVGID_47_);}
	.st312{fill:#161413;}
	.st313{fill:#ED1B26;}
	.st314{fill:#E60D2E;}
	.st315{fill:#FCD600;}
	.st316{fill:#004D91;}
	.st317{fill:#EAB412;}
	.st318{fill:#FDD31D;}
	.st319{fill:#EFB800;}
</style>
<g>
	<path class="st28" d="M50,100c27.5,0,50-22.5,50-50S77.5,0,50,0S0,22.5,0,50S22.5,100,50,100z"/>
	<path class="st283" d="M50,98.9c26.9,0,48.9-22,48.9-48.9S76.9,1.1,50,1.1S1.1,23,1.1,50S23,98.9,50,98.9z"/>
	<path class="st28" d="M50,97.9c26.4,0,47.9-21.5,47.9-47.9S76.4,2.1,50,2.1S2.1,23.6,2.1,50S23.6,97.9,50,97.9z"/>
	<path class="st283" d="M50,82.7c18.1,0,32.7-14.6,32.7-32.7c0-18.1-14.6-32.7-32.7-32.7S17.3,31.9,17.3,50C17.3,68,32,82.7,50,82.7
		z"/>
	<path class="st28" d="M50,18.9c-1.6,2.1-3.1,4.3-5,6.1c-3,2.9-4.9,5.6-4.9,9.9c0.1,5.3,3.1,8.4,4.8,12.9c0.8,2.3,1.6,6.2,1.9,9.9
		c0.1,0.9-0.2,1.2-0.5,1.3c-0.4,0.1-0.9-0.3-1-1.2c-0.5-3.1-1.6-6.1-3.4-8.8c-3-4.6-8.5-7.8-14-6.4c-3.7,0.9-6.9,3.6-7.3,7.7
		c-0.2,2.3,0.8,4.4,2.9,5.9c1.3,0.9,2.9,1.4,3.8,2.3c0.7,0.7,0.9,1.6,0.9,2.7c1.1-0.2,1.8-0.9,1.9-2.2c0.2-2.5-1.9-5.6,0.4-7.6
		c2.3-2,4.9-1,7,0.8c1.9,1.6,3.4,4,4,5.8c0.1,0.2,0.1,0.4,0.2,0.6c-1.2,0.6-2.3,2.1-2.1,3.4c0.2,1.3,1.3,1.5,2.5,1.4
		c-0.2,1.2-0.8,2.1-1.9,2.6c-2.3,1-4.4-0.2-6.1,2.1c-0.7,1-0.9,2.3-0.7,3.7c1.8-0.8,2-0.5,3.8-0.1c0.9,0.2,2,0.3,3.8-0.4
		c2.2-0.9,4-3.4,4.5-7.3c0.1-0.7,0.4-1,0.8-1s0.6,0.5,0.6,1.3c-0.1,2-0.7,3.8-1.2,5.7c-0.7,2.4-1.2,5-0.1,6.8c1,1.6,2.8,2.8,4.2,4.1
		c1.4-1.2,3.2-2.5,4.2-4.1c1.2-1.8,0.6-4.4-0.1-6.8c-0.5-1.9-1.1-3.7-1.2-5.7c0-0.8,0.3-1.2,0.6-1.3c0.3,0,0.7,0.3,0.8,1
		c0.5,3.9,2.4,6.4,4.5,7.3c1.8,0.7,2.9,0.6,3.8,0.4c1.8-0.4,2-0.7,3.8,0.1c0.2-1.4,0.1-2.7-0.7-3.7c-1.7-2.3-3.8-1.1-6.1-2.1
		c-1.1-0.5-1.6-1.4-1.9-2.6c1.2,0.1,2.3-0.1,2.5-1.4c0.2-1.4-0.9-2.8-2.1-3.4c0.1-0.2,0.1-0.4,0.2-0.6c0.6-1.8,2.1-4.2,4-5.8
		c2.2-1.9,4.8-2.7,7-0.8c2.2,1.9,0.1,5.1,0.4,7.6c0.1,1.3,0.8,2,1.9,2.2c0-1.1,0.2-2,0.9-2.7c1-0.9,2.5-1.4,3.8-2.3
		c2.1-1.5,3.1-3.6,2.9-5.9c-0.3-4.1-3.6-6.9-7.3-7.7c-5.5-1.3-11,1.8-14,6.4c-1.7,2.7-2.9,5.7-3.4,8.8c-0.2,0.9-0.6,1.3-1,1.2
		c-0.3-0.1-0.6-0.3-0.5-1.3c0.4-3.7,1.1-7.6,1.9-9.9c1.7-4.5,4.7-7.6,4.8-12.9c0.1-4.3-1.9-7-4.9-9.9C53.1,23.2,51.6,21,50,18.9z"/>
	<path class="st283" d="M10.6,42.9c1,0,1.7-0.8,1.7-1.7s-0.8-1.7-1.7-1.7s-1.7,0.8-1.7,1.7l0,0C8.9,42.1,9.6,42.9,10.6,42.9z"/>
	<path class="st283" d="M89.4,42.9c1,0,1.7-0.8,1.7-1.7s-0.8-1.7-1.7-1.7c-1,0-1.7,0.8-1.7,1.7l0,0C87.7,42.1,88.4,42.9,89.4,42.9z"
		/>
	<polygon class="st283" points="42.4,15 41.3,7.9 38.9,8.3 38.7,6.5 45.6,5.4 45.8,7.3 43.4,7.6 44.5,14.7 	"/>
	<polygon class="st283" points="50.3,14.3 47.5,5.3 49.7,5.1 51.4,11.2 53.9,5.3 55.9,5.6 52,14.4 	"/>
	<rect x="74.9" y="21.6" transform="matrix(0.7197 -0.6943 0.6943 0.7197 6.5505 61.4478)" class="st283" width="9" height="2.1"/>
	<polygon class="st283" points="78.3,28.1 85.9,23.2 87,24.9 84.5,30.3 88.8,27.6 89.9,29.3 82.3,34.3 81.5,32.6 83.8,27.2 
		79.5,29.9 	"/>
	<path class="st283" d="M21.2,28.7l-6.8-5.9L16,21c1.2-1.4,2.9-2.2,4.6-1c1.3,0.8,2,2.5,1.4,4c-0.3,0.6-0.7,1.2-1.2,1.7l1.7,1.5
		L21.2,28.7L21.2,28.7L21.2,28.7z M18,21.9c-0.2,0.2-0.4,0.4-0.6,0.7l1.8,1.6c0.2-0.2,0.4-0.4,0.6-0.7c0.4-0.5,0.3-1.3-0.2-1.7
		c0,0-0.1,0-0.1-0.1C18.9,21.3,18.4,21.5,18,21.9L18,21.9z"/>
	<path class="st283" d="M13.1,25.9l0.8,1.6c-0.5,0.3-1.2,0.7-1.3,1.3c-0.1,0.3,0,0.6,0.5,0.7c0.6,0.1,2.1-0.8,2.9-1
		c1.3-0.4,2.6,0,3.3,1.3c0.7,1.5-0.3,3.5-1.7,4.2c-0.4,0.2-0.8,0.3-1.2,0.4L16,32.6c0.6-0.1,1.4-0.5,1.6-1.1c0.3-0.9-0.8-1-1.4-0.9
		c-0.9,0.2-2,0.9-2.9,1.1c-1.3,0.2-2.4-0.5-2.6-1.9C10.5,28,11.6,26.6,13.1,25.9z"/>
	<path class="st283" d="M33.5,18.2l-3.7-8.2l2.2-1c1.7-0.8,3.5-0.8,4.6,1c0.6,1.1,0.5,2.3-0.2,3.4l2.8,1.6L38,16.6l-3.2-2
		c-0.2,0.1-0.3,0.2-0.5,0.2l1.1,2.5L33.5,18.2L33.5,18.2L33.5,18.2z M33.3,10.6c-0.3,0.1-0.6,0.2-0.8,0.3l0.8,1.8
		c0.3-0.1,0.6-0.2,0.8-0.4C35.5,11.7,34.8,10.2,33.3,10.6L33.3,10.6z"/>
	<path class="st283" d="M23.2,14c1.6-1.4,4.3-0.9,6,1s1.7,4.7,0.1,6.1s-4.3,0.9-6-1S21.6,15.4,23.2,14L23.2,14z M24.4,15.4
		c-0.7,0.6-0.4,2,0.6,3.2c1,1.2,2.4,1.7,3.1,1.1c0.7-0.6,0.4-2-0.6-3.2C26.4,15.3,25.1,14.8,24.4,15.4L24.4,15.4z"/>
	<polygon class="st283" points="56.4,14.8 58.5,6.1 63.4,7.3 63,9 60.2,8.3 59.8,9.8 62.6,10.5 62.1,12.2 59.3,11.6 58.9,13.4 
		62.2,14.2 61.7,16.1 	"/>
	<path class="st283" d="M63.2,16.6L67,8.4l2.2,1c1.7,0.8,2.9,2.2,2.3,4.2c-0.4,1.2-1.4,1.8-2.6,2.1l0.7,3.2L67.4,19l-0.5-3.7
		c-0.2-0.1-0.4-0.2-0.5-0.2l-1.1,2.4L63.2,16.6L63.2,16.6L63.2,16.6z M68.8,11.6c-0.3-0.2-0.5-0.3-0.8-0.4L67.2,13
		c0.2,0.2,0.5,0.3,0.8,0.4C69.4,14,70.1,12.4,68.8,11.6z"/>
	<polygon class="st283" points="70.1,20.5 75.7,13.4 79.6,16.4 78.5,17.9 76.2,16.1 75.3,17.3 77.5,19 76.4,20.4 74.2,18.7 73,20.2 
		75.7,22.2 74.5,23.8 	"/>
	<path class="st283" d="M9.1,68l8.1-4.1l1.1,2.2c0.9,1.7,0.9,3.5-0.8,4.7c-1,0.6-2.3,0.6-3.4,0l-1.4,2.9l-1.8-1.3l1.9-3.2
		c-0.1-0.2-0.2-0.3-0.3-0.5L10,69.9L9.1,68L9.1,68L9.1,68z M16.6,67.5c-0.1-0.3-0.2-0.6-0.4-0.8l-1.8,0.9c0.1,0.3,0.2,0.5,0.4,0.8
		C15.6,69.8,17.1,68.9,16.6,67.5L16.6,67.5z"/>
	<path class="st283" d="M12.3,52.4l-4.8,0.4c0.1,1.6,0.5,2.3,2.3,2.2S12.4,54.3,12.3,52.4L12.3,52.4L12.3,52.4z M14,50.2
		c0.1,1,0.3,2.1,0.3,3.2c-0.1,1.1-0.6,2.1-1.5,2.7c-0.9,0.6-1.9,0.9-3,0.9c-2,0.1-3.7-0.8-4.2-2.8c-0.1-0.7-0.2-1.4-0.2-2L5.3,51
		L14,50.2z"/>
	<path class="st283" d="M30.2,80.5l-1.7,0.7c-0.3-0.5-0.6-1.3-1.2-1.5c-0.3-0.1-0.6,0-0.7,0.5c-0.2,0.6,0.6,2.2,0.7,3
		c0.2,1.4-0.2,2.6-1.6,3.1c-1.5,0.6-3.5-0.6-4-2.1c-0.1-0.4-0.2-0.8-0.3-1.3l1.9-0.2c0,0.7,0.3,1.4,1,1.7c0.8,0.3,1.1-0.7,1-1.3
		c-0.1-0.9-0.7-2-0.8-3c0-1.3,0.7-2.4,2.1-2.4C28.3,77.7,29.6,79,30.2,80.5z"/>
	<path class="st283" d="M44.9,87.5l-0.6,4.8c1.6,0.2,2.3,0,2.6-1.8C47.3,88.7,46.8,87.7,44.9,87.5L44.9,87.5L44.9,87.5z M43.1,85.3
		c1.1,0,2.1,0.1,3.1,0.4c1.1,0.3,1.9,1,2.4,2c0.4,1,0.5,2.1,0.3,3.1c-0.3,2-1.5,3.5-3.5,3.5c-0.7,0-1.4-0.1-2-0.2
		C43,94.1,42.5,94,42.1,94L43.1,85.3z"/>
	<path class="st283" d="M74.3,78.7c1.3,0,2.3,0.9,3,2c1.3,2.1,1.1,4.5,0.3,6.8l-1.8-0.5c0.4-0.8,0.9-2,0.7-3.3c-1.7,1.8-5,1.1-5.1-2
		C71.3,80,72.6,78.7,74.3,78.7L74.3,78.7L74.3,78.7z M74.3,80.7c-0.5,0-1,0.4-1,1c0,0.5,0.4,0.9,1,1c0.5,0,1-0.4,1-0.9
		c0-0.5-0.4-1-0.9-1C74.3,80.7,74.3,80.7,74.3,80.7L74.3,80.7z"/>
	<polygon class="st283" points="94,57.8 84.8,59.3 85,57.3 91,56.5 85.6,53.6 86.1,51.6 94.3,56.2 	"/>
	<polygon class="st283" points="28.6,89.3 31.8,82.8 30,81.9 30.9,80.3 36.1,83 35.3,84.6 33.7,83.8 30.5,90.2 	"/>
	<path class="st283" d="M7.6,64.4l1.5-1.1l-0.7-2.2H6.7l-0.5-2l9.2,0.3l0.5,1.6l-7.5,5.3L7.6,64.4L7.6,64.4z M10.9,62.1l1.5-1
		l-1.8,0L10.9,62.1z"/>
	<path class="st283" d="M38.2,93.2v-1.9L36,90.6l-1,1.4l-1.9-0.7l5.4-7.5l1.6,0.5l0.2,9.2L38.2,93.2L38.2,93.2L38.2,93.2z
		 M38.2,89.2v-1.8l-1,1.5L38.2,89.2z"/>
	<polygon class="st283" points="52.7,94.6 52,87.5 50,87.7 49.9,85.8 55.8,85.4 55.9,87.2 54.1,87.3 54.7,94.4 	"/>
	<polygon class="st283" points="13.4,75.8 21.1,70.9 22.2,72.4 19.3,76.8 24,74.5 25.3,75.9 19.5,82.6 18,81.2 20.8,78.2 17,80.1 
		15.9,78.7 18.4,74.7 14.5,77.3 	"/>
	<path class="st283" d="M67.5,81c0.7,0,1.3,0.3,1.8,0.7l0,0c0.5,0.5,0.7,1.1,0.7,1.8c0,0.2,0,0.3-0.1,0.5c0.6,0.1,1.2,0.4,1.7,0.9
		c1.2,1.2,1.2,3.1,0,4.3c-1.2,1.2-3.1,1.2-4.3,0c-0.9-0.9-1.1-2.2-0.7-3.3c-0.3-0.1-0.6-0.3-0.9-0.6l0,0c-0.5-0.5-0.7-1.1-0.7-1.8
		C64.9,82.2,66.1,81.1,67.5,81L67.5,81L67.5,81z M67.5,82.8c-0.4,0-0.7,0.3-0.7,0.7c0,0.4,0.3,0.7,0.7,0.7s0.7-0.3,0.7-0.7
		C68.2,83.1,67.9,82.8,67.5,82.8L67.5,82.8z M69.5,85.9c-0.6,0-1.1,0.5-1.1,1.1c0,0.6,0.5,1.1,1.1,1.1s1.1-0.5,1.1-1.1c0,0,0,0,0,0
		C70.6,86.4,70.1,85.9,69.5,85.9C69.5,85.9,69.5,85.9,69.5,85.9L69.5,85.9z"/>
	<path class="st283" d="M77.3,72.9c0.6-0.2,1.3-0.2,1.9,0.1l0,0c0.8,0.3,1.3,1,1.4,1.9c0.6-0.1,1.3,0,1.8,0.2
		c1.5,0.7,2.2,2.5,1.5,4.1c-0.3,0.7-0.9,1.3-1.7,1.6c-1.6,0.6-3.3-0.2-3.9-1.8c-0.1-0.4-0.2-0.7-0.2-1.1c-0.4,0-0.7-0.1-1-0.2l0,0
		c-0.6-0.3-1.1-0.8-1.3-1.4C75.3,74.8,76,73.4,77.3,72.9L77.3,72.9L77.3,72.9z M77.9,74.6c-0.3,0.1-0.5,0.5-0.4,0.9
		c0.1,0.4,0.5,0.5,0.9,0.4c0.4-0.1,0.5-0.5,0.4-0.9C78.6,74.6,78.2,74.4,77.9,74.6C77.9,74.6,77.9,74.6,77.9,74.6L77.9,74.6z
		 M80.9,76.8c-0.6,0.2-0.9,0.9-0.7,1.4c0.2,0.6,0.9,0.9,1.4,0.7c0.6-0.2,0.9-0.9,0.7-1.4c0,0,0,0,0,0C82.1,76.8,81.4,76.6,80.9,76.8
		L80.9,76.8z"/>
	<path class="st283" d="M86,67.2c0.4-0.6,0.5-1.4,0.1-2C85.1,65.6,85.3,66.6,86,67.2L86,67.2z M87.6,67.8c1.3,0,1.5-1,1.2-1.9
		l1.7-0.6c1,3-1.7,5.5-4.8,3.8c-1.8-1.1-2.2-2.6-1.7-3.8c0.5-1.2,1.6-1.7,2.9-1.8C87.8,64.4,88.4,66,87.6,67.8L87.6,67.8z"/>
	<path class="st283" d="M91.1,63.8c0.7,0,1.2-0.5,1.2-1.2c0-0.7-0.5-1.2-1.2-1.2c-0.7,0-1.2,0.5-1.2,1.2
		C89.9,63.3,90.4,63.8,91.1,63.8z"/>
	<path class="st283" d="M93,52.4c0.6,0,1.2-0.5,1.2-1.2c0-0.6-0.5-1.2-1.2-1.2c-0.6,0-1.2,0.5-1.2,1.2C91.9,51.8,92.4,52.4,93,52.4
		C93,52.4,93,52.4,93,52.4z"/>
	
		<rect x="62.4" y="85.2" transform="matrix(0.9396 -0.3422 0.3422 0.9396 -26.5558 27.0626)" class="st283" width="2" height="7.2"/>
</g>
</svg>
