<?xml version="1.0" encoding="utf-8"?>
<!-- Generator: Adobe Illustrator 19.2.1, SVG Export Plug-In . SVG Version: 6.00 Build 0)  -->
<svg version="1.1" id="Capa_1" xmlns="http://www.w3.org/2000/svg" xmlns:xlink="http://www.w3.org/1999/xlink" x="0px" y="0px"
	 viewBox="0 0 100 100" style="enable-background:new 0 0 100 100;" xml:space="preserve">
<style type="text/css">
	.st0{fill:url(#path34_4_);}
	.st1{fill:url(#path890_1_);}
	.st2{fill:#FFE500;stroke:#000000;stroke-width:2.098;stroke-miterlimit:3.863;}
	.st3{fill:#DA020E;}
	.st4{fill:#FFE500;}
	.st5{clip-path:url(#SVGID_2_);}
	.st6{fill:none;stroke:#B54005;stroke-width:10;stroke-miterlimit:3.863;}
	.st7{fill:url(#path7506_1_);}
	.st8{fill:url(#path8794_1_);}
	.st9{fill:url(#path15846_1_);}
	.st10{fill:url(#path16274_1_);}
	.st11{fill:url(#path39821_1_);}
	.st12{fill:url(#path39847_1_);}
	.st13{fill:url(#path39878_1_);}
	.st14{fill:url(#path39888_1_);}
	.st15{fill:url(#path41035_1_);}
	.st16{fill:url(#path9646-8_1_);}
	.st17{fill:url(#path41092_1_);}
	.st18{fill:url(#path41094_1_);}
	.st19{fill:none;stroke:#000000;stroke-width:2.098;stroke-miterlimit:3.863;}
	.st20{fill:url(#path41152_1_);}
	.st21{fill:url(#path39854_1_);}
	.st22{fill:url(#path39874_1_);}
	.st23{fill:#9C824A;stroke:#9C824A;stroke-width:0.793;stroke-miterlimit:282;}
	.st24{fill:#023474;stroke:#023474;stroke-width:0.793;stroke-miterlimit:282;}
	.st25{fill:#FFFFFF;stroke:#FFFFFF;stroke-width:0.793;stroke-miterlimit:282;}
	.st26{fill:#EF0107;stroke:#EF0107;stroke-width:0.793;stroke-miterlimit:282;}
	.st27{fill:#DB0007;stroke:#DB0007;stroke-width:0.793;stroke-miterlimit:282;}
	.st28{fill:#FFFFFF;}
	.st29{fill:#9C824A;}
	.st30{fill:#EF0107;stroke:#EF0107;stroke-width:0.3115;stroke-miterlimit:282;}
	.st31{fill:#DB0007;stroke:#DB0007;stroke-width:0.3115;stroke-miterlimit:282;}
	.st32{fill:#DB0007;}
	.st33{fill:#FFFFFF;stroke:#FFFFFF;stroke-width:0.3115;stroke-miterlimit:282;}
	.st34{fill:#FFFFFF;stroke:#FFFFFF;stroke-width:0.554;stroke-miterlimit:3.864;}
	.st35{fill:#231F20;}
	.st36{fill:#00B6F1;stroke:#00B6F1;stroke-width:1.700000e-02;stroke-miterlimit:3.864;}
	.st37{fill:#EF3E2E;}
	.st38{fill:#BBBDBF;}
	.st39{fill:#F0B83D;}
	.st40{fill:#00B6F1;stroke:#FFFFFF;stroke-width:1.700000e-02;stroke-miterlimit:3.864;}
	.st41{fill:#001C58;}
	.st42{fill:#94BEE5;}
	.st43{fill:none;stroke:#7A003C;stroke-width:2.2437;stroke-miterlimit:6;}
	.st44{fill:#7A003C;}
	.st45{fill:#FFE600;}
	.st46{fill:#DBA111;}
	.st47{fill:#034694;}
	.st48{fill:#D1D3D4;}
	.st49{fill:#ED1C24;}
	.st50{fill:#6A7AB5;}
	.st51{fill:none;}
	.st52{fill:#274488;}
	.st53{fill:#004798;stroke:#004798;stroke-width:9.375000e-02;}
	.st54{fill:#FFFFFF;stroke:#FFFFFF;stroke-width:9.375000e-02;}
	.st55{fill:#FABC00;stroke:#FABC00;stroke-width:9.375000e-02;}
	.st56{fill:none;stroke:#FFFFFF;stroke-width:7.865;stroke-miterlimit:3.864;}
	.st57{fill:none;stroke:#FFFFFF;stroke-width:7.865;stroke-miterlimit:12;}
	.st58{fill:none;stroke:#FFFFFF;stroke-width:7.865;stroke-miterlimit:22;}
	.st59{fill:none;stroke:#FFFFFF;stroke-width:7.865;stroke-miterlimit:6;}
	.st60{fill:#00A398;}
	.st61{fill:#D00027;}
	.st62{fill:none;stroke:#FFFFFF;stroke-width:17.3907;stroke-miterlimit:3.864;}
	.st63{fill:none;stroke:#FFFFFF;stroke-width:13.1107;stroke-miterlimit:3.864;}
	.st64{fill:#FEF667;}
	.st65{fill:#D00027;stroke:#D00027;}
	.st66{fill:#5299C6;}
	.st67{fill:#60223B;}
	.st68{fill:#F7C240;}
	.st69{fill:#292D6B;}
	.st70{fill:#1B458F;}
	.st71{fill:#C4122E;}
	.st72{fill:#27409B;}
	.st73{clip-path:url(#SVGID_4_);}
	.st74{fill:#F4F4F4;}
	.st75{fill:#D3D2D2;}
	.st76{fill:#A7A5A6;}
	.st77{fill:#091453;}
	.st78{fill:none;stroke:#FFFFFF;stroke-width:6.6301;}
	.st79{clip-path:url(#SVGID_6_);}
	.st80{fill:#724314;}
	.st81{fill:#240B08;}
	.st82{fill:#018B4B;}
	.st83{fill:#A6181D;}
	.st84{fill:#592D09;}
	.st85{fill:#FFCE65;}
	.st86{fill:#5CBFEB;}
	.st87{fill:none;stroke:#000000;stroke-width:10;}
	.st88{fill:none;stroke:#000000;}
	.st89{fill:#B2B2B2;}
	.st90{fill:none;stroke:#000000;stroke-width:0.3;}
	.st91{fill:#00A650;stroke:#000000;stroke-width:2;}
	.st92{fill:#241F20;stroke:#241F20;stroke-width:9.375000e-02;}
	.st93{fill:#FFF200;stroke:#FFF200;stroke-width:9.375000e-02;}
	.st94{fill:#A68A26;}
	.st95{fill:none;stroke:#A68A26;stroke-width:4.792100e-02;stroke-miterlimit:3.8637;}
	.st96{fill:#211E1E;}
	.st97{fill:none;stroke:#211E1E;stroke-width:4.792100e-02;stroke-miterlimit:3.8637;}
	.st98{fill:#EB172B;}
	.st99{fill:none;stroke:#EB172B;stroke-width:4.792100e-02;stroke-miterlimit:3.8637;}
	.st100{fill:#A68A26;stroke:#A68A26;stroke-width:4.792100e-02;stroke-miterlimit:3.8637;}
	.st101{fill:#D1BF7F;}
	.st102{fill:none;stroke:#D1BF7F;stroke-width:4.792100e-02;stroke-miterlimit:3.8637;}
	.st103{fill:none;stroke:#FFFFFF;stroke-width:4.792100e-02;stroke-miterlimit:3.8637;}
	.st104{fill:#EB172B;stroke:#EB172B;stroke-width:4.792100e-02;stroke-miterlimit:3.8637;}
	.st105{fill:#ED2127;}
	.st106{fill:#FBEE23;}
	.st107{stroke:#000000;}
	.st108{fill:#CF1F44;}
	.st109{fill:#1B449C;}
	.st110{fill:#E03A3E;}
	.st111{fill:#E03A3E;stroke:#E03A3E;stroke-width:0.6565;}
	.st112{fill:none;stroke:#1B449C;stroke-width:0.7493;}
	.st113{fill:none;stroke:#1B449C;stroke-width:0.7567;}
	.st114{fill:#1B449C;stroke:#1B449C;stroke-width:0.6274;}
	.st115{fill:#1B449C;stroke:#1B449C;stroke-width:0.6755;}
	.st116{fill:#2E6ABD;stroke:#2E6ABD;stroke-width:0.617;}
	.st117{fill:#FFFFFF;stroke:#FFFFFF;stroke-width:0.6175;}
	.st118{fill:#ED1248;}
	.st119{fill:#2E6ABD;}
	.st120{fill:#FDE100;}
	.st121{fill:#CC0000;}
	.st122{fill:#211E1F;}
	.st123{fill:#ED1A3B;}
	.st124{fill:#00AEEF;}
	.st125{fill:#FFC40D;}
	.st126{fill:#22B24C;}
	.st127{fill:#FFC20E;}
	.st128{fill:#0A3F86;}
	.st129{fill:#005CA9;}
	.st130{fill:#FFE000;}
	.st131{fill:#E2001A;}
	.st132{opacity:0;}
	.st133{opacity:0;fill:#FFFFFF;}
	.st134{fill:#FFFFFF;stroke:#000000;}
	.st135{fill:#0060A9;}
	.st136{fill:#E32219;}
	.st137{fill:#FFED00;}
	.st138{fill:#1D9053;}
	.st139{fill:#52A600;}
	.st140{fill:#EE2523;}
	.st141{fill:#F7D117;}
	.st142{fill:#171796;}
	.st143{fill:#009959;}
	.st144{fill:#D42E12;}
	.st145{fill:#703824;}
	.st146{fill:#E5254E;}
	.st147{fill:#8AC3EE;}
	.st148{fill:#B19221;}
	.st149{fill:#F5C03E;}
	.st150{fill:#FF1119;}
	.st151{fill:#1E6BC0;}
	.st152{fill:#B4742A;}
	.st153{fill:#371B02;}
	.st154{fill:url(#SVGID_7_);}
	.st155{fill:url(#SVGID_8_);}
	.st156{fill:url(#SVGID_9_);}
	.st157{fill:url(#SVGID_10_);}
	.st158{fill:url(#SVGID_11_);}
	.st159{fill:url(#SVGID_12_);}
	.st160{fill:url(#SVGID_13_);}
	.st161{fill:url(#SVGID_14_);}
	.st162{fill:url(#SVGID_15_);}
	.st163{fill:url(#SVGID_16_);}
	.st164{fill:#EB2626;}
	.st165{fill:#E9C32C;}
	.st166{fill:#D9D9D9;}
	.st167{fill:#009C5E;}
	.st168{fill:#1C75BC;}
	.st169{fill:#611D5C;}
	.st170{fill:#E2B900;}
	.st171{fill:#004B95;}
	.st172{fill:#A4234B;}
	.st173{fill:#DB2F36;}
	.st174{fill:#FFDF00;}
	.st175{fill:#A38D44;}
	.st176{fill:#57175E;}
	.st177{fill:#AFDCFD;}
	.st178{fill:#0090C6;}
	.st179{fill:#DB5232;}
	.st180{fill:#23C1E0;}
	.st181{fill:#F1A92A;}
	.st182{fill:#167FB6;}
	.st183{fill:#FED75D;}
	.st184{fill:#378CBF;}
	.st185{fill:#3E9692;}
	.st186{fill:#E67F29;}
	.st187{fill:#D8B43C;}
	.st188{fill:#EF3B33;}
	.st189{fill:#24923D;}
	.st190{opacity:6.000001e-02;fill:#101010;enable-background:new    ;}
	.st191{fill:#00529F;}
	.st192{fill:#EE324E;}
	.st193{fill:#FEBE10;}
	.st194{fill:#143C8B;}
	.st195{fill:#FFE24A;}
	.st196{fill:#EC1D24;}
	.st197{fill:#E6A514;}
	.st198{fill:#FFDF1C;}
	.st199{fill:#EE3524;}
	.st200{fill:#B23428;}
	.st201{fill:#D18816;}
	.st202{fill:#0097D7;}
	.st203{fill:#ED1C23;}
	.st204{fill:#E30613;}
	.st205{fill:#FFE400;}
	.st206{fill:#C51A1B;}
	.st207{clip-path:url(#SVGID_19_);}
	.st208{clip-path:url(#SVGID_20_);fill:none;stroke:#000000;stroke-width:0.8131;stroke-miterlimit:3.864;}
	.st209{fill:#0093D5;}
	.st210{fill:#004B9D;}
	.st211{fill:#FCC24F;}
	.st212{fill:#009545;}
	.st213{fill:#0072BB;}
	.st214{fill:#C4974E;}
	.st215{fill:url(#path1292_1_);}
	.st216{fill:#004996;}
	.st217{fill:#FFE667;}
	.st218{fill:none;stroke:#005187;stroke-width:0.153;stroke-miterlimit:3.864;}
	.st219{fill:#005187;}
	.st220{clip-path:url(#SVGID_22_);}
	.st221{clip-path:url(#SVGID_24_);fill:none;stroke:#000000;stroke-width:0.296;stroke-miterlimit:3.864;}
	.st222{clip-path:url(#SVGID_26_);fill:#FFE667;}
	.st223{clip-path:url(#SVGID_28_);fill:none;stroke:#000000;stroke-width:8.300000e-02;stroke-miterlimit:3.864;}
	.st224{fill:none;stroke:#000000;stroke-width:0.153;stroke-miterlimit:3.864;}
	.st225{clip-path:url(#SVGID_30_);fill:#E70005;}
	.st226{clip-path:url(#SVGID_32_);fill:none;stroke:#E70005;stroke-width:0.296;stroke-miterlimit:3.864;}
	.st227{clip-path:url(#SVGID_34_);fill:#E70005;}
	.st228{clip-path:url(#SVGID_36_);fill:none;stroke:#E70005;stroke-width:0.296;stroke-miterlimit:3.864;}
	.st229{clip-path:url(#SVGID_38_);fill:#E70005;}
	.st230{clip-path:url(#SVGID_40_);fill:none;stroke:#E70005;stroke-width:0.296;stroke-miterlimit:3.864;}
	.st231{clip-path:url(#SVGID_42_);fill:#E70005;}
	.st232{clip-path:url(#SVGID_44_);fill:none;stroke:#E70005;stroke-width:0.296;stroke-miterlimit:3.864;}
	.st233{fill:#E70005;}
	.st234{fill:none;stroke:#000000;stroke-width:0.141;stroke-miterlimit:3.864;}
	.st235{fill:#00276D;}
	.st236{fill:#C49308;}
	.st237{fill:#179D33;}
	.st238{fill:#999999;}
	.st239{fill:#FF0000;}
	.st240{fill:#E31837;}
	.st241{fill:#06357A;}
	.st242{fill:#B4053F;}
	.st243{fill:#DCA43E;}
	.st244{fill:#005CA5;}
	.st245{fill:#FAC400;}
	.st246{fill:#004083;}
	.st247{fill:#A95932;}
	.st248{fill:none;stroke:#000000;stroke-width:1.2215;}
	.st249{fill:#E62627;}
	.st250{fill:#00458C;}
	.st251{fill:#E11B22;}
	.st252{fill:#00AB4E;}
	.st253{fill:#F47920;}
	.st254{fill:#C7C8CA;}
	.st255{fill:#E11515;}
	.st256{fill:#A4965F;}
	.st257{fill:#E51636;}
	.st258{fill:#EACC00;}
	.st259{fill:#4F846B;}
	.st260{fill:#E22227;}
	.st261{fill:#FAE700;}
	.st262{fill:url(#SVGID_45_);}
	.st263{fill:#666666;}
	.st264{fill:#FFF200;}
	.st265{fill:#00275D;}
	.st266{fill:#EF3E33;}
	.st267{fill:none;stroke:#00275D;stroke-width:2.632;}
	.st268{fill:#3F7652;}
	.st269{fill:#F1D261;}
	.st270{fill:#004D8F;}
	.st271{fill:#E7B137;stroke:#E7B137;stroke-miterlimit:10;}
	.st272{fill:#E7B137;}
	.st273{fill:#162577;}
	.st274{fill:#12692C;}
	.st275{fill:#D8141D;}
	.st276{fill:#AB830D;}
	.st277{fill:#0086CB;}
	.st278{fill:#001F42;}
	.st279{fill:#9A8F4A;}
	.st280{fill:#00559D;}
	.st281{fill:#FDDE00;}
	.st282{fill:#00924C;}
	.st283{fill:#233984;}
	.st284{fill:#FFD42E;}
	.st285{fill:#BA3733;}
	.st286{fill:#46714D;}
	.st287{fill:#221F1F;}
	.st288{fill:#00559E;}
	.st289{fill:#005C46;}
	.st290{fill:#FBC860;}
	.st291{fill:#D57C48;}
	.st292{fill:#040403;}
	.st293{fill:#4AB969;}
	.st294{fill:#8ED8F8;}
	.st295{fill:#FEC34E;}
	.st296{fill:#FFC95B;}
	.st297{fill:#00644C;}
	.st298{fill:#70B865;}
	.st299{fill:#CA6F44;}
	.st300{fill:#A8B8BE;}
	.st301{fill:#1C2C80;}
	.st302{fill:#E10321;}
	.st303{fill:none;stroke:#231F20;stroke-width:0.318;stroke-miterlimit:3.864;}
	.st304{fill:#D71920;}
	.st305{fill:#484749;}
	.st306{fill:#D9DBDC;}
	.st307{fill:#DF725A;}
	.st308{fill:#F2CABA;}
	.st309{fill:#E89C84;}
	.st310{fill:#264F99;}
	.st311{clip-path:url(#SVGID_47_);}
	.st312{fill:#161413;}
	.st313{fill:#ED1B26;}
	.st314{fill:#E60D2E;}
	.st315{fill:#FCD600;}
	.st316{fill:#004D91;}
	.st317{fill:#EAB412;}
	.st318{fill:#FDD31D;}
	.st319{fill:#EFB800;}
</style>
<g>
	<path id="path26_2_"  class="st146" d="M51.6,49.4c0.5-0.1,1,0,1.4,0c-0.6,1.8-0.4,3.8,0.7,5.3
		c0.9,1.3,2.3,2,3.7,2.5c-1.1,6.2-2.2,12.4-3.2,18.7c-1.4,8.1-2.8,16.1-4.2,24.2c-0.1-0.5-0.2-1-0.3-1.5C47.4,84.8,45,71,42.6,57.2
		c1.3-0.4,2.6-1.1,3.5-2.2c1.1-1.3,1.5-3.2,1.2-4.8c0.5-0.2,1.1-0.3,1.6-0.3c0.3,0,0.7,0.1,1,0.1C50.5,49.8,51,49.5,51.6,49.4z"/>
	<g id="g3_3_" transform="translate(-476.59782,-104.425)">
		<path id="path5_3_"  class="st146" d="M526.7,125.1l-2.3,0c0-4.1-0.2-9.1-0.9-9.4
			c-0.9-0.4-1.9,0.2-1.2,1.5c0.8,1.5,0.3,2.6-1.2,2.8c-1.2,0.1-2.9-0.1-3.8-3.1c-1-3.5,1.3-4.4,5.1-8c3.4-3.2,4.3-4.6,4.3-4.6
			s0.9,1.4,4.3,4.6c3.8,3.6,6.1,4.5,5.1,8c-0.8,2.9-2.5,3.2-3.8,3.1c-1.5-0.2-1.9-1.2-1.2-2.8c0.7-1.4-0.3-1.9-1.2-1.5
			c-0.8,0.3-0.9,5.3-0.9,9.4L526.7,125.1L526.7,125.1z"/>
		<path id="path7_4_"  class="st146" d="M501.4,137.7c-0.5-0.4-0.9-1.1-1.3-1.5
			c-0.5-0.5-1.1-0.9-1.8-0.9c0.7,0,1.3-0.4,1.8-0.9c0.4-0.4,0.7-1.1,1.3-1.5c0.3-0.3,0.8-0.5,1.3-0.5c0.8,0,1.5,0.5,1.8,1.2
			c0.4,0,1.6,0,2.3-0.1c0.8-0.1,1.4-0.1,0.5-0.8l-0.5-0.4c-0.6-0.4-1.2-1-1.5-1.7c0-0.1-0.1-0.2-0.1-0.3c-0.1-0.1-0.1-0.3-0.1-0.5
			c0-0.2-0.1-0.5-0.1-0.7c0-2,1.5-3.6,3.5-3.7c0.2,0,0.5,0,0.7,0c0.1,0,0.2,0,0.3,0.1c0.4,0.1,0.7,0.2,1.1,0.5l0.1,0.1
			c1.8,1.2,2.7,3.5,2.7,3.5s-0.4-0.2-2.4-0.6c-1.4-0.3-2.3,0.4-2.1,1.8c0.3,2.1,3.1,2.6,3.1,2.6h4.8v3.9h-4.8c0,0-2.8,0.5-3.1,2.6
			c-0.2,1.4,0.7,2.1,2.1,1.8c1.9-0.4,2.4-0.6,2.4-0.6s-0.9,2.3-2.7,3.5l-0.1,0.1c-0.4,0.2-0.8,0.4-1.1,0.5c-0.1,0-0.2,0-0.3,0.1
			c-0.3,0-0.5,0.1-0.7,0c-1.9-0.1-3.5-1.7-3.5-3.7c0-0.3,0-0.5,0.1-0.7c0-0.2,0.1-0.3,0.1-0.5c0-0.1,0.1-0.2,0.1-0.3
			c0.3-0.7,0.8-1.3,1.5-1.7l0.5-0.4c1-0.7,0.4-0.7-0.5-0.8c-0.7,0-1.9-0.1-2.3-0.1c-0.3,0.7-1,1.2-1.8,1.2
			C502.1,138.2,501.7,138,501.4,137.7L501.4,137.7z"/>
		<path id="path9_6_"  class="st146" d="M551.8,137.7c0.5-0.4,0.9-1.1,1.3-1.5
			c0.5-0.5,1.1-0.9,1.8-0.9c-0.7,0-1.3-0.4-1.8-0.9c-0.4-0.4-0.7-1.1-1.3-1.5c-0.3-0.3-0.8-0.5-1.3-0.5c-0.8,0-1.5,0.5-1.8,1.2
			c-0.4,0-1.6,0-2.3-0.1c-0.8-0.1-1.4-0.1-0.5-0.8l0.5-0.4c0.6-0.4,1.2-1,1.5-1.7c0-0.1,0.1-0.2,0.1-0.3c0.1-0.1,0.1-0.3,0.1-0.5
			c0-0.2,0.1-0.5,0.1-0.7c0-2-1.5-3.6-3.5-3.7c-0.2,0-0.5,0-0.7,0c-0.1,0-0.2,0-0.3,0.1c-0.4,0.1-0.7,0.2-1.1,0.5l-0.1,0.1
			c-1.8,1.2-2.7,3.5-2.7,3.5s0.4-0.2,2.4-0.6c1.4-0.3,2.3,0.4,2.1,1.8c-0.3,2.1-3.1,2.6-3.1,2.6h-4.8l0,3.9l4.8,0
			c0,0,2.8,0.5,3.1,2.6c0.2,1.4-0.7,2.1-2.1,1.8c-1.9-0.4-2.4-0.6-2.4-0.6s0.9,2.3,2.7,3.5l0.1,0.1c0.4,0.2,0.8,0.4,1.1,0.5
			c0.1,0,0.2,0,0.3,0.1c0.3,0,0.5,0.1,0.7,0c1.9-0.1,3.5-1.7,3.5-3.7c0-0.3,0-0.5-0.1-0.7c0-0.2-0.1-0.3-0.1-0.5
			c0-0.1-0.1-0.2-0.1-0.3c-0.3-0.7-0.8-1.3-1.5-1.7l-0.5-0.4c-1-0.7-0.4-0.7,0.5-0.8c0.7,0,1.9-0.1,2.3-0.1c0.3,0.7,1,1.2,1.8,1.2
			C551,138.2,551.5,138,551.8,137.7L551.8,137.7z"/>
		<path id="path11_5_"  class="st28" d="M533.7,153.4c-1.9,2.3-4.3,3.8-6.8,5.2l-0.3,0.2l-0.3-0.2
			c-2.5-1.3-4.9-2.9-6.8-5.2c-4.5-5.6-6.9-13.8-6.8-21.1h27.8C540.6,139.6,538.1,148,533.7,153.4L533.7,153.4z"/>
		<path id="path13_4_"  class="st147" d="M539.8,130.7c0.6,7.4-1.9,16.6-6.6,22.3
			c-1.8,2.2-4.1,3.7-6.6,5c-2.5-1.3-4.8-2.8-6.6-5c-4.8-5.8-7.1-14.8-6.6-22.3L539.8,130.7L539.8,130.7z"/>
		<path id="path15_4_"  class="st28" d="M518,135.4c0.2,2.5,0.7,5.6,2.1,8.9
			c2.1,4.9,4.4,7.2,7.3,9.6c-0.5,0.5-1,1-1.2,1.2c-2.8-2.3-5.1-4.9-7.3-9.6c-2.4-5.2-2.6-9.5-2.7-11.9h20v1.7L518,135.4z"/>
		<path id="path17_4_"  class="st28" d="M536.3,137.5l-15.7,0c0.3,1.9,0.8,4,1.7,6.1
			c2.1,4.9,3.4,6,6.8,8.6c0.4-0.4,0.8-0.8,1.1-1.1c-3.5-2.6-4.5-3.5-6.4-8.4c-0.5-1.2-1-3.5-1-3.5h13.6V137.5z"/>
		<path id="path19_2_"  class="st148" d="M533.9,128.6c-3.8-1.5-4.4-1.9-7.2-1.9
			c-3.5,0-3.8,0.4-7.2,1.9c-0.3-0.2-0.8-0.6-1.1-0.9c0-0.3,0.1-0.6,0.2-1c0.6-1.1,1.9-2,3-2.1c1.2-1,3.3-1.6,4.7-1.3
			c0.1,0,0.2,0.1,0.3,0.1c0.1,0,0.2-0.1,0.3-0.1c1.5-0.3,3.5,0.3,4.7,1.3c1.1,0.1,2.4,1,3,2.1c0.2,0.4,0.3,0.7,0.2,1
			C534.7,128,534.2,128.4,533.9,128.6z"/>
		<path id="path21_5_"  class="st148" d="M526.6,120.8c3.7-1.7,5.5-0.3,5.9,1.6
			c4.5-1.1,4.1,5.8,1.4,6.9l-0.4,0.8c-2.3-0.4-3.9-0.7-6.8-0.7c-2.1,0-5.2,0.1-7,0.4l-0.2-0.5c-2.8-1-3.2-8,1.3-6.9
			C521.1,120.5,522.9,119.1,526.6,120.8L526.6,120.8z M519.7,127.5c1.8,0.1,1.7-1.2,1.5-2.2c-0.1-0.7-0.5-1-0.5-2.1
			c-1.2-1-2.5,0.9-2.6,2.1C517.9,127.5,519.6,127.5,519.7,127.5z M526.1,121.3c-6.1-2.8-4.9,6.3-0.5,4.2c0.3-0.1,0.2-0.4,0.2-0.7
			C525.5,123.7,525.7,122.3,526.1,121.3z M527.2,121.3c0.4,1,0.5,2.4,0.3,3.5c0,0.3-0.1,0.5,0.2,0.7
			C532.1,127.6,533.3,118.5,527.2,121.3z M533.6,127.5c0.1,0,1.8,0,1.6-2.3c-0.1-1.3-1.4-3.1-2.6-2.1c0,1.1-0.4,1.4-0.5,2.1
			C531.9,126.3,531.8,127.6,533.6,127.5L533.6,127.5z M526.6,120.8L526.6,120.8L526.6,120.8z"/>
		<path id="path23_3_"  class="st148" d="M534,129.6l-1,1.7c0,0,0,0.1,0,0.1v0c0,0,0,0.1-0.1,0.1
			c0,0-0.1,0.1-0.1,0.1l0,0c0,0-0.1,0-0.2-0.1c-0.4-0.2-0.7-0.3-1.1-0.5c-0.5-0.2-1-0.4-1.4-0.5c-0.5-0.1-1-0.2-1.4-0.3
			c-0.5-0.1-1-0.1-1.4-0.1c-0.3,0-0.5,0-0.7,0c-0.2,0-0.4,0-0.7,0c-0.4,0-0.9,0-1.4,0.1c-0.4,0.1-0.9,0.2-1.4,0.3
			c-0.4,0.1-0.9,0.3-1.4,0.5c-0.3,0.1-0.7,0.3-1.1,0.5c-0.1,0-0.1,0.1-0.2,0.1h0c0,0-0.1,0-0.1-0.1c-0.1-0.1-0.1-0.2,0-0.2l-1-1.7
			C523.2,126.8,530.1,126.8,534,129.6z"/>
		<path id="path25_4_"  class="st148" d="M526.1,118.2C526.1,118.2,526.1,118.2,526.1,118.2l1.1,0
			l-0.2,0.7l0.5-0.2v1.1l-0.5-0.2l0.2,0.9l-1.1,0l0.2-0.9l-0.5,0.2v-1.1l0.5,0.2C526.3,118.9,526.1,118.2,526.1,118.2z"/>
		<path id="path27_5_"  class="st28" d="M528.7,126c-0.1-0.1-0.1-0.2-0.1-0.3c0-0.1,0-0.3,0.1-0.4
			c0,0,0.1-0.1,0.1-0.1c0,0,0.1,0,0.1-0.1c0,0,0.1,0,0.1,0c0,0,0.1,0,0.1,0c0,0,0.1,0,0.1,0.1c0,0,0.1,0.1,0.1,0.1
			c0.1,0.1,0.1,0.2,0.1,0.3v0l0,0c0,0.1,0,0.2-0.1,0.3c0,0-0.1,0.1-0.1,0.1c0,0-0.1,0.1-0.1,0.1c0,0,0,0-0.1,0
			c0.1,0.7,1,1.3,1.7,0.9c0.2-0.1,0.3-0.2,0.4-0.4c-0.1-0.1-0.1-0.1-0.1-0.2l-0.1,0c0,0,0,0-0.1,0l-0.1,0c0,0-0.1,0-0.2,0.1
			c0,0,0,0,0,0c0,0-0.1,0.1-0.1,0.1c0,0-0.1,0-0.1,0.1c0,0,0,0-0.1,0c0,0,0,0.1-0.1,0.1c0,0-0.1,0-0.1,0c0,0,0,0-0.1,0
			c-0.1,0-0.2-0.2-0.1-0.3c0-0.1,0-0.1,0.1-0.2c0,0,0,0,0-0.1c0,0,0,0,0-0.1c0-0.1,0-0.1,0-0.1c0-0.2,0-0.3,0-0.4
			c0-0.1,0-0.1,0.1-0.1c0-0.1,0.1-0.1,0.1-0.1c0.1-0.1,0.1-0.1,0.2-0.1c0,0,0.1,0,0.1-0.1c0-0.2,0-0.3,0.1-0.3c0,0,0,0,0,0
			c0,0,0.1,0,0.1,0c0.1,0,0.1,0.1,0.1,0.3c0,0,0,0.1,0,0.1c0,0.1,0,0.2,0.1,0.3c0,0,0,0.1,0.1,0.1c0,0.1,0.1,0.1,0.1,0.2
			c0.1-0.1,0.2-0.2,0.3-0.2l0-0.1c-0.1-0.1-0.2-0.2-0.2-0.3c0-0.1-0.1-0.2-0.1-0.3c0,0-0.1-0.1-0.1-0.2c0-0.1,0-0.2,0-0.2
			c0.1,0,0.1,0,0.3,0c0.1,0.1,0,0.1,0.1,0.1c0.1,0.1,0.1,0,0.2,0c0.1,0,0.1,0,0.2,0c0.1,0,0.1,0,0.1,0s0.1,0,0.2,0.1
			c0.1,0.1,0.1,0.1,0.1,0.2c0,0.1,0,0.2,0.1,0.2c0.1,0,0.1,0,0.2,0c0.1,0,0.2,0.1,0.3,0.2c0,0,0,0.1-0.1,0.2c0,0,0,0-0.2,0
			c-0.1,0-0.2,0.1-0.3,0.1c-0.1,0.1-0.2,0.1-0.4,0.1l-0.1,0c0.1,0.1,0.2,0.2,0.2,0.3c0.1,0,0.2-0.1,0.3-0.2c0.1-0.1,0.2-0.2,0.3-0.2
			c0,0,0.1,0,0.2,0c0.1,0,0.2,0.1,0.1,0.3c0,0.1,0,0.1-0.1,0.1c-0.1,0.1,0,0.2,0,0.2c0,0.3,0,0.4-0.1,0.5c-0.1,0.2-0.3,0.2-0.3,0.3
			c0,0.3-0.1,0.4-0.1,0.4c0,0-0.2,0-0.2-0.3c0-0.1,0-0.3,0-0.5c0-0.1-0.1-0.1-0.1-0.3c-0.1,0.1-0.2,0.1-0.3,0.1
			c0,0.9,0.7,1.3,1.4,1.2c0.2,0,0.3-0.1,0.5-0.2c0-0.1-0.1-0.1-0.1-0.2c0-0.2,0.2-0.4,0.4-0.4c0.2,0,0.4,0.2,0.4,0.4
			c0,0.2-0.2,0.4-0.4,0.4c0,0-0.1,0-0.1,0c-0.1,0.8,0.5,1.3,1.2,0.9c0-0.1-0.1-0.1-0.1-0.2c-0.1,0-0.5,0.2-0.5,0.2
			c-0.1,0-0.1-0.1-0.1-0.1c0-0.1,0-0.1,0.1-0.2c0-0.1,0-0.2,0.1-0.3c0-0.1,0.1-0.1,0.2-0.2c0.1-0.1,0.1,0,0.1-0.1
			c0,0,0.1-0.1,0.1-0.2c0-0.1,0-0.1,0-0.1s0.1,0,0.1,0c0,0.1,0,0.1,0,0.2c0,0.1,0,0.3,0,0.4c0,0,0.1,0,0.2,0l0,0c0-0.1,0-0.3,0-0.4
			c0-0.2,0-0.1,0-0.2c0-0.1,0.1,0,0.2,0c0,0.1,0.2,0.3,0.3,0.3c0.1,0,0.1,0,0.2,0c0.1,0.1,0.3,0.3,0.3,0.4c0,0.1,0,0.1,0,0.1
			c0,0.1-0.3,0-0.5,0c-0.1,0-0.2,0-0.2,0c0,0-0.1,0.1-0.2,0.2c-0.1,0.1-0.2,0.2-0.2,0.2c0,0,0,0,0,0c-0.2,0.2-0.4,0.4-0.8,0.4
			l-0.1,0c-0.1,0-0.3,0-0.4-0.1c-0.4-0.2-0.4-0.9-0.4-1c-0.1,0.1-0.3,0.2-0.4,0.2c-0.3,0.1-0.7,0-1-0.1c-0.5-0.2-0.6-1-0.6-1.2
			c0,0.1-0.2,0.2-0.5,0.4c-0.3,0.1-0.7,0.2-1,0.1c-0.5-0.2-0.7-0.5-1-0.9c0,0.1-0.1,0.1-0.2,0.2c-0.2,0.2-0.6,0.4-1,0.4
			c-0.6-0.1-1-0.6-1.1-0.8c-0.1,0.2-0.5,0.7-1.1,0.8c-0.4,0-0.8-0.2-1.1-0.4c-0.1-0.1-0.1-0.1-0.2-0.2c-0.2,0.4-0.4,0.7-1,0.9
			c-0.3,0.1-0.7,0-1-0.1c-0.3-0.1-0.4-0.3-0.5-0.4c0,0.2-0.1,1-0.6,1.2c-0.3,0.1-0.7,0.2-1,0.1c-0.2,0-0.3-0.1-0.4-0.2
			c0,0.1,0.1,0.8-0.3,1c-0.1,0.1-0.3,0.1-0.4,0.1H519c-0.3,0-0.6-0.2-0.8-0.4c0,0,0,0,0,0c0,0,0-0.1-0.2-0.2
			c-0.1-0.1-0.2-0.2-0.2-0.2c-0.1,0-0.1-0.1-0.2-0.1c-0.2-0.1-0.4,0-0.5,0c0-0.1,0,0,0-0.1s0.2-0.3,0.3-0.4c0.1-0.1,0.1,0,0.2,0
			c0.1,0,0.2-0.2,0.3-0.3c0-0.1,0.1-0.1,0.2,0c0,0.1,0,0,0,0.2c0,0.1,0,0.3,0,0.4l0,0c0.1,0,0.1,0,0.2,0c0-0.1,0-0.3,0-0.4
			c0-0.1,0-0.1,0-0.2c0-0.1,0.1,0,0.1,0s0,0,0,0.1c0,0.1,0,0.1,0.1,0.2c0,0.1,0,0,0.1,0.1c0.1,0.1,0.1,0.1,0.2,0.2
			c0,0.1,0,0.3,0.1,0.3c0,0.1,0.1,0.1,0.1,0.2c0,0.1,0,0.1-0.1,0.1c-0.1,0-0.4-0.1-0.5-0.2c0,0.1,0,0.1-0.1,0.2
			c0.7,0.4,1.3-0.1,1.2-0.9c0,0-0.1,0-0.1,0c-0.2,0-0.4-0.2-0.4-0.4c0-0.2,0.2-0.4,0.4-0.4c0.2,0,0.4,0.2,0.4,0.4
			c0,0.1,0,0.2-0.1,0.2c0.2,0.1,0.3,0.2,0.5,0.2c0.7,0.1,1.4-0.3,1.4-1.2c-0.1,0-0.2,0-0.3-0.1c0,0.2-0.1,0.2-0.1,0.3
			c0,0.1,0,0.3,0,0.5c0,0.3-0.2,0.3-0.2,0.3c-0.1,0-0.2-0.2-0.1-0.4c0-0.1-0.2-0.2-0.3-0.3c-0.1-0.1-0.1-0.2-0.1-0.5
			c0-0.1,0.1-0.2,0-0.2c-0.1-0.1-0.1,0-0.1-0.1c-0.1-0.1,0-0.3,0.1-0.3c0.1,0,0.2,0,0.2,0c0.1,0.1,0.2,0.2,0.3,0.2
			c0.1,0.1,0.2,0.1,0.3,0.2c0-0.2,0.1-0.3,0.2-0.3l-0.1,0c-0.2,0-0.3-0.1-0.4-0.1c-0.1-0.1-0.1-0.1-0.3-0.1c-0.1,0-0.1,0-0.2,0
			c0,0-0.1-0.1-0.1-0.2c0-0.1,0.1-0.1,0.2-0.2c0.1,0,0.1,0,0.2,0c0.1,0,0.1-0.1,0.1-0.2c0-0.1,0-0.1,0.1-0.2
			c0.1-0.1,0.2-0.1,0.2-0.1s0,0,0.1,0c0.1,0,0.2,0,0.2,0c0.1,0,0.1,0.1,0.2,0c0.1-0.1,0-0.1,0.1-0.1c0.1-0.1,0.2-0.1,0.3,0
			c0,0,0.1,0.1,0,0.2c0,0.1-0.1,0.2-0.1,0.2c0,0.2-0.1,0.2-0.1,0.3c0,0.1-0.1,0.2-0.2,0.3l-0.1,0.1c0.2,0,0.3,0.1,0.4,0.2
			c0.1-0.1,0.2-0.2,0.2-0.3c0.1-0.1,0.1-0.3,0.1-0.4c0-0.3,0.2-0.3,0.3-0.3c0,0,0.1,0.1,0.1,0.4c0,0.1,0.2,0.1,0.3,0.3
			c0.1,0.1,0.2,0.2,0.1,0.5c0,0.1-0.1,0.2,0,0.3c0.1,0.1,0.1,0.1,0.1,0.2c0.1,0.1,0,0.3-0.2,0.3c-0.1,0-0.1-0.1-0.2-0.1
			c-0.2-0.1-0.2-0.1-0.3-0.2c-0.1-0.1-0.2-0.1-0.3-0.1c-0.1,0-0.1,0-0.1,0c0,0.1-0.1,0.1-0.1,0.2c0.1,0.2,0.3,0.3,0.4,0.4
			c0.8,0.4,1.7-0.2,1.7-0.9c-0.3,0-0.5-0.3-0.5-0.5c0-0.3,0.2-0.5,0.5-0.5c0.3,0,0.5,0.2,0.5,0.5c0,0.2-0.1,0.4-0.3,0.5
			c0,0.1,0.1,0.1,0.1,0.2c0.2,0.3,0.6,0.5,1.2,0.4c0.6-0.1,0.8-0.6,0.8-0.8c-0.2,0-0.3-0.2-0.4-0.3c0,0.1,0,0.2-0.1,0.3
			c-0.1,0.1-0.2,0.3-0.2,0.4c0,0.1-0.1,0.2-0.1,0.3c0,0.1-0.1,0.1-0.1,0.1c0,0-0.1-0.1-0.1-0.2c0-0.1,0-0.3,0-0.4
			c0-0.1-0.3-0.2-0.3-0.5c0-0.3,0.2-0.4,0.2-0.5c0-0.1,0-0.3,0-0.4c0-0.1,0.1-0.2,0.1-0.2c0.1,0,0.2,0.1,0.3,0.2
			c0,0.1,0.1,0.2,0.2,0.2c0.1,0.1,0.2,0.2,0.2,0.2c0,0,0.1,0.1,0.1,0.2c0.1-0.2,0.2-0.3,0.4-0.4l-0.1,0c-0.2-0.1-0.3-0.2-0.4-0.3
			c-0.1-0.1-0.1-0.2-0.2-0.2c-0.1-0.1-0.1-0.1-0.2-0.1c0-0.1,0-0.2,0-0.2c0-0.1,0.1-0.1,0.3-0.1c0.1,0,0.1,0,0.2,0.1
			c0.1,0.1,0.1,0,0.2,0c0-0.1,0.1-0.2,0.2-0.2c0.1-0.1,0.2-0.1,0.2-0.1s0.1,0,0.2,0.1c0.1,0.1,0.2,0.2,0.2,0.2
			c0.1,0.1,0.1,0.1,0.2,0c0.1-0.1,0.1-0.1,0.2-0.1c0.1,0,0.2,0,0.3,0.1c0,0,0,0.2,0,0.2c0,0.1,0,0.1-0.2,0.1
			c-0.1,0.1-0.1,0.1-0.2,0.2c-0.1,0.1-0.2,0.2-0.4,0.3l-0.1,0c0.2,0,0.3,0.2,0.4,0.4c0-0.1,0-0.1,0.1-0.1c0,0,0,0,0-0.1
			c0,0,0.1-0.1,0.1-0.1c0,0,0,0,0.1-0.1c0,0,0,0,0.1-0.1c0.1,0,0.1-0.1,0.1-0.2c0-0.1,0.1-0.1,0.1-0.1c0,0,0.1,0,0.1,0
			c0.1,0,0.1,0.1,0.1,0.2c0,0.1-0.1,0.4,0,0.4c0,0,0,0.1,0.1,0.1c0.1,0.1,0.1,0.2,0.1,0.3v0.1c0,0.2-0.1,0.2-0.1,0.3
			c0,0.1-0.1,0.1-0.1,0.1c0,0.1,0,0.3,0,0.4c0,0.1,0,0.2-0.1,0.2c0,0,0,0,0,0c0,0-0.1,0-0.1,0c0,0,0,0-0.1,0c0,0-0.1-0.1-0.1-0.1
			c0,0,0-0.1-0.1-0.1c0,0,0-0.1-0.1-0.1c0-0.1-0.1-0.2-0.1-0.2c-0.1-0.1-0.1-0.2-0.1-0.3c-0.1,0.2-0.2,0.3-0.4,0.3
			c0.1,0.2,0.3,0.7,0.8,0.8c0.5,0.1,0.9-0.1,1.2-0.4c0-0.1,0.1-0.1,0.1-0.2c0,0,0,0,0,0C528.8,126.1,528.8,126,528.7,126L528.7,126z
			"/>
		<path id="path31_5_"  class="st28" d="M520.6,124.7c0-0.4,0.3-0.7,0.6-0.7c0.4,0,0.6,0.3,0.6,0.7
			c0,0.4-0.3,0.7-0.6,0.7C520.9,125.3,520.6,125,520.6,124.7z"/>
		<path id="path33_5_"  class="st28" d="M520.9,121c0-0.3,0.3-0.6,0.6-0.6c0.3,0,0.6,0.3,0.6,0.6
			c0,0.4-0.3,0.6-0.6,0.6C521.2,121.7,520.9,121.4,520.9,121z"/>
		<path id="path35_5_"  class="st28" d="M521.9,120.3c0-0.3,0.2-0.5,0.5-0.5c0.3,0,0.5,0.2,0.5,0.5
			c0,0.3-0.2,0.5-0.5,0.5C522.1,120.8,521.9,120.6,521.9,120.3z"/>
		<path id="path37_5_"  class="st28" d="M522.8,120.1c0-0.3,0.2-0.5,0.5-0.5c0.3,0,0.5,0.2,0.5,0.5
			c0,0.3-0.2,0.5-0.5,0.5C523,120.5,522.8,120.3,522.8,120.1z"/>
		<path id="path39_3_"  class="st28" d="M523.8,120c0-0.2,0.2-0.4,0.4-0.4c0.2,0,0.4,0.2,0.4,0.4
			c0,0.2-0.2,0.4-0.4,0.4C523.9,120.4,523.8,120.3,523.8,120z"/>
		<path id="path41_4_"  class="st28" d="M524.5,120.1c0-0.2,0.2-0.4,0.4-0.4c0.2,0,0.4,0.2,0.4,0.4
			c0,0.2-0.2,0.4-0.4,0.4C524.7,120.5,524.5,120.3,524.5,120.1z"/>
		<path id="path43_3_"  class="st28" d="M525.3,120.3c0-0.2,0.1-0.3,0.3-0.3c0.2,0,0.3,0.1,0.3,0.3
			c0,0.2-0.1,0.3-0.3,0.3C525.4,120.6,525.3,120.5,525.3,120.3z"/>
		<path id="path45_3_"  class="st28" d="M525.8,120.5c0-0.1,0.1-0.2,0.2-0.2c0.1,0,0.2,0.1,0.2,0.2
			c0,0.1-0.1,0.3-0.2,0.3C525.9,120.8,525.8,120.7,525.8,120.5L525.8,120.5z"/>
		<path id="path47_3_"  class="st28" d="M526.3,120.8c0-0.2,0.2-0.4,0.4-0.4c0.2,0,0.4,0.2,0.4,0.4
			c0,0.2-0.2,0.4-0.4,0.4C526.4,121.2,526.3,121,526.3,120.8z"/>
		<path id="path49_5_"  class="st28" d="M526.2,121.6c0-0.3,0.2-0.5,0.4-0.5c0.2,0,0.5,0.2,0.5,0.5
			c0,0.3-0.2,0.5-0.5,0.5C526.4,122.1,526.2,121.9,526.2,121.6L526.2,121.6z"/>
		<path id="path51_5_"  class="st28" d="M526.1,122.6c0-0.3,0.2-0.6,0.5-0.6c0.3,0,0.6,0.3,0.6,0.6
			c0,0.3-0.2,0.6-0.6,0.6C526.4,123.2,526.1,123,526.1,122.6z"/>
		<path id="path53_4_"  class="st28" d="M526,123.9c0-0.4,0.3-0.7,0.7-0.7c0.4,0,0.7,0.3,0.7,0.7
			c0,0.4-0.3,0.7-0.7,0.7C526.3,124.6,526,124.3,526,123.9z"/>
		<path id="path55_3_"  class="st28" d="M517.4,127.8c0-0.3,0.3-0.6,0.6-0.6c0.3,0,0.6,0.3,0.6,0.6
			c0,0.3-0.2,0.6-0.6,0.6C517.6,128.4,517.4,128.1,517.4,127.8L517.4,127.8z"/>
		<path id="path57_3_"  class="st28" d="M516.8,126.7c0-0.4,0.3-0.7,0.7-0.7c0.3,0,0.6,0.3,0.6,0.7
			c0,0.4-0.3,0.7-0.6,0.7C517.1,127.3,516.8,127.1,516.8,126.7z"/>
		<path id="path59_4_"  class="st28" d="M516.6,125.5c0-0.3,0.3-0.6,0.6-0.6c0.3,0,0.6,0.3,0.6,0.6
			c0,0.3-0.3,0.6-0.6,0.6C516.9,126.1,516.6,125.8,516.6,125.5L516.6,125.5z"/>
		<path id="path61_4_"  class="st28" d="M516.8,124.3c0-0.3,0.2-0.6,0.5-0.6c0.3,0,0.5,0.3,0.5,0.6
			c0,0.3-0.2,0.6-0.5,0.6C517.1,124.9,516.8,124.7,516.8,124.3z"/>
		<path id="path63_3_"  class="st28" d="M517.3,123.4c0-0.3,0.2-0.5,0.5-0.5c0.3,0,0.5,0.2,0.5,0.5
			c0,0.3-0.2,0.5-0.5,0.5C517.5,123.9,517.3,123.7,517.3,123.4z"/>
		<path id="path65_3_"  class="st28" d="M518,122.8c0-0.2,0.2-0.4,0.4-0.4c0.2,0,0.4,0.2,0.4,0.4
			c0,0.2-0.2,0.4-0.4,0.4C518.2,123.2,518,123,518,122.8L518,122.8z"/>
		<path id="path67_3_"  class="st28" d="M518.8,122.4c0-0.2,0.2-0.4,0.4-0.4c0.2,0,0.4,0.2,0.4,0.4
			s-0.2,0.4-0.4,0.4C519,122.8,518.8,122.6,518.8,122.4z"/>
		<path id="path69_4_"  class="st28" d="M519.6,122.2c0-0.2,0.1-0.3,0.3-0.3c0.2,0,0.3,0.2,0.3,0.3
			c0,0.2-0.2,0.3-0.3,0.3C519.7,122.6,519.6,122.4,519.6,122.2z"/>
		<path id="path71_3_"  class="st28" d="M531.4,124.7c0-0.4,0.3-0.7,0.6-0.7c0.4,0,0.6,0.3,0.6,0.7
			c0,0.4-0.3,0.7-0.6,0.7C531.7,125.3,531.4,125,531.4,124.7L531.4,124.7z"/>
		<path id="path73_4_"  class="st28" d="M531.2,121c0-0.3,0.3-0.6,0.6-0.6c0.3,0,0.6,0.3,0.6,0.6
			c0,0.4-0.3,0.6-0.6,0.6C531.4,121.7,531.2,121.4,531.2,121L531.2,121z"/>
		<path id="path75_2_"  class="st28" d="M530.4,120.3c0-0.3,0.2-0.5,0.5-0.5c0.3,0,0.5,0.2,0.5,0.5
			c0,0.3-0.2,0.5-0.5,0.5C530.6,120.8,530.4,120.6,530.4,120.3L530.4,120.3z"/>
		<path id="path77_3_"  class="st28" d="M529.6,120.1c0-0.3,0.2-0.5,0.5-0.5c0.3,0,0.5,0.2,0.5,0.5
			c0,0.3-0.2,0.5-0.5,0.5C529.8,120.5,529.6,120.3,529.6,120.1L529.6,120.1z"/>
		<path id="path79_2_"  class="st28" d="M528.8,120c0-0.2,0.2-0.4,0.4-0.4c0.2,0,0.4,0.2,0.4,0.4
			c0,0.2-0.2,0.4-0.4,0.4C528.9,120.4,528.8,120.3,528.8,120z"/>
		<path id="path81_3_"  class="st28" d="M528,120.1c0-0.2,0.2-0.4,0.4-0.4c0.2,0,0.4,0.2,0.4,0.4
			c0,0.2-0.2,0.4-0.4,0.4C528.2,120.5,528,120.3,528,120.1z"/>
		<path id="path83_1_"  class="st28" d="M527.5,120.3c0-0.2,0.1-0.3,0.3-0.3c0.2,0,0.3,0.1,0.3,0.3
			c0,0.2-0.1,0.3-0.3,0.3C527.6,120.6,527.5,120.5,527.5,120.3z"/>
		<path id="path85_2_"  class="st28" d="M527,120.5c0-0.1,0.1-0.2,0.2-0.2c0.1,0,0.2,0.1,0.2,0.2
			c0,0.1-0.1,0.3-0.2,0.3C527.1,120.8,527,120.7,527,120.5z"/>
		<path id="path87_1_"  class="st28" d="M535.2,126.7c0-0.4,0.3-0.7,0.6-0.7c0.4,0,0.6,0.3,0.6,0.7
			c0,0.4-0.3,0.7-0.6,0.7C535.5,127.3,535.2,127.1,535.2,126.7z"/>
		<path id="path89_2_"  class="st28" d="M535.5,125.5c0-0.3,0.3-0.6,0.6-0.6c0.3,0,0.6,0.3,0.6,0.6
			c0,0.3-0.3,0.6-0.6,0.6C535.8,126.1,535.5,125.8,535.5,125.5z"/>
		<path id="path91_2_"  class="st28" d="M535.4,124.3c0-0.3,0.2-0.5,0.5-0.5c0.3,0,0.5,0.2,0.5,0.5
			c0,0.3-0.2,0.5-0.5,0.5C535.6,124.9,535.4,124.7,535.4,124.3L535.4,124.3z"/>
		<path id="path93_3_"  class="st28" d="M535,123.4c0-0.3,0.2-0.5,0.5-0.5c0.3,0,0.5,0.2,0.5,0.5
			c0,0.3-0.2,0.5-0.5,0.5C535.3,123.9,535,123.7,535,123.4z"/>
		<path id="path95_1_"  class="st28" d="M534.4,122.8c0-0.2,0.2-0.4,0.4-0.4c0.2,0,0.4,0.2,0.4,0.4
			c0,0.2-0.2,0.4-0.4,0.4C534.6,123.2,534.4,123,534.4,122.8z"/>
		<path id="path97_2_"  class="st28" d="M533.7,122.4c0-0.2,0.2-0.4,0.4-0.4c0.2,0,0.4,0.2,0.4,0.4
			c0,0.2-0.2,0.4-0.4,0.4C533.9,122.8,533.7,122.6,533.7,122.4z"/>
		<path id="path99_1_"  class="st28" d="M533.1,122.2c0-0.2,0.1-0.3,0.3-0.3c0.2,0,0.3,0.2,0.3,0.3
			c0,0.2-0.2,0.3-0.3,0.3C533.2,122.6,533.1,122.4,533.1,122.2z"/>
		<path id="path101_2_"  class="st28" d="M520.2,122.1c0-0.4,0.3-0.7,0.7-0.7
			c0.4,0,0.6,0.3,0.6,0.7c0,0.4-0.3,0.7-0.6,0.7C520.5,122.7,520.2,122.4,520.2,122.1z"/>
		<path id="path103"  class="st28" d="M520.2,122.1c0-0.4,0.3-0.7,0.7-0.7c0.4,0,0.6,0.3,0.6,0.7
			c0,0.4-0.3,0.7-0.6,0.7C520.5,122.7,520.2,122.4,520.2,122.1z"/>
		<path id="path105_2_"  class="st28" d="M520,123.4c0-0.4,0.3-0.8,0.8-0.8c0.4,0,0.7,0.3,0.7,0.8
			c0,0.4-0.3,0.8-0.7,0.8C520.3,124.2,520,123.8,520,123.4z"/>
		<path id="path107_2_"  class="st28" d="M531.8,122.1c0-0.4,0.3-0.6,0.6-0.6
			c0.3,0,0.6,0.3,0.6,0.6c0,0.4-0.3,0.6-0.6,0.6C532.1,122.7,531.8,122.4,531.8,122.1z"/>
		<path id="path109_2_"  class="st28" d="M531.8,123.4c0-0.4,0.3-0.8,0.7-0.8
			c0.4,0,0.7,0.3,0.7,0.8c0,0.4-0.3,0.8-0.7,0.8C532.2,124.2,531.8,123.9,531.8,123.4z"/>
		<path id="path111_1_"  class="st28" d="M526.6,129.6l-1.5-0.9l1.5-0.9l1.5,0.9
			C527.6,129,527.1,129.3,526.6,129.6z"/>
		<path id="path113_2_"  class="st28" d="M526.6,128c0.4,0.2,0.7,0.5,1.1,0.7l-1.1,0.7l-1.1-0.7
			L526.6,128z"/>
		<polygon id="polygon115" class="st28" points="528.9,129.5 531.3,130.3 531.6,129.1 529.3,128.3 		"/>
		<polygon id="polygon117" class="st28" points="529.2,129.4 531.2,130.1 531.4,129.3 529.4,128.6 		"/>
		<polygon id="polygon119" class="st28" points="533.1,131 532.6,129.9 533.8,129.9 533.8,130.7 		"/>
		<path id="path121_2_"  class="st28" d="M533.9,129.9l-1.3,0l0.6,1c0.1,0.1-0.1,0.2-0.1,0.2
			l-0.7-1.3c0,0,0.2,0,1.5-0.1C534,129.7,534,129.9,533.9,129.9z"/>
		<polygon id="polygon123" class="st28" points="524.3,129.5 522,130.3 521.6,129.1 523.9,128.3 		"/>
		<polygon id="polygon125" class="st28" points="524.1,129.4 522.1,130.1 521.8,129.3 523.8,128.6 		"/>
		<polygon id="polygon127" class="st28" points="520.2,131 520.8,129.9 519.5,129.9 519.5,130.7 		"/>
		<path id="path129_2_"  class="st28" d="M519.4,129.9l1.3,0l-0.6,1c-0.1,0.1,0.1,0.2,0.1,0.2
			l0.7-1.3c0,0-0.2,0-1.5-0.1C519.3,129.7,519.3,129.9,519.4,129.9z"/>
		<path id="path131_2_"  class="st28" d="M534.8,127.8c0-0.3,0.3-0.6,0.6-0.6
			c0.3,0,0.6,0.3,0.6,0.6c0,0.3-0.3,0.6-0.6,0.6C535,128.4,534.8,128.1,534.8,127.8z"/>
	</g>
</g>
</svg>
