<?xml version="1.0" encoding="utf-8"?>
<!-- Generator: Adobe Illustrator 19.2.1, SVG Export Plug-In . SVG Version: 6.00 Build 0)  -->
<svg version="1.1" id="Capa_1" xmlns="http://www.w3.org/2000/svg" xmlns:xlink="http://www.w3.org/1999/xlink" x="0px" y="0px"
	 viewBox="0 0 100 100" style="enable-background:new 0 0 100 100;" xml:space="preserve">
<style type="text/css">
	.st0{fill:url(#path34_4_);}
	.st1{fill:url(#path890_1_);}
	.st2{fill:#FFE500;stroke:#000000;stroke-width:2.098;stroke-miterlimit:3.863;}
	.st3{fill:#DA020E;}
	.st4{fill:#FFE500;}
	.st5{clip-path:url(#SVGID_2_);}
	.st6{fill:none;stroke:#B54005;stroke-width:10;stroke-miterlimit:3.863;}
	.st7{fill:url(#path7506_1_);}
	.st8{fill:url(#path8794_1_);}
	.st9{fill:url(#path15846_1_);}
	.st10{fill:url(#path16274_1_);}
	.st11{fill:url(#path39821_1_);}
	.st12{fill:url(#path39847_1_);}
	.st13{fill:url(#path39878_1_);}
	.st14{fill:url(#path39888_1_);}
	.st15{fill:url(#path41035_1_);}
	.st16{fill:url(#path9646-8_1_);}
	.st17{fill:url(#path41092_1_);}
	.st18{fill:url(#path41094_1_);}
	.st19{fill:none;stroke:#000000;stroke-width:2.098;stroke-miterlimit:3.863;}
	.st20{fill:url(#path41152_1_);}
	.st21{fill:url(#path39854_1_);}
	.st22{fill:url(#path39874_1_);}
	.st23{fill:#9C824A;stroke:#9C824A;stroke-width:0.793;stroke-miterlimit:282;}
	.st24{fill:#023474;stroke:#023474;stroke-width:0.793;stroke-miterlimit:282;}
	.st25{fill:#FFFFFF;stroke:#FFFFFF;stroke-width:0.793;stroke-miterlimit:282;}
	.st26{fill:#EF0107;stroke:#EF0107;stroke-width:0.793;stroke-miterlimit:282;}
	.st27{fill:#DB0007;stroke:#DB0007;stroke-width:0.793;stroke-miterlimit:282;}
	.st28{fill:#FFFFFF;}
	.st29{fill:#9C824A;}
	.st30{fill:#EF0107;stroke:#EF0107;stroke-width:0.3115;stroke-miterlimit:282;}
	.st31{fill:#DB0007;stroke:#DB0007;stroke-width:0.3115;stroke-miterlimit:282;}
	.st32{fill:#DB0007;}
	.st33{fill:#FFFFFF;stroke:#FFFFFF;stroke-width:0.3115;stroke-miterlimit:282;}
	.st34{fill:#FFFFFF;stroke:#FFFFFF;stroke-width:0.554;stroke-miterlimit:3.864;}
	.st35{fill:#231F20;}
	.st36{fill:#00B6F1;stroke:#00B6F1;stroke-width:1.700000e-02;stroke-miterlimit:3.864;}
	.st37{fill:#EF3E2E;}
	.st38{fill:#BBBDBF;}
	.st39{fill:#F0B83D;}
	.st40{fill:#00B6F1;stroke:#FFFFFF;stroke-width:1.700000e-02;stroke-miterlimit:3.864;}
	.st41{fill:#001C58;}
	.st42{fill:#94BEE5;}
	.st43{fill:none;stroke:#7A003C;stroke-width:2.2437;stroke-miterlimit:6;}
	.st44{fill:#7A003C;}
	.st45{fill:#FFE600;}
	.st46{fill:#DBA111;}
	.st47{fill:#034694;}
	.st48{fill:#D1D3D4;}
	.st49{fill:#ED1C24;}
	.st50{fill:#6A7AB5;}
	.st51{fill:none;}
	.st52{fill:#274488;}
	.st53{fill:#004798;stroke:#004798;stroke-width:9.375000e-02;}
	.st54{fill:#FFFFFF;stroke:#FFFFFF;stroke-width:9.375000e-02;}
	.st55{fill:#FABC00;stroke:#FABC00;stroke-width:9.375000e-02;}
	.st56{fill:none;stroke:#FFFFFF;stroke-width:7.865;stroke-miterlimit:3.864;}
	.st57{fill:none;stroke:#FFFFFF;stroke-width:7.865;stroke-miterlimit:12;}
	.st58{fill:none;stroke:#FFFFFF;stroke-width:7.865;stroke-miterlimit:22;}
	.st59{fill:none;stroke:#FFFFFF;stroke-width:7.865;stroke-miterlimit:6;}
	.st60{fill:#00A398;}
	.st61{fill:#D00027;}
	.st62{fill:none;stroke:#FFFFFF;stroke-width:17.3907;stroke-miterlimit:3.864;}
	.st63{fill:none;stroke:#FFFFFF;stroke-width:13.1107;stroke-miterlimit:3.864;}
	.st64{fill:#FEF667;}
	.st65{fill:#D00027;stroke:#D00027;}
	.st66{fill:#5299C6;}
	.st67{fill:#60223B;}
	.st68{fill:#F7C240;}
	.st69{fill:#292D6B;}
	.st70{fill:#1B458F;}
	.st71{fill:#C4122E;}
	.st72{fill:#27409B;}
	.st73{clip-path:url(#SVGID_4_);}
	.st74{fill:#F4F4F4;}
	.st75{fill:#D3D2D2;}
	.st76{fill:#A7A5A6;}
	.st77{fill:#091453;}
	.st78{fill:none;stroke:#FFFFFF;stroke-width:6.6301;}
	.st79{clip-path:url(#SVGID_6_);}
	.st80{fill:#724314;}
	.st81{fill:#240B08;}
	.st82{fill:#018B4B;}
	.st83{fill:#A6181D;}
	.st84{fill:#592D09;}
	.st85{fill:#FFCE65;}
	.st86{fill:#5CBFEB;}
	.st87{fill:none;stroke:#000000;stroke-width:10;}
	.st88{fill:none;stroke:#000000;}
	.st89{fill:#B2B2B2;}
	.st90{fill:none;stroke:#000000;stroke-width:0.3;}
	.st91{fill:#00A650;stroke:#000000;stroke-width:2;}
	.st92{fill:#241F20;stroke:#241F20;stroke-width:9.375000e-02;}
	.st93{fill:#FFF200;stroke:#FFF200;stroke-width:9.375000e-02;}
	.st94{fill:#A68A26;}
	.st95{fill:none;stroke:#A68A26;stroke-width:4.792100e-02;stroke-miterlimit:3.8637;}
	.st96{fill:#211E1E;}
	.st97{fill:none;stroke:#211E1E;stroke-width:4.792100e-02;stroke-miterlimit:3.8637;}
	.st98{fill:#EB172B;}
	.st99{fill:none;stroke:#EB172B;stroke-width:4.792100e-02;stroke-miterlimit:3.8637;}
	.st100{fill:#A68A26;stroke:#A68A26;stroke-width:4.792100e-02;stroke-miterlimit:3.8637;}
	.st101{fill:#D1BF7F;}
	.st102{fill:none;stroke:#D1BF7F;stroke-width:4.792100e-02;stroke-miterlimit:3.8637;}
	.st103{fill:none;stroke:#FFFFFF;stroke-width:4.792100e-02;stroke-miterlimit:3.8637;}
	.st104{fill:#EB172B;stroke:#EB172B;stroke-width:4.792100e-02;stroke-miterlimit:3.8637;}
	.st105{fill:#ED2127;}
	.st106{fill:#FBEE23;}
	.st107{stroke:#000000;}
	.st108{fill:#CF1F44;}
	.st109{fill:#1B449C;}
	.st110{fill:#E03A3E;}
	.st111{fill:#E03A3E;stroke:#E03A3E;stroke-width:0.6565;}
	.st112{fill:none;stroke:#1B449C;stroke-width:0.7493;}
	.st113{fill:none;stroke:#1B449C;stroke-width:0.7567;}
	.st114{fill:#1B449C;stroke:#1B449C;stroke-width:0.6274;}
	.st115{fill:#1B449C;stroke:#1B449C;stroke-width:0.6755;}
	.st116{fill:#2E6ABD;stroke:#2E6ABD;stroke-width:0.617;}
	.st117{fill:#FFFFFF;stroke:#FFFFFF;stroke-width:0.6175;}
	.st118{fill:#ED1248;}
	.st119{fill:#2E6ABD;}
	.st120{fill:#FDE100;}
	.st121{fill:#CC0000;}
	.st122{fill:#211E1F;}
	.st123{fill:#ED1A3B;}
	.st124{fill:#00AEEF;}
	.st125{fill:#FFC40D;}
	.st126{fill:#22B24C;}
	.st127{fill:#FFC20E;}
	.st128{fill:#0A3F86;}
	.st129{fill:#005CA9;}
	.st130{fill:#FFE000;}
	.st131{fill:#E2001A;}
	.st132{opacity:0;}
	.st133{opacity:0;fill:#FFFFFF;}
	.st134{fill:#FFFFFF;stroke:#000000;}
	.st135{fill:#0060A9;}
	.st136{fill:#E32219;}
	.st137{fill:#FFED00;}
	.st138{fill:#1D9053;}
	.st139{fill:#52A600;}
	.st140{fill:#EE2523;}
	.st141{fill:#F7D117;}
	.st142{fill:#171796;}
	.st143{fill:#009959;}
	.st144{fill:#D42E12;}
	.st145{fill:#703824;}
	.st146{fill:#E5254E;}
	.st147{fill:#8AC3EE;}
	.st148{fill:#B19221;}
	.st149{fill:#F5C03E;}
	.st150{fill:#FF1119;}
	.st151{fill:#1E6BC0;}
	.st152{fill:#B4742A;}
	.st153{fill:#371B02;}
	.st154{fill:url(#SVGID_7_);}
	.st155{fill:url(#SVGID_8_);}
	.st156{fill:url(#SVGID_9_);}
	.st157{fill:url(#SVGID_10_);}
	.st158{fill:url(#SVGID_11_);}
	.st159{fill:url(#SVGID_12_);}
	.st160{fill:url(#SVGID_13_);}
	.st161{fill:url(#SVGID_14_);}
	.st162{fill:url(#SVGID_15_);}
	.st163{fill:url(#SVGID_16_);}
	.st164{fill:#EB2626;}
	.st165{fill:#E9C32C;}
	.st166{fill:#D9D9D9;}
	.st167{fill:#009C5E;}
	.st168{fill:#1C75BC;}
	.st169{fill:#611D5C;}
	.st170{fill:#E2B900;}
	.st171{fill:#004B95;}
	.st172{fill:#A4234B;}
	.st173{fill:#DB2F36;}
	.st174{fill:#FFDF00;}
	.st175{fill:#A38D44;}
	.st176{fill:#57175E;}
	.st177{fill:#AFDCFD;}
	.st178{fill:#0090C6;}
	.st179{fill:#DB5232;}
	.st180{fill:#23C1E0;}
	.st181{fill:#F1A92A;}
	.st182{fill:#167FB6;}
	.st183{fill:#FED75D;}
	.st184{fill:#378CBF;}
	.st185{fill:#3E9692;}
	.st186{fill:#E67F29;}
	.st187{fill:#D8B43C;}
	.st188{fill:#EF3B33;}
	.st189{fill:#24923D;}
	.st190{opacity:6.000001e-02;fill:#101010;enable-background:new    ;}
	.st191{fill:#00529F;}
	.st192{fill:#EE324E;}
	.st193{fill:#FEBE10;}
	.st194{fill:#143C8B;}
	.st195{fill:#FFE24A;}
	.st196{fill:#EC1D24;}
	.st197{fill:#E6A514;}
	.st198{fill:#FFDF1C;}
	.st199{fill:#EE3524;}
	.st200{fill:#B23428;}
	.st201{fill:#D18816;}
	.st202{fill:#0097D7;}
	.st203{fill:#ED1C23;}
	.st204{fill:#E30613;}
	.st205{fill:#FFE400;}
	.st206{fill:#C51A1B;}
	.st207{clip-path:url(#SVGID_19_);}
	.st208{clip-path:url(#SVGID_20_);fill:none;stroke:#000000;stroke-width:0.8131;stroke-miterlimit:3.864;}
	.st209{fill:#0093D5;}
	.st210{fill:#004B9D;}
	.st211{fill:#FCC24F;}
	.st212{fill:#009545;}
	.st213{fill:#0072BB;}
	.st214{fill:#C4974E;}
	.st215{fill:url(#path1292_1_);}
	.st216{fill:#004996;}
	.st217{fill:#FFE667;}
	.st218{fill:none;stroke:#005187;stroke-width:0.153;stroke-miterlimit:3.864;}
	.st219{fill:#005187;}
	.st220{clip-path:url(#SVGID_22_);}
	.st221{clip-path:url(#SVGID_24_);fill:none;stroke:#000000;stroke-width:0.296;stroke-miterlimit:3.864;}
	.st222{clip-path:url(#SVGID_26_);fill:#FFE667;}
	.st223{clip-path:url(#SVGID_28_);fill:none;stroke:#000000;stroke-width:8.300000e-02;stroke-miterlimit:3.864;}
	.st224{fill:none;stroke:#000000;stroke-width:0.153;stroke-miterlimit:3.864;}
	.st225{clip-path:url(#SVGID_30_);fill:#E70005;}
	.st226{clip-path:url(#SVGID_32_);fill:none;stroke:#E70005;stroke-width:0.296;stroke-miterlimit:3.864;}
	.st227{clip-path:url(#SVGID_34_);fill:#E70005;}
	.st228{clip-path:url(#SVGID_36_);fill:none;stroke:#E70005;stroke-width:0.296;stroke-miterlimit:3.864;}
	.st229{clip-path:url(#SVGID_38_);fill:#E70005;}
	.st230{clip-path:url(#SVGID_40_);fill:none;stroke:#E70005;stroke-width:0.296;stroke-miterlimit:3.864;}
	.st231{clip-path:url(#SVGID_42_);fill:#E70005;}
	.st232{clip-path:url(#SVGID_44_);fill:none;stroke:#E70005;stroke-width:0.296;stroke-miterlimit:3.864;}
	.st233{fill:#E70005;}
	.st234{fill:none;stroke:#000000;stroke-width:0.141;stroke-miterlimit:3.864;}
	.st235{fill:#00276D;}
	.st236{fill:#C49308;}
	.st237{fill:#179D33;}
	.st238{fill:#999999;}
	.st239{fill:#FF0000;}
	.st240{fill:#E31837;}
	.st241{fill:#06357A;}
	.st242{fill:#B4053F;}
	.st243{fill:#DCA43E;}
	.st244{fill:#005CA5;}
	.st245{fill:#FAC400;}
	.st246{fill:#004083;}
	.st247{fill:#A95932;}
	.st248{fill:none;stroke:#000000;stroke-width:1.2215;}
	.st249{fill:#E62627;}
	.st250{fill:#00458C;}
	.st251{fill:#E11B22;}
	.st252{fill:#00AB4E;}
	.st253{fill:#F47920;}
	.st254{fill:#C7C8CA;}
	.st255{fill:#E11515;}
	.st256{fill:#A4965F;}
	.st257{fill:#E51636;}
	.st258{fill:#EACC00;}
	.st259{fill:#4F846B;}
	.st260{fill:#E22227;}
	.st261{fill:#FAE700;}
	.st262{fill:url(#SVGID_45_);}
	.st263{fill:#666666;}
	.st264{fill:#FFF200;}
	.st265{fill:#00275D;}
	.st266{fill:#EF3E33;}
	.st267{fill:none;stroke:#00275D;stroke-width:2.632;}
	.st268{fill:#3F7652;}
	.st269{fill:#F1D261;}
	.st270{fill:#004D8F;}
	.st271{fill:#E7B137;stroke:#E7B137;stroke-miterlimit:10;}
	.st272{fill:#E7B137;}
	.st273{fill:#162577;}
	.st274{fill:#12692C;}
	.st275{fill:#D8141D;}
	.st276{fill:#AB830D;}
	.st277{fill:#0086CB;}
	.st278{fill:#001F42;}
	.st279{fill:#9A8F4A;}
	.st280{fill:#00559D;}
	.st281{fill:#FDDE00;}
	.st282{fill:#00924C;}
	.st283{fill:#233984;}
	.st284{fill:#FFD42E;}
	.st285{fill:#BA3733;}
	.st286{fill:#46714D;}
	.st287{fill:#221F1F;}
	.st288{fill:#00559E;}
	.st289{fill:#005C46;}
	.st290{fill:#FBC860;}
	.st291{fill:#D57C48;}
	.st292{fill:#040403;}
	.st293{fill:#4AB969;}
	.st294{fill:#8ED8F8;}
	.st295{fill:#FEC34E;}
	.st296{fill:#FFC95B;}
	.st297{fill:#00644C;}
	.st298{fill:#70B865;}
	.st299{fill:#CA6F44;}
	.st300{fill:#A8B8BE;}
	.st301{fill:#1C2C80;}
	.st302{fill:#E10321;}
	.st303{fill:none;stroke:#231F20;stroke-width:0.318;stroke-miterlimit:3.864;}
	.st304{fill:#D71920;}
	.st305{fill:#484749;}
	.st306{fill:#D9DBDC;}
	.st307{fill:#DF725A;}
	.st308{fill:#F2CABA;}
	.st309{fill:#E89C84;}
	.st310{fill:#264F99;}
	.st311{clip-path:url(#SVGID_47_);}
	.st312{fill:#161413;}
	.st313{fill:#ED1B26;}
	.st314{fill:#E60D2E;}
	.st315{fill:#FCD600;}
	.st316{fill:#004D91;}
	.st317{fill:#EAB412;}
	.st318{fill:#FDD31D;}
	.st319{fill:#EFB800;}
</style>
<g>
	<path id="path3_2_"  class="st149" d="M29.8,16c0.6-3,2.7-5.2,5.4-5.9c0.1,0,0.3,0,0.4-0.1
		c0.4-0.1,0.8-0.2,1.3-0.1c0,0,0,0,0,0c0.4,0,0.7,0.1,1.1,0.1c0.4,0.1,0.7,0.2,1,0.3c0.1,0,0.3,0.2,0.3,0.1l0,0
		c0.4-0.4,0.8-0.9,1.2-1.3c1-0.9,2.6-1.6,4.4-1.6c0.7,0,1.4,0.2,2,0.3c-0.3-1.5,0.5-2.8,1.2-3.3c0.3-0.2,0.6-0.3,1-0.5V2.7h-1.3V1.4
		h1.3c0-0.4,0-0.9,0-1.4H50h0.7c0,0.4,0,0.9,0,1.4h1.3v1.3h-1.3V4c0.3,0.2,0.7,0.3,1,0.5c0.8,0.5,1.6,1.9,1.2,3.3
		c0.7-0.1,1.3-0.3,2-0.3c1.8,0,3.4,0.7,4.4,1.6c0.5,0.4,0.8,0.9,1.2,1.3l0,0c0.1,0,0.3-0.1,0.3-0.1c0.3-0.1,0.7-0.3,1-0.3
		c0.4-0.1,0.7-0.1,1.1-0.1c0,0,0,0,0,0c0.4-0.1,0.9,0,1.3,0.1c0.2,0,0.3,0,0.4,0.1c2.7,0.6,4.8,2.9,5.4,5.9c0.1,0.6,0.2,1.3,0.1,2
		c-0.2,3.1-1.2,5.3-2.3,7.4c-0.5,0.9-1,2.1-1.9,2.6c0.1,0.2,0.3,0.4,0.4,0.6c0.2,0.5,0.2,1.2,0,1.8c-0.7,2-3.7,2.5-5.5,1.4
		c-0.8-0.5-1.3-1.1-1.4-2.3c-1.5,1.6-4.8,1.5-6-0.4c-0.2-0.2-0.2-0.5-0.3-0.8c-0.2,0.3-0.4,0.7-0.7,0.9C51.9,29.7,51,30,50,30
		c-1,0-1.9-0.3-2.6-0.9c-0.3-0.2-0.5-0.6-0.7-0.9c-0.1,0.3-0.2,0.6-0.3,0.8c-1.2,1.9-4.5,2-6,0.4c-0.1,1.2-0.6,1.8-1.4,2.3
		c-1.8,1.1-4.8,0.6-5.5-1.4c-0.2-0.5-0.2-1.3,0-1.8c0.1-0.2,0.3-0.4,0.4-0.6c-0.8-0.5-1.4-1.7-1.9-2.6c-1.1-2.1-2.1-4.2-2.3-7.4
		C29.7,17.3,29.7,16.5,29.8,16L29.8,16z"/>
	<path id="path5_4_"  class="st150" d="M36.7,14.3c-1.1,0.1-1.9,0.6-2.4,1.4
		c-0.8,1.4-0.2,4.1,0.2,5.5c0.3,0.7,0.6,1.4,1,2.1c0.2,0.4,0.5,0.9,0.8,1.3c0.4,0.6,0.8,1.1,0.7,2.1c0.5,0.1,0.8,0.1,1.1,0.2
		c0.6,0.2,1,0.6,1.5,1c0-0.7,0.2-1.2,0.5-1.6c0.2-0.2,0.3-0.4,0.5-0.6c0.1-0.1,0.2-0.1,0.3-0.2c-0.1-0.1-0.2-0.2-0.3-0.4
		c-0.4-0.5-0.7-1.3-0.9-1.9c-0.8-1.9-1.5-3.9-1.8-6.4c-0.1-0.8-0.1-1.6,0-2.4C37.6,14.3,37.1,14.2,36.7,14.3"/>
	<path id="path7_5_"  class="st150" d="M45.8,11.8c0.9,0.1,1.6,0.3,2.2,0.7v10c0,0.4,0,0.8,0,1.1
		c0.1,0.4,0.2,0.8,0.4,1c-1,0.5-1.4,0.9-1.9,2c-0.4-0.9-1.2-1.4-2.2-1.6c0.1-0.3,0.1-0.6,0.1-0.9c0-0.7-0.4-1.2-0.6-1.7
		c-0.2-0.5-0.4-1-0.6-1.5c-0.6-1.5-1.7-5-1-7.1c0.2-0.5,0.5-0.8,0.8-1.1C43.8,12,44.6,11.7,45.8,11.8"/>
	<path id="path9_7_"  class="st150" d="M63.3,14.3c1.1,0.1,1.9,0.6,2.4,1.4
		c0.8,1.4,0.2,4.1-0.2,5.5c-0.3,0.7-0.6,1.4-1,2.1c-0.2,0.4-0.5,0.9-0.8,1.3c-0.4,0.6-0.8,1.1-0.7,2.1c-0.5,0.1-0.8,0.1-1.1,0.2
		c-0.6,0.2-1,0.6-1.5,1c0-0.7-0.2-1.2-0.5-1.6c-0.2-0.2-0.3-0.4-0.5-0.6c-0.1-0.1-0.2-0.1-0.3-0.2c0.1-0.1,0.2-0.2,0.3-0.4
		c0.4-0.5,0.7-1.3,0.9-1.9c0.8-1.9,1.5-3.9,1.8-6.4c0.1-0.8,0.1-1.6,0-2.4C62.4,14.3,62.9,14.2,63.3,14.3"/>
	<path id="path11_6_"  class="st150" d="M54.2,11.8c-0.9,0.1-1.6,0.3-2.2,0.7v10c0,0.4,0,0.8,0,1.1
		c-0.1,0.4-0.2,0.8-0.4,1c1,0.5,1.4,0.9,1.9,2c0.4-0.9,1.2-1.4,2.2-1.6c-0.1-0.3-0.1-0.6-0.1-0.9c0-0.7,0.4-1.2,0.6-1.7
		c0.2-0.5,0.4-1,0.6-1.5c0.6-1.5,1.7-5,1-7.1c-0.2-0.5-0.5-0.8-0.8-1.1C56.2,12,55.4,11.7,54.2,11.8"/>
	<path id="path13_5_"  class="st150" d="M15.7,65.6c0-19,15.3-34.3,34.3-34.3
		c18.9,0,34.3,15.4,34.3,34.3c0,19-15.4,34.4-34.3,34.4C31.1,100,15.7,84.6,15.7,65.6z"/>
	<path id="path15_5_"  d="M20.3,65.3c0,0.7,0.6,1.2,1.4,1.2c0.8,0,1.4-0.5,1.4-1.2
		c0-0.7-0.6-1.2-1.4-1.2C20.9,64.1,20.3,64.7,20.3,65.3z"/>
	<path id="path17_5_"  d="M23.2,76.1c1.6-0.5,2.6-2.1,2.2-3.7l-0.5-2.1l-6,1.6l0.5,2.1
		C19.8,75.6,21.6,76.6,23.2,76.1z M20.7,73.6L20.6,73l3.3-0.9l0.1,0.6c0.2,0.8-0.4,1.6-1.2,1.9C22,74.8,20.9,74.5,20.7,73.6z"/>
	<polygon id="polygon19_2_" points="26.7,79 27.7,81 28.9,80.3 27.2,77 21.8,80.1 23.6,83.5 24.8,82.8 23.7,80.8 24.7,80.2 
		25.6,81.8 26.8,81.1 25.9,79.5 	"/>
	<path id="path21_6_"  d="M33.9,85.3l-1.3-1.1l-3.8,5.1l1.4,1.2c1,0.8,2.3,1,3,0.1
		c0.4-0.6,0.4-1.3,0-2c0.6,0.1,1.2,0,1.5-0.5C35.4,87.2,34.8,86,33.9,85.3z M32.2,89.4c-0.3,0.4-0.7,0.2-1.2-0.2l-0.2-0.2l0.7-1
		l0.2,0.2C32.2,88.7,32.4,89.1,32.2,89.4z M33.4,87.4c-0.2,0.3-0.5,0.2-0.9-0.1l-0.2-0.1l0.6-0.8l0.2,0.1
		C33.5,86.8,33.6,87.1,33.4,87.4L33.4,87.4z"/>
	<path id="path23_4_"  d="M35,93.3l1.2,0.9l0.9-1l1.8,0.8l-0.2,1.4l1.5,0.3l0.4-6.7l-1.1-0.5
		L35,93.3L35,93.3z M39,92.6l-1-0.5l1.3-1.5L39,92.6z"/>
	<polygon id="polygon25" points="61.4,93.8 59.2,94.5 58.9,93.3 60.6,92.7 60.2,91.4 58.5,91.9 58.2,91 60.3,90.4 59.9,89 
		56.4,90.1 58.2,96.3 61.8,95.2 	"/>
	<polygon id="polygon27" points="67.6,90.4 65.7,91.5 63.4,87.1 62.1,87.9 65.1,93.5 68.3,91.7 	"/>
	<path id="path29_6_"  d="M67.7,83.6c-1.2,1.2-0.8,3.2,0.3,4.5c1.1,1.2,3.1,1.7,4.2,0.5
		c1.2-1.2,0.8-3.2-0.3-4.5C70.8,82.8,68.9,82.4,67.7,83.6z M71.4,87.5c-0.6,0.6-1.5,0.2-2.2-0.6c-0.7-0.8-1.1-1.7-0.5-2.4
		c0.6-0.6,1.5-0.2,2.2,0.6C71.6,85.9,72,86.9,71.4,87.5z"/>
	<polygon id="polygon31" points="76,78.5 71.9,78.7 71.2,80 76.6,83.1 77.3,81.8 74.3,80 78.4,79.8 79.1,78.5 73.7,75.4 73,76.7 	
		"/>
	<path id="path33_6_"  d="M80,71.2l1.3-0.1l0-1.6l-6.4,0.9l-0.3,1.3l5.4,3.6l0.6-1.4l-1.1-0.7
		C79.6,73.2,80,71.2,80,71.2z M78.4,72.5l-1.7-1l1.9-0.2C78.6,71.4,78.4,72.5,78.4,72.5z"/>
	<path id="path35_6_"  d="M77.2,66c0,0.7,0.6,1.2,1.4,1.2c0.8,0,1.4-0.5,1.4-1.2
		c0-0.7-0.6-1.2-1.4-1.2C77.8,64.8,77.2,65.4,77.2,66z"/>
	<polygon id="polygon37" points="74.2,58.5 75,62.2 76.4,61.8 75.9,59.6 80.5,58.4 80.1,56.9 	"/>
	<path id="path39_4_"  d="M72.3,54.2c0.8,1.5,2.8,1.6,4.2,0.8c1.4-0.9,2.3-2.7,1.5-4.2
		c-0.8-1.5-2.8-1.6-4.2-0.8C72.3,50.9,71.5,52.7,72.3,54.2z M74.5,51.4c0.9-0.5,1.8-0.7,2.3,0.1c0.4,0.8-0.2,1.6-1.1,2.1
		c-0.9,0.5-1.8,0.7-2.3-0.1C73,52.7,73.6,51.9,74.5,51.4z"/>
	<polygon id="polygon41" points="69.5,46.7 67.8,48.3 68.8,49.5 70.6,47.8 74.6,46.8 73.9,45.4 71,46.3 71.2,45.7 71.4,45.7 
		72.2,43.4 72,43.3 72,43.3 70.7,42.6 	"/>
	<polygon id="polygon43_1_" points="64.5,37.7 61.2,43.1 62.5,44 64.3,40.9 64.3,45.1 65.5,46 68.8,40.5 67.5,39.7 65.7,42.8 
		65.7,42.2 65.8,42 65.8,38.5 65.7,38.5 65.7,38.5 	"/>
	<path id="path45_4_"  d="M58.5,40.9l0.1,1.4l1.5,0l-0.7-6.7l-1.2-0.3l-3.6,5.6l1.4,0.7l0.7-1.2
		C56.6,40.4,58.5,40.9,58.5,40.9z M58.3,37.4l0.1,2l-1.1-0.3L58.3,37.4z"/>
	<path id="path47_4_"  d="M50.8,39H51c1.3,0,2.6-0.9,2.6-2.3c0-1.4-1.3-2.3-2.6-2.3h-1.7v6.5h1.5
		V39z M50.8,35.8H51c0.5,0,1.1,0.3,1.1,0.9c0,0.5-0.6,0.9-1.1,0.9h-0.2V35.8z"/>
	<path id="path49_6_"  d="M44.8,38.9c0.3,0.1,0.6,0.2,0.6,0.5c0.1,0.3-0.1,0.6-0.4,0.7
		c-0.4,0.1-0.9,0-1.1-0.4L43.2,41c0.6,0.6,1.4,0.7,2.1,0.5c1.1-0.2,1.8-1.3,1.6-2.5c-0.2-1-0.9-1.4-1.8-1.6l-0.4-0.1
		c-0.5-0.1-0.8-0.2-0.8-0.6c0-0.2,0.2-0.5,0.4-0.5c0.3-0.1,0.7-0.1,0.9,0.1l0.7-1.2c-0.6-0.4-1.2-0.5-1.9-0.3
		C43,35,42.2,36,42.4,37.1c0.2,1,1.1,1.4,2,1.7L44.8,38.9z"/>
	<polygon id="polygon51" points="40.9,40.8 38.9,41.8 38.4,40.7 40.1,39.9 39.5,38.6 37.9,39.4 37.5,38.5 39.5,37.6 38.9,36.3 
		35.6,37.8 38.1,43.7 41.5,42.2 	"/>
	<path id="path53_5_"  d="M32.3,48c1.2-1.3,1-3.4-0.2-4.5c-1.2-1.1-3.1-1.2-4.2,0l-1.4,1.6l4.4,4.5
		L32.3,48z M28.8,44.5c0.6-0.6,1.5-0.5,2.2,0.1c0.7,0.6,0.9,1.7,0.3,2.4l-0.4,0.4L28.4,45L28.8,44.5z"/>
	<path id="path55_4_"  d="M24.3,53.8c1.4,0.8,3.4,0.7,4.2-0.8c0.4-0.8,0.5-1.6,0.2-2.4l0,0l0-0.1
		l-1.3,0.3l0,0.1l0,0c0.2,0.5,0.2,1-0.1,1.5c-0.5,0.8-1.5,0.5-2.3,0.1c-0.8-0.4-1.5-1.2-1.1-2.1c0.2-0.5,0.6-0.8,1.1-0.9l-0.4-1.3
		c-0.9,0.2-1.4,0.7-1.9,1.5C22,51,22.9,52.9,24.3,53.8L24.3,53.8z"/>
	<path id="path57_4_"  d="M25.6,59.4l-2-0.5l0.1-0.2l2.6-1.3l-0.3-1.5l0,0l-0.1-0.2L23.5,57
		c-0.2-0.7-0.7-1.1-1.3-1.3c-1.2-0.3-2.3,0.7-2.6,2l-0.4,1.8l6,1.5L25.6,59.4L25.6,59.4z M22.3,58.4l-0.1,0.2l-1.3-0.3L21,58
		c0.2-0.7,0.4-0.9,0.9-0.8C22.3,57.4,22.4,57.9,22.3,58.4z"/>
	<path id="path59_5_"  d="M46.7,94.5c0.6-0.3,1-0.9,1.1-1.5c0.2-1.3-0.9-2.3-2.1-2.5L44,90.2
		l-1,6.4l1.5,0.2l0.3-2.1l0.2,0l1.4,2.6l1.4-0.5l0,0l0.2,0L46.7,94.5L46.7,94.5z M46.3,92.8c-0.1,0.5-0.6,0.6-1,0.6l-0.2,0l0.2-1.4
		l0.2,0C46.2,92,46.3,92.3,46.3,92.8z"/>
	<path id="path61_5_"  d="M54.1,95.1L54.1,95.1c-0.3,0.6-0.7,0.8-1.3,0.8c-0.9,0-1.3-1-1.3-1.9
		c-0.1-0.9,0.2-1.9,1-2.1c0.5-0.1,0.9,0,1.3,0.4l0.8-1.1c-0.6-0.7-1.3-0.9-2.2-0.8c-1.5,0.1-2.6,1.9-2.4,3.6
		c0.1,1.7,1.3,3.4,2.9,3.2c0.9-0.1,1.5-0.4,2.1-1.1l0,0l0.1-0.1C55.1,96.1,54.1,95.1,54.1,95.1z"/>
	<path id="path63_4_"  class="st149" d="M19.9,65.7c0,0.7,0.6,1.2,1.4,1.2c0.8,0,1.4-0.5,1.4-1.2
		c0-0.7-0.6-1.2-1.4-1.2C20.5,64.5,19.9,65,19.9,65.7z"/>
	<path id="path65_4_"  class="st149" d="M76.8,65.7c0,0.7,0.6,1.2,1.4,1.2c0.8,0,1.4-0.5,1.4-1.2
		c0-0.7-0.6-1.2-1.4-1.2C77.5,64.5,76.8,65,76.8,65.7z"/>
	<path id="path67_4_"  class="st149" d="M23.9,53.9c1.4,0.8,3.4,0.7,4.2-0.8
		c0.4-0.8,0.5-1.6,0.2-2.4L27,50.9c0.2,0.5,0.2,1-0.1,1.5c-0.5,0.8-1.5,0.5-2.3,0.1c-0.8-0.4-1.5-1.2-1.1-2.1
		c0.2-0.5,0.6-0.8,1.1-0.9l-0.4-1.3c-0.9,0.2-1.4,0.7-1.9,1.5C21.6,51.2,22.5,53.1,23.9,53.9z"/>
	<path id="path69_5_"  class="st149" d="M31.7,48c1.2-1.3,1-3.4-0.3-4.5c-1.2-1.1-3.1-1.2-4.2,0
		l-1.4,1.6l4.4,4.5C30.3,49.6,31.7,48,31.7,48z M28.3,44.5c0.6-0.6,1.5-0.5,2.2,0.1c0.7,0.6,0.9,1.7,0.3,2.4l-0.4,0.4L27.9,45
		L28.3,44.5z"/>
	<polygon id="polygon71" class="st149" points="65.4,45.4 68.6,40 67.4,39.1 65.5,42.2 65.6,38 64.3,37.1 61.1,42.6 62.3,43.4 
		64.2,40.3 64.1,44.6 	"/>
	<path id="path73_5_"  class="st149" d="M58.1,40.6l0.1,1.4l1.5,0L59,35.3l-1.2-0.3l-3.6,5.6
		l1.4,0.7l0.7-1.2C56.2,40.1,58.1,40.6,58.1,40.6z M57.9,37.1l0.1,2l-1.1-0.3L57.9,37.1z"/>
	<path id="path75_3_"  class="st149" d="M50.4,38.6h0.2c1.3,0,2.6-0.9,2.6-2.3
		c0-1.4-1.3-2.3-2.6-2.3h-1.7v6.5h1.5C50.4,40.5,50.4,38.6,50.4,38.6z M50.4,35.5h0.2c0.5,0,1.1,0.3,1.1,0.9s-0.6,0.9-1.1,0.9h-0.2
		V35.5z"/>
	<path id="path77_4_"  class="st149" d="M44.5,38.5c0.3,0.1,0.6,0.2,0.6,0.5
		c0.1,0.3-0.1,0.6-0.4,0.7c-0.4,0.1-0.9,0-1.1-0.4l-0.7,1.3c0.6,0.6,1.4,0.7,2.1,0.5c1.1-0.2,1.8-1.3,1.6-2.5
		c-0.2-0.9-0.9-1.4-1.8-1.6L44.3,37c-0.5-0.1-0.8-0.2-0.8-0.6c0-0.2,0.2-0.5,0.4-0.5c0.3-0.1,0.7-0.1,0.9,0.1l0.7-1.2
		c-0.6-0.4-1.2-0.5-1.9-0.3c-0.9,0.2-1.7,1.2-1.5,2.2c0.2,1,1.1,1.4,2,1.7L44.5,38.5z"/>
	<polygon id="polygon79" class="st149" points="38.4,41.6 37.9,40.5 39.6,39.7 39,38.4 37.4,39.2 37,38.4 39,37.5 38.4,36.1 
		35.1,37.7 37.6,43.6 41,42 40.4,40.7 	"/>
	<polygon id="polygon81" class="st149" points="73.9,44.8 71.1,45.7 72.1,42.8 70.8,42 69.5,46.1 67.8,47.8 68.9,48.9 70.6,47.3 
		74.6,46.3 	"/>
	<path id="path83_2_"  class="st149" d="M72.3,53.7c0.8,1.5,2.8,1.6,4.2,0.8
		c1.4-0.9,2.3-2.7,1.5-4.2c-0.8-1.5-2.8-1.6-4.2-0.8C72.3,50.4,71.4,52.2,72.3,53.7z M74.5,50.9c0.9-0.5,1.8-0.7,2.3,0.1
		c0.4,0.8-0.2,1.6-1.1,2.1c-0.9,0.5-1.8,0.7-2.3-0.1C73,52.2,73.6,51.4,74.5,50.9z"/>
	<polygon id="polygon85_1_" class="st149" points="75.3,61.7 76.6,61.3 76.1,59.1 80.8,57.9 80.4,56.4 74.4,58 	"/>
	<path id="path87_2_"  class="st149" d="M23.4,75.6c1.6-0.5,2.6-2.1,2.2-3.7l-0.5-2.1l-6,1.6
		l0.5,2.1C20,75.1,21.8,76.1,23.4,75.6z M20.9,73.1l-0.1-0.6l3.3-0.9l0.1,0.6c0.2,0.8-0.4,1.6-1.2,1.9C22.2,74.4,21.2,74,20.9,73.1z
		"/>
	<polygon id="polygon89_1_" class="st149" points="27.8,80.4 29,79.7 27.3,76.4 21.9,79.6 23.7,83 24.9,82.3 23.8,80.2 24.9,79.6 
		25.7,81.3 26.9,80.6 26.1,78.9 26.8,78.5 	"/>
	<path id="path91_3_"  class="st149" d="M33.8,84.7l-1.3-1.1l-3.8,5.1l1.4,1.2c1,0.8,2.3,1,3,0.1
		c0.4-0.6,0.4-1.3,0-2c0.6,0.1,1.2,0,1.5-0.5C35.4,86.6,34.7,85.5,33.8,84.7L33.8,84.7z M32.1,88.9c-0.3,0.4-0.7,0.2-1.2-0.2
		l-0.2-0.2l0.7-1l0.2,0.2C32.2,88.2,32.4,88.5,32.1,88.9z M33.3,86.8c-0.2,0.3-0.5,0.2-0.9-0.1l-0.2-0.1l0.6-0.8l0.2,0.1
		C33.4,86.2,33.5,86.5,33.3,86.8z"/>
	<path id="path93_4_"  class="st149" d="M34.6,92.9l1.2,0.9l0.9-1l1.8,0.8L38.3,95l1.5,0.3l0.4-6.7
		L39.1,88L34.6,92.9L34.6,92.9z M38.7,92.1l-1-0.5l1.2-1.5L38.7,92.1z"/>
	<path id="path95_2_"  class="st149" d="M47.4,92.6c0.2-1.3-0.9-2.3-2.1-2.5l-1.7-0.3l-1,6.4
		l1.5,0.2l0.3-2.1l0.2,0l1.4,2.6l1.4-0.5l-1.3-2.3C46.9,93.9,47.3,93.3,47.4,92.6L47.4,92.6z M46,92.3c-0.1,0.5-0.6,0.6-1,0.6
		l-0.2,0l0.2-1.4l0.2,0C45.8,91.6,46,91.9,46,92.3z"/>
	<path id="path97_3_"  class="st149" d="M52.5,95.6c-0.9,0-1.3-1-1.3-1.9c-0.1-0.9,0.2-1.9,1-2.1
		c0.5-0.1,0.9,0,1.3,0.4l0.8-1.1c-0.6-0.7-1.3-0.9-2.2-0.8c-1.5,0.1-2.6,1.9-2.4,3.6c0.1,1.7,1.3,3.4,2.9,3.2
		c0.9-0.1,1.5-0.4,2.1-1.1l-1-1C53.4,95.4,53,95.6,52.5,95.6z"/>
	<polygon id="polygon99" class="st149" points="58.8,94.2 58.4,93 60.1,92.5 59.7,91.1 58,91.7 57.8,90.8 59.8,90.2 59.4,88.8 
		55.9,89.9 57.8,96.1 61.3,94.9 60.9,93.5 	"/>
	<path id="path101_3_"  class="st149" d="M67.3,83.5c-1.2,1.2-0.8,3.2,0.3,4.5
		c1.1,1.2,3.1,1.7,4.2,0.5c1.2-1.2,0.8-3.2-0.3-4.5C70.4,82.7,68.5,82.3,67.3,83.5z M70.9,87.4c-0.6,0.6-1.5,0.2-2.2-0.6
		c-0.7-0.8-1.1-1.7-0.5-2.4c0.6-0.6,1.5-0.2,2.2,0.6C71.1,85.8,71.5,86.8,70.9,87.4z"/>
	<polygon id="polygon103" class="st149" points="65.2,91.4 62.9,87 61.6,87.7 64.6,93.4 67.8,91.5 67.1,90.3 	"/>
	<path id="path105_3_"  class="st149" d="M79.7,71.7l1.3-0.1l0-1.6l-6.4,0.9l-0.3,1.3l5.5,3.6
		l0.6-1.4l-1.1-0.7L79.7,71.7L79.7,71.7z M78,73l-1.7-1l1.9-0.2L78,73z"/>
	<polygon id="polygon107" class="st149" points="71.5,78.8 70.7,80.2 76.1,83.3 76.8,81.9 73.8,80.2 77.9,80 78.6,78.7 73.2,75.5 
		72.5,76.9 75.5,78.7 	"/>
	<path id="path109_3_"  class="st149" d="M25.1,59.7l-2-0.5l0.1-0.2l2.6-1.3l-0.3-1.5l-2.3,1.2
		c-0.2-0.8-0.7-1.3-1.4-1.5c-1.2-0.3-2.3,0.7-2.6,2l-0.4,1.8l6,1.5C24.8,61.2,25.1,59.7,25.1,59.7z M21.9,58.7l-0.1,0.2l-1.3-0.3
		l0.1-0.2c0.2-0.7,0.4-0.9,0.9-0.8C21.8,57.7,22,58.2,21.9,58.7z"/>
	<path id="path111_2_"  class="st28" d="M57.9,44.4L29.2,74.5c0.6,1.5,1.4,2.9,2.3,4.2l30.7-32.1
		C60.8,45.7,59.4,45,57.9,44.4z"/>
	<path id="path113_3_"  class="st28" d="M27.5,63.5l19.4-20.3C36.5,44.6,28.5,53,27.5,63.5z"/>
	<path id="path115_2_"  class="st28" d="M68.5,52.6L37.8,84.8c1.3,0.8,2.8,1.6,4.2,2.1l28.8-30.1
		C70.2,55.3,69.4,53.9,68.5,52.6z"/>
	<path id="path117_2_"  class="st28" d="M72.5,67.8L53.1,88.1C63.5,86.7,71.5,78.3,72.5,67.8z"/>
	<path id="path119_1_"  class="st151" d="M62.2,46.5L31.5,78.7c1.7,2.4,3.9,4.5,6.4,6.1l30.7-32.1
		C66.8,50.2,64.7,48.1,62.2,46.5z"/>
	<path id="path121_3_"  class="st151" d="M72.6,65.7c0-3.1-0.6-6.1-1.8-8.9L42.1,86.9
		c2.5,0.9,5.1,1.4,7.9,1.4c1.1,0,2.1-0.1,3.1-0.2l19.4-20.3C72.6,67.1,72.6,66.4,72.6,65.7z"/>
	<path id="path123_2_"  class="st151" d="M50,43c-1.1,0-2.1,0.1-3.1,0.2L27.5,63.5
		c-0.1,0.7-0.1,1.4-0.1,2.2c0,3.1,0.6,6.1,1.8,8.9l28.8-30.1C55.5,43.5,52.8,43,50,43z"/>
</g>
</svg>
