<?xml version="1.0" encoding="utf-8"?>
<!-- Generator: Adobe Illustrator 19.2.1, SVG Export Plug-In . SVG Version: 6.00 Build 0)  -->
<svg version="1.1" id="Capa_1" xmlns="http://www.w3.org/2000/svg" xmlns:xlink="http://www.w3.org/1999/xlink" x="0px" y="0px"
	 viewBox="0 0 100 100" style="enable-background:new 0 0 100 100;" xml:space="preserve">
<style type="text/css">
	.st0{fill:url(#path34_4_);}
	.st1{fill:url(#path890_1_);}
	.st2{fill:#FFE500;stroke:#000000;stroke-width:2.098;stroke-miterlimit:3.863;}
	.st3{fill:#DA020E;}
	.st4{fill:#FFE500;}
	.st5{clip-path:url(#SVGID_2_);}
	.st6{fill:none;stroke:#B54005;stroke-width:10;stroke-miterlimit:3.863;}
	.st7{fill:url(#path7506_1_);}
	.st8{fill:url(#path8794_1_);}
	.st9{fill:url(#path15846_1_);}
	.st10{fill:url(#path16274_1_);}
	.st11{fill:url(#path39821_1_);}
	.st12{fill:url(#path39847_1_);}
	.st13{fill:url(#path39878_1_);}
	.st14{fill:url(#path39888_1_);}
	.st15{fill:url(#path41035_1_);}
	.st16{fill:url(#path9646-8_1_);}
	.st17{fill:url(#path41092_1_);}
	.st18{fill:url(#path41094_1_);}
	.st19{fill:none;stroke:#000000;stroke-width:2.098;stroke-miterlimit:3.863;}
	.st20{fill:url(#path41152_1_);}
	.st21{fill:url(#path39854_1_);}
	.st22{fill:url(#path39874_1_);}
	.st23{fill:#9C824A;stroke:#9C824A;stroke-width:0.793;stroke-miterlimit:282;}
	.st24{fill:#023474;stroke:#023474;stroke-width:0.793;stroke-miterlimit:282;}
	.st25{fill:#FFFFFF;stroke:#FFFFFF;stroke-width:0.793;stroke-miterlimit:282;}
	.st26{fill:#EF0107;stroke:#EF0107;stroke-width:0.793;stroke-miterlimit:282;}
	.st27{fill:#DB0007;stroke:#DB0007;stroke-width:0.793;stroke-miterlimit:282;}
	.st28{fill:#FFFFFF;}
	.st29{fill:#9C824A;}
	.st30{fill:#EF0107;stroke:#EF0107;stroke-width:0.3115;stroke-miterlimit:282;}
	.st31{fill:#DB0007;stroke:#DB0007;stroke-width:0.3115;stroke-miterlimit:282;}
	.st32{fill:#DB0007;}
	.st33{fill:#FFFFFF;stroke:#FFFFFF;stroke-width:0.3115;stroke-miterlimit:282;}
	.st34{fill:#FFFFFF;stroke:#FFFFFF;stroke-width:0.554;stroke-miterlimit:3.864;}
	.st35{fill:#231F20;}
	.st36{fill:#00B6F1;stroke:#00B6F1;stroke-width:1.700000e-02;stroke-miterlimit:3.864;}
	.st37{fill:#EF3E2E;}
	.st38{fill:#BBBDBF;}
	.st39{fill:#F0B83D;}
	.st40{fill:#00B6F1;stroke:#FFFFFF;stroke-width:1.700000e-02;stroke-miterlimit:3.864;}
	.st41{fill:#001C58;}
	.st42{fill:#94BEE5;}
	.st43{fill:none;stroke:#7A003C;stroke-width:2.2437;stroke-miterlimit:6;}
	.st44{fill:#7A003C;}
	.st45{fill:#FFE600;}
	.st46{fill:#DBA111;}
	.st47{fill:#034694;}
	.st48{fill:#D1D3D4;}
	.st49{fill:#ED1C24;}
	.st50{fill:#6A7AB5;}
	.st51{fill:none;}
	.st52{fill:#274488;}
	.st53{fill:#004798;stroke:#004798;stroke-width:9.375000e-02;}
	.st54{fill:#FFFFFF;stroke:#FFFFFF;stroke-width:9.375000e-02;}
	.st55{fill:#FABC00;stroke:#FABC00;stroke-width:9.375000e-02;}
	.st56{fill:none;stroke:#FFFFFF;stroke-width:7.865;stroke-miterlimit:3.864;}
	.st57{fill:none;stroke:#FFFFFF;stroke-width:7.865;stroke-miterlimit:12;}
	.st58{fill:none;stroke:#FFFFFF;stroke-width:7.865;stroke-miterlimit:22;}
	.st59{fill:none;stroke:#FFFFFF;stroke-width:7.865;stroke-miterlimit:6;}
	.st60{fill:#00A398;}
	.st61{fill:#D00027;}
	.st62{fill:none;stroke:#FFFFFF;stroke-width:17.3907;stroke-miterlimit:3.864;}
	.st63{fill:none;stroke:#FFFFFF;stroke-width:13.1107;stroke-miterlimit:3.864;}
	.st64{fill:#FEF667;}
	.st65{fill:#D00027;stroke:#D00027;}
	.st66{fill:#5299C6;}
	.st67{fill:#60223B;}
	.st68{fill:#F7C240;}
	.st69{fill:#292D6B;}
	.st70{fill:#1B458F;}
	.st71{fill:#C4122E;}
	.st72{fill:#27409B;}
	.st73{clip-path:url(#SVGID_4_);}
	.st74{fill:#F4F4F4;}
	.st75{fill:#D3D2D2;}
	.st76{fill:#A7A5A6;}
	.st77{fill:#091453;}
	.st78{fill:none;stroke:#FFFFFF;stroke-width:6.6301;}
	.st79{clip-path:url(#SVGID_6_);}
	.st80{fill:#724314;}
	.st81{fill:#240B08;}
	.st82{fill:#018B4B;}
	.st83{fill:#A6181D;}
	.st84{fill:#592D09;}
	.st85{fill:#FFCE65;}
	.st86{fill:#5CBFEB;}
	.st87{fill:none;stroke:#000000;stroke-width:10;}
	.st88{fill:none;stroke:#000000;}
	.st89{fill:#B2B2B2;}
	.st90{fill:none;stroke:#000000;stroke-width:0.3;}
	.st91{fill:#00A650;stroke:#000000;stroke-width:2;}
	.st92{fill:#241F20;stroke:#241F20;stroke-width:9.375000e-02;}
	.st93{fill:#FFF200;stroke:#FFF200;stroke-width:9.375000e-02;}
	.st94{fill:#A68A26;}
	.st95{fill:none;stroke:#A68A26;stroke-width:4.792100e-02;stroke-miterlimit:3.8637;}
	.st96{fill:#211E1E;}
	.st97{fill:none;stroke:#211E1E;stroke-width:4.792100e-02;stroke-miterlimit:3.8637;}
	.st98{fill:#EB172B;}
	.st99{fill:none;stroke:#EB172B;stroke-width:4.792100e-02;stroke-miterlimit:3.8637;}
	.st100{fill:#A68A26;stroke:#A68A26;stroke-width:4.792100e-02;stroke-miterlimit:3.8637;}
	.st101{fill:#D1BF7F;}
	.st102{fill:none;stroke:#D1BF7F;stroke-width:4.792100e-02;stroke-miterlimit:3.8637;}
	.st103{fill:none;stroke:#FFFFFF;stroke-width:4.792100e-02;stroke-miterlimit:3.8637;}
	.st104{fill:#EB172B;stroke:#EB172B;stroke-width:4.792100e-02;stroke-miterlimit:3.8637;}
	.st105{fill:#ED2127;}
	.st106{fill:#FBEE23;}
	.st107{stroke:#000000;}
	.st108{fill:#CF1F44;}
	.st109{fill:#1B449C;}
	.st110{fill:#E03A3E;}
	.st111{fill:#E03A3E;stroke:#E03A3E;stroke-width:0.6565;}
	.st112{fill:none;stroke:#1B449C;stroke-width:0.7493;}
	.st113{fill:none;stroke:#1B449C;stroke-width:0.7567;}
	.st114{fill:#1B449C;stroke:#1B449C;stroke-width:0.6274;}
	.st115{fill:#1B449C;stroke:#1B449C;stroke-width:0.6755;}
	.st116{fill:#2E6ABD;stroke:#2E6ABD;stroke-width:0.617;}
	.st117{fill:#FFFFFF;stroke:#FFFFFF;stroke-width:0.6175;}
	.st118{fill:#ED1248;}
	.st119{fill:#2E6ABD;}
	.st120{fill:#FDE100;}
	.st121{fill:#CC0000;}
	.st122{fill:#211E1F;}
	.st123{fill:#ED1A3B;}
	.st124{fill:#00AEEF;}
	.st125{fill:#FFC40D;}
	.st126{fill:#22B24C;}
	.st127{fill:#FFC20E;}
	.st128{fill:#0A3F86;}
	.st129{fill:#005CA9;}
	.st130{fill:#FFE000;}
	.st131{fill:#E2001A;}
	.st132{opacity:0;}
	.st133{opacity:0;fill:#FFFFFF;}
	.st134{fill:#FFFFFF;stroke:#000000;}
	.st135{fill:#0060A9;}
	.st136{fill:#E32219;}
	.st137{fill:#FFED00;}
	.st138{fill:#1D9053;}
	.st139{fill:#52A600;}
	.st140{fill:#EE2523;}
	.st141{fill:#F7D117;}
	.st142{fill:#171796;}
	.st143{fill:#009959;}
	.st144{fill:#D42E12;}
	.st145{fill:#703824;}
	.st146{fill:#E5254E;}
	.st147{fill:#8AC3EE;}
	.st148{fill:#B19221;}
	.st149{fill:#F5C03E;}
	.st150{fill:#FF1119;}
	.st151{fill:#1E6BC0;}
	.st152{fill:#B4742A;}
	.st153{fill:#371B02;}
	.st154{fill:url(#SVGID_7_);}
	.st155{fill:url(#SVGID_8_);}
	.st156{fill:url(#SVGID_9_);}
	.st157{fill:url(#SVGID_10_);}
	.st158{fill:url(#SVGID_11_);}
	.st159{fill:url(#SVGID_12_);}
	.st160{fill:url(#SVGID_13_);}
	.st161{fill:url(#SVGID_14_);}
	.st162{fill:url(#SVGID_15_);}
	.st163{fill:url(#SVGID_16_);}
	.st164{fill:#EB2626;}
	.st165{fill:#E9C32C;}
	.st166{fill:#D9D9D9;}
	.st167{fill:#009C5E;}
	.st168{fill:#1C75BC;}
	.st169{fill:#611D5C;}
	.st170{fill:#E2B900;}
	.st171{fill:#004B95;}
	.st172{fill:#A4234B;}
	.st173{fill:#DB2F36;}
	.st174{fill:#FFDF00;}
	.st175{fill:#A38D44;}
	.st176{fill:#57175E;}
	.st177{fill:#AFDCFD;}
	.st178{fill:#0090C6;}
	.st179{fill:#DB5232;}
	.st180{fill:#23C1E0;}
	.st181{fill:#F1A92A;}
	.st182{fill:#167FB6;}
	.st183{fill:#FED75D;}
	.st184{fill:#378CBF;}
	.st185{fill:#3E9692;}
	.st186{fill:#E67F29;}
	.st187{fill:#D8B43C;}
	.st188{fill:#EF3B33;}
	.st189{fill:#24923D;}
	.st190{opacity:6.000001e-02;fill:#101010;enable-background:new    ;}
	.st191{fill:#00529F;}
	.st192{fill:#EE324E;}
	.st193{fill:#FEBE10;}
	.st194{fill:#143C8B;}
	.st195{fill:#FFE24A;}
	.st196{fill:#EC1D24;}
	.st197{fill:#E6A514;}
	.st198{fill:#FFDF1C;}
	.st199{fill:#EE3524;}
	.st200{fill:#B23428;}
	.st201{fill:#D18816;}
	.st202{fill:#0097D7;}
	.st203{fill:#ED1C23;}
	.st204{fill:#E30613;}
	.st205{fill:#FFE400;}
	.st206{fill:#C51A1B;}
	.st207{clip-path:url(#SVGID_19_);}
	.st208{clip-path:url(#SVGID_20_);fill:none;stroke:#000000;stroke-width:0.8131;stroke-miterlimit:3.864;}
	.st209{fill:#0093D5;}
	.st210{fill:#004B9D;}
	.st211{fill:#FCC24F;}
	.st212{fill:#009545;}
	.st213{fill:#0072BB;}
	.st214{fill:#C4974E;}
	.st215{fill:url(#path1292_1_);}
	.st216{fill:#004996;}
	.st217{fill:#FFE667;}
	.st218{fill:none;stroke:#005187;stroke-width:0.153;stroke-miterlimit:3.864;}
	.st219{fill:#005187;}
	.st220{clip-path:url(#SVGID_22_);}
	.st221{clip-path:url(#SVGID_24_);fill:none;stroke:#000000;stroke-width:0.296;stroke-miterlimit:3.864;}
	.st222{clip-path:url(#SVGID_26_);fill:#FFE667;}
	.st223{clip-path:url(#SVGID_28_);fill:none;stroke:#000000;stroke-width:8.300000e-02;stroke-miterlimit:3.864;}
	.st224{fill:none;stroke:#000000;stroke-width:0.153;stroke-miterlimit:3.864;}
	.st225{clip-path:url(#SVGID_30_);fill:#E70005;}
	.st226{clip-path:url(#SVGID_32_);fill:none;stroke:#E70005;stroke-width:0.296;stroke-miterlimit:3.864;}
	.st227{clip-path:url(#SVGID_34_);fill:#E70005;}
	.st228{clip-path:url(#SVGID_36_);fill:none;stroke:#E70005;stroke-width:0.296;stroke-miterlimit:3.864;}
	.st229{clip-path:url(#SVGID_38_);fill:#E70005;}
	.st230{clip-path:url(#SVGID_40_);fill:none;stroke:#E70005;stroke-width:0.296;stroke-miterlimit:3.864;}
	.st231{clip-path:url(#SVGID_42_);fill:#E70005;}
	.st232{clip-path:url(#SVGID_44_);fill:none;stroke:#E70005;stroke-width:0.296;stroke-miterlimit:3.864;}
	.st233{fill:#E70005;}
	.st234{fill:none;stroke:#000000;stroke-width:0.141;stroke-miterlimit:3.864;}
	.st235{fill:#00276D;}
	.st236{fill:#C49308;}
	.st237{fill:#179D33;}
	.st238{fill:#999999;}
	.st239{fill:#FF0000;}
	.st240{fill:#E31837;}
	.st241{fill:#06357A;}
	.st242{fill:#B4053F;}
	.st243{fill:#DCA43E;}
	.st244{fill:#005CA5;}
	.st245{fill:#FAC400;}
	.st246{fill:#004083;}
	.st247{fill:#A95932;}
	.st248{fill:none;stroke:#000000;stroke-width:1.2215;}
	.st249{fill:#E62627;}
	.st250{fill:#00458C;}
	.st251{fill:#E11B22;}
	.st252{fill:#00AB4E;}
	.st253{fill:#F47920;}
	.st254{fill:#C7C8CA;}
	.st255{fill:#E11515;}
	.st256{fill:#A4965F;}
	.st257{fill:#E51636;}
	.st258{fill:#EACC00;}
	.st259{fill:#4F846B;}
	.st260{fill:#E22227;}
	.st261{fill:#FAE700;}
	.st262{fill:url(#SVGID_45_);}
	.st263{fill:#666666;}
	.st264{fill:#FFF200;}
	.st265{fill:#00275D;}
	.st266{fill:#EF3E33;}
	.st267{fill:none;stroke:#00275D;stroke-width:2.632;}
	.st268{fill:#3F7652;}
	.st269{fill:#F1D261;}
	.st270{fill:#004D8F;}
	.st271{fill:#E7B137;stroke:#E7B137;stroke-miterlimit:10;}
	.st272{fill:#E7B137;}
	.st273{fill:#162577;}
	.st274{fill:#12692C;}
	.st275{fill:#D8141D;}
	.st276{fill:#AB830D;}
	.st277{fill:#0086CB;}
	.st278{fill:#001F42;}
	.st279{fill:#9A8F4A;}
	.st280{fill:#00559D;}
	.st281{fill:#FDDE00;}
	.st282{fill:#00924C;}
	.st283{fill:#233984;}
	.st284{fill:#FFD42E;}
	.st285{fill:#BA3733;}
	.st286{fill:#46714D;}
	.st287{fill:#221F1F;}
	.st288{fill:#00559E;}
	.st289{fill:#005C46;}
	.st290{fill:#FBC860;}
	.st291{fill:#D57C48;}
	.st292{fill:#040403;}
	.st293{fill:#4AB969;}
	.st294{fill:#8ED8F8;}
	.st295{fill:#FEC34E;}
	.st296{fill:#FFC95B;}
	.st297{fill:#00644C;}
	.st298{fill:#70B865;}
	.st299{fill:#CA6F44;}
	.st300{fill:#A8B8BE;}
	.st301{fill:#1C2C80;}
	.st302{fill:#E10321;}
	.st303{fill:none;stroke:#231F20;stroke-width:0.318;stroke-miterlimit:3.864;}
	.st304{fill:#D71920;}
	.st305{fill:#484749;}
	.st306{fill:#D9DBDC;}
	.st307{fill:#DF725A;}
	.st308{fill:#F2CABA;}
	.st309{fill:#E89C84;}
	.st310{fill:#264F99;}
	.st311{clip-path:url(#SVGID_47_);}
	.st312{fill:#161413;}
	.st313{fill:#ED1B26;}
	.st314{fill:#E60D2E;}
	.st315{fill:#FCD600;}
	.st316{fill:#004D91;}
	.st317{fill:#EAB412;}
	.st318{fill:#FDD31D;}
	.st319{fill:#EFB800;}
</style>
<g>
	<path d="M64,0.8c-4.6,3.2-9,4.7-14,4.7c-4.9,0-9.4-1.5-14-4.7L34.8,0l-1.2,0.8c-5.2,3.4-9.4,4.1-15.9,4.1c-2.2,0-4.6-0.4-6.9-1.2
		L9.3,3.1L8.4,4.5C7.9,5.2,7.5,5.6,7.1,6.1c-0.4,0.5-0.9,1-1.3,1.8L5,9.1l0.9,1.2c3.9,5.2,5.4,10.6,5.4,15.7
		c0,9.5-5.2,17.8-9.2,22.1l-1.5,1.5l1.5,1.5c0.8,0.8,2.2,2.3,3.4,3.5c0,0,0,0.7,0,0.7l0,0.1c0,0.9-0.1,1.8-0.1,2.7
		c0,9.6,2.8,17.6,8.5,23.8C20.4,89,30.5,93.3,42.6,94c3,2.7,6,5,6.2,5.1l1.3,1l1.3-1c0.1-0.1,3.2-2.4,6.1-5.1
		c12-0.7,22.2-4.9,28.7-12.1c5.6-6.2,8.5-14.2,8.5-23.8c0-0.9,0-1.8-0.1-2.7l0,0l0-0.1c0,0,0-0.6,0-0.6c1.1-1.2,2.6-2.7,3.4-3.5
		l1.5-1.5l-1.5-1.5c-4.1-4.2-9.2-12.6-9.2-22.1c0-5.1,1.5-10.5,5.4-15.7L95,9.1l-0.8-1.3c-0.5-0.8-0.9-1.3-1.3-1.8
		c-0.4-0.4-0.7-0.9-1.2-1.6l-0.9-1.3l-1.5,0.5c-2.3,0.8-4.7,1.2-6.9,1.2c-6.5,0-10.7-0.6-15.9-4.1L65.2,0L64,0.8z"/>
	<path class="st170" d="M50,97.3c0,0-3.4-2.5-6.5-5.5C23.1,91,6.3,79.6,7.6,55.5c0.1-0.6,0-0.6,0.1-1.7c-1.2-1.2-3.1-3.2-4.1-4.3
		C10.9,42,19.4,24.7,7.6,9C8.4,7.8,9,7.3,10.1,5.7c2.4,0.8,5,1.3,7.6,1.3c6.8,0,11.4-0.7,17.1-4.4c4.5,3.1,9.4,5.1,15.2,5.1
		c5.8,0,10.7-2,15.2-5.1C70.9,6.4,75.5,7,82.3,7c2.6,0,5.3-0.5,7.6-1.3C91,7.3,91.6,7.8,92.4,9c-11.8,15.7-3.3,33,4,40.5
		c-1,1-2.9,3-4.1,4.3c0.1,1.1,0,1,0.1,1.7C93.7,79.6,76.9,91,56.5,91.9C53.4,94.8,50,97.3,50,97.3L50,97.3z"/>
	<path d="M11.5,54.1h-0.3l-0.1,1L11,55.8c-0.5,9.3,1.8,16.8,6.9,22.3c5.8,6.3,15.2,10,27.1,10.5c0,0,0.2,0,0.2,0c3.6,0,7,0,9.9,0
		c12-0.5,21.3-4.1,27.1-10.5c5-5.5,7.4-13,6.9-22.3c0,0-0.1-0.7-0.1-0.7l-0.1-1l-0.3,0L11.5,54.1L11.5,54.1z"/>
	<path class="st171" d="M11.8,54.7c0,0.2-0.1,0.5-0.1,0.5s-0.1,0.6-0.1,0.6c0,0.8-0.1,1.5-0.1,2.3c0,8.1,2.3,14.6,6.8,19.6
		c1.1,1.2,2.3,2.3,3.6,3.2V54.7C15.9,54.7,11.9,54.7,11.8,54.7z"/>
	<path class="st171" d="M88.4,55.8l-0.1-0.6c0,0,0-0.3-0.1-0.5c-0.1,0-4.1,0-10.2,0v26.2c1.3-1,2.5-2.1,3.6-3.2
		c4.5-4.9,6.8-11.5,6.8-19.6C88.4,57.4,88.4,56.6,88.4,55.8z"/>
	<path class="st172" d="M33.2,54.7c-4.2,0-8,0-11.2,0v26.2c3.1,2.3,6.9,4.1,11.2,5.3V54.7z"/>
	<path class="st172" d="M66.8,54.7v31.5c4.3-1.2,8.1-2.9,11.2-5.3V54.7C74.8,54.7,71,54.7,66.8,54.7z"/>
	<path class="st171" d="M39.2,70.8c0-3.9,2.1-7.3,5.1-9.2v-7c-3.9,0-7.7,0-11.2,0v31.5c3.4,0.9,7.2,1.5,11.2,1.7V80
		C41.3,78.1,39.2,74.7,39.2,70.8z"/>
	<path class="st171" d="M55.6,54.7v7c3.1,1.9,5.1,5.3,5.1,9.2c0,3.9-2.1,7.3-5.1,9.2v7.9c4.1-0.2,7.8-0.8,11.2-1.7V54.7
		C63.3,54.7,59.5,54.7,55.6,54.7z"/>
	<path class="st172" d="M55.6,61.7v-7c-3.7,0-7.5,0-11.2,0v7c1.6-1,3.6-1.6,5.6-1.6C52.1,60.1,54,60.7,55.6,61.7z"/>
	<path class="st172" d="M44.4,80v7.9c0.2,0,0.4,0,0.6,0l0.2,0c3.6,0,7,0,9.8,0c0.2,0,0.4,0,0.6,0V80c-1.6,1-3.6,1.6-5.6,1.6
		C47.9,81.6,46,81,44.4,80z"/>
	<path class="st170" d="M44.5,72.8c-1.9-1.8-2-5.4-1.4-7.8c0.1-0.7,0.3-1.3,0.5-2.1c-2.3,1.9-3.7,4.7-3.7,7.9c0,1.3,0.3,2.6,0.7,3.8
		c0.2,0,0.3,0,0.5,0C42.6,74.7,43.8,74,44.5,72.8L44.5,72.8z"/>
	<path class="st170" d="M55,73.6c-0.3,1.7-2.2,3-3.9,4c-1.8,1.1-4.6,1.6-6.8,1.7C46,80.4,47.9,81,50,81c3.8,0,7.2-2.1,8.9-5.2
		C58.6,73.2,56.2,73,55,73.6L55,73.6z"/>
	<path class="st170" d="M43.5,78.7c2.1,0,5.4-0.5,7.2-1.6c2.4-1.4,4.3-3,3.4-5.1c-0.4-1.1-1.9-2.3-3.9-0.9c-0.1,1.6-2.1,3-3.5,2.8
		c-0.7-0.1-1.3-0.3-1.8-0.6c-0.8,1.4-2.2,2.1-3.9,2.1c-0.1,0-0.2,0-0.2,0C41.5,76.6,42.4,77.8,43.5,78.7L43.5,78.7z"/>
	<path class="st170" d="M50,64.5c1.7-0.7,4,0.2,5.8,1.2c1.7,0.9,3.4,2.7,4.4,4.5c-0.3-5.3-4.7-9.5-10-9.5
		C48.5,61.7,48.7,63.7,50,64.5L50,64.5z"/>
	<path class="st170" d="M49.7,71c-2.1-1.5-2-3.9-1.1-5.3c0.2-0.3,0.5-0.6,0.8-0.8c-1.2-1-1.5-2.8-0.3-4.1c-1.7,0.2-3.4,0.7-4.8,1.7
		c-0.4,1.9-1,3.6-1,5.6c0,2.7,1.1,4.9,3.5,5.2C48,73.4,49.6,72.2,49.7,71L49.7,71z"/>
	<path class="st170" d="M60.1,71.8c-0.6-2.1-2.7-4.4-4.7-5.5c-2.5-1.4-5.1-2.1-6.3-0.2c-0.8,1.2-0.9,3.2,0.9,4.5
		c2.3-1.6,4.2,0,4.7,1.2c0.2,0.4,0.3,0.8,0.3,1.2c1.4-0.5,3.6-0.2,4.3,2C59.7,73.9,60,72.9,60.1,71.8L60.1,71.8z"/>
	<path d="M40.7,42.4h-7.1v10h2.2c0,0,0-3.9,0-4.1c0.2,0,2.9,0,2.9,0v-2.1c0,0-2.8,0-2.9,0c0-0.2,0-1.5,0-1.6c0.2,0,5,0,5,0v-2.1
		L40.7,42.4L40.7,42.4z"/>
	<path d="M44.9,47.3c0,3.1,1.7,5.1,4.4,5.1c1.7,0,3-0.8,3.7-2.3l0-0.1l-1.8-1.1l-0.1,0.1c-0.5,0.9-1,1.2-1.8,1.2
		c-1.3,0-2.2-1.2-2.2-3c0-1.8,0.8-3,2.2-3c0.8,0,1.3,0.3,1.7,1l0,0.1l2-0.9l0-0.1c-0.7-1.5-2-2.2-3.7-2.2
		C46.7,42.2,44.9,44.3,44.9,47.3z"/>
	<path d="M65.1,46.9c0.6-0.4,1-1.1,1-1.9c0-1.7-1.2-2.7-3.2-2.7h-4.5h-0.1v10h4.5c2.2,0,3.6-1.2,3.6-3.3
		C66.3,48.1,65.9,47.4,65.1,46.9z M60.3,44.4c0.2,0,2.4,0,2.4,0c1,0,1.1,0.4,1.1,0.8c0,0.5-0.3,0.8-1,0.8c0,0-2.3,0-2.5,0
		C60.3,45.8,60.3,44.5,60.3,44.4z M62.8,50.3c0,0-2.3,0-2.5,0c0-0.2,0-2.1,0-2.3c0.2,0,2.5,0,2.5,0c0.9,0,1.3,0.4,1.3,1.2
		C64.1,49.9,63.7,50.3,62.8,50.3z"/>
	<path d="M65.1,6.7C60.3,9.6,55.3,11,50,11c-5.3,0-10.3-1.4-15.1-4.4l-0.2-0.1l-0.2,0.1c-5.5,3.1-10.4,3.7-16.9,3.7
		c-1.6,0-3.2-0.2-4.8-0.5l-0.7-0.1l0.4,0.6c6.7,11.4,4.3,22.5,1.1,29.8l-0.2,0.5h72.9l-0.2-0.5c-3.2-7.3-5.5-18.3,1.1-29.8l0.4-0.6
		l-0.7,0.1c-1.6,0.3-3.2,0.5-4.8,0.5c-6.5,0-11.4-0.6-16.9-3.7l-0.2-0.1L65.1,6.7z"/>
	<path class="st28" d="M27.6,10.1c-3.1,0.7-6.2,0.9-9.9,0.9c-1.4,0-2.8-0.1-4.3-0.4c1.7,3.1,2.8,6.1,3.4,9c4,0,10.6,0,10.8,0
		C27.6,19.5,27.6,14.4,27.6,10.1z"/>
	<path class="st28" d="M49.7,19.7v-8c-3.9,0-7.5-0.8-11.1-2.4c0,4.4,0,10.2,0,10.4C38.7,19.7,44,19.7,49.7,19.7z"/>
	<path class="st28" d="M17.2,30.6c-0.5,3.5-1.5,6.7-2.7,9.4c0.3,0,5.5,0,13.1,0c0-4,0-9.2,0-9.4C27.5,30.6,21.2,30.6,17.2,30.6z"/>
	<path class="st28" d="M38.6,40c3.6,0,7.3,0,11.1,0v-9.4c-5.7,0-11,0-11.1,0C38.6,30.8,38.6,36,38.6,40z"/>
	<path class="st173" d="M38.6,19.7c0-0.1,0-6,0-10.4c-1.3-0.6-2.6-1.2-3.8-2c-2.4,1.4-4.7,2.2-7.1,2.8c0,4.2,0,9.4,0,9.5
		c-0.2,0-6.8,0-10.8,0c0.5,2.1,0.7,4.2,0.7,6.3c0,1.6-0.1,3.2-0.3,4.7c4,0,10.3,0,10.5,0c0,0.1,0,5.4,0,9.4c3.3,0,7,0,10.9,0
		c0-4,0-9.2,0-9.4c0.1,0,5.4,0,11.1,0V19.7C44,19.7,38.7,19.7,38.6,19.7z"/>
	<path class="st174" d="M65.3,7.3C65.3,7.3,65.2,7.3,65.3,7.3l0,32.7c1.3,0,2.6,0,3.8,0V9.1C67.8,8.6,66.6,8.1,65.3,7.3z"/>
	<path class="st174" d="M57.5,10.7V40c1.3,0,2.6,0,3.8,0V9.3C60.1,9.9,58.8,10.3,57.5,10.7z"/>
	<path class="st174" d="M50.3,11.7V40c1.1,0,2.3,0,3.4,0V11.4C52.6,11.6,51.5,11.7,50.3,11.7z"/>
	<path class="st174" d="M72.9,10.3V40c1.4,0,2.7,0,3.8,0V10.8C75.5,10.7,74.2,10.5,72.9,10.3z"/>
	<path class="st174" d="M82.5,25.9c0-4.8,1.1-10,4.1-15.3c-1.4,0.2-2.9,0.4-4.3,0.4c-0.6,0-1.1,0-1.6,0v29c2.9,0,4.7,0,4.8,0
		C83.9,36.1,82.5,31.3,82.5,25.9z"/>
	<path class="st173" d="M76.8,10.8V40c1.4,0,2.7,0,3.8,0V11C79.3,11,78,10.9,76.8,10.8z"/>
	<path class="st173" d="M53.7,11.4V40c1.3,0,2.6,0,3.8,0V10.7C56.3,11,55,11.3,53.7,11.4z"/>
	<path class="st173" d="M61.4,9.3V40c1.3,0,2.6,0,3.8,0V7.3C64,8.1,62.7,8.8,61.4,9.3z"/>
	<path class="st173" d="M69.1,9.1V40c1.3,0,2.6,0,3.8,0V10.3C71.6,10,70.4,9.6,69.1,9.1z"/>
</g>
</svg>
