<?xml version="1.0" encoding="utf-8"?>
<!-- Generator: Adobe Illustrator 19.2.1, SVG Export Plug-In . SVG Version: 6.00 Build 0)  -->
<svg version="1.1" id="Capa_1" xmlns="http://www.w3.org/2000/svg" xmlns:xlink="http://www.w3.org/1999/xlink" x="0px" y="0px"
	 viewBox="0 0 100 100" style="enable-background:new 0 0 100 100;" xml:space="preserve">
<style type="text/css">
	.st0{fill:#9C824A;stroke:#9C824A;stroke-width:0.793;stroke-miterlimit:282;}
	.st1{fill:#023474;stroke:#023474;stroke-width:0.793;stroke-miterlimit:282;}
	.st2{fill:#FFFFFF;stroke:#FFFFFF;stroke-width:0.793;stroke-miterlimit:282;}
	.st3{fill:#EF0107;stroke:#EF0107;stroke-width:0.793;stroke-miterlimit:282;}
	.st4{fill:#DB0007;stroke:#DB0007;stroke-width:0.793;stroke-miterlimit:282;}
	.st5{fill:#FFFFFF;}
	.st6{fill:#9C824A;}
	.st7{fill:#EF0107;stroke:#EF0107;stroke-width:0.3115;stroke-miterlimit:282;}
	.st8{fill:#DB0007;stroke:#DB0007;stroke-width:0.3115;stroke-miterlimit:282;}
	.st9{fill:#DB0007;}
	.st10{fill:#FFFFFF;stroke:#FFFFFF;stroke-width:0.3115;stroke-miterlimit:282;}
	.st11{fill:#FFFFFF;stroke:#FFFFFF;stroke-width:0.554;stroke-miterlimit:3.864;}
	.st12{fill:#231F20;}
	.st13{fill:#00B6F1;}
	.st14{fill:#EF3E2E;}
	.st15{fill:#BBBDBF;}
	.st16{fill:#F0B83D;}
	.st17{fill:#001C58;}
	.st18{fill:#94BEE5;}
	.st19{fill:none;stroke:#7A003C;stroke-width:2.2437;stroke-miterlimit:6;}
	.st20{fill:#7A003C;}
	.st21{fill:#FFE600;}
	.st22{fill:#DBA111;}
	.st23{fill:#034694;}
	.st24{fill:#D1D3D4;}
	.st25{fill:#ED1C24;}
	.st26{fill:#6A7AB5;}
	.st27{fill:none;}
	.st28{fill:#274488;}
	.st29{fill:#004798;stroke:#004798;stroke-width:9.375000e-02;}
	.st30{fill:#FFFFFF;stroke:#FFFFFF;stroke-width:9.375000e-02;}
	.st31{fill:#FABC00;stroke:#FABC00;stroke-width:9.375000e-02;}
	.st32{fill:#5299C6;}
	.st33{fill:#60223B;}
	.st34{fill:#F7C240;}
	.st35{fill:#292D6B;}
	.st36{fill:#1B458F;}
	.st37{fill:#C4122E;}
	.st38{fill:#27409B;}
	.st39{clip-path:url(#SVGID_2_);fill:#FFFFFF;}
	.st40{fill:#F4F4F4;}
	.st41{fill:#D3D2D2;}
	.st42{fill:#A7A5A6;}
	.st43{fill:#091453;}
	.st44{fill:none;stroke:#FFFFFF;stroke-width:6.6301;}
	.st45{clip-path:url(#SVGID_4_);}
	.st46{fill:#724314;}
	.st47{fill:#240B08;}
	.st48{fill:#018B4B;}
	.st49{fill:#A6181D;}
	.st50{fill:#592D09;}
	.st51{fill:#FFCE65;}
	.st52{fill:#5CBFEB;}
	.st53{fill:none;stroke:#000000;stroke-width:10;}
	.st54{fill:none;stroke:#000000;}
	.st55{fill:#B2B2B2;}
	.st56{fill:none;stroke:#000000;stroke-width:0.3;}
	.st57{fill:#00A650;stroke:#000000;stroke-width:2;}
	.st58{fill:#241F20;stroke:#241F20;stroke-width:9.375000e-02;}
	.st59{fill:#FFF200;stroke:#FFF200;stroke-width:9.375000e-02;}
	.st60{fill:#A68A26;}
	.st61{fill:none;stroke:#A68A26;stroke-width:4.792100e-02;stroke-miterlimit:3.8637;}
	.st62{fill:#211E1E;}
	.st63{fill:none;stroke:#211E1E;stroke-width:4.792100e-02;stroke-miterlimit:3.8637;}
	.st64{fill:#EB172B;}
	.st65{fill:none;stroke:#EB172B;stroke-width:4.792100e-02;stroke-miterlimit:3.8637;}
	.st66{fill:#A68A26;stroke:#A68A26;stroke-width:4.792100e-02;stroke-miterlimit:3.8637;}
	.st67{fill:#D1BF7F;}
	.st68{fill:none;stroke:#D1BF7F;stroke-width:4.792100e-02;stroke-miterlimit:3.8637;}
	.st69{fill:none;stroke:#FFFFFF;stroke-width:4.792100e-02;stroke-miterlimit:3.8637;}
	.st70{fill:#EB172B;stroke:#EB172B;stroke-width:4.792100e-02;stroke-miterlimit:3.8637;}
	.st71{fill:#ED2127;}
	.st72{fill:#FBEE23;}
	.st73{stroke:#000000;}
	.st74{fill:#CF1F44;}
	.st75{fill:#1B449C;}
	.st76{fill:#E03A3E;}
	.st77{fill:#2E6ABD;stroke:#2E6ABD;stroke-width:0.617;}
	.st78{fill:#FFFFFF;stroke:#FFFFFF;stroke-width:0.6175;}
	.st79{fill:#ED1248;}
	.st80{fill:#2E6ABD;}
	.st81{fill:#FDE100;}
	.st82{fill:#CC0000;}
	.st83{fill:#211E1F;}
	.st84{fill:#ED1A3B;}
	.st85{fill:#00AEEF;}
	.st86{fill:#FFC40D;}
	.st87{fill:#22B24C;}
	.st88{fill:#FFC20E;}
	.st89{fill:#0A3F86;}
	.st90{fill:#005CA9;}
	.st91{fill:#0060A9;}
	.st92{fill:#E32219;}
	.st93{fill:#FFED00;}
	.st94{fill:#1D9053;}
	.st95{fill:#52A600;}
	.st96{fill:#EE2523;}
	.st97{fill:#F7D117;}
	.st98{fill:#171796;}
	.st99{fill:#009959;}
	.st100{fill:#D42E12;}
	.st101{fill:#703824;}
	.st102{fill:#E5254E;}
	.st103{fill:#8AC3EE;}
	.st104{fill:#B19221;}
	.st105{fill:#F5C03E;}
	.st106{fill:#FF1119;}
	.st107{fill:#1E6BC0;}
	.st108{fill:#B4742A;}
	.st109{fill:#371B02;}
	.st110{fill:url(#SVGID_5_);}
	.st111{fill:url(#SVGID_6_);}
	.st112{fill:url(#SVGID_7_);}
	.st113{fill:url(#SVGID_8_);}
	.st114{fill:url(#SVGID_9_);}
	.st115{fill:url(#SVGID_10_);}
	.st116{fill:url(#SVGID_11_);}
	.st117{fill:url(#SVGID_12_);}
	.st118{fill:url(#SVGID_13_);}
	.st119{fill:url(#SVGID_14_);}
	.st120{fill:#EB2626;}
	.st121{fill:#E9C32C;}
	.st122{fill:#D9D9D9;}
	.st123{fill:#009C5E;}
	.st124{fill:#1C75BC;}
	.st125{fill:#611D5C;}
	.st126{fill:#E2B900;}
	.st127{fill:#004B95;}
	.st128{fill:#A4234B;}
	.st129{fill:#DB2F36;}
	.st130{fill:#FFDF00;}
	.st131{fill:#23C1E0;}
	.st132{fill:#F1A92A;}
	.st133{fill:#167FB6;}
	.st134{fill:#FED75D;}
	.st135{fill:#378CBF;}
	.st136{fill:#3E9692;}
	.st137{fill:#E67F29;}
	.st138{fill:#D8B43C;}
	.st139{fill:#EF3B33;}
	.st140{fill:#24923D;}
	.st141{opacity:6.000001e-02;fill:#101010;enable-background:new    ;}
	.st142{fill:#00529F;}
	.st143{fill:#EE324E;}
	.st144{fill:#FEBE10;}
	.st145{fill:#143C8B;}
	.st146{fill:#FFE24A;}
	.st147{fill:#EC1D24;}
	.st148{fill:#E6A514;}
	.st149{fill:#FFDF1C;}
	.st150{fill:#EE3524;}
	.st151{fill:#B23428;}
	.st152{fill:#D18816;}
	.st153{fill:#0097D7;}
	.st154{fill:#ED1C23;}
	.st155{fill:#E30613;}
	.st156{fill:#FFE400;}
	.st157{fill:#C51A1B;}
	.st158{clip-path:url(#SVGID_17_);}
	.st159{clip-path:url(#SVGID_18_);fill:none;stroke:#000000;stroke-width:0.8131;stroke-miterlimit:3.864;}
	.st160{fill:#0093D5;}
	.st161{fill:#004B9D;}
	.st162{fill:#FCC24F;}
	.st163{fill:#009545;}
	.st164{fill:#0072BB;}
	.st165{fill:#C4974E;}
	.st166{fill:url(#path1292_1_);}
	.st167{fill:#004996;}
	.st168{fill:#FFE667;}
	.st169{fill:none;stroke:#005187;stroke-width:0.153;stroke-miterlimit:3.864;}
	.st170{fill:#005187;}
	.st171{clip-path:url(#SVGID_20_);}
	.st172{clip-path:url(#SVGID_22_);fill:none;stroke:#000000;stroke-width:0.296;stroke-miterlimit:3.864;}
	.st173{clip-path:url(#SVGID_24_);fill:#FFE667;}
	.st174{clip-path:url(#SVGID_26_);fill:none;stroke:#000000;stroke-width:8.300000e-02;stroke-miterlimit:3.864;}
	.st175{fill:none;stroke:#000000;stroke-width:0.153;stroke-miterlimit:3.864;}
	.st176{clip-path:url(#SVGID_28_);fill:#E70005;}
	.st177{clip-path:url(#SVGID_30_);fill:none;stroke:#E70005;stroke-width:0.296;stroke-miterlimit:3.864;}
	.st178{clip-path:url(#SVGID_32_);fill:#E70005;}
	.st179{clip-path:url(#SVGID_34_);fill:none;stroke:#E70005;stroke-width:0.296;stroke-miterlimit:3.864;}
	.st180{clip-path:url(#SVGID_36_);fill:#E70005;}
	.st181{clip-path:url(#SVGID_38_);fill:none;stroke:#E70005;stroke-width:0.296;stroke-miterlimit:3.864;}
	.st182{clip-path:url(#SVGID_40_);fill:#E70005;}
	.st183{clip-path:url(#SVGID_42_);fill:none;stroke:#E70005;stroke-width:0.296;stroke-miterlimit:3.864;}
	.st184{fill:#E70005;}
	.st185{fill:none;stroke:#000000;stroke-width:0.141;stroke-miterlimit:3.864;}
	.st186{fill:#E2001A;}
	.st187{fill:#00276D;}
	.st188{fill:#C49308;}
	.st189{fill:#179D33;}
	.st190{fill:#999999;}
	.st191{fill:#FF0000;}
	.st192{fill:#E31837;}
	.st193{fill:#06357A;}
	.st194{fill:#B4053F;}
	.st195{fill:#DCA43E;}
	.st196{fill:#005CA5;}
	.st197{fill:#FAC400;}
	.st198{fill:#004083;}
	.st199{fill:#A95932;}
	.st200{fill:none;stroke:#000000;stroke-width:1.2215;}
	.st201{fill:#E62627;}
	.st202{fill:#00458C;}
	.st203{fill:#E11B22;}
	.st204{fill:#00AB4E;}
	.st205{fill:#F47920;}
	.st206{fill:#C7C8CA;}
	.st207{fill:#E11515;}
	.st208{fill:#A4965F;}
	.st209{fill:#E51636;}
	.st210{fill:#EACC00;}
	.st211{fill:#4F846B;}
	.st212{fill:#E22227;}
	.st213{fill:#FAE700;}
	.st214{fill:url(#SVGID_43_);}
	.st215{fill:#666666;}
	.st216{fill:#FFF200;}
	.st217{fill:#00275D;}
	.st218{fill:#EF3E33;}
	.st219{fill:none;stroke:#00275D;stroke-width:2.632;}
	.st220{fill:#3F7652;}
	.st221{fill:#F1D261;}
	.st222{fill:#004D8F;}
	.st223{fill:#E7B137;stroke:#E7B137;stroke-miterlimit:10;}
	.st224{fill:#E7B137;}
	.st225{fill:#162577;}
	.st226{fill:#12692C;}
	.st227{fill:#D8141D;}
	.st228{fill:#AB830D;}
	.st229{fill:#0086CB;}
	.st230{fill:#001F42;}
	.st231{fill:#9A8F4A;}
	.st232{fill:#00559D;}
	.st233{fill:#FDDE00;}
	.st234{fill:#00924C;}
	.st235{fill:#233984;}
	.st236{fill:#FFD42E;}
	.st237{fill:#BA3733;}
	.st238{fill:#46714D;}
	.st239{fill:#221F1F;}
	.st240{fill:#00559E;}
	.st241{fill:#005C46;}
	.st242{fill:#FBC860;}
	.st243{fill:#D57C48;}
	.st244{fill:#040403;}
	.st245{fill:#4AB969;}
	.st246{fill:#8ED8F8;}
	.st247{fill:#FEC34E;}
	.st248{fill:#FFC95B;}
	.st249{fill:#00644C;}
	.st250{fill:#70B865;}
	.st251{fill:#CA6F44;}
	.st252{fill:#A8B8BE;}
	.st253{fill:#1C2C80;}
	.st254{fill:#E10321;}
	.st255{fill:none;stroke:#231F20;stroke-width:0.318;stroke-miterlimit:3.864;}
	.st256{fill:#D71920;}
	.st257{fill:#484749;}
	.st258{fill:#D9DBDC;}
	.st259{fill:#DF725A;}
	.st260{fill:#F2CABA;}
	.st261{fill:#E89C84;}
	.st262{fill:#264F99;}
	.st263{clip-path:url(#SVGID_45_);}
	.st264{fill:#161413;}
	.st265{fill:#ED1B26;}
	.st266{fill:#E60D2E;}
	.st267{fill:#FCD600;}
	.st268{fill:#004D91;}
	.st269{fill:#EAB412;}
	.st270{fill:#FDD31D;}
	.st271{fill:#EFB800;}
	.st272{fill:#FFF100;}
	.st273{fill:#ED3024;}
	.st274{fill:#00A398;}
	.st275{fill:#D00027;}
	.st276{fill:#FEF667;}
	.st277{fill:#FFE000;}
	.st278{opacity:0;fill:#FFFFFF;}
	.st279{fill:#937430;}
	.st280{fill:#5A2D6B;}
	.st281{fill:#D4E5F1;}
	.st282{fill:#4897D2;}
	.st283{fill:#CC6323;}
</style>
<g>
	<path class="st279" d="M60.5,27c11.4,5.2,19.6,16.1,21,29.1l9.6,3.9l-9.6,3.6c-1.9,18.1-17.2,32.2-35.8,32.2
		c-9.4,0-18-3.7-24.5-9.7l-8.5,3.2v9.1L9.3,100V29.8C9.1,29.7,9,29.5,9,29.2v-0.8c0-0.4,0.3-0.7,0.7-0.7H13c0.4,0,0.7,0.3,0.7,0.7
		v0.2l8.9,3.6c2.5-2.1,5.3-3.8,8.3-5.2c0-0.1-0.1-0.1-0.1-0.2l-2.4,0l1.6-1.8c-0.1-0.1-0.1-0.2-0.1-0.2c-0.4,0.1-0.7-0.2-0.9-0.5
		c-0.1-0.3-0.1-0.5,0-0.7c0-0.4,0-0.5-0.4-0.6c-0.2-0.1-0.4-0.2-0.7-0.5c-0.2-0.3-0.4-0.6-0.5-0.8c-0.3-0.6-0.3-0.7-1-0.7
		c-0.6,0-1.4,0.1-1.6-0.7c-0.1-0.6,0.2-1,0.6-1.3c-0.1-0.3-0.1-0.6,0.1-0.9c-0.6-0.3-0.9-1-0.5-1.5c-0.5-0.4-0.6-1.1-0.2-1.6
		c-0.6-0.5-0.5-1.5,0.2-1.9c-0.4-0.6-0.1-1.5,0.7-1.7c-0.2-0.8,0.5-1.6,1.3-1.4c0-0.8,0.9-1.3,1.6-1c0-1,1.1-1.4,1.8-0.9
		c0.4-0.8,1.5-0.9,2-0.1c0.1-1,1.4-1.2,1.8-0.2c0.2-0.8,1.2-1,1.7-0.3c0.2-0.3,0.5-0.4,0.8-0.4c0.1-0.6,0.7-1,1.3-0.8
		c0.2-0.6,0.9-0.7,1.3-0.3c0.2-0.6,0.9-0.8,1.3-0.4c0.2-0.6,0.9-0.8,1.3-0.3c0.2-0.6,1-0.8,1.4-0.3H44c0-0.6,0.4-1.2,0.9-1.4V2.6H44
		V1.2h0.9V0h1.6v1.2h0.9v1.4h-0.9v0.6c0.2,0.1,0.3,0.2,0.4,0.3c0.3,0.3,0.5,0.7,0.5,1.1H48c0.4-0.5,1.2-0.4,1.4,0.3
		c0.4-0.4,1.1-0.2,1.3,0.3c0.4-0.4,1.2-0.2,1.3,0.4c0.4-0.4,1.1-0.2,1.3,0.3c0.6-0.2,1.3,0.2,1.3,0.8c0.3,0,0.6,0.1,0.8,0.4
		C56,6.5,57,6.6,57.2,7.4c0.3-0.9,1.7-0.7,1.8,0.2c0.5-0.8,1.6-0.7,2,0.1c0.7-0.5,1.8-0.1,1.8,0.9c0.7-0.4,1.6,0.2,1.6,1
		c0.8-0.2,1.5,0.6,1.3,1.4c0.8,0.2,1.1,1.1,0.7,1.7c0.7,0.4,0.8,1.4,0.2,1.9c0.4,0.5,0.3,1.2-0.2,1.6c0.3,0.6,0.1,1.3-0.6,1.5
		c0.2,0.3,0.2,0.6,0.1,0.9c0.4,0.3,0.7,0.7,0.6,1.3c-0.2,0.8-1,0.8-1.5,0.7c-0.7,0-0.7,0.1-1,0.7c-0.1,0.3-0.3,0.6-0.5,0.8
		c-0.3,0.3-0.5,0.4-0.7,0.5c-0.4,0.2-0.4,0.3-0.4,0.6c0.1,0.2,0.1,0.5,0,0.7c-0.2,0.4-0.5,0.6-0.9,0.5c0,0.1-0.1,0.1-0.1,0.2
		l1.6,1.8l-2.4,0C60.5,26.8,60.5,26.9,60.5,27L60.5,27z M42,40l20.1,8.2c-3.6-5.1-9.6-8.5-16.4-8.5C44.4,39.7,43.2,39.8,42,40L42,40
		z M62.6,70.6L40,79c1.8,0.5,3.7,0.8,5.6,0.8C52.7,79.8,59,76.1,62.6,70.6z"/>
	<path class="st5" d="M45.7,24.3c-19.1,0-34.7,15.2-35.4,34c0,0,0,0,0,0h1.9c0.8-17.8,15.5-32,33.5-32c16.8,0,30.8,12.5,33.1,28.7
		l2.1,0.9C79,38.1,63.9,24.3,45.7,24.3L45.7,24.3z M11.2,68.2c1.4,5.8,4.3,11,8.1,15.3c1.7,1.9,4.8,2.6,7.2,2
		c3.4-0.9,5.5-3.9,5.5-7.4c0-1.4-0.7-3.4-1.7-4.5c-2.5-2.7-4.3-6.1-5-9.8v3.5c0,0.3-0.1,0.5-0.3,0.6c-0.1,0.1-0.3,0.2-0.5,0.3
		c1,2.4,2.4,4.7,4.1,6.6c0.7,0.8,1.2,1.8,1.4,2.9c0.3,1.9-0.4,3.8-2,5c-1.6,1.2-3.7,1.5-5.5,0.7c-0.9-0.4-1.8-1.1-2.4-1.9
		c-2.6-3-4.6-6.4-6-10.2c-0.4-1-0.7-2.1-1-3.2H11.2L11.2,68.2z M25.1,58.5c-0.2-0.1-0.3-0.2-0.6-0.2h-1.4
		c0.7-11.8,10.6-21.1,22.5-21.1c8.8,0,16.5,5.1,20.2,12.6l-3-1.2c-3.7-5.6-10-9.4-17.2-9.4C34.8,39.2,25.8,47.7,25.1,58.5L25.1,58.5
		z M63.4,70.3l2.8-1c-3.6,7.7-11.4,13.1-20.5,13.1c-2.6,0-5.1-0.4-7.4-1.3c-2-0.7-3.9-1.7-5.6-2.9c0,0,0-0.1,0-0.1
		c0-1.1-0.3-2.1-0.7-3c3.7,3.3,8.5,5.3,13.7,5.3C53.2,80.4,59.8,76.3,63.4,70.3L63.4,70.3z M78.8,64.5l2.1-0.8
		c-2,17.7-17,31.5-35.2,31.5c-9.4,0-18-3.7-24.4-9.8c1.2,0.6,2.6,0.9,3.9,0.8c2.7,2.1,5.6,3.7,8.8,4.9c3.6,1.4,7.6,2.1,11.7,2.1
		C62.5,93.2,76.5,80.7,78.8,64.5L78.8,64.5z M32.6,78.8c1.7,1.2,3.5,2.1,5.5,2.8c2.4,0.8,4.9,1.3,7.6,1.3c9.4,0,17.6-5.7,21.2-13.9
		l11.4-4.3c-2.4,15.8-16.1,28-32.6,28c-4,0-7.9-0.7-11.5-2.1c-3-1.1-5.8-2.6-8.3-4.5c0.3-0.1,0.5-0.1,0.8-0.2
		C30.1,85.1,32.3,82.2,32.6,78.8L32.6,78.8z M78.3,54.7L66.6,50c-3.7-7.9-11.7-13.4-20.9-13.4c-12.2,0-22.3,9.6-23.1,21.7h-9.9
		C13.5,40.8,28,26.8,45.7,26.8C62.1,26.8,75.8,39,78.3,54.7L78.3,54.7z M13.8,68.2h10.4c1,2.6,2.5,4.9,4.3,6.9
		c0.7,0.7,1.1,1.7,1.3,2.7c0.3,1.8-0.4,3.5-1.8,4.5c-1.4,1.1-3.4,1.3-5,0.6c-0.9-0.4-1.6-1-2.2-1.8c-2.5-2.9-4.5-6.3-5.9-10
		C14.4,70.2,14.1,69.2,13.8,68.2z"/>
	<polygon class="st279" points="36.6,82.9 34.7,87.7 36.1,88.2 35.6,89.3 33.1,88.3 35.5,82.5 	"/>
	<path class="st279" d="M40.5,84l-0.1,6.5l-1.3-0.3l0.1-1.1L38,88.8l-0.5,1l-1.2-0.3l2.9-5.8L40.5,84L40.5,84z M39.3,88.2l0.2-2.8
		L38.4,88L39.3,88.2z"/>
	<path class="st279" d="M46.8,85.8c-0.5-0.2-1.1-0.1-1.5,0.3c-0.8,0.7-0.6,2.4-0.2,3.1c0.3,0.6,1,0.7,1.6,0.5l0,1.1
		c-1,0.4-1.9-0.1-2.5-0.8c-1.2-1.3-1-4.2,0.7-5.1c0.6-0.3,1.3-0.4,2-0.2L46.8,85.8z"/>
	<path class="st279" d="M53.1,83.5c1.1-0.3,2.1,0.1,2.4,1.2c0.2,0.7,0,1.2-0.4,1.8L57,89l-1.3,0.4l-1.9-2.5l0.8,2.8L53.4,90
		l-1.8-6.1L53.1,83.5L53.1,83.5z M53.1,84.6l0.4,1.6c0.8-0.1,1.2-0.9,0.6-1.5C53.9,84.5,53.5,84.4,53.1,84.6z"/>
	<path class="st279" d="M56.3,82.3l2.1,4c0.2,0.4,0.5,0.7,0.9,0.5c0.5-0.2,0.6-0.5,0.3-1l-2.1-4.1l1.1-0.5l2.2,4.2
		c0.4,0.8,0.5,1.6-0.4,2.1c-0.2,0.1-0.5,0.3-0.7,0.4c-1,0.4-1.7-0.1-2.2-0.9l-2.1-4.1L56.3,82.3z"/>
	<path class="st279" d="M59.3,80.2c0,0-0.5-0.7-0.1-1.2c0.3-0.4,1.1-0.5,1.1-0.7c0-0.1,0-0.2-0.1-0.3l0.6-0.5
		c0.4,0.7,0.5,1.1,0.1,1.4c-0.3,0.3-0.7,0.3-1,0.5c-0.1,0.1-0.2,0.2,0,0.4L59.3,80.2z"/>
	<polygon class="st279" points="60.2,79.9 63.6,82.3 61.3,79.1 62.3,78.4 66,83.5 65.1,84.2 61.7,82 63.8,85.1 62.8,85.8 59.1,80.7 
			"/>
	<path class="st279" d="M64.2,76.3l5.7,3.1l-0.9,1l-0.9-0.6l-0.8,0.9l0.6,0.9L67,82.6l-3.7-5.3L64.2,76.3L64.2,76.3z M67.3,79.4
		l-2.4-1.5l1.8,2.1L67.3,79.4z"/>
	<path class="st279" d="M47.4,86.2c-0.1,0.5-0.1,1.1-0.1,1.7c0.1,1,0.6,2.4,1.7,2.8c0.5,0.2,1.1,0.1,1.5-0.2c1-0.6,1.2-2,1.1-3
		c-0.1-0.6-0.2-1.2-0.4-1.7C50.4,83.6,47.9,83.8,47.4,86.2L47.4,86.2z M49.5,89.6c-0.6-0.2-0.9-1.4-0.9-1.9c0-0.4,0-0.8,0-1.1
		c0.2-1.5,1.3-1.6,1.7-0.2c0.1,0.3,0.2,0.7,0.2,1.1c0.1,0.5,0.1,1.7-0.5,2.1C49.8,89.6,49.6,89.7,49.5,89.6z"/>
	<polygon class="st279" points="16,50.3 16.9,48 18,48.4 17.5,49.5 18.7,50 19.1,49 20.3,49.5 19.9,50.5 21.2,50.9 21.6,49.8 
		22.7,50.2 21.8,52.6 	"/>
	<path class="st279" d="M18.7,44.2l6.2,1.7l-0.6,1.2l-1-0.3l-0.6,1.1l0.8,0.7l-0.6,1.1L18,45.4L18.7,44.2L18.7,44.2z M22.4,46.5
		l-2.7-0.9l2.2,1.7L22.4,46.5z"/>
	<polygon class="st279" points="20.8,40.9 24.9,44 25.7,42.9 26.7,43.6 25.1,45.7 20,41.9 	"/>
	<polygon class="st279" points="28.5,33.7 31.3,38 32.5,37.2 33.2,38.2 30.9,39.7 27.5,34.4 	"/>
	<path class="st279" d="M37.5,29.7c0.4-0.1,0.8,0,1.1,0.2c0.5,0.3,0.8,0.7,0.9,1.2c0.1,0.5,0,1-0.4,1.4c0.6,0.1,1,0.5,1.2,1.1
		c0.3,1-0.2,1.9-1.2,2.1l-1.6,0.4l-1.6-6.1L37.5,29.7L37.5,29.7z M38.5,34.9c0.4,0,0.7-0.4,0.7-0.8c0-0.3-0.2-0.7-0.5-0.8
		c-0.2-0.1-0.4-0.1-0.6,0L38.5,34.9L38.5,34.9z M37.8,32.4c0.2,0,0.3-0.1,0.4-0.2c0.3-0.3,0.2-1.1-0.2-1.4c-0.2-0.1-0.4-0.1-0.6,0
		L37.8,32.4z"/>
	<path class="st279" d="M43,28.6c0.1,0,0.2,0,0.3,0c0.8,0,1.8-0.2,2.4,0.3c0.6,0.4,0.9,1,1.1,1.7c0.3,1.1,0.2,2.9-0.7,3.7
		c-0.4,0.3-0.9,0.5-1.5,0.5l-1.3,0L43,28.6L43,28.6z M44.4,33.8c1.2-0.1,1.2-1.5,1.2-2.4c-0.1-0.8-0.3-1.7-1.3-1.7L44.4,33.8z"/>
	<polygon class="st279" points="48.2,28.6 50.8,28.9 50.6,30.1 49.4,30 49.3,31.3 50.3,31.4 50.1,32.6 49.1,32.5 48.9,33.9 50.2,34 
		50,35.2 47.5,34.9 	"/>
	<polygon class="st279" points="68.5,38.3 67.6,39.2 66.9,38.5 63.4,42.2 62.5,41.3 65.9,37.6 65.2,37 66.1,36.1 	"/>
	<polygon class="st279" points="69.9,40 65.2,44.3 64.4,43.4 69.1,39.2 	"/>
	<polygon class="st279" points="71.4,42.1 68.5,45.2 72.5,43.7 73.2,44.8 67,46.8 66.4,45.9 70.7,41 	"/>
	<path class="st279" d="M72.2,46.1c-0.5,0-1.1,0.2-1.7,0.4c-1,0.4-2.2,1.2-2.2,2.4c0,0.5,0.2,1.1,0.6,1.4c0.8,0.8,2.3,0.6,3.2,0.3
		c0.6-0.2,1.1-0.5,1.5-0.8C75.5,48.3,74.6,45.9,72.2,46.1L72.2,46.1z M69.4,49c0-0.6,1.1-1.2,1.6-1.4c0.4-0.1,0.7-0.2,1.1-0.3
		c1.5-0.3,1.9,0.8,0.6,1.6c-0.3,0.2-0.6,0.4-1,0.5c-0.5,0.2-1.7,0.5-2.1,0.1C69.5,49.4,69.4,49.2,69.4,49z"/>
	<path class="st279" d="M27.4,36c-0.5,0.2-0.9,0.6-1,1.2c-0.2,1,1,2.2,1.9,2.5c0.6,0.2,1.2-0.1,1.6-0.6l0.7,0.9
		c-0.5,0.9-1.6,1.1-2.5,1c-1.8-0.3-3.4-2.6-2.7-4.4c0.2-0.6,0.8-1.2,1.4-1.4L27.4,36z"/>
	<path class="st279" d="M15,53.9c0.2-1.1,1.1-1.8,2.2-1.5c0.7,0.2,1.1,0.6,1.3,1.2l3-0.5l-0.3,1.3l-3.1,0.4l2.9,0.6l-0.3,1.3
		l-6.2-1.4L15,53.9L15,53.9z M16,54.4l1.6,0.4c0.3-0.7-0.3-1.5-1-1.2C16.2,53.7,16,54,16,54.4z"/>
	<path class="st279" d="M31.8,31.8l2,4c0.2,0.4,0.4,0.7,0.9,0.5c0.5-0.2,0.6-0.4,0.3-1l-2-4.1l1.1-0.5l2.1,4.3
		c0.4,0.8,0.4,1.6-0.4,2.1c-0.2,0.1-0.5,0.3-0.7,0.4c-1,0.4-1.7-0.2-2.1-1l-2-4.1L31.8,31.8z"/>
	<path class="st279" d="M54,29.6c1.1,0.3,1.7,1.2,1.5,2.3c-0.2,1.1-1.5,1.7-2.6,1.2l-0.7,2.6l-1.3-0.3l1.6-6.1L54,29.6L54,29.6z
		 M53.4,30.5L53,32.1c0.7,0.3,1.5-0.2,1.3-1C54.1,30.8,53.8,30.5,53.4,30.5z"/>
	<path class="st279" d="M56.4,32.1c-0.3,0.4-0.7,0.9-0.9,1.5c-0.4,1-0.7,2.4,0.1,3.2c0.3,0.4,1,0.6,1.4,0.6c1.1,0,2-1.2,2.5-2.1
		c0.2-0.5,0.4-1.1,0.5-1.6C60.2,31.3,57.9,30.3,56.4,32.1L56.4,32.1z M56.5,36.1c-0.4-0.5-0.1-1.6,0.1-2.1c0.2-0.4,0.4-0.7,0.5-1
		c0.9-1.2,1.9-0.8,1.6,0.7c-0.1,0.3-0.2,0.7-0.4,1.1c-0.2,0.5-0.8,1.5-1.5,1.5C56.8,36.3,56.6,36.2,56.5,36.1z"/>
	<path class="st279" d="M63.6,34.2c0.9,0.6,1.2,1.7,0.5,2.7c-0.4,0.6-0.9,0.8-1.7,0.7l-0.7,3l-1.1-0.8l0.8-3.1l-1.7,2.4l-1.1-0.8
		l3.7-5.1L63.6,34.2L63.6,34.2z M62.7,34.8l-1,1.3c0.5,0.6,1.5,0.3,1.5-0.5C63.3,35.3,63.1,35,62.7,34.8z"/>
	<path class="st5" d="M17,67c0.3,0.6,0.6,0.6,0.9,0c0.3-0.8,0.3-2,0-2.7c-0.3-0.6-0.6-0.6-0.9,0C16.7,65.1,16.7,66.2,17,67z"/>
	<path class="st5" d="M15.8,64.8c0.1,0.1,0.3,0.1,0.5,0.2c0.1-0.3,0.1-0.6,0.3-0.9c0.4-1,1.3-1,1.8,0c0.1,0.3,0.2,0.6,0.3,0.9
		c0.2-0.1,0.3-0.1,0.5-0.2c0.7-0.4,0.7-0.9,0-1.3c-0.9-0.5-2.4-0.5-3.3,0C15,63.9,15,64.4,15.8,64.8z"/>
	<path class="st5" d="M18.5,66.7c-0.1,0.2-0.1,0.4-0.2,0.5c-0.1,0.2-0.2,0.3-0.3,0.4h6.5c0.1,0,0.2-0.1,0.3-0.1
		c0.1-0.1,0.1-0.2,0.1-0.3v-8c0-0.1,0-0.2-0.1-0.3c-0.1-0.1-0.2-0.1-0.3-0.1H10.3c-0.1,0-0.2,0.1-0.3,0.1c-0.1,0.1-0.1,0.2-0.1,0.3
		v8c0,0.1,0.1,0.2,0.1,0.3c0.1,0.1,0.2,0.1,0.3,0.1h6.5c-0.1-0.1-0.2-0.3-0.3-0.4c-0.1-0.2-0.1-0.4-0.2-0.5h-5.1
		c-0.1,0-0.2-0.1-0.3-0.1l0,0c-0.1-0.1-0.2-0.2-0.2-0.3v-6.4c0-0.1,0.1-0.2,0.2-0.3c0.1-0.1,0.2-0.1,0.3-0.1h12.4
		c0.1,0,0.2,0.1,0.3,0.1l0,0c0.1,0.1,0.2,0.2,0.2,0.3v6.4c0,0.1-0.1,0.2-0.2,0.3l0,0c-0.1,0.1-0.2,0.1-0.3,0.1H18.5z"/>
	<path class="st280" d="M26.2,54.8h14.6V40.7L51,44.8v10h24.8l12.4,5l-14,5.2H51v8.7l-10.2,3.8V65.1H26.3c-0.5-1.7-0.7-3.5-0.7-5.4
		C25.6,58.1,25.8,56.4,26.2,54.8z"/>
	<path class="st5" d="M15.6,63c1.1-0.5,2.7-0.5,3.7,0c1.1,0.6,1.1,1.6,0,2.2c-0.2,0.1-0.4,0.2-0.7,0.2c0,0.2,0,0.4,0,0.7h5v-6.2
		H11.3v6.2h5c0-0.2,0-0.4,0-0.7c-0.2-0.1-0.5-0.1-0.7-0.2C14.4,64.7,14.4,63.6,15.6,63z"/>
	<path class="st281" d="M12.6,31.8l5.2,5.2c0.3-0.3,0.5-0.6,0.8-0.9l-6-6V31.8L12.6,31.8z M29.2,48.3l5.5,5.4h1.7l-6.5-6.4
		C29.7,47.7,29.4,48,29.2,48.3z"/>
	<path class="st5" d="M10,30h1v20c-0.4,1.6-0.8,3.2-1,4.9V30L10,30z M11,69.4v28.7l-1,0.5V68.1c0.1,0,0.2,0,0.3,0h0.4
		C10.8,68.6,10.9,69,11,69.4z"/>
	<path class="st5" d="M53.7,22.1c2.6,0.5,5,1.3,7.4,2.4c0,0.1-0.1,0.1-0.1,0.2l-2.4,0l1.6,1.8c0,0.1-0.1,0.2-0.1,0.2
		c-9.1-4-19.5-4-28.7,0c0-0.1-0.1-0.2-0.1-0.2l1.6-1.8l-2.4,0c0-0.1-0.1-0.1-0.1-0.2c2.3-1,4.8-1.8,7.4-2.4
		C42.9,21,48.4,21,53.7,22.1z"/>
	<path class="st282" d="M45.2,12c0-0.3,0.2-0.5,0.5-0.5c0.3,0,0.5,0.2,0.5,0.5c0,0.3-0.2,0.5-0.5,0.5C45.4,12.5,45.2,12.3,45.2,12z"
		/>
	<path class="st282" d="M45.2,10.8c0-0.3,0.2-0.5,0.5-0.5c0.3,0,0.5,0.2,0.5,0.5c0,0.3-0.2,0.5-0.5,0.5
		C45.4,11.3,45.2,11.1,45.2,10.8z"/>
	<path class="st282" d="M45.2,9.6c0-0.3,0.2-0.5,0.5-0.5c0.3,0,0.5,0.2,0.5,0.5c0,0.3-0.2,0.5-0.5,0.5C45.4,10.1,45.2,9.9,45.2,9.6z
		"/>
	<ellipse class="st282" cx="45.7" cy="8.3" rx="0.5" ry="0.5"/>
	<ellipse class="st282" cx="45.7" cy="7.1" rx="0.5" ry="0.5"/>
	<path class="st282" d="M45.3,4.6c0-0.2,0.2-0.4,0.4-0.4c0.2,0,0.4,0.2,0.4,0.4c0,0.2-0.2,0.4-0.4,0.4C45.5,5,45.3,4.8,45.3,4.6z"/>
	<ellipse class="st282" cx="45.7" cy="5.9" rx="0.5" ry="0.5"/>
	<path class="st283" d="M45.7,14.8c-0.2,0.1-0.5,0.4-0.9,0.4c-0.4,0-0.8-0.7-0.6-1c0.3-0.2,0.8-0.1,1-0.4c0.2-0.3,0-0.9,0.5-0.8
		c0.6-0.1,0.4,0.5,0.5,0.8c0.2,0.3,0.7,0.2,0.9,0.4c0.2,0.2-0.2,1-0.6,1C46.2,15.2,45.9,14.9,45.7,14.8z"/>
	<path class="st279" d="M41.2,22.7c0-0.4,0.3-0.7,0.7-0.7c0.4,0,0.7,0.3,0.7,0.7c0,0.4-0.3,0.7-0.7,0.7
		C41.5,23.4,41.2,23.1,41.2,22.7z"/>
	<path class="st282" d="M41.6,22.7c0-0.2,0.1-0.3,0.3-0.3c0.2,0,0.3,0.1,0.3,0.3c0,0.2-0.1,0.3-0.3,0.3
		C41.7,23.1,41.6,22.9,41.6,22.7z"/>
	<polygon class="st279" points="43.2,22.5 45.7,21.4 48.1,22.5 45.7,23.7 	"/>
	<polygon class="st283" points="43.9,22.5 45.7,23.4 47.5,22.5 45.7,21.7 	"/>
	<polygon class="st279" points="35.6,23.8 37.8,22.2 40.4,22.8 38.2,24.4 	"/>
	<polygon class="st283" points="36.2,23.7 38.2,24.2 39.8,23 37.8,22.5 	"/>
	<polygon class="st283" points="28.9,26.5 30.9,26.5 32.2,25 30.3,25 	"/>
	<path class="st279" d="M33.6,24.5c-0.1-0.4,0.2-0.7,0.5-0.8c0.4-0.1,0.7,0.2,0.8,0.5c0.1,0.4-0.2,0.7-0.5,0.8
		C34.1,25.1,33.7,24.8,33.6,24.5z"/>
	<path class="st282" d="M34,24.4c0-0.2,0.1-0.3,0.2-0.4c0.2,0,0.3,0.1,0.4,0.2c0,0.2-0.1,0.3-0.2,0.4C34.2,24.7,34,24.6,34,24.4z"/>
	<path class="st279" d="M50.2,22.7c0-0.4-0.3-0.7-0.7-0.7c-0.4,0-0.7,0.3-0.7,0.7c0,0.4,0.3,0.7,0.7,0.7
		C49.9,23.4,50.2,23.1,50.2,22.7z"/>
	<path class="st282" d="M49.8,22.7c0-0.2-0.1-0.3-0.3-0.3c-0.2,0-0.3,0.1-0.3,0.3c0,0.2,0.1,0.3,0.3,0.3
		C49.7,23.1,49.8,22.9,49.8,22.7z"/>
	<polygon class="st279" points="55.7,23.8 53.6,22.2 51,22.8 53.1,24.4 	"/>
	<polygon class="st283" points="55.1,23.7 53.2,24.2 51.6,23 53.5,22.5 	"/>
	<polygon class="st283" points="62.4,26.5 60.4,26.5 59.1,25 61.1,25 	"/>
	<path class="st279" d="M57.7,24.5c0.1-0.4-0.2-0.7-0.5-0.8c-0.4-0.1-0.7,0.2-0.8,0.5c-0.1,0.4,0.2,0.7,0.5,0.8
		C57.3,25.1,57.6,24.8,57.7,24.5z"/>
	<path class="st282" d="M57.4,24.4c0-0.2-0.1-0.3-0.2-0.4c-0.2,0-0.3,0.1-0.4,0.2c0,0.2,0.1,0.3,0.2,0.4
		C57.2,24.7,57.3,24.6,57.4,24.4z"/>
	<path class="st282" d="M45.2,16c0-0.3,0.2-0.5,0.5-0.5c0.3,0,0.5,0.2,0.5,0.5c0,0.3-0.2,0.5-0.5,0.5C45.4,16.5,45.2,16.3,45.2,16z"
		/>
	<path class="st282" d="M25.1,15.3c0-0.3,0.2-0.5,0.5-0.5c0.3,0,0.5,0.2,0.5,0.5c0,0.3-0.2,0.5-0.5,0.5
		C25.4,15.8,25.1,15.6,25.1,15.3z"/>
	<path class="st282" d="M25,13.8c0-0.3,0.2-0.5,0.5-0.5c0.3,0,0.5,0.2,0.5,0.5c0,0.3-0.2,0.5-0.5,0.5C25.2,14.3,25,14,25,13.8z"/>
	<ellipse class="st282" cx="25.9" cy="12.2" rx="0.5" ry="0.5"/>
	<ellipse class="st282" cx="26.7" cy="10.8" rx="0.5" ry="0.5"/>
	<path class="st282" d="M27.5,9.7c0-0.3,0.2-0.5,0.5-0.5c0.3,0,0.5,0.2,0.5,0.5c0,0.3-0.2,0.5-0.5,0.5C27.8,10.2,27.5,9.9,27.5,9.7z
		"/>
	<path class="st282" d="M29.2,8.7c0-0.3,0.2-0.5,0.5-0.5c0.3,0,0.5,0.2,0.5,0.5c0,0.3-0.2,0.5-0.5,0.5C29.4,9.2,29.2,8.9,29.2,8.7z"
		/>
	<ellipse class="st282" cx="31.4" cy="8.2" rx="0.5" ry="0.5"/>
	<path class="st282" d="M35.5,9.1c0-0.2,0.2-0.4,0.4-0.4c0.2,0,0.4,0.2,0.4,0.4c0,0.2-0.2,0.4-0.4,0.4C35.7,9.5,35.5,9.3,35.5,9.1z"
		/>
	<circle class="st282" cx="35.3" cy="10.6" r="0.4"/>
	<circle class="st282" cx="35.3" cy="12.4" r="0.4"/>
	<path class="st282" d="M26,18.4c0-0.3,0.2-0.5,0.5-0.5c0.3,0,0.5,0.2,0.5,0.5c0,0.3-0.2,0.5-0.5,0.5C26.3,18.9,26,18.7,26,18.4z"/>
	<path class="st282" d="M42.4,5.1c0-0.2,0.2-0.4,0.4-0.4c0.2,0,0.4,0.2,0.4,0.4c0,0.2-0.2,0.4-0.4,0.4C42.6,5.5,42.4,5.3,42.4,5.1z"
		/>
	<circle class="st282" cx="37.6" cy="6.8" r="0.4"/>
	<path class="st282" d="M39.7,5.8c0-0.2,0.2-0.4,0.4-0.4c0.2,0,0.4,0.2,0.4,0.4c0,0.2-0.2,0.4-0.4,0.4C39.9,6.2,39.7,6,39.7,5.8z"/>
	<circle class="st282" cx="41.4" cy="5.5" r="0.4"/>
	<path class="st282" d="M32.8,7.8c0-0.3,0.2-0.5,0.5-0.5c0.3,0,0.5,0.2,0.5,0.5c0,0.3-0.2,0.5-0.5,0.5C33,8.3,32.8,8,32.8,7.8z"/>
	<path class="st282" d="M34.5,7.7c0-0.3,0.2-0.5,0.5-0.5c0.3,0,0.5,0.2,0.5,0.5c0,0.3-0.2,0.5-0.5,0.5C34.8,8.2,34.5,7.9,34.5,7.7z"
		/>
	<circle class="st282" cx="38.7" cy="6.2" r="0.4"/>
	<path class="st283" d="M42.6,17.2c0-0.2,0.3-0.9,0.3-0.9s-0.3-0.4-0.2-0.6c0-0.2,0.3-0.3,0.4-0.4c0.1-0.1,1.1,0.3,1.1,0.4
		c0.1,0.1-0.4,0.7-0.3,0.9c0.1,0.2,0.7,0.2,0.7,0.3c0,0.2-0.4,0.8-0.6,0.9c-0.1,0-0.6-0.2-0.7-0.2C43.3,17.5,42.6,17.5,42.6,17.2z"
		/>
	<path class="st283" d="M31.4,9.2c-0.1,0.4-3.6,1.1-4,3.7c-0.4,2.6,2.1,3.9,2.1,3.9s0.4,0.2,0,0.7c-0.4,0.4-1.3-0.1-1.3-0.1
		S26,16,26.4,13C26.8,9.9,31.5,8.8,31.4,9.2z"/>
	<path class="st283" d="M31.9,10.3c0,0-2.4,0.9-3,2c-0.6,1.1,0.3,3.4,0.3,3.4s0.5-0.4,0.9-0.5c0.4-0.1,0.8,0.1,1.3,0
		c0.5-0.1,0.7-1.3,0.7-1.3s-0.3-1.8-0.3-2.1C31.8,11.2,31.9,10.3,31.9,10.3z"/>
	<path class="st283" d="M30.5,15.6c0.2-0.1,0.7,0.1,1.1-0.1c0.4-0.2,0.7-0.6,0.7-0.6s0-0.1,0.4,0.1c0.3,0.2,0.7,0.6,0.8,1
		c0.1,0.3-0.4,0-0.5,0.3c-0.1,0.3,0,0.7,0,0.7s-1.1,0.8-1.5,0.8c-0.5,0.1-0.8-0.3-1.1-0.8c-0.3-0.5,0.1-0.4,0.2-0.6
		C30.7,16.3,30.3,15.8,30.5,15.6z"/>
	<path class="st283" d="M26,18.9c0.2,0,1,0,1,0s0.3-0.4,0.5-0.4c0.2,0,0.4,0.1,0.5,0.3c0.1,0.1,0.1,1.1,0,1.2
		c-0.1,0.1-0.8-0.2-0.9-0.1c-0.1,0.1,0,0.7-0.1,0.8c-0.1,0.1-0.9-0.1-1-0.3c-0.1-0.1,0-0.7,0-0.7C25.9,19.6,25.7,19,26,18.9z"/>
	<path class="st283" d="M30.5,18.7c0,0.2,0,1,0,1s0.4,0.3,0.4,0.5c0,0.2-0.1,0.4-0.3,0.5c-0.1,0.1-1.1,0.1-1.2,0
		c-0.1-0.1,0.1-0.8,0-0.9c-0.1-0.1-0.7,0.1-0.8-0.1c-0.1-0.1,0.1-0.9,0.3-1c0.1-0.1,0.7,0,0.7,0C29.8,18.7,30.5,18.4,30.5,18.7z"/>
	<path class="st283" d="M42.6,7.5c0,0-2.7,1-3.5,2.3c-0.9,1.4-0.3,3.1-0.3,3.1s1.3-0.1,1.7-0.2c0.4-0.1,0.9,0.1,1.4,0
		c0.5-0.1,0.7-1.3,0.7-1.3s-0.1-1.5-0.1-1.9C42.4,9,42.6,7.5,42.6,7.5z"/>
	<path class="st283" d="M42.7,6.4c-0.4,0.4-4.6,2.2-5,4.3c-0.4,2.1,1.7,3.1,1.3,3.6c-0.3,0.4-2.7-0.5-2-3.9
		C37.6,7.1,43.1,6,42.7,6.4z"/>
	<path class="st283" d="M39.3,14.7c0-0.3,0.3-0.1,0.4-0.4c0.1-0.3-0.2-1-0.1-1.1c0.1-0.1,1.1,0.3,1.5,0.2c0.4-0.1,0.3-0.3,0.7-0.5
		c0.4-0.1,1.2,1.2,1,1.7c-0.2,0.4-0.9,1.1-0.9,1.1s-1.1,0.4-1.6,0.2C39.8,15.7,39.3,15,39.3,14.7z"/>
	<path class="st283" d="M32,11.5c-0.1,2.3,0.9,4.1,1.5,3.7c0.6-0.3-0.9-1.5-0.8-3.5c0.1-2.3,1.5-3.5,1.1-3.7C33.4,8,32,9.6,32,11.5z
		"/>
	<path class="st283" d="M43.5,5.2c0.1-0.1,0.2,0.1,0.4,0.5c0.2,0.6-0.7,3.5-0.7,4.5s0.6,2.9,0.3,3.5c-0.3,0.6-0.6-3.2-0.7-3.9
		c-0.1-0.7,0.7-3.4,0.6-3.9C43.3,5.3,43.3,5.3,43.5,5.2z"/>
	<path class="st283" d="M44.4,7.6c0.2,0.4-0.3,0.4-0.2,2.7c0,2.3,0.3,1.8,0.2,2.6c-0.1,0.8-0.9-2.2-0.9-2.9
		C43.5,9.3,44.2,7.2,44.4,7.6z"/>
	<ellipse class="st282" cx="26" cy="16.8" rx="0.5" ry="0.5"/>
	<ellipse class="st282" cx="36.6" cy="7.7" rx="0.4" ry="0.4"/>
	<path class="st282" d="M40.7,16.7c0-0.3,0.2-0.5,0.4-0.6c0.3,0,0.5,0.2,0.6,0.4c0,0.3-0.2,0.5-0.5,0.6C41,17.2,40.7,17,40.7,16.7z"
		/>
	<path class="st282" d="M36.1,17.1c-0.1-0.3,0.1-0.5,0.4-0.6c0.3-0.1,0.5,0.1,0.6,0.4c0.1,0.3-0.1,0.5-0.4,0.6
		C36.4,17.6,36.2,17.4,36.1,17.1z"/>
	<path class="st282" d="M31.9,18.7c-0.1-0.3,0.1-0.5,0.3-0.6c0.3-0.1,0.6,0.1,0.6,0.3c0.1,0.3-0.1,0.5-0.3,0.6
		C32.3,19.1,32,19,31.9,18.7z"/>
	<path class="st283" d="M35.5,14.1c0.2,0.1,0.9,0.4,0.9,0.4s0.4-0.2,0.6-0.2c0.2,0,0.3,0.3,0.4,0.4c0.1,0.1-0.3,1.1-0.4,1.1
		c-0.1,0.1-0.7-0.4-0.8-0.4c-0.2,0.1-0.2,0.7-0.4,0.7c-0.2,0-0.8-0.5-0.8-0.6c0-0.1,0.3-0.6,0.3-0.7C35.2,14.8,35.3,14.1,35.5,14.1z
		"/>
	<path class="st283" d="M33.9,18.3c0-0.2,0.2-0.9,0.2-0.9s-0.3-0.4-0.3-0.6c0-0.2,0.2-0.3,0.4-0.4c0.1-0.1,1.1,0.2,1.2,0.3
		c0.1,0.1-0.3,0.7-0.3,0.9c0.1,0.2,0.7,0.2,0.7,0.3c0,0.2-0.4,0.9-0.5,0.9c-0.1,0-0.7-0.2-0.7-0.2C34.6,18.6,33.9,18.6,33.9,18.3z"
		/>
	<path class="st283" d="M39.5,16.2c-0.1,0.2-0.4,0.9-0.4,0.9s0.2,0.5,0.2,0.6c-0.1,0.2-0.3,0.3-0.4,0.3c-0.1,0-1-0.4-1.1-0.5
		c-0.1-0.1,0.5-0.6,0.4-0.8c0-0.2-0.7-0.3-0.7-0.4c0-0.2,0.5-0.8,0.7-0.8c0.1,0,0.6,0.3,0.7,0.3C38.9,15.8,39.6,15.9,39.5,16.2z"/>
	<path class="st282" d="M28.4,21.7c0-0.3,0.2-0.5,0.5-0.5c0.3,0,0.5,0.2,0.5,0.5c0,0.3-0.2,0.5-0.5,0.5C28.6,22.2,28.4,22,28.4,21.7
		z"/>
	<path class="st283" d="M29.5,21.5c1.2,0.1,2.1-0.4,2.7-1.6c0.1-0.2,0.3-0.3,0.5-0.2c1.6,0.6,2.8,0.5,3.8-1c0.1-0.2,0.3-0.2,0.5-0.1
		c1.5,0.8,2.8,0.8,3.9-0.6c0.1-0.1,0.4-0.2,0.5-0.1c1.4,1,2.7,1,4-0.2c0.1-0.1,0.4-0.1,0.5,0c1.3,1.2,2.5,1.2,3.9,0.2
		c0.1-0.1,0.4-0.1,0.5,0.1c1.1,1.4,2.4,1.4,3.9,0.6c0.2-0.1,0.4,0,0.5,0.1c1,1.5,2.2,1.6,3.8,1c0.2-0.1,0.4,0,0.5,0.2
		c0.6,1.2,1.6,1.7,2.7,1.6l0.1,0.8c-1.3,0.1-2.5-0.4-3.3-1.7c-1.7,0.6-3.1,0.3-4.2-1.1c-1.6,0.8-3.1,0.6-4.3-0.7
		c-1.5,0.9-3,1-4.4-0.2c-1.4,1.2-2.9,1.2-4.4,0.2c-1.3,1.3-2.7,1.5-4.3,0.7c-1.1,1.5-2.6,1.7-4.2,1.1c-0.8,1.3-2,1.8-3.3,1.7
		L29.5,21.5z"/>
	<path class="st5" d="M45.4,3c0.1,0,0.2,0,0.2,0c0.1,0,0.2,0,0.3,0V2h0.9V1.7h-0.9V0.5h-0.5v1.2h-0.9V2h0.9V3z"/>
	<path class="st5" d="M46.9,4.6c0-0.3-0.2-0.5-0.3-0.7c-0.2-0.2-0.5-0.3-0.9-0.3c-0.6,0-1.1,0.5-1.2,1.1h0.4c0-0.4,0.4-0.8,0.8-0.8
		c0.4,0,0.8,0.3,0.8,0.8H46.9z"/>
	<path class="st282" d="M66.2,15.3c0-0.3-0.2-0.5-0.5-0.5c-0.3,0-0.5,0.2-0.5,0.5c0,0.3,0.2,0.5,0.5,0.5
		C66,15.8,66.2,15.6,66.2,15.3z"/>
	<path class="st282" d="M66.4,13.8c0-0.3-0.2-0.5-0.5-0.5c-0.3,0-0.5,0.2-0.5,0.5c0,0.3,0.2,0.5,0.5,0.5
		C66.2,14.3,66.4,14,66.4,13.8z"/>
	<circle class="st282" cx="65.5" cy="12.2" r="0.5"/>
	<ellipse class="st282" cx="64.7" cy="10.8" rx="0.5" ry="0.5"/>
	<path class="st282" d="M63.8,9.7c0-0.3-0.2-0.5-0.5-0.5c-0.3,0-0.5,0.2-0.5,0.5c0,0.3,0.2,0.5,0.5,0.5C63.6,10.2,63.8,9.9,63.8,9.7
		z"/>
	<path class="st282" d="M62.2,8.7c0-0.3-0.2-0.5-0.5-0.5c-0.3,0-0.5,0.2-0.5,0.5c0,0.3,0.2,0.5,0.5,0.5C62,9.2,62.2,8.9,62.2,8.7z"
		/>
	<ellipse class="st282" cx="60" cy="8.2" rx="0.5" ry="0.5"/>
	<path class="st282" d="M55.9,9.1c0-0.2-0.2-0.4-0.4-0.4c-0.2,0-0.4,0.2-0.4,0.4c0,0.2,0.2,0.4,0.4,0.4C55.7,9.5,55.9,9.3,55.9,9.1z
		"/>
	<path class="st282" d="M56.5,10.6c0-0.2-0.2-0.4-0.4-0.4c-0.2,0-0.4,0.2-0.4,0.4c0,0.2,0.2,0.4,0.4,0.4
		C56.3,11.1,56.5,10.9,56.5,10.6z"/>
	<path class="st282" d="M56.5,12.4c0-0.2-0.2-0.4-0.4-0.4c-0.2,0-0.4,0.2-0.4,0.4c0,0.2,0.2,0.4,0.4,0.4
		C56.3,12.8,56.5,12.6,56.5,12.4z"/>
	<path class="st282" d="M65.3,18.4c0-0.3-0.2-0.5-0.5-0.5c-0.3,0-0.5,0.2-0.5,0.5c0,0.3,0.2,0.5,0.5,0.5
		C65.1,18.9,65.3,18.7,65.3,18.4z"/>
	<path class="st282" d="M49,5.1c0-0.2-0.2-0.4-0.4-0.4c-0.2,0-0.4,0.2-0.4,0.4c0,0.2,0.2,0.4,0.4,0.4C48.8,5.5,49,5.3,49,5.1z"/>
	<path class="st282" d="M54.2,6.8c0-0.2-0.2-0.4-0.4-0.4c-0.2,0-0.4,0.2-0.4,0.4c0,0.2,0.2,0.4,0.4,0.4C54,7.2,54.2,7,54.2,6.8z"/>
	<circle class="st282" cx="51.3" cy="5.8" r="0.4"/>
	<path class="st282" d="M50.3,5.5c0-0.2-0.2-0.4-0.4-0.4c-0.2,0-0.4,0.2-0.4,0.4c0,0.2,0.2,0.4,0.4,0.4C50.1,5.8,50.3,5.7,50.3,5.5z
		"/>
	<path class="st282" d="M58.6,7.8c0-0.3-0.2-0.5-0.5-0.5c-0.3,0-0.5,0.2-0.5,0.5c0,0.3,0.2,0.5,0.5,0.5C58.4,8.3,58.6,8,58.6,7.8z"
		/>
	<circle class="st282" cx="56.3" cy="7.7" r="0.5"/>
	<circle class="st282" cx="52.6" cy="6.2" r="0.4"/>
	<path class="st283" d="M48.7,17.2c0-0.2-0.3-0.9-0.3-0.9s0.3-0.4,0.2-0.6c0-0.2-0.3-0.3-0.4-0.4c-0.1-0.1-1.1,0.3-1.2,0.4
		c-0.1,0.1,0.4,0.7,0.3,0.9c-0.1,0.2-0.7,0.2-0.7,0.3c0,0.2,0.4,0.8,0.6,0.9c0.1,0,0.6-0.2,0.7-0.2C48.1,17.5,48.8,17.5,48.7,17.2z"
		/>
	<path class="st283" d="M59.9,9.2c0.1,0.4,3.6,1.1,4,3.7c0.4,2.6-2.1,3.9-2.1,3.9s-0.4,0.2,0,0.7c0.4,0.4,1.3-0.1,1.3-0.1
		s2.2-1.3,1.8-4.4C64.5,9.9,59.8,8.8,59.9,9.2z"/>
	<path class="st283" d="M59.5,10.3c0,0,2.4,0.9,3,2c0.6,1.1-0.3,3.4-0.3,3.4s-0.5-0.4-0.9-0.5c-0.4-0.1-0.9,0.1-1.4,0
		c-0.5-0.1-0.7-1.3-0.7-1.3s0.3-1.8,0.3-2.1C59.6,11.2,59.5,10.3,59.5,10.3z"/>
	<path class="st283" d="M60.9,15.6c-0.2-0.1-0.7,0.1-1.1-0.1c-0.4-0.2-0.7-0.6-0.7-0.6s-0.1-0.1-0.4,0.1c-0.3,0.2-0.7,0.6-0.8,1
		c-0.1,0.3,0.4,0,0.5,0.3c0.1,0.3,0,0.7,0,0.7s1,0.8,1.5,0.8c0.5,0.1,0.8-0.3,1.1-0.8c0.3-0.5-0.1-0.4-0.2-0.6
		C60.6,16.3,61.1,15.8,60.9,15.6z"/>
	<path class="st283" d="M65.4,18.9c-0.2,0-1,0-1,0s-0.3-0.4-0.5-0.4c-0.2,0-0.4,0.1-0.5,0.3c-0.1,0.1-0.1,1.1,0,1.2
		c0.1,0.1,0.8-0.2,0.9-0.1c0.1,0.1,0,0.7,0.1,0.8c0.1,0.1,0.9-0.1,1-0.3c0.1-0.1,0-0.7,0-0.7C65.4,19.6,65.7,19,65.4,18.9z"/>
	<path class="st283" d="M60.8,18.7c0,0.2,0,1,0,1s-0.4,0.3-0.4,0.5c0,0.2,0.1,0.4,0.2,0.5c0.1,0.1,1.1,0.1,1.2,0
		c0.1-0.1-0.1-0.8,0-0.9c0.1-0.1,0.7,0.1,0.8-0.1c0.1-0.1-0.1-0.9-0.2-1c-0.1-0.1-0.7,0-0.8,0C61.5,18.7,60.9,18.4,60.8,18.7z"/>
	<path class="st283" d="M48.8,7.5c0,0,2.7,1,3.5,2.3c0.9,1.4,0.4,3.1,0.4,3.1s-1.3-0.1-1.7-0.2c-0.4-0.1-0.8,0.1-1.3,0
		c-0.5-0.1-0.7-1.3-0.7-1.3s0.1-1.5,0.1-1.9C48.9,9,48.8,7.5,48.8,7.5z"/>
	<path class="st283" d="M48.7,6.4c0.4,0.4,4.6,2.2,5,4.3c0.4,2.1-1.7,3.1-1.3,3.6c0.3,0.4,2.7-0.5,2-3.9C53.7,7.1,48.3,6,48.7,6.4z"
		/>
	<path class="st283" d="M52.1,14.7c0-0.3-0.3-0.1-0.4-0.4c-0.1-0.3,0.2-1,0.1-1.1c-0.1-0.1-1.1,0.3-1.5,0.2
		c-0.4-0.1-0.3-0.3-0.7-0.5c-0.4-0.1-1.2,1.2-1,1.7c0.2,0.4,0.9,1.1,0.9,1.1s1.1,0.4,1.6,0.2C51.5,15.7,52.1,15,52.1,14.7z"/>
	<path class="st283" d="M59.4,11.5c0.1,2.3-0.9,4.1-1.5,3.7c-0.6-0.3,0.9-1.5,0.8-3.5c-0.1-2.3-1.5-3.5-1.1-3.7
		C57.9,8,59.3,9.6,59.4,11.5z"/>
	<path class="st283" d="M47.9,5.2c-0.1-0.1-0.3,0.1-0.4,0.5c-0.2,0.6,0.7,3.5,0.7,4.5s-0.6,2.9-0.3,3.5c0.3,0.6,0.6-3.2,0.7-3.9
		c0.1-0.7-0.7-3.4-0.6-3.9C48.1,5.3,48,5.3,47.9,5.2z"/>
	<path class="st283" d="M46.9,7.6c-0.2,0.4,0.3,0.4,0.2,2.7c0,2.3-0.3,1.8-0.2,2.6c0.1,0.8,0.9-2.2,0.9-2.9
		C47.8,9.3,47.1,7.2,46.9,7.6z"/>
	<ellipse class="st282" cx="65.4" cy="16.8" rx="0.5" ry="0.5"/>
	<ellipse class="st282" cx="54.7" cy="7.7" rx="0.4" ry="0.4"/>
	<path class="st282" d="M50.7,16.7c0-0.3-0.2-0.5-0.5-0.6c-0.3,0-0.5,0.2-0.5,0.4c0,0.3,0.2,0.5,0.4,0.6
		C50.4,17.2,50.6,17,50.7,16.7z"/>
	<path class="st282" d="M55.3,17.1c0.1-0.3-0.1-0.5-0.4-0.6c-0.3-0.1-0.5,0.1-0.6,0.4c-0.1,0.3,0.1,0.5,0.4,0.6
		C54.9,17.6,55.2,17.4,55.3,17.1z"/>
	<path class="st282" d="M59.4,18.7c0.1-0.3-0.1-0.5-0.3-0.6c-0.3-0.1-0.5,0.1-0.6,0.3c-0.1,0.3,0.1,0.5,0.3,0.6
		C59.1,19.1,59.4,19,59.4,18.7z"/>
	<path class="st283" d="M55.8,14.1c-0.2,0.1-0.9,0.4-0.9,0.4s-0.4-0.2-0.6-0.2c-0.2,0-0.3,0.3-0.4,0.4c0,0.1,0.3,1.1,0.4,1.1
		c0.1,0.1,0.7-0.4,0.8-0.4c0.2,0.1,0.2,0.7,0.4,0.7c0.1,0,0.8-0.5,0.8-0.6c0-0.1-0.3-0.6-0.3-0.7C56.1,14.8,56.1,14.1,55.8,14.1z"/>
	<path class="st283" d="M57.5,18.3c0-0.2-0.2-0.9-0.2-0.9s0.3-0.4,0.3-0.6c0-0.2-0.2-0.3-0.4-0.4C57,16.4,56,16.6,56,16.7
		c-0.1,0.1,0.4,0.7,0.3,0.9c-0.1,0.2-0.7,0.2-0.7,0.3c0,0.2,0.4,0.9,0.5,0.9c0.1,0,0.7-0.2,0.7-0.2C56.8,18.6,57.5,18.6,57.5,18.3z"
		/>
	<path class="st283" d="M51.9,16.2c0.1,0.2,0.4,0.9,0.4,0.9s-0.2,0.5-0.2,0.6c0,0.2,0.3,0.3,0.4,0.3c0.1,0,1-0.4,1.1-0.5
		c0.1-0.1-0.5-0.6-0.4-0.8c0.1-0.2,0.7-0.3,0.7-0.4c0-0.2-0.5-0.8-0.7-0.8c-0.1,0-0.6,0.3-0.7,0.3C52.5,15.8,51.8,15.9,51.9,16.2z"
		/>
	<path class="st282" d="M63,21.7c0-0.3-0.2-0.5-0.5-0.5c-0.3,0-0.5,0.2-0.5,0.5c0,0.3,0.2,0.5,0.5,0.5C62.8,22.2,63,22,63,21.7z"/>
	<path class="st283" d="M37.4,21c-2.8,0.6-5.4,1.5-7.9,2.6c-0.2,0.1-0.2,0.2-0.1,0.4c0.1,0.2,0.3,0.3,0.4,0.2c2.5-1.1,5.1-2,7.7-2.5
		c5.3-1.1,10.9-1.1,16.2,0c2.7,0.6,5.3,1.4,7.7,2.5c0.2,0.1,0.3,0.1,0.4-0.2c0.1-0.1,0.1-0.3-0.1-0.4c-2.5-1.1-5.2-2-7.9-2.6
		C48.5,19.9,42.8,19.9,37.4,21z"/>
	<path class="st5" d="M39.8,78V66.1H26.6c1.9,5.7,6.3,10.2,11.8,12.3L39.8,78L39.8,78z M12.6,74v14.1l7.7-2.9
		C17.1,82.1,14.5,78.2,12.6,74L12.6,74z M71.5,66.1H52v7.3L71.5,66.1L71.5,66.1z M52,45.2v8.6h21.2L52,45.2L52,45.2z M37.9,53.8h1.8
		V40.6c-3.6,1.1-6.7,3.2-9.1,5.9L37.9,53.8L37.9,53.8z M21.7,32.9l-7.8-3.2l5.4,5.4C20.1,34.4,20.9,33.7,21.7,32.9L21.7,32.9z
		 M26.5,53.8c0.5-1.7,1.3-3.3,2.2-4.7l4.7,4.7H26.5L26.5,53.8z M17.3,37.7c-1.9,2.4-3.4,5-4.6,7.8V33.1L17.3,37.7z"/>
	<path class="st279" d="M40.5,64c0-0.1-0.1-0.2-0.1-0.2l-0.9,0l0.6-0.6c0,0,0-0.1,0-0.1c-0.1,0-0.3-0.1-0.3-0.2c0-0.1,0-0.2,0-0.3
		c0-0.1,0-0.2-0.1-0.2c-0.1,0-0.2-0.1-0.3-0.2c-0.1-0.1-0.1-0.2-0.2-0.3c-0.1-0.2-0.1-0.2-0.3-0.2c-0.2,0-0.5,0-0.5-0.3
		c-0.1-0.2,0.1-0.4,0.2-0.5c0-0.1,0-0.2,0-0.3c-0.2-0.1-0.3-0.3-0.2-0.5c-0.2-0.1-0.2-0.4-0.1-0.6c-0.2-0.2-0.2-0.5,0.1-0.7
		c-0.2-0.2,0-0.5,0.2-0.6c-0.1-0.3,0.2-0.6,0.5-0.5c0-0.3,0.3-0.5,0.6-0.4c0-0.3,0.4-0.5,0.6-0.3c0.1-0.3,0.5-0.3,0.7,0
		c0-0.3,0.5-0.4,0.6-0.1c0.1-0.3,0.4-0.3,0.6-0.1c0.1-0.1,0.2-0.2,0.3-0.1c0-0.2,0.3-0.4,0.5-0.3c0.1-0.2,0.3-0.3,0.5-0.1
		c0.1-0.2,0.3-0.3,0.5-0.1c0.1-0.2,0.3-0.3,0.5-0.1c0.1-0.2,0.4-0.3,0.5-0.1h0.2c0-0.2,0.1-0.4,0.3-0.5v-0.2h-0.3v-0.5h0.3v-0.4H46
		v0.4h0.3v0.5H46v0.2c0.1,0,0.1,0.1,0.2,0.1c0.1,0.1,0.2,0.3,0.2,0.4h0.2c0.2-0.2,0.4-0.1,0.5,0.1c0.2-0.2,0.4-0.1,0.5,0.1
		c0.2-0.1,0.4-0.1,0.5,0.1c0.2-0.1,0.4-0.1,0.5,0.1c0.2-0.1,0.4,0.1,0.5,0.3c0.1,0,0.2,0.1,0.3,0.1c0.2-0.2,0.5-0.2,0.6,0.1
		c0.1-0.3,0.6-0.3,0.6,0.1c0.2-0.3,0.6-0.3,0.7,0c0.3-0.2,0.6,0,0.6,0.3c0.3-0.1,0.6,0.1,0.6,0.4c0.3-0.1,0.5,0.2,0.5,0.5
		c0.3,0.1,0.4,0.4,0.2,0.6c0.3,0.1,0.3,0.5,0.1,0.7c0.1,0.2,0.1,0.4-0.1,0.6c0.1,0.2,0,0.5-0.2,0.5c0.1,0.1,0.1,0.2,0,0.3
		c0.1,0.1,0.3,0.3,0.2,0.5c-0.1,0.3-0.3,0.3-0.6,0.3c-0.2,0-0.2,0-0.3,0.2c-0.1,0.1-0.1,0.2-0.2,0.3c-0.1,0.1-0.2,0.1-0.2,0.2
		c-0.1,0.1-0.1,0.1-0.1,0.2c0.1,0.1,0.1,0.2,0,0.3c-0.1,0.1-0.2,0.2-0.3,0.2c0,0,0,0.1-0.1,0.1l0.6,0.6l-0.9,0
		c0,0.1-0.1,0.2-0.1,0.2C47.6,62.5,43.8,62.5,40.5,64z"/>
	<circle class="st280" cx="45.7" cy="58.5" r="0.2"/>
	<path class="st280" d="M45.5,58.1c0-0.1,0.1-0.2,0.2-0.2c0.1,0,0.2,0.1,0.2,0.2c0,0.1-0.1,0.2-0.2,0.2
		C45.6,58.3,45.5,58.2,45.5,58.1z"/>
	<circle class="st280" cx="45.7" cy="57.6" r="0.2"/>
	<path class="st280" d="M45.5,57.2c0-0.1,0.1-0.2,0.2-0.2c0.1,0,0.2,0.1,0.2,0.2c0,0.1-0.1,0.2-0.2,0.2
		C45.6,57.4,45.5,57.3,45.5,57.2z"/>
	<circle class="st280" cx="45.7" cy="56.8" r="0.2"/>
	<path class="st280" d="M45.6,55.9c0-0.1,0.1-0.1,0.1-0.1c0.1,0,0.1,0.1,0.1,0.1c0,0.1-0.1,0.1-0.1,0.1C45.6,56,45.6,56,45.6,55.9z"
		/>
	<circle class="st280" cx="45.7" cy="56.3" r="0.2"/>
	<path class="st280" d="M45.7,59.5c-0.1,0-0.2,0.2-0.3,0.2c-0.2,0-0.3-0.3-0.2-0.4c0.1-0.1,0.3,0,0.3-0.1c0.1-0.1,0-0.3,0.2-0.3
		c0.2,0,0.1,0.2,0.2,0.3c0.1,0.1,0.3,0.1,0.3,0.1c0.1,0.1-0.1,0.4-0.2,0.4C45.9,59.7,45.8,59.5,45.7,59.5z"/>
	<polygon class="st280" points="39.7,63.7 40.4,63.7 40.9,63.1 40.2,63.1 	"/>
	<polygon class="st280" points="51.6,63.7 50.9,63.7 50.5,63.1 51.2,63.1 	"/>
	<circle class="st280" cx="45.7" cy="59.9" r="0.2"/>
	<circle class="st280" cx="38.6" cy="59.7" r="0.2"/>
	<path class="st280" d="M38.3,59.1c0-0.1,0.1-0.2,0.2-0.2c0.1,0,0.2,0.1,0.2,0.2c0,0.1-0.1,0.2-0.2,0.2
		C38.4,59.3,38.3,59.2,38.3,59.1z"/>
	<path class="st280" d="M38.5,58.6c0-0.1,0.1-0.2,0.2-0.2c0.1,0,0.2,0.1,0.2,0.2c0,0.1-0.1,0.2-0.2,0.2
		C38.5,58.8,38.5,58.7,38.5,58.6z"/>
	<path class="st280" d="M38.7,58.1c0-0.1,0.1-0.2,0.2-0.2c0.1,0,0.2,0.1,0.2,0.2s-0.1,0.2-0.2,0.2C38.8,58.2,38.7,58.2,38.7,58.1z"
		/>
	<path class="st280" d="M39.2,57.7c0-0.1,0.1-0.2,0.2-0.2c0.1,0,0.2,0.1,0.2,0.2c0,0.1-0.1,0.2-0.2,0.2
		C39.3,57.9,39.2,57.8,39.2,57.7z"/>
	<path class="st280" d="M39.8,57.3c0-0.1,0.1-0.2,0.2-0.2c0.1,0,0.2,0.1,0.2,0.2c0,0.1-0.1,0.2-0.2,0.2
		C39.9,57.5,39.8,57.4,39.8,57.3z"/>
	<path class="st280" d="M40.4,57.2c0-0.1,0.1-0.2,0.2-0.2c0.1,0,0.2,0.1,0.2,0.2c0,0.1-0.1,0.2-0.2,0.2
		C40.5,57.3,40.4,57.3,40.4,57.2z"/>
	<path class="st280" d="M42,57.5c0-0.1,0.1-0.2,0.2-0.2c0.1,0,0.2,0.1,0.2,0.2s-0.1,0.2-0.2,0.2C42.1,57.6,42,57.6,42,57.5z"/>
	<circle class="st280" cx="42" cy="58" r="0.2"/>
	<circle class="st280" cx="42" cy="58.6" r="0.2"/>
	<path class="st280" d="M38.7,60.8c0-0.1,0.1-0.2,0.2-0.2c0.1,0,0.2,0.1,0.2,0.2c0,0.1-0.1,0.2-0.2,0.2C38.8,61,38.7,60.9,38.7,60.8
		z"/>
	<path class="st280" d="M44.5,56.1c0-0.1,0.1-0.1,0.1-0.1c0.1,0,0.1,0.1,0.1,0.1c0,0.1-0.1,0.1-0.1,0.1
		C44.6,56.2,44.5,56.1,44.5,56.1z"/>
	<path class="st280" d="M42.7,56.7c0-0.1,0.1-0.2,0.2-0.2c0.1,0,0.2,0.1,0.2,0.2c0,0.1-0.1,0.2-0.2,0.2
		C42.7,56.8,42.7,56.7,42.7,56.7z"/>
	<path class="st280" d="M43.6,56.3c0-0.1,0.1-0.1,0.1-0.1c0.1,0,0.1,0.1,0.1,0.1c0,0.1-0.1,0.1-0.1,0.1
		C43.6,56.4,43.6,56.4,43.6,56.3z"/>
	<path class="st280" d="M44,56.2c0-0.1,0.1-0.1,0.1-0.1c0.1,0,0.1,0.1,0.1,0.1c0,0.1-0.1,0.1-0.1,0.1C44.1,56.3,44,56.3,44,56.2z"/>
	<path class="st280" d="M41.1,57c0-0.1,0.1-0.2,0.2-0.2c0.1,0,0.2,0.1,0.2,0.2c0,0.1-0.1,0.2-0.2,0.2C41.2,57.2,41.1,57.1,41.1,57z"
		/>
	<path class="st280" d="M41.7,57c0-0.1,0.1-0.2,0.2-0.2s0.2,0.1,0.2,0.2c0,0.1-0.1,0.2-0.2,0.2S41.7,57.1,41.7,57z"/>
	<path class="st280" d="M43.1,56.4c0-0.1,0.1-0.1,0.1-0.1c0.1,0,0.1,0.1,0.1,0.1c0,0.1-0.1,0.1-0.1,0.1
		C43.1,56.6,43.1,56.5,43.1,56.4z"/>
	<path class="st280" d="M44.6,60.4c0-0.1,0.1-0.3,0.1-0.3s-0.1-0.1-0.1-0.2c0-0.1,0.1-0.1,0.1-0.1c0.1,0,0.4,0.1,0.4,0.1
		c0,0-0.1,0.2-0.1,0.3c0,0.1,0.2,0.1,0.3,0.1c0,0.1-0.2,0.3-0.2,0.3c-0.1,0-0.2-0.1-0.3-0.1C44.8,60.5,44.6,60.5,44.6,60.4z"/>
	<path class="st280" d="M40.6,57.5c0,0.1-1.3,0.4-1.4,1.3c-0.1,0.9,0.7,1.4,0.7,1.4s0.2,0.1,0,0.2c-0.1,0.2-0.5-0.1-0.5-0.1
		s-0.8-0.5-0.6-1.5C39,57.8,40.7,57.4,40.6,57.5z"/>
	<path class="st280" d="M40.8,57.9c0,0-0.9,0.3-1.1,0.7c-0.2,0.4,0.1,1.2,0.1,1.2s0.2-0.1,0.3-0.2c0.1,0,0.3,0,0.5,0
		c0.2,0,0.3-0.5,0.3-0.5s-0.1-0.6-0.1-0.7C40.7,58.2,40.8,57.9,40.8,57.9z"/>
	<path class="st280" d="M40.3,59.8c0.1-0.1,0.3,0.1,0.4,0c0.1-0.1,0.3-0.2,0.3-0.2s0,0,0.1,0.1c0.1,0.1,0.3,0.2,0.3,0.3
		c0,0.1-0.1,0-0.2,0.1c0,0.1,0,0.2,0,0.2s-0.4,0.3-0.5,0.3c-0.2,0-0.3-0.1-0.4-0.3c-0.1-0.2,0-0.2,0.1-0.2
		C40.4,60,40.2,59.9,40.3,59.8z"/>
	<path class="st280" d="M38.7,61c0.1,0,0.3,0,0.3,0s0.1-0.1,0.2-0.2c0.1,0,0.1,0.1,0.2,0.1c0,0,0,0.4,0,0.4c0,0-0.3-0.1-0.3,0
		c-0.1,0,0,0.3,0,0.3c0,0-0.3-0.1-0.4-0.1c0,0,0-0.2,0-0.3C38.7,61.2,38.6,61,38.7,61z"/>
	<path class="st280" d="M40.3,60.9c0,0.1,0,0.3,0,0.3s0.1,0.1,0.2,0.2c0,0.1-0.1,0.1-0.1,0.2c0,0-0.4,0-0.4,0c0,0,0.1-0.3,0-0.3
		c0,0-0.3,0-0.3,0c0-0.1,0.1-0.3,0.1-0.4c0.1,0,0.2,0,0.3,0C40,60.9,40.3,60.8,40.3,60.9z"/>
	<path class="st280" d="M44.6,56.9c0,0-0.9,0.3-1.3,0.8c-0.3,0.5-0.1,1.1-0.1,1.1s0.5-0.1,0.6-0.1c0.1,0,0.3,0,0.5,0
		c0.2,0,0.3-0.5,0.3-0.5s0-0.5,0-0.6C44.5,57.5,44.6,56.9,44.6,56.9z"/>
	<path class="st280" d="M44.6,56.5c-0.1,0.1-1.7,0.8-1.8,1.5c-0.2,0.7,0.6,1.1,0.4,1.3c-0.1,0.1-1-0.2-0.7-1.4
		C42.8,56.8,44.8,56.4,44.6,56.5z"/>
	<path class="st280" d="M43.4,59.5c0-0.1,0.1,0,0.2-0.1c0-0.1-0.1-0.4,0-0.4c0,0,0.4,0.1,0.5,0.1c0.1,0,0.1-0.1,0.2-0.2
		c0.1,0,0.4,0.4,0.3,0.6c-0.1,0.1-0.3,0.4-0.3,0.4s-0.4,0.2-0.6,0.1C43.6,59.8,43.4,59.6,43.4,59.5z"/>
	<path class="st280" d="M40.8,58.3c0,0.8,0.3,1.5,0.5,1.3c0.2-0.1-0.3-0.5-0.3-1.2c0-0.8,0.5-1.3,0.4-1.3
		C41.3,57.1,40.8,57.6,40.8,58.3z"/>
	<path class="st280" d="M44.9,56.1c0.1,0,0.1,0,0.1,0.2c0.1,0.2-0.3,1.3-0.3,1.6c0,0.4,0.2,1,0.1,1.2c-0.1,0.2-0.2-1.1-0.2-1.4
		c0-0.3,0.3-1.2,0.2-1.4C44.8,56.1,44.9,56.1,44.9,56.1z"/>
	<path class="st280" d="M45.2,57c0.1,0.2-0.1,0.1-0.1,1c0,0.8,0.1,0.6,0.1,0.9c0,0.3-0.3-0.8-0.3-1C44.9,57.5,45.2,56.8,45.2,57z"/>
	<circle class="st280" cx="38.7" cy="60.2" r="0.2"/>
	<circle class="st280" cx="42.5" cy="57" r="0.2"/>
	<path class="st280" d="M43.9,60.2c0-0.1,0.1-0.2,0.2-0.2c0.1,0,0.2,0.1,0.2,0.2c0,0.1-0.1,0.2-0.2,0.2C44,60.4,43.9,60.3,43.9,60.2
		z"/>
	<path class="st280" d="M42.3,60.3c0-0.1,0-0.2,0.1-0.2c0.1,0,0.2,0.1,0.2,0.1c0,0.1-0.1,0.2-0.1,0.2C42.4,60.5,42.3,60.4,42.3,60.3
		z"/>
	<path class="st280" d="M40.8,60.9c0-0.1,0-0.2,0.1-0.2c0.1,0,0.2,0,0.2,0.1c0,0.1,0,0.2-0.1,0.2C40.9,61,40.8,61,40.8,60.9z"/>
	<path class="st280" d="M42.1,59.3c0.1,0,0.3,0.1,0.3,0.1s0.2-0.1,0.2-0.1c0.1,0,0.1,0.1,0.1,0.2c0,0.1-0.1,0.4-0.2,0.4
		c0,0-0.2-0.2-0.3-0.1c-0.1,0-0.1,0.2-0.1,0.2c-0.1,0-0.3-0.2-0.3-0.2c0-0.1,0.1-0.2,0.1-0.3C42,59.5,42,59.2,42.1,59.3z"/>
	<path class="st280" d="M41.5,60.8c0-0.1,0.1-0.3,0.1-0.3s-0.1-0.2-0.1-0.2c0-0.1,0.1-0.1,0.1-0.1c0.1,0,0.4,0.1,0.4,0.1
		c0,0-0.1,0.3-0.1,0.3c0,0.1,0.2,0.1,0.3,0.1c0,0.1-0.1,0.3-0.2,0.3c-0.1,0-0.2-0.1-0.3-0.1C41.7,60.8,41.5,60.9,41.5,60.8z"/>
	<path class="st280" d="M43.5,60c0,0.1-0.1,0.3-0.1,0.3s0.1,0.2,0.1,0.2c0,0.1-0.1,0.1-0.2,0.1c0,0-0.4-0.1-0.4-0.2
		c0,0,0.2-0.2,0.2-0.3c0-0.1-0.2-0.1-0.2-0.2c0-0.1,0.2-0.3,0.2-0.3c0.1,0,0.2,0.1,0.2,0.1C43.3,59.9,43.5,59.9,43.5,60z"/>
	<circle class="st280" cx="39.7" cy="62" r="0.2"/>
	<path class="st280" d="M39.9,61.9c0.4,0,0.7-0.1,1-0.6c0-0.1,0.1-0.1,0.2-0.1c0.6,0.2,1,0.2,1.3-0.4c0-0.1,0.1-0.1,0.2-0.1
		c0.5,0.3,1,0.3,1.4-0.2c0,0,0.1-0.1,0.2,0c0.5,0.4,1,0.4,1.4-0.1c0.1-0.1,0.1-0.1,0.2,0c0.5,0.4,0.9,0.4,1.4,0.1c0.1,0,0.2,0,0.2,0
		c0.4,0.5,0.9,0.5,1.4,0.2c0.1,0,0.1,0,0.2,0.1c0.4,0.5,0.8,0.6,1.3,0.4c0.1,0,0.2,0,0.2,0.1c0.2,0.4,0.6,0.6,1,0.6l0,0.3
		c-0.5,0-0.9-0.1-1.2-0.6c-0.6,0.2-1.1,0.1-1.5-0.4c-0.6,0.3-1.1,0.2-1.5-0.3c-0.5,0.3-1.1,0.3-1.6-0.1c-0.5,0.4-1,0.4-1.5,0.1
		c-0.4,0.5-1,0.5-1.5,0.3c-0.4,0.5-0.9,0.6-1.5,0.4c-0.3,0.5-0.7,0.7-1.2,0.6L39.9,61.9z"/>
	<path class="st280" d="M45.6,55.3C45.6,55.3,45.7,55.3,45.6,55.3c0.1,0,0.2,0,0.2,0V55h0.3v-0.1h-0.3v-0.4h-0.2v0.4h-0.3V55h0.3
		V55.3z"/>
	<path class="st280" d="M53,59.7c0-0.1-0.1-0.2-0.2-0.2c-0.1,0-0.2,0.1-0.2,0.2c0,0.1,0.1,0.2,0.2,0.2C52.9,59.9,53,59.8,53,59.7z"
		/>
	<path class="st280" d="M53,59.1C53,59,53,59,52.9,59c-0.1,0-0.2,0.1-0.2,0.2c0,0.1,0.1,0.2,0.2,0.2C53,59.3,53,59.2,53,59.1z"/>
	<path class="st280" d="M52.9,58.6c0-0.1-0.1-0.2-0.2-0.2c-0.1,0-0.2,0.1-0.2,0.2c0,0.1,0.1,0.2,0.2,0.2
		C52.8,58.8,52.9,58.7,52.9,58.6z"/>
	<circle class="st280" cx="52.4" cy="58.1" r="0.2"/>
	<path class="st280" d="M52.1,57.7c0-0.1-0.1-0.2-0.2-0.2c-0.1,0-0.2,0.1-0.2,0.2c0,0.1,0.1,0.2,0.2,0.2
		C52,57.9,52.1,57.8,52.1,57.7z"/>
	<path class="st280" d="M51.5,57.3c0-0.1-0.1-0.2-0.2-0.2s-0.2,0.1-0.2,0.2c0,0.1,0.1,0.2,0.2,0.2S51.5,57.4,51.5,57.3z"/>
	<circle class="st280" cx="50.8" cy="57.2" r="0.2"/>
	<circle class="st280" cx="49.2" cy="57.5" r="0.2"/>
	<path class="st280" d="M49.5,58c0-0.1-0.1-0.2-0.2-0.2c-0.1,0-0.2,0.1-0.2,0.2c0,0.1,0.1,0.2,0.2,0.2C49.5,58.2,49.5,58.1,49.5,58z
		"/>
	<path class="st280" d="M49.5,58.6c0-0.1-0.1-0.2-0.2-0.2c-0.1,0-0.2,0.1-0.2,0.2c0,0.1,0.1,0.2,0.2,0.2
		C49.5,58.8,49.5,58.7,49.5,58.6z"/>
	<path class="st280" d="M52.7,60.8c0-0.1-0.1-0.2-0.2-0.2c-0.1,0-0.2,0.1-0.2,0.2c0,0.1,0.1,0.2,0.2,0.2
		C52.6,61,52.7,60.9,52.7,60.8z"/>
	<path class="st280" d="M46.9,56.1c0-0.1-0.1-0.1-0.1-0.1c-0.1,0-0.1,0.1-0.1,0.1c0,0.1,0.1,0.1,0.1,0.1
		C46.8,56.2,46.9,56.1,46.9,56.1z"/>
	<path class="st280" d="M48.7,56.7c0-0.1-0.1-0.2-0.2-0.2c-0.1,0-0.2,0.1-0.2,0.2c0,0.1,0.1,0.2,0.2,0.2
		C48.6,56.8,48.7,56.7,48.7,56.7z"/>
	<path class="st280" d="M47.8,56.3c0-0.1-0.1-0.1-0.1-0.1c-0.1,0-0.1,0.1-0.1,0.1c0,0.1,0.1,0.1,0.1,0.1
		C47.8,56.4,47.8,56.4,47.8,56.3z"/>
	<path class="st280" d="M47.3,56.2c0-0.1-0.1-0.1-0.1-0.1c-0.1,0-0.1,0.1-0.1,0.1c0,0.1,0.1,0.1,0.1,0.1
		C47.3,56.3,47.3,56.3,47.3,56.2z"/>
	<path class="st280" d="M50.3,57c0-0.1-0.1-0.2-0.2-0.2c-0.1,0-0.2,0.1-0.2,0.2c0,0.1,0.1,0.2,0.2,0.2C50.2,57.2,50.3,57.1,50.3,57z
		"/>
	<path class="st280" d="M49.7,57c0-0.1-0.1-0.2-0.2-0.2c-0.1,0-0.2,0.1-0.2,0.2c0,0.1,0.1,0.2,0.2,0.2C49.6,57.2,49.7,57.1,49.7,57z
		"/>
	<path class="st280" d="M48.3,56.4c0-0.1-0.1-0.1-0.1-0.1S48,56.4,48,56.4c0,0.1,0.1,0.1,0.1,0.1S48.3,56.5,48.3,56.4z"/>
	<path class="st280" d="M46.8,60.4c0-0.1-0.1-0.3-0.1-0.3s0.1-0.1,0.1-0.2c0-0.1-0.1-0.1-0.1-0.1c-0.1,0-0.4,0.1-0.4,0.1
		c0,0,0.1,0.2,0.1,0.3c0,0.1-0.3,0.1-0.3,0.1c0,0.1,0.2,0.3,0.2,0.3c0.1,0,0.2-0.1,0.3-0.1C46.5,60.5,46.8,60.5,46.8,60.4z"/>
	<path class="st280" d="M50.7,57.5c0,0.1,1.3,0.4,1.4,1.3c0.2,0.9-0.7,1.4-0.7,1.4s-0.1,0.1,0,0.2c0.2,0.2,0.5-0.1,0.5-0.1
		s0.8-0.5,0.6-1.5C52.4,57.8,50.7,57.4,50.7,57.5z"/>
	<path class="st280" d="M50.6,57.9c0,0,0.9,0.3,1.1,0.7c0.2,0.4-0.1,1.2-0.1,1.2s-0.2-0.1-0.3-0.2c-0.1,0-0.3,0-0.5,0
		c-0.2,0-0.3-0.5-0.3-0.5s0.1-0.6,0.1-0.7C50.6,58.2,50.6,57.9,50.6,57.9z"/>
	<path class="st280" d="M51.1,59.8c-0.1-0.1-0.3,0.1-0.4,0c-0.1-0.1-0.3-0.2-0.3-0.2s0,0-0.1,0.1c-0.1,0.1-0.3,0.2-0.3,0.3
		c0,0.1,0.1,0,0.2,0.1c0,0.1,0,0.2,0,0.2s0.4,0.3,0.5,0.3c0.2,0,0.3-0.1,0.4-0.3c0.1-0.2,0-0.2-0.1-0.2C51,60,51.2,59.9,51.1,59.8z"
		/>
	<path class="st280" d="M52.7,61c-0.1,0-0.3,0-0.3,0s-0.1-0.1-0.2-0.2c-0.1,0-0.1,0.1-0.2,0.1c0,0,0,0.4,0,0.4c0,0,0.3-0.1,0.3,0
		c0.1,0,0,0.3,0,0.3c0.1,0,0.3-0.1,0.4-0.1c0,0,0-0.2,0-0.3C52.7,61.2,52.8,61,52.7,61z"/>
	<path class="st280" d="M51.1,60.9c0,0.1,0,0.3,0,0.3s-0.1,0.1-0.1,0.2c0,0.1,0,0.1,0.1,0.2c0,0,0.4,0,0.4,0c0,0-0.1-0.3,0-0.3
		c0,0,0.3,0,0.3,0c0-0.1,0-0.3-0.1-0.4c0,0-0.2,0-0.3,0C51.3,60.9,51.1,60.8,51.1,60.9z"/>
	<path class="st280" d="M46.8,56.9c0,0,1,0.3,1.3,0.8c0.3,0.5,0.1,1.1,0.1,1.1s-0.5-0.1-0.6-0.1c-0.1,0-0.3,0-0.5,0
		c-0.2,0-0.3-0.5-0.3-0.5s0-0.5,0-0.6C46.8,57.5,46.8,56.9,46.8,56.9z"/>
	<path class="st280" d="M46.7,56.5c0.1,0.1,1.6,0.8,1.8,1.5c0.1,0.7-0.6,1.1-0.5,1.3c0.1,0.1,1-0.2,0.7-1.4
		C48.6,56.8,46.6,56.4,46.7,56.5z"/>
	<path class="st280" d="M48,59.5c0-0.1-0.1,0-0.2-0.1c0-0.1,0.1-0.4,0-0.4c0,0-0.4,0.1-0.5,0.1c-0.1,0-0.1-0.1-0.2-0.2
		c-0.1,0-0.4,0.4-0.3,0.6c0.1,0.1,0.3,0.4,0.3,0.4s0.4,0.2,0.6,0.1C47.8,59.8,48,59.6,48,59.5z"/>
	<path class="st280" d="M50.5,58.3c0,0.8-0.3,1.5-0.5,1.3c-0.2-0.1,0.3-0.5,0.3-1.2c0-0.8-0.5-1.3-0.4-1.3
		C50,57.1,50.5,57.6,50.5,58.3z"/>
	<path class="st280" d="M46.5,56.1c-0.1,0-0.1,0-0.1,0.2c-0.1,0.2,0.3,1.3,0.3,1.6c0,0.4-0.2,1-0.1,1.2c0.1,0.2,0.2-1.1,0.2-1.4
		c0-0.3-0.3-1.2-0.2-1.4C46.5,56.1,46.5,56.1,46.5,56.1z"/>
	<path class="st280" d="M46.1,57c-0.1,0.2,0.1,0.1,0.1,1c0,0.8-0.1,0.6-0.1,0.9c0.1,0.3,0.3-0.8,0.3-1C46.4,57.5,46.2,56.8,46.1,57z
		"/>
	<path class="st280" d="M52.9,60.2c0-0.1-0.1-0.2-0.2-0.2c-0.1,0-0.2,0.1-0.2,0.2c0,0.1,0.1,0.2,0.2,0.2
		C52.8,60.4,52.9,60.3,52.9,60.2z"/>
	<path class="st280" d="M49.1,57c0-0.1-0.1-0.2-0.2-0.2c-0.1,0-0.2,0.1-0.2,0.2c0,0.1,0.1,0.2,0.2,0.2C49,57.1,49.1,57.1,49.1,57z"
		/>
	<path class="st280" d="M47.5,60.2c0-0.1-0.1-0.2-0.2-0.2c-0.1,0-0.2,0.1-0.2,0.2c0,0.1,0.1,0.2,0.2,0.2
		C47.4,60.4,47.4,60.3,47.5,60.2z"/>
	<path class="st280" d="M49.1,60.3c0-0.1-0.1-0.2-0.1-0.2c-0.1,0-0.2,0.1-0.2,0.1c0,0.1,0,0.2,0.1,0.2C49,60.5,49.1,60.4,49.1,60.3z
		"/>
	<path class="st280" d="M50.6,60.9c0-0.1,0-0.2-0.1-0.2c-0.1,0-0.2,0-0.2,0.1c0,0.1,0,0.2,0.1,0.2C50.4,61,50.5,61,50.6,60.9z"/>
	<path class="st280" d="M49.3,59.3c-0.1,0-0.3,0.1-0.3,0.1s-0.2-0.1-0.2-0.1c-0.1,0-0.1,0.1-0.1,0.2c0,0.1,0.1,0.4,0.2,0.4
		c0.1,0,0.2-0.2,0.3-0.1c0.1,0,0.1,0.2,0.1,0.2c0.1,0,0.3-0.2,0.3-0.2c0-0.1-0.1-0.2-0.1-0.3C49.4,59.5,49.4,59.2,49.3,59.3z"/>
	<path class="st280" d="M48.5,62.1c0.9,0.2,1.8,0.5,2.6,0.8c0,0,0,0.1,0,0.1l-0.9,0l0.6,0.6c0,0,0,0.1,0,0.1
		c-3.2-1.4-6.9-1.4-10.2,0c0,0,0-0.1,0-0.1l0.6-0.6l-0.9,0c0,0,0-0.1,0-0.1c0.8-0.4,1.7-0.6,2.6-0.8C44.7,61.7,46.7,61.7,48.5,62.1z
		"/>
	<path class="st280" d="M49.9,60.8c0-0.1-0.1-0.3-0.1-0.3s0.1-0.2,0.1-0.2c0-0.1-0.1-0.1-0.1-0.1c0,0-0.4,0.1-0.4,0.1
		c0,0,0.1,0.3,0.1,0.3c0,0.1-0.3,0.1-0.3,0.1c0,0.1,0.1,0.3,0.2,0.3c0.1,0,0.2-0.1,0.3-0.1C49.6,60.8,49.9,60.9,49.9,60.8z"/>
	<path class="st280" d="M47.9,60c0,0.1,0.1,0.3,0.1,0.3S48,60.5,48,60.5c0,0.1,0.1,0.1,0.2,0.1c0.1,0,0.4-0.1,0.4-0.2
		c0,0-0.2-0.2-0.2-0.3c0-0.1,0.2-0.1,0.2-0.2c0-0.1-0.2-0.3-0.2-0.3c-0.1,0-0.2,0.1-0.2,0.1C48.1,59.9,47.9,59.9,47.9,60z"/>
	<path class="st280" d="M51.8,62c0-0.1-0.1-0.2-0.2-0.2c-0.1,0-0.2,0.1-0.2,0.2c0,0.1,0.1,0.2,0.2,0.2C51.7,62.1,51.8,62.1,51.8,62z
		"/>
	<path class="st280" d="M42.7,61.7c-1,0.2-1.9,0.5-2.8,0.9c-0.1,0-0.1,0.1,0,0.1c0,0.1,0.1,0.1,0.2,0.1c0.9-0.4,1.8-0.7,2.8-0.9
		c1.9-0.4,3.9-0.4,5.8,0c1,0.2,1.9,0.5,2.7,0.9c0.1,0,0.1,0,0.2-0.1c0-0.1,0-0.1,0-0.1c-0.9-0.4-1.8-0.7-2.8-0.9
		C46.7,61.3,44.7,61.3,42.7,61.7z"/>
	<path class="st280" d="M45.4,55.9c0-0.2,0.1-0.3,0.3-0.3c0.2,0,0.3,0.1,0.3,0.3c0,0.1,0,0.2-0.1,0.2c0,0,0.1,0.1,0.1,0.1
		c0.1-0.1,0.1-0.2,0.1-0.3c0-0.2-0.2-0.4-0.4-0.4c-0.2,0-0.4,0.2-0.4,0.4c0,0.1,0.1,0.2,0.1,0.3c0,0,0-0.1,0.1-0.1
		C45.4,56,45.4,56,45.4,55.9z"/>
	<path class="st279" d="M44.1,62.3c0-0.1,0.1-0.3,0.2-0.3c0.1,0,0.3,0.1,0.3,0.3c0,0.1-0.1,0.2-0.3,0.2
		C44.2,62.6,44.1,62.5,44.1,62.3z"/>
	<polygon class="st279" points="44.8,62.3 45.7,61.9 46.6,62.3 45.7,62.7 	"/>
	<polygon class="st279" points="42.1,62.7 42.9,62.2 43.8,62.4 43,62.9 	"/>
	<path class="st279" d="M41.4,62.9c0-0.1,0.1-0.3,0.2-0.3c0.1,0,0.3,0.1,0.3,0.2c0,0.1-0.1,0.3-0.2,0.3
		C41.6,63.2,41.4,63.1,41.4,62.9z"/>
	<path class="st279" d="M47.3,62.3c0-0.1-0.1-0.3-0.3-0.3c-0.1,0-0.2,0.1-0.2,0.3c0,0.1,0.1,0.2,0.2,0.2
		C47.2,62.6,47.3,62.5,47.3,62.3z"/>
	<polygon class="st279" points="49.3,62.7 48.5,62.2 47.6,62.4 48.3,62.9 	"/>
	<path class="st279" d="M50,62.9c0-0.1-0.1-0.3-0.2-0.3c-0.1,0-0.3,0.1-0.3,0.2c0,0.1,0.1,0.3,0.2,0.3C49.8,63.2,49.9,63.1,50,62.9z
		"/>
	<circle class="st280" cx="44.3" cy="62.3" r="0.1"/>
	<polygon class="st280" points="45,62.3 45.7,62.6 46.3,62.3 45.7,62 	"/>
	<polygon class="st280" points="42.3,62.7 43,62.8 43.6,62.4 42.9,62.3 	"/>
	<path class="st280" d="M41.5,62.9c0-0.1,0-0.1,0.1-0.1c0.1,0,0.1,0,0.1,0.1c0,0.1,0,0.1-0.1,0.1C41.6,63,41.5,63,41.5,62.9z"/>
	<ellipse class="st280" cx="47" cy="62.3" rx="0.1" ry="0.1"/>
	<polygon class="st280" points="49,62.7 48.3,62.8 47.8,62.4 48.5,62.3 	"/>
	<path class="st280" d="M49.8,62.9c0-0.1,0-0.1-0.1-0.1c-0.1,0-0.1,0-0.1,0.1c0,0.1,0,0.1,0.1,0.1C49.8,63,49.8,63,49.8,62.9z"/>
	<path class="st279" d="M19.7,69.4c0.6,0,1.2,0.5,1.2,1.2c0,0.6-0.5,1.2-1.2,1.2c-0.6,0-1.2-0.5-1.2-1.2
		C18.5,69.9,19,69.4,19.7,69.4L19.7,69.4z M19.7,69.9c-0.4,0-0.6,0.3-0.6,0.6c0,0.4,0.3,0.7,0.6,0.7c0.4,0,0.7-0.3,0.7-0.7
		C20.3,70.2,20,69.9,19.7,69.9z"/>
	<path class="st279" d="M22.3,74.1c0.3,0,0.6,0.1,0.8,0.3l0,0l0,0l0,0c0.2,0.2,0.3,0.5,0.3,0.8c0,0.6-0.5,1.2-1.2,1.2
		c-0.3,0-0.6-0.1-0.8-0.3l0,0l0,0l0,0c-0.2-0.2-0.3-0.5-0.3-0.8C21.1,74.6,21.6,74.1,22.3,74.1L22.3,74.1z M22.3,74.6
		c-0.4,0-0.6,0.3-0.6,0.6c0,0.2,0.1,0.3,0.2,0.5l0,0c0.1,0.1,0.3,0.2,0.5,0.2c0.4,0,0.6-0.3,0.6-0.6c0-0.2-0.1-0.3-0.2-0.5l0,0
		C22.6,74.7,22.5,74.6,22.3,74.6z"/>
</g>
</svg>
