<?xml version="1.0" encoding="utf-8"?>
<!-- Generator: Adobe Illustrator 19.2.1, SVG Export Plug-In . SVG Version: 6.00 Build 0)  -->
<svg version="1.1" id="Capa_1" xmlns="http://www.w3.org/2000/svg" xmlns:xlink="http://www.w3.org/1999/xlink" x="0px" y="0px"
	 viewBox="0 0 100 100" style="enable-background:new 0 0 100 100;" xml:space="preserve">
<style type="text/css">
	.st0{fill:url(#path34_4_);}
	.st1{fill:url(#path890_1_);}
	.st2{fill:#FFE500;stroke:#000000;stroke-width:2.098;stroke-miterlimit:3.863;}
	.st3{fill:#DA020E;}
	.st4{fill:#FFE500;}
	.st5{clip-path:url(#SVGID_2_);}
	.st6{fill:none;stroke:#B54005;stroke-width:10;stroke-miterlimit:3.863;}
	.st7{fill:url(#path7506_1_);}
	.st8{fill:url(#path8794_1_);}
	.st9{fill:url(#path15846_1_);}
	.st10{fill:url(#path16274_1_);}
	.st11{fill:url(#path39821_1_);}
	.st12{fill:url(#path39847_1_);}
	.st13{fill:url(#path39878_1_);}
	.st14{fill:url(#path39888_1_);}
	.st15{fill:url(#path41035_1_);}
	.st16{fill:url(#path9646-8_1_);}
	.st17{fill:url(#path41092_1_);}
	.st18{fill:url(#path41094_1_);}
	.st19{fill:none;stroke:#000000;stroke-width:2.098;stroke-miterlimit:3.863;}
	.st20{fill:url(#path41152_1_);}
	.st21{fill:url(#path39854_1_);}
	.st22{fill:url(#path39874_1_);}
	.st23{fill:#9C824A;stroke:#9C824A;stroke-width:0.793;stroke-miterlimit:282;}
	.st24{fill:#023474;stroke:#023474;stroke-width:0.793;stroke-miterlimit:282;}
	.st25{fill:#FFFFFF;stroke:#FFFFFF;stroke-width:0.793;stroke-miterlimit:282;}
	.st26{fill:#EF0107;stroke:#EF0107;stroke-width:0.793;stroke-miterlimit:282;}
	.st27{fill:#DB0007;stroke:#DB0007;stroke-width:0.793;stroke-miterlimit:282;}
	.st28{fill:#FFFFFF;}
	.st29{fill:#9C824A;}
	.st30{fill:#EF0107;stroke:#EF0107;stroke-width:0.3115;stroke-miterlimit:282;}
	.st31{fill:#DB0007;stroke:#DB0007;stroke-width:0.3115;stroke-miterlimit:282;}
	.st32{fill:#DB0007;}
	.st33{fill:#FFFFFF;stroke:#FFFFFF;stroke-width:0.3115;stroke-miterlimit:282;}
	.st34{fill:#FFFFFF;stroke:#FFFFFF;stroke-width:0.554;stroke-miterlimit:3.864;}
	.st35{fill:#231F20;}
	.st36{fill:#00B6F1;stroke:#00B6F1;stroke-width:1.700000e-02;stroke-miterlimit:3.864;}
	.st37{fill:#EF3E2E;}
	.st38{fill:#BBBDBF;}
	.st39{fill:#F0B83D;}
	.st40{fill:#00B6F1;stroke:#FFFFFF;stroke-width:1.700000e-02;stroke-miterlimit:3.864;}
	.st41{fill:#001C58;}
	.st42{fill:#94BEE5;}
	.st43{fill:none;stroke:#7A003C;stroke-width:2.2437;stroke-miterlimit:6;}
	.st44{fill:#7A003C;}
	.st45{fill:#FFE600;}
	.st46{fill:#DBA111;}
	.st47{fill:#034694;}
	.st48{fill:#D1D3D4;}
	.st49{fill:#ED1C24;}
	.st50{fill:#6A7AB5;}
	.st51{fill:none;}
	.st52{fill:#274488;}
	.st53{fill:#004798;stroke:#004798;stroke-width:9.375000e-02;}
	.st54{fill:#FFFFFF;stroke:#FFFFFF;stroke-width:9.375000e-02;}
	.st55{fill:#FABC00;stroke:#FABC00;stroke-width:9.375000e-02;}
	.st56{fill:none;stroke:#FFFFFF;stroke-width:7.865;stroke-miterlimit:3.864;}
	.st57{fill:none;stroke:#FFFFFF;stroke-width:7.865;stroke-miterlimit:12;}
	.st58{fill:none;stroke:#FFFFFF;stroke-width:7.865;stroke-miterlimit:22;}
	.st59{fill:none;stroke:#FFFFFF;stroke-width:7.865;stroke-miterlimit:6;}
	.st60{fill:#00A398;}
	.st61{fill:#D00027;}
	.st62{fill:none;stroke:#FFFFFF;stroke-width:17.3907;stroke-miterlimit:3.864;}
	.st63{fill:none;stroke:#FFFFFF;stroke-width:13.1107;stroke-miterlimit:3.864;}
	.st64{fill:#FEF667;}
	.st65{fill:#D00027;stroke:#D00027;}
	.st66{fill:#5299C6;}
	.st67{fill:#60223B;}
	.st68{fill:#F7C240;}
	.st69{fill:#292D6B;}
	.st70{fill:#1B458F;}
	.st71{fill:#C4122E;}
	.st72{fill:#27409B;}
	.st73{clip-path:url(#SVGID_4_);}
	.st74{fill:#F4F4F4;}
	.st75{fill:#D3D2D2;}
	.st76{fill:#A7A5A6;}
	.st77{fill:#091453;}
	.st78{fill:none;stroke:#FFFFFF;stroke-width:6.6301;}
	.st79{clip-path:url(#SVGID_6_);}
	.st80{fill:#724314;}
	.st81{fill:#240B08;}
	.st82{fill:#018B4B;}
	.st83{fill:#A6181D;}
	.st84{fill:#592D09;}
	.st85{fill:#FFCE65;}
	.st86{fill:#5CBFEB;}
	.st87{fill:none;stroke:#000000;stroke-width:10;}
	.st88{fill:none;stroke:#000000;}
	.st89{fill:#B2B2B2;}
	.st90{fill:none;stroke:#000000;stroke-width:0.3;}
	.st91{fill:#00A650;stroke:#000000;stroke-width:2;}
	.st92{fill:#241F20;stroke:#241F20;stroke-width:9.375000e-02;}
	.st93{fill:#FFF200;stroke:#FFF200;stroke-width:9.375000e-02;}
	.st94{fill:#A68A26;}
	.st95{fill:none;stroke:#A68A26;stroke-width:4.792100e-02;stroke-miterlimit:3.8637;}
	.st96{fill:#211E1E;}
	.st97{fill:none;stroke:#211E1E;stroke-width:4.792100e-02;stroke-miterlimit:3.8637;}
	.st98{fill:#EB172B;}
	.st99{fill:none;stroke:#EB172B;stroke-width:4.792100e-02;stroke-miterlimit:3.8637;}
	.st100{fill:#A68A26;stroke:#A68A26;stroke-width:4.792100e-02;stroke-miterlimit:3.8637;}
	.st101{fill:#D1BF7F;}
	.st102{fill:none;stroke:#D1BF7F;stroke-width:4.792100e-02;stroke-miterlimit:3.8637;}
	.st103{fill:none;stroke:#FFFFFF;stroke-width:4.792100e-02;stroke-miterlimit:3.8637;}
	.st104{fill:#EB172B;stroke:#EB172B;stroke-width:4.792100e-02;stroke-miterlimit:3.8637;}
	.st105{fill:#ED2127;}
	.st106{fill:#FBEE23;}
	.st107{stroke:#000000;}
	.st108{fill:#CF1F44;}
	.st109{fill:#1B449C;}
	.st110{fill:#E03A3E;}
	.st111{fill:#E03A3E;stroke:#E03A3E;stroke-width:0.6565;}
	.st112{fill:none;stroke:#1B449C;stroke-width:0.7493;}
	.st113{fill:none;stroke:#1B449C;stroke-width:0.7567;}
	.st114{fill:#1B449C;stroke:#1B449C;stroke-width:0.6274;}
	.st115{fill:#1B449C;stroke:#1B449C;stroke-width:0.6755;}
	.st116{fill:#2E6ABD;stroke:#2E6ABD;stroke-width:0.617;}
	.st117{fill:#FFFFFF;stroke:#FFFFFF;stroke-width:0.6175;}
	.st118{fill:#ED1248;}
	.st119{fill:#2E6ABD;}
	.st120{fill:#FDE100;}
	.st121{fill:#CC0000;}
	.st122{fill:#211E1F;}
	.st123{fill:#ED1A3B;}
	.st124{fill:#00AEEF;}
	.st125{fill:#FFC40D;}
	.st126{fill:#22B24C;}
	.st127{fill:#FFC20E;}
	.st128{fill:#0A3F86;}
	.st129{fill:#005CA9;}
	.st130{fill:#FFE000;}
	.st131{fill:#E2001A;}
	.st132{opacity:0;}
	.st133{opacity:0;fill:#FFFFFF;}
	.st134{fill:#FFFFFF;stroke:#000000;}
	.st135{fill:#0060A9;}
	.st136{fill:#E32219;}
	.st137{fill:#FFED00;}
	.st138{fill:#1D9053;}
	.st139{fill:#52A600;}
	.st140{fill:#EE2523;}
	.st141{fill:#F7D117;}
	.st142{fill:#171796;}
	.st143{fill:#009959;}
	.st144{fill:#D42E12;}
	.st145{fill:#703824;}
	.st146{fill:#E5254E;}
	.st147{fill:#8AC3EE;}
	.st148{fill:#B19221;}
	.st149{fill:#F5C03E;}
	.st150{fill:#FF1119;}
	.st151{fill:#1E6BC0;}
	.st152{fill:#B4742A;}
	.st153{fill:#371B02;}
	.st154{fill:url(#SVGID_7_);}
	.st155{fill:url(#SVGID_8_);}
	.st156{fill:url(#SVGID_9_);}
	.st157{fill:url(#SVGID_10_);}
	.st158{fill:url(#SVGID_11_);}
	.st159{fill:url(#SVGID_12_);}
	.st160{fill:url(#SVGID_13_);}
	.st161{fill:url(#SVGID_14_);}
	.st162{fill:url(#SVGID_15_);}
	.st163{fill:url(#SVGID_16_);}
	.st164{fill:#EB2626;}
	.st165{fill:#E9C32C;}
	.st166{fill:#D9D9D9;}
	.st167{fill:#009C5E;}
	.st168{fill:#1C75BC;}
	.st169{fill:#611D5C;}
	.st170{fill:#E2B900;}
	.st171{fill:#004B95;}
	.st172{fill:#A4234B;}
	.st173{fill:#DB2F36;}
	.st174{fill:#FFDF00;}
	.st175{fill:#A38D44;}
	.st176{fill:#57175E;}
	.st177{fill:#AFDCFD;}
	.st178{fill:#0090C6;}
	.st179{fill:#DB5232;}
	.st180{fill:#23C1E0;}
	.st181{fill:#F1A92A;}
	.st182{fill:#167FB6;}
	.st183{fill:#FED75D;}
	.st184{fill:#378CBF;}
	.st185{fill:#3E9692;}
	.st186{fill:#E67F29;}
	.st187{fill:#D8B43C;}
	.st188{fill:#EF3B33;}
	.st189{fill:#24923D;}
	.st190{opacity:6.000001e-02;fill:#101010;enable-background:new    ;}
	.st191{fill:#00529F;}
	.st192{fill:#EE324E;}
	.st193{fill:#FEBE10;}
	.st194{fill:#143C8B;}
	.st195{fill:#FFE24A;}
	.st196{fill:#EC1D24;}
	.st197{fill:#E6A514;}
	.st198{fill:#FFDF1C;}
	.st199{fill:#EE3524;}
	.st200{fill:#B23428;}
	.st201{fill:#D18816;}
	.st202{fill:#0097D7;}
	.st203{fill:#ED1C23;}
	.st204{fill:#E30613;}
	.st205{fill:#FFE400;}
	.st206{fill:#C51A1B;}
	.st207{clip-path:url(#SVGID_19_);}
	.st208{clip-path:url(#SVGID_20_);fill:none;stroke:#000000;stroke-width:0.8131;stroke-miterlimit:3.864;}
	.st209{fill:#0093D5;}
	.st210{fill:#004B9D;}
	.st211{fill:#FCC24F;}
	.st212{fill:#009545;}
	.st213{fill:#0072BB;}
	.st214{fill:#C4974E;}
	.st215{fill:url(#path1292_1_);}
	.st216{fill:#004996;}
	.st217{fill:#FFE667;}
	.st218{fill:none;stroke:#005187;stroke-width:0.153;stroke-miterlimit:3.864;}
	.st219{fill:#005187;}
	.st220{clip-path:url(#SVGID_22_);}
	.st221{clip-path:url(#SVGID_24_);fill:none;stroke:#000000;stroke-width:0.296;stroke-miterlimit:3.864;}
	.st222{clip-path:url(#SVGID_26_);fill:#FFE667;}
	.st223{clip-path:url(#SVGID_28_);fill:none;stroke:#000000;stroke-width:8.300000e-02;stroke-miterlimit:3.864;}
	.st224{fill:none;stroke:#000000;stroke-width:0.153;stroke-miterlimit:3.864;}
	.st225{clip-path:url(#SVGID_30_);fill:#E70005;}
	.st226{clip-path:url(#SVGID_32_);fill:none;stroke:#E70005;stroke-width:0.296;stroke-miterlimit:3.864;}
	.st227{clip-path:url(#SVGID_34_);fill:#E70005;}
	.st228{clip-path:url(#SVGID_36_);fill:none;stroke:#E70005;stroke-width:0.296;stroke-miterlimit:3.864;}
	.st229{clip-path:url(#SVGID_38_);fill:#E70005;}
	.st230{clip-path:url(#SVGID_40_);fill:none;stroke:#E70005;stroke-width:0.296;stroke-miterlimit:3.864;}
	.st231{clip-path:url(#SVGID_42_);fill:#E70005;}
	.st232{clip-path:url(#SVGID_44_);fill:none;stroke:#E70005;stroke-width:0.296;stroke-miterlimit:3.864;}
	.st233{fill:#E70005;}
	.st234{fill:none;stroke:#000000;stroke-width:0.141;stroke-miterlimit:3.864;}
	.st235{fill:#00276D;}
	.st236{fill:#C49308;}
	.st237{fill:#179D33;}
	.st238{fill:#999999;}
	.st239{fill:#FF0000;}
	.st240{fill:#E31837;}
	.st241{fill:#06357A;}
	.st242{fill:#B4053F;}
	.st243{fill:#DCA43E;}
	.st244{fill:#005CA5;}
	.st245{fill:#FAC400;}
	.st246{fill:#004083;}
	.st247{fill:#A95932;}
	.st248{fill:none;stroke:#000000;stroke-width:1.2215;}
	.st249{fill:#E62627;}
	.st250{fill:#00458C;}
	.st251{fill:#E11B22;}
	.st252{fill:#00AB4E;}
	.st253{fill:#F47920;}
	.st254{fill:#C7C8CA;}
	.st255{fill:#E11515;}
	.st256{fill:#A4965F;}
	.st257{fill:#E51636;}
	.st258{fill:#EACC00;}
	.st259{fill:#4F846B;}
	.st260{fill:#E22227;}
	.st261{fill:#FAE700;}
	.st262{fill:url(#SVGID_45_);}
	.st263{fill:#666666;}
	.st264{fill:#FFF200;}
	.st265{fill:#00275D;}
	.st266{fill:#EF3E33;}
	.st267{fill:none;stroke:#00275D;stroke-width:2.632;}
	.st268{fill:#3F7652;}
	.st269{fill:#F1D261;}
	.st270{fill:#004D8F;}
	.st271{fill:#E7B137;stroke:#E7B137;stroke-miterlimit:10;}
	.st272{fill:#E7B137;}
	.st273{fill:#162577;}
	.st274{fill:#12692C;}
	.st275{fill:#D8141D;}
	.st276{fill:#AB830D;}
	.st277{fill:#0086CB;}
	.st278{fill:#001F42;}
	.st279{fill:#9A8F4A;}
	.st280{fill:#00559D;}
	.st281{fill:#FDDE00;}
	.st282{fill:#00924C;}
	.st283{fill:#233984;}
	.st284{fill:#FFD42E;}
	.st285{fill:#BA3733;}
	.st286{fill:#46714D;}
	.st287{fill:#221F1F;}
	.st288{fill:#00559E;}
	.st289{fill:#005C46;}
	.st290{fill:#FBC860;}
	.st291{fill:#D57C48;}
	.st292{fill:#040403;}
	.st293{fill:#4AB969;}
	.st294{fill:#8ED8F8;}
	.st295{fill:#FEC34E;}
	.st296{fill:#FFC95B;}
	.st297{fill:#00644C;}
	.st298{fill:#70B865;}
	.st299{fill:#CA6F44;}
	.st300{fill:#A8B8BE;}
	.st301{fill:#1C2C80;}
	.st302{fill:#E10321;}
	.st303{fill:none;stroke:#231F20;stroke-width:0.318;stroke-miterlimit:3.864;}
	.st304{fill:#D71920;}
	.st305{fill:#484749;}
	.st306{fill:#D9DBDC;}
	.st307{fill:#DF725A;}
	.st308{fill:#F2CABA;}
	.st309{fill:#E89C84;}
	.st310{fill:#264F99;}
	.st311{clip-path:url(#SVGID_47_);}
	.st312{fill:#161413;}
	.st313{fill:#ED1B26;}
	.st314{fill:#E60D2E;}
	.st315{fill:#FCD600;}
	.st316{fill:#004D91;}
	.st317{fill:#EAB412;}
	.st318{fill:#FDD31D;}
	.st319{fill:#EFB800;}
</style>
<g>
	<path d="M90.6,0.7L90.4,0l-0.7,0.4C76.3,8.6,63,8.6,50.3,0.3L50,0.1l-0.3,0.2l-0.2,0.2l0.1-0.1c-12.7,8.2-25.9,8.2-39.3,0L9.5,0
		L9.3,0.7c-2.2,7-3.2,14.1-3.2,21.4c0,9.8,2,19.7,5.9,29.4c6.8,16.8,19.5,33,37.5,48.1l0.1,0.1L50,100l0.4-0.3
		C71.4,82.1,104.6,46,90.6,0.7L90.6,0.7z"/>
	<path class="st180" d="M16.2,21.1h-1.5v-2.4h1.8c0,0,0,0.5,0,0.7c0.2,0,1.1,0,1.3,0c0-0.2,0-0.7,0-0.7h0.3v-1.6
		c-0.6-0.2-1.1-0.9-1.1-1.6c0-0.9,0.8-1.6,1.6-1.6c0.9,0,1.7,0.7,1.7,1.6c0,0.7-0.5,1.4-1.1,1.6v1.6h0.3c0,0,0,0.5,0,0.7
		c0.2,0,1.1,0,1.3,0c0-0.2,0-0.7,0-0.7h1.5h0.1v2.4h-1.6v0.8h7v-0.8h-1.5v-2.4h1.8c0,0,0,0.5,0,0.7c0.2,0,1.1,0,1.3,0
		c0-0.2,0-0.7,0-0.7h0.3v-1.6c-0.7-0.2-1.1-0.8-1.1-1.6c0-0.9,0.8-1.6,1.6-1.6c0.9,0,1.7,0.7,1.7,1.6c0,0.7-0.5,1.3-1.1,1.6v1.7h0.3
		c0,0,0,0.5,0,0.7c0.2,0,1.1,0,1.3,0c0-0.2,0-0.7,0-0.7h1.5h0.1v2.4h-1.6v0.8h2.7h0.1v1.3h16.9l15.9-11.8C61.7,11.1,55.7,9.3,50,5.9
		c0,0-0.1,0-0.1,0.1C38,12.9,24.9,13.2,12.7,7.4c-1,5-1.5,9.8-1.6,14.5h5.1L16.2,21.1L16.2,21.1z"/>
	<path class="st181" d="M90,0.9C76.8,9,63.2,9.4,50,0.8c0,0-0.1,0-0.1,0.1c-13,8.4-26.6,8.2-40,0c-4.7,15.1-4.6,32.4,2.6,50.4
		C18.9,67,30.7,83.2,49.8,99.1c0,0,0.1,0,0.1,0.1C78.8,75.2,102.1,40.2,90,0.9L90,0.9L90,0.9z M50.1,94.1c0,0-0.2,0-0.3,0
		c0,0,0,0-0.1,0C40.2,85.9,32.1,76.9,25,66.6c-0.1-0.1-0.1-0.3,0-0.4l23.5-17.5c-1.2-0.1-2.3-0.4-3.3-0.8L23.6,63.9
		c-0.1,0.1-0.3,0.1-0.4-0.1l-3-5.1l-2.6-5.3c0-0.1,0-0.3,0.1-0.4l20-14.9c-0.1-0.5-0.1-1.1-0.1-1.7c0-0.5,0-1,0.1-1.4L16.7,50.6
		c-0.1,0.1-0.4,0-0.5-0.1c-5.8-14.5-7.3-28.3-4.1-43.6c0-0.2,0.3-0.3,0.4-0.2c12.3,6,25.3,5.7,37.2-1.3c0,0,0,0,0,0
		c0.1,0,0.2,0,0.3,0c5.9,3.5,12.2,5.4,19,5.6c0.3,0,0.3,0.3,0.2,0.5l-17.4,13c0.6,0.1,1.1,0.2,1.6,0.4c0.5,0.1,0.9,0.3,1.3,0.5
		l19.7-14.7c0,0,0.1,0,0.1,0c0.3,0,0.4,0,0.4-0.1c0.1,0,0.2,0,0.4,0c4.1-0.7,8.1-2,11.9-3.8c0.2-0.1,0.4,0,0.4,0.2
		c0.3,1.3,0.5,2.6,0.7,3.9c0.2,1.3,0.4,2.6,0.6,4v0v0.1c0,0.1-0.1,0.2-0.1,0.3L62,35.3c0,0.4,0.1,0.8,0.1,1.2c0,0.8-0.1,1.5-0.2,2.2
		l27.1-20.2c0.2-0.1,0.5,0,0.5,0.2l0.1,1.5C89.7,50.4,72.3,75.2,50.1,94.1L50.1,94.1z"/>
	<path class="st28" d="M58.4,27.8c1.8,1.8,3.1,4.2,3.5,6.9l26.6-19.8c-0.2-1.3-0.4-2.6-0.6-3.9c-0.2-1.2-0.4-2.4-0.7-3.6
		c-3.7,1.7-8,3.2-12.2,3.7c-0.1,0-0.3,0-0.3,0L55.4,25.6c0.5,0.3,1,0.5,1.4,0.8C57.4,26.8,57.9,27.3,58.4,27.8L58.4,27.8z"/>
	<path class="st28" d="M41.1,45.1c-1.7-1.7-2.9-3.9-3.3-6.3L18.2,53.3l2.5,5.1l2.8,4.8l21.1-15.7c-0.1,0-0.2-0.1-0.2-0.1
		C43.1,46.8,42,46.1,41.1,45.1L41.1,45.1z"/>
	<path class="st182" d="M88.8,19.4L61.6,39.7c-0.5,1.9-1.4,3.6-2.7,5c-0.2,0.2-0.3,0.4-0.5,0.5c-0.5,0.5-1,0.9-1.6,1.3
		c-0.5,0.4-1.1,0.7-1.8,1c-0.5,0.2-1,0.5-1.6,0.6c-0.7,0.2-1.4,0.4-2.2,0.5c-0.5,0.1-1,0.1-1.6,0.1c0,0,0,0,0,0c-0.1,0-0.2,0-0.3,0
		L25.6,66.5c6.9,10.1,14.9,18.9,24.2,27c0,0,0.1,0,0.1,0.1c0.5-0.4,1-0.9,1.5-1.3c1.2-1.1,2.4-2.2,3.6-3.3c1.3-1.2,2.6-2.5,3.8-3.7
		c1.3-1.3,2.6-2.6,3.8-4c1.4-1.5,2.8-3.1,4.1-4.7c1.3-1.5,2.5-3.1,3.7-4.7c1.4-1.9,2.8-3.9,4.1-5.9c1.4-2.1,2.6-4.2,3.8-6.3
		c1.6-2.9,3-5.8,4.3-8.8c1.5-3.5,2.7-7.1,3.6-10.7c1.6-6.3,2.5-12.9,2.5-19.7L88.8,19.4L88.8,19.4z"/>
	<path class="st28" d="M74.7,29.9l0,36c1.4-2.1,2.6-4.2,3.8-6.3l0-32.5L74.7,29.9L74.7,29.9z"/>
	<path class="st28" d="M66.9,35.8l0,40.8c1.3-1.5,2.5-3.1,3.7-4.7l0-38.8L66.9,35.8L66.9,35.8z"/>
	<path class="st28" d="M82.7,24l0.1,26.8c1.5-3.5,2.7-7.1,3.6-10.7l0-18.9L82.7,24L82.7,24z"/>
	<path class="st28" d="M61.6,39.7c-0.5,1.9-1.4,3.6-2.7,5l0,40.6c1.3-1.3,2.6-2.6,3.8-4l0-42.4L61.6,39.7L61.6,39.7z"/>
	<path class="st28" d="M51.3,48.6l0.1,43.6c1.2-1.1,2.4-2.2,3.6-3.3l0-41.4c-0.5,0.2-1,0.5-1.6,0.6C52.8,48.4,52.1,48.5,51.3,48.6
		L51.3,48.6z"/>
	<path class="st183" d="M49.7,24.9c-2,0-3.8,0.5-5.4,1.4c-0.2,0.1-0.4,0.2-0.7,0.3c0.2,0.1,0.4,0.3,0.7,0.4c0.5,0.3,1,0.7,1.4,1.1
		c0.7,0.6,1.3,1.3,1.8,2c0.8-0.7,1.6-1.6,2.2-2.6c0.5-0.8,1-1.6,1.4-2.6c-0.4,0-0.9-0.1-1.3-0.1C49.8,24.9,49.8,24.9,49.7,24.9
		L49.7,24.9z"/>
	<path class="st183" d="M56.8,42.3c-0.5-0.6-1.1-1.1-1.8-1.6c-0.4,0.3-0.8,0.5-1.2,0.8c-0.1,0.1-0.2,0.2-0.3,0.3
		c-1.5,1.3-2.8,2.8-3.8,4.7c-0.3,0.5-0.5,1-0.7,1.5c0.3,0,0.5,0,0.7,0c0,0,0,0,0,0c1.3,0,2.6-0.2,3.7-0.6c1.2-0.4,2.3-1,3.3-1.8
		c0.4-0.3,0.8-0.7,1.1-1c0,0,0,0,0-0.1c-0.2-0.7-0.5-1.4-1-2C57,42.5,56.9,42.4,56.8,42.3L56.8,42.3z"/>
	<path class="st183" d="M46.6,31.8c-0.7,0.5-1.5,1-2.3,1.3c-0.4,0.2-0.7,0.3-1.1,0.5c0,2,0.4,3.7,1.1,5.2c0.2,0.5,0.5,0.9,0.8,1.3
		c1,1.4,2.6,2.4,4.6,3c0.4,0.1,0.8,0.2,1.2,0.3c0.7-0.9,1.6-1.7,2.5-2.5c0,0,0,0,0.1-0.1c1-0.7,2.1-1.4,3.3-1.9
		c0.5-0.2,1-0.4,1.6-0.6c0.9-0.3,1.9-0.5,2.9-0.7c0-0.4,0.1-0.8,0.1-1.3c0-3-1.1-5.7-3-7.8c-0.5-0.5-1-1-1.6-1.5
		c-1-0.7-2.1-1.3-3.3-1.8c-0.5-0.2-1.1-0.3-1.6-0.4c-0.6,1.3-1.3,2.6-2.1,3.6C48.8,29.9,47.8,31,46.6,31.8L46.6,31.8z"/>
	<path class="st183" d="M44.3,32.4c0.7-0.3,1.3-0.7,1.9-1.2c0.3-0.2,0.6-0.4,0.8-0.6c-0.5-0.8-1.1-1.4-1.7-2c-0.3-0.3-0.6-0.5-1-0.8
		c-0.4-0.3-0.8-0.5-1.3-0.8c-2.4,1.7-4.1,4.3-4.7,7.2C40.6,33.9,42.6,33.3,44.3,32.4L44.3,32.4z"/>
	<path class="st183" d="M58.5,44.1c1.4-1.6,2.3-3.5,2.7-5.6c-1,0.2-1.9,0.4-2.8,0.7c-0.6,0.2-1.1,0.4-1.6,0.6
		c-0.4,0.2-0.8,0.4-1.2,0.6c0.5,0.3,0.9,0.7,1.2,1c0.3,0.3,0.5,0.5,0.7,0.8c0.4,0.5,0.7,1,0.9,1.5C58.5,43.8,58.5,44,58.5,44.1
		L58.5,44.1z"/>
	<path class="st183" d="M44.3,46.7c1.2,0.7,2.5,1.1,3.9,1.3c0.4-1,0.9-1.9,1.4-2.7c0.2-0.4,0.5-0.7,0.7-1.1
		c-0.3-0.1-0.5-0.2-0.7-0.2c-2.2-0.7-3.9-1.8-5.1-3.3c-0.1-0.1-0.2-0.3-0.3-0.4c-1.1-1.6-1.7-3.7-1.8-6.2c-1.3,0.5-2.7,0.8-4.3,1
		c-0.1,0.5-0.1,1-0.1,1.4c0,3.2,1.3,6.1,3.4,8.2C42.4,45.4,43.3,46.1,44.3,46.7L44.3,46.7z"/>
	<path class="st184" d="M70.8,22.4c0.2,0.5,0.3,0.9,0.2,1.3c-0.1,0.3-0.3,0.7-0.6,0.9C70,24.9,69.5,25,69,24.9
		c-0.5-0.1-1-0.6-1.6-1.3c-0.5-0.7-0.7-1.3-0.7-1.8c0-0.5,0.3-0.9,0.7-1.3c0.3-0.2,0.7-0.3,1-0.3c0.3,0,0.7,0.1,1,0.4l1-1.2
		c-0.5-0.3-1-0.6-1.4-0.6c-0.8-0.1-1.5,0.1-2.2,0.7c-0.6,0.5-1,1-1.3,1.6c0,0.2-0.1,0.4-0.1,0.7c0,0.4,0,0.9,0.1,1.3
		c0.2,0.5,0.4,1,0.8,1.5c0.7,0.9,1.4,1.5,2.3,1.6c0.9,0.2,1.7,0,2.5-0.6c0.6-0.5,1-1,1.2-1.6c0.2-0.6,0.1-1.3-0.2-2.1L70.8,22.4
		L70.8,22.4z"/>
	<polygon class="st184" points="43.4,44.6 39.8,39.8 38.6,40.7 43,46.5 47.1,43.4 46.4,42.4 	"/>
	<polygon class="st184" points="31.3,46.1 29.6,47.4 31.5,52.2 27.4,49 25.7,50.3 30.1,56.1 31.1,55.3 27.7,50.7 32.3,54.4 
		33.4,53.6 31.1,48.1 34.6,52.7 35.7,51.9 	"/>
	<polygon class="st184" points="74.8,21 73.8,21.7 74.7,22.8 74.8,22.7 75.8,22 74.9,20.9 	"/>
	<polygon class="st184" points="81.5,16 80.4,16.8 81.2,18 82.3,17.1 	"/>
	<path class="st184" d="M35.5,42.9l-1.3,1l2.1,7.6l1.3-1l-0.5-1.7h0l2.3-1.7l1.5,1l1.3-1L35.5,42.9L35.5,42.9L35.5,42.9z M36.7,47.5
		l-0.8-2.7l2.4,1.6L36.7,47.5L36.7,47.5z"/>
	<path class="st184" d="M59,25.4l-1.2,1l2.1,7.6l1.3-1l-0.5-1.6v0l2.3-1.7l1.5,1l1.3-1L59,25.4L59,25.4L59,25.4z M60.2,30l-0.8-2.7
		l2.4,1.6L60.2,30L60.2,30z"/>
	<polygon class="st184" points="78.1,14.9 75.6,16.7 74.6,15.3 77.4,13.2 76.7,12.2 72.7,15.2 77,21.1 78.2,20.2 76.4,17.7 
		78.8,15.9 	"/>
	<path class="st184" d="M46.6,34.7l-1.3,0.9l2.1,7.6l1.3-0.9l-0.5-1.6l0,0h0l2.3-1.7l1.5,1v0l1.3-0.9L46.6,34.7L46.6,34.7L46.6,34.7
		z M47.8,39.3L47,36.5l2.4,1.6L47.8,39.3L47.8,39.3z"/>
	<path class="st184" d="M56.9,31.2l-2.5,1.9l0.7,1l1.3-1l0.6,0.7c-0.1,0.3-0.2,0.5-0.4,0.8c-0.2,0.3-0.4,0.5-0.7,0.7
		c-0.5,0.4-1,0.5-1.6,0.4c-0.6-0.1-1.1-0.5-1.6-1.2c-0.5-0.7-0.7-1.3-0.7-1.8c0.1-0.5,0.3-1,0.9-1.4c0.3-0.3,0.7-0.4,1-0.4
		c0.3,0,0.7,0.1,1,0.3l1-1.1c-0.5-0.5-1.1-0.7-1.7-0.7c-0.7,0-1.3,0.3-2,0.8c-0.1,0-0.2,0.1-0.3,0.2c-0.4,0.4-0.7,0.7-0.9,1.2
		c-0.3,0.6-0.4,1.3-0.3,1.9c0.1,0.7,0.3,1.3,0.8,1.9c0.1,0.2,0.3,0.3,0.4,0.5c0.3,0.3,0.7,0.6,1.1,0.8c0.6,0.3,1.2,0.4,1.9,0.3
		c0.7-0.1,1.3-0.3,1.9-0.8c0.5-0.3,0.9-0.8,1.3-1.3c0-0.1,0.1-0.2,0.1-0.3c0.3-0.4,0.4-0.8,0.4-1.2l-0.4-0.6L56.9,31.2L56.9,31.2z"
		/>
	<polygon points="48.2,9.7 48.9,9.7 48.9,11.6 49.3,11.6 49.3,9.7 50,9.7 50,9.3 48.2,9.3 	"/>
	<polygon points="51.7,9.3 51.3,10.9 50.9,9.3 50.2,9.3 50.2,11.6 50.7,11.6 50.7,9.8 51.1,11.6 51.5,11.6 52,9.8 52,11.6 
		52.4,11.6 52.4,9.3 	"/>
	<path class="st185" d="M16.7,49.8l17.1-12.7l-21.1,0C13.7,41.3,15,45.6,16.7,49.8L16.7,49.8z"/>
	<path class="st186" d="M21.4,23.5c0,0.1,0.5,1.7,0.5,1.7c0.1,0,4.8,0,4.9,0c0-0.1,0.5-1.6,0.6-1.8C27.2,23.5,21.6,23.5,21.4,23.5
		L21.4,23.5z"/>
	<path class="st186" d="M35.1,25.2c0-0.1,0-1.7,0-1.8c-0.1,0-1.9,0-2,0c0,0.1,0.5,1.7,0.5,1.8C33.7,25.2,35,25.2,35.1,25.2
		L35.1,25.2z"/>
	<path class="st186" d="M21,22.2c0,0.1,0.3,0.8,0.3,0.9c0.1,0,6.2,0,6.2,0c0-0.1,0.2-0.7,0.3-0.9C27.6,22.2,21.2,22.2,21,22.2
		L21,22.2z"/>
	<path class="st186" d="M33,23.1c0.1,0,2,0,2.1,0c0-0.1,0-0.8,0-0.9c-0.1,0-2.2,0-2.4,0C32.8,22.4,33,23,33,23.1L33,23.1z"/>
	<path class="st186" d="M21.2,19.7h-1.9l0-0.7c0,0-1,0-1.2,0c0,0.1,0,0.7,0,0.7h-1.9c0,0,0-0.6,0-0.7c-0.1,0-1.1,0-1.2,0
		c0,0.1,0,1.7,0,1.8c0.1,0,7.1,0,7.2,0c0-0.1,0-1.7,0-1.8c-0.1,0-0.9,0-1,0C21.2,19.2,21.2,19.7,21.2,19.7L21.2,19.7z"/>
	<path class="st186" d="M21.6,25.2c0-0.1-0.9-2.9-0.9-3c-0.1,0-4.1,0-4.2,0c0,0.1-0.9,2.8-1,3C15.7,25.2,21.4,25.2,21.6,25.2
		L21.6,25.2z"/>
	<path class="st186" d="M16.5,21.9c0.1,0,3.9,0,4.1,0c0-0.1,0-0.6,0-0.7c-0.1,0-3.9,0-4.1,0C16.5,21.3,16.5,21.8,16.5,21.9
		L16.5,21.9z"/>
	<path class="st186" d="M32.9,19.7H31c0,0,0-0.6,0-0.7c-0.1,0-1,0-1.1,0c0,0.1,0,0.7,0,0.7H28c0,0,0-0.6,0-0.7c-0.1,0-1.1,0-1.2,0
		c0,0.1,0,1.7,0,1.8c0.1,0,7.1,0,7.2,0c0-0.1,0-1.7,0-1.8c-0.1,0-0.9,0-1,0C32.9,19.2,32.9,19.7,32.9,19.7L32.9,19.7z"/>
	<path class="st186" d="M33.3,25.2c0-0.1-0.9-2.9-0.9-3c-0.1,0-4.1,0-4.2,0c0,0.1-0.9,2.8-1,3C27.4,25.2,33.1,25.2,33.3,25.2
		L33.3,25.2z"/>
	<path class="st186" d="M28.2,21.9c0.1,0,3.9,0,4.1,0c0-0.1,0-0.6,0-0.7c-0.1,0-3.9,0-4.1,0C28.2,21.3,28.2,21.8,28.2,21.9
		L28.2,21.9z"/>
	<path class="st186" d="M32.8,30c0,0.2,0,0.5,0,0.5c0.1,0,0.4,0,0.6,0C33.3,30.4,33,30.1,32.8,30L32.8,30z"/>
	<path class="st186" d="M28.4,25.6c0,0-1.3,0-1.5,0c0.2,0.2,2.8,2.8,3,3c0-0.2,0-0.7,0-0.7s0.6,0,0.8,0
		C30.6,27.7,28.4,25.6,28.4,25.6L28.4,25.6z"/>
	<path class="st186" d="M15.9,27.9L15.9,27.9l0,0.8l0.7,0.7c0,0,1.3,0,1.6,0c-0.5-0.5-3.7-3.7-3.7-3.8c0,0-1.3,0-1.6,0
		c0.2,0.2,2.3,2.3,2.3,2.3H15.9L15.9,27.9z"/>
	<path class="st186" d="M22.6,29.8c0,0-0.4-0.4-0.5-0.5c0,0.1,0,0.4,0,0.4s0,0.8,0,0.9c0.1,0,0.4,0,0.5,0
		C22.5,30.4,22.6,29.8,22.6,29.8L22.6,29.8z"/>
	<path class="st186" d="M22.3,28.8c0,0-0.1,0-0.2,0.1c0.1,0.1,0.3,0.3,0.4,0.4c0-0.1,0-0.2,0-0.2C22.5,28.9,22.4,28.8,22.3,28.8
		L22.3,28.8z"/>
	<path class="st186" d="M24,29.2c0,0.1,0,0.1,0,0.2c0,0,0.1,0,0.2,0C24.1,29.3,24.1,29.2,24,29.2L24,29.2z"/>
	<path class="st186" d="M22.5,27.7c-0.4-0.4-2.1-2.1-2.1-2.2c0,0-1.3,0-1.6,0c0.1,0.1,0.2,0.2,0.2,0.2s1.9,1.9,1.9,1.9
		C21,27.7,22.3,27.7,22.5,27.7L22.5,27.7z"/>
	<path class="st186" d="M24,27.7L24,27.7l0,0.9l0.5,0.5c0,0,0.2,0.2,0.2,0.2c0,0,0,0,0,0c0,0,1.3,0,1.5,0c-0.5-0.5-3.7-3.7-3.7-3.8
		c0,0-1.3,0-1.5,0c0.1,0.1,0.2,0.2,0.2,0.2s1.9,1.9,1.9,1.9C23,27.7,24,27.7,24,27.7L24,27.7z"/>
	<path class="st186" d="M28.2,29.3c-0.2-0.2-3.7-3.7-3.8-3.8c0,0-1.3,0-1.5,0c0.5,0.5,3.7,3.7,3.7,3.8
		C26.6,29.3,27.9,29.3,28.2,29.3L28.2,29.3z"/>
	<path class="st186" d="M26.4,25.6L26.4,25.6c0,0-1.3,0-1.5,0c0.5,0.5,3.7,3.7,3.7,3.8c0,0,1.2,0,1.3,0c0-0.1,0-0.2,0-0.2l-3-3
		C27,26.1,26.4,25.6,26.4,25.6L26.4,25.6z"/>
	<path class="st186" d="M32.8,27.9c-1.2-1.2-2.3-2.3-2.3-2.3c0,0-1.3,0-1.6,0c0.1,0.1,0.3,0.3,0.3,0.3s2,2,2,2.1
		C31.3,27.9,32.8,27.9,32.8,27.9L32.8,27.9z"/>
	<path class="st186" d="M32.8,28c0,0,0,1.5,0,1.5s1.1,1.1,1.1,1.1c0,0,1.3,0,1.5,0C35.1,30.2,33.9,29.1,32.8,28L32.8,28z"/>
	<path class="st186" d="M37.5,30.5c-0.7-0.7-4.9-4.9-4.9-4.9c0,0-1.3,0-1.5,0c0.2,0.2,2.5,2.5,2.5,2.5s2.4,2.4,2.4,2.4
		C35.9,30.5,37.2,30.5,37.5,30.5L37.5,30.5z"/>
	<path class="st186" d="M20.3,30.9c0,0-4.3,0-4.5,0c0,0.1,0,2.4,0,2.5c0.1,0,4.3,0,4.5,0C20.3,33.3,20.3,31,20.3,30.9L20.3,30.9z"/>
	<path class="st186" d="M20.7,33.4c0.1,0,3.1,0,3.2,0c0-0.1,0-2.4,0-2.5c-0.1,0-3.1,0-3.2,0C20.7,31,20.7,33.3,20.7,33.4L20.7,33.4z
		"/>
	<path class="st186" d="M22.9,30.5c0.1,0,6.9,0,7.1,0c0-0.1,0-0.7,0-0.8c-0.1,0-6.9,0-7.1,0C22.9,29.8,22.9,30.4,22.9,30.5
		L22.9,30.5z"/>
	<path class="st186" d="M17.7,30.5c0,0,1.3,0,1.5,0c0-0.1,0-0.7,0-0.8c-0.1,0-2,0-2.2,0C17.1,29.9,17.7,30.5,17.7,30.5L17.7,30.5
		L17.7,30.5z"/>
	<path class="st186" d="M20.6,30.5c0,0,1,0,1,0c0-0.1,0-0.7,0-0.8c-0.1,0-0.9,0-1,0C20.6,29.8,20.6,30.5,20.6,30.5L20.6,30.5z"/>
	<path class="st186" d="M30.3,33.4c0.1,0,2,0,2.2,0c0-0.1,0-5,0-5.1c-0.1,0-2,0-2.2,0C30.3,28.4,30.3,33.3,30.3,33.4L30.3,33.4z"/>
	<path class="st186" d="M19.5,30.5c0.1,0,0.7,0,0.8,0c0-0.1,0-1.6,0-1.7c-0.1,0-0.7,0-0.8,0C19.5,28.9,19.5,30.4,19.5,30.5
		L19.5,30.5z"/>
	<path class="st186" d="M22.9,29c0,0,0,0.2,0,0.3c0.1,0,0.6,0,0.7,0c0-0.1,0-1.1,0-1.2c-0.1,0-2.9,0-3,0c0,0.1,0,1.1,0,1.2
		c0.1,0,0.9,0,1,0c0-0.1,0-0.3,0-0.3c0-0.3,0.3-0.6,0.7-0.6C22.6,28.4,22.9,28.7,22.9,29L22.9,29z"/>
	<path class="st186" d="M21.3,36.8c0,0,4.3,0,4.5,0c0-0.1,0-2.9,0-3c-0.1,0-7.3,0-7.5,0C18.5,34,21.3,36.8,21.3,36.8L21.3,36.8z"/>
	<path class="st186" d="M16.2,33.8c0,0.1,0,2.9,0,3c0.1,0,2.8,0,3.1,0C19.1,36.6,16.3,33.8,16.2,33.8C16.3,33.8,16.3,33.8,16.2,33.8
		L16.2,33.8z"/>
	<path class="st186" d="M17.8,33.8c0,0-0.8,0-1,0c0.2,0.2,1.7,1.7,1.7,1.7s1.3,1.3,1.3,1.4c0,0,0.8,0,1,0c-0.2-0.2-1.1-1.1-1.1-1.1
		S17.8,33.8,17.8,33.8L17.8,33.8z"/>
	<path class="st186" d="M26.2,33.8c0,0.1,0,2.9,0,3c0.1,0,3,0,3.2,0c-0.2-0.2-3-3-3-3S26.2,33.8,26.2,33.8L26.2,33.8z"/>
	<path class="st186" d="M27.8,33.8c0,0-0.8,0-1,0c0.2,0.2,1.7,1.7,1.7,1.7s1.3,1.3,1.3,1.4c0,0,0.8,0,1,0c-0.2-0.2-1-1-1-1
		S27.8,33.8,27.8,33.8L27.8,33.8z"/>
	<path class="st186" d="M15.9,29.2c0,0.2,0,1.2,0,1.3c0.1,0,1.1,0,1.3,0C17.2,30.5,16,29.4,15.9,29.2L15.9,29.2z"/>
	<path class="st186" d="M19.2,29.3c0-0.1,0-0.9,0-0.9s0.1,0,0.1,0c-0.5-0.5-2.9-2.9-2.9-2.9c0,0-1.3,0-1.5,0
		c0.2,0.2,3.7,3.7,3.8,3.8C18.6,29.3,19.1,29.3,19.2,29.3L19.2,29.3z"/>
	<path class="st186" d="M18.4,25.6c0,0-1.3,0-1.5,0c0.5,0.5,2.9,2.9,2.9,2.9c0,0,0.5,0,0.6,0c0-0.1,0-0.7,0-0.7s0.1,0,0.2,0
		C20.1,27.3,18.4,25.6,18.4,25.6L18.4,25.6z"/>
	<path class="st186" d="M37.5,27.8c-0.5-0.2-0.8-0.8-1.3-2.2c-0.1,0-3,0-3.2,0c0.2,0.2,4.9,4.9,4.9,4.9s0.8,0,1.1,0
		c1.2-2.1,2.9-3.8,5-4.9c-2.5,0.3-4,1.1-5,1.6C38.4,27.7,37.9,28,37.5,27.8L37.5,27.8z"/>
	<path class="st186" d="M11.2,26.5c0,0.5,0.1,0.9,0.1,1.4c0.5,0,1.1,0,1.3,0C12.5,27.7,11.7,27,11.2,26.5L11.2,26.5z"/>
	<path class="st186" d="M32.8,30.9c0,0.1,0,2.4,0,2.5c0.1,0,4.3,0,5.1,0c0.2-0.9,0.6-1.7,1-2.5C38.7,30.9,32.9,30.9,32.8,30.9
		L32.8,30.9z"/>
	<path class="st186" d="M28.3,33.8c0.2,0.2,3.1,3,3.1,3s2.2,0,2.8,0l3.6-2.7c0-0.1,0-0.2,0.1-0.4C36.6,33.8,28.6,33.8,28.3,33.8
		L28.3,33.8z"/>
	<path class="st186" d="M16.1,22.2c-0.1,0-4.2,0-5,0c0,0.3,0,0.6,0,0.9c0.8,0,4.6,0,4.7,0C15.8,23.1,16,22.4,16.1,22.2L16.1,22.2z"
		/>
	<path class="st186" d="M15.7,23.5c-0.1,0-3.9,0-4.6,0c0,0.6,0,1.1,0.1,1.7c0.7,0,3.9,0,4,0C15.1,25.1,15.6,23.6,15.7,23.5
		L15.7,23.5z"/>
	<path class="st186" d="M15.5,28.2c-0.1,0-3.4,0-4.2,0c0.2,1.7,0.4,3.5,0.7,5.2c0.7,0,3.4,0,3.5,0C15.5,33.3,15.5,28.3,15.5,28.2
		L15.5,28.2z"/>
	<path class="st186" d="M15.9,33.8c0,0-3.1,0-3.8,0c0.2,1,0.4,2,0.6,3c0.6,0,3.1,0,3.2,0C15.9,36.7,15.9,33.9,15.9,33.8L15.9,33.8z"
		/>
	<path class="st186" d="M14.6,27.9c-0.5-0.5-2.3-2.3-2.3-2.3c0,0-0.8,0-1.1,0c0,0.1,0,0.3,0,0.4l1.9,1.9
		C13,27.9,14.3,27.9,14.6,27.9L14.6,27.9z"/>
	<path class="st186" d="M30,30.9c-0.1,0-5.6,0-5.7,0c0,0.1,0,2.4,0,2.5c0,0,0.3,0,0.8,0v-1.8h1v1.8c0.5,0,1,0,1.6,0v-1.8h1v1.8
		c0.7,0,1.3,0,1.3,0C30,33.3,30,31,30,30.9L30,30.9z"/>
	<path d="M17,31.4c0.3,0,0.6,0.3,0.6,0.6c0,0.3-0.3,0.6-0.6,0.6c-0.3,0-0.6-0.3-0.6-0.6C16.4,31.7,16.6,31.4,17,31.4L17,31.4z"/>
	<path d="M18.6,31.6c0.2,0,0.4,0.2,0.4,0.4c0,0.2-0.2,0.4-0.4,0.4c-0.2,0-0.4-0.2-0.4-0.4C18.2,31.7,18.3,31.6,18.6,31.6L18.6,31.6z
		"/>
	<path d="M30.9,32.2H32v-1.7l0,0c0-0.3-0.3-0.5-0.6-0.5c-0.3,0-0.5,0.3-0.5,0.5c0,0,0,0.1,0,0.1V32.2L30.9,32.2z"/>
	<polygon points="13.7,29.1 14.8,29.1 14.8,31.8 13.7,31.8 	"/>
	<polygon points="12.3,29.1 13.3,29.1 13.3,31.8 12.3,31.8 	"/>
	<path d="M18.2,24.7h1v-1.5l0,0l0,0c0-0.3-0.2-0.5-0.5-0.5c-0.3,0-0.5,0.2-0.5,0.5l0,0l0,0L18.2,24.7L18.2,24.7z"/>
	<path d="M30,24.7h1v-1.5l0,0l0,0c0-0.3-0.2-0.5-0.5-0.5c-0.3,0-0.5,0.2-0.5,0.5l0,0l0,0L30,24.7L30,24.7z"/>
	<path class="st185" d="M36.5,25.3c0.5,1.4,0.8,2,1.1,2.1l0.2,0c0.3,0,0.7-0.2,1.2-0.5c1.1-0.6,2.7-1.5,5.5-1.7
		c1.7-0.8,3.5-1.2,5.3-1.2c0,0,1.5,0.1,1.5,0.1c0,0,0.6-0.5,0.8-0.6c-0.3,0-16.5,0-16.6,0c0,0.1,0,1.5,0,1.6c0.1,0,0.9,0,0.9,0
		L36.5,25.3L36.5,25.3z"/>
	<path d="M28.3,39.7c-0.3,0.3-0.6,0.6-1.1,0.6c-0.5,0-0.8-0.3-1.1-0.6c-0.3-0.3-0.6-0.6-1.3-0.6c-0.7,0-1,0.3-1.3,0.6
		c-0.3,0.3-0.6,0.6-1.1,0.6c-0.5,0-0.8-0.3-1.1-0.6c-0.3-0.3-0.6-0.6-1.3-0.6c-0.7,0-1,0.3-1.3,0.6c-0.3,0.3-0.5,0.6-1.1,0.6
		c-0.5,0-0.8-0.3-1.1-0.6c-0.3-0.3-0.6-0.6-1.3-0.6c-0.6,0-1,0.3-1.3,0.6c0,0,0,0,0,0c0,0.1,0.1,0.2,0.1,0.3c0,0,0.1-0.1,0.1-0.1
		c0.3-0.3,0.5-0.6,1.1-0.6c0.5,0,0.8,0.3,1.1,0.6c0.3,0.3,0.6,0.6,1.3,0.6c0.7,0,1-0.3,1.3-0.6c0.3-0.3,0.5-0.6,1.1-0.6
		c0.5,0,0.8,0.3,1.1,0.6c0.3,0.3,0.6,0.6,1.3,0.6c0.7,0,1-0.3,1.3-0.6c0.3-0.3,0.6-0.6,1.1-0.6c0.5,0,0.8,0.3,1.1,0.6
		c0.3,0.3,0.6,0.6,1.3,0.6c0.7,0,1-0.3,1.3-0.6c0.3-0.3,0.6-0.6,1.1-0.6c0.1,0,0.1,0,0.1,0c0.1-0.1,0.2-0.2,0.3-0.2
		c-0.1,0-0.3-0.1-0.5-0.1C28.9,39.1,28.6,39.4,28.3,39.7L28.3,39.7z"/>
	<path d="M24.1,42.1c-0.3,0.3-0.6,0.6-1.1,0.6c-0.5,0-0.8-0.3-1.1-0.6c-0.3-0.3-0.6-0.6-1.3-0.6c-0.7,0-1,0.3-1.3,0.6
		c-0.3,0.3-0.5,0.6-1.1,0.6c-0.5,0-0.8-0.3-1.1-0.6c-0.3-0.3-0.6-0.6-1.3-0.6c-0.6,0-1,0.3-1.2,0.6c0,0.1,0.1,0.2,0.1,0.3
		c0,0,0.1-0.1,0.1-0.1c0.3-0.3,0.5-0.6,1.1-0.6c0.5,0,0.8,0.3,1.1,0.6c0.3,0.3,0.6,0.6,1.3,0.6c0.7,0,1-0.3,1.3-0.6
		c0.3-0.3,0.5-0.6,1.1-0.6c0.5,0,0.8,0.3,1.1,0.6C22,42.6,22.3,43,23,43c0.7,0,1-0.3,1.3-0.6c0.3-0.3,0.6-0.6,1.1-0.6
		c0.3,0,0.5,0.1,0.7,0.2c0.1-0.1,0.2-0.1,0.2-0.2c-0.2-0.2-0.5-0.4-1-0.4C24.8,41.5,24.4,41.8,24.1,42.1L24.1,42.1z"/>
	<path d="M21.3,43.9c-0.7,0-1,0.3-1.3,0.6c-0.3,0.3-0.5,0.6-1.1,0.6c-0.5,0-0.8-0.3-1.1-0.6c-0.3-0.3-0.6-0.6-1.3-0.6
		c-0.5,0-0.9,0.2-1.1,0.5c0,0.1,0.1,0.2,0.1,0.3c0.3-0.3,0.5-0.5,1-0.5c0.5,0,0.8,0.3,1.1,0.6c0.3,0.3,0.6,0.6,1.3,0.6
		c0.7,0,1-0.3,1.3-0.6c0.3-0.3,0.5-0.6,1.1-0.6c0.5,0,0.8,0.3,1.1,0.6c0,0,0.1,0.1,0.1,0.1c0.1-0.1,0.2-0.1,0.2-0.2
		c0,0-0.1-0.1-0.1-0.1C22.2,44.2,21.9,43.9,21.3,43.9L21.3,43.9z"/>
	<path d="M17.4,46.3c-0.6,0-0.9,0.3-1.2,0.5c0,0.1,0.1,0.2,0.1,0.3c0.3-0.3,0.5-0.6,1.1-0.6c0.5,0,0.8,0.3,1.1,0.6
		c0.1,0.1,0.2,0.2,0.4,0.3c0.1-0.1,0.2-0.1,0.3-0.2c-0.1-0.1-0.3-0.2-0.4-0.3C18.4,46.6,18,46.3,17.4,46.3L17.4,46.3z"/>
	<path class="st186" d="M20.1,15.5c0,0.8-0.6,1.4-1.4,1.4c-0.8,0-1.4-0.6-1.4-1.4c0-0.8,0.6-1.4,1.4-1.4
		C19.5,14.2,20.1,14.8,20.1,15.5L20.1,15.5z"/>
	<path class="st186" d="M31.8,15.5c0,0.8-0.6,1.4-1.4,1.4c-0.8,0-1.4-0.6-1.4-1.4c0-0.8,0.6-1.4,1.4-1.4
		C31.2,14.2,31.8,14.8,31.8,15.5L31.8,15.5z"/>
</g>
</svg>
