<?xml version="1.0" encoding="utf-8"?>
<!-- Generator: Adobe Illustrator 19.2.1, SVG Export Plug-In . SVG Version: 6.00 Build 0)  -->
<svg version="1.1" id="Capa_1" xmlns="http://www.w3.org/2000/svg" xmlns:xlink="http://www.w3.org/1999/xlink" x="0px" y="0px"
	 viewBox="0 0 100 100" style="enable-background:new 0 0 100 100;" xml:space="preserve">
<style type="text/css">
	.st0{fill:#9C824A;stroke:#9C824A;stroke-width:0.793;stroke-miterlimit:282;}
	.st1{fill:#023474;stroke:#023474;stroke-width:0.793;stroke-miterlimit:282;}
	.st2{fill:#FFFFFF;stroke:#FFFFFF;stroke-width:0.793;stroke-miterlimit:282;}
	.st3{fill:#EF0107;stroke:#EF0107;stroke-width:0.793;stroke-miterlimit:282;}
	.st4{fill:#DB0007;stroke:#DB0007;stroke-width:0.793;stroke-miterlimit:282;}
	.st5{fill:#FFFFFF;}
	.st6{fill:#9C824A;}
	.st7{fill:#EF0107;stroke:#EF0107;stroke-width:0.3115;stroke-miterlimit:282;}
	.st8{fill:#DB0007;stroke:#DB0007;stroke-width:0.3115;stroke-miterlimit:282;}
	.st9{fill:#DB0007;}
	.st10{fill:#FFFFFF;stroke:#FFFFFF;stroke-width:0.3115;stroke-miterlimit:282;}
	.st11{fill:#FFFFFF;stroke:#FFFFFF;stroke-width:0.554;stroke-miterlimit:3.864;}
	.st12{fill:#231F20;}
	.st13{fill:#00B6F1;}
	.st14{fill:#EF3E2E;}
	.st15{fill:#BBBDBF;}
	.st16{fill:#F0B83D;}
	.st17{fill:#001C58;}
	.st18{fill:#94BEE5;}
	.st19{fill:none;stroke:#7A003C;stroke-width:2.2437;stroke-miterlimit:6;}
	.st20{fill:#7A003C;}
	.st21{fill:#FFE600;}
	.st22{fill:#DBA111;}
	.st23{fill:#034694;}
	.st24{fill:#D1D3D4;}
	.st25{fill:#ED1C24;}
	.st26{fill:#6A7AB5;}
	.st27{fill:none;}
	.st28{fill:#274488;}
	.st29{fill:#004798;stroke:#004798;stroke-width:9.375000e-02;}
	.st30{fill:#FFFFFF;stroke:#FFFFFF;stroke-width:9.375000e-02;}
	.st31{fill:#FABC00;stroke:#FABC00;stroke-width:9.375000e-02;}
	.st32{fill:#5299C6;}
	.st33{fill:#60223B;}
	.st34{fill:#F7C240;}
	.st35{fill:#292D6B;}
	.st36{fill:#1B458F;}
	.st37{fill:#C4122E;}
	.st38{fill:#27409B;}
	.st39{clip-path:url(#SVGID_2_);fill:#FFFFFF;}
	.st40{fill:#F4F4F4;}
	.st41{fill:#D3D2D2;}
	.st42{fill:#A7A5A6;}
	.st43{fill:#091453;}
	.st44{fill:none;stroke:#FFFFFF;stroke-width:6.6301;}
	.st45{clip-path:url(#SVGID_4_);}
	.st46{fill:#724314;}
	.st47{fill:#240B08;}
	.st48{fill:#018B4B;}
	.st49{fill:#A6181D;}
	.st50{fill:#592D09;}
	.st51{fill:#FFCE65;}
	.st52{fill:#5CBFEB;}
	.st53{fill:none;stroke:#000000;stroke-width:10;}
	.st54{fill:none;stroke:#000000;}
	.st55{fill:#B2B2B2;}
	.st56{fill:none;stroke:#000000;stroke-width:0.3;}
	.st57{fill:#00A650;stroke:#000000;stroke-width:2;}
	.st58{fill:#241F20;stroke:#241F20;stroke-width:9.375000e-02;}
	.st59{fill:#FFF200;stroke:#FFF200;stroke-width:9.375000e-02;}
	.st60{fill:#A68A26;}
	.st61{fill:none;stroke:#A68A26;stroke-width:4.792100e-02;stroke-miterlimit:3.8637;}
	.st62{fill:#211E1E;}
	.st63{fill:none;stroke:#211E1E;stroke-width:4.792100e-02;stroke-miterlimit:3.8637;}
	.st64{fill:#EB172B;}
	.st65{fill:none;stroke:#EB172B;stroke-width:4.792100e-02;stroke-miterlimit:3.8637;}
	.st66{fill:#A68A26;stroke:#A68A26;stroke-width:4.792100e-02;stroke-miterlimit:3.8637;}
	.st67{fill:#D1BF7F;}
	.st68{fill:none;stroke:#D1BF7F;stroke-width:4.792100e-02;stroke-miterlimit:3.8637;}
	.st69{fill:none;stroke:#FFFFFF;stroke-width:4.792100e-02;stroke-miterlimit:3.8637;}
	.st70{fill:#EB172B;stroke:#EB172B;stroke-width:4.792100e-02;stroke-miterlimit:3.8637;}
	.st71{fill:#ED2127;}
	.st72{fill:#FBEE23;}
	.st73{stroke:#000000;}
	.st74{fill:#CF1F44;}
	.st75{fill:#1B449C;}
	.st76{fill:#E03A3E;}
	.st77{fill:#2E6ABD;stroke:#2E6ABD;stroke-width:0.617;}
	.st78{fill:#FFFFFF;stroke:#FFFFFF;stroke-width:0.6175;}
	.st79{fill:#ED1248;}
	.st80{fill:#2E6ABD;}
	.st81{fill:#FDE100;}
	.st82{fill:#CC0000;}
	.st83{fill:#211E1F;}
	.st84{fill:#ED1A3B;}
	.st85{fill:#00AEEF;}
	.st86{fill:#FFC40D;}
	.st87{fill:#22B24C;}
	.st88{fill:#FFC20E;}
	.st89{fill:#0A3F86;}
	.st90{fill:#005CA9;}
	.st91{fill:#0060A9;}
	.st92{fill:#E32219;}
	.st93{fill:#FFED00;}
	.st94{fill:#1D9053;}
	.st95{fill:#52A600;}
	.st96{fill:#EE2523;}
	.st97{fill:#F7D117;}
	.st98{fill:#171796;}
	.st99{fill:#009959;}
	.st100{fill:#D42E12;}
	.st101{fill:#703824;}
	.st102{fill:#E5254E;}
	.st103{fill:#8AC3EE;}
	.st104{fill:#B19221;}
	.st105{fill:#F5C03E;}
	.st106{fill:#FF1119;}
	.st107{fill:#1E6BC0;}
	.st108{fill:#B4742A;}
	.st109{fill:#371B02;}
	.st110{fill:url(#SVGID_5_);}
	.st111{fill:url(#SVGID_6_);}
	.st112{fill:url(#SVGID_7_);}
	.st113{fill:url(#SVGID_8_);}
	.st114{fill:url(#SVGID_9_);}
	.st115{fill:url(#SVGID_10_);}
	.st116{fill:url(#SVGID_11_);}
	.st117{fill:url(#SVGID_12_);}
	.st118{fill:url(#SVGID_13_);}
	.st119{fill:url(#SVGID_14_);}
	.st120{fill:#EB2626;}
	.st121{fill:#E9C32C;}
	.st122{fill:#D9D9D9;}
	.st123{fill:#009C5E;}
	.st124{fill:#1C75BC;}
	.st125{fill:#611D5C;}
	.st126{fill:#E2B900;}
	.st127{fill:#004B95;}
	.st128{fill:#A4234B;}
	.st129{fill:#DB2F36;}
	.st130{fill:#FFDF00;}
	.st131{fill:#23C1E0;}
	.st132{fill:#F1A92A;}
	.st133{fill:#167FB6;}
	.st134{fill:#FED75D;}
	.st135{fill:#378CBF;}
	.st136{fill:#3E9692;}
	.st137{fill:#E67F29;}
	.st138{fill:#D8B43C;}
	.st139{fill:#EF3B33;}
	.st140{fill:#24923D;}
	.st141{opacity:6.000001e-02;fill:#101010;enable-background:new    ;}
	.st142{fill:#00529F;}
	.st143{fill:#EE324E;}
	.st144{fill:#FEBE10;}
	.st145{fill:#143C8B;}
	.st146{fill:#FFE24A;}
	.st147{fill:#EC1D24;}
	.st148{fill:#E6A514;}
	.st149{fill:#FFDF1C;}
	.st150{fill:#EE3524;}
	.st151{fill:#B23428;}
	.st152{fill:#D18816;}
	.st153{fill:#0097D7;}
	.st154{fill:#ED1C23;}
	.st155{fill:#E30613;}
	.st156{fill:#FFE400;}
	.st157{fill:#C51A1B;}
	.st158{clip-path:url(#SVGID_17_);}
	.st159{clip-path:url(#SVGID_18_);fill:none;stroke:#000000;stroke-width:0.8131;stroke-miterlimit:3.864;}
	.st160{fill:#0093D5;}
	.st161{fill:#004B9D;}
	.st162{fill:#FCC24F;}
	.st163{fill:#009545;}
	.st164{fill:#0072BB;}
	.st165{fill:#C4974E;}
	.st166{fill:url(#path1292_1_);}
	.st167{fill:#004996;}
	.st168{fill:#FFE667;}
	.st169{fill:none;stroke:#005187;stroke-width:0.153;stroke-miterlimit:3.864;}
	.st170{fill:#005187;}
	.st171{clip-path:url(#SVGID_20_);}
	.st172{clip-path:url(#SVGID_22_);fill:none;stroke:#000000;stroke-width:0.296;stroke-miterlimit:3.864;}
	.st173{clip-path:url(#SVGID_24_);fill:#FFE667;}
	.st174{clip-path:url(#SVGID_26_);fill:none;stroke:#000000;stroke-width:8.300000e-02;stroke-miterlimit:3.864;}
	.st175{fill:none;stroke:#000000;stroke-width:0.153;stroke-miterlimit:3.864;}
	.st176{clip-path:url(#SVGID_28_);fill:#E70005;}
	.st177{clip-path:url(#SVGID_30_);fill:none;stroke:#E70005;stroke-width:0.296;stroke-miterlimit:3.864;}
	.st178{clip-path:url(#SVGID_32_);fill:#E70005;}
	.st179{clip-path:url(#SVGID_34_);fill:none;stroke:#E70005;stroke-width:0.296;stroke-miterlimit:3.864;}
	.st180{clip-path:url(#SVGID_36_);fill:#E70005;}
	.st181{clip-path:url(#SVGID_38_);fill:none;stroke:#E70005;stroke-width:0.296;stroke-miterlimit:3.864;}
	.st182{clip-path:url(#SVGID_40_);fill:#E70005;}
	.st183{clip-path:url(#SVGID_42_);fill:none;stroke:#E70005;stroke-width:0.296;stroke-miterlimit:3.864;}
	.st184{fill:#E70005;}
	.st185{fill:none;stroke:#000000;stroke-width:0.141;stroke-miterlimit:3.864;}
	.st186{fill:#E2001A;}
	.st187{fill:#00276D;}
	.st188{fill:#C49308;}
	.st189{fill:#179D33;}
	.st190{fill:#999999;}
	.st191{fill:#FF0000;}
	.st192{fill:#E31837;}
	.st193{fill:#06357A;}
	.st194{fill:#B4053F;}
	.st195{fill:#DCA43E;}
	.st196{fill:#005CA5;}
	.st197{fill:#FAC400;}
	.st198{fill:#004083;}
	.st199{fill:#A95932;}
	.st200{fill:none;stroke:#000000;stroke-width:1.2215;}
	.st201{fill:#E62627;}
	.st202{fill:#00458C;}
	.st203{fill:#E11B22;}
	.st204{fill:#00AB4E;}
	.st205{fill:#F47920;}
	.st206{fill:#C7C8CA;}
	.st207{fill:#E11515;}
	.st208{fill:#A4965F;}
	.st209{fill:#E51636;}
	.st210{fill:#EACC00;}
	.st211{fill:#4F846B;}
	.st212{fill:#E22227;}
	.st213{fill:#FAE700;}
	.st214{fill:url(#SVGID_43_);}
	.st215{fill:#666666;}
	.st216{fill:#FFF200;}
	.st217{fill:#00275D;}
	.st218{fill:#EF3E33;}
	.st219{fill:none;stroke:#00275D;stroke-width:2.632;}
	.st220{fill:#3F7652;}
	.st221{fill:#F1D261;}
	.st222{fill:#004D8F;}
	.st223{fill:#E7B137;stroke:#E7B137;stroke-miterlimit:10;}
	.st224{fill:#E7B137;}
	.st225{fill:#162577;}
	.st226{fill:#12692C;}
	.st227{fill:#D8141D;}
	.st228{fill:#AB830D;}
	.st229{fill:#0086CB;}
	.st230{fill:#001F42;}
	.st231{fill:#9A8F4A;}
	.st232{fill:#00559D;}
	.st233{fill:#FDDE00;}
	.st234{fill:#00924C;}
	.st235{fill:#233984;}
	.st236{fill:#FFD42E;}
	.st237{fill:#BA3733;}
	.st238{fill:#46714D;}
	.st239{fill:#221F1F;}
	.st240{fill:#00559E;}
	.st241{fill:#005C46;}
	.st242{fill:#FBC860;}
	.st243{fill:#D57C48;}
	.st244{fill:#040403;}
	.st245{fill:#4AB969;}
	.st246{fill:#8ED8F8;}
	.st247{fill:#FEC34E;}
	.st248{fill:#FFC95B;}
	.st249{fill:#00644C;}
	.st250{fill:#70B865;}
	.st251{fill:#CA6F44;}
	.st252{fill:#A8B8BE;}
	.st253{fill:#1C2C80;}
	.st254{fill:#E10321;}
	.st255{fill:none;stroke:#231F20;stroke-width:0.318;stroke-miterlimit:3.864;}
	.st256{fill:#D71920;}
	.st257{fill:#484749;}
	.st258{fill:#D9DBDC;}
	.st259{fill:#DF725A;}
	.st260{fill:#F2CABA;}
	.st261{fill:#E89C84;}
	.st262{fill:#264F99;}
	.st263{clip-path:url(#SVGID_45_);}
	.st264{fill:#161413;}
	.st265{fill:#ED1B26;}
	.st266{fill:#E60D2E;}
	.st267{fill:#FCD600;}
	.st268{fill:#004D91;}
	.st269{fill:#EAB412;}
	.st270{fill:#FDD31D;}
	.st271{fill:#EFB800;}
	.st272{fill:#FFF100;}
	.st273{fill:#ED3024;}
	.st274{fill:#00A398;}
	.st275{fill:#D00027;}
	.st276{fill:#FEF667;}
	.st277{fill:#FFE000;}
	.st278{opacity:0;fill:#FFFFFF;}
	.st279{fill:#937430;}
	.st280{fill:#5A2D6B;}
	.st281{fill:#D4E5F1;}
	.st282{fill:#4897D2;}
	.st283{fill:#CC6323;}
	.st284{fill:#DE9500;}
	.st285{fill:#00954C;}
	.st286{fill:#D7013E;}
</style>
<g>
	<path id="path3_3_"  class="st284" d="M63,41.4c-3.4-3.3-7.9-5.3-13-5.3c-5,0-9.6,2-13,5.3H0
		L50,91l50-49.6C100,41.4,63,41.4,63,41.4z"/>
	<path id="path5_5_"  class="st5" d="M50,37.9c9.3,0,16.9,7.6,16.9,16.9c0,9.3-7.6,16.9-16.9,16.9
		c-9.3,0-16.9-7.6-16.9-16.9C33.1,45.5,40.7,37.9,50,37.9"/>
	<path id="path7_12_"  class="st285" d="M42.2,51.5h1.4v-2.1h-1.4v-2.6h4.1v7h-4.1V51.5 M42.2,60.7
		h1.4v-2.1h-1.4v-2.3h4.1v6.8h-4.1C42.2,63.1,42.2,60.7,42.2,60.7z M53.7,63.1h-5v-6.8h1V57h1.4v-0.7h2c0.5,0,0.6,1,0.6,1L53.7,63.1
		L53.7,63.1z M53.7,52.4l0,0.3c0,0-0.1,1.1-0.8,1.1h-1.8v-0.9h-1.4v0.9h-1v-7h5L53.7,52.4L53.7,52.4z M59.8,60.9
		c-0.1,0.4-0.8,2.2-1.5,2.2c0,0-0.1,0-0.1,0h-2.4v-5.9h0c0-0.4-0.2-0.8-0.2-0.9H58c0.2,0,1.8,0.6,1.8,2.6h-1.6v1.9H59.8z M59.9,51.5
		L59.9,51.5c0,0-0.9,2.4-1.6,2.4l-0.1,0h-2.7c0-0.1,0.3-0.6,0.3-1.1v-5.9h2.3c0,0,1.7,0.6,1.7,2.7h-1.6v1.9L59.9,51.5L59.9,51.5z
		 M63.6,49.5h-1.4c0,0-0.3-3.8-3.1-5.1h-3.1v-0.1c0-3.1-2.3-3.7-3.9-3.7c-1.6,0-2.4,0.7-2.4,0.7v2.2c0,0,0-0.8,2.2-0.8
		c2.4,0,1.9,1.7,1.9,1.7v0h-5v-1.4c0-2.3-1.2-2.9-2.5-2.9l-1,0v2.5h0.6c0.4,0,0.5,0.3,0.5,0.5v1.3h-7.7v2.4h1.7v2.6h-1.7v2.1h1.7
		v2.3h-1.7v2.5h1.7v2.3h-1.7v2.1h1.7v2.4h-1.7v2.1h7.6v0.6c0,0.4-0.4,0.4-0.4,0.4H45v2.5h1.5c0.6,0,2.1-0.7,2.1-2.3v-0.9l0-0.3h5
		c0,1.1-0.6,1.7-2.1,1.7c-1.5,0-2-0.7-2-0.7v2.2c0.5,0.5,2.3,0.7,2.3,0.7c3.8,0,3.9-3.2,3.9-3.8h3.4c0,0,2.4-1,2.7-4.3h1.6V59h-1.5
		c0-0.1-0.1-3.2-1.7-4.1c0,0,1.6-0.9,1.6-3.4l0,0h1.6V49.5z"/>
	<polygon id="polygon9_1_" class="st285" points="11.3,43.1 11.3,50.1 18.3,57.1 18.3,43.1 	"/>
	<polygon id="polygon11_1_" class="st5" points="11.3,50.1 11.3,43.1 4.2,43.1 4.2,43.1 	"/>
	<path id="path13"  class="st285" d="M31.4,54.8c0-2.1,0.4-4.2,1-6.1v-5.5h-7v21l7,7V60.9
		C31.7,59,31.4,56.9,31.4,54.8z"/>
	<polygon id="polygon15_1_" class="st5" points="25.3,43.1 18.3,43.1 18.3,57.1 25.3,64.1 	"/>
	<path id="path17"  class="st285" d="M39.4,70.1v8l7,7v-12C43.9,72.6,41.5,71.6,39.4,70.1z"/>
	<path id="path19"  class="st5" d="M32.4,60.9v10.2l7,7v-8C36.2,67.9,33.7,64.7,32.4,60.9z"/>
	<path id="path21"  class="st5" d="M35.5,43.1h-3.1v5.5C33.1,46.7,34.1,44.8,35.5,43.1z"/>
	<path id="path23"  class="st285" d="M53.5,73.1v12l7-7v-8C58.5,71.6,56.1,72.6,53.5,73.1z"/>
	<path id="path25"  class="st5" d="M50,73.4c-1.2,0-2.4-0.1-3.5-0.3v12l3.5,3.5l3.5-3.5v-12
		C52.4,73.3,51.2,73.4,50,73.4z"/>
	<path id="path27"  class="st285" d="M67.6,43.1v5.5c0.7,1.9,1,4,1,6.1c0,2.1-0.4,4.2-1,6.1v10.2
		l7-7v-21H67.6z"/>
	<path id="path29"  class="st5" d="M60.6,70.1v8l7-7V60.9C66.3,64.6,63.8,67.9,60.6,70.1z"/>
	<path id="path31"  class="st5" d="M64.5,43.1c1.3,1.6,2.4,3.5,3.1,5.5v-5.5H64.5z"/>
	<polygon id="polygon33" class="st285" points="81.7,57.1 88.7,50.1 88.7,43.1 81.7,43.1 	"/>
	<polygon id="polygon35" class="st5" points="81.7,43.1 74.7,43.1 74.7,64.1 81.7,57.1 	"/>
	<polygon id="polygon37_1_" class="st5" points="95.8,43.1 88.7,43.1 88.7,50.1 	"/>
	<path id="path39"  class="st286" d="M47.8,27.1c0-0.8,0.4-1.5,1.1-1.9v-4.9c-4,0.2-7.6,1.3-10.4,3
		c0.3,1.1,1,2.2,2.1,3.1c0.3-0.1,0.6-0.2,0.9-0.2c1.2,0,2.2,1,2.2,2.2c0,0.9-0.5,1.6-1.2,2l0,0c0.2,0.4,0.6,0.7,1,0.9
		c0.4,0.1,0.9,0.1,1.3-0.1c0.4-0.2,0.7-0.6,0.9-1c0-0.1,0-0.1,0.1-0.2c-0.3-0.2-0.5-0.5-0.4-0.9c0.1-0.4,0.5-0.6,0.9-0.5
		c0.4,0.1,0.6,0.5,0.5,0.9c0,0.1-0.1,0.3-0.2,0.3c0.2,0.4,0.5,0.7,1,0.8c0.4,0.1,0.9,0.1,1.3-0.1c0.4-0.2,0.7-0.6,0.9-1
		c0-0.1,0.1-0.2,0.1-0.3C48.6,29.1,47.8,28.2,47.8,27.1"/>
	<path id="path41"  class="st286" d="M41.4,30.6c-1.2,0-2.2-1-2.2-2.2c0,0,0-0.1,0-0.1
		C38,27.2,37,26,36.5,24.7c-1.9,1.6-3.1,3.6-3.5,5.7c0.2-0.1,0.4-0.1,0.6-0.1c1.2,0,2.2,1,2.2,2.2c0,0.6-0.2,1.1-0.6,1.5
		c0.3,0.3,0.7,0.5,1.2,0.5c1,0,1.7-0.8,1.7-1.7c0-0.1,0-0.1,0-0.2c-0.4,0-0.7-0.3-0.7-0.7c0-0.4,0.3-0.7,0.7-0.7
		c0.4,0,0.7,0.3,0.7,0.7c0,0.1,0,0.3-0.1,0.4c0.3,0.3,0.7,0.5,1.2,0.5c1,0,1.7-0.8,1.7-1.7c0-0.1,0-0.2,0-0.4
		C41.7,30.6,41.6,30.6,41.4,30.6"/>
	<path id="path43"  class="st286" d="M52.2,27.1c0-0.8-0.4-1.5-1.1-1.9v-4.9c4,0.2,7.6,1.3,10.4,3
		c-0.3,1.1-1,2.2-2.1,3.1c-0.3-0.1-0.6-0.2-0.9-0.2c-1.2,0-2.2,1-2.2,2.2c0,0.9,0.5,1.6,1.2,2l0,0c-0.2,0.4-0.6,0.7-1,0.9
		c-0.4,0.1-0.9,0.1-1.3-0.1c-0.4-0.2-0.7-0.6-0.9-1c0-0.1,0-0.1-0.1-0.2c0.3-0.2,0.5-0.5,0.4-0.9c-0.1-0.4-0.5-0.6-0.9-0.5
		c-0.4,0.1-0.6,0.5-0.5,0.9c0,0.1,0.1,0.3,0.2,0.3c-0.2,0.4-0.5,0.7-1,0.8c-0.4,0.1-0.9,0.1-1.3-0.1c-0.4-0.2-0.7-0.6-0.9-1
		c0-0.1-0.1-0.2-0.1-0.3C51.4,29.1,52.2,28.2,52.2,27.1"/>
	<path id="path45"  class="st286" d="M58.6,30.6c1.2,0,2.2-1,2.2-2.2c0,0,0-0.1,0-0.1
		c1.3-1.1,2.2-2.3,2.7-3.6c1.9,1.6,3.1,3.6,3.5,5.7c-0.2-0.1-0.4-0.1-0.6-0.1c-1.2,0-2.2,1-2.2,2.2c0,0.6,0.2,1.1,0.6,1.5
		c-0.3,0.3-0.7,0.5-1.2,0.5c-1,0-1.7-0.8-1.7-1.7c0-0.1,0-0.1,0-0.2c0.4,0,0.7-0.3,0.7-0.7c0-0.4-0.3-0.7-0.7-0.7
		c-0.4,0-0.7,0.3-0.7,0.7c0,0.1,0,0.3,0.1,0.4c-0.3,0.3-0.7,0.5-1.2,0.5c-1,0-1.7-0.8-1.7-1.7c0-0.1,0-0.2,0-0.4
		C58.3,30.6,58.4,30.6,58.6,30.6"/>
	<path id="path47"  class="st284" d="M71.8,26.2c0-2.1-0.9-4.1-2.5-5.6c-1.8-1.7-4.1-2.6-6.8-2.7
		c-2-2.8-6-4.9-10.7-5.3c0-0.8-0.5-1.5-1.3-1.7v-0.3l0.9,0l0-1l-0.9,0l0-0.7L50,9l-0.5,0l0,0.7l-0.9,0l0,1l0.9,0V11
		c-0.7,0.2-1.3,0.9-1.3,1.7c-4.7,0.4-8.7,2.5-10.7,5.3c-2.6,0.1-5,1-6.8,2.7c-1.6,1.5-2.5,3.5-2.5,5.6c0,2.3,1.2,4.4,3.3,6.1
		c0,0,0,0.1,0,0.2c0,1.2,1,2.2,2.2,2.2c0.2,0,0.5,0,0.7-0.1c0.2,0.4,0.8,1.3,2.2,1.3c-0.1,0.1-0.2,0.1-0.3,0.2
		c-0.2,0.2-0.6,0.7-0.2,1.2c0.2,0.3,0.4,0.4,0.7,0.4c0.1,0,0.2,0,0.3,0l1.1,1.5l0.2-0.2c3.4-2.5,7.4-3.8,11.5-3.8s8.2,1.3,11.5,3.8
		l0.2,0.2l1.1-1.5c0.1,0,0.2,0,0.3,0c0.3,0,0.6-0.1,0.7-0.4c0.4-0.6,0-1.1-0.2-1.2c-0.1-0.1-0.2-0.1-0.3-0.2c1.4,0,2-0.9,2.2-1.3
		c0.2,0.1,0.5,0.1,0.7,0.1c1.2,0,2.2-1,2.2-2.2c0-0.1,0-0.1,0-0.2C70.6,30.7,71.8,28.5,71.8,26.2z M40.1,32.7
		c-0.5,0-0.9-0.2-1.2-0.5c0.1-0.1,0.1-0.3,0.1-0.4c0-0.4-0.3-0.7-0.7-0.7c-0.4,0-0.7,0.3-0.7,0.7c0,0.4,0.3,0.7,0.7,0.7
		c0,0.1,0,0.1,0,0.2c0,1-0.8,1.7-1.7,1.7c-0.5,0-0.9-0.2-1.2-0.5c0.4-0.4,0.6-0.9,0.6-1.5c0-1.2-1-2.2-2.2-2.2c-0.2,0-0.4,0-0.6,0.1
		c-0.1,0-0.2,0.1-0.3,0.1c-1.5-1.2-2.3-2.7-2.3-4.2c0-1.5,0.7-2.9,1.8-4c1.1-1,2.5-1.7,4-1.9c-0.2,0.6-0.3,1.2-0.3,1.8
		c0,0.9,0.2,1.7,0.5,2.5c0.5,1.3,1.4,2.6,2.7,3.6c0,0,0,0.1,0,0.1c0,1.2,1,2.2,2.2,2.2c0.1,0,0.2,0,0.4,0c0,0.1,0,0.2,0,0.4
		C41.9,31.9,41.1,32.7,40.1,32.7z M49.6,29.6c-0.1,0.4-0.5,0.8-0.9,1c-0.4,0.2-0.9,0.2-1.3,0.1c-0.4-0.1-0.8-0.4-1-0.8
		c0.1-0.1,0.2-0.2,0.2-0.3c0.1-0.4-0.1-0.8-0.5-0.9c-0.4-0.1-0.8,0.1-0.9,0.5c-0.1,0.4,0.1,0.8,0.4,0.9c0,0.1,0,0.1-0.1,0.2
		c-0.1,0.4-0.5,0.8-0.9,1c-0.4,0.2-0.9,0.2-1.3,0.1c-0.4-0.1-0.8-0.5-1-0.9l0,0c0.7-0.4,1.2-1.1,1.2-2c0-1.2-1-2.2-2.2-2.2
		c-0.3,0-0.6,0.1-0.9,0.2c-1.1-0.9-1.8-2-2.1-3.1c-0.1-0.4-0.1-0.7-0.1-1.1c0-3.7,4.7-6.9,10.5-7.2v10.3c-0.6,0.4-1.1,1.1-1.1,1.9
		c0,1.1,0.8,2,1.9,2.2C49.7,29.4,49.7,29.5,49.6,29.6z M57.6,30.4c-0.2,0.4-0.6,0.7-1,0.9c-0.4,0.1-0.9,0.1-1.3-0.1
		c-0.4-0.2-0.7-0.6-0.9-1c0-0.1,0-0.1-0.1-0.2c0.3-0.2,0.5-0.5,0.4-0.9c-0.1-0.4-0.5-0.6-0.9-0.5c-0.4,0.1-0.6,0.5-0.5,0.9
		c0,0.1,0.1,0.3,0.2,0.3c-0.2,0.4-0.5,0.7-1,0.8c-0.4,0.1-0.9,0.1-1.3-0.1c-0.4-0.2-0.7-0.6-0.9-1c0-0.1-0.1-0.2-0.1-0.3
		c1.1-0.2,1.9-1.1,1.9-2.2c0-0.8-0.4-1.5-1.1-1.9V14.9c5.8,0.4,10.5,3.5,10.5,7.2c0,0.4,0,0.7-0.1,1.1c-0.3,1.1-1,2.2-2.1,3.1
		c-0.3-0.1-0.6-0.2-0.9-0.2c-1.2,0-2.2,1-2.2,2.2C56.3,29.3,56.8,30,57.6,30.4C57.6,30.4,57.6,30.4,57.6,30.4z M67.2,30.5
		c-0.1,0-0.2-0.1-0.3-0.1c-0.2-0.1-0.4-0.1-0.6-0.1c-1.2,0-2.2,1-2.2,2.2c0,0.6,0.2,1.1,0.6,1.5c-0.3,0.3-0.7,0.5-1.2,0.5
		c-1,0-1.7-0.8-1.7-1.7c0-0.1,0-0.1,0-0.2c0.4,0,0.7-0.3,0.7-0.7c0-0.4-0.3-0.7-0.7-0.7c-0.4,0-0.7,0.3-0.7,0.7c0,0.1,0,0.3,0.1,0.4
		c-0.3,0.3-0.7,0.5-1.2,0.5c-1,0-1.7-0.8-1.7-1.7c0-0.1,0-0.2,0-0.4c0.1,0,0.2,0,0.4,0c1.2,0,2.2-1,2.2-2.2c0,0,0-0.1,0-0.1
		c1.3-1.1,2.2-2.3,2.7-3.6c0.3-0.8,0.5-1.6,0.5-2.5c0-0.6-0.1-1.2-0.3-1.8c1.6,0.3,3,0.9,4,1.9c1.2,1.1,1.8,2.5,1.8,4
		C69.5,27.8,68.7,29.2,67.2,30.5z"/>
</g>
</svg>
