<?xml version="1.0" encoding="utf-8"?>
<!-- Generator: Adobe Illustrator 19.2.1, SVG Export Plug-In . SVG Version: 6.00 Build 0)  -->
<svg version="1.1" id="Capa_1" xmlns="http://www.w3.org/2000/svg" xmlns:xlink="http://www.w3.org/1999/xlink" x="0px" y="0px"
	 viewBox="0 0 100 100" style="enable-background:new 0 0 100 100;" xml:space="preserve">
<style type="text/css">
	.st0{fill:url(#path34_4_);}
	.st1{fill:url(#path890_1_);}
	.st2{fill:#FFE500;stroke:#000000;stroke-width:2.098;stroke-miterlimit:3.863;}
	.st3{fill:#DA020E;}
	.st4{fill:#FFE500;}
	.st5{clip-path:url(#SVGID_2_);}
	.st6{fill:none;stroke:#B54005;stroke-width:10;stroke-miterlimit:3.863;}
	.st7{fill:url(#path7506_1_);}
	.st8{fill:url(#path8794_1_);}
	.st9{fill:url(#path15846_1_);}
	.st10{fill:url(#path16274_1_);}
	.st11{fill:url(#path39821_1_);}
	.st12{fill:url(#path39847_1_);}
	.st13{fill:url(#path39878_1_);}
	.st14{fill:url(#path39888_1_);}
	.st15{fill:url(#path41035_1_);}
	.st16{fill:url(#path9646-8_1_);}
	.st17{fill:url(#path41092_1_);}
	.st18{fill:url(#path41094_1_);}
	.st19{fill:none;stroke:#000000;stroke-width:2.098;stroke-miterlimit:3.863;}
	.st20{fill:url(#path41152_1_);}
	.st21{fill:url(#path39854_1_);}
	.st22{fill:url(#path39874_1_);}
	.st23{fill:#9C824A;stroke:#9C824A;stroke-width:0.793;stroke-miterlimit:282;}
	.st24{fill:#023474;stroke:#023474;stroke-width:0.793;stroke-miterlimit:282;}
	.st25{fill:#FFFFFF;stroke:#FFFFFF;stroke-width:0.793;stroke-miterlimit:282;}
	.st26{fill:#EF0107;stroke:#EF0107;stroke-width:0.793;stroke-miterlimit:282;}
	.st27{fill:#DB0007;stroke:#DB0007;stroke-width:0.793;stroke-miterlimit:282;}
	.st28{fill:#FFFFFF;}
	.st29{fill:#9C824A;}
	.st30{fill:#EF0107;stroke:#EF0107;stroke-width:0.3115;stroke-miterlimit:282;}
	.st31{fill:#DB0007;stroke:#DB0007;stroke-width:0.3115;stroke-miterlimit:282;}
	.st32{fill:#DB0007;}
	.st33{fill:#FFFFFF;stroke:#FFFFFF;stroke-width:0.3115;stroke-miterlimit:282;}
	.st34{fill:#FFFFFF;stroke:#FFFFFF;stroke-width:0.554;stroke-miterlimit:3.864;}
	.st35{fill:#231F20;}
	.st36{fill:#00B6F1;stroke:#00B6F1;stroke-width:1.700000e-02;stroke-miterlimit:3.864;}
	.st37{fill:#EF3E2E;}
	.st38{fill:#BBBDBF;}
	.st39{fill:#F0B83D;}
	.st40{fill:#00B6F1;stroke:#FFFFFF;stroke-width:1.700000e-02;stroke-miterlimit:3.864;}
	.st41{fill:#001C58;}
	.st42{fill:#94BEE5;}
	.st43{fill:none;stroke:#7A003C;stroke-width:2.2437;stroke-miterlimit:6;}
	.st44{fill:#7A003C;}
	.st45{fill:#FFE600;}
	.st46{fill:#DBA111;}
	.st47{fill:#034694;}
	.st48{fill:#D1D3D4;}
	.st49{fill:#ED1C24;}
	.st50{fill:#6A7AB5;}
	.st51{fill:none;}
	.st52{fill:#274488;}
	.st53{fill:#004798;stroke:#004798;stroke-width:9.375000e-02;}
	.st54{fill:#FFFFFF;stroke:#FFFFFF;stroke-width:9.375000e-02;}
	.st55{fill:#FABC00;stroke:#FABC00;stroke-width:9.375000e-02;}
	.st56{fill:none;stroke:#FFFFFF;stroke-width:7.865;stroke-miterlimit:3.864;}
	.st57{fill:none;stroke:#FFFFFF;stroke-width:7.865;stroke-miterlimit:12;}
	.st58{fill:none;stroke:#FFFFFF;stroke-width:7.865;stroke-miterlimit:22;}
	.st59{fill:none;stroke:#FFFFFF;stroke-width:7.865;stroke-miterlimit:6;}
	.st60{fill:#00A398;}
	.st61{fill:#D00027;}
	.st62{fill:none;stroke:#FFFFFF;stroke-width:17.3907;stroke-miterlimit:3.864;}
	.st63{fill:none;stroke:#FFFFFF;stroke-width:13.1107;stroke-miterlimit:3.864;}
	.st64{fill:#FEF667;}
	.st65{fill:#D00027;stroke:#D00027;}
	.st66{fill:#5299C6;}
	.st67{fill:#60223B;}
	.st68{fill:#F7C240;}
	.st69{fill:#292D6B;}
	.st70{fill:#1B458F;}
	.st71{fill:#C4122E;}
	.st72{fill:#27409B;}
	.st73{clip-path:url(#SVGID_4_);}
	.st74{fill:#F4F4F4;}
	.st75{fill:#D3D2D2;}
	.st76{fill:#A7A5A6;}
	.st77{fill:#091453;}
	.st78{fill:none;stroke:#FFFFFF;stroke-width:6.6301;}
	.st79{clip-path:url(#SVGID_6_);}
	.st80{fill:#724314;}
	.st81{fill:#240B08;}
	.st82{fill:#018B4B;}
	.st83{fill:#A6181D;}
	.st84{fill:#592D09;}
	.st85{fill:#FFCE65;}
	.st86{fill:#5CBFEB;}
	.st87{fill:none;stroke:#000000;stroke-width:10;}
	.st88{fill:none;stroke:#000000;}
	.st89{fill:#B2B2B2;}
	.st90{fill:none;stroke:#000000;stroke-width:0.3;}
	.st91{fill:#00A650;stroke:#000000;stroke-width:2;}
	.st92{fill:#241F20;stroke:#241F20;stroke-width:9.375000e-02;}
	.st93{fill:#FFF200;stroke:#FFF200;stroke-width:9.375000e-02;}
	.st94{fill:#A68A26;}
	.st95{fill:none;stroke:#A68A26;stroke-width:4.792100e-02;stroke-miterlimit:3.8637;}
	.st96{fill:#211E1E;}
	.st97{fill:none;stroke:#211E1E;stroke-width:4.792100e-02;stroke-miterlimit:3.8637;}
	.st98{fill:#EB172B;}
	.st99{fill:none;stroke:#EB172B;stroke-width:4.792100e-02;stroke-miterlimit:3.8637;}
	.st100{fill:#A68A26;stroke:#A68A26;stroke-width:4.792100e-02;stroke-miterlimit:3.8637;}
	.st101{fill:#D1BF7F;}
	.st102{fill:none;stroke:#D1BF7F;stroke-width:4.792100e-02;stroke-miterlimit:3.8637;}
	.st103{fill:none;stroke:#FFFFFF;stroke-width:4.792100e-02;stroke-miterlimit:3.8637;}
	.st104{fill:#EB172B;stroke:#EB172B;stroke-width:4.792100e-02;stroke-miterlimit:3.8637;}
	.st105{fill:#ED2127;}
	.st106{fill:#FBEE23;}
	.st107{stroke:#000000;}
	.st108{fill:#CF1F44;}
	.st109{fill:#1B449C;}
	.st110{fill:#E03A3E;}
	.st111{fill:#E03A3E;stroke:#E03A3E;stroke-width:0.6565;}
	.st112{fill:none;stroke:#1B449C;stroke-width:0.7493;}
	.st113{fill:none;stroke:#1B449C;stroke-width:0.7567;}
	.st114{fill:#1B449C;stroke:#1B449C;stroke-width:0.6274;}
	.st115{fill:#1B449C;stroke:#1B449C;stroke-width:0.6755;}
	.st116{fill:#2E6ABD;stroke:#2E6ABD;stroke-width:0.617;}
	.st117{fill:#FFFFFF;stroke:#FFFFFF;stroke-width:0.6175;}
	.st118{fill:#ED1248;}
	.st119{fill:#2E6ABD;}
	.st120{fill:#FDE100;}
	.st121{fill:#CC0000;}
	.st122{fill:#211E1F;}
	.st123{fill:#ED1A3B;}
	.st124{fill:#00AEEF;}
	.st125{fill:#FFC40D;}
	.st126{fill:#22B24C;}
	.st127{fill:#FFC20E;}
	.st128{fill:#0A3F86;}
	.st129{fill:#005CA9;}
	.st130{fill:#FFE000;}
	.st131{fill:#E2001A;}
	.st132{opacity:0;}
	.st133{opacity:0;fill:#FFFFFF;}
	.st134{fill:#FFFFFF;stroke:#000000;}
	.st135{fill:#0060A9;}
	.st136{fill:#E32219;}
	.st137{fill:#FFED00;}
	.st138{fill:#1D9053;}
	.st139{fill:#52A600;}
	.st140{fill:#EE2523;}
	.st141{fill:#F7D117;}
	.st142{fill:#171796;}
	.st143{fill:#009959;}
	.st144{fill:#D42E12;}
	.st145{fill:#703824;}
	.st146{fill:#E5254E;}
	.st147{fill:#8AC3EE;}
	.st148{fill:#B19221;}
	.st149{fill:#F5C03E;}
	.st150{fill:#FF1119;}
	.st151{fill:#1E6BC0;}
	.st152{fill:#B4742A;}
	.st153{fill:#371B02;}
	.st154{fill:url(#SVGID_7_);}
	.st155{fill:url(#SVGID_8_);}
	.st156{fill:url(#SVGID_9_);}
	.st157{fill:url(#SVGID_10_);}
	.st158{fill:url(#SVGID_11_);}
	.st159{fill:url(#SVGID_12_);}
	.st160{fill:url(#SVGID_13_);}
	.st161{fill:url(#SVGID_14_);}
	.st162{fill:url(#SVGID_15_);}
	.st163{fill:url(#SVGID_16_);}
	.st164{fill:#EB2626;}
	.st165{fill:#E9C32C;}
	.st166{fill:#D9D9D9;}
	.st167{fill:#009C5E;}
	.st168{fill:#1C75BC;}
	.st169{fill:#611D5C;}
	.st170{fill:#E2B900;}
	.st171{fill:#004B95;}
	.st172{fill:#A4234B;}
	.st173{fill:#DB2F36;}
	.st174{fill:#FFDF00;}
	.st175{fill:#A38D44;}
	.st176{fill:#57175E;}
	.st177{fill:#AFDCFD;}
	.st178{fill:#0090C6;}
	.st179{fill:#DB5232;}
	.st180{fill:#23C1E0;}
	.st181{fill:#F1A92A;}
	.st182{fill:#167FB6;}
	.st183{fill:#FED75D;}
	.st184{fill:#378CBF;}
	.st185{fill:#3E9692;}
	.st186{fill:#E67F29;}
	.st187{fill:#D8B43C;}
	.st188{fill:#EF3B33;}
	.st189{fill:#24923D;}
	.st190{opacity:6.000001e-02;fill:#101010;enable-background:new    ;}
	.st191{fill:#00529F;}
	.st192{fill:#EE324E;}
	.st193{fill:#FEBE10;}
	.st194{fill:#143C8B;}
	.st195{fill:#FFE24A;}
	.st196{fill:#EC1D24;}
	.st197{fill:#E6A514;}
	.st198{fill:#FFDF1C;}
	.st199{fill:#EE3524;}
	.st200{fill:#B23428;}
	.st201{fill:#D18816;}
	.st202{fill:#0097D7;}
	.st203{fill:#ED1C23;}
	.st204{fill:#E30613;}
	.st205{fill:#FFE400;}
	.st206{fill:#C51A1B;}
	.st207{clip-path:url(#SVGID_19_);}
	.st208{clip-path:url(#SVGID_20_);fill:none;stroke:#000000;stroke-width:0.8131;stroke-miterlimit:3.864;}
	.st209{fill:#0093D5;}
	.st210{fill:#004B9D;}
	.st211{fill:#FCC24F;}
	.st212{fill:#009545;}
	.st213{fill:#0072BB;}
	.st214{fill:#C4974E;}
	.st215{fill:url(#path1292_1_);}
	.st216{fill:#004996;}
	.st217{fill:#FFE667;}
	.st218{fill:none;stroke:#005187;stroke-width:0.153;stroke-miterlimit:3.864;}
	.st219{fill:#005187;}
	.st220{clip-path:url(#SVGID_22_);}
	.st221{clip-path:url(#SVGID_24_);fill:none;stroke:#000000;stroke-width:0.296;stroke-miterlimit:3.864;}
	.st222{clip-path:url(#SVGID_26_);fill:#FFE667;}
	.st223{clip-path:url(#SVGID_28_);fill:none;stroke:#000000;stroke-width:8.300000e-02;stroke-miterlimit:3.864;}
	.st224{fill:none;stroke:#000000;stroke-width:0.153;stroke-miterlimit:3.864;}
	.st225{clip-path:url(#SVGID_30_);fill:#E70005;}
	.st226{clip-path:url(#SVGID_32_);fill:none;stroke:#E70005;stroke-width:0.296;stroke-miterlimit:3.864;}
	.st227{clip-path:url(#SVGID_34_);fill:#E70005;}
	.st228{clip-path:url(#SVGID_36_);fill:none;stroke:#E70005;stroke-width:0.296;stroke-miterlimit:3.864;}
	.st229{clip-path:url(#SVGID_38_);fill:#E70005;}
	.st230{clip-path:url(#SVGID_40_);fill:none;stroke:#E70005;stroke-width:0.296;stroke-miterlimit:3.864;}
	.st231{clip-path:url(#SVGID_42_);fill:#E70005;}
	.st232{clip-path:url(#SVGID_44_);fill:none;stroke:#E70005;stroke-width:0.296;stroke-miterlimit:3.864;}
	.st233{fill:#E70005;}
	.st234{fill:none;stroke:#000000;stroke-width:0.141;stroke-miterlimit:3.864;}
	.st235{fill:#00276D;}
	.st236{fill:#C49308;}
	.st237{fill:#179D33;}
	.st238{fill:#999999;}
	.st239{fill:#FF0000;}
	.st240{fill:#E31837;}
	.st241{fill:#06357A;}
	.st242{fill:#B4053F;}
	.st243{fill:#DCA43E;}
	.st244{fill:#005CA5;}
	.st245{fill:#FAC400;}
	.st246{fill:#004083;}
	.st247{fill:#A95932;}
	.st248{fill:none;stroke:#000000;stroke-width:1.2215;}
	.st249{fill:#E62627;}
	.st250{fill:#00458C;}
	.st251{fill:#E11B22;}
	.st252{fill:#00AB4E;}
	.st253{fill:#F47920;}
	.st254{fill:#C7C8CA;}
	.st255{fill:#E11515;}
	.st256{fill:#A4965F;}
	.st257{fill:#E51636;}
	.st258{fill:#EACC00;}
	.st259{fill:#4F846B;}
	.st260{fill:#E22227;}
	.st261{fill:#FAE700;}
	.st262{fill:url(#SVGID_45_);}
	.st263{fill:#666666;}
	.st264{fill:#FFF200;}
	.st265{fill:#00275D;}
	.st266{fill:#EF3E33;}
	.st267{fill:none;stroke:#00275D;stroke-width:2.632;}
	.st268{fill:#3F7652;}
	.st269{fill:#F1D261;}
	.st270{fill:#004D8F;}
	.st271{fill:#E7B137;stroke:#E7B137;stroke-miterlimit:10;}
	.st272{fill:#E7B137;}
	.st273{fill:#162577;}
	.st274{fill:#12692C;}
	.st275{fill:#D8141D;}
	.st276{fill:#AB830D;}
	.st277{fill:#0086CB;}
	.st278{fill:#001F42;}
	.st279{fill:#9A8F4A;}
	.st280{fill:#00559D;}
	.st281{fill:#FDDE00;}
	.st282{fill:#00924C;}
	.st283{fill:#233984;}
	.st284{fill:#FFD42E;}
	.st285{fill:#BA3733;}
	.st286{fill:#46714D;}
	.st287{fill:#221F1F;}
	.st288{fill:#00559E;}
	.st289{fill:#005C46;}
	.st290{fill:#FBC860;}
	.st291{fill:#D57C48;}
	.st292{fill:#040403;}
	.st293{fill:#4AB969;}
	.st294{fill:#8ED8F8;}
	.st295{fill:#FEC34E;}
	.st296{fill:#FFC95B;}
	.st297{fill:#00644C;}
	.st298{fill:#70B865;}
	.st299{fill:#CA6F44;}
	.st300{fill:#A8B8BE;}
	.st301{fill:#1C2C80;}
	.st302{fill:#E10321;}
	.st303{fill:none;stroke:#231F20;stroke-width:0.318;stroke-miterlimit:3.864;}
	.st304{fill:#D71920;}
	.st305{fill:#484749;}
	.st306{fill:#D9DBDC;}
	.st307{fill:#DF725A;}
	.st308{fill:#F2CABA;}
	.st309{fill:#E89C84;}
	.st310{fill:#264F99;}
	.st311{clip-path:url(#SVGID_47_);}
	.st312{fill:#161413;}
	.st313{fill:#ED1B26;}
	.st314{fill:#E60D2E;}
	.st315{fill:#FCD600;}
	.st316{fill:#004D91;}
	.st317{fill:#EAB412;}
	.st318{fill:#FDD31D;}
	.st319{fill:#EFB800;}
</style>
<g>
	<path id="path3_4_"  class="st191" d="M73.7,23.2c0.2-0.3,0.3-0.7,0.3-1c0-0.1,0-0.2,0-0.3
		c-0.1-0.4-0.3-0.7-0.6-1c0.1-0.2,0.2-0.5,0.2-0.7c0-0.7-0.4-1.3-1.1-1.6c0.3-0.3,0.4-0.7,0.4-1.1c0-0.8-0.6-1.5-1.3-1.6
		c0.1-0.2,0.2-0.5,0.2-0.7c0-0.9-0.8-1.7-1.7-1.7c-0.1,0-0.1,0-0.2,0c0-0.1,0.1-0.3,0.1-0.4c0-0.9-0.8-1.7-1.7-1.7
		c-0.2,0-0.3,0-0.5,0.1c0-0.9-0.8-1.7-1.7-1.7c-0.3,0-0.5,0.1-0.8,0.2c-0.2-0.7-0.9-1.1-1.6-1.1c-0.5,0-1,0.2-1.3,0.6
		C62.2,9.2,61.8,9,61.4,9c0,0-0.1,0-0.1,0c0-0.1,0-0.2,0-0.4c0-0.9-0.8-1.7-1.7-1.7C59.4,7,59.2,7,59,7.1c0-0.4-0.2-0.9-0.5-1.2
		c-0.3-0.3-0.7-0.5-1.2-0.5c-0.3,0-0.6,0.1-0.8,0.2c-0.2-0.7-0.9-1.1-1.6-1.1c-0.4,0-0.8,0.1-1,0.4c-0.3-0.5-0.8-0.8-1.4-0.8
		c-0.2,0-0.3,0-0.4,0.1c-0.3-0.3-0.6-0.5-1-0.7c0,0-0.1,0-0.2-0.1c0-0.2,0-0.7,0-0.9c0.2,0,1,0,1,0c0.1,0,0.2-0.1,0.2-0.2V1.2
		c0-0.1-0.1-0.2-0.2-0.2c0,0-0.7,0-1,0c0-0.2,0-0.9,0-0.9c0-0.1-0.1-0.2-0.2-0.2h-1.2c-0.1,0-0.2,0.1-0.2,0.2c0,0,0,0.6,0,0.9
		c-0.2,0-1,0-1,0c-0.1,0-0.2,0.1-0.2,0.2v1.2c0,0.1,0.1,0.2,0.2,0.2c0,0,0.7,0,1,0c0,0.2,0,0.7,0,0.9c-0.1,0-0.2,0.1-0.2,0.1
		c-0.4,0.1-0.7,0.4-1,0.7c-0.1,0-0.3-0.1-0.4-0.1c-0.6,0-1.1,0.3-1.4,0.8c-0.3-0.2-0.7-0.4-1-0.4c-0.7,0-1.3,0.5-1.6,1.1
		c-0.3-0.1-0.5-0.2-0.8-0.2c-0.9,0-1.7,0.8-1.7,1.7C40.8,7,40.6,7,40.4,7c-0.9,0-1.7,0.8-1.7,1.7c0,0.1,0,0.2,0,0.4
		c-0.1,0-0.1,0-0.1,0c-0.4,0-0.8,0.2-1.1,0.4c-0.3-0.4-0.8-0.6-1.3-0.6c-0.7,0-1.3,0.5-1.6,1.1c-0.2-0.1-0.5-0.2-0.8-0.2
		c-0.9,0-1.7,0.8-1.7,1.7c-0.2-0.1-0.3-0.1-0.5-0.1c-0.9,0-1.7,0.8-1.7,1.7c0,0.1,0,0.3,0.1,0.4c-0.1,0-0.1,0-0.2,0
		c-0.9,0-1.7,0.8-1.7,1.7c0,0.3,0.1,0.5,0.2,0.7C27.6,16,27,16.7,27,17.5c0,0.4,0.2,0.8,0.4,1.1c-0.6,0.3-1.1,0.9-1.1,1.6
		c0,0.3,0.1,0.5,0.2,0.7c-0.3,0.2-0.5,0.6-0.6,1c0,0.1,0,0.2,0,0.3c0,0.4,0.1,0.7,0.3,1c-0.2,0.2-0.4,0.5-0.4,0.9c0,0,0,0,0,0
		c0,0.7,0.5,1.3,0.9,1.6c0.8,0.6,1.6,0.7,2.3,0.3c0.7,0.5,1.5,0.7,2.3,0.5c0,0.1,0,0.1,0,0.2c0,0.1,0,0.3,0.1,0.4
		c0.1,0.3,0.3,0.4,0.6,0.5c0.2,0.1,0.3,0.1,0.5,0c0,0,0,0.1,0,0.1c0,0.1,0,0.3,0,0.4c0.1,0.1,0.2,0.2,0.3,0.3c0,0,0.1,0,0.1,0
		l-0.2,1c0,0,0,0.1,0.1,0.1l1,0.5c-0.1,0.1-0.1,0.2-0.1,0.4c0,0.1,0,0.2,0.1,0.3c0.1,0.3,0.5,0.4,0.8,0.3c4.9-2.3,10.1-3.5,15.6-3.5
		c5.5,0,10.7,1.2,15.6,3.5c0.3,0.1,0.6,0,0.8-0.3c0-0.1,0.1-0.2,0.1-0.3c0-0.1,0-0.3-0.1-0.4l1-0.5c0,0,0.1-0.1,0.1-0.1l-0.2-1
		c0.2,0,0.3-0.1,0.4-0.3c0-0.1,0.1-0.2,0.1-0.3c0-0.1,0-0.1,0-0.2c0,0,0-0.1-0.1-0.1c0.4,0.1,0.9-0.1,1.1-0.6
		c0.1-0.1,0.1-0.3,0.1-0.4c0-0.1,0-0.1,0-0.2c0.8,0.2,1.6,0,2.3-0.5c0.7,0.4,1.5,0.3,2.3-0.3c0.4-0.3,0.9-1,0.9-1.6c0,0,0,0,0,0
		C74.1,23.8,74,23.5,73.7,23.2L73.7,23.2z M35.1,15.8c0,0,0,0.1,0,0.1c-0.8,0.2-1.8,0.4-2.5,0.7c-0.5,0.2-1,0.5-1.4,0.8
		c0.8-1.8,2.2-3,4.5-4.2c0,0.4,0.2,0.7,0.4,1C35.5,14.5,35.1,15.1,35.1,15.8z M48.7,10.1c-0.1,0.2-0.2,0.5-0.2,0.8
		c0,0.3,0.1,0.6,0.2,0.8c0,0,0,0.4,0,0.7c-2.7-0.4-6.2-0.1-8.9,1.3c1.3-3.2,4.3-5.8,8.6-5.5c0,0.3,0.1,0.5,0.2,0.8
		C48.7,9,48.7,10,48.7,10.1z M51.3,12.4c0-0.3,0-0.7,0-0.7c0.1-0.2,0.2-0.5,0.2-0.8c0-0.3-0.1-0.6-0.2-0.8c0-0.1,0-1.1,0-1.2
		c0.1-0.2,0.2-0.5,0.2-0.8c4.3-0.3,7.3,2.3,8.6,5.5C57.4,12.3,54,12,51.3,12.4z M67.4,16.6c-0.8-0.3-1.7-0.5-2.5-0.7
		c0,0,0-0.1,0-0.1c0-0.7-0.4-1.3-1.1-1.6c0.3-0.3,0.4-0.6,0.4-1c2.3,1.2,3.7,2.4,4.5,4.2C68.4,17.1,68,16.8,67.4,16.6L67.4,16.6z"/>
	<path id="path5_7_"  class="st192" d="M53.2,24.9c-0.2,0-0.5,0-0.7-0.2c-0.4-0.2-0.7-0.7-0.7-1.2
		c0,0,0-0.1,0-0.1c0.2-0.2,0.3-0.4,0.3-0.7c0-0.1,0.1-0.3,0.1-0.4c0-0.3-0.1-0.6-0.2-0.9c-0.2-0.4-0.6-0.7-1-0.8
		C50,20.6,49,21.1,48.8,22c0,0,0,0.2,0,0.3c-0.3,0.4-0.9,0.6-1.4,0.5c-0.6-0.1-1-0.7-1-1.2c1.2,0.2,2-0.2,2.3-1.4
		c0.1-0.2,0.1-0.5,0.1-0.7c0-0.6-0.3-1.1-0.9-1.4c0,0,0,0,0-0.1c0-0.2,0-0.5-0.1-0.6c0.5-0.2,0.9-0.7,1-1.2c0.8,0.2,1.7,0.4,2.5,0.7
		c0.7,0.3,1.2,0.6,1.6,1c0.4,1,0.7,2.3,0.8,3.8c-0.4,0.2-0.8,0.6-1,1.2c-0.1,0.3-0.2,0.6-0.2,0.9C52.4,24.2,52.7,24.6,53.2,24.9
		L53.2,24.9z"/>
	<path id="path7_7_"  class="st192" d="M53.8,20.8c-0.3,0.5-0.9,0.7-1.5,0.6c-0.6-0.1-1-0.7-1-1.2
		c0.1-0.2,0.2-0.5,0.2-0.8c0-0.9-0.8-1.7-1.7-1.7c-0.9,0-1.7,0.8-1.7,1.7c0,0.1,0,0.3,0.1,0.4c-0.2,0.6-0.7,0.9-1.3,0.9
		c-0.6,0-1.1-0.4-1.3-0.9c1.2-0.1,1.8-0.7,1.8-1.9c0-1-0.4-1.6-1.3-1.8c-0.1-0.6-0.5-1-1.1-1.2c0.4-0.3,0.6-0.7,0.6-1.2
		c0-0.3-0.1-0.6-0.2-0.8c0,0,0-0.1,0-0.2c2.7-0.4,6.3-0.1,9,1.4c0.3,0.7,0.4,1.5,0.5,2.3c-0.3,0.2-0.6,0.4-0.7,0.8
		c-0.9,0-1.5,0.5-1.7,1.5c-0.1,0.2-0.1,0.5-0.1,0.7C52.4,20,52.8,20.5,53.8,20.8z"/>
	<path id="path9_9_"  class="st192" d="M54.9,14.8C54.4,15,54,15.4,53.9,16
		c-0.9,0.2-1.3,0.8-1.3,1.8c0,1.2,0.6,1.8,1.8,1.9c-0.2,0.6-0.7,0.9-1.3,0.9c-0.6,0-1.1-0.4-1.3-0.9c0-0.1,0.1-0.3,0.1-0.4
		c0-0.5-0.2-0.9-0.5-1.2c-0.3-0.3-0.8-0.5-1.2-0.5c-0.9,0-1.7,0.8-1.7,1.7c0,0.3,0.1,0.5,0.2,0.8c0,0.6-0.4,1.1-1,1.2
		c-0.6,0.1-1.2-0.1-1.5-0.6c0.9-0.3,1.4-0.8,1.4-1.6c0-0.2,0-0.4-0.1-0.7c-0.3-1-0.8-1.5-1.7-1.5c-0.2-0.4-0.4-0.6-0.7-0.8
		c0.1-0.8,0.3-1.5,0.5-2.3c2.7-1.5,6.2-1.8,9-1.4c0,0.1,0,0.2,0,0.2c-0.1,0.2-0.2,0.5-0.2,0.8C54.4,14.1,54.6,14.5,54.9,14.8z"/>
	<path id="path11_8_"  class="st192" d="M52.2,18c-0.6,0.3-0.9,0.8-0.9,1.4c0,0.2,0,0.4,0.1,0.7
		c0.3,1.2,1,1.6,2.3,1.4c0,0.6-0.4,1.1-1,1.2c-0.5,0.1-1.1-0.1-1.4-0.5c0-0.1,0-0.3,0-0.3c-0.2-0.9-1.2-1.5-2.1-1.2
		c-0.4,0.1-0.8,0.4-1,0.8c-0.2,0.3-0.2,0.6-0.2,0.9c0,0.1,0,0.3,0.1,0.4c0.1,0.2,0.2,0.5,0.3,0.7c0,0,0,0.1,0,0.1
		c0,0.5-0.3,0.9-0.7,1.2c-0.2,0.1-0.5,0.2-0.7,0.2c0.5-0.3,0.7-0.8,0.7-1.3c0-0.3-0.1-0.6-0.2-0.9c-0.2-0.6-0.6-1-1-1.2
		c0.1-1.5,0.4-2.7,0.8-3.8c0.4-0.3,0.9-0.7,1.6-1c0.7-0.3,1.7-0.5,2.5-0.7c0.1,0.5,0.5,1,1,1.2C52.2,17.5,52.2,17.7,52.2,18
		C52.2,18,52.2,18,52.2,18z"/>
	<path id="path13_7_"  class="st192" d="M49,24.3c0.3-0.1,0.7-0.2,1-0.4c0.2,0.1,0.3,0.2,0.5,0.2
		c0,0,0.1,0,0.1,0c0.1,0.3,0.2,0.7,0.4,1C50.3,24.8,49.7,24.6,49,24.3z"/>
	<path id="path15_8_"  class="st192" d="M50,21.7c0,0-0.5,0-1,0c0.4-0.3,0.8-0.8,1-1.3
		c0.2,0.5,0.5,1,1,1.3C50.5,21.7,50,21.7,50,21.7z"/>
	<path id="path17_8_"  class="st192" d="M49,25.1c0.2-0.3,0.3-0.6,0.4-1c0.1,0,0.1,0,0.1,0
		c0.2,0,0.3-0.1,0.5-0.2c0.3,0.2,0.6,0.3,1,0.4C50.3,24.6,49.7,24.8,49,25.1z"/>
	<path id="path19_4_"  class="st192" d="M49.1,23.3c0.3-0.4,0.5-1,0.6-1.5c0.3,0.5,0.7,0.8,1.3,1
		C50.3,22.9,49.7,23.1,49.1,23.3z"/>
	<path id="path21_8_"  class="st192" d="M48.9,22.2c0.3-0.3,0.6-0.7,0.7-1.1c0.1,0,0.2,0,0.4-0.1
		c0.3,0.4,0.6,0.7,1,0.9C50.4,22,49.6,22.1,48.9,22.2z"/>
	<path id="path23_6_"  class="st192" d="M48.9,21.9c0.4-0.2,0.7-0.5,1-0.9c0.1,0,0.2,0,0.3,0.1
		c0.2,0.4,0.4,0.8,0.7,1.1C50.4,22.1,49.6,22,48.9,21.9z"/>
	<path id="path25_6_"  class="st192" d="M49.1,22.8c0.5-0.2,0.9-0.6,1.3-1c0.1,0.5,0.2,1.1,0.6,1.5
		C50.3,23.1,49.7,22.9,49.1,22.8z"/>
	<path id="path27_8_"  class="st28" d="M49.2,5.8C49.2,5.4,49.6,5,50,5c0.4,0,0.8,0.3,0.8,0.8
		c0,0.4-0.3,0.8-0.8,0.8C49.6,6.5,49.2,6.2,49.2,5.8z"/>
	<path id="path29_7_"  class="st28" d="M49.2,8.1c0-0.4,0.3-0.8,0.8-0.8s0.8,0.3,0.8,0.8
		c0,0.4-0.3,0.8-0.8,0.8S49.2,8.6,49.2,8.1z"/>
	<path id="path31_6_"  class="st28" d="M49.2,10.9c0-0.4,0.3-0.8,0.8-0.8s0.8,0.3,0.8,0.8
		c0,0.4-0.3,0.8-0.8,0.8S49.2,11.3,49.2,10.9z"/>
	<path id="path33_8_"  class="st28" d="M49.2,13.6c0-0.4,0.3-0.8,0.8-0.8s0.8,0.3,0.8,0.8
		s-0.3,0.8-0.8,0.8S49.2,14,49.2,13.6z"/>
	<path id="path35_9_"  class="st28" d="M49.2,6.2c0-0.2,0.1-0.4,0.2-0.5s0.3-0.2,0.5-0.2
		c0.4,0,0.8,0.3,0.8,0.8C50.8,6.6,50.4,7,50,7C49.6,7,49.2,6.6,49.2,6.2z"/>
	<path id="path37_6_"  class="st28" d="M49.2,7.1c0-0.4,0.3-0.8,0.8-0.8c0.4,0,0.8,0.3,0.8,0.8
		c0,0.4-0.3,0.8-0.8,0.8C49.6,7.9,49.2,7.5,49.2,7.1z"/>
	<path id="path39_5_"  class="st28" d="M49.2,8.7c0-0.4,0.3-0.8,0.8-0.8c0.2,0,0.4,0.1,0.5,0.2
		c0.1,0.1,0.2,0.3,0.2,0.5c0,0.4-0.3,0.8-0.8,0.8C49.6,9.4,49.2,9.1,49.2,8.7z"/>
	<path id="path41_5_"  class="st28" d="M49.2,10.7c0-0.4,0.3-0.8,0.8-0.8c0.4,0,0.8,0.3,0.8,0.8
		c0,0.4-0.3,0.8-0.8,0.8C49.6,11.5,49.2,11.1,49.2,10.7z"/>
	<path id="path43_4_"  class="st28" d="M49.2,10.5c0-0.4,0.3-0.8,0.8-0.8c0.2,0,0.4,0.1,0.5,0.2
		c0.1,0.1,0.2,0.3,0.2,0.5c0,0.4-0.3,0.8-0.8,0.8C49.6,11.3,49.2,10.9,49.2,10.5z"/>
	<path id="path45_6_"  class="st28" d="M49.2,11.4c0-0.4,0.3-0.8,0.8-0.8c0.4,0,0.8,0.3,0.8,0.8
		c0,0.4-0.3,0.8-0.8,0.8C49.6,12.2,49.2,11.8,49.2,11.4z"/>
	<path id="path47_6_"  class="st28" d="M49.2,13c0-0.4,0.3-0.8,0.8-0.8c0.4,0,0.8,0.3,0.8,0.8
		c0,0.4-0.3,0.8-0.8,0.8C49.6,13.8,49.2,13.4,49.2,13z"/>
	<path id="path49_8_"  class="st28" d="M49.2,15.1c0-0.4,0.3-0.8,0.8-0.8c0.4,0,0.8,0.3,0.8,0.8
		c0,0.4-0.3,0.8-0.8,0.8C49.6,15.9,49.2,15.6,49.2,15.1z"/>
	<path id="path51_7_"  class="st28" d="M49.2,17.5c0-0.4,0.3-0.8,0.8-0.8c0.4,0,0.8,0.3,0.8,0.8
		c0,0.4-0.3,0.8-0.8,0.8C49.6,18.3,49.2,17.9,49.2,17.5z"/>
	<path id="path53_7_"  class="st28" d="M49.2,20.2c0-0.4,0.3-0.8,0.8-0.8c0.4,0,0.8,0.3,0.8,0.8
		c0,0.4-0.3,0.8-0.8,0.8C49.6,21,49.2,20.6,49.2,20.2z"/>
	<path id="path55_6_"  class="st28" d="M49.2,13.1c0-0.2,0.1-0.4,0.2-0.5c0.1-0.1,0.3-0.2,0.5-0.2
		c0.4,0,0.8,0.3,0.8,0.8c0,0.4-0.3,0.8-0.8,0.8C49.6,13.8,49.2,13.5,49.2,13.1z"/>
	<path id="path57_6_"  class="st28" d="M49.2,15.8c0-0.4,0.3-0.8,0.8-0.8c0.4,0,0.8,0.3,0.8,0.8
		c0,0.4-0.3,0.8-0.8,0.8C49.6,16.5,49.2,16.2,49.2,15.8z"/>
	<path id="path59_7_"  class="st28" d="M48.6,17.5c0-0.7,0.6-1.4,1.4-1.4c0.7,0,1.4,0.6,1.4,1.4
		c0,0.7-0.6,1.4-1.4,1.4C49.3,18.9,48.6,18.3,48.6,17.5z"/>
	<path id="path61_7_"  class="st28" d="M49.3,20.2c-0.3-0.2-0.5-0.5-0.6-0.8
		c-0.2-0.7,0.3-1.5,1-1.7c0.7-0.2,1.5,0.3,1.7,1l0,0c0.2,0.7-0.3,1.5-1,1.7C50,20.4,49.6,20.4,49.3,20.2z"/>
	<path id="path63_6_"  class="st28" d="M48.8,24.4c-0.4-0.7-0.1-1.5,0.5-1.8c0.3-0.2,0.7-0.2,1-0.1
		c0.3,0.1,0.6,0.3,0.8,0.6c0,0,0,0,0,0c0.4,0.7,0.1,1.5-0.5,1.8C50,25.3,49.2,25.1,48.8,24.4z"/>
	<path id="path65_6_"  class="st28" d="M49.2,5.8c0-0.2,0.1-0.4,0.2-0.5C49.6,5.1,49.8,5,50,5
		c0.4,0,0.8,0.3,0.8,0.8c0,0.4-0.3,0.8-0.8,0.8C49.6,6.5,49.2,6.2,49.2,5.8z"/>
	<path id="path67_6_"  class="st28" d="M49.2,6.2c0-0.4,0.3-0.8,0.8-0.8c0.4,0,0.8,0.3,0.8,0.8
		C50.8,6.6,50.4,7,50,7C49.6,7,49.2,6.6,49.2,6.2z"/>
	<path id="path69_7_"  class="st28" d="M49.2,7.1c0-0.4,0.3-0.8,0.8-0.8c0.4,0,0.8,0.3,0.8,0.8
		c0,0.4-0.3,0.8-0.8,0.8C49.6,7.9,49.2,7.5,49.2,7.1z"/>
	<path id="path71_5_"  class="st28" d="M49.2,8.7c0-0.4,0.3-0.8,0.8-0.8c0.4,0,0.8,0.3,0.8,0.8
		c0,0.4-0.3,0.8-0.8,0.8C49.6,9.4,49.2,9.1,49.2,8.7z"/>
	<path id="path73_7_"  class="st28" d="M49.2,10.7c0-0.4,0.3-0.8,0.8-0.8c0.2,0,0.4,0.1,0.5,0.2
		c0.1,0.1,0.2,0.3,0.2,0.5c0,0.4-0.3,0.8-0.8,0.8C49.6,11.5,49.2,11.1,49.2,10.7z"/>
	<path id="path75_5_"  class="st28" d="M49.2,10.5c0-0.4,0.3-0.8,0.8-0.8c0.4,0,0.8,0.3,0.8,0.8
		c0,0.4-0.3,0.8-0.8,0.8C49.6,11.3,49.2,10.9,49.2,10.5z"/>
	<path id="path77_6_"  class="st28" d="M49.2,11.4c0-0.4,0.3-0.8,0.8-0.8c0.4,0,0.8,0.3,0.8,0.8
		c0,0.4-0.3,0.8-0.8,0.8C49.6,12.2,49.2,11.8,49.2,11.4z"/>
	<path id="path79_4_"  class="st28" d="M49.2,13c0-0.4,0.3-0.8,0.8-0.8c0.4,0,0.8,0.3,0.8,0.8
		c0,0.4-0.3,0.8-0.8,0.8C49.6,13.8,49.2,13.4,49.2,13z"/>
	<path id="path81_5_"  class="st28" d="M49.2,15.1c0-0.4,0.3-0.8,0.8-0.8c0.4,0,0.8,0.3,0.8,0.8
		c0,0.4-0.3,0.8-0.8,0.8C49.6,15.9,49.2,15.6,49.2,15.1z"/>
	<path id="path83_4_"  class="st28" d="M49.2,17.5c0-0.4,0.3-0.8,0.8-0.8s0.8,0.3,0.8,0.8
		c0,0.4-0.3,0.8-0.8,0.8C49.6,18.3,49.2,17.9,49.2,17.5z"/>
	<path id="path85_4_"  class="st28" d="M49.2,20.2c0-0.4,0.3-0.8,0.8-0.8c0.4,0,0.8,0.3,0.8,0.8
		c0,0.4-0.3,0.8-0.8,0.8C49.6,21,49.2,20.6,49.2,20.2z"/>
	<path id="path87_4_"  class="st28" d="M49.2,13.1c0-0.4,0.3-0.8,0.8-0.8s0.8,0.3,0.8,0.8
		c0,0.4-0.3,0.8-0.8,0.8S49.2,13.5,49.2,13.1z"/>
	<path id="path89_4_"  class="st28" d="M49.2,15.8c0-0.4,0.3-0.8,0.8-0.8c0.4,0,0.8,0.3,0.8,0.8
		c0,0.4-0.3,0.8-0.8,0.8C49.6,16.5,49.2,16.2,49.2,15.8z"/>
	<path id="path91_5_"  class="st28" d="M49.7,20.3c-0.4-0.1-0.6-0.3-0.8-0.6
		c-0.2-0.3-0.2-0.7-0.1-1v0c0.1-0.4,0.3-0.6,0.6-0.8c0.3-0.2,0.7-0.2,1-0.1c0.4,0.1,0.6,0.3,0.8,0.6c0.2,0.3,0.2,0.7,0.1,1
		c-0.1,0.4-0.3,0.6-0.6,0.8C50.4,20.4,50,20.4,49.7,20.3L49.7,20.3z"/>
	<path id="path93_6_"  class="st28" d="M49.3,24.9c-0.3-0.2-0.5-0.5-0.6-0.8
		c-0.1-0.3-0.1-0.7,0.1-1c0,0,0,0,0,0c0.2-0.3,0.5-0.5,0.8-0.6c0.3-0.1,0.7-0.1,1,0.1c0.3,0.2,0.5,0.5,0.6,0.8
		c0.1,0.3,0.1,0.7-0.1,1C50.8,25.1,50,25.3,49.3,24.9z"/>
	<path id="path95_3_"  class="st28" d="M49.2,25.8c0-0.2,0.1-0.4,0.2-0.5c0.1-0.1,0.3-0.2,0.5-0.2
		c0.4,0,0.8,0.3,0.8,0.8s-0.3,0.8-0.8,0.8C49.6,26.5,49.2,26.2,49.2,25.8z"/>
	<path id="path97_4_"  class="st28" d="M49.2,28.3c0-0.2,0.1-0.4,0.2-0.5c0.1-0.1,0.3-0.2,0.5-0.2
		c0.4,0,0.8,0.3,0.8,0.8c0,0.4-0.3,0.8-0.8,0.8C49.6,29.1,49.2,28.7,49.2,28.3z"/>
	<path id="path99_2_"  class="st192" d="M50,24.6c0.1,0,2,0.7,2.4,0.9c-0.4,0.2-2.3,0.9-2.4,0.9
		c-0.1,0-2-0.7-2.4-0.9C48,25.4,49.9,24.7,50,24.6z"/>
	<path id="path101_4_"  class="st192" d="M49.6,28.4c0.2,0.1,0.9,0.3,1,0.4c0,0.1-0.2,0.9-0.3,1.2
		c-0.2-0.1-0.8-0.5-1-0.5C49.4,29.3,49.6,28.6,49.6,28.4z"/>
	<path id="path103_1_"  class="st28" d="M49.2,25.8c0-0.4,0.3-0.8,0.8-0.8c0.4,0,0.8,0.3,0.8,0.8
		s-0.3,0.8-0.8,0.8C49.6,26.5,49.2,26.2,49.2,25.8z"/>
	<path id="path105_5_"  class="st28" d="M49.2,28.3c0-0.4,0.3-0.8,0.8-0.8c0.4,0,0.8,0.3,0.8,0.8
		c0,0.4-0.3,0.8-0.8,0.8C49.6,29.1,49.2,28.7,49.2,28.3z"/>
	<path id="path107_4_"  class="st193" d="M67.1,27.8C67.1,27.8,67.1,27.8,67.1,27.8
		C61.7,25.2,56,24,50,24c-6,0-11.7,1.3-17.1,3.8c0,0-0.1,0.1-0.1,0.1c0,0.1,0,0.1,0,0.2c0,0.1,0.1,0.1,0.1,0.1c0.1,0,0.1,0,0.2,0
		c0,0,0.1,0,0.1,0c0,0,0.1,0,0.1,0.1l0,0l1,0.4c0.1,0,0.1,0.1,0.1,0.1L34.1,30l0,0.1c0,0.1,0,0.2-0.1,0.2c-0.1,0.1-0.2,0.2-0.1,0.4
		c0.1,0.1,0.2,0.2,0.3,0.1c4.9-2.3,10.2-3.5,15.7-3.5c5.5,0,10.8,1.2,15.7,3.5c0.1,0.1,0.3,0,0.3-0.1c0.1-0.1,0-0.3-0.1-0.4
		c-0.1,0-0.1-0.1-0.1-0.2l0-0.1l-0.3-1.2c0-0.1,0-0.1,0.1-0.1l1-0.4l0,0c0,0,0.1-0.1,0.1-0.1c0,0,0.1,0,0.1,0c0.1,0.1,0.2,0,0.3-0.1
		C67.2,28,67.2,27.9,67.1,27.8C67.2,27.8,67.2,27.8,67.1,27.8L67.1,27.8z M35.8,29.3c-0.5,0-1-0.4-1-1c0-0.3,0.1-0.5,0.3-0.7
		c0.2-0.2,0.4-0.3,0.7-0.3c0.5,0,1,0.4,1,1S36.3,29.3,35.8,29.3z M43.1,26.1l-2.4,1.7c0,0,0,0-0.1,0l-2.9-0.3c0,0-0.1,0-0.1-0.1
		s0-0.1,0-0.1l2.4-1.7c0,0,0,0,0.1,0l2.9,0.3c0,0,0.1,0,0.1,0.1C43.2,26.1,43.2,26.1,43.1,26.1z M45.1,26.8c-0.5,0-1-0.4-1-1
		c0-0.3,0.1-0.5,0.3-0.7c0.2-0.2,0.4-0.3,0.7-0.3c0.5,0,1,0.4,1,1C46.1,26.3,45.7,26.8,45.1,26.8z M52.8,25.6l-2.7,1
		c0,0-0.1,0-0.1,0l-2.7-1c0,0-0.1-0.1-0.1-0.1c0,0,0-0.1,0.1-0.1l2.7-1c0,0,0.1,0,0.1,0l2.7,1c0,0,0.1,0.1,0.1,0.1
		C52.8,25.6,52.8,25.6,52.8,25.6z M54.9,26.8c-0.5,0-1-0.4-1-1c0-0.5,0.4-1,1-1c0.5,0,1,0.4,1,1S55.4,26.8,54.9,26.8z M62.2,27.5
		l-2.9,0.3c0,0-0.1,0-0.1,0l-2.4-1.7c0,0-0.1-0.1,0-0.1c0,0,0-0.1,0.1-0.1l2.9-0.3c0,0,0.1,0,0.1,0l2.4,1.7
		C62.3,27.4,62.4,27.4,62.2,27.5C62.3,27.5,62.3,27.5,62.2,27.5z M64.2,29.3c-0.5,0-1-0.4-1-1c0-0.5,0.4-1,1-1c0.5,0,1,0.4,1,1
		C65.2,28.8,64.8,29.3,64.2,29.3z"/>
	<path id="path109_5_"  class="st193" d="M73.4,23.4c-0.1-0.1-0.1-0.2,0-0.2
		c0.3-0.4,0.4-0.8,0.3-1.2c-0.1-0.4-0.3-0.7-0.6-0.8c-0.1,0-0.1-0.1-0.1-0.2c0.1-0.2,0.2-0.4,0.2-0.7c0-0.6-0.5-1.2-1.1-1.3
		c-0.1,0-0.1-0.1-0.1-0.1c0-0.1,0-0.1,0.1-0.2c0.3-0.3,0.5-0.7,0.5-1.1c0-0.7-0.5-1.3-1.2-1.4c-0.1,0-0.1,0-0.1-0.1
		c0-0.1,0-0.1,0-0.2c0.1-0.2,0.2-0.5,0.2-0.8c0-0.8-0.6-1.4-1.4-1.4c-0.1,0-0.2,0-0.4,0c-0.1,0-0.1,0-0.2-0.1s-0.1-0.1,0-0.2
		c0.1-0.2,0.1-0.4,0.1-0.6c0-0.8-0.6-1.4-1.4-1.4c-0.2,0-0.4,0.1-0.6,0.1c-0.1,0-0.1,0-0.2,0c0,0-0.1-0.1-0.1-0.2l0-0.2
		c0-0.8-0.6-1.4-1.4-1.4c-0.3,0-0.6,0.1-0.8,0.2c0,0-0.1,0-0.2,0c-0.1,0-0.1-0.1-0.1-0.1c-0.1-0.6-0.7-1.1-1.3-1.1
		c-0.5,0-0.9,0.2-1.2,0.6c0,0-0.1,0.1-0.1,0.1c-0.1,0-0.1,0-0.1-0.1c-0.3-0.3-0.6-0.4-1-0.4l-0.3,0c-0.1,0-0.1,0-0.2-0.1
		c0,0-0.1-0.1,0-0.2C60.9,9,61,8.8,61,8.7c0-0.8-0.6-1.4-1.4-1.4c-0.3,0-0.5,0.1-0.7,0.2c-0.1,0-0.1,0-0.2,0c-0.1,0-0.1-0.1-0.1-0.2
		l0-0.2c0-0.4-0.1-0.7-0.4-1c-0.3-0.3-0.6-0.4-1-0.4c-0.3,0-0.6,0.1-0.8,0.3c0,0-0.1,0-0.2,0c-0.1,0-0.1-0.1-0.1-0.1
		c-0.1-0.6-0.7-1.1-1.3-1.1c-0.4,0-0.7,0.1-1,0.4c0,0-0.1,0.1-0.1,0c-0.1,0-0.1,0-0.1-0.1c-0.2-0.5-0.7-0.8-1.2-0.8
		c-0.1,0-0.3,0-0.4,0.1c-0.1,0-0.1,0-0.2,0c-0.3-0.3-0.6-0.5-0.9-0.7l-0.3-0.1c-0.1,0-0.1-0.1-0.1-0.2V2.4c0-0.1,0.1-0.2,0.2-0.2
		c0,0,0.7,0,1,0c0-0.2,0-0.6,0-0.8c-0.2,0-1,0-1,0c-0.1,0-0.2-0.1-0.2-0.2c0,0,0-0.6,0-0.9c-0.2,0-0.7,0-0.9,0c0,0.2,0,0.9,0,0.9
		c0,0.1-0.1,0.2-0.2,0.2c0,0-0.7,0-1,0c0,0.2,0,0.6,0,0.8c0.2,0,1,0,1,0c0.1,0,0.2,0.1,0.2,0.2v1.2c0,0.1-0.1,0.1-0.1,0.2l-0.3,0.1
		c-0.4,0.1-0.7,0.4-0.9,0.7c0,0.1-0.1,0.1-0.2,0c-0.1,0-0.3-0.1-0.4-0.1c-0.5,0-1,0.3-1.2,0.8c0,0-0.1,0.1-0.1,0.1s-0.1,0-0.1,0
		c-0.3-0.3-0.6-0.4-1-0.4c-0.6,0-1.2,0.5-1.3,1.1C43.8,6,43.7,6,43.7,6c-0.1,0-0.1,0-0.2,0c-0.2-0.2-0.5-0.3-0.8-0.3
		c-0.8,0-1.4,0.6-1.4,1.4l0,0.2c0,0.1,0,0.1-0.1,0.2c-0.1,0-0.1,0-0.2,0c-0.2-0.1-0.5-0.2-0.7-0.2c-0.8,0-1.4,0.6-1.4,1.4
		c0,0.2,0,0.3,0.1,0.5c0,0.1,0,0.1,0,0.2c0,0-0.1,0.1-0.2,0.1l-0.3,0c-0.4,0-0.8,0.2-1,0.4c0,0-0.1,0.1-0.1,0.1
		c-0.1,0-0.1,0-0.1-0.1c-0.3-0.4-0.7-0.6-1.1-0.6c-0.6,0-1.2,0.5-1.3,1.1c0,0.1,0,0.1-0.1,0.1c-0.1,0-0.1,0-0.2,0
		c-0.2-0.2-0.5-0.2-0.8-0.2c-0.8,0-1.4,0.6-1.4,1.4l0,0.2c0,0.1,0,0.1-0.1,0.2c0,0-0.1,0-0.2,0c-0.2-0.1-0.4-0.1-0.6-0.1
		c-0.8,0-1.4,0.6-1.4,1.4c0,0.2,0,0.4,0.1,0.6c0,0.1,0,0.1,0,0.2c0,0-0.1,0.1-0.2,0.1c-0.1,0-0.2,0-0.4,0c-0.8,0-1.4,0.6-1.4,1.4
		c0,0.3,0.1,0.5,0.2,0.8c0,0,0,0.1,0,0.2c0,0.1-0.1,0.1-0.1,0.1c-0.7,0.1-1.2,0.7-1.2,1.4c0,0.4,0.2,0.8,0.5,1.1
		c0.1,0,0.1,0.1,0.1,0.2c0,0.1-0.1,0.1-0.1,0.1c-0.6,0.1-1.1,0.7-1.1,1.3c0,0.2,0.1,0.5,0.2,0.7c0,0.1,0,0.2-0.1,0.2
		c-0.3,0.2-0.5,0.5-0.6,0.8c-0.1,0.4,0,0.8,0.3,1.2c0.1,0.1,0,0.2,0,0.2c-0.2,0.2-0.3,0.4-0.3,0.7c0,0.5,0.4,1.1,0.7,1.4
		c0.4,0.3,1.2,0.8,2,0.2c0.1,0,0.1,0,0.2,0c0.7,0.5,1.6,0.7,2.4,0.4c0.1,0,0.1,0,0.2,0.1c0,0,0.1,0.1,0,0.2c-0.1,0.2-0.1,0.4,0,0.6
		c0.1,0.2,0.2,0.3,0.4,0.4c0.2,0.1,0.3,0.1,0.5,0c5.4-2.6,11.3-3.9,17.3-3.9c6.1,0,11.9,1.3,17.4,3.9c0.3,0.1,0.7,0,0.9-0.3
		c0.1-0.2,0.1-0.4,0-0.6c0-0.1,0-0.1,0-0.2c0,0,0.1-0.1,0.2-0.1c0.8,0.2,1.7,0.1,2.4-0.4c0.1,0,0.1,0,0.2,0c0.8,0.6,1.6,0.1,2-0.2
		c0.4-0.3,0.7-0.8,0.7-1.4C73.8,23.8,73.7,23.6,73.4,23.4L73.4,23.4z M72.9,20.2c0,0.5-0.4,1-1,1c-0.5,0-1-0.4-1-1c0-0.5,0.4-1,1-1
		C72.5,19.2,72.9,19.7,72.9,20.2z M71.3,16.5c0.5,0,1,0.4,1,1c0,0.5-0.4,1-1,1c-0.5,0-1-0.4-1-1C70.3,17,70.8,16.5,71.3,16.5z
		 M70.2,14.2c0.5,0,1,0.4,1,1c0,0.5-0.4,1-1,1c-0.5,0-1-0.4-1-1C69.2,14.6,69.6,14.2,70.2,14.2L70.2,14.2z M70.3,23L70.3,23L70.3,23
		z M68.4,12.1c0.5,0,1,0.4,1,1c0,0.5-0.4,1-1,1c-0.5,0-1-0.4-1-1C67.4,12.5,67.8,12.1,68.4,12.1z M66.2,10.4c0.5,0,1,0.4,1,1
		c0,0.5-0.4,1-1,1c-0.5,0-1-0.4-1-1C65.2,10.9,65.6,10.4,66.2,10.4z M63.8,9.5c0.5,0,1,0.4,1,1c0,0.5-0.4,1-1,1c-0.5,0-1-0.4-1-1
		C62.8,10,63.3,9.5,63.8,9.5z M62.6,12.1c0.5,0,1,0.4,1,1c0,0.5-0.4,1-1,1c-0.5,0-1-0.4-1-1C61.6,12.5,62,12.1,62.6,12.1z
		 M60.8,17.7c0.4-0.2,0.8-0.3,1.2-0.2c0.4,0.1,0.8,0.4,1,0.7c0.2,0.4,0.3,0.8,0.2,1.2c-0.1,0.4-0.4,0.8-0.7,1
		c-0.4,0.2-0.8,0.3-1.2,0.2c-0.4-0.1-0.8-0.4-1-0.7C60.1,19.6,60,19.3,60,19c0-0.1,0-0.3,0.1-0.4v0v0C60.2,18.2,60.5,17.9,60.8,17.7
		z M63.2,16.8c-0.5,0-1-0.4-1-1c0-0.5,0.4-1,1-1c0.5,0,1,0.4,1,1C64.2,16.3,63.7,16.8,63.2,16.8z M61.4,9.7c0.3,0,0.5,0.1,0.7,0.3
		c0.2,0.2,0.3,0.4,0.3,0.7c0,0.5-0.4,1-1,1c-0.5,0-1-0.4-1-1C60.4,10.2,60.8,9.7,61.4,9.7z M59.6,7.7c0.5,0,1,0.4,1,1
		c0,0.5-0.4,1-1,1c-0.5,0-1-0.4-1-1C58.6,8.1,59.1,7.7,59.6,7.7z M57.3,6.1c0.5,0,1,0.4,1,1c0,0.5-0.4,1-1,1c-0.5,0-1-0.4-1-1
		C56.3,6.6,56.7,6.1,57.3,6.1z M54.9,5.2c0.5,0,1,0.4,1,1s-0.4,1-1,1c-0.5,0-1-0.4-1-1C53.9,5.7,54.3,5.2,54.9,5.2z M51.7,5.1
		c0.2-0.2,0.4-0.3,0.7-0.3c0.5,0,1,0.4,1,1c0,0.5-0.4,1-1,1c-0.5,0-1-0.4-1-1C51.4,5.5,51.5,5.3,51.7,5.1z M50,7.2c0.5,0,1,0.4,1,1
		c0,0.5-0.4,1-1,1s-1-0.4-1-1C49,7.6,49.5,7.2,50,7.2z M49,13.6c0-0.5,0.4-1,1-1c0.5,0,1,0.4,1,1c0,0.5-0.4,1-1,1
		C49.5,14.6,49,14.2,49,13.6z M51.6,17.5c0,0.9-0.7,1.6-1.6,1.6c-0.9,0-1.6-0.7-1.6-1.6c0-0.9,0.7-1.6,1.6-1.6
		C50.9,16,51.6,16.7,51.6,17.5z M50,11.9c-0.5,0-1-0.4-1-1c0-0.5,0.4-1,1-1c0.5,0,1,0.4,1,1C51,11.4,50.5,11.9,50,11.9z M47.6,4.8
		c0.5,0,1,0.4,1,1c0,0.5-0.4,1-1,1c-0.5,0-1-0.4-1-1C46.6,5.2,47.1,4.8,47.6,4.8z M44.4,5.5c0.2-0.2,0.4-0.3,0.7-0.3
		c0.5,0,1,0.4,1,1s-0.4,1-1,1s-1-0.4-1-1C44.2,6,44.3,5.7,44.4,5.5z M42.7,6.1c0.5,0,1,0.4,1,1c0,0.5-0.4,1-1,1c-0.5,0-1-0.4-1-1
		C41.7,6.6,42.2,6.1,42.7,6.1z M40.4,7.7c0.3,0,0.5,0.1,0.7,0.3c0.2,0.2,0.3,0.4,0.3,0.7c0,0.5-0.4,1-1,1c-0.5,0-1-0.4-1-1
		C39.4,8.1,39.9,7.7,40.4,7.7z M38.6,9.7c0.5,0,1,0.4,1,1c0,0.5-0.4,1-1,1c-0.5,0-1-0.4-1-1C37.7,10.2,38.1,9.7,38.6,9.7z M38,17.5
		c0.8-0.2,1.7,0.3,1.9,1.1c0.2,0.8-0.3,1.7-1.1,1.9c-0.4,0.1-0.8,0-1.2-0.2c-0.4-0.2-0.6-0.6-0.7-1C36.6,18.6,37.1,17.7,38,17.5z
		 M35.8,15.8c0-0.5,0.4-1,1-1c0.5,0,1,0.4,1,1c0,0.5-0.4,1-1,1C36.3,16.8,35.8,16.3,35.8,15.8z M37.4,12.1c0.5,0,1,0.4,1,1
		c0,0.5-0.4,1-1,1c-0.5,0-1-0.4-1-1c0-0.3,0.1-0.5,0.3-0.7C36.9,12.2,37.2,12.1,37.4,12.1z M36.2,9.5c0.3,0,0.5,0.1,0.7,0.3
		c0.2,0.2,0.3,0.4,0.3,0.7c0,0.5-0.4,1-1,1c-0.5,0-1-0.4-1-1C35.2,10,35.7,9.5,36.2,9.5z M33.8,10.4c0.5,0,1,0.4,1,1
		c0,0.5-0.4,1-1,1c-0.5,0-1-0.4-1-1C32.9,10.9,33.3,10.4,33.8,10.4z M31.6,12.1c0.5,0,1,0.4,1,1c0,0.5-0.4,1-1,1c-0.5,0-1-0.4-1-1
		C30.6,12.5,31.1,12.1,31.6,12.1z M29.8,14.2c0.5,0,1,0.4,1,1c0,0.5-0.4,1-1,1c-0.5,0-1-0.4-1-1C28.9,14.6,29.3,14.2,29.8,14.2z
		 M29.7,23L29.7,23C29.7,23,29.7,23,29.7,23z M27.7,17.5c0-0.5,0.4-1,1-1c0.5,0,1,0.4,1,1c0,0.5-0.4,1-1,1
		C28.2,18.5,27.7,18.1,27.7,17.5z M28.1,19.2c0.5,0,1,0.4,1,1c0,0.5-0.4,1-1,1c-0.5,0-1-0.4-1-1C27.1,19.7,27.5,19.2,28.1,19.2z
		 M29.1,25.1c-0.8,0.4-1.7,0.1-2.1-0.6c-0.4-0.8-0.1-1.7,0.6-2.1c0.4-0.2,0.8-0.3,1.2-0.1c0.4,0.1,0.7,0.4,0.9,0.8
		c0.1,0.2,0.2,0.5,0.2,0.8C29.9,24.3,29.6,24.8,29.1,25.1z M36,24.4c-1,0.4-2.1,0.8-3.1,1.2c-0.1,0-0.2,0-0.2-0.1c0-0.1,0-0.2,0-0.2
		c0.4-0.4,0.6-0.9,0.7-1.4c0-0.1,0.1-0.1,0.1-0.1c0,0,0.2,0,0.2,0c0.2,0,0.3-0.1,0.5-0.2c0.1,0,0.1,0,0.2,0c0.4,0.3,1,0.5,1.5,0.5
		c0.1,0,0.1,0.1,0.2,0.1C36.1,24.3,36.1,24.4,36,24.4z M36.6,23.1c-0.7,0.2-1.3-0.1-1.8-0.6c0,0,0-0.1,0-0.1l0-0.3
		c-0.2-0.7-0.9-1.2-1.7-1c-0.4,0.1-0.7,0.3-0.8,0.6c-0.2,0.3-0.2,0.7-0.1,1c0.1,0.2,0.2,0.4,0.3,0.6c0,0,0,0.1,0,0.1
		c0.1,0.7-0.3,1.3-0.9,1.6c-0.4,0.2-0.9,0.3-1.4,0.1c-0.1,0-0.1-0.1-0.1-0.1c0-0.1,0-0.1,0.1-0.2c0.9-0.4,1.1-1,0.7-2
		c-0.2-0.6-0.5-1-0.9-1.1c-0.1,0-0.1-0.1-0.1-0.2c0.4-4.6,1.8-6.8,5.9-8.9c0.1,0,0.1,0,0.2,0c0,0,0.1,0.1,0.1,0.1l0,0.2
		c0,0.4,0.2,0.8,0.5,1.1c0.1,0,0.1,0.1,0.1,0.2c0,0.1-0.1,0.1-0.1,0.1c-0.6,0.1-1.1,0.7-1.1,1.3c0,0.6,0.4,1.1,1,1.3
		c0,0,0.1,0,0.1,0.1c0,0,0,0.1,0,0.1c-0.1,0.2-0.2,0.5-0.1,0.8c0,0.1,0,0.1-0.1,0.2c-0.7,0.3-1,0.9-0.7,1.8c0.3,1.1,0.9,1.4,2.1,1.1
		c0,0,0.1,0,0.1,0c0,0,0.1,0.1,0.1,0.1C37.9,22.2,37.4,22.9,36.6,23.1z M41,23c-1,0.2-2,0.5-2.9,0.8c-0.1,0-0.2,0-0.2-0.1
		c0-0.1,0-0.2,0-0.2c0.7-0.6,1-1.4,0.9-2.3c0-0.1,0-0.2,0.1-0.2c0.1,0,0.2,0,0.2,0.1c0.3,0.8,1,1.4,1.9,1.6c0.1,0,0.1,0.1,0.1,0.2
		C41.1,22.9,41.1,23,41,23z M46.4,22.2c-1.1,0.1-2.2,0.2-3.3,0.4c-0.1,0-0.2,0-0.2-0.1c0-0.1,0-0.2,0.1-0.2c0.5-0.3,0.9-0.9,1.2-1.4
		c0-0.1,0.1-0.1,0.2-0.1l0.1,0c0.1,0,0.3,0,0.4-0.1c0.1,0,0.1,0,0.2,0.1c0.3,0.5,0.9,0.9,1.5,1.1c0.1,0,0.1,0.1,0.1,0.2
		C46.5,22.1,46.4,22.2,46.4,22.2z M45.7,19.9C45.6,19.8,45.6,19.8,45.7,19.9c0-0.2,0.1-0.4,0.1-0.5c0-0.4-0.1-0.7-0.4-1
		c-0.3-0.3-0.6-0.4-1-0.4c-0.8,0-1.4,0.6-1.4,1.4c0,0.2,0.1,0.5,0.2,0.7c0,0,0,0.1,0,0.1c0,0.7-0.5,1.4-1.3,1.6
		c-0.8,0.2-1.6-0.2-1.9-0.9c0,0,0-0.1,0-0.1c0,0,0.1-0.1,0.1-0.1c1.2-0.3,1.6-0.9,1.3-2c-0.2-0.9-0.7-1.3-1.5-1.2
		c-0.1,0-0.1,0-0.2-0.1c-0.2-0.4-0.4-0.6-0.7-0.7c-0.1,0-0.1-0.1-0.1-0.2c0.5-4.6,4-9,9.8-8.5c0.1,0,0.2,0.1,0.2,0.2l0,0.1
		c0,0.2,0.1,0.5,0.2,0.7c0,0,0,0.1,0,0.1v1.2c0,0,0,0.1,0,0.1c-0.1,0.2-0.2,0.4-0.2,0.7c0,0.2,0.1,0.5,0.2,0.7c0,0,0,0.1,0,0.1v1.2
		c0,0,0,0.1,0,0.1c-0.1,0.2-0.2,0.4-0.2,0.7c0,0.5,0.3,0.9,0.7,1.1c0.1,0,0.1,0.1,0.1,0.2c0,0.1-0.1,0.1-0.1,0.1
		c-0.7,0.1-1.1,0.5-1.2,1.2c0,0.1-0.1,0.1-0.1,0.1c-0.8,0.2-1.1,0.6-1.1,1.5c0,1.1,0.5,1.6,1.7,1.6c0,0,0.1,0,0.1,0.1
		c0,0,0,0.1,0,0.1c-0.1,0.8-0.8,1.4-1.6,1.4C46.5,21.1,45.9,20.6,45.7,19.9L45.7,19.9z M51.7,21.9c0,0.1-0.1,0.1-0.2,0.1L50,22
		l-1.5,0c-0.1,0-0.1-0.1-0.2-0.1c0-0.1,0-0.2,0.1-0.2c0.8-0.4,1.3-1.1,1.5-2c0-0.1,0.1-0.1,0.2-0.1c0.1,0,0.2,0.1,0.2,0.1
		c0.1,0.9,0.7,1.6,1.5,2C51.7,21.8,51.7,21.9,51.7,21.9z M57.1,22.5c0,0.1-0.1,0.1-0.2,0.1c-1.1-0.2-2.2-0.3-3.3-0.4
		c-0.1,0-0.1-0.1-0.2-0.1c0-0.1,0-0.2,0.1-0.2c0.6-0.2,1.1-0.6,1.5-1.1c0-0.1,0.1-0.1,0.2-0.1c0.1,0,0.3,0.1,0.4,0.1l0.1,0
		c0.1,0,0.1,0,0.2,0.1c0.2,0.6,0.6,1.1,1.2,1.4C57.1,22.3,57.1,22.4,57.1,22.5z M58.1,21.7c-0.7-0.2-1.2-0.8-1.3-1.6
		c0,0,0-0.1,0-0.1c0.1-0.2,0.2-0.4,0.2-0.7c0-0.8-0.6-1.4-1.4-1.4c-0.8,0-1.4,0.6-1.4,1.4c0,0.1,0,0.3,0.1,0.4c0,0,0,0.1,0,0.1
		c-0.2,0.7-0.9,1.2-1.6,1.2c-0.8,0-1.5-0.6-1.6-1.4c0,0,0-0.1,0-0.1c0,0,0.1-0.1,0.1-0.1c1.2,0,1.7-0.5,1.7-1.6
		c0-0.9-0.4-1.4-1.1-1.5c-0.1,0-0.1-0.1-0.1-0.1c-0.1-0.7-0.5-1.1-1.2-1.2c-0.1,0-0.1-0.1-0.1-0.1c0-0.1,0-0.1,0.1-0.2
		c0.4-0.2,0.7-0.6,0.7-1.1c0-0.2-0.1-0.5-0.2-0.7c0,0,0-0.1,0-0.1v-1.2c0,0,0-0.1,0-0.1c0.1-0.2,0.2-0.4,0.2-0.7
		c0-0.2-0.1-0.5-0.2-0.7c0,0,0-0.1,0-0.1V8.9c0,0,0-0.1,0-0.1c0.1-0.2,0.2-0.4,0.2-0.7l0-0.1c0-0.1,0.1-0.2,0.2-0.2
		c5.8-0.4,9.3,4,9.8,8.5c0,0.1,0,0.1-0.1,0.2c-0.3,0.1-0.6,0.4-0.7,0.7c0,0.1-0.1,0.1-0.2,0.1c-0.8,0-1.3,0.3-1.5,1.2
		c-0.3,1.1,0.1,1.7,1.3,2c0,0,0.1,0,0.1,0.1c0,0,0,0.1,0,0.1C59.7,21.5,58.9,21.9,58.1,21.7z M62.2,23.7c0,0.1-0.1,0.1-0.2,0.1
		C61,23.5,60,23.2,59,23c-0.1,0-0.1-0.1-0.1-0.2c0-0.1,0.1-0.1,0.1-0.2c0.8-0.2,1.6-0.8,1.9-1.6c0-0.1,0.1-0.1,0.2-0.1
		c0.1,0,0.1,0.1,0.1,0.2c-0.1,0.9,0.2,1.7,0.9,2.3C62.2,23.5,62.2,23.6,62.2,23.7z M67.3,25.6c0,0.1-0.1,0.1-0.2,0.1
		c-1-0.4-2-0.9-3.1-1.2c-0.1,0-0.1-0.1-0.1-0.2c0-0.1,0.1-0.1,0.2-0.1c0.5,0,1.1-0.2,1.5-0.5c0.1,0,0.1,0,0.2,0
		c0.1,0.1,0.3,0.2,0.5,0.2l0.2,0c0.1,0,0.1,0.1,0.1,0.1c0.1,0.5,0.4,1,0.7,1.4C67.3,25.4,67.3,25.5,67.3,25.6z M70,21.8
		c-0.4,0.1-0.7,0.5-0.9,1.1c-0.4,0.9-0.1,1.5,0.7,2c0.1,0,0.1,0.1,0.1,0.2s0,0.1-0.1,0.1c-0.5,0.2-1,0.1-1.4-0.1
		c-0.6-0.3-0.9-1-0.9-1.6c0,0,0-0.1,0-0.1c0.1-0.2,0.2-0.4,0.3-0.6c0.1-0.4,0-0.7-0.1-1c-0.2-0.3-0.5-0.5-0.8-0.6
		c-0.7-0.2-1.5,0.3-1.7,1l0,0.3c0,0,0,0.1,0,0.1c-0.4,0.5-1.1,0.8-1.8,0.6c-0.8-0.2-1.3-0.9-1.2-1.8c0,0,0-0.1,0.1-0.1
		c0,0,0.1,0,0.1,0c1.2,0.3,1.8-0.1,2.1-1.1c0.2-0.9,0-1.4-0.7-1.8c-0.1,0-0.1-0.1-0.1-0.2c0-0.3,0-0.6-0.1-0.8c0,0,0-0.1,0-0.1
		c0,0,0.1-0.1,0.1-0.1c0.6-0.2,1-0.7,1-1.3c0-0.6-0.5-1.2-1.1-1.3c-0.1,0-0.1-0.1-0.1-0.1c0-0.1,0-0.1,0.1-0.2
		c0.3-0.3,0.5-0.7,0.5-1.1l0-0.2c0-0.1,0-0.1,0.1-0.1c0,0,0.1,0,0.2,0c4.1,2.1,5.6,4.2,5.9,8.9C70.1,21.7,70,21.8,70,21.8L70,21.8z
		 M73,24.5c-0.4,0.8-1.4,1-2.1,0.6c-0.4-0.2-0.6-0.5-0.8-0.9c0-0.1-0.1-0.3-0.1-0.4c0-0.3,0.1-0.5,0.2-0.8c0.2-0.4,0.5-0.6,0.9-0.8
		c0.4-0.1,0.8-0.1,1.2,0.1c0.4,0.2,0.6,0.5,0.8,0.9C73.3,23.7,73.2,24.1,73,24.5L73,24.5z"/>
	<path id="path111_4_"  class="st192" d="M50.4,28.4c0,0.2,0.2,0.9,0.2,1c-0.1,0.1-0.8,0.4-1,0.5
		c-0.1-0.2-0.3-1-0.3-1.2C49.5,28.8,50.2,28.5,50.4,28.4z"/>
	<path id="path113_4_"  class="st191" d="M14.2,64.2C14.2,84,30.3,100,50,100s35.8-16,35.8-35.8
		c0-19.7-16.1-35.8-35.8-35.8C30.3,28.4,14.2,44.5,14.2,64.2z"/>
	<path id="path115_3_"  class="st193" d="M15.2,64.2c0,9.6,3.9,18.3,10.2,24.6l0,0
		C31.7,95.1,40.4,99,50,99l0,0c9.6,0,18.3-3.9,24.6-10.2l0,0c6.3-6.3,10.2-15,10.2-24.6l0,0c0-9.6-3.9-18.3-10.2-24.6l0,0
		c-6.3-6.3-15-10.2-24.6-10.2l0,0c-9.6,0-18.3,3.9-24.6,10.2l0,0C19.1,46,15.2,54.6,15.2,64.2L15.2,64.2L15.2,64.2L15.2,64.2z"/>
	<path id="path117_3_"  class="st191" d="M18.3,64.2c0-17.5,14.2-31.7,31.7-31.7l0,0
		c17.5,0,31.7,14.2,31.7,31.7l0,0c0,17.5-14.2,31.7-31.7,31.7l0,0C32.5,95.9,18.3,81.7,18.3,64.2C18.3,64.2,18.3,64.2,18.3,64.2z"/>
	<path id="path119_3_"  class="st28" d="M19.3,64.2c0-16.9,13.8-30.7,30.7-30.7
		s30.7,13.8,30.7,30.7c0,16.9-13.8,30.7-30.7,30.7S19.3,81.2,19.3,64.2L19.3,64.2z"/>
	<path id="path121_5_"  class="st191" d="M79.5,64.1c0-10.7-5.9-20.6-15.3-25.8L64,38.2
		c0,0-6.7,6.9-6.9,7.1c0,0,0,0,0,0S57,45.4,57,45.4c-2.2-0.8-4.5-1.3-7-1.3c0,0,0,0,0,0c-2.5,0-5,0.5-7.3,1.3
		c-0.2-0.3-6.9-7.2-6.9-7.2l-0.2,0.1c-0.1,0-0.1,0.1-0.2,0.1l0,0c-5.4,3-9.7,7.7-12.3,13.3c0,0,0,0,0,0c-1.8,3.8-2.7,8-2.7,12.3
		c0,7,2.5,13.6,7.3,19l0.2,0.2l3.9-4l-0.2-0.2c-2.1-2-6-7.6-6-14.7c0-0.2,0-0.4,0-0.6c0.1-2.8,0.6-5.5,1.5-8
		c1.1,1.1,2.2,2.2,3.3,3.3C30.2,60.6,30,62,30,63.3c0,0.1,0,0.2,0,0.2c0,9,6.2,17,14.9,19.3c0,0.4,0,5,0,5h5.4c0,0,0-3.9,0-4.4
		c1.2,0,2.4-0.2,3.6-0.4c2.6,2.7,5.2,5.3,7.9,8.1c5.6-2.4,10.3-6.6,13.4-11.7l0,0C78,74.8,79.5,69.5,79.5,64.1L79.5,64.1z
		 M44.8,76.8c-5.6-2-9.1-6.8-9.3-12.5c3.1,3.2,6.2,6.3,9.3,9.4C44.8,75.4,44.8,76.6,44.8,76.8z M50,52.8c-0.3-0.3-2.4-2.4-2.9-3
		c1-0.2,2-0.3,2.7-0.3c1.1,0,2,0.2,3,0.4C52.2,50.5,50.3,52.5,50,52.8z M71,75L53.6,57.1c2.1-2.2,4.4-4.6,4.5-4.8
		c1.8,1.3,3.3,3,4.3,4.9l0.2,0.3l4.4-3.8l-0.1-0.2c-1.2-2-2.8-3.8-4.8-5.3c0.4-0.4,2.6-2.7,2.9-3c4.5,3.2,9,10.6,9,18.6
		C73.9,68.5,72.8,71.9,71,75L71,75z"/>
	<path id="path123_4_"  class="st193" d="M64.2,39.4c-1.2,1.3-6.5,6.7-6.5,6.7l-0.1,0.1h0
		c0,0-0.1,0.1-0.1,0.1l-0.2,0.2L57,46.5l-0.2-0.1c-2.1-0.8-4.4-1.2-6.8-1.3c-2.4,0-5,0.5-7.1,1.3l-0.4,0.2l-0.2-0.2
		c0,0-5.3-5.6-6.6-6.9C27,44.6,21.5,54,21.5,64.1c0,6.5,2.3,12.6,6.6,17.7c0.6-0.6,1.9-1.9,2.4-2.5c-2.3-2.5-5.8-8-5.8-14.9
		c0-0.2,0-0.4,0-0.6c0.3-7.9,3.6-14.5,9.7-19.5l0.5-0.4l4.4,4.5l-0.7,0.5c-4.7,3.6-7.6,9-7.7,14.5c0,0.1,0,0.2,0,0.2
		c0,8.6,6,16.3,14.3,18.3l0.5,0.1v0.3c0,0,0,3.2,0,4.5c0.8,0,2.6,0,3.4,0c0-0.5,0-1.2,0-2c0-1,0-2,0-2v-0.4l0.7,0
		c5.3,0,10.6-2.5,14.1-6.4c-0.6-0.6-2-2-2.7-2.7c-3.3,3.6-7.9,5.4-11.1,5.4c-0.1,0-0.3,0-0.4,0l-0.7,0v-5.2h0.4c0,0,4.1,0,5.5,0
		c0-0.8,0-2.2,0-3c-1.4,0-5.5,0-5.5,0h-0.4v-4.2h0.4c0,0,4.2,0,5.6,0c0-0.7,0-1.9,0-2.5c-1.7,0-7.7,0-9.4,0c0,2.4,0,13.7,0,13.7v0.6
		l-1-0.3c-6.3-2.1-10.4-7.5-10.3-13.9c0-0.1,0-0.2,0-0.3c0.1-5.1,2.5-9.7,6.7-12.6l0.5-0.4l0.3,0.3c0,0,6.5,6.7,8,8.3
		c1.5-1.6,7.7-8.2,7.7-8.2L58,51l0.5,0.3c1.8,1.2,3.3,2.8,4.4,4.6c0.7-0.6,2.1-1.8,2.8-2.4c-1.1-1.8-2.7-3.4-4.4-4.7l-0.7-0.5
		l4.3-4.4l0.5,0.3c4.8,3.4,9.6,11.1,9.6,19.6c0,6.8-2.3,11.2-5.7,15.4c0.6,0.6,2.1,2.1,2.8,2.8c4.1-5,6.4-11.4,6.4-18
		C78.5,54,73,44.6,64.2,39.4L64.2,39.4z M50.3,54L50,54.3l-5-5.1l1.3-0.3c1.1-0.3,2.3-0.4,3.2-0.4c0.1,0,0.2,0,0.3,0
		c1.3,0,2.5,0.2,3.7,0.5l1.2,0.3L50.3,54L50.3,54z"/>
</g>
</svg>
