<?xml version="1.0" encoding="utf-8"?>
<!-- Generator: Adobe Illustrator 19.2.1, SVG Export Plug-In . SVG Version: 6.00 Build 0)  -->
<svg version="1.1" id="Capa_1" xmlns="http://www.w3.org/2000/svg" xmlns:xlink="http://www.w3.org/1999/xlink" x="0px" y="0px"
	 viewBox="0 0 100 100" style="enable-background:new 0 0 100 100;" xml:space="preserve">
<style type="text/css">
	.st0{fill:url(#path34_4_);}
	.st1{fill:url(#path890_1_);}
	.st2{fill:#FFE500;stroke:#000000;stroke-width:2.098;stroke-miterlimit:3.863;}
	.st3{fill:#DA020E;}
	.st4{fill:#FFE500;}
	.st5{clip-path:url(#SVGID_2_);}
	.st6{fill:none;stroke:#B54005;stroke-width:10;stroke-miterlimit:3.863;}
	.st7{fill:url(#path7506_1_);}
	.st8{fill:url(#path8794_1_);}
	.st9{fill:url(#path15846_1_);}
	.st10{fill:url(#path16274_1_);}
	.st11{fill:url(#path39821_1_);}
	.st12{fill:url(#path39847_1_);}
	.st13{fill:url(#path39878_1_);}
	.st14{fill:url(#path39888_1_);}
	.st15{fill:url(#path41035_1_);}
	.st16{fill:url(#path9646-8_1_);}
	.st17{fill:url(#path41092_1_);}
	.st18{fill:url(#path41094_1_);}
	.st19{fill:none;stroke:#000000;stroke-width:2.098;stroke-miterlimit:3.863;}
	.st20{fill:url(#path41152_1_);}
	.st21{fill:url(#path39854_1_);}
	.st22{fill:url(#path39874_1_);}
	.st23{fill:#9C824A;stroke:#9C824A;stroke-width:0.793;stroke-miterlimit:282;}
	.st24{fill:#023474;stroke:#023474;stroke-width:0.793;stroke-miterlimit:282;}
	.st25{fill:#FFFFFF;stroke:#FFFFFF;stroke-width:0.793;stroke-miterlimit:282;}
	.st26{fill:#EF0107;stroke:#EF0107;stroke-width:0.793;stroke-miterlimit:282;}
	.st27{fill:#DB0007;stroke:#DB0007;stroke-width:0.793;stroke-miterlimit:282;}
	.st28{fill:#FFFFFF;}
	.st29{fill:#9C824A;}
	.st30{fill:#EF0107;stroke:#EF0107;stroke-width:0.3115;stroke-miterlimit:282;}
	.st31{fill:#DB0007;stroke:#DB0007;stroke-width:0.3115;stroke-miterlimit:282;}
	.st32{fill:#DB0007;}
	.st33{fill:#FFFFFF;stroke:#FFFFFF;stroke-width:0.3115;stroke-miterlimit:282;}
	.st34{fill:#FFFFFF;stroke:#FFFFFF;stroke-width:0.554;stroke-miterlimit:3.864;}
	.st35{fill:#231F20;}
	.st36{fill:#00B6F1;stroke:#00B6F1;stroke-width:1.700000e-02;stroke-miterlimit:3.864;}
	.st37{fill:#EF3E2E;}
	.st38{fill:#BBBDBF;}
	.st39{fill:#F0B83D;}
	.st40{fill:#00B6F1;stroke:#FFFFFF;stroke-width:1.700000e-02;stroke-miterlimit:3.864;}
	.st41{fill:#001C58;}
	.st42{fill:#94BEE5;}
	.st43{fill:none;stroke:#7A003C;stroke-width:2.2437;stroke-miterlimit:6;}
	.st44{fill:#7A003C;}
	.st45{fill:#FFE600;}
	.st46{fill:#DBA111;}
	.st47{fill:#034694;}
	.st48{fill:#D1D3D4;}
	.st49{fill:#ED1C24;}
	.st50{fill:#6A7AB5;}
	.st51{fill:none;}
	.st52{fill:#274488;}
	.st53{fill:#004798;stroke:#004798;stroke-width:9.375000e-02;}
	.st54{fill:#FFFFFF;stroke:#FFFFFF;stroke-width:9.375000e-02;}
	.st55{fill:#FABC00;stroke:#FABC00;stroke-width:9.375000e-02;}
	.st56{fill:none;stroke:#FFFFFF;stroke-width:7.865;stroke-miterlimit:3.864;}
	.st57{fill:none;stroke:#FFFFFF;stroke-width:7.865;stroke-miterlimit:12;}
	.st58{fill:none;stroke:#FFFFFF;stroke-width:7.865;stroke-miterlimit:22;}
	.st59{fill:none;stroke:#FFFFFF;stroke-width:7.865;stroke-miterlimit:6;}
	.st60{fill:#00A398;}
	.st61{fill:#D00027;}
	.st62{fill:none;stroke:#FFFFFF;stroke-width:17.3907;stroke-miterlimit:3.864;}
	.st63{fill:none;stroke:#FFFFFF;stroke-width:13.1107;stroke-miterlimit:3.864;}
	.st64{fill:#FEF667;}
	.st65{fill:#D00027;stroke:#D00027;}
	.st66{fill:#5299C6;}
	.st67{fill:#60223B;}
	.st68{fill:#F7C240;}
	.st69{fill:#292D6B;}
	.st70{fill:#1B458F;}
	.st71{fill:#C4122E;}
	.st72{fill:#27409B;}
	.st73{clip-path:url(#SVGID_4_);}
	.st74{fill:#F4F4F4;}
	.st75{fill:#D3D2D2;}
	.st76{fill:#A7A5A6;}
	.st77{fill:#091453;}
	.st78{fill:none;stroke:#FFFFFF;stroke-width:6.6301;}
	.st79{clip-path:url(#SVGID_6_);}
	.st80{fill:#724314;}
	.st81{fill:#240B08;}
	.st82{fill:#018B4B;}
	.st83{fill:#A6181D;}
	.st84{fill:#592D09;}
	.st85{fill:#FFCE65;}
	.st86{fill:#5CBFEB;}
	.st87{fill:none;stroke:#000000;stroke-width:10;}
	.st88{fill:none;stroke:#000000;}
	.st89{fill:#B2B2B2;}
	.st90{fill:none;stroke:#000000;stroke-width:0.3;}
	.st91{fill:#00A650;stroke:#000000;stroke-width:2;}
	.st92{fill:#241F20;stroke:#241F20;stroke-width:9.375000e-02;}
	.st93{fill:#FFF200;stroke:#FFF200;stroke-width:9.375000e-02;}
	.st94{fill:#A68A26;}
	.st95{fill:none;stroke:#A68A26;stroke-width:4.792100e-02;stroke-miterlimit:3.8637;}
	.st96{fill:#211E1E;}
	.st97{fill:none;stroke:#211E1E;stroke-width:4.792100e-02;stroke-miterlimit:3.8637;}
	.st98{fill:#EB172B;}
	.st99{fill:none;stroke:#EB172B;stroke-width:4.792100e-02;stroke-miterlimit:3.8637;}
	.st100{fill:#A68A26;stroke:#A68A26;stroke-width:4.792100e-02;stroke-miterlimit:3.8637;}
	.st101{fill:#D1BF7F;}
	.st102{fill:none;stroke:#D1BF7F;stroke-width:4.792100e-02;stroke-miterlimit:3.8637;}
	.st103{fill:none;stroke:#FFFFFF;stroke-width:4.792100e-02;stroke-miterlimit:3.8637;}
	.st104{fill:#EB172B;stroke:#EB172B;stroke-width:4.792100e-02;stroke-miterlimit:3.8637;}
	.st105{fill:#ED2127;}
	.st106{fill:#FBEE23;}
	.st107{stroke:#000000;}
	.st108{fill:#CF1F44;}
	.st109{fill:#1B449C;}
	.st110{fill:#E03A3E;}
	.st111{fill:#E03A3E;stroke:#E03A3E;stroke-width:0.6565;}
	.st112{fill:none;stroke:#1B449C;stroke-width:0.7493;}
	.st113{fill:none;stroke:#1B449C;stroke-width:0.7567;}
	.st114{fill:#1B449C;stroke:#1B449C;stroke-width:0.6274;}
	.st115{fill:#1B449C;stroke:#1B449C;stroke-width:0.6755;}
	.st116{fill:#2E6ABD;stroke:#2E6ABD;stroke-width:0.617;}
	.st117{fill:#FFFFFF;stroke:#FFFFFF;stroke-width:0.6175;}
	.st118{fill:#ED1248;}
	.st119{fill:#2E6ABD;}
	.st120{fill:#FDE100;}
	.st121{fill:#CC0000;}
	.st122{fill:#211E1F;}
	.st123{fill:#ED1A3B;}
	.st124{fill:#00AEEF;}
	.st125{fill:#FFC40D;}
	.st126{fill:#22B24C;}
	.st127{fill:#FFC20E;}
	.st128{fill:#0A3F86;}
	.st129{fill:#005CA9;}
	.st130{fill:#FFE000;}
	.st131{fill:#E2001A;}
	.st132{opacity:0;}
	.st133{opacity:0;fill:#FFFFFF;}
	.st134{fill:#FFFFFF;stroke:#000000;}
	.st135{fill:#0060A9;}
	.st136{fill:#E32219;}
	.st137{fill:#FFED00;}
	.st138{fill:#1D9053;}
	.st139{fill:#52A600;}
	.st140{fill:#EE2523;}
	.st141{fill:#F7D117;}
	.st142{fill:#171796;}
	.st143{fill:#009959;}
	.st144{fill:#D42E12;}
	.st145{fill:#703824;}
	.st146{fill:#E5254E;}
	.st147{fill:#8AC3EE;}
	.st148{fill:#B19221;}
	.st149{fill:#F5C03E;}
	.st150{fill:#FF1119;}
	.st151{fill:#1E6BC0;}
	.st152{fill:#B4742A;}
	.st153{fill:#371B02;}
	.st154{fill:url(#SVGID_7_);}
	.st155{fill:url(#SVGID_8_);}
	.st156{fill:url(#SVGID_9_);}
	.st157{fill:url(#SVGID_10_);}
	.st158{fill:url(#SVGID_11_);}
	.st159{fill:url(#SVGID_12_);}
	.st160{fill:url(#SVGID_13_);}
	.st161{fill:url(#SVGID_14_);}
	.st162{fill:url(#SVGID_15_);}
	.st163{fill:url(#SVGID_16_);}
	.st164{fill:#EB2626;}
	.st165{fill:#E9C32C;}
	.st166{fill:#D9D9D9;}
	.st167{fill:#009C5E;}
	.st168{fill:#1C75BC;}
	.st169{fill:#611D5C;}
	.st170{fill:#E2B900;}
	.st171{fill:#004B95;}
	.st172{fill:#A4234B;}
	.st173{fill:#DB2F36;}
	.st174{fill:#FFDF00;}
	.st175{fill:#A38D44;}
	.st176{fill:#57175E;}
	.st177{fill:#AFDCFD;}
	.st178{fill:#0090C6;}
	.st179{fill:#DB5232;}
	.st180{fill:#23C1E0;}
	.st181{fill:#F1A92A;}
	.st182{fill:#167FB6;}
	.st183{fill:#FED75D;}
	.st184{fill:#378CBF;}
	.st185{fill:#3E9692;}
	.st186{fill:#E67F29;}
	.st187{fill:#D8B43C;}
	.st188{fill:#EF3B33;}
	.st189{fill:#24923D;}
	.st190{opacity:6.000001e-02;fill:#101010;enable-background:new    ;}
	.st191{fill:#00529F;}
	.st192{fill:#EE324E;}
	.st193{fill:#FEBE10;}
	.st194{fill:#143C8B;}
	.st195{fill:#FFE24A;}
	.st196{fill:#EC1D24;}
	.st197{fill:#E6A514;}
	.st198{fill:#FFDF1C;}
	.st199{fill:#EE3524;}
	.st200{fill:#B23428;}
	.st201{fill:#D18816;}
	.st202{fill:#0097D7;}
	.st203{fill:#ED1C23;}
	.st204{fill:#E30613;}
	.st205{fill:#FFE400;}
	.st206{fill:#C51A1B;}
	.st207{clip-path:url(#SVGID_19_);}
	.st208{clip-path:url(#SVGID_20_);fill:none;stroke:#000000;stroke-width:0.8131;stroke-miterlimit:3.864;}
	.st209{fill:#0093D5;}
	.st210{fill:#004B9D;}
	.st211{fill:#FCC24F;}
	.st212{fill:#009545;}
	.st213{fill:#0072BB;}
	.st214{fill:#C4974E;}
	.st215{fill:url(#path1292_1_);}
	.st216{fill:#004996;}
	.st217{fill:#FFE667;}
	.st218{fill:none;stroke:#005187;stroke-width:0.153;stroke-miterlimit:3.864;}
	.st219{fill:#005187;}
	.st220{clip-path:url(#SVGID_22_);}
	.st221{clip-path:url(#SVGID_24_);fill:none;stroke:#000000;stroke-width:0.296;stroke-miterlimit:3.864;}
	.st222{clip-path:url(#SVGID_26_);fill:#FFE667;}
	.st223{clip-path:url(#SVGID_28_);fill:none;stroke:#000000;stroke-width:8.300000e-02;stroke-miterlimit:3.864;}
	.st224{fill:none;stroke:#000000;stroke-width:0.153;stroke-miterlimit:3.864;}
	.st225{clip-path:url(#SVGID_30_);fill:#E70005;}
	.st226{clip-path:url(#SVGID_32_);fill:none;stroke:#E70005;stroke-width:0.296;stroke-miterlimit:3.864;}
	.st227{clip-path:url(#SVGID_34_);fill:#E70005;}
	.st228{clip-path:url(#SVGID_36_);fill:none;stroke:#E70005;stroke-width:0.296;stroke-miterlimit:3.864;}
	.st229{clip-path:url(#SVGID_38_);fill:#E70005;}
	.st230{clip-path:url(#SVGID_40_);fill:none;stroke:#E70005;stroke-width:0.296;stroke-miterlimit:3.864;}
	.st231{clip-path:url(#SVGID_42_);fill:#E70005;}
	.st232{clip-path:url(#SVGID_44_);fill:none;stroke:#E70005;stroke-width:0.296;stroke-miterlimit:3.864;}
	.st233{fill:#E70005;}
	.st234{fill:none;stroke:#000000;stroke-width:0.141;stroke-miterlimit:3.864;}
	.st235{fill:#00276D;}
	.st236{fill:#C49308;}
	.st237{fill:#179D33;}
	.st238{fill:#999999;}
	.st239{fill:#FF0000;}
	.st240{fill:#E31837;}
	.st241{fill:#06357A;}
	.st242{fill:#B4053F;}
	.st243{fill:#DCA43E;}
	.st244{fill:#005CA5;}
	.st245{fill:#FAC400;}
	.st246{fill:#004083;}
	.st247{fill:#A95932;}
	.st248{fill:none;stroke:#000000;stroke-width:1.2215;}
	.st249{fill:#E62627;}
	.st250{fill:#00458C;}
	.st251{fill:#E11B22;}
	.st252{fill:#00AB4E;}
	.st253{fill:#F47920;}
	.st254{fill:#C7C8CA;}
	.st255{fill:#E11515;}
	.st256{fill:#A4965F;}
	.st257{fill:#E51636;}
	.st258{fill:#EACC00;}
	.st259{fill:#4F846B;}
	.st260{fill:#E22227;}
	.st261{fill:#FAE700;}
	.st262{fill:url(#SVGID_45_);}
	.st263{fill:#666666;}
	.st264{fill:#FFF200;}
	.st265{fill:#00275D;}
	.st266{fill:#EF3E33;}
	.st267{fill:none;stroke:#00275D;stroke-width:2.632;}
	.st268{fill:#3F7652;}
	.st269{fill:#F1D261;}
	.st270{fill:#004D8F;}
	.st271{fill:#E7B137;stroke:#E7B137;stroke-miterlimit:10;}
	.st272{fill:#E7B137;}
	.st273{fill:#162577;}
	.st274{fill:#12692C;}
	.st275{fill:#D8141D;}
	.st276{fill:#AB830D;}
	.st277{fill:#0086CB;}
	.st278{fill:#001F42;}
	.st279{fill:#9A8F4A;}
	.st280{fill:#00559D;}
	.st281{fill:#FDDE00;}
	.st282{fill:#00924C;}
	.st283{fill:#233984;}
	.st284{fill:#FFD42E;}
	.st285{fill:#BA3733;}
	.st286{fill:#46714D;}
	.st287{fill:#221F1F;}
	.st288{fill:#00559E;}
	.st289{fill:#005C46;}
	.st290{fill:#FBC860;}
	.st291{fill:#D57C48;}
	.st292{fill:#040403;}
	.st293{fill:#4AB969;}
	.st294{fill:#8ED8F8;}
	.st295{fill:#FEC34E;}
	.st296{fill:#FFC95B;}
	.st297{fill:#00644C;}
	.st298{fill:#70B865;}
	.st299{fill:#CA6F44;}
	.st300{fill:#A8B8BE;}
	.st301{fill:#1C2C80;}
	.st302{fill:#E10321;}
	.st303{fill:none;stroke:#231F20;stroke-width:0.318;stroke-miterlimit:3.864;}
	.st304{fill:#D71920;}
	.st305{fill:#484749;}
	.st306{fill:#D9DBDC;}
	.st307{fill:#DF725A;}
	.st308{fill:#F2CABA;}
	.st309{fill:#E89C84;}
	.st310{fill:#264F99;}
	.st311{clip-path:url(#SVGID_47_);}
	.st312{fill:#161413;}
	.st313{fill:#ED1B26;}
	.st314{fill:#E60D2E;}
	.st315{fill:#FCD600;}
	.st316{fill:#004D91;}
	.st317{fill:#EAB412;}
	.st318{fill:#FDD31D;}
	.st319{fill:#EFB800;}
</style>
<g>
	<path id="path5_8_"  d="M47.5,2.6h1.9V0h1.7v2.6h1.9v1.7h-1.9v1.3c0.6,0.2,1.1,0.7,1.4,1.2
		C53,6.5,53.5,6.3,54,6.3c1.2,0,2.1,1,2.1,2.1c0,0,0,0.1,0,0.1c0.3-0.2,0.7-0.3,1.1-0.3c0.7,0,1.3,0.3,1.7,0.8c0.2-1,1-1.8,2.1-1.8
		c1.2,0,2.1,1,2.1,2.1c0,0.2,0,0.5-0.1,0.7c0.4-0.4,1-0.7,1.6-0.7c1.1,0,2.1,0.9,2.1,2c0.2,0,0.4-0.1,0.5-0.1c1.2,0,2.1,1,2.1,2.1
		c0,0.2,0,0.4-0.1,0.6c0.9,0.3,1.5,1.1,1.5,2.1c0,0.3-0.1,0.7-0.2,0.9c0.6,0.4,0.9,1,0.9,1.8c0,0.5-0.2,1-0.5,1.3
		c0.4,0.4,0.7,1,0.7,1.6c0,0.8-0.5,1.6-1.2,1.9c0.1,0.2,0.1,0.6,0.1,0.9c-0.1,0.7-0.5,1.3-1.3,1.5c-0.9,0.2-1.9,0.4-2.8,0.3
		c0.1,1.3-0.9,2.6-2.1,2.7l1.2,2l-2,0.5c0.7,0.6,0.8,1.7,0.5,2.5c-0.1,0.4-0.4,0.7-0.7,1c8.8,4.7,14.8,14,14.8,24.7
		c0,1.7-0.2,3.4-0.5,5.1c0.2,0.1,0.4,0.3,0.6,0.4c2.3,1.5,4.3,3.3,6.2,5.3v0c0.7,0.8,1.5,1.6,2.3,2.5c0.8,0.8,1.6,1.6,2.4,2.4
		c1.4,1.4,2.8,2.8,4.3,4.1c-4.7,1.2-8.9,3.3-12.9,5.7l10.9,11.1l-4.1,2.7L76.5,87.8c-0.7,0.5-1.5,1-2.2,1.5
		c-2.7,1.8-5.4,3.6-8.2,5.3c-4.6,2.6-9,4.4-13.2,5.2c-3.7,0.6-7.4,0.4-10.8-1.2c-3.2-3.4-6.4-6.7-10.5-9.2c-3.3-0.6-6.1-3.9-7.7-6.5
		l0,0c-0.5-1.1-1.3-2.2-2.1-3.3c-2.1-2.7-4.6-5.2-7.5-7c-1.9-1.2-2.9-2.1-3.6-4.3c-0.5-1.6-1.3-3-1.8-4.6c-0.4-1.1-0.8-2.3-1-3.2
		c-0.9-3.3-0.5-6.6,0.2-9.9c0.3-1.3,0.6-2.6,0.7-4.1c0.2-1.5,0-3-0.4-4.4C6,34.4,7.8,25.8,9.7,18.2c-2.8,0.5-4.2-3-2.3-5l1.4-1.5
		c2.6-2.8,6.5,0.4,4.6,3.4L33.9,37c1-0.8,2.1-1.4,3.3-2.1c-0.3-0.3-0.6-0.6-0.7-1c-0.3-0.8-0.2-1.9,0.5-2.5l-2-0.5l1.2-2
		c-1.3,0-2.2-1.4-2.1-2.7c-1,0-1.9-0.1-2.8-0.3c-0.8-0.2-1.3-0.8-1.3-1.5c0-0.3,0-0.7,0.1-0.9c-0.7-0.4-1.2-1.1-1.2-1.9
		c0-0.6,0.3-1.2,0.7-1.6c-0.3-0.4-0.5-0.8-0.5-1.3c0-0.7,0.4-1.4,0.9-1.8c-0.1-0.3-0.2-0.6-0.2-0.9c0-1,0.6-1.8,1.5-2.1
		c-0.1-0.2-0.1-0.4-0.1-0.6c0-1.2,1-2.1,2.1-2.1c0.2,0,0.4,0,0.5,0.1c0.1-1.1,1-2,2.1-2c0.6,0,1.2,0.3,1.6,0.7
		c-0.1-0.2-0.1-0.5-0.1-0.7c0-1.2,1-2.1,2.1-2.1c1.1,0,2,0.8,2.1,1.8c0.4-0.5,1-0.8,1.7-0.8c0.4,0,0.8,0.1,1.1,0.3c0,0,0-0.1,0-0.1
		c0-1.2,1-2.1,2.1-2.1c0.5,0,1,0.2,1.4,0.5c0.3-0.6,0.8-1,1.4-1.2V4.3h-1.9L47.5,2.6L47.5,2.6L47.5,2.6z M25.9,45.9
		c1.2-2.1,2.7-4,4.3-5.8l-19.6-21c1,3.8,2.4,7.3,4.2,10.9C17.9,35.7,21.8,40.9,25.9,45.9z"/>
	<path id="path7_8_"  class="st194" d="M16.5,67.9c-3.3-3.8-2.4-9.8-1.6-14.7
		c0.1-0.7,0.2-1.4,0.3-2.1l0,0c0.2-2.2,0.2-4.6,0-6.9c-0.2-2-0.5-4-1.1-5.8l0,0c-0.2-1.2-0.2-2.4-0.2-3.7c0-1.4,0.1-2.8,0.3-4.1
		l0-0.1l-0.1-0.1c-1.6-3-3.2-6.4-4.1-9.7c-1.5,6.7-2.9,14.2-0.9,21c0.5,1.5,0.6,3.2,0.4,4.7c-0.2,1.5-0.4,2.8-0.7,4.2
		c-0.5,2.5-0.9,4.6-0.5,6.7c0.5,2.9,2.3,5.6,4.4,7.6C13.9,66,15.2,67,16.5,67.9z"/>
	<path id="path9_10_"  class="st195" d="M63.7,28.9C63.7,28.9,63.7,28.9,63.7,28.9
		c-2.1-0.9-4.2-1.6-6.5-2.1c-4.5-0.9-9.4-0.9-13.9,0c-2.2,0.5-4.4,1.2-6.4,2.1c0,0,0,0-0.1,0l2.1,0.3l0.2,0L39,29.3l-1.5,1.8
		c1.9-0.9,3.9-1.5,6-2c4.4-1,9-0.9,13.3,0c2.1,0.5,4.1,1.1,6,2l-1.5-1.8l-0.1-0.1l0.2,0C61.6,29.1,63.7,28.9,63.7,28.9z"/>
	<path id="path11_9_"  class="st28" d="M21.4,70c-0.7-1.1-1.2-2.3-1.6-3.6
		c-0.5-1.4-0.8-2.8-1.1-4.1l0,0c-0.6-2.8-0.4-5.6-0.1-8.4c0.1-1.7,0.3-3.4,0.3-5c-0.1-0.7-0.2-1.4-0.3-2.2c-0.4-3-0.8-6.1,0-9
		c-1.5-2.3-2.9-4.6-4.2-7c-0.2,1.2-0.3,2.7-0.3,4c0,1.3,0,2.5,0.2,3.7c0.6,1.8,1,3.8,1.2,5.8c0.2,2.3,0.2,4.7,0,6.9l0,0
		c-0.1,0.7-0.2,1.4-0.3,2.1c-0.8,5-1.8,11.3,1.9,15c1.1,0.7,2.3,1.2,3.5,1.6C20.8,69.8,21.1,69.9,21.4,70z"/>
	<path id="path13_8_"  class="st194" d="M24.5,70.6c-1.4-3.4-2.2-7.1-2.2-11c0-4.6,1.1-9,3.1-12.8
		C23,44,20.7,41,18.6,37.9c-0.8,2.8-0.4,5.9,0,8.8c0.1,0.7,0.2,1.5,0.3,2.2l0,0c0,1.7-0.1,3.4-0.3,5.1c-0.2,2.8-0.5,5.6,0.1,8.3v0
		c0.3,1.3,0.6,2.7,1.1,4.1c0.5,1.3,1,2.6,1.7,3.7C22.6,70.3,23.5,70.5,24.5,70.6z"/>
	<path id="path15_9_"  class="st194" d="M45.9,95c-0.3,1.2-0.7,2.4-1.2,3.6c2.5,0.7,5.1,0.7,8,0.2
		c4.1-0.7,8.5-2.5,12.9-5.1c2.8-1.6,5.5-3.4,8.2-5.2c5.6-3.8,11.1-7.5,17.9-9.5c-0.8-0.7-1.5-1.5-2.3-2.3c-8.7,0.2-15.7,5-22.5,9.9
		c-0.7,0.5-1.4,1-2.1,1.5l0,0c-2.9,1.7-5.8,3.4-9,4.7C52.7,94.1,49.4,94.9,45.9,95z"/>
	<path id="path17_9_"  class="st28" d="M46.4,90.9c0,1.3-0.1,2.6-0.4,4c3.5,0,6.7-0.8,9.8-2.1
		c3.1-1.3,6.1-3,8.9-4.7c0.7-0.5,1.4-1,2.1-1.5c6.9-4.8,13.7-9.7,22.5-9.9c-0.2-0.2-0.5-0.5-0.7-0.7c-0.8-0.8-1.5-1.5-2.2-2.3
		c-2.5,0.2-4.8,0.7-7,1.5c-2.2,0.8-4.4,1.9-6.5,3c-4.2,2.6-8.4,5.3-12.8,7.5C55.7,88,51.2,89.8,46.4,90.9L46.4,90.9z"/>
	<path id="path19_5_"  class="st194" d="M45.3,84.9c0.6,1.6,1,3.3,1.1,5c0,0.3,0,0.6,0,0.9
		c4.8-1,9.3-2.9,13.7-5.1c4.4-2.2,8.6-4.9,12.8-7.5l0,0c2.1-1.2,4.3-2.2,6.5-3c2.2-0.8,4.5-1.3,6.9-1.5l-0.1-0.1
		c-0.8-0.8-1.5-1.6-2.3-2.5l0,0c-0.4-0.4-0.8-0.8-1.2-1.3c-9.7,0.4-17.7,5.3-25.6,10.1L56.9,80l0,0l-0.1,0.1
		C53,82,49.4,83.9,45.3,84.9z"/>
	<path id="path21_9_"  class="st28" d="M43.9,82c0.5,0.9,1,1.8,1.3,2.8c4.1-1,7.8-2.9,11.5-4.8
		l0.1-0.1l0.2-0.1C64.9,75,73,70,82.6,69.6c-0.7-0.7-1.5-1.4-2.3-2.1c-2.5-0.4-5.1-0.4-7.5,0.1c-2.8,0.5-5.5,1.5-7.9,2.8l0,0
		c-3.1,1.4-5.9,3.3-8.8,5.2C52.2,78.1,48.3,80.7,43.9,82z"/>
	<path id="path23_7_"  class="st194" d="M39.4,76.7c1.6,1.2,3,2.8,4.1,4.6c0.1,0.2,0.2,0.4,0.3,0.6
		c4.4-1.3,8.3-3.8,12.2-6.4c2.9-1.9,5.7-3.8,8.8-5.2l0,0c2.4-1.2,5.1-2.3,7.9-2.8c2.4-0.4,4.8-0.5,7.3-0.1c-0.7-0.6-1.4-1.1-2.2-1.6
		c-0.6-0.4-1.3-0.8-1.9-1.2c-0.7-0.4-1.4-0.8-2-1.2c-0.4-0.2-0.7-0.5-1.1-0.7c-9.6-0.9-17.2,4.2-24.6,9.2c-1,0.7-2,1.4-3.1,2l0,0
		C43.4,74.9,41.4,76,39.4,76.7L39.4,76.7z"/>
	<path id="path25_7_"  class="st28" d="M35.8,74.5c0.3,0.1,0.5,0.3,0.8,0.4c0.9,0.5,1.8,1,2.6,1.7
		c2.1-0.7,4-1.8,6-2.9c1-0.7,2-1.3,3.1-2c7.4-4.9,14.9-10,24.5-9.2c-0.5-0.4-1-0.8-1.5-1.1c-0.5-0.4-0.9-0.8-1.4-1.2
		c-2-0.1-4.1,0.1-6.2,0.4c-2.3,0.3-4.5,0.9-6.5,1.5l0,0c-3.8,1-7,3.3-10.3,5.6c-1.8,1.2-3.5,2.5-5.4,3.5l0,0
		C39.7,72.4,37.6,73.3,35.8,74.5L35.8,74.5z"/>
	<path id="path27_9_"  class="st194" d="M12.2,65.5C11,64.3,9.9,63,9,61.5c0.2,0.6,0.4,1.2,0.6,1.8
		c0.6,1.6,1.3,3,1.8,4.6c0.7,2,1.5,2.7,3.3,3.8c1.5,1,2.9,2.1,4.2,3.4c1.3-0.7,2.7-1.2,4.1-1.6c1.4-0.4,2.9-0.6,4.3-0.7
		c2.9-0.1,5.7,0.4,8.4,1.6c1.8-1.3,3.9-2.1,5.8-3.4l0,0c1.9-1,3.6-2.3,5.4-3.5c3.3-2.3,6.5-4.6,10.3-5.6l0,0c2-0.7,4.2-1.2,6.5-1.5
		c2-0.3,4.1-0.5,6.1-0.4c-0.4-0.3-0.7-0.7-1.1-1c-0.6-0.6-1.3-1.2-1.9-1.9c-0.6-0.6-1.1-1.2-1.6-1.9c-4.3,0-8.5,1.1-12.3,3
		c-3,1.5-5.9,3.3-8.5,5.5c-2.8,2.2-5.4,4.3-8.8,5.7c-2,0.9-4,1.5-6.3,1.9c-3.2,0.5-6.2,0.2-9-0.7C17.2,69.6,14.5,67.8,12.2,65.5z"/>
	<path id="path29_8_"  class="st28" d="M42.6,97.8c0.5,0.2,0.9,0.4,1.4,0.6
		c1.2-2.8,1.7-5.6,1.6-8.5c-0.2-2.8-1.1-5.6-2.7-8.1c-1.7-2.7-4-4.7-6.6-6.1c-2.7-1.4-5.8-2.1-8.9-2c-1.4,0-2.7,0.3-4.1,0.6
		c-1.2,0.3-2.5,0.8-3.7,1.4c1.1,1.1,2,2.2,2.9,3.2c0.9,1.2,1.7,2.3,2.2,3.4c1.5,2.4,4.2,5.5,7.2,6.2C36,91,39.4,94.3,42.6,97.8z"/>
	<polygon id="polygon31_2_" class="st195" points="79.5,85.8 89.5,96 87.6,97.2 77.6,87.1 	"/>
	<path id="path33_9_"  class="st195" d="M11.8,15.1l21.1,22.6c-0.6,0.5-1.1,0.9-1.7,1.4l-21-22.5
		c-0.6,0.4-1.4,0.5-1.9-0.1l0,0c-0.7-0.7-0.6-1.8,0.1-2.6l1.4-1.5c0.7-0.8,1.8-1,2.5-0.2l0,0c0.7,0.7,0.5,1.7-0.2,2.5L11.8,15.1z"/>
	<path id="path35_10_"  class="st195" d="M62.1,34.3c0.3-0.2,0.7-0.4,0.8-0.8
		c0.1-0.3,0.1-1-0.2-1.1c-1.9-0.9-4-1.6-6.1-2c-4.2-0.9-8.6-0.9-12.8,0c-2.1,0.5-4.2,1.1-6.1,2c-0.3,0.2-0.3,0.8-0.2,1.1
		c0.1,0.4,0.5,0.6,0.8,0.8c3.6-1.7,7.6-2.6,11.9-2.6S58.5,32.6,62.1,34.3z"/>
	<path id="path37_7_"  d="M46.1,27.2c0.2,0.3,0,0.7-0.3,0.9c-0.2,0.1-0.4,0.2-0.6,0.3L42.5,29
		c-0.3,0.1-0.6,0.1-0.9,0c-0.5-0.2-0.6-0.7-0.2-1.1c0.2-0.2,0.5-0.3,0.8-0.4l2.7-0.6C45.3,26.8,45.8,26.8,46.1,27.2z"/>
	<path id="path39_6_"  class="st196" d="M44.9,26.9l-2.7,0.6c-0.3,0.1-0.5,0.1-0.7,0.4
		c-0.3,0.3-0.2,0.8,0.2,0.9c0.3,0.1,0.5,0.1,0.8,0l2.7-0.6c0.2,0,0.4-0.1,0.6-0.2c0.3-0.2,0.4-0.5,0.3-0.8
		C45.8,26.9,45.2,26.9,44.9,26.9z"/>
	<path id="path41_6_"  class="st194" d="M31.1,75.3C31.1,75.3,31.1,75.2,31.1,75.3
		c0.7,0.5,1.3,1.1,1.9,1.7c0.6,0.6,1.3,1.2,2,1.8c0,0-0.1,0.1-0.1,0.1c-1-0.9-2-1.5-2.7-1.8c-0.7-0.3-1.3-0.4-1.5-0.1
		c-0.4,0.4,0.1,1.4,0.9,2.2c0.3,0.3,0.5,0.5,0.8,0.7c0.3,0.2,0.7,0.4,1.1,0.5c0.3,0.1,0.8,0.2,1.6,0.3c0.6,0.1,1.1,0.2,1.6,0.4
		c0.5,0.1,0.9,0.3,1.3,0.5c0.8,0.4,1.6,1.1,2.5,2c1.2,1.1,2.1,2.3,2.8,3.5c0.7,1.2,1,2.2,0.7,2.9c-0.2,0.4-0.5,0.6-1.3,0.6
		c-0.2,0-0.4,0.1-0.4,0.2c-0.1,0.2,0.1,0.7,0.7,1.5c0,0.1-0.1,0.1-0.1,0.2c-1-1.1-2-2.1-3-3.1c-0.9-1-1.9-2-2.8-2.9
		c0-0.1,0.1-0.1,0.1-0.2c1.6,1.5,3,2.4,4,2.9c1,0.5,1.7,0.5,1.9,0c0.3-0.7-0.6-2.2-1.7-3.3c-0.7-0.7-1.4-1.1-2.1-1.4
		c-0.4-0.2-0.9-0.2-1.5-0.3c-0.9-0.1-1.6-0.3-2.3-0.5c-0.6-0.2-1.2-0.5-1.7-0.9c-0.5-0.4-1.2-0.9-1.7-1.5c-1-1-1.7-2-2-2.9
		c-0.4-0.8-0.4-1.5,0-1.9c0.1-0.1,0.3-0.2,0.5-0.2c0.3,0,1.1,0.2,1.2,0.1C31.8,76.1,31.7,76,31.1,75.3z"/>
	<path id="path43_5_"  class="st195" d="M50.3,9.3c0.7,0,1.2-0.6,1.2-1.2S51,6.8,50.3,6.8
		c-0.7,0-1.2,0.6-1.2,1.2S49.6,9.3,50.3,9.3z"/>
	<path id="path45_7_"  class="st196" d="M32.8,22.7c0.2-0.1,0.5-0.2,0.7-0.2c0.3,0,0.6,0.1,0.9,0.3
		c0,0,0.1,0.1,0.1,0.1c0,0,0,0,0,0.1c0.1,0.1,0.1,0.1,0.1,0.2c0.5-0.1,1.1-0.3,1.5-0.5c0.5-0.3,0.9-0.6,1.3-1
		c-0.3-0.2-0.5-0.6-0.6-0.9c-0.1-0.4-0.1-0.8,0.1-1.2c0.1-0.3,0.4-0.6,0.7-0.8c0-0.5,0.2-0.8,0.5-1.1c0.2-0.2,0.5-0.4,0.8-0.5
		c0,0,0,0,0,0c-0.2-0.3-0.3-0.6-0.3-1c0-0.8,0.5-1.6,1.3-1.8c-0.2-0.3-0.3-0.6-0.3-1c0-1,0.6-1.8,1.5-2c-0.1-0.2-0.1-0.4-0.2-0.6
		c-0.4,0.5-1,0.8-1.7,0.8c-0.6,0-1.2-0.3-1.6-0.7c0.1,0.2,0.1,0.5,0.1,0.7c0,1.2-1,2.1-2.1,2.1c-0.2,0-0.4,0-0.5-0.1
		c-0.1,0.9-0.7,1.6-1.5,1.9c0.1,0.2,0.1,0.4,0.1,0.6c0,0.7-0.4,1.4-0.9,1.8c0.1,0.3,0.2,0.6,0.2,0.9c0,0.6-0.3,1.2-0.7,1.6
		c0.3,0.4,0.5,0.8,0.5,1.3C33,22.1,32.9,22.4,32.8,22.7z"/>
	<path id="path47_7_"  class="st196" d="M47.8,17.4c-0.5-0.3-0.9-0.9-0.9-1.5c0-0.7,0.4-1.3,1-1.6
		c-0.6-0.3-1-0.9-1-1.6c0-0.9,0.7-1.7,1.7-1.7c0-0.3,0.1-0.5,0.3-0.7c-0.2-0.1-0.4-0.3-0.6-0.5c-0.4,0.5-1,0.8-1.7,0.8
		c-0.4,0-0.8-0.1-1.1-0.3c0,0,0,0.1,0,0.1c0,1-0.6,1.8-1.5,2c0.1,0.3,0.2,0.6,0.2,0.9c0,1-0.7,1.9-1.6,2.1c0.1,0.2,0.1,0.5,0.1,0.7
		c0,0.8-0.5,1.5-1.3,1.8c0.3,0.1,0.5,0.2,0.7,0.3c0.3,0.2,0.5,0.6,0.6,1c0.1,0.4,0.1,0.9-0.1,1.3c1,0.4,2.2,0.5,3.2,0.4
		c0.8-0.1,1.6-0.4,2.3-0.8c-0.5-0.3-0.8-0.9-0.8-1.5C47.3,18.2,47.5,17.8,47.8,17.4z"/>
	<path id="path49_9_"  class="st196" d="M52,11c0.9,0,1.7,0.8,1.7,1.7c0,0.7-0.4,1.3-1,1.6
		c0.6,0.3,1,0.9,1,1.6c0,0.7-0.4,1.2-0.9,1.5c0.3,0.3,0.4,0.7,0.4,1.2c0,0.6-0.3,1.1-0.8,1.5c0.7,0.5,1.4,0.7,2.3,0.8
		c1.1,0.1,2.2,0,3.2-0.4c-0.2-0.4-0.2-0.8-0.1-1.3c0.1-0.4,0.3-0.7,0.6-1c0.2-0.2,0.4-0.3,0.7-0.3c-0.7-0.3-1.3-1-1.3-1.8
		c0-0.3,0.1-0.5,0.1-0.7c-0.9-0.2-1.6-1.1-1.6-2.1c0-0.3,0.1-0.6,0.2-0.9c-0.9-0.3-1.5-1.1-1.5-2c0,0,0-0.1,0-0.1
		c-0.3,0.2-0.7,0.3-1.1,0.3c-0.7,0-1.3-0.3-1.7-0.8c-0.2,0.2-0.4,0.4-0.6,0.5C51.9,10.5,52,10.7,52,11z"/>
	<path id="path51_8_"  class="st196" d="M67.8,22.7c-0.2-0.1-0.5-0.2-0.7-0.2
		c-0.3,0-0.6,0.1-0.9,0.3c0,0-0.1,0.1-0.1,0.1c0,0,0,0,0,0.1c-0.1,0.1-0.1,0.1-0.1,0.2c-0.5-0.1-1.1-0.3-1.5-0.5
		c-0.5-0.3-0.9-0.6-1.3-1c0.3-0.2,0.5-0.6,0.6-0.9c0.1-0.4,0.1-0.8-0.1-1.2c-0.1-0.3-0.4-0.6-0.7-0.8c0-0.5-0.2-0.8-0.5-1.1
		c-0.2-0.2-0.5-0.4-0.8-0.5c0,0,0,0,0,0c0.2-0.3,0.3-0.6,0.3-1c0-0.8-0.5-1.6-1.3-1.8c0.2-0.3,0.3-0.6,0.3-1c0-1-0.6-1.8-1.5-2
		c0.1-0.2,0.1-0.4,0.2-0.6c0.4,0.5,1,0.8,1.7,0.8c0.6,0,1.2-0.3,1.6-0.7c-0.1,0.2-0.1,0.5-0.1,0.7c0,1.2,1,2.1,2.1,2.1
		c0.2,0,0.4,0,0.5-0.1c0.1,0.9,0.7,1.6,1.5,1.9c-0.1,0.2-0.1,0.4-0.1,0.6c0,0.7,0.4,1.4,0.9,1.8c-0.1,0.3-0.2,0.6-0.2,0.9
		c0,0.6,0.3,1.2,0.7,1.6c-0.3,0.4-0.5,0.8-0.5,1.3C67.6,22.1,67.7,22.4,67.8,22.7L67.8,22.7z"/>
	<path id="path53_8_"  class="st195" d="M50.3,11.8c0.3,0,0.6-0.3,0.6-0.6s-0.3-0.6-0.6-0.6
		c-0.3,0-0.6,0.3-0.6,0.6C49.7,11.6,50,11.8,50.3,11.8z"/>
	<path id="path55_7_"  class="st195" d="M50.3,14.6c0.3,0,0.6-0.3,0.6-0.6c0-0.3-0.3-0.6-0.6-0.6
		c-0.3,0-0.6,0.3-0.6,0.6C49.7,14.3,50,14.6,50.3,14.6z"/>
	<path id="path57_7_"  class="st195" d="M48.6,15.1c0.5,0,0.8,0.4,0.8,0.8c0,0,0,0,0,0
		c-0.3,0.2-0.6,0.5-0.8,0.8c0,0,0,0,0,0c-0.5,0-0.8-0.4-0.8-0.8S48.2,15.1,48.6,15.1z"/>
	<path id="path59_8_"  class="st195" d="M48.6,11.9C48.6,11.9,48.7,11.9,48.6,11.9
		c0.2,0.3,0.4,0.5,0.6,0.7c-0.3,0.2-0.5,0.6-0.6,1c-0.4,0-0.8-0.4-0.8-0.8C47.8,12.3,48.2,11.9,48.6,11.9z"/>
	<path id="path61_8_"  class="st195" d="M46.6,9.7c0.7,0,1.2-0.6,1.2-1.2s-0.6-1.2-1.2-1.2
		s-1.2,0.6-1.2,1.2S45.9,9.7,46.6,9.7z"/>
	<path id="path63_7_"  class="st195" d="M30.8,23c0.7,0,1.2-0.6,1.2-1.2c0-0.7-0.6-1.2-1.2-1.2
		c-0.7,0-1.2,0.6-1.2,1.2C29.6,22.4,30.1,23,30.8,23z"/>
	<path id="path65_7_"  class="st195" d="M31.1,20.1c0.7,0,1.2-0.6,1.2-1.2c0-0.7-0.6-1.2-1.2-1.2
		s-1.2,0.6-1.2,1.2C29.8,19.5,30.4,20.1,31.1,20.1z"/>
	<path id="path67_7_"  class="st195" d="M31.8,17.4c0.7,0,1.2-0.6,1.2-1.2s-0.6-1.2-1.2-1.2
		c-0.7,0-1.2,0.6-1.2,1.2C30.5,16.8,31.1,17.4,31.8,17.4z"/>
	<path id="path69_8_"  class="st195" d="M33.2,14.7c0.7,0,1.2-0.6,1.2-1.2s-0.6-1.2-1.2-1.2
		S32,12.8,32,13.5S32.5,14.7,33.2,14.7z"/>
	<path id="path71_6_"  class="st195" d="M35.9,12.8c0.7,0,1.2-0.6,1.2-1.2s-0.6-1.2-1.2-1.2
		c-0.7,0-1.2,0.6-1.2,1.2C34.6,12.2,35.2,12.8,35.9,12.8z"/>
	<path id="path73_8_"  class="st195" d="M39.5,10.6c0.7,0,1.2-0.6,1.2-1.2s-0.6-1.2-1.2-1.2
		s-1.2,0.6-1.2,1.2S38.8,10.6,39.5,10.6z"/>
	<path id="path75_6_"  class="st195" d="M43.3,11.6c0.7,0,1.2-0.6,1.2-1.2S44,9.2,43.3,9.2
		c-0.7,0-1.2,0.6-1.2,1.2S42.6,11.6,43.3,11.6z"/>
	<path id="path77_7_"  class="st195" d="M42,14.6c0.7,0,1.2-0.6,1.2-1.2c0-0.7-0.6-1.2-1.2-1.2
		c-0.7,0-1.2,0.6-1.2,1.2C40.8,14,41.3,14.6,42,14.6z"/>
	<path id="path79_5_"  class="st195" d="M40.7,17.1c0.6,0,1-0.5,1-1c0-0.6-0.5-1-1-1s-1,0.5-1,1
		C39.7,16.7,40.2,17.1,40.7,17.1z"/>
	<path id="path81_6_"  class="st195" d="M69.7,23c0.7,0,1.2-0.6,1.2-1.2c0-0.7-0.6-1.2-1.2-1.2
		c-0.7,0-1.2,0.6-1.2,1.2C68.5,22.4,69,23,69.7,23z"/>
	<path id="path83_5_"  class="st195" d="M69.5,20.1c0.7,0,1.2-0.6,1.2-1.2c0-0.7-0.6-1.2-1.2-1.2
		c-0.7,0-1.2,0.6-1.2,1.2C68.2,19.5,68.8,20.1,69.5,20.1z"/>
	<path id="path85_5_"  class="st195" d="M68.8,17.4c0.7,0,1.2-0.6,1.2-1.2s-0.6-1.2-1.2-1.2
		s-1.2,0.6-1.2,1.2C67.5,16.8,68.1,17.4,68.8,17.4z"/>
	<path id="path87_5_"  class="st195" d="M67.3,14.7c0.7,0,1.2-0.6,1.2-1.2s-0.6-1.2-1.2-1.2
		c-0.7,0-1.2,0.6-1.2,1.2S66.7,14.7,67.3,14.7z"/>
	<path id="path89_5_"  class="st195" d="M64.7,12.8c0.7,0,1.2-0.6,1.2-1.2s-0.6-1.2-1.2-1.2
		c-0.7,0-1.2,0.6-1.2,1.2C63.4,12.2,64,12.8,64.7,12.8z"/>
	<path id="path91_6_"  class="st195" d="M61.1,10.6c0.7,0,1.2-0.6,1.2-1.2s-0.6-1.2-1.2-1.2
		c-0.7,0-1.2,0.6-1.2,1.2S60.4,10.6,61.1,10.6z"/>
	<path id="path93_7_"  class="st195" d="M54,9.7c0.7,0,1.2-0.6,1.2-1.2S54.7,7.2,54,7.2
		c-0.7,0-1.2,0.6-1.2,1.2S53.3,9.7,54,9.7z"/>
	<path id="path95_4_"  class="st195" d="M57.3,11.6c0.7,0,1.2-0.6,1.2-1.2S58,9.2,57.3,9.2
		c-0.7,0-1.2,0.6-1.2,1.2S56.6,11.6,57.3,11.6z"/>
	<path id="path97_5_"  class="st195" d="M58.6,14.6c0.7,0,1.2-0.6,1.2-1.2c0-0.7-0.6-1.2-1.2-1.2
		c-0.7,0-1.2,0.6-1.2,1.2S57.9,14.6,58.6,14.6z"/>
	<path id="path99_3_"  class="st195" d="M59.8,17.1c0.6,0,1-0.5,1-1c0-0.6-0.5-1-1-1
		c-0.6,0-1,0.5-1,1C58.8,16.7,59.3,17.1,59.8,17.1z"/>
	<path id="path101_5_"  class="st195" d="M51.9,15.1c-0.5,0-0.8,0.4-0.8,0.8c0,0,0,0,0,0
		c0.3,0.2,0.6,0.5,0.8,0.8c0,0,0,0,0,0c0.5,0,0.8-0.4,0.8-0.8S52.4,15.1,51.9,15.1z"/>
	<path id="path103_2_"  class="st195" d="M51.9,11.9C51.9,11.9,51.9,11.9,51.9,11.9
		c-0.2,0.3-0.4,0.5-0.6,0.7c0.3,0.2,0.5,0.6,0.6,1c0.4,0,0.8-0.4,0.8-0.8C52.8,12.3,52.4,11.9,51.9,11.9z"/>
	<path id="path105_6_"  class="st195" d="M42.7,23.5c-2.4,0.5-4.7,1.2-6.8,2.2
		c-1.3,0.6-0.5,2.5,0.5,2c2.1-1,4.3-1.7,6.7-2.2c4.7-1,9.8-1,14.5,0c2.3,0.5,4.6,1.2,6.7,2.2c1,0.4,1.8-1.4,0.5-2
		c-2.2-0.9-4.5-1.7-6.8-2.2C52.9,22.5,47.6,22.5,42.7,23.5z"/>
	<polygon id="polygon107_1_" points="50.3,26.3 52.6,27.3 50.3,28.2 48,27.3 	"/>
	<polygon id="polygon109" class="st194" points="52.4,27.3 50.3,26.4 48.2,27.3 50.3,28.1 	"/>
	<path id="path111_5_"  d="M54.5,27.2c-0.2,0.3,0,0.7,0.3,0.9c0.2,0.1,0.4,0.2,0.6,0.3l2.7,0.6
		c0.3,0.1,0.6,0.1,0.9,0c0.5-0.2,0.6-0.7,0.2-1.1c-0.2-0.2-0.5-0.3-0.8-0.4l-2.7-0.6C55.3,26.8,54.7,26.8,54.5,27.2z"/>
	<path id="path113_5_"  class="st196" d="M55.7,26.9l2.7,0.6c0.3,0.1,0.5,0.1,0.7,0.4
		c0.3,0.3,0.2,0.8-0.2,0.9c-0.3,0.1-0.5,0.1-0.8,0l-2.7-0.6c-0.2,0-0.4-0.1-0.6-0.2c-0.3-0.2-0.4-0.5-0.3-0.8
		C54.8,26.9,55.3,26.9,55.7,26.9z"/>
	<path id="path115_4_"  class="st194" d="M36.8,91.3c-0.6-0.5-1.2-1.1-1.8-1.7
		c-0.6-0.6-1.3-1.2-2-1.8c0.1,0,0.1,0,0.2,0c1.3,1.1,2.4,1.9,3.2,2.3c0.8,0.4,1.4,0.6,1.7,0.6c0.8-0.1,0.3-1-0.5-1.8
		c-0.5-0.5-1-0.9-1.5-1.2c-0.3-0.2-0.9-0.4-1.5-0.7c-0.4-0.1-0.7-0.3-1.1-0.4c-0.5-0.2-1-0.4-1.5-0.6c-0.5-0.2-0.9-0.5-1.3-0.7
		c-0.8-0.5-1.6-1.2-2.5-2c-1.1-1-2.1-2.2-2.8-3.2c-0.8-1.1-1.2-2.1-0.8-2.7c0.2-0.3,0.7-0.3,1.1-0.3c0.4,0,0.8,0,0.9,0
		c0.1-0.2-0.2-0.6-0.7-1.3c0.1-0.1,0.1-0.2,0.2-0.3c1.1,1.1,2.1,2.2,3.1,3.2c0.9,1,1.8,1.9,2.7,2.8c-0.1,0.1-0.2,0.1-0.2,0.1
		c-1.3-1.2-2.6-2.2-3.7-2.9c-1.1-0.7-2-1-2.3-0.6c-0.4,0.4,0.5,1.7,1.7,2.9c0.8,0.7,1.4,1.2,1.8,1.5c0.4,0.2,1.3,0.6,2.3,1
		c0.5,0.2,1,0.3,1.4,0.5c0.6,0.2,1.2,0.5,1.8,0.8c1.1,0.7,2.1,1.5,3.1,2.5c0.8,0.9,1.5,1.8,1.7,2.5c0.2,0.6,0,1.1-0.8,1.2
		c-0.3,0-0.8-0.1-1.3-0.2c-0.1,0-0.2,0-0.2-0.1c-0.1,0-0.2-0.1-0.3-0.1c-0.2,0,0,0.2,0.2,0.5C37,91.3,36.9,91.3,36.8,91.3z"/>
	<path id="path117_4_"  class="st197" d="M41.2,65c0.8-0.6,1.7-1.3,2.5-2c2.7-2.2,5.6-4.1,8.7-5.6
		c0.2-0.1,0.4-0.2,0.5-0.3c-3.3-3.1-6.4-6.7-8-11c-0.5-1.2-0.7-2.3-0.5-3.5c-2.9,0.5-6.8,1.4-9.3,3.4c-2.9,2.2-2.9,5.5-1.6,8.8
		C35,59.1,38,62.1,41.2,65z"/>
	<path id="path119_4_"  class="st197" d="M24.2,53.9c-0.4,1.8-0.6,3.7-0.6,5.7
		c0,3.9,0.8,7.7,2.4,11c1,0,2.1-0.1,3.1-0.2c2.1-0.3,4.2-1,6.1-1.8c1.8-0.8,3.5-1.8,5-2.9c-3.3-2.9-5.9-5.8-7.7-10.1
		c-1-2.4-1.5-4.9-0.7-7.1C28.8,49.8,26.4,51.6,24.2,53.9z"/>
	<path id="path121_6_"  class="st197" d="M51.5,33c-0.4,0-0.8,0-1.2,0c-11.9,0-22,7.8-25.4,18.6
		c2.4-2.1,5-3.9,8.1-4.9c2.8-3.3,7.7-4.5,11.8-5.2c0.3-0.9,0.9-2,1.6-3c0.9-1.3,1.9-2.5,3-3.5C50,34.1,50.7,33.5,51.5,33z"/>
	<path id="path123_5_"  class="st197" d="M63.6,36.5c-1-0.6-2.1-1.1-3.3-1.6
		c-1.7,0.6-3.1,1.5-4.4,2.6c-1.2,1-2.2,2.2-3.3,3.5c1.8,1.1,3.5,2.3,5.2,3.6l0.9-1.2c-0.6-0.6-1.2-1-1.9-1.4c-0.3-0.2-0.4-0.7-0.1-1
		c0.2-0.3,0.7-0.4,1-0.1c0.6,0.6,1.2,1.1,1.8,1.4l1.2-1.7c-0.4-0.4-0.9-0.7-1.4-0.9c-0.3-0.2-0.3-0.6-0.2-0.9
		c0.2-0.3,0.6-0.3,0.9-0.2c0.4,0.4,0.9,0.7,1.3,1l0.9-1.3c-0.3-0.2-0.5-0.4-0.8-0.5c-0.3-0.2-0.4-0.6-0.2-0.9s0.6-0.4,0.9-0.2
		c0.2,0.3,0.5,0.5,0.8,0.6C63,37.5,63.6,36.5,63.6,36.5z"/>
	<path id="path125_3_"  class="st197" d="M67.7,39.4c-1-0.8-2-1.6-3-2.3l-0.8,1.1
		c0.3,0.3,0.6,0.5,0.9,0.7c0.2,0.2,0.3,0.6,0,0.9c-0.2,0.2-0.6,0.3-0.9,0c-0.2-0.3-0.4-0.5-0.6-0.7l-0.9,1.3
		c0.4,0.3,0.7,0.6,1.2,0.9c0.3,0.2,0.3,0.6,0.1,0.9c-0.2,0.3-0.6,0.3-0.9,0.1c-0.3-0.4-0.6-0.7-1-0.9L60.6,43c0.5,0.5,1.1,1,1.8,1.4
		c0.3,0.2,0.3,0.8,0,1.1c-0.2,0.3-0.8,0.2-1,0c-0.5-0.6-1-1-1.5-1.4l-0.9,1.2c1.5,1.2,3,2.4,4.5,3.7c1.1-1.2,2.1-2.5,2.8-3.9
		C67,43.5,67.5,41.7,67.7,39.4z"/>
	<path id="path127_3_"  class="st197" d="M72.1,44.3c-1-1.4-2.1-2.7-3.2-3.8
		c-0.3,2-0.8,3.7-1.5,5.2c-1,1.9-2.3,3.5-3.8,5.1c-2-1.7-4-3.4-6.1-5c-2.1-1.6-4.3-3.1-6.5-4.4c1.3-1.7,2.7-3.3,4.3-4.7
		c1.1-0.9,2.2-1.7,3.5-2.3c-1.6-0.5-3.4-0.9-5.1-1.1c-1.3,0.8-2.3,1.6-3.3,2.6c-1.1,1-2,2.2-2.9,3.4c-0.9,1.3-1.4,2.4-1.6,3.5
		c-0.2,1.1,0,2.1,0.4,3.2c1.6,4.2,4.8,7.8,8.1,10.8c3.3-1.4,6.8-2.2,10.4-2.2c1.5-1.3,2.9-2.7,4.2-4.3C70,48.4,71.2,46.5,72.1,44.3z
		"/>
	<path id="path129_4_"  class="st197" d="M77,59.6c0-5.2-1.5-10-4-14c-0.9,2-2,3.7-3.2,5.3
		c-1.2,1.5-2.5,2.9-3.8,4.1c2.9,3.6,6.5,6.6,10.5,9l0.2,0.1C76.8,62.6,77,61.1,77,59.6z"/>
	<path id="path131_4_"  class="st194" d="M63.4,31.4l-1.8-2.2l2.7-0.3l1.2,2L63.4,31.4L63.4,31.4z
		 M37.2,31.4l1.8-2.2l-2.7-0.3l-1.2,2C35.1,30.9,37.2,31.4,37.2,31.4z"/>
	<path id="path133_3_"  class="st195" d="M49.3,17.2c-0.1,0.3-0.1,0.3-0.5,0.4
		c-0.5,0.1-0.8,0.5-0.8,1c0,0.7,1,1.3,1.6,1.1c-2.1,2.3-5.7,2.4-8.4,1c0.5-0.2,0.9-0.7,0.7-1.3c-0.1-0.5-0.6-0.8-1-0.8
		c-0.3,0-0.4,0-0.5-0.3c-0.5-0.9-2-0.6-2,0.5c0,0.3-0.1,0.3-0.3,0.5c-0.4,0.2-0.6,0.7-0.5,1.2c0.1,0.5,0.6,0.8,1.1,0.8
		c-0.2,0.2-0.3,0.5-0.5,0.7c-0.9,1.2-2.2,1.9-3.7,2c-0.8,0.1-0.3-0.2-0.6-0.6c-0.2-0.2-0.6-0.2-0.8,0c-0.4,0.4-0.7,0.5-1.4,0.3
		c-0.7-0.2-0.9,0.9-0.2,1c2.8,0.7,5.7,0.4,7.6-2c0.4-0.5,0.8-1,1.1-1.6c3,1.9,7.5,2,10.2-0.6l0,0c2.7,2.6,7.2,2.5,10.2,0.6
		c0.3,0.6,0.7,1.1,1.1,1.6c1.9,2.4,4.8,2.7,7.6,2c0.7-0.2,0.4-1.2-0.2-1c-0.7,0.2-1,0.1-1.4-0.3c-0.2-0.2-0.6-0.3-0.8,0
		c-0.3,0.4,0.1,0.7-0.6,0.6c-1.5,0-2.8-0.8-3.7-2c-0.2-0.2-0.4-0.4-0.5-0.7c0.5,0.1,1-0.3,1.1-0.8c0.1-0.5-0.1-1-0.5-1.2
		c-0.3-0.2-0.3-0.2-0.3-0.5c0-1.1-1.4-1.5-2-0.5c-0.2,0.3-0.2,0.3-0.5,0.3c-0.5,0-0.9,0.3-1,0.8c-0.1,0.5,0.2,1.1,0.7,1.3
		c-2.6,1.4-6.3,1.3-8.4-1c0.7,0.2,1.6-0.3,1.6-1.1c0-0.5-0.3-0.9-0.8-1c-0.3-0.1-0.4-0.1-0.5-0.4C51,16.2,49.5,16.2,49.3,17.2z"/>
	<path id="path135_3_"  d="M50.2,19c0.3,0,0.6-0.3,0.6-0.6c0-0.3-0.3-0.6-0.6-0.6
		c-0.3,0-0.6,0.3-0.6,0.6C49.7,18.8,49.9,19,50.2,19z"/>
	
		<circle id="circle137"     cx="39.8" cy="19.8" r="0.6">
	</circle>
	
		<circle id="circle139"     cx="60.8" cy="19.8" r="0.6">
	</circle>
</g>
</svg>
