<?xml version="1.0" encoding="utf-8"?>
<!-- Generator: Adobe Illustrator 19.2.1, SVG Export Plug-In . SVG Version: 6.00 Build 0)  -->
<svg version="1.1" id="Capa_1" xmlns="http://www.w3.org/2000/svg" xmlns:xlink="http://www.w3.org/1999/xlink" x="0px" y="0px"
	 viewBox="0 0 100 100" style="enable-background:new 0 0 100 100;" xml:space="preserve">
<style type="text/css">
	.st0{fill:url(#path34_4_);}
	.st1{fill:url(#path890_1_);}
	.st2{fill:#FFE500;stroke:#000000;stroke-width:2.098;stroke-miterlimit:3.863;}
	.st3{fill:#DA020E;}
	.st4{fill:#FFE500;}
	.st5{clip-path:url(#SVGID_2_);}
	.st6{fill:none;stroke:#B54005;stroke-width:10;stroke-miterlimit:3.863;}
	.st7{fill:url(#path7506_1_);}
	.st8{fill:url(#path8794_1_);}
	.st9{fill:url(#path15846_1_);}
	.st10{fill:url(#path16274_1_);}
	.st11{fill:url(#path39821_1_);}
	.st12{fill:url(#path39847_1_);}
	.st13{fill:url(#path39878_1_);}
	.st14{fill:url(#path39888_1_);}
	.st15{fill:url(#path41035_1_);}
	.st16{fill:url(#path9646-8_1_);}
	.st17{fill:url(#path41092_1_);}
	.st18{fill:url(#path41094_1_);}
	.st19{fill:none;stroke:#000000;stroke-width:2.098;stroke-miterlimit:3.863;}
	.st20{fill:url(#path41152_1_);}
	.st21{fill:url(#path39854_1_);}
	.st22{fill:url(#path39874_1_);}
	.st23{fill:#9C824A;stroke:#9C824A;stroke-width:0.793;stroke-miterlimit:282;}
	.st24{fill:#023474;stroke:#023474;stroke-width:0.793;stroke-miterlimit:282;}
	.st25{fill:#FFFFFF;stroke:#FFFFFF;stroke-width:0.793;stroke-miterlimit:282;}
	.st26{fill:#EF0107;stroke:#EF0107;stroke-width:0.793;stroke-miterlimit:282;}
	.st27{fill:#DB0007;stroke:#DB0007;stroke-width:0.793;stroke-miterlimit:282;}
	.st28{fill:#FFFFFF;}
	.st29{fill:#9C824A;}
	.st30{fill:#EF0107;stroke:#EF0107;stroke-width:0.3115;stroke-miterlimit:282;}
	.st31{fill:#DB0007;stroke:#DB0007;stroke-width:0.3115;stroke-miterlimit:282;}
	.st32{fill:#DB0007;}
	.st33{fill:#FFFFFF;stroke:#FFFFFF;stroke-width:0.3115;stroke-miterlimit:282;}
	.st34{fill:#FFFFFF;stroke:#FFFFFF;stroke-width:0.554;stroke-miterlimit:3.864;}
	.st35{fill:#231F20;}
	.st36{fill:#00B6F1;stroke:#00B6F1;stroke-width:1.700000e-02;stroke-miterlimit:3.864;}
	.st37{fill:#EF3E2E;}
	.st38{fill:#BBBDBF;}
	.st39{fill:#F0B83D;}
	.st40{fill:#00B6F1;stroke:#FFFFFF;stroke-width:1.700000e-02;stroke-miterlimit:3.864;}
	.st41{fill:#001C58;}
	.st42{fill:#94BEE5;}
	.st43{fill:none;stroke:#7A003C;stroke-width:2.2437;stroke-miterlimit:6;}
	.st44{fill:#7A003C;}
	.st45{fill:#FFE600;}
	.st46{fill:#DBA111;}
	.st47{fill:#034694;}
	.st48{fill:#D1D3D4;}
	.st49{fill:#ED1C24;}
	.st50{fill:#6A7AB5;}
	.st51{fill:none;}
	.st52{fill:#274488;}
	.st53{fill:#004798;stroke:#004798;stroke-width:9.375000e-02;}
	.st54{fill:#FFFFFF;stroke:#FFFFFF;stroke-width:9.375000e-02;}
	.st55{fill:#FABC00;stroke:#FABC00;stroke-width:9.375000e-02;}
	.st56{fill:none;stroke:#FFFFFF;stroke-width:7.865;stroke-miterlimit:3.864;}
	.st57{fill:none;stroke:#FFFFFF;stroke-width:7.865;stroke-miterlimit:12;}
	.st58{fill:none;stroke:#FFFFFF;stroke-width:7.865;stroke-miterlimit:22;}
	.st59{fill:none;stroke:#FFFFFF;stroke-width:7.865;stroke-miterlimit:6;}
	.st60{fill:#00A398;}
	.st61{fill:#D00027;}
	.st62{fill:none;stroke:#FFFFFF;stroke-width:17.3907;stroke-miterlimit:3.864;}
	.st63{fill:none;stroke:#FFFFFF;stroke-width:13.1107;stroke-miterlimit:3.864;}
	.st64{fill:#FEF667;}
	.st65{fill:#D00027;stroke:#D00027;}
	.st66{fill:#5299C6;}
	.st67{fill:#60223B;}
	.st68{fill:#F7C240;}
	.st69{fill:#292D6B;}
	.st70{fill:#1B458F;}
	.st71{fill:#C4122E;}
	.st72{fill:#27409B;}
	.st73{clip-path:url(#SVGID_4_);}
	.st74{fill:#F4F4F4;}
	.st75{fill:#D3D2D2;}
	.st76{fill:#A7A5A6;}
	.st77{fill:#091453;}
	.st78{fill:none;stroke:#FFFFFF;stroke-width:6.6301;}
	.st79{clip-path:url(#SVGID_6_);}
	.st80{fill:#724314;}
	.st81{fill:#240B08;}
	.st82{fill:#018B4B;}
	.st83{fill:#A6181D;}
	.st84{fill:#592D09;}
	.st85{fill:#FFCE65;}
	.st86{fill:#5CBFEB;}
	.st87{fill:none;stroke:#000000;stroke-width:10;}
	.st88{fill:none;stroke:#000000;}
	.st89{fill:#B2B2B2;}
	.st90{fill:none;stroke:#000000;stroke-width:0.3;}
	.st91{fill:#00A650;stroke:#000000;stroke-width:2;}
	.st92{fill:#241F20;stroke:#241F20;stroke-width:9.375000e-02;}
	.st93{fill:#FFF200;stroke:#FFF200;stroke-width:9.375000e-02;}
	.st94{fill:#A68A26;}
	.st95{fill:none;stroke:#A68A26;stroke-width:4.792100e-02;stroke-miterlimit:3.8637;}
	.st96{fill:#211E1E;}
	.st97{fill:none;stroke:#211E1E;stroke-width:4.792100e-02;stroke-miterlimit:3.8637;}
	.st98{fill:#EB172B;}
	.st99{fill:none;stroke:#EB172B;stroke-width:4.792100e-02;stroke-miterlimit:3.8637;}
	.st100{fill:#A68A26;stroke:#A68A26;stroke-width:4.792100e-02;stroke-miterlimit:3.8637;}
	.st101{fill:#D1BF7F;}
	.st102{fill:none;stroke:#D1BF7F;stroke-width:4.792100e-02;stroke-miterlimit:3.8637;}
	.st103{fill:none;stroke:#FFFFFF;stroke-width:4.792100e-02;stroke-miterlimit:3.8637;}
	.st104{fill:#EB172B;stroke:#EB172B;stroke-width:4.792100e-02;stroke-miterlimit:3.8637;}
	.st105{fill:#ED2127;}
	.st106{fill:#FBEE23;}
	.st107{stroke:#000000;}
	.st108{fill:#CF1F44;}
	.st109{fill:#1B449C;}
	.st110{fill:#E03A3E;}
	.st111{fill:#E03A3E;stroke:#E03A3E;stroke-width:0.6565;}
	.st112{fill:none;stroke:#1B449C;stroke-width:0.7493;}
	.st113{fill:none;stroke:#1B449C;stroke-width:0.7567;}
	.st114{fill:#1B449C;stroke:#1B449C;stroke-width:0.6274;}
	.st115{fill:#1B449C;stroke:#1B449C;stroke-width:0.6755;}
	.st116{fill:#2E6ABD;stroke:#2E6ABD;stroke-width:0.617;}
	.st117{fill:#FFFFFF;stroke:#FFFFFF;stroke-width:0.6175;}
	.st118{fill:#ED1248;}
	.st119{fill:#2E6ABD;}
	.st120{fill:#FDE100;}
	.st121{fill:#CC0000;}
	.st122{fill:#211E1F;}
	.st123{fill:#ED1A3B;}
	.st124{fill:#00AEEF;}
	.st125{fill:#FFC40D;}
	.st126{fill:#22B24C;}
	.st127{fill:#FFC20E;}
	.st128{fill:#0A3F86;}
	.st129{fill:#005CA9;}
	.st130{fill:#FFE000;}
	.st131{fill:#E2001A;}
	.st132{opacity:0;}
	.st133{opacity:0;fill:#FFFFFF;}
	.st134{fill:#FFFFFF;stroke:#000000;}
	.st135{fill:#0060A9;}
	.st136{fill:#E32219;}
	.st137{fill:#FFED00;}
	.st138{fill:#1D9053;}
	.st139{fill:#52A600;}
	.st140{fill:#EE2523;}
	.st141{fill:#F7D117;}
	.st142{fill:#171796;}
	.st143{fill:#009959;}
	.st144{fill:#D42E12;}
	.st145{fill:#703824;}
	.st146{fill:#E5254E;}
	.st147{fill:#8AC3EE;}
	.st148{fill:#B19221;}
	.st149{fill:#F5C03E;}
	.st150{fill:#FF1119;}
	.st151{fill:#1E6BC0;}
	.st152{fill:#B4742A;}
	.st153{fill:#371B02;}
	.st154{fill:url(#SVGID_7_);}
	.st155{fill:url(#SVGID_8_);}
	.st156{fill:url(#SVGID_9_);}
	.st157{fill:url(#SVGID_10_);}
	.st158{fill:url(#SVGID_11_);}
	.st159{fill:url(#SVGID_12_);}
	.st160{fill:url(#SVGID_13_);}
	.st161{fill:url(#SVGID_14_);}
	.st162{fill:url(#SVGID_15_);}
	.st163{fill:url(#SVGID_16_);}
	.st164{fill:#EB2626;}
	.st165{fill:#E9C32C;}
	.st166{fill:#D9D9D9;}
	.st167{fill:#009C5E;}
	.st168{fill:#1C75BC;}
	.st169{fill:#611D5C;}
	.st170{fill:#E2B900;}
	.st171{fill:#004B95;}
	.st172{fill:#A4234B;}
	.st173{fill:#DB2F36;}
	.st174{fill:#FFDF00;}
	.st175{fill:#A38D44;}
	.st176{fill:#57175E;}
	.st177{fill:#AFDCFD;}
	.st178{fill:#0090C6;}
	.st179{fill:#DB5232;}
	.st180{fill:#23C1E0;}
	.st181{fill:#F1A92A;}
	.st182{fill:#167FB6;}
	.st183{fill:#FED75D;}
	.st184{fill:#378CBF;}
	.st185{fill:#3E9692;}
	.st186{fill:#E67F29;}
	.st187{fill:#D8B43C;}
	.st188{fill:#EF3B33;}
	.st189{fill:#24923D;}
	.st190{opacity:6.000001e-02;fill:#101010;enable-background:new    ;}
	.st191{fill:#00529F;}
	.st192{fill:#EE324E;}
	.st193{fill:#FEBE10;}
	.st194{fill:#143C8B;}
	.st195{fill:#FFE24A;}
	.st196{fill:#EC1D24;}
	.st197{fill:#E6A514;}
	.st198{fill:#FFDF1C;}
	.st199{fill:#EE3524;}
	.st200{fill:#B23428;}
	.st201{fill:#D18816;}
	.st202{fill:#0097D7;}
	.st203{fill:#ED1C23;}
	.st204{fill:#E30613;}
	.st205{fill:#FFE400;}
	.st206{fill:#C51A1B;}
	.st207{clip-path:url(#SVGID_19_);}
	.st208{clip-path:url(#SVGID_20_);fill:none;stroke:#000000;stroke-width:0.8131;stroke-miterlimit:3.864;}
	.st209{fill:#0093D5;}
	.st210{fill:#004B9D;}
	.st211{fill:#FCC24F;}
	.st212{fill:#009545;}
	.st213{fill:#0072BB;}
	.st214{fill:#C4974E;}
	.st215{fill:url(#path1292_1_);}
	.st216{fill:#004996;}
	.st217{fill:#FFE667;}
	.st218{fill:none;stroke:#005187;stroke-width:0.153;stroke-miterlimit:3.864;}
	.st219{fill:#005187;}
	.st220{clip-path:url(#SVGID_22_);}
	.st221{clip-path:url(#SVGID_24_);fill:none;stroke:#000000;stroke-width:0.296;stroke-miterlimit:3.864;}
	.st222{clip-path:url(#SVGID_26_);fill:#FFE667;}
	.st223{clip-path:url(#SVGID_28_);fill:none;stroke:#000000;stroke-width:8.300000e-02;stroke-miterlimit:3.864;}
	.st224{fill:none;stroke:#000000;stroke-width:0.153;stroke-miterlimit:3.864;}
	.st225{clip-path:url(#SVGID_30_);fill:#E70005;}
	.st226{clip-path:url(#SVGID_32_);fill:none;stroke:#E70005;stroke-width:0.296;stroke-miterlimit:3.864;}
	.st227{clip-path:url(#SVGID_34_);fill:#E70005;}
	.st228{clip-path:url(#SVGID_36_);fill:none;stroke:#E70005;stroke-width:0.296;stroke-miterlimit:3.864;}
	.st229{clip-path:url(#SVGID_38_);fill:#E70005;}
	.st230{clip-path:url(#SVGID_40_);fill:none;stroke:#E70005;stroke-width:0.296;stroke-miterlimit:3.864;}
	.st231{clip-path:url(#SVGID_42_);fill:#E70005;}
	.st232{clip-path:url(#SVGID_44_);fill:none;stroke:#E70005;stroke-width:0.296;stroke-miterlimit:3.864;}
	.st233{fill:#E70005;}
	.st234{fill:none;stroke:#000000;stroke-width:0.141;stroke-miterlimit:3.864;}
	.st235{fill:#00276D;}
	.st236{fill:#C49308;}
	.st237{fill:#179D33;}
	.st238{fill:#999999;}
	.st239{fill:#FF0000;}
	.st240{fill:#E31837;}
	.st241{fill:#06357A;}
	.st242{fill:#B4053F;}
	.st243{fill:#DCA43E;}
	.st244{fill:#005CA5;}
	.st245{fill:#FAC400;}
	.st246{fill:#004083;}
	.st247{fill:#A95932;}
	.st248{fill:none;stroke:#000000;stroke-width:1.2215;}
	.st249{fill:#E62627;}
	.st250{fill:#00458C;}
	.st251{fill:#E11B22;}
	.st252{fill:#00AB4E;}
	.st253{fill:#F47920;}
	.st254{fill:#C7C8CA;}
	.st255{fill:#E11515;}
	.st256{fill:#A4965F;}
	.st257{fill:#E51636;}
	.st258{fill:#EACC00;}
	.st259{fill:#4F846B;}
	.st260{fill:#E22227;}
	.st261{fill:#FAE700;}
	.st262{fill:url(#SVGID_45_);}
	.st263{fill:#666666;}
	.st264{fill:#FFF200;}
	.st265{fill:#00275D;}
	.st266{fill:#EF3E33;}
	.st267{fill:none;stroke:#00275D;stroke-width:2.632;}
	.st268{fill:#3F7652;}
	.st269{fill:#F1D261;}
	.st270{fill:#004D8F;}
	.st271{fill:#E7B137;stroke:#E7B137;stroke-miterlimit:10;}
	.st272{fill:#E7B137;}
	.st273{fill:#162577;}
	.st274{fill:#12692C;}
	.st275{fill:#D8141D;}
	.st276{fill:#AB830D;}
	.st277{fill:#0086CB;}
	.st278{fill:#001F42;}
	.st279{fill:#9A8F4A;}
	.st280{fill:#00559D;}
	.st281{fill:#FDDE00;}
	.st282{fill:#00924C;}
	.st283{fill:#233984;}
	.st284{fill:#FFD42E;}
	.st285{fill:#BA3733;}
	.st286{fill:#46714D;}
	.st287{fill:#221F1F;}
	.st288{fill:#00559E;}
	.st289{fill:#005C46;}
	.st290{fill:#FBC860;}
	.st291{fill:#D57C48;}
	.st292{fill:#040403;}
	.st293{fill:#4AB969;}
	.st294{fill:#8ED8F8;}
	.st295{fill:#FEC34E;}
	.st296{fill:#FFC95B;}
	.st297{fill:#00644C;}
	.st298{fill:#70B865;}
	.st299{fill:#CA6F44;}
	.st300{fill:#A8B8BE;}
	.st301{fill:#1C2C80;}
	.st302{fill:#E10321;}
	.st303{fill:none;stroke:#231F20;stroke-width:0.318;stroke-miterlimit:3.864;}
	.st304{fill:#D71920;}
	.st305{fill:#484749;}
	.st306{fill:#D9DBDC;}
	.st307{fill:#DF725A;}
	.st308{fill:#F2CABA;}
	.st309{fill:#E89C84;}
	.st310{fill:#264F99;}
	.st311{clip-path:url(#SVGID_47_);}
	.st312{fill:#161413;}
	.st313{fill:#ED1B26;}
	.st314{fill:#E60D2E;}
	.st315{fill:#FCD600;}
	.st316{fill:#004D91;}
	.st317{fill:#EAB412;}
	.st318{fill:#FDD31D;}
	.st319{fill:#EFB800;}
</style>
<g>
	<g>
		<path class="st122" d="M81.5,71.5C74,80.4,62.8,86,50.3,86C38,86,26.9,80.5,19.4,71.8l-8.8,10.6C20.5,93,34.7,99.7,50.4,99.7
			c15.8,0,30-6.7,39.9-17.5L81.5,71.5"/>
	</g>
	<g>
		<path class="st28" d="M50.4,100c-7.7,0-15.2-1.6-22.2-4.7c-6.8-3-12.8-7.3-17.8-12.7l-0.2-0.2l9.2-11.1l0.2,0.3
			c7.7,9,18.9,14.1,30.7,14.1c11.9,0,23.2-5.2,30.9-14.4l0.2-0.3l9.3,11.2l-0.2,0.2c-5.1,5.5-11.1,9.8-17.9,12.9
			C65.7,98.4,58.2,100,50.4,100z M11,82.4c5,5.3,10.8,9.5,17.5,12.4c6.9,3.1,14.3,4.6,21.9,4.6c7.7,0,15.1-1.6,22.1-4.7
			c6.6-3,12.5-7.2,17.5-12.5l-8.5-10.2c-7.8,9.1-19.1,14.3-31.1,14.3c-11.9,0-23.1-5.1-30.9-14.1L11,82.4z"/>
	</g>
	<g>
		<path class="st122" d="M74.5,30.8V78c0,1.4-0.9,2.5-2.1,3l-21.9,8.5L28.6,81c-1.2-0.5-2.1-1.6-2.1-3l0-47.2L74.5,30.8"/>
	</g>
	<g>
		<path class="st28" d="M50.5,89.8l-22-8.5c-1.4-0.5-2.3-1.8-2.3-3.3l0-47.5h48.6V78c0,1.4-0.9,2.8-2.3,3.3L50.5,89.8z M26.8,31.1
			l0,46.9c0,1.2,0.8,2.3,1.9,2.7l21.8,8.5l21.8-8.5c1.1-0.4,1.9-1.5,1.9-2.7V31.1H26.8z"/>
	</g>
	<g>
		<polyline class="st28" points="27.6,67.2 27.6,38.1 73.3,38.1 73.3,67.2 27.6,67.2 		"/>
	</g>
	<g>
		<path class="st123" d="M73.3,64.5c-0.4,0.6-1.4,1.1-2.5,1.1c-1.2,0-2.2-0.5-2.5-1.1c-0.4,0.7-1.4,1.1-2.5,1.1
			c-1.2,0-2.1-0.5-2.5-1.1c-0.4,0.6-1.4,1.1-2.5,1.1c-1.2,0-2.1-0.5-2.5-1.1h0c-0.4,0.7-1.4,1.1-2.5,1.1c-1.2,0-2.1-0.5-2.5-1.1
			c-0.4,0.6-1.4,1.1-2.5,1.1c-1.2,0-2.1-0.5-2.5-1.1h0c-0.4,0.7-1.4,1.1-2.5,1.1c-1.2,0-2.1-0.5-2.5-1.1c-0.4,0.6-1.4,1.1-2.5,1.1
			c-1.1,0-2.1-0.5-2.5-1.1h0c-0.4,0.7-1.4,1.1-2.5,1.1c-1.2,0-2.1-0.5-2.5-1.1v0c-0.4,0.6-1.4,1.1-2.5,1.1c-1.2,0-2.1-0.5-2.5-1.1
			v-0.1l0,12.9c0,1.3,0.8,2.4,2,2.8l20.9,8.1l20.9-8.1c1.2-0.4,2-1.5,2-2.8L73.3,64.5L73.3,64.5"/>
	</g>
	<g>
		<path class="st124" d="M73.3,63.1c-0.4,0.6-1.4,1.1-2.5,1.1c-1.2,0-2.2-0.5-2.5-1.1c-0.4,0.6-1.4,1.1-2.5,1.1
			c-1.2,0-2.1-0.5-2.5-1.1c-0.4,0.6-1.4,1.1-2.5,1.1c-1.2,0-2.1-0.5-2.5-1.1h0c-0.4,0.6-1.4,1.1-2.5,1.1c-1.2,0-2.1-0.5-2.5-1.1
			c-0.4,0.6-1.4,1.1-2.5,1.1c-1.2,0-2.1-0.5-2.5-1.1h0c-0.4,0.6-1.4,1.1-2.5,1.1c-1.2,0-2.1-0.5-2.5-1.1c-0.4,0.6-1.4,1.1-2.5,1.1
			c-1.1,0-2.1-0.5-2.5-1.1h0c-0.4,0.6-1.4,1.1-2.5,1.1c-1.2,0-2.1-0.5-2.5-1.1v0c-0.4,0.6-1.4,1.1-2.5,1.1c-1.2,0-2.1-0.5-2.5-1.1
			v-1.6c0.4,0.6,1.4,1.1,2.5,1.1c1.1,0,2.1-0.5,2.5-1.1c0.4,0.6,1.4,1.1,2.5,1.1c1.1,0,2.1-0.5,2.5-1.1h0c0.4,0.6,1.4,1.1,2.5,1.1
			c1.1,0,2.1-0.5,2.5-1.1c0.4,0.6,1.4,1.1,2.5,1.1c1.1,0,2.1-0.5,2.5-1.1h0c0.4,0.6,1.4,1.1,2.5,1.1c1.1,0,2.1-0.5,2.5-1.1
			c0.4,0.6,1.4,1.1,2.5,1.1c1.2,0,2.1-0.5,2.5-1.1h0c0.4,0.6,1.4,1.1,2.5,1.1c1.1,0,2.1-0.5,2.5-1.1c0.4,0.6,1.4,1.1,2.5,1.1
			c1.2,0,2.1-0.5,2.5-1.1c0.4,0.6,1.4,1.1,2.5,1.1c1.1,0,2.1-0.5,2.5-1.1V63.1"/>
	</g>
	<g>
		<path class="st124" d="M73.3,60.3c-0.4,0.6-1.4,1.1-2.5,1.1c-1.2,0-2.2-0.5-2.5-1.1c-0.4,0.6-1.4,1.1-2.5,1.1
			c-1.2,0-2.1-0.4-2.5-1.1c-0.4,0.6-1.4,1.1-2.5,1.1c-1.2,0-2.1-0.5-2.5-1.1h0c-0.4,0.6-1.4,1.1-2.5,1.1c-1.2,0-2.1-0.4-2.5-1.1
			c-0.4,0.6-1.4,1.1-2.5,1.1c-1.2,0-2.1-0.5-2.5-1.1h0c-0.4,0.6-1.4,1.1-2.5,1.1c-1.2,0-2.1-0.4-2.5-1.1c-0.4,0.6-1.4,1.1-2.5,1.1
			c-1.1,0-2.1-0.5-2.5-1.1h0c-0.4,0.6-1.4,1.1-2.5,1.1c-1.2,0-2.1-0.4-2.5-1.1v0c-0.4,0.6-1.4,1.1-2.5,1.1c-1.2,0-2.1-0.5-2.5-1.1
			v-1.6c0.4,0.6,1.4,1.1,2.5,1.1c1.1,0,2.1-0.4,2.5-1.1c0.4,0.6,1.4,1.1,2.5,1.1c1.1,0,2.1-0.5,2.5-1.1h0c0.4,0.6,1.4,1.1,2.5,1.1
			c1.1,0,2.1-0.4,2.5-1.1c0.4,0.6,1.4,1.1,2.5,1.1c1.1,0,2.1-0.5,2.5-1.1h0c0.4,0.6,1.4,1.1,2.5,1.1c1.1,0,2.1-0.4,2.5-1.1
			c0.4,0.6,1.4,1.1,2.5,1.1c1.2,0,2.1-0.5,2.5-1.1h0c0.4,0.6,1.4,1.1,2.5,1.1c1.1,0,2.1-0.4,2.5-1.1c0.4,0.6,1.4,1.1,2.5,1.1
			c1.2,0,2.1-0.5,2.5-1.1c0.4,0.6,1.4,1.1,2.5,1.1c1.1,0,2.1-0.4,2.5-1.1V60.3"/>
	</g>
	<g>
		<path class="st122" d="M53.8,79.1c0,0,2.2,3.5,1.1,2.5c-0.9-0.7-2-2.4-2.9-3.9l-4.6,1.8c0,0-2.6,3.2-2.1,1.8
			c0.4-1,1.7-2.7,2.8-3.9L45,73.6c0,0-3.9-1.5-2.3-1.4c1,0.1,3.1,0.8,4.6,1.4l2.6-4.2c0,0,0.2-4.2,0.6-2.7c0.3,1,0.2,3.2,0.1,4.9
			l4.8,1.2c0,0,4-1.1,2.7-0.2c-0.9,0.6-2.9,1.2-4.5,1.6L53.8,79.1"/>
	</g>
	<g>
		<path class="st122" d="M55.2,82c-0.1,0-0.3-0.1-0.4-0.2c-1-0.9-2.4-3-2.8-3.8l-4.4,1.7c-1.9,2.4-2.2,2.2-2.3,2.2
			c-0.2-0.1-0.1-0.4,0-0.6c0.5-1.1,1.9-2.9,2.7-3.9l-3-3.7c-2.9-1.1-2.8-1.4-2.8-1.5c0.1-0.2,0.4-0.2,0.5-0.2c1.2,0.1,3.6,1,4.5,1.4
			l2.5-4c0.2-3.1,0.5-3.1,0.6-3.1c0.2,0,0.3,0.3,0.4,0.5c0.3,1.1,0.1,3.6,0.1,4.8l4.6,1.1c3-0.8,3.1-0.5,3.1-0.4
			c0.1,0.2-0.2,0.4-0.3,0.5c-1.1,0.7-3.5,1.3-4.4,1.5l0.3,4.7c1.7,2.6,1.4,2.8,1.3,2.9C55.3,82,55.2,82,55.2,82z M52.1,77.6l0.1,0.1
			c0.8,1.3,2,3,2.8,3.8c-0.2-0.5-0.8-1.4-1.3-2.2l0,0l-0.3-5.1l0.1,0c0.8-0.2,3.3-0.8,4.4-1.5c-0.5,0.1-1.6,0.3-2.5,0.5l0,0l-5-1.2
			l0-0.2c0.1-1.1,0.2-3.6,0-4.8c-0.1,0.5-0.2,1.6-0.3,2.6l0,0l-2.7,4.3l-0.1-0.1c-0.8-0.3-3.3-1.3-4.5-1.4c0.5,0.3,1.5,0.7,2.3,1
			l0,0l3.3,4l-0.1,0.1c-0.8,1-2.3,2.7-2.7,3.8c0.4-0.4,1.1-1.2,1.7-1.9l0,0L52.1,77.6z"/>
	</g>
	<g>
		<path class="st28" d="M50.2,78.2c0,0.1,0.1,0.1,0.1,0.1c0.1,0,0.1,0,0.1-0.1c0.1-0.1,0.1-0.4,0.1-1c0,0,0-2,1.5,0.1
			c4.1,5.9-1.7,5.9-1.7,5.9h0.1c0,0-5.8,0-1.7-5.9c1.5-2.1,1.5-0.1,1.5-0.1C50.1,77.8,50.1,78.1,50.2,78.2L50.2,78.2"/>
	</g>
	<g>
		<path class="st122" d="M50.3,83.5L50.3,83.5c-0.4,0-2.4-0.1-3.1-1.5c-0.6-1.1-0.2-2.7,1.2-4.7c0.6-0.8,1-1.1,1.3-1
			c0.4,0.1,0.5,0.8,0.5,1c0,0.2,0,0.6,0,0.8c0-0.1,0-0.4,0-0.8c0-0.1,0-0.9,0.5-1c0.4-0.1,0.8,0.2,1.3,1c1.4,2,1.8,3.6,1.2,4.7
			C52.7,83.4,50.7,83.5,50.3,83.5L50.3,83.5z M49.7,76.6c-0.1,0-0.4,0.1-0.9,0.9c-1.3,1.9-1.7,3.4-1.2,4.3c0.6,1.2,2.5,1.3,2.8,1.3
			c0.3,0,2.2-0.1,2.8-1.3c0.5-1,0.1-2.4-1.2-4.3c-0.6-0.9-0.9-0.9-1-0.9c-0.1,0-0.2,0.4-0.2,0.7c0,0.7,0,0.9-0.1,1l0,0l-0.3,0.2
			l-0.3-0.2l0.1-0.1l-0.1,0c-0.1-0.2-0.1-0.5-0.1-1.1C49.9,77,49.8,76.6,49.7,76.6C49.7,76.6,49.7,76.6,49.7,76.6z"/>
	</g>
	<g>
		<path class="st28" d="M47.2,75.8c-0.1,0-0.1,0.1-0.1,0.2c0,0.1,0.1,0.1,0.1,0.1h0c0.1,0,0.4,0,1-0.2c0,0,1.9-0.6,0.3,1.5
			c-4.4,5.7-6.2,0.2-6.2,0.2v0c0,0-1.8-5.6,5.1-3.5c2.5,0.7,0.6,1.4,0.6,1.4C47.5,75.6,47.3,75.7,47.2,75.8"/>
	</g>
	<g>
		<path class="st122" d="M44.9,80.1c-0.1,0-0.2,0-0.4,0c-1.6-0.3-2.3-2.2-2.4-2.5l0,0c0-0.1-0.7-2.2,0.5-3.4c0.9-0.9,2.5-1,4.9-0.3
			c0.9,0.3,1.4,0.6,1.4,1c0,0.5-0.7,0.7-0.8,0.8c-0.4,0.1-0.6,0.2-0.7,0.3c0.2,0,0.4-0.1,0.8-0.2c0.1,0,0.8-0.2,1.1,0.1
			c0.2,0.3,0,0.8-0.6,1.6C47.3,79.2,46.1,80.1,44.9,80.1z M42.5,77.5c0,0,0.7,2,2.1,2.3c1.1,0.2,2.4-0.7,3.8-2.5
			c0.7-0.9,0.6-1.1,0.6-1.2c-0.1-0.1-0.5-0.1-0.7,0c-0.2,0.1-0.4,0.1-0.5,0.2l0.1,0.1h-0.6l0-0.2l-0.1,0.1l-0.2-0.2l0-0.1
			c0,0,0-0.2,0.1-0.3c0.1-0.1,0.3-0.2,1-0.4c0.2-0.1,0.6-0.3,0.6-0.4c0,0-0.1-0.3-1.1-0.6c-2.2-0.7-3.7-0.6-4.5,0.2
			C42,75.4,42.4,77.2,42.5,77.5L42.5,77.5z"/>
	</g>
	<g>
		<path class="st28" d="M48.5,72.2c-0.1,0-0.1,0-0.2,0c0,0-0.1,0.1,0,0.2v0c0,0.1,0.1,0.4,0.5,0.9c0,0,1.1,1.6-1.3,0.8
			c-6.8-2.4-2.1-5.8-2.1-5.8l0,0c0,0,4.7-3.4,4.9,3.8c0.1,2.6-1.1,1-1.1,1C48.8,72.5,48.6,72.3,48.5,72.2"/>
	</g>
	<g>
		<path class="st122" d="M48.6,74.4c-0.3,0-0.7-0.1-1.2-0.3c-2.3-0.8-3.6-1.8-3.8-3.1c-0.2-1.6,1.4-2.9,1.6-3l0,0
			c0.1-0.1,1.9-1.4,3.4-0.6c1.1,0.6,1.7,2.1,1.8,4.5c0,1-0.1,1.5-0.5,1.6c-0.4,0.1-0.9-0.4-1-0.5c-0.2-0.3-0.4-0.5-0.5-0.6
			c0.1,0.1,0.2,0.4,0.4,0.7c0.1,0.1,0.5,0.7,0.2,1.1C49,74.3,48.8,74.4,48.6,74.4z M45.5,68.3L45.5,68.3c0,0-1.7,1.3-1.5,2.7
			c0.2,1.1,1.4,2,3.5,2.8c1.1,0.4,1.3,0.2,1.3,0.2c0.1-0.1-0.1-0.5-0.2-0.7c-0.4-0.5-0.5-0.9-0.5-0.9l0.1,0l-0.1,0l0.1,0l-0.1,0
			l0.1-0.3h0.3l0,0c0.2,0.1,0.4,0.4,0.7,0.8c0.1,0.2,0.4,0.5,0.6,0.4c0,0,0.3-0.1,0.2-1.3c-0.1-2.3-0.6-3.7-1.6-4.2
			C47.3,67.1,45.7,68.1,45.5,68.3z"/>
	</g>
	<g>
		<path class="st28" d="M52.3,72.4c0-0.1,0-0.1,0-0.2c0,0-0.1,0-0.2,0c-0.1,0.1-0.3,0.2-0.7,0.7c0,0-1.2,1.6-1.1-1
			c0.2-7.2,4.9-3.8,4.9-3.8l0,0c0,0,4.7,3.5-2.1,5.8c-2.4,0.8-1.3-0.8-1.3-0.8C52.2,72.8,52.3,72.5,52.3,72.4"/>
	</g>
	<g>
		<path class="st122" d="M52,74.4c-0.3,0-0.4-0.1-0.5-0.2c-0.3-0.4,0.1-1,0.2-1.1c0.2-0.3,0.3-0.5,0.4-0.7c-0.1,0.1-0.2,0.3-0.5,0.6
			c-0.1,0.1-0.5,0.7-1,0.5c-0.3-0.1-0.5-0.6-0.5-1.6c0.1-2.5,0.7-4,1.8-4.5c1.4-0.7,3.1,0.4,3.4,0.6l0,0c0.1,0.1,1.9,1.4,1.6,3.1
			c-0.2,1.2-1.5,2.3-3.8,3.1C52.7,74.3,52.3,74.4,52,74.4z M52.4,72l0.1,0.4l0,0.1c0,0-0.2,0.4-0.5,0.9c-0.1,0.2-0.3,0.5-0.2,0.6
			c0,0,0.2,0.2,1.3-0.2c2.2-0.8,3.4-1.7,3.5-2.8c0.2-1.3-1.2-2.5-1.5-2.7c-0.1-0.1-1.8-1.2-3-0.6c-1,0.5-1.5,1.9-1.6,4.2
			c0,1.1,0.2,1.3,0.2,1.3c0.1,0,0.4-0.2,0.6-0.4c0.3-0.4,0.5-0.7,0.7-0.8l0.1,0L52.4,72z"/>
	</g>
	<g>
		<path class="st28" d="M53.4,76.1c0.1,0,0.1,0,0.1-0.1c0,0,0-0.1-0.1-0.2c-0.1-0.1-0.3-0.2-0.9-0.4c0,0-1.9-0.6,0.6-1.4
			c6.9-2.1,5.1,3.5,5.1,3.5l0,0c0,0-1.8,5.5-6.2-0.2c-1.6-2,0.3-1.5,0.3-1.5C53,76.1,53.2,76.1,53.4,76.1"/>
	</g>
	<g>
		<path class="st122" d="M55.7,80.1c-1.1,0-2.4-0.9-3.7-2.7c-0.6-0.8-0.8-1.3-0.6-1.6c0.3-0.4,0.9-0.2,1.1-0.1
			c0.3,0.1,0.6,0.2,0.8,0.2c-0.1-0.1-0.3-0.2-0.7-0.3c-0.1,0-0.8-0.3-0.8-0.8c0-0.4,0.4-0.7,1.4-1c2.4-0.7,4-0.6,4.9,0.3
			c1.2,1.2,0.5,3.4,0.5,3.4l0,0c-0.1,0.3-0.8,2.2-2.4,2.5C55.9,80.1,55.8,80.1,55.7,80.1z M51.9,76c-0.1,0-0.2,0-0.3,0.1
			c0,0-0.1,0.3,0.6,1.2c1.4,1.8,2.7,2.7,3.8,2.5c1.4-0.2,2.1-2.2,2.1-2.3l0,0c0.1-0.3,0.5-2.1-0.4-3c-0.8-0.8-2.3-0.8-4.5-0.2
			c-1.1,0.3-1.1,0.6-1.1,0.6c0,0.1,0.3,0.3,0.6,0.4c0.5,0.1,0.8,0.3,1,0.4c0.1,0.1,0.1,0.2,0.1,0.3l0,0.1l-0.3,0.2l-0.1,0
			c0,0-0.4,0-1-0.2C52.2,76,52.1,76,51.9,76z"/>
	</g>
	<g>
		<path class="st122" d="M46.3,69.4c0,0-0.4,0.3-0.8,0.4c-0.4,0.1-0.5,0.4-0.6,0.5c0,0-0.2,0.5-0.4,0.3c-0.1-0.2,0.1-0.6,0.1-0.6
			c0-0.1,0.2-0.4,0.6-0.5c0.4-0.1,0.8-0.4,0.8-0.4c0,0,0.4-0.3,0.7-0.7c0.2-0.3,0.5-0.4,0.6-0.4c0,0,0.4-0.2,0.6,0
			c0.1,0.2-0.4,0.2-0.4,0.2c-0.1,0-0.4,0.1-0.6,0.4C46.7,69.1,46.3,69.4,46.3,69.4"/>
	</g>
	<g>
		<path class="st122" d="M54.3,69.4c0,0-0.4-0.3-0.6-0.7c-0.2-0.3-0.6-0.4-0.6-0.4c0,0-0.5,0-0.4-0.2c0.2-0.2,0.6,0,0.6,0
			c0.1,0,0.4,0.1,0.6,0.4c0.2,0.3,0.7,0.7,0.7,0.7c0,0,0.4,0.3,0.8,0.4c0.4,0.1,0.5,0.4,0.6,0.5c0,0,0.3,0.4,0.2,0.6
			c-0.1,0.2-0.4-0.3-0.4-0.3c-0.1-0.1-0.2-0.4-0.6-0.5C54.7,69.7,54.3,69.4,54.3,69.4"/>
	</g>
	<g>
		<path class="st122" d="M56.8,77c0,0,0.2-0.5,0.4-0.8c0.3-0.3,0.2-0.6,0.2-0.7c0,0-0.1-0.5,0.1-0.4c0.2,0.1,0.2,0.6,0.2,0.6
			c0,0.1,0,0.4-0.2,0.7c-0.2,0.3-0.4,0.8-0.4,0.8S57,77.7,57,78.1c0,0.4-0.2,0.6-0.3,0.7c0,0-0.3,0.4-0.5,0.3
			c-0.2-0.1,0.2-0.4,0.2-0.4c0-0.1,0.3-0.3,0.3-0.7C56.6,77.6,56.8,77,56.8,77"/>
	</g>
	<g>
		<path class="st122" d="M50.3,81.7c0,0,0.5,0,0.9,0.1c0.4,0.1,0.7,0,0.8,0c0,0,0.5-0.3,0.5,0c0,0.2-0.5,0.4-0.5,0.4
			c-0.1,0-0.4,0.2-0.8,0c-0.4-0.1-0.9-0.2-0.9-0.2s-0.5,0-0.9,0.2c-0.4,0.1-0.7,0-0.8,0c0,0-0.5-0.2-0.5-0.4c0-0.3,0.5,0,0.5,0
			c0.1,0,0.4,0.2,0.8,0C49.8,81.7,50.3,81.7,50.3,81.7"/>
	</g>
	<g>
		<path class="st122" d="M43.8,77c0,0,0.2,0.5,0.1,0.9c0,0.4,0.2,0.6,0.3,0.7c0,0,0.4,0.4,0.2,0.4c-0.2,0.1-0.5-0.3-0.5-0.3
			c-0.1-0.1-0.3-0.3-0.3-0.7c0-0.4-0.1-0.9-0.1-0.9s-0.2-0.5-0.4-0.8c-0.2-0.3-0.2-0.6-0.2-0.7c0,0,0-0.5,0.2-0.6
			c0.2-0.1,0.1,0.4,0.1,0.4c0,0.1,0,0.4,0.2,0.7C43.7,76.5,43.8,77,43.8,77"/>
	</g>
	<g>
		<path class="st125" d="M50.3,73.6c-0.7,0-1.3,0.6-1.3,1.3c0,0.7,0.6,1.3,1.3,1.3c0.7,0,1.3-0.6,1.3-1.3
			C51.6,74.2,51,73.6,50.3,73.6"/>
	</g>
	<g>
		<path class="st125" d="M50.3,76.3c-0.8,0-1.4-0.6-1.4-1.4c0-0.8,0.6-1.4,1.4-1.4c0.8,0,1.4,0.6,1.4,1.4
			C51.7,75.7,51,76.3,50.3,76.3z M50.3,73.7c-0.7,0-1.2,0.6-1.2,1.2c0,0.7,0.5,1.2,1.2,1.2c0.7,0,1.3-0.5,1.3-1.2
			C51.5,74.2,51,73.7,50.3,73.7z"/>
	</g>
	<g>
		<path class="st122" d="M52.8,49.7l0.2,3.6l3-2l0.9,1.5l-3.5,2v0.7c0,0,4.1,2.3-0.9,2.2l0,0c-1.8,1.5-3.4,0-3.4,0
			c-5,0.1-0.9-2.2-0.9-2.2V55L45,52.5l0.7-1.6l2.8,2.4l0.2-3.6L52.8,49.7"/>
	</g>
	<g>
		<path class="st126" d="M56.5,52.8c2.9,3.3,5.1-0.2,5.1-0.2c3.7-0.9,1.5-3.5,1.5-3.5c3.8-2.5-0.7-4.5-0.7-4.5
			c0-3.3-2.9-3.1-2.9-3.1c-3-2.6-5.8,0.3-5.8,0.3c-4.5-3.7-7.8,0.6-7.8,0.6s-2.8-2-4.1,1.1c0,0-4.5-0.1-2.8,4.5c0,0-3.5,3.5,1.1,5.2
			c0,0,2.4,4.5,5.8,0.2c0,0,2.1,0.1,1.7-2.8c0,0,2.6,1.1,5.1-0.1c0,0,0.8,1.8,2.5,0.8c0,0-0.3,1.1,1.4,1.4L56.5,52.8"/>
	</g>
	<g>
		<path class="st122" d="M42.8,56c-0.1,0-0.2,0-0.3,0c-1.6-0.1-2.7-1.6-3.1-2.2c-1.4-0.6-2.3-1.4-2.5-2.5c-0.3-1.4,0.6-2.8,1.1-3.4
			c-0.5-1.5-0.4-2.6,0.3-3.5c0.8-1.1,2.2-1.4,2.9-1.4c0.5-0.9,1.1-1.4,1.9-1.6c1-0.3,2,0,2.6,0.3c0.6-0.6,2-1.7,3.8-1.9
			c1.4-0.1,2.8,0.3,4.2,1.3c1.3-1,3.7-2,6.1-0.1c0.5,0,1.5,0.2,2.2,0.9c0.6,0.6,1,1.4,1.1,2.5c0.7,0.4,2.1,1.3,2.2,2.7
			c0.1,0.9-0.4,1.7-1.3,2.4c0.3,0.5,0.5,1.3,0.3,2.1c-0.3,0.9-1.1,1.5-2.3,1.8c-0.4,0.5-1.3,1.6-2.7,1.7c-1.1,0.1-2.2-0.4-3.3-1.6
			c-0.7-0.1-1.1-0.4-1.5-0.9c0-0.1-0.1-0.1-0.1-0.2c-0.4,0.1-0.8,0-1.1-0.1c-0.5-0.2-0.9-0.5-1.1-0.8c-1.6,0.6-3.1,0.4-4,0.2
			c-0.1,0.7-0.3,1.3-0.7,1.8c-0.5,0.5-1,0.7-1.4,0.7C45.1,55.4,44,56,42.8,56z M41.7,44.2c-0.5,0-1.6,0.2-2.1,0.9
			c-0.4,0.6-0.4,1.4,0,2.6l0.2,0.4l-0.3,0.3c-0.4,0.4-1.2,1.5-1,2.5c0.1,0.6,0.8,1.2,1.9,1.6l0.3,0.1l0.1,0.2
			c0.2,0.4,1.1,1.6,2.1,1.7c0.8,0.1,1.6-0.5,2.4-1.6l0.2-0.3l0.4,0c0,0,0.4,0,0.7-0.3c0.3-0.3,0.4-0.9,0.3-1.7l-0.1-1.2l1.1,0.5
			c0,0,2.3,0.9,4.5-0.1l0.7-0.3l0.3,0.7c0.1,0.1,0.3,0.5,0.6,0.6c0.2,0.1,0.5,0,0.8-0.2l1.6-0.9l-0.5,1.7c0,0,0,0,0,0
			c0,0,0,0.1,0.1,0.2c0.1,0.1,0.4,0.2,0.7,0.3l0.2,0l0.3,0.3c0.7,0.8,1.4,1.2,2.1,1.2c1-0.1,1.8-1.2,1.8-1.3l0.2-0.3l0.3-0.1
			c0.9-0.2,1.4-0.5,1.5-0.9c0.2-0.5-0.3-1.2-0.4-1.4L62,49l0.7-0.4c0.6-0.4,1.3-1,1.2-1.5c-0.1-0.7-1.2-1.5-1.8-1.7l-0.4-0.2v-0.5
			c0-0.9-0.2-1.5-0.6-1.9c-0.6-0.5-1.4-0.5-1.4-0.5l-0.3,0L59,42.1c-2.4-2.1-4.7,0.2-4.8,0.2l-0.5,0.5l-0.5-0.4
			c-1.2-1-2.4-1.4-3.6-1.3c-1.9,0.2-3.2,1.8-3.2,1.8L46,43.4L45.4,43c-0.3-0.2-1.2-0.7-1.9-0.4c-0.5,0.1-0.8,0.6-1.1,1.2l-0.2,0.5
			L41.7,44.2C41.7,44.2,41.7,44.2,41.7,44.2z"/>
	</g>
	<g>
		<path class="st127" d="M17.5,81.5l0.2,0.2C17,83,16.9,84,17.4,84.4c0.4,0.3,0.9,0.2,1.3-0.3c0.2-0.2,0.3-0.5,0.3-0.7
			c0-0.3-0.2-0.6-0.4-1.1c-0.4-0.9-0.4-1.7,0.4-2.6c0.8-0.9,1.8-1.2,2.5-0.6c0.3,0.3,0.4,0.6,0.5,1.1l0.5-0.2l0.2,0.2L21,82.2
			L20.9,82c0.6-1.3,0.8-2.1,0.3-2.5c-0.4-0.3-0.8-0.2-1.2,0.3c-0.5,0.6-0.2,0.9,0.2,1.7c0.2,0.4,0.4,0.7,0.3,1.2
			c-0.1,0.4-0.3,0.9-0.8,1.4c-0.9,1-1.9,1.3-2.6,0.7c-0.3-0.3-0.5-0.7-0.5-1.2l-0.6,0.2l-0.2-0.2L17.5,81.5"/>
	</g>
	<g>
		<path class="st127" d="M23.5,82.2c0.7-0.3,1.3-0.3,1.9,0c0.5,0.4,0.8,0.9,0.7,1.8c-0.1,0.7-0.4,1.6-1,2.4
			c-0.6,0.8-1.1,1.4-1.9,1.7c-0.8,0.4-1.4,0.4-1.9,0c-0.5-0.4-0.7-0.9-0.7-1.8c0.1-0.8,0.4-1.5,1-2.4C22.1,83.1,22.8,82.5,23.5,82.2
			 M21.6,87.6c0.6,0.4,1.4-0.3,2.6-1.9c1.2-1.7,1.5-2.7,0.9-3.1c-0.6-0.4-1.4,0.3-2.6,1.9C21.3,86.2,21,87.3,21.6,87.6z"/>
	</g>
	<g>
		<path class="st127" d="M29.4,85.4l-0.3-0.1c-0.2-0.1-0.3,0-0.5,0.3l-1.6,3c-0.6,1.1-0.6,1.7,0,2.1c0.3,0.1,0.6,0.1,0.8,0
			c0.4-0.2,0.7-0.7,1.1-1.5l1.2-2.2c0.3-0.6,0.4-1,0-1.2c0,0,0,0,0,0l0.2-0.4l1.4,0.7l-0.2,0.4c-0.4-0.2-0.7,0.1-1,0.7l-1.2,2.3
			c-0.3,0.7-0.6,1.2-1,1.5c-0.6,0.5-1.2,0.6-1.8,0.2c-1-0.5-1.1-1.5-0.4-2.8l1.8-3.3c0.2-0.3,0.2-0.5,0-0.6l-0.3-0.1l0.2-0.4l1.9,1
			L29.4,85.4"/>
	</g>
	<g>
		<path class="st127" d="M34.7,87.8c-0.2-0.1-0.3,0-0.4,0.3l-1.8,4.6c-0.1,0.3-0.1,0.5,0.1,0.6l0.3,0.1l-0.2,0.5l-2-0.8l0.2-0.5
			l0.3,0.1c0.2,0.1,0.3,0,0.4-0.4l1.8-4.6c0.1-0.3,0.1-0.5-0.1-0.5c-0.4-0.2-1,0.4-1.6,1.6l-0.3-0.1l1-2.4l3.5,1.4L35,90.2l-0.3-0.1
			C35.1,88.8,35.1,88,34.7,87.8"/>
	</g>
	<g>
		<path class="st127" d="M37.7,94.9c0.2,0.1,0.3,0,0.4-0.4l0.6-2.2L37.2,92l-0.6,2.1c-0.1,0.4-0.1,0.5,0.1,0.6l0.3,0.1l-0.1,0.5
			l-2.1-0.6l0.1-0.5l0.3,0.1c0.2,0.1,0.3,0,0.4-0.4l1.3-4.7c0.1-0.4,0.1-0.5-0.1-0.6l-0.3-0.1l0.1-0.5l2.1,0.6l-0.1,0.5L38.3,89
			c-0.2-0.1-0.3,0-0.4,0.4l-0.5,1.9l1.5,0.4l0.5-1.9c0.1-0.4,0.1-0.5-0.1-0.6l-0.3-0.1l0.1-0.5l2.1,0.6L41,89.8l-0.3-0.1
			c-0.2-0.1-0.3,0-0.4,0.4l-1.3,4.7c-0.1,0.4-0.1,0.5,0.1,0.5l0.3,0.1l-0.1,0.5l-2.1-0.6l0.1-0.5L37.7,94.9"/>
	</g>
	<g>
		<path class="st127" d="M43.2,96l0.3,0c0.1,0,0.2-0.1,0.2-0.2c0-0.1,0-0.2,0-0.3l-0.1-1.1l-1.4-0.2l-0.2,0.5
			c-0.1,0.2-0.1,0.3-0.1,0.5c-0.1,0.4,0.1,0.6,0.5,0.7l-0.1,0.5l-1.6-0.2l0.1-0.5c0.4,0,0.6-0.4,0.9-1.1l2.1-4.9l0.4,0.1l0.7,6.2
			c0,0.3,0.1,0.4,0.3,0.4L45,96.8l-1.9-0.3L43.2,96 M42.4,93.7l1.2,0.2l-0.2-2.4L42.4,93.7z"/>
	</g>
	<g>
		<path class="st127" d="M47.4,95.3c0,0.9,0.1,1.2,0.6,1.2l0,0.5l-1.6,0v-0.5c0.5,0,0.6-0.3,0.6-1.2l0.1-4.1c0-0.4,0-0.5-0.3-0.5
			l-0.3,0l0-0.5l1.8,0.1l0.8,4.1l0.9-4.1l1.8,0l0,0.5l-0.3,0c-0.2,0-0.3,0.1-0.3,0.5l-0.1,4.8c0,0.4,0,0.5,0.3,0.5l0.3,0l0,0.5
			l-2.1,0l0-0.5h0.2c0.2,0,0.3-0.1,0.3-0.5l0.1-5.1L48.9,97l-0.3,0l-1.2-6.1L47.4,95.3"/>
	</g>
	<g>
		<path class="st127" d="M55.1,96.3l0.4,0l0,0.5L53.3,97l-0.1-0.5l0.3,0c0.2,0,0.3-0.1,0.2-0.5l-0.5-4.8c0-0.4-0.1-0.5-0.3-0.5
			l-0.3,0l-0.1-0.5l2.5-0.2c1-0.1,1.6,0.5,1.7,1.8c0.1,1.3-0.4,2-1.7,2.1c-0.2,0-0.4,0-0.6,0l0.2,1.9C54.8,96.2,54.9,96.3,55.1,96.3
			 M54.5,93.4c0.1,0,0.2,0,0.3,0c0.8-0.1,1-0.4,0.9-1.5c-0.1-1.1-0.4-1.4-1.1-1.4c-0.4,0-0.4,0.1-0.4,0.6L54.5,93.4z"/>
	</g>
	<g>
		<path class="st127" d="M60.1,89.6c-0.2,0-0.2,0.2-0.1,0.5l1,4.8c0.1,0.4,0.1,0.5,0.4,0.4l0.3-0.1l0.1,0.5l-2.1,0.4l-0.1-0.5
			l0.3-0.1c0.2,0,0.3-0.2,0.2-0.5l-1-4.8c-0.1-0.4-0.1-0.5-0.3-0.4c-0.4,0.1-0.6,0.9-0.5,2.3l-0.3,0.1l-0.4-2.5l3.7-0.8l0.6,2.5
			l-0.3,0.1C61.1,90.2,60.6,89.5,60.1,89.6"/>
	</g>
	<g>
		<path class="st127" d="M62.8,89.3c0.2-0.8,0.5-1.3,1.2-1.5c0.6-0.2,1.2-0.1,1.8,0.5c0.6,0.5,1,1.3,1.3,2.2c0.3,1,0.4,1.7,0.2,2.5
			c-0.2,0.8-0.6,1.4-1.2,1.5c-0.6,0.2-1.2,0-1.8-0.5c-0.6-0.5-1-1.2-1.3-2.2C62.7,91,62.6,90.1,62.8,89.3 M66,94.2
			c0.6-0.2,0.6-1.3,0-3.2c-0.6-2-1.2-2.8-1.9-2.6c-0.6,0.2-0.6,1.3,0,3.2C64.8,93.5,65.4,94.4,66,94.2z"/>
	</g>
	<g>
		<path class="st127" d="M69.5,92.8c0.4-0.3,0.4-0.6,0-1.4l-1.7-3.7l-0.2-0.1c-0.2-0.1-0.3-0.2-0.5-0.1l-0.1,0l-0.2-0.4l1.3-0.6
			l3.8,2.9l-1.1-2.3c-0.4-0.8-0.6-1-1.1-0.8l-0.2-0.5l1.5-0.7l0.2,0.4c-0.4,0.2-0.4,0.5,0,1.3l2.2,4.7L73,91.8l-4.6-3.7l1.5,3.2
			c0.4,0.8,0.6,1,1.1,0.8l0.2,0.4l-1.5,0.7L69.5,92.8"/>
	</g>
	<g>
		<path class="st127" d="M78,83.6l-0.2,0.2c-1-1.1-1.6-1.3-2.3-0.8c-0.3,0.2-0.3,0.3-0.1,0.7l1.1,1.7c0,0,0.1,0,0.1,0
			c0.4-0.3,0.4-0.7-0.1-1.5l0.2-0.2l1.8,2.6l-0.2,0.2c-0.6-0.7-1-0.9-1.4-0.6c0,0,0,0-0.1,0l1.3,1.9c0.2,0.3,0.3,0.4,0.5,0.2
			l0.3-0.2l0.3,0.4l-1.9,1.3l-0.3-0.4l0.2-0.2c0.2-0.1,0.2-0.3,0-0.6l-2.7-4c-0.2-0.3-0.3-0.4-0.5-0.2l-0.2,0.2l-0.3-0.4l3.1-2.1
			L78,83.6"/>
	</g>
	<g>
		<path class="st127" d="M83.5,85c-0.4,0.3-0.8,0.4-1.4,0.3c-0.8-0.2-1.7-0.8-2.5-1.7c-0.6-0.7-1-1.5-1.2-2.2
			c-0.2-0.8,0-1.4,0.5-1.9c0.3-0.3,0.7-0.4,1.2-0.3L80,78.6l0.2-0.2l1.9,2l-0.2,0.2c-1.2-1-2.1-1.3-2.5-0.9c-0.6,0.5-0.2,1.4,1.2,3
			c1.4,1.6,2.2,2.1,2.8,1.6c0.5-0.4,0.4-1.2-0.3-2.4l0.3-0.1C84.2,83.2,84.3,84.3,83.5,85"/>
	</g>
	<g>
		<path class="st28" d="M10.6,27.5l1.1,2.2l-3,0.8l0.9,1.9l3-0.8l1,1.9l-3,0.8l0.9,1.9l3.1-0.8l1,1.9l-3.1,0.8l1,1.9l3.1-0.8
			l1.4,2.6c0.6-0.2,1.1-0.4,1.7-0.6L12.4,27C11.8,27.2,11.3,27.4,10.6,27.5"/>
	</g>
	<g>
		<path class="st28" d="M19,28.3c-0.2-1,2.1-2.2,3.9-3.7l-2.4-4.9c-1,0.5-2,1.4-3.1,2.6c-0.3,0.3-0.5,0.6-0.8,0.9L19,28.3"/>
	</g>
	<g>
		<path class="st123" d="M24.4,19.6c-0.6-0.8-2.1-0.9-4,0.1l2.4,4.9C24.6,23.2,25.9,21.6,24.4,19.6"/>
	</g>
	<g>
		<path class="st123" d="M12.4,27l7.1,14.2c2-0.8,3.6-2,4.2-2.9l-3.1-6.5l-1.5-3.2C19,28.5,19,28.4,19,28.3l-2.4-5.1
			C15.4,24.6,14.3,26.1,12.4,27"/>
	</g>
	<g>
		<path class="st123" d="M10.6,27.5c-1,0.2-2.1,0.2-3.4,0.1l1.5,3l3-0.8L10.6,27.5"/>
	</g>
	<g>
		<polyline class="st123" points="12.6,31.6 9.6,32.4 10.5,34.3 13.6,33.5 12.6,31.6 		"/>
	</g>
	<g>
		<polyline class="st123" points="14.5,35.4 11.5,36.2 12.4,38.1 15.5,37.3 14.5,35.4 		"/>
	</g>
	<g>
		<path class="st123" d="M13.4,40l1.1,2.2c1.1,0.1,2.2-0.1,3.3-0.4l-1.4-2.6L13.4,40"/>
	</g>
	<g>
		<path class="st28" d="M22.8,24.6l1.4,2.7c1-0.8,2-1.8,3.1-2.7l-2.5-4.5C25.7,21.9,24.4,23.3,22.8,24.6"/>
	</g>
	<g>
		<path class="st123" d="M19.1,28.6c0.1,0.1,0.2,0.2,0.3,0.3c1.4,1,3,0,4.8-1.5l-1.4-2.7C20.8,26.2,18.3,27.5,19.1,28.6"/>
	</g>
	<g>
		<path class="st122" d="M14.9,42.8c-0.1,0-0.3,0-0.4,0l-0.3,0l-8-15.9l1,0.1c5.2,0.4,6.8-1.5,8.5-3.7c0.4-0.5,0.8-1,1.2-1.4
			c2-2.3,4.3-3.6,6.2-3.5c0.8,0,1.4,0.3,1.8,0.9c0.6,0.8,0.8,1.7,0.7,2.5c-0.3,1.8-2.2,3.2-4,4.5c-0.9,0.7-2,1.5-2.1,1.9
			c0,0,0,0,0,0.1l0,0.1l4.8,10.1l-0.2,0.3C23.1,40.4,18.6,42.8,14.9,42.8z M14.9,41.6c1.5,0,3.3-0.4,5-1.2c1.6-0.7,2.7-1.6,3.2-2.1
			l-4.4-9.4c-0.2-0.3-0.3-0.6-0.2-0.9c0.1-0.9,1.2-1.7,2.6-2.7c1.5-1,3.3-2.3,3.5-3.7c0.1-0.5-0.1-1.1-0.5-1.6
			c-0.2-0.2-0.5-0.4-0.9-0.4c-1.1-0.1-3.1,0.7-5.3,3.1c-0.4,0.4-0.8,0.9-1.1,1.4c-1.7,2.1-3.5,4.3-8.5,4.2L14.9,41.6z"/>
	</g>
	<g>
		<path class="st122" d="M20.6,29.8c-0.5,0-1-0.1-1.5-0.5c-0.1-0.1-0.3-0.2-0.4-0.4c-0.2-0.3-0.3-0.6-0.3-1c0.1-0.9,1.2-1.7,2.6-2.7
			c2.4-1.7,4.2-3.2,3.3-4.9l1-0.6l2.8,4.9l-0.4,0.3c-0.6,0.5-1.1,0.9-1.6,1.4C24.1,28.2,22.3,29.8,20.6,29.8z M25.4,22.5
			c-0.6,1.5-2.4,2.8-3.8,3.8c-0.9,0.7-2,1.5-2.1,1.9c0,0,0,0,0,0.1l0,0c0,0,0,0.1,0.1,0.1c1.3,0.9,2.9-0.5,5.5-2.8
			c0.4-0.4,0.8-0.7,1.3-1.1L25.4,22.5z"/>
	</g>
	<g>
		<path class="st28" d="M89.4,27.5l-1.1,2.2l3,0.8l-0.9,1.9l-3-0.8l-0.9,1.9l3,0.8l-0.9,1.9l-3.1-0.8l-1,1.9l3.1,0.8L86.6,40
			l-3.1-0.8l-1.4,2.6c-0.6-0.2-1.1-0.4-1.7-0.6L87.6,27C88.2,27.2,88.7,27.4,89.4,27.5"/>
	</g>
	<g>
		<path class="st28" d="M81,28.3c0.2-1-2.1-2.2-3.9-3.7l2.4-4.9c1,0.5,2,1.4,3.1,2.6c0.3,0.3,0.5,0.6,0.8,0.9L81,28.3"/>
	</g>
	<g>
		<path class="st123" d="M75.6,19.6c0.6-0.8,2.1-0.9,4,0.1l-2.4,4.9C75.4,23.2,74.1,21.6,75.6,19.6"/>
	</g>
	<g>
		<path class="st123" d="M87.6,27l-7.1,14.2c-2-0.8-3.6-2-4.2-2.9l4.6-9.8c0.1-0.1,0.1-0.2,0.1-0.3l2.4-5.1
			C84.6,24.6,85.7,26.1,87.6,27"/>
	</g>
	<g>
		<path class="st123" d="M89.4,27.5c1,0.2,2.1,0.2,3.4,0.1l-1.5,3l-3-0.8L89.4,27.5"/>
	</g>
	<g>
		<polyline class="st123" points="87.4,31.6 90.4,32.4 89.5,34.3 86.4,33.5 87.4,31.6 		"/>
	</g>
	<g>
		<polyline class="st123" points="85.5,35.4 88.5,36.2 87.6,38.1 84.5,37.3 85.5,35.4 		"/>
	</g>
	<g>
		<path class="st123" d="M86.6,40l-1.1,2.2c-1.1,0.1-2.2-0.1-3.3-0.4l1.4-2.6L86.6,40"/>
	</g>
	<g>
		<path class="st28" d="M77.1,24.6l-1.4,2.7c-1-0.8-2-1.8-3.1-2.7l2.5-4.5C74.3,21.9,75.6,23.3,77.1,24.6"/>
	</g>
	<g>
		<path class="st123" d="M80.9,28.6c-0.1,0.1-0.2,0.2-0.3,0.3c-1.4,1-3,0-4.8-1.5l1.4-2.7C79.2,26.2,81.7,27.5,80.9,28.6"/>
	</g>
	<g>
		<path class="st122" d="M85.1,42.8c-2.2,0-4.3-0.8-5.4-1.4c-1.8-0.8-3.3-1.9-3.8-2.8l-0.2-0.3l4.8-10.1l0-0.1c0-0.1,0-0.1,0-0.1
			c-0.1-0.4-1.2-1.2-2.1-1.9c-1.7-1.2-3.7-2.6-4-4.5c-0.1-0.8,0.1-1.7,0.7-2.5c0.4-0.5,1-0.8,1.8-0.9c1.8-0.1,4.1,1.2,6.2,3.5
			c0.4,0.5,0.8,1,1.2,1.4c1.8,2.2,3.3,4.2,8.5,3.7l1-0.1l-8,15.9l-0.3,0C85.4,42.8,85.2,42.8,85.1,42.8z M77,38.3
			c1.1,1.3,4.9,3.4,8.1,3.4c0,0,0,0,0,0l6.7-13.4c-5.1,0.1-6.8-2.1-8.5-4.2c-0.4-0.5-0.7-0.9-1.1-1.4c-2.1-2.4-4.1-3.2-5.3-3.1
			c-0.4,0-0.8,0.2-0.9,0.4c-0.4,0.6-0.6,1.1-0.5,1.6c0.2,1.4,2,2.7,3.5,3.7c1.4,1,2.4,1.7,2.6,2.7c0,0.3,0,0.6-0.2,0.9L77,38.3z"/>
	</g>
	<g>
		<path class="st122" d="M79.4,29.8c-1.7,0-3.5-1.6-5.5-3.3c-0.5-0.5-1.1-0.9-1.6-1.4L72,24.8l2.8-4.9l1,0.6
			c-0.9,1.7,0.9,3.2,3.3,4.9c1.4,1,2.4,1.8,2.6,2.7c0.1,0.3,0,0.7-0.3,1c-0.1,0.2-0.3,0.3-0.4,0.4C80.4,29.7,79.9,29.8,79.4,29.8z
			 M73.5,24.5c0.4,0.4,0.9,0.8,1.3,1.1c2.6,2.3,4.3,3.7,5.5,2.8c0,0,0.1-0.1,0.2-0.2c0.1-0.1,0-0.1,0-0.1c-0.1-0.4-1.2-1.2-2.1-1.9
			c-1.4-1-3.1-2.2-3.8-3.8L73.5,24.5z"/>
	</g>
	<g>
		<path class="st28" d="M59.2,24.1c-0.7,0.5-1.8,1.3-3.1,2.1v10.1c1.4-0.9,2.9-1.8,4.3-2.5V23.3C59.9,23.6,59.5,23.9,59.2,24.1"/>
	</g>
	<g>
		<path class="st28" d="M66,21.4c-0.1,0-0.1,0-0.2,0l-1.4,10.9c0.1,0,0.1,0,0.2,0c1.2,0,2.3,0.4,3.3,1l3.2-9.9
			C69.5,22.2,67.8,21.4,66,21.4"/>
	</g>
	<g>
		<path class="st28" d="M80.6,28.9c-1.4,0.9-2.9,0-4.7-1.5l-4.2,8.8c1.7,1.5,3.2,2.7,4.7,2.2l4.6-9.8C80.8,28.7,80.7,28.8,80.6,28.9
			"/>
	</g>
	<g>
		<path class="st28" d="M19.4,28.9c-0.1-0.1-0.2-0.2-0.3-0.3l4.6,9.8c1.4,0.5,3-0.7,4.7-2.2l-4.2-8.8C22.3,28.9,20.8,29.8,19.4,28.9
			"/>
	</g>
	<g>
		<path class="st28" d="M50,28.8c-0.4,0-1-0.1-1.6-0.4v10.2C49,38.9,49.5,39,50,39c0.5,0,1-0.1,1.6-0.3V28.5
			C51,28.7,50.4,28.8,50,28.8"/>
	</g>
	<g>
		<path class="st28" d="M34,21.4c-1.8,0-3.5,0.8-5.1,2l3.2,9.9c1-0.6,2.1-1,3.3-1c0.1,0,0.1,0,0.2,0l-1.4-10.9
			C34.1,21.4,34.1,21.4,34,21.4"/>
	</g>
	<g>
		<path class="st28" d="M40.8,24.1c-0.3-0.2-0.7-0.5-1.2-0.8v10.5c1.4,0.7,2.8,1.7,4.3,2.5V26.2C42.6,25.4,41.5,24.7,40.8,24.1"/>
	</g>
	<g>
		<path class="st123" d="M43.9,26.2v10.1c1.6,1,3.2,1.9,4.5,2.3V28.5C47.1,28,45.4,27.1,43.9,26.2"/>
	</g>
	<g>
		<path class="st123" d="M34.2,21.4l1.4,10.9c1.1,0.1,2.5,0.6,4,1.4V23.3C38.3,22.4,36.3,21.5,34.2,21.4"/>
	</g>
	<g>
		<path class="st123" d="M24.1,27.3l4.2,8.8c1.1-1,2.4-2.1,3.8-2.8l-3.2-9.9C27.2,24.6,25.6,26.1,24.1,27.3"/>
	</g>
	<g>
		<path class="st123" d="M51.6,28.5v10.2c1.3-0.5,2.9-1.3,4.5-2.3V26.2C54.6,27.1,53,28,51.6,28.5"/>
	</g>
	<g>
		<path class="st123" d="M60.4,23.3v10.5c1.5-0.8,2.9-1.4,4-1.4l1.4-10.9C63.7,21.5,61.7,22.4,60.4,23.3"/>
	</g>
	<g>
		<path class="st123" d="M71.1,23.4l-3.2,9.9c1.4,0.8,2.6,1.9,3.8,2.8l4.2-8.8C74.4,26.1,72.8,24.6,71.1,23.4"/>
	</g>
	<g>
		<path class="st122" d="M50,39.6c-2,0-4.6-1.6-7.4-3.3c-2.6-1.6-5.4-3.3-7.1-3.3c-2.4,0-4.6,1.8-6.4,3.5c-1.9,1.6-3.7,3.2-5.5,2.5
			l-0.2-0.1l-4.7-10l1-0.6c0,0,0,0.1,0.1,0.1c1.3,0.9,2.9-0.4,5.5-2.8c2.5-2.3,5.4-4.8,8.7-4.8c3,0,5.8,1.8,7.2,2.9
			c2,1.6,7,4.6,8.8,4.6c1.8,0,6.8-3,8.8-4.6c1.4-1.1,4.2-2.9,7.2-2.9c3.4,0,6.2,2.6,8.8,4.8c2.6,2.3,4.3,3.6,5.5,2.8
			c0,0,0.1-0.1,0.2-0.2l1,0.6l-4.7,10l-0.2,0.1c-1.8,0.7-3.6-0.9-5.5-2.5c-1.9-1.6-4-3.5-6.4-3.5c-1.8,0-4.5,1.7-7.1,3.3
			C54.6,37.9,52,39.6,50,39.6z M35.5,31.7c2.1,0,4.9,1.7,7.8,3.5c2.5,1.6,5.2,3.2,6.8,3.2c1.6,0,4.3-1.6,6.8-3.2
			c2.9-1.8,5.6-3.5,7.7-3.5c2.9,0,5.2,2,7.2,3.7c1.6,1.4,3,2.6,4.1,2.4l3.8-8C77.9,30,76,28.3,74,26.5c-2.4-2.1-5.1-4.5-8-4.5
			c-2.7,0-5.2,1.6-6.5,2.6c-1.8,1.4-7.2,4.8-9.5,4.8c-2.3,0-7.8-3.4-9.5-4.8c-1-0.8-3.7-2.6-6.5-2.6c-2.9,0-5.6,2.4-8,4.5
			c-2,1.8-3.9,3.5-5.7,3.3l3.8,8c1.2,0.2,2.5-1,4.2-2.4C30.3,33.7,32.6,31.7,35.5,31.7z"/>
	</g>
	<g>
		<path class="st122" d="M50.2,18.9c9.5,0,17.2-4.2,17.2-9.3c0-5.1-7.7-9.3-17.2-9.3C40.7,0.3,33,4.5,33,9.6
			C33,14.7,40.7,18.9,50.2,18.9"/>
	</g>
	<g>
		<path class="st28" d="M50.2,19.2c-9.6,0-17.4-4.3-17.4-9.6c0-5.3,7.8-9.6,17.4-9.6c9.6,0,17.4,4.3,17.4,9.6
			C67.6,14.9,59.8,19.2,50.2,19.2z M50.2,0.6c-9.3,0-16.9,4-16.9,9c0,5,7.6,9,16.9,9c9.3,0,16.9-4,16.9-9C67,4.6,59.5,0.6,50.2,0.6z
			"/>
	</g>
	<g>
		<path class="st127" d="M50.2,17.4c8.4,0,15.2-3.5,15.2-7.8c0-4.3-6.8-7.8-15.2-7.8c-8.4,0-15.2,3.5-15.2,7.8
			C34.9,13.9,41.7,17.4,50.2,17.4"/>
	</g>
	<g>
		<path class="st122" d="M50.2,17.4c-2.1,0-4.1-0.2-5.9-0.6c-1.8-0.4-3.4-1-4.8-1.7c-1.4-0.7-2.5-1.5-3.3-2.5c-0.8-1-1.2-2-1.2-3
			c0-1.1,0.4-2.1,1.2-3c0.8-0.9,1.9-1.8,3.3-2.5c1.4-0.7,3-1.3,4.8-1.7c1.9-0.4,3.9-0.6,5.9-0.6c2.1,0,4.1,0.2,5.9,0.6
			c1.8,0.4,3.4,1,4.8,1.7c1.4,0.7,2.5,1.5,3.3,2.5c0.8,1,1.2,2,1.2,3c0,1.1-0.4,2.1-1.2,3c-0.8,0.9-1.9,1.8-3.3,2.5
			c-1.4,0.7-3,1.3-4.8,1.7C54.2,17.2,52.2,17.4,50.2,17.4z M50.2,1.8c-2.1,0-4.1,0.2-5.9,0.6c-1.8,0.4-3.4,1-4.8,1.7
			c-1.4,0.7-2.5,1.5-3.3,2.5c-0.8,1-1.2,2-1.2,3c0,1.1,0.4,2.1,1.2,3c0.8,0.9,1.9,1.8,3.3,2.5c1.4,0.7,3,1.3,4.8,1.7
			c1.9,0.4,3.9,0.6,5.9,0.6c2.1,0,4.1-0.2,5.9-0.6c1.8-0.4,3.4-1,4.8-1.7c1.4-0.7,2.5-1.5,3.3-2.5c0.8-1,1.2-2,1.2-3
			c0-1.1-0.4-2.1-1.2-3c-0.8-0.9-1.9-1.8-3.3-2.5c-1.4-0.7-3-1.3-4.8-1.7C54.2,2,52.2,1.8,50.2,1.8z"/>
	</g>
	<g>
		<path class="st28" d="M50.2,15.5c6.8,0,12.4-2.2,12.4-5c0-2.7-5.6-5-12.4-5c-6.9,0-12.4,2.2-12.4,5C37.8,13.3,43.3,15.5,50.2,15.5
			"/>
	</g>
	<g>
		<path class="st122" d="M50.2,16.7c-6.6,0-13.6-2.1-13.6-6.1c0-4,7-6.1,13.6-6.1c6.6,0,13.6,2.1,13.6,6.1
			C63.8,14.5,56.8,16.7,50.2,16.7z M50.2,6.7c-6.9,0-11.3,2.2-11.3,3.8c0,1.6,4.4,3.8,11.3,3.8c6.9,0,11.3-2.3,11.3-3.8
			C61.4,9,57.1,6.7,50.2,6.7z"/>
	</g>
	<g>
		<path class="st28" d="M50.1,7c-6.6,0-11.9,5.4-11.9,11.9c0,6.6,5.3,11.9,11.9,11.9H50c6.6,0,11.9-5.3,11.9-11.9
			C61.9,12.4,56.6,7,50,7L50.1,7"/>
	</g>
	<g>
		<path class="st122" d="M50.1,31.5l-0.1,0c-6.8-0.1-12.4-5.7-12.4-12.5c0-6.9,5.5-12.4,12.4-12.5v0l0.1,0
			c6.8,0.1,12.4,5.7,12.4,12.5C62.5,25.8,57,31.4,50.1,31.5L50.1,31.5z M50.1,7.6c-6.2,0-11.3,5.1-11.3,11.4
			c0,6.2,5.1,11.3,11.3,11.4c6.2,0,11.3-5.1,11.3-11.4C61.4,12.7,56.3,7.6,50.1,7.6z"/>
	</g>
	<g>
		<path class="st122" d="M48.2,28.8l-2.5-4.2l-4.5-0.7l-1.1,1.4c0.1,0.1,0.1,0.1,0.1,0.2l0.2,0.3c1.5,2.1,3.7,3.7,6.2,4.5l0.5,0.1
			L48.2,28.8"/>
	</g>
	<g>
		<polyline class="st122" points="45.1,17.3 47,23.2 53.1,23.2 55.1,17.3 50.1,13.7 45.1,17.3 		"/>
	</g>
	<g>
		<path class="st122" d="M50.1,11.3L50.1,11.3l3.7-2.4V7.6C52.6,7.2,51.4,7,50.1,7c-1.3,0-2.5,0.2-3.7,0.6v1.2L50.1,11.3"/>
	</g>
	<g>
		<path class="st122" d="M43.2,15.4l0.1-4.7l-1-0.7c-0.5,0.4-1,0.9-1.4,1.4l0,0c-1.4,1.7-2.3,3.7-2.6,5.9l1.1,0.5L43.2,15.4"/>
	</g>
	<g>
		<path class="st122" d="M54.5,24.6L52,28.8l1.1,1.6l0.4-0.1c2.6-0.8,4.8-2.5,6.3-4.6l0.1-0.1c0.1-0.1,0.1-0.2,0.2-0.2l-1.1-1.4
			L54.5,24.6"/>
	</g>
	<g>
		<path class="st122" d="M57,15.4l3.8,2.4l1.1-0.5c-0.3-2.2-1.2-4.3-2.6-6l0,0c-0.4-0.5-0.9-1-1.4-1.4l-1,0.7L57,15.4"/>
	</g>
</g>
</svg>
