<?xml version="1.0" encoding="utf-8"?>
<!-- Generator: Adobe Illustrator 19.2.1, SVG Export Plug-In . SVG Version: 6.00 Build 0)  -->
<svg version="1.1" id="Capa_1" xmlns="http://www.w3.org/2000/svg" xmlns:xlink="http://www.w3.org/1999/xlink" x="0px" y="0px"
	 viewBox="0 0 100 100" style="enable-background:new 0 0 100 100;" xml:space="preserve">
<style type="text/css">
	.st0{fill:url(#path34_4_);}
	.st1{fill:url(#path890_1_);}
	.st2{fill:#FFE500;stroke:#000000;stroke-width:2.098;stroke-miterlimit:3.863;}
	.st3{fill:#DA020E;}
	.st4{fill:#FFE500;}
	.st5{clip-path:url(#SVGID_2_);}
	.st6{fill:none;stroke:#B54005;stroke-width:10;stroke-miterlimit:3.863;}
	.st7{fill:url(#path7506_1_);}
	.st8{fill:url(#path8794_1_);}
	.st9{fill:url(#path15846_1_);}
	.st10{fill:url(#path16274_1_);}
	.st11{fill:url(#path39821_1_);}
	.st12{fill:url(#path39847_1_);}
	.st13{fill:url(#path39878_1_);}
	.st14{fill:url(#path39888_1_);}
	.st15{fill:url(#path41035_1_);}
	.st16{fill:url(#path9646-8_1_);}
	.st17{fill:url(#path41092_1_);}
	.st18{fill:url(#path41094_1_);}
	.st19{fill:none;stroke:#000000;stroke-width:2.098;stroke-miterlimit:3.863;}
	.st20{fill:url(#path41152_1_);}
	.st21{fill:url(#path39854_1_);}
	.st22{fill:url(#path39874_1_);}
	.st23{fill:#9C824A;stroke:#9C824A;stroke-width:0.793;stroke-miterlimit:282;}
	.st24{fill:#023474;stroke:#023474;stroke-width:0.793;stroke-miterlimit:282;}
	.st25{fill:#FFFFFF;stroke:#FFFFFF;stroke-width:0.793;stroke-miterlimit:282;}
	.st26{fill:#EF0107;stroke:#EF0107;stroke-width:0.793;stroke-miterlimit:282;}
	.st27{fill:#DB0007;stroke:#DB0007;stroke-width:0.793;stroke-miterlimit:282;}
	.st28{fill:#FFFFFF;}
	.st29{fill:#9C824A;}
	.st30{fill:#EF0107;stroke:#EF0107;stroke-width:0.3115;stroke-miterlimit:282;}
	.st31{fill:#DB0007;stroke:#DB0007;stroke-width:0.3115;stroke-miterlimit:282;}
	.st32{fill:#DB0007;}
	.st33{fill:#FFFFFF;stroke:#FFFFFF;stroke-width:0.3115;stroke-miterlimit:282;}
	.st34{fill:#FFFFFF;stroke:#FFFFFF;stroke-width:0.554;stroke-miterlimit:3.864;}
	.st35{fill:#231F20;}
	.st36{fill:#00B6F1;stroke:#00B6F1;stroke-width:1.700000e-02;stroke-miterlimit:3.864;}
	.st37{fill:#EF3E2E;}
	.st38{fill:#BBBDBF;}
	.st39{fill:#F0B83D;}
	.st40{fill:#00B6F1;stroke:#FFFFFF;stroke-width:1.700000e-02;stroke-miterlimit:3.864;}
	.st41{fill:#001C58;}
	.st42{fill:#94BEE5;}
	.st43{fill:none;stroke:#7A003C;stroke-width:2.2437;stroke-miterlimit:6;}
	.st44{fill:#7A003C;}
	.st45{fill:#FFE600;}
	.st46{fill:#DBA111;}
	.st47{fill:#034694;}
	.st48{fill:#D1D3D4;}
	.st49{fill:#ED1C24;}
	.st50{fill:#6A7AB5;}
	.st51{fill:none;}
	.st52{fill:#274488;}
	.st53{fill:#004798;stroke:#004798;stroke-width:9.375000e-02;}
	.st54{fill:#FFFFFF;stroke:#FFFFFF;stroke-width:9.375000e-02;}
	.st55{fill:#FABC00;stroke:#FABC00;stroke-width:9.375000e-02;}
	.st56{fill:none;stroke:#FFFFFF;stroke-width:7.865;stroke-miterlimit:3.864;}
	.st57{fill:none;stroke:#FFFFFF;stroke-width:7.865;stroke-miterlimit:12;}
	.st58{fill:none;stroke:#FFFFFF;stroke-width:7.865;stroke-miterlimit:22;}
	.st59{fill:none;stroke:#FFFFFF;stroke-width:7.865;stroke-miterlimit:6;}
	.st60{fill:#00A398;}
	.st61{fill:#D00027;}
	.st62{fill:none;stroke:#FFFFFF;stroke-width:17.3907;stroke-miterlimit:3.864;}
	.st63{fill:none;stroke:#FFFFFF;stroke-width:13.1107;stroke-miterlimit:3.864;}
	.st64{fill:#FEF667;}
	.st65{fill:#D00027;stroke:#D00027;}
	.st66{fill:#5299C6;}
	.st67{fill:#60223B;}
	.st68{fill:#F7C240;}
	.st69{fill:#292D6B;}
	.st70{fill:#1B458F;}
	.st71{fill:#C4122E;}
	.st72{fill:#27409B;}
	.st73{clip-path:url(#SVGID_4_);}
	.st74{fill:#F4F4F4;}
	.st75{fill:#D3D2D2;}
	.st76{fill:#A7A5A6;}
	.st77{fill:#091453;}
	.st78{fill:none;stroke:#FFFFFF;stroke-width:6.6301;}
	.st79{clip-path:url(#SVGID_6_);}
	.st80{fill:#724314;}
	.st81{fill:#240B08;}
	.st82{fill:#018B4B;}
	.st83{fill:#A6181D;}
	.st84{fill:#592D09;}
	.st85{fill:#FFCE65;}
	.st86{fill:#5CBFEB;}
	.st87{fill:none;stroke:#000000;stroke-width:10;}
	.st88{fill:none;stroke:#000000;}
	.st89{fill:#B2B2B2;}
	.st90{fill:none;stroke:#000000;stroke-width:0.3;}
	.st91{fill:#00A650;stroke:#000000;stroke-width:2;}
	.st92{fill:#241F20;stroke:#241F20;stroke-width:9.375000e-02;}
	.st93{fill:#FFF200;stroke:#FFF200;stroke-width:9.375000e-02;}
	.st94{fill:#A68A26;}
	.st95{fill:none;stroke:#A68A26;stroke-width:4.792100e-02;stroke-miterlimit:3.8637;}
	.st96{fill:#211E1E;}
	.st97{fill:none;stroke:#211E1E;stroke-width:4.792100e-02;stroke-miterlimit:3.8637;}
	.st98{fill:#EB172B;}
	.st99{fill:none;stroke:#EB172B;stroke-width:4.792100e-02;stroke-miterlimit:3.8637;}
	.st100{fill:#A68A26;stroke:#A68A26;stroke-width:4.792100e-02;stroke-miterlimit:3.8637;}
	.st101{fill:#D1BF7F;}
	.st102{fill:none;stroke:#D1BF7F;stroke-width:4.792100e-02;stroke-miterlimit:3.8637;}
	.st103{fill:none;stroke:#FFFFFF;stroke-width:4.792100e-02;stroke-miterlimit:3.8637;}
	.st104{fill:#EB172B;stroke:#EB172B;stroke-width:4.792100e-02;stroke-miterlimit:3.8637;}
	.st105{fill:#ED2127;}
	.st106{fill:#FBEE23;}
	.st107{stroke:#000000;}
	.st108{fill:#CF1F44;}
	.st109{fill:#1B449C;}
	.st110{fill:#E03A3E;}
	.st111{fill:#E03A3E;stroke:#E03A3E;stroke-width:0.6565;}
	.st112{fill:none;stroke:#1B449C;stroke-width:0.7493;}
	.st113{fill:none;stroke:#1B449C;stroke-width:0.7567;}
	.st114{fill:#1B449C;stroke:#1B449C;stroke-width:0.6274;}
	.st115{fill:#1B449C;stroke:#1B449C;stroke-width:0.6755;}
	.st116{fill:#2E6ABD;stroke:#2E6ABD;stroke-width:0.617;}
	.st117{fill:#FFFFFF;stroke:#FFFFFF;stroke-width:0.6175;}
	.st118{fill:#ED1248;}
	.st119{fill:#2E6ABD;}
	.st120{fill:#FDE100;}
	.st121{fill:#CC0000;}
	.st122{fill:#211E1F;}
	.st123{fill:#ED1A3B;}
	.st124{fill:#00AEEF;}
	.st125{fill:#FFC40D;}
	.st126{fill:#22B24C;}
	.st127{fill:#FFC20E;}
	.st128{fill:#0A3F86;}
	.st129{fill:#005CA9;}
	.st130{fill:#FFE000;}
	.st131{fill:#E2001A;}
	.st132{opacity:0;}
	.st133{opacity:0;fill:#FFFFFF;}
	.st134{fill:#FFFFFF;stroke:#000000;}
	.st135{fill:#0060A9;}
	.st136{fill:#E32219;}
	.st137{fill:#FFED00;}
	.st138{fill:#1D9053;}
	.st139{fill:#52A600;}
	.st140{fill:#EE2523;}
	.st141{fill:#F7D117;}
	.st142{fill:#171796;}
	.st143{fill:#009959;}
	.st144{fill:#D42E12;}
	.st145{fill:#703824;}
	.st146{fill:#E5254E;}
	.st147{fill:#8AC3EE;}
	.st148{fill:#B19221;}
	.st149{fill:#F5C03E;}
	.st150{fill:#FF1119;}
	.st151{fill:#1E6BC0;}
	.st152{fill:#B4742A;}
	.st153{fill:#371B02;}
	.st154{fill:url(#SVGID_7_);}
	.st155{fill:url(#SVGID_8_);}
	.st156{fill:url(#SVGID_9_);}
	.st157{fill:url(#SVGID_10_);}
	.st158{fill:url(#SVGID_11_);}
	.st159{fill:url(#SVGID_12_);}
	.st160{fill:url(#SVGID_13_);}
	.st161{fill:url(#SVGID_14_);}
	.st162{fill:url(#SVGID_15_);}
	.st163{fill:url(#SVGID_16_);}
	.st164{fill:#EB2626;}
	.st165{fill:#E9C32C;}
	.st166{fill:#D9D9D9;}
	.st167{fill:#009C5E;}
	.st168{fill:#1C75BC;}
	.st169{fill:#611D5C;}
	.st170{fill:#E2B900;}
	.st171{fill:#004B95;}
	.st172{fill:#A4234B;}
	.st173{fill:#DB2F36;}
	.st174{fill:#FFDF00;}
	.st175{fill:#A38D44;}
	.st176{fill:#57175E;}
	.st177{fill:#AFDCFD;}
	.st178{fill:#0090C6;}
	.st179{fill:#DB5232;}
	.st180{fill:#23C1E0;}
	.st181{fill:#F1A92A;}
	.st182{fill:#167FB6;}
	.st183{fill:#FED75D;}
	.st184{fill:#378CBF;}
	.st185{fill:#3E9692;}
	.st186{fill:#E67F29;}
	.st187{fill:#D8B43C;}
	.st188{fill:#EF3B33;}
	.st189{fill:#24923D;}
	.st190{opacity:6.000001e-02;fill:#101010;enable-background:new    ;}
	.st191{fill:#00529F;}
	.st192{fill:#EE324E;}
	.st193{fill:#FEBE10;}
	.st194{fill:#143C8B;}
	.st195{fill:#FFE24A;}
	.st196{fill:#EC1D24;}
	.st197{fill:#E6A514;}
	.st198{fill:#FFDF1C;}
	.st199{fill:#EE3524;}
	.st200{fill:#B23428;}
	.st201{fill:#D18816;}
	.st202{fill:#0097D7;}
	.st203{fill:#ED1C23;}
	.st204{fill:#E30613;}
	.st205{fill:#FFE400;}
	.st206{fill:#C51A1B;}
	.st207{clip-path:url(#SVGID_19_);}
	.st208{clip-path:url(#SVGID_20_);fill:none;stroke:#000000;stroke-width:0.8131;stroke-miterlimit:3.864;}
	.st209{fill:#0093D5;}
	.st210{fill:#004B9D;}
	.st211{fill:#FCC24F;}
	.st212{fill:#009545;}
	.st213{fill:#0072BB;}
	.st214{fill:#C4974E;}
	.st215{fill:url(#path1292_1_);}
	.st216{fill:#004996;}
	.st217{fill:#FFE667;}
	.st218{fill:none;stroke:#005187;stroke-width:0.153;stroke-miterlimit:3.864;}
	.st219{fill:#005187;}
	.st220{clip-path:url(#SVGID_22_);}
	.st221{clip-path:url(#SVGID_24_);fill:none;stroke:#000000;stroke-width:0.296;stroke-miterlimit:3.864;}
	.st222{clip-path:url(#SVGID_26_);fill:#FFE667;}
	.st223{clip-path:url(#SVGID_28_);fill:none;stroke:#000000;stroke-width:8.300000e-02;stroke-miterlimit:3.864;}
	.st224{fill:none;stroke:#000000;stroke-width:0.153;stroke-miterlimit:3.864;}
	.st225{clip-path:url(#SVGID_30_);fill:#E70005;}
	.st226{clip-path:url(#SVGID_32_);fill:none;stroke:#E70005;stroke-width:0.296;stroke-miterlimit:3.864;}
	.st227{clip-path:url(#SVGID_34_);fill:#E70005;}
	.st228{clip-path:url(#SVGID_36_);fill:none;stroke:#E70005;stroke-width:0.296;stroke-miterlimit:3.864;}
	.st229{clip-path:url(#SVGID_38_);fill:#E70005;}
	.st230{clip-path:url(#SVGID_40_);fill:none;stroke:#E70005;stroke-width:0.296;stroke-miterlimit:3.864;}
	.st231{clip-path:url(#SVGID_42_);fill:#E70005;}
	.st232{clip-path:url(#SVGID_44_);fill:none;stroke:#E70005;stroke-width:0.296;stroke-miterlimit:3.864;}
	.st233{fill:#E70005;}
	.st234{fill:none;stroke:#000000;stroke-width:0.141;stroke-miterlimit:3.864;}
	.st235{fill:#00276D;}
	.st236{fill:#C49308;}
	.st237{fill:#179D33;}
	.st238{fill:#999999;}
	.st239{fill:#FF0000;}
	.st240{fill:#E31837;}
	.st241{fill:#06357A;}
	.st242{fill:#B4053F;}
	.st243{fill:#DCA43E;}
	.st244{fill:#005CA5;}
	.st245{fill:#FAC400;}
	.st246{fill:#004083;}
	.st247{fill:#A95932;}
	.st248{fill:none;stroke:#000000;stroke-width:1.2215;}
	.st249{fill:#E62627;}
	.st250{fill:#00458C;}
	.st251{fill:#E11B22;}
	.st252{fill:#00AB4E;}
	.st253{fill:#F47920;}
	.st254{fill:#C7C8CA;}
	.st255{fill:#E11515;}
	.st256{fill:#A4965F;}
	.st257{fill:#E51636;}
	.st258{fill:#EACC00;}
	.st259{fill:#4F846B;}
	.st260{fill:#E22227;}
	.st261{fill:#FAE700;}
	.st262{fill:url(#SVGID_45_);}
	.st263{fill:#666666;}
	.st264{fill:#FFF200;}
	.st265{fill:#00275D;}
	.st266{fill:#EF3E33;}
	.st267{fill:none;stroke:#00275D;stroke-width:2.632;}
	.st268{fill:#3F7652;}
	.st269{fill:#F1D261;}
	.st270{fill:#004D8F;}
	.st271{fill:#E7B137;stroke:#E7B137;stroke-miterlimit:10;}
	.st272{fill:#E7B137;}
	.st273{fill:#162577;}
	.st274{fill:#12692C;}
	.st275{fill:#D8141D;}
	.st276{fill:#AB830D;}
	.st277{fill:#0086CB;}
	.st278{fill:#001F42;}
	.st279{fill:#9A8F4A;}
	.st280{fill:#00559D;}
	.st281{fill:#FDDE00;}
	.st282{fill:#00924C;}
	.st283{fill:#233984;}
	.st284{fill:#FFD42E;}
	.st285{fill:#BA3733;}
	.st286{fill:#46714D;}
	.st287{fill:#221F1F;}
	.st288{fill:#00559E;}
	.st289{fill:#005C46;}
	.st290{fill:#FBC860;}
	.st291{fill:#D57C48;}
	.st292{fill:#040403;}
	.st293{fill:#4AB969;}
	.st294{fill:#8ED8F8;}
	.st295{fill:#FEC34E;}
	.st296{fill:#FFC95B;}
	.st297{fill:#00644C;}
	.st298{fill:#70B865;}
	.st299{fill:#CA6F44;}
	.st300{fill:#A8B8BE;}
	.st301{fill:#1C2C80;}
	.st302{fill:#E10321;}
	.st303{fill:none;stroke:#231F20;stroke-width:0.318;stroke-miterlimit:3.864;}
	.st304{fill:#D71920;}
	.st305{fill:#484749;}
	.st306{fill:#D9DBDC;}
	.st307{fill:#DF725A;}
	.st308{fill:#F2CABA;}
	.st309{fill:#E89C84;}
	.st310{fill:#264F99;}
	.st311{clip-path:url(#SVGID_47_);}
	.st312{fill:#161413;}
	.st313{fill:#ED1B26;}
	.st314{fill:#E60D2E;}
	.st315{fill:#FCD600;}
	.st316{fill:#004D91;}
	.st317{fill:#EAB412;}
	.st318{fill:#FDD31D;}
	.st319{fill:#EFB800;}
</style>
<g>
	<path id="path3" class="st66" d="M54.8,79c10.5-1.5,16.6-5,21.7-8.4l-2.3-2.9c-0.6,0.4-1.4,0.9-2,1.2L54.8,79 M23.5,70.6
		c5.2,3.5,12.9,7.4,21.9,8.4l-18-10.3c-0.6-0.3-1.1-0.7-1.7-1L23.5,70.6z M100,54.6l-0.5,2.7c-0.1,0.4-1.3,8.5-7.2,15l4.6,5.8
		l-0.6,0.7c-0.2,0.2-4.7,5.5-12.4,10.1C76.7,93.2,66,98.2,50,98.2c-15.4,0-27-5.1-34-9.3c-7.6-4.6-12.2-9.7-12.4-9.9l-0.6-0.7
		l0.5-0.7l4-5C1.8,66,0.5,57.2,0.4,56.8L0,54.6l10.4,5l3.7-10.8l0-47h71.8l0,44.6c0,0.6,0,1.4-0.1,2l3.7,11.1L100,54.6z"/>
	<path id="path5" class="st67" d="M71.4,66.8L50,79.1L28.6,66.8C20.8,62.5,16.4,55,16.4,46.4l0-42.3h67.3l0,42.4
		C83.6,55.4,79.1,62.6,71.4,66.8"/>
	<path id="path7" class="st67" d="M50.2,81.6c17.9,0,31.2-11.4,34.8-14.7l9,11.3C90.9,81,76.2,95.9,50,95.9
		c-25.3,0-40.9-14.6-44-17.8l9-11.3c1.5,1.4,4.7,4.2,9.1,6.9c5.7,3.5,14.8,7.7,25.6,7.8H50.2"/>
	<path id="path9_1_" class="st67" d="M84.9,63.2l-6,0.7c2.8-2.8,5.1-6.7,6-10.7l3.3,9.5l8.5-4.1c-1.1,4-2.9,8.2-6,11.9L84.9,63.2"/>
	<path id="path11_1_" class="st67" d="M82.8,65.7c-1.1,0.9-2.3,2.1-4.4,3.6l-2.3-2.9L82.8,65.7"/>
	<path id="path13_1_" class="st67" d="M23.9,66.4l-2.3,2.9c-2-1.4-3.5-2.7-4.4-3.6L23.9,66.4"/>
	<path id="path15_1_" class="st67" d="M9.1,70.7c-3.6-4.1-5-9.1-5.9-12.1l7.4,3.5l1.1,0.5l0.4-1.2l2.9-8.3c1,3.9,3.1,7.7,6,10.7
		l-6-0.7L9.1,70.7"/>
	<path id="path17_1_" class="st28" d="M17.1,72.2L14.7,77c1.3-1.3,3.9-3.6,3.9-3.6l1.3,1l-2.3,4.9l0,0c0,0,3.9-3.9,3.9-3.9l1.5,1
		l-7,6.5l-1.3-1c1-1.9,2.8-5.6,2.8-5.6c-1.5,1.4-3,2.7-4.7,4.2l-1.3-1l4.5-8.4L17.1,72.2"/>
	<polyline id="polyline19" class="st28" points="23.4,76.7 26.5,78.5 25.6,79.9 24,79.1 23,80.8 24.4,81.6 23.4,83.1 22.1,82.3 
		21.1,84.1 22.7,85 21.8,86.5 18.7,84.7 23.4,76.7 	"/>
	<path id="path21_1_" class="st28" d="M24.2,85.1c0.1,0.4,0.4,0.8,0.8,1c0.5,0.2,1.1,0.1,1.3-0.4c0.6-1.2-1.3-2.7-0.4-4.7
		c0.6-1.4,1.9-2,3.2-1.4c0.4,0.2,0.8,0.5,1.1,0.9l-0.8,1.7c-0.2-0.4-0.5-0.7-0.8-0.9c-0.4-0.2-0.8-0.2-1,0.4c-0.5,1,1.5,2.4,0.4,4.7
		c-0.8,1.6-2.1,2-3.5,1.3c-0.5-0.2-0.8-0.5-1.1-1L24.2,85.1"/>
	<polyline id="polyline23" class="st28" points="33.1,83.1 30.6,90.2 28.9,89.7 31.5,82.5 30.4,82.1 31,80.5 34.8,81.9 34.2,83.5 
		33.1,83.1 	"/>
	<polyline id="polyline25" class="st28" points="40.9,92.8 39.1,92.5 39.8,88.7 38.3,88.4 37.5,92.2 35.8,91.8 37.7,82.7 39.4,83 
		38.6,86.8 40.1,87.1 40.8,83.3 42.5,83.6 40.9,92.8 	"/>
	<path id="path27_1_" class="st28" d="M46.6,84.1l1,9.3l-1.7-0.1l-0.2-1.8L44,91.4l-0.5,1.7l-1.6-0.2l3-9L46.6,84.1 M45.6,90.1
		L45.4,87l-0.9,3L45.6,90.1z"/>
	<polyline id="polyline29" class="st28" points="51,84.2 52.1,89.5 52.2,89.5 52.9,84.1 54.7,84 56.1,93.1 54.4,93.3 53.6,87.7 
		53.6,87.7 52.9,93.4 51.7,93.4 50.5,87.8 50.5,87.8 50.2,93.4 48.5,93.4 49.1,84.2 51,84.2 	"/>
	<path id="path31_1_" class="st28" d="M60.2,83.2l1.3,6.6c0.1,0.6,0.5,0.8,0.8,0.7c0.3-0.1,0.6-0.4,0.4-1l-1.3-6.6l1.7-0.4l1.4,6.8
		c0.3,1.4-0.2,2.6-1.8,3c-1.6,0.3-2.5-0.6-2.8-2l-1.4-6.8L60.2,83.2"/>
	<polyline id="polyline33" class="st28" points="65.6,81.7 69.2,86.2 69.2,86.2 67.5,81.1 69,80.5 72,89.3 70.6,89.9 67,85.5 
		66.9,85.5 68.5,90.6 66.9,91.1 64.1,82.2 65.6,81.7 	"/>
	<polyline id="polyline35" class="st28" points="73.7,88.6 69.9,80.1 71.5,79.4 75.3,87.9 73.7,88.6 	"/>
	<polyline id="polyline37" class="st28" points="75.6,79.2 79.3,85.9 77.7,86.7 74.1,80.1 73.1,80.6 72.3,79.1 75.9,77.2 76.7,78.7 
		75.6,79.2 	"/>
	<polyline id="polyline39" class="st28" points="76.6,76.7 79.5,74.9 80.5,76.2 79,77.2 80,78.9 81.2,78 82.2,79.5 80.9,80.3 
		82.2,82.1 83.7,81.1 84.7,82.5 81.5,84.6 76.6,76.7 	"/>
	<path id="path41_1_" class="st28" d="M80.2,74.3l1.4-1c1.9-1.4,3.7-0.4,5.3,1.8c1.6,2.2,2,4.4,0.1,5.7l-1.4,1L80.2,74.3 M86.1,79.4
		l0.1-0.1c0.7-0.5,0.3-1.8-0.7-3.2c-1-1.4-2-2.1-2.7-1.6l-0.1,0.1L86.1,79.4z"/>
	<path id="path43_1_" class="st68" d="M33.2,10.5l2.6,3l-2.3,2.6l-2.9,2.6c0,0-4.1,2.6-4.4,2.8c-0.3,0.2-0.6,0.2-0.8,0
		c-0.2-0.2-0.2-0.6,0.1-0.8l2.2-3.2c0.4-0.7,0.2-1.4,0.2-1.8c-0.1-0.4,0.1-0.6,0.3-0.8C28.4,14.8,32.2,11.4,33.2,10.5"/>
	<polyline id="polyline45" class="st68" points="47.9,36.7 32,18.9 33.6,17.4 49.3,35.2 47.9,36.7 	"/>
	<path id="path47_1_" class="st68" d="M52.1,38.3l19.6,21.9c0,0,0,0.5-0.5,1c-0.4,0.4-1,0.4-1,0.4L50.7,39.8L52.1,38.3"/>
	<path id="path49_1_" class="st68" d="M64.1,13.5l2.4,2.6l2.9,2.6c0,0,4.1,2.6,4.4,2.8c0.3,0.2,0.6,0.2,0.8,0
		c0.2-0.2,0.2-0.6-0.1-0.8l-2.2-3.2c-0.4-0.7-0.2-1.4-0.2-1.8c0.1-0.4-0.1-0.6-0.3-0.8c-0.2-0.2-4-3.6-5-4.5L64.1,13.5"/>
	<path id="path51_1_" class="st68" d="M29.9,61.6L68,18.9l-1.5-1.4L28.4,60.2c0,0,0,0.5,0.5,1C29.4,61.6,29.9,61.6,29.9,61.6"/>
	<path id="path53_1_" class="st68" d="M37.6,65.8c0-0.1,4.8-6.9,12.4-6.9c7.7,0,12.2,6.9,12.3,6.9l1-0.7c-0.2-0.3-4.9-7.5-13.3-7.5
		c-8.2,0-13.2,7.1-13.4,7.4L37.6,65.8"/>
	<polyline id="polyline55" class="st68" points="25.9,31.6 25.9,27.9 27.8,27.9 27.8,29.6 29.6,29.6 29.6,27.9 31.5,27.9 31.5,29.6 
		33.2,29.6 33.2,27.9 35.2,27.9 35.2,31.6 25.9,31.6 	"/>
	<polyline id="polyline57" class="st68" points="64.8,31.6 64.8,27.9 66.8,27.9 66.8,29.6 68.5,29.6 68.5,27.9 70.4,27.9 70.4,29.6 
		72.2,29.6 72.2,27.9 74.1,27.9 74.1,31.6 64.8,31.6 	"/>
	<path id="path59_1_" class="st68" d="M52.8,37.5l3.2-3.6h1.5v-1.5h1.9v1.5h1.7v-1.6H63v1.6h1.6L63,48.3h13.1l1.4,6.9
		c0,0-2.7-1.6-6.5-1.6c-1.1,0-2.3,0.2-3.4,0.5L52.8,37.5"/>
	<path id="path61_1_" class="st68" d="M32.5,54.1c-1.1-0.3-2.3-0.5-3.4-0.5c-3.9,0-6.5,1.6-6.5,1.6l1.4-6.9H37l-1.7-14.4H37v-1.6
		h1.9v1.6h1.7v-1.5h1.9v1.5H44l3.2,3.7L32.5,54.1"/>
	<polyline id="polyline63" class="st68" points="44.9,17.1 44.9,13 47,13 47,14.9 48.9,14.9 48.9,13 51,13 51,14.9 52.9,14.9 
		52.9,13.1 55,13.1 55,17.1 44.9,17.1 	"/>
	<path id="path65_1_" class="st68" d="M46.2,57.1c0,0,0-6.9,0-6.9c0-1.3,0.8-3.8,3.8-3.8c3,0,3.8,2.5,3.8,3.8v6.9l0,0
		c3.9,0.9,6,3,6,3c1.1-1.7,2.4-3.1,3.8-4.1L50,40.6L36.3,56c1.4,1,2.8,2.4,3.9,4.1C40.2,60.1,42.3,58.1,46.2,57.1L46.2,57.1"/>
	<path id="path67_1_" class="st68" d="M47.2,56.9v-6.7c0-0.3,0.2-2.7,2.8-2.7c2.6,0,2.8,2.4,2.8,2.7c0,0,0,6.7,0,6.7l0,0
		C52,56.8,51,56.7,50,56.7h0C49,56.7,48.1,56.8,47.2,56.9L47.2,56.9"/>
	<path id="path69_1_" class="st68" d="M35.8,47.3H25.3l1.8-14.6h7.1L35.8,47.3 M32.3,37.6h-1.2v-1.7h-1v1.7h-1.3v1h1.3v2.7h1v-2.7
		h1.2V37.6z"/>
	<path id="path71_1_" class="st68" d="M65.9,32.6H73l1.8,14.6H64.2L65.9,32.6 M71.1,37.6h-1.2v-1.7h-1v1.7h-1.3v1h1.3v2.7h1v-2.7
		h1.2V37.6z"/>
	<path id="path73_1_" class="st68" d="M44.5,28.2l2-10.1h6.9l2,10.1L50,34.3L44.5,28.2 M51.8,22.5h-1.2v-1.7h-1v1.7h-1.3v1h1.3v2.7
		h1v-2.7h1.2V22.5z"/>
</g>
</svg>
