<?xml version="1.0" encoding="utf-8"?>
<!-- Generator: Adobe Illustrator 19.2.1, SVG Export Plug-In . SVG Version: 6.00 Build 0)  -->
<svg version="1.1" id="Capa_1" xmlns="http://www.w3.org/2000/svg" xmlns:xlink="http://www.w3.org/1999/xlink" x="0px" y="0px"
	 viewBox="0 0 100 100" style="enable-background:new 0 0 100 100;" xml:space="preserve">
<style type="text/css">
	.st0{fill:url(#path34_4_);}
	.st1{fill:url(#path890_1_);}
	.st2{fill:#FFE500;stroke:#000000;stroke-width:2.098;stroke-miterlimit:3.863;}
	.st3{fill:#DA020E;}
	.st4{fill:#FFE500;}
	.st5{clip-path:url(#SVGID_2_);}
	.st6{fill:none;stroke:#B54005;stroke-width:10;stroke-miterlimit:3.863;}
	.st7{fill:url(#path7506_1_);}
	.st8{fill:url(#path8794_1_);}
	.st9{fill:url(#path15846_1_);}
	.st10{fill:url(#path16274_1_);}
	.st11{fill:url(#path39821_1_);}
	.st12{fill:url(#path39847_1_);}
	.st13{fill:url(#path39878_1_);}
	.st14{fill:url(#path39888_1_);}
	.st15{fill:url(#path41035_1_);}
	.st16{fill:url(#path9646-8_1_);}
	.st17{fill:url(#path41092_1_);}
	.st18{fill:url(#path41094_1_);}
	.st19{fill:none;stroke:#000000;stroke-width:2.098;stroke-miterlimit:3.863;}
	.st20{fill:url(#path41152_1_);}
	.st21{fill:url(#path39854_1_);}
	.st22{fill:url(#path39874_1_);}
	.st23{fill:#9C824A;stroke:#9C824A;stroke-width:0.793;stroke-miterlimit:282;}
	.st24{fill:#023474;stroke:#023474;stroke-width:0.793;stroke-miterlimit:282;}
	.st25{fill:#FFFFFF;stroke:#FFFFFF;stroke-width:0.793;stroke-miterlimit:282;}
	.st26{fill:#EF0107;stroke:#EF0107;stroke-width:0.793;stroke-miterlimit:282;}
	.st27{fill:#DB0007;stroke:#DB0007;stroke-width:0.793;stroke-miterlimit:282;}
	.st28{fill:#FFFFFF;}
	.st29{fill:#9C824A;}
	.st30{fill:#EF0107;stroke:#EF0107;stroke-width:0.3115;stroke-miterlimit:282;}
	.st31{fill:#DB0007;stroke:#DB0007;stroke-width:0.3115;stroke-miterlimit:282;}
	.st32{fill:#DB0007;}
	.st33{fill:#FFFFFF;stroke:#FFFFFF;stroke-width:0.3115;stroke-miterlimit:282;}
	.st34{fill:#FFFFFF;stroke:#FFFFFF;stroke-width:0.554;stroke-miterlimit:3.864;}
	.st35{fill:#231F20;}
	.st36{fill:#00B6F1;stroke:#00B6F1;stroke-width:1.700000e-02;stroke-miterlimit:3.864;}
	.st37{fill:#EF3E2E;}
	.st38{fill:#BBBDBF;}
	.st39{fill:#F0B83D;}
	.st40{fill:#00B6F1;stroke:#FFFFFF;stroke-width:1.700000e-02;stroke-miterlimit:3.864;}
	.st41{fill:#001C58;}
	.st42{fill:#94BEE5;}
	.st43{fill:none;stroke:#7A003C;stroke-width:2.2437;stroke-miterlimit:6;}
	.st44{fill:#7A003C;}
	.st45{fill:#FFE600;}
	.st46{fill:#DBA111;}
	.st47{fill:#034694;}
	.st48{fill:#D1D3D4;}
	.st49{fill:#ED1C24;}
	.st50{fill:#6A7AB5;}
	.st51{fill:none;}
	.st52{fill:#274488;}
	.st53{fill:#004798;stroke:#004798;stroke-width:9.375000e-02;}
	.st54{fill:#FFFFFF;stroke:#FFFFFF;stroke-width:9.375000e-02;}
	.st55{fill:#FABC00;stroke:#FABC00;stroke-width:9.375000e-02;}
	.st56{fill:none;stroke:#FFFFFF;stroke-width:7.865;stroke-miterlimit:3.864;}
	.st57{fill:none;stroke:#FFFFFF;stroke-width:7.865;stroke-miterlimit:12;}
	.st58{fill:none;stroke:#FFFFFF;stroke-width:7.865;stroke-miterlimit:22;}
	.st59{fill:none;stroke:#FFFFFF;stroke-width:7.865;stroke-miterlimit:6;}
	.st60{fill:#00A398;}
	.st61{fill:#D00027;}
	.st62{fill:none;stroke:#FFFFFF;stroke-width:17.3907;stroke-miterlimit:3.864;}
	.st63{fill:none;stroke:#FFFFFF;stroke-width:13.1107;stroke-miterlimit:3.864;}
	.st64{fill:#FEF667;}
	.st65{fill:#D00027;stroke:#D00027;}
	.st66{fill:#5299C6;}
	.st67{fill:#60223B;}
	.st68{fill:#F7C240;}
	.st69{fill:#292D6B;}
	.st70{fill:#1B458F;}
	.st71{fill:#C4122E;}
	.st72{fill:#27409B;}
	.st73{clip-path:url(#SVGID_4_);}
	.st74{fill:#F4F4F4;}
	.st75{fill:#D3D2D2;}
	.st76{fill:#A7A5A6;}
	.st77{fill:#091453;}
	.st78{fill:none;stroke:#FFFFFF;stroke-width:6.6301;}
	.st79{clip-path:url(#SVGID_6_);}
	.st80{fill:#724314;}
	.st81{fill:#240B08;}
	.st82{fill:#018B4B;}
	.st83{fill:#A6181D;}
	.st84{fill:#592D09;}
	.st85{fill:#FFCE65;}
	.st86{fill:#5CBFEB;}
	.st87{fill:none;stroke:#000000;stroke-width:10;}
	.st88{fill:none;stroke:#000000;}
	.st89{fill:#B2B2B2;}
	.st90{fill:none;stroke:#000000;stroke-width:0.3;}
	.st91{fill:#00A650;stroke:#000000;stroke-width:2;}
	.st92{fill:#241F20;stroke:#241F20;stroke-width:9.375000e-02;}
	.st93{fill:#FFF200;stroke:#FFF200;stroke-width:9.375000e-02;}
	.st94{fill:#A68A26;}
	.st95{fill:none;stroke:#A68A26;stroke-width:4.792100e-02;stroke-miterlimit:3.8637;}
	.st96{fill:#211E1E;}
	.st97{fill:none;stroke:#211E1E;stroke-width:4.792100e-02;stroke-miterlimit:3.8637;}
	.st98{fill:#EB172B;}
	.st99{fill:none;stroke:#EB172B;stroke-width:4.792100e-02;stroke-miterlimit:3.8637;}
	.st100{fill:#A68A26;stroke:#A68A26;stroke-width:4.792100e-02;stroke-miterlimit:3.8637;}
	.st101{fill:#D1BF7F;}
	.st102{fill:none;stroke:#D1BF7F;stroke-width:4.792100e-02;stroke-miterlimit:3.8637;}
	.st103{fill:none;stroke:#FFFFFF;stroke-width:4.792100e-02;stroke-miterlimit:3.8637;}
	.st104{fill:#EB172B;stroke:#EB172B;stroke-width:4.792100e-02;stroke-miterlimit:3.8637;}
	.st105{fill:#ED2127;}
	.st106{fill:#FBEE23;}
	.st107{stroke:#000000;}
	.st108{fill:#CF1F44;}
	.st109{fill:#1B449C;}
	.st110{fill:#E03A3E;}
	.st111{fill:#E03A3E;stroke:#E03A3E;stroke-width:0.6565;}
	.st112{fill:none;stroke:#1B449C;stroke-width:0.7493;}
	.st113{fill:none;stroke:#1B449C;stroke-width:0.7567;}
	.st114{fill:#1B449C;stroke:#1B449C;stroke-width:0.6274;}
	.st115{fill:#1B449C;stroke:#1B449C;stroke-width:0.6755;}
	.st116{fill:#2E6ABD;stroke:#2E6ABD;stroke-width:0.617;}
	.st117{fill:#FFFFFF;stroke:#FFFFFF;stroke-width:0.6175;}
	.st118{fill:#ED1248;}
	.st119{fill:#2E6ABD;}
	.st120{fill:#FDE100;}
	.st121{fill:#CC0000;}
	.st122{fill:#211E1F;}
	.st123{fill:#ED1A3B;}
	.st124{fill:#00AEEF;}
	.st125{fill:#FFC40D;}
	.st126{fill:#22B24C;}
	.st127{fill:#FFC20E;}
	.st128{fill:#0A3F86;}
	.st129{fill:#005CA9;}
	.st130{fill:#FFE000;}
	.st131{fill:#E2001A;}
	.st132{opacity:0;}
	.st133{opacity:0;fill:#FFFFFF;}
	.st134{fill:#FFFFFF;stroke:#000000;}
	.st135{fill:#0060A9;}
	.st136{fill:#E32219;}
	.st137{fill:#FFED00;}
	.st138{fill:#1D9053;}
	.st139{fill:#52A600;}
	.st140{fill:#EE2523;}
	.st141{fill:#F7D117;}
	.st142{fill:#171796;}
	.st143{fill:#009959;}
	.st144{fill:#D42E12;}
	.st145{fill:#703824;}
	.st146{fill:#E5254E;}
	.st147{fill:#8AC3EE;}
	.st148{fill:#B19221;}
	.st149{fill:#F5C03E;}
	.st150{fill:#FF1119;}
	.st151{fill:#1E6BC0;}
	.st152{fill:#B4742A;}
	.st153{fill:#371B02;}
	.st154{fill:url(#SVGID_7_);}
	.st155{fill:url(#SVGID_8_);}
	.st156{fill:url(#SVGID_9_);}
	.st157{fill:url(#SVGID_10_);}
	.st158{fill:url(#SVGID_11_);}
	.st159{fill:url(#SVGID_12_);}
	.st160{fill:url(#SVGID_13_);}
	.st161{fill:url(#SVGID_14_);}
	.st162{fill:url(#SVGID_15_);}
	.st163{fill:url(#SVGID_16_);}
	.st164{fill:#EB2626;}
	.st165{fill:#E9C32C;}
	.st166{fill:#D9D9D9;}
	.st167{fill:#009C5E;}
	.st168{fill:#1C75BC;}
	.st169{fill:#611D5C;}
	.st170{fill:#E2B900;}
	.st171{fill:#004B95;}
	.st172{fill:#A4234B;}
	.st173{fill:#DB2F36;}
	.st174{fill:#FFDF00;}
	.st175{fill:#A38D44;}
	.st176{fill:#57175E;}
	.st177{fill:#AFDCFD;}
	.st178{fill:#0090C6;}
	.st179{fill:#DB5232;}
	.st180{fill:#23C1E0;}
	.st181{fill:#F1A92A;}
	.st182{fill:#167FB6;}
	.st183{fill:#FED75D;}
	.st184{fill:#378CBF;}
	.st185{fill:#3E9692;}
	.st186{fill:#E67F29;}
	.st187{fill:#D8B43C;}
	.st188{fill:#EF3B33;}
	.st189{fill:#24923D;}
	.st190{opacity:6.000001e-02;fill:#101010;enable-background:new    ;}
	.st191{fill:#00529F;}
	.st192{fill:#EE324E;}
	.st193{fill:#FEBE10;}
	.st194{fill:#143C8B;}
	.st195{fill:#FFE24A;}
	.st196{fill:#EC1D24;}
	.st197{fill:#E6A514;}
	.st198{fill:#FFDF1C;}
	.st199{fill:#EE3524;}
	.st200{fill:#B23428;}
	.st201{fill:#D18816;}
	.st202{fill:#0097D7;}
	.st203{fill:#ED1C23;}
	.st204{fill:#E30613;}
	.st205{fill:#FFE400;}
	.st206{fill:#C51A1B;}
	.st207{clip-path:url(#SVGID_19_);}
	.st208{clip-path:url(#SVGID_20_);fill:none;stroke:#000000;stroke-width:0.8131;stroke-miterlimit:3.864;}
	.st209{fill:#0093D5;}
	.st210{fill:#004B9D;}
	.st211{fill:#FCC24F;}
	.st212{fill:#009545;}
	.st213{fill:#0072BB;}
	.st214{fill:#C4974E;}
	.st215{fill:url(#path1292_1_);}
	.st216{fill:#004996;}
	.st217{fill:#FFE667;}
	.st218{fill:none;stroke:#005187;stroke-width:0.153;stroke-miterlimit:3.864;}
	.st219{fill:#005187;}
	.st220{clip-path:url(#SVGID_22_);}
	.st221{clip-path:url(#SVGID_24_);fill:none;stroke:#000000;stroke-width:0.296;stroke-miterlimit:3.864;}
	.st222{clip-path:url(#SVGID_26_);fill:#FFE667;}
	.st223{clip-path:url(#SVGID_28_);fill:none;stroke:#000000;stroke-width:8.300000e-02;stroke-miterlimit:3.864;}
	.st224{fill:none;stroke:#000000;stroke-width:0.153;stroke-miterlimit:3.864;}
	.st225{clip-path:url(#SVGID_30_);fill:#E70005;}
	.st226{clip-path:url(#SVGID_32_);fill:none;stroke:#E70005;stroke-width:0.296;stroke-miterlimit:3.864;}
	.st227{clip-path:url(#SVGID_34_);fill:#E70005;}
	.st228{clip-path:url(#SVGID_36_);fill:none;stroke:#E70005;stroke-width:0.296;stroke-miterlimit:3.864;}
	.st229{clip-path:url(#SVGID_38_);fill:#E70005;}
	.st230{clip-path:url(#SVGID_40_);fill:none;stroke:#E70005;stroke-width:0.296;stroke-miterlimit:3.864;}
	.st231{clip-path:url(#SVGID_42_);fill:#E70005;}
	.st232{clip-path:url(#SVGID_44_);fill:none;stroke:#E70005;stroke-width:0.296;stroke-miterlimit:3.864;}
	.st233{fill:#E70005;}
	.st234{fill:none;stroke:#000000;stroke-width:0.141;stroke-miterlimit:3.864;}
	.st235{fill:#00276D;}
	.st236{fill:#C49308;}
	.st237{fill:#179D33;}
	.st238{fill:#999999;}
	.st239{fill:#FF0000;}
	.st240{fill:#E31837;}
	.st241{fill:#06357A;}
	.st242{fill:#B4053F;}
	.st243{fill:#DCA43E;}
	.st244{fill:#005CA5;}
	.st245{fill:#FAC400;}
	.st246{fill:#004083;}
	.st247{fill:#A95932;}
	.st248{fill:none;stroke:#000000;stroke-width:1.2215;}
	.st249{fill:#E62627;}
	.st250{fill:#00458C;}
	.st251{fill:#E11B22;}
	.st252{fill:#00AB4E;}
	.st253{fill:#F47920;}
	.st254{fill:#C7C8CA;}
	.st255{fill:#E11515;}
	.st256{fill:#A4965F;}
	.st257{fill:#E51636;}
	.st258{fill:#EACC00;}
	.st259{fill:#4F846B;}
	.st260{fill:#E22227;}
	.st261{fill:#FAE700;}
	.st262{fill:url(#SVGID_45_);}
	.st263{fill:#666666;}
	.st264{fill:#FFF200;}
	.st265{fill:#00275D;}
	.st266{fill:#EF3E33;}
	.st267{fill:none;stroke:#00275D;stroke-width:2.632;}
	.st268{fill:#3F7652;}
	.st269{fill:#F1D261;}
	.st270{fill:#004D8F;}
	.st271{fill:#E7B137;stroke:#E7B137;stroke-miterlimit:10;}
	.st272{fill:#E7B137;}
	.st273{fill:#162577;}
	.st274{fill:#12692C;}
	.st275{fill:#D8141D;}
	.st276{fill:#AB830D;}
	.st277{fill:#0086CB;}
	.st278{fill:#001F42;}
	.st279{fill:#9A8F4A;}
	.st280{fill:#00559D;}
	.st281{fill:#FDDE00;}
	.st282{fill:#00924C;}
	.st283{fill:#233984;}
	.st284{fill:#FFD42E;}
	.st285{fill:#BA3733;}
	.st286{fill:#46714D;}
	.st287{fill:#221F1F;}
	.st288{fill:#00559E;}
	.st289{fill:#005C46;}
	.st290{fill:#FBC860;}
	.st291{fill:#D57C48;}
	.st292{fill:#040403;}
	.st293{fill:#4AB969;}
	.st294{fill:#8ED8F8;}
	.st295{fill:#FEC34E;}
	.st296{fill:#FFC95B;}
	.st297{fill:#00644C;}
	.st298{fill:#70B865;}
	.st299{fill:#CA6F44;}
	.st300{fill:#A8B8BE;}
	.st301{fill:#1C2C80;}
	.st302{fill:#E10321;}
	.st303{fill:none;stroke:#231F20;stroke-width:0.318;stroke-miterlimit:3.864;}
	.st304{fill:#D71920;}
	.st305{fill:#484749;}
	.st306{fill:#D9DBDC;}
	.st307{fill:#DF725A;}
	.st308{fill:#F2CABA;}
	.st309{fill:#E89C84;}
	.st310{fill:#264F99;}
	.st311{clip-path:url(#SVGID_47_);}
	.st312{fill:#161413;}
	.st313{fill:#ED1B26;}
	.st314{fill:#E60D2E;}
	.st315{fill:#FCD600;}
	.st316{fill:#004D91;}
	.st317{fill:#EAB412;}
	.st318{fill:#FDD31D;}
	.st319{fill:#EFB800;}
	.st320{fill:#1F53A9;}
	.st321{fill:#122657;}
	.st322{fill:#AABAC2;}
	.st323{fill:#009248;}
	.st324{fill:#EE3124;}
	.st325{fill:#FDB913;}
	.st326{fill:#0095DA;}
</style>
<g>
	<path d="M50.7,31.6c18.6,0,33.8,15.2,33.8,33.8c0,18.6-15.2,33.8-33.8,33.8S16.9,83.9,16.9,65.3S32.1,31.6,50.7,31.6L50.7,31.6z"/>
	<path class="st322" d="M17.4,65.3C17.4,47,32.3,32,50.7,32S84,47,84,65.3c0,18.4-14.9,33.3-33.3,33.3S17.4,83.7,17.4,65.3
		L17.4,65.3z"/>
	<path d="M22,65.3c0,15.9,12.9,28.8,28.8,28.8c15.9,0,28.8-12.9,28.8-28.8c0-15.9-12.9-28.8-28.8-28.8C34.8,36.6,22,49.5,22,65.3
		L22,65.3z"/>
	<path class="st28" d="M22.4,65.3c0-15.6,12.7-28.3,28.3-28.3S79,49.7,79,65.3c0,15.6-12.7,28.3-28.3,28.3S22.4,80.9,22.4,65.3
		L22.4,65.3z"/>
	<path d="M24,65.3C24,80.1,36,92,50.7,92s26.7-12,26.7-26.7s-12-26.7-26.7-26.7S24,50.6,24,65.3L24,65.3z"/>
	<path class="st28" d="M24.5,65.3c0-14.4,11.8-26.2,26.2-26.2s26.2,11.8,26.2,26.2c0,14.4-11.8,26.2-26.2,26.2S24.5,79.8,24.5,65.3
		L24.5,65.3z"/>
	<path d="M76.9,65.6c0-0.1,0-0.1,0-0.2c0-0.1,0-0.2,0-0.3h-24l23.5-4.7c0-0.2-0.1-0.3-0.1-0.5L53,64.6l22-9.1
		c-0.1-0.1-0.1-0.3-0.2-0.4l-22,9.1l19.8-13.2c-0.1-0.1-0.2-0.3-0.3-0.4L52.6,63.7l16.8-16.8c-0.1-0.1-0.2-0.2-0.3-0.3L52.2,63.4
		l13.2-19.8c-0.1-0.1-0.3-0.2-0.4-0.3L51.8,63.1l8.6-20.8L60,42.2L51.4,63l3.9-19.7l-0.5-0.1L51,62.5V42.1h-0.6v20.4l-4-20l-0.5,0.1
		L50,63l-8.8-21.3l-0.4,0.2l8.8,21.3L36.4,43.4c-0.1,0.1-0.3,0.2-0.4,0.3l13.2,19.8L32.4,46.6c-0.1,0.1-0.2,0.2-0.3,0.3l16.8,16.8
		L29.1,50.5c-0.1,0.1-0.2,0.3-0.3,0.4l19.8,13.2l-22-9.1c-0.1,0.1-0.1,0.3-0.2,0.4l22,9.1L25,59.9c0,0.2-0.1,0.3-0.1,0.5l23.5,4.7
		h-24c0,0.1,0,0.2,0,0.3c0,0.1,0,0.1,0,0.2h23.6l-23.2,4.6c0,0.2,0.1,0.3,0.1,0.5L48.4,66l-22,9.1c0.1,0.1,0.1,0.3,0.2,0.4l22-9.1
		L28.7,79.7c0.1,0.1,0.2,0.3,0.3,0.4l19.8-13.2L32,83.7c0.1,0.1,0.2,0.2,0.3,0.3l16.9-16.9L35.9,87c0.1,0.1,0.3,0.2,0.4,0.3
		l13.3-19.8l-9.1,22.1c0.1,0.1,0.3,0.1,0.4,0.2l9.8-23.7l9.8,23.8c0.1-0.1,0.3-0.1,0.4-0.2l-9.1-22.1l13.3,19.8
		c0.1-0.1,0.3-0.2,0.4-0.3L52.2,67.1L69.1,84c0.1-0.1,0.2-0.2,0.3-0.3L52.6,66.8l19.8,13.3c0.1-0.1,0.2-0.3,0.3-0.4L52.8,66.4
		l22,9.1c0.1-0.1,0.1-0.3,0.2-0.4L53,66l23.4,4.7c0-0.2,0.1-0.3,0.1-0.5l-23.2-4.6L76.9,65.6L76.9,65.6z"/>
	<path class="st323" d="M37.8,36.2c-1.8-0.4-3.3-0.6-4.3-0.5c-3,0.4-6.6,1.9-10.3,3.7c-2.4,1.2-5.3,2.7-11.3,6.2l5.5,0.4l-0.6,4.6
		c3.3-2.1,7.6-5.1,11.7-6.9c1.7-0.7,3.4-1.2,4.8-1.4c1.1-0.1,2.1,0.2,3.2,0.5c4.8,1.2,9.4,2.6,14.2,2.6v-6.8
		C46.2,38.6,41.5,37.1,37.8,36.2L37.8,36.2z"/>
	<path d="M71.1,48.6c-7,2.6-14.1,4-20.4,4s-13.4-1.4-20.4-4L30,48.5L30,48.8c-3.6,19.5,3.4,36.3,20.6,50.2l0.1,0.1l0.1-0.1
		C68.1,85.1,75,68.2,71.5,48.8l-0.1-0.3L71.1,48.6L71.1,48.6z"/>
	<path class="st28" d="M50.7,53.1c6.3,0,13.4-1.4,20.3-3.9c0.6,3.2,0.9,6.3,0.9,9.3c0,15.2-7.1,28.6-21.2,40
		c-14.1-11.4-21.2-24.8-21.2-40c0-3,0.3-6.2,0.9-9.3C37.3,51.7,44.4,53.1,50.7,53.1L50.7,53.1z"/>
	<path class="st324" d="M50.7,96V55.5c-6.6,0-12.5-1.1-18.5-3.1C29.9,69.6,36.9,83.5,50.7,96L50.7,96z"/>
	<path class="st325" d="M50.7,60.6c6.4,0,11.6,5.2,11.6,11.6s-5.2,11.6-11.6,11.6s-11.6-5.2-11.6-11.6S44.3,60.6,50.7,60.6
		L50.7,60.6z"/>
	<path d="M38.9,72.1c0,6.5,5.3,11.8,11.8,11.8c6.5,0,11.8-5.3,11.8-11.8c0-6.5-5.3-11.8-11.8-11.8C44.2,60.3,38.9,65.6,38.9,72.1
		L38.9,72.1z M39.4,72.1c0-6.2,5.1-11.3,11.3-11.3S62,65.9,62,72.1c0,6.2-5.1,11.3-11.3,11.3S39.4,78.4,39.4,72.1L39.4,72.1z"/>
	<path d="M38.9,71.9c0.7,1.3,1.9,2.6,3.5,3.7l0.3-0.4c-1.5-1.1-2.7-2.3-3.3-3.6L38.9,71.9L38.9,71.9z"/>
	<path d="M44.5,74.1l0.4-0.3c-2.7-3.1-2.1-8.4,1.3-12.1l-0.3-0.3C42.3,65.2,41.7,70.8,44.5,74.1L44.5,74.1z"/>
	<path d="M49.7,67.2l0.5-0.1c-0.9-2.9,0-4.7,2.9-6l-0.2-0.4C49.8,62,48.8,64.1,49.7,67.2L49.7,67.2z"/>
	<path d="M55.8,71.6c2.7,2.8,3.3,7.2,1.3,9.9l0.4,0.3c2.1-2.9,1.5-7.5-1.4-10.5L55.8,71.6L55.8,71.6z"/>
	<path d="M58.4,68.6c2,1.7,3.2,4.2,3.1,6.8l0.5,0c0.1-2.7-1.1-5.4-3.3-7.2L58.4,68.6L58.4,68.6z"/>
	<path d="M52.1,74.6c1.9,3.6,1.6,7.2-0.7,8.8l0.3,0.4c2.5-1.8,2.9-5.7,0.9-9.5L52.1,74.6L52.1,74.6z"/>
	<path d="M47.6,80.2l-0.1,0.5c2.1,0.3,4.9-0.6,6.1-3l-0.4-0.2C52.2,79.6,49.6,80.4,47.6,80.2L47.6,80.2z"/>
	<path d="M69.1,52.2c-2.5,0.9-4.9,1.5-7.4,2l-0.1,0l-25,25l0.1,0.2c1.3,2.4,2.9,4.8,4.7,7.2l0.2,0.2l28.3-28.2l0-0.1
		c0-2-0.2-4-0.4-6l0-0.3L69.1,52.2L69.1,52.2z"/>
	<path class="st326" d="M69,52.7c0.2,1.9,0.4,3.8,0.4,5.6C69.3,58.4,42,85.6,41.6,86c-1.7-2.2-3.1-4.5-4.4-6.7
		C37.5,79,61.9,54.7,62,54.6C64.3,54.1,66.6,53.5,69,52.7L69,52.7z"/>
	<path class="st325" d="M42.6,81.5l0.7-0.7c0.3,0.2,0.5,0.4,0.8,0.4c0.3,0,0.6-0.1,0.8-0.3c0.3-0.3,0.4-0.5,0.4-0.8
		c0-0.3-0.1-0.6-0.4-0.8c-0.2-0.2-0.4-0.3-0.7-0.3c-0.2,0-0.6,0.1-1,0.4c0,0-0.1,0-0.1,0.1c-0.5,0.3-1,0.5-1.4,0.4
		c-0.2,0-0.4-0.1-0.5-0.1c-0.2-0.1-0.3-0.2-0.5-0.3c-0.4-0.4-0.6-0.9-0.6-1.4c0-0.5,0.2-1,0.6-1.4c0.4-0.4,0.8-0.6,1.3-0.6
		c0.5,0,0.9,0.2,1.3,0.5l-0.7,0.7c-0.2-0.2-0.4-0.3-0.7-0.3c-0.2,0-0.5,0.1-0.6,0.3c-0.2,0.2-0.3,0.4-0.3,0.7c0,0.3,0.1,0.5,0.3,0.7
		c0.1,0.1,0.2,0.1,0.2,0.2c0.1,0,0.2,0.1,0.3,0.1c0.2,0,0.5-0.1,0.9-0.4c0.2-0.1,0.3-0.2,0.4-0.3c0.5-0.2,0.9-0.3,1.3-0.2
		c0.4,0.1,0.8,0.2,1.1,0.5c0.5,0.5,0.7,1,0.7,1.5c0,0.6-0.2,1.1-0.7,1.5c-0.4,0.4-0.9,0.7-1.5,0.7C43.5,82.2,43,82,42.6,81.5
		L42.6,81.5z M50.4,76.5l-0.7,0.7l-0.8-0.8l0.7-0.7L50.4,76.5L50.4,76.5z M55.8,71.1l-2.4,2.4l-4.8-4.8l0.7-0.7l4.1,4.1l1.7-1.7
		L55.8,71.1L55.8,71.1z M59.1,67.8l-0.7,0.7l-0.8-0.8l0.7-0.7L59.1,67.8L59.1,67.8z M60,61.3l0.2-0.2c0.4-0.4,0.6-0.7,0.6-1
		c0.1-0.3,0-0.5-0.3-0.8c-0.2-0.2-0.5-0.3-0.7-0.3c-0.3,0-0.5,0.2-0.8,0.5L58.7,60L60,61.3L60,61.3z M62.2,63.5l0.6-0.6
		c0.3-0.3,0.5-0.7,0.6-0.9c0-0.3-0.1-0.5-0.3-0.8c-0.3-0.3-0.6-0.4-0.9-0.4c-0.3,0-0.6,0.2-1,0.5l-0.6,0.6L62.2,63.5L62.2,63.5z
		 M58.4,59c0.5-0.5,1.1-0.8,1.6-0.9c0.5-0.1,1,0.1,1.4,0.5c0.2,0.2,0.3,0.4,0.4,0.7c0.1,0.2,0,0.5,0,0.8c0.3-0.2,0.6-0.2,1-0.2
		c0.3,0.1,0.7,0.2,0.9,0.5c0.2,0.2,0.4,0.5,0.5,0.8c0.1,0.3,0.1,0.6,0.1,0.9c0,0.3-0.1,0.5-0.3,0.8c-0.1,0.2-0.4,0.5-0.7,0.9
		l-1.2,1.2l-4.8-4.8L58.4,59L58.4,59z M68.5,58.4l-0.7,0.7L67,58.3l0.7-0.7L68.5,58.4L68.5,58.4z"/>
	<path d="M69.2,52.1c-6.2,2.1-12.1,3.1-18.5,3.1s-12.2-1-18.5-3.1L32,52.1l0,0.3c-2.1,16.5,3.8,30.4,18.6,43.9l0.2,0.1l0.2-0.1
		c14.8-13.5,20.8-27.4,18.6-43.9l0-0.3L69.2,52.1L69.2,52.1z M32,58.7c0-2,0.1-4,0.4-6c6.2,2.1,12,3,18.3,3s12.2-1,18.3-3
		c0.3,2,0.4,4.1,0.4,6c0,13.5-6.1,25.4-18.7,37C38,84.2,32,72.3,32,58.7L32,58.7z"/>
	<path class="st324" d="M89.5,45.5c-5.9-3.5-8.9-5-11.3-6.2c-3.7-1.8-7.3-3.3-10.3-3.7c-1-0.1-2.5,0.1-4.3,0.5
		c-3.6,0.9-8.4,2.4-12.9,2.4v6.8c4.7,0,9.3-1.4,14.2-2.6c1.1-0.3,2-0.6,3.2-0.5c1.5,0.1,3.1,0.6,4.8,1.4c4,1.7,8.4,4.7,11.7,6.9
		l-0.6-4.6L89.5,45.5L89.5,45.5z"/>
	<path d="M63.5,36l-2,0.5c-3.3,0.9-7.1,1.9-10.8,1.9c-3.7,0-7.4-1-10.8-1.9l-2-0.5c-1.9-0.5-3.4-0.6-4.4-0.5
		c-2.6,0.3-5.8,1.5-10.4,3.7c-2.3,1.1-5.2,2.5-11.3,6.2l-0.6,0.4c0,0,5.6,0.4,6,0.5c-0.1,0.4-0.6,4.9-0.6,4.9l1.6-1
		c3.1-2,6.9-4.6,10.5-6.1c1.8-0.8,3.4-1.2,4.8-1.3c1-0.1,1.8,0.1,2.7,0.4l2.2,0.6c4.2,1.1,8.2,2.1,12.4,2.1c4.2,0,8.2-1,12.4-2.1
		l2.2-0.6c1-0.2,1.8-0.5,2.7-0.4c1.3,0.1,2.9,0.6,4.8,1.3c3.6,1.5,7.4,4.1,10.5,6.1l1.6,1c0,0-0.6-4.4-0.6-4.9c0.5,0,6-0.5,6-0.5
		l-0.6-0.4c-6.1-3.6-9-5.1-11.3-6.2c-4.6-2.2-7.8-3.3-10.4-3.7C66.9,35.3,65.5,35.5,63.5,36L63.5,36z M61.6,37l2-0.5
		c1.9-0.5,3.3-0.6,4.2-0.5c2.6,0.3,5.7,1.5,10.2,3.6c2.2,1,4.9,2.4,10.6,5.8c-1.1,0.1-5,0.4-5,0.4s0.4,3.5,0.5,4.3
		c-0.3-0.2-0.7-0.5-0.7-0.5c-3.1-2-7-4.6-10.6-6.1c-1.9-0.8-3.5-1.3-4.9-1.4c-1-0.1-1.9,0.1-2.9,0.4L63,43
		c-4.2,1.1-8.2,2.1-12.3,2.1s-8.1-1-12.3-2.1l-2.2-0.6c-1-0.2-1.9-0.5-2.9-0.4c-1.4,0.1-3,0.6-4.9,1.4c-3.6,1.5-7.5,4.1-10.6,6.1
		c0,0-0.4,0.2-0.7,0.5c0.1-0.8,0.5-4.3,0.5-4.3s-3.9-0.3-5-0.4c5.7-3.3,8.4-4.7,10.6-5.8c4.5-2.2,7.7-3.3,10.2-3.6
		c0.9-0.1,2.3,0,4.2,0.5l2,0.5c3.4,0.9,7.2,1.9,10.9,1.9C54.4,38.8,58.2,37.8,61.6,37L61.6,37z"/>
	<path d="M73.7,42.1l-0.6-0.3l0.3-1.1c0-0.1,0-0.2,0.1-0.3c0-0.1,0.1-0.2,0.1-0.3c-0.1,0.1-0.1,0.2-0.2,0.3c0,0,0,0-0.1,0.1l-0.8,1
		L72,41.4l0.1-1.3c0,0,0,0,0-0.1c0-0.2,0-0.3,0.1-0.4c0,0.1-0.1,0.2-0.1,0.3c0,0.1-0.1,0.2-0.1,0.3l-0.6,1l-0.6-0.3l1.4-2.3l0.7,0.3
		l-0.1,1.4c0,0,0,0,0,0c0,0.1,0,0.2-0.1,0.3c0,0,0-0.1,0.1-0.1c0,0,0.1-0.1,0.1-0.2l0.9-1.1l0.7,0.3L73.7,42.1L73.7,42.1z
		 M67.7,37.7l0.7,0.1l-0.2,1.3c0,0.2,0,0.3,0,0.4c0,0.1,0,0.2,0,0.2c0,0.1,0.1,0.1,0.1,0.2c0.1,0,0.1,0.1,0.2,0.1c0.1,0,0.2,0,0.3,0
		c0.1,0,0.1-0.1,0.2-0.1c0-0.1,0.1-0.1,0.1-0.2c0-0.1,0-0.2,0.1-0.4l0-0.2l0.2-1.1L70,38l-0.2,1.4c0,0.3-0.1,0.5-0.1,0.6
		c-0.1,0.1-0.1,0.2-0.2,0.3c-0.1,0.1-0.2,0.2-0.4,0.2c-0.2,0-0.4,0-0.6,0c-0.2,0-0.4-0.1-0.6-0.2c-0.1-0.1-0.3-0.2-0.3-0.3
		c-0.1-0.1-0.1-0.2-0.1-0.4c0-0.1,0-0.4,0-0.6l0-0.3L67.7,37.7L67.7,37.7z M63.5,41.3l-0.7-2.5l0.7-0.2l1.3,1.1c0,0,0.1,0.1,0.1,0.1
		c0.1,0.1,0.1,0.2,0.2,0.3c0-0.1-0.1-0.2-0.1-0.3S65,39.6,65,39.5l-0.3-1.3l0.7-0.2l0.7,2.5l-0.7,0.2L64,39.7c0,0-0.1-0.1-0.1-0.1
		c-0.1-0.1-0.1-0.2-0.2-0.2c0,0.1,0.1,0.2,0.1,0.3c0,0.1,0.1,0.2,0.1,0.2l0.3,1.3L63.5,41.3L63.5,41.3z M59.2,39.6l0.7-0.2l0.3,1.2
		c0,0.2,0.1,0.3,0.1,0.4c0,0.1,0.1,0.1,0.1,0.2c0,0.1,0.1,0.1,0.2,0.1c0.1,0,0.2,0,0.3,0c0.1,0,0.2-0.1,0.2-0.1
		c0.1-0.1,0.1-0.1,0.1-0.2c0-0.1,0-0.1,0-0.2c0-0.1,0-0.2-0.1-0.4l0-0.2l-0.3-1.1l0.7-0.2l0.4,1.3c0.1,0.3,0.1,0.5,0.1,0.6
		c0,0.1,0,0.3-0.1,0.4c-0.1,0.1-0.2,0.2-0.3,0.3c-0.1,0.1-0.3,0.2-0.5,0.2C60.9,42,60.7,42,60.5,42c-0.2,0-0.3-0.1-0.4-0.1
		c-0.1-0.1-0.2-0.2-0.3-0.3c-0.1-0.1-0.1-0.3-0.2-0.6l-0.1-0.3L59.2,39.6L59.2,39.6z M54.8,42.3c0.1,0.1,0.2,0.2,0.4,0.2
		c0.1,0,0.2,0.1,0.3,0c0.1,0,0.2-0.1,0.2-0.1c0.1-0.1,0.1-0.1,0.1-0.2c0-0.1-0.1-0.1-0.1-0.2c-0.1,0-0.2-0.1-0.4-0.1
		c-0.3,0-0.5-0.1-0.6-0.2c-0.1-0.1-0.2-0.2-0.2-0.4c0-0.2,0-0.5,0.1-0.7c0.1-0.2,0.3-0.3,0.6-0.3c0.1,0,0.3,0,0.4,0
		c0.1,0,0.3,0.1,0.4,0.1L55.8,41c-0.1-0.1-0.2-0.1-0.3-0.1c-0.1,0-0.2,0-0.3,0c-0.1,0-0.2,0-0.2,0.1c0,0-0.1,0.1-0.1,0.2
		c0,0.1,0,0.1,0.1,0.1c0.1,0,0.2,0.1,0.3,0.1c0,0,0,0,0,0c0.3,0,0.5,0.1,0.6,0.2c0.1,0.1,0.1,0.1,0.2,0.2c0,0.1,0.1,0.2,0.1,0.3
		c0,0.3,0,0.5-0.2,0.7c-0.2,0.2-0.4,0.3-0.7,0.4c-0.2,0-0.4,0-0.5,0c-0.2,0-0.3-0.1-0.5-0.2L54.8,42.3L54.8,42.3z M51,40.9l0.7,0
		l0.1,1.3c0,0.2,0,0.3,0,0.4c0,0.1,0,0.1,0.1,0.2c0,0.1,0.1,0.1,0.2,0.1c0.1,0,0.2,0,0.3,0c0.1,0,0.2,0,0.2-0.1
		c0.1,0,0.1-0.1,0.1-0.2c0-0.1,0-0.1,0-0.2c0-0.1,0-0.2,0-0.4l0-0.2l-0.1-1.1l0.7,0l0.1,1.4c0,0.3,0,0.5,0,0.6
		c0,0.1-0.1,0.3-0.2,0.4c-0.1,0.1-0.2,0.2-0.4,0.3c-0.2,0.1-0.3,0.1-0.6,0.1c-0.2,0-0.4,0-0.6,0c-0.2,0-0.3-0.1-0.4-0.2
		c-0.1-0.1-0.2-0.2-0.2-0.3c0-0.1-0.1-0.3-0.1-0.6l0-0.3L51,40.9L51,40.9z"/>
	<path d="M27.9,42.1l-1-2.4l1.5-0.6l0.2,0.5l-0.8,0.4l0.2,0.4l0.8-0.3l0.2,0.5l-0.8,0.3l0.2,0.4l0.8-0.4l0.2,0.5L27.9,42.1
		L27.9,42.1z M33.4,40.4l-0.7,0l-0.1-2.6l0.7,0c0.3,0,0.5,0,0.6,0c0.1,0,0.2,0.1,0.3,0.1c0.1,0.1,0.2,0.2,0.2,0.3
		c0.1,0.1,0.1,0.3,0.1,0.4c0,0.2,0,0.3-0.1,0.4c0,0.1-0.1,0.2-0.2,0.3c-0.1,0.1-0.2,0.1-0.3,0.1c-0.1,0-0.3,0-0.5,0.1l-0.1,0l-0.1,0
		L33.4,40.4L33.4,40.4z M33.4,39l0.1,0c0.2,0,0.3,0,0.4-0.1c0.1,0,0.1-0.1,0.1-0.2c0-0.1,0-0.2-0.1-0.2c-0.1,0-0.2-0.1-0.4-0.1
		l-0.1,0L33.4,39L33.4,39z M35.9,40.7l0.7-2.5l0.7,0.2l-0.5,1.9l0.9,0.2l-0.2,0.6L35.9,40.7L35.9,40.7z M39.2,38.9l0.7,0.2l-0.3,1.2
		c0,0.2-0.1,0.3-0.1,0.4c0,0.1,0,0.2,0,0.2c0,0.1,0,0.1,0.1,0.2c0.1,0.1,0.1,0.1,0.2,0.1s0.2,0,0.3,0c0.1,0,0.1-0.1,0.2-0.1
		c0,0,0.1-0.1,0.1-0.2c0-0.1,0.1-0.2,0.1-0.4l0-0.2l0.3-1.1l0.7,0.2l-0.4,1.3c-0.1,0.3-0.1,0.5-0.2,0.6c-0.1,0.1-0.2,0.2-0.3,0.3
		c-0.1,0.1-0.3,0.1-0.4,0.1c-0.2,0-0.4,0-0.6-0.1c-0.2-0.1-0.4-0.1-0.5-0.2c-0.1-0.1-0.2-0.2-0.3-0.3c-0.1-0.1-0.1-0.2-0.1-0.4
		c0-0.1,0-0.4,0.1-0.6l0.1-0.3L39.2,38.9L39.2,38.9z M42.1,42.3l0.6-2.6l0.7,0.2c0.3,0.1,0.5,0.1,0.6,0.2c0.1,0.1,0.2,0.1,0.3,0.2
		c0.1,0.1,0.1,0.2,0.2,0.3c0,0.1,0,0.2,0,0.4c0,0.2-0.1,0.3-0.3,0.5c-0.1,0.1-0.3,0.2-0.5,0.1l0.5,1.2l-0.8-0.2l-0.4-1.1l-0.2,1
		L42.1,42.3L42.1,42.3z M43,41.1l0.1,0c0.2,0,0.3,0,0.3,0c0.1,0,0.1-0.1,0.2-0.2c0-0.1,0-0.2,0-0.3c-0.1-0.1-0.2-0.1-0.3-0.2l-0.1,0
		L43,41.1L43,41.1z M45.2,42.9l0.5-2.6l0.7,0.1l-0.5,2.6L45.2,42.9L45.2,42.9z"/>
	<path class="st323" d="M33.5,38.3l-0.2,0l0,0.7l0.2,0c0.2,0,0.3,0,0.4-0.1c0.1-0.1,0.1-0.1,0.1-0.3c0-0.1,0-0.2-0.1-0.3
		C33.8,38.3,33.7,38.3,33.5,38.3L33.5,38.3z M33.5,38.4c0.2,0,0.3,0,0.3,0.1c0.1,0,0.1,0.1,0.1,0.2c0,0,0,0,0,0c0,0.1,0,0.2-0.1,0.2
		c-0.1,0-0.2,0.1-0.3,0.1c0,0-0.1,0-0.1,0c0,0,0-0.5,0-0.6C33.4,38.4,33.5,38.4,33.5,38.4L33.5,38.4z"/>
	<path class="st323" d="M43.2,40.4L43,41.1l0.2,0c0.2,0,0.3,0,0.4,0c0.1,0,0.1-0.1,0.2-0.2c0-0.1,0-0.2,0-0.3
		c-0.1-0.1-0.2-0.1-0.3-0.2L43.2,40.4L43.2,40.4L43.2,40.4z M43.2,40.4c0,0,0.1,0,0.1,0c0.1,0,0.2,0.1,0.3,0.1c0,0,0,0.1,0,0.2
		c0,0,0,0.1,0,0.1c0,0.1-0.1,0.2-0.1,0.2c-0.1,0-0.2,0-0.3,0c0,0-0.1,0-0.1,0C43.1,41,43.2,40.5,43.2,40.4L43.2,40.4z"/>
	<path d="M45.3,23.4L45.3,23.4L45.3,23.4c0.2,0,0.7-0.2,1.1-0.4c0.2-0.1,0.5-0.3,0.6-0.3l0-0.1c-0.1,0-0.3,0.2-0.6,0.3
		C46,23.1,45.5,23.4,45.3,23.4c0.1-0.8,0.3-1.3,1-1.9l0,0C45.5,22.1,45.3,22.6,45.3,23.4L45.3,23.4z"/>
	<path class="st325" d="M62.6,23.5c-0.5,0.2-1.1,0.1-1.4-0.5c-0.6,0.5-1.2,0.6-2.1,0.2L55.4,18l0.6-5.1c0.9,0.5,2,0.6,2.4,0.5
		c2.8-0.3,0.5-2.4,4.5-4.3c1.5-2.7,3.8-3.6,5.2-3.9c6.8-1.3,15.7-0.6,22.6-0.7l8.9-0.1c-0.5,1.4-2.5,2.2-4.4,2.6
		c-0.5,1.2-1.2,1.9-2.7,2.6c-0.1,0.5-0.5,1.9-3.9,3.1c-0.7,2-4.3,3.4-7.5,4c-0.8,1.6-3.6,2.1-5,1.9c-0.1,0.4-1.1,1-1.5,0.9
		c0.1,0.2,0.1,1-0.8,0.8c0.2,0.6,0.1,1-0.2,1.1c-0.3,0.2-0.8,0.2-1.2,0.1c-0.1,0.4-0.4,0.5-0.8,0.5c-0.4,0-0.9-0.1-1.2-0.3
		c0,0.5-0.3,0.7-0.8,0.7c-0.5,0-1.1-0.3-1.4-0.6c-0.1,0.6-0.6,0.8-1.1,0.8c-0.4,0-0.8-0.1-1-0.2c0,0.4-0.4,0.6-0.8,0.6
		c-0.6,0-1.4-0.6-1.5-1C63.5,22.9,63.1,23.3,62.6,23.5L62.6,23.5z"/>
	<path d="M68,5c-1.1,0.2-3.7,1-5.3,3.9c-2.2,1-2.6,2.2-2.9,3c-0.2,0.7-0.4,1.1-1.5,1.2c-0.4,0-1.4-0.1-2.3-0.5l-0.3-0.2l-0.6,5.6
		l3.8,5.2l0.1,0c0.9,0.3,1.6,0.3,2.2-0.1c0.4,0.5,0.9,0.7,1.6,0.4c0.4-0.2,0.8-0.5,1-0.9c0.4,0.4,1,0.7,1.5,0.7
		c0.4,0,0.8-0.2,0.9-0.6c0.3,0.1,0.6,0.1,0.9,0.1c0.6,0,1-0.3,1.3-0.7c0.3,0.2,0.8,0.4,1.2,0.4c0.4,0,0.7-0.1,0.8-0.2
		c0.1-0.1,0.2-0.2,0.2-0.3c0.3,0.1,0.6,0.2,1,0.2c0.4,0,0.8-0.2,0.9-0.5c0.5,0,0.9,0,1.2-0.2c0.2-0.1,0.4-0.4,0.4-0.8
		c0-0.1,0-0.1,0-0.2c0.3,0,0.5-0.1,0.6-0.3c0.1-0.2,0.2-0.4,0.2-0.6c0,0,0,0,0,0c0.5-0.1,1.1-0.5,1.4-0.9c1.4,0.1,4.1-0.4,5-1.9
		c3-0.6,6.7-2,7.5-4.1c2.3-0.8,3.6-1.9,3.9-3.2c1.4-0.6,2.2-1.3,2.7-2.5c1.4-0.3,3.8-1.1,4.4-2.8l0.1-0.4l-9.3,0.1
		c-1.8,0-3.8,0-5.9-0.1C79.3,4.1,73,4,68,5L68,5z M58.4,13.7c1.5-0.2,1.7-0.9,2-1.6c0.3-0.8,0.6-1.8,2.6-2.7l0.1,0l0-0.1
		c1.5-2.8,4-3.5,5-3.7c4.9-1,10.9-0.9,16.7-0.7c2.1,0,4,0.1,5.9,0.1c0,0,7.6-0.1,8.4-0.1c-0.6,0.9-2,1.7-4,2.1l-0.1,0L95,7
		c-0.5,1.2-1.2,1.8-2.6,2.4l-0.1,0.1l0,0.1c-0.2,1.2-1.5,2.2-3.7,2.9l-0.1,0l0,0.1c-0.7,1.9-4.2,3.3-7.3,3.9l-0.1,0l-0.1,0.1
		c-0.8,1.5-3.5,1.9-4.7,1.8l-0.2,0l-0.1,0.2c-0.1,0.3-0.9,0.8-1.2,0.8l-0.4,0l0.1,0.4c0,0.1,0,0.3,0,0.4c-0.1,0.1-0.4,0.1-0.5,0.1
		l-0.4-0.1l0.1,0.4c0.2,0.7,0,0.8-0.1,0.8c-0.1,0.1-0.4,0.2-1,0.1l-0.2,0l-0.1,0.2c0,0.1-0.1,0.3-0.5,0.3c-0.4,0-0.8-0.1-1-0.3
		l-0.4-0.2l0,0.5c0,0.1,0,0.2-0.1,0.3c-0.1,0.1-0.2,0.1-0.5,0.1c-0.5,0-1-0.3-1.2-0.5L68,21.5L67.9,22c-0.1,0.5-0.6,0.6-0.9,0.6
		c-0.3,0-0.7-0.1-0.9-0.2l-0.3-0.2l0,0.4c0,0.3-0.4,0.4-0.5,0.4c-0.5,0-1.2-0.5-1.3-0.8l-0.3-0.8l-0.2,0.8c-0.1,0.4-0.5,0.8-0.9,1
		c-0.2,0.1-0.8,0.2-1.1-0.4l-0.2-0.3l-0.3,0.2c-0.5,0.4-1,0.5-1.8,0.2c-0.1-0.1-3.5-4.8-3.6-4.9c0-0.2,0.5-4.1,0.5-4.7
		C57,13.6,57.9,13.7,58.4,13.7L58.4,13.7z"/>
	<path class="st325" d="M42.9,22c-0.5,0.2-0.9,0.3-1.3,0.3c-0.4,0-0.7-0.1-1-0.4c-0.4,0.6-0.9,0.9-1.4,0.9c-0.6,0-1.1-0.4-1.3-1
		c-0.3,0.5-1.1,1.4-1.9,1.4c-0.3,0-0.6-0.2-0.7-0.7c-0.3,0.1-0.7,0.3-1.1,0.3c-0.5,0-0.8-0.1-0.8-0.6c-0.4,0.3-1.1,0.5-1.5,0.5
		c-0.4,0-0.7-0.2-0.6-0.7c-0.1,0.1-0.8,0.5-1.3,0.4c-0.3,0-0.5-0.2-0.6-0.5c-0.4,0.1-0.9,0-1.3-0.3c-0.4-0.2-0.6-0.6-0.6-1.2
		c-1.3,0.3-1.3-0.7-1.3-0.9c-0.4-0.1-1.1-0.4-1.3-0.8c-1.7,0-3.8-0.1-5-1.6c0,0,0-0.1,0-0.1c-2.6-0.1-6.3-1.5-7.1-3.5
		c-3.1-1.2-4.1-2.4-4.3-3.1C7,10,5.6,9.4,5.2,8c-2-0.3-4.4-1.7-4.9-3.2l9.7-0.1C17,4.8,25.9,4,32.7,5.4c1.4,0.3,4.2,1.8,5.7,4.5
		c2.5,0.1,3.3,4.1,5.2,4.1c0.7,0,1.8-0.7,2.7-2.3c-0.4,0.1-0.7,0.2-1.1,0.2c-0.3,0-0.6-0.1-0.9-0.1c1.6-0.7,1.5-1.9,1.5-2.4
		c-0.4,0.2-1,0.2-1.5,0.1c0.3-0.4,0.6-1.2,0.5-1.7C44.3,8,44,8.1,43.6,8.2c0-0.5,0-0.8-0.2-1.2c-0.7-1.6-3.1-1.1-3-2.8
		c0.3,0.3,0.7,0.6,1.2,0.6c0.2,0,0.5-0.1,0.7-0.3c0.1-0.1,0.2-0.3,0.2-0.5c0-0.2-0.1-0.5-0.2-0.7c-0.4-0.5-0.9-0.7-1.5-0.7
		c-0.8,0-1.7,0.5-1.9,0.6c0.1-1.4,1.4-2.1,2.6-2.1c0.7,0,1.5,0.3,1.8,0.7c0.8-0.6,1.7-0.6,2.8,0c1.2,0.6,4,1.4,5.4,1
		c-0.3,0.7-1.1,0.9-1.5,1c1,0,2,0.1,2.7,0.3c-0.6,0.3-1,0.6-1.5,0.9c0.9,0.1,1.7,0.1,2.4,0.5c-0.6,0.1-0.9,0.4-1,0.7
		c0.4,0.4,1.2,0.4,2,0.6c0.7,0.2,1.5,0.6,1.9,1.7c-0.4,0-0.9,0.1-1.3,0.2c1,0.8,1.7,1.6,2,2.2c-0.5,0-0.9,0.1-1.2,0.3
		c0.9,0.7,1.6,1.3,2.1,2.1c-0.5,0.1-1,0.2-1.6,0.3c0.8,0.6,1.5,1.3,1.8,2c-0.3-0.1-0.8-0.1-1.1-0.1c0.9,0.9,1.7,1.9,2,2.8
		c-0.3-0.1-0.7-0.2-1.1-0.3c0.2,0.7,0.4,1.4,0.4,2.1c1.5,1.1,2.3,2.3,2.2,4.2c-0.4-0.2-0.7-0.3-1.1-0.4c0.5,0.9,0.5,1.8,0.1,2.9
		c-0.3-0.3-0.5-0.6-0.8-0.7c0,1.1-0.2,2.1-0.5,2.8l-0.4-0.7c-0.5,1.1-1.5,2.4-2.5,2.1c-0.8,0.8-1.6,1.1-2.9,1.7
		c-0.2-0.2-0.5-0.4-0.7-0.6c-0.4,0.3-0.6,0.6-0.9,1.1c-0.3-0.4-0.5-0.7-0.9-0.9l-1,0.4c-2.3-1.5-4.3-1.9-4.1-4.1
		c-0.3,0.1-0.5,0.4-0.8,0.6c-0.3-0.7-0.3-2-0.1-3.1c-0.4,0.1-0.6,0.1-1,0.3c0-0.4,0-1.4,0.5-2.4c-0.6,0.1-0.7,0.4-1,0.6
		C42.3,23.3,42.5,22.6,42.9,22L42.9,22z"/>
	<path d="M41.4,0.9c-1.3,0-2.7,0.7-2.9,2.4l0,0.5l0.4-0.3c0.3-0.2,1.1-0.6,1.8-0.6c0.6,0,1,0.2,1.2,0.6c0.1,0.2,0.2,0.4,0.2,0.5
		c0,0.1,0,0.2-0.1,0.3c-0.1,0.1-0.3,0.2-0.5,0.2c-0.4,0-0.8-0.3-1-0.5l-0.4-0.5l0,0.7c0,1.1,0.8,1.5,1.5,1.8
		c0.6,0.3,1.2,0.5,1.5,1.2c0.1,0.3,0.2,0.7,0.2,1.1l0,0.3l0.3-0.1c0.3-0.1,0.6-0.2,0.9-0.4c-0.1,0.4-0.2,0.8-0.4,1l-0.2,0.3l0.4,0.1
		c0.4,0.1,0.9,0.1,1.3,0.1c0,0.6-0.2,1.3-1.3,1.8l-0.6,0.3l0.7,0.2c0.3,0.1,0.7,0.1,1,0.2c0.2,0,0.4,0,0.6,0
		c-0.8,1.2-1.6,1.7-2.2,1.7c-0.8,0-1.4-0.9-2.1-1.8c-0.8-1.1-1.6-2.2-3-2.4c-1.5-2.6-4.2-4.2-5.8-4.5c-5.2-1-11.6-0.8-17.3-0.7
		c-1.9,0.1-3.7,0.1-5.3,0.1L0,4.6l0.1,0.3C0.6,6.5,3,7.9,5,8.3c0.5,1.3,1.9,2,3.4,2.5c0.3,0.7,1.3,1.9,4.3,3
		c0.9,2.1,4.6,3.3,7.1,3.5c0,0,0,0,0,0c1.2,1.5,3.5,1.6,5,1.7c0.3,0.4,0.8,0.6,1.2,0.7c0,0.2,0.1,0.5,0.2,0.7c0.2,0.2,0.5,0.4,1,0.3
		c0,0.4,0.3,0.8,0.7,1.1c0.4,0.2,0.8,0.4,1.3,0.4c0.1,0.3,0.4,0.5,0.7,0.5c0.3,0,0.7-0.1,1-0.2c0,0.1,0.1,0.2,0.1,0.2
		c0.1,0.2,0.4,0.3,0.7,0.3c0.4,0,0.9-0.2,1.3-0.4c0,0.1,0.1,0.2,0.2,0.3c0.2,0.2,0.5,0.3,0.9,0.2c0.3,0,0.6-0.1,0.9-0.2
		c0.2,0.6,0.6,0.6,0.9,0.7c0.8,0,1.5-0.7,1.9-1.2c0.3,0.5,0.8,0.8,1.4,0.8c0.6,0,1.1-0.3,1.5-0.8c0.3,0.2,0.6,0.3,0.9,0.3
		c0.2,0,0.5,0,0.7-0.1C42.2,23,42,23.5,42,24v0.6l0.6-0.6c0.1-0.1,0.1-0.1,0.2-0.2c-0.2,0.5-0.3,1-0.3,1.6c0,0.1,0,0.2,0,0.3l0,0.4
		l0.4-0.2c0.2-0.1,0.4-0.2,0.6-0.2c0,0.3-0.1,0.7-0.1,1.1c0,0.7,0.1,1.3,0.2,1.8l0.1,0.4l0.4-0.4c0.1-0.1,0.2-0.2,0.2-0.2
		c0.1,1.4,1.2,2.1,2.6,2.9c0.5,0.3,1,0.6,1.6,1l0.1,0.1c0,0,0.8-0.3,1-0.4c0.2,0.2,0.5,0.5,0.7,0.8l0.2,0.3l0.2-0.3
		c0.2-0.4,0.5-0.6,0.7-0.9c0,0,0,0,0,0c0.2,0.1,0.4,0.3,0.5,0.4l0.1,0.1l0.7-0.3c0.9-0.4,1.6-0.7,2.3-1.4c0.9,0.2,1.8-0.8,2.4-1.8
		c0.1,0.1,0.4,0.7,0.4,0.7l0.2-0.4c0.3-0.6,0.5-1.4,0.5-2.4c0.1,0.1,0.3,0.2,0.4,0.4l0.3,0.4l0.2-0.5c0.2-0.6,0.3-1,0.3-1.5
		c0-0.4-0.1-0.7-0.2-1.1c0.2,0.1,0.3,0.1,0.5,0.2l0.4,0.2l0-0.4c0-0.1,0-0.3,0-0.4c0-1.6-0.7-2.8-2.2-4c0-0.5-0.2-1.1-0.3-1.6
		c0.2,0,0.5,0.1,0.6,0.2l0.5,0.2l-0.1-0.5c-0.3-0.9-0.9-1.8-1.6-2.5c0.1,0,0.3,0,0.4,0.1l0.5,0.1l-0.2-0.5c-0.3-0.6-0.8-1.2-1.4-1.7
		c0.3-0.1,0.7-0.2,1-0.2l0.4,0L58,13.2c-0.4-0.7-1.1-1.3-1.8-1.8c0.2-0.1,0.5-0.1,0.7-0.1l0.4,0l-0.1-0.3c-0.2-0.6-0.8-1.3-1.7-2
		c0.2,0,0.5-0.1,0.7-0.1h0.4l-0.1-0.4c-0.5-1.3-1.4-1.6-2.1-1.8l-0.7-0.2c-0.4-0.1-0.7-0.1-1-0.3c0.1-0.1,0.4-0.3,0.7-0.3l0.7-0.2
		l-0.7-0.3C53,5.1,52.5,5,51.9,4.9c0.2-0.1,1.3-0.7,1.3-0.7L52.6,4c-0.5-0.1-1-0.2-1.6-0.3c0.2-0.2,0.5-0.4,0.6-0.7l0.2-0.5
		l-0.5,0.1c-1.2,0.3-4-0.4-5.2-1c-1.1-0.6-2-0.6-2.8,0C42.8,1.1,42,0.9,41.4,0.9L41.4,0.9z M41.4,1.4C42,1.4,42.7,1.7,43,2l0.2,0.2
		l0.2-0.1c0.7-0.5,1.5-0.5,2.5,0c1.1,0.6,3.3,1.2,4.9,1.2c-0.3,0.2-0.6,0.3-0.9,0.4l-2,0.5l2.1,0c0.7,0,1.4,0.1,2,0.2
		c-0.2,0.1-0.4,0.2-0.4,0.2l-1.3,0.7L51,5.3l0.2,0c0.5,0,1,0.1,1.5,0.2c-0.3,0.2-0.5,0.4-0.5,0.6l0,0.2l0.1,0.1
		c0.3,0.3,0.9,0.4,1.4,0.5l0.7,0.2c0.5,0.1,1.1,0.4,1.6,1.2c-0.4,0-0.7,0.1-1,0.2l-0.4,0.2L54.9,9c0.8,0.7,1.4,1.3,1.7,1.8
		c-0.3,0-0.7,0.1-1,0.3l-0.4,0.2l0.3,0.3c0.8,0.6,1.4,1.2,1.8,1.7c-0.4,0.1-0.8,0.1-1.2,0.3l-0.5,0.1l0.4,0.3
		c0.6,0.5,1.1,0.9,1.5,1.4c-0.2,0-0.4,0-0.6,0l-0.6,0.1l0.4,0.4c0.8,0.8,1.4,1.5,1.7,2.2c-0.2,0-0.4-0.1-0.6-0.1l-0.4-0.1l0.1,0.4
		c0.2,0.7,0.4,1.4,0.4,2l0,0.1l0.1,0.1c1.4,1.1,2.1,2.2,2.1,3.6c-0.3-0.1-0.5-0.2-0.8-0.2l-0.5-0.1l0.3,0.5c0.2,0.4,0.4,0.9,0.4,1.3
		c0,0.3-0.1,0.6-0.1,0.9c-0.2-0.2-0.4-0.3-0.6-0.4l-0.4-0.2c0,0,0,0.4,0,0.4c0,0.9-0.1,1.6-0.3,2.2c-0.1-0.1-0.4-0.7-0.4-0.7
		l-0.2,0.4c-0.5,1.1-1.5,2.2-2.2,2l-0.2,0L55,30.3c-0.7,0.7-1.3,0.9-2.2,1.4c0,0-0.2,0.1-0.4,0.2c-0.1-0.1-0.3-0.2-0.4-0.3l-0.4-0.3
		l-0.2,0.1c-0.3,0.2-0.5,0.5-0.8,0.9c-0.2-0.3-0.4-0.5-0.7-0.7l-0.1-0.1c0,0-0.9,0.3-1.1,0.4c-0.5-0.4-1-0.7-1.5-0.9
		c-1.4-0.8-2.4-1.3-2.4-2.6c0-0.1,0-0.2,0-0.3l0-0.4l-0.4,0.1c-0.2,0.1-0.4,0.2-0.6,0.4C44,27.8,44,27.4,44,26.9
		c0-0.4,0-0.9,0.1-1.3l0-0.3l-0.3,0c-0.3,0-0.5,0.1-0.7,0.2c0-0.7,0.2-1.3,0.4-1.9l0.3-0.5l-0.6,0.1c-0.3,0.1-0.4,0.1-0.6,0.2
		c0.1-0.4,0.2-0.8,0.5-1.2l0.5-0.7l-0.8,0.3c-0.5,0.2-0.8,0.3-1.2,0.3c-0.3,0-0.6-0.1-0.9-0.3l-0.2-0.2l-0.1,0.2
		c-0.3,0.5-0.7,0.8-1.2,0.8c-0.5,0-0.9-0.3-1.1-0.8l-0.2-0.4l-0.3,0.4C37.2,22.3,36.6,23,36,23c-0.1,0-0.3,0-0.4-0.5l-0.1-0.3
		l-0.3,0.1c-0.3,0.2-0.7,0.3-1,0.3c-0.2,0-0.4,0-0.4-0.1c-0.1-0.1-0.1-0.1-0.1-0.3l0-0.5L33.3,22c-0.4,0.2-1,0.5-1.4,0.5
		c-0.2,0-0.3,0-0.3-0.1c0-0.1,0-0.2,0-0.3l0.2-0.8l-0.6,0.6c-0.1,0.1-0.6,0.4-1.1,0.3c-0.2,0-0.3-0.1-0.3-0.3l-0.1-0.2l-0.2,0
		c-0.4,0-0.8,0-1.1-0.3c-0.2-0.2-0.5-0.4-0.4-0.9l0-0.4l-0.4,0.1c-0.3,0.1-0.6,0.1-0.8-0.1c-0.1-0.1-0.1-0.3-0.1-0.4
		c0,0,0-0.1,0-0.1l0.1-0.3l-0.3-0.1c-0.4-0.1-1-0.3-1.1-0.6l-0.1-0.2l-0.2,0c-1.4,0-3.6-0.1-4.7-1.4c0,0,0-0.1,0-0.1
		c-0.1-0.1-0.1-0.1-0.2-0.1c-2.7-0.1-6.2-1.5-6.8-3.3l0-0.1l-0.1,0c-3.2-1.2-4-2.4-4.2-2.9l0-0.1l-0.1,0C7,9.7,5.8,9.1,5.5,8l0-0.2
		l-0.2,0C3.4,7.5,1.4,6.3,0.8,5.1c0.8,0,9.3-0.1,9.3-0.1c1.7,0,3.5-0.1,5.4-0.1c5.7-0.2,12.1-0.3,17.2,0.7c1.4,0.3,4.2,1.9,5.5,4.3
		l0.1,0.1l0.2,0c1.2,0,2,1.1,2.8,2.2c0.7,1,1.4,2,2.5,2c0.7,0,1.9-0.6,2.9-2.4l0.3-0.6l-0.6,0.2c-0.3,0.1-0.7,0.2-1,0.1
		c-0.1,0-0.1,0-0.2,0c0.9-0.7,1-1.7,1-2.1l0-0.6L45.7,9c-0.2,0.1-0.6,0.1-0.9,0.1c0.2-0.3,0.3-0.8,0.3-1.2c0-0.1,0-0.3,0-0.4
		l-0.1-0.4l-0.3,0.3c-0.3,0.2-0.5,0.4-0.8,0.5c0-0.4-0.1-0.7-0.2-1c-0.4-0.9-1.1-1.2-1.8-1.4c-0.4-0.2-0.8-0.4-1-0.6
		C41.1,5,41.3,5,41.5,5c0.3,0,0.6-0.1,0.9-0.4c0.2-0.2,0.2-0.4,0.2-0.7c0-0.3-0.1-0.6-0.3-0.9c-0.4-0.5-1-0.8-1.7-0.8
		c-0.6,0-1.2,0.2-1.6,0.4C39.5,1.8,40.5,1.4,41.4,1.4L41.4,1.4z M19.9,17.1L19.9,17.1L19.9,17.1C19.9,17.1,19.9,17.1,19.9,17.1
		L19.9,17.1z"/>
	<path class="st325" d="M45.6,26.5c0,1.5-0.5,4.2-1.9,5.2c-1.1,0.8-2.8,0.3-3.6,1.4l0.1,0.7c1.3,0,1.5,0.1,2.9-0.8
		c-0.9,0.6-1.4,1-1.5,2c0.3,0.1,0.5,0.4,0.7,0.5c0.4-0.4,0.9-0.9,1.5-1.9c-0.1,0.7-0.4,1.2-0.4,2c0.3,0,0.6-0.1,0.9,0
		c0.3-0.6,1-1.9,1-2.5c0.8,0,1.3-0.1,2.1-0.3c0.3-0.1,0.7,0,1.1,0c0-0.3,0-0.6,0-0.9c-0.8-0.3-0.9-0.5-1.9-1
		c-0.4-0.8,0.1-2.1,0.4-3.4c-0.5-0.2-0.8-0.6-1-1.2C45.8,26.3,45.7,26.4,45.6,26.5L45.6,26.5z"/>
	<path d="M45.8,26l-0.5,0.3l0,0.1c0,1.5-0.5,4.1-1.8,5c-0.5,0.3-1,0.4-1.6,0.5c-0.8,0.1-1.6,0.2-2.1,1L39.8,33l0.2,1l0.5,0
		c0.4,0,0.8,0,1.1-0.1c-0.2,0.3-0.3,0.6-0.3,1l0,0.2l0.2,0c0.1,0,0.3,0.1,0.4,0.3l0.5,0.4l0.1-0.2l0.2-0.2c0.2-0.2,0.4-0.4,0.6-0.6
		c-0.1,0.2-0.1,0.4-0.1,0.7v0.3l0.3,0c0.3,0,0.6,0,0.8,0l0.2,0l0.2-0.5c0.4-0.8,0.7-1.5,0.8-2.1c0.5,0,1-0.1,1.5-0.2l0.4-0.1l0.4,0
		c0.2,0,0.4,0,0.7,0l0.2,0l0-0.2l0-0.7l0-0.5l-0.2-0.1c-0.4-0.1-0.7-0.3-0.9-0.4c-0.2-0.1-0.5-0.3-0.8-0.5c-0.1-0.1-0.1-0.3-0.1-0.5
		c0-0.5,0.1-1.1,0.3-1.7l0.2-1.1L47,27.2c-0.4-0.2-0.7-0.6-0.9-1l-0.1-0.3L45.8,26L45.8,26z M42.1,32.5c0.6-0.1,1.2-0.2,1.8-0.6
		c1.4-1,1.9-3.6,2-5.2c0.2,0.3,0.5,0.6,0.8,0.8c0,0.2-0.2,0.7-0.2,0.7c-0.2,0.6-0.3,1.3-0.3,1.8c0,0.3,0,0.6,0.2,0.8l0,0.1l0.1,0
		c0.4,0.2,0.7,0.4,0.9,0.5c0.3,0.2,0.5,0.3,0.9,0.4c0,0,0,0.1,0,0.1s0,0.2,0,0.4c-0.1,0-0.3,0-0.4,0l-0.6,0l-0.4,0.1
		c-0.5,0.1-1,0.2-1.6,0.2H45V33c0,0.5-0.5,1.5-0.8,2.1c0,0,0,0.1-0.1,0.2c-0.1,0-0.3,0-0.4,0c0-0.2,0.1-0.5,0.2-0.7
		c0.1-0.3,0.2-0.6,0.2-1l0.1-1.2l-0.6,1c-0.5,0.8-0.9,1.2-1.3,1.6c0,0,0,0,0,0c-0.1-0.1-0.2-0.2-0.4-0.3c0.1-0.8,0.6-1.1,1.4-1.7
		L43,32.7c-1.2,0.8-1.4,0.8-2.4,0.8c0,0,0,0-0.1,0c0-0.1,0-0.2-0.1-0.3C40.8,32.7,41.4,32.6,42.1,32.5L42.1,32.5z"/>
	<path class="st325" d="M41.5,36.6c-0.2-0.3-0.3-1.2,0-1.7c0.2,0.1,0.7,0.2,0.9,0.4C42.1,35.7,41.6,36.3,41.5,36.6L41.5,36.6z"/>
	<path d="M41.3,34.8c-0.4,0.6-0.3,1.6,0,2l0.3,0.4l0.2-0.4c0.2-0.4,0.6-0.9,0.8-1.1l0.2-0.2l-0.2-0.2c-0.2-0.2-0.6-0.4-0.8-0.5
		l-0.3-0.1L41.3,34.8L41.3,34.8z M41.5,35.8c0-0.2,0-0.4,0.1-0.5c0.1,0,0.2,0.1,0.3,0.1c-0.1,0.2-0.3,0.3-0.4,0.5
		C41.5,35.9,41.5,35.9,41.5,35.8L41.5,35.8z"/>
	<path d="M49.4,24.7c0.3,0.3,0.7,1.2,0.7,2c0,0.2,0,0.3,0,0.5c-0.1,0.4-0.3,0.8-0.6,1c-0.2-0.6-0.6-1.5-1.3-1.9l-0.2-0.1l-0.1,0.2
		c-0.2,0.3-0.3,0.6-0.4,1c-0.6-0.2-1-0.6-1.2-1.1l-0.1-0.3L45.8,26c-0.4,0.2-0.8,0.6-1.1,0.9c0,0,0,0,0,0c-0.4-0.5-0.6-0.9-0.6-1.4
		l0-0.3l-0.8,0.1l0.1,0.5c0,0,0.1,0,0.1,0c0.1,0.6,0.3,1.1,0.8,1.7l0.2,0.2l0.2-0.2l0.3-0.2c0.2-0.2,0.5-0.5,0.7-0.6
		c0.3,0.6,0.9,1.1,1.7,1.3l0.3,0.1l0-0.3c0-0.3,0.1-0.6,0.2-0.8c0.6,0.5,0.9,1.5,0.9,1.7l0,0.4l0.3-0.1c0.7-0.3,1.1-0.8,1.2-1.5
		c0.2-1.1-0.3-2.5-0.7-3L49.4,24.7L49.4,24.7z"/>
	<path d="M49.5,10c-0.3,1.2-0.9,1.6-1.6,1.7C48,11.5,48,11.3,48,11c0-0.2,0-0.3-0.1-0.5l-0.1-0.6l-0.3,0.5c-0.4,0.7-1,1-1.9,1.1
		l0,0.5c0.7,0,1.3-0.3,1.8-0.8c0,0.2-0.1,0.5-0.2,0.6l-0.3,0.5l0.6-0.1c0.7-0.1,1.7-0.3,2.3-1.6c0,0.2,0.1,0.3,0.1,0.5
		c0,0.1,0,0.3,0,0.4l-0.1,0.6l0.5-0.3c0.9-0.5,1.1-1.1,1.1-1.9l-0.5,0c0,0.5-0.1,0.8-0.4,1.2c0-0.4-0.1-0.8-0.4-1.3l-0.3-0.5
		L49.5,10L49.5,10z"/>
	<path d="M44.2,2.6c-0.4,0-0.7,0.3-0.7,0.6c0,0.2,0.1,0.4,0.2,0.6c0.1,0.2,0.2,0.4,0.2,0.6h0.5c0-0.4-0.2-0.7-0.3-0.9
		C44.1,3.5,44,3.4,44,3.3c0-0.1,0-0.2,0.2-0.2c0.3,0,0.7,0.2,1.1,0.5C46,4,46.8,4.6,48,4.6L48,4c-1,0-1.8-0.4-2.4-0.8
		C45.1,2.9,44.7,2.6,44.2,2.6L44.2,2.6z"/>
	<path d="M44,3.1c0.1,0.6,0.5,1.2,1.3,1.4c0.2,0.1,0.6,0.1,0.9-0.1c0.1-0.1,0.2-0.3,0.2-0.6l-0.5,0c0,0.1,0,0.1,0,0.2
		c-0.1,0-0.2,0.1-0.4,0c-0.5-0.1-0.8-0.6-0.9-1L44,3.1L44,3.1z"/>
	<path d="M53,9.2c0.3,0.3,0.4,0.6,0.4,0.9c-0.5-0.3-1-0.5-1.4-0.5l0,0.5c0.5,0,1.1,0.3,1.5,0.7l0.3,0.3l0.1-0.4
		c0.2-0.6,0-1.2-0.5-1.9L53,9.2L53,9.2z"/>
	<path d="M53.8,12.2c0.1,0.2,0.2,0.4,0.2,0.7c-0.3-0.3-0.6-0.5-1.1-0.7l-0.1,0.5c0.5,0.1,0.8,0.4,1.2,1l0.3,0.5l0.2-0.5
		c0.2-0.7,0-1.4-0.2-1.8L53.8,12.2L53.8,12.2z"/>
	<path d="M47.1,15.3l0.1,0.5l0.4-0.4c0.4-0.4,1.3-0.8,1.6-0.9L49,14c-0.3,0-0.9,0.3-1.5,0.6c0.1-0.4,0.2-0.8,0.5-1l-0.3-0.4
		C47.2,13.7,46.9,14.4,47.1,15.3L47.1,15.3z"/>
	<path d="M51.9,15.3c0.1,0.2,0.2,0.6,0.2,0.9c0,0.1,0,0.3,0,0.4c-0.4-0.6-0.9-1.1-1.4-1.4l-0.2,0.5c0.6,0.3,1.2,0.9,1.5,1.7l0.2,0.5
		l0.3-0.5c0.4-0.7,0.4-1.8,0-2.4L51.9,15.3L51.9,15.3z"/>
	<path d="M55,15.1c0.2,0.4,0.3,0.7,0.3,1.2c0,0,0,0,0,0.1c-0.4-0.4-0.8-0.9-1.5-1.2l-0.2,0.5c0.7,0.3,1.1,0.8,1.5,1.3l0.5,0.7
		l0.1-0.6c0.2-0.8,0.1-1.6-0.3-2.2L55,15.1L55,15.1z"/>
	<path d="M55.4,18c0.2,0.2,0.2,0.5,0.2,0.8c0,0.1,0,0.2,0,0.2c-0.3-0.5-0.8-1-1.5-1.2l-0.2,0.5c0.7,0.2,1.3,1,1.5,1.4l0.2,0.5
		l0.3-0.5c0.3-0.5,0.4-1.4-0.1-2.1L55.4,18L55.4,18z"/>
	<path d="M46.4,19.3l0,0.6l0.4-0.4c0.4-0.5,1.3-1,1.8-1.1l-0.1-0.5c-0.5,0.1-1.1,0.5-1.6,0.9c0.1-0.6,0.4-1.1,1-1.3l-0.2-0.5
		C46.8,17.2,46.3,18.2,46.4,19.3L46.4,19.3z"/>
	<path d="M44.1,16.1v0.5l0.4-0.3c0.5-0.3,1.1-0.7,1.4-0.7l-0.2-0.5c-0.3,0.1-0.7,0.3-1.1,0.5c0.1-0.6,0.3-1.3,0.9-1.7l-0.3-0.5
		C44.2,14.2,44.1,15.6,44.1,16.1L44.1,16.1z"/>
	<path d="M55.7,21.2c0.4,0.3,0.9,0.9,1.1,1.6l0.1,0.4l0.3-0.3c0.7-0.7,0.4-1.5,0.4-1.9l0-0.1L57,21l0,0.1c0,0.2,0.1,0.4,0.1,0.6
		c0,0.1,0,0.3-0.1,0.4c-0.3-0.6-0.7-1-1-1.3L55.7,21.2L55.7,21.2z"/>
	<path d="M52.2,22.5l0,0.6l0.4-0.4c0.5-0.5,1.1-0.9,1.7-1l-0.2-0.5c-0.4,0.1-0.9,0.4-1.3,0.7c0.1-0.4,0.4-0.9,0.8-1l-0.2-0.5
		C52.6,20.7,52.2,21.7,52.2,22.5L52.2,22.5z"/>
	<path d="M49.4,20.9c0.4,0.1,0.8,0.7,0.9,1.2c-0.5-0.3-0.9-0.5-1.3-0.6l-0.3-0.1l-0.2,0.5l0.3,0.1c0.5,0.1,1,0.3,1.6,0.9l0.4,0.4
		l0.1-0.6c0.1-0.9-0.6-2.1-1.4-2.4L49.4,20.9L49.4,20.9z"/>
	<polygon points="43,1.8 43,2.5 43.5,2.5 43.5,1.8 	"/>
	<path d="M43.5,18.9l0,0.5l0.7-0.5c0.2-0.1,0.3-0.3,0.5-0.4c-0.2,0.5-0.4,1.1-0.4,1.6c0,0.2,0,0.3,0,0.5l0.5-0.1
		c-0.1-0.8,0.1-1.6,0.6-2.4l0.4-0.5l-0.6,0.1c-0.4,0.1-0.7,0.3-1,0.5c0.2-0.5,0.7-1,1.1-1.1l-0.1-0.5C44.3,16.8,43.5,17.9,43.5,18.9
		L43.5,18.9z"/>
	<polygon points="44.5,20.3 44.8,20.8 44.8,20.7 44.6,20.3 	"/>
	<path d="M42.6,22l0.4,0.3c0.6-1,1.5-1.6,2.4-1.6l0-0.5C44.4,20.2,43.3,20.9,42.6,22L42.6,22z"/>
	<path d="M9.8,5c1.4,2.1,2.7,3.2,5.5,3.2c2.2,0,4.8-0.7,6.5-1.2l-0.1-0.5c-1.7,0.5-4.2,1.2-6.3,1.2c-2.6,0-3.7-1-5-3L9.8,5L9.8,5z"
		/>
	<path d="M12.7,7.7c0.8,1.7,2.3,2.5,4.6,2.4c2.7,0,3.9-0.3,5.3-0.7l-0.1-0.5c-1.3,0.4-2.5,0.7-5.2,0.7c-2.1,0-3.4-0.7-4.1-2.1
		L12.7,7.7L12.7,7.7z"/>
	<path d="M22.3,12.2c0.7,1.4,2.5,2.2,5,2.2c1.6,0,3.5-0.4,5.3-1l-0.2-0.5c-1.7,0.6-3.5,1-5.1,1c-2.3,0-3.9-0.7-4.5-1.9L22.3,12.2
		L22.3,12.2z"/>
	<path d="M16.8,10.1c1.1,1.3,3.4,2.2,5.7,2.2c0.9,0,4,0,6.3-1l-0.2-0.5c-2.2,0.9-5.2,0.9-6.1,0.9c-2.5-0.1-4.6-1.1-5.4-2L16.8,10.1
		L16.8,10.1z"/>
	<path d="M24.9,14.1c0.4,0.9,1,1.5,2,1.9c2.3,0.8,5.7-0.1,7.4-1.1l-0.3-0.5c-1.5,0.9-4.8,1.8-6.9,1c-0.8-0.3-1.4-0.8-1.7-1.6
		L24.9,14.1L24.9,14.1z"/>
	<path d="M31.1,17.5c0.2,0.5,0.7,0.8,1.3,1c1,0.3,2.5,0.1,3.5-0.5l-0.3-0.5c-0.9,0.5-2.2,0.7-3.1,0.5c-0.5-0.1-0.8-0.4-1-0.7
		L31.1,17.5L31.1,17.5z"/>
	<path d="M28.4,16.2c0.3,0.4,0.9,1.3,2.5,1.4c1.2,0.1,2.7-0.2,4.5-0.9l-0.2-0.5c-1.8,0.7-3.2,1-4.3,0.9c-1.4-0.1-1.8-0.8-2.1-1.2
		L28.4,16.2L28.4,16.2z"/>
	<path d="M33.3,18.4c0,0.5,0.6,1,1.3,1.3c0.5,0.2,1.8,0.5,2.9-0.7l-0.4-0.4c-0.9,0.9-2,0.7-2.4,0.5c-0.6-0.2-1-0.6-1-0.8L33.3,18.4
		L33.3,18.4z"/>
	<path d="M39,19.6c-0.2,0.5-0.8,0.8-1.6,0.7c-0.6,0-1.4-0.3-1.8-0.9l-0.5,0.2c0.4,0.7,1.2,1.2,2.2,1.2c0.8,0,1.5-0.3,1.9-0.7
		c0.4,0.4,1,0.6,1.5,0.6c0.6,0,1.2-0.3,1.7-0.8c0.4,0.1,0.9,0.1,1.3-0.1l-0.2-0.5c-0.4,0.1-0.8,0.1-1.1,0l-0.2,0l-0.1,0.1
		c-0.4,0.5-0.9,0.7-1.4,0.8c-0.5,0-1-0.2-1.3-0.7l-0.3-0.4L39,19.6L39,19.6z"/>
	<path d="M5.4,7.8L5.3,8.3c2.4,0.5,5.5,0.2,8-0.1l-0.1-0.5C10.8,8,7.7,8.2,5.4,7.8L5.4,7.8z"/>
	<path d="M8.7,10.3l-0.1,0.5c2.6,0.6,6.4,0.5,8.9-0.2l-0.1-0.5C14.9,10.8,11.2,10.9,8.7,10.3L8.7,10.3z"/>
	<path d="M13,13.8c4.4,1.6,10.2,0.6,11.9,0.3l-0.1-0.5c-1.7,0.3-7.4,1.3-11.6-0.2L13,13.8L13,13.8z"/>
	<path d="M20.2,16.8v0.5c2.3,0,5.7-0.6,6.9-1.3l-0.2-0.5C25.7,16.2,22.4,16.8,20.2,16.8L20.2,16.8z"/>
	<path d="M25.1,18.5l0,0.5c1.2,0,4-0.7,5.2-1.6L30,17C28.9,17.9,26.1,18.5,25.1,18.5L25.1,18.5z"/>
	<path d="M26.4,19.3l0,0.5c1.7,0.1,4.2-0.2,5.8-1.7l-0.4-0.4C30.3,19.1,28,19.4,26.4,19.3L26.4,19.3z"/>
	<path d="M29.3,21.7l0.3,0.4c0.4-0.3,0.8-0.8,1.1-1.3l-0.4-0.3C30,21,29.6,21.4,29.3,21.7L29.3,21.7z"/>
	<path d="M31.1,21.8l0.3,0.4c0.4-0.3,0.7-0.6,1-1.1L32,20.8C31.7,21.3,31.4,21.6,31.1,21.8L31.1,21.8z"/>
	<polygon points="33.3,21.9 33.2,22 33.6,22.4 33.7,22.3 34.3,21.6 33.9,21.2 	"/>
	<polygon points="35.1,22.3 35.5,22.7 36.4,21.7 35.9,21.4 	"/>
	<path d="M19.6,7.4c0.4,1,1.4,2,2.5,2c1.4,0,3.4-0.6,4.9-1.5l-0.3-0.5c-1.5,0.9-3.4,1.5-4.7,1.4c-0.9,0-1.7-0.9-2-1.7L19.6,7.4
		L19.6,7.4z"/>
	<path d="M25.5,9.7c-0.8,0-1.4-0.3-1.9-0.9l-0.4,0.4c0.6,0.7,1.4,1,2.3,1c1.5,0,3.2-0.9,4.7-1.9L29.8,8C28.5,8.8,26.9,9.7,25.5,9.7
		L25.5,9.7z"/>
	<path d="M31.4,9.5c-0.9,0.6-1.9,1.3-2.8,1.3c-0.7,0-1.3-0.3-1.9-1l-0.4,0.3c0.7,0.8,1.4,1.2,2.3,1.2c1.1,0,2.1-0.7,3.1-1.4l0.5-0.3
		l-0.3-0.4L31.4,9.5L31.4,9.5z"/>
	<path d="M30.8,11.5c-0.9,0-1.1-0.3-1.3-0.6L29,11.1c0.3,0.7,0.9,1,1.8,0.9c1-0.1,2.2-0.6,3.2-1.6l-0.4-0.4
		C32.8,10.9,31.7,11.5,30.8,11.5L30.8,11.5z"/>
	<path d="M32.1,12.3c-0.3-0.1-0.6-0.3-0.7-0.6l-0.5,0.3c0.2,0.4,0.6,0.7,1.1,0.9c0.9,0.3,2.1-0.1,3.6-0.9l-0.3-0.5
		C33.6,12.4,32.6,12.4,32.1,12.3L32.1,12.3z"/>
	<path d="M32,12.6c0.2,0.6,0.5,1,1,1.2c1.5,0.6,3.7-0.4,4.2-0.6L37,12.7c-0.9,0.4-2.7,1-3.7,0.6c-0.4-0.2-0.6-0.4-0.7-0.9L32,12.6
		L32,12.6z"/>
	<path d="M33.5,14c0.9,1.7,2.3,1.9,5.1,0.8l-0.2-0.5c-2.9,1.1-3.8,0.7-4.5-0.6L33.5,14L33.5,14z"/>
	<path d="M35.5,15.4c0.3,0.6,0.7,1.1,1.3,1.3c0.9,0.3,2.1,0.1,3.3-0.6l-0.3-0.5c-1,0.6-2.1,0.8-2.8,0.5c-0.5-0.2-0.8-0.5-1-1
		L35.5,15.4L35.5,15.4z"/>
	<path d="M37.9,16.7c0.3,0.6,0.7,1.1,1.3,1.2c0.7,0.2,1.5,0,2.4-0.6c0.3,0.7,0.8,0.9,1.5,0.8l0-0.5c-0.6,0-0.9-0.1-1.1-0.8l-0.1-0.3
		l-0.3,0.2c-0.9,0.6-1.6,0.9-2.2,0.7c-0.5-0.1-0.8-0.6-1-0.9L37.9,16.7L37.9,16.7z"/>
	<path d="M84.8,6.9c-2.3,0-4.2-0.2-5.9-0.7l-0.1,0.5c1.7,0.5,3.7,0.7,6,0.7c2.4,0,4-0.8,5.4-2.7l-0.4-0.3
		C88.5,6.2,87.1,6.9,84.8,6.9L84.8,6.9z"/>
	<path d="M82.1,9.4c-1.1,0-2.5-0.2-3.9-0.6l-0.1,0.5c1.4,0.4,2.9,0.6,4,0.6c2.1,0,3.6-0.8,4.8-2.7L86.5,7C85.3,8.7,84,9.4,82.1,9.4
		L82.1,9.4z"/>
	<path d="M68.5,12.6c1.3,0.8,3.2,1.9,5.2,1.9c1.4,0,2.7-0.5,3.9-1.6l-0.4-0.4c-1.1,1-2.2,1.5-3.5,1.5c-1.9,0-3.7-1.1-4.9-1.9
		L68.5,12.6L68.5,12.6z"/>
	<path d="M77.5,12.4c-1.5,0-4.4-0.8-5.8-1.9l-0.3,0.4c1.6,1.2,4.6,2,6.2,2c2.5-0.1,5-1.9,6-3.1l-0.4-0.3
		C82.2,10.6,79.9,12.3,77.5,12.4L77.5,12.4z"/>
	<path d="M66.9,14.1c0.7,1.4,2.6,2.4,4.5,2.4c1.6,0,3-0.7,3.7-2l-0.5-0.3c-0.9,1.6-2.4,1.8-3.3,1.8c-1.7,0-3.3-0.9-4-2.1L66.9,14.1
		L66.9,14.1z"/>
	<path d="M67.3,18.4c-0.9,0-1.9-0.3-2.5-0.8l-0.3,0.4c0.7,0.6,1.8,0.9,2.8,0.9c1,0,1.7-0.4,2.1-1.1L69,17.6
		C68.6,18.3,67.7,18.4,67.3,18.4L67.3,18.4z"/>
	<path d="M64.9,16c1.8,1.7,3.4,1.9,4.5,1.8c1.4-0.2,2.4-0.9,2.7-1.3l-0.4-0.3c-0.2,0.3-1,1-2.3,1.1c-1,0.1-2.5-0.1-4.1-1.6L64.9,16
		L64.9,16z"/>
	<path d="M65.5,19.3c-0.5,0-1.2,0-1.8-0.7L63.4,19c0.8,0.8,1.6,0.9,2.2,0.8c0.9-0.1,1.7-0.6,2-1.1l-0.5-0.3
		C66.9,18.8,66.2,19.2,65.5,19.3L65.5,19.3z"/>
	<path d="M61.6,19.8c-0.2,0.5-0.5,0.8-0.7,0.8c-0.3,0-0.5-0.2-0.7-0.4l-0.4,0.3c0.4,0.6,0.9,0.6,1.2,0.6c0.4-0.1,0.7-0.3,0.9-0.7
		c0.4,0.5,1.1,0.7,1.7,0.7c0.8-0.1,1.4-0.6,1.7-1.3l-0.5-0.2c-0.2,0.5-0.7,0.9-1.2,0.9c-0.6,0.1-1.2-0.2-1.5-0.8l-0.3-0.4L61.6,19.8
		L61.6,19.8z"/>
	<path d="M87.6,7c1.2,0.4,2.6,0.6,4.1,0.6c1.2,0,2.5-0.1,3.6-0.3l-0.1-0.5c-1.1,0.2-2.3,0.3-3.5,0.3c-1.5,0-2.9-0.2-4-0.6L87.6,7
		L87.6,7z"/>
	<path d="M87.4,10.2c-1.6,0-3-0.3-3.9-0.7l-0.2,0.5c0.9,0.5,2.4,0.8,4.1,0.8c1.8,0,3.6-0.2,5.1-0.8l-0.2-0.5
		C90.9,9.9,89.1,10.2,87.4,10.2L87.4,10.2z"/>
	<path d="M81.3,13.9c-1.8,0-3.5-0.2-4.9-0.5l-0.1,0.5c1.4,0.4,3.2,0.6,5,0.5c2.7,0,5.3-0.5,7.3-1.3l-0.2-0.5
		C86.4,13.4,83.9,13.9,81.3,13.9L81.3,13.9z"/>
	<path d="M73.3,15.8c1,1,5.3,1.6,7.9,1.3l-0.1-0.5c-2.6,0.3-6.6-0.3-7.4-1.2L73.3,15.8L73.3,15.8z"/>
	<path d="M71.3,16.9c1.2,0.9,3.6,2.1,4.8,2.1l0-0.5c-1,0-3.2-1-4.4-2L71.3,16.9L71.3,16.9z"/>
	<path d="M69.2,17.9c1.2,1.5,3.6,2.3,5.8,2L75,19.4c-2,0.3-4.2-0.4-5.3-1.8L69.2,17.9L69.2,17.9z"/>
	<path d="M71.1,20.3l0.3,0.4c0.3,0.4,0.6,0.9,0.8,1.2l0.4-0.3c-0.2-0.3-0.5-0.8-0.8-1.2L71.5,20L71.1,20.3L71.1,20.3z"/>
	<path d="M69.5,20.6l0.2,0.5c0.2,0.4,0.3,0.7,0.5,0.9l0.4-0.4c-0.1-0.1-0.3-0.5-0.4-0.8l-0.3-0.6L69.5,20.6L69.5,20.6z"/>
	<path d="M67.5,21l0.2,0.5c0.2,0.6,0.3,0.8,0.4,0.9l0.4-0.3c-0.1-0.1-0.2-0.5-0.3-0.7L68,20.7L67.5,21L67.5,21z"/>
	<polygon points="65.2,21.6 65.7,22.7 66.2,22.5 65.6,21.4 	"/>
	<path d="M78.5,8.8c-1.3,0-2.5-0.7-3.9-1.5l-0.3,0.5c1.4,0.9,2.7,1.6,4.2,1.6c1.1,0,2.5-1,2.9-2.1l-0.5-0.2
		C80.6,7.9,79.4,8.8,78.5,8.8L78.5,8.8z"/>
	<path d="M71.8,8.8L72,8.9c1.7,1,4,2.3,6.1,0.4l-0.3-0.4c-1.8,1.6-3.9,0.5-5.5-0.5l-0.1-0.1L71.8,8.8L71.8,8.8z"/>
	<path d="M68.8,9.6c1.1,0.7,1.9,1.3,3.1,1.3c0.8,0,1.6,0,2.4-0.9l-0.4-0.3c-0.6,0.7-1.2,0.8-1.9,0.7c-1,0-1.7-0.5-2.9-1.2L68.8,9.6
		L68.8,9.6z"/>
	<path d="M66.9,10.7c0.5,0.5,2,1.1,3.2,1c0.8,0,1.3-0.3,1.6-0.8l-0.5-0.3C71,11,70.6,11.2,70,11.2c-1.1,0-2.4-0.5-2.8-0.9L66.9,10.7
		L66.9,10.7z"/>
	<path d="M67.8,12.4c-0.6,0-1.3-0.3-2.2-0.7l-0.3,0.5c0.9,0.5,1.8,0.8,2.5,0.8c0.9,0,1.5-0.4,2-1.2l-0.5-0.3
		C69,12.1,68.5,12.4,67.8,12.4L67.8,12.4z"/>
	<path d="M66.7,13.6c-0.6,0.1-1.2-0.1-1.8-0.4l-0.2,0.5c0.7,0.3,1.4,0.5,2.1,0.4c0.9-0.1,1.5-0.5,1.9-1.2l-0.5-0.2
		C67.8,13.2,67.3,13.5,66.7,13.6L66.7,13.6z"/>
	<path d="M65.3,15.3c-0.6,0-1.3-0.2-2.3-0.7l-0.2,0.5c1.1,0.5,1.9,0.7,2.5,0.7c1.1,0,1.7-0.8,2.1-1.5L66.9,14
		C66.4,14.9,66,15.3,65.3,15.3L65.3,15.3z"/>
	<polygon points="63.4,22.1 63.4,22.4 63.9,22.4 63.9,22.1 	"/>
	<path d="M63.8,16.5c-0.5,0-1.1-0.1-1.6-0.4l-0.5-0.4l0.1,0.6c0.1,0.4,0,0.7-0.1,0.9c-0.1,0.1-0.2,0.2-0.4,0.3
		c-0.3,0-0.6-0.1-0.9-0.4L60,17.5c0.6,0.5,1,0.6,1.4,0.5c0.3-0.1,0.6-0.2,0.7-0.5c0.1-0.2,0.2-0.5,0.2-0.8c0.5,0.2,1,0.3,1.5,0.3
		c0.7-0.1,1.3-0.4,1.6-1.1l-0.5-0.2C64.7,16.2,64.3,16.5,63.8,16.5L63.8,16.5z"/>
	<path d="M52.2,26.7c0,0.8,0.3,1.5,0.8,1.9l0.3,0.3l0.1-0.5c0.1-0.3,0.1-0.5,0.3-0.9c0.1,0.1,0.3,0.3,0.4,0.4l0.2,0.3l0.4-0.6
		c0.2-0.4,0.5-0.8,1-1.2c0.3,0.2,0.8,0.6,1.1,0.9l0.6,0.5l0.1-0.3c0.3-0.5,0.6-0.8,1-1.1c0.1,0.1,0.2,0.1,0.2,0.1l0.3-0.4l-0.6-0.3
		l-0.1,0.1c-0.3,0.3-0.7,0.6-1.1,1.1c0,0-0.1,0-0.1,0c-0.4-0.3-0.9-0.9-1.3-1.1l-0.1-0.1L55.6,26c-0.7,0.4-1,1-1.3,1.4
		c-0.2-0.2-0.3-0.3-0.5-0.5l-0.2-0.2L53.4,27c-0.2,0.3-0.3,0.6-0.4,0.8c-0.2-0.3-0.3-0.7-0.3-1.2c0,0,0,0,0-0.1c0-0.9,0.4-1.7,0.6-2
		L53,24.3C52.6,24.7,52.2,25.6,52.2,26.7L52.2,26.7z"/>
	<path class="st325" d="M39.1,34.5c0-0.5,0.3-1.4,1-1.7c0,0.3,0,0.7,0.1,1C39.8,33.9,39.4,34.3,39.1,34.5L39.1,34.5z"/>
	<path d="M40,32.6c-0.8,0.3-1.2,1.3-1.2,1.9l0,0.6l0.4-0.4c0.2-0.2,0.6-0.5,1-0.6l0.3-0.1l-0.2-0.3c-0.1-0.2-0.1-0.6-0.1-0.8l0-0.4
		L40,32.6L40,32.6z M39.8,33.4c0,0.1,0,0.2,0.1,0.3c-0.1,0.1-0.3,0.1-0.4,0.2C39.6,33.7,39.7,33.5,39.8,33.4L39.8,33.4z"/>
	<path class="st325" d="M44.1,37c-0.4-0.2-0.9-0.8-0.7-1.4c0.3-0.1,0.7-0.1,0.9,0C44.2,36.1,44,36.6,44.1,37L44.1,37z"/>
	<path d="M43.4,35.3l-0.2,0l0,0.1c-0.3,0.8,0.2,1.5,0.8,1.8l0.4,0.2L44.3,37c0-0.3,0.1-0.7,0.2-1.1l0.1-0.4l-0.2-0.1
		C44.1,35.3,43.7,35.3,43.4,35.3L43.4,35.3z M44,35.8c-0.1,0.2-0.1,0.5-0.2,0.7c-0.1-0.2-0.2-0.3-0.2-0.6c0,0,0-0.1,0-0.1
		C43.8,35.8,43.9,35.8,44,35.8L44,35.8z"/>
	<path class="st325" d="M49.8,33c-0.1-0.6-0.8-1.1-1.3-1.1c0.1,0.3,0,0.6,0,0.8C49,32.7,49.5,32.9,49.8,33L49.8,33z"/>
	<path d="M48.5,31.6l-0.3,0l0.1,0.3c0,0.2,0,0.4,0,0.6l0,0.5l0.2,0c0.4,0,0.9,0.2,1.2,0.3l0.4,0.2l0-0.4
		C50,32.2,49.1,31.6,48.5,31.6L48.5,31.6z M48.8,32.2C48.8,32.2,48.8,32.2,48.8,32.2c0.2,0,0.4,0.2,0.5,0.3c-0.2,0-0.4-0.1-0.5-0.1
		C48.8,32.4,48.8,32.3,48.8,32.2L48.8,32.2z"/>
	<polygon points="44.9,29.9 44.9,30.4 45.8,30.4 46.4,30.4 46.4,29.8 45.8,29.8 	"/>
	<polygon points="45.2,28.9 45.2,29.5 46.6,29.4 46.5,28.9 	"/>
	<path d="M46.6,28l-1.2,0l0,0.5l1.3,0l0.2-0.4C46.9,28,46.8,28,46.6,28L46.6,28z"/>
	<path d="M42.7,32.1c-0.4,0.1-0.8,0.1-1.2,0.2c0,0,0.1,0.1,0.2,0.1l0,0.6c0.3,0.1,0.2-0.3,0.5-0.3l0.5-0.2
		C42.7,32.6,42.7,32.4,42.7,32.1L42.7,32.1z M41.7,33.7c0.2-0.1,0.5-0.2,0.7-0.3c0,0,0,0,0-0.1c-0.2,0-0.5,0.1-0.7,0.2
		C41.8,33.5,41.8,33.6,41.7,33.7L41.7,33.7z M42.5,33.4c-0.4,0.3-0.6,0.6-0.8,1c0.3,0,0.7,0,1,0.1C42.8,34.2,42.5,33.7,42.5,33.4
		L42.5,33.4z M43.7,34.2c-0.1,0.3-0.2,0.6-0.3,0.9l0.5-0.2c0-0.2,0.5-0.7,0.7-0.7C44.5,34.1,44,34.2,43.7,34.2L43.7,34.2z
		 M48.1,31.7c-0.6-0.1-0.7-0.5-1.5-0.9c0.1,0.8,0.5,1.4,1.4,1.4C48.1,32.1,48.1,31.9,48.1,31.7L48.1,31.7z"/>
	<path class="st325" d="M56.2,26.5c0,1.5,0.3,3.9,1.7,4.9c1.1,0.8,2,0.5,2.8,1.3l-0.1,0.8c-1.4-0.5-0.9,0-2-0.4
		c0.9,0.6,1.2,0.6,1.3,1.7c-0.3,0.1-0.5,0.4-0.7,0.5c-0.4-0.4-1.2-0.6-1.7-1.6c0.1,0.7,0.2,1.4,0.2,2.1c-0.3,0-0.6-0.1-0.9,0
		c-0.3-0.6-0.9-1.9-0.9-2.5c-0.8,0-0.8-0.8-1.6-1c-0.3-0.1-0.8,0.2-1.3,0.1c0-0.3,0-0.6,0-0.9c0.8-0.3,1.1-0.8,2.1-1.3
		c0.4-0.8,0-1.8-0.2-3.1c0.2-0.5,0.6-0.7,0.9-1C55.8,26.2,56.1,26.4,56.2,26.5L56.2,26.5z"/>
	<path d="M55.5,26l-0.2,0.1c-0.3,0.3-0.7,0.5-0.9,1l0,0.1l0.1,0.7c0.1,0.6,0.2,1.2,0.2,1.6c0,0.2,0,0.5-0.1,0.7
		c-0.4,0.2-0.7,0.4-1,0.6c-0.3,0.2-0.5,0.4-0.9,0.5l-0.2,0.1l0,0.5l0,0.9l0.2,0c0.3,0,0.6,0,0.8-0.1c0.2,0,0.3-0.1,0.5-0.1
		c0.3,0,0.4,0.2,0.6,0.4c0.2,0.2,0.4,0.4,0.8,0.5c0.1,0.6,0.5,1.5,0.8,2.3l0.1,0.3l0.2,0c0.3,0,0.5,0,0.8,0l0.3,0v-0.3
		c0-0.4,0-0.8-0.1-1.3c0.2,0.2,0.5,0.4,0.7,0.5c0.2,0.1,0.4,0.2,0.5,0.4l0.2,0.2l0.2-0.1l0.3-0.2c0.1-0.1,0.2-0.2,0.4-0.3l0.2,0
		l0-0.2c-0.1-0.7-0.2-1-0.5-1.2c0.2,0,0.4,0,1,0.2l0.3,0.1l0.1-1.3l-0.1-0.1c-0.5-0.4-0.9-0.5-1.4-0.7c-0.5-0.1-0.9-0.2-1.4-0.6
		c-1.2-0.9-1.5-3-1.5-4.7l0-0.1l-0.2-0.2l-0.6-0.4L55.5,26L55.5,26z M55.7,26.5C55.7,26.5,55.7,26.5,55.7,26.5
		c0.1,0.1,0.2,0.1,0.2,0.1s0,0,0,0c0.1,1.8,0.4,4,1.8,4.9c0.6,0.4,1.1,0.6,1.6,0.7c0.4,0.1,0.8,0.2,1.1,0.5c0,0.1,0,0.2,0,0.3
		c-0.6-0.2-0.8-0.2-1-0.1c-0.2,0-0.3,0-0.8-0.1l-1.5-0.4l1.7,1.2c0.5,0.3,0.7,0.5,0.8,1c-0.2,0.1-0.3,0.2-0.4,0.3c0,0,0,0,0,0
		c-0.1-0.1-0.3-0.2-0.4-0.3c-0.4-0.2-0.8-0.5-1.1-1.1l-0.6-1l0.2,1.8c0,0.4,0.1,0.8,0.1,1.2c-0.2,0-0.3,0-0.5,0
		C56.5,35,56,33.8,56,33.3V33h-0.3c-0.3,0-0.4-0.1-0.6-0.4c-0.2-0.2-0.4-0.5-0.9-0.6c-0.2,0-0.4,0-0.7,0.1c-0.1,0-0.3,0.1-0.4,0.1
		c0-0.2,0-0.4,0-0.4s0-0.1,0-0.1c0.4-0.1,0.6-0.3,0.9-0.6c0.3-0.2,0.6-0.4,1-0.6l0.1,0l0-0.1c0.1-0.3,0.2-0.6,0.2-1
		c0-0.5-0.1-1.1-0.3-1.7c0,0-0.1-0.4-0.1-0.5C55.2,26.9,55.4,26.7,55.7,26.5L55.7,26.5z"/>
	<path class="st325" d="M60,36.3c0.2-0.3,0.3-1.2,0-1.7c-0.2,0.1-0.6,0.4-0.8,0.6C59.4,35.5,59.7,35.9,60,36.3L60,36.3z"/>
	<path d="M59.8,34.4c-0.3,0.1-0.7,0.5-0.9,0.7l-0.2,0.2l0.2,0.2c0.1,0.1,0.6,0.6,0.8,1l0.2,0.4l0.2-0.4c0.3-0.4,0.4-1.4,0-2L60,34.4
		L59.8,34.4L59.8,34.4z M59.8,35c0.1,0.1,0.1,0.3,0.1,0.5c0,0.1,0,0.2,0,0.2c-0.1-0.2-0.3-0.3-0.4-0.4C59.6,35.2,59.7,35.1,59.8,35
		L59.8,35z"/>
	<path class="st325" d="M61.8,34.3c0-0.5-0.3-1.4-1-1.7c0,0.3,0,0.5-0.1,0.8C61,33.6,61.5,34,61.8,34.3L61.8,34.3z"/>
	<path d="M60.5,32.6c0,0.3,0,0.5-0.1,0.8l-0.1,0.2l0.2,0.1c0.3,0.1,0.6,0.4,0.8,0.6l0.7,0.5l0-0.5c0.1-0.6-0.4-1.6-1.2-1.9l-0.3-0.1
		L60.5,32.6L60.5,32.6z M61,33.1c0.2,0.1,0.3,0.3,0.4,0.5c-0.1-0.1-0.3-0.2-0.4-0.3C60.9,33.2,61,33.1,61,33.1L61,33.1z"/>
	<path class="st325" d="M56.9,37.1c0.4-0.2,0.9-0.8,0.7-1.4c-0.3-0.1-0.7-0.1-0.9,0C56.8,36.2,56.9,36.7,56.9,37.1L56.9,37.1z"/>
	<path d="M56.5,35.5l-0.2,0.1l0.1,0.4c0.1,0.4,0.2,0.8,0.2,1.1l-0.1,0.5l0.4-0.2c0.6-0.3,1.1-1,0.8-1.8l0-0.1l-0.2,0
		C57.3,35.4,56.9,35.4,56.5,35.5L56.5,35.5z M57.3,36c0,0,0,0.1,0,0.1c0,0.2-0.1,0.4-0.2,0.6c0-0.2-0.1-0.5-0.2-0.7
		C57.1,35.9,57.2,35.9,57.3,36L57.3,36z"/>
	<path class="st325" d="M51.8,33c0-0.6,0.6-1.4,1.2-1.4c-0.1,0.3,0,0.6,0,0.8C52.5,32.5,52.1,32.8,51.8,33L51.8,33z"/>
	<path d="M52,31.8c-0.3,0.4-0.5,0.8-0.5,1.2l0,0.4l0.5-0.3c0.3-0.2,0.6-0.4,1-0.4l0.2-0.1l0-0.4c0-0.2,0-0.4,0-0.6l0.1-0.3l-0.3,0
		C52.6,31.3,52.3,31.5,52,31.8L52,31.8z M52.4,32.2c0.1-0.1,0.2-0.2,0.3-0.2c0,0,0,0,0,0c0,0.1,0,0.2,0,0.3v0
		c-0.2,0.1-0.3,0.1-0.5,0.2C52.2,32.3,52.3,32.2,52.4,32.2L52.4,32.2z"/>
	<polygon points="55.8,29.6 55.1,29.6 55.1,30.1 55.8,30.1 56.7,30.1 56.7,29.6 	"/>
	<polygon points="55.2,28.8 55.2,29.4 56.5,29.3 56.5,28.8 	"/>
	<path d="M54.9,28.1l0.2,0.4c0.1,0,1-0.1,1.3-0.1l0-0.5C56.3,28,55,28,54.9,28.1L54.9,28.1z"/>
	<path d="M58.7,32c0.4,0.1,0.9,0.2,1.2,0.3c-0.3,0.3-0.3,0-0.3,0.5c-0.3,0.1-0.2-0.1-0.5-0.1l-0.5-0.2C58.6,32.4,58.7,32.2,58.7,32
		L58.7,32z M58.6,33.1c0.4,0.3,1,0.9,1.1,1.3c-0.3,0-0.6-0.1-0.9,0C58.9,33.7,58.4,33.8,58.6,33.1L58.6,33.1z M57.2,34.2
		c0.1,0.3,0.2,0.6,0.3,0.9l-0.5-0.2c0-0.2-0.3-0.7-0.4-0.7C56.6,34.1,56.8,34.2,57.2,34.2L57.2,34.2z M53.4,31.4
		c0.6-0.1,0.7-0.5,1.5-0.9c-0.1,0.8-0.5,1.4-1.4,1.4C53.4,31.8,53.4,31.6,53.4,31.4L53.4,31.4z"/>
	<path d="M48.4,41.2l0.2,0c0.2,0,0.3,0,0.4,0.1c0.1,0,0.1,0.1,0.1,0.2c0,0.1,0,0.2-0.1,0.2c-0.1,0-0.2,0-0.4,0l-0.2,0L48.4,41.2
		L48.4,41.2z M48.3,43.5c0.3,0,0.6,0,0.7,0c0.2,0,0.3,0,0.4-0.1c0.1-0.1,0.2-0.1,0.3-0.2c0.1-0.1,0.1-0.2,0.1-0.4
		c0-0.2,0-0.4-0.1-0.5c-0.1-0.1-0.3-0.2-0.5-0.2c0.2,0,0.3-0.1,0.4-0.2c0.1-0.1,0.1-0.2,0.2-0.4c0-0.1,0-0.2-0.1-0.3
		c-0.1-0.1-0.1-0.2-0.2-0.2c-0.1-0.1-0.2-0.1-0.3-0.1c-0.1,0-0.4-0.1-0.7-0.1l-0.8-0.1l-0.2,2.8L48.3,43.5L48.3,43.5z M48.3,42.3
		l0.3,0c0.2,0,0.3,0,0.4,0.1c0.1,0.1,0.1,0.1,0.1,0.3c0,0.1-0.1,0.2-0.1,0.2c-0.1,0-0.2,0.1-0.4,0l-0.3,0L48.3,42.3L48.3,42.3z"/>
</g>
</svg>
