<?xml version="1.0" encoding="utf-8"?>
<!-- Generator: Adobe Illustrator 19.2.1, SVG Export Plug-In . SVG Version: 6.00 Build 0)  -->
<svg version="1.1" id="Capa_1" xmlns="http://www.w3.org/2000/svg" xmlns:xlink="http://www.w3.org/1999/xlink" x="0px" y="0px"
	 viewBox="0 0 100 100" style="enable-background:new 0 0 100 100;" xml:space="preserve">
<style type="text/css">
	.st0{fill:url(#path34_4_);}
	.st1{fill:url(#path890_1_);}
	.st2{fill:#FFE500;stroke:#000000;stroke-width:2.098;stroke-miterlimit:3.863;}
	.st3{fill:#DA020E;}
	.st4{fill:#FFE500;}
	.st5{clip-path:url(#SVGID_2_);}
	.st6{fill:none;stroke:#B54005;stroke-width:10;stroke-miterlimit:3.863;}
	.st7{fill:url(#path7506_1_);}
	.st8{fill:url(#path8794_1_);}
	.st9{fill:url(#path15846_1_);}
	.st10{fill:url(#path16274_1_);}
	.st11{fill:url(#path39821_1_);}
	.st12{fill:url(#path39847_1_);}
	.st13{fill:url(#path39878_1_);}
	.st14{fill:url(#path39888_1_);}
	.st15{fill:url(#path41035_1_);}
	.st16{fill:url(#path9646-8_1_);}
	.st17{fill:url(#path41092_1_);}
	.st18{fill:url(#path41094_1_);}
	.st19{fill:none;stroke:#000000;stroke-width:2.098;stroke-miterlimit:3.863;}
	.st20{fill:url(#path41152_1_);}
	.st21{fill:url(#path39854_1_);}
	.st22{fill:url(#path39874_1_);}
	.st23{fill:#9C824A;stroke:#9C824A;stroke-width:0.793;stroke-miterlimit:282;}
	.st24{fill:#023474;stroke:#023474;stroke-width:0.793;stroke-miterlimit:282;}
	.st25{fill:#FFFFFF;stroke:#FFFFFF;stroke-width:0.793;stroke-miterlimit:282;}
	.st26{fill:#EF0107;stroke:#EF0107;stroke-width:0.793;stroke-miterlimit:282;}
	.st27{fill:#DB0007;stroke:#DB0007;stroke-width:0.793;stroke-miterlimit:282;}
	.st28{fill:#FFFFFF;}
	.st29{fill:#9C824A;}
	.st30{fill:#EF0107;stroke:#EF0107;stroke-width:0.3115;stroke-miterlimit:282;}
	.st31{fill:#DB0007;stroke:#DB0007;stroke-width:0.3115;stroke-miterlimit:282;}
	.st32{fill:#DB0007;}
	.st33{fill:#FFFFFF;stroke:#FFFFFF;stroke-width:0.3115;stroke-miterlimit:282;}
	.st34{fill:#FFFFFF;stroke:#FFFFFF;stroke-width:0.554;stroke-miterlimit:3.864;}
	.st35{fill:#231F20;}
	.st36{fill:#00B6F1;stroke:#00B6F1;stroke-width:1.700000e-02;stroke-miterlimit:3.864;}
	.st37{fill:#EF3E2E;}
	.st38{fill:#BBBDBF;}
	.st39{fill:#F0B83D;}
	.st40{fill:#00B6F1;stroke:#FFFFFF;stroke-width:1.700000e-02;stroke-miterlimit:3.864;}
	.st41{fill:#001C58;}
	.st42{fill:#94BEE5;}
	.st43{fill:none;stroke:#7A003C;stroke-width:2.2437;stroke-miterlimit:6;}
	.st44{fill:#7A003C;}
	.st45{fill:#FFE600;}
	.st46{fill:#DBA111;}
	.st47{fill:#034694;}
	.st48{fill:#D1D3D4;}
	.st49{fill:#ED1C24;}
	.st50{fill:#6A7AB5;}
	.st51{fill:none;}
	.st52{fill:#274488;}
	.st53{fill:#004798;stroke:#004798;stroke-width:9.375000e-02;}
	.st54{fill:#FFFFFF;stroke:#FFFFFF;stroke-width:9.375000e-02;}
	.st55{fill:#FABC00;stroke:#FABC00;stroke-width:9.375000e-02;}
	.st56{fill:none;stroke:#FFFFFF;stroke-width:7.865;stroke-miterlimit:3.864;}
	.st57{fill:none;stroke:#FFFFFF;stroke-width:7.865;stroke-miterlimit:12;}
	.st58{fill:none;stroke:#FFFFFF;stroke-width:7.865;stroke-miterlimit:22;}
	.st59{fill:none;stroke:#FFFFFF;stroke-width:7.865;stroke-miterlimit:6;}
	.st60{fill:#00A398;}
	.st61{fill:#D00027;}
	.st62{fill:none;stroke:#FFFFFF;stroke-width:17.3907;stroke-miterlimit:3.864;}
	.st63{fill:none;stroke:#FFFFFF;stroke-width:13.1107;stroke-miterlimit:3.864;}
	.st64{fill:#FEF667;}
	.st65{fill:#D00027;stroke:#D00027;}
	.st66{fill:#5299C6;}
	.st67{fill:#60223B;}
	.st68{fill:#F7C240;}
	.st69{fill:#292D6B;}
	.st70{fill:#1B458F;}
	.st71{fill:#C4122E;}
	.st72{fill:#27409B;}
	.st73{clip-path:url(#SVGID_4_);}
	.st74{fill:#F4F4F4;}
	.st75{fill:#D3D2D2;}
	.st76{fill:#A7A5A6;}
	.st77{fill:#091453;}
	.st78{fill:none;stroke:#FFFFFF;stroke-width:6.6301;}
	.st79{clip-path:url(#SVGID_6_);}
	.st80{fill:#724314;}
	.st81{fill:#240B08;}
	.st82{fill:#018B4B;}
	.st83{fill:#A6181D;}
	.st84{fill:#592D09;}
	.st85{fill:#FFCE65;}
	.st86{fill:#5CBFEB;}
	.st87{fill:none;stroke:#000000;stroke-width:10;}
	.st88{fill:none;stroke:#000000;}
	.st89{fill:#B2B2B2;}
	.st90{fill:none;stroke:#000000;stroke-width:0.3;}
	.st91{fill:#00A650;stroke:#000000;stroke-width:2;}
	.st92{fill:#241F20;stroke:#241F20;stroke-width:9.375000e-02;}
	.st93{fill:#FFF200;stroke:#FFF200;stroke-width:9.375000e-02;}
	.st94{fill:#A68A26;}
	.st95{fill:none;stroke:#A68A26;stroke-width:4.792100e-02;stroke-miterlimit:3.8637;}
	.st96{fill:#211E1E;}
	.st97{fill:none;stroke:#211E1E;stroke-width:4.792100e-02;stroke-miterlimit:3.8637;}
	.st98{fill:#EB172B;}
	.st99{fill:none;stroke:#EB172B;stroke-width:4.792100e-02;stroke-miterlimit:3.8637;}
	.st100{fill:#A68A26;stroke:#A68A26;stroke-width:4.792100e-02;stroke-miterlimit:3.8637;}
	.st101{fill:#D1BF7F;}
	.st102{fill:none;stroke:#D1BF7F;stroke-width:4.792100e-02;stroke-miterlimit:3.8637;}
	.st103{fill:none;stroke:#FFFFFF;stroke-width:4.792100e-02;stroke-miterlimit:3.8637;}
	.st104{fill:#EB172B;stroke:#EB172B;stroke-width:4.792100e-02;stroke-miterlimit:3.8637;}
	.st105{fill:#ED2127;}
	.st106{fill:#FBEE23;}
	.st107{stroke:#000000;}
	.st108{fill:#CF1F44;}
	.st109{fill:#1B449C;}
	.st110{fill:#E03A3E;}
	.st111{fill:#E03A3E;stroke:#E03A3E;stroke-width:0.6565;}
	.st112{fill:none;stroke:#1B449C;stroke-width:0.7493;}
	.st113{fill:none;stroke:#1B449C;stroke-width:0.7567;}
	.st114{fill:#1B449C;stroke:#1B449C;stroke-width:0.6274;}
	.st115{fill:#1B449C;stroke:#1B449C;stroke-width:0.6755;}
	.st116{fill:#2E6ABD;stroke:#2E6ABD;stroke-width:0.617;}
	.st117{fill:#FFFFFF;stroke:#FFFFFF;stroke-width:0.6175;}
	.st118{fill:#ED1248;}
	.st119{fill:#2E6ABD;}
	.st120{fill:#FDE100;}
	.st121{fill:#CC0000;}
	.st122{fill:#211E1F;}
	.st123{fill:#ED1A3B;}
	.st124{fill:#00AEEF;}
	.st125{fill:#FFC40D;}
	.st126{fill:#22B24C;}
	.st127{fill:#FFC20E;}
	.st128{fill:#0A3F86;}
	.st129{fill:#005CA9;}
	.st130{fill:#FFE000;}
	.st131{fill:#E2001A;}
	.st132{opacity:0;}
	.st133{opacity:0;fill:#FFFFFF;}
	.st134{fill:#FFFFFF;stroke:#000000;}
	.st135{fill:#0060A9;}
	.st136{fill:#E32219;}
	.st137{fill:#FFED00;}
	.st138{fill:#1D9053;}
	.st139{fill:#52A600;}
	.st140{fill:#EE2523;}
	.st141{fill:#F7D117;}
	.st142{fill:#171796;}
	.st143{fill:#009959;}
	.st144{fill:#D42E12;}
	.st145{fill:#703824;}
	.st146{fill:#E5254E;}
	.st147{fill:#8AC3EE;}
	.st148{fill:#B19221;}
	.st149{fill:#F5C03E;}
	.st150{fill:#FF1119;}
	.st151{fill:#1E6BC0;}
	.st152{fill:#B4742A;}
	.st153{fill:#371B02;}
	.st154{fill:url(#SVGID_7_);}
	.st155{fill:url(#SVGID_8_);}
	.st156{fill:url(#SVGID_9_);}
	.st157{fill:url(#SVGID_10_);}
	.st158{fill:url(#SVGID_11_);}
	.st159{fill:url(#SVGID_12_);}
	.st160{fill:url(#SVGID_13_);}
	.st161{fill:url(#SVGID_14_);}
	.st162{fill:url(#SVGID_15_);}
	.st163{fill:url(#SVGID_16_);}
	.st164{fill:#EB2626;}
	.st165{fill:#E9C32C;}
	.st166{fill:#D9D9D9;}
	.st167{fill:#009C5E;}
	.st168{fill:#1C75BC;}
	.st169{fill:#611D5C;}
	.st170{fill:#E2B900;}
	.st171{fill:#004B95;}
	.st172{fill:#A4234B;}
	.st173{fill:#DB2F36;}
	.st174{fill:#FFDF00;}
	.st175{fill:#A38D44;}
	.st176{fill:#57175E;}
	.st177{fill:#AFDCFD;}
	.st178{fill:#0090C6;}
	.st179{fill:#DB5232;}
	.st180{fill:#23C1E0;}
	.st181{fill:#F1A92A;}
	.st182{fill:#167FB6;}
	.st183{fill:#FED75D;}
	.st184{fill:#378CBF;}
	.st185{fill:#3E9692;}
	.st186{fill:#E67F29;}
	.st187{fill:#D8B43C;}
	.st188{fill:#EF3B33;}
	.st189{fill:#24923D;}
	.st190{opacity:6.000001e-02;fill:#101010;enable-background:new    ;}
	.st191{fill:#00529F;}
	.st192{fill:#EE324E;}
	.st193{fill:#FEBE10;}
	.st194{fill:#143C8B;}
	.st195{fill:#FFE24A;}
	.st196{fill:#EC1D24;}
	.st197{fill:#E6A514;}
	.st198{fill:#FFDF1C;}
	.st199{fill:#EE3524;}
	.st200{fill:#B23428;}
	.st201{fill:#D18816;}
	.st202{fill:#0097D7;}
	.st203{fill:#ED1C23;}
	.st204{fill:#E30613;}
	.st205{fill:#FFE400;}
	.st206{fill:#C51A1B;}
	.st207{clip-path:url(#SVGID_19_);}
	.st208{clip-path:url(#SVGID_20_);fill:none;stroke:#000000;stroke-width:0.8131;stroke-miterlimit:3.864;}
	.st209{fill:#0093D5;}
	.st210{fill:#004B9D;}
	.st211{fill:#FCC24F;}
	.st212{fill:#009545;}
	.st213{fill:#0072BB;}
	.st214{fill:#C4974E;}
	.st215{fill:url(#path1292_1_);}
	.st216{fill:#004996;}
	.st217{fill:#FFE667;}
	.st218{fill:none;stroke:#005187;stroke-width:0.153;stroke-miterlimit:3.864;}
	.st219{fill:#005187;}
	.st220{clip-path:url(#SVGID_22_);}
	.st221{clip-path:url(#SVGID_24_);fill:none;stroke:#000000;stroke-width:0.296;stroke-miterlimit:3.864;}
	.st222{clip-path:url(#SVGID_26_);fill:#FFE667;}
	.st223{clip-path:url(#SVGID_28_);fill:none;stroke:#000000;stroke-width:8.300000e-02;stroke-miterlimit:3.864;}
	.st224{fill:none;stroke:#000000;stroke-width:0.153;stroke-miterlimit:3.864;}
	.st225{clip-path:url(#SVGID_30_);fill:#E70005;}
	.st226{clip-path:url(#SVGID_32_);fill:none;stroke:#E70005;stroke-width:0.296;stroke-miterlimit:3.864;}
	.st227{clip-path:url(#SVGID_34_);fill:#E70005;}
	.st228{clip-path:url(#SVGID_36_);fill:none;stroke:#E70005;stroke-width:0.296;stroke-miterlimit:3.864;}
	.st229{clip-path:url(#SVGID_38_);fill:#E70005;}
	.st230{clip-path:url(#SVGID_40_);fill:none;stroke:#E70005;stroke-width:0.296;stroke-miterlimit:3.864;}
	.st231{clip-path:url(#SVGID_42_);fill:#E70005;}
	.st232{clip-path:url(#SVGID_44_);fill:none;stroke:#E70005;stroke-width:0.296;stroke-miterlimit:3.864;}
	.st233{fill:#E70005;}
	.st234{fill:none;stroke:#000000;stroke-width:0.141;stroke-miterlimit:3.864;}
	.st235{fill:#00276D;}
	.st236{fill:#C49308;}
	.st237{fill:#179D33;}
	.st238{fill:#999999;}
	.st239{fill:#FF0000;}
	.st240{fill:#E31837;}
	.st241{fill:#06357A;}
	.st242{fill:#B4053F;}
	.st243{fill:#DCA43E;}
	.st244{fill:#005CA5;}
	.st245{fill:#FAC400;}
	.st246{fill:#004083;}
	.st247{fill:#A95932;}
	.st248{fill:none;stroke:#000000;stroke-width:1.2215;}
	.st249{fill:#E62627;}
	.st250{fill:#00458C;}
	.st251{fill:#E11B22;}
	.st252{fill:#00AB4E;}
	.st253{fill:#F47920;}
	.st254{fill:#C7C8CA;}
	.st255{fill:#E11515;}
	.st256{fill:#A4965F;}
	.st257{fill:#E51636;}
	.st258{fill:#EACC00;}
	.st259{fill:#4F846B;}
	.st260{fill:#E22227;}
	.st261{fill:#FAE700;}
	.st262{fill:url(#SVGID_45_);}
	.st263{fill:#666666;}
	.st264{fill:#FFF200;}
	.st265{fill:#00275D;}
	.st266{fill:#EF3E33;}
	.st267{fill:none;stroke:#00275D;stroke-width:2.632;}
	.st268{fill:#3F7652;}
	.st269{fill:#F1D261;}
	.st270{fill:#004D8F;}
	.st271{fill:#E7B137;stroke:#E7B137;stroke-miterlimit:10;}
	.st272{fill:#E7B137;}
	.st273{fill:#162577;}
	.st274{fill:#12692C;}
	.st275{fill:#D8141D;}
	.st276{fill:#AB830D;}
	.st277{fill:#0086CB;}
	.st278{fill:#001F42;}
	.st279{fill:#9A8F4A;}
	.st280{fill:#00559D;}
	.st281{fill:#FDDE00;}
	.st282{fill:#00924C;}
	.st283{fill:#233984;}
	.st284{fill:#FFD42E;}
	.st285{fill:#BA3733;}
	.st286{fill:#46714D;}
	.st287{fill:#221F1F;}
	.st288{fill:#00559E;}
	.st289{fill:#005C46;}
	.st290{fill:#FBC860;}
	.st291{fill:#D57C48;}
	.st292{fill:#040403;}
	.st293{fill:#4AB969;}
	.st294{fill:#8ED8F8;}
	.st295{fill:#FEC34E;}
	.st296{fill:#FFC95B;}
	.st297{fill:#00644C;}
	.st298{fill:#70B865;}
	.st299{fill:#CA6F44;}
	.st300{fill:#A8B8BE;}
	.st301{fill:#1C2C80;}
	.st302{fill:#E10321;}
	.st303{fill:none;stroke:#231F20;stroke-width:0.318;stroke-miterlimit:3.864;}
	.st304{fill:#D71920;}
	.st305{fill:#484749;}
	.st306{fill:#D9DBDC;}
	.st307{fill:#DF725A;}
	.st308{fill:#F2CABA;}
	.st309{fill:#E89C84;}
	.st310{fill:#264F99;}
	.st311{clip-path:url(#SVGID_47_);}
	.st312{fill:#161413;}
	.st313{fill:#ED1B26;}
	.st314{fill:#E60D2E;}
	.st315{fill:#FCD600;}
	.st316{fill:#004D91;}
	.st317{fill:#EAB412;}
	.st318{fill:#FDD31D;}
	.st319{fill:#EFB800;}
</style>
<g>
	<path class="st301" d="M50,0c27.6,0,50,22.5,50,50c0,27.5-22.5,50-50,50C22.5,100,0,77.5,0,50C0,22.5,22.5,0,50,0L50,0z"/>
	<path class="st28" d="M50,2.6c26.1,0,47.4,21.3,47.4,47.4c0,26.1-21.3,47.4-47.4,47.4C23.9,97.4,2.6,76.1,2.6,50
		C2.6,23.9,23.9,2.6,50,2.6L50,2.6z"/>
	<path class="st301" d="M50,14.3c19.7,0,35.8,16.1,35.8,35.8c0,19.7-16.1,35.8-35.8,35.8c-19.7,0-35.8-16.1-35.8-35.8
		C14.2,30.3,30.3,14.3,50,14.3L50,14.3z"/>
	<path class="st302" d="M82.5,46.9c-3.3,3.9-5.6,6.3-9.3,5.1c-3.5-1.2-6-3.3-8.8-10.7c-1.1,7.9,2,14.4,6.4,16.7
		c-0.2,2.5-1.4,4.9-3.1,6.9l-0.3-2.4c-1.1,1.4-2.2,2.6-3.2,3.5l-0.7,2.4c-1.2,0.7-2.4,1.1-3.5,1.2c-6.3,0.4-9-6.9-9-12.1
		c3.8-0.4,8.3,1,12.1,3.1c-0.9-7-4.9-11.3-11.1-12.6c0.2-2.3,0-5.4-0.3-7.7c-0.5-4.8-2.2-9.3-3.2-11.7c-1.8-4.6-2.3-7.7-4.6-7.9
		c-1.8-0.1-3.3,2.7-5.2,5.9c-1.4,2.3-3,4.5-4.1,7.2c-1.5,3.8-2.6,7.4-2.8,9.2c-0.3,1.9-0.5,5.1-0.6,7.1c-5.7,1.9-11,11.2-8.4,18.1
		c2.9-3,5.9-6.1,9.4-6.9c0.7,3.6,3,8.1,5.8,11.3c3.8,4.3,8.6,6.4,13.1,6.6c6.8,0.3,13.7-2.3,18.2-7.6l2.5-0.9c1-0.9,2-2.6,2.9-4.6
		L72.3,67c1.1-2.4,1.9-5.1,2.1-8.2C78.5,58.6,83.1,53.2,82.5,46.9L82.5,46.9z"/>
	<path class="st28" d="M36.4,41.8c3.8-2.7,6.5-2.8,10.9,0.7c-0.9-4.9-2.7-8.3-4.9-8.3C39.7,34.1,37.1,38.5,36.4,41.8L36.4,41.8z"/>
	<path class="st28" d="M63.8,21.7c5.1,0.5,9,5.2,8.5,10.4c-0.5,5.3-5,9.2-10.2,8.8c-5.1-0.5-9-5.2-8.5-10.4
		C54.1,25.2,58.7,21.2,63.8,21.7L63.8,21.7z"/>
	<path class="st302" d="M63.8,21.6L63.8,21.6L63.8,21.6c0.7,0.1,1.4,0.2,2.1,0.4c0.7,0.2,1.3,0.5,1.9,0.9c3,1.9,5,5.4,4.6,9.3l0,0v0
		l0,0c-0.2,2.7-1.5,5-3.4,6.6c-1.9,1.6-4.3,2.5-6.9,2.3l0,0l0,0h0l0,0h0h0l0,0c-0.7-0.1-1.4-0.2-2.1-0.4c-0.7-0.2-1.3-0.5-1.9-0.9
		c-3-1.9-5-5.4-4.6-9.3c0,0,0,0,0,0l0,0v0v0l0,0c0.2-2.7,1.5-5,3.4-6.6C58.7,22.2,61.2,21.3,63.8,21.6L63.8,21.6L63.8,21.6
		L63.8,21.6z M63.8,21.9L63.8,21.9L63.8,21.9L63.8,21.9c-2.6-0.2-5,0.6-6.8,2.2c-1.8,1.6-3,3.8-3.3,6.4l0,0l0,0l0,0
		c-0.3,3.8,1.5,7.2,4.5,9c0.6,0.4,1.2,0.6,1.8,0.9c0.6,0.2,1.3,0.4,2,0.4l0,0l0,0l0,0l0,0h0c2.5,0.2,4.9-0.6,6.7-2.2
		c1.8-1.6,3-3.8,3.3-6.4l0,0l0,0c0.3-3.8-1.6-7.2-4.5-9c-0.6-0.4-1.2-0.6-1.8-0.9C65.2,22.1,64.5,21.9,63.8,21.9L63.8,21.9z
		 M62.2,40.8L62.2,40.8L62.2,40.8L62.2,40.8z"/>
	<path class="st302" d="M56.8,24.1L56.8,24.1L56.8,24.1C56.8,24.1,56.8,24.1,56.8,24.1L56.8,24.1z"/>
	<polygon class="st302" points="56.8,24.1 56.8,24.1 56.8,24.1 	"/>
	<path class="st302" d="M69.5,36.2L68,36.7L67,37l-1.2-1.9l-0.6-0.9l0.6-1.3l1-2.1l1.3-0.3l1.5-0.4l1.4,2.8L69.5,36.2L69.5,36.2z
		 M65.7,38.1l-1.3,1.6l-1.6-0.1l-2-0.2l-0.7-1.2l-0.8-1.3l0.8-0.9l1.4-1.6l1.3,0.1l1.7,0.2l1.1,1.7l0.6,0.9L65.7,38.1L65.7,38.1z
		 M57.9,35.9l-2.4-1.1l-0.6-3.9l2.2-2.4l0.8,0.4l1.9,1.1l0.4,1.3l0.7,2.6l-0.7,0.9l-1.3,1.5L57.9,35.9L57.9,35.9z M57.6,24.9
		l0.3-0.2l2.3-1.2l0.2-0.1l2.5,1.1l0.7,0.3l-0.2,2.7l-0.5,0.3l-2.7,1.5l-0.1,0l-2.2-1.3l-0.6-0.3L57.6,24.9L57.6,24.9z M64.3,25
		l1.4-0.5l1.6-0.5l0.7,0.7l1.7,1.6l-0.2,3L68,29.8l-1.5,0.4l-0.8-0.9l-1.7-1.7L64.3,25L64.3,25z M70.8,26l-0.7,0l-2.1-2l-0.4-0.4V23
		c-0.6-0.4-1.2-0.6-1.9-0.9c-0.6-0.2-1.3-0.3-1.9-0.4c-0.3,0-0.6,0-0.9,0c-0.9,0-1.8,0.2-2.7,0.4c-0.1,0-0.2,0-0.3,0.1l0.1,0.8
		l-2.2,1.1l-0.6,0.3l-0.6-0.3c-1.7,1.6-2.9,3.8-3.1,6.4c0,0,0,0.1,0,0.1l0.7,0.4L55,35c-0.1,0.2-0.2,0.4-0.3,0.6
		c0.8,1.5,1.9,2.8,3.3,3.7c0.6,0.4,1.2,0.7,1.8,1l0.4-0.2l0.7-0.3l2,0.2l1.5,0.1l0.6,0.5c0.2-0.1,0.5-0.1,0.7-0.2
		c0.8-0.3,1.6-0.6,2.3-1.1c0.9-0.6,1.6-1.2,2.2-2L70,36.4l1.3-3.4l0.9-0.1c0.1-0.3,0.1-0.6,0.1-0.8C72.5,29.9,71.9,27.7,70.8,26
		L70.8,26z"/>
	<polygon class="st301" points="87.5,72.9 83.9,77.6 84.2,70.5 82.7,69.4 78.9,74.4 77,76.8 78.5,78 78.9,77.5 81.9,73.6 81.6,80.6 
		83,81.7 89,74.1 	"/>
	<polygon class="st301" points="27.8,86.6 28.8,85.2 24.2,81.5 24.9,80.6 29.4,84.3 29.8,84.6 31,83.1 29.4,81.9 24.2,77.7 24,77.9 
		24.2,78.1 23.8,78.2 21.7,80.7 19.3,83.8 21.7,85.7 26.1,89.2 27.3,87.8 22.3,83.8 23.1,82.8 	"/>
	<polygon class="st301" points="22.4,75.9 21.5,76.1 16,77.3 15.7,76.9 18.6,71.1 17,69 13.2,76.8 15.4,79.7 21.5,78.5 23.6,78 
		23.8,77.7 	"/>
	<path class="st301" d="M44.4,92.2l-1.7-0.3l1.7-2.5l0.2-0.3l0.5,0.1l1.1,3.1L44.4,92.2L44.4,92.2z M44.4,87.3l-1.1-0.2l-4.5,6.2
		l-0.7,1l0.7,0.1l2,0.3l0.8-1.2l2.8,0.4l2.3,0.3l0.5,1.4l2.7,0.4l-3-8.3L44.4,87.3L44.4,87.3z"/>
	<path class="st301" d="M60,91.6l-0.2,0l-2.2,0.3c0.1,0.5,0,0.8-0.1,1c-0.1,0.1-0.3,0.2-0.6,0.3c-0.3,0.1-0.9,0.2-1.8,0.3
		c-0.7,0.1-1.2,0.2-1.5,0.2c-0.3,0-0.5,0-0.7-0.1c-0.2-0.1-0.3-0.2-0.4-0.5c-0.1-0.2-0.2-0.6-0.2-1.2c-0.1-0.6-0.1-1-0.1-1.3
		c0-0.3,0.1-0.5,0.2-0.6c0.1-0.1,0.3-0.2,0.6-0.3c0.3-0.1,0.8-0.2,1.5-0.3c0.7-0.1,1.3-0.2,1.7-0.2c0.4,0,0.6,0,0.7,0.1
		c0.1,0,0.1,0.1,0.2,0.2c0,0.1,0.1,0.3,0.1,0.5l2.4-0.3c0-0.2,0-0.4,0-0.4c-0.1-0.6-0.2-1.1-0.4-1.4c-0.2-0.3-0.5-0.5-0.9-0.6
		c-0.3-0.1-0.7-0.1-1.1-0.1c-0.5,0-1.2,0.1-2.2,0.2c-2,0.3-3.3,0.5-4,0.8c-0.6,0.2-1,0.6-1.2,1.1c-0.1,0.2-0.1,0.5-0.1,0.9
		c0,0.4,0.1,1.1,0.2,2c0.1,0.9,0.2,1.5,0.3,1.9c0.1,0.4,0.2,0.8,0.4,1c0.2,0.2,0.4,0.4,0.7,0.5c0.3,0.1,0.8,0.2,1.5,0.1
		c0.6,0,1.7-0.2,3.2-0.4c1.4-0.2,2.4-0.4,2.9-0.6c0.4-0.1,0.6-0.3,0.8-0.5c0.1-0.1,0.2-0.3,0.2-0.4c0.1-0.4,0.1-0.8,0.1-1.5
		C60.1,92.2,60.1,91.9,60,91.6L60,91.6z"/>
	<path class="st301" d="M37.1,88.7c-0.1,0.2-0.2,0.4-0.3,0.5c-0.1,0.1-0.2,0.1-0.3,0.2c-0.1,0-0.2,0-0.3,0c-0.1,0-0.4-0.2-1-0.4
		l-0.5-0.2l-2.6-1.2l0.8-1.7l1.7,0.8l1.3,0.6c0.5,0.2,0.8,0.4,0.9,0.4c0.1,0,0.2,0.1,0.2,0.2c0.1,0.1,0.1,0.2,0.1,0.4
		C37.3,88.3,37.2,88.5,37.1,88.7L37.1,88.7z M38.1,90.9c0.2-0.1,0.4-0.2,0.6-0.4c0.1-0.1,0.2-0.3,0.4-0.6c0.1-0.1,0.2-0.3,0.2-0.5
		c0.3-0.6,0.4-1.1,0.5-1.4c0-0.3,0-0.6-0.2-0.9c-0.1-0.2-0.3-0.4-0.5-0.5c0,0-0.1-0.1-0.1-0.1c-0.2-0.1-1-0.5-2.2-1.1l-2.2-1
		L31.6,83l-1.8,3.8l-1.5,3.3l1.5,0.7l0.6,0.3l0.8-1.8l3,1.4c0.1,0.1,0.2,0.1,0.3,0.2c0.3,0.1,0.4,0.2,0.5,0.3
		c0.1,0.1,0.2,0.2,0.3,0.3c0,0.1,0,0.3,0,0.5c0,0.2-0.2,0.5-0.3,0.9L35,93.2l2.1,1l0.3-0.7c0.3-0.6,0.5-1,0.5-1.2c0-0.2,0-0.4,0-0.6
		c-0.1-0.3-0.4-0.6-0.8-0.8C37.5,91,37.9,91,38.1,90.9L38.1,90.9z"/>
	<path class="st301" d="M67.4,87.5c-0.1,0.1-0.1,0.1-0.2,0.2c-0.1,0-0.4,0.2-1,0.4l-1.3,0.5l-1.8,0.8l-0.7-1.8l2.6-1l0.5-0.2
		c0.5-0.2,0.8-0.3,0.9-0.3c0.1,0,0.2-0.1,0.3,0c0.1,0,0.2,0.1,0.3,0.2c0.1,0.1,0.2,0.3,0.3,0.5c0.1,0.3,0.2,0.4,0.2,0.6
		C67.5,87.3,67.5,87.4,67.4,87.5L67.4,87.5z M70.5,88.4c-0.1-0.2-0.3-0.3-0.4-0.4c-0.1,0-0.1-0.1-0.2-0.1c-0.3-0.1-0.6,0-0.9,0.1
		c0.4-0.2,0.6-0.4,0.8-0.7c0.1-0.2,0.2-0.5,0.1-0.8c0-0.3-0.1-0.7-0.4-1.2c-0.3-0.6-0.5-1.1-0.7-1.3c-0.2-0.2-0.5-0.4-0.8-0.4
		c-0.3,0-0.6,0-0.8,0c-0.2,0.1-0.9,0.4-2.1,0.8c0,0-0.1,0-0.2,0.1l-5,2l-0.4,0.1l0.4,0.9l2.6,6.4l2.2-0.9l-0.7-1.8l1.1-0.4l2-0.8
		c0.5-0.2,0.8-0.3,0.9-0.3c0.2,0,0.3,0,0.4,0c0.1,0.1,0.2,0.2,0.3,0.3c0.1,0.2,0.2,0.4,0.4,0.8l0.2,0.4l0.7-0.3l1.5-0.6l-0.3-0.7
		C70.8,89,70.6,88.6,70.5,88.4L70.5,88.4z"/>
	<path class="st301" d="M79,80l-0.1-0.2l-2.1-2.6l-1.8,1.5l2.3,2.8c0.1,0.2,0.3,0.4,0.5,0.7c0.2,0.3,0.3,0.5,0.4,0.6
		c0,0.1,0.1,0.3,0.1,0.4c0,0.2-0.1,0.4-0.4,0.7c-0.2,0.2-0.7,0.6-1.3,1.1c-0.8,0.6-1.3,1-1.7,1.2c-0.3,0.1-0.6,0.1-0.8-0.1
		c-0.2-0.1-0.5-0.5-1.1-1.2l-2.3-2.8l-0.4,0.3l-1.5,1.2l1.5,1.8l0.8,1c0.6,0.7,1,1.2,1.1,1.4c0.2,0.2,0.4,0.4,0.6,0.6
		c0.6,0.5,1.3,0.6,2.1,0.3c0.4-0.2,0.7-0.4,1.1-0.7c0.4-0.3,1-0.8,1.7-1.3c0.4-0.3,0.8-0.6,1.1-0.9c0.4-0.4,0.8-0.7,1-0.9
		c0.4-0.4,0.7-0.8,0.8-1.1c0.2-0.6,0.2-1.1-0.2-1.7C80.3,81.6,79.8,81,79,80L79,80z"/>
	<path class="st302" d="M21.4,19.8c0,0.1-0.1,0.2-0.1,0.3c-0.1,0.1-0.3,0.4-0.7,0.8l-1.4,1.5l-0.9,0.9l-1.4-1.3l2.3-2.4l0,0
		c0.4-0.4,0.6-0.6,0.7-0.7c0.1-0.1,0.2-0.1,0.3-0.2c0.1,0,0.3,0,0.4,0c0.1,0,0.3,0.2,0.5,0.3c0.2,0.2,0.3,0.3,0.4,0.5
		C21.4,19.6,21.4,19.7,21.4,19.8L21.4,19.8z M25.6,20.3c-0.5-0.5-0.8-0.8-1-0.9c0,0,0,0-0.1-0.1c-0.2-0.1-0.3-0.1-0.5-0.1
		c-0.3,0-0.7,0.1-1.1,0.5c0.3-0.4,0.4-0.7,0.4-0.9c0-0.3,0-0.5-0.2-0.7c-0.1-0.2-0.4-0.6-0.8-1c-0.5-0.5-0.9-0.8-1.2-0.9
		c-0.3-0.1-0.6-0.2-1-0.1c-0.3,0.1-0.5,0.2-0.7,0.4c-0.1,0.1-0.2,0.2-0.4,0.4c-0.3,0.3-0.8,0.7-1.3,1.4l-1.7,1.7l-2.3,2.4l2.3,2.3
		l3,2.9l0.3,0.3l1.7-1.7l-1.4-1.4l2.3-2.4c0.3-0.3,0.6-0.6,0.7-0.7c0.1-0.1,0.3-0.1,0.4-0.1c0.1,0,0.3,0.1,0.4,0.2
		c0.2,0.1,0.4,0.3,0.7,0.6l0.3,0.3l0,0l1.3-1.4l0.3-0.3l-0.3-0.3L25.6,20.3L25.6,20.3z"/>
	<path class="st302" d="M17.6,27.4c-0.3-0.2-0.8-0.5-1.5-0.9c-0.2-0.1-0.4-0.2-0.6-0.3l-3.2-1.7l-1.1,2.1l3.2,1.7
		c0.2,0.1,0.4,0.3,0.8,0.4c0.3,0.2,0.5,0.3,0.6,0.4c0.1,0.1,0.2,0.2,0.2,0.3c0.1,0.2,0,0.4-0.1,0.7c-0.1,0.3-0.4,0.8-0.8,1.5
		c-0.5,0.9-0.8,1.5-1.1,1.7c-0.3,0.3-0.5,0.3-0.8,0.2c-0.2-0.1-0.7-0.3-1.4-0.7l-1.1-0.6l-2.1-1.1L8,32.6l-0.4,0.8L8,33.6l2.8,1.5
		c0,0,0,0,0,0c0.8,0.4,1.3,0.7,1.5,0.8c0.2,0.1,0.5,0.2,0.8,0.3c0.8,0.3,1.5,0.1,2-0.6c0.3-0.3,0.5-0.7,0.8-1.1
		c0.1-0.1,0.1-0.2,0.2-0.3c0.2-0.4,0.5-0.9,0.9-1.5c0.6-1.1,1-1.9,1.2-2.4c0.2-0.5,0.3-1,0.3-1.3C18.5,28.3,18.2,27.8,17.6,27.4
		L17.6,27.4z"/>
	<polygon class="st302" points="10.8,49.6 12.5,49.6 12.5,47.1 10.8,47.1 8,47 4.7,46.9 4.6,49.4 8,49.5 	"/>
	<polygon class="st302" points="10.8,53.1 8,53.5 6.7,53.6 6.3,50.2 4.3,50.4 5.5,59.8 7.4,59.6 7,56.1 8,56 10.8,55.7 12.8,55.4 
		12.5,52.9 	"/>
	<path class="st302" d="M11.9,39.6c0,0.1-0.1,0.5-0.3,1.2l-0.7,3.3l-0.1,0l-1.1-0.3l0.7-3.3c0.2-0.9,0.4-1.4,0.4-1.5l0,0
		c0.1-0.2,0.3-0.3,0.6-0.2c0.3,0.1,0.5,0.2,0.5,0.4C11.9,39.4,11.9,39.5,11.9,39.6L11.9,39.6z M8.9,40.2l-0.7,3.3l-0.1,0l-1.1-0.3
		l0.7-3.3c0.2-0.7,0.3-1.1,0.3-1.2v0c0.1-0.2,0.3-0.3,0.6-0.2c0.3,0.1,0.5,0.2,0.5,0.4C9.1,39,9,39.5,8.9,40.2L8.9,40.2z M13.7,37.3
		c-0.3-0.3-0.7-0.5-1.3-0.6c-0.7-0.2-1.3-0.1-1.6,0.1c0,0-0.1,0-0.1,0.1c-0.2,0.1-0.3,0.4-0.4,0.7c0-0.4-0.1-0.7-0.4-0.9
		c-0.2-0.2-0.6-0.4-1.2-0.5C8.5,36.1,8.2,36,8,36c-0.1,0-0.3,0-0.4,0c-0.3,0-0.5,0.2-0.7,0.4c-0.2,0.2-0.4,0.5-0.5,1
		c-0.1,0.2-0.2,0.9-0.5,2.1L4.6,45L8,45.8l2.8,0.6l1.4,0.3l1.3-5.5c0.3-1.3,0.5-2.1,0.5-2.3c0.1-0.4,0.1-0.7,0-1
		C14,37.7,13.9,37.5,13.7,37.3L13.7,37.3z"/>
	<path class="st302" d="M95.4,51.4c0-0.5-0.2-0.9-0.4-1.2c-0.4-0.3-1-0.6-1.8-0.6c-0.8-0.1-1.4,0-1.7,0.3c-0.2,0.2-0.4,0.4-0.5,0.7
		c-0.1,0.3-0.2,0.7-0.3,1.3c0,0.3-0.1,0.9-0.2,1.9c-0.1,0.9-0.2,1.6-0.2,1.8c0,0.4-0.1,0.6-0.2,0.7c-0.1,0.1-0.2,0.1-0.4,0.2h-0.1
		c-0.3,0-0.5-0.1-0.6-0.3c0-0.1-0.1-0.3-0.1-0.5c0-0.2,0-0.8,0.1-1.8c0.1-1,0.1-1.5,0.2-1.7c0-0.2,0.1-0.3,0.2-0.4
		c0.1-0.1,0.2-0.1,0.3-0.2c0.1,0,0.3,0,0.4,0l0.2-2.3l-0.4,0h-0.2c-0.4,0-0.8,0-1.1,0.1c-0.3,0.1-0.5,0.3-0.7,0.6
		c-0.2,0.3-0.3,0.7-0.4,1.2c-0.1,0.5-0.2,1.4-0.3,2.6c-0.1,1.4-0.1,2.3-0.1,2.9c0,0.5,0.1,0.9,0.2,1.1c0.1,0.3,0.3,0.5,0.5,0.7
		c0.4,0.2,0.9,0.3,1.6,0.4h0.2c0.5,0,0.8,0,1.1-0.1c0.3-0.1,0.6-0.3,0.7-0.6c0.2-0.2,0.3-0.6,0.4-1c0.1-0.4,0.2-1.2,0.3-2.5
		c0.1-1.5,0.3-2.3,0.3-2.5c0.1-0.2,0.3-0.3,0.5-0.3c0.3,0,0.4,0.1,0.5,0.4c0,0.2,0,0.8,0,1.8c0,0.8-0.1,1.4-0.1,1.6
		c0,0.3-0.1,0.4-0.1,0.5c-0.1,0.1-0.1,0.1-0.2,0.1c-0.1,0-0.2,0-0.5,0l-0.2,2.3c0.2,0,0.3,0,0.4,0c0.7,0,1.2,0,1.5-0.3
		c0.3-0.3,0.5-0.7,0.7-1.4c0.1-0.5,0.2-1.2,0.3-2.4C95.4,53,95.4,51.9,95.4,51.4L95.4,51.4z"/>
	<path class="st302" d="M76.3,17.7c-0.1,0-0.2,0-0.3-0.1c-0.1,0-0.4-0.2-0.9-0.6l-0.3-0.2l-2.5-1.7l1.1-1.6l1.4,0.9l1.4,1
		c0.4,0.3,0.7,0.5,0.8,0.6c0.1,0.1,0.2,0.1,0.2,0.2c0.1,0.1,0.1,0.2,0,0.4c0,0.1-0.1,0.3-0.3,0.5c-0.2,0.2-0.3,0.4-0.4,0.4
		C76.5,17.6,76.4,17.7,76.3,17.7L76.3,17.7z M77.3,20.2c0-0.3-0.2-0.7-0.6-1c0.4,0.2,0.7,0.3,1,0.3c0.3,0,0.5-0.1,0.7-0.3
		c0,0,0,0,0,0c0.2-0.2,0.5-0.5,0.8-0.9c0.2-0.3,0.4-0.6,0.5-0.9c0.1-0.2,0.2-0.3,0.2-0.4c0.1-0.3,0.1-0.6-0.1-1
		c0-0.1-0.1-0.1-0.1-0.2c-0.1-0.2-0.2-0.3-0.4-0.4c-0.1-0.1-0.4-0.3-0.9-0.7c-0.3-0.2-0.6-0.4-1-0.7l-2.5-1.8l-2.2-1.5l-4.5,6.4
		l2,1.4l1.1-1.6l2.8,1.9c0.4,0.3,0.7,0.5,0.8,0.6l0,0c0.1,0.1,0.1,0.2,0.1,0.3c0,0.1,0,0.3-0.1,0.4c0,0,0,0.1,0,0.1
		c-0.1,0.2-0.2,0.4-0.4,0.7l-0.2,0.3l0.7,0.5l1.2,0.9l0.4-0.6c0.4-0.5,0.6-0.9,0.7-1.1C77.3,20.6,77.3,20.4,77.3,20.2L77.3,20.2z"/>
	<path class="st302" d="M82.8,27.4c-0.2,0-0.4-0.2-0.6-0.4c-0.2-0.2-0.6-0.7-1.2-1.5c-0.6-0.7-1-1.3-1.2-1.6c0,0,0,0,0-0.1
		c-0.3-0.4-0.3-0.8,0-1.1c0,0,0,0,0-0.1c0.1-0.2,0.4-0.4,0.7-0.6c0.6-0.5,1-0.8,1.3-0.9c0.3-0.1,0.5,0,0.8,0.1
		c0.2,0.2,0.7,0.7,1.5,1.7c0.7,0.9,1.1,1.4,1.3,1.7c0.1,0.2,0.2,0.5,0.1,0.7c0,0.2-0.1,0.4-0.3,0.5c-0.2,0.2-0.5,0.5-0.9,0.8
		c-0.4,0.3-0.6,0.5-0.8,0.6C83.1,27.4,82.9,27.4,82.8,27.4L82.8,27.4z M85.5,28.7c0.1-0.1,0.2-0.1,0.3-0.2c0.9-0.8,1.6-1.4,1.9-1.8
		c0.4-0.6,0.4-1.3,0-2.1c-0.3-0.5-1-1.5-2.1-2.8c0,0,0,0,0,0c-1.1-1.3-1.8-2.2-2.3-2.6c-0.7-0.6-1.4-0.8-2.1-0.5
		c-0.4,0.2-0.9,0.5-1.5,1c-0.2,0.1-0.4,0.3-0.6,0.5c-0.3,0.2-0.5,0.4-0.7,0.6c-0.6,0.5-1,0.9-1.2,1.2c-0.4,0.6-0.4,1.3,0,2.1
		c0.2,0.4,0.6,0.9,1.2,1.6c0.3,0.4,0.6,0.7,0.9,1.2c0.1,0.1,0.3,0.3,0.4,0.4c0.9,1.1,1.5,1.8,1.9,2.2c0.7,0.6,1.4,0.8,2.1,0.5
		C84.1,29.7,84.7,29.3,85.5,28.7L85.5,28.7z"/>
	<path class="st302" d="M87.3,37.6c0.4-0.1,0.9-0.3,1.5-0.6l0.9-0.4l3.3-1.5l-1-2.2l-2.3,1.1l-1.9,0.9c-0.3,0.1-0.5,0.2-0.7,0.3
		c-0.1,0-0.2,0-0.3,0c-0.3-0.1-0.5-0.6-0.9-1.3c-0.2-0.3-0.3-0.7-0.4-0.9c-0.1-0.3-0.1-0.4,0-0.6c0,0,0,0,0-0.1
		c0-0.1,0.1-0.1,0.2-0.2c0.1-0.1,0.4-0.2,0.8-0.4l-1-2.1l0-0.1c-0.3,0.1-0.6,0.2-0.7,0.3c-0.4,0.2-0.8,0.4-1,0.6
		c-0.6,0.4-0.8,1-0.6,1.7c0.1,0.6,0.5,1.5,1,2.7c0.5,1,0.8,1.7,1.1,2.1c0.1,0.1,0.2,0.2,0.3,0.3c0.2,0.2,0.5,0.4,0.8,0.5
		C86.6,37.7,86.9,37.7,87.3,37.6L87.3,37.6z"/>
	<path class="st302" d="M89.1,40.4c0.1,0,0.3-0.1,0.6-0.2c0.1,0,0.3-0.1,0.4-0.1c0.8-0.1,1.3-0.2,1.6-0.1c0.3,0,0.5,0.2,0.6,0.5
		c0.1,0.2,0.3,1,0.5,2.2c0.2,1.1,0.3,1.8,0.3,2.1c0,0.3-0.1,0.5-0.2,0.7c-0.1,0.1-0.3,0.2-0.5,0.3c-0.3,0.1-0.7,0.2-1.2,0.3
		c-0.5,0.1-0.8,0.1-1,0.1c-0.2,0-0.3-0.1-0.4-0.1c0,0-0.1,0-0.1-0.1c-0.1-0.1-0.3-0.3-0.4-0.7c-0.1-0.3-0.2-0.9-0.4-1.9
		c-0.2-1-0.3-1.7-0.3-2.1C88.6,40.9,88.8,40.6,89.1,40.4L89.1,40.4z M89.2,48.6c0.1,0,0.3,0,0.5,0c0.5,0,1.2-0.1,2.1-0.3
		c1.2-0.2,2.1-0.4,2.5-0.7c0.7-0.3,1-1,1-1.9c0-0.6-0.2-1.8-0.5-3.5c-0.3-1.7-0.5-2.8-0.7-3.4c-0.3-0.9-0.8-1.4-1.6-1.4
		c-0.5,0-1.4,0-2.6,0.2c-0.1,0-0.2,0-0.3,0c-1.1,0.2-1.9,0.4-2.3,0.6c-0.7,0.3-1,1-1,1.9c0,0.6,0.2,1.8,0.5,3.5
		c0.3,1.7,0.5,2.8,0.7,3.4C87.9,48.1,88.4,48.6,89.2,48.6L89.2,48.6z"/>
	<path class="st302" d="M31.9,14.7c-0.1,0.2-0.2,0.4-0.5,0.5c-0.3,0.2-0.8,0.5-1.7,1c-0.9,0.5-1.5,0.8-1.8,0.9
		c-0.4,0.2-0.8,0.1-1.1-0.2c-0.1-0.2-0.3-0.4-0.6-0.9c-0.1-0.3-0.3-0.5-0.4-0.7c-0.2-0.3-0.3-0.6-0.3-0.7c0-0.3,0-0.5,0.3-0.7
		c0,0,0,0,0,0c0.2-0.2,0.8-0.6,1.9-1.2c1-0.5,1.6-0.9,1.9-1c0.3-0.1,0.5-0.1,0.7,0c0.2,0.1,0.3,0.2,0.5,0.4c0.2,0.2,0.4,0.6,0.7,1.1
		c0.2,0.4,0.4,0.7,0.4,0.9C31.9,14.4,31.9,14.6,31.9,14.7L31.9,14.7z M34.1,13.3c-0.2-0.4-0.4-0.8-0.7-1.4c-0.6-1.1-1.1-1.8-1.5-2.2
		c-0.5-0.6-1.2-0.7-2.1-0.3c-0.6,0.2-1.6,0.8-3.1,1.6c-0.3,0.2-0.6,0.4-0.9,0.5c-0.5,0.3-1,0.6-1.3,0.8c-0.3,0.2-0.5,0.4-0.7,0.5
		c-0.7,0.6-1,1.2-0.8,2c0.1,0.5,0.5,1.3,1.1,2.3c0.2,0.3,0.3,0.6,0.5,0.9c0.4,0.6,0.7,1.1,1,1.3c0.1,0.1,0.2,0.2,0.4,0.3
		c0.5,0.3,1.1,0.3,1.7,0c0.6-0.2,1.6-0.8,3.1-1.6c1.5-0.8,2.4-1.4,3-1.8c0.2-0.1,0.3-0.3,0.5-0.4c0.4-0.4,0.5-1,0.4-1.5
		C34.5,14,34.3,13.7,34.1,13.3L34.1,13.3z"/>
	<path class="st302" d="M64.3,6.9c-0.4-0.2-1.2-0.4-2.3-0.8c-1.6-0.4-2.6-0.7-3.1-0.8c-0.5-0.1-1,0-1.3,0.2c-0.4,0.3-0.7,0.8-1,1.7
		c-0.2,0.8-0.2,1.3,0,1.7c0.1,0.2,0.3,0.4,0.6,0.6c0.3,0.2,0.7,0.3,1.2,0.5c0.3,0.1,0.9,0.3,1.8,0.6c0.9,0.3,1.5,0.5,1.8,0.6
		c0.4,0.1,0.6,0.2,0.7,0.3c0.1,0.1,0.1,0.3,0,0.5c-0.1,0.3-0.2,0.5-0.4,0.5c-0.1,0-0.3,0-0.5,0c-0.2,0-0.8-0.2-1.7-0.5
		c-0.9-0.3-1.5-0.4-1.7-0.5c-0.2-0.1-0.3-0.1-0.4-0.2c-0.1-0.2-0.1-0.4,0-0.8l-2.2-0.6l-0.1,0.3c-0.2,0.5-0.2,1-0.2,1.2
		c0,0.3,0.2,0.6,0.4,0.8c0.2,0.2,0.6,0.4,1.1,0.7c0.5,0.2,1.3,0.5,2.5,0.8c1.4,0.4,2.3,0.6,2.8,0.7c0.5,0.1,0.9,0.1,1.1,0
		c0.3,0,0.6-0.2,0.8-0.4c0.3-0.3,0.5-0.8,0.7-1.5c0.2-0.5,0.2-1,0.2-1.3c0-0.3-0.2-0.6-0.4-0.9c-0.2-0.2-0.5-0.4-0.9-0.6
		c-0.4-0.2-1.2-0.4-2.4-0.8C60,8.6,59.2,8.4,59,8.3c-0.2-0.1-0.3-0.3-0.2-0.6c0.1-0.3,0.2-0.4,0.5-0.4c0.2,0,0.8,0.1,1.8,0.4
		c0.8,0.2,1.3,0.4,1.6,0.5c0.2,0.1,0.4,0.2,0.5,0.3c0.1,0.1,0.1,0.1,0.1,0.2c0,0.1,0,0.2-0.1,0.4l2.2,0.6l0.1-0.4
		c0.2-0.7,0.2-1.2,0-1.6C65.4,7.5,65,7.2,64.3,6.9L64.3,6.9z"/>
	<polygon class="st302" points="42,5.3 43.3,11 43.1,11.1 37.8,6.3 34.1,7.1 33.7,7.2 34.1,9.1 35.5,14.9 37.8,14.3 36.5,8.6 
		36.7,8.6 42.1,13.3 46.1,12.4 44.3,4.8 	"/>
	<polygon class="st302" points="46.5,12.4 55.2,12.6 55.2,10.7 48.9,10.6 48.9,9.3 54.9,9.4 54.9,7.7 48.9,7.6 48.9,6.5 55.2,6.6 
		55.3,4.7 46.6,4.6 	"/>
	<polygon class="st301" points="11.8,60.5 13.2,63.2 16.2,63.7 14,65.8 14.5,68.7 11.8,67.3 9.2,68.7 9.7,65.8 7.5,63.7 10.5,63.2 	
		"/>
	<polygon class="st301" points="89.1,60.2 90.4,62.9 93.4,63.3 91.2,65.4 91.8,68.4 89.1,67 86.4,68.4 86.9,65.4 84.8,63.3 
		87.8,62.9 	"/>
</g>
</svg>
