<?xml version="1.0" encoding="utf-8"?>
<!-- Generator: Adobe Illustrator 19.2.1, SVG Export Plug-In . SVG Version: 6.00 Build 0)  -->
<svg version="1.1" id="Capa_1" xmlns="http://www.w3.org/2000/svg" xmlns:xlink="http://www.w3.org/1999/xlink" x="0px" y="0px"
	 viewBox="0 0 100 100" style="enable-background:new 0 0 100 100;" xml:space="preserve">
<style type="text/css">
	.st0{fill:url(#path34_4_);}
	.st1{fill:url(#path890_1_);}
	.st2{fill:#FFE500;stroke:#000000;stroke-width:2.098;stroke-miterlimit:3.863;}
	.st3{fill:#DA020E;}
	.st4{fill:#FFE500;}
	.st5{clip-path:url(#SVGID_2_);}
	.st6{fill:none;stroke:#B54005;stroke-width:10;stroke-miterlimit:3.863;}
	.st7{fill:url(#path7506_1_);}
	.st8{fill:url(#path8794_1_);}
	.st9{fill:url(#path15846_1_);}
	.st10{fill:url(#path16274_1_);}
	.st11{fill:url(#path39821_1_);}
	.st12{fill:url(#path39847_1_);}
	.st13{fill:url(#path39878_1_);}
	.st14{fill:url(#path39888_1_);}
	.st15{fill:url(#path41035_1_);}
	.st16{fill:url(#path9646-8_1_);}
	.st17{fill:url(#path41092_1_);}
	.st18{fill:url(#path41094_1_);}
	.st19{fill:none;stroke:#000000;stroke-width:2.098;stroke-miterlimit:3.863;}
	.st20{fill:url(#path41152_1_);}
	.st21{fill:url(#path39854_1_);}
	.st22{fill:url(#path39874_1_);}
	.st23{fill:#9C824A;stroke:#9C824A;stroke-width:0.793;stroke-miterlimit:282;}
	.st24{fill:#023474;stroke:#023474;stroke-width:0.793;stroke-miterlimit:282;}
	.st25{fill:#FFFFFF;stroke:#FFFFFF;stroke-width:0.793;stroke-miterlimit:282;}
	.st26{fill:#EF0107;stroke:#EF0107;stroke-width:0.793;stroke-miterlimit:282;}
	.st27{fill:#DB0007;stroke:#DB0007;stroke-width:0.793;stroke-miterlimit:282;}
	.st28{fill:#FFFFFF;}
	.st29{fill:#9C824A;}
	.st30{fill:#EF0107;stroke:#EF0107;stroke-width:0.3115;stroke-miterlimit:282;}
	.st31{fill:#DB0007;stroke:#DB0007;stroke-width:0.3115;stroke-miterlimit:282;}
	.st32{fill:#DB0007;}
	.st33{fill:#FFFFFF;stroke:#FFFFFF;stroke-width:0.3115;stroke-miterlimit:282;}
	.st34{fill:#FFFFFF;stroke:#FFFFFF;stroke-width:0.554;stroke-miterlimit:3.864;}
	.st35{fill:#231F20;}
	.st36{fill:#00B6F1;stroke:#00B6F1;stroke-width:1.700000e-02;stroke-miterlimit:3.864;}
	.st37{fill:#EF3E2E;}
	.st38{fill:#BBBDBF;}
	.st39{fill:#F0B83D;}
	.st40{fill:#00B6F1;stroke:#FFFFFF;stroke-width:1.700000e-02;stroke-miterlimit:3.864;}
	.st41{fill:#001C58;}
	.st42{fill:#94BEE5;}
	.st43{fill:none;stroke:#7A003C;stroke-width:2.2437;stroke-miterlimit:6;}
	.st44{fill:#7A003C;}
	.st45{fill:#FFE600;}
	.st46{fill:#DBA111;}
	.st47{fill:#034694;}
	.st48{fill:#D1D3D4;}
	.st49{fill:#ED1C24;}
	.st50{fill:#6A7AB5;}
	.st51{fill:none;}
	.st52{fill:#274488;}
	.st53{fill:#004798;stroke:#004798;stroke-width:9.375000e-02;}
	.st54{fill:#FFFFFF;stroke:#FFFFFF;stroke-width:9.375000e-02;}
	.st55{fill:#FABC00;stroke:#FABC00;stroke-width:9.375000e-02;}
	.st56{fill:none;stroke:#FFFFFF;stroke-width:7.865;stroke-miterlimit:3.864;}
	.st57{fill:none;stroke:#FFFFFF;stroke-width:7.865;stroke-miterlimit:12;}
	.st58{fill:none;stroke:#FFFFFF;stroke-width:7.865;stroke-miterlimit:22;}
	.st59{fill:none;stroke:#FFFFFF;stroke-width:7.865;stroke-miterlimit:6;}
	.st60{fill:#00A398;}
	.st61{fill:#D00027;}
	.st62{fill:none;stroke:#FFFFFF;stroke-width:17.3907;stroke-miterlimit:3.864;}
	.st63{fill:none;stroke:#FFFFFF;stroke-width:13.1107;stroke-miterlimit:3.864;}
	.st64{fill:#FEF667;}
	.st65{fill:#D00027;stroke:#D00027;}
	.st66{fill:#5299C6;}
	.st67{fill:#60223B;}
	.st68{fill:#F7C240;}
	.st69{fill:#292D6B;}
	.st70{fill:#1B458F;}
	.st71{fill:#C4122E;}
	.st72{fill:#27409B;}
	.st73{clip-path:url(#SVGID_4_);}
	.st74{fill:#F4F4F4;}
	.st75{fill:#D3D2D2;}
	.st76{fill:#A7A5A6;}
	.st77{fill:#091453;}
	.st78{fill:none;stroke:#FFFFFF;stroke-width:6.6301;}
	.st79{clip-path:url(#SVGID_6_);}
	.st80{fill:#724314;}
	.st81{fill:#240B08;}
	.st82{fill:#018B4B;}
	.st83{fill:#A6181D;}
	.st84{fill:#592D09;}
	.st85{fill:#FFCE65;}
	.st86{fill:#5CBFEB;}
	.st87{fill:none;stroke:#000000;stroke-width:10;}
	.st88{fill:none;stroke:#000000;}
	.st89{fill:#B2B2B2;}
	.st90{fill:none;stroke:#000000;stroke-width:0.3;}
	.st91{fill:#00A650;stroke:#000000;stroke-width:2;}
	.st92{fill:#241F20;stroke:#241F20;stroke-width:9.375000e-02;}
	.st93{fill:#FFF200;stroke:#FFF200;stroke-width:9.375000e-02;}
	.st94{fill:#A68A26;}
	.st95{fill:none;stroke:#A68A26;stroke-width:4.792100e-02;stroke-miterlimit:3.8637;}
	.st96{fill:#211E1E;}
	.st97{fill:none;stroke:#211E1E;stroke-width:4.792100e-02;stroke-miterlimit:3.8637;}
	.st98{fill:#EB172B;}
	.st99{fill:none;stroke:#EB172B;stroke-width:4.792100e-02;stroke-miterlimit:3.8637;}
	.st100{fill:#A68A26;stroke:#A68A26;stroke-width:4.792100e-02;stroke-miterlimit:3.8637;}
	.st101{fill:#D1BF7F;}
	.st102{fill:none;stroke:#D1BF7F;stroke-width:4.792100e-02;stroke-miterlimit:3.8637;}
	.st103{fill:none;stroke:#FFFFFF;stroke-width:4.792100e-02;stroke-miterlimit:3.8637;}
	.st104{fill:#EB172B;stroke:#EB172B;stroke-width:4.792100e-02;stroke-miterlimit:3.8637;}
	.st105{fill:#ED2127;}
	.st106{fill:#FBEE23;}
	.st107{stroke:#000000;}
	.st108{fill:#CF1F44;}
	.st109{fill:#1B449C;}
	.st110{fill:#E03A3E;}
	.st111{fill:#E03A3E;stroke:#E03A3E;stroke-width:0.6565;}
	.st112{fill:none;stroke:#1B449C;stroke-width:0.7493;}
	.st113{fill:none;stroke:#1B449C;stroke-width:0.7567;}
	.st114{fill:#1B449C;stroke:#1B449C;stroke-width:0.6274;}
	.st115{fill:#1B449C;stroke:#1B449C;stroke-width:0.6755;}
	.st116{fill:#2E6ABD;stroke:#2E6ABD;stroke-width:0.617;}
	.st117{fill:#FFFFFF;stroke:#FFFFFF;stroke-width:0.6175;}
	.st118{fill:#ED1248;}
	.st119{fill:#2E6ABD;}
	.st120{fill:#FDE100;}
	.st121{fill:#CC0000;}
	.st122{fill:#211E1F;}
	.st123{fill:#ED1A3B;}
	.st124{fill:#00AEEF;}
	.st125{fill:#FFC40D;}
	.st126{fill:#22B24C;}
	.st127{fill:#FFC20E;}
	.st128{fill:#0A3F86;}
	.st129{fill:#005CA9;}
	.st130{fill:#FFE000;}
	.st131{fill:#E2001A;}
	.st132{opacity:0;}
	.st133{opacity:0;fill:#FFFFFF;}
	.st134{fill:#FFFFFF;stroke:#000000;}
	.st135{fill:#0060A9;}
	.st136{fill:#E32219;}
	.st137{fill:#FFED00;}
	.st138{fill:#1D9053;}
	.st139{fill:#52A600;}
	.st140{fill:#EE2523;}
	.st141{fill:#F7D117;}
	.st142{fill:#171796;}
	.st143{fill:#009959;}
	.st144{fill:#D42E12;}
	.st145{fill:#703824;}
	.st146{fill:#E5254E;}
	.st147{fill:#8AC3EE;}
	.st148{fill:#B19221;}
	.st149{fill:#F5C03E;}
	.st150{fill:#FF1119;}
	.st151{fill:#1E6BC0;}
	.st152{fill:#B4742A;}
	.st153{fill:#371B02;}
	.st154{fill:url(#SVGID_7_);}
	.st155{fill:url(#SVGID_8_);}
	.st156{fill:url(#SVGID_9_);}
	.st157{fill:url(#SVGID_10_);}
	.st158{fill:url(#SVGID_11_);}
	.st159{fill:url(#SVGID_12_);}
	.st160{fill:url(#SVGID_13_);}
	.st161{fill:url(#SVGID_14_);}
	.st162{fill:url(#SVGID_15_);}
	.st163{fill:url(#SVGID_16_);}
	.st164{fill:#EB2626;}
	.st165{fill:#E9C32C;}
	.st166{fill:#D9D9D9;}
	.st167{fill:#009C5E;}
	.st168{fill:#1C75BC;}
	.st169{fill:#611D5C;}
	.st170{fill:#E2B900;}
	.st171{fill:#004B95;}
	.st172{fill:#A4234B;}
	.st173{fill:#DB2F36;}
	.st174{fill:#FFDF00;}
	.st175{fill:#A38D44;}
	.st176{fill:#57175E;}
	.st177{fill:#AFDCFD;}
	.st178{fill:#0090C6;}
	.st179{fill:#DB5232;}
	.st180{fill:#23C1E0;}
	.st181{fill:#F1A92A;}
	.st182{fill:#167FB6;}
	.st183{fill:#FED75D;}
	.st184{fill:#378CBF;}
	.st185{fill:#3E9692;}
	.st186{fill:#E67F29;}
	.st187{fill:#D8B43C;}
	.st188{fill:#EF3B33;}
	.st189{fill:#24923D;}
	.st190{opacity:6.000001e-02;fill:#101010;enable-background:new    ;}
	.st191{fill:#00529F;}
	.st192{fill:#EE324E;}
	.st193{fill:#FEBE10;}
	.st194{fill:#143C8B;}
	.st195{fill:#FFE24A;}
	.st196{fill:#EC1D24;}
	.st197{fill:#E6A514;}
	.st198{fill:#FFDF1C;}
	.st199{fill:#EE3524;}
	.st200{fill:#B23428;}
	.st201{fill:#D18816;}
	.st202{fill:#0097D7;}
	.st203{fill:#ED1C23;}
	.st204{fill:#E30613;}
	.st205{fill:#FFE400;}
	.st206{fill:#C51A1B;}
	.st207{clip-path:url(#SVGID_19_);}
	.st208{clip-path:url(#SVGID_20_);fill:none;stroke:#000000;stroke-width:0.8131;stroke-miterlimit:3.864;}
	.st209{fill:#0093D5;}
	.st210{fill:#004B9D;}
	.st211{fill:#FCC24F;}
	.st212{fill:#009545;}
	.st213{fill:#0072BB;}
	.st214{fill:#C4974E;}
	.st215{fill:url(#path1292_1_);}
	.st216{fill:#004996;}
	.st217{fill:#FFE667;}
	.st218{fill:none;stroke:#005187;stroke-width:0.153;stroke-miterlimit:3.864;}
	.st219{fill:#005187;}
	.st220{clip-path:url(#SVGID_22_);}
	.st221{clip-path:url(#SVGID_24_);fill:none;stroke:#000000;stroke-width:0.296;stroke-miterlimit:3.864;}
	.st222{clip-path:url(#SVGID_26_);fill:#FFE667;}
	.st223{clip-path:url(#SVGID_28_);fill:none;stroke:#000000;stroke-width:8.300000e-02;stroke-miterlimit:3.864;}
	.st224{fill:none;stroke:#000000;stroke-width:0.153;stroke-miterlimit:3.864;}
	.st225{clip-path:url(#SVGID_30_);fill:#E70005;}
	.st226{clip-path:url(#SVGID_32_);fill:none;stroke:#E70005;stroke-width:0.296;stroke-miterlimit:3.864;}
	.st227{clip-path:url(#SVGID_34_);fill:#E70005;}
	.st228{clip-path:url(#SVGID_36_);fill:none;stroke:#E70005;stroke-width:0.296;stroke-miterlimit:3.864;}
	.st229{clip-path:url(#SVGID_38_);fill:#E70005;}
	.st230{clip-path:url(#SVGID_40_);fill:none;stroke:#E70005;stroke-width:0.296;stroke-miterlimit:3.864;}
	.st231{clip-path:url(#SVGID_42_);fill:#E70005;}
	.st232{clip-path:url(#SVGID_44_);fill:none;stroke:#E70005;stroke-width:0.296;stroke-miterlimit:3.864;}
	.st233{fill:#E70005;}
	.st234{fill:none;stroke:#000000;stroke-width:0.141;stroke-miterlimit:3.864;}
	.st235{fill:#00276D;}
	.st236{fill:#C49308;}
	.st237{fill:#179D33;}
	.st238{fill:#999999;}
	.st239{fill:#FF0000;}
	.st240{fill:#E31837;}
	.st241{fill:#06357A;}
	.st242{fill:#B4053F;}
	.st243{fill:#DCA43E;}
	.st244{fill:#005CA5;}
	.st245{fill:#FAC400;}
	.st246{fill:#004083;}
	.st247{fill:#A95932;}
	.st248{fill:none;stroke:#000000;stroke-width:1.2215;}
	.st249{fill:#E62627;}
	.st250{fill:#00458C;}
	.st251{fill:#E11B22;}
	.st252{fill:#00AB4E;}
	.st253{fill:#F47920;}
	.st254{fill:#C7C8CA;}
	.st255{fill:#E11515;}
	.st256{fill:#A4965F;}
	.st257{fill:#E51636;}
	.st258{fill:#EACC00;}
	.st259{fill:#4F846B;}
	.st260{fill:#E22227;}
	.st261{fill:#FAE700;}
	.st262{fill:url(#SVGID_45_);}
	.st263{fill:#666666;}
	.st264{fill:#FFF200;}
	.st265{fill:#00275D;}
	.st266{fill:#EF3E33;}
	.st267{fill:none;stroke:#00275D;stroke-width:2.632;}
	.st268{fill:#3F7652;}
	.st269{fill:#F1D261;}
	.st270{fill:#004D8F;}
	.st271{fill:#E7B137;stroke:#E7B137;stroke-miterlimit:10;}
	.st272{fill:#E7B137;}
	.st273{fill:#162577;}
	.st274{fill:#12692C;}
	.st275{fill:#D8141D;}
	.st276{fill:#AB830D;}
	.st277{fill:#0086CB;}
	.st278{fill:#001F42;}
	.st279{fill:#9A8F4A;}
	.st280{fill:#00559D;}
	.st281{fill:#FDDE00;}
	.st282{fill:#00924C;}
	.st283{fill:#233984;}
	.st284{fill:#FFD42E;}
	.st285{fill:#BA3733;}
	.st286{fill:#46714D;}
	.st287{fill:#221F1F;}
	.st288{fill:#00559E;}
	.st289{fill:#005C46;}
	.st290{fill:#FBC860;}
	.st291{fill:#D57C48;}
	.st292{fill:#040403;}
	.st293{fill:#4AB969;}
	.st294{fill:#8ED8F8;}
	.st295{fill:#FEC34E;}
	.st296{fill:#FFC95B;}
	.st297{fill:#00644C;}
	.st298{fill:#70B865;}
	.st299{fill:#CA6F44;}
	.st300{fill:#A8B8BE;}
	.st301{fill:#1C2C80;}
	.st302{fill:#E10321;}
	.st303{fill:none;stroke:#231F20;stroke-width:0.318;stroke-miterlimit:3.864;}
	.st304{fill:#D71920;}
	.st305{fill:#484749;}
	.st306{fill:#D9DBDC;}
	.st307{fill:#DF725A;}
	.st308{fill:#F2CABA;}
	.st309{fill:#E89C84;}
	.st310{fill:#264F99;}
	.st311{clip-path:url(#SVGID_47_);}
	.st312{fill:#161413;}
	.st313{fill:#ED1B26;}
	.st314{fill:#E60D2E;}
	.st315{fill:#FCD600;}
	.st316{fill:#004D91;}
	.st317{fill:#EAB412;}
	.st318{fill:#FDD31D;}
	.st319{fill:#EFB800;}
</style>
<g id="g11" transform="matrix(0,1.25,1.25,0,-466.6575,-37.33375)">
	<path id="path755_1_" class="st303" d="M109.9,413.4c-3.6-12.1-15.7-24.1-31.8-29.4c-17.2-5.7-26.6-6.6-41.7-6.5
		c-5.4,11.9-6.4,26.1-6.5,35.9c0.1,9.9,1.1,24,6.5,35.9c15.2,0.1,24.6-0.8,41.7-6.5C94.1,437.4,106.3,425.4,109.9,413.4z"/>
	<path id="path759" class="st35" d="M42.6,379.9c-0.2,0-0.4,0-0.5,0c-0.7,0-1.4,0-2,0c-1.6,0-1.6,0-2,0.1c-0.4,1-0.8,2-1.3,3.1
		c-2.9,8.5-4.3,17.7-4.3,26.8c0,0.2,0,0.4,0,0.6c0,0.2,0,0.4,0,0.7c0,0.5,0,1,0,1.5c0,0.2,0,0.5,0,0.7c0,0.2,0,0.5,0,0.7
		c0,0.7,0,1.3,0,2c0,0.2,0,0.4,0,0.6c0,0.3,0,0.5,0,0.8c0,0.2,0,0.4,0,0.6c0.1,3.6,0.4,7.2,0.8,10.8c0.8,6.1,2.2,12.4,4.8,18
		c0.2,0,0.5,0.1,0.7,0.1c0.2,0,0.4,0,0.6,0c0.1,0,0.2,0,0.3,0c0.6,0,1.3,0,2,0c0.2,0,0.3,0,0.5,0c0.1,0,0.2,0,0.3,0
		c0.2,0,0.4,0,0.6,0c5.8-0.2,11.6-0.8,17.4-1.7c3-0.6,6-1.2,8.9-2c1.7-0.5,3.4-1.1,5.1-1.6c1-0.4,2.1-0.8,3.1-1.1
		c3-1.2,5.9-2.6,8.7-4.2c0.9-0.6,1.8-1.1,2.7-1.7c0.6-0.4,1.1-0.8,1.7-1.1c1.8-1.4,2.1-1.7,2.2-1.7c1.2-1.1,2.3-2.1,3.5-3.1
		c1.9-2,3.7-4.1,5.2-6.3c0.5-0.8,1-1.7,1.6-2.5c1.1-2,2-4.1,2.9-6.2c0-0.1,0.1-0.3,0.1-0.4c-0.6-1.6-1.3-3.1-2-4.7
		c-1.7-3.2-3.7-6.1-6-8.8c-0.8-0.8-1.6-1.7-2.4-2.5c-0.8-0.7-1.6-1.4-2.3-2.1c-2.5-1.9-3-2.2-3.1-2.3c-1.4-0.9-2.7-1.7-4.1-2.6
		c-7.4-4.1-15.4-6.7-23.7-8.4c-4.2-0.8-4.5-0.8-4.6-0.8c-3.5-0.4-6.9-0.8-10.4-1.1C45.9,380,44.3,380,42.6,379.9"/>
	<path id="path763" class="st304" d="M75.6,413.1c9.8,0,19.6,0,29.5,0c-0.5-1.1-0.9-2.1-1.3-3.2c-1.7-3.4-3.6-6.3-6.1-9.2
		c-0.5-0.6-1-1.1-1.5-1.7c-0.9-0.8-1.8-1.7-2.7-2.5c-2.2-1.7-4.4-3.4-6.8-4.8c0,0-0.1,0-0.1,0C82.9,398.8,79.3,406,75.6,413.1"/>
	<path id="path767_1_" class="st28" d="M78.5,422.5c0-0.3,0-0.5,0-0.8c-0.1-0.4-0.5-0.7-0.9-0.8c0,0.1,0,0.2,0,0.4
		c0,0.2,0,0.4,0,0.6c0,0.4,0,1-0.5,1.2c-0.3,0-0.3,0-0.4-0.1c-0.2-0.8,0.1-1.6,0-2.4c-0.2,0-0.4,0-0.5,0.1c-0.1,0.1-0.1,0.3-0.2,0.5
		c0,0.2,0,0.5,0.1,0.8c-0.2,0.7-0.4,1.5-0.6,2.2c0,0.7,0.1,1.3,0.3,2c-0.2,0.8-0.6,1.9-0.2,2.7c0.6,0,0.5-0.5,0.8-1
		c0.1,0,0.2,0,0.4,0c0.2,0.5,0,1,0.3,1.5c0.1,0,0.2,0,0.3,0c0.2-0.2,0.3-0.5,0.4-0.8c0.2-0.1,0.2-0.1,0.4,0c0.2,0.3,0.1,0.8,0.3,1.1
		c0.6,0,0.4-0.7,0.7-1.1c0.4,0,0.5,0.2,0.8,0.5c0.6,0,0.3-0.6,0.4-1.1c0,0,0.1-0.1,0.1-0.1c0.4,0.1,0.8,0.4,1.1,0.5
		c0.4-0.2,0-0.8-0.1-1c0-0.1,0-0.2,0-0.3c0.4-0.2,0.8,0.3,1.2-0.1c-0.1-0.4-0.6-0.9-0.2-1.3c0,0,0.1,0,0.1,0
		c0.8,0.8,1.5,1.6,2.3,2.4c0.2,0,1.3,1.5,1.5,1.7c0,0.7-0.3,1.1-0.8,1.5c-0.8,0.3-1.4,0.2-1.9-0.5c0-0.7,0-0.9,0.5-1.4
		c0.2-0.2,0.4-0.3,0.6-0.5c0-0.5-0.3-0.6-0.7-0.5c-0.5,0.3-0.9,0.6-1.2,1.2c0,0-0.1,0-0.1,0c0-0.8,0.7-1.3,1.2-1.7
		c0-0.5-0.4-0.6-0.9-0.5c-0.6,0.6-1,1.2-1.4,1.9c-0.1,0-0.2,0-0.3,0c-0.9-0.3-1.6-0.2-2.3,0.3c-0.2,0.2-0.3,0.3-0.5,0.5
		c-0.4,0.7-0.6,1.3-0.5,2.1c0.2,0.1,0.4,0.1,0.6,0.1c0.7-1.7,0.7-1.7,0.8-1.8c0,0.4-0.1,0.8-0.1,1.2c0.1,0.6,0.5,1.3,0.9,0.5
		c-0.1-1-0.4-1.4,0.6-1.9c1.2,0,1.6,1.2,2.5,1.9c0.2,0.1,0.5,0.2,0.8,0.3c0.2,0,0.4,0,0.6,0c0.3-0.1,0.7-0.2,1-0.3
		c1-0.6,1.5-1.7,1.4-2.9c0.5-0.1,0.9-0.1,1.4-0.2c0.2,0.1,0.5,0.2,0.7,0.2c0,0.1,0,0.1,0,0.2c-0.2,0.2-0.3,0.4-0.3,0.7
		c1.8,1,4-0.7,5.1-2c0.2,0,0.4,0.1,0.6,0.1c0.5-0.1,0.7-0.5,0.3-0.9c-0.2,0-0.3,0-0.5,0c0,0,0,0.1,0,0.1c-0.7-0.1-0.2-1.5,0-1.9
		c0.2-0.1,0.4-0.2,0.5-0.2c0-1-1.3,0.1-1.5,0.3c-0.8,0-0.1-0.8-0.5-1.1c-0.1,0-0.2,0-0.3,0c-0.3,0.3,0.1,1.4-0.5,1.3
		c-0.2-0.4-0.2-0.7-0.7-0.6c-0.2,0.4-0.3,0.6-0.1,1c0.5,0.3,1.1,0.5,1,1.2c-0.3,0.5-1,0.9-1.5,1c-0.6-0.6-1.3-1.2-2-1.7
		c-0.5,0-1,0.1-1.5,0.2c0.3-0.7,0.7-1.4,1.1-2.1c0.6-0.7,0.8-0.4,1.5,0.1c0.1,0,0.3,0,0.4,0c1.1-0.6,1.8-1.9,2.7-2.7
		c0.2,0,0.4,0.1,0.6,0.1c0.2-0.1,0.5-0.4,0.5-0.6c-0.4-0.4-0.5-0.2-0.9-0.2c-0.3-0.3-0.2-1.5,0.1-1.9c0.2-0.1,0.4-0.2,0.6-0.2
		c-0.2-0.9-1.2-0.1-1.5,0.3c-0.7,0.1-0.3-0.7-0.6-1.1c-0.4,0-0.3,0-0.5,0.3c0,0.3,0.2,1.1-0.3,1c-0.2-0.2-0.3-0.5-0.4-0.7
		c-0.1,0-0.1,0-0.2,0c-0.7,0.9,0.2,1.1,0.9,1.7c0,0.2,0,0.3,0.1,0.5c-0.3,0.4-0.7,0.7-1,1c0,0,0,0,0,0.1c-0.2,0.1-0.3,0.2-0.5,0.3
		c-0.8,0-1.5-0.6-2.3-0.8c-1.6,0-1.2,1.8-1.8,2.8c-0.7,0-1.6-1.1-1.7-1.8c0.5-1,1-2,1.7-2.7c0.4,0.1,1,0.2,1-0.4
		c-0.1-0.1-0.1-0.2-0.2-0.2c-0.2,0-0.5,0.1-0.7,0c-0.2-0.5-0.2-1.1,0-1.7c0.2-0.1,0.5-0.3,0.8-0.4c0-0.1,0-0.1,0-0.2
		c-0.7-0.7-1.3,1-1.9,0.3c0-0.3,0-0.6-0.1-0.9c-0.1-0.1-0.2-0.1-0.4-0.1c-0.2,0.2-0.2,0.9-0.2,1.2c-0.5,0.2-0.5-0.2-0.8-0.6
		c-0.7,0-0.5,0.7-0.2,1.1c0.3,0.2,1.1,0.5,1,1c-0.6,0.8-1.2,1.5-1.8,2.3c0,0-0.1,0-0.1,0c-0.6-1-1-2.1-1.4-3.2
		c-0.1-0.5,0.1-0.5,0.4-0.8c0-0.3,0-0.5-0.2-0.7c-0.4,0-0.4,0.5-0.7,0.6c-0.7-0.1-1-0.5-1.4-1c0-0.2,0.1-0.4,0-0.8
		c-0.5,0-0.4,0.1-0.6,0.6c0,0.4,0.2,0.8,0,1.1c-0.1,0-0.2,0-0.3,0.1c-0.3-0.2-0.6-0.4-0.9-0.4c0,0.1,0,0.3,0,0.4
		c0.3,0.2,0.8,0.4,0.8,0.8c-0.3,0.2-0.5,0-0.8,0c-0.1,0.1-0.2,0.2-0.2,0.2c0.2,0.9,1.1,0.3,1.7,0.2c0.1,0,0.2,0,0.4,0
		c0.6,1,0.9,2.3,1.3,3.3c-0.9,1.1-1.2,2.6-1.9,3.7C77.3,426.8,78.5,422.7,78.5,422.5"/>
	<path id="path771_1_" class="st28" d="M83.3,402.7c0.2-0.2,0.4-0.4,0.6-0.6c1.8,0,3.7,0,5.5,0c0.2,0.2,0.3,0.3,0.5,0.5
		c0,0.9,0,1.9,0,2.8c-0.2,0.2-0.4,0.4-0.6,0.6c-1.8,0-3.6,0-5.5,0c-0.2-0.2-0.4-0.4-0.6-0.6C83.3,404.5,83.3,403.6,83.3,402.7z
		 M84.6,403.4c0,0.5,0,0.9,0,1.4c1.4,0,2.8,0,4.3,0c0-0.5,0-0.9,0-1.4C87.4,403.4,86,403.4,84.6,403.4z"/>
	<path id="path779_1_" class="st28" d="M85.8,391.2c-2.4-1.3-4.8-2.5-7.3-3.6c-1.2-0.5-2.4-0.9-3.6-1.4c-0.1,0-0.1,0-0.2,0
		c-10.1,19.8-20.2,39.6-30.3,59.5c3.2,0.1,6.5-0.4,9.7-0.7c1.5-0.2,3-0.5,4.5-0.7C67.8,426.6,76.8,409,85.8,391.2"/>
	<path id="path787_1_" class="st35" d="M83.6,393.5c-0.2-0.5-0.3-1-0.5-1.4c-0.6-0.3-1.1-0.6-1.7-0.8c-0.8,1.7-0.8,1.7-0.8,1.8
		c0.3,0.2,0.7,0.3,1.1,0.5c-0.3,0.7-0.7,1.3-1,2c-0.7-0.4-1.4-0.7-2.1-1c0-0.8,1.1-2.2,1.4-3.1c-0.2-0.4-0.3-0.8-0.4-1.2
		c-3.3-1.7-3.3-1.7-3.7-1.8c-0.4,0.1-0.8,0.3-1.1,0.4c-0.7,1.3-1.3,2.5-1.9,3.8c0.1,0.5,0.3,1,0.4,1.5c0.6,0.3,1.1,0.6,1.7,0.8
		c0.3-0.6,0.6-1.2,0.9-1.8c-0.3-0.1-0.8-0.4-1-0.6c0.3-0.7,0.7-1.3,1.1-2c0.6,0.3,1.3,0.7,1.9,1c0,0,0,0.1,0,0.1
		c-0.5,0.9-1,1.9-1.4,2.9c0.1,0.4,0.3,0.8,0.4,1.3c1.2,0.6,2.4,1.2,3.6,1.9c0.4-0.2,0.9-0.3,1.3-0.4C82.3,396,82.9,394.8,83.6,393.5
		"/>
	<path id="path791" class="st35" d="M80.4,399.6c-0.2-0.4-0.3-0.8-0.4-1.2c-2.5-1.3-4.9-2.5-7.4-3.8c-0.4,0.1-0.8,0.2-1.2,0.4
		c-0.7,1.3-1.3,2.7-2,4c0.1,0.4,0.2,0.8,0.4,1.2c0.6,0.3,1.1,0.6,1.7,0.9c0.3-0.6,0.6-1.2,0.9-1.7c-0.2-0.1-0.7-0.4-0.9-0.5
		c0.3-0.7,0.7-1.3,1-2c0.1,0,0.1,0,0.2,0c1.8,0.9,3.7,1.9,5.6,2.8c0,0.3-0.8,1.9-1,2c-1.3-0.6-1.3-0.6-1.6-0.7
		c-0.3,0.6-0.6,1.1-0.9,1.7c0.8,0.4,1.5,0.8,2.3,1.2c1-0.3,1-0.3,1.2-0.4C80.3,399.9,80.3,399.9,80.4,399.6"/>
	<path id="path795_1_" class="st35" d="M77.7,405.1c-0.5-0.3-1.1-0.5-1.6-0.8c-0.1,0.2-0.2,0.4-0.3,0.6c-1.9-1-3.9-2-5.8-2.9
		c0.1-0.2,0.2-0.5,0.3-0.7c-0.5-0.2-1.1-0.5-1.6-0.7c-0.5,1-1,2-1.5,3c0.5,0.2,1,0.5,1.5,0.8c0.1,0,0.3-0.5,0.4-0.6
		c0.7,0.3,1.3,0.7,2,1c-0.3,0.5-0.5,1-0.8,1.5c-0.5,0-1.5-0.7-2-0.9c0.1-0.1,0.3-0.6,0.3-0.7c-0.5-0.3-1.1-0.5-1.6-0.8
		c-0.5,1-1,2-1.5,3c0.5,0.2,1.1,0.7,1.6,0.8c0.1-0.2,0.2-0.4,0.3-0.5c1.9,1,3.8,1.9,5.7,2.9c0,0.3-0.2,0.5-0.2,0.7
		c0.5,0.2,1,0.5,1.5,0.7c0-0.1,0.1-0.1,0.2-0.1c1.4-2.8,1.4-2.8,1.4-2.9c-0.5-0.3-1-0.6-1.6-0.8c-0.1,0.2-0.2,0.4-0.3,0.6
		c-0.7-0.3-1.3-0.7-2-1c-0.1-0.1-0.1-0.1-0.2-0.2c0.2-0.5,0.5-1,0.8-1.5c0.7,0.2,1.4,0.7,2.1,1c0,0.2-0.2,0.5-0.3,0.7
		c0.5,0.3,1,0.5,1.5,0.8C76.6,407.2,77.1,406.2,77.7,405.1"/>
	<path id="path799_1_" class="st28" d="M76.4,418.7C76.4,418.7,76.4,418.7,76.4,418.7c0.3,0.2,0.5,0.8,0.7,1.2
		c0-0.5-0.1-0.9-0.2-1.4c0,0,0.1,0,0.1,0c0.4,0.6,0.3,1.7,0.3,2.4c0,0.1,0,0.2,0.1,0.4c0.1-0.1,0.1-0.1,0.1-1.5
		c0-0.2-0.1-0.4-0.1-0.5c0-0.4,0-0.8,0-1.1c0.2-0.8,0.1-1.5-0.4-2.2c-0.4,0.1-0.5,0.2-0.8,0.5c-0.1,0-0.2,0-0.3,0
		c-0.3-0.1-0.3-0.1-0.7-0.5c0.1,0.7,0.1,1,0.7,1.2c0.1,0.1,0.2,0.1,0.2,0.2c0,0,0,0.1-0.1,0.1c-0.4,0-0.6-0.2-0.9-0.5
		c0,0.6,0.2,1.1,0.8,1.2C76.1,418.5,76.2,418.6,76.4,418.7"/>
	<path id="path803_1_" class="st28" d="M77.3,421.2c0-0.2-0.1-0.3-0.1-0.4c-0.1,0-0.2-0.6-0.7-1.7c-0.1-0.1-0.2-0.3-0.3-0.4
		c0,0,0,0,0.1,0c0,0,0,0,0-0.1c-0.5-0.1-1-0.5-1.5-0.7c0.2,0.9,0.3,1.1,1.1,1.4c0.4,0.3,0.6,0.8,0.8,1.3c0.1,0.3,0.2,0.6,0.3,0.9
		C77.3,421.4,77.3,421.3,77.3,421.2"/>
	<path id="path807_1_" class="st305" d="M76.4,418.8C76.4,418.8,76.3,418.8,76.4,418.8c0,0.2,0.1,0.3,0.2,0.4
		c0.5,1.1,0.6,1.7,0.7,1.7c0-0.7,0.1-1.8-0.3-2.4c0,0-0.1,0-0.1,0c0.1,0.5,0.2,0.9,0.2,1.4C76.9,419.5,76.7,418.9,76.4,418.8"/>
	<path id="path811_1_" class="st35" d="M76.5,424.1c-0.5,0.1-0.7,0.7-0.3,1.1C76.3,424.8,76.4,424.5,76.5,424.1"/>
	<path id="path815_1_" class="st35" d="M63,411.7c0.4-0.9,0.9-1.8,1.3-2.6c0.5,0.1,1.1,0.5,1.6,0.7c0,0.1,0,0.1-0.1,0.4
		c2.2,0.5,4.3,1.1,6.5,1.6c0.1-0.2,0.1-0.2,0.3-0.3c0.5,0.2,1,0.5,1.5,0.7c-0.4,0.8-0.8,1.5-1.2,2.3c-0.4,0-1.2-0.6-1.6-0.8
		c0.1-0.1,0.1-0.2,0.2-0.3c-0.2-0.1-0.2-0.1-0.6-0.1c-0.2,0.4-0.4,0.8-0.6,1.2c0.1,0.1,0.2,0.2,0.3,0.3c0.2-0.1,0.2-0.3,0.4-0.3
		c0.5,0.2,1,0.5,1.5,0.7c-0.4,0.8-0.8,1.6-1.2,2.4c-0.5-0.3-1-0.5-1.5-0.7c0-0.2,0.1-0.2,0-0.4c-1.6-1.4-3.2-2.8-4.8-4.2
		c-0.1,0-0.1-0.1-0.2-0.1c-0.1,0.1-0.1,0.2-0.2,0.2C64.1,412.2,63.6,411.9,63,411.7z M68.1,412.7c0.4,0.3,0.7,0.6,1.1,0.9
		c0.2-0.2,0.2-0.2,0.4-0.6C69.2,412.9,68.5,412.7,68.1,412.7z"/>
	<path id="path819" class="st28" d="M72.2,389.7c-1,0-1.9,0.1-2.9,0.1c-0.7,1.6-1.5,3.2-2.2,4.8c2.2-0.1,2.2-0.1,2.6-0.2
		C70.6,392.9,71.4,391.3,72.2,389.7"/>
	<path id="path823_1_" class="st28" d="M71.2,385.1c-1-0.3-1-0.3-1.4-0.3c-3.9,0.2-3.9,0.2-4.2,0.2c-0.7,1.6-1.5,3.2-2.2,4.8
		c1.9-0.1,3.8-0.2,5.7-0.2C69.9,388,70.6,386.6,71.2,385.1"/>
	<path id="path827_1_" class="st35" d="M70.9,418.4c-0.5-0.3-1.1-0.6-1.6-0.7c-0.2,0.4-0.2,0.4-0.3,0.6c-1.9-1-3.9-2-5.8-2.9
		c0.3-0.6,0.3-0.6,0.3-0.7c-0.2-0.1-1.4-0.8-1.5-0.7c-0.2,0.3-1.4,2.3-1.2,2.6c1,1,2,2,2.9,3c0,0,0,0,0,0.1c-0.7-0.3-1.4-0.7-2.1-1
		c0.2-0.6,0.2-0.6,0.2-0.7c-0.5-0.3-1-0.5-1.5-0.8c-0.1,0.4-0.1,0.4-1.5,3.1c0.5,0.2,1,0.5,1.5,0.8c0.1-0.2,0.2-0.4,0.4-0.6
		c1.9,1,3.9,2,5.8,3c-0.3,0.5-0.3,0.5-0.3,0.6c0.5,0.2,1,0.5,1.5,0.8c0.1,0,1.3-2.2,1.3-2.4c-1.2-1.2-2.4-2.4-3.6-3.6
		c0.1,0,2.6,1.3,2.8,1.3c0,0.2-0.1,0.4-0.2,0.6c1.4,0.7,1.4,0.7,1.6,0.8C69.9,420.3,70.4,419.3,70.9,418.4"/>
	<path id="path835_1_" class="st35" d="M58.3,424.9c0-0.1,0-0.1,0.7-1.5c0.2,0,0.2,0,1.2,0.5c0.3-0.6,0.5-1.1,0.8-1.7
		c-0.9-0.5-1.8-0.9-2.7-1.4c-0.9,1.7-1.8,3.5-2.7,5.2c0.5,0.3,1.1,0.6,1.6,0.8c0.3,0,7.3,0,7.3,0c-0.2,0.4-0.4,0.8-0.6,1.2
		c-0.2-0.1-0.2-0.1-1.4-0.7c-0.8,1.5-0.8,1.5-0.8,1.7c1,0.5,1.9,1,2.9,1.4c0.9-1.7,1.7-3.5,2.6-5.2c0-0.2-1.3-0.7-1.5-0.8
		C65.4,424.7,60.3,424.9,58.3,424.9"/>
	<path id="path839_1_" class="st28" d="M67,399.9c-0.8,0-1.6,0-2.4,0.1c-0.8,1.6-1.5,3.2-2.2,4.8c0.7,0,1.5,0,2.2-0.1
		C65.4,403.1,66.2,401.5,67,399.9"/>
	<path id="path843" class="st28" d="M66.7,394.9c-5.6,0.2-5.6,0.2-5.8,0.3c-0.8,1.6-1.5,3.2-2.2,4.8c1.9-0.1,3.8-0.2,5.7-0.3
		C65.2,398.1,65.9,396.5,66.7,394.9"/>
	<path id="path847_1_" class="st28" d="M66,383.7c-1.7-0.4-3.3-0.7-5-1.1c-0.1,0-0.1,0-0.2,0c-0.3,0.7-0.7,1.5-1,2.2
		c1.9-0.1,3.8-0.2,5.8-0.2C65.7,384.3,65.9,384,66,383.7"/>
	<path id="path851" class="st306" d="M64.5,427C64.5,427,64.3,427,64.5,427"/>
	<path id="path855_1_" class="st35" d="M64.2,431.5c-1.4-0.7-1.4-0.7-1.6-0.8c-0.1,0.2-0.2,0.4-0.3,0.6c-1.4-0.7-5.7-2.9-5.8-3
		c0.1-0.2,0.2-0.4,0.3-0.6c-0.1-0.3-1.2-0.8-1.6-0.8c-1,1.9-2,3.8-2.9,5.8c0,0,0,0.1,0,0.2c0.4,0.2,2.3,1.3,2.6,1.2
		c0.3-0.5,0.5-1.1,0.8-1.6c-0.1-0.2-0.7-0.4-0.9-0.5c0-0.1,0-0.1,0.8-1.7c0.3-0.2,1.8,0.8,2.1,0.9c-0.2,0.5-0.5,0.9-0.7,1.4
		c0.5,0.2,1,0.5,1.5,0.8c0.1-0.3,0.5-1.2,0.8-1.3c0.7,0.4,1.4,0.7,2.1,1.1c-0.3,0.6-0.6,1.1-0.9,1.7c-0.4-0.2-0.8-0.4-1.2-0.6
		c-0.1,0.2-0.9,1.5-0.8,1.7c2.1,1.1,2.1,1.1,2.7,1.4C62.2,435.4,63.2,433.4,64.2,431.5"/>
	<path id="path859_1_" class="st28" d="M63,390c-1.9,0.1-3.8,0.2-5.7,0.2c-0.8,1.6-1.5,3.2-2.2,4.8c0.4,0,0.7,0,1.1,0
		c4.6-0.2,4.6-0.2,4.7-0.2C61.5,393.2,62.3,391.6,63,390"/>
	<path id="path863" class="st28" d="M61.9,405.1c-1.9,0-3.8,0.1-5.7,0.2c-0.8,1.6-1.5,3.2-2.2,4.8c1.9-0.1,3.8-0.1,5.7-0.2
		C60.4,408.3,61.1,406.7,61.9,405.1"/>
	<path id="path867" class="st28" d="M58.5,413.1c0.6,0,1.2,0,1.8,0c0.5-1,1-2,1.6-3c-0.7,0-1.4,0-2,0.1
		C59.4,411.1,58.9,412.1,58.5,413.1"/>
	<path id="path871_1_" class="st35" d="M49.4,438.5c0.1-0.2,0.1-0.3,2.5-5c0.3,0.1,1.6,0.6,1.6,0.9c-0.1,0.2-0.2,0.4-0.3,0.6
		c1.9,1,3.9,2,5.8,3c0.1-0.2,0.2-0.4,0.3-0.6c0.5,0.3,1.1,0.5,1.6,0.8c-0.5,1-1,2-1.5,3c-0.5-0.1-1.1-0.5-1.5-0.7
		c0-0.2,0.2-0.4,0.2-0.7c-0.5-0.3-1.5-0.9-2.1-0.9c0.5,0.7,1,1.4,1.5,2.1c0,0,0,0,0.1,0c0-0.1,0.1-0.2,0.1-0.2
		c0.3-0.1,1.5,0.6,1.6,0.8c-1,2-1,2-1.3,2.4c-1.3-0.6-1.3-0.6-1.5-0.8c0.1-0.2,0.1-0.2,0.1-0.4c-1.4-2.1-1.4-2.1-1.5-2.2
		c-0.1,0.2-0.2,0.3-0.3,0.5c-0.4,0.1-1,0.4-1.4,0.4c-1.1-0.6-2.2-1.1-3.3-1.7C49.8,439.3,49.6,438.9,49.4,438.5z M51.6,438.2
		c0.6,0.3,1.2,0.6,1.9,0.9c0.3,0,0.7-1.1,0.8-1.4c-0.6-0.3-1.3-0.7-1.9-1C52,437,51.7,437.9,51.6,438.2z"/>
	<path id="path875_1_" class="st304" d="M46.4,413.9c0,0.8,0,1.6,0,2.4c0,0.3,0,0.5,0,0.8c0,0.2,0,0.4,0,0.6
		c0.2,6.1,0.6,12.3,2.1,18.3c3.8-7.4,7.6-14.9,11.4-22.3c-4.5,0-9,0-13.5,0C46.4,413.8,46.4,413.9,46.4,413.9"/>
	<path id="path879_1_" class="st28" d="M59.4,385.2c-1.9,0.1-3.8,0.1-5.7,0.2c-0.8,1.6-1.5,3.2-2.3,4.8c1.8-0.1,3.6-0.1,5.5-0.2
		c0.1,0,0.2-0.1,0.3-0.1C57.9,388.3,58.6,386.7,59.4,385.2"/>
	<path id="path883_1_" class="st28" d="M58.3,400.2c-1.9,0-3.9,0-5.8,0.2c-0.8,1.6-1.5,3.2-2.2,4.8c0.1,0,0.1,0,5.7-0.2
		C56.8,403.4,57.5,401.8,58.3,400.2"/>
	<path id="path887_1_" class="st28" d="M55.1,381.8c-1.2-0.1-2.4-0.3-3.6-0.4c-0.6,1.5-0.6,1.5-1.4,3.9c1.2-0.1,2.3-0.1,3.5-0.2
		C54,384,54.6,382.9,55.1,381.8"/>
	<path id="path891" class="st28" d="M54.6,395.4c-1.9,0.1-3.9,0.2-5.8,0.2c-0.6,1.3-1.2,2.6-1.8,3.9c0,0.3-0.1,0.6-0.1,0.9
		c1.8-0.1,3.6-0.2,5.4-0.2C53.1,398.5,53.9,396.9,54.6,395.4"/>
	<path id="path899" class="st28" d="M46.6,413.1c1.9,0,3.8,0,5.6,0c0.4-0.9,0.8-1.8,1.3-2.7c-1.9,0.1-3.8,0.2-5.7,0.2
		C47.4,411.4,47,412.3,46.6,413.1"/>
	<path id="path903_1_" class="st28" d="M51,390.4c-0.8,0-1.6,0.1-2.4,0.1c-0.6,2.9-0.6,2.9-0.9,4.8c1,0,1,0,1.1-0.1
		C49.5,393.7,50.2,392,51,390.4"/>
	<path id="path907" class="st28" d="M42.3,380.9c-0.8,0-1.5,0-2.3,0c-1.2,0-1.2,0-1.4,0.1c-0.8,2-1.5,4-2.2,6.1
		c-0.2,0.8-0.4,1.6-0.6,2.4c-0.8,3.5-0.8,3.5-0.8,3.6c-0.6,3.7-0.6,3.7-0.9,6.1c-0.2,1.6-0.3,3.3-0.5,4.9c-0.1,3.1-0.2,6.2-0.2,9.3
		c0,0.2,0,0.3,0,0.5c0,2.2,0,2.2,0.1,6.5c0.2,3.2,0.5,6.4,0.9,9.6c0.3,1.7,0.6,3.4,0.9,5.1c0.9,3.7,2,7.3,3.4,10.9
		c0.6,0,1.2,0,1.8,0c0.3,0,0.5,0,0.8,0c0.4,0,0.7,0,1.1,0c0.2,0,1.1,0,1.3,0c0,0,2.9-5.6,4.3-8.4c-0.6-2.7-1.1-5.5-1.5-8.3
		c-0.2-1.7-0.4-3.4-0.5-5c-0.7-11.3-0.6-23,1.9-34.1c0.6-2.2,1.2-4.3,1.9-6.4c0.3-0.8,0.6-1.6,0.9-2.3c-1-0.2-2.2-0.2-3.2-0.3
		C45.6,381,44,380.9,42.3,380.9"/>
	<path id="path911" class="st28" d="M46.4,408.8c0,0.2,0,0.3,0,0.5c0,0.4,0,0.7,0,1.1c0.4,0,0.8,0,1.3-0.1c0.2-0.3,0.2-0.3,2.2-4.8
		c-1.1,0-2.2,0.1-3.3,0.1C46.5,406.7,46.5,407.7,46.4,408.8"/>
	<path id="path915_1_" class="st304" d="M41.6,384.4c-0.3,0-0.6,0-0.9,0c0-0.2,0.1-0.3,0.1-0.5c-0.4,0-0.8,0-1.2,0
		c-0.3,1.5-0.7,3-0.9,4.4c0.6,0,1.2,0,1.9,0c0.1-0.4,0.2-0.8,0.3-1.3c-0.2,0-0.5,0-0.7,0c0.1-0.5,0.2-0.9,0.3-1.3c0.5,0,1,0,1.5,0
		c-0.1,0.3-0.1,0.7-0.2,1c0.4,0,0.8,0,1.1,0c0.1-0.3,0.1-0.7,0.2-1c0.5,0,1,0,1.5,0c0,0.2-0.1,0.3-0.1,0.5c0.4,0,0.8,0,1.1,0
		c0.2-0.8,0.3-1.5,0.5-2.3c-0.4,0-0.8,0-1.1,0c0,0.1-0.1,0.3-0.1,0.5C43.7,384.4,42.6,384.4,41.6,384.4"/>
	<path id="path919" class="st304" d="M45.3,438.1c-0.4,0-0.8,0-1.1,0c0,0.1,0,0.2,0.1,0.4c-1.4,0-2.8,0-4.2,0c0-0.1-0.1-0.3-0.1-0.4
		c0.3,0,0.5,0,0.8,0c-0.1-0.4-0.2-0.7-0.2-1.1c-0.2,0-1.5,0-1.9,0c0.3,1.4,0.6,2.9,0.9,4.4c0.6,0,1.3,0,1.9,0
		c-0.1-0.4-0.2-0.7-0.2-1.1c-0.3,0-0.5,0-0.8,0c0-0.1-0.1-0.2-0.1-0.3c1.4,0,2.8,0,4.2,0c0,0.1,0,0.3,0.1,0.5c0.4,0,0.8,0,1.1,0
		C45.6,439.6,45.4,438.9,45.3,438.1"/>
	<path id="path923_1_" class="st304" d="M44.5,388.7c-0.8,0-4.4,0-5.4,0c-0.3,0.3-0.5,0.4-0.6,0.6c-0.1,0.9-0.3,1.8-0.5,2.7
		c0,0.4,0.2,0.5,0.4,0.8c0.4,0,0.8,0,1.3,0c0.1-0.4,0.1-0.8,0.2-1.2c-0.2,0-0.4-0.1-0.6-0.1c0.1-0.5,0.2-1,0.2-1.5
		c1.2,0,2.4,0,3.6,0c0.2,0,0.3,0,0.5,0c-0.1,0.5-0.2,1-0.2,1.5c-0.4,0-0.8,0-1.1,0c-0.1,0.4-0.2,0.9-0.2,1.3c0.5,0,1.1,0,1.7,0
		c0.2-0.2,0.5-0.5,0.7-0.7c0.2-1,0.3-1.9,0.5-2.9C44.8,389,44.7,388.9,44.5,388.7"/>
	<path id="path927" class="st304" d="M44.3,432.1c-0.2,0-0.9,0-1.1,0c0,0.2,0,0.3,0.1,0.5c-0.5,0-3.2,0-4.2,0c0-0.2-0.1-0.3-0.1-0.5
		c-0.4,0-0.8,0-1.2,0c0.2,1.2,0.4,2.5,0.6,3.7c0.2,0.3,0.5,0.5,0.7,0.8c1.7,0,3.5,0,5.2,0c0.2-0.3,0.4-0.6,0.5-0.9
		C44.7,434.5,44.5,433.3,44.3,432.1"/>
	<path id="path931" class="st307" d="M44.5,388.7C43.7,388.6,43.7,388.7,44.5,388.7"/>
	<path id="path935" class="st308" d="M44.3,432.1C44.1,432.1,44.1,432.1,44.3,432.1"/>
	<path id="path939_1_" class="st304" d="M42.8,429.3c0.4,0,0.8,0,1.1,0c-0.1-0.6-0.1-1.2-0.2-1.8c-0.4,0-0.8,0-1.1,0
		c0,0.1,0,0.2,0,0.2c-1.4,0.3-2.7,0.6-4.1,1c0-0.1,0-0.2,0-0.2c-0.2,0-1,0-1.2,0c0.1,0.7,0.2,1.3,0.3,2c0.4,0,0.8,0,1.1,0
		c0-0.1,0-0.2,0-0.2c1.4,0.4,2.8,0.7,4.2,1.1c0,0.1,0.1,0.1,0.1,0.2c0.4,0,0.7,0,1.1,0c-0.1-0.6-0.2-1.2-0.2-1.8c-0.4,0-0.8,0-1.1,0
		c0,0.1,0,0.2,0,0.3c-0.1,0-0.3-0.1-0.4-0.1c0-0.3-0.1-0.6-0.1-0.9c0.1-0.1,0.2-0.1,0.4-0.1C42.8,429.1,42.8,429.2,42.8,429.3"/>
	<path id="path943" class="st304" d="M43.9,396c-0.4,0-0.8,0-1.1,0c0,0.2,0,0.3-0.1,0.5c-1.4,0-2.8,0-4.2,0c0-0.2,0-0.3,0-0.5
		c-0.1,0-0.2,0-0.3,0c-0.3,0-0.6,0-0.9,0c-0.1,0.8-0.2,1.5-0.3,2.3c0.4,0,0.8,0,1.2,0c0-0.2,0-0.3,0.1-0.4c1.4,0,2.8,0,4.2,0
		c0,0.1,0,0.3-0.1,0.4c0.4,0,0.8,0,1.2,0C43.8,397.5,43.8,396.7,43.9,396"/>
	<path id="path947" class="st309" d="M43.2,432.1C43.4,432.1,43.4,432.1,43.2,432.1"/>
	<path id="path951_1_" class="st304" d="M42.4,399.2c-0.4,0-0.8,0-1.2,0c-1,0-2,0-3,0c0-0.2,0-0.3,0-0.5c-0.4,0-0.8,0-1.1,0
		c-0.2,1.6-0.2,1.6-0.2,2c0.8,0.3,1.7,0.6,2.5,0.9c0,0,0.1,0-1.5,0.1c0-0.1,0-0.1,0-0.2c0-0.1,0-0.2,0-0.3c-0.4,0-0.8,0-1.1,0
		c-0.1,0.8-0.1,1.5-0.2,2.3c0.4,0,0.8,0,1.1,0c0-0.2,0-0.3,0-0.5c1.4,0,2.7,0,4.1,0c0,0.2,0,0.3,0,0.5c0.4,0,0.8,0,1.2,0
		c0.1-1.7,0.1-1.7,0.1-1.9c-1-0.4-2-0.7-3-1.1c0.7,0,1.3,0,2,0c0,0.1,0,0.2,0,0.4c0.4,0,0.8,0,1.1,0c0.1-0.8,0.2-1.5,0.2-2.2
		c-0.4,0-0.8,0-1.2,0C42.4,398.9,42.4,399,42.4,399.2"/>
	<path id="path955" class="st28" d="M43.4,433.9c-1.4,0-2.8,0-4.2,0c0.1,0.4,0.1,0.8,0.2,1.2c0.6,0,3.4,0,4.2,0
		C43.6,434.7,43.5,434.3,43.4,433.9"/>
	<path id="path959_1_" class="st304" d="M43.3,423.8c-0.4,0-0.8,0-1.1,0c0,0.1,0,0.3,0,0.4c-1.4,0-2.8,0-4.2,0c0-0.1,0-0.2,0-0.4
		c0.2,0,0.5,0,0.8,0c0-0.4-0.1-0.7-0.1-1.1c-0.6,0-1.3,0-1.9,0c0.1,1.4,0.3,2.9,0.4,4.4c0.6,0,1.3,0,1.9,0.1c0-0.4-0.1-0.7-0.1-1.1
		c-0.3,0-0.5,0-0.8,0c0-0.1,0-0.3,0-0.4c1.4,0,2.8,0,4.2,0c0,0.1,0,0.3,0,0.4c0.4,0,0.8,0,1.2,0C43.5,425.2,43.4,424.5,43.3,423.8"
		/>
	<path id="path963" class="st304" d="M42.3,418.1c-0.4,0-0.8,0-1.3,0c0,0.4,0,0.9,0.1,1.3c0.3,0,0.5,0,0.8,0c0,0.5,0,1,0.1,1.5
		c-0.5,0-1.1,0-1.6-0.1c-0.1-0.7-0.1-1.4-0.1-2.2c-0.2-0.2-0.4-0.4-0.6-0.6c-0.9,0-1.8,0-2.6,0c-0.2,0.2-0.3,0.4-0.5,0.6
		c0.1,2.6,0.1,2.6,0.1,3c0.2,0.2,0.5,0.5,0.7,0.7c0.4,0,0.8,0,1.2,0c0-0.5-0.1-0.9-0.1-1.4c-0.3,0-0.5,0-0.8,0c0-0.5-0.1-1-0.1-1.5
		c0.5,0,0.9,0,1.4,0c0,0.8,0.1,1.5,0.2,2.3c0.2,0.2,0.4,0.4,0.6,0.6c0.9,0,1.8,0,2.7,0c0.2-0.2,0.3-0.4,0.5-0.6c-0.1-1-0.1-2-0.2-3
		C42.7,418.5,42.5,418.3,42.3,418.1"/>
	<path id="path967" class="st304" d="M42.6,403.9c-1.8,0-3.6,0-5.4,0c-0.2,0.2-0.4,0.3-0.5,0.5c-0.1,1-0.3,2.3-0.1,3.3
		c0.2,0.2,0.3,0.4,0.5,0.6c0.4,0,0.8,0,1.2,0c0-0.5,0.1-0.9,0.1-1.3c-0.2,0-0.5,0-0.7,0c0-0.6,0-1.1,0.1-1.7c1.4,0,2.8,0,4.2,0
		c0,0.6-0.1,1.1-0.1,1.7c-0.4,0-0.7,0-1.1,0c0-0.4,0-0.7,0-1.1c-0.4,0-0.8,0-1.2,0c0,0.6-0.1,1.2-0.1,1.8c0.2,0.2,0.4,0.4,0.6,0.7
		c0.7,0,1.5,0,2.2,0c0.2-0.2,0.4-0.4,0.6-0.6c0-1.1,0.1-2.1,0.2-3.2C42.9,404.3,42.8,404,42.6,403.9"/>
	<path id="path971" class="st304" d="M42.9,415.2c0-0.2,0-1.3,0-1.6c0-0.1,0-0.2,0-0.3c-0.4,0-0.8,0-1.1,0c0,0.2,0,0.3,0,0.5
		c-1.4,0-2.8,0-4.2,0c0-0.2,0-0.3,0-0.5c-0.4,0-0.8,0-1.2,0c0,0.3,0,0.7,0,1c0,0.2,0,1.1,0,1.3c0.4,0,0.8,0,1.2,0c0-0.2,0-0.3,0-0.4
		c1.4,0,2.8,0,4.2,0c0,0.4,0,0.8,0,1.2c-0.3,0-0.6,0-0.8,0.1c0,0.4,0,0.8,0,1.2c0.7,0,1.3,0,2,0C42.9,416.9,42.9,416.1,42.9,415.2"
		/>
	<path id="path975_1_" class="st304" d="M36.4,410.2c0,0.2,0,0.3,0,0.5c0,0,0,0,0,0c0,0.2,0,0.5,0,0.7c0,0.2,0,0.5,0,0.8
		c0.2,0.2,0.4,0.4,0.6,0.7c1.7,0,3.5,0,5.3,0c0.2-0.2,0.5-0.5,0.6-0.7c0-0.3,0-1.4,0-1.6c0-0.4,0-0.9,0-1.3
		c-0.2-0.2-0.3-0.3-0.4-0.5c-1.8,0-3.6,0-5.4,0c-0.2,0.2-0.4,0.4-0.6,0.6C36.4,409.6,36.4,409.9,36.4,410.2"/>
	<path id="path979" class="st309" d="M39.1,388.7C40.2,388.7,40.2,388.6,39.1,388.7"/>
	<path id="path983" class="st28" d="M41.8,410.1c-1.4,0-2.8,0-4.2,0c0,0.1,0,0.2,0,0.2c0,0.2,0,0.4,0,0.6c0,0.2,0,0.4,0,0.6
		c1.4,0,2.8,0,4.2,0c0-0.1,0-0.1,0-0.1c0-0.2,0-0.5,0-0.7C41.8,410.5,41.8,410.3,41.8,410.1"/>
	<path id="path987_1_" class="st28" d="M41.6,429.6c0-0.1,0-0.2,0-0.3c-0.5,0.1-0.5,0.1-0.9,0.3c0.3,0.1,0.6,0.2,0.9,0.2
		C41.5,429.7,41.6,429.7,41.6,429.6"/>
	<path id="path991" class="st28" d="M83.4,409.8c0-0.4,0-0.8,0-1.3c1.1-0.7,2.2-1.6,3.4-2.2c0.4,0.1,0.7,0.3,1.1,0.4
		c0,0.5,0,1.1,0,1.7c0.3,0,0.6,0,0.9,0c0-0.2,0-0.3,0-0.5c0.4,0,0.8,0,1.2,0c0,0.7,0,1.5,0,2.3c-0.4,0-0.8,0-1.2,0c0,0,0-0.4,0-0.4
		c-0.3,0-0.6,0-0.9,0c0,0.1,0,0.3,0,0.4c-0.4,0-0.7,0-1.1,0c0-0.2,0-0.3,0-0.4C85.7,409.8,84.5,409.8,83.4,409.8z M85.5,408.5h1.4
		v-1L85.5,408.5z"/>
</g>
</svg>
