<?xml version="1.0" encoding="utf-8"?>
<!-- Generator: Adobe Illustrator 19.2.1, SVG Export Plug-In . SVG Version: 6.00 Build 0)  -->
<svg version="1.1" id="Capa_1" xmlns="http://www.w3.org/2000/svg" xmlns:xlink="http://www.w3.org/1999/xlink" x="0px" y="0px"
	 viewBox="0 0 100 100" style="enable-background:new 0 0 100 100;" xml:space="preserve">
<style type="text/css">
	.st0{fill:url(#path34_4_);}
	.st1{fill:url(#path890_1_);}
	.st2{fill:#FFE500;stroke:#000000;stroke-width:2.098;stroke-miterlimit:3.863;}
	.st3{fill:#DA020E;}
	.st4{fill:#FFE500;}
	.st5{clip-path:url(#SVGID_2_);}
	.st6{fill:none;stroke:#B54005;stroke-width:10;stroke-miterlimit:3.863;}
	.st7{fill:url(#path7506_1_);}
	.st8{fill:url(#path8794_1_);}
	.st9{fill:url(#path15846_1_);}
	.st10{fill:url(#path16274_1_);}
	.st11{fill:url(#path39821_1_);}
	.st12{fill:url(#path39847_1_);}
	.st13{fill:url(#path39878_1_);}
	.st14{fill:url(#path39888_1_);}
	.st15{fill:url(#path41035_1_);}
	.st16{fill:url(#path9646-8_1_);}
	.st17{fill:url(#path41092_1_);}
	.st18{fill:url(#path41094_1_);}
	.st19{fill:none;stroke:#000000;stroke-width:2.098;stroke-miterlimit:3.863;}
	.st20{fill:url(#path41152_1_);}
	.st21{fill:url(#path39854_1_);}
	.st22{fill:url(#path39874_1_);}
	.st23{fill:#9C824A;stroke:#9C824A;stroke-width:0.793;stroke-miterlimit:282;}
	.st24{fill:#023474;stroke:#023474;stroke-width:0.793;stroke-miterlimit:282;}
	.st25{fill:#FFFFFF;stroke:#FFFFFF;stroke-width:0.793;stroke-miterlimit:282;}
	.st26{fill:#EF0107;stroke:#EF0107;stroke-width:0.793;stroke-miterlimit:282;}
	.st27{fill:#DB0007;stroke:#DB0007;stroke-width:0.793;stroke-miterlimit:282;}
	.st28{fill:#FFFFFF;}
	.st29{fill:#9C824A;}
	.st30{fill:#EF0107;stroke:#EF0107;stroke-width:0.3115;stroke-miterlimit:282;}
	.st31{fill:#DB0007;stroke:#DB0007;stroke-width:0.3115;stroke-miterlimit:282;}
	.st32{fill:#DB0007;}
	.st33{fill:#FFFFFF;stroke:#FFFFFF;stroke-width:0.3115;stroke-miterlimit:282;}
	.st34{fill:#FFFFFF;stroke:#FFFFFF;stroke-width:0.554;stroke-miterlimit:3.864;}
	.st35{fill:#231F20;}
	.st36{fill:#00B6F1;stroke:#00B6F1;stroke-width:1.700000e-02;stroke-miterlimit:3.864;}
	.st37{fill:#EF3E2E;}
	.st38{fill:#BBBDBF;}
	.st39{fill:#F0B83D;}
	.st40{fill:#00B6F1;stroke:#FFFFFF;stroke-width:1.700000e-02;stroke-miterlimit:3.864;}
	.st41{fill:#001C58;}
	.st42{fill:#94BEE5;}
	.st43{fill:none;stroke:#7A003C;stroke-width:2.2437;stroke-miterlimit:6;}
	.st44{fill:#7A003C;}
	.st45{fill:#FFE600;}
	.st46{fill:#DBA111;}
	.st47{fill:#034694;}
	.st48{fill:#D1D3D4;}
	.st49{fill:#ED1C24;}
	.st50{fill:#6A7AB5;}
	.st51{fill:none;}
	.st52{fill:#274488;}
	.st53{fill:#004798;stroke:#004798;stroke-width:9.375000e-02;}
	.st54{fill:#FFFFFF;stroke:#FFFFFF;stroke-width:9.375000e-02;}
	.st55{fill:#FABC00;stroke:#FABC00;stroke-width:9.375000e-02;}
	.st56{fill:none;stroke:#FFFFFF;stroke-width:7.865;stroke-miterlimit:3.864;}
	.st57{fill:none;stroke:#FFFFFF;stroke-width:7.865;stroke-miterlimit:12;}
	.st58{fill:none;stroke:#FFFFFF;stroke-width:7.865;stroke-miterlimit:22;}
	.st59{fill:none;stroke:#FFFFFF;stroke-width:7.865;stroke-miterlimit:6;}
	.st60{fill:#00A398;}
	.st61{fill:#D00027;}
	.st62{fill:none;stroke:#FFFFFF;stroke-width:17.3907;stroke-miterlimit:3.864;}
	.st63{fill:none;stroke:#FFFFFF;stroke-width:13.1107;stroke-miterlimit:3.864;}
	.st64{fill:#FEF667;}
	.st65{fill:#D00027;stroke:#D00027;}
	.st66{fill:#5299C6;}
	.st67{fill:#60223B;}
	.st68{fill:#F7C240;}
	.st69{fill:#292D6B;}
	.st70{fill:#1B458F;}
	.st71{fill:#C4122E;}
	.st72{fill:#27409B;}
	.st73{clip-path:url(#SVGID_4_);}
	.st74{fill:#F4F4F4;}
	.st75{fill:#D3D2D2;}
	.st76{fill:#A7A5A6;}
	.st77{fill:#091453;}
	.st78{fill:none;stroke:#FFFFFF;stroke-width:6.6301;}
	.st79{clip-path:url(#SVGID_6_);}
	.st80{fill:#724314;}
	.st81{fill:#240B08;}
	.st82{fill:#018B4B;}
	.st83{fill:#A6181D;}
	.st84{fill:#592D09;}
	.st85{fill:#FFCE65;}
	.st86{fill:#5CBFEB;}
	.st87{fill:none;stroke:#000000;stroke-width:10;}
	.st88{fill:none;stroke:#000000;}
	.st89{fill:#B2B2B2;}
	.st90{fill:none;stroke:#000000;stroke-width:0.3;}
	.st91{fill:#00A650;stroke:#000000;stroke-width:2;}
	.st92{fill:#241F20;stroke:#241F20;stroke-width:9.375000e-02;}
	.st93{fill:#FFF200;stroke:#FFF200;stroke-width:9.375000e-02;}
	.st94{fill:#A68A26;}
	.st95{fill:none;stroke:#A68A26;stroke-width:4.792100e-02;stroke-miterlimit:3.8637;}
	.st96{fill:#211E1E;}
	.st97{fill:none;stroke:#211E1E;stroke-width:4.792100e-02;stroke-miterlimit:3.8637;}
	.st98{fill:#EB172B;}
	.st99{fill:none;stroke:#EB172B;stroke-width:4.792100e-02;stroke-miterlimit:3.8637;}
	.st100{fill:#A68A26;stroke:#A68A26;stroke-width:4.792100e-02;stroke-miterlimit:3.8637;}
	.st101{fill:#D1BF7F;}
	.st102{fill:none;stroke:#D1BF7F;stroke-width:4.792100e-02;stroke-miterlimit:3.8637;}
	.st103{fill:none;stroke:#FFFFFF;stroke-width:4.792100e-02;stroke-miterlimit:3.8637;}
	.st104{fill:#EB172B;stroke:#EB172B;stroke-width:4.792100e-02;stroke-miterlimit:3.8637;}
	.st105{fill:#ED2127;}
	.st106{fill:#FBEE23;}
	.st107{stroke:#000000;}
	.st108{fill:#CF1F44;}
	.st109{fill:#1B449C;}
	.st110{fill:#E03A3E;}
	.st111{fill:#E03A3E;stroke:#E03A3E;stroke-width:0.6565;}
	.st112{fill:none;stroke:#1B449C;stroke-width:0.7493;}
	.st113{fill:none;stroke:#1B449C;stroke-width:0.7567;}
	.st114{fill:#1B449C;stroke:#1B449C;stroke-width:0.6274;}
	.st115{fill:#1B449C;stroke:#1B449C;stroke-width:0.6755;}
	.st116{fill:#2E6ABD;stroke:#2E6ABD;stroke-width:0.617;}
	.st117{fill:#FFFFFF;stroke:#FFFFFF;stroke-width:0.6175;}
	.st118{fill:#ED1248;}
	.st119{fill:#2E6ABD;}
	.st120{fill:#FDE100;}
	.st121{fill:#CC0000;}
	.st122{fill:#211E1F;}
	.st123{fill:#ED1A3B;}
	.st124{fill:#00AEEF;}
	.st125{fill:#FFC40D;}
	.st126{fill:#22B24C;}
	.st127{fill:#FFC20E;}
	.st128{fill:#0A3F86;}
	.st129{fill:#005CA9;}
	.st130{fill:#FFE000;}
	.st131{fill:#E2001A;}
	.st132{opacity:0;}
	.st133{opacity:0;fill:#FFFFFF;}
	.st134{fill:#FFFFFF;stroke:#000000;}
	.st135{fill:#0060A9;}
	.st136{fill:#E32219;}
	.st137{fill:#FFED00;}
	.st138{fill:#1D9053;}
	.st139{fill:#52A600;}
	.st140{fill:#EE2523;}
	.st141{fill:#F7D117;}
	.st142{fill:#171796;}
	.st143{fill:#009959;}
	.st144{fill:#D42E12;}
	.st145{fill:#703824;}
	.st146{fill:#E5254E;}
	.st147{fill:#8AC3EE;}
	.st148{fill:#B19221;}
	.st149{fill:#F5C03E;}
	.st150{fill:#FF1119;}
	.st151{fill:#1E6BC0;}
	.st152{fill:#B4742A;}
	.st153{fill:#371B02;}
	.st154{fill:url(#SVGID_7_);}
	.st155{fill:url(#SVGID_8_);}
	.st156{fill:url(#SVGID_9_);}
	.st157{fill:url(#SVGID_10_);}
	.st158{fill:url(#SVGID_11_);}
	.st159{fill:url(#SVGID_12_);}
	.st160{fill:url(#SVGID_13_);}
	.st161{fill:url(#SVGID_14_);}
	.st162{fill:url(#SVGID_15_);}
	.st163{fill:url(#SVGID_16_);}
	.st164{fill:#EB2626;}
	.st165{fill:#E9C32C;}
	.st166{fill:#D9D9D9;}
	.st167{fill:#009C5E;}
	.st168{fill:#1C75BC;}
	.st169{fill:#611D5C;}
	.st170{fill:#E2B900;}
	.st171{fill:#004B95;}
	.st172{fill:#A4234B;}
	.st173{fill:#DB2F36;}
	.st174{fill:#FFDF00;}
	.st175{fill:#A38D44;}
	.st176{fill:#57175E;}
	.st177{fill:#AFDCFD;}
	.st178{fill:#0090C6;}
	.st179{fill:#DB5232;}
	.st180{fill:#23C1E0;}
	.st181{fill:#F1A92A;}
	.st182{fill:#167FB6;}
	.st183{fill:#FED75D;}
	.st184{fill:#378CBF;}
	.st185{fill:#3E9692;}
	.st186{fill:#E67F29;}
	.st187{fill:#D8B43C;}
	.st188{fill:#EF3B33;}
	.st189{fill:#24923D;}
	.st190{opacity:6.000001e-02;fill:#101010;enable-background:new    ;}
	.st191{fill:#00529F;}
	.st192{fill:#EE324E;}
	.st193{fill:#FEBE10;}
	.st194{fill:#143C8B;}
	.st195{fill:#FFE24A;}
	.st196{fill:#EC1D24;}
	.st197{fill:#E6A514;}
	.st198{fill:#FFDF1C;}
	.st199{fill:#EE3524;}
	.st200{fill:#B23428;}
	.st201{fill:#D18816;}
	.st202{fill:#0097D7;}
	.st203{fill:#ED1C23;}
	.st204{fill:#E30613;}
	.st205{fill:#FFE400;}
	.st206{fill:#C51A1B;}
	.st207{clip-path:url(#SVGID_19_);}
	.st208{clip-path:url(#SVGID_20_);fill:none;stroke:#000000;stroke-width:0.8131;stroke-miterlimit:3.864;}
	.st209{fill:#0093D5;}
	.st210{fill:#004B9D;}
	.st211{fill:#FCC24F;}
	.st212{fill:#009545;}
	.st213{fill:#0072BB;}
	.st214{fill:#C4974E;}
	.st215{fill:url(#path1292_1_);}
	.st216{fill:#004996;}
	.st217{fill:#FFE667;}
	.st218{fill:none;stroke:#005187;stroke-width:0.153;stroke-miterlimit:3.864;}
	.st219{fill:#005187;}
	.st220{clip-path:url(#SVGID_22_);}
	.st221{clip-path:url(#SVGID_24_);fill:none;stroke:#000000;stroke-width:0.296;stroke-miterlimit:3.864;}
	.st222{clip-path:url(#SVGID_26_);fill:#FFE667;}
	.st223{clip-path:url(#SVGID_28_);fill:none;stroke:#000000;stroke-width:8.300000e-02;stroke-miterlimit:3.864;}
	.st224{fill:none;stroke:#000000;stroke-width:0.153;stroke-miterlimit:3.864;}
	.st225{clip-path:url(#SVGID_30_);fill:#E70005;}
	.st226{clip-path:url(#SVGID_32_);fill:none;stroke:#E70005;stroke-width:0.296;stroke-miterlimit:3.864;}
	.st227{clip-path:url(#SVGID_34_);fill:#E70005;}
	.st228{clip-path:url(#SVGID_36_);fill:none;stroke:#E70005;stroke-width:0.296;stroke-miterlimit:3.864;}
	.st229{clip-path:url(#SVGID_38_);fill:#E70005;}
	.st230{clip-path:url(#SVGID_40_);fill:none;stroke:#E70005;stroke-width:0.296;stroke-miterlimit:3.864;}
	.st231{clip-path:url(#SVGID_42_);fill:#E70005;}
	.st232{clip-path:url(#SVGID_44_);fill:none;stroke:#E70005;stroke-width:0.296;stroke-miterlimit:3.864;}
	.st233{fill:#E70005;}
	.st234{fill:none;stroke:#000000;stroke-width:0.141;stroke-miterlimit:3.864;}
	.st235{fill:#00276D;}
	.st236{fill:#C49308;}
	.st237{fill:#179D33;}
	.st238{fill:#999999;}
	.st239{fill:#FF0000;}
	.st240{fill:#E31837;}
	.st241{fill:#06357A;}
	.st242{fill:#B4053F;}
	.st243{fill:#DCA43E;}
	.st244{fill:#005CA5;}
	.st245{fill:#FAC400;}
	.st246{fill:#004083;}
	.st247{fill:#A95932;}
	.st248{fill:none;stroke:#000000;stroke-width:1.2215;}
	.st249{fill:#E62627;}
	.st250{fill:#00458C;}
	.st251{fill:#E11B22;}
	.st252{fill:#00AB4E;}
	.st253{fill:#F47920;}
	.st254{fill:#C7C8CA;}
	.st255{fill:#E11515;}
	.st256{fill:#A4965F;}
	.st257{fill:#E51636;}
	.st258{fill:#EACC00;}
	.st259{fill:#4F846B;}
	.st260{fill:#E22227;}
	.st261{fill:#FAE700;}
	.st262{fill:url(#SVGID_45_);}
	.st263{fill:#666666;}
	.st264{fill:#FFF200;}
	.st265{fill:#00275D;}
	.st266{fill:#EF3E33;}
	.st267{fill:none;stroke:#00275D;stroke-width:2.632;}
	.st268{fill:#3F7652;}
	.st269{fill:#F1D261;}
	.st270{fill:#004D8F;}
	.st271{fill:#E7B137;stroke:#E7B137;stroke-miterlimit:10;}
	.st272{fill:#E7B137;}
	.st273{fill:#162577;}
	.st274{fill:#12692C;}
	.st275{fill:#D8141D;}
	.st276{fill:#AB830D;}
	.st277{fill:#0086CB;}
	.st278{fill:#001F42;}
	.st279{fill:#9A8F4A;}
	.st280{fill:#00559D;}
	.st281{fill:#FDDE00;}
	.st282{fill:#00924C;}
	.st283{fill:#233984;}
	.st284{fill:#FFD42E;}
	.st285{fill:#BA3733;}
	.st286{fill:#46714D;}
	.st287{fill:#221F1F;}
	.st288{fill:#00559E;}
	.st289{fill:#005C46;}
	.st290{fill:#FBC860;}
	.st291{fill:#D57C48;}
	.st292{fill:#040403;}
	.st293{fill:#4AB969;}
	.st294{fill:#8ED8F8;}
	.st295{fill:#FEC34E;}
	.st296{fill:#FFC95B;}
	.st297{fill:#00644C;}
	.st298{fill:#70B865;}
	.st299{fill:#CA6F44;}
	.st300{fill:#A8B8BE;}
	.st301{fill:#1C2C80;}
	.st302{fill:#E10321;}
	.st303{fill:none;stroke:#231F20;stroke-width:0.318;stroke-miterlimit:3.864;}
	.st304{fill:#D71920;}
	.st305{fill:#484749;}
	.st306{fill:#D9DBDC;}
	.st307{fill:#DF725A;}
	.st308{fill:#F2CABA;}
	.st309{fill:#E89C84;}
	.st310{fill:#264F99;}
	.st311{clip-path:url(#SVGID_47_);}
	.st312{fill:#161413;}
	.st313{fill:#ED1B26;}
	.st314{fill:#E60D2E;}
	.st315{fill:#FCD600;}
	.st316{fill:#004D91;}
	.st317{fill:#EAB412;}
	.st318{fill:#FDD31D;}
	.st319{fill:#EFB800;}
</style>
<g>
	<path class="st23" d="M50,0.5c-10,0-28.6,2.6-38,8.1c-12.4,44,4.5,73.9,38,90.9c33.5-17,50.4-47.1,38-90.9C78.5,3.1,60,0.5,50,0.5
		L50,0.5z"/>
	<path class="st24" d="M50,3.3c-9.9,0-21,1.3-35.5,7.2C3.7,48.9,16.2,79.7,50,96.5c33.8-16.8,46.3-47.6,35.5-86
		C71,4.6,59.9,3.3,50,3.3L50,3.3z"/>
	<path class="st25" d="M50,3.3c-9.8,0-20.4,1.5-29.9,5.1C10.2,47.7,17.5,76.4,50,96.5L50,3.3L50,3.3z M50,96.5
		C82.5,76.4,89.8,47.7,79.9,8.3c-9.5-3.6-20-5.1-29.9-5.1L50,96.5L50,96.5z"/>
	<path class="st26" d="M50,3.3c-9.9,0-19.9,1.5-28,4.3c-10.2,41.2-2,69.1,28,88.1L50,3.3L50,3.3z"/>
	<path class="st27" d="M50,3.3c9.9,0,19.9,1.5,28,4.3c10.2,41.2,2,69.1-28,88.1L50,3.3L50,3.3z"/>
	<path class="st28" d="M37.3,65.5c-4.4,3-7.8,4.1-11.8,5.1L23,66.8c3.7-1.9,7.5-4.5,11.4-8.3C34.7,62.3,36.4,64.9,37.3,65.5
		L37.3,65.5z"/>
	<path class="st29" d="M36.7,65.3c-4.1,2.8-9.9,4.8-16.5,5.8l-1.3-2c5.6-2.1,11.1-5.3,15.3-9.7C34.8,62.2,35.8,64.1,36.7,65.3
		L36.7,65.3z"/>
	<path class="st28" d="M25.6,48c0,1.6-1.3,2.9-2.9,2.9s-2.9-1.3-2.9-2.9l0,0c0-1.6,1.3-2.9,2.9-2.9S25.6,46.4,25.6,48L25.6,48z"/>
	<path class="st28" d="M25.3,42.3v10.8h8.5c0.6-3.6,2.6-7.5,7.3-10.8H25.3"/>
	<path class="st28" d="M25.7,53.2c-1.9,0-3.5-2.4-3.5-5.3c0-3,1.5-5.4,3.4-5.5c0,0,0,0,0.1,0"/>
	<path class="st29" d="M24.4,48c0,1.2-0.9,2.2-2,2.2s-2-1-2-2.2l0,0c0-1.2,0.9-2.2,2-2.2C23.6,45.8,24.4,46.8,24.4,48L24.4,48z"/>
	<path class="st29" d="M25.6,42.9v9.7H34c0.7-3.2,2.3-6.7,6.4-9.7H25.6"/>
	<path class="st29" d="M25.9,52.6c-1.8,0-3.3-2.1-3.3-4.8c0-2.7,1.4-4.9,3.2-4.9c0,0,0,0,0.1,0"/>
	<path class="st28" d="M66.2,55.7c0,9-7.3,16.3-16.3,16.3c-9,0-16.3-7.3-16.3-16.3l0,0c0-9,7.3-16.3,16.3-16.3
		C58.9,39.4,66.2,46.7,66.2,55.7L66.2,55.7L66.2,55.7z"/>
	<path class="st29" d="M65.3,55.7c0,8.6-6.9,15.5-15.5,15.5c-8.5,0-15.5-6.9-15.5-15.5l0,0c0-8.5,6.9-15.5,15.5-15.5
		C58.4,40.2,65.3,47.1,65.3,55.7L65.3,55.7L65.3,55.7z"/>
	<path class="st28" d="M62.8,55.7c0,7.1-5.8,12.9-12.9,12.9c-7.1,0-12.9-5.8-12.9-12.9l0,0c0-7.1,5.8-12.9,12.9-12.9
		C57,42.8,62.8,48.6,62.8,55.7L62.8,55.7L62.8,55.7z"/>
	<path class="st29" d="M61.9,55.7c0,6.7-5.4,12.1-12.1,12.1c-6.6,0-12-5.4-12-12.1l0,0c0-6.7,5.4-12.1,12-12.1
		C56.5,43.6,61.9,49,61.9,55.7L61.9,55.7L61.9,55.7z"/>
	<path class="st28" d="M54.9,55.7c0,2.8-2.2,5-5,5c-2.8,0-5-2.3-5-5v0c0-2.8,2.2-5,5-5C52.6,50.7,54.9,52.9,54.9,55.7
		C54.9,55.7,54.9,55.7,54.9,55.7L54.9,55.7z"/>
	<path class="st29" d="M54.3,55.7c0,2.4-2,4.4-4.4,4.4c-2.4,0-4.4-2-4.4-4.4v0c0-2.4,2-4.4,4.4-4.4C52.3,51.3,54.3,53.2,54.3,55.7
		L54.3,55.7L54.3,55.7z"/>
	<path class="st28" d="M52.1,55.7c0,1.3-1,2.3-2.3,2.3c-1.3,0-2.3-1-2.3-2.3l0,0c0-1.3,1-2.3,2.3-2.3C51.1,53.4,52.1,54.4,52.1,55.7
		L52.1,55.7L52.1,55.7z"/>
	<path class="st29" d="M51.5,55.7c0,0.9-0.7,1.7-1.7,1.7c-0.9,0-1.7-0.7-1.7-1.7l0,0c0-0.9,0.7-1.7,1.7-1.7
		C50.8,54,51.5,54.8,51.5,55.7L51.5,55.7L51.5,55.7z"/>
	<rect x="48.1" y="43.4" class="st28" width="3.4" height="8"/>
	<rect x="48.7" y="42.2" class="st29" width="2.4" height="10.2"/>
	<polygon class="st28" points="59.4,47.9 61.3,50.8 54.6,55.1 52.7,52.2 	"/>
	<polygon class="st29" points="60.7,47.7 61.9,49.7 53.4,55.2 52.1,53.2 	"/>
	<polygon class="st28" points="45,56.3 46.9,59.2 40.1,63.5 38.3,60.6 	"/>
	<polygon class="st29" points="46.2,56.2 47.5,58.2 38.9,63.6 37.6,61.6 	"/>
	<rect x="48.1" y="60.3" class="st28" width="3.4" height="8"/>
	<rect x="48.7" y="59.1" class="st29" width="2.4" height="10.2"/>
	<path class="st30" d="M46.5,59.4c0.5,0.4,1,0.7,1.6,1l0,7.1c-3.2-0.4-5.7-2-7.5-4.3L46.5,59.4"/>
	<path class="st31" d="M53.2,59.5c-0.5,0.4-1,0.7-1.6,1l0,7.1c3.2-0.4,5.7-2,7.5-4.3L53.2,59.5"/>
	<path class="st32" d="M54.8,56.5l7.1-0.9c0.1,1.8-0.4,3.3-1,4.8L54.8,56.5"/>
	<path class="st33" d="M54.8,56.4c0-0.1,0-0.2,0.1-0.5l7-0.9c0,0.3,0,0.4,0,0.6L54.8,56.4L54.8,56.4z"/>
	<path class="st28" d="M65.2,50.5h9.2c-0.3,1.1-0.6,2.2-1.9,2.7C70.3,54,66,54.8,66,54.8C65.9,53.6,65.6,52,65.2,50.5L65.2,50.5z"/>
	<path class="st28" d="M58.8,42.2l24,0L81.9,51l-16.4,0.9C64.6,47.9,61.7,44.2,58.8,42.2L58.8,42.2z"/>
	<path class="st29" d="M59.6,42.8l30.6,0L89,50l-23.7,1.2C64.4,47.6,62.2,45,59.6,42.8L59.6,42.8z"/>
	<path class="st29" d="M65.2,50.5h8.4c-0.3,1-0.5,1.8-1.7,2.3c-2,0.7-6,1.3-6,1.3C65.8,52.9,65.5,51.8,65.2,50.5L65.2,50.5z"/>
	<path class="st29" d="M55.9,29.5c0,0.4-0.1,1.5-0.1,1.8h4.7c-0.3-1.3-0.4-3-0.5-4.4c0,0.1-0.1-2.7-0.1-2.7c0-0.2,0.1-0.5,0.2-0.6
		c0.2-0.2,0.3-0.2,0.5-0.2c0.2-0.1,0.6-0.1,0.6,0.7l0.1,2.9c0,1.4,0,3.2-0.1,4.3h4.6c0-0.4-0.2-1.4-0.2-1.7c0.6,1.3,1.8,1.9,3.5,1.9
		c1,0,1.7-0.4,2.3-0.8c0,0.1,0.2,0.5,0.2,0.5h8.5c-0.4-1.3-0.6-3-0.7-4.4l-1.2-9.5l-4.4-0.8c0.4,1.3,0.6,3.1,0.8,4.4l0.7,6.1
		c0.1,1.1,0.2,2.2,0.2,3.5v0.1l-0.2-0.4c-0.3-0.8-0.5-1.7-0.6-3.2l-0.2-1.9c-0.3-3.1-1.9-4.5-5.7-4.5c-0.6,0-2.2,0.1-3.1,0.4
		l0.3,3.5l1-0.6c0.8-0.5,1.4-0.7,2.2-0.7c0.6,0,1,0.2,1.1,0.6c-0.7,0.1-1.5,0.3-2.4,0.7c-1.3,0.6-2.1,1.5-2.5,2.4v-0.1l-0.1-3.2
		c-0.1-2-1.4-3.4-3.4-3.4c-0.9,0-1.7,0.3-2.5,0.8c0-0.1-0.1-0.2-0.1-0.3l-0.2-0.4l-3.8-0.2c0.2,0.7,0.4,2.6,0.5,3.3
		c-0.2-1-0.7-2-1.7-2.8c-0.8-0.5-1.8-0.8-2.8-0.8c-1.4,0-2.8,0.6-3.8,1.6c-1,1-1.5,2.3-1.5,3.9c-0.4-0.4-0.9-0.8-1.4-1l-1.7-0.9
		h-0.1c-0.4-0.2-0.5-0.3-0.5-0.4c0-0.2,0.5-0.4,1-0.4c0.7,0,1.8,0.4,2.6,0.9l0.1-3.1c-0.6-0.3-1.5-0.5-2.7-0.5c-0.7,0-1.9,0.1-3,0.7
		c-0.3,0.2-0.5,0.4-0.8,0.6l0-0.9c-1-0.2-2.1-0.2-3.4,1.1c0-0.1-0.1-0.6-0.2-0.8l-4.1,0.2c0.3,1.2,0.3,2.8,0.3,4.3L32,26.7v0.2
		c0,0.8-0.1,1.7-0.2,2.4c-0.3-1.1-0.7-2.5-1-3.7l-2-9.1l-5.8,0.9c0,0.1,0.1,0.4,0.2,0.7c0,0.4,0,1.2-0.5,2.8
		c-0.9,2.6-2.3,6.6-3.5,9.4c-0.2,0.4-0.5,1-0.5,1h4.5c0.1-0.7,0.4-1.8,0.7-2.7c0.6,0,2.2,0,3-0.1c0.2,0.7,0.3,1.6,0.4,2.1l0.1,0.7h9
		c-0.2-1.5-0.1-3.4,0-4.5c0.1-1.3,0.3-2.1,0.9-2.6c0.4-0.5,0.9-0.6,1.2-0.6c0,1.7,1.1,2.5,2.1,3l1.8,0.9c0.6,0.4,0.6,0.5,0.6,0.7
		c0,0.3-0.5,0.4-1,0.4c-0.9,0-2.2-0.6-3.6-2.1L38,30.4c1.1,0.6,2.5,0.9,3.8,0.9c2.1,0,4.2-1,4.8-2.8c1,1.9,3,2.8,5,2.8
		C53.4,31.3,54.7,30.7,55.9,29.5L55.9,29.5z M24.9,25.5c0.3-0.7,0.5-1.3,0.8-2.3c0.3,1.1,0.4,1.7,0.5,2.2
		C25.8,25.5,25.5,25.5,24.9,25.5L24.9,25.5z M50.2,24.4c0-1.4,0.5-1.9,1-1.9c0.2,0,0.5-0.1,0.7,0.6c0.1,0.3,0.1,0.5,0.1,0.6
		c0,0.4-0.2,0.5-0.5,0.5v0.1c0,0-0.7,0.2-1.4,0.5C50.2,24.6,50.2,24.5,50.2,24.4L50.2,24.4z M54.9,27.2c-0.9,0.8-1.5,1.3-2.5,1.3
		c-0.8-0.1-1.3-0.6-1.6-1.3c0.9-0.3,4.2-1.6,5.2-1.9c0,0.8,0,1.7,0,1.7v1.7L54.9,27.2L54.9,27.2z M70.2,28.6c-0.8,0-0.9-0.6-1-1
		c0-0.4,0.2-1,1.4-1.4c0,0.5,0.1,0.9,0.1,0.9v0.4c0,0.3,0,0.6,0.1,0.9C70.7,28.5,70.5,28.5,70.2,28.6"/>
	<path class="st28" d="M45.3,20.9c-0.4-0.1-1-0.3-2-0.3c-0.8,0-1.8,0.2-2.6,0.6c-0.9,0.6-1.6,1.4-1.6,2.2c-0.1,1.4,0.6,1.9,1.7,2.4
		c0.7,0.4,1.4,0.8,1.8,1c0.5,0.3,1,0.6,1,1.3c0,0.7-0.7,1.2-1.7,1.2c-0.9,0-2.1-0.6-3-1.4l0,2c0.7,0.4,1.9,0.6,3,0.6
		c1.9,0,4.2-0.9,4.3-3c0-1.7-1.1-2.2-1.8-2.6c-0.7-0.3-1.4-0.7-1.7-0.8c-0.3-0.2-1-0.4-0.9-1.2c0.1-0.7,0.9-1,1.7-1
		c0.7,0,1.4,0.2,1.9,0.5"/>
	<path class="st28" d="M28.3,17.3l-4.4,0.6c0.1,0.6-0.1,1.7-0.5,3.1c-0.9,2.6-2.4,7-3.5,9.5h2.7c0.2-0.9,0.4-1.7,0.8-2.7l4-0.1
		c0.2,0.8,0.5,2,0.5,2.8h3.7c-0.5-1.1-1-3.3-1.4-4.9L28.3,17.3L28.3,17.3z M23.9,26.2l2-5.7l1.2,5.6"/>
	<path class="st28" d="M38.8,20.9l-0.1,1.9c-0.7-0.1-1.5,0.1-2.1,0.8c-0.6,0.6-0.9,1.5-1,3c-0.1,1.3-0.1,2.7,0,3.9h-3.1
		c0.2-1.2,0.3-2.5,0.3-3.8l0.1-1.5c0.1-1.3,0.1-2.5-0.1-3.7l2.7-0.1c0.1,0.4,0.2,1.1,0.2,1.7C36.8,21.3,37.9,20.9,38.8,20.9"/>
	<path class="st28" d="M77.7,17.9l-2.8-0.5c0.3,1.3,0.4,2.1,0.5,3.4l0.7,6.1c0.1,1.3,0.3,2.4,0.2,3.6h3.1c-0.3-1.2-0.4-2.3-0.5-3.6"
		/>
	<path class="st28" d="M65.1,30.5c-0.2-1.2-0.2-2.3-0.3-3.6l-0.1-3.2C64.6,22,63.6,21,61.9,21c-0.9,0-2,0.3-2.9,1.5
		c0-0.3-0.2-1.1-0.3-1.5l-2.5-0.1c0.2,1.2,0.3,2.3,0.3,3.6l0,2.4c0,1.3,0,2.4-0.1,3.6h3.1c-0.2-1.2-0.2-2.3-0.3-3.6l-0.1-2.7
		c0-1,0.7-1.7,1.4-1.7c0.9,0,1.3,0.6,1.3,1.5l0.1,2.9c0,1.3,0,2.4,0,3.6"/>
	<path class="st28" d="M74.7,30.5c-0.4-1-0.6-2.1-0.7-3.4l-0.2-1.9c-0.2-2.3-1.1-3.9-5-3.9c-0.7,0-1.6,0.1-2.4,0.3l0.1,1.8
		c0.8-0.5,1.6-0.9,2.6-0.9c1,0,1.9,0.5,2,1.9c-1,0.1-1.9,0.3-2.9,0.8c-1.1,0.5-2.3,1.5-2.2,3c0.1,1.8,1.4,2.5,3.1,2.5
		c1.3,0,2.1-0.6,2.6-1.2c0.1,0.4,0.2,0.7,0.3,1L74.7,30.5L74.7,30.5L74.7,30.5z M70.2,29.3c-0.9,0-1.6-0.5-1.7-1.6
		c0-1.1,0.7-1.9,2.8-2.2l0.1,1.7c0,0.6,0,1,0.1,1.5C71.3,29,70.8,29.2,70.2,29.3"/>
	<path class="st28" d="M53.7,21.2c-0.7-0.5-1.5-0.7-2.4-0.7c-2,0-4.7,1.5-4.6,5.1c0,3.8,2.9,5,5,5c1.8,0,2.8-0.7,3.7-1.5l-0.6-0.9
		c-0.5,0.4-1.2,1-2.4,1c-1.3-0.1-2.1-1-2.5-2.3l5.6-2C55.2,23,54.6,21.9,53.7,21.2L53.7,21.2z M51.8,24.8l-2.2,0.9
		c0-0.4-0.1-0.8-0.1-1.3c0-2.2,1.2-2.6,1.6-2.6c0.7-0.1,1.2,0.3,1.4,1.1C52.8,23.7,52.7,24.5,51.8,24.8"/>
	<polygon class="st28" points="38.6,50.1 40.5,47.2 47.2,51.6 45.3,54.5 	"/>
	<polygon class="st29" points="38,49.1 39.3,47.1 47.8,52.7 46.5,54.7 	"/>
	<polygon class="st28" points="52.9,59.2 54.7,56.4 61.4,60.7 59.6,63.6 	"/>
	<polygon class="st29" points="52.2,58.2 53.5,56.3 62,61.8 60.7,63.8 	"/>
</g>
</svg>
