<?xml version="1.0" encoding="utf-8"?>
<!-- Generator: Adobe Illustrator 19.2.1, SVG Export Plug-In . SVG Version: 6.00 Build 0)  -->
<svg version="1.1" id="Capa_1" xmlns="http://www.w3.org/2000/svg" xmlns:xlink="http://www.w3.org/1999/xlink" x="0px" y="0px"
	 viewBox="0 0 100 100" style="enable-background:new 0 0 100 100;" xml:space="preserve">
<style type="text/css">
	.st0{fill:#9C824A;stroke:#9C824A;stroke-width:0.793;stroke-miterlimit:282;}
	.st1{fill:#023474;stroke:#023474;stroke-width:0.793;stroke-miterlimit:282;}
	.st2{fill:#FFFFFF;stroke:#FFFFFF;stroke-width:0.793;stroke-miterlimit:282;}
	.st3{fill:#EF0107;stroke:#EF0107;stroke-width:0.793;stroke-miterlimit:282;}
	.st4{fill:#DB0007;stroke:#DB0007;stroke-width:0.793;stroke-miterlimit:282;}
	.st5{fill:#FFFFFF;}
	.st6{fill:#9C824A;}
	.st7{fill:#EF0107;stroke:#EF0107;stroke-width:0.3115;stroke-miterlimit:282;}
	.st8{fill:#DB0007;stroke:#DB0007;stroke-width:0.3115;stroke-miterlimit:282;}
	.st9{fill:#DB0007;}
	.st10{fill:#FFFFFF;stroke:#FFFFFF;stroke-width:0.3115;stroke-miterlimit:282;}
	.st11{fill:#FFFFFF;stroke:#FFFFFF;stroke-width:0.554;stroke-miterlimit:3.864;}
	.st12{fill:#231F20;}
	.st13{fill:#00B6F1;}
	.st14{fill:#EF3E2E;}
	.st15{fill:#BBBDBF;}
	.st16{fill:#F0B83D;}
	.st17{fill:#001C58;}
	.st18{fill:#94BEE5;}
	.st19{fill:none;stroke:#7A003C;stroke-width:2.2437;stroke-miterlimit:6;}
	.st20{fill:#7A003C;}
	.st21{fill:#FFE600;}
	.st22{fill:#DBA111;}
	.st23{fill:#034694;}
	.st24{fill:#D1D3D4;}
	.st25{fill:#ED1C24;}
	.st26{fill:#6A7AB5;}
	.st27{fill:none;}
	.st28{fill:#274488;}
	.st29{fill:#004798;stroke:#004798;stroke-width:9.375000e-02;}
	.st30{fill:#FFFFFF;stroke:#FFFFFF;stroke-width:9.375000e-02;}
	.st31{fill:#FABC00;stroke:#FABC00;stroke-width:9.375000e-02;}
	.st32{fill:#5299C6;}
	.st33{fill:#60223B;}
	.st34{fill:#F7C240;}
	.st35{fill:#292D6B;}
	.st36{fill:#1B458F;}
	.st37{fill:#C4122E;}
	.st38{fill:#27409B;}
	.st39{clip-path:url(#SVGID_2_);fill:#FFFFFF;}
	.st40{fill:#F4F4F4;}
	.st41{fill:#D3D2D2;}
	.st42{fill:#A7A5A6;}
	.st43{fill:#091453;}
	.st44{fill:none;stroke:#FFFFFF;stroke-width:6.6301;}
	.st45{clip-path:url(#SVGID_4_);}
	.st46{fill:#724314;}
	.st47{fill:#240B08;}
	.st48{fill:#018B4B;}
	.st49{fill:#A6181D;}
	.st50{fill:#592D09;}
	.st51{fill:#FFCE65;}
	.st52{fill:#5CBFEB;}
	.st53{fill:none;stroke:#000000;stroke-width:10;}
	.st54{fill:none;stroke:#000000;}
	.st55{fill:#B2B2B2;}
	.st56{fill:none;stroke:#000000;stroke-width:0.3;}
	.st57{fill:#00A650;stroke:#000000;stroke-width:2;}
	.st58{fill:#241F20;stroke:#241F20;stroke-width:9.375000e-02;}
	.st59{fill:#FFF200;stroke:#FFF200;stroke-width:9.375000e-02;}
	.st60{fill:#A68A26;}
	.st61{fill:none;stroke:#A68A26;stroke-width:4.792100e-02;stroke-miterlimit:3.8637;}
	.st62{fill:#211E1E;}
	.st63{fill:none;stroke:#211E1E;stroke-width:4.792100e-02;stroke-miterlimit:3.8637;}
	.st64{fill:#EB172B;}
	.st65{fill:none;stroke:#EB172B;stroke-width:4.792100e-02;stroke-miterlimit:3.8637;}
	.st66{fill:#A68A26;stroke:#A68A26;stroke-width:4.792100e-02;stroke-miterlimit:3.8637;}
	.st67{fill:#D1BF7F;}
	.st68{fill:none;stroke:#D1BF7F;stroke-width:4.792100e-02;stroke-miterlimit:3.8637;}
	.st69{fill:none;stroke:#FFFFFF;stroke-width:4.792100e-02;stroke-miterlimit:3.8637;}
	.st70{fill:#EB172B;stroke:#EB172B;stroke-width:4.792100e-02;stroke-miterlimit:3.8637;}
	.st71{fill:#ED2127;}
	.st72{fill:#FBEE23;}
	.st73{stroke:#000000;}
	.st74{fill:#CF1F44;}
	.st75{fill:#1B449C;}
	.st76{fill:#E03A3E;}
	.st77{fill:#2E6ABD;stroke:#2E6ABD;stroke-width:0.617;}
	.st78{fill:#FFFFFF;stroke:#FFFFFF;stroke-width:0.6175;}
	.st79{fill:#ED1248;}
	.st80{fill:#2E6ABD;}
	.st81{fill:#FDE100;}
	.st82{fill:#CC0000;}
	.st83{fill:#211E1F;}
	.st84{fill:#ED1A3B;}
	.st85{fill:#00AEEF;}
	.st86{fill:#FFC40D;}
	.st87{fill:#22B24C;}
	.st88{fill:#FFC20E;}
	.st89{fill:#0A3F86;}
	.st90{fill:#005CA9;}
	.st91{fill:#FFE000;}
	.st92{fill:#E2001A;}
	.st93{opacity:0;}
	.st94{opacity:0;fill:#FFFFFF;}
	.st95{fill:#FFFFFF;stroke:#000000;}
	.st96{fill:#0060A9;}
	.st97{fill:#E32219;}
	.st98{fill:#FFED00;}
	.st99{fill:#1D9053;}
	.st100{fill:#52A600;}
	.st101{fill:#EE2523;}
	.st102{fill:#F7D117;}
	.st103{fill:#171796;}
	.st104{fill:#009959;}
	.st105{fill:#D42E12;}
	.st106{fill:#703824;}
	.st107{fill:#E5254E;}
	.st108{fill:#8AC3EE;}
	.st109{fill:#B19221;}
	.st110{fill:#F5C03E;}
	.st111{fill:#FF1119;}
	.st112{fill:#1E6BC0;}
	.st113{fill:#B4742A;}
	.st114{fill:#371B02;}
	.st115{fill:url(#SVGID_5_);}
	.st116{fill:url(#SVGID_6_);}
	.st117{fill:url(#SVGID_7_);}
	.st118{fill:url(#SVGID_8_);}
	.st119{fill:url(#SVGID_9_);}
	.st120{fill:url(#SVGID_10_);}
	.st121{fill:url(#SVGID_11_);}
	.st122{fill:url(#SVGID_12_);}
	.st123{fill:url(#SVGID_13_);}
	.st124{fill:url(#SVGID_14_);}
	.st125{fill:#EB2626;}
	.st126{fill:#E9C32C;}
	.st127{fill:#D9D9D9;}
	.st128{fill:#009C5E;}
	.st129{fill:#1C75BC;}
	.st130{fill:#611D5C;}
	.st131{fill:#E2B900;}
	.st132{fill:#004B95;}
	.st133{fill:#A4234B;}
	.st134{fill:#DB2F36;}
	.st135{fill:#FFDF00;}
	.st136{fill:#A38D44;}
	.st137{fill:#57175E;}
	.st138{fill:#AFDCFD;}
	.st139{fill:#0090C6;}
	.st140{fill:#DB5232;}
	.st141{fill:#23C1E0;}
	.st142{fill:#F1A92A;}
	.st143{fill:#167FB6;}
	.st144{fill:#FED75D;}
	.st145{fill:#378CBF;}
	.st146{fill:#3E9692;}
	.st147{fill:#E67F29;}
	.st148{fill:#D8B43C;}
	.st149{fill:#EF3B33;}
	.st150{fill:#24923D;}
	.st151{opacity:6.000001e-02;fill:#101010;enable-background:new    ;}
	.st152{fill:#00529F;}
	.st153{fill:#EE324E;}
	.st154{fill:#FEBE10;}
	.st155{fill:#143C8B;}
	.st156{fill:#FFE24A;}
	.st157{fill:#EC1D24;}
	.st158{fill:#E6A514;}
	.st159{fill:#FFDF1C;}
	.st160{fill:#EE3524;}
	.st161{fill:#B23428;}
	.st162{fill:#D18816;}
	.st163{fill:#0097D7;}
	.st164{fill:#ED1C23;}
	.st165{fill:#E30613;}
	.st166{fill:#FFE400;}
	.st167{fill:#C51A1B;}
	.st168{clip-path:url(#SVGID_17_);}
	.st169{clip-path:url(#SVGID_18_);fill:none;stroke:#000000;stroke-width:0.8131;stroke-miterlimit:3.864;}
	.st170{fill:#0093D5;}
	.st171{fill:#004B9D;}
	.st172{fill:#FCC24F;}
	.st173{fill:#009545;}
	.st174{fill:#0072BB;}
	.st175{fill:#C4974E;}
	.st176{fill:url(#path1292_1_);}
	.st177{fill:#004996;}
	.st178{fill:#FFE667;}
	.st179{fill:none;stroke:#005187;stroke-width:0.153;stroke-miterlimit:3.864;}
	.st180{fill:#005187;}
	.st181{clip-path:url(#SVGID_20_);}
	.st182{clip-path:url(#SVGID_22_);fill:none;stroke:#000000;stroke-width:0.296;stroke-miterlimit:3.864;}
	.st183{clip-path:url(#SVGID_24_);fill:#FFE667;}
	.st184{clip-path:url(#SVGID_26_);fill:none;stroke:#000000;stroke-width:8.300000e-02;stroke-miterlimit:3.864;}
	.st185{fill:none;stroke:#000000;stroke-width:0.153;stroke-miterlimit:3.864;}
	.st186{clip-path:url(#SVGID_28_);fill:#E70005;}
	.st187{clip-path:url(#SVGID_30_);fill:none;stroke:#E70005;stroke-width:0.296;stroke-miterlimit:3.864;}
	.st188{clip-path:url(#SVGID_32_);fill:#E70005;}
	.st189{clip-path:url(#SVGID_34_);fill:none;stroke:#E70005;stroke-width:0.296;stroke-miterlimit:3.864;}
	.st190{clip-path:url(#SVGID_36_);fill:#E70005;}
	.st191{clip-path:url(#SVGID_38_);fill:none;stroke:#E70005;stroke-width:0.296;stroke-miterlimit:3.864;}
	.st192{clip-path:url(#SVGID_40_);fill:#E70005;}
	.st193{clip-path:url(#SVGID_42_);fill:none;stroke:#E70005;stroke-width:0.296;stroke-miterlimit:3.864;}
	.st194{fill:#E70005;}
	.st195{fill:none;stroke:#000000;stroke-width:0.141;stroke-miterlimit:3.864;}
	.st196{fill:#00276D;}
	.st197{fill:#C49308;}
	.st198{fill:#179D33;}
	.st199{fill:#999999;}
	.st200{fill:#FF0000;}
	.st201{fill:#E31837;}
	.st202{fill:#06357A;}
	.st203{fill:#B4053F;}
	.st204{fill:#DCA43E;}
	.st205{fill:#005CA5;}
	.st206{fill:#FAC400;}
	.st207{fill:#004083;}
	.st208{fill:#A95932;}
	.st209{fill:none;stroke:#000000;stroke-width:1.2215;}
	.st210{fill:#E62627;}
	.st211{fill:#00458C;}
	.st212{fill:#E11B22;}
	.st213{fill:#00AB4E;}
	.st214{fill:#F47920;}
	.st215{fill:#C7C8CA;}
	.st216{fill:#E11515;}
	.st217{fill:#A4965F;}
	.st218{fill:#E51636;}
	.st219{fill:#EACC00;}
	.st220{fill:#4F846B;}
	.st221{fill:#E22227;}
	.st222{fill:#FAE700;}
	.st223{fill:url(#SVGID_43_);}
	.st224{fill:#666666;}
	.st225{fill:#FFF200;}
	.st226{fill:#00275D;}
	.st227{fill:#EF3E33;}
	.st228{fill:none;stroke:#00275D;stroke-width:2.632;}
	.st229{fill:#3F7652;}
	.st230{fill:#F1D261;}
	.st231{fill:#004D8F;}
	.st232{fill:#E7B137;stroke:#E7B137;stroke-miterlimit:10;}
	.st233{fill:#E7B137;}
	.st234{fill:#162577;}
	.st235{fill:#12692C;}
	.st236{fill:#D8141D;}
	.st237{fill:#AB830D;}
	.st238{fill:#0086CB;}
	.st239{fill:#001F42;}
	.st240{fill:#9A8F4A;}
	.st241{fill:#00559D;}
	.st242{fill:#FDDE00;}
	.st243{fill:#00924C;}
	.st244{fill:#233984;}
	.st245{fill:#FFD42E;}
	.st246{fill:#BA3733;}
	.st247{fill:#46714D;}
	.st248{fill:#221F1F;}
	.st249{fill:#00559E;}
	.st250{fill:#005C46;}
	.st251{fill:#FBC860;}
	.st252{fill:#D57C48;}
	.st253{fill:#040403;}
	.st254{fill:#4AB969;}
	.st255{fill:#8ED8F8;}
	.st256{fill:#FEC34E;}
	.st257{fill:#FFC95B;}
	.st258{fill:#00644C;}
	.st259{fill:#70B865;}
	.st260{fill:#CA6F44;}
	.st261{fill:#A8B8BE;}
	.st262{fill:#1C2C80;}
	.st263{fill:#E10321;}
	.st264{fill:none;stroke:#231F20;stroke-width:0.318;stroke-miterlimit:3.864;}
	.st265{fill:#D71920;}
	.st266{fill:#484749;}
	.st267{fill:#D9DBDC;}
	.st268{fill:#DF725A;}
	.st269{fill:#F2CABA;}
	.st270{fill:#E89C84;}
	.st271{fill:#264F99;}
	.st272{clip-path:url(#SVGID_45_);}
	.st273{fill:#161413;}
	.st274{fill:#ED1B26;}
	.st275{fill:#E60D2E;}
	.st276{fill:#FCD600;}
	.st277{fill:#004D91;}
	.st278{fill:#EAB412;}
	.st279{fill:#FDD31D;}
	.st280{fill:#EFB800;}
	.st281{fill:#FFF100;}
	.st282{fill:#ED3024;}
	.st283{fill:#00A398;}
	.st284{fill:#D00027;}
	.st285{fill:#FEF667;}
</style>
<path id="path110"  class="st5" d="M35.3,79.2c0,0-11.2-5.6-16.6-14.2c0,7.4-0.3,16.6-0.3,16.6
	L35.5,85L35.3,79.2z"/>
<path id="path114"  class="st5" d="M64.9,79.3c0,0,11.2-5.2,16.6-13.8c0,7.4,0.3,16,0.3,16L64.7,85
	L64.9,79.3z"/>
<path id="path116"  class="st5" d="M65,90.1H35.2V76.5H65V90.1z"/>
<path id="path120"  class="st5" d="M59,77.6c0,4.8-4,8.7-8.8,8.7c-4.9,0-8.8-3.9-8.8-8.7
	c0-4.8,4-8.7,8.8-8.7C55,68.8,59,72.7,59,77.6"/>
<path id="path124"  class="st5" d="M14.6,82.1V69.4l-0.8-0.3v-1.7l0.8-0.3v-1.2l-0.8-0.3v-2.1
	l2.5-2.4v-0.6c0,0,0.1-0.5,0.7-0.5h0.7c0,0,0.6,0.1,0.6,0.5v0.5l2.6,2.4l0,2.1l-0.8,0.3V67l0.8,0.3v1.9v11.6L14.6,82.1z"/>
<path id="path128"  class="st5" d="M85.9,82.1V69.4l0.8-0.3v-1.7L85.9,67v-1.2l0.8-0.3v-2.1
	l-2.5-2.4v-0.6c0,0-0.1-0.5-0.7-0.5h-0.7c0,0-0.6,0.1-0.6,0.5v0.5l-2.6,2.4l0,2.1l0.8,0.3V67l-0.8,0.3v1.9v11.6L85.9,82.1z"/>
<path id="path132"  class="st5" d="M49.4,100c-6.2,0-10.1-2.1-14.3-4.4c-2.2-1.2-4.5-2.4-7.2-3.3
	c-7.6-2.5-12.6,0.6-12.8,0.7l-1-1.6c0.2-0.2,5.9-3.8,14.4-0.9c2.8,1,5.2,2.2,7.5,3.4c4.3,2.3,8.4,4.5,15,4.1
	c6.3-0.4,10.5-2.5,14.7-4.6c1.8-0.9,3.4-1.7,5.2-2.4c0.1,0,0.3-0.1,0.4-0.2c2.2-0.9,9-3.5,14.8,0.9L85,93.4c-5-3.8-10.8-1.5-13-0.7
	c-0.2,0.1-0.3,0.1-0.4,0.2c-1.7,0.6-3.3,1.4-5,2.3c-4.1,2-8.8,4.3-15.4,4.7C50.5,100,49.9,100,49.4,100"/>
<path id="path136"  class="st5" d="M82.5,96.6l-1.3-0.8c-0.3-0.2-1.1-0.3-1.9-0.2
	c-0.1,0-0.3,0.1-0.4,0.1c-0.7,0.1-1.5,0.3-2.1-0.2c-0.3-0.2-0.6-0.6-0.6-1.4c0-0.6,0.2-1.1,0.7-1.4c1.5-1.1,5-0.3,6.1-0.1
	c0.7,0.2,1.5,0.2,1.6,0c0.4-4,2-6.9,2.9-8.3c-6.6-4-16.7-1.8-20.4,0.6c-5.6,3.6-10.3,5.8-16.3,5.9c-5.1,0-9.4-2.1-14-4.3
	c-2.6-1.3-5.2-2.6-8.1-3.5c-6.1-2.1-13.1,0.3-15.7,1.3c1,1.4,2.5,4,2.6,7.8c0.1,0.2,0.9,0.2,1.6,0.1c1.1-0.2,4.7-0.8,6.1,0.4
	c0.4,0.4,0.6,0.9,0.6,1.4c0,0.7-0.4,1.1-0.6,1.3c-0.7,0.5-1.5,0.3-2.1,0.1c-0.1,0-0.3-0.1-0.4-0.1c-0.8-0.2-1.6-0.1-1.9,0.1
	l-1.4,0.8l-0.1-2.2c-0.5,0.1-2,0.3-3-0.4c-0.5-0.3-0.7-0.8-0.7-1.4c-0.2-4.9-2.9-7.6-2.9-7.6l-0.9-0.9l1.2-0.6
	c0.4-0.2,9.8-4.7,18.2-1.9c3,1,5.7,2.3,8.4,3.6C41.9,87,46,89,50.7,89h0.1c5.6,0,10-2.1,15.3-5.6c4.4-2.8,16-5.2,23.3,0l0.8,0.6
	l-0.7,0.8c0,0-2.7,3.1-3.1,8c-0.1,0.6-0.3,1.1-0.8,1.4c-1,0.7-2.4,0.4-3,0.3L82.5,96.6z"/>
<path id="path140"  class="st5" d="M23.1,92.6c0,0-0.9-0.9-1.3-1.6c-0.8-1.3-6.7,1.3-6.7,1.3
	l1.6,0.3"/>
<path id="path144"  class="st5" d="M76.7,92.9c0,0,0.9-0.9,1.3-1.6c0.8-1.3,6.7,1.5,6.7,1.5
	l-1.6,0.3"/>
<path id="path148"  class="st5" d="M14.4,92.6c0,0-0.1-3.7-0.9-5.3c-0.8-1.6-1.2-3.3-1.2-3.3
	s5-2.5,8.2-2.6c3.3-0.1,11.3,1.3,13.9,2.7c2.5,1.4,9.3,5.1,12.8,5.9c3.5,0.8,9.3-0.1,13-1.6c3.6-1.5,6.1-4.1,7.6-4.7
	c1.5-0.7,6.2-2.4,9.4-2.7c3.2-0.3,7.1,1,9.2,1.4c2.2,0.4,1.9,1.2,1.9,1.2l-2.6,8.3c0,0-4.2-1.4-7-1.5c-2.8-0.1-7.6,2-9,2.6
	c-1.5,0.5-8,3.3-10.1,4.1c-2.1,0.8-9.1,2.7-13.2,1.8c-4-0.9-11.8-4.9-13.9-5.9c-2-1-9.4-3.4-10.4-3C21.2,90.6,14.4,92.6,14.4,92.6"
	/>
<path id="path152"  class="st5" d="M55.2,61.8C55.2,61.8,55.2,61.8,55.2,61.8L55,61.9L55.2,61.8z
	 M84.1,13.3c-0.1-0.5-0.9-0.8-4-0.8c-1.2,0-2.3,0-2.4,0c0,0-0.1,0-0.1,0c-1.9,0.1-3.8,0.6-5.4,1.3c2.2-2.7,5.6-4.3,7.7-5.1
	c0.1,0,0.4-0.2,0.5-0.3c0.1-0.2,0.3-0.3,0.1-0.6c-0.2-0.4-1.2-0.6-1.8-0.6c-0.7,0-1.6,0.1-2.8,0.3c-0.6,0.1-1.1,0.2-1.7,0.3
	c0,0,0,0-0.1,0c-2.4,0.5-4.7,1.6-6.6,3.1c-0.3,0.2-0.5,0.4-0.8,0.6L68.2,9c0.8-1.3,1.7-2.6,2.7-3.7C70.9,5.3,71,5.2,71,5.1
	c0-0.2,0.3-0.5,0.1-0.6c-0.1-0.1-0.3-0.2-0.6-0.2c-0.3,0-1.2,0.1-4.7,2.7c-3.3,2.3-6.1,5.3-8.2,8.6c-0.8,1.5-2.3,4.2-2.7,6.2
	c0-0.2-0.1-0.4-0.1-0.6c-0.1-0.8-0.1-1.6-0.1-2.5c0-1.1,0-2.2,0.1-2.8c0-0.3,0-0.9-0.3-1c-0.3-0.1-0.7,0.5-0.8,0.7
	c-1.7,3.9-2.2,7.2-2.2,9.1l-0.6,5.7c-0.1,0.4-0.4,2.3-0.4,2.3c-0.5-0.8-0.8-1.4-1.2-2.3c0,0,0-0.1,0-0.1l-0.5-0.9c0,0,0,0,0-0.1
	c-0.8-1-1.6-1.5-2.6-2c-1.3-0.8-3-1.8-5.5-4.7c-1.4-1.6-2.9-4.8-3.5-7c-1-4.3-0.9-9.5,0.2-14.2c0.1-0.3,0.2-0.9,0-1.1
	c-0.1-0.1-0.3-0.2-0.5-0.2c-0.4,0-0.7,0.3-3,3.9c0,0,0,0,0,0c-1.5,2.4-2.6,5.1-3.1,7.9c-0.1,0.6-0.2,1.2-0.3,1.8
	c-0.5-1.3-1-2.7-1.3-4.1c-0.7-3-1-6-0.7-8.7c0-0.2,0.1-0.6-0.1-0.7C28.5,0.1,28.3,0,28.2,0c-0.5,0-1.3,0.6-2.9,4.9
	c-1.5,4.1-2,7.8-1.5,11.9c-1.7-2.3-2.5-5.4-3.2-8.3c-0.2-0.7-0.3-1.4-0.5-2.1c-0.1-0.3-0.3-1.1-0.6-1c0,0,0,0-0.1,0c0,0,0,0,0,0
	c0,0,0,0,0,0c0,0,0,0,0,0c-0.1,0.1-0.3,0.8-0.3,0.8c-0.1,0.2-0.2,0.4-0.2,0.8c0,0,0,0,0,0.1c0,0.1,0,0.3,0,0.4c0,0.1,0,0.3,0,0.4
	c-0.2,2.1-0.4,7.7,2.5,13.5l0.1,0.2c0,0.1,0.1,0.2,0.1,0.3c0.3,0.7,0.7,1.3,1,1.8c0.1,0.2,0.2,0.4,0.3,0.6c0.4,0.7,0.7,1.1,1.1,1.5
	c-1.6-0.3-4-0.8-5.1-1c-0.3,0-0.5,0.1-0.6,0.4c-0.1,0.2,0,0.5,0.2,0.7c1,0.6,2.7,2.2,4.5,3.9l0,0l3.3,3l0.3,0.3c1.1,1,2.2,2,3.2,3
	l-2.2-0.2c-0.2,0-0.5,0.1-0.6,0.3c-0.1,0.2,0,0.5,0.2,0.7l5.2,4.2l0,0l2.3,1.8c0,0,0,0,0,0.1l3.9,3.1c0.1,0.1,0.2,0.1,0.3,0.1l1,0
	c-2.1,0.9-4.1,0.9-6.3,0.1c-1.7-0.6-3.4-1.5-4.8-2.6c-0.2-0.2-0.7-0.5-0.9-0.3c-0.2,0.2-0.1,0.7,0,1c0.4,1.1,1.3,2,2.1,2.9
	c-2.7-0.4-5.1-1.1-7.9-2.4c-0.2-0.1-0.7-0.4-0.8-0.2c-0.2,0.2,0,0.8,0.1,1c1.3,2,2.3,3.3,3.3,4.4c1.1,1.1,2.5,2.2,3.1,2.6
	c0.1,0.1,0.5,0.3,2.2,0.3c0.6,0,1.3,0,1.9-0.1c0.1,0,0.1,0,0.2,0c-1.7,0.6-3.2,0.8-4.5,0.6c-0.3,0-0.9,0-1,0.3
	c-0.1,0.3,0.5,0.7,0.7,0.8c2,0.7,3.9,1.2,5.8,1.4c0.6,0.2,2.4,0.6,4.2,0.8c0.1,0,0.2,0,0.4,0c0.2,0,0.3,0,0.5,0
	c0.7,0.1,1.4,0.1,2.1,0.1c0.6,0,1.2,0,1.8-0.1c0,0.1,0,0.1,0.1,0.2l0.3,0.6c-0.1,0-0.2,0.1-0.3,0.2c-0.2,0.2-0.2,0.4-0.1,0.7
	l0.7,1.3c0,0,0,0.1,0.1,0.1c0,0,0,0,0.1,0.1c0,0-0.1,0-0.1,0.1c-0.2,0.1-0.3,0.4-0.2,0.6c0.4,1.5,1.1,2,1.6,2.4
	c0.4,0.3,0.6,0.4,0.7,0.8c0.1,0.3,0.2,0.6,0.3,0.9c0.3,0.7,0.7,1.7,0.4,2.1c-0.3,0.5-0.6,0.7-1,1c-0.2,0.2-0.5,0.4-0.9,0.7
	c-0.9,0.8-0.9,1.8-0.2,3.1l0,0.1c0.1,0.2,0.3,0.3,0.6,0.3c0.2,0,0.4-0.2,0.5-0.5c0.2-0.9,1.7-1.6,2-1.6c0.5,0,1-0.1,1.3-0.4
	c0.5-0.5,3.5-0.6,3.5-0.6s0.3,0,0.9,0.1c0.1,0.1,0.2,0.1,0.3,0.2c0.1,0.1,0.2,0.1,0.3,0.1c0.1,0,1.1,0.4,1.1,0.5
	c0.1,0.2,1.8,1.1,2,1.2c0.1,0.1,1.1,1.4,1.2,1.4c0.2,0.3,0.3,0.2,0.3-0.1c0.6-0.4,1.2-1.2,1.4-2.1c0.2-0.9,0.1-1.7-0.4-2.4
	c0,0-0.1-0.1-0.1-0.1c-0.1-0.1-0.4-0.3-0.7-0.5c-0.4-0.3-1.1-0.9-1.2-1c-0.4-0.5-0.6-1-0.8-1.6c0.2,0,0.3-0.1,0.4-0.2
	C56,64.3,56,64.2,56,64l-0.1-0.3c-0.1-0.5-0.2-1.1-0.4-1.7l0,0c0,0,0,0,0.1,0c0,0,0,0,0,0c0.3,0,0.6-0.3,0.6-0.6
	c0-0.1,0-0.2-0.1-0.3l-0.6-1.7c0.1,0.1,0.1,0.1,0.1,0.1c0.2,0.2,0.5,0.4,0.7,0.4c0.2-0.1,0.2-0.5,0.2-0.7c0.1-1.1,1-2.3,1.9-2.9
	c0.1,0.2,0.1,0.3,0.1,0.3c0.1,0.2,0.1,0.6,0.3,0.6c0,0,0,0,0,0c0.2,0,0.4-0.3,0.7-0.6c0.4-0.4,0.7-0.8,1.1-0.9l2,0.8
	c0.1,0.3,0.4,0.9,0.8,1.3c0.4,0.3,0.7,0.5,1.4,0.9c0.1,0,0.1,0.1,0.2,0.1c-0.1,0-0.1,0.1-0.2,0.1c-0.2,0.1-0.9,0.3-0.9,0.5
	c0,0.2,0.6,0.5,0.9,0.5c0.4,0.2,0.9,0.2,1.4,0.2c1,0,1.8-0.3,2.3-0.9c0.4-0.5,0.6-1.1,0.5-1.8c-0.1-0.5-0.3-1.8-0.4-2.2l0.5-1.7
	c0-0.1,0-0.1,0-0.2c0-0.8-0.2-1.7-0.7-2.7l0-0.1c0-0.1-0.1-0.1-0.1-0.2c0-0.1,0-0.1-0.1-0.1c-0.1-0.3-0.3-0.5-0.5-0.8
	c-1.4-2.3-3.4-4.2-3.5-4.3c-0.2-0.2-0.5-0.4-0.7-0.3c-0.2,0.1-0.3,0.6-0.2,0.8l0,0.1c-0.1-0.3-0.7-0.9-0.8-1c-0.3-0.4-0.4-0.8-0.5-1
	c1.7-7.8,6.8-13,6.9-13c0.1-0.1,0.2-0.2,0.2-0.3c1.1-11.1,13.8-16,14-16.1c0,0,0.4-0.1,0.4-0.1C84,13.7,84.1,13.4,84.1,13.3"/>
<path id="path156"  class="st35" d="M49.4,99.4c-6.1,0-10-2.1-14.1-4.3c-2.2-1.2-4.5-2.4-7.3-3.3
	c-7.9-2.6-13.2,0.7-13.2,0.8l-0.4-0.7c0.2-0.1,5.7-3.6,13.9-0.9c2.8,0.9,5.1,2.2,7.4,3.4c4.4,2.3,8.5,4.6,15.3,4.2
	c6.4-0.4,10.7-2.5,14.9-4.6c1.8-0.9,3.4-1.7,5.2-2.4c0.1,0,0.3-0.1,0.4-0.2c2.4-0.9,8.7-3.4,14.3,0.8l-0.5,0.6
	c-5.2-4-11.3-1.6-13.5-0.7c-0.2,0.1-0.3,0.1-0.4,0.2c-1.7,0.6-3.4,1.5-5.1,2.3c-4.1,2-8.7,4.3-15.2,4.7
	C50.5,99.4,49.9,99.4,49.4,99.4"/>
<path id="path160"  class="st36" d="M48.6,93.1l-0.2,0l0,1.3l0.2,0c0.5,0,0.8-0.2,0.8-0.7
	C49.3,93.4,49,93.2,48.6,93.1"/>
<path id="path164"  class="st36" d="M52.6,94.9l0.9-0.1l-0.7-1.5L52.6,94.9z"/>
<path id="path168"  class="st36" d="M39.3,92.5l0.3-1.6l-1.1,1.2L39.3,92.5z"/>
<path id="path172"  class="st36" d="M23.1,84.5l-0.3,0l-0.1,1.3l0.3,0c0.5,0,0.7-0.2,0.8-0.6
	C23.9,84.8,23.6,84.5,23.1,84.5"/>
<path id="path176"  class="st36" d="M61.3,92.4l0.8-0.4l-1-1.2L61.3,92.4z"/>
<path id="path180"  class="st36" d="M83,89c-0.4,0-0.7-0.3-0.7-0.6c0-0.4,0.3-0.7,0.6-0.7
	c0.4,0,0.7,0.3,0.7,0.6C83.7,88.6,83.4,89,83,89 M82,85.1c-0.2-0.2-0.5-0.4-0.9-0.5c-0.7-0.1-1.2,0.4-1.3,1.2
	c-0.1,0.9,0.3,1.4,1,1.5c0.3,0,0.7-0.1,1-0.2l0.1,1.2c-0.4,0.2-0.9,0.2-1.4,0.2c-1.5-0.2-2.3-1.2-2.1-2.8c0.2-1.5,1.2-2.4,2.7-2.3
	c0.5,0.1,0.9,0.2,1.2,0.4L82,85.1z M77.4,88.3c-0.4,0-0.7-0.3-0.7-0.6c0-0.4,0.3-0.7,0.6-0.7c0.4,0,0.7,0.3,0.7,0.6
	C78,87.9,77.7,88.3,77.4,88.3 M75.3,88.6l-1.4,0.3l-1-4.8l3-0.6l0.2,1.2L74.5,85l0.2,0.8l1.2-0.2l0.4,1.1L75,86.9L75.3,88.6z
	 M69,90.8l-1.9-4.6l3-1.2l0.4,1.1l-1.7,0.7l0.3,0.7l1.3-0.5l0.6,1l-1.4,0.6l0.3,0.7l1.7-0.7l0.4,1.1L69,90.8z M67.2,91.8
	c-1.4,0.7-2.6,0.2-3.3-1.2c-0.7-1.4-0.3-2.7,1.1-3.4c0.4-0.2,0.9-0.3,1.3-0.3l0.4,1.2c-0.3-0.1-0.7-0.1-1,0.1
	c-0.6,0.3-0.8,0.9-0.4,1.7c0.4,0.8,1,1,1.6,0.7c0.3-0.1,0.5-0.4,0.8-0.7l0.7,1C68.1,91.2,67.7,91.5,67.2,91.8 M63.5,93.6l-0.6-0.7
	l-1.4,0.6l0.1,0.9L60.3,95l-0.5-5.2l1.5-0.7l3.5,3.7L63.5,93.6z M56.8,96.1l-1.5-4.7l1.4-0.4l1.1,3.5l1.3-0.4l0.6,1.1L56.8,96.1z
	 M54.3,96.6l-0.4-0.8L52.4,96l-0.1,0.9l-1.4,0.2l1-5.1l1.6-0.2l2.3,4.5L54.3,96.6z M48.5,95.5l-0.2,0l0,1.5l-1.5,0L47,92l1.7,0.1
	c1.3,0,2,0.6,2,1.8C50.6,95,49.8,95.6,48.5,95.5 M44,96.5l-2.9-0.9l1.5-4.7l1.4,0.4l-1.1,3.5l1.3,0.4L44,96.5z M40.4,95l-1.4-0.5
	l0.1-0.9L37.7,93l-0.6,0.6L35.8,93l3.7-3.7l1.5,0.7L40.4,95z M33.7,91.8l1.7-3.3l-1.2-0.6l0.6-1.1l3.5,1.8l-0.4,1.2l-1.2-0.6
	L35,92.5L33.7,91.8z M32.2,87.6c0.9,0.8,1.2,1.3,0.8,2.1c-0.5,1.1-1.4,1.1-2.3,0.7c-0.7-0.3-1.1-0.7-1.6-1.1l0.7-1
	c0.4,0.5,0.9,0.9,1.4,1.1c0.3,0.1,0.5,0.1,0.6-0.1c0.1-0.2,0-0.3-0.5-0.8c-0.8-0.7-1.1-1.2-0.7-2c0.4-0.9,1.3-1.1,2.2-0.7
	c0.7,0.3,1,0.6,1.4,1l-0.7,1c-0.4-0.5-0.8-0.8-1.1-0.9c-0.3-0.1-0.4-0.1-0.5,0.1C31.7,87.1,31.8,87.2,32.2,87.6 M27.7,89.2l-1.4-0.4
	l0.5-1.7L26,83.8l1.6,0.2l0.4,2.1l1.4-1.5l1.5,0.4l-2.5,2.6L27.7,89.2z M23.8,88.5l-0.8-1.6l-0.2,0l-0.1,1.5l-1.4-0.1l0.3-4.9
	l1.9,0.1c1.3,0.1,2,0.7,1.9,1.7c0,0.7-0.4,1.1-0.9,1.4l1,1.8L23.8,88.5z M19.2,88.6c-1.5,0.3-2.5-0.5-2.8-2c-0.3-1.5,0.5-2.7,2-3
	c0.5-0.1,0.9-0.1,1.3,0l0,1.3c-0.3-0.2-0.6-0.3-1-0.2c-0.7,0.1-1,0.7-0.8,1.5c0.2,0.8,0.7,1.2,1.4,1.1c0.3-0.1,0.6-0.2,0.9-0.5
	l0.4,1.1C20.2,88.3,19.8,88.5,19.2,88.6 M66.6,84.3C61,87.8,56.5,89.9,50.7,90C43,90,37,84.9,28.9,82.1C20.7,79.4,11.4,84,11.4,84
	s3,2.9,3.2,8.2c0,0,5.4-3.5,13.6-0.8c8.2,2.7,12.4,8.2,22.9,7.6c9.1-0.5,14.3-4.8,20.2-7c1.8-0.7,8.5-3.8,14.3,0.6
	c0.5-5.2,3.3-8.4,3.3-8.4C81.9,79.2,70.7,81.6,66.6,84.3"/>
<path id="path184"  class="st37" d="M19.8,93.9c0.4,0,0.8,0,1.1,0.1c0.2,0,0.3,0.1,0.5,0.1
	c0.4,0.1,0.9,0.2,1,0.1c0.1,0,0.1-0.2,0.1-0.3c0-0.2,0-0.3-0.2-0.4c-0.6-0.5-2.2-0.5-3.7-0.3l0,0.8C19,94,19.4,93.9,19.8,93.9
	 M79.2,93.5c-0.7,0-1.2,0.1-1.5,0.3c-0.1,0.1-0.2,0.2-0.2,0.4c0,0.2,0,0.3,0.1,0.3c0.1,0.1,0.6,0,1-0.1c0.2,0,0.3-0.1,0.5-0.1
	c0.6-0.1,1.5-0.1,2.2,0.1l0.1-0.8C80.7,93.5,79.9,93.5,79.2,93.5 M82,95.7l-0.5-0.4c-0.4-0.3-1.4-0.4-2.2-0.3
	c-0.1,0-0.3,0.1-0.5,0.1c-0.6,0.1-1.2,0.3-1.7-0.1c-0.2-0.2-0.4-0.5-0.4-0.9c0-0.4,0.2-0.7,0.5-1c1.3-1,5.2-0.1,5.6,0
	c0.4,0.1,1.6,0.3,2.1,0c0.1-0.1,0.2-0.2,0.2-0.4c0.4-4.4,2.4-7.5,3.1-8.4C81.6,79.8,71,82,66.8,84.6c-4.8,2.9-9.9,5.7-16,5.8h-0.1
	c-5,0-9.2-2.1-13.7-4.3c-2.6-1.3-5.2-2.6-8.2-3.6C21.9,80.2,14,83.3,12,84.1c0.8,1,2.8,3.8,3,8.1c0,0.2,0.1,0.3,0.2,0.4
	c0.5,0.4,1.7,0.2,2.1,0.1c0.4-0.1,4.3-0.8,5.6,0.2c0.3,0.3,0.5,0.6,0.4,1c0,0.4-0.2,0.7-0.4,0.9c-0.5,0.3-1.1,0.2-1.7,0
	c-0.2,0-0.3-0.1-0.5-0.1c-0.8-0.2-1.8-0.1-2.2,0.2l-0.6,0.3l0-1.9c-0.2,0-0.3,0.1-0.5,0.1c-0.2,0-1.8,0.4-2.7-0.3
	c-0.3-0.2-0.5-0.6-0.5-1c-0.2-5.1-3.1-7.9-3.1-8l-0.4-0.4l0.5-0.2c0.4-0.2,9.6-4.6,17.8-1.9c3,1,5.7,2.3,8.3,3.6
	c4.4,2.2,8.6,4.2,13.4,4.2h0.1c5.3,0,9.9-2.2,15.6-5.7c4.4-2.7,15.8-5,22.7,0l0.3,0.2l-0.3,0.3c0,0-2.8,3.3-3.2,8.3
	c0,0.4-0.2,0.8-0.6,1c-0.9,0.6-2.5,0.2-2.7,0.1c-0.1,0-0.3-0.1-0.5-0.1L82,95.7z"/>
<path id="path188"  class="st37" d="M49.4,99.5c-6.1,0-10-2.1-14.1-4.3c-2.2-1.2-4.5-2.4-7.3-3.3
	c-7.9-2.6-13.2,0.7-13.3,0.8l-0.4-0.6c0.2-0.2,5.7-3.6,13.9-0.9c2.8,0.9,5.1,2.2,7.4,3.4c4.4,2.3,8.5,4.6,15.3,4.2
	c6.4-0.4,10.7-2.5,14.9-4.6c1.8-0.9,3.4-1.7,5.2-2.3c0.1,0,0.3-0.1,0.4-0.2c2.4-0.9,8.7-3.4,14.3,0.8L85.4,93
	c-5.3-4-11.3-1.6-13.6-0.7c-0.2,0.1-0.3,0.1-0.4,0.2c-1.7,0.6-3.4,1.5-5.1,2.3c-4.1,2-8.7,4.3-15.2,4.7
	C50.5,99.4,49.9,99.5,49.4,99.5"/>
<path id="path192"  class="st37" d="M22.5,93.7c-1.8-1.5-2.6-3-2.6-3l0.7-0.3c0,0,0.7,1.4,2.4,2.8
	L22.5,93.7z"/>
<path id="path196"  class="st37" d="M77.6,93.9l-0.5-0.6c2-1.4,2.2-3,2.2-3l0.8,0.1
	C80.1,90.4,79.9,92.2,77.6,93.9"/>
<path id="path200"  class="st38" d="M58.8,53.2c0.1,0.1,0.1,0.1,0.2,0.2
	C58.9,53.3,58.9,53.3,58.8,53.2"/>
<path id="path204"  class="st38" d="M54.7,23.3c-0.1-0.6-0.2-1.3-0.3-2.1
	C54.4,21.9,54.5,22.5,54.7,23.3"/>
<g>
	<defs>
		<rect id="SVGID_1_" x="54.3" y="21.2" width="0.3" height="2.1"/>
	</defs>
	<clipPath id="SVGID_2_">
		<use xlink:href="#SVGID_1_"  style="overflow:visible;"/>
	</clipPath>
	<path id="path216"  class="st39" d="M54.7,23.3c-0.1-0.6-0.2-1.3-0.3-2.1
		C54.4,21.9,54.5,22.5,54.7,23.3"/>
</g>
<path id="path228"  class="st40" d="M60.2,44.1C60.2,44,60.2,44.1,60.2,44.1"/>
<path id="path232"  class="st36" d="M67.8,58.4c-0.2,0.3-0.5,0.5-0.9,0.6c-0.4,0.2-0.8,0.2-1.1,0.2
	c0,0,0,0,0,0c0,0,0.1,0,0.1,0c0,0,0,0,0.1,0c0.8-0.5,0.4-1.4-0.5-2.3l0,0l-1.9-1.6l-0.1-0.1l0,0l0,0l0.1,0l0,0l0.1,0l0.3,0.2l1,0.5
	l0.1,0l0.4,0.2l0.5,0.3c0,0,0,0,0,0c0,0,0,0,0,0c0.4-0.1,0.9-0.2,1-0.2c0.3-0.1,0.5-0.2,0.6-0.3C67.5,55.8,68.3,57.8,67.8,58.4
	 M65.7,58L65,57.5l-0.5-0.4l-0.1-0.4l0-0.1l-0.2-0.5l0,0c0.5,0.3,1,0.9,1.3,1.4c0.1,0.1,0.4,0.7,0.4,0.7L65.7,58z M62.2,53.4
	l-0.9-1.6l-2.2-1.1l1.8,2.1c-1-0.5-2.6-1.4-4.3-1.7c0,0,1.5,1.4,2.2,2.1c0.1,0.1,0.2,0.2,0.2,0.2c0,0-0.1-0.1-0.2-0.2
	c-0.2-0.1-0.7-0.3-1.8-0.4c-1-0.1-2.2-0.4-3.3-1c0,0,0.2,0.3,0.7,0.7c0,0,0,0,0,0c0,0,0,0,0,0c0.4,0.4,1,0.8,1.9,1
	c0.1,0,0.9,0.4,1,0.4c-0.6,0.2-1.1,0.5-1.5,0.8c-0.8,0.6-1.3,1.4-1.6,2.1c-0.5,1.3-1,3.7-0.6,5.1c-1.1-1.5-2.2-3.5-1.6-5.8
	c-1.7,1-2.9,0.7-4.1,0.5c-0.6,0.8-1.3,2.6-1.4,4.1c-0.1-0.2-0.2-0.3-0.3-0.5c-0.5-1-0.7-2.1-0.7-3.1c0-0.4,0-0.8,0-1.2v0l4-2.8
	l-5.8-0.5c0,0,0,0,0,0c0.1-0.1,0.2-0.1,0.3-0.2c2.2-1.6,5-2.7,7.8-2.5c0.2,0,0.4,0,0.6,0c-1.8-1-4.9-1-6.8-0.4
	c-2.5,0.8-3.5,0.8-6.2,0.4c2.8-0.6,2.7-0.6,4.4-1.4c1.4-0.8,4-2.2,7.3-1.6c-0.8-0.4-1.5-0.7-2.5-0.9c-1-0.2-2.5-0.4-4.2-0.1
	c0,0,1.1-1.2,3.3-1.5C44.6,41.8,36,37.7,36,37.7c12.2,2.9,17.4,8.6,18.2,9.5c0.1,0,0.1,0.1,0.2,0.1c-0.5-1-3.2-7.4-10.6-12
	c-1-0.6-2.2-1.1-3.2-1.7c-1.7-1-3.2-2.1-4.6-3.2l0,0c-13.8-11-8.7-26-8.7-26c-0.4,3.5,0.1,6.9,1.2,10c0.6,1.9,1.5,3.7,2.3,5.3
	c0.9,1.7,1.9,3.2,2.6,4.2c1.7,2.1,3.8,3.9,6.1,5.2c0,0-10.4-7.1-4.5-22.2C34.7,7.5,30.6,19.6,46,30.2c0.3,0.2,0.5,0.2,0.6,0.4
	c2,4.9,9.9,12.8,11.4,16.6c-0.1-0.8-0.1-1.5-0.2-2.3c0.9,0.9,1.6,2.1,1.9,3.4c0.1-0.8,0.1-1.9,0.2-2.7c1.3,0.7,3.2,2.2,4.7,3.8
	c0,0,0,0,0,0c-0.1-0.1-0.1-0.1-0.2-0.2c0,0,0,0,0.1,0.1c0,0,0,0,0,0c0,0,0,0,0.1,0.1c0,0,0,0,0,0l-0.1-1.1l0-0.5
	c0,0,2.4,2.9,3.2,5.1c0,0.1,0.1,0.3,0.1,0.4c0,0.6-0.1,1.1-0.2,1.3c-0.1,0.2-0.4,0.6-0.5,0.7c-0.1,0-0.1,0.1-0.1,0.1
	c0.1-0.1,0.1-0.3,0.1-0.5c0-0.2,0-0.5-0.1-0.8c-0.1-0.3-0.2-0.5-0.3-0.7c-0.1-0.2-0.2-0.4-0.2-0.4c0,0.5,0,0.9,0,1.2c0,0,0,0,0,0
	c-0.1,0.5-0.4,0.7-0.4,0.7c0,0,0,0,0,0c0-0.1,0-0.2-0.1-0.2c-0.1-0.2-0.1-0.4-0.2-0.6c-0.3-0.7-1.2-2.5-1.6-3.2
	c-0.3,0.4,0.1,1.3,0.1,1.3c0.1,0.2,0.4,0.9,0.4,0.9c-0.3,0.6,0.1,1.3,0.7,1.6c-0.2,0.1-0.7,0-1-0.2c0.1,0.3,0.6,0.9,0.8,1.1
	C64.6,55.3,63.1,54.1,62.2,53.4 M68,50.8C68,50.7,68,50.7,68,50.8C68,50.7,68,50.7,68,50.8c-0.1-0.1-0.1-0.2-0.2-0.4
	c-0.1-0.3-0.3-0.5-0.4-0.8C66,47.4,64,45.5,64,45.5l0,0.6c0,0,0,0,0,0l0.1,0.9c0,0-6.5-3.8-9.2-7.2c-2.1-2.7-4.6-5.6-6.1-9.2
	l-0.5-0.9c-1.9-2.2-3.8-1.8-8.1-6.7c-1.5-1.7-3.1-5-3.6-7.2c-1.1-4.6-0.9-9.9,0.3-14.5c0,0,0.5-1.6-2.4,3.1l0,0
	c-1.5,2.3-2.5,5-3,7.7c-0.3,1.4-0.4,2.8-0.3,4.2c-1-2-1.8-4.2-2.3-6.4c-0.7-2.9-1-6-0.7-8.9c0,0-0.5-0.5-2.3,4.3
	C24,9.9,23.8,14,24.6,18.6c-3.3-2.8-4-7.9-5.1-11.9c0,0,0,0,0,0h0c0,0,0,0,0,0h0c0,0,0,0,0,0.1c0,0.1-0.1,0.3-0.1,0.6
	c0,0.3,0,0.6,0,0.9c-0.2,2-0.4,7.5,2.4,13.3c0.1,0.1,0.1,0.3,0.2,0.4c0.4,0.8,0.9,1.6,1.3,2.4c0.7,1.3,1.3,1.6,2.1,2.7
	c-0.1,0-4.9-1-6.7-1.3c1.1,0.7,3,2.5,5.3,4.6c0,0,6.7,0.5,11.9,4.4c0,0-4.5-2.2-10-2.6c0.3,0.3,0.6,0.6,1,0.9
	c1.6,1.5,3.1,2.9,4.5,4.1l0,0l-3.9-0.4l5.7,4.6l1,0c0,0,1.9-0.1,3.8,0.4c2,0.5,3.1,1.1,3.1,1.1c-1.1-0.4-3-0.4-4.1-0.4
	c-0.8,0.1-1.3,0.3-1.9,0.4l0.3,0.3l3.6,2.9l3.2,0.1c-2.7,1.7-5.3,2.3-8.7,1.2c-1.8-0.6-3.5-1.5-5-2.7c0.6,1.5,2,2.7,3.1,3.8
	c-3.6-0.3-6.4-1.1-9.7-2.6c1.2,1.9,2.2,3.2,3.2,4.3c1,1,2.3,2.1,3,2.5c0.4,0.3,2.4,0.2,3.7,0.1c0.2,0,0.5,0,0.7-0.1
	c0.3,0,0.7-0.1,1.1-0.2c1.4-0.3,3-0.8,2.9-0.7c-0.6,0.4-1.2,0.8-1.9,1.1c-0.4,0.2-0.8,0.4-1.2,0.6c-1.9,0.8-4,1.3-5.8,1.1
	c2.1,0.8,4.3,1.3,6.5,1.5c0.8,0.1,1,0.1,1.7-0.2c1-0.5,1.8-0.8,2.6-1.2c0.4-0.2,0.8-0.4,1.2-0.6c0.6-0.3,1.1-0.6,1.8-0.9
	c-0.4,0.3-0.7,0.7-1.1,1c-0.2,0.2-0.4,0.4-0.7,0.5c-0.8,0.6-1.6,1.3-2.5,2.1c2.5,0.2,4,0.6,7.3-0.5c0,0-0.7,0.5-1.6,1.1l1,1.9
	l-1.1-0.5l0.7,1.3c0,0,0.5,0.6,1.2,1.1l0.2,0.8c-0.6-0.2-1.3-0.8-1.6-1c0.6,2.2,1.9,1.8,2.3,3.2c0.3,0.9,1.2,2.6,0.7,3.4
	c-0.6,1-1.1,1-2,1.8c-1.1,0.9-0.2,2.1,0,2.5c0.2-1.1,1-1.8,1.5-2c0.7-0.2,1.6-0.1,1.9-0.4c1.2-1.2,3.7-1.5,5.4-0.4
	c-0.8-1.3-1.2-1.3-2.8-1.7c2.8,0.2,3,0.8,4.4,2.4c0.1-0.9-0.6-2.1-1.3-2.6c-0.2-0.2-2.4-0.5-4.6-0.7c-0.8-0.1-1.1-1-1.2-1.6
	c0.1,0.1,0.7,0.4,1.3,0.4c-0.2-0.8-0.4-1.6-0.5-2.2c0.2,0.1,0.4,0.2,0.9,0.2L48.5,62c-0.1-1-0.5-1.8,0.5-3.3c0.5,0.4,0.8,0.5,1,0.8
	c0,0,0.2,1,0.4,1.5c0,0.1,1,0.9,1,1l-1.7-0.5c0,0,0.6,1.3,1.7,2c0.7,0.2,1.2,0.5,1.4,0.7c0.2,0.3,0.5,1,0.4,1.4
	c-0.1,0.3-1-1-2.9,0.6c1.3,0,2.8,0.4,3.1,0.8c0.4,0.5,0.7,1,1,1.1c1.4,0.8,1.4,1.2,1.3,2.8c0.8-0.6,0.6-2.3,0.5-2.7
	c1.1,1.3,0.9,3.1,0.5,3.8c0.8-0.5,1.8-2.3,0.9-3.8c-0.3-0.2-1.7-1.3-1.9-1.6c-0.7-0.8-0.9-1.7-1.2-2.6c0.2,0,0.6,0.1,0.8,0.1
	c-0.1-0.5-0.3-1.3-0.4-2c0-0.1,0-0.1,0-0.2c0,0,0-0.1,0-0.1c0-0.1,0-0.2-0.1-0.4c0,0,0-0.1,0-0.1c0-0.1,0-0.2,0-0.4
	c0.5,0.3,0.8,0.4,0.8,0.4l-0.8-2.1v0c0-0.2,0-0.3,0.1-0.5c0,0,0,0,0,0c0-0.1,0.1-0.3,0.1-0.4c0,0,0,0,0-0.1c0-0.1,0.1-0.3,0.1-0.4
	c0,0,0-0.1,0-0.1c0.1-0.2,0.1-0.3,0.2-0.5C55,58.1,56,59.2,56,59.2c0.1-1.7,1.6-3.3,2.9-3.8c-0.1,0.5,0.2,0.9,0.2,0.9
	c0.4-0.8,1.1-1.1,1.7-1.2l1,0.4l1.1,0.4l0.3,0.1c0,0,0.2,0.9,0.7,1.2c0.5,0.4,0.9,0.6,2.1,1.4c-0.1,0.3-0.3,0.6-0.9,0.7
	c1.6,0.6,3.7-0.1,3.4-1.9c-0.1-0.6-0.4-2.3-0.4-2.3v0l0.4-1.3l0.1-0.4l0,0l0.1-0.2C68.6,52.5,68.4,51.6,68,50.8"/>
<path id="path236"  class="st36" d="M77.7,13.1L77.7,13.1c-2.5,0.2-5.1,0.9-7.3,2.3
	c1.8-3.5,5.7-5.8,9.2-7.2c0,0,0.4-0.7-3.8,0c-0.5,0.1-1.1,0.1-1.6,0.3c0,0,0,0,0,0h0c-2.3,0.5-4.5,1.5-6.4,3c-1,0.8-2,1.8-2.8,2.9
	c-3.6,4.7-4.8,8.9-4.8,8.9S59.8,17.1,67.6,9c0.9-1.4,1.8-2.8,2.9-4c0,0,0.2-0.9-4.2,2.4c-3.2,2.2-6,5.2-8,8.4
	C57.5,17.1,56,20,55.5,22c0,0.1,0,0.1,0,0.2c0,0,0,1.1,0.3,2.7c0.3,1.8,1,4.4,1,4.4c-0.5-1.1-1.4-3.4-1.7-4.4
	c-0.1-0.5-0.3-1-0.4-1.5c-0.1-0.3-0.1-0.6-0.2-0.9c0-0.1-0.1-0.3-0.1-0.5c0-0.3-0.1-0.5-0.1-0.7c-0.1-0.9-0.1-1.7-0.1-2.6
	c0-1.1,0-2.1,0.1-2.9c-2,4.6-2.2,8.2-2.2,9.6c-0.1,0.9-0.2,1.6-0.2,2.2c0.5,1.5,1.5,3.5,3.1,6c0,0-1.5-0.8-3.3-3.9
	c-0.1,0.7-0.2,1.5-0.5,2.7c2,3.4,4,6,5.8,8v-4c0.6,0.7,1.1,1.2,1.4,1.5c0.3-1.3,0.7-2.9,1.3-4.6c3.5-10.5,7.7-13.7,7.7-13.7
	c-3.9,6-7.4,18.2-7.2,23.9c0.7,0.6,1.4,1.1,2,1.5c-0.3-0.4-0.5-1-0.6-1.4c1.7-8.1,7.1-13.4,7.1-13.4C69.8,18.5,83,13.6,83,13.6
	C84,12.8,77.7,13.1,77.7,13.1"/>
<path id="path240"  class="st41" d="M79.7,80.1v-6v-0.6c-0.7,0.5-1.3,1-1.9,1.4v0.7v0.9v0.4h-1
	v-1.3c-4.3,2.8-6.4,3.1-6.4,3.1c2.9-1.5,4.9-2.9,6.4-4.1V73v-0.9c-5.3,4.5-10,6.8-11.7,7.6c0,0.1,0,0.5,0,1h7.7H74
	c1.8-0.3,3.7-0.4,5.7-0.4"/>
<path id="path244"  class="st42" d="M71.5,81.3c-1.4,0.4-2.7,0.8-3.8,1.3v-1.3H71.5z"/>
<path id="path248"  class="st42" d="M60.2,86.8c-0.4,0.2-1,0.4-1.2,0.5l0-1.3v-2.7h1.2V86V86.8z"/>
<path id="path250"  class="st42" d="M60.2,82.8H59v-3.1h1.2V82.8z"/>
<path id="path254"  class="st42" d="M64.5,84.2v-1h-1.1v1v0.9c0.4-0.2,0.7-0.4,1.1-0.7L64.5,84.2z"
	/>
<path id="path256"  class="st42" d="M64.5,82.8h-1.1v-3.1h1.1V82.8z"/>
<path id="path260"  class="st42" d="M61.6,85.3v-2.1h-0.9v2.1l0,1.2c0.3-0.1,0.6-0.3,0.9-0.4V85.3z
	"/>
<path id="path262"  class="st42" d="M61.6,82.8h-0.9v-3.1h0.9V82.8z"/>
<path id="path264"  class="st42" d="M62.9,82.8H62v-3.1h0.9V82.8z"/>
<path id="path268"  class="st42" d="M62.9,85.1v-1.8H62v1.8v0.8c0.3-0.2,0.6-0.3,0.9-0.5V85.1z"/>
<path id="path270"  class="st42" d="M64.5,77H59v2.1h5.5V77z"/>
<path id="path274"  class="st42" d="M36.9,84.6c-0.4-0.2-0.8-0.4-1.2-0.6l0-0.2v-0.5h1.2v0.5V84.6z
	"/>
<path id="path276"  class="st42" d="M37,82.8h-1.2v-3.1H37V82.8z"/>
<path id="path280"  class="st42" d="M40.1,86.1c0.4,0.2,0.7,0.3,1.1,0.5l0-2.4v-1h-1.1v1V86.1z"/>
<path id="path282"  class="st42" d="M41.3,82.8h-1.1v-3.1h1.1V82.8z"/>
<path id="path284"  class="st42" d="M38.3,82.8h-0.8v-3.1h0.8V82.8z"/>
<path id="path286"  class="st42" d="M39.6,82.8h-0.8v-3.1h0.8V82.8z"/>
<path id="path288"  class="st42" d="M41.3,77h-5.5v2.1h5.5V77z"/>
<path id="path292"  class="st42" d="M38.8,85.5c0.3,0.1,0.6,0.3,0.8,0.4v-0.6v-2h-0.9v2L38.8,85.5z
	"/>
<path id="path296"  class="st42" d="M34.4,83.4c0.3,0.1,0.6,0.3,0.9,0.4v-0.8v-1.6h-0.9v1.6
	L34.4,83.4z"/>
<path id="path300"  class="st42" d="M37.4,84.8l0.1,0.1c0.2,0.1,0.5,0.2,0.7,0.3v-0.6v-1.3h-0.8
	v1.3V84.8z"/>
<path id="path304"  class="st41" d="M20.8,77.8v-4.3c0.7,0.5,1.3,1,1.9,1.4v1.9h1v-1.3
	c4.3,2.8,6.4,3.1,6.4,3.1c-2.9-1.5-4.9-2.9-6.4-4.1v-1.8v-0.7c5,4.3,9.6,6.6,11.5,7.5v1.2c0,0-7.7,0-7.9,0c-2.2-0.5-4.5-0.5-6.6-0.3
	"/>
<path id="path308"  class="st42" d="M32.5,82.6c-1.1-0.4-2.5-1-3.3-1.3h3.3V82.6z"/>
<path id="path312"  class="st42" d="M33,82.5v-1.2h0.9v1.2l0,0.6c-0.1,0-0.4-0.2-0.9-0.4L33,82.5z"
	/>
<path id="path316"  class="st42" d="M65.9,83.3v-2H65v2v0.9c0.3-0.2,0.6-0.4,0.9-0.6L65.9,83.3z"/>
<path id="path320"  class="st42" d="M67.3,82.6v-1.3h-0.9v1.3l0,0.7c0.3-0.2,0.5-0.3,0.8-0.5V82.6z
	"/>
<path id="path324"  class="st42" d="M58.5,79.2v-1.5c0-4.6-3.7-8.4-8.4-8.4s-8.4,3.7-8.4,8.4v1.5
	l1.4,0c-0.1-0.4-0.1-0.9-0.1-1.4c0-3.9,3.2-7,7-7c3.9,0,7,3.1,7,7c0,0.5,0,0.9-0.1,1.4L58.5,79.2z"/>
<path id="path328"  class="st41" d="M22.8,73.1v-1.9l-1.9-2V71v0.5c0.3,0.4,0.9,1.2,1.9,2.3V73.1z"
	/>
<path id="path332"  class="st41" d="M79.7,71.4c-0.3,0.4-0.9,1.2-1.9,2.3v-1v-1.5l1.9-2v1.5V71.4z"
	/>
<path id="path336"  class="st42" d="M48.7,85.8c-0.2,0-0.4,0.1-0.4,0.4c0,0.2,0.1,0.4,0.4,0.4
	c0.2,0,0.3-0.1,0.4-0.2v0C49.1,86.1,49,85.8,48.7,85.8"/>
<path id="path340"  class="st42" d="M50.8,85.8c-0.3,0-0.5,0.3-0.5,0.8c0,0.5,0.2,0.8,0.5,0.8
	c0.3,0,0.4-0.3,0.4-0.8C51.3,86.1,51.1,85.8,50.8,85.8"/>
<path id="path344"  class="st42" d="M52.8,87.8c-0.3,0-0.5-0.1-0.7-0.2l0.1-0.4
	c0.2,0.1,0.4,0.2,0.6,0.2c0.3,0,0.4-0.1,0.4-0.4c0-0.2-0.1-0.3-0.4-0.3c-0.1,0-0.2,0-0.3,0.1l-0.3-0.1l0.1-1.1h1.2l0.1,0.3h-0.9
	l0,0.5c0.1,0,0.2,0,0.3,0c0.4,0,0.7,0.2,0.7,0.7C53.6,87.5,53.3,87.8,52.8,87.8 M50.8,87.8c-0.5,0-0.9-0.4-0.9-1.1
	c0-0.7,0.3-1.1,0.9-1.1c0.5,0,0.9,0.4,0.9,1.1C51.7,87.4,51.3,87.8,50.8,87.8 M48.3,87.8l-0.1-0.3c0.4-0.1,0.8-0.3,0.9-0.6
	c-0.2,0.1-0.3,0.2-0.5,0.2c-0.4,0-0.7-0.2-0.7-0.7c0-0.4,0.3-0.7,0.8-0.7c0.5,0,0.8,0.3,0.8,0.9C49.5,87.2,49,87.6,48.3,87.8
	 M47.4,87.7H47V86l-0.4,0.2l0-0.3l0.5-0.2h0.4V87.7z M56.8,79.7c-0.8,3-3.5,5.1-6.8,5.1c-3.2,0-6-2.2-6.8-5.1l-1.5,0v5.8l0,1.4
	c2.9,1.3,5.8,2.2,9,2.2h0.1c2.8,0,5.2-0.5,7.7-1.5l0-7.9L56.8,79.7z"/>
<path id="path348"  class="st42" d="M18.9,68.3c0.3,0.1,0.6,0.1,0.8,0.2v3.8
	c-0.3-0.1-0.5-0.2-0.8-0.2V68.3z"/>
<path id="path352"  class="st42" d="M18.4,72c-0.3,0-0.6-0.1-0.8-0.1l0-3.8c0.1,0,0.3,0,0.4,0
	c0.1,0,0.3,0,0.4,0V72z"/>
<path id="path356"  class="st42" d="M16.2,72c0.3,0,0.6-0.1,0.8-0.1v-3.8c-0.3,0-0.6,0-0.8,0.1V72z
	"/>
<path id="path360"  class="st42" d="M14.9,72.3c0.3-0.1,0.5-0.2,0.8-0.2v-3.8
	c-0.3,0.1-0.6,0.1-0.8,0.2V72.3z"/>
<path id="path364"  class="st42" d="M14.2,65.3c0.2-0.1,0.4-0.2,0.6-0.2v0.5L14.2,65.3z"/>
<path id="path368"  class="st42" d="M17.1,66.6c-0.3,0-0.6,0-0.8,0.1v-2c0.3,0,0.6-0.1,0.8-0.1
	V66.6z"/>
<path id="path372"  class="st42" d="M18.4,64.7c-0.3,0-0.6-0.1-0.8-0.1v2c0.3,0,0.6,0,0.8,0.1V64.7
	z"/>
<path id="path376"  class="st42" d="M18.9,64.8c0.3,0.1,0.6,0.1,0.8,0.2v2
	c-0.3-0.1-0.5-0.2-0.8-0.2V64.8z"/>
<path id="path380"  class="st42" d="M15.8,66.7c-0.3,0.1-0.6,0.1-0.8,0.2v-2
	c0.3-0.1,0.5-0.2,0.8-0.2V66.7z"/>
<path id="path384"  class="st42" d="M19.9,65c0.2,0.1,0.4,0.1,0.6,0.2l-0.6,0.2V65z"/>
<path id="path388"  class="st42" d="M14.2,68.8c0.2-0.1,0.4-0.2,0.6-0.2V69L14.2,68.8z"/>
<path id="path392"  class="st42" d="M19.9,68.6c0.2,0.1,0.4,0.1,0.6,0.2L19.9,69V68.6z"/>
<path id="path396"  class="st42" d="M20.5,64c-0.9-0.4-2-0.6-3.2-0.6c-1.2,0-2.3,0.2-3.2,0.6v0.8
	c0.9-0.4,2-0.6,3.2-0.6c1.2,0,2.3,0.2,3.2,0.6V64z"/>
<path id="path400"  class="st42" d="M20.5,67.6c-0.9-0.4-2-0.6-3.2-0.6c-1.2,0-2.3,0.2-3.2,0.6v0.8
	c0.9-0.4,2-0.6,3.2-0.6c1.2,0,2.3,0.2,3.2,0.6V67.6z"/>
<path id="path404"  class="st42" d="M20.5,63.6c-0.9-0.4-2-0.6-3.2-0.6c-1.2,0-2.3,0.2-3.2,0.6
	l2.5-2.4c0.2,0,0.4,0,0.7,0c0.2,0,0.4,0,0.7,0L20.5,63.6z"/>
<path id="path408"  class="st42" d="M16.7,60.6V61c0.2,0,0.4,0,0.7,0c0.2,0,0.4,0,0.7,0v-0.4
	c0-0.1-0.3-0.2-0.4-0.2c-0.1,0-0.2,0-0.2,0c-0.1,0-0.2,0-0.2,0C17,60.4,16.7,60.4,16.7,60.6"/>
<path id="path412"  class="st42" d="M19.7,76.4c-0.3-0.1-0.5-0.2-0.8-0.2v-3.7
	c0.3,0.1,0.6,0.1,0.8,0.2V76.4z"/>
<path id="path416"  class="st42" d="M18.4,76.1c-0.3,0-0.6-0.1-0.8-0.1v-3.7c0.3,0,0.6,0,0.8,0.1
	V76.1z"/>
<path id="path420"  class="st42" d="M17.1,76c-0.3,0-0.6,0-0.8,0.1v-3.7c0.3,0,0.6-0.1,0.8-0.1V76z
	"/>
<path id="path424"  class="st42" d="M15.8,76.2c-0.3,0.1-0.6,0.1-0.8,0.2v-3.7
	c0.3-0.1,0.5-0.2,0.8-0.2V76.2z"/>
<path id="path428"  class="st42" d="M84.7,68.3c0.3,0.1,0.6,0.1,0.8,0.2v3.8
	c-0.3-0.1-0.5-0.2-0.8-0.2V68.3z"/>
<path id="path432"  class="st42" d="M84.2,72c-0.3,0-0.6-0.1-0.8-0.1v-3.8c0.1,0,0.3,0,0.4,0
	c0.1,0,0.3,0,0.4,0V72z"/>
<path id="path436"  class="st42" d="M82.1,72c0.3,0,0.6-0.1,0.8-0.1v-3.8c-0.3,0-0.6,0-0.8,0.1V72z
	"/>
<path id="path440"  class="st42" d="M80.7,72.3c0.3-0.1,0.5-0.2,0.8-0.2v-3.8
	c-0.3,0.1-0.6,0.1-0.8,0.2V72.3z"/>
<path id="path444"  class="st42" d="M80,65.3c0.2-0.1,0.4-0.2,0.6-0.2v0.5L80,65.3z"/>
<path id="path448"  class="st42" d="M82.9,66.6c-0.3,0-0.6,0-0.8,0.1v-2c0.3,0,0.6-0.1,0.8-0.1
	V66.6z"/>
<path id="path452"  class="st42" d="M84.2,64.7c-0.3,0-0.6-0.1-0.8-0.1v2c0.3,0,0.6,0,0.8,0.1V64.7
	z"/>
<path id="path456"  class="st42" d="M84.7,64.8c0.3,0.1,0.6,0.1,0.8,0.2v2
	c-0.3-0.1-0.5-0.2-0.8-0.2V64.8z"/>
<path id="path460"  class="st42" d="M81.6,66.7c-0.3,0.1-0.6,0.1-0.8,0.2v-2
	c0.3-0.1,0.5-0.2,0.8-0.2L81.6,66.7z"/>
<path id="path464"  class="st42" d="M85.7,65c0.2,0.1,0.4,0.1,0.6,0.2l-0.6,0.2V65z"/>
<path id="path468"  class="st42" d="M80,68.8c0.2-0.1,0.4-0.2,0.6-0.2V69L80,68.8z"/>
<path id="path472"  class="st42" d="M85.7,68.6c0.2,0.1,0.4,0.1,0.6,0.2L85.7,69V68.6z"/>
<path id="path476"  class="st42" d="M86.3,64c-0.9-0.4-2-0.6-3.2-0.6c-1.2,0-2.3,0.2-3.2,0.6v0.8
	c0.9-0.4,2-0.6,3.2-0.6c1.2,0,2.3,0.2,3.2,0.6V64z"/>
<path id="path480"  class="st42" d="M86.3,67.6c-0.9-0.4-2-0.6-3.2-0.6c-1.2,0-2.3,0.2-3.2,0.6v0.8
	c0.9-0.4,2-0.6,3.2-0.6c1.2,0,2.3,0.2,3.2,0.6V67.6z"/>
<path id="path484"  class="st42" d="M86.3,63.6c-0.9-0.4-2-0.6-3.2-0.6c-1.2,0-2.3,0.2-3.2,0.6
	l2.5-2.4c0.2,0,0.4,0,0.7,0c0.2,0,0.4,0,0.7,0L86.3,63.6z"/>
<path id="path488"  class="st42" d="M82.5,60.6V61c0.2,0,0.4,0,0.7,0c0.2,0,0.4,0,0.7,0v-0.4
	c0-0.1-0.3-0.2-0.4-0.2c-0.1,0-0.2,0-0.2,0s-0.2,0-0.2,0C82.8,60.4,82.5,60.4,82.5,60.6"/>
<path id="path492"  class="st42" d="M85.6,76.4c-0.3-0.1-0.5-0.2-0.8-0.2v-3.7
	c0.3,0.1,0.6,0.1,0.8,0.2V76.4z"/>
<path id="path496"  class="st42" d="M84.2,76.1C84,76,83.7,76,83.4,76v-3.7c0.3,0,0.6,0,0.8,0.1
	V76.1z"/>
<path id="path500"  class="st42" d="M82.9,76c-0.3,0-0.6,0-0.8,0.1v-3.7c0.3,0,0.6-0.1,0.8-0.1V76z
	"/>
<path id="path504"  class="st42" d="M81.6,76.2c-0.3,0.1-0.6,0.1-0.8,0.2v-3.7
	c0.3-0.1,0.5-0.2,0.8-0.2V76.2z"/>
<path id="path508"  class="st42" d="M15.8,81.4c-0.3,0.1-0.6,0.2-0.8,0.2c0-0.5,0-1.8,0-1.8v-3
	c0,0,0.5-0.2,0.8-0.2v2.9L15.8,81.4z M17.1,81c-0.3,0.1-0.6,0.1-0.9,0.2c0-0.2,0-1.9,0-1.9v-2.8c0,0,0.6-0.1,0.8-0.1l0,2.9L17.1,81z
	 M18.4,76.5c-0.3,0-0.8-0.1-0.8-0.1v2.9c0,0,0,1.3,0,1.6c0.3-0.1,0.6-0.1,0.8-0.2L18.4,76.5z M19.7,79.2v-2.4
	c-0.3-0.1-0.8-0.2-0.8-0.2v2.6l0,1.4c0,0,0.6-0.1,0.8-0.1L19.7,79.2z M81.6,79.7v-3.1c-0.3,0.1-0.8,0.2-0.8,0.2v3.2c0,0,0,0.1,0,0.4
	c0.3,0,0.6,0.1,0.8,0.1 M82.9,79.6l0-3.1c-0.3,0-0.8,0.1-0.8,0.1v3c0,0,0,0.8,0,1.1c0.3,0,0.6,0.1,0.9,0.1 M84.2,81.1
	C84,81,83.7,81,83.4,80.9c0-0.2,0-1.3,0-1.3v-3.1c0,0,0.6,0,0.8,0.1v3L84.2,81.1z M85.6,81.5c-0.3-0.1-0.6-0.2-0.8-0.3
	c0-0.2,0-1.8,0-1.8v-2.8c0,0,0.6,0.1,0.8,0.2v2.6V81.5z"/>
<path id="path512"  class="st37" d="M47.4,80.2c1.1,0.6,2.2,0.9,2.9,1c0,0,0,0,0,0
	c0.1,0,0.1,0,0.1,0c0.1,0,0.1-0.1,0.1-0.2c0-1.2-0.2-2.3-0.3-2.7c0-0.1-0.1-0.1-0.1-0.1c-1.4-0.7-2.6-1.5-3.5-2.3
	c-0.6-0.6-1.1-1.2-1.4-1.8c0-0.1-0.1-0.1-0.2-0.1c-0.1,0-0.2,0-0.2,0.1c-0.5,0.7-0.8,1.5-1,2.3c0,0,0,0.1,0,0.1
	C44.6,78.1,45.8,79.3,47.4,80.2"/>
<path id="path516"  class="st37" d="M46.9,75.6c0,0,0.1,0.1,0.2,0.1h0c0.1,0,0.1,0,0.2-0.1
	c1.7-2.3,3.5-3.1,4.8-3.4c0.1,0,0.2-0.1,0.2-0.2c0-0.1-0.1-0.2-0.2-0.2c-0.6-0.2-1.3-0.3-2-0.3c-0.9,0-1.7,0.2-2.5,0.5
	c-0.8,0.3-1.4,0.8-2,1.4c-0.1,0.1-0.1,0.1-0.1,0.2C45.6,73.8,45.9,74.6,46.9,75.6"/>
<path id="path520"  class="st37" d="M47.6,75.9c-0.1,0.1-0.1,0.2,0,0.3c0.7,0.5,1.5,1.1,2.5,1.5
	c0,0,0.1,0,0.1,0c0.1,0,0.1,0,0.2-0.1c0.6-0.7,2.3-2.3,5-2.7c0.1,0,0.1-0.1,0.2-0.1c0-0.1,0-0.1,0-0.2c-0.5-0.9-1.2-1.6-2-2.2
	c0,0-0.1,0-0.1,0c-0.3,0-1.2,0-2.4,0.5C49.8,73.5,48.6,74.5,47.6,75.9"/>
<path id="path524"  class="st37" d="M56,75.5c0-0.1-0.1-0.2-0.2-0.1c-0.5,0.1-1,0.2-1.4,0.3
	c-0.1,0-0.1,0.1-0.1,0.1c0,0.1,0,0.1,0,0.2c0.2,0.5,0.4,1.5,0.5,2.7c0,0.8,0,1.5-0.2,2.2c-0.1,0.4-0.3,0.9-0.5,1.3
	c0,0.1,0,0.2,0.1,0.3c0,0,0.1,0,0.1,0c0.1,0,0.1,0,0.2-0.1c0.7-0.6,1.2-1.4,1.6-2.3C56.6,78.6,56.6,77,56,75.5"/>
<path id="path528"  class="st37" d="M50.4,81.8c0,0-0.1-0.1-0.1-0.1c-0.7-0.1-1.8-0.4-2.9-1
	c-1.4-0.7-2.4-1.6-3.2-2.8c-0.1-0.1-0.2-0.1-0.3-0.1c-0.1,0-0.2,0.1-0.2,0.2c0,0.8,0.2,1.5,0.5,2.2c0.4,1,1.2,2,2.1,2.6
	c0.9,0.6,1.9,1.1,3,1.2c0,0,0,0,0,0c0.1,0,0.1,0,0.2-0.1c0.5-0.5,0.8-1.2,0.9-2C50.5,81.9,50.5,81.8,50.4,81.8"/>
<path id="path532"  class="st37" d="M53.8,76.1c0-0.1-0.1-0.1-0.1-0.1s-0.1,0-0.2,0
	C52,76.7,51,77.6,50.7,78c0,0.1-0.1,0.1,0,0.2c0.1,0.4,0.3,1.3,0.4,2.3c0,0.6,0,1.2-0.2,1.8c-0.1,0.5-0.3,1-0.6,1.4
	c0,0.1,0,0.2,0,0.2c0,0.1,0.1,0.1,0.2,0.1h0c0.6,0,1.3-0.2,1.9-0.4c0,0,0.1,0,0.1,0c0.7-0.6,1.1-1.4,1.5-2.2
	c0.3-0.7,0.4-1.5,0.4-2.3C54.3,77.8,54,76.7,53.8,76.1"/>
</svg>
