<?xml version="1.0" encoding="utf-8"?>
<!-- Generator: Adobe Illustrator 19.2.1, SVG Export Plug-In . SVG Version: 6.00 Build 0)  -->
<svg version="1.1" id="Capa_1" xmlns="http://www.w3.org/2000/svg" xmlns:xlink="http://www.w3.org/1999/xlink" x="0px" y="0px"
	 viewBox="0 0 100 100" style="enable-background:new 0 0 100 100;" xml:space="preserve">
<style type="text/css">
	.st0{fill:url(#path34_4_);}
	.st1{fill:url(#path890_1_);}
	.st2{fill:#FFE500;stroke:#000000;stroke-width:2.098;stroke-miterlimit:3.863;}
	.st3{fill:#DA020E;}
	.st4{fill:#FFE500;}
	.st5{clip-path:url(#SVGID_2_);}
	.st6{fill:none;stroke:#B54005;stroke-width:10;stroke-miterlimit:3.863;}
	.st7{fill:url(#path7506_1_);}
	.st8{fill:url(#path8794_1_);}
	.st9{fill:url(#path15846_1_);}
	.st10{fill:url(#path16274_1_);}
	.st11{fill:url(#path39821_1_);}
	.st12{fill:url(#path39847_1_);}
	.st13{fill:url(#path39878_1_);}
	.st14{fill:url(#path39888_1_);}
	.st15{fill:url(#path41035_1_);}
	.st16{fill:url(#path9646-8_1_);}
	.st17{fill:url(#path41092_1_);}
	.st18{fill:url(#path41094_1_);}
	.st19{fill:none;stroke:#000000;stroke-width:2.098;stroke-miterlimit:3.863;}
	.st20{fill:url(#path41152_1_);}
	.st21{fill:url(#path39854_1_);}
	.st22{fill:url(#path39874_1_);}
	.st23{fill:#9C824A;stroke:#9C824A;stroke-width:0.793;stroke-miterlimit:282;}
	.st24{fill:#023474;stroke:#023474;stroke-width:0.793;stroke-miterlimit:282;}
	.st25{fill:#FFFFFF;stroke:#FFFFFF;stroke-width:0.793;stroke-miterlimit:282;}
	.st26{fill:#EF0107;stroke:#EF0107;stroke-width:0.793;stroke-miterlimit:282;}
	.st27{fill:#DB0007;stroke:#DB0007;stroke-width:0.793;stroke-miterlimit:282;}
	.st28{fill:#FFFFFF;}
	.st29{fill:#9C824A;}
	.st30{fill:#EF0107;stroke:#EF0107;stroke-width:0.3115;stroke-miterlimit:282;}
	.st31{fill:#DB0007;stroke:#DB0007;stroke-width:0.3115;stroke-miterlimit:282;}
	.st32{fill:#DB0007;}
	.st33{fill:#FFFFFF;stroke:#FFFFFF;stroke-width:0.3115;stroke-miterlimit:282;}
	.st34{fill:#FFFFFF;stroke:#FFFFFF;stroke-width:0.554;stroke-miterlimit:3.864;}
	.st35{fill:#231F20;}
	.st36{fill:#00B6F1;stroke:#00B6F1;stroke-width:1.700000e-02;stroke-miterlimit:3.864;}
	.st37{fill:#EF3E2E;}
	.st38{fill:#BBBDBF;}
	.st39{fill:#F0B83D;}
	.st40{fill:#00B6F1;stroke:#FFFFFF;stroke-width:1.700000e-02;stroke-miterlimit:3.864;}
	.st41{fill:#001C58;}
	.st42{fill:#94BEE5;}
	.st43{fill:none;stroke:#7A003C;stroke-width:2.2437;stroke-miterlimit:6;}
	.st44{fill:#7A003C;}
	.st45{fill:#FFE600;}
	.st46{fill:#DBA111;}
	.st47{fill:#034694;}
	.st48{fill:#D1D3D4;}
	.st49{fill:#ED1C24;}
	.st50{fill:#6A7AB5;}
	.st51{fill:none;}
	.st52{fill:#274488;}
	.st53{fill:#004798;stroke:#004798;stroke-width:9.375000e-02;}
	.st54{fill:#FFFFFF;stroke:#FFFFFF;stroke-width:9.375000e-02;}
	.st55{fill:#FABC00;stroke:#FABC00;stroke-width:9.375000e-02;}
	.st56{fill:none;stroke:#FFFFFF;stroke-width:7.865;stroke-miterlimit:3.864;}
	.st57{fill:none;stroke:#FFFFFF;stroke-width:7.865;stroke-miterlimit:12;}
	.st58{fill:none;stroke:#FFFFFF;stroke-width:7.865;stroke-miterlimit:22;}
	.st59{fill:none;stroke:#FFFFFF;stroke-width:7.865;stroke-miterlimit:6;}
	.st60{fill:#00A398;}
	.st61{fill:#D00027;}
	.st62{fill:none;stroke:#FFFFFF;stroke-width:17.3907;stroke-miterlimit:3.864;}
	.st63{fill:none;stroke:#FFFFFF;stroke-width:13.1107;stroke-miterlimit:3.864;}
	.st64{fill:#FEF667;}
	.st65{fill:#D00027;stroke:#D00027;}
	.st66{fill:#5299C6;}
	.st67{fill:#60223B;}
	.st68{fill:#F7C240;}
	.st69{fill:#292D6B;}
	.st70{fill:#1B458F;}
	.st71{fill:#C4122E;}
	.st72{fill:#27409B;}
	.st73{clip-path:url(#SVGID_4_);}
	.st74{fill:#F4F4F4;}
	.st75{fill:#D3D2D2;}
	.st76{fill:#A7A5A6;}
	.st77{fill:#091453;}
	.st78{fill:none;stroke:#FFFFFF;stroke-width:6.6301;}
	.st79{clip-path:url(#SVGID_6_);}
	.st80{fill:#724314;}
	.st81{fill:#240B08;}
	.st82{fill:#018B4B;}
	.st83{fill:#A6181D;}
	.st84{fill:#592D09;}
	.st85{fill:#FFCE65;}
	.st86{fill:#5CBFEB;}
	.st87{fill:none;stroke:#000000;stroke-width:10;}
	.st88{fill:none;stroke:#000000;}
	.st89{fill:#B2B2B2;}
	.st90{fill:none;stroke:#000000;stroke-width:0.3;}
	.st91{fill:#00A650;stroke:#000000;stroke-width:2;}
	.st92{fill:#241F20;stroke:#241F20;stroke-width:9.375000e-02;}
	.st93{fill:#FFF200;stroke:#FFF200;stroke-width:9.375000e-02;}
	.st94{fill:#A68A26;}
	.st95{fill:none;stroke:#A68A26;stroke-width:4.792100e-02;stroke-miterlimit:3.8637;}
	.st96{fill:#211E1E;}
	.st97{fill:none;stroke:#211E1E;stroke-width:4.792100e-02;stroke-miterlimit:3.8637;}
	.st98{fill:#EB172B;}
	.st99{fill:none;stroke:#EB172B;stroke-width:4.792100e-02;stroke-miterlimit:3.8637;}
	.st100{fill:#A68A26;stroke:#A68A26;stroke-width:4.792100e-02;stroke-miterlimit:3.8637;}
	.st101{fill:#D1BF7F;}
	.st102{fill:none;stroke:#D1BF7F;stroke-width:4.792100e-02;stroke-miterlimit:3.8637;}
	.st103{fill:none;stroke:#FFFFFF;stroke-width:4.792100e-02;stroke-miterlimit:3.8637;}
	.st104{fill:#EB172B;stroke:#EB172B;stroke-width:4.792100e-02;stroke-miterlimit:3.8637;}
	.st105{fill:#ED2127;}
	.st106{fill:#FBEE23;}
	.st107{stroke:#000000;}
	.st108{fill:#CF1F44;}
	.st109{fill:#1B449C;}
	.st110{fill:#E03A3E;}
	.st111{fill:#E03A3E;stroke:#E03A3E;stroke-width:0.6565;}
	.st112{fill:none;stroke:#1B449C;stroke-width:0.7493;}
	.st113{fill:none;stroke:#1B449C;stroke-width:0.7567;}
	.st114{fill:#1B449C;stroke:#1B449C;stroke-width:0.6274;}
	.st115{fill:#1B449C;stroke:#1B449C;stroke-width:0.6755;}
	.st116{fill:#2E6ABD;stroke:#2E6ABD;stroke-width:0.617;}
	.st117{fill:#FFFFFF;stroke:#FFFFFF;stroke-width:0.6175;}
	.st118{fill:#ED1248;}
	.st119{fill:#2E6ABD;}
	.st120{fill:#FDE100;}
	.st121{fill:#CC0000;}
	.st122{fill:#211E1F;}
	.st123{fill:#ED1A3B;}
	.st124{fill:#00AEEF;}
	.st125{fill:#FFC40D;}
	.st126{fill:#22B24C;}
	.st127{fill:#FFC20E;}
	.st128{fill:#0A3F86;}
	.st129{fill:#005CA9;}
	.st130{fill:#FFE000;}
	.st131{fill:#E2001A;}
	.st132{opacity:0;}
	.st133{opacity:0;fill:#FFFFFF;}
	.st134{fill:#FFFFFF;stroke:#000000;}
	.st135{fill:#0060A9;}
	.st136{fill:#E32219;}
	.st137{fill:#FFED00;}
	.st138{fill:#1D9053;}
	.st139{fill:#52A600;}
	.st140{fill:#EE2523;}
	.st141{fill:#F7D117;}
	.st142{fill:#171796;}
	.st143{fill:#009959;}
	.st144{fill:#D42E12;}
	.st145{fill:#703824;}
	.st146{fill:#E5254E;}
	.st147{fill:#8AC3EE;}
	.st148{fill:#B19221;}
	.st149{fill:#F5C03E;}
	.st150{fill:#FF1119;}
	.st151{fill:#1E6BC0;}
	.st152{fill:#B4742A;}
	.st153{fill:#371B02;}
	.st154{fill:url(#SVGID_7_);}
	.st155{fill:url(#SVGID_8_);}
	.st156{fill:url(#SVGID_9_);}
	.st157{fill:url(#SVGID_10_);}
	.st158{fill:url(#SVGID_11_);}
	.st159{fill:url(#SVGID_12_);}
	.st160{fill:url(#SVGID_13_);}
	.st161{fill:url(#SVGID_14_);}
	.st162{fill:url(#SVGID_15_);}
	.st163{fill:url(#SVGID_16_);}
	.st164{fill:#EB2626;}
	.st165{fill:#E9C32C;}
	.st166{fill:#D9D9D9;}
	.st167{fill:#009C5E;}
	.st168{fill:#1C75BC;}
	.st169{fill:#611D5C;}
	.st170{fill:#E2B900;}
	.st171{fill:#004B95;}
	.st172{fill:#A4234B;}
	.st173{fill:#DB2F36;}
	.st174{fill:#FFDF00;}
	.st175{fill:#A38D44;}
	.st176{fill:#57175E;}
	.st177{fill:#AFDCFD;}
	.st178{fill:#0090C6;}
	.st179{fill:#DB5232;}
	.st180{fill:#23C1E0;}
	.st181{fill:#F1A92A;}
	.st182{fill:#167FB6;}
	.st183{fill:#FED75D;}
	.st184{fill:#378CBF;}
	.st185{fill:#3E9692;}
	.st186{fill:#E67F29;}
	.st187{fill:#D8B43C;}
	.st188{fill:#EF3B33;}
	.st189{fill:#24923D;}
	.st190{opacity:6.000001e-02;fill:#101010;enable-background:new    ;}
	.st191{fill:#00529F;}
	.st192{fill:#EE324E;}
	.st193{fill:#FEBE10;}
	.st194{fill:#143C8B;}
	.st195{fill:#FFE24A;}
	.st196{fill:#EC1D24;}
	.st197{fill:#E6A514;}
	.st198{fill:#FFDF1C;}
	.st199{fill:#EE3524;}
	.st200{fill:#B23428;}
	.st201{fill:#D18816;}
	.st202{fill:#0097D7;}
	.st203{fill:#ED1C23;}
	.st204{fill:#E30613;}
	.st205{fill:#FFE400;}
	.st206{fill:#C51A1B;}
	.st207{clip-path:url(#SVGID_19_);}
	.st208{clip-path:url(#SVGID_20_);fill:none;stroke:#000000;stroke-width:0.8131;stroke-miterlimit:3.864;}
	.st209{fill:#0093D5;}
	.st210{fill:#004B9D;}
	.st211{fill:#FCC24F;}
	.st212{fill:#009545;}
	.st213{fill:#0072BB;}
	.st214{fill:#C4974E;}
	.st215{fill:url(#path1292_1_);}
	.st216{fill:#004996;}
	.st217{fill:#FFE667;}
	.st218{fill:none;stroke:#005187;stroke-width:0.153;stroke-miterlimit:3.864;}
	.st219{fill:#005187;}
	.st220{clip-path:url(#SVGID_22_);}
	.st221{clip-path:url(#SVGID_24_);fill:none;stroke:#000000;stroke-width:0.296;stroke-miterlimit:3.864;}
	.st222{clip-path:url(#SVGID_26_);fill:#FFE667;}
	.st223{clip-path:url(#SVGID_28_);fill:none;stroke:#000000;stroke-width:8.300000e-02;stroke-miterlimit:3.864;}
	.st224{fill:none;stroke:#000000;stroke-width:0.153;stroke-miterlimit:3.864;}
	.st225{clip-path:url(#SVGID_30_);fill:#E70005;}
	.st226{clip-path:url(#SVGID_32_);fill:none;stroke:#E70005;stroke-width:0.296;stroke-miterlimit:3.864;}
	.st227{clip-path:url(#SVGID_34_);fill:#E70005;}
	.st228{clip-path:url(#SVGID_36_);fill:none;stroke:#E70005;stroke-width:0.296;stroke-miterlimit:3.864;}
	.st229{clip-path:url(#SVGID_38_);fill:#E70005;}
	.st230{clip-path:url(#SVGID_40_);fill:none;stroke:#E70005;stroke-width:0.296;stroke-miterlimit:3.864;}
	.st231{clip-path:url(#SVGID_42_);fill:#E70005;}
	.st232{clip-path:url(#SVGID_44_);fill:none;stroke:#E70005;stroke-width:0.296;stroke-miterlimit:3.864;}
	.st233{fill:#E70005;}
	.st234{fill:none;stroke:#000000;stroke-width:0.141;stroke-miterlimit:3.864;}
	.st235{fill:#00276D;}
	.st236{fill:#C49308;}
	.st237{fill:#179D33;}
	.st238{fill:#999999;}
	.st239{fill:#FF0000;}
	.st240{fill:#E31837;}
	.st241{fill:#06357A;}
	.st242{fill:#B4053F;}
	.st243{fill:#DCA43E;}
	.st244{fill:#005CA5;}
	.st245{fill:#FAC400;}
	.st246{fill:#004083;}
	.st247{fill:#A95932;}
	.st248{fill:none;stroke:#000000;stroke-width:1.2215;}
	.st249{fill:#E62627;}
	.st250{fill:#00458C;}
	.st251{fill:#E11B22;}
	.st252{fill:#00AB4E;}
	.st253{fill:#F47920;}
	.st254{fill:#C7C8CA;}
	.st255{fill:#E11515;}
	.st256{fill:#A4965F;}
	.st257{fill:#E51636;}
	.st258{fill:#EACC00;}
	.st259{fill:#4F846B;}
	.st260{fill:#E22227;}
	.st261{fill:#FAE700;}
	.st262{fill:url(#SVGID_45_);}
	.st263{fill:#666666;}
	.st264{fill:#FFF200;}
	.st265{fill:#00275D;}
	.st266{fill:#EF3E33;}
	.st267{fill:none;stroke:#00275D;stroke-width:2.632;}
	.st268{fill:#3F7652;}
	.st269{fill:#F1D261;}
	.st270{fill:#004D8F;}
	.st271{fill:#E7B137;stroke:#E7B137;stroke-miterlimit:10;}
	.st272{fill:#E7B137;}
	.st273{fill:#162577;}
	.st274{fill:#12692C;}
	.st275{fill:#D8141D;}
	.st276{fill:#AB830D;}
	.st277{fill:#0086CB;}
	.st278{fill:#001F42;}
	.st279{fill:#9A8F4A;}
	.st280{fill:#00559D;}
	.st281{fill:#FDDE00;}
	.st282{fill:#00924C;}
	.st283{fill:#233984;}
	.st284{fill:#FFD42E;}
	.st285{fill:#BA3733;}
	.st286{fill:#46714D;}
	.st287{fill:#221F1F;}
	.st288{fill:#00559E;}
	.st289{fill:#005C46;}
	.st290{fill:#FBC860;}
	.st291{fill:#D57C48;}
	.st292{fill:#040403;}
	.st293{fill:#4AB969;}
	.st294{fill:#8ED8F8;}
	.st295{fill:#FEC34E;}
	.st296{fill:#FFC95B;}
	.st297{fill:#00644C;}
	.st298{fill:#70B865;}
	.st299{fill:#CA6F44;}
	.st300{fill:#A8B8BE;}
	.st301{fill:#1C2C80;}
	.st302{fill:#E10321;}
	.st303{fill:none;stroke:#231F20;stroke-width:0.318;stroke-miterlimit:3.864;}
	.st304{fill:#D71920;}
	.st305{fill:#484749;}
	.st306{fill:#D9DBDC;}
	.st307{fill:#DF725A;}
	.st308{fill:#F2CABA;}
	.st309{fill:#E89C84;}
	.st310{fill:#264F99;}
	.st311{clip-path:url(#SVGID_47_);}
	.st312{fill:#161413;}
	.st313{fill:#ED1B26;}
	.st314{fill:#E60D2E;}
	.st315{fill:#FCD600;}
	.st316{fill:#004D91;}
	.st317{fill:#EAB412;}
	.st318{fill:#FDD31D;}
	.st319{fill:#EFB800;}
</style>
<g id="g3">
	<g id="g5">
		<path id="path7_1_" class="st28" d="M9.8,3.4L8.2,3.7v48.8c0,0.4,0,9.5,5.1,19.9c3,6.1,7.1,11.4,12.3,15.8
			C32,93.7,40,97.6,49.4,99.9l0.2,0c0,0,0.3,0.1,0.3,0.1l0.4-0.1l0.2-0.1C60,97.6,68,93.7,74.4,88.3c5.2-4.3,9.3-9.7,12.3-15.8
			c5.1-10.4,5.1-19.5,5.1-19.9V3.7l-1.6-0.3C90,3.4,72,0,50,0C28,0,10,3.4,9.8,3.4"/>
		<path id="path9_2_" class="st77" d="M90,4.5c-0.2,0-18-3.4-40-3.4c-22,0-39.8,3.4-40,3.4L9.2,4.6v48c0,0.4,0,9.2,5,19.4
			c2.9,6,7,11.2,12,15.4c6.3,5.3,14.2,9.1,23.4,11.4l0.2,0l0.1,0l0.2,0l0.2,0c9.2-2.3,17.1-6.1,23.4-11.4c5-4.3,9.1-9.4,12-15.4
			c5-10.2,5-19.1,5-19.4c0,0,0-39.7,0-39.7V4.6"/>
		<path id="path11_2_" class="st28" d="M72.5,86c-0.1,0.1-0.3,0.2-0.4,0.3V34h-9.2v58.3c-2.5,1.3-5.2,2.4-8.1,3.3V34h-9.9v61.5
			c-3-1-5.7-2.1-8.3-3.5V34h-9.2v51.9c-3.1-2.7-5.8-5.7-8.1-9.1V34h-8V6.2C14.8,5.6,30.8,3,50,3c19.2,0,35.2,2.6,38.9,3.2V34h-8.4
			v43.3C78.2,80.5,75.6,83.4,72.5,86"/>
		<path id="path13_2_" class="st77" d="M19.3,15.8h2.2l6.3,14.4h-3l-1.4-3.3h-6.3l-1.3,3.3h-2.9 M22.6,24.6l-2.2-5.8l-2.3,5.8H22.6z
			"/>
		<polyline id="polyline15" class="st77" points="28.8,15.8 31.4,15.8 31.4,27.8 37.6,27.8 37.6,30.1 28.8,30.1 		"/>
		<path id="path17_2_" class="st77" d="M38.9,15.8h5.7c2.2,0,4.5,1,4.5,3.6c0,1.6-1,2.7-2.5,3.1v0c1.8,0.2,3.2,1.6,3.2,3.5
			c0,3.1-2.8,4.1-5.5,4.1h-5.3 M41.5,21.6h2.4c1.7,0,2.6-0.7,2.6-1.8c0-1.2-0.9-1.8-2.8-1.8h-2.1V21.6L41.5,21.6z M41.5,27.9h2.4
			c1.3,0,3.2-0.2,3.2-2.1c0-1.5-1-2-3.1-2h-2.5V27.9L41.5,27.9z"/>
		<rect id="rect19" x="50.9" y="15.8" class="st77" width="2.6" height="14.4"/>
		<path id="path21_2_" class="st77" d="M62.6,15.4c4.6-0.1,7.8,2.9,7.8,7.5c0,4.5-3.2,7.5-7.8,7.6c-4.5,0-7.7-3-7.7-7.5
			C54.9,18.4,58.1,15.4,62.6,15.4 M62.6,28.2c3,0,5-2.3,5-5.3c0-2.9-2-5.1-5-5.1c-3,0-5,2.3-5,5.1C57.6,25.9,59.6,28.2,62.6,28.2z"
			/>
		<polyline id="polyline23_1_" class="st77" points="71.8,15.8 75.3,15.8 82.3,26.4 82.4,26.5 82.3,26.5 82.4,26.4 82.4,15.8 
			85,15.8 85,30.1 81.7,30.1 74.5,19.1 74.4,19.1 74.4,30.1 71.8,30.1 		"/>
		<polyline id="polyline25_1_" class="st77" points="13.2,8.1 14.3,8.1 15.4,12.2 15.4,12.2 16.7,8.1 17.7,8.1 19,12.2 19,12.2 
			20.1,8.1 21.1,8.1 19.5,13.7 18.5,13.7 17.2,9.4 17.2,9.4 15.8,13.7 14.9,13.7 		"/>
		<polyline id="polyline27" class="st77" points="22,8.1 25.8,8.1 25.8,9 23,9 23,10.4 25.6,10.4 25.6,11.3 23,11.3 23,12.8 
			25.9,12.8 25.9,13.7 22,13.7 		"/>
		<path id="path29_1_" class="st77" d="M29.9,9.3c-0.2-0.3-0.6-0.4-1-0.4c-0.5,0-0.9,0.2-0.9,0.7c0,1.1,2.7,0.5,2.7,2.5
			c0,1.2-1,1.8-2.1,1.8c-0.7,0-1.4-0.2-1.9-0.8l0.8-0.7c0.3,0.4,0.7,0.6,1.1,0.6c0.5,0,1-0.3,1-0.8c0-1.2-2.7-0.5-2.7-2.5
			c0-1.2,1.1-1.7,2.1-1.7c0.6,0,1.2,0.2,1.6,0.6"/>
		<polyline id="polyline31" class="st77" points="33.2,9 31.4,9 31.4,8.1 35.9,8.1 35.9,9 34.2,9 34.2,13.7 33.2,13.7 		"/>
		<path id="path33_1_" class="st77" d="M39.4,8.1h2.2c0.9,0,1.8,0.4,1.8,1.4c0,0.6-0.4,1.1-1,1.2v0c0.7,0.1,1.2,0.6,1.2,1.4
			c0,1.2-1.1,1.6-2.2,1.6h-2.1 M40.4,10.4h0.9c0.7,0,1-0.3,1-0.7c0-0.5-0.3-0.7-1.1-0.7h-0.8L40.4,10.4L40.4,10.4z M40.4,12.9h0.9
			c0.5,0,1.3-0.1,1.3-0.8c0-0.6-0.4-0.8-1.2-0.8h-1V12.9L40.4,12.9z"/>
		<path id="path35_1_" class="st77" d="M44.7,8.1h2c1.1,0,2.1,0.3,2.1,1.6c0,0.8-0.5,1.4-1.3,1.5l1.5,2.5h-1.2l-1.3-2.4h-0.7v2.4h-1
			 M46.6,10.5c0.6,0,1.2,0,1.2-0.8c0-0.7-0.6-0.7-1.2-0.7h-0.9v1.5L46.6,10.5L46.6,10.5z"/>
		<path id="path37_1_" class="st77" d="M52.6,7.9c1.8,0,3.1,1.1,3.1,3c0,1.8-1.3,2.9-3.1,3c-1.8,0-3-1.2-3-2.9
			C49.5,9.1,50.8,7.9,52.6,7.9 M52.6,13c1.2,0,2-0.9,2-2.1c0-1.1-0.8-2-2-2c-1.2,0-2,0.9-2,2C50.6,12.1,51.4,13,52.6,13z"/>
		<polyline id="polyline39_1_" class="st77" points="56.6,8.1 58.1,8.1 59.7,12 61.2,8.1 62.7,8.1 62.7,13.7 61.8,13.7 61.8,9 
			61.8,9 60,13.7 59.3,13.7 57.6,9 57.5,9 57.5,13.7 56.6,13.7 		"/>
		<polyline id="polyline41" class="st77" points="63.6,8.1 64.7,8.1 65.8,12.2 65.8,12.2 67.1,8.1 68.1,8.1 69.4,12.2 69.4,12.2 
			70.5,8.1 71.5,8.1 69.9,13.7 68.9,13.7 67.6,9.4 67.6,9.4 66.2,13.7 65.3,13.7 		"/>
		<rect id="rect43" x="72.3" y="8.1" class="st77" width="1" height="5.6"/>
		<path id="path45_1_" class="st77" d="M78.5,9.4c-0.4-0.4-0.8-0.6-1.2-0.6c-1.2,0-2,0.9-2,2c0,1.2,0.8,2.1,2,2.1
			c0.5,0,0.9-0.2,1.3-0.7l0.8,0.6c-0.5,0.7-1.3,1-2.1,1c-1.8,0-3-1.2-3-2.9c0-1.8,1.3-3,3-3c0.8,0,1.4,0.2,2,0.9"/>
		<polyline id="polyline47" class="st77" points="80.3,8.1 81.4,8.1 81.4,10.3 84,10.3 84,8.1 85.1,8.1 85.1,13.7 84,13.7 84,11.2 
			81.4,11.2 81.4,13.7 80.3,13.7 		"/>
		<path id="path49_2_" class="st28" d="M67,81.9l0-0.2c-0.1-0.4-0.5-1.7-1.2-2.5c1.7-0.3,3.8-0.9,4.8-2.3l0.2-0.4l-0.3-0.3
			c-1.1-1.4-3.3-2-5-2.2c0.6-0.9,0.9-1.9,0.9-2.1l0.2-0.9c0,0-0.5,0.1-0.9,0.1c-0.1,0-0.3,0-0.5,0c-0.8-0.1-1.8,0-2,0
			c-0.7,0.1-1.3,0.2-1.8,0.5c0.2-0.7,0.3-1.3,0.3-1.8c0-0.1,0-0.2,0-0.2c0-0.5-0.6-2.3-0.7-2.6l-0.2-0.4c0.6,0,1.6,0.1,2.8,0.3
			c0.3,0.1,4.2,1.3,8.4,3.3c0.2,0.1,4.5,2.3,7.7,0.5c0,0,0.4-0.3,0.6-0.7l-2.4-1.2c0,0,1.6,0.2,2.7-0.2c-0.4-1.7-1.7-2.4-1.7-2.4
			c1.1,0.1,1.7-0.2,1.7-0.2c-0.1-0.3-0.3-0.6-0.3-0.6c-0.1-0.1-1-1.9-4.1-3.2c0.1-0.1,0.1-0.2,0.1-0.3c0,0,0,0.1,0,0.1
			c0-0.1,0.1-0.2,0.1-0.3c0-0.5-0.6-1.9-5.3-4.1l0,0l0,0c-0.1-0.1-3.1-1.4-5.4-1.9c-1.3-1.1-11.1-8.8-23.4-11.4
			c-0.5-0.7-1.9-2.7-2.6-3.4c-0.3-0.3-2.6-3.3-6.2-3.3c-0.1,0-1.7,0-3.3,0.8c-0.4,0-0.7-0.2-0.7-0.2c-1.9-1.1-3.4-1.8-3.4-1.8
			l-0.1,0l-0.1,0c-0.8-0.2-1.1,0.3-1.2,0.4c-0.3,0.5-0.1,0.9,0,1l0,0c0.2,0.4,0.8,1.2,1.5,2c-1.3-0.1-2-0.1-2.4,0.1l0,0c0,0,0,0,0,0
			c0,0,0,0,0,0c-0.4,0.1-0.6,0.4-0.7,0.6c-0.1,0.1-0.1,0.3-0.1,0.4c0,0.3,0.1,0.5,0.2,0.6l0,0c0.1,0.1,0.3,0.5,1.4,1
			c1.2,0.5,3,1.7,3.2,1.8c0.9,0.6,1.7,3.2,2,4.7l0,0c0.8,3,1.5,5.3,1.7,5.9c0.7,2.5,2.4,7.3,6.9,10.5L38,66.8c0,0.4-0.1,1.7-0.1,2
			l0,0c0,0.1,0,0.3,0,0.5c0,0.4,0.1,1,0.2,1.5c-0.5-0.2-1-0.4-1.6-0.5c0,0-1.1-0.2-1.9-0.1c-0.2,0-0.4,0-0.5,0
			c-0.3,0-0.9-0.3-0.9-0.3l0.1,1c0,0.2,0.2,1.2,0.8,2.1c-1.6,0.1-3.7,0.6-4.8,1.9L29,75.2l0.2,0.4c0.8,1.5,2.7,2.3,4.3,2.6
			c-0.7,0.8-1,1.8-1.1,1.9l-0.2,0.7c0,0,0.6,0,1,0.1c0.1,0,0.2,0,0.4,0.1c0.8,0.2,1.8,0.2,1.9,0.2c0.7,0,1.4-0.1,1.9-0.3
			c0,0.2,0,0.3,0,0.5c0,0.4,0.1,0.8,0.1,1.1l0.1,0.5c0,0.4-0.1,1.6-0.2,2l0,1.3l0.8-0.7c0.2-0.2,1-0.5,1.6-0.7
			c1.2-0.4,2-0.9,2.6-1.4c-0.1,0.6-0.2,1.2-0.2,1.8c0,0.4,0,0.8,0.1,1.2c0.1,0.4,0.1,1,0.1,1.3c0,0.2,0,0.3,0,0.4l-0.1,1.3l1.1-0.6
			c0.4-0.3,1.4-1,1.8-1.1c0.4-0.2,1-0.7,1.6-1.3c0.1,0.5,0.2,1,0.5,1.6c0,0,0.5,1,1,1.6c0.1,0.1,0.2,0.3,0.3,0.4
			c0.2,0.4,0.4,0.8,0.4,0.8l0.6-0.6c0.1-0.1,0.9-0.9,1.4-1.9c1,1.2,2.6,2.6,4.4,2.7l0.4,0l0.2-0.3c0.3-0.6,0.4-1.2,0.4-1.9
			c0-1.1-0.3-2.2-0.7-3c1,0.1,2.1-0.2,2.2-0.2l1-0.3c0,0,0.3,0.1,0.2,0c0.3,0.2,0.3,0.1,0.7,0.3c0.5,0.2,1.4,0.5,1.7,0.7l1,0.6
			l0-1.1c0-0.4-0.1-1.5-0.1-2c0,0,0-0.1,0-0.1c0,0,0,0,0-0.1c0-0.4-0.1-1.2-0.4-1.9c0.5,0.2,1.1,0.3,1.8,0.3c0,0,1.2,0.1,2-0.1
			c0.2,0,0.3-0.1,0.4-0.1C65.9,81.9,66.5,81.8,67,81.9 M45.4,73.7c-0.4-1.6-1.2-4.5-4.9-6.5l0,0l0,0c-0.6-0.3-1.2-0.7-1.4-0.9
			l-0.8-0.9c2.2,1.5,5,2.7,8.7,3.1c0.5,0.1,2,0.3,3.3,0.5c-0.9,0.9-2.4,2.4-3.6,4.2l-0.3,0.4c-0.3,0-0.6,0.2-0.9,0.3
			C45.4,73.9,45.4,73.8,45.4,73.7z M49.2,76c0-0.5-0.2-0.9-0.5-1.3c0.2-0.2,1.3-1.2,2.4-2.2c-0.4,1.1-0.8,2.3-1.1,2.9l-0.2,0.5
			C49.6,75.9,49.4,76,49.2,76z M59.9,67.1c-0.4,0.6-0.9,0.9-1,0.9c-1.3,0.5-2.2,1.2-3,1.9c0.3-0.4,0.6-0.8,0.9-1.2
			c0,0,0.5-0.5,0.6-0.6c0.3-0.4,1.5-1.3,2.4-1.3l0.1,0l0.1,0c0,0,0.1,0,0.3,0L59.9,67.1z"/>
		<path id="path51_2_" class="st28" d="M30.6,44c4.4,1.5,0.7-1.1,0.7-1C32.8,44.2,30.6,44,30.6,44"/>
		<path id="path53_2_" class="st78" d="M30.6,44c4.4,1.5,0.7-1.1,0.7-1C32.8,44.2,30.6,44,30.6,44z"/>
		<path id="path55_1_" class="st28" d="M32.5,42.7c0,0-0.1-0.9,1-1c1-0.1,1.7,0.6,1.9,0.9c0.2,0.3,0.4,1,0.5,1.4
			c0,0,0.2,0.4-0.2,0.2c-0.4-0.2-0.9-0.5-2.1-0.6C32.5,43.5,32.5,42.7,32.5,42.7"/>
		<path id="path57_1_" class="st78" d="M32.5,42.7c0,0-0.1-0.9,1-1c1-0.1,1.7,0.6,1.9,0.9c0.2,0.3,0.4,1,0.5,1.4
			c0,0,0.2,0.4-0.2,0.2c-0.4-0.2-0.9-0.5-2.1-0.6C32.5,43.5,32.5,42.7,32.5,42.7z"/>
		<path id="path59_2_" class="st28" d="M33.8,42.6c0,0.2-0.1,0.4-0.3,0.4c-0.2,0-0.3-0.1-0.4-0.3c0-0.2,0.1-0.4,0.3-0.4
			C33.6,42.2,33.8,42.4,33.8,42.6"/>
		<path id="path61_2_" class="st78" d="M33.8,42.6c0,0.2-0.1,0.4-0.3,0.4c-0.2,0-0.3-0.1-0.4-0.3c0-0.2,0.1-0.4,0.3-0.4
			C33.6,42.2,33.8,42.4,33.8,42.6z"/>
		<path id="path63_1_" class="st28" d="M59.1,58.4c4.8,0.7,3.2-1.4,3.2-1.5c2.5,0.6,2.8,1.7,2.8,1.7C62,59.9,59.1,58.4,59.1,58.4"/>
		<path id="path65_2_" class="st78" d="M59.1,58.4c4.8,0.7,3.2-1.4,3.2-1.5c2.5,0.6,2.8,1.7,2.8,1.7C62,59.9,59.1,58.4,59.1,58.4z"
			/>
		<path id="path67_2_" class="st28" d="M35.1,49c0.2,0.4,0.2,0.8,0,0.9c-0.2,0.1-0.5-0.2-0.7-0.6c-0.2-0.4-0.2-0.8,0-0.9
			C34.6,48.3,34.9,48.6,35.1,49"/>
		<path id="path69_2_" class="st78" d="M35.1,49c0.2,0.4,0.2,0.8,0,0.9c-0.2,0.1-0.5-0.2-0.7-0.6c-0.2-0.4-0.2-0.8,0-0.9
			C34.6,48.3,34.9,48.6,35.1,49z"/>
		<path id="path71_2_" class="st28" d="M36.8,51.7c0.3,0.4,0.4,0.9,0.3,1c-0.2,0.1-0.6-0.1-0.9-0.6c-0.3-0.4-0.4-0.9-0.3-1
			C36,51,36.4,51.3,36.8,51.7"/>
		<path id="path73_2_" class="st78" d="M36.8,51.7c0.3,0.4,0.4,0.9,0.3,1c-0.2,0.1-0.6-0.1-0.9-0.6c-0.3-0.4-0.4-0.9-0.3-1
			C36,51,36.4,51.3,36.8,51.7z"/>
		<path id="path75_1_" class="st28" d="M38.8,54.6c0.4,0.6,0.6,1.2,0.4,1.3c-0.2,0.2-0.7-0.2-1.2-0.8c-0.4-0.6-0.6-1.2-0.4-1.3
			C37.8,53.7,38.4,54,38.8,54.6"/>
		<path id="path77_1_" class="st78" d="M38.8,54.6c0.4,0.6,0.6,1.2,0.4,1.3c-0.2,0.2-0.7-0.2-1.2-0.8c-0.4-0.6-0.6-1.2-0.4-1.3
			C37.8,53.7,38.4,54,38.8,54.6z"/>
		<path id="path79_1_" class="st28" d="M41.3,57.7c0.4,0.6,0.6,1.2,0.4,1.3c-0.2,0.2-0.7-0.2-1.2-0.8c-0.4-0.6-0.6-1.2-0.4-1.3
			C40.3,56.7,40.9,57.1,41.3,57.7"/>
		<path id="path81_1_" class="st78" d="M41.3,57.7c0.4,0.6,0.6,1.2,0.4,1.3c-0.2,0.2-0.7-0.2-1.2-0.8c-0.4-0.6-0.6-1.2-0.4-1.3
			C40.3,56.7,40.9,57.1,41.3,57.7z"/>
		<path id="path83" class="st28" d="M45.1,63.9c0.8,0.4,1.3,1,1.2,1.2c-0.1,0.3-0.9,0.2-1.7-0.2c-0.8-0.4-1.3-1-1.2-1.2
			C43.5,63.4,44.3,63.5,45.1,63.9"/>
		<path id="path85" class="st78" d="M45.1,63.9c0.8,0.4,1.3,1,1.2,1.2c-0.1,0.3-0.9,0.2-1.7-0.2c-0.8-0.4-1.3-1-1.2-1.2
			C43.5,63.4,44.3,63.5,45.1,63.9z"/>
		<path id="path87" class="st28" d="M44.6,60.3c0.7,0.5,1.1,1.2,0.9,1.4c-0.2,0.2-0.9,0-1.6-0.5c-0.7-0.5-1.1-1.2-0.9-1.4
			C43.2,59.5,43.9,59.8,44.6,60.3"/>
		<path id="path89" class="st78" d="M44.6,60.3c0.7,0.5,1.1,1.2,0.9,1.4c-0.2,0.2-0.9,0-1.6-0.5c-0.7-0.5-1.1-1.2-0.9-1.4
			C43.2,59.5,43.9,59.8,44.6,60.3z"/>
		<path id="path91_1_" class="st28" d="M48.7,62.5c0.8,0.4,1.3,1,1.1,1.3c-0.2,0.3-0.9,0.2-1.7-0.3c-0.8-0.4-1.3-1-1.1-1.3
			C47.1,62,47.9,62.1,48.7,62.5"/>
		<path id="path93_1_" class="st78" d="M48.7,62.5c0.8,0.4,1.3,1,1.1,1.3c-0.2,0.3-0.9,0.2-1.7-0.3c-0.8-0.4-1.3-1-1.1-1.3
			C47.1,62,47.9,62.1,48.7,62.5z"/>
		<g id="g95">
			<g>
				<defs>
					<path id="SVGID_5_" d="M31.8,53.9c0,0,2.4,14,18,14.1c3.8,0,3.6-0.5,3.6-0.5l0.3-0.1c0,0,2.3-0.8,2.3-1c0-0.1,1.4-1.6,1.4-1.6
						l5.4-3.8L51.3,60l-5.8-2.3l-2.7-2.9l-1.2-2.2l-0.6-2.3l-1.4-7l-2.9-2.9L34.2,40l-3.5,0.3l-1.2-0.7l-3.9-1.9l2.6,3.3l-4.5-0.2
						l4.2,2.4l1.3,1.7"/>
				</defs>
				<clipPath id="SVGID_2_">
					<use xlink:href="#SVGID_5_"  style="overflow:visible;"/>
				</clipPath>
				<g id="g103" class="st5">
					
						<image style="overflow:visible;enable-background:new    ;" width="1758" height="1683" id="image105" xlink:href="82B4050CA6491CC3.jpg"  transform="matrix(3.419501e-02 0 0 3.413135e-02 13.3315 24.1948)">
					</image>
				</g>
			</g>
		</g>
		<path id="path107_1_" class="st80" d="M30.6,44c4.4,1.5,0.7-1.1,0.7-1C32.8,44.2,30.6,44,30.6,44"/>
		<path id="path109" class="st81" d="M32.5,42.7c0,0-0.1-0.9,1-1c1-0.1,1.7,0.6,1.9,0.9c0.2,0.3,0.4,1,0.5,1.4c0,0,0.2,0.4-0.2,0.2
			c-0.4-0.2-0.9-0.5-2.1-0.6C32.5,43.5,32.5,42.7,32.5,42.7"/>
		<path id="path111" class="st28" d="M33.8,42.6c0,0.2-0.1,0.4-0.3,0.4c-0.2,0-0.3-0.1-0.4-0.3c0-0.2,0.1-0.4,0.3-0.4
			C33.6,42.2,33.8,42.4,33.8,42.6"/>
		<path id="path113" class="st81" d="M34.2,51.7c0.2,0.5,0.2,1,0,1.1c-0.2,0.1-0.6-0.3-0.8-0.8c-0.2-0.5-0.2-1,0-1.1
			C33.6,50.8,33.9,51.2,34.2,51.7"/>
		<path id="path115_1_" class="st81" d="M35.1,49c0.2,0.4,0.2,0.8,0,0.9c-0.2,0.1-0.5-0.2-0.7-0.6c-0.2-0.4-0.2-0.8,0-0.9
			C34.6,48.3,34.9,48.6,35.1,49"/>
		<path id="path117_1_" class="st81" d="M36.8,51.7c0.3,0.4,0.4,0.9,0.3,1c-0.2,0.1-0.6-0.1-0.9-0.6c-0.3-0.4-0.4-0.9-0.3-1
			C36,51,36.4,51.3,36.8,51.7"/>
		<path id="path119" class="st81" d="M35.8,55.2c0.4,0.6,0.5,1.3,0.2,1.4c-0.2,0.1-0.7-0.3-1.1-0.9c-0.4-0.6-0.5-1.3-0.2-1.4
			C35,54.2,35.5,54.6,35.8,55.2"/>
		<path id="path121_1_" class="st81" d="M38.8,54.6c0.4,0.6,0.6,1.2,0.4,1.3c-0.2,0.2-0.7-0.2-1.2-0.8c-0.4-0.6-0.6-1.2-0.4-1.3
			C37.8,53.7,38.4,54,38.8,54.6"/>
		<path id="path123_1_" class="st81" d="M41.3,57.7c0.4,0.6,0.6,1.2,0.4,1.3c-0.2,0.2-0.7-0.2-1.2-0.8c-0.4-0.6-0.6-1.2-0.4-1.3
			C40.3,56.7,40.9,57.1,41.3,57.7"/>
		<path id="path125_1_" class="st81" d="M35.1,59.2c0.4,0.7,0.6,1.3,0.4,1.4c-0.2,0.1-0.7-0.4-1.1-1.1c-0.4-0.7-0.6-1.3-0.4-1.4
			C34.3,58.1,34.7,58.5,35.1,59.2"/>
		<path id="path127_1_" class="st81" d="M37.8,62.6c0.6,0.6,0.9,1.1,0.7,1.3c-0.2,0.2-0.8-0.1-1.4-0.7c-0.6-0.6-0.9-1.1-0.7-1.3
			C36.7,61.7,37.3,62,37.8,62.6"/>
		<path id="path129_1_" class="st81" d="M41.3,65.1c0.7,0.4,1.2,0.8,1.1,1c-0.1,0.2-0.8,0.1-1.5-0.3c-0.7-0.4-1.2-0.8-1.1-1
			C39.9,64.6,40.6,64.7,41.3,65.1"/>
		<path id="path131_1_" class="st81" d="M45.1,63.9c0.8,0.4,1.3,1,1.2,1.2c-0.1,0.3-0.9,0.2-1.7-0.2c-0.8-0.4-1.3-1-1.2-1.2
			C43.5,63.4,44.3,63.5,45.1,63.9"/>
		<path id="path133_1_" class="st81" d="M38,58.6c0.6,0.7,0.8,1.4,0.6,1.6c-0.2,0.2-0.9-0.2-1.5-0.8c-0.6-0.7-0.8-1.4-0.6-1.6
			C36.8,57.5,37.4,57.9,38,58.6"/>
		<path id="path135_1_" class="st81" d="M41.1,61.7c0.7,0.6,1.1,1.2,0.9,1.5c-0.2,0.2-0.9,0-1.6-0.6c-0.7-0.6-1.1-1.2-0.9-1.5
			C39.7,60.9,40.5,61.2,41.1,61.7"/>
		<path id="path137_1_" class="st81" d="M44.6,60.3c0.7,0.5,1.1,1.2,0.9,1.4c-0.2,0.2-0.9,0-1.6-0.5c-0.7-0.5-1.1-1.2-0.9-1.4
			C43.2,59.5,43.9,59.8,44.6,60.3"/>
		<path id="path139_1_" class="st81" d="M48.7,62.5c0.8,0.4,1.3,1,1.1,1.3c-0.2,0.3-0.9,0.2-1.7-0.3c-0.8-0.4-1.3-1-1.1-1.3
			C47.1,62,47.9,62.1,48.7,62.5"/>
		<path id="path141_1_" class="st81" d="M49.4,65.2c0.8,0.1,1.3,0.5,1.3,0.7c-0.1,0.3-0.7,0.3-1.5,0.2c-0.8-0.1-1.3-0.5-1.3-0.7
			C47.9,65.1,48.6,65,49.4,65.2"/>
		<path id="path143_1_" class="st81" d="M45.6,66.5c0.8,0.1,1.4,0.4,1.3,0.6c0,0.2-0.7,0.4-1.5,0.2c-0.8-0.1-1.4-0.4-1.3-0.6
			C44.2,66.5,44.8,66.4,45.6,66.5"/>
		<path id="path145_1_" class="st81" d="M52.9,64.5c0.7,0.1,1.2,0.4,1.2,0.6c0,0.2-0.6,0.3-1.3,0.1c-0.7-0.1-1.2-0.4-1.2-0.6
			C51.6,64.4,52.2,64.4,52.9,64.5"/>
		<path id="path147_1_" class="st81" d="M33.4,55.5c0.2,0.6,0.3,1.1,0.1,1.2c-0.2,0.1-0.5-0.4-0.7-1c-0.2-0.6-0.3-1.1-0.1-1.2
			C32.8,54.5,33.1,54.9,33.4,55.5"/>
		<path id="path149_1_" class="st82" d="M63.1,74.4c0.3-0.3,1.3-0.3,1.3-0.3c1-0.7,1.4-2.4,1.4-2.4c-0.1,0.1-0.7,0-0.7,0
			c-0.8-0.1-1.9,0-1.9,0c-2.3,0.2-3.6,1.7-3.6,1.7c0.2-0.6,0.7-1,0.7-1c0.5-0.9,0.7-2.2,0.7-2.7c0-0.7-0.6-2.3-0.6-2.3
			c-0.5,0.8-1.2,1.1-1.2,1.1c-3.6,1.5-4.7,3.9-5.3,5.8c-0.2,0.6-0.5,1.1-0.7,1.4c0.6,0.1,1.3,0.2,2,0.4c2.9-0.2,7.5-0.3,12.1,0.5
			c0,0-5.9-0.4-10.7,0c0.5,0.2,0.9,0.5,1.4,0.9l0,0l0,0c0.4,0.3,1,0.7,1.2,0.9l1.2,0.6l-1.1,0.6c-0.3,0.2-1.3,0.7-1.7,0.9
			c-0.4,0.2-1.1,0.5-1.9,0.7c0.4,0.3,0.8,0.7,1.1,1.2c0,0,0.6,0.8,0.9,1.5c0.6,0.4,1.3,0.7,2.1,1c0,0,1.4,0.5,1.9,0.8
			c0,0-0.1-1.6-0.1-2.1c0-0.5-0.3-1.8-0.8-2.7c0,0-0.6-0.3-0.8-1c0,0,1.4,1.4,3.7,1.5c0,0,1.2,0.1,1.9-0.1c0,0,0.6-0.1,0.7,0
			c0,0-0.5-1.7-1.6-2.3c0,0-1,0-1.2-0.2c0,0,5.1,0.1,6.7-2.2h0C68.3,74.3,63.1,74.4,63.1,74.4"/>
		<path id="path151_1_" class="st82" d="M56.3,82.8c-1.2-1.7-3.1-2.1-3.1-2.1c0.6-0.2,1.2,0.1,1.2,0.1c1,0,2.3-0.4,2.8-0.7
			c0.5-0.3,1.9-1,1.9-1c-0.5-0.1-1.6-1-1.6-1c-2.9-2.2-5.5-1.9-7.6-1.6c-0.3,0-0.5,0.1-0.8,0.1c-0.1,0.5-0.3,1-0.7,1.4
			c-0.1,0.1-0.3,0.3-0.5,0.4c1.6,4.1,5.8,9.8,5.8,9.8c-3.2-3.3-5.4-7.2-6.6-9.5c-0.1,0-0.2,0-0.3,0.1c0.2,0.3,0.3,0.7,0.3,1.1
			c0,1.4-1.1,2.5-2.5,2.5c-0.5,0-0.9-0.1-1.3-0.4c-0.5,1.1-0.8,2.5-0.6,4.3c0,0,0.2,1.4,0.1,2c0,0,1.4-0.9,1.9-1.2
			c0.5-0.2,1.5-1.1,2.1-1.9c0,0,0.1-0.6,0.5-1.1c0,0-0.6,1.8,0.3,3.6c0,0,0.4,1,0.9,1.5c0,0,0.3,0.4,0.3,0.6c0,0,1.3-1.2,1.4-2.4
			c0,0-0.5-0.8-0.4-1.1c0,0,2.4,4.1,5.2,4.2l0,0c1.3-2.4-1.3-6.3-1.3-6.3c0.4,0.1,0.8,0.9,0.8,0.9c1.1,0.5,2.8,0,2.8,0
			c-0.1-0.1-0.3-0.6-0.3-0.6C56.9,83.7,56.3,82.8,56.3,82.8"/>
		<path id="path153_1_" class="st82" d="M42.2,79.8c0-0.4,0.1-0.8,0.3-1.1c-1.3-0.1-2.3-1.2-2.3-2.5c0-0.1,0-0.2,0-0.3
			c-3.9-0.4-8-0.4-8-0.4c2.9-0.4,5.7-0.4,8.1-0.2c0.4-1,1.3-1.6,2.4-1.6c0.8,0,1.5,0.4,2,1c0.1-0.1,0.1-0.2,0.2-0.3
			c-0.1-0.2-0.1-0.4-0.2-0.6c-0.5-1.9-1.3-4.4-4.6-6.1c0,0-1.3-0.6-1.6-1c0,0-0.1,1.6-0.1,2.1c-0.1,0.5,0,1.9,0.5,2.8
			c0,0,0.5,0.4,0.6,1c0,0-1.1-1.5-3.2-1.8c0,0-1.1-0.2-1.8-0.1c0,0-0.6,0-0.7,0c0,0,0.3,1.7,1.2,2.5c0,0,1,0,1.2,0.3
			c0,0-4.8-0.4-6.5,1.7h0c1.3,2.4,6,2.6,6,2.6c-0.3,0.2-1.2,0.1-1.2,0.1c-1,0.6-1.6,2.3-1.6,2.3c0.1,0,0.7,0.1,0.7,0.1
			c0.7,0.2,1.8,0.2,1.8,0.2c2.1,0,3.5-1.3,3.5-1.3c-0.2,0.6-0.8,0.9-0.8,0.9c-0.6,0.8-0.1,2.3-0.1,2.9c0,0.2,0,0.5-0.3,1.8
			c0.4-0.4,1.8-0.8,1.8-0.8c1.9-0.6,2.8-1.5,3.5-2.5C42.5,81.2,42.2,80.5,42.2,79.8"/>
		<path id="path155_1_" class="st83" d="M40.7,76.2c0,1.1,0.9,2.1,2.1,2.1l0.1,0l0.6-0.1l-0.3,0.4c-0.3,0.4-0.4,0.8-0.4,1.2
			c0,1.1,0.9,2.1,2.1,2.1c1.1,0,2.1-0.9,2.1-2.1c0-0.4-0.1-0.8-0.4-1.2l-0.3-0.4l0.6,0.1c1.2,0,2.1-0.9,2.1-2.1
			c0-1.1-0.9-2.1-2.1-2.1c-0.7,0-1.4,0.4-1.8,1l-0.2,0.3l-0.2-0.4c-0.4-0.7-1.1-1.1-1.8-1.1C41.6,74.1,40.7,75,40.7,76.2"/>
		<path id="path157_1_" class="st28" d="M42.2,75.5c-0.3,0.3-0.6,0.5-0.8,0.4c-0.2-0.1-0.1-0.5,0.1-0.9c0.3-0.3,0.6-0.5,0.8-0.4
			C42.5,74.8,42.5,75.2,42.2,75.5"/>
		<path id="path159_1_" class="st28" d="M46.1,75.6c-0.3,0.3-0.6,0.5-0.8,0.4c-0.2-0.1-0.1-0.5,0.1-0.9c0.3-0.3,0.6-0.5,0.8-0.4
			C46.5,74.9,46.4,75.3,46.1,75.6"/>
		<path id="path161_1_" class="st28" d="M44.2,79.1c-0.3,0.3-0.6,0.5-0.8,0.4c-0.2-0.1-0.1-0.5,0.1-0.9c0.3-0.3,0.6-0.5,0.8-0.4
			C44.6,78.3,44.5,78.7,44.2,79.1"/>
		<path id="path163_1_" class="st84" d="M79.9,68.5c0,0-0.3-1.8-3.3-2.9c0,0,1.6,0.5,3.4,0.2c0,0-1.4-1.8-4.6-3c0,0-4.4-1.7-4.9-1.9
			c0,0,3.4,0.8,4.4,1c0,0,0.5,0.2,0.5-0.1c0,0,0.1-1-4.9-3.5c0,0-3.2-1.4-5.4-1.9c0,0-10.5-8.8-23.5-11.4c0,0-1.9-2.8-2.7-3.6
			c0,0-2.2-3-5.6-3c0,0-1.7,0-3.1,0.7c-0.7,0.1-1.3-0.3-1.3-0.3c-1.9-1-3.3-1.8-3.3-1.8c-0.6-0.1-0.3,0.4-0.3,0.4
			c0.3,0.6,2.5,3.3,2.5,3.3c-3.4-0.4-4-0.1-4-0.1c-0.4,0.1-0.2,0.4-0.2,0.4c0.1,0.2,1,0.6,1,0.6c1.3,0.6,3.3,1.8,3.3,1.8
			c1.5,1,2.4,5.2,2.4,5.2c0.9,3.3,1.8,5.8,1.8,5.8c0.2,0.2-0.1-0.9-0.1-0.9c-0.1-0.3-0.3-1.2-0.3-1.2c-0.4-1.6-0.8-3.8-0.8-3.8
			c-0.7-3.9-2-5.1-2-5.1c-0.5-0.6-4-2.3-4-2.3c1-0.1,4.8,0.5,4.8,0.5l-2.8-3.3l1.9,1.1c0.5,0.3,1.1,0.5,1.1,0.5s0.2,0.2,0.4,0.9
			c0,0,0.1,0.6,1,0.6c0,0,0.8-0.1,1.6-0.3c0,0,1.7-0.4,3.5,0.3c0,0,1.6,0.5,2,1.3c0,0,0.2,0.4-0.2,0.5c0,0-1,0.2-1.6-0.1l0,0.1
			c0,0,2.6,0.8,2.3,3.7c0,0-0.1,1.2-0.2,1.7c0,0-0.5,2.7,1.5,4.3c0,0-0.4-1.1,0.3-2.4c0,0,0.1,5.5,5.8,8.3c0,0,7,3.9,14.7,2.8
			c0,0-4,1.2-8.4,0.4c0,0-1.9-0.3-2.3-0.4c0,0-2.3-0.4-3.3-0.4c0,0-0.1,0.1,0.1,0.1c0,0,3,1.1,6.3,1.9c0,0,2.4,0.6,2.9,0.8
			c0,0,0.9,0.2,0.7,0.8c0,0-1.6,3.2-9.7,3.2c0,0,1.7,0.3,3.3,0.6c0,0,1.1,0.1,1.5,0.5c0,0-2.5,2.2-4.4,4.9c0,0,0.7,0.2,0.8,0.4
			c0,0,2.9-2.7,4.5-3.9c0,0-1.3,4.1-1.9,5.5c0,0,1-0.1,1.1-0.1c0,0,3.2-6.5,5-8.1c0,0,1.5-1.5,2.9-1.6c0,0,1.5-0.3,4,0.3
			c0,0,4.1,1.2,8.5,3.3c0,0,4.1,2.2,7,0.6c0,0-4.3-2.2-5.1-2.6C74.1,67.5,76.7,68.6,79.9,68.5"/>
		<path id="path165_1_" class="st28" d="M41.9,50.5c0,0,1.1,1,1.8,0.2c0,0,0.4,2,1.8,3.4C45.5,54.1,43.2,54,41.9,50.5"/>
		<path id="path167_1_" class="st28" d="M54.6,56c0.8,0.5,1.7,1.9,1.8,1.9c-2,0.1-5-1.4-5-1.4c1.5,0.9,2.2,3,2.2,3
			c-4.7-0.1-8.5-3.4-8.5-3.4l0.1,0c3.2,1.8,5.2,1.8,5.2,1.7c-0.8-1.9-2.2-3.5-2.3-3.5c4.6,1.8,6.2,0.8,6.2,0.8
			c0.3-1-0.3-2.1-0.3-2.1c0.8,1.4,5.4,2.9,5.6,2.9C57.1,56.5,54.6,55.9,54.6,56"/>
		<path id="path169_1_" class="st28" d="M59.1,58.4c4.8,0.7,3.2-1.4,3.2-1.5c2.5,0.6,2.8,1.7,2.8,1.7C62,59.9,59.1,58.4,59.1,58.4"
			/>
	</g>
</g>
</svg>
