<?xml version="1.0" encoding="utf-8"?>
<!-- Generator: Adobe Illustrator 19.2.1, SVG Export Plug-In . SVG Version: 6.00 Build 0)  -->
<svg version="1.1" id="Capa_1" xmlns="http://www.w3.org/2000/svg" xmlns:xlink="http://www.w3.org/1999/xlink" x="0px" y="0px"
	 viewBox="0 0 100 100" style="enable-background:new 0 0 100 100;" xml:space="preserve">
<style type="text/css">
	.st0{fill:url(#path34_4_);}
	.st1{fill:url(#path890_1_);}
	.st2{fill:#FFE500;stroke:#000000;stroke-width:2.098;stroke-miterlimit:3.863;}
	.st3{fill:#DA020E;}
	.st4{fill:#FFE500;}
	.st5{clip-path:url(#SVGID_2_);}
	.st6{fill:none;stroke:#B54005;stroke-width:10;stroke-miterlimit:3.863;}
	.st7{fill:url(#path7506_1_);}
	.st8{fill:url(#path8794_1_);}
	.st9{fill:url(#path15846_1_);}
	.st10{fill:url(#path16274_1_);}
	.st11{fill:url(#path39821_1_);}
	.st12{fill:url(#path39847_1_);}
	.st13{fill:url(#path39878_1_);}
	.st14{fill:url(#path39888_1_);}
	.st15{fill:url(#path41035_1_);}
	.st16{fill:url(#path9646-8_1_);}
	.st17{fill:url(#path41092_1_);}
	.st18{fill:url(#path41094_1_);}
	.st19{fill:none;stroke:#000000;stroke-width:2.098;stroke-miterlimit:3.863;}
	.st20{fill:url(#path41152_1_);}
	.st21{fill:url(#path39854_1_);}
	.st22{fill:url(#path39874_1_);}
	.st23{fill:#9C824A;stroke:#9C824A;stroke-width:0.793;stroke-miterlimit:282;}
	.st24{fill:#023474;stroke:#023474;stroke-width:0.793;stroke-miterlimit:282;}
	.st25{fill:#FFFFFF;stroke:#FFFFFF;stroke-width:0.793;stroke-miterlimit:282;}
	.st26{fill:#EF0107;stroke:#EF0107;stroke-width:0.793;stroke-miterlimit:282;}
	.st27{fill:#DB0007;stroke:#DB0007;stroke-width:0.793;stroke-miterlimit:282;}
	.st28{fill:#FFFFFF;}
	.st29{fill:#9C824A;}
	.st30{fill:#EF0107;stroke:#EF0107;stroke-width:0.3115;stroke-miterlimit:282;}
	.st31{fill:#DB0007;stroke:#DB0007;stroke-width:0.3115;stroke-miterlimit:282;}
	.st32{fill:#DB0007;}
	.st33{fill:#FFFFFF;stroke:#FFFFFF;stroke-width:0.3115;stroke-miterlimit:282;}
	.st34{fill:#FFFFFF;stroke:#FFFFFF;stroke-width:0.554;stroke-miterlimit:3.864;}
	.st35{fill:#231F20;}
	.st36{fill:#00B6F1;}
	.st37{fill:#EF3E2E;}
	.st38{fill:#BBBDBF;}
	.st39{fill:#F0B83D;}
	.st40{fill:#001C58;}
	.st41{fill:#94BEE5;}
	.st42{fill:none;stroke:#7A003C;stroke-width:2.2437;stroke-miterlimit:6;}
	.st43{fill:#7A003C;}
	.st44{fill:#FFE600;}
	.st45{fill:#DBA111;}
	.st46{fill:#034694;}
	.st47{fill:#D1D3D4;}
	.st48{fill:#ED1C24;}
	.st49{fill:#6A7AB5;}
	.st50{fill:none;}
	.st51{fill:#274488;}
	.st52{fill:#004798;stroke:#004798;stroke-width:9.375000e-02;}
	.st53{fill:#FFFFFF;stroke:#FFFFFF;stroke-width:9.375000e-02;}
	.st54{fill:#FABC00;stroke:#FABC00;stroke-width:9.375000e-02;}
	.st55{fill:none;stroke:#FFFFFF;stroke-width:7.865;stroke-miterlimit:3.864;}
	.st56{fill:none;stroke:#FFFFFF;stroke-width:7.865;stroke-miterlimit:12;}
	.st57{fill:none;stroke:#FFFFFF;stroke-width:7.865;stroke-miterlimit:22;}
	.st58{fill:none;stroke:#FFFFFF;stroke-width:7.865;stroke-miterlimit:6;}
	.st59{fill:#00A398;}
	.st60{fill:#D00027;}
	.st61{fill:none;stroke:#FFFFFF;stroke-width:17.3907;stroke-miterlimit:3.864;}
	.st62{fill:none;stroke:#FFFFFF;stroke-width:13.1107;stroke-miterlimit:3.864;}
	.st63{fill:#FEF667;}
	.st64{fill:#D00027;stroke:#D00027;}
	.st65{fill:#5299C6;}
	.st66{fill:#60223B;}
	.st67{fill:#F7C240;}
	.st68{fill:#292D6B;}
	.st69{fill:#1B458F;}
	.st70{fill:#C4122E;}
	.st71{fill:#27409B;}
	.st72{clip-path:url(#SVGID_4_);}
	.st73{fill:#F4F4F4;}
	.st74{fill:#D3D2D2;}
	.st75{fill:#A7A5A6;}
	.st76{fill:#091453;}
	.st77{fill:none;stroke:#FFFFFF;stroke-width:6.6301;}
	.st78{clip-path:url(#SVGID_6_);}
	.st79{fill:#724314;}
	.st80{fill:#240B08;}
	.st81{fill:#018B4B;}
	.st82{fill:#A6181D;}
	.st83{fill:#592D09;}
	.st84{fill:#FFCE65;}
	.st85{fill:#5CBFEB;}
	.st86{fill:none;stroke:#000000;stroke-width:10;}
	.st87{fill:none;stroke:#000000;}
	.st88{fill:#B2B2B2;}
	.st89{fill:none;stroke:#000000;stroke-width:0.3;}
	.st90{fill:#00A650;stroke:#000000;stroke-width:2;}
	.st91{fill:#241F20;stroke:#241F20;stroke-width:9.375000e-02;}
	.st92{fill:#FFF200;stroke:#FFF200;stroke-width:9.375000e-02;}
	.st93{fill:#A68A26;}
	.st94{fill:none;stroke:#A68A26;stroke-width:4.792100e-02;stroke-miterlimit:3.8637;}
	.st95{fill:#211E1E;}
	.st96{fill:none;stroke:#211E1E;stroke-width:4.792100e-02;stroke-miterlimit:3.8637;}
	.st97{fill:#EB172B;}
	.st98{fill:none;stroke:#EB172B;stroke-width:4.792100e-02;stroke-miterlimit:3.8637;}
	.st99{fill:#A68A26;stroke:#A68A26;stroke-width:4.792100e-02;stroke-miterlimit:3.8637;}
	.st100{fill:#D1BF7F;}
	.st101{fill:none;stroke:#D1BF7F;stroke-width:4.792100e-02;stroke-miterlimit:3.8637;}
	.st102{fill:none;stroke:#FFFFFF;stroke-width:4.792100e-02;stroke-miterlimit:3.8637;}
	.st103{fill:#EB172B;stroke:#EB172B;stroke-width:4.792100e-02;stroke-miterlimit:3.8637;}
	.st104{fill:#ED2127;}
	.st105{fill:#FBEE23;}
	.st106{stroke:#000000;}
	.st107{fill:#CF1F44;}
	.st108{fill:#1B449C;}
	.st109{fill:#E03A3E;}
	.st110{fill:#2E6ABD;stroke:#2E6ABD;stroke-width:0.617;}
	.st111{fill:#FFFFFF;stroke:#FFFFFF;stroke-width:0.6175;}
	.st112{fill:#ED1248;}
	.st113{fill:#2E6ABD;}
	.st114{fill:#FDE100;}
	.st115{fill:#CC0000;}
	.st116{fill:#211E1F;}
	.st117{fill:#ED1A3B;}
	.st118{fill:#00AEEF;}
	.st119{fill:#FFC40D;}
	.st120{fill:#22B24C;}
	.st121{fill:#FFC20E;}
	.st122{fill:#0A3F86;}
	.st123{fill:#005CA9;}
	.st124{fill:#FFE000;}
	.st125{fill:#E2001A;}
	.st126{opacity:0;}
	.st127{opacity:0;fill:#FFFFFF;}
	.st128{fill:#FFFFFF;stroke:#000000;}
	.st129{fill:#0060A9;}
	.st130{fill:#E32219;}
	.st131{fill:#FFED00;}
	.st132{fill:#1D9053;}
	.st133{fill:#52A600;}
	.st134{fill:#EE2523;}
	.st135{fill:#F7D117;}
	.st136{fill:#171796;}
	.st137{fill:#009959;}
	.st138{fill:#D42E12;}
	.st139{fill:#703824;}
	.st140{fill:#E5254E;}
	.st141{fill:#8AC3EE;}
	.st142{fill:#B19221;}
	.st143{fill:#F5C03E;}
	.st144{fill:#FF1119;}
	.st145{fill:#1E6BC0;}
	.st146{fill:#B4742A;}
	.st147{fill:#371B02;}
	.st148{fill:url(#SVGID_7_);}
	.st149{fill:url(#SVGID_8_);}
	.st150{fill:url(#SVGID_9_);}
	.st151{fill:url(#SVGID_10_);}
	.st152{fill:url(#SVGID_11_);}
	.st153{fill:url(#SVGID_12_);}
	.st154{fill:url(#SVGID_13_);}
	.st155{fill:url(#SVGID_14_);}
	.st156{fill:url(#SVGID_15_);}
	.st157{fill:url(#SVGID_16_);}
	.st158{fill:#EB2626;}
	.st159{fill:#E9C32C;}
	.st160{fill:#D9D9D9;}
	.st161{fill:#009C5E;}
	.st162{fill:#1C75BC;}
	.st163{fill:#611D5C;}
	.st164{fill:#E2B900;}
	.st165{fill:#004B95;}
	.st166{fill:#A4234B;}
	.st167{fill:#DB2F36;}
	.st168{fill:#FFDF00;}
	.st169{fill:#A38D44;}
	.st170{fill:#57175E;}
	.st171{fill:#AFDCFD;}
	.st172{fill:#0090C6;}
	.st173{fill:#DB5232;}
	.st174{fill:#23C1E0;}
	.st175{fill:#F1A92A;}
	.st176{fill:#167FB6;}
	.st177{fill:#FED75D;}
	.st178{fill:#378CBF;}
	.st179{fill:#3E9692;}
	.st180{fill:#E67F29;}
	.st181{fill:#D8B43C;}
	.st182{fill:#EF3B33;}
	.st183{fill:#24923D;}
	.st184{opacity:6.000001e-02;fill:#101010;enable-background:new    ;}
	.st185{fill:#00529F;}
	.st186{fill:#EE324E;}
	.st187{fill:#FEBE10;}
	.st188{fill:#143C8B;}
	.st189{fill:#FFE24A;}
	.st190{fill:#EC1D24;}
	.st191{fill:#E6A514;}
	.st192{fill:#FFDF1C;}
	.st193{fill:#EE3524;}
	.st194{fill:#B23428;}
	.st195{fill:#D18816;}
	.st196{fill:#0097D7;}
	.st197{fill:#ED1C23;}
	.st198{fill:#E30613;}
	.st199{fill:#FFE400;}
	.st200{fill:#C51A1B;}
	.st201{clip-path:url(#SVGID_19_);}
	.st202{clip-path:url(#SVGID_20_);fill:none;stroke:#000000;stroke-width:0.8131;stroke-miterlimit:3.864;}
	.st203{fill:#0093D5;}
	.st204{fill:#004B9D;}
	.st205{fill:#FCC24F;}
	.st206{fill:#009545;}
	.st207{fill:#0072BB;}
	.st208{fill:#C4974E;}
	.st209{fill:url(#path1292_1_);}
	.st210{fill:#004996;}
	.st211{fill:#FFE667;}
	.st212{fill:none;stroke:#005187;stroke-width:0.153;stroke-miterlimit:3.864;}
	.st213{fill:#005187;}
	.st214{clip-path:url(#SVGID_22_);}
	.st215{clip-path:url(#SVGID_24_);fill:none;stroke:#000000;stroke-width:0.296;stroke-miterlimit:3.864;}
	.st216{clip-path:url(#SVGID_26_);fill:#FFE667;}
	.st217{clip-path:url(#SVGID_28_);fill:none;stroke:#000000;stroke-width:8.300000e-02;stroke-miterlimit:3.864;}
	.st218{fill:none;stroke:#000000;stroke-width:0.153;stroke-miterlimit:3.864;}
	.st219{clip-path:url(#SVGID_30_);fill:#E70005;}
	.st220{clip-path:url(#SVGID_32_);fill:none;stroke:#E70005;stroke-width:0.296;stroke-miterlimit:3.864;}
	.st221{clip-path:url(#SVGID_34_);fill:#E70005;}
	.st222{clip-path:url(#SVGID_36_);fill:none;stroke:#E70005;stroke-width:0.296;stroke-miterlimit:3.864;}
	.st223{clip-path:url(#SVGID_38_);fill:#E70005;}
	.st224{clip-path:url(#SVGID_40_);fill:none;stroke:#E70005;stroke-width:0.296;stroke-miterlimit:3.864;}
	.st225{clip-path:url(#SVGID_42_);fill:#E70005;}
	.st226{clip-path:url(#SVGID_44_);fill:none;stroke:#E70005;stroke-width:0.296;stroke-miterlimit:3.864;}
	.st227{fill:#E70005;}
	.st228{fill:none;stroke:#000000;stroke-width:0.141;stroke-miterlimit:3.864;}
	.st229{fill:#00276D;}
	.st230{fill:#C49308;}
	.st231{fill:#179D33;}
	.st232{fill:#999999;}
	.st233{fill:#FF0000;}
	.st234{fill:#E31837;}
	.st235{fill:#06357A;}
	.st236{fill:#B4053F;}
	.st237{fill:#DCA43E;}
	.st238{fill:#005CA5;}
	.st239{fill:#FAC400;}
	.st240{fill:#004083;}
	.st241{fill:#A95932;}
	.st242{fill:none;stroke:#000000;stroke-width:1.2215;}
	.st243{fill:#E62627;}
	.st244{fill:#00458C;}
	.st245{fill:#E11B22;}
	.st246{fill:#00AB4E;}
	.st247{fill:#F47920;}
	.st248{fill:#C7C8CA;}
	.st249{fill:#E11515;}
	.st250{fill:#A4965F;}
	.st251{fill:#E51636;}
	.st252{fill:#EACC00;}
	.st253{fill:#4F846B;}
	.st254{fill:#E22227;}
	.st255{fill:#FAE700;}
	.st256{fill:url(#SVGID_45_);}
	.st257{fill:#666666;}
	.st258{fill:#FFF200;}
	.st259{fill:#00275D;}
	.st260{fill:#EF3E33;}
	.st261{fill:none;stroke:#00275D;stroke-width:2.632;}
	.st262{fill:#3F7652;}
	.st263{fill:#F1D261;}
	.st264{fill:#004D8F;}
	.st265{fill:#E7B137;stroke:#E7B137;stroke-miterlimit:10;}
	.st266{fill:#E7B137;}
	.st267{fill:#162577;}
	.st268{fill:#12692C;}
	.st269{fill:#D8141D;}
	.st270{fill:#AB830D;}
	.st271{fill:#0086CB;}
	.st272{fill:#001F42;}
	.st273{fill:#9A8F4A;}
	.st274{fill:#00559D;}
	.st275{fill:#FDDE00;}
	.st276{fill:#00924C;}
	.st277{fill:#233984;}
	.st278{fill:#FFD42E;}
	.st279{fill:#BA3733;}
	.st280{fill:#46714D;}
	.st281{fill:#221F1F;}
	.st282{fill:#00559E;}
	.st283{fill:#005C46;}
	.st284{fill:#FBC860;}
	.st285{fill:#D57C48;}
	.st286{fill:#040403;}
	.st287{fill:#4AB969;}
	.st288{fill:#8ED8F8;}
	.st289{fill:#FEC34E;}
	.st290{fill:#FFC95B;}
	.st291{fill:#00644C;}
	.st292{fill:#70B865;}
	.st293{fill:#CA6F44;}
	.st294{fill:#A8B8BE;}
	.st295{fill:#1C2C80;}
	.st296{fill:#E10321;}
	.st297{fill:none;stroke:#231F20;stroke-width:0.318;stroke-miterlimit:3.864;}
	.st298{fill:#D71920;}
	.st299{fill:#484749;}
	.st300{fill:#D9DBDC;}
	.st301{fill:#DF725A;}
	.st302{fill:#F2CABA;}
	.st303{fill:#E89C84;}
	.st304{fill:#264F99;}
	.st305{clip-path:url(#SVGID_47_);}
	.st306{fill:#161413;}
	.st307{fill:#ED1B26;}
	.st308{fill:#E60D2E;}
	.st309{fill:#FCD600;}
	.st310{fill:#004D91;}
	.st311{fill:#EAB412;}
	.st312{fill:#FDD31D;}
	.st313{fill:#EFB800;}
</style>
<g id="path2981">
	<rect x="79.2" y="66.8" class="st28" width="0.6" height="0.1"/>
</g>
<g id="path2985">
	<polygon class="st28" points="79.8,66.9 79.2,66.9 79.8,66.9 	"/>
</g>
<g id="path3001">
	<path  class="st35" d="M79.5,66.9C79.5,67,79.5,67,79.5,66.9"/>
</g>
<g id="path3005">
	<path  class="st35" d="M98.4,72.2c-1-1.7-0.8-4.5-3.2-5c-2.5-0.1-5.3,0.9-7.5,2.3
		c-0.9,0.9,0.3,1.6,0.4,2.5c0.3,1.2,0.9,2.3,1,3.6c-0.6,0.2-1.1,0.5-1.7,0.6c-0.5,0.2-0.9-0.1-1.2-0.4c-1.5-0.7-2.9,0.1-4.1,0.7
		c-0.5,0.8-1.5,0.1-2.2,0.4c-2.1,0.1-4.7,0.1-6.5,1.7c-1.2,1.2,0.1,2.6-0.1,3.9c-3.3,0.9-6.6,1.9-10.1,2.4c-1,0.2-2,0.3-2.9,0.4
		c-3.1,0.5-6.2,0.8-9.2,0.9l-0.1-0.1c0-0.1,0.1-0.2,0.1-0.4c2.1-2.6,5.1-4.6,8-6.1c0.4-0.2,0.8-0.6,1.3-0.7c0.4-0.5,0.9-0.4,1.3-0.9
		c2.5-1.5,5.3-3.4,6.5-6.1c0.4-0.6,0.5-1.3,0.7-1.9c0.2-0.6,0.2-1.1,0.4-1.7c0.6,1.5,0.7,3.4,2.3,4.3c2,1.5,4.6,1.9,7,1
		c3.1-1.2,4.9-4.6,5.2-7.8c0.1-0.4,0.6-0.5,0.8-0.9c-0.4-0.4-0.7-1-0.4-1.5c0.2-0.6,1-0.5,1.1-1.1c-0.2-0.1-0.3-0.2-0.5-0.3
		c-0.6-0.4-0.9-1.1-0.8-1.8c0.1-0.6,0.8-0.8,0.9-1.3c-0.4-0.1-1-0.2-1.2-0.6c0-0.2,0.2-0.3,0.4-0.3c1.5-0.3,4-0.8,5.1,0.9
		c1.6,2-0.4,4.2-0.2,6.3c0.2,0.5,0,1.2,0.5,1.4c0-1.7,1.7-2.2,2.7-3.4l0.2,0.4c0.6-0.9-0.1-2.2,0.6-3.1c0.2-0.1,0.4,0.1,0.7,0V60
		c-0.6-0.6-0.6-1.4-0.7-2.1c0.1-0.4,0.5-0.1,0.7-0.4c-0.4-0.3-0.8-0.8-1-1.3c-0.1-0.9-1-1.5-1.7-1.9l0.5-0.6
		c0.2-0.5,0.5-0.9,0.7-1.4c-0.5-0.1-1.2-0.3-1.7-0.7c0.9-1.3,0.8-3.1,0.8-4.5l-0.2,0.1c-0.1-0.9-0.1-1.9-0.6-2.7
		c-0.2,0.1,0,0.4-0.3,0.3c-0.5-1-0.8-2.1-1.7-2.8c-0.4-0.1,0,0.4-0.3,0.4c-0.8-0.5-1.1-1.3-1.2-2.2c-0.2,0-0.3,0.2-0.3,0.4
		c-0.3,2.6,0.9,5.2,0.1,7.7c-0.3,0.7-0.3,1.5-0.9,2.1c-0.6,1.6-2,2.6-3.4,3.5c-0.1,0-0.2,0-0.3,0c-0.2-0.7,0.5-1.3,0.5-2
		c-0.5-0.1-1-0.5-1.3-1c-0.1-0.7,0.1-1.3,0.7-1.7c0.2-0.5-0.5-0.2-0.7-0.5c-0.6-0.4-0.9-1.2-0.9-2c0-0.6,0.6-1,0.6-1.5
		c-0.6,0-1.1-0.6-1.4-1.1c-0.3-0.9-0.3-2.2,0.1-3.1c0.6-2.6,4.2-2.5,4.2-5.3c0.1-0.5,1,0,1.3-0.5c0.2-0.2-0.2-0.2-0.2-0.2
		c-0.7-0.4-0.6-1.3-0.7-1.9c0.3-0.1,0.5,0.2,0.9,0c0.2-0.1,0.5-0.2,0.4-0.4c-0.5,0.1-0.6-0.5-0.9-0.7c0.2-0.1,0.4,0.1,0.6,0
		c0.1,0,0.4-0.1,0.3-0.4c-0.4-0.3-0.7-0.8-0.7-1.3h0.3c0.7-0.2-0.1-0.6-0.1-1c0-0.1,0.2-0.1,0.2-0.1c0.1-0.1,0.2-0.2,0.1-0.3
		c-1-0.2-0.6-1.4-1.5-1.7c0.7-0.5-0.4-0.7-0.3-1.2c-0.1-0.3-0.4-0.3-0.6-0.4c0-0.1,0-0.3,0.1-0.4c0.3-0.5-0.3-0.5-0.6-0.6
		c0-0.3,0.1-1-0.6-0.8c0.3-0.8-0.7-0.5-1.1-0.6c0-0.3,0.2-0.7,0.1-1c-0.4-0.1-0.6,0.2-0.9,0.1l0-0.7c-0.3-0.1-0.5,0.2-0.8,0.1
		c-0.9,0.9-0.7-0.7-1.5-0.9c-0.2-0.1-0.5-0.3-0.7-0.1c0.1,0.4,0.5,0.9,0.3,1.4c-0.1,0.2-0.4,0.5-0.7,0.4c-0.3-0.4-0.7-0.8-1.1-1.2
		c-0.2-0.2-0.2-0.7-0.6-0.7c-0.2,0.6-0.2,1.3-0.2,1.9c-0.4-0.1-0.7-0.5-1.1-0.2c-0.3,0.9,0.1,1.7,0.8,2.4c-0.5,0.4-0.8,0.9-1.2,1.3
		c-0.6,1.2-1.9,1.9-2.8,3c-1,0.8-1.1,2.1-1.2,3.2c0.4,0.6,1,0.4,1.6,0.7c0.1,0.2-0.2,0.3-0.2,0.4c-0.3,0.1-0.3-0.3-0.6-0.2
		c-0.3,0-0.4,0.4-0.5,0.6c0.1,0.2,0.1,0.5,0.4,0.7c0.6,0.3,1.2,0,1.7-0.4c0.4,0.1,0.9-0.2,1.4,0.1v-0.1c0.9-0.3,1.3-1.4,2.1-1.7
		c0.3,0.1,0.7-0.2,0.9,0.2c-0.7,1-2,1.3-2.9,2.1c-1.6,0.9-3.1,2.5-3.8,4.2c-0.3,0.4-0.2,1.1-0.7,1.4c-0.9-1.4-1.2-3-2.2-4.3
		c-0.6-0.5-1.5-0.5-2.3-0.2c-1.5,1.1-3.3,1.2-4.7,2.3l-0.1-0.1c0-0.4-0.2-0.8-0.5-1.2c-0.5-0.2-0.9-0.4-1.5-0.4
		c-0.8-0.1-1.6,0.6-2.4,0c-0.2-0.3-0.3-0.7-0.3-1.1c-0.1-0.3,0.1-1.2-0.4-1.3c-0.4-0.6-0.3-1.5-0.4-2.3c-0.1-0.2-0.3,0-0.3-0.1
		c-0.3-1.2-0.1-2.7-0.2-3.8c0.2-0.5-0.4-1.2,0.2-1.5c0.1-0.1,0.2-0.4,0-0.5c-0.1-0.1-0.1-0.2,0-0.3c1-0.1,0.8-1.6,1.9-1.4
		c0.1-0.1,0.1-0.3,0.2-0.5c0-0.6,0.2-1.1,0-1.7l-1.6,0l-0.1-0.1c-0.2-0.8-0.1-1.8,0.5-2.4c0.5-0.2,0.9-0.5,1.4-0.2
		c0.4,0.2,0.6,0.6,0.6,1c-0.1,0.2-0.4,0.4-0.6,0.3c-0.5-0.2-0.4-0.9-0.8-0.9c-0.1,0.7,0.1,1.5,0.8,1.9c0.3,0.2,0.8,0.2,1.1,0
		c0.5-0.3,0.7-0.7,0.8-1.3c-0.4-0.9,0.8-0.3,1.2-0.7c0.9-0.3,0.6-1.2,0.7-1.9c0-0.5,0.7-0.8,0.7-1.2c-0.3-0.1-0.6-0.2-0.9-0.1
		c-0.7,0-0.7,0.8-1.1,1.2l0-0.9c-0.2-0.3-0.5-0.7-0.8-0.8c-0.2,0-0.5-0.2-0.7,0c-0.1,0.3,0.3,0.3,0.4,0.5c-0.1,0.9-1.1,0.7-1.7,0.9
		c-0.8,0.1-0.9,1.1-1.6,1.2c-1.1,0.7-1.2,2.1-1,3.3c-0.6,0.1-0.1,0.8-0.5,1.1c-0.5-0.1-0.6-0.7-0.7-1.1c-0.3-0.8-0.2-1.8-0.1-2.7
		c0.2-1.2,1.5-1.9,2.2-2.9c-0.4-0.8,0.7-1,0.8-1.7c-0.2-0.2-0.5,0.2-0.7-0.1c0-0.1,0-0.2,0-0.3c1.4-0.2,0.4-1.5,1-2.3
		c0-0.4-0.3-0.5-0.5-0.8c-0.3,0.1-0.5-0.1-0.6-0.4c-0.3-0.5-0.9-0.6-1.4-0.6c-0.2-0.1-0.5-0.3-0.7-0.1c-0.5,0.6-1.3,0.9-1.7,1.6
		l-0.2-0.2c-0.3,0.4-0.7,0.8-0.7,1.4c0.2,0.6-0.6,0.6-0.9,1c-0.4,0.5-0.3,1.2-0.9,1.5c-0.6-1-1.6-1.4-2-2.5c0-1.3-1.7-2-1-3.5
		c3.3-2,7-0.3,10.6-0.1c5.2,0.7,11.7,0.8,15.1-3.9c0-0.3,0.4-0.6,0.2-0.9c-1.6,1-3.8,1-5.7,1.2c-1.3,0-2.8,0-3.9-0.4
		c-2.7-0.3-5.2-1.3-7.5-2.5C50.8,2,48.4,1.6,46,2c-0.2,0-0.5,0.2-0.7,0c0.1-0.5-0.1-1-0.4-1.4C44.6,0.4,44.2,0,43.8,0
		c-0.7-0.1-1.4,0.2-1.9,0.7c-0.4,0.5-0.5,1.5-0.2,2.1c0.3,0.5,0.7,0.8,1.1,1.1c0.1,3,0,5.6,0.1,8.4c-0.1,0.4-0.4,1-0.1,1.4
		c0.1,1.9,0.1,4.3,0,6.3l-0.1,0.2c-0.1,0.2,0,0.4,0.1,0.6l0,15.6c-0.3,0.3-0.7,0.5-0.9,0.9c-0.1,0.4,0,0.8,0.2,1.1
		c1,1.3,2.4,0.9,3.8,0.8l0.1,0.1c-0.2,0.6-0.2,1.4,0.2,1.9c0.1,0.5-0.3,0.9-0.7,1.1c-1.8,1-4,1.3-6,0.8c-1.1-0.1,0-1-0.2-1.6
		c-0.2-0.9-0.7-1.8-1.6-2c-0.9-0.2-1.9,0-2.4,0.8c0-0.7,0.1-1.6,0.8-1.9c0.7,0.1,1.4,0.3,2,0.8c0.4,0.5,0.8,1,1.5,1
		c0.3,0.6,0.2,1.4,0.1,2l0.2,0.1c0.9,0.2,1.8,0.1,2.7,0.2c0.5-0.8,1.4,0.2,1.9-0.8c0.2-0.2,0.6,0.1,0.6-0.3
		c-0.8-1.3-2.4-1.9-3.5-2.9c-1.3-1.7-3.6-1.7-5.3-2.9c-3.1-0.8-2.9,3-4.3,4.6l-0.2-0.3c-0.9-2.9-3.7-5.2-6.3-6.5
		c-0.3-0.2-0.8-0.4-0.9-0.9c1.4-0.7,1.9,1.6,3.3,1.6c1-0.4,1.5,0.8,2.6,0.5c0.2-0.1,0.4-0.2,0.4-0.5c0.1-0.3,0-0.7-0.2-0.9
		c-0.3-0.2-0.4,0.3-0.8,0.2c-0.1-0.1-0.3-0.2-0.2-0.3c0.5-0.2,1.4-0.1,1.6-0.8c0.1-1.9-1.4-3.2-2.7-4.4c-1.2-0.7-1.5-2.2-2.7-3
		c0.4-0.4,0.7-0.8,0.9-1.2c-0.1-0.5,0.2-0.9-0.2-1.2c-0.3,0.1-0.6,0.2-0.9,0.4c-0.2-0.3,0-0.8-0.1-1.2c-0.1-0.3,0-0.9-0.4-0.7
		c-0.2,0.9-1.1,1.2-1.5,2h-0.1c-1-0.4-0.3-1.4-0.3-1.9c-0.8,0-1.2,0.8-1.5,1.3c-0.4-0.2-0.8-0.4-1.3-0.5c-0.4,0.2,0.1,0.5-0.1,0.7
		c-0.3,0-0.5-0.2-0.8-0.2c-0.4,0.3,0.1,0.8-0.1,1.2c-0.2-0.1-0.6-0.1-0.9-0.1c0,0.4-0.2,0.8-0.6,0.7c-0.2,0.2,0.1,0.5,0,0.7
		c-0.2,0.1-0.5,0-0.7,0.2c0,0.3,0.1,0.5,0.2,0.7c-0.8-0.1-0.3,0.9-1.1,1c-0.2,0.2,0.1,0.4,0.2,0.6c-0.9,0.3-0.5,1.5-1.5,1.7
		c-0.1,0.3,0.2,0.3,0.4,0.4c0,0.3-0.4,0.4-0.4,0.8c0,0.4,0.5,0,0.7,0.3c-0.2,0.4-0.3,0.9-0.8,1.1c-0.1,0.7,0.7,0.2,0.9,0.4
		c-0.2,0.4-0.5,0.7-0.9,0.8c0.2,0.5,0.9,0.3,1.3,0.4c0.1,0.4-0.2,0.6-0.1,1c-0.2,0.4-0.3,0.9-0.9,0.9c0.2,0.6,0.9,0.3,1.4,0.5
		c0,0.9,0.3,1.9,1.2,2.5c1.7,0.8,3.3,2.5,3.5,4.3c-0.1,0.9,0,1.9-0.9,2.6c-0.3,0.2-0.6,0.3-0.9,0.4c0.1,0.4,0.5,0.7,0.6,1.1
		c0.1,0.8-0.1,1.7-0.8,2.3c-0.2,0.1-0.6,0.1-0.8,0.3c0.4,0.5,0.8,1.1,0.8,1.8c-0.2,0.3-0.5,0.7-0.8,0.8c-1.7,0.4,0.6,1.5-0.2,2.4
		c-1.6-0.8-3.1-2.3-3.8-3.9c-1-2-1-4.1-0.7-6.3c0.3-0.8,0.2-1.6,0.3-2.4c0-0.4-0.1-0.9-0.4-1.1c-0.2,0.8-0.5,1.7-1.3,2.2
		c-0.1,0,0-0.1-0.1-0.2c0-0.1,0-0.3-0.1-0.2c-1.1,0.7-1.3,1.9-1.8,2.9c-0.1-0.1-0.1-0.3-0.3-0.4c-0.2,0.5-0.2,1-0.3,1.5
		c-0.2,0.4,0.1,0.9-0.2,1.2c-0.1-0.1-0.2-0.1-0.3-0.1v0.1c0.1,1.6,0.2,3.1,0.9,4.4c-0.3,0.2-0.6,0.2-0.9,0.4c-0.2,0.2-0.8,0-0.8,0.4
		c0.5,0.6,0.6,1.3,1.2,1.9c-1.6,0.5-1.4,2.3-2.7,3.1c0,0.4,0.5,0.1,0.7,0.4C7.6,59,7.5,59.8,7,60.4c0,0.4,0.4,0,0.6,0.1
		c0.3,0.2,0.3,0.6,0.4,0.9c0.2,0.7-0.2,1.5,0.2,2.1c0.3,0.2,0.1-0.2,0.3-0.3c0.8,1,2.1,1.5,2.6,2.7c0.1,0.2,0,0.5,0.1,0.7
		c0.3-0.2,0.4-0.5,0.3-0.7c0.8-2-1.3-3.9-0.6-6c0.3-1,1.2-2,2.3-2.1c1.3-0.1,2.6-0.1,3.6,0.4c-0.2,0.5-0.7,0.6-1.2,0.7
		c-0.1,0.2,0.1,0.4,0.2,0.5c0.5,0.3,0.7,0.8,0.7,1.4c-0.1,0.7-0.7,1.3-1.3,1.6c0,0.4,0.5,0.4,0.8,0.6c0.3,0.3,0.5,0.7,0.4,1.2
		c-0.1,0.3-0.3,0.5-0.5,0.7c0,0.4,0.4,0.6,0.7,0.9c0.3,2.5,1.2,4.8,3,6.6c2.2,2,5.6,2.2,8.2,1c2.3-0.7,2.8-3.1,3.4-5
		c0.2,0.3,0.1,0.7,0.2,1.1c0.6,4.7,5.5,7.6,9.2,9.7c3.3,1.6,6.6,3.6,9.1,6.7v0.2c-3.1,0.2-6.1-0.4-9.2-0.7
		c-3.8-0.5-7.3-1.2-10.9-2.1c-0.9-0.4-1.9-0.5-2.8-0.9c0.1-1.3,1.1-3.1-0.3-4.2c-2.2-1.6-5.2-1.3-7.8-1.4c-1.3-0.9-3-1.6-4.6-1.2
		c-0.4,0.1-0.6,0.6-1.1,0.5c-0.7-0.2-1.4-0.3-2-0.7c0.5-1.7,1-3.4,1.7-5c0.2-0.6-0.2-1.1-0.6-1.4h-0.2c-1.7-1-3.7-1.5-5.6-2
		c-1.1-0.2-2.5,0.1-3.2,1.2c-0.6,1.3-1.1,2.7-1.5,4.1c-0.6,2.2-2,4.3-1.7,6.7c1.2,3,4.3,4.9,7,6.3c0.5,0.3,1,0.5,1.6,0.7
		c0.5,0.4,1.1,0.4,1.6,0.8c-0.5,1.3-0.9,3,0.2,4.2c1.4,1.2,3.2,1.7,4.7,2.5c4.1,1.9,8.6,2.8,12.9,4.1c0.9,0.2,1.9,0.4,2.7,0.6
		c6.9,1.5,14.1,1.9,21.1,1.8c7.2,0,14.2-0.9,20.9-2.4c2.6-0.9,5.4-1.4,8-2.4c0.5-0.2,1.1-0.4,1.6-0.6c2.6-0.9,5.1-2,7.4-3.5
		c1.2-1.1,0.7-2.8,0.3-4.1l0.2-0.2c0.9-0.2,1.7-0.8,2.6-1.1c2.8-1.5,6.3-3.4,7.5-6.7C100.2,76.5,99,74.5,98.4,72.2L98.4,72.2z
		 M75.7,61.8c0,0,2.6,2.6,2.9,3.2c0.3,0.6,0.8,1.6,0.9,1.9c0,0-0.4,1.6-2.5,1.7c-2.1,0.1-3.9-1.6-3.9-3.5
		C73.2,63.1,74.6,62.5,75.7,61.8L75.7,61.8z M67.3,54.1c0-0.7,0.1-1.4,0.7-1.7c0.6-0.3,0.6-0.2,0.6-0.2s1.1,1.9,1.5,2.4
		c0.4,0.5,2.1,2.7,3,4.3c0,0-3.7,3.2-3.9,7.1c0,0,0-1-0.2-1.5c-0.1-0.5-0.2-1.4,0.5-1.8l0-0.3c0,0-0.7-0.2-0.7-0.6
		c0-0.4,0.6-0.5,0.6-0.8c0-0.3-0.4-0.4-0.5-0.5c-0.1,0-0.8,0-1-1.1c-0.3-1-1.2-4.3-1.2-4.3S67.3,54.8,67.3,54.1L67.3,54.1z
		 M54.7,39.6c0,0,0.4,0.2,0.9,0.1c0.5-0.1,1.2-0.4,1.2-0.4l0.5,0.3l-1.7,1.6c0,0-0.4,0.6,0,0.6c0.4,0,0.5,0.1,0.6,0.3
		c0.1,0.2,0.6,0.2,0.9,0.2c0.3-0.1,0.9,0.1,0.9,0.4l2.7-0.4l0.2-0.2c0,0-0.3-1.2-0.1-1.7c0.2-0.5,0.6-0.1,1-0.6
		c0.4-0.5,1.5-1.4,2.3-1.4c0.8,0,1,0.8,1.1,1.9c0,0-0.6-1-1.7-0.8c-1.1,0.1-2,0.3-2.4,2.4c0,0,0,0.7,0.4,1.1c0,0-1.1,0.4-2.4,0.4
		c-1.3,0-3.3-0.4-3.9-0.8c-0.6-0.4-0.9-1-0.8-1.1C54.5,41.2,54.9,40.5,54.7,39.6L54.7,39.6z M27.5,65.4c0,0.5-0.1,2.9-3.7,3.3
		c0,0-2.4,0-2.6-1.6c-0.1-0.9,1.7-3.1,2.2-3.5C23.7,63.2,25,62,25,62s1.9,1.2,2.4,2C27.3,64,27.5,65,27.5,65.4L27.5,65.4z
		 M32.4,60.2c-0.1,0.1-1.1,0.6-1.2,0.6c-0.1,0.1-0.2,0.2,0.1,0.5c0.3,0.3,0.6,0.6,0.4,0.8c-0.2,0.2-0.3,0.2-0.3,0.2s-0.5,0-0.4,0.3
		c0.1,0.3,0.4,0.6,0.5,0.8c0.1,0.2,0.2,0.4,0.1,0.6s-0.1,0.3-0.2,0.6c0,0.2-0.1,1.1-0.1,1.1s-0.3-2.3-2.2-4.9
		c-0.8-1.1-1.7-1.7-1.7-1.7s0.1-0.3,0.4-0.8c0.4-0.4,3-4.2,3.3-4.8s0.7-1.2,1-1.2c0.2,0,0.9,0.4,1.1,0.7c0,0,0.1,1.5,0.5,2.3
		C33.8,55.3,32.5,60.1,32.4,60.2z M44.2,16.5c0.1,0,0.1,0.1,0.2,0.1c-0.1,0.1-0.1,0.2-0.1,0.3c0.2,0.2,0.4,0.3,0.7,0.4
		c0.2,0.3-0.2,0.8,0.2,1c0.3-0.1,0.6-0.2,0.9-0.1c0,0.2-0.3,0.2-0.4,0.4c-0.3,0.4-0.7,0.7-1.2,0.7c-0.3-0.1-0.2-0.4-0.3-0.6
		L44.2,16.5L44.2,16.5z M47,31.4l-0.4,0.3l-0.3,2.2c0,0-0.4,0-0.4,0.4c0,0.5-0.2,1.6-0.4,1.7c-0.2,0.1-0.5,0.1-0.7,0.2
		c-0.2,0.1-0.4,0.2-0.6,0c0,0-0.3-11.2,0-14.5c0,0,1.8,0,2.2-0.1v0.3c0,0-0.2,0.1-0.5,0.1c-0.3,0-0.9-0.1-1.2,0.1v2.2
		c0,0,0.7,0,0.9,0.4c0.3,0.4,0.8,0.9,1.2,0.9V26c0,0,0.1,0.3,0.2,0.3c0.2,0,0.3,0.1,0.3,0.4S47,31.4,47,31.4"/>
</g>
<g id="path3007">
	<path  class="st36" d="M51.6,3.1l0,1c-0.7-0.1-1.5-0.2-2.3-0.4c-0.1-0.4-0.2-1,0.1-1.3
		C50.2,2.6,51,2.7,51.6,3.1z"/>
	<path class="st36" d="M51.7,4.2L51.7,4.2c-0.7-0.1-1.6-0.2-2.3-0.4l0,0l0,0c-0.1-0.3-0.2-0.9,0.1-1.3l0,0l0,0
		c0.2,0,0.3,0.1,0.5,0.1c0.6,0.1,1.3,0.2,1.7,0.6l0,0v0L51.7,4.2z M49.4,3.8c0.7,0.2,1.6,0.3,2.3,0.4l0-1c-0.4-0.4-1.1-0.5-1.7-0.6
		c-0.2,0-0.3-0.1-0.5-0.1C49.1,2.9,49.3,3.5,49.4,3.8z"/>
</g>
<g id="path3009">
	<path  class="st36" d="M46.7,2.7c0,0.4,0.3,1.1-0.2,1.2c-0.8,0-1.5,0.4-2.3,0.5
		c-0.2-0.3,0-0.7,0-1.1c0.2-0.2,0.6-0.1,0.9-0.4C45.6,2.8,46.2,2.4,46.7,2.7L46.7,2.7z"/>
	<path class="st36" d="M44.2,4.3L44.2,4.3c-0.2-0.2-0.1-0.4-0.1-0.7c0-0.1,0.1-0.3,0-0.4l0,0l0,0c0.1-0.1,0.3-0.2,0.4-0.2
		c0.2,0,0.3-0.1,0.4-0.2c0.1,0,0.3-0.1,0.4-0.1c0.4-0.1,0.8-0.2,1.3-0.1l0,0v0c0,0.1,0,0.2,0,0.3c0,0.3,0.1,0.6,0,0.7
		c-0.1,0.1-0.1,0.1-0.2,0.1c-0.4,0-0.8,0.1-1.2,0.2C44.9,4.2,44.6,4.3,44.2,4.3L44.2,4.3z M44.2,3.2c0,0.1,0,0.3,0,0.4
		c0,0.2-0.1,0.4,0.1,0.6c0.4,0,0.7-0.1,1-0.2c0.4-0.1,0.8-0.2,1.2-0.2c0.1,0,0.2,0,0.2-0.1c0.1-0.2,0.1-0.5,0-0.7c0-0.1,0-0.2,0-0.3
		c-0.4-0.2-0.8-0.1-1.2,0.1c-0.1,0-0.3,0.1-0.4,0.1C44.9,3,44.8,3,44.6,3.1C44.5,3.1,44.3,3.1,44.2,3.2z"/>
</g>
<g id="path3011">
	<path  class="st36" d="M51.6,6.7l0,1.7c-0.8-0.1-1.5-0.2-2.4-0.4c-0.2-0.5,0.1-1.2,0-1.9
		c0.3-0.1,0.7-0.1,1,0C50.8,6.2,51.2,6.5,51.6,6.7L51.6,6.7z"/>
	<path class="st36" d="M51.7,8.4L51.7,8.4c-0.3,0-0.5-0.1-0.8-0.1c-0.5-0.1-1-0.1-1.6-0.3l0,0l0,0c-0.1-0.3-0.1-0.6-0.1-1
		c0-0.3,0.1-0.6,0-0.9l0,0l0,0c0.3-0.1,0.7-0.1,1,0c0.5,0.1,1,0.3,1.3,0.6l0,0v0L51.7,8.4z M49.3,8.1c0.6,0.1,1.1,0.2,1.6,0.3
		c0.2,0,0.5,0.1,0.8,0.1l0-1.7c-0.4-0.2-0.8-0.5-1.3-0.6c-0.3-0.1-0.7-0.1-1,0c0,0.3,0,0.6,0,0.9C49.2,7.4,49.2,7.8,49.3,8.1z"/>
</g>
<g id="path3013">
	<path  class="st36" d="M46.7,6.2c0.2,0.7,0,1.2,0,1.9c-0.9,0.2-1.7,0.4-2.6,0.7V7
		C44.9,6.4,45.7,6.3,46.7,6.2z"/>
	<path class="st36" d="M44.1,8.7V7l0,0c0.8-0.6,1.6-0.7,2.6-0.8l0,0l0,0c0.1,0.4,0.1,0.7,0.1,1.1c0,0.2-0.1,0.5,0,0.8v0l0,0
		c-0.3,0.1-0.6,0.1-0.9,0.2C45.3,8.4,44.7,8.5,44.1,8.7L44.1,8.7z M44.1,7v1.7c0.6-0.2,1.1-0.3,1.7-0.4c0.3-0.1,0.6-0.1,0.9-0.2
		c0-0.3,0-0.5,0-0.8c0-0.4,0.1-0.7-0.1-1.1C45.8,6.3,44.9,6.4,44.1,7z"/>
</g>
<g id="path3015">
	<path  class="st37" d="M48.7,2.7c0.2,0.6-0.2,1.6,0.6,1.7c0.8,0.2,1.7,0.2,2.4,0.7l0,0.8
		c-0.9-0.2-1.7-0.5-2.7-0.5c-0.4,0.4-0.1,1.2-0.2,1.7L48.6,8c-0.5-0.2-1.6,0.5-1.3-0.6c-0.1-0.6,0.5-1.5-0.3-2
		C46,5.6,45,5.7,44.2,6.1V5.1c0.9-0.4,1.9-0.7,3-0.7l0.1-0.1V2.6c0.3-0.3,0.9-0.1,1.3-0.1L48.7,2.7"/>
</g>
<g id="path3017">
	<path  class="st37" d="M68,5.9l1-0.2v0.1c-1.9,2.4-4.6,2.8-7.3,3.3c-3.4,0.5-6.4-0.3-9.6-0.7
		c-0.2-0.4-0.1-0.7-0.1-1.1c0-1.3,0-2.4,0-3.9l0.1-0.2C57.1,5.5,62.5,7.1,68,5.9"/>
</g>
<g id="path3019">
	<path  class="st38" d="M27.1,27c1.3,1.7,3.7,2.8,3.8,5.1c-0.3,0.2-0.7,0.6-1.2,0.4
		c-0.5-0.3-0.9-1.2-1.6-0.8c-0.4,0.2-0.6,0.7-0.4,1.1c0.1,0.2,0.1,0.3,0.2,0.5c-0.4-0.1-0.5-0.5-0.6-0.8c0.1-0.3-0.2-0.7-0.4-0.9
		c-0.3-0.1-0.6-0.1-0.9-0.3c-0.3-0.4,0.5-1.1-0.3-1C25.1,30.8,25,32,24,31.7c-0.3-0.5-0.9,0.2-1.1-0.5c-0.3,0.1-0.7,0-1-0.2
		c-0.5-0.5-0.5-1.1-0.9-1.7H21c0,1.2,0.5,2.3,1.7,3l0,0.2c-0.2,0.3-0.8-0.1-0.8,0.2c0.4,0.2,1,0.4,1.5,0.2c-0.1,0.3-0.9,0.2-0.4,0.6
		c0.4,0,0.8-0.2,1.3-0.2v0.2c-0.1,0-0.2,0.1-0.2,0.2c0,0.1,0.1,0.1,0.2,0.2c0.3,0.1,0.6-0.5,1-0.1c3.2,1.4,6.2,4.5,6.9,7.9
		c1,1,1.1,2.5,1.3,3.7c0.1,1-0.1,1.8-0.3,2.7c-0.1-0.9,0.2-2,0-2.8c-0.1-0.3-0.1-0.8-0.4-1c-0.4,0.3-0.1,0.6-0.1,1
		c-0.1,0.7,0.2,1.7-0.5,2.1c-0.4,0-0.4-0.4-0.5-0.7c0-0.9,0.3-2.5-0.6-3.1c-0.2,0.2,0.1,0.6,0.1,0.8c0,0.9,0,1.7-0.1,2.5
		c0,0.4,0.3,0.7,0.6,1c1.4,1.4,3.1,2.9,4.2,4.5c0.9,1.8-0.5,3.6,0.2,5.5c0,0.8-0.2,1.7-0.4,2.5c0,1.3,0.6,3.5-0.8,4.3
		c0.5-1.1,0.7-2.4,0.6-3.6c-0.1,0-0.2-0.2-0.2,0c-0.2,0.4-0.3,1-0.5,1.4c0-0.6,0.6-1.1,0.2-1.7c-0.2,0-0.4,0-0.6,0.2
		c0,0,0-0.2-0.2-0.3c-0.4,0.1-0.6,0.6-0.9,0.7c-0.2,0-0.4,0.2-0.6,0.2c0.5-0.6,1.3-1,1.7-1.7c0.2,0,0.6,0,0.5-0.3
		c-0.1-0.3-0.2-0.7-0.3-1.1c0.4-1.4,1.1-3,0.2-4.3c0.2-1.8-1.6-2.4-2.7-3c-0.6-0.1-1.2-0.4-1.7-0.8l-0.2,0.2
		c-0.2-0.1-0.4-0.5-0.7-0.5c-0.2-0.7-0.6-1.5-1.4-1.8c-0.9,0.2-1.6-0.2-2.3-0.6c-0.2,0.1-0.1,0.3-0.1,0.4c0.4,1.1,1.7,0.3,2.1,1.4
		c0.6,1,1.3,1.8,2.5,2.1c0.4,0.3,1,0.3,1.5,0.5c-1,0.7-2.4,0.9-3.5,0.6c-1.1,0-2.3-0.3-3.3-0.7c-0.3-0.2-0.7-0.2-0.9-0.4
		C22.9,51,22,50.6,22,49.7c-0.1-0.6,0.2-1,0.4-1.6c1.1,1.2,2.7,1.7,4.3,1.8c0,0,0.1-0.1,0.1-0.1c-0.7-0.4-1.5-0.4-2.3-0.7
		c-0.8-0.3-1.7-0.9-2-1.8c0-0.7,0.2-1.3,0.2-2c1.3,0.3,2.7-0.1,3.3-1.2c0.3-0.8,0.1-1.8-0.5-2.5c-0.4-0.3-0.8-0.5-1.3-0.6
		c0.4-0.1,0.9,0,1.3,0.2c0.6,0.1,0.6,1.5,1.1,0.5c0.1-0.5-0.1-1.1-0.4-1.5c0.5-0.2,0-0.7,0.1-1c-0.3-0.4-0.9-0.6-0.7-1.2
		c-0.4-0.9-1.4-1.5-2.3-1.5c0.2-0.1,0.5,0,0.6-0.2c-0.5-1.1-1.9-0.1-2.5-1.2c-2.2-2-2.1-4.7-1.4-7.4c0.3-0.9,1.1-1.6,1.9-2.2
		c0.6-0.2,1.4,0,1.8-0.7c1-0.4,1.8,0.5,2.7,1C26.5,26.2,27,26.5,27.1,27"/>
</g>
<g id="path3021">
	<path  class="st38" d="M40.1,37.7c1,0.6,1.4,1.6,2.5,2c0.7,0.4,1.4,0.9,1.9,1.5
		c-0.2,0.1-0.4,0.3-0.6,0.3c-0.4-0.7-1.1-1.3-1.8-1.7c-0.1,0.5,0.6,0.8,0.8,1.2l0.3,0.5c-0.2,0.1-0.6,0.4-0.6,0
		c-0.3-0.7-0.6-1.4-1.2-1.9c-0.1,0-0.3,0-0.3,0.1l0.6,2l-0.1,0.1c-0.4-0.7-0.1-1.8-0.9-2.3c-0.3,0.4,0,0.8,0.2,1.1
		c0.1,0.4,0.1,0.8,0.2,1.1c-0.1,0.2-0.4,0-0.6,0c0.1-0.9-0.1-1.8-0.8-2.4c-0.7,0.2-0.8-0.8-1.5-1.1c-0.8-0.5-1.8-1.1-2.7-0.5
		c-0.3,0.5-1.4,0.3-1,1.1l0.2,0.7c-0.4,1.8-0.3,3.5-0.9,5.2c-0.2-0.6-0.3-1.3-0.5-1.9c-0.1-0.7-0.7-1.4-0.3-2.2
		c0.4-1.1,0.6-2.4,1-3.5c0.1-0.6,0.7-1.1,1.3-1.3C37.1,36,38.4,37.3,40.1,37.7"/>
</g>
<g id="path3023">
	<path  class="st38" d="M66,36.3c0,0,0,0.1,0.1,0.1C66,36.4,66.1,36.4,66,36.3
		c0.8,1,0.8,2.4,1.4,3.5c0.1,0.6,0.5,1.2,0.2,1.8c-0.5,1-0.6,2.1-0.8,3.1c-0.6-1.7-0.7-3.7-1-5.4c0.2-0.3,0.4-0.8,0.2-1.2
		c-0.1-0.1-0.2-0.2-0.4-0.1c-0.6-0.4-1.2-0.7-2-0.5c-1,0.4-1.7,1-2.3,1.9c-0.1-0.1-0.2,0-0.3,0c-0.6,0.6-0.8,1.5-0.7,2.3
		c-0.2,0.2-0.4,0.2-0.6,0.2c-0.1-0.8,0.4-1.4,0.5-2.2l-0.2-0.1c-0.7,0.6-0.5,1.5-0.8,2.3c0,0-0.1,0.1-0.1,0.1c0-0.7,0.4-1.4,0.5-2.2
		c-0.1-0.1-0.2-0.1-0.3-0.1c-0.6,0.6-1,1.4-1.3,2.1c-0.1,0.1-0.3,0-0.5-0.1c0.1-0.2,0.3-0.5,0.5-0.8c0.1-0.3,0.8-0.6,0.5-1
		c-0.6,0.5-1.4,1.1-1.8,1.8c-0.2-0.1-0.3-0.2-0.5-0.3c0.2-0.4,0.7-0.7,1-1c0.3,0,0.4-0.3,0.7-0.5c0.7-0.3,1.3-0.8,1.8-1.5
		c0.3-0.2,0.7-0.5,0.9-0.7c1.9-0.3,3.4-2.6,5.4-1.5L66,36.3"/>
</g>
<g id="path3025">
	<path  class="st39" d="M49.7,39.7c0.1,0.4,0.3,0.7,0.3,1.2c0.1,0.5-0.1,1-0.3,1.4
		c-0.6,1.7-2.4,2.8-4,3.4c-2.7,0.9-5.8,1-8.3-0.3c-1-0.7-2.2-1.6-2-3c-0.1-0.6,0.3-1,0.4-1.5c0.2-0.4,0.7-0.8,1.1-0.8
		c0.5-0.1,0.9,0.2,1.2,0.4c0.3,0.3,0.4,0.7,0.5,1.1c0.2,0.7-1.3,1.5,0,1.9c0.2,0,0.5,0.1,0.8,0.1c0.6,0.2,1.4,0.2,2,0.3
		c2-0.1,4.3-0.5,5.5-2.3c0.3-0.6-0.4-1-0.3-1.5c-0.1-0.4,0.1-0.7,0.3-1c0.3-0.5,1-0.6,1.5-0.5C48.9,38.9,49.4,39.2,49.7,39.7"/>
</g>
<g id="path3027">
	<path  class="st39" d="M54,39.5c0,0.5,0,1.2-0.4,1.6c-0.2,0.8,0.6,1.2,1.1,1.7
		c2.1,1.2,5.4,1.6,7.7,0.5c0.1-0.5-0.2-0.7-0.3-1c0-0.6-0.2-1.1,0.3-1.6c0.5-0.4,1.2-0.6,1.8-0.4c1,0.7,1.2,1.9,1,3
		c-0.4,1.3-1.7,2.2-3,2.7c-0.2,0-0.5,0.1-0.8,0.2c-3.8,0.7-8.1-0.1-10.3-3.3c-0.6-1-0.4-2.6,0.3-3.5c0.5-0.5,1.2-0.7,1.9-0.6
		C53.4,38.9,53.8,39.1,54,39.5"/>
</g>
<g id="path3029">
	<path  class="st39" d="M50.8,38.5v0.2c-1.3,0.3-2.3-0.8-2.9-1.7c0.4-0.3,0.9,0,1.3,0
		C49.9,37.2,50.5,37.8,50.8,38.5"/>
</g>
<g id="path3031">
	<path  class="st39" d="M52.9,37.8c-0.4,0.1-0.9,0.3-1.3,0.4l-0.8-1c0.3-0.2,0.9-0.4,1.3-0.2
		C52.5,37.1,52.7,37.5,52.9,37.8"/>
</g>
<g id="path3033">
	<path  class="st39" d="M47.6,37.9c-0.5,0-0.7,0.4-1.2,0.5l-1.2-1.2l0-0.1
		C46.2,36.8,47.1,37.1,47.6,37.9"/>
</g>
<g id="path3035">
	<path  class="st39" d="M58.4,37.6c0.1,0.2,0.1,0.6,0,0.9c-0.3,0.2-0.5,0.5-0.9,0.3
		c-0.7-0.3-0.9-1-1.3-1.5c0.5-0.2,0.9-0.2,1.4-0.2C57.9,37.2,58.2,37.2,58.4,37.6"/>
</g>
<g id="path3037">
	<path  class="st39" d="M55.8,37.9c0,0.3,0.4,0.4,0.3,0.7c-0.5,0.3-1.1,0.3-1.6,0.1
		c-0.6-0.3-0.9-0.9-1.2-1.5c0.5-0.3,0.8,0,1.4,0C55.2,37.3,55.5,37.5,55.8,37.9"/>
</g>
<g id="path3039">
	<path  class="st39" d="M45.4,38.3v0.2c-0.9,0.2-2.1,0.3-2.7-0.5c-0.1-0.2,0-0.5,0.1-0.8
		C43.9,36.7,44.8,37.5,45.4,38.3"/>
</g>
<g id="path3041">
	<path  class="st38" d="M47.2,22.7c0.1,0.3-0.1,0.7,0.2,0.9c0.6-0.1,1.6,0.4,1.9-0.4v-0.4
		c0.4-0.1,1-0.1,1.4,0c0.2,0.3,0,0.9,0.4,0.9c0.5-0.2,1.4,0.3,1.6-0.4v-0.5c0.6-0.2,1.3,0,1.9,0c0.1,0.2,0.2,0.4,0.1,0.7
		c-0.3,0.1-0.7,0-0.8,0.4c0,0.4-0.3,0.8-0.6,1c-0.3,0.2-0.9-0.1-0.9,0.5c-0.1,0.2,0.1,0.4-0.1,0.6c-1.5,0.2-3.2,0.1-4.6-0.1
		c-0.2-0.2,0-0.8-0.5-0.9c-0.4-0.1-1-0.1-1.2-0.5c-0.1-0.2,0-0.5-0.3-0.7c-0.2-0.1-0.4,0.1-0.5-0.1C45,22.2,46.6,22.7,47.2,22.7"/>
</g>
<g id="path3043">
	<path  class="st38" d="M52.4,26.7c-0.1,0.3,0.3,1.1-0.3,0.9l-3.9,0c-0.2-0.3,0-0.7,0-1
		C49.4,26.5,50.9,26.5,52.4,26.7L52.4,26.7"/>
</g>
<g id="path3045">
	<path  class="st38" d="M52.4,28.4l0.1,3.6c-1.3,0-3,0-4.7,0c0.1-1.2-0.1-2.7,0.1-3.7l0.2-0.1
		l4.1,0.1L52.4,28.4"/>
</g>
<g id="path3047">
	<path  class="st38" d="M52.9,32.5c0.2,0.4,0.1,1,0.2,1.4L52.9,34l-5.6-0.1c-0.1-0.5,0-1,0.1-1.4
		C49.3,32.3,51,32.5,52.9,32.5"/>
</g>
<g id="path3049">
	<path  class="st38" d="M53.6,34.8c0.1,0.3,0.1,0.7,0,1c-2.2-0.1-4.7,0.1-7-0.1
		c-0.1-0.2,0-0.6,0.1-0.9C49.1,34.7,51.5,34.7,53.6,34.8"/>
</g>
<g id="path3051">
	<path  class="st39" d="M46.9,17.2c-0.4,0.4,0.5,1.1-0.2,1.1c-0.2-1-1.6,0.1-1.3-1.1
		c-0.1-0.2-0.5-0.2-0.4-0.4c0.2-0.1,0.5-0.3,0.7-0.5c-0.3-0.5-0.8,0.2-1.1-0.1c0.1,0,0.7,0,0.8-0.3c-0.1-0.6-0.8-0.1-1.1-0.3
		l-0.1,0.1c-0.2-0.8,0.3-1.4,0.2-2.1c-0.2-0.2,0.1-0.4,0.1-0.6C45,14.4,47.4,15.3,46.9,17.2"/>
</g>
<g id="path3053">
	<path  class="st39" d="M57.6,16.9c0.1,0.2-0.1,0.5-0.3,0.7C57,18,56.2,17.9,56,18.5
		c0.4,0.4,0.8-0.2,1.2-0.2c0.3,0,0.7,0,1-0.2c0.4-0.3,0.5-0.8,0.7-1.2c0.1-0.1,0.3-0.1,0.4-0.1c-0.6,0.7,0.2,2.1-0.9,2.6
		c-0.3,0.2-0.9,0.1-1.2-0.2c-0.2-0.2-0.4-0.5-0.7-0.5c-0.3,0.5,0.6,0.8,0.6,1.3c0.1,0.5-0.1,0.9-0.6,1.2h-0.7
		c0.2-0.1,0.7-0.2,0.8-0.6c0.2-0.5-0.2-0.9-0.2-1.3c-0.4-0.5-1-0.7-1.4-0.6c-0.7,0.2-1.5,0.5-1.7,1.3c-0.1,0.6-0.1,1.3-0.1,1.8
		c-0.4-0.7-0.4-1.9,0.1-2.6c0.3-0.6,1.1-0.4,1.3-1.1c0.8-0.8,2.3-0.3,2.7-1.6C57.5,16.6,57.5,16.8,57.6,16.9"/>
</g>
<g id="path3055">
	<path  class="st39" d="M47.9,18.6c-0.1,0.3-0.3,0.8,0,1.2c0.4,0.1,0.5-0.4,0.8-0.5l1.1-0.2
		c-0.5,0.3-1,0.8-1.5,1.1c-0.2,0.1-0.2-0.1-0.4-0.1c-0.3,0.2-0.2,0.6-0.6,0.8c0.1-0.2,0.2-0.5,0.2-0.7c-0.1,0-0.1-0.1-0.2-0.1
		c-0.3,0.2-0.3,0.6-0.6,0.8c-0.1-0.1,0-0.4-0.2-0.6c-0.4,0.1-0.2,1.1-0.7,0.5c-0.3,0-0.4,0.3-0.6,0.4c0.1-0.1,0.1-0.5-0.2-0.5
		l-0.5,0.4l0-0.5c-0.4-0.2-0.6,0.3-0.9,0.5c-0.1-0.3,0.9-0.4,0.3-0.8c-0.3-0.1-0.5,0.3-0.8,0.3c0.1-0.5,0.7-0.3,0.9-0.7
		c0.4,0.3,1.1,0.2,1.5-0.1C46.1,18.8,47.1,18.6,47.9,18.6"/>
</g>
<g id="path3057">
	<path  class="st39" d="M50.7,19.7c-0.1,0.5-0.2,1.4,0,1.9V22c-0.7,0.1-1.6,0-2.1,0.1
		c-0.1,0.3,0.1,0.6-0.1,0.9L47.9,23c-0.2-0.3,0.2-0.9-0.3-1c-0.1,0-0.3,0-0.4-0.1c0-0.4,0.4-0.5,0.7-0.7c0.5-0.6,1.2-0.8,1.7-1.3
		c0.4-0.1,0.7-0.4,1-0.8C51,19,50.5,19.4,50.7,19.7"/>
</g>
<g id="path3059">
	<path  class="st39" d="M52.6,11c0.2-0.1,0.1-0.4,0.4-0.3c0.5,0.3,0.2,1.4,1.1,1.1
		c0.3,0.5-1.1,0.4-0.5,1c0.2-0.1,0.4-0.1,0.5,0.1c0,0.2,0.1,0.6-0.2,0.7h-0.1c0-0.2,0.3-0.4,0-0.6c-0.2,0-0.3,0.1-0.4-0.1
		c0-0.1,0.2-0.2,0.1-0.4c-0.3,0-0.5-0.5-0.8-0.2c-0.2-0.1-0.1-0.4-0.3-0.4c-0.2-0.1-0.4,0.1-0.6,0.3c-0.1-0.6-0.1-1.2,0.1-1.8
		C52.1,10.6,52.3,11,52.6,11"/>
</g>
<g id="path3061">
	<path  class="st39" d="M44.2,12c-0.6,0.2,0.1,0.9-0.4,1.2c0,0.4,0.1,0.8-0.1,1.1
		c-0.4-0.2-0.5-0.7-0.7-1.1c0.2-0.5,0.3-1.1,0.6-1.4l0.1-0.4C44,11.5,44.1,11.8,44.2,12"/>
</g>
<g id="path3063">
	<path  class="st39" d="M50.6,12.2c0,0.1,0,0.3,0.2,0.3h0.1c0.1,0.2-0.1,0.1-0.1,0.2
		c0,0.2,0.2,0.5,0.4,0.5c0.2,0,0.3,0,0.4-0.1c-0.2,0.1-0.5,0.3-0.7,0.2c-0.4-0.2,0.1-0.8-0.4-0.9c-0.3,0.3-0.1,0.9-0.4,1.1
		c-0.1,0.4-0.5,0.8-0.3,1.3c-0.1,0.5-0.6,0.5-1,0.7c-0.4,0.1-0.9,0.1-1.3,0.3c0.2-1,1.7-0.6,1.9-1.7c-0.3-0.3-0.6,0.2-0.9,0.3
		L48,14.8c0-0.2,0.2-0.5,0.3-0.7c0.3-0.1,0.6-0.4,1-0.2c0.3,0,0.1-0.4,0.1-0.5c-0.3-0.2-0.2-0.6-0.1-0.9l0.1-0.1
		c0.1,0.2,0.3,0.4,0.6,0.4c0.3-0.3-0.2-0.8,0.2-1.1C50.4,11.9,50.8,11.8,50.6,12.2"/>
</g>
<g id="path3065">
	<path  class="st39" d="M50.6,15.8c-0.4,0.5-0.7,0.9-0.7,1.5c0.1,0.1,0.2,0.2,0.4,0.1
		c-0.3,0.8-1.3,0.7-1.8,1.2c0-0.7,1.1-1,1.2-1.8c-0.1-0.1-0.1-0.1-0.2-0.1c-0.4,0.5-1,1-1.3,1.5c-0.3-0.6,1.1-1.1,0.9-2.1
		C49.6,16.3,50.1,14.9,50.6,15.8"/>
</g>
<g id="path3067">
	<path  class="st39" d="M48.4,16.3c0.2,0.7-0.8,1-1,1.6c-0.2-0.3-0.2-0.6-0.1-1
		C47.5,16.4,48,16.3,48.4,16.3"/>
</g>
<g id="path3069">
	<path  class="st39" d="M51.6,14.5c0,0.1-0.1,0.2-0.2,0.3h-0.2c0-0.1,0.1-0.2,0.1-0.3
		C51.4,14.5,51.5,14.5,51.6,14.5"/>
</g>
<g id="path3071">
	<path  class="st39" d="M53.4,15.1c0.1,0.1-0.1,0.1-0.1,0.2c-0.3,0-0.3-0.3-0.4-0.5
		c0-0.1,0-0.3,0.1-0.2C53.1,14.8,53.2,15,53.4,15.1"/>
</g>
<g id="path3073">
	<path  class="st39" d="M52.7,15.4c0.2,0.2,0.4,0.4,0.4,0.7c0,0,0-0.1-0.1,0c0,0.1,0.1,0.3-0.1,0.4
		c-0.3-0.3-0.1-1-0.6-1.1c-0.3,0.2,0,0.6,0,0.9c-0.2-0.2-0.7-0.4-0.5-0.8c0.2-0.1,0.3-0.5,0.7-0.6L52.7,15.4"/>
</g>
<g id="path3075">
	<path  class="st39" d="M51.9,17.1c-0.2-0.2-0.2-0.6-0.5-0.8C51.6,16.5,51.9,16.8,51.9,17.1"/>
</g>
<g id="path3077">
	<path  class="st39" d="M51.4,17.9l-0.2,0.3c0.1-0.5-0.9-0.9-0.1-1.3
		C51.3,17.2,51.6,17.5,51.4,17.9"/>
</g>
<g id="path3079">
	<path  class="st39" d="M50.8,14.3l-0.2-0.2c0,0-0.1,0.2,0.1,0.3C50.7,14.6,50.8,14.3,50.8,14.3"/>
</g>
<g id="path3081">
	<path  class="st39" d="M52.1,14.1c0,0,0.3-0.2,0.5-0.2c-0.1,0-0.3,0-0.3,0s-0.1-0.2-0.1-0.5
		C52.1,13.8,52,14,52,14L52.1,14.1"/>
</g>
<g id="path3083">
	<path  class="st38" d="M78.2,25.3c1.1,0.3,2,1.4,2.4,2.5c0.7,2.8,0.5,5.8-1.9,7.7
		c-0.7,0.2-1.7,0-2,0.8c0.1,0.3,0.4,0,0.6,0.2c-0.8-0.1-1.5,0.5-2.1,1.1c-0.1,0.3-0.3,0.5-0.2,0.8c-0.5,0.4-0.9,0.9-0.8,1.5
		c0.1,0.1,0.1,0.1,0.2,0.1c-0.4,0.5-0.6,1.2-0.3,1.8c0,0.1,0.1,0.1,0.2,0.1c0.3-0.6,0.7-1,1.3-1.1h0.8c-0.7,0.2-1.5,0.5-1.7,1.2
		c-0.3,0.6-0.3,1.4,0,1.9c0.6,0.8,1.6,1.4,2.7,1.3l0.5-0.2c0.1,1,0.6,2.1-0.3,2.9c-1,1.1-2.3,1.3-3.6,1.5c-0.1,0-0.2,0.1-0.2,0.2
		c0.4,0.3,0.8-0.1,1.3,0c1.1-0.3,2.3-0.7,3.1-1.6c0.3,0.6,0.6,1.5,0.1,2.2c-0.5,0.6-1.2,1.1-1.9,1.4c-1.7,0.8-3.8,1.2-5.8,0.9h-0.1
		c-0.1-0.1-0.3-0.1-0.5-0.2c-0.2-0.2-0.7-0.1-0.7-0.5c1.6-0.4,3.3-1.2,4.1-2.8c0.5-0.8,1.8-0.3,1.9-1.5c-0.3-0.2-0.5,0.2-0.8,0.3
		c-0.6,0.2-1.1,0.4-1.7,0.2c-0.7,0.3-1.1,1.1-1.3,1.8c-0.3,0-0.5,0.4-0.7,0.5c-0.4-0.5-0.7,0.3-1.1,0.4c-0.4,0.1-0.6,0-0.9,0.2
		c-0.9,0.6-2.3,1-2.6,2.2c0.1,1.1-0.8,2-0.4,2.9c0.1,1,1.1,2.1,0.3,3.1c-0.1,0.2,0.2,0.4,0.3,0.4c0.3-0.1,0.3,0.2,0.5,0.3
		c0.4,0.5,1,0.9,1.5,1.3c-0.6,0-1.1-0.4-1.4-0.8c-0.1,0.1-0.2,0.1-0.2,0.2c0.4,0.6,0.7,1.5,1.4,1.7c0.1,0.1,0,0.2,0.1,0.2
		c0.1-0.3,0.4-0.1,0.5-0.1c0,0.1,0.1,0.1,0.1,0.2c-1.2,0.3-1.6-0.9-2.1-1.6c0-0.2-0.1-0.4-0.2-0.5c-0.2,0-0.5,0-0.5,0.2
		c0.2,1.2,0.6,2.5,1.7,3.4c-1.4-0.6-1.3-2.3-1.9-3.4c-0.1-0.1-0.3,0.1-0.3,0.2c0.1,1.3,0.2,2.5,0.8,3.5c-0.8-0.1-0.8-1.1-1-1.7
		c-0.1-1.4,0.3-2.8-0.3-4.1c0-1.5,0.2-3.3-0.1-4.8c0.1-0.7,0.1-1.4,0.4-2c0.6-0.7,1.1-1.4,1.8-2.1l0.1,0l0.2-0.4l2.4-2.4
		c0.1-1-0.2-2.2,0-3.3c0-0.2,0.3-0.4,0-0.5c-0.4,0.2-0.5,0.7-0.6,1c-0.1,1,0.2,1.9-0.3,2.7c-0.4,0.2-0.5,0-0.6-0.4
		c0-0.8-0.2-1.4,0-2.1c0-0.2,0-0.3-0.1-0.5c-0.5,0.1-0.3,0.7-0.4,1.1v2.7c-0.6-2.3-0.4-4.7,1-6.6c0.6-3,3-5.9,5.8-7.2
		c0.5-0.2,1.1-1,1.7-0.4c0.1,0,0.2,0,0.2-0.1c0-0.2-0.2-0.2-0.2-0.3c0.4-0.3,0.9,0.3,1.4,0.1c0.1,0,0-0.1,0-0.2
		c-0.2-0.1-0.4-0.1-0.6-0.3c0.5,0.2,1.2,0,1.5-0.4c-0.3-0.2-0.5,0.1-0.8-0.1c0.1-0.3,0.5-0.7,0.9-0.9c0.3-0.7,1-1.4,0.8-2.2
		c-0.4,0.1-0.3,0.6-0.5,0.9c-0.2,0.3-0.3,0.8-0.8,0.9c-0.4,0-0.8,0-1.1,0.4c-0.4-0.3-0.7,0.4-1.1,0.1c-0.8-0.2-0.7-1.2-1.3-1.5
		c-0.3,0.4,0.2,1.2-0.5,1.3c-0.4,0.1-0.8,0.2-0.9,0.6c0,0.5,0.1,1-0.4,1.2l-0.2,0c0.2-0.3,0.4-0.7,0.3-1.1c0-0.3-0.4-0.4-0.6-0.5
		c-1-0.1-1.6,1.8-2.7,0.6c-0.2-2.8,3.3-3.7,4.2-6c0.8-0.7,1.7-1.6,2.8-1.5C77.1,24.9,77.5,25.4,78.2,25.3"/>
</g>
<g id="path3085">
	<path  class="st38" d="M79.2,52.5c-1.7,1.9-4.1,2.6-6.6,2.5c-0.6-0.1-1-0.3-1.6-0.5
		c-0.6-0.3-0.9-1-1.2-1.6c2.7,0.6,5.4,0,7.5-1.3c0.5-0.4,1-0.8,1.5-1.2C79.1,51.1,79.7,51.8,79.2,52.5"/>
</g>
<g id="path3087">
	<path  class="st38" d="M80.1,53.4c0.2,0.3,0.2,0.8,0.1,1.2c-0.8,1.5-2.5,2.1-4.1,2.4
		c-1.7,0-4,0.4-4.8-1.7l0-0.1c0.5,0,1.1,0.3,1.7,0.2c2.5,0.2,5-0.9,6.6-2.7C80,52.8,79.9,53.2,80.1,53.4"/>
</g>
<g id="path3089">
	<path  class="st38" d="M81.2,55.9c0.2,0.7-0.4,1.2-0.7,1.7c-1.8,1.4-4.5,2.3-6.7,1
		c-0.3-0.4-0.6-0.8-0.8-1.2c1.2,0.1,2.7,0.5,3.9,0.1c1.1-0.2,2.1-0.8,3-1.6c0.2-0.3,0.5-0.7,0.8-0.8L81.2,55.9"/>
</g>
<g id="path3091">
	<path  class="st38" d="M82,58c-0.2,1.3-1.7,2.4-2.8,2.7c-1.2,0.3-2.8,0.5-3.7-0.3l-0.6-0.7
		c1,0,2.4,0.1,3.4-0.3c0.8-0.2,1.6-0.7,2.3-1.1c0.4-0.4,0.6-0.9,1.1-1.2C81.8,57.3,81.8,57.7,82,58"/>
</g>
<g id="path3093">
	<path  class="st38" d="M82.5,59.5c0.2,0.6,0.1,1.3-0.3,1.7c-1,1.3-2.7,1.7-4.3,1.4
		c-0.7-0.2-1.1-0.6-1.5-1.1c2.2,0.2,4.7-0.5,5.7-2.7C82.4,59,82.3,59.3,82.5,59.5"/>
</g>
<g id="path3095">
	<path  class="st38" d="M82.8,63c-0.9,1.2-2.7,1.3-4,1.1c-0.4-0.1-0.6-0.5-0.8-0.8
		c1.8,0.3,3.8-0.4,4.9-2.1C83.1,61.7,83.2,62.5,82.8,63"/>
</g>
<g id="path3097">
	<path  class="st38" d="M83.1,64.9c-1,0.7-2.5,0.9-3.6,0.4c-0.3-0.1-0.3-0.4-0.4-0.6
		c1.5,0.1,3.1-0.1,4.1-1.5C83.4,63.7,83.5,64.5,83.1,64.9"/>
</g>
<g id="path3099">
	<path  class="st38" d="M83,66.8c-0.8,0.5-2,0.4-2.8,0.1c-0.1-0.2-0.4-0.5-0.3-0.7
		c1.2,0.2,2.4-0.1,3.4-0.7C83.2,65.7,83.5,66.5,83,66.8"/>
</g>
<g id="path3101">
	<path  class="st38" d="M82.9,68.1c-0.7,0.6-1.8,0.4-2.5,0.1c-0.3-0.2-0.2-0.4-0.2-0.8
		c0.8,0.2,2.1,0.4,2.9-0.1C83.1,67.5,83,67.8,82.9,68.1"/>
</g>
<g id="path3103">
	<path  class="st38" d="M82.6,68.8c-0.1,0.5-0.4,0.9-0.7,1.3c-0.6,0.1-1.2,0.1-1.6-0.3
		c-0.1-0.4-0.3-0.6-0.1-1C81,69,81.9,69.2,82.6,68.8"/>
</g>
<g id="path3105">
	<path  class="st38" d="M81,70.6c0.2-0.1,0.5-0.1,0.7-0.1c-1.1,1.4-2.5,2.6-4.2,2.9
		c-1.2,0-2.3,0.4-3.1-0.5c-0.1-0.4,0-0.7,0.3-1c1.3-1,2.9-1,4.4-1.6l0,0.1c-0.3,0.7-1.1,1.3-1.7,1.7v0.1c0.7,0.2,1.1-0.5,1.7-0.7
		c0.1,0.4,0.5,0.4,0.8,0.5c0,0,0.1-0.1,0.1-0.2c-0.3-0.2-0.6-0.3-0.7-0.7c0.1-0.4,0.2-0.8,0.5-1C80.2,70.4,80.6,70.6,81,70.6"/>
</g>
<g id="path3107">
	<path  class="st38" d="M75.8,23.3L75.5,23l-0.1,0.2c0.1,0,0,0.1,0,0.2c-0.2-0.4-0.3-1-0.3-1.4
		C75.5,22.4,75.8,22.8,75.8,23.3"/>
</g>
<g id="path3109">
	<path  class="st38" d="M74.7,23.8c0,0.1-0.3-0.2-0.4,0.1v0.2c-0.2-0.2-0.4-0.6-0.3-0.9
		C74.3,23.2,74.5,23.5,74.7,23.8"/>
</g>
<g id="path3111">
	<path  class="st39" d="M66,44.8c0.1,1.1,0.7,2,0.9,3.1c-0.5,0.4-1.1-0.2-1.5,0.4
		c-0.8,1,0.4,2.7-0.9,3.5c-0.7,1.5-0.2,3.5-0.2,5c-0.2,1.1-0.1,2.4,0.2,3.6c-1.1-4.5-3.3-9.3-1.3-14c0.5-0.9,1.4-1.8,2.5-1.8
		L66,44.8"/>
</g>
<g id="path3113">
	<path  class="st39" d="M78.2,22.7c0.1,0.5-0.5,0.9,0,1.2c0.5-0.4,0.5-1.4,1.4-1.5
		c0,0.6-0.3,1.1-0.4,1.7l0.1,0.1c0.6-0.4,0.6-1.2,1.4-1.3c0,0.6-0.4,1.2-0.6,1.7c0.4,0.2,0.5-0.3,0.9-0.5c0.2-0.1,0.4-0.3,0.7-0.2
		c-0.2,0.5-0.9,0.9-0.8,1.4c0.5,0,0.7-0.8,1.3-0.8c-0.2,0.5-1,0.8-0.8,1.4c0.5-0.1,0.8-0.8,1.4-0.7c-0.1,0.5-1.2,0.9-0.9,1.5
		c0.4-0.1,0.6-0.6,1.1-0.5c-0.4,0.3-1.1,0.6-1,1.2c0.5-0.1,1-0.8,1.6-0.6c-0.1,0.2-0.4,0.2-0.3,0.5c0,0.3,0.3,0.2,0.5,0.3
		c-0.4-0.2-0.9,0-1.2,0.2c0.1,0.4,0.6,0.1,0.8,0.3c-0.1,0-0.3,0-0.4,0.1c0.1,0.4,0.6,0.5,1,0.5c0.4,0.2,0.6,0.6,0.8,1
		c-0.7,0-1-0.6-1.6-0.7c-0.1,0-0.2,0.2-0.1,0.3c0.6,0.6,1.6,1,1.7,1.9c-0.6-0.3-1.2-0.8-1.9-0.8c-0.2,0.5,0.5,0.5,0.7,0.8
		c0.3,0.3,0.6,0.7,0.7,1.1c-0.4-0.4-1-1-1.7-0.9c-0.1,0.1,0,0.2,0,0.3c0.1,0.2,0.3,0.1,0.4,0.2c1.1,0.7,0.9,2,1.4,3
		c-1-0.3-1-1.6-2-2c-0.3,0.3,0.4,0.7,0.5,1c0.5,0.9,0.8,2.1,0.3,3.1c-1.4,1.4-3.5,2-3.9,4c-0.6,1.4-2.7,1.2-2.7,2.9
		c-0.3-0.3-0.1-0.8-0.1-1.1c0.5-1,2-0.6,2.3-1.7c-0.1-0.1-0.2-0.1-0.3-0.1c-0.9,0.7-2.5,0.9-2.7,2.4c-0.1,0.4,0.2,0.6,0.3,1
		c-0.5-0.2-0.8-0.8-0.9-1.3c0-0.7,0.4-1.3,1-1.6c1-0.2,2.1-0.4,2.9-1.2c0-0.1,0-0.2-0.1-0.2c-0.6,0.2-1.4,0.4-2.1,0.2
		c-0.7-0.3-1.6,0.1-2.2,0.5c0-0.4,0.4-0.7,0.7-0.9c1.3-0.5,2.5,0.4,3.9,0.2c0.2-0.1,0.3-0.3,0.2-0.6c0.2-0.1,0.6-0.2,0.7-0.5
		c-0.2-0.1-0.7,0-1-0.1c-0.9-0.3-0.8-1.5-1.8-1.5h-0.9c0.3-0.3,0.8-0.3,1.2-0.2c1.1,0.4,1.4,2.2,2.8,1.5c0.2-0.1,0.4-0.1,0.6-0.3
		l-0.2-0.2c-0.5-0.1-1.1,0.1-1.5-0.2c-0.5-0.6-0.5-1.4-1.2-1.8c0.4-0.1,0.8,0.1,1.1,0.3c0.7,0.8,1.5,1.7,2.6,1.3
		c0.1-0.1,0.4-0.1,0.5-0.3l0-0.1c-0.7-0.1-1.8,0.1-2.2-0.8c-0.1-0.2,0-0.3,0.1-0.5c0.5,0.5,1.3,1.3,2.3,1c0.2-0.2,0.8-0.1,0.8-0.6
		c-0.3-0.4-0.6,0.1-0.9,0.1c-0.4,0-0.8,0-1.1-0.3c-0.5-1.3,1.1-2.2,0.9-3.6c0.5-2.7-0.1-6.1-2.7-7.8c-0.7-0.4-1.4-0.7-2.1-0.9
		c-0.2-0.4,0.3-0.7,0.5-0.9c0.1-0.3,0.3-0.5,0.2-0.9C78,22.2,78.1,22.5,78.2,22.7"/>
</g>
<g id="path3115">
	<path  class="st39" d="M78.3,39.4c-1,0.3-1.9-1.4-3.1-0.7c0.5-0.5,1.2-0.5,1.8-0.3
		C77.5,38.6,77.7,39.4,78.3,39.4"/>
</g>
<g id="path3117">
	<path  class="st39" d="M80.1,45.6c-0.2,0.7-0.6,1.8,0,2.6c0.2,0.5,0.7,0.8,1,1.2
		c-0.4,0.7-0.7,1.5-0.2,2.2c0.3,0.6,1.5,0.6,0.8,1.4c-0.2,0.4-0.2,0.8-0.2,1.3c-1.4-3-2.6-6.2-2.5-9.6C79.3,45,79.7,45.5,80.1,45.6"
		/>
</g>
<g id="path3119">
	<path  class="st39" d="M83,56.1c-0.1,0.6-0.7,1.1-0.3,1.7c0.3,0.5,0.7,0.9,1.2,1.2
		c-0.2,0.4-0.3,0.9-0.5,1.4c-0.6-1.8-1-3.7-1.7-5.4C82.1,55.5,82.6,55.7,83,56.1"/>
</g>
<g id="path3121">
	<path  class="st39" d="M84.3,62.4L83.8,63c-0.1-0.5-0.1-1-0.2-1.5C83.8,61.9,84.2,61.9,84.3,62.4"
		/>
</g>
<g id="path3123">
	<path  class="st35" d="M65.5,43.9c-0.2,0,0.2-0.2,0.2-0.4c0-0.2,0.1,0.4,0.1,0.4
		S65.6,43.9,65.5,43.9"/>
</g>
<g id="path3125">
	<path  class="st38" d="M74.8,39.6l0.2-0.2h0.1L74.8,39.6"/>
</g>
<g id="path3127">
	<path  class="st39" d="M77.7,43.4c0.2,0.3,0.1,0.8,0.1,1.2c-0.1,0.2-0.4,0-0.5,0
		c-0.3-0.2-0.5-0.5-0.3-0.9c0.1-0.2,0.2-0.4,0.4-0.5C77.6,43.1,77.6,43.4,77.7,43.4"/>
</g>
<g id="path3129">
	<path  class="st35" d="M76,26.5c0.3-0.1,0.6,0,0.8,0.1c0.1,0.3-0.2,0.3-0.3,0.4
		c-1,0.2-1.8,1.3-3,0.8c0-0.3,0.3-0.5,0.4-0.8c0.2-0.3,0.5-0.5,0.8-0.6C75.2,26.4,75.7,27.1,76,26.5"/>
</g>
<g id="path3131">
	<path  class="st38" d="M83.3,57.3c-0.2-0.7,1.6-1.6,0-1.7c-0.3-0.2-0.7-0.4-0.8-0.8
		c1-0.2,1.9-0.4,3-0.5c0.1,0.1,0.4,0.1,0.5,0.2c0.3,0.1,0.2,0.6,0.2,0.9c-0.3,0.3-0.6,0.6-0.8,0.8c0,0.1-0.2,0.2,0,0.3
		C84.7,56.9,83.5,57.3,83.3,57.3"/>
</g>
<g id="path3133">
	<path  class="st39" d="M86.8,42.1c0.5,0.5,0.8,1.1,1.4,1.4c0.1,0,0.2-0.2,0.3-0.3
		c0.7,0.8,0.9,1.8,1.3,2.8c0.1,0,0.2,0,0.3-0.1c0.3,0.7,0.1,1.4,0.1,2.2c0.5,0.8,0.2,1.9-0.1,2.7c-0.2,0.7-1,0.8-1.2,1.5
		c0.2,0.3,0.4,0,0.7-0.1c0.6-0.1,1,0.1,1.5,0.4c-0.2,0.6-0.6,1.3-1.2,1.6c-0.1,0.1-0.2,0.2-0.1,0.4c0.5,0.4,1.2,0.2,1.6,0.8
		c0.5,0.5,0.7,1.2,1,1.8c-0.5,0.2,0,0.7,0,1.1c-0.1,0.6,0.7,1.3,0,1.7C92.2,60.7,92,61.3,92,62c-0.5,0.6-0.7,1.4-1.5,1.8
		c-0.4,0.3-0.9,0.7-1.2,1.1c-0.2-0.5,0.2-1,0.2-1.6c0.4-1.2,1.1-2.3,0.6-3.7c-0.3-1.3-1.4-2.3-2.7-2.6c-1.2-0.1-2.5-0.1-3.6,0.2
		c-0.2,0-0.4,0.1-0.6,0.1c1-0.4,1.4-0.5,2-0.8c0.5-0.4,1.3-0.7,1.5-1.4c-0.1-0.3-0.1-0.6-0.3-0.9c-0.6-0.6-1.3-0.2-2-0.3L83.3,54
		c1.9-1.3,3.4-3.4,3.8-5.8C87.4,46.2,86.9,44.1,86.8,42.1L86.8,42.1"/>
</g>
<g id="path3135">
	<path  class="st35" d="M87.7,43.6c0.9,2.7,0.6,5.8-0.5,8.3c-0.1,0.2-0.3,0.4-0.5,0.3
		c-0.2-0.4,0.2-0.8,0.4-1.2c0.7-2,1.2-4.3,0.6-6.4c-0.1-0.3-0.2-0.7-0.1-1.1C87.6,43.5,87.7,43.6,87.7,43.6"/>
</g>
<g id="path3137">
	<path  class="st35" d="M89.5,47.6v0.2h-0.1v-0.3C89.4,47.5,89.5,47.5,89.5,47.6"/>
</g>
<g id="path3139">
	<path  class="st35" d="M88.9,51.2c-0.4,0.5-0.5,1.2-1.2,1.3c-0.3-0.6,0.6-0.9,0.8-1.5
		c0.5-0.8,0.7-1.8,0.9-2.8l0.1-0.1C89.5,49.1,89.2,50.2,88.9,51.2"/>
</g>
<g id="path3141">
	<path  class="st35" d="M91.1,56.9c0.5,0.9,0.8,2.1,0.5,3.1c-0.2-0.3,0-0.5-0.2-0.8
		c-0.2-1.3-0.8-2.4-2-3.3c0-0.2,0.1-0.4,0.3-0.3C90.3,55.9,90.7,56.4,91.1,56.9"/>
</g>
<g id="path3143">
	<path  class="st35" d="M90.9,60.8c-0.2,1.1-0.5,2.4-1.1,3.4c-0.1,0-0.1-0.2-0.1-0.3
		c0.1-0.2,0.2-0.5,0.3-0.8c0.2-0.9,0.6-1.7,0.7-2.7c-0.1-1.1-0.6-2.1-1.4-3c-0.1-0.1,0-0.3,0.1-0.3C90.6,57.9,91,59.5,90.9,60.8"/>
</g>
<g id="path3145">
	<path  class="st36" d="M94.8,70c0.2,1.6-1.4,3.1-2.6,3.9l-0.9,0.6c-0.5-1.1-0.9-2.4-1.2-3.6
		c1-0.8,2.2-1.1,3.5-1.4C94,69.7,94.5,69.4,94.8,70L94.8,70z"/>
	<path class="st28" d="M91.3,74.5L91.3,74.5c-0.5-1.1-0.9-2.3-1.2-3.6l0,0l0,0c0.9-0.7,1.9-1,3-1.3c0.2,0,0.3-0.1,0.5-0.1l0,0l0,0
		c0.2,0.1,0.3,0.1,0.5,0.1c0.3,0,0.5,0,0.7,0.4l0,0c0.2,1.6-1.3,3-2.6,3.9L91.3,74.5z M90.1,70.9c0.3,1.3,0.8,2.5,1.2,3.6l0.9-0.6
		c1.3-0.9,2.7-2.4,2.6-3.9c-0.2-0.3-0.4-0.3-0.7-0.4c-0.2,0-0.3,0-0.5-0.1c-0.2,0-0.3,0.1-0.5,0.1C92,69.9,91,70.2,90.1,70.9z"/>
</g>
<g id="path3147">
	<path  class="st36" d="M97.8,72.2c0.5,2.3,2.1,4.4,1.6,7c-1.6,3.5-5.4,5.1-8.6,6.5
		c-0.4,0.1-0.7,0.2-1.1,0.2c-0.9-2.5-1.6-5.1-2.3-7.8c0.3-0.2,0.9-0.1,1.2-0.4c3.4-1.1,7.2-2.9,8.7-6.6
		C97.5,71.5,97.6,71.9,97.8,72.2L97.8,72.2z"/>
	<path class="st28" d="M89.7,86L89.7,86L89.7,86c-1-2.6-1.7-5.3-2.3-7.8l0,0l0,0c0.1-0.1,0.3-0.1,0.5-0.1c0.2,0,0.5-0.1,0.7-0.2
		c3.3-1.1,7.2-2.8,8.7-6.6l0,0l0,0c0.2,0.1,0.3,0.4,0.4,0.6c0,0.1,0.1,0.2,0.1,0.3l0,0h0c0.2,0.8,0.5,1.5,0.8,2.2
		c0.6,1.5,1.2,3,0.9,4.8c-1.5,3.3-5,4.9-8.1,6.3c-0.2,0.1-0.4,0.2-0.5,0.3c-0.1,0-0.2,0.1-0.3,0.1C90.3,85.9,90,86,89.7,86z
		 M87.4,78.3c0.7,2.5,1.4,5.2,2.3,7.7c0.3,0,0.6-0.1,0.8-0.2c0.1,0,0.2-0.1,0.3-0.1c0.2-0.1,0.4-0.2,0.5-0.3c3.1-1.4,6.5-3,8-6.3
		c0.3-1.7-0.3-3.3-0.9-4.7c-0.3-0.7-0.6-1.5-0.8-2.3l0,0c-0.1-0.1-0.1-0.2-0.1-0.3c-0.1-0.2-0.2-0.5-0.4-0.6
		c-1.4,3.7-5.4,5.5-8.7,6.6c-0.2,0.1-0.5,0.2-0.7,0.2C87.7,78.1,87.5,78.2,87.4,78.3z"/>
</g>
<g id="path3149">
	<path  class="st36" d="M84.3,77.9c-0.1,0.2-0.3,0.4-0.5,0.5c-0.4,0.2-0.8,0.5-1.2,0.7
		C82.9,78.7,83.6,78.1,84.3,77.9z"/>
	<path class="st36" d="M82.6,79.1L82.6,79.1c0.3-0.4,1-1,1.7-1.2l0,0l0,0c0,0.2-0.3,0.4-0.5,0.5c0,0-0.1,0.1-0.1,0.1
		C83.3,78.7,83,78.9,82.6,79.1L82.6,79.1z M84.3,77.9c-0.6,0.2-1.4,0.8-1.6,1.1c0.4-0.1,0.7-0.3,1-0.6c0,0,0.1-0.1,0.1-0.1
		C84,78.3,84.2,78.1,84.3,77.9z"/>
</g>
<g id="path3151">
	<path  class="st36" d="M21.9,83.4c4.1,1.2,8.2,2.5,12.5,3.3c3.4,0.9,7.1,1.2,10.8,1.5
		c5.4,0.7,10.8-0.1,15.9-0.7c4-0.6,7.8-1.5,11.6-2.6c4.5-1.3,9-2.3,12.9-4.9l1-1.1l0.2,0.2c0.7,2.9,1.7,5.7,2.7,8.5
		c0.2,1,0.5,2.3-0.4,3.1c-6.7,3.8-14.1,5.6-21.7,7.3c-1.5,0.2-3.2,0.5-4.7,0.7c-5.5,0.7-11.6,0.8-17.3,0.7c-2-0.1-3.8-0.2-5.7-0.5
		c-2.8-0.1-5.5-0.7-8.2-1.2c-7.1-1.5-14.2-3.4-20.5-6.9c-0.8-0.6-1-1.4-0.8-2.3c0.7-2.7,1.8-5.3,2.6-8c0.2-0.6,0.3-1.3,0.6-1.8
		C15.7,81.4,18.9,82.3,21.9,83.4L21.9,83.4z"/>
	<path class="st28" d="M49.4,99.5c-1.3,0-2.6,0-4-0.1c-2.2-0.1-4.1-0.3-5.7-0.5c-2.2-0.1-4.4-0.5-6.5-0.9c-0.6-0.1-1.1-0.2-1.7-0.3
		c-3-0.6-6.8-1.5-10.6-2.7c-3.8-1.2-7.1-2.6-10-4.2c-0.7-0.5-1-1.3-0.8-2.3c0.4-1.4,0.9-2.8,1.3-4.1c0.4-1.2,0.9-2.5,1.2-3.8
		c0-0.1,0.1-0.2,0.1-0.4c0.1-0.5,0.3-1,0.5-1.5l0,0l0,0c2.1,2.3,4.9,3.3,7.5,4.2c0.3,0.1,0.7,0.2,1,0.3c0.5,0.1,0.9,0.3,1.4,0.4
		c3.6,1.1,7.3,2.1,11.1,2.9c2.9,0.8,6.2,1.1,9.4,1.4c0.5,0,1,0.1,1.5,0.1c4.5,0.6,9.1,0.1,13.5-0.4c0.8-0.1,1.6-0.2,2.4-0.3
		c3.6-0.5,7.4-1.3,11.6-2.6c0.5-0.1,1-0.3,1.5-0.4c3.9-1.1,7.9-2.2,11.4-4.5l1-1.1l0,0l0.2,0.2c0.8,3,1.8,5.9,2.7,8.6
		c0.3,1.2,0.4,2.4-0.4,3.1c-6.7,3.8-14.1,5.6-21.7,7.3c-1,0.1-2,0.3-3,0.4c-0.6,0.1-1.2,0.2-1.7,0.3C58.8,99.2,54.3,99.5,49.4,99.5z
		 M13.4,78.8c-0.3,0.5-0.4,0.9-0.5,1.5c0,0.1-0.1,0.2-0.1,0.4c-0.4,1.3-0.8,2.6-1.2,3.8c-0.5,1.3-0.9,2.7-1.3,4.1
		c-0.2,1,0.1,1.7,0.8,2.3c6.3,3.5,13.6,5.4,20.5,6.9c0.6,0.1,1.1,0.2,1.7,0.3c2.1,0.4,4.2,0.8,6.5,0.9c1.6,0.2,3.5,0.4,5.7,0.5
		c6.5,0.2,12.4-0.1,17.3-0.7c0.6-0.1,1.2-0.2,1.7-0.3c1-0.2,2-0.3,3-0.4c7.6-1.7,15-3.5,21.7-7.3c0.8-0.7,0.7-1.9,0.4-3.1
		c-1-2.7-1.9-5.5-2.7-8.5l-0.2-0.2l-1,1.1c-3.5,2.3-7.5,3.4-11.4,4.5c-0.5,0.1-1,0.3-1.5,0.4c-4.3,1.2-8.1,2-11.6,2.6
		c-0.8,0.1-1.6,0.2-2.4,0.3c-4.4,0.5-9,1-13.5,0.4c-0.5,0-1-0.1-1.5-0.1c-3.2-0.3-6.4-0.6-9.4-1.4c-3.8-0.7-7.5-1.8-11.1-2.9
		c-0.5-0.1-0.9-0.3-1.4-0.4l0,0c-0.3-0.1-0.7-0.2-1-0.3C18.2,82.1,15.5,81.1,13.4,78.8z"/>
</g>
<g id="path3153">
	<path  class="st36" d="M78.6,79.1c-0.9,0.5-1.8,0.7-2.8,0.7c-0.1-0.3,0.4-0.2,0.5-0.4
		C77.1,79.1,77.7,79.1,78.6,79.1z"/>
	<path class="st36" d="M76.1,79.7c-0.1,0-0.2,0-0.4,0h0l0,0c0-0.1,0-0.1,0-0.1c0-0.1,0.1-0.1,0.2-0.1c0.1,0,0.2-0.1,0.3-0.1l0,0
		c0.7-0.2,1.2-0.2,1.9-0.3c0.1,0,0.3,0,0.4,0l0,0C77.8,79.5,77,79.7,76.1,79.7z M75.8,79.7c0.1,0,0.2,0,0.4,0c0.9,0,1.7-0.2,2.4-0.7
		c-0.1,0-0.2,0-0.4,0c-0.7,0-1.2,0.1-1.9,0.2c-0.1,0.1-0.2,0.1-0.3,0.1c-0.1,0-0.2,0.1-0.2,0.1C75.8,79.6,75.8,79.7,75.8,79.7z"/>
</g>
<g id="path3155">
	<path  class="st36" d="M75.2,81.9c-0.2,0.1-0.8,0.3-1.3,0.3c-0.1-0.1-0.1-0.4-0.1-0.6L75.2,81.9z"
		/>
	<path class="st36" d="M73.9,82.2L73.9,82.2L73.9,82.2c-0.1-0.1-0.1-0.4-0.1-0.5c0,0,0-0.1,0-0.1v0l0,0l1.4,0.3l0,0
		C75,82.1,74.4,82.2,73.9,82.2z M73.8,81.6C73.8,81.6,73.8,81.7,73.8,81.6c0,0.2,0,0.5,0.1,0.6c0.5,0,1-0.2,1.2-0.3L73.8,81.6z"/>
</g>
<g id="path3157">
	<path  class="st39" d="M96.4,68.7c0.9,2-0.4,4-1.8,5.4c-1.8,1.6-4.1,2.6-6.3,3.3l-1.1,0.1
		c0.1-0.2-0.2-0.4-0.1-0.6c3.2-1,6.5-2.4,8.3-5.6c0.2-0.5,0.3-1.2,0-1.7C94.8,68.7,94,69,93.2,69c-1.3,0.4-2.6,0.7-3.6,1.5l-0.1,0.3
		c0.5,1.3,0.9,2.6,1.3,4c-0.2,0.2-0.6,0.3-0.9,0.4c-0.5-0.8-0.6-1.9-1.1-2.7c0-0.9-1.4-2.1-0.1-2.8c1.8-1,3.9-1.7,6-1.9
		C95.2,67.8,95.9,68.1,96.4,68.7"/>
</g>
<g id="path3159">
	<path  class="st39" d="M22.7,80.2c0.9,0.2,2,0.4,2.7-0.3c0.2-0.5-0.4-0.8-0.7-1
		c-1.4-0.7-3.1-0.6-4.7-0.7c-0.2-0.2-0.5-0.3-0.7-0.6c1.9-0.2,4,0.1,5.8,0.5c0.6,0.4,1.5,0.5,1.7,1.4c0.1,0.6-0.2,1.1-0.6,1.3
		c-1.4,0.6-2.7,0.2-4.2,0c-1.5-0.3-2.7-1.1-3.8-2.3c-0.9-0.8-1.8-1.9-3-1.5c-0.2,0.2-0.2,0.6-0.1,0.9l0.3,0.4
		c1.9,1.5,4.2,2.4,6.4,3.1c0.8,0.2,1.7,0.6,2.6,0.9c5.5,1.4,10.7,3.1,16.5,3.7c2.4,0.4,5.3,0.5,7.7,0.8l0.1-0.1
		c7.2,0,13.7-0.8,20.4-2.5c1.4-0.4,2.7-0.8,4.2-1.1c3.2-0.8,6.5-1.9,9.6-3.4c0.9-0.7,2.7-1,2.4-2.5c-0.2-0.4-0.7-0.3-1.1-0.3
		c-2,0.9-3.1,3.4-5.4,3.7c-1.8,0.2-3.9,1.1-5.2-0.6c0-0.4,0-0.9,0.2-1.2c1.2-1.1,2.8-1.2,4.4-1.4H81c-0.5,1.3-1.9,0.4-2.7,0.7
		c-1.1,0.2-2.3,0.2-3.2,1c-0.1,0.2-0.3,0.5,0,0.7c1.2,0.9,2.8,0.1,4.1-0.3c2.2-1.1,3.8-4.3,6.7-3.3c0.4,0.1,0.6,0.6,0.7,0.9
		c0,0.9-0.7,1.7-1.4,2.2c-1.7,1.3-3.6,2-5.6,2.8c-6.7,2.2-13.8,3.9-21,4.8c-2.1,0.1-4.2,0.4-6.3,0.5c-5.1,0-10-0.3-15-1.2
		c-0.4,0.1-0.8-0.2-1.2-0.1c-6.4-1.4-12.8-2.8-18.8-5.5C15.8,80,13.4,79,13.7,77c0.3-0.6,0.8-0.8,1.4-0.9
		C18.2,76.2,19.8,79.7,22.7,80.2"/>
</g>
<g id="path3161">
	<path  class="st36" d="M10.1,70.8l-1.2,3.5c-1.5-0.7-2.9-2-3.6-3.7c0-0.3,0-0.7,0.2-1
		c1-0.5,2,0,2.9,0.2C9,70.1,9.6,70.5,10.1,70.8z"/>
	<path class="st28" d="M8.9,74.3L8.9,74.3c-1.7-0.8-3-2.2-3.6-3.7c0-0.4,0-0.7,0.2-1c0.8-0.4,1.7-0.1,2.4,0.1
		c0.2,0.1,0.3,0.1,0.5,0.1c0.5,0.2,1.1,0.5,1.7,0.9l0,0l0,0L8.9,74.3z M6.4,69.5c-0.3,0-0.6,0.1-0.9,0.2c-0.2,0.3-0.2,0.6-0.2,1
		c0.6,1.5,1.9,2.9,3.5,3.7l1.2-3.5c-0.6-0.4-1.2-0.7-1.7-0.9c-0.2,0-0.3-0.1-0.5-0.1C7.4,69.6,6.9,69.5,6.4,69.5z"/>
</g>
<g id="path3163">
	<path  class="st36" d="M4.1,73.4c2.2,2.7,5.5,3.7,8.6,4.7c-0.1,0.9-0.5,1.8-0.7,2.7
		c-0.4,1.4-0.9,2.9-1.4,4.3c-0.3,0.2,0,1.1-0.7,0.8c-2.9-1-5.7-2.4-8-4.7c-1-1.1-1.9-2.5-1.4-4.1c0.5-1.9,1.4-3.7,2-5.7l0.2-0.4
		C3.1,71.9,3.5,72.7,4.1,73.4L4.1,73.4z"/>
	<path class="st28" d="M10.2,86c-0.1,0-0.2,0-0.3-0.1c-3.4-1.1-6-2.6-8-4.7c-0.9-1.1-2-2.5-1.4-4.1c0.3-1,0.7-2,1-3
		c0.3-0.9,0.7-1.8,1-2.7l0.2-0.4l0,0c0.3,0.8,0.7,1.6,1.3,2.3l0,0c2.1,2.6,5.1,3.6,8,4.5c0.2,0.1,0.4,0.1,0.6,0.2l0,0v0
		c0,0.5-0.2,1.1-0.4,1.6c-0.1,0.3-0.2,0.7-0.3,1.1c-0.4,1.4-0.9,2.8-1.3,4.2l0,0.1c-0.1,0.1-0.1,0.3-0.2,0.4
		C10.5,85.8,10.4,85.9,10.2,86C10.3,86,10.3,86,10.2,86z M2.8,71.1l-0.2,0.4c-0.3,0.9-0.6,1.8-1,2.7c-0.4,1-0.8,2-1,3
		c-0.6,1.6,0.5,3,1.4,4c2,2.1,4.7,3.6,8,4.7c0.1,0.1,0.3,0.1,0.3,0.1c0.1-0.1,0.1-0.2,0.2-0.4s0.1-0.3,0.2-0.4l0-0.1
		c0.4-1.4,0.9-2.8,1.3-4.2c0.1-0.4,0.2-0.7,0.3-1.1c0.2-0.5,0.3-1.1,0.4-1.6c-0.2-0.1-0.4-0.1-0.6-0.2c-2.9-1-5.9-2-8-4.5l0,0
		C3.5,72.7,3.1,71.9,2.8,71.1z"/>
</g>
<g id="path3165">
	<path  class="st36" d="M17.6,79c-0.6-0.2-1.4-0.7-1.6-1.2C16.6,78,17.1,78.5,17.6,79z"/>
	<path class="st36" d="M17.5,79c-0.5-0.2-1.4-0.6-1.6-1.2l0,0l0,0c0.6,0.2,1.1,0.7,1.5,1.1C17.5,78.9,17.5,79,17.5,79L17.5,79z
		 M15.9,77.8c0.2,0.6,1.1,1,1.6,1.2c0,0-0.1-0.1-0.1-0.1C17,78.5,16.5,78,15.9,77.8z"/>
</g>
<g id="path3167">
	<path  class="st36" d="M24.4,79.5c0,0.3-0.4,0.1-0.5,0.2c-0.7-0.1-1.6-0.2-2.2-0.7
		C22.7,79.1,23.6,79.1,24.4,79.5L24.4,79.5z"/>
	<path class="st36" d="M23.9,79.7L23.9,79.7c-0.1,0-0.3-0.1-0.4-0.1c-0.6-0.1-1.3-0.2-1.8-0.6l0,0l0,0c0.1,0,0.2,0,0.3,0
		c0.9,0,1.7,0.1,2.4,0.5l0,0v0c0,0.1,0,0.1,0,0.1c-0.1,0-0.1,0-0.2,0C24,79.7,24,79.7,23.9,79.7L23.9,79.7z M21.7,79
		c0.5,0.4,1.2,0.5,1.7,0.6c0.1,0,0.3,0.1,0.4,0.1c0.1,0,0.2,0,0.2,0c0.1,0,0.2,0,0.2,0c0,0,0-0.1,0-0.1c-0.7-0.4-1.5-0.5-2.4-0.5
		C21.9,79,21.8,79,21.7,79z"/>
</g>
<g id="path3169">
	<path  class="st36" d="M26.4,81.6c-0.1,0.2,0,0.6-0.2,0.7L25,81.9C25.4,81.7,25.9,81.7,26.4,81.6z
		"/>
	<path class="st36" d="M26.2,82.2L26.2,82.2l-1.2-0.4l0,0c0.3-0.1,0.5-0.1,0.8-0.2c0.2,0,0.4-0.1,0.6-0.1l0,0l0,0
		c0,0.1,0,0.2-0.1,0.3C26.3,82,26.3,82.2,26.2,82.2L26.2,82.2z M25,81.9l1.2,0.3c0.1-0.1,0.2-0.2,0.2-0.4c0-0.1,0-0.2,0-0.3
		c-0.2,0.1-0.4,0.1-0.6,0.1C25.5,81.8,25.3,81.8,25,81.9z"/>
</g>
<g id="path3171">
	<path  class="st39" d="M9.9,68.7c0.8,0.4,1.6,0.6,2.3,1.3c-0.2,1.1-0.7,2-1,3
		c-0.3,0.7-0.4,1.4-0.8,2.1c-0.3-0.1-0.6-0.3-0.9-0.4c0.1-0.6,0.4-1.3,0.5-1.9c0.3-0.6,0.6-1.2,0.7-1.9c0.1-0.5-0.4-0.7-0.8-0.9
		c-1.3-0.8-3-1.3-4.5-1.1c-0.4,0.1-0.7,0.4-0.9,0.8c-0.3,2.3,1.8,3.8,3.5,5c1.5,0.9,3.2,1.6,4.9,2.2c0.1,0.2,0,0.5-0.1,0.7
		c-2-0.4-3.9-1.2-5.6-2.2c-2.2-1.2-4.2-3.4-3.8-5.9c0.1-0.8,0.9-1.5,1.7-1.6C6.8,67.6,8.4,68.2,9.9,68.7"/>
</g>
<g id="path3173">
	<path  class="st35" d="M13.4,89c0.4,0.1,0.6,0.1,0.8-0.3l1.3-3.2c-0.2-0.6-0.3-0.7-0.4-0.7
		l0.1-0.2l1.4,0.6l1.2,3.9l0,0l0.8-2.1c0.2-0.4,0.2-0.7-0.4-0.9l0.1-0.2l1.5,0.6l-0.1,0.2c-0.5-0.1-0.6,0-0.8,0.3l-1.6,4l-0.2-0.1
		l-1.5-4.9l0,0l-1.1,2.7c-0.2,0.5-0.1,0.7,0.4,0.9l-0.1,0.2l-1.6-0.6L13.4,89"/>
</g>
<g id="path3175">
	<path  class="st35" d="M20,86.5l4,1.3l-0.5,1.4l-0.2-0.1c0.2-1.1-0.3-1.4-1.2-1.7
		c-0.4-0.1-0.5-0.1-0.6,0.2L21,89.2c0.7,0.2,1.1,0.2,1.5-0.7l0.2,0.1L21.9,91l-0.2-0.1c0.2-0.9-0.1-1.2-0.8-1.5l-0.5,1.7
		c-0.1,0.3,0,0.4,0.5,0.6c0.7,0.2,1.5,0.3,2.2-0.6l0.2,0.1l-0.8,1.4l-4.1-1.3l0.1-0.2c0.4,0.1,0.6,0.1,0.8-0.3l1.1-3.4
		c0.2-0.5-0.1-0.6-0.5-0.7L20,86.5"/>
</g>
<g id="path3177">
	<path  class="st35" d="M31,89.7c-0.3,0-0.5,0.1-0.6,0.3L28,94l-0.2,0l-0.4-3.6l0,0l-2.1,3.1
		l-0.2,0l-0.5-4.7c0-0.4-0.1-0.5-0.4-0.6l0-0.2l2.1,0.5l0,0.2c-0.3,0-0.5-0.1-0.5,0.2c0,0.1,0,0.2,0,0.2l0.3,2.8l0,0l1.3-2l-0.1-0.7
		c-0.1-0.2-0.1-0.3-0.5-0.4l0-0.2L29,89l0,0.2c-0.3-0.1-0.5-0.1-0.6,0.2c0,0.1,0,0.3,0,0.4l0.2,2.6l0,0l1.4-2.3
		c0-0.1,0.1-0.1,0.1-0.3c0.1-0.3-0.2-0.4-0.4-0.4l0-0.2l1.3,0.3L31,89.7"/>
</g>
<g id="path3179">
	<path  class="st35" d="M34.9,94.2c-0.6,0.5-1.3,0.9-2.2,0.7c-1.7-0.3-2.4-1.6-2.2-3
		c0.2-1.5,1.5-2.4,3-2.2c0.7,0.1,1.2,0.5,1.3,0.6c0.2,0,0.3-0.1,0.4-0.3l0.2,0l-0.3,1.7l-0.2,0c-0.2-0.7-0.6-1.6-1.5-1.8
		c-1.1-0.2-1.5,0.9-1.7,2.1c-0.1,0.4-0.1,1.1,0.1,1.7c0.2,0.6,0.8,0.8,1,0.8c0.6,0.1,1.1,0,1.9-0.6L34.9,94.2"/>
</g>
<g id="path3181">
	<path  class="st35" d="M39.6,95.8l-2.4-0.3l0-0.2c0.5,0,0.6,0,0.6-0.2c0-0.2-0.1-0.8-0.2-1
		L36,93.9c-0.3,0.5-0.4,0.8-0.4,0.9c0,0.3,0.3,0.3,0.6,0.4l0,0.2l-1.5-0.2l0-0.2c0.4,0,0.5-0.2,0.8-0.8l2.1-3.8l0.2,0l1.2,4
		c0.2,0.8,0.3,1.1,0.7,1.1L39.6,95.8z M37.5,93.8L37,91.9l-0.9,1.7L37.5,93.8"/>
</g>
<g id="path3183">
	<path  class="st35" d="M43.2,92.5c-0.1-0.5-0.5-1.4-1.3-1.5c-0.4,0-0.8,0.2-0.8,0.6
		c0,0.4,0.1,0.6,0.7,0.9l1,0.6c0.2,0.1,0.8,0.6,0.7,1.4c0,0.6-0.6,1.5-1.9,1.4c-0.7-0.1-1-0.3-1.2-0.3c-0.2,0-0.2,0.1-0.2,0.2
		l-0.2,0l0.1-1.8l0.2,0c0.1,0.8,0.5,1.6,1.4,1.7c0.9,0.1,1-0.7,1-0.8c0-0.5-0.3-0.7-0.8-1l-0.5-0.3c-1.2-0.7-1.2-1.3-1.1-1.7
		c0-0.4,0.3-1.4,1.7-1.3c0.6,0,0.9,0.3,1.1,0.3c0.2,0,0.2-0.1,0.3-0.2l0.2,0l-0.1,1.6L43.2,92.5"/>
</g>
<g id="path3185">
	<path  class="st35" d="M47.2,96.2l-2.6-0.1l0-0.2c0.5,0,0.7,0,0.7-0.7l0.1-3.9
		c-0.5,0-1.3,0-1.5,1.2l-0.2,0l0.1-1.5l4.4,0.2l0,1.5l-0.2,0c-0.1-1.2-0.9-1.2-1.4-1.3l-0.1,3.9c0,0.6,0.2,0.6,0.7,0.7L47.2,96.2"/>
</g>
<g id="path3187">
	<path  class="st35" d="M52.8,96.2h-4.3V96c0.4-0.1,0.6-0.1,0.6-0.5V92c0-0.5-0.3-0.5-0.6-0.5v-0.2
		h2.6v0.2c-0.5,0-0.7,0-0.7,0.7v3.5c0,0.4,0.2,0.4,0.7,0.4c1.1,0,1.5-0.6,1.9-1.4h0.2L52.8,96.2"/>
</g>
<g id="path3189">
	<path  class="st35" d="M52.9,91.2l4.2-0.2l0.1,1.5l-0.2,0c-0.2-1-0.8-1.2-1.8-1.1
		c-0.4,0-0.5,0.1-0.5,0.4l0.1,1.7c0.7,0,1.1-0.2,1.1-1.2l0.2,0l0.1,2.5l-0.2,0c-0.1-0.9-0.5-1.1-1.3-1.1l0.1,1.8
		c0,0.3,0.2,0.4,0.6,0.4c0.7,0,1.5-0.3,1.9-1.4l0.2,0L57.5,96l-4.3,0.2l0-0.2c0.4-0.1,0.6-0.1,0.6-0.6l-0.2-3.6
		c0-0.5-0.3-0.5-0.7-0.5L52.9,91.2"/>
</g>
<g id="path3191">
	<path  class="st35" d="M64,90.6c-0.4,0.1-0.6,0.2-0.5,0.7l0.2,2.3c0,0.4,0,1.1-0.3,1.5
		c-0.3,0.4-0.9,0.6-1.4,0.7c-0.3,0-1,0.1-1.5-0.3c-0.3-0.2-0.6-0.5-0.6-1.3l-0.3-2.4c-0.1-0.6-0.3-0.6-0.7-0.6l0-0.2l2.5-0.3l0,0.2
		c-0.5,0.1-0.7,0.1-0.6,0.8l0.3,2.4c0,0.4,0.2,1.4,1.2,1.3c1.3-0.1,1.2-1.3,1.1-1.7l-0.2-2.2c0-0.4-0.2-0.7-0.8-0.7l0-0.2l1.6-0.2
		L64,90.6"/>
</g>
<g id="path3193">
	<path  class="st35" d="M64.7,95.1c0.4-0.1,0.6-0.2,0.5-0.7L64.7,91c-0.5-0.4-0.6-0.4-0.7-0.4
		l0-0.2l1.5-0.2l3,2.7l0,0l-0.3-2.2c-0.1-0.4-0.2-0.7-0.8-0.6l0-0.2l1.6-0.2l0,0.2c-0.5,0.1-0.5,0.3-0.5,0.7l0.7,4.3l-0.2,0
		l-3.9-3.4l0,0l0.5,2.9c0.1,0.5,0.3,0.6,0.8,0.6l0,0.2l-1.7,0.3L64.7,95.1"/>
</g>
<g id="path3195">
	<path  class="st35" d="M72.6,93.8L70,94.4l0-0.2c0.4-0.1,0.7-0.2,0.6-0.7L69.8,90
		c-0.1-0.5-0.4-0.4-0.8-0.4l0-0.2l2.5-0.5l0,0.2c-0.3,0.1-0.7,0.2-0.6,0.7l0.7,3.5c0.1,0.5,0.4,0.4,0.8,0.4L72.6,93.8"/>
</g>
<g id="path3197">
	<path  class="st35" d="M76.4,92.8l-2.5,0.7l0-0.2c0.5-0.2,0.7-0.2,0.5-0.8l-1-3.8
		c-0.5,0.2-1.2,0.4-1.1,1.6L72,90.4l-0.4-1.4l4.3-1.1l0.4,1.4l-0.2,0.1c-0.4-1.1-1.2-0.9-1.7-0.8l1,3.8c0.2,0.6,0.3,0.6,0.9,0.5
		L76.4,92.8"/>
</g>
<g id="path3199">
	<path  class="st35" d="M76.2,87.7l4-1.4l0.5,1.4l-0.2,0.1c-0.5-0.9-1.1-0.9-2-0.6
		c-0.4,0.1-0.5,0.2-0.4,0.5l0.6,1.6c0.7-0.2,1-0.5,0.8-1.4l0.2-0.1l0.8,2.4l-0.2,0.1c-0.4-0.8-0.8-0.9-1.5-0.7l0.6,1.7
		c0.1,0.3,0.3,0.3,0.7,0.2c0.7-0.2,1.3-0.7,1.4-1.9l0.2-0.1l0.2,1.5l-4.1,1.4l-0.1-0.2c0.4-0.2,0.6-0.3,0.4-0.7l-1.2-3.4
		c-0.2-0.5-0.5-0.4-0.8-0.3L76.2,87.7"/>
</g>
<g id="path3201">
	<path  class="st35" d="M82.6,90.5c0.4-0.2,0.5-0.4,0.4-0.7l-1.5-3.3c-0.2-0.4-0.5-0.3-0.8-0.2
		l-0.1-0.2l2.1-0.9c1.9-0.8,3,0.1,3.5,1.1c0.5,1.2,0.3,2.6-1.4,3.4l-2.1,0.9L82.6,90.5L82.6,90.5z M84,89.4c0.1,0.3,0.2,0.4,0.6,0.2
		c0.8-0.3,1.2-1,0.4-2.6c-0.3-0.6-1.1-2-2.2-1.5c-0.4,0.2-0.4,0.4-0.3,0.5L84,89.4"/>
</g>
<g id="path3203">
	<path  class="st35" d="M25.1,26.7c0.3-0.3,0.7-0.3,1-0.1c0.4,0.3,0.6,0.8,0.9,1.2
		c-0.5,0-1.3,0.3-1.8-0.1c-0.4-0.4-1-0.6-1.5-0.8c0-0.1-0.1-0.2,0-0.3c0.1-0.2,0.4-0.2,0.7-0.2C24.6,26.6,24.8,26.9,25.1,26.7"/>
</g>
<g id="path3205">
	<path  class="st35" d="M29.7,30.4c0,0.1-0.1,0.1-0.1,0.2c0.2,0,0.5,0,0.7,0.1
		c0.3,0.3,0.1,0.6,0.1,0.9c-0.1,0.2-0.4,0.1-0.6,0c-0.2-0.1-0.2-0.4-0.4-0.5c-0.1,0.1,0,0.4-0.2,0.3c-0.2-0.3-0.4-0.7-0.6-1.1
		c0.1,0,0.4,0.2,0.6,0c0.1-0.1,0.3-0.3,0.5-0.3C29.8,30.2,29.7,30.4,29.7,30.4"/>
</g>
<g id="path3207">
	<path  class="st28" d="M26.3,27.6l-0.5,0.1c-0.1,0-0.3,0-0.4-0.2c0,0-0.1-0.1-0.1-0.1
		c0.1,0,0.1,0,0.2-0.1c0,0,0.1,0.3,0.4,0.3c0.2,0,0.3-0.2,0.3-0.2L26.3,27.6"/>
</g>
<g id="path3209">
	<path  class="st35" d="M71.7,30.4h0.1c-0.1,0.3-0.4,0.7-0.5,1c-0.2,0.1-0.2-0.2-0.3-0.4
		c-0.2,0.2-0.2,0.5-0.5,0.7c-0.2,0-0.4,0-0.5-0.1c0.1-0.3-0.2-0.9,0.3-1c0.1,0,0.2-0.1,0.4-0.1l0.1,0.1c0.1-0.1-0.1-0.3-0.1-0.5
		C71.2,30,71.4,30.8,71.7,30.4"/>
</g>
<g id="path3211">
	<path  class="st28" d="M74,27.6c0,0,0.2,0.1,0.4,0.1c0.2,0,0.4,0,0.6-0.2c0,0,0.1-0.1,0.1-0.1
		c-0.1,0-0.1,0-0.2-0.1c0,0-0.1,0.3-0.4,0.3c-0.2,0-0.3-0.2-0.3-0.2L74,27.6"/>
</g>
<g id="path3213">
	<path  class="st38" d="M25.9,39.9c-0.2-0.2-0.5-0.3-0.8-0.5C25.5,39.5,25.8,39.6,25.9,39.9"/>
</g>
<g id="path3215">
	<path  class="st39" d="M23.4,23.6v0.2c-1.9,0.5-3.9,2-4.5,4c-0.8,2.4-0.7,5.5,0.7,7.6
		c0.1,0.5-0.1,0.8-0.4,1c-0.5,0.2-1.1,0.1-1.5-0.1c-0.1,0-0.3,0-0.3,0.1c0.1,0.6,0.7,0.5,1.2,0.7c0.8,0,1.5-0.5,1.9-1.1
		c0.2,0.2,0,0.5,0,0.7c-0.4,0.9-1.6,0.4-2.2,0.8c0.3,0.6,1.1,0.3,1.5,0.4c1.1-0.3,1.4-1.9,2.7-1.6c-1.1,0.5-0.5,2.1-1.9,2.1
		c-0.3,0-0.7-0.2-1,0.1c0.4,0.4,1,0.6,1.5,0.4c1.1-0.3,1.4-2.1,2.8-1.6c0.1,0.1,0.2,0.2,0.4,0.2c-0.6,0-1.2,0-1.7,0.4
		c-0.5,0.4-0.6,1.4-1.4,1.3c-0.3,0.1-0.7-0.3-0.8,0.1c0.2,0.4,1,0.2,0.7,0.8c0.6,0.5,1.5,0.2,2.1,0l0.1,0.1c0.3-0.1,0.7-0.2,1-0.3
		c0.6,0.1,1.3,0.2,1.5,0.9l0.1,0.3c-0.8-0.5-1.9-0.8-2.7-0.4c-0.7,0-1.1-0.1-1.7-0.3c-0.1,0.1-0.1,0.2,0,0.3
		c1.2,1.5,4.3,0.5,3.9,3.2c-0.2,0.3-0.4,0.7-0.8,0.9c0.2-0.4,0.3-0.9,0.2-1.3c-0.4-1.3-1.8-1.3-2.7-2c-0.1,0-0.2,0-0.2,0.1
		c-0.1,0.4,0.4,0.5,0.6,0.7c0.6,0.3,1.5,0.3,1.8,1.2c0,0.3,0.1,0.7-0.1,0.9c0-0.6-0.6-1.3-1.2-1.7c-0.9-0.3-1.6-1.1-1.8-2
		c-0.7-1.6-2.7-1.8-3.7-3.3c-0.6-1.4,0.2-2.7,1-3.7c0-0.1,0-0.3-0.2-0.3c-0.9,0.4-0.9,1.7-1.9,2c0.5-1.1,0.3-2.7,1.7-3.1
		c0.1-0.1,0.1-0.2,0.1-0.3c-0.4-0.3-0.9,0.2-1.3,0.4c-0.2,0.1-0.3,0.4-0.6,0.5c0.2-0.6,0.8-1.3,1.4-1.4c0.1-0.1,0.2-0.2,0.2-0.3
		c-0.2-0.2-0.5,0-0.8,0l-1.2,0.7c-0.1-1,1.2-1.3,1.7-2.1c-0.4-0.2-0.8,0.3-1.2,0.4L15.8,30c0-0.2,0.3-0.5,0.5-0.8
		c0.4-0.2,0.9-0.3,1.3-0.5c0.1-0.1-0.1-0.2-0.1-0.3h-0.2c0.2-0.2,0.7,0,0.8-0.3c-0.3-0.2-0.7-0.4-1.1-0.3c0,0,0.6-0.1,0.5-0.4
		c-0.1-0.1-0.2-0.3-0.4-0.3V27c0.6-0.1,1.1,0.4,1.6,0.6c0.1,0,0.1-0.1,0.1-0.2c-0.2-0.5-0.7-0.7-1.1-0.9c0.4-0.2,0.7,0.3,1.1,0.4
		c0.3-0.7-0.6-0.8-0.9-1.4c0.6-0.3,0.9,0.5,1.4,0.7c0.2-0.1,0.1-0.3,0.1-0.4c-0.2-0.4-0.6-0.6-0.9-1c0.5-0.1,0.8,0.6,1.3,0.8
		c0.1-0.1,0-0.4-0.1-0.6c-0.3-0.2-0.4-0.6-0.7-0.9c0.6,0,1,0.6,1.5,0.8c0-0.6-0.7-1.1-0.6-1.8c0.8,0,0.8,1,1.4,1.3
		c0.1-0.6-0.3-1.1-0.4-1.7c0.2-0.1,0.5,0.2,0.8,0.3c0.3,0.3,0.2,1.3,0.8,1c-0.2-0.5-0.3-1.3,0.1-1.7C22.7,22.6,22.9,23.2,23.4,23.6"
		/>
</g>
<g id="path3217">
	<path  class="st39" d="M25.2,38.8c0,0.1-0.1,0-0.3,0c-0.5-0.1-1,0.1-1.5,0.3
		c-0.4,0.2-0.8,0.5-1.2,0.4c0.7-0.4,1.3-1.5,2.5-1L25.2,38.8"/>
</g>
<g id="path3219">
	<path  class="st39" d="M23.5,43.7c0.1,0.3,0.1,0.8-0.3,0.9c-0.1,0.1-0.3,0.2-0.5,0.1
		c-0.1-0.5,0-1.2,0.4-1.5C23.3,43.3,23.4,43.6,23.5,43.7"/>
</g>
<g id="path3221">
	<path  class="st38" d="M23.1,51.6c1.3,0.8,2.7,1.5,4.2,1.5c1.1,0.3,2.4,0,3.5-0.1
		c-0.3,1-1.2,1.7-2.2,2c-2.1,0.3-4.2,0-5.9-1.1c-0.7-0.6-1.8-1.3-1.4-2.4c0.2-0.3,0.2-1,0.7-0.8C22.3,51.1,22.7,51.4,23.1,51.6"/>
</g>
<g id="path3223">
	<path  class="st38" d="M28.6,55.5l0.7-0.2c0,0.4-0.6,0.8-0.8,1.2c-1.3,0.8-2.9,0.9-4.4,0.6
		c-1.5-0.3-3.1-0.9-3.8-2.3c-0.2-0.7,0.1-1.4,0.5-1.9C22.9,55.2,25.8,56,28.6,55.5"/>
</g>
<g id="path3225">
	<path  class="st38" d="M26.4,57.7c0.3-0.1,0.6,0,0.9-0.1c0.1,0,0-0.1,0.1-0.1h0.1
		c-0.4,1.1-1.4,1.7-2.6,1.8c-1.9,0.1-3.6-0.5-5-1.7c-0.2-0.5-0.8-0.9-0.6-1.5c0.2-0.3,0.2-0.7,0.5-0.9
		C21.5,57.1,23.9,58.2,26.4,57.7"/>
</g>
<g id="path3227">
	<path  class="st38" d="M19.1,57.2c1.6,2.1,4.1,2.9,6.7,2.6c-0.5,1-1.6,1.5-2.7,1.4
		c-1.6,0-3.5-0.8-4.3-2.3c-0.5-0.6,0.1-1.1,0.2-1.7H19.1"/>
</g>
<g id="path3229">
	<path  class="st38" d="M24.2,61.7c-0.5,0.8-1.3,1.1-2.1,1.3c-1.6,0.1-3.3-0.6-4-2.1
		c-0.2-0.6,0.1-1.3,0.3-1.8C19.5,61.2,21.8,61.9,24.2,61.7"/>
</g>
<g id="path3231">
	<path  class="st38" d="M22.6,63.4c-0.5,1.2-1.8,0.9-3,0.9c-0.9-0.2-1.9-0.9-2.1-1.8
		c0.1-0.3,0-0.8,0.2-1.1C18.8,63.1,20.8,63.7,22.6,63.4"/>
</g>
<g id="path3233">
	<path  class="st38" d="M21.4,64.9c-0.1,0.3-0.3,0.6-0.7,0.7c-0.8,0.3-1.9,0.2-2.8,0
		c-0.3-0.2-0.7-0.4-0.8-0.8c-0.1-0.5,0-1,0.1-1.4C18.3,64.8,19.9,65,21.4,64.9"/>
</g>
<g id="path3235">
	<path  class="st38" d="M20.7,66.3c0,0.3-0.1,0.6-0.4,0.8c-0.7,0.2-1.6,0.5-2.4,0.2
		c-0.3-0.1-0.5-0.4-0.7-0.6v-1C18.2,66.3,19.5,66.5,20.7,66.3"/>
</g>
<g id="path3237">
	<path  class="st38" d="M20.4,67.6c0,0.3,0,0.7-0.4,0.8c-0.8,0.3-1.7,0.5-2.4-0.1
		c-0.2-0.2-0.1-0.5-0.2-0.8C18.3,67.9,19.5,68.1,20.4,67.6"/>
</g>
<g id="path3239">
	<path  class="st38" d="M20.5,69.2c0.1,0.3-0.2,0.5-0.2,0.8c-0.3,0.2-0.6,0.5-1.1,0.5
		c-0.2-0.1-0.4-0.1-0.7-0.1C18.3,69.9,18,69.5,18,69c0.8,0.4,1.6,0.2,2.4,0L20.5,69.2"/>
</g>
<g id="path3241">
	<path  class="st38" d="M21.1,71.2c0.1,0.7-0.9,0.4-0.6,1c0.4,0.1,0.6-0.1,0.9-0.3v-0.1
		c0.6,0.1,1.1,0.8,1.7,0.7c0.1,0,0-0.2,0-0.3c-0.5-0.3-1-0.6-1.4-1.1c-0.1-0.2-0.3-0.3-0.3-0.6c1.5,0.8,3.4,0.5,4.6,1.8
		c0.1,0.2,0.3,0.6,0.1,0.9c-1.1,1-2.6,0.5-3.9,0.2c-1.3-0.5-2.5-1.4-3.3-2.6c0.6,0.2,1.3,0,1.7-0.4C20.9,70.5,20.9,70.9,21.1,71.2"
		/>
</g>
<g id="path3243">
	<path  class="st38" d="M15.3,56.7L15.3,56.7C15,56,14,55.8,14.4,54.9c0.5-0.6,1.2-0.1,1.8-0.2
		c0.6,0.2,1.2,0.1,1.8,0.2c-0.2,0.7-1.1,0.7-1.5,1.2c0,0.5,0.9,0.7,0.7,1.4C16.8,57.4,15.7,56.9,15.3,56.7"/>
</g>
<g id="path3245">
	<path  class="st38" d="M25.3,22.1c0,0.5-0.1,0.9-0.3,1.2c0,0.1,0.1-0.2-0.1-0.2
		c-0.1-0.1-0.3,0.1-0.3,0.2c-0.1-0.4,0.4-0.8,0.6-1.2H25.3"/>
</g>
<g id="path3247">
	<path  class="st38" d="M26.4,23.2c0.1,0.3-0.1,0.7-0.3,0.9v-0.3h-0.4C26,23.6,26.2,23.3,26.4,23.2
		"/>
</g>
<g id="path3249">
	<path  class="st39" d="M13.3,45.7c-0.1,2.5,0.2,4.8,1.9,6.6c0.6,0.6,1.2,1.2,1.9,1.7
		c-1,0.1-2.1-0.4-3,0.2c-0.3,0.3-0.3,0.8-0.2,1.2c0.4,0.6,0.9,0.9,1.4,1.2c0.3,0,1.5,0.5,1.9,0.8c-1.6-0.5-3.9-0.7-5.4,0.2
		c-1.4,0.8-1.6,2.4-1.5,3.7c0.2,1.3,1,2.4,1,3.7c-0.8-1.1-2.5-1.5-2.8-3c0-0.8-0.2-1.6-0.6-2.2c0.1-0.7,0.3-1.4,0.4-2
		c0-0.2,0-0.3-0.1-0.4H8v-0.1c0.4-1.1,1.2-2.3,2.5-2.4c0.4-0.5-0.5-0.6-0.7-1c-0.3-0.3-0.4-0.7-0.6-1.1c0.4-0.4,1.1-0.6,1.6-0.4
		c0.1,0,0.2,0.1,0.3,0.1c0.2-0.1,0.1-0.3,0-0.5c-1.2-0.8-1.5-2.3-1.4-3.6c0.5-0.6,0-1.6,0.3-2.5c0-0.1,0.2,0.1,0.3,0
		c0.3-0.9,0.7-1.9,1.2-2.8l0.1,0c0,0.1,0,0.2,0.2,0.3h0.2l1.3-1.4C13.8,43.4,13.2,44.5,13.3,45.7"/>
</g>
<g id="path3251">
	<path  class="st39" d="M19.3,53.8l-0.2,0.6c0.2-0.9-1.2-1.9,0.2-2.3c0.3-0.2,0.5-0.6,0.7-0.9
		c0.3-0.8-1.2-1.6,0-2c0.7-0.7,1-1.8,0.6-2.7c-0.1-0.1-0.1-0.3-0.2-0.5c0.5-0.3,0.8-0.7,1.2-1.2C21.6,48.1,20.6,51,19.3,53.8"/>
</g>
<g id="path3253">
	<path  class="st35" d="M12.9,43.7c-0.1,1.6-0.8,3.3-0.2,5.1c0.1,1.2,0.6,2.3,1.2,3.3
		c0.1,0.2,0,0.3-0.2,0.3c-0.4,0-0.4-0.4-0.6-0.6c-1.1-2.5-1.2-5.5-0.3-8.1H12.9"/>
</g>
<g id="path3255">
	<path  class="st35" d="M11.1,47.8v0.2c-0.1,0-0.2,0-0.2-0.1c0-0.1,0-0.2,0.1-0.2
		C11,47.7,11.1,47.7,11.1,47.8"/>
</g>
<g id="path3257">
	<path  class="st35" d="M11.2,48.4c0.3,1.5,0.7,2.9,1.8,4c0.1,0.1-0.1,0.3-0.2,0.3
		c-0.5,0-0.7-0.6-0.9-0.9c-0.6-1-0.8-2.3-0.9-3.5C11,48.2,11.1,48.3,11.2,48.4"/>
</g>
<g id="path3259">
	<path  class="st35" d="M11,56c0,0.4-0.4,0.3-0.6,0.7c-1.1,0.9-1.4,2.3-1.6,3.6H8.8
		c-0.3-1.9,0.5-3.5,1.9-4.4C10.8,55.8,10.9,55.9,11,56"/>
</g>
<g id="path3261">
	<path  class="st35" d="M10.6,58.5c-1.4,1.9-0.2,4,0.2,6c-0.3,0-0.3-0.4-0.4-0.6
		c-0.7-1.7-1.5-4.3,0-5.9c0.2-0.2,0.4-0.5,0.7-0.6C11.6,57.8,10.7,58.1,10.6,58.5"/>
</g>
<g id="path3263">
	<path  class="st38" d="M42.2,42c-0.1-0.1-0.2-0.2-0.2-0.4C42.1,41.7,42.2,41.8,42.2,42"/>
</g>
<g id="path3265">
	<path  class="st38" d="M58.4,42c-0.1-0.1,0-0.3,0.1-0.4C58.5,41.7,58.5,41.9,58.4,42"/>
</g>
<g id="path3267">
	<path  class="st38" d="M27.4,60.3c0.2,0.8,0.5,1.7,0.3,2.5c0.1,0,0.1,0.1,0.2,0.1
		c0.5-0.7,0.3-1.6,0.2-2.4c0.9,1.1,1,2.7,1.1,4.1c0,0.1,0.1,0.1,0.2,0.1c0.5-0.6,0-1.4,0.2-2.2c0.7,1.1,0.7,2.7,0.6,3.9
		c0.1,0.1,0.1,0.1,0.2,0.1c0.2-0.2,0.3-0.4,0.3-0.7c0.2,1.3,0.1,2.7-0.4,3.9c0.2-3.4-2.1-6.4-4.9-8.2c0-0.3,0.4-0.8,0.8-0.9
		c0.1,0.4-0.2,0.9,0.1,1.2c0.6-0.6-0.2-1.8,0.7-2.2L27.4,60.3"/>
</g>
<g id="path3269">
	<path  class="st38" d="M74.4,61.6c0.3-0.4-0.1-0.8,0.1-1.2c0.3,0.2,0.6,0.5,0.8,0.9
		c-2.8,2-5.1,4.8-4.9,8.3c-0.5-1.1-0.7-2.6-0.4-4c0,0.3,0.1,0.6,0.4,0.8c0.4-0.2-0.2-0.9,0.1-1.3c0-0.9,0.1-2,0.7-2.7
		c0,0.8-0.3,1.7,0.2,2.2c0.1,0,0.2-0.1,0.3-0.1c-0.2-1.4,0.1-2.8,1-3.9c0,0.8-0.4,1.7,0.4,2.2l0.1-0.1c-0.1-1.1,0-2.4,0.7-3.2
		C74.4,59.9,73.7,61.1,74.4,61.6"/>
</g>
<g id="path3271">
	<path  class="st28" d="M32.1,62.9l-0.3,0c0.3-0.2,0.8-0.1,1.1-0.4c0.4-0.4,0.6-0.9,1-1.3
		C33.5,61.9,33.1,62.8,32.1,62.9"/>
</g>
<g id="path3273">
	<path  class="st28" d="M33.2,63.4c-0.3-0.3,0.3-0.5,0.4-0.8C33.6,63,33.3,63.1,33.2,63.4"/>
</g>
<g id="path3275">
	<path  class="st28" d="M33.2,64.3c0.5-0.5,0.9-1.1,1.2-1.8C34.4,63.2,33.7,63.9,33.2,64.3"/>
</g>
<g id="path3277">
	<path  class="st28" d="M67.5,63.4c-0.2-0.3-0.4-0.6-0.6-1C67.1,62.8,67.8,62.9,67.5,63.4"/>
</g>
<g id="path3279">
	<path  class="st28" d="M68.2,63.5v0.2c-0.1,0-0.1,0-0.1-0.1v-0.2C68.1,63.4,68.2,63.5,68.2,63.5"
		/>
</g>
<g id="path3281">
	<path  class="st28" d="M32.5,63.9c-0.1-0.1,0-0.2,0-0.3h0.1L32.5,63.9"/>
</g>
<g id="path3283">
	<path  class="st35" d="M35.2,44c0.2,0.1-0.1-0.3-0.1-0.5c0-0.2-0.2,0.4-0.2,0.4S35.1,43.9,35.2,44
		"/>
</g>
<g id="path3285">
	<path  class="st28" d="M43.6,14.8c0,1.4,0,2.9,0,4.2c0,0.1-0.1,0.1-0.2,0.1
		c-0.1-1.5-0.1-2.9,0-4.4C43.4,14.6,43.6,14.7,43.6,14.8"/>
</g>
<g id="path3287">
	<path  class="st28" d="M28.2,32.8c0,0,0.6,0.1,0.8,0.3c0.2,0.3,0.8,1.2,1.5,0.8
		c0,0,0.2,0.4-0.5,0.4c-0.7,0-1-0.5-1.2-0.8c-0.2-0.3-0.4-0.4-0.6-0.5L28.2,32.8"/>
</g>
<g id="path3289">
	<path  class="st28" d="M72.3,32.8c0,0-0.2,0.4-0.6,0.6c-0.3,0.1-0.3,0.4-0.3,0.4
		c0,0-0.6,0.6-1,0.6c-0.5,0-0.4-0.1-0.5-0.2c0-0.2,0.2-0.2,0.3-0.1c0.1,0.1,0.4,0.2,0.8-0.3C71.4,33.1,72,32.7,72.3,32.8"/>
</g>
<g id="path3291">
	<path  class="st39" d="M37.6,47.6c1.2,4.5-0.5,8.7-1.6,12.9c0.2-0.9,0.3-2,0.3-3
		c-0.5-1.6,0.6-3-0.1-4.5c0.1-0.6-0.3-1.3-0.8-1.7c-0.1-1.1,0.1-2.3-0.6-3.2c-0.4,0-0.9,0.2-1.2-0.1c0.3-1.1,0.7-2.2,1-3.3
		C36.2,44.8,37.3,46.2,37.6,47.6"/>
</g>
<g id="path3293">
	<path  class="st28" d="M44.6,1.4c0.2,0.2,0.1,0.6,0.1,0.8c-0.1,0.1-0.2,0.2-0.4,0.2
		c0.1-0.3,0.3-0.6,0.2-1c-0.3-0.3-0.6-0.7-1-0.7c-0.4,0-0.8,0.3-1,0.7C42,2,42.7,2.5,42.7,3c-0.3-0.1-0.5-0.4-0.7-0.7
		c-0.1-0.4-0.1-0.9,0.2-1.3c0.5-0.3,1.2-0.8,1.8-0.4C44.3,0.9,44.5,1.1,44.6,1.4"/>
</g>
<g id="path3295">
	<path  class="st28" d="M43.7,1.9l-0.1,0.7c0,2.7,0.1,5.4,0.1,8.2c-0.1,0.1-0.1,0.4-0.4,0.4
		c0-3.4-0.2-6.4-0.1-9.5C43.4,1.7,43.7,1.7,43.7,1.9"/>
</g>
<g id="path3297">
	<path  class="st39" d="M17.2,60.6c-0.2-0.4-0.2-0.9-0.6-1.3c0.6-0.3,1.3-0.9,1.3-1.7
		c0.1-0.5-0.3-0.8-0.4-1.2c0.4-0.4,1-0.7,1.3-1.2C18.1,56.9,17.7,58.8,17.2,60.6"/>
</g>
<g id="path3299">
	<path  class="st39" d="M16.7,63.1c-0.1,0-0.4-0.4-0.6-0.6c0.2-0.2,0.6-0.6,0.8-0.9
		C16.9,62.1,16.9,62.7,16.7,63.1"/>
</g>
<g id="path3301">
	<path  class="st39" d="M68.3,64.7c0.2,0.3,0.2,0.9,0.2,1.3c0.3,4.1-1.4,7.8-4.9,9.8
		c-4.4,3.2-9.5,5.1-13.1,9.5l-0.1,0c-2.1-2.7-5.1-4.3-7.8-6.1c-1-0.4-1.8-1.1-2.8-1.5c-0.6-0.4-1.3-0.7-1.8-1.2
		c-3.5-2-5.8-5.1-5.7-9.2c0.2-0.7-0.2-1.7,0.1-2.4c0.3-0.2,0.7,0.1,1.1,0l0.2-0.1c0,0.2-0.2,0.5,0.1,0.7c0.4,0,0.7-0.1,1.1-0.2
		c-0.4,4.2,1.6,7.8,5.2,9.7c3.5,2,7.3,3.7,10.3,6.8c0.5,0,0.5-0.5,0.8-0.7c3.4-3.3,7.8-4.7,11.5-7.5c2.5-2.1,3.6-5.1,3.2-8.4
		c0.4,0,1,0.5,1.3,0l-0.2-0.6C67.3,64.9,67.9,64.9,68.3,64.7"/>
</g>
<g id="path3303">
	<path  class="st28" d="M42.5,47.3c0,0,3.4-0.6,4.5-1.2v31.7c0,0-0.1,0.2-0.5-0.2
		c-0.5-0.4-4.1-2.3-4.1-2.3L42.5,47.3"/>
</g>
<g id="path3305">
	<path  class="st28" d="M53.5,46.1c0,0,1.8,0.7,2.7,0.8c0.9,0.1,1.7,0.2,1.8,0.5v28
		c0,0-4,2.3-4.5,2.6L53.5,46.1"/>
</g>
<g id="path3307">
	<path  class="st28" d="M43.5,21.6l0,13.5l-0.2,1.2c0,0-0.2-2-0.2-3.1c0-1.1,0-11.3,0-11.3
		S43.3,21.6,43.5,21.6"/>
</g>
</svg>
