<?xml version="1.0" encoding="utf-8"?>
<!-- Generator: Adobe Illustrator 19.2.1, SVG Export Plug-In . SVG Version: 6.00 Build 0)  -->
<svg version="1.1" id="Capa_1" xmlns="http://www.w3.org/2000/svg" xmlns:xlink="http://www.w3.org/1999/xlink" x="0px" y="0px"
	 viewBox="0 0 100 100" style="enable-background:new 0 0 100 100;" xml:space="preserve">
<style type="text/css">
	.st0{fill:url(#path34_4_);}
	.st1{fill:url(#path890_1_);}
	.st2{fill:#FFE500;stroke:#000000;stroke-width:2.098;stroke-miterlimit:3.863;}
	.st3{fill:#DA020E;}
	.st4{fill:#FFE500;}
	.st5{clip-path:url(#SVGID_2_);}
	.st6{fill:none;stroke:#B54005;stroke-width:10;stroke-miterlimit:3.863;}
	.st7{fill:url(#path7506_1_);}
	.st8{fill:url(#path8794_1_);}
	.st9{fill:url(#path15846_1_);}
	.st10{fill:url(#path16274_1_);}
	.st11{fill:url(#path39821_1_);}
	.st12{fill:url(#path39847_1_);}
	.st13{fill:url(#path39878_1_);}
	.st14{fill:url(#path39888_1_);}
	.st15{fill:url(#path41035_1_);}
	.st16{fill:url(#path9646-8_1_);}
	.st17{fill:url(#path41092_1_);}
	.st18{fill:url(#path41094_1_);}
	.st19{fill:none;stroke:#000000;stroke-width:2.098;stroke-miterlimit:3.863;}
	.st20{fill:url(#path41152_1_);}
	.st21{fill:url(#path39854_1_);}
	.st22{fill:url(#path39874_1_);}
	.st23{fill:#9C824A;stroke:#9C824A;stroke-width:0.793;stroke-miterlimit:282;}
	.st24{fill:#023474;stroke:#023474;stroke-width:0.793;stroke-miterlimit:282;}
	.st25{fill:#FFFFFF;stroke:#FFFFFF;stroke-width:0.793;stroke-miterlimit:282;}
	.st26{fill:#EF0107;stroke:#EF0107;stroke-width:0.793;stroke-miterlimit:282;}
	.st27{fill:#DB0007;stroke:#DB0007;stroke-width:0.793;stroke-miterlimit:282;}
	.st28{fill:#FFFFFF;}
	.st29{fill:#9C824A;}
	.st30{fill:#EF0107;stroke:#EF0107;stroke-width:0.3115;stroke-miterlimit:282;}
	.st31{fill:#DB0007;stroke:#DB0007;stroke-width:0.3115;stroke-miterlimit:282;}
	.st32{fill:#DB0007;}
	.st33{fill:#FFFFFF;stroke:#FFFFFF;stroke-width:0.3115;stroke-miterlimit:282;}
	.st34{fill:#FFFFFF;stroke:#FFFFFF;stroke-width:0.554;stroke-miterlimit:3.864;}
	.st35{fill:#231F20;}
	.st36{fill:#00B6F1;stroke:#00B6F1;stroke-width:1.700000e-02;stroke-miterlimit:3.864;}
	.st37{fill:#EF3E2E;}
	.st38{fill:#BBBDBF;}
	.st39{fill:#F0B83D;}
	.st40{fill:#00B6F1;stroke:#FFFFFF;stroke-width:1.700000e-02;stroke-miterlimit:3.864;}
	.st41{fill:#001C58;}
	.st42{fill:#94BEE5;}
	.st43{fill:none;stroke:#7A003C;stroke-width:2.2437;stroke-miterlimit:6;}
	.st44{fill:#7A003C;}
	.st45{fill:#FFE600;}
	.st46{fill:#DBA111;}
	.st47{fill:#034694;}
	.st48{fill:#D1D3D4;}
	.st49{fill:#ED1C24;}
	.st50{fill:#6A7AB5;}
	.st51{fill:none;}
	.st52{fill:#274488;}
	.st53{fill:#004798;stroke:#004798;stroke-width:9.375000e-02;}
	.st54{fill:#FFFFFF;stroke:#FFFFFF;stroke-width:9.375000e-02;}
	.st55{fill:#FABC00;stroke:#FABC00;stroke-width:9.375000e-02;}
	.st56{fill:none;stroke:#FFFFFF;stroke-width:7.865;stroke-miterlimit:3.864;}
	.st57{fill:none;stroke:#FFFFFF;stroke-width:7.865;stroke-miterlimit:12;}
	.st58{fill:none;stroke:#FFFFFF;stroke-width:7.865;stroke-miterlimit:22;}
	.st59{fill:none;stroke:#FFFFFF;stroke-width:7.865;stroke-miterlimit:6;}
	.st60{fill:#00A398;}
	.st61{fill:#D00027;}
	.st62{fill:none;stroke:#FFFFFF;stroke-width:17.3907;stroke-miterlimit:3.864;}
	.st63{fill:none;stroke:#FFFFFF;stroke-width:13.1107;stroke-miterlimit:3.864;}
	.st64{fill:#FEF667;}
	.st65{fill:#D00027;stroke:#D00027;}
	.st66{fill:#5299C6;}
	.st67{fill:#60223B;}
	.st68{fill:#F7C240;}
	.st69{fill:#292D6B;}
	.st70{fill:#1B458F;}
	.st71{fill:#C4122E;}
	.st72{fill:#27409B;}
	.st73{clip-path:url(#SVGID_4_);}
	.st74{fill:#F4F4F4;}
	.st75{fill:#D3D2D2;}
	.st76{fill:#A7A5A6;}
	.st77{fill:#091453;}
	.st78{fill:none;stroke:#FFFFFF;stroke-width:6.6301;}
	.st79{clip-path:url(#SVGID_6_);}
	.st80{fill:#724314;}
	.st81{fill:#240B08;}
	.st82{fill:#018B4B;}
	.st83{fill:#A6181D;}
	.st84{fill:#592D09;}
	.st85{fill:#FFCE65;}
	.st86{fill:#5CBFEB;}
	.st87{fill:none;stroke:#000000;stroke-width:10;}
	.st88{fill:none;stroke:#000000;}
	.st89{fill:#B2B2B2;}
	.st90{fill:none;stroke:#000000;stroke-width:0.3;}
	.st91{fill:#00A650;stroke:#000000;stroke-width:2;}
	.st92{fill:#241F20;stroke:#241F20;stroke-width:9.375000e-02;}
	.st93{fill:#FFF200;stroke:#FFF200;stroke-width:9.375000e-02;}
	.st94{fill:#A68A26;}
	.st95{fill:none;stroke:#A68A26;stroke-width:4.792100e-02;stroke-miterlimit:3.8637;}
	.st96{fill:#211E1E;}
	.st97{fill:none;stroke:#211E1E;stroke-width:4.792100e-02;stroke-miterlimit:3.8637;}
	.st98{fill:#EB172B;}
	.st99{fill:none;stroke:#EB172B;stroke-width:4.792100e-02;stroke-miterlimit:3.8637;}
	.st100{fill:#A68A26;stroke:#A68A26;stroke-width:4.792100e-02;stroke-miterlimit:3.8637;}
	.st101{fill:#D1BF7F;}
	.st102{fill:none;stroke:#D1BF7F;stroke-width:4.792100e-02;stroke-miterlimit:3.8637;}
	.st103{fill:none;stroke:#FFFFFF;stroke-width:4.792100e-02;stroke-miterlimit:3.8637;}
	.st104{fill:#EB172B;stroke:#EB172B;stroke-width:4.792100e-02;stroke-miterlimit:3.8637;}
	.st105{fill:#ED2127;}
	.st106{fill:#FBEE23;}
	.st107{stroke:#000000;}
	.st108{fill:#CF1F44;}
	.st109{fill:#1B449C;}
	.st110{fill:#E03A3E;}
	.st111{fill:#E03A3E;stroke:#E03A3E;stroke-width:0.6565;}
	.st112{fill:none;stroke:#1B449C;stroke-width:0.7493;}
	.st113{fill:none;stroke:#1B449C;stroke-width:0.7567;}
	.st114{fill:#1B449C;stroke:#1B449C;stroke-width:0.6274;}
	.st115{fill:#1B449C;stroke:#1B449C;stroke-width:0.6755;}
	.st116{fill:#2E6ABD;stroke:#2E6ABD;stroke-width:0.617;}
	.st117{fill:#FFFFFF;stroke:#FFFFFF;stroke-width:0.6175;}
	.st118{fill:#ED1248;}
	.st119{fill:#2E6ABD;}
	.st120{fill:#FDE100;}
	.st121{fill:#CC0000;}
	.st122{fill:#211E1F;}
	.st123{fill:#ED1A3B;}
	.st124{fill:#00AEEF;}
	.st125{fill:#FFC40D;}
	.st126{fill:#22B24C;}
	.st127{fill:#FFC20E;}
	.st128{fill:#0A3F86;}
	.st129{fill:#005CA9;}
	.st130{fill:#FFE000;}
	.st131{fill:#E2001A;}
	.st132{opacity:0;}
	.st133{opacity:0;fill:#FFFFFF;}
	.st134{fill:#FFFFFF;stroke:#000000;}
	.st135{fill:#0060A9;}
	.st136{fill:#E32219;}
	.st137{fill:#FFED00;}
	.st138{fill:#1D9053;}
	.st139{fill:#52A600;}
	.st140{fill:#EE2523;}
	.st141{fill:#F7D117;}
	.st142{fill:#171796;}
	.st143{fill:#009959;}
	.st144{fill:#D42E12;}
	.st145{fill:#703824;}
	.st146{fill:#E5254E;}
	.st147{fill:#8AC3EE;}
	.st148{fill:#B19221;}
	.st149{fill:#F5C03E;}
	.st150{fill:#FF1119;}
	.st151{fill:#1E6BC0;}
	.st152{fill:#B4742A;}
	.st153{fill:#371B02;}
	.st154{fill:url(#SVGID_7_);}
	.st155{fill:url(#SVGID_8_);}
	.st156{fill:url(#SVGID_9_);}
	.st157{fill:url(#SVGID_10_);}
	.st158{fill:url(#SVGID_11_);}
	.st159{fill:url(#SVGID_12_);}
	.st160{fill:url(#SVGID_13_);}
	.st161{fill:url(#SVGID_14_);}
	.st162{fill:url(#SVGID_15_);}
	.st163{fill:url(#SVGID_16_);}
	.st164{fill:#EB2626;}
	.st165{fill:#E9C32C;}
	.st166{fill:#D9D9D9;}
	.st167{fill:#009C5E;}
	.st168{fill:#1C75BC;}
	.st169{fill:#611D5C;}
	.st170{fill:#E2B900;}
	.st171{fill:#004B95;}
	.st172{fill:#A4234B;}
	.st173{fill:#DB2F36;}
	.st174{fill:#FFDF00;}
	.st175{fill:#A38D44;}
	.st176{fill:#57175E;}
	.st177{fill:#AFDCFD;}
	.st178{fill:#0090C6;}
	.st179{fill:#DB5232;}
	.st180{fill:#23C1E0;}
	.st181{fill:#F1A92A;}
	.st182{fill:#167FB6;}
	.st183{fill:#FED75D;}
	.st184{fill:#378CBF;}
	.st185{fill:#3E9692;}
	.st186{fill:#E67F29;}
	.st187{fill:#D8B43C;}
	.st188{fill:#EF3B33;}
	.st189{fill:#24923D;}
	.st190{opacity:6.000001e-02;fill:#101010;enable-background:new    ;}
	.st191{fill:#00529F;}
	.st192{fill:#EE324E;}
	.st193{fill:#FEBE10;}
	.st194{fill:#143C8B;}
	.st195{fill:#FFE24A;}
	.st196{fill:#EC1D24;}
	.st197{fill:#E6A514;}
	.st198{fill:#FFDF1C;}
	.st199{fill:#EE3524;}
	.st200{fill:#B23428;}
	.st201{fill:#D18816;}
	.st202{fill:#0097D7;}
	.st203{fill:#ED1C23;}
	.st204{fill:#E30613;}
	.st205{fill:#FFE400;}
	.st206{fill:#C51A1B;}
	.st207{clip-path:url(#SVGID_19_);}
	.st208{clip-path:url(#SVGID_20_);fill:none;stroke:#000000;stroke-width:0.8131;stroke-miterlimit:3.864;}
	.st209{fill:#0093D5;}
	.st210{fill:#004B9D;}
	.st211{fill:#FCC24F;}
	.st212{fill:#009545;}
	.st213{fill:#0072BB;}
	.st214{fill:#C4974E;}
	.st215{fill:url(#path1292_1_);}
	.st216{fill:#004996;}
	.st217{fill:#FFE667;}
	.st218{fill:none;stroke:#005187;stroke-width:0.153;stroke-miterlimit:3.864;}
	.st219{fill:#005187;}
	.st220{clip-path:url(#SVGID_22_);}
	.st221{clip-path:url(#SVGID_24_);fill:none;stroke:#000000;stroke-width:0.296;stroke-miterlimit:3.864;}
	.st222{clip-path:url(#SVGID_26_);fill:#FFE667;}
	.st223{clip-path:url(#SVGID_28_);fill:none;stroke:#000000;stroke-width:8.300000e-02;stroke-miterlimit:3.864;}
	.st224{fill:none;stroke:#000000;stroke-width:0.153;stroke-miterlimit:3.864;}
	.st225{clip-path:url(#SVGID_30_);fill:#E70005;}
	.st226{clip-path:url(#SVGID_32_);fill:none;stroke:#E70005;stroke-width:0.296;stroke-miterlimit:3.864;}
	.st227{clip-path:url(#SVGID_34_);fill:#E70005;}
	.st228{clip-path:url(#SVGID_36_);fill:none;stroke:#E70005;stroke-width:0.296;stroke-miterlimit:3.864;}
	.st229{clip-path:url(#SVGID_38_);fill:#E70005;}
	.st230{clip-path:url(#SVGID_40_);fill:none;stroke:#E70005;stroke-width:0.296;stroke-miterlimit:3.864;}
	.st231{clip-path:url(#SVGID_42_);fill:#E70005;}
	.st232{clip-path:url(#SVGID_44_);fill:none;stroke:#E70005;stroke-width:0.296;stroke-miterlimit:3.864;}
	.st233{fill:#E70005;}
	.st234{fill:none;stroke:#000000;stroke-width:0.141;stroke-miterlimit:3.864;}
	.st235{fill:#00276D;}
	.st236{fill:#C49308;}
	.st237{fill:#179D33;}
	.st238{fill:#999999;}
	.st239{fill:#FF0000;}
	.st240{fill:#E31837;}
	.st241{fill:#06357A;}
	.st242{fill:#B4053F;}
	.st243{fill:#DCA43E;}
	.st244{fill:#005CA5;}
	.st245{fill:#FAC400;}
	.st246{fill:#004083;}
	.st247{fill:#A95932;}
	.st248{fill:none;stroke:#000000;stroke-width:1.2215;}
	.st249{fill:#E62627;}
	.st250{fill:#00458C;}
	.st251{fill:#E11B22;}
	.st252{fill:#00AB4E;}
	.st253{fill:#F47920;}
	.st254{fill:#C7C8CA;}
	.st255{fill:#E11515;}
	.st256{fill:#A4965F;}
	.st257{fill:#E51636;}
	.st258{fill:#EACC00;}
	.st259{fill:#4F846B;}
	.st260{fill:#E22227;}
	.st261{fill:#FAE700;}
	.st262{fill:url(#SVGID_45_);}
	.st263{fill:#666666;}
	.st264{fill:#FFF200;}
	.st265{fill:#00275D;}
	.st266{fill:#EF3E33;}
	.st267{fill:none;stroke:#00275D;stroke-width:2.632;}
	.st268{fill:#3F7652;}
	.st269{fill:#F1D261;}
	.st270{fill:#004D8F;}
	.st271{fill:#E7B137;stroke:#E7B137;stroke-miterlimit:10;}
	.st272{fill:#E7B137;}
	.st273{fill:#162577;}
	.st274{fill:#12692C;}
	.st275{fill:#D8141D;}
	.st276{fill:#AB830D;}
	.st277{fill:#0086CB;}
	.st278{fill:#001F42;}
	.st279{fill:#9A8F4A;}
	.st280{fill:#00559D;}
	.st281{fill:#FDDE00;}
	.st282{fill:#00924C;}
	.st283{fill:#233984;}
	.st284{fill:#FFD42E;}
	.st285{fill:#BA3733;}
	.st286{fill:#46714D;}
	.st287{fill:#221F1F;}
	.st288{fill:#00559E;}
	.st289{fill:#005C46;}
	.st290{fill:#FBC860;}
	.st291{fill:#D57C48;}
	.st292{fill:#040403;}
	.st293{fill:#4AB969;}
	.st294{fill:#8ED8F8;}
	.st295{fill:#FEC34E;}
	.st296{fill:#FFC95B;}
	.st297{fill:#00644C;}
	.st298{fill:#70B865;}
	.st299{fill:#CA6F44;}
	.st300{fill:#A8B8BE;}
	.st301{fill:#1C2C80;}
	.st302{fill:#E10321;}
	.st303{fill:none;stroke:#231F20;stroke-width:0.318;stroke-miterlimit:3.864;}
	.st304{fill:#D71920;}
	.st305{fill:#484749;}
	.st306{fill:#D9DBDC;}
	.st307{fill:#DF725A;}
	.st308{fill:#F2CABA;}
	.st309{fill:#E89C84;}
	.st310{fill:#264F99;}
	.st311{clip-path:url(#SVGID_47_);}
	.st312{fill:#161413;}
	.st313{fill:#ED1B26;}
	.st314{fill:#E60D2E;}
	.st315{fill:#FCD600;}
	.st316{fill:#004D91;}
	.st317{fill:#EAB412;}
	.st318{fill:#FDD31D;}
	.st319{fill:#EFB800;}
</style>
<g>
	<path class="st28" d="M11.8,0v69.4c0,3.9,1.1,7.7,3.3,11.5c2,3.4,4.9,6.6,8.4,9.5c7.7,6.1,17.5,9.7,26.4,9.7s18.8-3.6,26.4-9.7
		c3.6-2.9,6.4-6.1,8.5-9.5c2.2-3.7,3.3-7.6,3.3-11.5V0H11.8z"/>
	<path d="M13.1,14.5h73.7v54.8c0,7.5-4.6,14.6-11.3,19.9C68.3,95,58.7,98.6,50,98.6S31.6,95,24.4,89.3C17.8,84,13.1,76.9,13.1,69.4
		V14.5z"/>
	<path class="st28" d="M13.6,15v54.4c0,7.4,4.5,14.3,11.1,19.6c7.1,5.7,16.6,9.3,25.3,9.3s18.2-3.6,25.3-9.3
		c6.6-5.2,11.1-12.2,11.1-19.6V15L13.6,15L13.6,15z"/>
	<rect x="13.1" y="1.3" width="73.7" height="11.5"/>
	<path class="st28" d="M30.9,7.6c0,0.4-0.1,0.6-0.3,0.8c-0.2,0.2-0.5,0.3-0.8,0.3c-0.3,0-0.6-0.1-0.8-0.3c-0.2-0.2-0.3-0.5-0.3-0.8
		v-4h-2v3.9c0,0.3,0.1,0.7,0.2,1.1c0.1,0.3,0.2,0.5,0.4,0.8c0.2,0.2,0.4,0.4,0.7,0.5c0.2,0.1,0.6,0.2,0.9,0.3c0.3,0,0.6,0.1,0.9,0.1
		c0.1,0,0.1,0,0.2,0c0.5,0,1-0.1,1.4-0.2c0.3-0.1,0.5-0.3,0.8-0.5c0.2-0.2,0.4-0.5,0.5-0.9c0.1-0.3,0.2-0.7,0.2-1.1V3.6h-2V7.6z"/>
	<polygon class="st28" points="36.3,7.3 39.4,7.3 39.4,6 36.3,6 36.3,5 39.7,5 39.7,3.6 34.2,3.6 34.2,10.1 39.8,10.1 39.8,8.6 
		36.3,8.6 	"/>
	<polygon class="st28" points="50,7.3 53.2,7.3 53.2,6 50,6 50,5 53.4,5 53.4,3.6 48,3.6 48,10.1 53.5,10.1 53.5,8.6 50,8.6 	"/>
	<polygon class="st28" points="60.3,3.6 54.1,3.6 54.1,5.2 56.2,5.2 56.2,10.1 58.2,10.1 58.2,5.2 60.3,5.2 	"/>
	<path class="st28" d="M80.4,4.3c-0.6-0.6-1.4-0.9-2.5-0.9h0c-1.1,0-1.9,0.3-2.5,0.9c-0.6,0.6-0.9,1.4-0.9,2.5
		c0,0.8,0.1,1.4,0.4,1.9c0.3,0.5,0.7,0.9,1.2,1.1c0.5,0.2,1.1,0.3,1.8,0.4h0c0,0,0,0,0.1,0c0.7,0,1.3-0.1,1.8-0.4
		c0.5-0.3,0.9-0.7,1.1-1.1c0.2-0.5,0.4-1.1,0.4-1.9C81.2,5.7,80.9,4.9,80.4,4.3z M78.9,8.3c-0.2,0.3-0.6,0.4-1,0.4h0
		c-0.4,0-0.8-0.2-1-0.4c-0.2-0.3-0.4-0.8-0.4-1.4c0-0.7,0.1-1.1,0.4-1.4c0.2-0.3,0.6-0.4,1-0.4h0c0.4,0,0.7,0.1,1,0.4
		c0.2,0.3,0.4,0.7,0.4,1.3C79.2,7.5,79.1,8,78.9,8.3z"/>
	<path class="st28" d="M73,7.8c-0.1-0.2-0.2-0.3-0.3-0.3c-0.1-0.1-0.3-0.2-0.5-0.2c0.3-0.1,0.5-0.2,0.7-0.3c0.3-0.2,0.5-0.4,0.6-0.6
		c0.2-0.3,0.2-0.6,0.2-1c0-0.4-0.1-0.8-0.3-1.1c-0.2-0.3-0.5-0.5-0.8-0.6c-0.3-0.1-0.8-0.1-1.4-0.1H71h-0.3h-3v6.6h2V7.5H70
		c0.2,0,0.4,0.1,0.5,0.1c0.1,0.1,0.2,0.2,0.2,0.3c0,0.1,0.1,0.1,0.1,0.2L71,8.4l0.9,1.7h2.3l-1-1.9C73.2,8.1,73.1,8,73,7.8z
		 M71.5,5.9c-0.1,0.1-0.2,0.2-0.3,0.2c-0.1,0-0.1,0-0.2,0c-0.1,0-0.2,0-0.3,0c0,0-0.1,0-0.1,0h-0.9V4.9h0.9h0c0.1,0,0.2,0,0.3,0
		c0.2,0,0.4,0.1,0.5,0.1c0.1,0.1,0.2,0.3,0.2,0.5C71.6,5.7,71.6,5.8,71.5,5.9z"/>
	<path class="st28" d="M63.5,3.6h-1.1L60,10.1H62L62.3,9h1.1h1.1l0.3,1.1h2.1l-2.5-6.6H63.5z M63.5,7.6h-0.7l0.7-2.3l0.7,2.3H63.5z"
		/>
	<path class="st28" d="M46.1,7.8c-0.1-0.2-0.2-0.3-0.3-0.3c-0.1-0.1-0.3-0.2-0.5-0.2C45.5,7.2,45.8,7.1,46,7
		c0.3-0.2,0.5-0.4,0.7-0.6c0.1-0.3,0.2-0.6,0.2-1c0-0.4-0.1-0.8-0.3-1.1c-0.2-0.3-0.5-0.5-0.8-0.6c-0.3-0.1-0.8-0.1-1.4-0.1h-0.2
		h-0.3h-3v6.6h2V7.5h0.2c0.2,0,0.3,0.1,0.5,0.1c0.1,0.1,0.1,0.2,0.2,0.3C43.9,8,43.9,8,44,8.1l0.1,0.3l0.9,1.7h2.3l-1-1.9
		C46.3,8.1,46.2,8,46.1,7.8z M44.7,5.9c-0.1,0.1-0.2,0.2-0.3,0.2c-0.1,0-0.1,0-0.2,0c-0.1,0-0.2,0-0.3,0c0,0,0,0-0.1,0h-0.9V4.9h0.9
		h0c0.1,0,0.2,0,0.3,0c0.2,0,0.4,0.1,0.4,0.1c0.1,0.1,0.2,0.3,0.2,0.5C44.8,5.7,44.7,5.8,44.7,5.9z"/>
	<path class="st28" d="M24.8,9.2c0.5-0.6,0.7-1.4,0.7-2.3c0-1.1-0.3-1.9-0.9-2.5c-0.5-0.5-1.4-0.8-2.4-0.9c0,0-0.1,0-0.1,0h0
		c-1.1,0-1.9,0.3-2.5,0.9C19,5,18.8,5.8,18.8,6.9c0,1.1,0.3,2,1,2.6c0.5,0.5,1.3,0.8,2.3,0.8h0h0.1c0.6,0,1.1-0.1,1.5-0.3
		c0.1,0.1,0.3,0.2,0.6,0.4c0.3,0.2,0.5,0.4,0.8,0.5l0.5-1.1c-0.2-0.1-0.3-0.2-0.5-0.2C25.3,9.5,25.1,9.3,24.8,9.2z M23.3,8.1
		C23.2,8.1,23.1,8,23.1,8c-0.3-0.2-0.5-0.3-0.6-0.4c-0.1,0-0.1-0.1-0.2-0.1c0,0-0.1,0-0.1,0c0,0-0.1,0-0.1,0l-0.3,0.7
		c0.2,0.1,0.3,0.1,0.4,0.2c0.1,0,0.1,0.1,0.1,0.1c0.1,0.1,0.2,0.1,0.3,0.2c-0.1,0-0.2,0-0.3,0h-0.1c-0.4,0-0.8-0.2-1-0.4
		c-0.2-0.3-0.4-0.8-0.4-1.5c0-0.6,0.1-1.1,0.4-1.3c0.2-0.3,0.6-0.4,1-0.4h0h0.1c0.4,0,0.7,0.2,0.9,0.4c0.2,0.3,0.4,0.8,0.4,1.4
		C23.5,7.4,23.5,7.8,23.3,8.1z"/>
	<path d="M47.1,80.7v16.7c1,0.1,1.9,0.1,2.8,0.1c1.9,0,3.8-0.2,5.8-0.5V80.1c-1.9,0.5-3.8,0.7-5.8,0.7C49,80.8,48.1,80.8,47.1,80.7z
		"/>
	<path d="M55.8,33.1V15h-8.6v17.6c0.9-0.1,1.9-0.2,2.8-0.2C52,32.4,53.9,32.6,55.8,33.1z"/>
	<path d="M68.4,15v25.9c3.6,4.2,5.8,9.7,5.8,15.7c0,2.3-0.3,4.5-0.9,6.6c-0.5,1.9-1.3,3.7-2.2,5.4l3.4,3.4l0.1,0.1l0.7,0.7l-0.8,0.7
		l-0.1,0.1l-5.1,5.2l0,0l0,0l-0.1,0.1l-0.7,0.7l-0.1-0.1v13.1c2.3-1.2,4.4-2.6,6.4-4.2c0.8-0.6,1.5-1.3,2.2-1.9V15H68.4z"/>
	<path class="st310" d="M66.4,15h-8.6v18.7c3.2,1.1,6.2,2.9,8.6,5.1V15z"/>
	<path class="st310" d="M58.3,79.3c-0.2,0.1-0.4,0.1-0.6,0.2v17c1.7-0.4,3.4-0.9,5.2-1.6c1.2-0.4,2.3-0.9,3.5-1.5V77.2l-1.5-1.6
		C62.9,77.2,60.7,78.5,58.3,79.3z"/>
	<path d="M50,33.3c12.8,0,23.3,10.5,23.3,23.3c0,2.2-0.3,4.4-0.9,6.4c-0.6,2.1-1.4,4-2.5,5.8l3.9,3.9l0.1,0.1l-0.1,0.1L68.7,78
		l-0.1,0.1L68.5,78L65,74.4c-2,1.7-4.4,3.1-6.9,4c-2.5,0.9-5.2,1.4-8,1.4c-12.8,0-23.3-10.4-23.3-23.3C26.7,43.8,37.1,33.3,50,33.3z
		"/>
	<path class="st28" d="M50,33.6c-12.7,0-23,10.3-23,23c0,12.7,10.3,23,23,23c2.8,0,5.5-0.5,7.9-1.4c2.6-1,4.9-2.3,7-4.1L65,74
		l0.1,0.1l3.5,3.6l4.9-5l-3.9-3.9l-0.1-0.1l0.1-0.1c1.1-1.8,2-3.7,2.6-5.8c0.5-2,0.9-4.1,0.9-6.3C73,43.9,62.7,33.6,50,33.6z"/>
	<path d="M50,42c8.1,0,14.6,6.6,14.6,14.6c0,1-0.1,2-0.3,3c-0.2,1-0.5,2-0.9,2.8l-0.1,0.2l-0.2-0.2l-0.8-0.8l-4.9,5l1.3,1.4l0.1,0.1
		l-0.1,0.1c-1.2,0.9-2.6,1.7-4.1,2.2c-1.4,0.5-3,0.8-4.6,0.8c-8.1,0-14.6-6.6-14.6-14.6C35.4,48.6,41.9,42,50,42z"/>
	<path class="st310" d="M63.9,53.2c-0.4,0.2-0.8,0.5-1,0.8c-0.2,0.3-0.4,0.7-0.4,1.1l-0.1,4.3v0.1h-0.1l-1.5,0.1h-0.2v-0.2l0-5
		c0-1.1-0.7-1.9-1.6-2.2c-0.4-0.1-0.8-0.2-1.1-0.2s-0.8,0.1-1.1,0.2C55.8,52.7,55,53.6,55,55l0,5v0.1h-0.1l-1.6,0.1l-0.2,0v-0.2
		v-6.2c0-1.3-0.6-2.1-1.4-2.4c-0.4-0.1-0.8-0.2-1.2-0.2s-0.8,0.1-1.2,0.2c-1.1,0.4-2,1.2-2,2.3v6.8v0.1h-0.1l-1.6,0.1l-0.2,0v-0.2
		l0-7.7c0-1.4-0.9-2.3-2-2.7c-0.4-0.2-0.9-0.2-1.4-0.2s-1,0.1-1.4,0.3c-1.1,0.4-2,1.4-2,3.1v7.9v0.1l-0.1,0l-1.2,0.1h-0.2v-0.1v-7.8
		c0-0.5,0-1-0.1-1.4c0-0.3-0.1-0.6-0.1-0.8c-0.7,1.6-1,3.5-1,5.4c0,7.9,6.4,14.3,14.3,14.3c1.6,0,3.1-0.3,4.5-0.7
		c1.4-0.5,2.7-1.1,3.9-2l-1.3-1.4L57,66.6l0.1-0.1l5.1-5.2l0.1-0.1l0.1,0.1l0.7,0.8c0.3-0.8,0.6-1.7,0.8-2.6c0.2-1,0.3-1.9,0.3-3
		C64.3,55.4,64.2,54.3,63.9,53.2z"/>
	<path class="st310" d="M39.7,46.7l23.1,3.5c-2.4-4.7-7.2-7.9-12.8-7.9C45.9,42.3,42.3,44,39.7,46.7z"/>
	<path class="st28" d="M62.9,50.5L39.4,47c-1,1.1-1.9,2.4-2.5,3.7c0.1,0.4,0.1,0.9,0.2,1.3c0.1,0.5,0.1,1,0.1,1.5l0,7.7l0.9-0.1
		v-7.7c0-1.8,1-2.9,2.2-3.4c0.5-0.2,1-0.3,1.5-0.3c0.5,0,1,0.1,1.5,0.3c1.2,0.4,2.2,1.5,2.2,3v7.5l1.3-0.1v-6.6c0-1.2,1-2.1,2.2-2.5
		c0.4-0.2,0.9-0.2,1.3-0.3c0.4,0,0.9,0.1,1.3,0.2c1,0.4,1.6,1.2,1.6,2.7v6l1.4-0.1V55c0-1.5,0.8-2.5,1.9-2.9
		c0.4-0.1,0.8-0.2,1.3-0.2s0.9,0.1,1.2,0.2c1,0.4,1.8,1.2,1.8,2.5l0,4.8l1.3-0.1l0.1-4.2c0-0.5,0.2-0.9,0.5-1.3
		c0.3-0.4,0.7-0.7,1.2-0.9c-0.1-0.4-0.2-0.8-0.4-1.2C63.3,51.3,63.1,50.9,62.9,50.5z"/>
	<path d="M47.9,36.3c-0.2-0.3-0.4-0.5-0.7-0.6c-0.2-0.1-0.4-0.1-0.5-0.1l0,0V36l0,0c0.2,0,0.4,0.1,0.5,0.2c0.2,0.1,0.3,0.4,0.4,0.7
		c0.1,0.3,0,0.6-0.1,0.8c-0.1,0.2-0.3,0.3-0.6,0.4c-0.1,0-0.1,0-0.2,0l0,0v0.5l0,0c0.1,0,0.1,0,0.1,0c0.2,0,0.4-0.1,0.6-0.3
		c0.2-0.1,0.3-0.3,0.4-0.5c0,0.1,0,0.1,0,0.1c0,0.2,0.1,0.5,0,0.7c0,0.2-0.1,0.4-0.1,0.6c-0.1,0.1-0.1,0.3-0.3,0.4
		c-0.1,0.1-0.3,0.2-0.4,0.2c-0.1,0-0.2,0-0.4,0l0,0v0.5l0,0c0.1,0,0.3,0,0.4,0c0.3-0.1,0.7-0.2,0.9-0.4c0.2-0.2,0.4-0.5,0.4-0.9
		c0.1-0.4,0.1-0.9-0.1-1.4C48.2,37,48.1,36.5,47.9,36.3z M46.6,35.5c-0.1,0-0.2,0-0.3,0c-0.4,0.1-0.8,0.3-1,0.6
		c-0.2,0.3-0.3,0.8-0.2,1.2c0.1,0.4,0.3,0.8,0.6,1c0.3,0.2,0.6,0.3,0.9,0.2v-0.5c-0.2,0-0.4-0.1-0.5-0.2c-0.2-0.1-0.3-0.4-0.4-0.7
		c-0.1-0.3,0-0.6,0.1-0.8c0.2-0.2,0.4-0.4,0.6-0.4c0.1,0,0.1,0,0.2,0L46.6,35.5L46.6,35.5z M46.6,39.8c-0.1,0-0.1,0-0.2-0.1
		c-0.1-0.1-0.2-0.2-0.4-0.5l-0.5,0.1c0.1,0.4,0.3,0.6,0.6,0.8c0.1,0.1,0.3,0.2,0.5,0.2V39.8z"/>
	<path d="M40,37.8c0,0.2,0,0.5-0.1,0.8c-0.1,0.3-0.3,0.6-0.5,0.9l0.3,0.5c0.1-0.1,0.3-0.3,0.4-0.5c0.1-0.2,0.2-0.4,0.3-0.6l1.8,3.2
		l0.5-0.3l-2.3-4.2L40,37.8z"/>
	<path d="M51.7,37.8l0.5,0.1c0.1-0.1,0.2-0.2,0.4-0.2c0.2-0.1,0.3-0.1,0.5,0c0.3,0.1,0.5,0.2,0.7,0.4c0.1,0.2,0.2,0.5,0.1,0.8
		c-0.1,0.3-0.2,0.6-0.4,0.8c-0.2,0.2-0.5,0.2-0.8,0.2c-0.2-0.1-0.4-0.2-0.5-0.3c-0.1-0.2-0.2-0.4-0.2-0.7l-0.6-0.1
		c0,0.4,0.1,0.8,0.3,1c0.2,0.3,0.5,0.4,1,0.5c0.5,0.1,1,0,1.3-0.4c0.3-0.3,0.5-0.6,0.5-1c0.1-0.4,0-0.8-0.2-1.2
		c-0.2-0.3-0.5-0.5-1-0.6c-0.3-0.1-0.6,0-0.9,0.1l0.5-1.2l1.9,0.3l0.1-0.5l-2.3-0.4L51.7,37.8z"/>
	<path d="M59,42.2L59,42.2c0.2-0.1,0.4-0.2,0.5-0.4c0.3-0.2,0.5-0.6,0.8-1.1c0.2-0.4,0.4-0.7,0.5-1c0.1-0.3,0.1-0.5,0.1-0.8
		c0-0.2-0.1-0.4-0.2-0.6c-0.1-0.2-0.3-0.3-0.5-0.4c-0.3-0.2-0.6-0.2-0.9-0.2c-0.1,0-0.2,0-0.3,0.1l0,0v0.6l0,0
		c0.1-0.1,0.1-0.1,0.2-0.1c0.2-0.1,0.5-0.1,0.7,0c0.2,0.1,0.4,0.4,0.4,0.7c0,0.3-0.1,0.8-0.5,1.5c-0.3,0.5-0.6,0.9-0.8,1.1l0,0V42.2
		z M57.9,42.1c0.3,0.2,0.6,0.2,0.9,0.2l0.3-0.1v-0.6c-0.1,0.1-0.1,0.1-0.2,0.1c-0.3,0.1-0.5,0.1-0.8,0c-0.2-0.1-0.4-0.3-0.4-0.7
		c0-0.3,0.1-0.8,0.5-1.5c0.3-0.5,0.5-0.9,0.8-1.1v-0.6c-0.2,0.1-0.4,0.2-0.5,0.4c-0.3,0.2-0.5,0.6-0.8,1.1c-0.4,0.8-0.6,1.4-0.5,1.9
		C57.2,41.6,57.5,41.9,57.9,42.1z"/>
	<path d="M71.1,59.6c0-0.2-0.1-0.4-0.1-0.5c-0.1-0.1-0.2-0.3-0.4-0.4c-0.2-0.1-0.4-0.2-0.6-0.2c-0.1,0-0.2,0-0.4,0V59
		c0.1,0,0.2,0,0.2,0c0.2,0,0.3,0.1,0.4,0.1c0.1,0.1,0.2,0.2,0.2,0.3c0.1,0.1,0.1,0.2,0.1,0.4c0,0.1,0,0.2-0.1,0.4l-0.2,1.2l-0.7-0.1
		V62l1.1,0.2l0.3-1.8C71.1,60.1,71.1,59.8,71.1,59.6z M69.6,58.4c-0.1,0-0.2,0.1-0.4,0.1c-0.2,0.1-0.4,0.3-0.5,0.5
		c-0.1-0.2-0.2-0.4-0.3-0.5c-0.2-0.1-0.3-0.2-0.5-0.2c-0.1,0-0.2,0-0.3,0v0.6c0.1,0,0.2,0,0.2,0c0.2,0,0.3,0.1,0.4,0.2
		c0.1,0.1,0.1,0.2,0.2,0.4c0,0.1,0,0.3,0,0.6l-0.2,1L67.6,61v0.6l2.1,0.4v-0.6l-0.9-0.2l0.2-1.1c0.1-0.3,0.1-0.5,0.2-0.7
		c0.1-0.1,0.2-0.2,0.3-0.3c0.1,0,0.1,0,0.2-0.1L69.6,58.4L69.6,58.4z M67.6,58.2L67.6,58.2c-0.1,0-0.2,0-0.4,0.1
		c-0.2,0.1-0.4,0.2-0.5,0.4c-0.1,0.2-0.2,0.5-0.3,0.8l-0.3,1.7l1.5,0.3h0V61h0l-0.8-0.2l0.2-0.9c0.1-0.3,0.1-0.6,0.2-0.7
		c0.1-0.1,0.2-0.2,0.3-0.3c0.1,0,0.1,0,0.2,0h0L67.6,58.2L67.6,58.2z"/>
	<polygon points="38.4,69.5 38.8,69.8 39.2,69.5 38.4,68.7 36.6,66.7 36.2,67.1 37.3,68.2 35.1,70.3 34.2,71.1 34.6,71.5 35.1,71.1 
		37.7,68.7 	"/>
	<path d="M61.4,72.8l-0.3,0.1c0.1,0.4,0.1,0.7,0.1,1c-0.1,0.3-0.3,0.5-0.6,0.7c-0.2,0.2-0.5,0.2-0.8,0.2c-0.3,0-0.5-0.1-0.8-0.3
		c-0.2-0.2-0.5-0.5-0.7-0.8c-0.2-0.2-0.3-0.5-0.3-0.9c-0.1-0.3,0-0.6,0.1-0.9c0.1-0.2,0.3-0.5,0.7-0.7c0.3-0.2,0.5-0.2,0.8-0.2
		c0.2,0,0.5,0.1,0.8,0.4l0.4-0.4c-0.3-0.3-0.7-0.5-1.1-0.5c-0.4,0-0.8,0.1-1.2,0.3c-0.4,0.2-0.6,0.5-0.8,0.8
		c-0.2,0.3-0.3,0.7-0.2,1.1c0,0.4,0.2,0.8,0.4,1.3c0.2,0.4,0.5,0.7,0.9,1c0.3,0.2,0.7,0.4,1.1,0.4s0.8-0.1,1.2-0.4
		c0.2-0.1,0.4-0.3,0.6-0.5c0.1-0.2,0.2-0.3,0.3-0.5c0.2-0.4,0.2-0.9,0-1.4L61.4,72.8z"/>
	<path d="M35.9,65.8l-0.3-0.5l-0.6,0.3l-1.9,0.9c-0.5,0.2-0.9,0.3-1.2,0.2c-0.3-0.1-0.5-0.3-0.7-0.7c-0.1-0.2-0.2-0.5-0.2-0.7
		c0-0.2,0.1-0.4,0.2-0.5c0.1-0.2,0.4-0.3,0.8-0.5l2.4-1.2l-0.3-0.6l-2.4,1.2c-0.4,0.2-0.8,0.4-1,0.7c-0.2,0.2-0.3,0.5-0.3,0.8
		c0,0.3,0.1,0.7,0.3,1.1c0.2,0.4,0.4,0.7,0.7,0.9c0.3,0.2,0.6,0.2,0.9,0.2c0.3,0,0.7-0.1,1.1-0.4l1.6-0.8L35.9,65.8z"/>
	<polygon points="31.3,61.3 31.8,61.2 31.4,59 32.9,58.8 33.3,61.3 33.9,61.2 33.3,58 28.7,58.9 28.8,59.5 30.9,59.1 	"/>
	<path d="M41.7,71l-0.9-0.5l-0.6-0.4l-0.4,0.7V72l0.7-1.1l0.4,0.2l0.4,0.2c0.3,0.2,0.5,0.3,0.6,0.4c0.1,0.1,0.1,0.2,0.1,0.4
		c0,0.1,0,0.3-0.1,0.4c-0.1,0.1-0.2,0.2-0.3,0.3c-0.1,0.1-0.3,0.1-0.4,0c-0.1,0-0.2-0.1-0.3-0.1c-0.1,0-0.2-0.1-0.3-0.2l-0.8-0.5
		v0.7l0.5,0.3c0.2,0.1,0.4,0.3,0.5,0.4c0,0,0,0,0.1,0.1c0.1,0.1,0.2,0.3,0.2,0.4c0,0.2,0,0.3-0.1,0.5c0,0-0.1,0.1-0.1,0.1
		c-0.1,0.1-0.1,0.1-0.2,0.2c-0.1,0.1-0.2,0.1-0.4,0.1c-0.1,0-0.2,0-0.4-0.1c0,0-0.1,0-0.1-0.1v0.6c0.1,0,0.1,0,0.1,0
		c0.2,0.1,0.4,0.1,0.5,0.1c0.1,0,0.2,0,0.3-0.1c0.1,0,0.1-0.1,0.2-0.1c0.2-0.1,0.3-0.2,0.4-0.4c0.1-0.2,0.2-0.5,0.2-0.7
		c0-0.2-0.1-0.5-0.3-0.7c0.2,0,0.5,0,0.7-0.1c0.2-0.1,0.4-0.2,0.4-0.4c0.1-0.2,0.2-0.4,0.2-0.6c0-0.2-0.1-0.4-0.2-0.6
		C42.2,71.4,42,71.2,41.7,71z M39.8,70.8l-1.3,2.1l-0.8,1.2l0.8,0.5l0.8,0.5c0.2,0.1,0.4,0.2,0.5,0.3v-0.6c-0.1,0-0.1-0.1-0.2-0.1
		l-1-0.6l0.9-1.4l0.4,0.2v-0.7L39.7,72l0.1-0.1V70.8z"/>
	<polygon points="50.7,77.4 50.3,73.3 49.7,73.3 50.1,78 53.1,77.8 53,77.2 	"/>
	<polygon points="64.5,71.5 61.5,68.7 61.4,68.7 61,69.2 61.4,69.5 64.5,72.3 66.5,70.2 66.1,69.8 	"/>
	<path d="M68.9,64.6c-0.2-0.2-0.5-0.4-0.9-0.7l-0.5-0.2l-2-1l-0.3,0.5l2.3,1.1l0.2,0.1c0.5,0.3,0.8,0.5,1,0.8c0.1,0.3,0,0.6-0.2,1
		c-0.1,0.2-0.3,0.4-0.4,0.5C67.9,67,67.8,67,67.6,67c0,0,0,0,0,0c-0.2,0-0.5-0.1-0.9-0.3l-2.4-1.2L64,66.1l2.4,1.2
		c0.4,0.2,0.8,0.3,1.1,0.4h0c0.3,0,0.6-0.1,0.8-0.2c0.2-0.2,0.5-0.5,0.7-0.9c0.2-0.4,0.3-0.8,0.2-1.1C69.3,65.1,69.2,64.8,68.9,64.6
		z"/>
	<path d="M47.5,73.3c-0.3-0.3-0.7-0.5-1.1-0.6c-0.2-0.1-0.4-0.1-0.6-0.1v0.5c0.1,0,0.3,0,0.5,0.1c0.3,0.1,0.5,0.2,0.8,0.4
		c0.2,0.2,0.3,0.5,0.4,0.8c0.1,0.3,0,0.7-0.1,1c-0.1,0.6-0.4,1-0.8,1.3c-0.2,0.2-0.5,0.2-0.8,0.2v0.5c0.2,0,0.4,0,0.6-0.1
		c0.4-0.1,0.7-0.3,1-0.6c0.3-0.3,0.5-0.7,0.6-1.2c0.1-0.4,0.1-0.9,0.1-1.3C48,74,47.8,73.6,47.5,73.3z M45.9,72.7L45.9,72.7
		c-0.4,0-0.8,0.1-1.1,0.3c-0.5,0.3-0.9,0.9-1,1.6c-0.1,0.4-0.1,0.8,0,1.2c0.1,0.4,0.3,0.8,0.6,1c0.3,0.3,0.6,0.5,1.1,0.6
		c0.2,0,0.4,0.1,0.6,0.1l0,0V77l0,0c-0.2,0-0.3,0-0.5-0.1c-0.4-0.1-0.8-0.4-1-0.8c-0.2-0.4-0.2-0.8-0.1-1.4c0.2-0.7,0.4-1.1,0.8-1.4
		c0.2-0.1,0.5-0.2,0.8-0.2l0,0V72.7z"/>
	<path d="M51.9,68.5c-0.8,0.3-1.7,0.2-2.4-0.1s-1.3-1-1.6-1.8c-0.3-0.8-0.2-1.7,0.1-2.4c0.3-0.8,1-1.4,1.8-1.6
		c0.8-0.3,1.7-0.2,2.4,0.1c0.8,0.3,1.4,1,1.7,1.8s0.2,1.7-0.1,2.4C53.4,67.6,52.8,68.2,51.9,68.5z"/>
	<path class="st28" d="M53.7,64.6c0-0.1,0-0.1,0-0.1c0,0,0-0.1,0-0.1C53.7,64.5,53.7,64.6,53.7,64.6L53.7,64.6z"/>
	<path class="st28" d="M53,63.5c0.4,0.4,0.6,1,0.7,1.2c0.1,0,0.1,0.1,0.2,0.2c0-0.1-0.1-0.2-0.1-0.4c-0.2-0.5-0.4-0.9-0.8-1.2
		C53,63.3,53,63.4,53,63.5z"/>
	<path class="st28" d="M49.7,62.8c0.7-0.2,1.2-0.2,1.4-0.2c0,0,0.1-0.1,0.2-0.1c-0.5-0.1-1.1-0.1-1.6,0.1c-0.1,0.1-0.2,0.1-0.4,0.2
		C49.5,62.8,49.6,62.7,49.7,62.8z"/>
	<path class="st28" d="M50.9,68.5c-0.1,0-0.1,0.1-0.2,0.1c0.4,0,0.8,0,1.3-0.2c0.1,0,0.2-0.1,0.3-0.1c-0.1,0-0.1,0-0.2,0
		C51.5,68.5,51,68.5,50.9,68.5z"/>
	<path class="st28" d="M47.9,66.3c0-0.1-0.1-0.1-0.1-0.1c0,0.1,0.1,0.3,0.1,0.4c0.1,0.4,0.3,0.7,0.6,1c0-0.1,0-0.2,0-0.2
		C48.1,66.9,48,66.5,47.9,66.3z"/>
	<path class="st28" d="M52.4,67.6c0,0.1-0.1,0.4-0.3,0.6c0.1,0,0.2,0,0.2,0h0l0,0c0.5-0.3,1-0.8,1.3-1.4c0.1-0.1,0.1-0.2,0.1-0.4
		c-0.1,0.1-0.2,0.1-0.4,0.2C53.1,67.1,52.8,67.4,52.4,67.6z"/>
	<path class="st28" d="M47.7,65.9c0,0,0.1,0.1,0.2,0.2c0-0.1,0.1-0.4,0.3-0.5c0-0.2,0-0.7,0.2-1.3c-0.1-0.1-0.1-0.3-0.1-0.5
		c-0.1,0.1-0.2,0.3-0.3,0.5C47.7,64.7,47.7,65.3,47.7,65.9L47.7,65.9L47.7,65.9z"/>
	<path class="st28" d="M50.4,68.6c0.1-0.1,0.2-0.1,0.3-0.1c-0.1-0.1-0.2-0.2-0.3-0.4c-0.4-0.1-1-0.4-1.2-0.6
		c-0.1,0.1-0.4,0.1-0.6,0.1c0,0.1,0,0.2,0.1,0.3l0,0c0.2,0.2,0.5,0.4,0.9,0.6C49.8,68.5,50.1,68.6,50.4,68.6L50.4,68.6L50.4,68.6z"
		/>
	<path class="st28" d="M50.3,64.3c0.2-0.1,0.7-0.2,1.2-0.2l0.4-0.8c-0.2-0.3-0.5-0.5-0.7-0.6c-0.2,0-0.8-0.1-1.4,0.2
		c-0.1,0.1-0.2,0.4-0.3,0.8C49.9,63.9,50.2,64.1,50.3,64.3z"/>
	<path class="st28" d="M50.2,64.4c-0.1-0.1-0.4-0.4-0.8-0.6c-0.4,0.1-0.7,0.4-0.8,0.5c-0.2,0.6-0.2,1.1-0.2,1.3
		c0.1,0.1,0.4,0.4,0.7,0.5c0.4-0.4,0.8-0.5,1-0.6C50,65.1,50.2,64.5,50.2,64.4z"/>
	<path class="st28" d="M52,63.3l-0.4,0.9c0.2,0.2,0.5,0.8,0.5,1c0.5,0,0.9,0.1,1,0.2c0.2-0.2,0.3-0.5,0.4-0.7
		c-0.1-0.2-0.2-0.8-0.7-1.2C52.8,63.4,52.4,63.3,52,63.3z"/>
	<path class="st28" d="M52.1,65.3c-0.1,0.1-0.4,0.5-0.8,0.8c0.2,0.5,0.2,1,0.2,1.1c0.4,0.1,0.8,0.2,0.9,0.2c0.5-0.3,0.8-0.8,0.9-1
		c0-0.2,0-0.6-0.1-1C53,65.4,52.6,65.2,52.1,65.3z"/>
	<path class="st28" d="M50.1,65.6c-0.2,0.1-0.6,0.2-1,0.6c0,0.5,0.1,0.9,0.1,1.1c0.2,0.1,0.8,0.5,1.2,0.6c0.1-0.1,0.5-0.3,1-0.6
		c0-0.2,0-0.6-0.2-1.1C51,66.1,50.4,65.8,50.1,65.6z"/>
</g>
</svg>
