<?xml version="1.0" encoding="utf-8"?>
<!-- Generator: Adobe Illustrator 19.2.1, SVG Export Plug-In . SVG Version: 6.00 Build 0)  -->
<svg version="1.1" id="Capa_1" xmlns="http://www.w3.org/2000/svg" xmlns:xlink="http://www.w3.org/1999/xlink" x="0px" y="0px"
	 viewBox="0 0 100 100" style="enable-background:new 0 0 100 100;" xml:space="preserve">
<style type="text/css">
	.st0{fill:url(#path34_4_);}
	.st1{fill:url(#path890_1_);}
	.st2{fill:#FFE500;stroke:#000000;stroke-width:2.098;stroke-miterlimit:3.863;}
	.st3{fill:#DA020E;}
	.st4{fill:#FFE500;}
	.st5{clip-path:url(#SVGID_2_);}
	.st6{fill:none;stroke:#B54005;stroke-width:10;stroke-miterlimit:3.863;}
	.st7{fill:url(#path7506_1_);}
	.st8{fill:url(#path8794_1_);}
	.st9{fill:url(#path15846_1_);}
	.st10{fill:url(#path16274_1_);}
	.st11{fill:url(#path39821_1_);}
	.st12{fill:url(#path39847_1_);}
	.st13{fill:url(#path39878_1_);}
	.st14{fill:url(#path39888_1_);}
	.st15{fill:url(#path41035_1_);}
	.st16{fill:url(#path9646-8_1_);}
	.st17{fill:url(#path41092_1_);}
	.st18{fill:url(#path41094_1_);}
	.st19{fill:none;stroke:#000000;stroke-width:2.098;stroke-miterlimit:3.863;}
	.st20{fill:url(#path41152_1_);}
	.st21{fill:url(#path39854_1_);}
	.st22{fill:url(#path39874_1_);}
	.st23{fill:#9C824A;stroke:#9C824A;stroke-width:0.793;stroke-miterlimit:282;}
	.st24{fill:#023474;stroke:#023474;stroke-width:0.793;stroke-miterlimit:282;}
	.st25{fill:#FFFFFF;stroke:#FFFFFF;stroke-width:0.793;stroke-miterlimit:282;}
	.st26{fill:#EF0107;stroke:#EF0107;stroke-width:0.793;stroke-miterlimit:282;}
	.st27{fill:#DB0007;stroke:#DB0007;stroke-width:0.793;stroke-miterlimit:282;}
	.st28{fill:#FFFFFF;}
	.st29{fill:#9C824A;}
	.st30{fill:#EF0107;stroke:#EF0107;stroke-width:0.3115;stroke-miterlimit:282;}
	.st31{fill:#DB0007;stroke:#DB0007;stroke-width:0.3115;stroke-miterlimit:282;}
	.st32{fill:#DB0007;}
	.st33{fill:#FFFFFF;stroke:#FFFFFF;stroke-width:0.3115;stroke-miterlimit:282;}
	.st34{fill:#FFFFFF;stroke:#FFFFFF;stroke-width:0.554;stroke-miterlimit:3.864;}
	.st35{fill:#231F20;}
	.st36{fill:#00B6F1;stroke:#00B6F1;stroke-width:1.700000e-02;stroke-miterlimit:3.864;}
	.st37{fill:#EF3E2E;}
	.st38{fill:#BBBDBF;}
	.st39{fill:#F0B83D;}
	.st40{fill:#00B6F1;stroke:#FFFFFF;stroke-width:1.700000e-02;stroke-miterlimit:3.864;}
	.st41{fill:#001C58;}
	.st42{fill:#94BEE5;}
	.st43{fill:none;stroke:#7A003C;stroke-width:2.2437;stroke-miterlimit:6;}
	.st44{fill:#7A003C;}
	.st45{fill:#FFE600;}
	.st46{fill:#DBA111;}
	.st47{fill:#034694;}
	.st48{fill:#D1D3D4;}
	.st49{fill:#ED1C24;}
	.st50{fill:#6A7AB5;}
	.st51{fill:none;}
	.st52{fill:#274488;}
	.st53{fill:#004798;stroke:#004798;stroke-width:9.375000e-02;}
	.st54{fill:#FFFFFF;stroke:#FFFFFF;stroke-width:9.375000e-02;}
	.st55{fill:#FABC00;stroke:#FABC00;stroke-width:9.375000e-02;}
	.st56{fill:none;stroke:#FFFFFF;stroke-width:7.865;stroke-miterlimit:3.864;}
	.st57{fill:none;stroke:#FFFFFF;stroke-width:7.865;stroke-miterlimit:12;}
	.st58{fill:none;stroke:#FFFFFF;stroke-width:7.865;stroke-miterlimit:22;}
	.st59{fill:none;stroke:#FFFFFF;stroke-width:7.865;stroke-miterlimit:6;}
	.st60{fill:#00A398;}
	.st61{fill:#D00027;}
	.st62{fill:none;stroke:#FFFFFF;stroke-width:17.3907;stroke-miterlimit:3.864;}
	.st63{fill:none;stroke:#FFFFFF;stroke-width:13.1107;stroke-miterlimit:3.864;}
	.st64{fill:#FEF667;}
	.st65{fill:#D00027;stroke:#D00027;}
	.st66{fill:#5299C6;}
	.st67{fill:#60223B;}
	.st68{fill:#F7C240;}
	.st69{fill:#292D6B;}
	.st70{fill:#1B458F;}
	.st71{fill:#C4122E;}
	.st72{fill:#27409B;}
	.st73{clip-path:url(#SVGID_4_);}
	.st74{fill:#F4F4F4;}
	.st75{fill:#D3D2D2;}
	.st76{fill:#A7A5A6;}
	.st77{fill:#091453;}
	.st78{fill:none;stroke:#FFFFFF;stroke-width:6.6301;}
	.st79{clip-path:url(#SVGID_6_);}
	.st80{fill:#724314;}
	.st81{fill:#240B08;}
	.st82{fill:#018B4B;}
	.st83{fill:#A6181D;}
	.st84{fill:#592D09;}
	.st85{fill:#FFCE65;}
	.st86{fill:#5CBFEB;}
	.st87{fill:none;stroke:#000000;stroke-width:10;}
	.st88{fill:none;stroke:#000000;}
	.st89{fill:#B2B2B2;}
	.st90{fill:none;stroke:#000000;stroke-width:0.3;}
	.st91{fill:#00A650;stroke:#000000;stroke-width:2;}
	.st92{fill:#241F20;stroke:#241F20;stroke-width:9.375000e-02;}
	.st93{fill:#FFF200;stroke:#FFF200;stroke-width:9.375000e-02;}
	.st94{fill:#A68A26;}
	.st95{fill:none;stroke:#A68A26;stroke-width:4.792100e-02;stroke-miterlimit:3.8637;}
	.st96{fill:#211E1E;}
	.st97{fill:none;stroke:#211E1E;stroke-width:4.792100e-02;stroke-miterlimit:3.8637;}
	.st98{fill:#EB172B;}
	.st99{fill:none;stroke:#EB172B;stroke-width:4.792100e-02;stroke-miterlimit:3.8637;}
	.st100{fill:#A68A26;stroke:#A68A26;stroke-width:4.792100e-02;stroke-miterlimit:3.8637;}
	.st101{fill:#D1BF7F;}
	.st102{fill:none;stroke:#D1BF7F;stroke-width:4.792100e-02;stroke-miterlimit:3.8637;}
	.st103{fill:none;stroke:#FFFFFF;stroke-width:4.792100e-02;stroke-miterlimit:3.8637;}
	.st104{fill:#EB172B;stroke:#EB172B;stroke-width:4.792100e-02;stroke-miterlimit:3.8637;}
	.st105{fill:#ED2127;}
	.st106{fill:#FBEE23;}
	.st107{stroke:#000000;}
	.st108{fill:#CF1F44;}
	.st109{fill:#1B449C;}
	.st110{fill:#E03A3E;}
	.st111{fill:#E03A3E;stroke:#E03A3E;stroke-width:0.6565;}
	.st112{fill:none;stroke:#1B449C;stroke-width:0.7493;}
	.st113{fill:none;stroke:#1B449C;stroke-width:0.7567;}
	.st114{fill:#1B449C;stroke:#1B449C;stroke-width:0.6274;}
	.st115{fill:#1B449C;stroke:#1B449C;stroke-width:0.6755;}
	.st116{fill:#2E6ABD;stroke:#2E6ABD;stroke-width:0.617;}
	.st117{fill:#FFFFFF;stroke:#FFFFFF;stroke-width:0.6175;}
	.st118{fill:#ED1248;}
	.st119{fill:#2E6ABD;}
	.st120{fill:#FDE100;}
	.st121{fill:#CC0000;}
	.st122{fill:#211E1F;}
	.st123{fill:#ED1A3B;}
	.st124{fill:#00AEEF;}
	.st125{fill:#FFC40D;}
	.st126{fill:#22B24C;}
	.st127{fill:#FFC20E;}
	.st128{fill:#0A3F86;}
	.st129{fill:#005CA9;}
	.st130{fill:#FFE000;}
	.st131{fill:#E2001A;}
	.st132{opacity:0;}
	.st133{opacity:0;fill:#FFFFFF;}
	.st134{fill:#FFFFFF;stroke:#000000;}
	.st135{fill:#0060A9;}
	.st136{fill:#E32219;}
	.st137{fill:#FFED00;}
	.st138{fill:#1D9053;}
	.st139{fill:#52A600;}
	.st140{fill:#EE2523;}
	.st141{fill:#F7D117;}
	.st142{fill:#171796;}
	.st143{fill:#009959;}
	.st144{fill:#D42E12;}
	.st145{fill:#703824;}
	.st146{fill:#E5254E;}
	.st147{fill:#8AC3EE;}
	.st148{fill:#B19221;}
	.st149{fill:#F5C03E;}
	.st150{fill:#FF1119;}
	.st151{fill:#1E6BC0;}
	.st152{fill:#B4742A;}
	.st153{fill:#371B02;}
	.st154{fill:url(#SVGID_7_);}
	.st155{fill:url(#SVGID_8_);}
	.st156{fill:url(#SVGID_9_);}
	.st157{fill:url(#SVGID_10_);}
	.st158{fill:url(#SVGID_11_);}
	.st159{fill:url(#SVGID_12_);}
	.st160{fill:url(#SVGID_13_);}
	.st161{fill:url(#SVGID_14_);}
	.st162{fill:url(#SVGID_15_);}
	.st163{fill:url(#SVGID_16_);}
	.st164{fill:#EB2626;}
	.st165{fill:#E9C32C;}
	.st166{fill:#D9D9D9;}
	.st167{fill:#009C5E;}
	.st168{fill:#1C75BC;}
	.st169{fill:#611D5C;}
	.st170{fill:#E2B900;}
	.st171{fill:#004B95;}
	.st172{fill:#A4234B;}
	.st173{fill:#DB2F36;}
	.st174{fill:#FFDF00;}
	.st175{fill:#A38D44;}
	.st176{fill:#57175E;}
	.st177{fill:#AFDCFD;}
	.st178{fill:#0090C6;}
	.st179{fill:#DB5232;}
	.st180{fill:#23C1E0;}
	.st181{fill:#F1A92A;}
	.st182{fill:#167FB6;}
	.st183{fill:#FED75D;}
	.st184{fill:#378CBF;}
	.st185{fill:#3E9692;}
	.st186{fill:#E67F29;}
	.st187{fill:#D8B43C;}
	.st188{fill:#EF3B33;}
	.st189{fill:#24923D;}
	.st190{opacity:6.000001e-02;fill:#101010;enable-background:new    ;}
	.st191{fill:#00529F;}
	.st192{fill:#EE324E;}
	.st193{fill:#FEBE10;}
	.st194{fill:#143C8B;}
	.st195{fill:#FFE24A;}
	.st196{fill:#EC1D24;}
	.st197{fill:#E6A514;}
	.st198{fill:#FFDF1C;}
	.st199{fill:#EE3524;}
	.st200{fill:#B23428;}
	.st201{fill:#D18816;}
	.st202{fill:#0097D7;}
	.st203{fill:#ED1C23;}
	.st204{fill:#E30613;}
	.st205{fill:#FFE400;}
	.st206{fill:#C51A1B;}
	.st207{clip-path:url(#SVGID_19_);}
	.st208{clip-path:url(#SVGID_20_);fill:none;stroke:#000000;stroke-width:0.8131;stroke-miterlimit:3.864;}
	.st209{fill:#0093D5;}
	.st210{fill:#004B9D;}
	.st211{fill:#FCC24F;}
	.st212{fill:#009545;}
	.st213{fill:#0072BB;}
	.st214{fill:#C4974E;}
	.st215{fill:url(#path1292_1_);}
	.st216{fill:#004996;}
	.st217{fill:#FFE667;}
	.st218{fill:none;stroke:#005187;stroke-width:0.153;stroke-miterlimit:3.864;}
	.st219{fill:#005187;}
	.st220{clip-path:url(#SVGID_22_);}
	.st221{clip-path:url(#SVGID_24_);fill:none;stroke:#000000;stroke-width:0.296;stroke-miterlimit:3.864;}
	.st222{clip-path:url(#SVGID_26_);fill:#FFE667;}
	.st223{clip-path:url(#SVGID_28_);fill:none;stroke:#000000;stroke-width:8.300000e-02;stroke-miterlimit:3.864;}
	.st224{fill:none;stroke:#000000;stroke-width:0.153;stroke-miterlimit:3.864;}
	.st225{clip-path:url(#SVGID_30_);fill:#E70005;}
	.st226{clip-path:url(#SVGID_32_);fill:none;stroke:#E70005;stroke-width:0.296;stroke-miterlimit:3.864;}
	.st227{clip-path:url(#SVGID_34_);fill:#E70005;}
	.st228{clip-path:url(#SVGID_36_);fill:none;stroke:#E70005;stroke-width:0.296;stroke-miterlimit:3.864;}
	.st229{clip-path:url(#SVGID_38_);fill:#E70005;}
	.st230{clip-path:url(#SVGID_40_);fill:none;stroke:#E70005;stroke-width:0.296;stroke-miterlimit:3.864;}
	.st231{clip-path:url(#SVGID_42_);fill:#E70005;}
	.st232{clip-path:url(#SVGID_44_);fill:none;stroke:#E70005;stroke-width:0.296;stroke-miterlimit:3.864;}
	.st233{fill:#E70005;}
	.st234{fill:none;stroke:#000000;stroke-width:0.141;stroke-miterlimit:3.864;}
	.st235{fill:#00276D;}
	.st236{fill:#C49308;}
	.st237{fill:#179D33;}
	.st238{fill:#999999;}
	.st239{fill:#FF0000;}
	.st240{fill:#E31837;}
	.st241{fill:#06357A;}
	.st242{fill:#B4053F;}
	.st243{fill:#DCA43E;}
	.st244{fill:#005CA5;}
	.st245{fill:#FAC400;}
	.st246{fill:#004083;}
	.st247{fill:#A95932;}
	.st248{fill:none;stroke:#000000;stroke-width:1.2215;}
	.st249{fill:#E62627;}
	.st250{fill:#00458C;}
	.st251{fill:#E11B22;}
	.st252{fill:#00AB4E;}
	.st253{fill:#F47920;}
	.st254{fill:#C7C8CA;}
	.st255{fill:#E11515;}
	.st256{fill:#A4965F;}
	.st257{fill:#E51636;}
	.st258{fill:#EACC00;}
	.st259{fill:#4F846B;}
	.st260{fill:#E22227;}
	.st261{fill:#FAE700;}
	.st262{fill:url(#SVGID_45_);}
	.st263{fill:#666666;}
	.st264{fill:#FFF200;}
	.st265{fill:#00275D;}
	.st266{fill:#EF3E33;}
	.st267{fill:none;stroke:#00275D;stroke-width:2.632;}
	.st268{fill:#3F7652;}
	.st269{fill:#F1D261;}
	.st270{fill:#004D8F;}
	.st271{fill:#E7B137;stroke:#E7B137;stroke-miterlimit:10;}
	.st272{fill:#E7B137;}
	.st273{fill:#162577;}
	.st274{fill:#12692C;}
	.st275{fill:#D8141D;}
	.st276{fill:#AB830D;}
	.st277{fill:#0086CB;}
	.st278{fill:#001F42;}
	.st279{fill:#9A8F4A;}
	.st280{fill:#00559D;}
	.st281{fill:#FDDE00;}
	.st282{fill:#00924C;}
	.st283{fill:#233984;}
	.st284{fill:#FFD42E;}
	.st285{fill:#BA3733;}
	.st286{fill:#46714D;}
	.st287{fill:#221F1F;}
	.st288{fill:#00559E;}
	.st289{fill:#005C46;}
	.st290{fill:#FBC860;}
	.st291{fill:#D57C48;}
	.st292{fill:#040403;}
	.st293{fill:#4AB969;}
	.st294{fill:#8ED8F8;}
	.st295{fill:#FEC34E;}
	.st296{fill:#FFC95B;}
	.st297{fill:#00644C;}
	.st298{fill:#70B865;}
	.st299{fill:#CA6F44;}
	.st300{fill:#A8B8BE;}
	.st301{fill:#1C2C80;}
	.st302{fill:#E10321;}
	.st303{fill:none;stroke:#231F20;stroke-width:0.318;stroke-miterlimit:3.864;}
	.st304{fill:#D71920;}
	.st305{fill:#484749;}
	.st306{fill:#D9DBDC;}
	.st307{fill:#DF725A;}
	.st308{fill:#F2CABA;}
	.st309{fill:#E89C84;}
	.st310{fill:#264F99;}
	.st311{clip-path:url(#SVGID_47_);}
	.st312{fill:#161413;}
	.st313{fill:#ED1B26;}
	.st314{fill:#E60D2E;}
	.st315{fill:#FCD600;}
	.st316{fill:#004D91;}
	.st317{fill:#EAB412;}
	.st318{fill:#FDD31D;}
	.st319{fill:#EFB800;}
</style>
<g id="g2626" transform="matrix(2.3076923,0,0,2.3076923,-196.31039,-196.65447)">
	<g id="g2628">
		<g id="g2630">
			<g id="g2632">
				<path id="path2634" d="M103.1,99c0-0.2-0.1-0.3,0-0.4c0,0,0.2-0.1,0.2,0c0.1,0.1,0.1,0.2,0.2,0.3c0.1,0,0.2-0.1,0.3-0.1
					c0.1-0.1,0.3-0.1,0.5-0.1c0.4,0.1,0.7,0.3,0.9,0.5c-0.3-0.1-0.5-0.1-0.8-0.1l-0.2,0L103.1,99c-0.1,0-0.4,0.1-0.4,0.1
					c-0.6,0-1.3,0-1.8-0.4l-0.1,0.1c0,0.2,0.2,0.4,0.5,0.5c0,0.1,0.2,0.1,0.3,0.2c0.5,0.1,1,0.2,1.5,0.2c0,0,0.2,0,0.3,0
					c0.2,0.1,0.5,0,0.7,0.1c0.4,0,0.7,0.1,1.1,0.1l0,0c-0.2,0.1-0.5,0-0.7,0c-0.4,0.1-0.8-0.1-1.1-0.3c0,0-0.2,0-0.3,0
					c0,0,0,0.1,0,0.1c0,0.2,0.1,0.3,0.2,0.4c0,0.1,0.2,0.2,0.2,0.2c0.2,0.1,0.3,0.2,0.5,0.2c0.2,0.1,0.4,0.1,0.6,0.1
					c0.2,0.1,0.4,0.1,0.7,0.1c0,0,0.2,0,0.3,0.1v0c0.1,0,0.3,0,0.3,0.1c0.1,0.2-0.1,0.4-0.2,0.5c-0.3,0.1-0.7,0-0.9,0.2
					c-0.2,0.1-0.4,0.3-0.6,0.4c-0.2,0.2,0.2,0.2,0.2,0.3c-0.2,0.1-0.5,0.2-0.7,0.3c-0.2,0.3-0.5,0.4-0.6,0.8c0,0,0.1,0.1,0.2,0.1
					l7,0c0,0,0-0.1,0-0.1c0.1,0,0.2,0.1,0.3,0.1c0-0.1,0.1-0.1,0.1-0.2h0l0-0.5l0,0c0-0.2-0.1-0.5-0.1-0.7c0-0.2-0.1-0.4-0.2-0.6
					c0.1,0.1,0.3,0,0.4,0.1c0.1-0.1,0.1-0.2,0.1-0.4c0,0-0.1,0,0-0.1c0-0.4-0.1-0.8-0.3-1.2c-0.1-0.1-0.2-0.2-0.2-0.3l0.2-0.1
					c0-0.1,0-0.1,0-0.2c-0.1-0.1-0.1-0.3-0.1-0.4c0-0.2-0.1-0.4-0.2-0.6c-0.2-0.1-0.2-0.4-0.5-0.5l0.1,0c0.3-0.1,0.4-0.3,0.5-0.4
					c0.2-0.3,0.4-0.6,0.2-0.9c0,0.1-0.2,0.1-0.2,0.1c-0.4,0.2-1.1,0.2-1.5,0c-1.4-0.4-2.8-1.2-4.3-0.9c-0.6,0.1-1.2,0.3-1.6,0.8
					c-0.1,0.2-0.4,0.2-0.5,0.3c-0.2,0.1-0.3,0.3-0.4,0.5c-0.2,0.6,0,1.2,0.4,1.6c0,0,0.1,0,0.1,0.1C102.7,99,103.1,99.1,103.1,99
					C103.1,99,103.1,99.1,103.1,99"/>
				<path id="path2636" d="M114.4,110.7c0.1,0.2,0.2,0.3,0.3,0.5c0.1,0.1,0.2,0.1,0.3,0.3c0.1,0,0.2,0.1,0.2-0.1
					c0.2-0.1,0.2-0.4,0.4-0.6c0-0.2,0.1-0.3,0.2-0.5c0,0.1,0.1,0.2,0.1,0.2c0,0.6,0.2,0.9,0.2,1.5c0.1,0.6,0.2,0.9,0.3,1.5
					c0.1,0.5,0.3,0.9,0.6,1.4c0.2,0.3,0.4,0.6,0.6,0.9c0.1,0,0.1,0.2,0.2,0.1c-0.1-0.9,0.1-1.6,0.1-2.5c0.1,0.3,0.2,0.5,0.2,0.8
					c0,0.1,0,0.3,0.1,0.4c0.1,0.4,0.2,0.9,0.3,1.3c0.2,0.8,0.5,1.4,0.9,2c0.1,0.1,0.2,0.2,0.3,0.3c0,0.2,0.2,0.2,0.3,0.4
					c0.5,0.4,0.9,0.8,1.4,1.2c0.2,0.1,0.3,0.2,0.5,0.2c-0.1-0.1,0-0.2-0.1-0.3c0-0.2-0.3-0.3-0.3-0.6c-0.1,0,0-0.1-0.1-0.2
					c0-0.1-0.1-0.1-0.1-0.2c-0.1-0.2-0.2-0.4-0.2-0.7c-0.1-0.1-0.2-0.2-0.1-0.3l-0.1-0.1c-0.1-0.4-0.2-0.9-0.2-1.4h0
					c0-0.6-0.1-1.1-0.1-1.6c0,0,0,0,0,0c0.4,0.7,0.7,1.5,1.4,2c0.1,0.1,0.2,0.1,0.2,0.2c0,0.1,0.1,0,0.1,0.1h0.1
					c0.7,0.4,1.5,0.5,2.1,1c0.1,0,0.1,0.1,0.2,0.1c-0.3-0.9-1-1.5-1.5-2.2c-0.1-0.2-0.2-0.3-0.3-0.5c-0.2-0.3-0.2-0.7-0.4-1
					c-0.1-0.1,0.1-0.2-0.1-0.2c0-0.1-0.1-0.3-0.1-0.5c0-0.3-0.1-0.6-0.2-0.9h0c0-0.3-0.1-0.5-0.1-0.8c0.1,0-0.1-0.1,0-0.1
					c0.2,0.3,0.4,0.7,0.8,0.8c0.4,0.4,1,0.6,1.6,0.8c0.3-0.1,0.6,0.2,0.9,0.1c0-0.1-0.2-0.2-0.3-0.2c-0.1-0.2-0.4-0.3-0.6-0.6
					c-0.4-0.4-0.6-1-0.7-1.6c-0.1-0.2-0.1-0.4-0.2-0.6c0-0.2-0.1-0.4-0.1-0.7c0,0,0-0.1,0-0.1c-0.1-0.5-0.2-0.9-0.3-1.4l0,0
					c0-0.4-0.1-0.9-0.1-1.3l0,0c0.3,0,0.8,0,1.1-0.1c0.1-0.1,0.3-0.2,0.3-0.3c-0.2,0-0.4,0-0.5-0.2c-0.2-0.1-0.4-0.4-0.5-0.6
					c-0.1-0.6-0.4-1.1-0.5-1.7c-0.1,0,0-0.1-0.1-0.1c-0.1-0.6-0.3-1.2-0.4-1.9c0-0.1,0-0.3-0.1-0.5c0.2-0.1,0.5-0.1,0.7-0.3
					c0-0.1,0-0.1,0-0.2c-0.2,0-0.3-0.1-0.5-0.3c-0.1-0.2-0.3-0.5-0.3-0.7c-0.2-0.3-0.3-0.7-0.4-1c-0.1-0.2-0.1-0.4-0.2-0.5
					c0-0.3-0.2-0.5-0.3-0.8c0-0.1-0.1-0.1-0.1-0.2c-0.3-0.8-0.8-1.5-1.4-2c-0.2-0.3-0.6-0.4-0.8-0.6c-0.2-0.1-0.5-0.2-0.7-0.2
					c-0.4,0-0.8,0.1-1.1,0.2c-0.1,0-0.2,0.1-0.3,0.2c0,0.1-0.1,0.1-0.1,0.1c-0.5,0.5-0.8,1.2-1.1,1.9l-0.2,0.8
					c-0.1,0.1,0,0.2-0.1,0.2c-0.2,0.6-0.3,1.1-0.6,1.7c-0.1,0.1-0.1,0.3-0.2,0.4c-0.1,0.1-0.1,0.2-0.2,0.3c0,0.2-0.1,0.3-0.2,0.4
					c-0.1,0.3-0.3,0.6-0.5,0.9c-0.1,0.1-0.1,0.3-0.2,0.3c-0.1,0,0,0.1-0.1,0.1c-0.2,0.5-0.6,0.9-1,1.3l2.4,0L114.4,110.7"/>
				<path id="path2638" d="M98.4,111.5c-0.1,0-0.1,0-0.1,0c-0.2,0.1-0.1-0.1-0.2-0.1c-0.2-0.4-0.4-0.8-0.6-1.2c-0.1,1,0,2-0.1,3
					c-0.1,0.1,0,0.2-0.1,0.3l0,0.1h0c-0.1,0.3-0.2,0.6-0.3,0.8c0,0.1-0.1,0.2-0.1,0.3c-0.1,0.3-0.3,0.5-0.4,0.8h0l-0.4,0.5
					c0,0.1-0.1,0.1-0.1,0.1c-0.1,0.3-0.3,0.5-0.5,0.7c0-0.3,0-0.6,0-0.9c0-0.4,0-1-0.1-1.5c-0.1,0.7-0.4,1.3-0.5,2
					c-0.1,0.2-0.2,0.4-0.2,0.6c-0.1,0.2-0.2,0.5-0.4,0.7v0.1c-0.1,0.1-0.1,0.2-0.2,0.3c-0.1,0,0,0.2-0.2,0.2c-0.3,0.6-1,0.9-1.5,1.2
					c-0.3,0.2-0.6,0.5-0.8,0.8c-0.1,0-0.1-0.1-0.1-0.2c0-0.3,0.1-0.7,0.3-1c0.3-0.5,0.6-1.1,0.8-1.7c0-0.1,0.1-0.1,0.1-0.2
					c0.1-0.2,0.1-0.5,0.2-0.7c0.1-0.3,0.1-0.7,0.2-1c0.1-0.5,0.2-1,0.2-1.5h-0.1c-0.2,0.4-0.4,1-0.7,1.4c-0.3,0.3-0.6,0.7-1.1,0.8
					c-0.4,0.2-0.8,0.3-1,0.6c-0.2,0.1-0.2,0.2-0.4,0.4v0c-0.1,0-0.1,0.2-0.2,0.2c-0.1-0.5,0.1-0.8,0.2-1.2c0.1-0.1,0.1-0.2,0.1-0.3
					c0.1-0.1,0.2-0.2,0.3-0.4c0.1,0,0.1-0.1,0.1-0.1c0.3-0.5,0.5-1.2,0.7-1.8c0.2-0.4,0.2-0.9,0.3-1.4c0.1-0.2,0.1-0.3,0.1-0.5
					c0-0.2,0.1-0.4,0.1-0.6c-0.1,0,0,0.1,0,0.2c-0.1,0.1-0.1,0.2-0.2,0.3c0,0.2-0.1,0.2-0.2,0.4c-0.2,0.3-0.5,0.5-0.8,0.7
					c-0.3,0.1-0.6,0.2-1,0.2v0c-0.3,0-0.5,0.2-0.7,0.3h0c0.1-0.4,0.4-0.8,0.7-1.1c0.2-0.3,0.4-0.7,0.6-1c0.1-0.4,0.3-0.7,0.3-1.1
					c0.1-0.3,0.1-0.7,0.3-1c0.1-0.3,0.1-0.6,0.2-0.9c0-0.2,0.1-0.3,0.1-0.5c0.1-0.2,0.1-0.5,0.2-0.8c-0.2,0.1-0.4,0.2-0.7,0.3
					c-0.3,0-0.6,0-0.8-0.1c0-0.4,0.4-0.5,0.5-0.8c0.3-0.5,0.5-1,0.7-1.6c0.2-0.6,0.3-1.3,0.5-1.9l0-0.1c0.1,0,0-0.1,0.1-0.2
					c0-0.2,0.1-0.5,0.2-0.8c-0.1,0-0.2,0.1-0.3,0.1c-0.2,0-0.4,0.2-0.7,0.1c-0.1-0.1-0.1-0.2,0-0.3c0.1,0,0-0.2,0.1-0.1
					c0.3-0.6,0.6-1.1,0.7-1.7c0.4-1.1,0.5-2.3,1.2-3.2c0-0.1,0.2-0.2,0.2-0.3c0.4-0.6,0.8-1,1.4-1.3c0.5-0.4,1.3-0.3,1.8-0.1
					c0.1,0.1,0.2,0,0.3,0.2c0.1,0.1,0.2,0.1,0.3,0.2c0.1,0.2,0.4,0.4,0.5,0.7c0.1,0.1,0.1,0.2,0.2,0.3c0.5,1,0.7,2,1.3,3
					c0.2,0.4,0.3,0.8,0.6,1.1c0,0.1,0.1,0.2,0.2,0.3c0.1,0,0,0.2,0.1,0.2c0,0.1,0.2,0.3,0.2,0.4c0.1,0.1,0.1,0.2,0.2,0.3
					c0,0.2,0.1,0.2,0.2,0.3c0.2,0.3,0.6,0.7,0.8,1c0.2,0.2,0.3,0.4,0.6,0.6c0.1,0.1,0.1,0.1,0.2,0.2l-3.3,0L98.4,111.5"/>
				<path id="path2640" class="st85" d="M114.4,104.5c0-0.1,0.1-0.2,0.1-0.3c0.2-0.3,0.1-0.6,0-0.8c0,0,0,0,0,0
					c0.1,0.1,0.2,0.2,0.3,0.4c0.1-0.1,0.2-0.1,0.2-0.3c0-0.1,0.1-0.1,0-0.2c0-0.1,0.1-0.3,0.1-0.5c0-0.2-0.2-0.3-0.1-0.5
					c0.2,0.1,0.2,0.4,0.2,0.6c0.3-0.2,0.4-0.6,0.5-0.9c0.1-0.3-0.1-0.5-0.1-0.8c0.2,0,0.2,0.3,0.3,0.5c0.2-0.3,0.4-0.7,0.3-1.1
					c0-0.2-0.1-0.3-0.1-0.5c0.2,0,0.2,0.3,0.2,0.4h0c0,0,0-0.1,0.1-0.1c0.2-0.3,0.3-0.7,0.2-1.1c0-0.2-0.3-0.3-0.1-0.4l0,0.1
					c0.1,0,0.1,0.1,0.2,0.2c0,0.1,0,0.2,0.1,0.2c0.2-0.4,0.4-0.9,0.2-1.3c0-0.1-0.2-0.2-0.1-0.3c0.1,0,0.2,0.2,0.2,0.3
					c0,0.1,0,0.2,0.1,0.2c0.3-0.4,0.2-1,0.1-1.5c-0.1-0.1-0.2-0.2-0.2-0.3c0.1-0.1,0.1-0.2,0.3-0.2c0.2,0.1,0.4,0.2,0.5,0.3
					c0.1,0,0.1,0,0.1,0.1c0.5,0.5,0.5,1.3,0.8,1.9l0-0.5c0.1-0.1,0-0.4,0.2-0.5l0,0c-0.1,0.4-0.1,0.9,0.1,1.3
					c0.1,0.1,0.1,0.3,0.2,0.4c0.1,0.2,0.2,0.3,0.3,0.4c0-0.2-0.1-0.5,0-0.7c0,0,0.1,0,0.1,0c-0.1,0.2,0,0.3,0,0.5
					c0.1,0.2,0.1,0.6,0.3,0.7c0.1,0.2,0.3,0.3,0.4,0.5c0.1,0,0.1,0.2,0.2,0.1c0.1,0.1,0.3,0.2,0.4,0.3c0.3,0.1,0.6,0.2,1,0
					c-0.1-0.1-0.2-0.1-0.3-0.2c-0.3-0.1-0.4-0.4-0.5-0.6c-0.1-0.4-0.3-0.7-0.5-1.1c0-0.2-0.1-0.2-0.1-0.4c-0.1-0.1-0.1-0.3-0.2-0.5
					c-0.1-0.1-0.1-0.3-0.2-0.4c0-0.2-0.2-0.2-0.1-0.4c-0.1,0-0.1-0.2-0.1-0.2c-0.2-0.4-0.4-0.7-0.6-1c-0.1,0-0.1-0.1-0.1-0.2
					c-0.2-0.1-0.2-0.3-0.4-0.4c-0.6-0.5-1.1-1-1.9-0.9c-0.2,0.1-0.5,0.2-0.7,0.3c-0.3,0.2-0.6,0.5-0.7,0.8c-0.1,0.1-0.1,0.3-0.2,0.4
					c0,0.2-0.2,0.2-0.2,0.4c-0.1,0.1-0.2,0.3-0.2,0.5c-0.3,0.7-0.5,1.5-0.8,2.1l0,0c0,0.2-0.1,0.3-0.2,0.5c-0.1,0.3-0.2,0.7-0.4,1
					c-0.1,0.1-0.2,0.4-0.3,0.5c-0.2,0.3-0.3,0.6-0.5,0.9c-0.3,0.4-0.7,0.9-1,1.3l2,0L114.4,104.5"/>
				<path id="path2642" class="st85" d="M101.3,103.7c-0.4-0.4-0.7-0.7-1-1.1l0-0.1c-0.5-0.6-1-1.3-1.3-2.1
					c-0.1-0.3-0.3-0.4-0.3-0.7c-0.2-0.4-0.3-0.8-0.6-1.2c0-0.2-0.1-0.4-0.2-0.6c0-0.1-0.1-0.2-0.1-0.2c-0.5-1.1-1.1-2.6-2.6-2.6
					c-0.2,0-0.5,0.1-0.7,0.2c-0.2,0.1-0.5,0.3-0.7,0.4c0,0.1-0.1,0.1-0.1,0.2c-0.3,0.2-0.4,0.5-0.6,0.7c-0.1,0.1-0.1,0.2-0.2,0.2
					c-0.2,0.5-0.5,1-0.6,1.5c-0.1,0.1-0.1,0.2-0.1,0.3c-0.2,0.6-0.3,1.3-0.6,1.9c-0.1,0.4-0.3,0.9-0.5,1.2c-0.1,0,0,0.1-0.1,0.1
					c0.2,0,0.4,0,0.6-0.1c0.5-0.3,1-0.9,1.3-1.4c0.1-0.4,0.3-0.7,0.3-1.2c0,0,0-0.1,0.1-0.1c0.1,0.1,0.1,0.3,0.1,0.5
					c0-0.1,0.1-0.1,0.1-0.2c0.3-0.3,0.4-0.7,0.3-1.1c0-0.1-0.2-0.2,0-0.2c0.1,0.2,0.1,0.5,0.2,0.7c0.1,0,0.1,0,0.2-0.1
					c0.1,0,0-0.1,0.1-0.1c0-0.1,0.1-0.2,0.1-0.3c0-0.7,0.1-1.3,0.4-1.8c0.1-0.1,0.1-0.2,0.2-0.3c0.1-0.2,0.3,0,0.5,0
					c0.1,0.1,0,0.2,0.1,0.3c-0.1,0.2-0.3,0.3-0.4,0.5c0,0.4,0,0.8,0.2,1c0.1,0,0.1-0.2,0.1-0.3c0.1-0.1,0.1-0.2,0.2-0.1v0.1
					c-0.2,0.1-0.2,0.4-0.2,0.5c0.1,0-0.1,0.1,0,0.1c0,0.2,0.1,0.4,0.1,0.6c0.1,0.2,0.2,0.3,0.3,0.5c0.1-0.1,0.1-0.2,0.3-0.3l0,0.1
					c-0.1,0,0,0.2-0.1,0.2c-0.1,0.3,0,0.7,0.1,1c0.1,0.1,0.2,0.3,0.3,0.3c0-0.2,0.1-0.4,0.3-0.4c0,0.1,0,0.2-0.1,0.4
					c0,0.3,0.1,0.6,0.3,0.9c0,0.2,0.2,0.3,0.3,0.3c0-0.1,0.1-0.2,0.1-0.3c0.1,0,0.1-0.1,0.1,0c0,0.1-0.1,0.2-0.1,0.4c0,0,0,0,0,0
					l0,0c0,0.3,0.2,0.5,0.3,0.7c0.1,0.2,0.3,0.4,0.5,0.5l0.1-0.3l0.1,0c0,0.3,0,0.6,0.1,0.8c0,0,0.1,0,0.1,0c0,0,0,0.1,0,0.1H101.3"
					/>
				<path id="path2644" class="st85" d="M106.7,96.1c0.1,0.1,0.3,0,0.4,0.2c0.4,0.1,0.8,0.3,1.2,0.4c0.1,0.1,0.3,0.1,0.5,0.2
					c0.5,0.1,1.2,0.4,1.8,0.1c0,0.4-0.3,0.7-0.6,0.9c-0.5,0.1-1,0-1.4-0.1l-0.2,0c0.2,0.1,0.5,0.2,0.8,0.3c0.3,0.1,0.7,0.2,1,0.4
					c0.2,0.3,0.3,0.7,0.4,1.1c-0.2,0-0.4,0-0.6,0.1c0,0.1,0.1,0.1,0.1,0.1c0.2,0.2,0.4,0.4,0.5,0.7c0.1,0.3,0.2,0.7,0.2,1.1
					c0.1,0,0,0.1,0,0.1c-0.3,0-0.4-0.1-0.6-0.2c-0.3,0-0.2-0.3-0.4-0.5c-0.2-0.3-0.4-0.6-0.6-0.7c0,0.2,0.3,0.4,0.4,0.7
					c0.1,0.2,0.3,0.3,0.3,0.5c-0.2,0-0.3-0.2-0.5-0.2c-0.1-0.1-0.3-0.2-0.4-0.1c0.2,0.3,0.5,0.3,0.7,0.7c0,0.1,0.1,0.1,0.1,0.3
					c0.1,0.2,0.1,0.5,0.2,0.7l-0.1,0.4c-0.1,0-0.2-0.1-0.3-0.1c-0.1-0.1-0.2-0.1-0.3-0.2l-0.1,0c-0.2-0.2-0.5-0.4-0.7-0.7
					c-0.2-0.1-0.2-0.2-0.3-0.3c0,0.1,0.1,0.1,0.1,0.2c0,0.1,0.2,0.2,0.2,0.4c0.1,0.1,0.1,0.2,0.1,0.4c0.1,0.3,0,0.7-0.3,0.9
					c-0.1,0.1-0.2,0.2-0.3,0.3l-0.4,0l0-0.2h0c0-0.4-0.2-0.7-0.2-1.2c-0.1-0.1-0.1,0-0.2,0c-0.1,0.3-0.4,0.6-0.6,0.8
					c-0.1,0-0.2,0.2-0.4,0.1c-0.3,0.2-0.6,0.2-1,0.2c0-0.1,0.1-0.2,0.1-0.3c0.1-0.3,0.3-0.5,0.5-0.7v0c-0.2,0-0.4,0.1-0.6,0
					c-0.2,0-0.4-0.1-0.5-0.2c0.1,0,0-0.1,0.1-0.1c0.3-0.1,0.6-0.3,0.9-0.3c0.2-0.1,0.5-0.1,0.6-0.4c0-0.1,0.1-0.3,0-0.4
					c0.1,0,0.1,0.1,0.2,0.1c0.1,0.2,0.2,0.4,0.2,0.6c0.1-0.1,0.1-0.4,0.1-0.5c0,0,0,0-0.1,0v0c0.2,0.1,0.4,0.3,0.5,0.6
					c0.1-0.2-0.1-0.4-0.2-0.6c0.2-0.1,0.3,0.1,0.4,0.2c0.1,0,0.1,0.2,0.1,0.2c0-0.1,0-0.2-0.1-0.3c-0.1-0.2-0.3-0.3-0.6-0.3
					c-0.3-0.1-0.7-0.2-1.2-0.3c-0.6-0.1-1.2-0.1-1.7-0.3c-0.2-0.1-0.3-0.3-0.4-0.4c0.9,0.6,2,0,3,0.2c0.3,0,0.5,0.2,0.8,0.2
					c0,0.1,0.1,0,0.1,0v0c0.2,0,0.5,0.1,0.6,0.3c0.1,0,0.1,0,0.1-0.1v-0.1c-0.4-0.3-0.7-0.5-1.1-0.7c0-0.1-0.2-0.1-0.2-0.1
					c-0.3-0.2-0.6-0.3-0.9-0.6c-0.2-0.1-0.3-0.2-0.5-0.3c-0.3-0.2-0.6-0.4-1-0.4c-0.2,0-0.3,0.1-0.4,0.1c-0.2,0-0.2-0.3-0.5-0.3l0,0
					c-0.1,0.1-0.3,0-0.4,0.2c0,0,0,0.1,0,0.1c0,0.1,0,0.2,0,0.3c-0.1,0-0.1-0.2-0.3-0.2c-0.1-0.2-0.3-0.4-0.2-0.7
					c-0.1-0.1,0-0.3,0-0.3c0.1-0.1,0.1-0.2,0.2-0.4c0,0,0.1-0.1,0.1-0.1c0.3-0.2,0.6-0.2,0.8-0.6c0-0.1,0.1-0.1,0.1-0.1
					c0.1-0.1,0.3-0.2,0.4-0.2c0.5-0.2,1.2-0.3,1.8-0.2C106,96,106.3,96.1,106.7,96.1"/>
				<path id="path2646" d="M104.2,96.4c0,0.1-0.2,0.1-0.2,0.2c-0.1,0.1-0.3,0.2-0.3,0.4c0.1,0.2,0.4,0.3,0.6,0.4
					c0.4-0.1,0.8-0.3,1.2-0.4c0.1,0,0.2,0,0.3-0.1c0.2,0,0.4-0.1,0.7,0v0c-0.4,0-0.7,0.2-1.1,0.3c0.5,0.1,1,0.3,1.3,0.7
					c0,0,0,0-0.1,0c-0.1-0.2-0.4-0.3-0.6-0.3c0.1,0.2,0,0.4-0.2,0.5l-0.2,0.1c0.8,0.5,1.2,1.5,2.1,1.8c0.3,0.1,0.6,0.1,0.8,0.1
					c0.1-0.1,0-0.1,0-0.1c-0.1,0-0.1-0.1-0.2-0.2c-0.1-0.2-0.3-0.2-0.4-0.3c0,0-0.2,0-0.2-0.1c0.1,0,0.2,0.1,0.3,0.1
					c0.1,0,0.3,0.2,0.4,0.2c0.1,0.1,0.4,0.2,0.5,0.2c0.2,0.1,0.4,0,0.5-0.1c-0.1-0.1-0.1-0.2-0.2-0.3c-0.2-0.3-0.4-0.5-0.7-0.6
					c-0.1-0.1-0.2-0.1-0.4-0.1c0,0,0-0.1,0-0.1c0.3,0.1,0.7,0.1,1,0.1c0.1-0.1,0-0.1,0-0.2c-0.1,0-0.1-0.2-0.2-0.1
					c-0.2-0.2-0.5-0.3-0.7-0.4v0c0.4,0,0.6,0.2,0.9,0.4c0.2,0.1,0.3,0.5,0.7,0.6c0.1,0.1,0.3,0.2,0.4,0.3l-0.4-0.3
					c-0.1,0-0.2-0.2-0.3-0.1c-0.1,0-0.2,0.1-0.3,0l0,0c0.1,0.1,0.3,0.3,0.5,0.5c0,0.2,0.2,0.3,0.1,0.5c-0.1,0-0.2,0-0.3,0
					c0.3,0.2,0.7,0.5,0.9,0.8c0,0,0,0.1,0.1,0.2c-0.4-0.5-1-0.9-1.6-1c0,0.1,0.2,0.2,0.1,0.4c-0.6,0.2-1.1-0.1-1.6-0.4
					c0-0.1-0.1-0.1-0.1-0.1c-0.8-0.4-1-1.6-2.1-1.5c-0.1,0-0.1-0.1-0.2-0.1c-0.2-0.1-0.3-0.3-0.4-0.5c0,0,0,0,0-0.1
					c-0.1,0-0.2,0-0.3-0.1c-0.1,0,0,0.1,0,0.2c0,0.1,0,0.2,0.1,0.3c0.4,0,0.7,0.2,1,0.5c-0.1,0-0.2-0.1-0.3-0.2
					c-0.1,0-0.1-0.1-0.3-0.1c-0.1-0.1-0.3-0.1-0.4-0.1c-0.1,0-0.3,0.1-0.2-0.1c0-0.2,0-0.4,0-0.5c-0.1-0.2-0.3-0.4-0.6-0.4l-0.2,0.1
					c0,0,0-0.1,0-0.1c0.1-0.2,0.5,0,0.4-0.3c0.1-0.1,0.2-0.2,0.4-0.3c0,0,0.1,0,0.1,0C104,96.5,104.1,96.5,104.2,96.4"/>
				<path id="path2648" class="st85" d="M95.2,96.5c-0.3,0.3-0.4,0.8-0.3,1.2c0.1,0.2,0.2,0.4,0.4,0.6c0,0.2,0,0.3,0,0.6h0
					c0,0.2,0,0.4-0.1,0.6c0,0.4-0.2,0.7-0.3,1.1c-0.1,0.3-0.1,0.6-0.3,0.9c-0.1,0.4-0.2,0.8-0.3,1.2c-0.1,0-0.1,0.1,0,0.1l0,0
					c0.1-0.1,0.1-0.1,0.1-0.2h0c0.1-0.2,0.2-0.5,0.2-0.8c0.1,0,0-0.1,0.1-0.2c0.1-0.2,0.1-0.3,0.2-0.5c-0.1-0.1,0.1-0.1,0-0.1
					c0.1-0.3,0.2-0.7,0.3-1c0.1-0.1,0-0.2,0.1-0.3c0-0.2,0.1-0.4,0.1-0.5c0.1,0.2,0.2,0.3,0.3,0.5c0,0.2-0.1,0.4-0.1,0.6h0
					c-0.1,0.3-0.1,0.7-0.3,0.9c-0.1,0.5-0.2,0.9-0.3,1.4c-0.1,0.1-0.1,0.3-0.1,0.4c-0.1,0.1-0.1,0.4-0.2,0.5
					c-0.1,0.2-0.1,0.4-0.2,0.6c0,0.1,0,0.2-0.1,0.3c-0.1,0.2-0.2,0.3-0.3,0.5c0,0-0.1,0-0.1,0c0,0.2-0.3,0.3-0.3,0.4
					c-0.2-0.6-0.2-1.4-0.3-2c0.1-0.3,0.2-0.6,0.3-0.8c0.1-0.3,0.2-0.6,0.2-0.8c0.1-0.2,0.2-0.5,0.2-0.7c0.2-0.6,0.3-1.2,0.5-1.7
					c0.1-0.2,0-0.4,0.1-0.6c-0.1-0.4,0-0.9,0.1-1.3c0.1-0.1,0.1-0.3,0.2-0.4C94.9,96.6,95,96.6,95.2,96.5
					C95.1,96.5,95.1,96.5,95.2,96.5"/>
				<path id="path2650" class="st85" d="M118.4,97.4c0.2,0.5,0.3,0.9,0.6,1.3c0.1,0.1,0.2,0.3,0.2,0.5c0,0.2,0.1,0.3,0.1,0.4
					c0,0.1,0.1,0.2,0.1,0.4c0.1,0.2,0.2,0.4,0.2,0.7c0.1,0.3,0.1,0.6,0.2,0.9c0,0.1,0.1,0.2,0,0.2c0,0,0.1,0.1,0,0.1
					c0.1,0.1,0.1,0.2,0.1,0.3c0.2,0.2,0.1,0.4,0.2,0.7c0.1,0.3,0.2,0.7,0.3,1c0-0.6-0.2-1.3-0.4-1.9c-0.1-0.2,0-0.4-0.2-0.6
					c0-0.3-0.1-0.5-0.2-0.8c0-0.1,0.1-0.1,0-0.1c-0.1-0.3-0.2-0.6-0.2-0.9c-0.1-0.1-0.1-0.3-0.1-0.4h0c0,0.3,0.3,0.5,0.4,0.7
					c0.2,0.2,0.5,0.3,0.5,0.7c0.1,0.2,0.2,0.5,0.2,0.8c0.1,0,0,0.1,0.1,0.1c0.2,0.7,0.3,1.6,0.6,2.3c0,0.1-0.1,0.1,0,0.1
					c0,0.5,0,0.9-0.1,1.4l-0.1,0.1c-0.3-0.3-0.6-0.7-0.8-1.1c-0.2-0.4-0.3-0.9-0.4-1.4c-0.1-0.6-0.3-1.3-0.4-1.9
					c-0.1-0.1-0.1-0.4-0.2-0.6c0-0.2-0.2-0.4-0.2-0.6c-0.2-0.6-0.4-1.2-0.6-1.8c-0.1-0.1-0.1-0.2-0.1-0.3c0-0.3-0.1-0.6-0.1-0.9
					c0-0.1-0.1-0.2-0.2-0.2c0.1,0,0.1,0,0.2,0.1C118.2,96.9,118.2,97.2,118.4,97.4"/>
				<path id="path2652" class="st85" d="M105.1,97.6C105.1,97.6,105.1,97.7,105.1,97.6l-0.2,0.1c0,0,0,0,0,0c-0.1,0,0,0-0.1,0.1
					c0,0.1,0.1,0.1,0.2,0.2c0.1,0,0.2-0.1,0.3-0.1l0-0.3c0.1,0,0.3,0,0.4,0.1c0,0.1,0,0.3-0.2,0.3c-0.2,0.1-0.6,0.1-0.8,0
					c-0.1-0.1-0.3-0.2-0.2-0.4C104.7,97.5,105,97.4,105.1,97.6"/>
				<path id="path2654" d="M103.5,97.6c0,0.1-0.1,0.1,0,0.2c-0.2,0.1-0.5-0.1-0.6,0.1c0,0,0,0,0,0c0-0.1,0.1-0.2,0.2-0.3
					c0.1-0.1,0.1-0.1,0.2-0.2C103.4,97.5,103.5,97.5,103.5,97.6"/>
				<path id="path2656" class="st85" d="M118.2,98.9c0,0.1,0.1,0.3,0.1,0.4c0.1,0.3,0.3,0.5,0.2,0.8c0.1,0.2,0.1,0.3,0.2,0.5
					c0.1,0.4,0.2,0.8,0.3,1.2c0.1,0.2,0.1,0.4,0.2,0.6c0.1,0.7,0.3,1.2,0.4,1.9c0,0.2-0.1,0.4-0.1,0.7c-0.1,0.1,0,0.1-0.1,0.2
					c-0.1,0.1,0,0.3-0.2,0.4c-0.4-0.5-0.8-1-0.9-1.8c0-0.1-0.1-0.3-0.1-0.4c-0.1-0.1-0.1-0.3-0.1-0.4c0-0.3-0.2-0.6-0.2-0.9
					c-0.1-0.1,0-0.3-0.1-0.4c-0.1-0.7-0.4-1.3-0.5-2c0.1-0.2,0.3-0.4,0.3-0.7c0.1,0,0.1,0.1,0.1,0.2c0.1,0.3,0.2,0.5,0.2,0.8
					c0.1,0.3,0.2,0.6,0.2,0.9c0.1,0.2,0.1,0.5,0.2,0.7c0,0.2,0.1,0.5,0.2,0.7c0.1,0.3,0.2,0.7,0.3,1c0.1,0.1,0,0.4,0.1,0.4
					c-0.1-0.7-0.3-1.5-0.4-2.1c-0.1-0.2-0.1-0.4-0.2-0.6c-0.1-0.2-0.1-0.4-0.2-0.6c0-0.2-0.1-0.3-0.1-0.5c0-0.2-0.2-0.4-0.1-0.7
					c-0.1-0.1-0.1-0.2-0.1-0.3c0-0.1-0.2-0.2,0-0.3c0-0.1,0.1-0.1,0.1-0.2c0.1,0,0-0.1,0.1-0.2C118,98.5,118.2,98.7,118.2,98.9"/>
				<path id="path2658" class="st85" d="M93.6,101.1c0,0.1-0.1,0.1-0.1,0.2c-0.1,0.2-0.1,0.4-0.2,0.6c-0.1,0.4-0.2,0.8-0.4,1.2
					c0,0.3-0.2,0.5-0.2,0.8c-0.1,0.1-0.1,0.3-0.2,0.4c-0.2,0.8-0.7,1.5-1.1,2.1c0,0.1-0.1,0.1-0.2,0.2c-0.3,0.3-0.8,0.7-1.3,0.5l0,0
					c0-0.1,0.2-0.1,0.2-0.2c0.1,0,0.1-0.2,0.2-0.2c0.2-0.1,0.2-0.4,0.3-0.5c0.5-1.3,0.7-2.6,1.1-3.9c0.1-0.2,0.1-0.4,0.2-0.5
					c0.3-0.3,0.6-0.4,0.7-0.8c0.2-0.3,0.3-0.6,0.5-1c-0.2,0.7-0.4,1.4-0.6,2.1c-0.3,0.9-0.5,1.7-0.9,2.5c-0.1,0.3-0.1,0.5-0.2,0.8
					c0.3-0.4,0.4-0.9,0.6-1.3c0.2-0.5,0.4-1.1,0.5-1.6c0.1-0.1,0.1-0.3,0.2-0.5c0.1-0.3,0.2-0.6,0.2-0.9c0.2-0.4,0.3-0.8,0.3-1.2
					c0.2-0.2,0.5-0.3,0.5-0.6c0-0.3,0.3-0.1,0.5-0.3C94.2,99.6,93.9,100.4,93.6,101.1"/>
				<path id="path2660" class="st85" d="M101.8,99.2c0.2,0,0.4,0,0.6,0c1-0.1,1.9,0,2.9,0.2c0.2,0.1,0.4,0,0.5,0.2
					c0.1,0.1,0.2,0.2,0.4,0.2c-0.4,0-0.7-0.2-1.1-0.2c-0.3-0.1-0.7-0.1-1-0.2c-0.4-0.1-1,0-1.5-0.1c-0.1,0-0.3,0-0.5,0
					c-0.4,0-0.7-0.1-1-0.4C101.4,99.1,101.6,99.1,101.8,99.2"/>
				<path id="path2662" class="st85" d="M117.6,101.8c0,0.2,0.1,0.3,0.1,0.4c0.1,0.1,0.1,0.2,0.1,0.3h0c0.1,0.2,0.1,0.4,0.2,0.6
					c0,0.1,0,0.1,0,0.1c0,0.2,0.2,0.4,0.1,0.6l0.1,0.1c0,0.4,0.2,0.8,0.1,1.1c0,0.3-0.1,0.7-0.2,1c-0.1,0,0,0.2-0.2,0.1
					c0-0.1-0.1-0.1-0.1-0.2c-0.4-0.3-0.6-0.9-0.8-1.3c0-0.1,0-0.3-0.1-0.4c-0.1-0.6-0.2-1.2-0.4-1.8c0-0.2-0.2-0.5-0.1-0.7
					c0.2-0.2,0.2-0.6,0.3-0.8c0.1,0.1,0.1,0.4,0.2,0.6c0.1,0.2,0.2,0.4,0.2,0.7c0.1,0.1,0.1,0.3,0.1,0.5c0,0.3,0.2,0.5,0.2,0.7
					c0.1,0.1,0,0.2,0.1,0.3c0,0.2,0.1,0.3,0.1,0.4c0,0.3,0.1,0.4,0.1,0.6l0,0c-0.1-0.4-0.1-0.9-0.2-1.3c-0.2-0.4-0.2-0.9-0.3-1.3
					c0-0.3-0.2-0.6-0.2-0.9c-0.1-0.1,0-0.4-0.1-0.5c0.1-0.3,0.2-0.6,0.3-0.8C117.2,100.6,117.4,101.2,117.6,101.8"/>
				<path id="path2664" class="st85" d="M96,100.5c0,0.5-0.1,0.7-0.1,1.2c-0.1,0.3-0.1,0.5-0.2,0.8l0,0c0.1,0-0.1,0,0,0.1
					c-0.1,0,0,0.1-0.1,0.2c-0.1,0.4-0.2,0.8-0.3,1.1c0.1,0,0.1-0.2,0.2-0.2c0.2-0.5,0.2-1.1,0.5-1.6c0.1-0.2,0.1-0.5,0.2-0.7
					c0.1-0.2,0.1-0.4,0.1-0.5c0,0,0.1,0.1,0.2,0.1c0.1,0,0.1,0,0.2,0.1c0,0,0,0.2,0,0.2c0,0.1-0.1,0.2,0,0.3h0
					c0,0.2-0.1,0.5-0.2,0.7c0.1,0.2-0.1,0.4-0.1,0.6c-0.1,0.1,0,0.1-0.1,0.2c0,0.3-0.2,0.4-0.2,0.8c0,0-0.1,0.1-0.1,0.2
					c0,0.2-0.1,0.4-0.2,0.6c-0.1,0.2-0.2,0.5-0.3,0.7c-0.2,0.2-0.2,0.4-0.4,0.5c-0.2-0.1,0-0.3-0.2-0.5c-0.1-0.6-0.2-1.3,0-1.8
					c0,0,0-0.1,0-0.1c0-0.3,0.1-0.6,0.2-0.9c0-0.1,0.1-0.2,0.1-0.3c0.1-0.2,0.1-0.4,0.2-0.6c0.2-0.5,0.2-1.1,0.5-1.6
					C95.8,100.2,95.9,100.4,96,100.5"/>
				<path id="path2666" class="st85" d="M120.9,101.2c0.1,0.1,0.4,0.2,0.4,0.4c0.1,0.1,0.1,0.3,0.2,0.4c0,0.1,0.1,0.2,0.1,0.3
					c0.1,0.4,0.2,0.9,0.3,1.3c0.1,0.6,0.3,0.9,0.4,1.5l0.1,0.1c0-0.3-0.1-0.6-0.2-0.9c-0.1-0.3-0.1-0.4-0.2-0.7
					c-0.2-0.6-0.2-1.1-0.4-1.6c0-0.2-0.1-0.3-0.1-0.4c0.1,0,0.2,0,0.3,0.1c0.1,0.3,0.1,0.5,0.2,0.8c0,0.1,0,0.2,0.1,0.4
					c0.1,0.5,0.2,0.8,0.3,1.2c0,0,0.1,0.1,0,0.2c0.1,0.5,0.3,0.9,0.4,1.4c0.1,0.1,0,0.3,0.2,0.3c0.1,0.1,0,0.2,0.2,0.3
					c0,0.1,0.1,0.1,0.1,0.2c0.1,0.1,0.3,0.3,0.5,0.3c-0.1,0.1-0.3,0.2-0.5,0.2c-0.2,0-0.4,0-0.4-0.1c-0.2,0-0.1-0.1-0.3-0.2
					c-0.1-0.1-0.3-0.3-0.4-0.5c-0.1,0-0.1-0.1-0.2-0.2c0-0.2-0.2-0.2-0.1-0.3c-0.1-0.1-0.2-0.2-0.2-0.4c-0.1,0,0-0.2-0.1-0.2
					c-0.1-0.5-0.3-1-0.4-1.6c0-0.1,0-0.2-0.1-0.3c-0.1-0.1-0.1-0.2-0.1-0.4c0-0.2-0.1-0.4-0.1-0.5c0-0.1-0.1-0.2,0-0.3
					c-0.1-0.4-0.2-0.7-0.3-1.1C120.6,100.9,120.8,101,120.9,101.2"/>
				<path id="path2668" d="M109.3,102.2c-0.3-0.2-0.5-0.7-0.8-0.9c0,0-0.1-0.1,0-0.2C108.8,101.5,109.1,101.8,109.3,102.2"/>
				<path id="path2670" class="st85" d="M110.1,101.7c0.1,0.3,0.2,0.6,0.3,0.9c0,0,0,0.1,0,0.1c0,0.2,0,0.4,0,0.6c0,0-0.1,0-0.1,0.1
					c-0.2,0-0.4-0.2-0.5-0.3c0.2-0.6,0-1.2-0.3-1.7C109.7,101.4,110.1,101.4,110.1,101.7"/>
				<path id="path2672" class="st85" d="M97.1,102c0,0.3-0.2,0.7-0.1,1.1c-0.1,0.1-0.1,0.3-0.1,0.4l0,0l0,0
					c-0.1,0.4-0.1,0.8-0.3,1.3c0,0.1-0.1,0.3,0,0.3c0.1-0.3,0.2-0.5,0.2-0.8c0-0.2,0.1-0.3,0.1-0.5c0.1-0.4,0.2-0.7,0.3-1.1
					c0.1-0.2,0.1-0.5,0.2-0.7c0,0.3,0.2,0.4,0.2,0.7c-0.1,0.4-0.1,0.8-0.3,1.2c-0.1,0.2,0,0.3-0.1,0.4c0,0.3-0.1,0.6-0.2,0.9
					c0.1,0.3-0.2,0.5-0.3,0.7c-0.1,0.2-0.2,0.3-0.3,0.4c-0.1-0.2-0.2-0.4-0.3-0.7c0-0.1,0-0.2-0.1-0.2c0-0.2,0-0.4,0-0.6
					c0.1-0.6,0.3-1.3,0.4-2c0.1-0.4,0.2-0.9,0.3-1.3C96.8,101.7,96.9,101.9,97.1,102"/>
				<path id="path2674" d="M107.6,102c0,0.3,0.1,0.8,0,1.1c0-0.4-0.1-0.7-0.2-1.2l0-0.1L107.6,102"/>
				<path id="path2676" class="st85" d="M116.2,102.1c0.1,0.9,0.4,1.7,0.5,2.6c0.1,0.3,0.1,0.6,0.2,0.8c0,0.3,0,0.6-0.1,0.9
					c0,0.3-0.1,0.5-0.2,0.7c-0.1,0-0.1-0.1-0.2-0.2c-0.2-0.3-0.4-0.7-0.6-1.1c-0.2-0.9-0.3-1.6-0.5-2.4c0.1-0.1,0.3-0.2,0.4-0.4
					c0.1,0,0.1,0.1,0.1,0.2c0.1,0.7,0.3,1.2,0.4,1.8c0,0.4,0.2,0.7,0.2,1c0,0,0,0,0,0c0-0.5-0.1-1-0.2-1.5c0-0.1,0-0.3,0-0.4
					c-0.1-0.3-0.1-0.7-0.2-1c0-0.1,0-0.2,0-0.3c-0.2-0.1,0.1-0.2,0.1-0.4C116.1,102.4,116.1,102.2,116.2,102.1"/>
				<path id="path2678" class="st85" d="M110,103.7c-0.1-0.3-0.3-0.5-0.5-0.6c0,0-0.1,0-0.1-0.1c-0.1,0-0.2-0.1-0.3-0.2
					c0.1,0.1,0,0.2,0.1,0.2c0.1,0.2,0.2,0.4,0.3,0.6c0,0.1,0,0.1,0,0.1l-0.1,0c-0.1-0.3-0.3-0.5-0.5-0.9c-0.2-0.2-0.2-0.5-0.5-0.6
					c0.1,0.5,0.1,1-0.2,1.3c0,0.1-0.1,0.1-0.1,0.1l0,0l-0.9,0c0.1-0.4-0.1-0.6-0.2-1c-0.1,0.4-0.2,0.7-0.3,1c-0.1,0,0-0.1,0-0.1
					c0.1-0.3,0.2-0.6,0.2-0.8c-0.2,0.1-0.3,0.4-0.5,0.4c-0.2,0.2-0.4,0.2-0.7,0.3c-0.4,0-0.3,0.1-0.5,0.2c-0.1,0,0,0,0,0H105
					c0,0,0,0,0,0c0,0,0,0,0.1-0.1H105c-0.1,0-0.3,0.1-0.2-0.1c0-0.2,0.2-0.5,0.2-0.7c-0.1,0-0.2,0.1-0.2,0.1c0,0,0,0,0,0
					c-0.2,0.1-0.4,0.1-0.6,0.2c0.3-0.2,0.8-0.4,1-0.6l-0.4,0l0,0c-0.1-0.1-0.2,0-0.2,0c-0.1,0.1-0.3,0.1-0.4,0.2
					c-0.4,0.1-0.6,0.4-0.8,0.7c0.2,0.1,0.4,0.3,0.6,0.2c0.1,0,0.3-0.1,0.4,0L110,103.7"/>
				<path id="path2680" class="st85" d="M97.8,103c0.1,0.1,0.3,0.2,0.3,0.4c0,0.4-0.1,1-0.1,1.3c-0.1,0,0,0.1,0,0.2
					c0,0.4-0.1,0.7-0.2,1.1l0,0c0-0.3,0.2-0.6,0.2-0.8l0.1,0c-0.1-0.4,0.2-0.6,0.1-1c0.1-0.2,0.1-0.5,0.1-0.7l0.1,0.4l0.2,0.3
					c0,0.3-0.1,0.6-0.1,0.9c0,0,0,0,0,0c0.1,0.2-0.1,0.3-0.1,0.4h0c-0.1,0.1,0.1,0.2-0.1,0.2l0,0.1c0,0.2,0,0.4-0.1,0.5
					c0,0.1,0,0.3-0.1,0.4c-0.1,0.1-0.1,0.3-0.2,0.3c0,0.1-0.1,0.2-0.2,0.3c0,0-0.1,0.1-0.1,0c-0.1-0.1-0.1-0.2-0.2-0.3
					c-0.2-0.2-0.1-0.4-0.2-0.6c-0.2-0.8,0.1-1.7,0.3-2.5h0c0-0.3,0.1-0.7,0.2-0.9C97.7,102.9,97.8,102.9,97.8,103"/>
				<path id="path2682" class="st85" d="M115.3,104.1c0,0.1,0.1,0.2,0,0.3c0.1,0.4,0.2,0.9,0.2,1.2c0,0.1,0.1,0.2,0.1,0.3
					c0.1,0.3,0.1,0.7,0.1,1c-0.1,0.2-0.1,0.5-0.3,0.7c-0.3-0.2-0.6-0.6-0.8-0.9c-0.1-0.3-0.1-0.6-0.2-0.9c0-0.2-0.2-0.4-0.1-0.7
					c0.1-0.2,0.3-0.3,0.4-0.6c0.1,0.1,0.1,0.3,0.1,0.4c0.1,0.5,0.2,1,0.3,1.5h0c0-0.3-0.1-0.5-0.1-0.8c-0.1-0.5-0.2-1-0.2-1.4
					c0.1-0.1,0.2-0.2,0.2-0.3c0,0,0.1-0.1,0-0.1c0,0,0-0.1,0.1,0C115.2,103.9,115.3,104,115.3,104.1"/>
				<path id="path2684" class="st85" d="M93.2,104c0.1,0.4,0,0.8,0.2,1.3c-0.1,0.2-0.1,0.4-0.2,0.5c0,0.4-0.1,0.8-0.2,1.1l0,0.2
					c0,0,0,0,0,0c-0.1,0.5-0.2,1-0.4,1.5c-0.1,0.1,0,0.3-0.1,0.4c-0.1,0.3-0.2,0.7-0.3,1c0,0.3-0.1,0.5-0.2,0.7
					c0,0.1-0.1,0.2-0.1,0.3c0,0.1,0,0.2-0.1,0.3c-0.3,0.6-0.6,1.3-1.3,1.5c-0.3,0.2-0.8,0.1-1.2,0.3c0.2-0.4,0.7-0.7,0.9-1.2
					c0-0.1,0.1-0.1,0.1-0.2c0.1,0,0-0.2,0.1-0.2c0.1-0.5,0.3-1,0.4-1.5c0-0.1,0.1-0.2,0.1-0.3h0c0.1-0.2,0-0.3,0.2-0.5
					c0-0.1,0.1-0.3,0.1-0.4c0.1-0.3,0.2-0.6,0.2-0.9c0.1-0.3,0.2-0.6,0.3-0.9c0.1-0.3,0.3-0.5,0.5-0.7c0.3-0.5,0.7-1.1,0.9-1.7
					c0,0.3-0.2,0.7-0.2,1l-0.1,0c0.1,0.1-0.1,0.3-0.1,0.5l0,0c0.1,0.1-0.1,0.1,0,0.3c-0.1,0.3-0.1,0.6-0.3,0.9
					c-0.1,0.5-0.3,1.1-0.4,1.6c-0.1,0.1,0,0.4-0.1,0.4c0,0.1-0.1,0.3-0.1,0.4c-0.1,0.1-0.1,0.3-0.2,0.4c0,0,0,0.1,0,0.1
					c-0.1,0.3-0.1,0.5-0.2,0.8c0.1,0,0.1-0.2,0.2-0.2c0.1-0.3,0.2-0.6,0.2-0.9c0.2-0.3,0.2-0.6,0.3-0.8c0-0.1,0-0.3,0.1-0.5
					c0.2-0.4,0.2-0.7,0.3-1.1c0-0.2,0.1-0.5,0.1-0.7c0.1-0.1,0.1-0.3,0.1-0.4c0.1-0.2,0.1-0.4,0.2-0.6c0.1-0.4,0.2-0.8,0.3-1.1
					c0.1,0,0-0.2,0.1-0.2C93.1,104.2,93.2,104.1,93.2,104"/>
				<path id="path2686" class="st85" d="M94.2,105.3c-0.1,0.2,0,0.5-0.2,0.7c0,0,0,0.1,0,0.1c0,0.1,0,0.4-0.1,0.5
					c0,0.1,0,0.2-0.1,0.2c0,0.1,0,0.3-0.1,0.4c0.1,0.1-0.1,0.1,0,0.2c-0.1,0.5-0.2,1.1-0.3,1.5c0.1,0.2-0.1,0.4-0.1,0.6
					c0,0,0,0.1,0,0.1c-0.1,0.1,0,0.2-0.1,0.3c0,0.3-0.1,0.5-0.2,0.8c-0.2,0.1,0,0.2-0.1,0.3c0,0.2,0,0.4-0.1,0.5
					c0.1,0.1-0.1,0.3-0.1,0.5c0,0.3-0.2,0.6-0.2,0.9c0,0,0,0.1,0,0.2c0.1,0,0.1-0.1,0.1-0.1c0-0.3,0.1-0.4,0.2-0.7
					c0.1-0.3,0.1-0.5,0.2-0.8c0-0.1,0.1-0.3,0.1-0.5c0.1-0.2,0.1-0.6,0.2-0.8c-0.1-0.1,0.1-0.1,0-0.2c0.1-0.1,0.1-0.2,0.1-0.4
					c-0.1-0.2,0.1-0.3,0.1-0.6c0,0,0-0.1,0-0.1c0.1-0.1,0-0.4,0.1-0.5c0-0.2,0.1-0.3,0.1-0.5c0.1-0.3,0.1-0.6,0.2-0.9
					c-0.1,0,0-0.1,0-0.2c0-0.2,0.1-0.3,0.1-0.5c0.1-0.4,0.1-0.7,0.2-1.1c0-0.2,0.1-0.5,0.1-0.7c0.1,0.2,0,0.6,0.2,0.8
					c0,0.2,0.1,0.3,0.1,0.5c0,0.2-0.1,0.5-0.1,0.7c-0.1,0.5-0.2,1-0.3,1.4c-0.1,0.4-0.2,0.8-0.2,1.2c-0.1,0.1,0,0.3-0.1,0.3
					c0,0.8-0.3,1.5-0.4,2.4c-0.1,0.6-0.4,1.4-0.6,1.9c-0.1,0.2-0.2,0.4-0.3,0.6c0,0.1-0.1,0.2-0.1,0.3c-0.1,0.1-0.2,0.3-0.3,0.5
					c-0.1,0.2-0.3,0.5-0.6,0.6c-0.2,0.3-0.6,0.3-0.9,0.5c-0.1,0.1-0.2,0.1-0.3,0.2c-0.2,0.1-0.3,0.2-0.4,0.3c0-0.4,0.4-0.7,0.6-1.1
					c0.1-0.1,0.2-0.2,0.2-0.4c0.1-0.1,0.1-0.2,0.2-0.3c0.1-0.2,0.2-0.5,0.3-0.7c0-0.2,0.1-0.3,0.1-0.5h0c0-0.2,0.1-0.4,0.2-0.6
					c0-0.4,0.2-0.7,0.2-1.2c0-0.1,0-0.2,0.1-0.2c0.1-0.5,0.2-1,0.3-1.5c0.1-0.5,0.2-1,0.4-1.4c0.1-0.1,0-0.2,0.1-0.3
					c0.1-0.2,0.1-0.5,0.2-0.8c0-0.1,0.1-0.2,0.1-0.2c0-0.3,0.2-0.5,0.2-0.8c0.1-0.3,0.1-0.5,0.2-0.7c0-0.2,0-0.3,0.1-0.4l0-0.1
					c0.1-0.2,0-0.4,0.2-0.5l0-0.1c0.2-0.3,0.4-0.5,0.6-0.8C94.3,104.8,94.2,105,94.2,105.3"/>
				<path id="path2688" class="st85" d="M121.5,105.7c0,0.2,0.1,0.4,0.1,0.6c0.1,0.2,0.1,0.3,0.1,0.5c0.1,0.3,0.1,0.6,0.2,0.9l0,0
					c0,0,0,0.1,0,0.1c0.2,1.1,0.4,2.1,0.7,3.2c-0.1-1.1-0.5-2.1-0.6-3.2c-0.1-0.2,0-0.4-0.1-0.6c0-0.5-0.2-0.9-0.2-1.4l0-0.1h0
					l0-0.1c0,0.1,0.1,0.2,0.2,0.3c0.1,0.1,0.2,0.2,0.2,0.4c0.2,0.2,0.4,0.4,0.3,0.7c0.1,1.1,0.3,2.1,0.5,3.1c0,0.2,0.1,0.4,0.1,0.5
					c0.1,0.1,0.1,0.3,0.2,0.4c-0.1,0.1,0.1,0.2,0.1,0.3c0.1,0.1,0,0.3,0.2,0.4l0,0.1c0.2,0.3,0.3,0.7,0.6,1c0.1,0,0.1,0.1,0.1,0.1
					c0.1,0.1,0.2,0.1,0.2,0.2c-0.1,0-0.1,0-0.2,0c-0.4-0.1-0.9-0.3-1.2-0.6c-0.1-0.1-0.2-0.1-0.3-0.2c-0.4-0.5-0.9-0.9-0.9-1.6
					c-0.2-1.1-0.3-1.9-0.4-3c-0.1-0.6-0.1-1.3-0.3-1.9c0.1,0,0-0.1,0.1-0.1c0.1-0.2,0.1-0.4,0.2-0.5c0-0.1,0.1-0.3,0-0.5
					C121.4,105,121.4,105.4,121.5,105.7"/>
				<path id="path2690" class="st85" d="M120.7,105.7c0.1,0.4,0.1,0.8,0.2,1.2l0,0c0.1,1.5,0.4,3.1,0.6,4.6c-0.1,0.1,0,0.2,0,0.2
					c0.1,0.5,0.1,0.9,0.2,1.4c0,0.1,0.1,0.2,0.1,0.3l0.3,1c0.2,0.7,0.5,1.4,1,1.9c0.2,0.3,0.7,0.6,0.8,1c-0.5-0.3-1-0.4-1.5-0.7
					c-0.2-0.2-0.4-0.2-0.6-0.4c-0.1,0-0.1-0.1-0.1-0.1c-0.1-0.1-0.2-0.2-0.3-0.2c-0.2-0.3-0.5-0.5-0.6-0.8c-0.6-0.9-0.9-1.8-0.9-2.9
					c-0.1-0.3-0.1-0.6-0.1-0.8c-0.1-0.4,0-0.9-0.2-1.3c-0.1-0.4,0-0.8-0.1-1.2c-0.1-0.1,0-0.1-0.1-0.2c-0.1-1-0.2-2-0.4-3
					c0.1-0.1,0.2,0.1,0.3,0.1c0.1-0.3,0.3-0.5,0.4-0.8c0.1,0.2,0.1,0.5,0.1,0.8c0,0.4,0.1,0.7,0.2,1.1c0.1,0.5,0.1,1.2,0.2,1.7
					c0,0.3,0.1,0.5,0.1,0.8c0,0,0,0.1,0,0.1l0,0.4c0,0,0,0.1,0,0.1c0.1,0.8,0.1,1.5,0.2,2.3c0,0.2,0,0.6,0.1,0.8l0,0.3h0.1
					c0-0.2,0-0.3,0-0.4c0.1,0,0-0.1,0-0.1c0-0.8-0.1-1.5-0.2-2.3l0-0.1c-0.1-0.8-0.2-1.7-0.2-2.5l0-0.1c0-0.1,0-0.2,0-0.2
					c0-0.1-0.1-0.1,0-0.2c-0.2-0.6-0.1-1.3-0.2-1.8c0-0.1,0-0.3,0-0.4c0-0.2-0.1-0.4-0.1-0.6C120.2,105.2,120.4,105.5,120.7,105.7"
					/>
				<path id="path2692" class="st85" d="M118.8,105.6L118.8,105.6l0.1,0.6c0.1,0.1,0,0.2,0.1,0.2h0l0.1,0.3h0c0,0.2,0,0.4,0.1,0.6
					l0,0c0.2,1.2,0.2,2.4,0.4,3.5c0,0.1,0,0.3,0,0.4c0,0,0,0,0,0.1l0,0c0.1,1,0.2,2,0.3,2.9h0c0.1,0.4,0.1,0.9,0.2,1.4
					c0,0.1-0.1,0.1,0,0.2c0,0.6,0.1,1.1,0.3,1.7c0.1,0.2,0.2,0.5,0.3,0.7c0.1,0,0,0.1,0.1,0.2c0.1,0.1,0.1,0.3,0.2,0.4
					c0,0.1,0.2,0.2,0.1,0.3c-0.6-0.3-1-0.9-1.5-1.3c0-0.1-0.1-0.1-0.1-0.1c-0.1-0.1-0.2-0.2-0.2-0.4c-0.1-0.1-0.1-0.2-0.2-0.3
					c0-0.1-0.1-0.1-0.1-0.2c-0.1,0-0.1-0.2-0.2-0.2c0-0.2-0.2-0.3-0.2-0.5c-0.1-0.1-0.1-0.3-0.2-0.5c0-0.5-0.3-0.8-0.3-1.3
					c-0.1-0.9-0.4-1.9-0.5-2.8c0.1-0.7-0.1-1.3-0.2-2c0.1,0,0-0.1,0-0.1c-0.1-0.3,0-0.7-0.1-1l0,0c-0.1-0.5,0-1.1-0.2-1.7
					c0-0.4,0-0.6-0.1-1c0.1,0.3,0.4,0.6,0.7,0.8c0,0,0.1,0,0.1,0c0-0.1,0.1-0.1,0.1-0.1c0.2,0.5,0.1,1.1,0.2,1.6c0,0.1,0,0.2,0,0.3
					h0c0,0.6,0.1,1.2,0.2,1.9l0,0c0.1,0.7,0.2,1.4,0.2,2.1c0.1,0.2,0,0.6,0.1,0.8c0.1,0.7,0.1,1.3,0.3,1.9c0-0.4-0.1-0.7-0.1-1
					c0-0.4-0.1-0.7-0.1-1c-0.1-1.4-0.3-2.7-0.4-4.1c-0.1-0.2,0-0.6-0.1-0.8c-0.1-0.7-0.1-1.4-0.2-2c0.1-0.3,0.2-0.6,0.2-1
					C118.6,105.3,118.8,105.4,118.8,105.6"/>
				<path id="path2694" class="st85" d="M95.5,106.9c0,0.1,0,0.3-0.1,0.4c-0.1,0.8-0.3,1.6-0.4,2.4c-0.1,0,0,0.1,0,0.2
					c0,0.1,0,0.3-0.1,0.4c-0.1,0.2-0.1,0.5-0.2,0.7c0,0.4-0.2,0.9-0.2,1.3c0,0.4-0.1,0.6-0.2,1h0c0,0.3-0.1,0.6-0.2,0.9
					c-0.1,0.1,0,0.3-0.1,0.4l0,0c0.1-0.2,0.1-0.4,0.2-0.6c0.1-0.4,0.2-0.8,0.3-1.3c-0.1-0.1,0.1-0.2,0-0.3l0-0.3l0,0l0.1-0.5
					l0.1-0.1c0-0.4,0.2-0.7,0.2-1.1c0,0,0-0.1,0-0.2c0,0,0,0,0,0c0-0.3,0.2-0.7,0.2-1.1c0.1-0.5,0.2-0.9,0.3-1.3
					c0.1-0.1,0-0.2,0.1-0.3c0.1-0.6,0.2-1.2,0.3-1.8c0.1,0,0,0.1,0.1,0.1c0.1,0.4,0.5,0.7,0.3,1.2c-0.1,0.4-0.1,0.8-0.2,1.1
					c0,0.4-0.1,0.6-0.1,0.9c-0.1,1-0.3,1.9-0.4,2.9l0,0c-0.1,0.7-0.2,1.4-0.3,2.2c-0.1,0.3-0.2,0.6-0.2,1c-0.1,0.2-0.1,0.4-0.2,0.7
					c0,0-0.1,0-0.1,0.1c0,0.1-0.1,0.2-0.1,0.4c-0.2,0.5-0.3,1-0.6,1.4c-0.1,0.1-0.1,0.2-0.2,0.3c-0.1,0.2-0.2,0.4-0.4,0.6
					c0,0.1-0.1,0.1-0.1,0.2c-0.4,0.4-0.9,0.6-1.4,0.9c0,0.1-0.2,0.1-0.2,0.1c0.1-0.4,0.4-0.7,0.6-1c0.2-0.3,0.3-0.6,0.4-0.9
					c0.2-0.4,0.2-0.8,0.3-1.2c0.1-0.3,0.1-0.7,0.2-1c0-0.2,0.2-0.5,0.1-0.6c0.1-0.3,0.1-0.7,0.2-1.1c-0.1-0.1,0.1-0.1,0-0.2
					c0-0.3,0.2-0.6,0.2-1c0.1-0.1,0-0.4,0.1-0.5c0.2-0.6,0.2-1.3,0.4-1.9c0-0.3,0.1-0.5,0.1-0.8c0,0,0,0,0-0.1
					c0.1-0.2,0.1-0.6,0.2-0.8c0-0.3,0.1-0.6,0.1-0.9c0.1-0.2,0.1-0.4,0.1-0.6c0.1,0,0-0.2,0.1-0.2c0.1-0.2,0.1-0.4,0.2-0.6
					c0-0.4,0.5-0.6,0.6-1c0.1,0,0.1-0.1,0.1-0.1C95.7,105.8,95.6,106.3,95.5,106.9"/>
				<polyline id="polyline2696" points="97.7,106.1 97.7,106 97.7,106.1 97.7,106.1 				"/>
				<path id="path2698" class="st85" d="M96.9,106c0.1,0.4-0.1,0.7,0,1.2c-0.1,0.1,0,0.2-0.1,0.3c0,0.2,0,0.6-0.1,0.8
					c0,0,0,0.1,0,0.2c0,0.5-0.2,1-0.2,1.5l0,0c0,0.5-0.1,1-0.2,1.5c-0.1,0.7-0.1,1.5-0.2,2.2c0,0,0,0.1,0,0.1c0,0,0,0.1,0,0.1
					c0-0.5,0.2-0.9,0.2-1.4l0-0.1c-0.1,0,0-0.1,0-0.1c0-0.3,0.1-0.4,0-0.7c0.1-0.4,0.1-0.7,0.1-1.2c0-0.1,0-0.2,0.1-0.3
					c0-0.4,0-0.8,0.1-1.2c-0.1-0.1,0.1-0.1,0-0.2c0.1-0.7,0.2-1.3,0.3-2c0.2,0.2,0.2,0.4,0.4,0.6c-0.1,0.9-0.3,1.9-0.3,2.9
					c-0.1,0,0,0.1-0.1,0.1c0,0.9,0,1.8-0.2,2.7c0,0.2-0.1,0.4-0.1,0.6c-0.2,0.7-0.6,1.4-1,2c0,0.1-0.1,0.2-0.2,0.2l-0.1,0.1
					c0-1.2-0.1-2.4,0-3.6c0-0.8,0.2-1.6,0.3-2.4c0.1-0.2,0.1-0.4,0.1-0.7c0.1-0.6,0.2-1,0.3-1.6c0.1-0.1,0-0.3,0.1-0.4
					c0-0.3,0.1-0.5,0.1-0.7c0,0,0-0.1,0-0.1C96.7,106.5,96.7,106.2,96.9,106"/>
				<path id="path2700" class="st85" d="M116.2,107c0.3,2,0.4,4,0.8,6.1h0c0-0.2,0-0.4,0-0.6h0c-0.1-0.7-0.1-1.2-0.2-1.8
					c-0.1-0.4-0.1-0.8-0.1-1.2c-0.1-0.4,0-0.9-0.1-1.3c0-0.1,0-0.1,0-0.2c-0.1-0.1,0.1-0.3,0-0.4c0.1,0,0,0,0-0.1v-0.2
					c0.1,0,0.1,0.1,0.2,0.1c0.2-0.2,0.2-0.4,0.4-0.6c0.1,1.1,0.3,2.2,0.3,3.3l0,0c0,0.8,0.2,1.6,0.1,2.6c0,0-0.1,0.1,0,0.1l0,0
					c0.1,0.1,0,0.2,0,0.3c0,0.2,0,0.4-0.1,0.6c0,0.1,0,0.2,0,0.2c-0.1,0.3,0,0.6-0.1,0.8c0,0.2,0.1,0.4,0,0.5
					c-0.1-0.1-0.2-0.3-0.3-0.4c-0.1-0.1-0.2-0.3-0.3-0.5c-0.2-0.3-0.2-0.7-0.3-1.1c-0.1-0.4-0.1-0.7-0.2-1.1
					c-0.1-0.3-0.1-0.7-0.2-1.1c0-0.2-0.1-0.4-0.1-0.7c-0.1-0.9-0.2-1.6-0.2-2.5c0.1-0.1,0.1-0.3,0.2-0.4c0-0.1,0-0.2,0-0.3
					c0-0.2,0.1-0.5,0-0.6C116,106.7,116.1,106.8,116.2,107"/>
				<path id="path2702" class="st85" d="M98.3,107.3L98.3,107.3l0,0.9h0c0,0.6-0.1,1.3-0.1,1.9c0.2-0.7,0.2-1.5,0.3-2.1
					c0,0,0-0.1,0-0.1c0.1,0.2,0.1,0.5,0.3,0.6l0.2-0.1c0.1,0.4-0.1,0.6-0.1,1c-0.1,0.4-0.3,0.9-0.4,1.3l-0.3,0.4
					c-0.1,0-0.1-0.2-0.2-0.2c-0.1,0-0.1-0.1-0.1-0.2c-0.1-0.1-0.1-0.2-0.2-0.3c-0.2-0.6-0.3-1.1-0.2-1.7c0.1-0.4,0.1-0.8,0.1-1.2
					c0.2-0.1,0.4-0.3,0.5-0.5C98.2,107.1,98.3,107.2,98.3,107.3"/>
				<path id="path2704" class="st85" d="M115.4,107.9c0.1,0.6,0.2,1.3,0,2c0,0.2-0.1,0.4-0.1,0.6c-0.1,0.1-0.1,0.2-0.1,0.3
					c-0.1,0.1-0.1,0.2-0.2,0.3c-0.3-0.4-0.6-0.8-0.7-1.3c0-0.3-0.1-0.6-0.1-1c-0.1-0.3,0.2-0.5,0.2-0.8c0.1,0,0.1-0.2,0.1-0.3
					c0-0.1,0.1-0.2,0.1-0.3c0.1,0.1,0,0.1,0.1,0.2c0.1,0.3,0.1,0.6,0.1,0.9c0.1,0.6,0.1,1.1,0.2,1.7c0-0.3,0-0.6,0-1h0
					c0-0.6-0.1-1.2-0.2-1.8l-0.1-0.1C115,107.5,115.1,107.7,115.4,107.9"/>
				<polyline id="polyline2706" points="122.6,111.2 122.6,111.2 122.6,111.2 122.6,111.2 122.6,111.2 				"/>
				<polyline id="polyline2708" points="117,113 117,113 117,113.2 117,113.2 117,113 				"/>
				<polyline id="polyline2710" points="119.2,115.2 119.2,115.2 119.3,115.4 119.2,115.4 119.2,115.2 				"/>
				<path id="path2712" class="st86" d="M106.4,123.9c0,0,7.7-2.5,8-8.1l0-12.1H98.4l0,12.1C98.7,121.4,106.4,123.9,106.4,123.9"/>
				<path id="path2714" class="st28" d="M107.4,123.5l-7-9.2h2.2l6.4,8.4C109,122.8,108.4,123.1,107.4,123.5"/>
				<path id="path2716" class="st28" d="M110.4,121.9l-5.7-7.5h2.1l4.9,6.4C111.8,120.8,111.4,121.2,110.4,121.9"/>
				<path id="path2718" class="st28" d="M113,119.5l-3.9-5.1h2.2l2.7,3.5C113.9,117.9,113.7,118.5,113,119.5"/>
				<line id="line2720" class="st87" x1="98.4" y1="112.4" x2="114.4" y2="112.4"/>
				<path id="path2722" class="st85" d="M99.7,113.6v-0.1c0.1,0,0.2,0,0.2,0c0,0,0,0,0,0c0,0,0,0,0-0.1c0-0.1,0-0.2,0-0.4
					c0-0.1,0-0.3,0-0.5c0-0.2,0-0.4,0-0.6c0-0.2,0-0.3,0-0.3c0,0,0,0,0,0c0,0,0,0-0.1,0c-0.1,0-0.1,0-0.2,0v-0.1c0.2,0,0.4,0,0.5,0
					c0.1,0,0.2,0,0.4,0l0.1,0.3l0.1,0.3l0.5,1.1c0.1-0.2,0.2-0.4,0.3-0.5l0.2-0.5c0.1-0.3,0.2-0.4,0.2-0.5c0-0.1,0.1-0.1,0.1-0.2
					c0.1,0,0.2,0,0.3,0l0.5,0v0.1h0c-0.1,0-0.2,0-0.2,0c0,0,0,0.1,0,0.2c0,0.1,0,0.2,0,0.2l0,0.5v0.6c0,0.1,0,0.2,0,0.3
					c0,0.1,0,0.2,0,0.3c0,0,0,0,0,0c0,0,0,0,0,0c0,0,0.1,0,0.2,0v0.1l-0.5,0l-0.5,0v-0.1c0.1,0,0.2,0,0.2,0c0,0,0,0,0-0.1
					c0,0,0-0.2,0-0.4v-1.2l-0.4,0.8l-0.2,0.4c-0.1,0.1-0.1,0.3-0.2,0.4c-0.1,0.1-0.1,0.2-0.1,0.3h-0.1c0-0.1-0.1-0.2-0.2-0.4
					c-0.1-0.3-0.2-0.5-0.3-0.6l-0.4-0.9v0.8c0,0.1,0,0.3,0,0.5c0,0.2,0,0.3,0,0.3c0,0,0,0,0,0.1c0,0,0,0,0.1,0c0,0,0.1,0,0.2,0v0.1
					c-0.1,0-0.3,0-0.4,0C99.9,113.5,99.8,113.6,99.7,113.6"/>
				<path id="path2724_1_" class="st85" d="M103.5,113.1c0.1,0,0.1,0,0.2,0.1c0.1,0.1,0.1,0.1,0.1,0.2c0,0.1,0,0.1-0.1,0.2
					c-0.1,0.1-0.1,0.1-0.2,0.1c-0.1,0-0.1,0-0.2-0.1c-0.1-0.1-0.1-0.1-0.1-0.2c0-0.1,0-0.1,0.1-0.2
					C103.3,113.1,103.4,113.1,103.5,113.1"/>
				<path id="path2726_1_" class="st85" d="M106.1,113.2L106.1,113.2l0,0.2c-0.1,0.1-0.3,0.1-0.4,0.2c-0.1,0-0.3,0-0.4,0
					c-0.2,0-0.4,0-0.6-0.1c-0.1-0.1-0.3-0.1-0.4-0.2c-0.1-0.1-0.2-0.2-0.2-0.3c-0.1-0.2-0.1-0.4-0.1-0.6c0-0.4,0.1-0.6,0.4-0.9
					c0.2-0.2,0.6-0.3,1-0.3c0.2,0,0.3,0,0.4,0c0.1,0,0.3,0.1,0.4,0.1l0,0c0,0.1,0,0.1,0,0.2c0,0.1,0,0.2,0,0.4H106
					c0-0.1,0-0.2,0-0.3c-0.1-0.1-0.2-0.1-0.3-0.2c-0.1,0-0.2-0.1-0.4-0.1c-0.3,0-0.5,0.1-0.6,0.3c-0.2,0.2-0.2,0.4-0.2,0.7
					c0,0.2,0,0.3,0.1,0.5c0.1,0.1,0.1,0.2,0.2,0.3c0.1,0.1,0.2,0.2,0.3,0.2c0.1,0.1,0.3,0.1,0.4,0.1c0.1,0,0.2,0,0.3,0
					C105.9,113.3,106,113.3,106.1,113.2"/>
				<path id="path2728_1_" class="st85" d="M106.7,113.1c0.1,0,0.1,0,0.2,0.1c0.1,0.1,0.1,0.1,0.1,0.2c0,0.1,0,0.1-0.1,0.2
					c-0.1,0.1-0.1,0.1-0.2,0.1c-0.1,0-0.1,0-0.2-0.1c-0.1-0.1-0.1-0.1-0.1-0.2c0-0.1,0-0.1,0.1-0.2
					C106.5,113.1,106.6,113.1,106.7,113.1"/>
				<path id="path2730_1_" class="st85" d="M108.7,112.7h-0.1c0-0.1,0-0.2,0-0.3c0,0,0,0-0.1,0c-0.1,0-0.2,0-0.4,0c0,0-0.1,0-0.1,0
					v0.2c0,0.3,0,0.5,0,0.6c0,0.1,0,0.2,0,0.2c0,0,0,0,0,0c0,0,0.1,0,0.3,0v0.1l-0.7,0c-0.1,0-0.2,0-0.5,0v-0.1c0.1,0,0.2,0,0.2,0
					c0,0,0,0,0,0c0,0,0,0,0-0.1c0,0,0-0.1,0-0.2c0-0.1,0-0.2,0-0.3v-0.7c0,0,0-0.2,0-0.5c0-0.1,0-0.1,0-0.2c0,0,0,0,0,0c0,0,0,0,0,0
					c0,0-0.1,0-0.2,0v-0.1l0.6,0l0.8,0c0.1,0,0.2,0,0.3,0l0,0c0,0.1,0,0.2,0,0.2c0,0.1,0,0.2,0,0.3h-0.1c0,0,0-0.1,0-0.2
					c0-0.1,0-0.1,0-0.1c0,0,0,0,0,0c0,0-0.1,0-0.1,0c-0.1,0-0.2,0-0.3,0c0,0-0.1,0-0.2,0c-0.1,0-0.1,0-0.2,0c0,0.1,0,0.3,0,0.6v0.2
					c0.1,0,0.2,0,0.3,0c0.1,0,0.2,0,0.3,0c0,0,0,0,0,0c0,0,0-0.1,0-0.2h0.1C108.7,112.2,108.7,112.4,108.7,112.7"/>
				<path id="path2732" class="st85" d="M109.5,113.1c0.1,0,0.1,0,0.2,0.1c0.1,0.1,0.1,0.1,0.1,0.2c0,0.1,0,0.1-0.1,0.2
					c-0.1,0.1-0.1,0.1-0.2,0.1c-0.1,0-0.1,0-0.2-0.1c-0.1-0.1-0.1-0.1-0.1-0.2c0-0.1,0-0.1,0.1-0.2
					C109.3,113.1,109.4,113.1,109.5,113.1"/>
				<path id="path2734" class="st85" d="M112.3,113.2L112.3,113.2l0,0.2c-0.1,0.1-0.3,0.1-0.4,0.2c-0.1,0-0.3,0-0.4,0
					c-0.2,0-0.4,0-0.6-0.1c-0.1-0.1-0.3-0.1-0.4-0.2c-0.1-0.1-0.2-0.2-0.2-0.3c-0.1-0.2-0.1-0.4-0.1-0.6c0-0.4,0.1-0.6,0.4-0.9
					c0.2-0.2,0.6-0.3,1-0.3c0.2,0,0.3,0,0.4,0c0.1,0,0.3,0.1,0.4,0.1l0,0c0,0.1,0,0.1,0,0.2c0,0.1,0,0.2,0,0.4h-0.1
					c0-0.1,0-0.2,0-0.3c-0.1-0.1-0.2-0.1-0.3-0.2c-0.1,0-0.2-0.1-0.4-0.1c-0.3,0-0.5,0.1-0.6,0.3c-0.2,0.2-0.2,0.4-0.2,0.7
					c0,0.2,0,0.3,0.1,0.5c0.1,0.1,0.1,0.2,0.2,0.3c0.1,0.1,0.2,0.2,0.3,0.2c0.1,0.1,0.3,0.1,0.4,0.1c0.1,0,0.2,0,0.3,0
					C112,113.3,112.1,113.3,112.3,113.2"/>
				<path id="path2736" class="st85" d="M112.8,113.1c0.1,0,0.1,0,0.2,0.1c0.1,0.1,0.1,0.1,0.1,0.2c0,0.1,0,0.1-0.1,0.2
					c-0.1,0.1-0.1,0.1-0.2,0.1c-0.1,0-0.1,0-0.2-0.1c-0.1-0.1-0.1-0.1-0.1-0.2c0-0.1,0-0.1,0.1-0.2
					C112.7,113.1,112.8,113.1,112.8,113.1"/>
				<path id="path2738" class="st85" d="M106.9,104.3c0,0.3,0,0.5,0,0.8c0.3,0,0.5,0,0.8,0.1l0.2,0.7c-0.3-0.1-0.7-0.2-1-0.1
					c0,0,0,0.1,0,0.1c0.4,0,0.8,0,1.1,0.2l0.3,1c-0.4-0.2-1-0.3-1.4-0.1c0,0,0,0,0,0.1c0.5,0,1,0.1,1.4,0.2l0.4,1.3
					c-0.5-0.2-1.2-0.4-1.7-0.1l0,0.2l1.9,0l0,0l0-3.1h0.1v0.1c0.2,0,0.4-0.1,0.5,0c0.1,0.1,0.1,0.2,0.3,0.2c0.1,0,0.3,0,0.4,0
					c-0.2,0.1-0.4,0.3-0.6,0.2c-0.1,0-0.2-0.1-0.3-0.1c-0.1,0-0.1,0-0.2,0l0,0.4c0.1,0.1,0.3,0.1,0.4,0.1c0.5,0.1,1.1,0,1.6-0.2
					c-0.4,0.6-0.4,1.5,0.1,2.1l0.1,0l-0.6,0.9c0.3,0.1,0.8,0.3,1.1,0c0.2-0.2,0.5-0.2,0.8-0.2l-0.1,0.1c-0.3,0-0.6,0.1-0.8,0.3
					c-0.5,0.1-0.9-0.1-1.3-0.1c-0.4-0.1-0.7,0.2-1.1,0.2c-0.5,0-0.9-0.3-1.4-0.2c-0.3,0.1-0.6,0.3-1,0.2c-0.3-0.1-0.6-0.3-1-0.2
					c-0.3,0-0.6,0.1-0.9,0.2c-0.6,0-1.1-0.4-1.7-0.1c-0.3,0.2-0.8,0.2-1.1,0.1c-0.3,0-0.5-0.2-0.8-0.2l-0.6,0.1l-0.1-0.1l0.8-0.2
					c0.3,0,0.4,0.1,0.7,0.2c0.2,0.1,0.4,0.1,0.7,0.1c-0.3-0.3-0.6-0.6-0.9-0.9l-1.8-0.8l0-0.1l1.8,0.7c0.2,0,0.3,0,0.5,0.1l0,0
					l-1-0.9c0.2-0.7,1.1-1.3,2-1.4c0.2,0,0.4-0.1,0.6,0l0.2,0.2c0-0.2,0-0.4,0-0.5c-0.1,0-0.3-0.1-0.4,0c-0.1,0-0.2,0.1-0.3,0.1
					c-0.2,0-0.3-0.1-0.5-0.2c0.1,0,0.4,0.1,0.5,0c0.1-0.1,0.2-0.2,0.4-0.2l0.2,0l0-0.1l0.1,0l0,1.1v0c0.2,0,0.3,0.1,0.5,0.1l0.2,0.6
					c-0.2-0.1-0.4-0.2-0.6-0.2v0.1c0.2,0,0.5,0.1,0.7,0.2l0.2,0.8c-0.3-0.1-0.5-0.2-0.9-0.2l0,0.6l0,0l2.4,0c0,0,0-0.1,0-0.2
					c-0.5-0.3-1.2-0.1-1.7,0.1l0.5-1.3c0.4-0.1,0.8-0.2,1.3-0.2l0-0.1c-0.4-0.2-1-0.1-1.3,0.1l0.4-1c0.3-0.1,0.6-0.1,1-0.2
					c0,0,0,0,0-0.1c-0.3-0.2-0.7-0.1-1,0.1l0.3-0.7c0.2-0.1,0.5-0.1,0.7-0.1c0-0.1,0-0.3,0-0.4c-0.1-0.1-0.3-0.1-0.4,0
					c-0.1,0-0.2,0.1-0.3,0.1c-0.2,0-0.3-0.1-0.5-0.2c0.2,0,0.3,0.1,0.5,0c0.1-0.1,0.2-0.2,0.4-0.2
					C106.7,104.3,106.8,104.3,106.9,104.3L106.9,104.3L106.9,104.3"/>
				<path id="path2740" class="st86" d="M109.1,108l0-1.7C109.3,106.8,109.3,107.5,109.1,108"/>
				<path id="path2742" class="st86" d="M104.1,106.5c-0.3,0-0.5,0.1-0.7,0.2l-0.1,0.6c0.2-0.1,0.5-0.2,0.8-0.2v0.1
					c-0.3,0-0.6,0.1-0.9,0.3l-0.2,0.8c0.3-0.2,0.6-0.3,1-0.3v0.6l-1.1,0l-0.7-0.1c0.1-0.7,0.4-1.4,1-1.9c0.2-0.2,0.5-0.3,0.8-0.3
					L104.1,106.5"/>
				<path id="path2744" class="st86" d="M111.1,108.3l-0.6,0.4l-1.5,0l0-0.6c0.5-0.2,1.1-0.2,1.6,0L111.1,108.3"/>
				<path id="path2746" class="st85" d="M112.5,109.4l-0.1,0.2c-0.3-0.1-0.5,0.2-0.8,0.3c-0.7,0.1-1.2-0.4-1.9-0.1
					c-0.3,0.1-0.8,0.2-1.1,0.1c-0.2-0.1-0.4-0.1-0.6-0.1c-0.4,0.1-0.9,0.4-1.4,0.2c-0.2-0.1-0.5-0.2-0.8-0.2
					c-0.4,0.1-0.8,0.2-1.2,0.2c-0.3-0.1-0.6-0.2-0.9-0.2c-0.3,0-0.6,0.2-0.9,0.2c-0.5,0-0.9-0.1-1.3-0.3l-0.7,0.2l-0.1-0.2l0.8-0.2
					c0.3,0,0.5,0.1,0.7,0.2c0.3,0.1,0.7,0.1,1,0c0.3-0.2,0.8-0.2,1.1-0.1c0.3,0.1,0.5,0.2,0.8,0.1c0.4-0.1,1-0.3,1.4-0.1
					c0.3,0.2,0.7,0.2,1,0c0.2-0.1,0.5-0.2,0.8-0.1c0.3,0.1,0.7,0.3,1.1,0.1c0.3-0.1,0.6-0.2,1-0.2c0.5,0,0.8,0.2,1.3,0.2
					c0.2-0.1,0.3-0.3,0.5-0.3C112.2,109.3,112.3,109.3,112.5,109.4"/>
				<path id="path2748" class="st88" d="M106.4,123.9c0,0,7.7-2.5,8-8.1l0-12.1H98.4l0,12.1C98.7,121.4,106.4,123.9,106.4,123.9z"/>
				<path id="path2750" d="M96.3,119.1c0.2,0.2,0.6,0.4,0.9,0.5c0.2,0.2,0.5,0.3,0.7,0.4c0.4,0.2,0.8,0.4,1.3,0.6
					c0.3,0.1,0.6,0.2,1,0.3c0.2,0,0.3,0.1,0.5,0.1c0.3,0.2,0.7,0.2,1,0.3c0.7,0.1,1.4,0.3,2.1,0.4c0.9,0.1,1.7,0.1,2.6,0.2
					c0.5,0,1,0,1.5,0c0.3,0,0.7-0.1,1-0.1c0.1,0,0.2,0,0.3,0c0.7-0.1,1.2-0.2,1.9-0.3c0.8-0.2,1.7-0.4,2.5-0.6
					c0.4-0.2,0.8-0.3,1.1-0.5c0.1,0,0.3-0.1,0.4-0.1c0.1,0,0.2-0.1,0.3-0.1c0.6-0.3,1.2-0.6,1.7-1c0.1,0,0.2-0.1,0.4-0.2
					c0.4-0.1,1-0.3,1.4,0c0.2,0,0.2,0.3,0.3,0.5c0,0.3-0.1,0.6-0.1,0.9c0,0.1,0,0.3,0,0.4l0,0.3c0.1,0,0,0.1,0,0.1
					c0.1,0.2,0.1,0.5,0.2,0.7c0.1,0.1,0,0.2,0.1,0.2c0.7-0.2,1.4,0,2.1,0.2c0.2,0.1,0.5,0.2,0.7,0.3c0.1,0,0.1,0.1,0.2,0.1
					c0.7,0.3,1.4,0.8,1.9,1.3c0.1,0.1,0.3,0.3,0.2,0.4c-0.4-0.2-0.9-0.2-1.3-0.3c-0.2,0.1-0.3,0-0.4,0.1c-0.3,0-0.5,0.1-0.7,0.1
					c-0.3,0.1-0.5,0.2-0.8,0.4v0c0.4,0.4,0.9,0.7,1.2,1.2c0.1,0.2,0.3,0.3,0.4,0.5v0c0.2,0.2,0.4,0.5,0.6,0.7h0
					c0,0.1,0.1,0.1,0.1,0.2c0.2,0.3,0.3,0.6,0.4,0.8c-0.1,0-0.2-0.1-0.3-0.2c-0.1,0-0.3-0.2-0.4-0.3c-0.2-0.1-0.4-0.2-0.6-0.4
					c-1.2-0.7-2.8-0.8-4.2-0.6c-0.7,0.1-1.4,0.1-2.1,0.1c-0.3,0-0.6-0.1-0.9-0.3c-0.1-0.2-0.2-0.4-0.3-0.6c0-0.2-0.1-0.4-0.1-0.5
					c-0.1,0,0-0.1,0-0.1c-0.2,0-0.3,0.1-0.5,0.2c-0.2,0.1-0.4,0.2-0.7,0.3c-0.6,0.2-1.1,0.3-1.7,0.5c-0.2,0-0.3,0.1-0.5,0.1
					c-0.1,0.1-0.3,0.1-0.4,0.1c-0.6,0.2-1.3,0.1-2,0.3c-0.1,0-0.2,0-0.2,0c-0.6,0-1.2,0.1-1.8,0c-0.1,0-0.2,0.1-0.4,0
					c-0.2,0-0.3,0-0.5,0c-0.1,0-0.2,0-0.4-0.1c-0.3,0-0.5-0.1-0.8,0c-0.1-0.1-0.2,0-0.3-0.1c-0.1,0-0.1,0-0.2,0
					c-0.4-0.1-0.8-0.1-1.2-0.2c-0.9-0.2-1.7-0.4-2.7-0.7c0-0.1-0.1,0-0.2-0.1c-0.4-0.1-0.8-0.2-1.2-0.4c-0.4-0.1-0.7-0.3-1.1-0.4
					c-0.1,0.3-0.2,0.6-0.2,0.9c-0.1,0.2,0,0.4-0.1,0.5c-0.1,0.1-0.1,0.2-0.3,0.2c-0.2,0.1-0.5,0.2-0.7,0.2c-0.9,0.1-1.6-0.1-2.4-0.2
					c-0.1,0-0.2-0.1-0.3,0c-0.1-0.1-0.3,0-0.4-0.1c-0.1,0-0.2,0.1-0.3,0c-0.2,0-0.3,0-0.5,0c-0.2,0-0.5,0.1-0.7,0.1
					c-0.4,0.1-0.7,0.1-1,0.2c-0.2,0-0.4,0.1-0.6,0.2c-0.1,0.1-0.2,0.1-0.3,0.2c0,0.1-0.1,0-0.1,0c-0.1,0.1-0.2,0.1-0.3,0.2
					c-0.2,0.1-0.4,0.3-0.6,0.4c0,0-0.1,0-0.1,0c0-0.2,0.1-0.4,0.2-0.6c0.2-0.4,0.6-0.8,0.8-1.1c0-0.1,0.1-0.1,0.1-0.1
					c0.4-0.6,1-1,1.5-1.5c-0.3-0.3-0.7-0.4-1.1-0.5c-0.1,0-0.2,0-0.3-0.1c-0.2,0-0.3,0-0.5,0c-0.1,0-0.3,0-0.4,0
					c-0.1,0.1-0.2,0-0.3,0.1c-0.2,0.1-0.5,0.2-0.7,0.3c-0.1,0-0.1,0-0.2,0c0-0.1,0.1-0.1,0.1-0.2c0-0.1,0.2-0.2,0.3-0.3
					c0.1-0.1,0.2-0.2,0.3-0.3c0.2-0.1,0.3-0.2,0.4-0.3c0-0.1,0.1-0.1,0.2-0.1c0.2-0.1,0.4-0.3,0.6-0.4c0.1,0,0.2-0.1,0.3-0.1
					c0.1,0,0.2-0.1,0.2-0.1c0.2-0.2,0.5-0.2,0.7-0.3c0.2,0,0.3-0.1,0.5-0.1c0.1-0.1,0.3,0,0.4-0.1c0.2,0,0.4,0,0.7,0
					c0.2-0.1,0.4,0.1,0.6,0c0.1,0.1,0.2,0,0.2,0c0.1-0.1,0.1-0.3,0.2-0.4c0.1-0.4,0.2-0.9,0.2-1.3l0-0.3c0,0,0-0.1,0-0.1
					c0.1-0.3,0.1-0.7,0.2-1c0.3-0.2,0.6-0.1,0.9-0.1C95.9,118.9,96.1,119,96.3,119.1"/>
				<path id="path2752" class="st28" d="M95.8,119.1c0.6,0.3,1.1,0.7,1.7,1c0.1,0,0.1,0.1,0.1,0.1c0.4,0.2,0.9,0.4,1.3,0.6
					c0.1,0,0.1,0.1,0.2,0.1c0.4,0.2,0.9,0.3,1.3,0.5c0,0,0.1,0,0.1,0c0.3,0.1,0.7,0.2,1,0.2c0,0.1,0.1,0,0.1,0
					c0.1,0,0.3,0.1,0.5,0.1c0.2,0,0.5,0.1,0.6,0.2c0.1,0,0.3,0,0.4,0c0.3,0,0.5,0.1,0.8,0.1c0,0.1,0.1,0,0.1,0l0.4,0.1v0
					c0.3,0,0.5,0,0.7,0.1c0.3,0,0.6,0,0.8,0c0.2,0,0.4,0,0.6,0c0.4,0,0.9,0,1.4,0c0.1,0.1,0.2,0,0.3,0c0.3,0,0.6-0.1,1-0.1
					c0-0.1,0.1,0,0.2-0.1c0.2,0,0.5,0,0.7-0.1c0.3,0,0.5-0.1,0.8-0.1c0,0,0.1,0,0.1,0c0.4-0.1,0.8-0.1,1.2-0.2c0.1,0,0.1-0.1,0.2,0
					c0.3-0.2,0.7-0.2,1.1-0.3c0.4-0.1,0.7-0.3,1.1-0.4c0.2-0.1,0.4-0.1,0.6-0.2c0.5-0.2,0.9-0.4,1.3-0.7c0.1,0,0.1-0.1,0.2-0.1
					c0.2-0.2,0.5-0.2,0.7-0.4c0.4-0.2,1-0.5,1.4,0c0,0.2,0,0.4,0,0.6c0,0,0,0,0,0.1c0,0.1,0,0.2,0,0.2h0c0,0.1,0,0.3,0,0.5
					c0,0.4,0,0.8,0.2,1.1c0,0.1,0,0.2,0.1,0.3c0,0.1,0.1,0.2,0.1,0.3c0.1,0.1,0.1,0.3,0.2,0.5c0,0.1,0.1,0.1,0,0.2
					c0.1,0.2,0.1,0.4,0.2,0.6c0,0,0,0,0,0c-0.3-0.3-0.8-0.2-1.1-0.1c-1.3,0.5-2.5,1.2-3.8,1.8c-0.5,0.3-1.1,0.4-1.7,0.6
					c-1.2,0.3-2.4,0.5-3.6,0.6c-1.6,0.1-3.1,0-4.7-0.1c-0.5,0-1-0.1-1.5-0.3c-0.1,0-0.3-0.1-0.4-0.1c-0.7-0.1-1.4-0.4-2.1-0.6
					c-0.5-0.2-1-0.3-1.5-0.5c-0.6-0.2-1.3-0.4-1.9-0.6c-0.4-0.2-0.7-0.3-1.1-0.5c-0.4-0.1-0.7-0.3-1.1-0.4l0,0
					c-0.1,0.1-0.1-0.1-0.2,0c-0.3-0.1-0.6-0.1-0.9,0c-0.1,0,0-0.1,0-0.1c0.1-0.2,0.1-0.4,0.2-0.7c0.1-0.1,0.1-0.1,0.1-0.2
					c0.4-0.9,0.6-1.8,0.6-2.8c0-0.1,0-0.2,0.1-0.3c0-0.1,0-0.2,0-0.3c0.1,0,0.1-0.2,0.3-0.2c0.1,0,0.3,0,0.4,0
					C95.6,119,95.7,119.1,95.8,119.1"/>
				<path id="path2754" class="st28" d="M93.9,122.4C93.9,122.5,94,122.4,93.9,122.4c0,0.1-0.1,0.2-0.1,0.3c-0.2,0.5-0.4,1-0.4,1.6
					c0.1,0.1,0,0.3,0.1,0.3c0.1,0.6,0.9,0.9,1.4,0.9c0.5,0.1,1,0.2,1.5,0.3c0.1,0,0.2,0.1,0.3,0c0.2,0.1,0.4,0.1,0.5,0.2
					c0.1,0,0.1,0.1,0.2,0.1c0.1,0.1,0.2,0.2,0.2,0.4c0,0.2-0.2,0.2-0.4,0.2c-0.1,0-0.2,0-0.4,0c-0.9,0.1-1.8-0.1-2.6-0.2
					c-0.1,0-0.2-0.1-0.2,0c-0.4-0.1-0.8,0-1.2-0.1c-0.2,0-0.3,0-0.5,0.1c-0.4,0-0.8,0.1-1.1,0.3c-0.1,0.1-0.2,0-0.3,0.1
					c-0.4,0.1-0.8,0.3-1.1,0.5c-0.1,0-0.1,0.1-0.2,0.1c0.1-0.3,0.4-0.5,0.6-0.8c0.2-0.2,0.3-0.4,0.6-0.6c0.1-0.1,0.2-0.2,0.3-0.4
					c0.1,0,0.1-0.1,0.1-0.1l0,0c0-0.1,0.2-0.2,0.2-0.3c0.1-0.1,0.2-0.1,0.3-0.2l0,0l0.5-0.4c0-0.1,0-0.1-0.1-0.1
					c-0.2-0.1-0.4-0.3-0.7-0.3c0-0.1-0.1,0-0.1-0.1c-0.1,0-0.3-0.1-0.5-0.2c-0.1,0-0.3,0-0.4-0.1c-0.1,0.1-0.1-0.1-0.2,0
					c-0.1,0-0.2,0-0.4-0.1c-0.3,0-0.6,0-0.9,0.1l0,0c0.3-0.1,0.4-0.4,0.7-0.5c0.2-0.1,0.5-0.3,0.7-0.4c0.7-0.4,1.6-0.6,2.4-0.7
					C93.4,122.4,93.7,122.3,93.9,122.4"/>
				<path id="path2756" class="st28" d="M120.8,122.7c0.6,0.2,1.1,0.5,1.7,0.7c0.4,0.2,0.9,0.5,1.2,0.8c0,0,0.1,0,0.1,0.1
					c-0.9-0.2-1.8,0-2.6,0.4c-0.2,0-0.3,0.1-0.4,0.3v0c0.1,0.1,0.3,0.2,0.4,0.4c0.6,0.5,1.1,1,1.5,1.6c0.1,0.2,0.3,0.3,0.4,0.5
					c0.1,0.2,0.2,0.3,0.3,0.5c-0.1,0-0.1-0.1-0.2-0.1c-0.8-0.4-1.7-0.8-2.6-1c-0.8,0-1.4,0-2.1,0c-0.1,0-0.3,0-0.4,0
					c-0.1,0-0.2,0-0.3,0c-0.1,0.1-0.2,0-0.3,0c-0.5,0-1,0.1-1.4,0c-0.2-0.1-0.5-0.1-0.6-0.3c0-0.1,0-0.3,0.2-0.3
					c0.4-0.3,1-0.3,1.5-0.4c0.7-0.1,1.4-0.1,2-0.6c0.2-0.2,0.5-0.4,0.5-0.7c0.1-0.3,0.2-0.6,0.1-0.9c0-0.1-0.1-0.3-0.1-0.4
					c-0.1-0.2-0.2-0.5-0.3-0.7C119.7,122.5,120.3,122.7,120.8,122.7"/>
				<path id="path2758" class="st89" d="M94.6,123.9c0.3,0.1,0.6,0.2,0.9,0.3c0.4,0.2,0.8,0.4,1.3,0.5c0.3,0.1,0.6,0.3,1,0.4
					c0,0.1,0.1,0,0.2,0.1c0.1,0,0.1,0,0.2,0c0,0.1-0.1,0.3-0.1,0.4c0,0.2-0.1,0.3-0.1,0.4c0,0,0,0,0,0c-0.2-0.3-0.6-0.3-0.9-0.5
					c-0.8-0.1-1.5-0.2-2.3-0.5c0-0.1-0.1,0-0.1-0.1c-0.2-0.1-0.5-0.3-0.6-0.6c0-0.1-0.1-0.2-0.1-0.3c0.1-0.1,0.1-0.3,0.2-0.3
					c0.1-0.1,0.2,0,0.3-0.1C94.4,123.9,94.5,124,94.6,123.9"/>
				<path id="path2760" class="st89" d="M119.3,124.2c0,0.2,0.1,0.3-0.1,0.4c-0.1,0.1,0,0.2-0.1,0.3c-0.1,0.2-0.4,0.3-0.6,0.4
					c-0.1,0.1-0.3,0.2-0.5,0.2c-0.1,0-0.3,0.1-0.4,0.1c-0.7,0.2-1.5,0.1-2.1,0.5c-0.1,0-0.2,0.1-0.2,0.1l0,0c0-0.2-0.1-0.4-0.1-0.6
					c0.2-0.1,0.4-0.2,0.6-0.3c0.1-0.1,0.3-0.2,0.5-0.2c0.4-0.2,0.8-0.4,1.1-0.6c0.1,0,0.1-0.1,0.2-0.1c0.3-0.1,0.5-0.3,0.8-0.3
					c0.3-0.1,0.6-0.2,0.8-0.1L119.3,124.2"/>
				<polyline id="polyline2762" class="st28" points="119.2,124.6 119.2,124.6 119.2,124.7 119.2,124.7 119.2,124.6 				"/>
				<path id="path2764" d="M96.9,121.5L96.9,121.5C96.8,121.4,96.8,121.4,96.9,121.5c0-0.2,0-0.2,0-0.2c0,0,0-0.1-0.1-0.1
					c0,0,0-0.1-0.1-0.1c0,0-0.1,0-0.1,0c0,0-0.1,0-0.1,0c0,0-0.1,0-0.1,0.1c0,0-0.1,0.1-0.1,0.1c0,0,0,0.1,0,0.2
					c0,0.1,0,0.1,0.1,0.2c0,0.1,0.1,0.1,0.1,0.2c0,0.1,0.1,0.1,0.1,0.2c0.1,0.1,0.1,0.2,0.1,0.3c0,0.1,0,0.2,0,0.3
					c0,0.1-0.1,0.2-0.2,0.3c-0.1,0.1-0.2,0.1-0.3,0.2c-0.1,0-0.2,0-0.3,0c-0.1,0-0.3-0.1-0.3-0.1c-0.1-0.1-0.1-0.1-0.2-0.2
					c0-0.1,0-0.1,0-0.1c0,0,0,0,0-0.1c0,0,0.1-0.1,0.1-0.1c0.1-0.1,0.1-0.1,0.1-0.1c0,0,0.1,0,0.1,0s0,0.1,0,0.1
					c0,0.2,0.1,0.4,0.3,0.4c0.1,0,0.1,0,0.2,0c0.1,0,0.1-0.1,0.2-0.1c0,0,0.1-0.1,0.1-0.2c0,0,0-0.1,0-0.1c0,0,0-0.1-0.1-0.1
					c0,0-0.1-0.1-0.1-0.2c0-0.1-0.1-0.1-0.1-0.2c-0.1-0.1-0.1-0.2-0.1-0.3c0-0.1,0-0.2,0-0.3c0-0.1,0.1-0.2,0.1-0.2
					c0.1-0.1,0.1-0.1,0.2-0.2c0.1,0,0.2-0.1,0.4,0c0.1,0,0.2,0.1,0.2,0.1c0.1,0,0.1,0.1,0.1,0.1c0,0.1,0,0.1,0,0.1
					c0,0,0,0.1-0.1,0.1C97,121.3,96.9,121.4,96.9,121.5"/>
				<path id="path2766" d="M97.7,122.7l0.4-0.5l0.4,0c0,0,0,0.1-0.1,0.1c0,0.1-0.1,0.1-0.2,0.2c-0.1,0.1-0.1,0.2-0.2,0.2
					c0,0.1-0.1,0.1-0.1,0.2c0,0.1,0,0.1,0,0.2c0,0,0.1,0,0.1,0c0,0,0.1,0,0.1-0.1s0.1,0,0.1-0.1l-0.1,0.2c-0.1,0.1-0.3,0.1-0.4,0.2
					c-0.1,0-0.2,0-0.3,0c0,0-0.1,0-0.1-0.1c0,0,0-0.1-0.1-0.1c0-0.1,0-0.1,0-0.2l0,0c-0.3,0.2-0.5,0.2-0.6,0.2
					c-0.1,0-0.1-0.1-0.1-0.1c0-0.1,0-0.2,0-0.3c0-0.1,0.1-0.2,0.2-0.3c0.1-0.1,0.2-0.3,0.3-0.4l0.4,0l-0.3,0.4c0,0-0.1,0.1-0.1,0.2
					c0,0.1-0.1,0.1-0.1,0.2c0,0.1,0,0.2,0.1,0.2c0,0,0.1,0,0.1,0c0.1,0,0.1-0.1,0.2-0.1C97.7,122.8,97.7,122.8,97.7,122.7"/>
				<path id="path2768" d="M98.9,122.8c-0.1,0.1-0.2,0.1-0.3,0.2c-0.1,0.1-0.2,0.1-0.2,0.1l0,0.1l0,0c0,0,0.1,0,0.1-0.1
					c0,0,0.1,0,0.1-0.1c0,0,0.1,0,0.1-0.1l0,0c-0.3,0.4-0.5,0.8-0.8,1.2l0.4,0.1c0.1-0.1,0.1-0.2,0.2-0.3c0.1-0.1,0.1-0.2,0.2-0.3
					c0,0,0,0,0,0c0,0,0,0,0,0c0,0,0,0,0,0c0,0,0,0,0.1,0c0.1,0,0.2,0,0.3,0c0.1,0,0.2,0,0.3-0.1c0.1,0,0.2-0.1,0.3-0.2
					c0.1-0.1,0.1-0.2,0.2-0.3c0-0.1,0.1-0.2,0-0.3c0-0.1-0.1-0.2-0.2-0.2c-0.1,0-0.1,0-0.2,0c-0.1,0-0.2,0-0.3,0.1l0,0l0.1-0.2
					l-0.3-0.1C99.1,122.6,99,122.7,98.9,122.8 M99.7,123.8c-0.1,0-0.1,0-0.2,0.1c0,0-0.1,0-0.1,0c0,0,0,0,0,0.1c0,0,0,0,0,0
					c0,0,0.1,0,0.2,0c0.1,0,0.2-0.1,0.3-0.1l0.1-0.2C99.9,123.7,99.8,123.8,99.7,123.8z M99.2,123c0,0,0.1-0.1,0.1-0.1
					c0.1,0,0.1,0,0.2,0c0,0,0.1,0,0.1,0.1c0,0,0,0.1,0,0.1c0,0,0,0.1,0,0.1c0,0.1-0.1,0.1-0.1,0.2c-0.1,0.1-0.1,0.1-0.2,0.2
					c-0.1,0-0.2,0.1-0.2,0c0,0-0.1,0-0.1-0.1c0,0,0-0.1,0-0.1l0.2-0.3C99.1,123.1,99.2,123.1,99.2,123z"/>
				<path id="path2770" d="M100.7,124.2c-0.1,0-0.1,0-0.2,0c-0.1,0-0.1-0.1-0.2-0.1c0-0.1,0-0.1,0-0.2c0.1,0,0.2,0,0.3,0
					c0.1,0,0.2,0,0.3,0c0.1,0,0.2-0.1,0.2-0.2c0,0,0-0.1,0-0.1c0,0,0-0.1-0.1-0.1c0,0-0.1-0.1-0.1-0.1c-0.1,0-0.2,0-0.2,0
					c-0.1,0-0.2,0-0.3,0.1c-0.1,0-0.2,0.1-0.3,0.2c-0.1,0.1-0.1,0.2-0.2,0.3c-0.1,0.1-0.1,0.3,0,0.4c0,0.1,0.1,0.2,0.2,0.2
					c0.1,0,0.1,0,0.2,0.1c0.1,0,0.2,0,0.2,0c0.1,0,0.2-0.1,0.3-0.1l0.1-0.1C100.9,124.2,100.8,124.2,100.7,124.2 M100.5,123.5
					c0.1-0.1,0.1-0.1,0.2-0.1c0.1,0,0.1,0,0.2,0c0.1,0,0.1,0.1,0,0.2c0,0.1-0.1,0.1-0.2,0.2c-0.1,0-0.2,0.1-0.3,0l0,0
					C100.4,123.6,100.4,123.6,100.5,123.5z"/>
				<path id="path2772" d="M101.1,124.2l-0.1,0.1L101.1,124.2c0-0.1,0.1-0.2,0.2-0.2c-0.1-0.1-0.1-0.1-0.1-0.2c0,0,0-0.1,0.1-0.1
					c0,0,0.1-0.1,0.1-0.1c0.1,0,0.1,0,0.2,0c0.1,0,0.1,0.1,0.1,0.2c0,0.1-0.1,0.1-0.1,0.2c0.2,0,0.3,0,0.5-0.2l0.1,0l-0.3,0.3
					c0,0,0,0-0.1,0.1c0,0.1-0.1,0.1-0.1,0.2c0,0.1-0.1,0.1-0.1,0.1c0,0,0,0.1,0,0.1c0,0,0,0,0.1,0.1c0,0,0.1,0,0.1,0
					c0,0,0.1,0,0.2-0.1c0.1,0,0.1,0,0.2-0.1l-0.1,0.2c-0.2,0.1-0.3,0.1-0.4,0.2c-0.1,0-0.2,0-0.2,0.1c-0.1,0-0.1,0-0.2,0
					c-0.1,0-0.1-0.1-0.1-0.1c0-0.1,0-0.1,0-0.2c0-0.1,0.1-0.1,0.1-0.2c0.1-0.1,0.2-0.1,0.2-0.2l0,0c-0.1,0-0.2,0-0.2,0
					C101.3,124.1,101.3,124.1,101.1,124.2"/>
				<path id="path2774" d="M102.8,123.5c-0.1,0.1-0.2,0.2-0.3,0.4c-0.1,0.1-0.2,0.3-0.2,0.4c-0.1,0.1-0.1,0.2-0.1,0.3
					c0,0.1,0,0.1,0,0.2c0,0.1,0,0.1,0.1,0.2c0,0,0.1,0.1,0.1,0.1c0.1,0,0.1,0,0.2,0c0.1,0,0.1,0,0.2-0.1c0.1,0,0.2-0.1,0.3-0.1
					c0,0.1,0.1,0.1,0.1,0.1c0,0,0.1,0,0.1,0.1c0,0,0.1,0,0.1,0c0,0,0.1,0,0.2-0.1l0-0.2c-0.1,0.1-0.2,0.1-0.2,0.1c0,0-0.1,0-0.1,0
					c0,0-0.1,0-0.1,0c-0.1,0-0.1-0.1-0.2-0.1c0.1-0.1,0.1-0.1,0.2-0.2c0.1-0.1,0.1-0.1,0.2-0.2c0-0.1,0.1-0.1,0.1-0.2
					c0-0.1,0-0.1,0-0.1c0,0,0-0.1-0.1-0.1c-0.1,0-0.1,0-0.2,0c-0.1,0-0.1,0.1-0.2,0.2c-0.1,0.1-0.1,0.2-0.1,0.2c0,0.1,0,0.2,0,0.3
					c-0.1,0-0.1,0.1-0.2,0.1c0,0-0.1,0-0.1,0c0,0-0.1,0-0.1-0.1c0,0,0-0.1,0-0.1c0-0.1,0.1-0.2,0.2-0.4l0.2-0.1
					c0.1,0,0.1-0.1,0.2-0.1c0.1-0.1,0.1-0.1,0.2-0.2c0.1-0.1,0.1-0.1,0.2-0.2c0.1-0.1,0.1-0.1,0.1-0.2c0-0.1,0-0.1,0-0.2
					c0,0,0-0.1-0.1-0.1l-0.5,0C102.9,123.3,102.9,123.4,102.8,123.5 M103.4,123.5c0,0,0,0.1-0.1,0.1c0,0.1-0.1,0.1-0.2,0.2
					c-0.1,0.1-0.1,0.1-0.2,0.2c-0.1,0-0.1,0.1-0.2,0.1l0,0c0.1-0.2,0.3-0.4,0.4-0.5c0.1-0.1,0.2-0.2,0.2-0.1
					C103.4,123.4,103.5,123.5,103.4,123.5z"/>
				<path id="path2776_1_" d="M104.1,123.6C104.1,123.7,104.1,123.7,104.1,123.6c0.1,0.1,0.1,0.1,0.1,0.1c0,0,0,0,0.1,0
					c0,0,0.1,0,0.2,0c0,0.1-0.1,0.2-0.1,0.2c-0.1,0-0.1,0.1-0.2,0.1c-0.1,0-0.2-0.1-0.2-0.1C104,123.8,104,123.7,104.1,123.6
					 M103.8,124.3l0.4,0l0,0l-0.2,0.4c0,0,0,0.1-0.1,0.1c0,0,0,0.1,0,0.1c0,0,0,0,0,0.1c0,0,0,0.1,0,0.1c0,0,0,0.1,0,0.1
					c0,0,0,0,0.1,0c0,0,0.1,0,0.1,0c0,0,0.1-0.1,0.3-0.2l0,0.2c-0.2,0.2-0.3,0.2-0.4,0.3c-0.1,0-0.2,0.1-0.2,0.1
					c-0.1,0-0.1,0-0.1-0.1c0-0.1,0-0.2,0-0.3c0-0.1,0.1-0.3,0.1-0.4C103.7,124.5,103.7,124.4,103.8,124.3z"/>
				<path id="path2778" d="M105.7,125.3c0,0-0.1,0.1-0.1,0.1c0,0-0.1,0-0.1,0c-0.1,0-0.1-0.1-0.1-0.1c0,0,0-0.1,0.1-0.2
					c0-0.1,0.1-0.2,0.1-0.2l0.2-0.4l-0.1,0l-0.3,0.1c0-0.1-0.1-0.2-0.2-0.2c-0.1,0-0.1,0-0.2,0c-0.1,0-0.2,0.1-0.3,0.2
					c-0.1,0.1-0.2,0.2-0.2,0.3c-0.1,0.1-0.1,0.2-0.1,0.3c0,0.1,0,0.2,0.1,0.3c0.1,0.1,0.1,0.1,0.2,0.1c0.1,0,0.1,0,0.2,0
					c0.1,0,0.1-0.1,0.2-0.1c0.1-0.1,0.1-0.1,0.2-0.2l0,0c0,0.1,0,0.1,0,0.2c0,0.1,0,0.1,0.1,0.1c0,0,0.1,0.1,0.1,0.1
					c0,0,0.1,0,0.1,0c0.1,0,0.1,0,0.1-0.1c0,0,0.1-0.1,0.1-0.1c0.1,0,0.1-0.1,0.1-0.1l0-0.2C105.8,125.2,105.7,125.3,105.7,125.3
					 M105.2,124.5c0,0,0,0.1,0,0.1c0,0.1,0,0.1-0.1,0.2c0,0.1-0.1,0.2-0.1,0.2c0,0.1-0.1,0.1-0.1,0.2c-0.1,0-0.1,0.1-0.2,0.1
					c0,0-0.1,0-0.1-0.1c0,0,0-0.1,0-0.1c0-0.1,0-0.2,0.1-0.3c0.1-0.1,0.1-0.2,0.2-0.3C104.9,124.5,105,124.5,105.2,124.5
					C105.1,124.5,105.2,124.5,105.2,124.5z"/>
				<path id="path2780" d="M107.5,123.6c0,0,0.1,0,0.2,0c0.1,0,0.1,0,0.2,0c0,0,0.1,0,0.1,0c0,0,0.1,0,0.1,0c0,0,0,0,0.1,0
					c0,0,0,0,0,0.1c0,0,0,0,0,0c0,0,0,0,0,0c0,0,0,0,0,0.1c-0.1,0.1-0.1,0.1-0.1,0.2c0,0.1-0.1,0.2-0.1,0.4c0,0.2,0,0.3-0.1,0.4
					c0,0.1,0,0.2-0.1,0.3c0,0.1-0.1,0.2-0.1,0.3c0,0.1-0.1,0.2-0.2,0.2c-0.1,0.1-0.1,0.1-0.2,0.1c-0.1,0-0.2,0.1-0.3,0.1
					c-0.1,0-0.2,0-0.3-0.1c-0.1,0-0.1-0.1-0.2-0.1c0,0-0.1-0.1-0.1-0.1c0,0,0-0.1,0.1-0.1c0,0,0,0,0.1,0c0,0,0,0,0.1,0c0,0,0,0,0,0
					c0,0,0.1,0,0.1,0c0,0,0,0.1,0,0.1c0,0.1,0,0.1,0,0.2c0,0.1,0.1,0.1,0.2,0.1c0,0,0.1,0,0.1,0c0,0,0.1,0,0.1-0.1
					c0,0,0.1-0.1,0.1-0.1c0-0.1,0-0.1,0.1-0.2c0-0.1,0-0.2,0-0.2c0-0.1,0-0.2,0-0.2c0-0.1,0.1-0.2,0.1-0.3c0-0.1,0.1-0.1,0.1-0.2
					c0-0.1,0.1-0.1,0.1-0.2c0.1-0.1,0.1-0.1,0.2-0.2l0,0c-0.1,0-0.1,0-0.1,0c0,0-0.1,0-0.1,0c0,0-0.1,0-0.1,0c0,0-0.1,0-0.1,0
					c0,0-0.1,0-0.1,0c0,0,0,0-0.1,0c-0.1,0-0.1,0-0.2,0.1c-0.1,0.1-0.1,0.1-0.1,0.2c0,0,0,0.1,0,0.1c0,0,0,0,0.1,0.1c0,0,0,0,0,0.1
					c0,0,0,0.1-0.1,0.1c0,0-0.1,0.1-0.1,0.1c0,0-0.1,0-0.1-0.1c0-0.1,0-0.1,0-0.2c0-0.1,0-0.1,0.1-0.2c0-0.1,0.1-0.1,0.1-0.2
					c0.1-0.1,0.1-0.1,0.2-0.2C107.4,123.6,107.4,123.6,107.5,123.6"/>
				<path id="path2782" d="M108.3,124.5l0.4-0.1c0,0.1-0.1,0.2-0.1,0.3c0,0.1,0,0.2,0,0.2l0,0c0.1-0.1,0.1-0.2,0.2-0.2
					c0.1-0.1,0.1-0.1,0.2-0.2c0.1-0.1,0.1-0.1,0.2-0.1c0,0,0.1,0,0.1,0c0,0,0.1,0,0.1,0.1c0,0,0,0.1,0,0.1c0,0,0,0.1,0,0.2
					c0,0.1,0,0.2-0.1,0.3c0,0.1,0,0.2-0.1,0.2c0,0.1,0,0.1,0,0.1c0,0.1,0,0.1,0.1,0.1c0,0,0.1,0,0.1-0.1c0.1-0.1,0.1-0.1,0.2-0.2
					l0,0.2c-0.1,0.1-0.2,0.2-0.3,0.3c-0.1,0.1-0.2,0.1-0.3,0.1c-0.1,0-0.1,0-0.2,0c0,0-0.1-0.1-0.1-0.2c0-0.1,0-0.1,0-0.2
					c0-0.1,0-0.2,0.1-0.3c0-0.1,0-0.2,0-0.2c0,0,0,0,0,0c-0.1,0-0.2,0.2-0.4,0.4c0,0.1,0,0.2,0,0.3c0,0.1,0,0.1,0,0.2l-0.3,0.1
					c0-0.1,0-0.2,0-0.3c0-0.2,0-0.3,0-0.5C108.2,124.8,108.2,124.7,108.3,124.5"/>
				<path id="path2784" d="M111.3,123.5C111.3,123.5,111.4,123.5,111.3,123.5C111.4,123.5,111.4,123.5,111.3,123.5
					c0.1,0.1,0,0.1,0,0.2c0,0.1,0,0.1,0,0.2c0,0.1,0,0.2,0,0.3c0,0.1,0,0.2,0,0.4c0,0.1,0,0.2,0,0.3c0,0.1-0.1,0.2-0.1,0.2
					c-0.1,0.1-0.1,0.2-0.2,0.2c-0.1,0.1-0.2,0.1-0.3,0.1c-0.1,0-0.2,0-0.3,0c-0.1,0-0.1-0.1-0.2-0.2c0,0,0-0.1,0-0.1
					c0,0,0.1-0.1,0.1-0.1c0.1-0.1,0.1-0.1,0.1-0.1c0,0,0,0,0,0c0,0,0,0,0,0c0,0,0,0,0,0.1c0,0.1,0,0.1,0,0.1c0,0.1,0.1,0.2,0.2,0.1
					c0,0,0.1,0,0.1-0.1c0,0,0.1-0.1,0.1-0.1c0-0.1,0.1-0.2,0.1-0.3c0-0.1,0-0.3,0-0.4c0-0.1,0-0.3,0-0.4c0-0.1,0-0.2,0-0.2
					c0-0.1,0-0.1,0.1-0.2c0-0.1,0.1-0.1,0.2-0.2C111.3,123.5,111.3,123.5,111.3,123.5 M111.1,123.2c0.1,0,0.2,0,0.3,0
					c0.1,0,0.2,0,0.2,0.1c0.1,0,0.1,0.1,0.2,0.1c0,0.1,0.1,0.1,0.1,0.2c0,0.1,0,0.2,0,0.2c0,0.1,0,0.1-0.1,0.2c0,0-0.1,0.1-0.1,0.1
					c0,0-0.1,0.1-0.1,0.1c0,0-0.1,0-0.1,0c0,0,0,0,0,0c0,0,0,0,0,0c0,0,0,0,0-0.1c0.1-0.1,0.1-0.3,0.1-0.4c0-0.1-0.1-0.1-0.1-0.2
					c0,0-0.1-0.1-0.2-0.1c-0.1,0-0.1,0-0.2,0c-0.1,0-0.2,0.1-0.3,0.2c-0.1,0.1-0.2,0.2-0.2,0.3c0,0.1-0.1,0.2,0,0.3
					c0,0.1,0,0.1,0.1,0.1c0,0,0,0,0.1,0c0,0,0,0,0.1,0c0,0,0,0,0,0c0,0,0,0.1-0.1,0.1c-0.1,0-0.1,0.1-0.1,0.1c0,0-0.1,0-0.1-0.1
					c0,0-0.1-0.1-0.1-0.2c0-0.1,0-0.2,0-0.2c0-0.1,0.1-0.2,0.1-0.3c0.1-0.1,0.2-0.2,0.3-0.3C110.8,123.3,110.9,123.2,111.1,123.2z"
					/>
				<path id="path2786" d="M112.1,124.7L112.1,124.7l-0.1-0.1c0.1-0.1,0.1-0.2,0.1-0.3c-0.1,0-0.1,0-0.2-0.1c0,0,0-0.1,0-0.1
					c0-0.1,0-0.1,0-0.2c0-0.1,0.1-0.1,0.1-0.1c0.1,0,0.1,0,0.1,0.1c0,0.1,0,0.1,0,0.3c0.1-0.1,0.2-0.2,0.3-0.5l0.1,0l0,0.4
					c0,0,0,0.1,0,0.1c0,0.1,0,0.1,0,0.2c0,0.1,0,0.1,0,0.1c0,0,0,0.1,0.1,0.1c0,0,0.1,0,0.1,0c0,0,0.1,0,0.1-0.1
					c0,0,0.1-0.1,0.1-0.1c0-0.1,0.1-0.1,0.1-0.2l0.1,0.2c-0.1,0.2-0.1,0.3-0.2,0.3c0,0.1-0.1,0.1-0.1,0.2c0,0-0.1,0.1-0.1,0.1
					c-0.1,0-0.1,0-0.2,0c-0.1,0-0.1-0.1-0.1-0.2c0-0.1,0-0.2,0-0.3c0-0.1,0-0.2,0.1-0.3l0,0c0,0.1-0.1,0.1-0.2,0.1
					C112.2,124.4,112.2,124.5,112.1,124.7"/>
				<path id="path2788" d="M114.3,123.8C114.3,123.8,114.3,123.8,114.3,123.8c0,0.1,0,0.1-0.1,0.1c0,0,0,0-0.1,0c-0.1,0-0.1,0-0.2,0
					c0-0.1,0-0.3,0-0.4c0-0.1,0-0.2-0.1-0.3c0,0,0-0.1,0-0.1c0,0,0,0-0.1,0c0,0-0.1,0-0.2,0.1c-0.1,0-0.1,0.1-0.2,0.1
					c-0.1,0.1-0.1,0.1-0.2,0.2c0,0.1-0.1,0.2-0.1,0.3c0,0.1,0,0.2,0.1,0.3c0,0.1,0.1,0.2,0.1,0.2c0.1,0,0.1,0.1,0.2,0.1
					c0.1,0,0.1,0,0.2,0c0.1,0,0.2-0.1,0.2-0.2c0.1-0.1,0.1-0.2,0.1-0.3c0.1,0,0.1,0,0.1,0c0,0,0.1,0,0.1,0c0,0,0.1,0,0.1-0.1
					c0,0,0.1-0.1,0.1-0.2l-0.1-0.2C114.3,123.7,114.3,123.8,114.3,123.8 M113.8,124.2C113.8,124.2,113.8,124.3,113.8,124.2
					c-0.1,0.1-0.2,0.1-0.2,0.1c-0.1,0-0.1-0.1-0.1-0.2c0-0.1-0.1-0.2-0.1-0.3c0-0.1,0-0.2,0-0.3c0-0.1,0.1-0.1,0.2-0.2
					c0,0,0.1,0,0.1,0c-0.1,0.2-0.1,0.3,0,0.4c0.1,0.1,0.1,0.2,0.3,0.3C113.9,124.1,113.9,124.2,113.8,124.2z"/>
				<path id="path2790" d="M115.2,123.5c0,0.1-0.1,0.1-0.2,0.1c-0.1,0-0.1,0-0.2,0c-0.1,0-0.1-0.1-0.2-0.1c0.1-0.1,0.1-0.1,0.2-0.2
					c0.1-0.1,0.1-0.2,0.2-0.2c0-0.1,0-0.2,0-0.3c0,0,0-0.1-0.1-0.1c0,0-0.1,0-0.1,0c-0.1,0-0.1,0-0.2,0c-0.1,0-0.1,0.1-0.2,0.2
					c-0.1,0.1-0.1,0.2-0.1,0.3c0,0.1,0,0.2,0,0.3c0,0.1,0,0.2,0.1,0.3c0.1,0.1,0.1,0.2,0.3,0.3c0.1,0,0.2,0,0.3,0
					c0.1,0,0.1-0.1,0.2-0.1c0.1-0.1,0.1-0.1,0.1-0.2c0-0.1,0.1-0.2,0.1-0.3l-0.1-0.2C115.3,123.4,115.3,123.5,115.2,123.5
					 M114.5,123.2c0-0.1,0-0.1,0-0.2c0-0.1,0-0.1,0.1-0.1c0.1,0,0.1,0,0.1,0.1c0,0.1,0,0.2,0,0.3c0,0.1-0.1,0.2-0.2,0.2l0,0
					C114.6,123.4,114.5,123.3,114.5,123.2z"/>
				<path id="path2792" d="M115.2,122c0,0.1,0,0.3,0,0.4c0,0.2,0,0.3,0.1,0.5c0,0.2,0.1,0.3,0.1,0.4c0.1,0.1,0.1,0.2,0.2,0.2
					c0.1,0,0.1,0.1,0.2,0.1c0.1,0,0.1,0,0.1,0c0.1,0,0.1-0.1,0.2-0.2c0.1-0.1,0.1-0.2,0.2-0.4l-0.1-0.1c-0.1,0.1-0.1,0.2-0.1,0.3
					c0,0.1-0.1,0.1-0.1,0.1c0,0-0.1,0-0.1,0c0,0-0.1-0.1-0.1-0.2c0-0.1-0.1-0.1-0.1-0.2c0-0.1,0.1-0.2,0.1-0.3c0-0.1,0-0.2,0.1-0.3
					c0-0.1,0-0.2,0-0.3c0-0.1,0-0.2-0.1-0.3c0-0.1-0.1-0.1-0.1-0.2c0,0-0.1,0-0.1,0l-0.3,0.3C115.2,121.8,115.2,121.9,115.2,122
					 M115.6,121.7c0,0.1,0,0.1,0.1,0.2c0,0.1,0,0.2,0,0.3c0,0.1,0,0.2,0,0.3c0,0.1,0,0.2-0.1,0.2l0,0c0-0.2-0.1-0.4-0.1-0.5
					c0-0.2,0-0.3,0-0.4c0-0.1,0-0.1,0-0.1C115.5,121.6,115.5,121.7,115.6,121.7z"/>
				<path id="path2794" d="M116,121.5C116.1,121.5,116.1,121.5,116,121.5c0.1,0,0.1,0,0.1,0c0,0,0,0,0.1,0c0,0,0.1-0.1,0.1-0.1
					c0.1,0.1,0.1,0.2,0,0.3c0,0.1-0.1,0.1-0.1,0.2c-0.1,0-0.2,0-0.2,0C116,121.7,116,121.6,116,121.5 M116.1,122.2l0.3-0.2l0,0
					l0,0.5c0,0,0,0.1,0,0.1c0,0,0,0.1,0,0.1c0,0,0,0,0,0.1c0,0,0,0.1,0,0.1c0,0,0,0,0,0.1c0,0,0,0,0.1,0c0,0,0.1-0.1,0.1-0.1
					c0,0,0-0.1,0.1-0.2l0.1,0.1c0,0.1-0.1,0.3-0.2,0.4c-0.1,0.1-0.1,0.2-0.2,0.2c-0.1,0-0.1,0-0.2,0c-0.1,0-0.1-0.1-0.2-0.2
					c-0.1-0.1-0.1-0.3-0.1-0.4C116.2,122.5,116.2,122.3,116.1,122.2z"/>
				<path id="path2796" d="M118.1,122.2C118.1,122.2,118.1,122.2,118.1,122.2c0,0.1,0,0.1-0.1,0.1c0,0,0,0-0.1,0c-0.1,0-0.1,0-0.2,0
					c0-0.1,0-0.3,0-0.4c0-0.1,0-0.2-0.1-0.3c0,0,0-0.1-0.1-0.1c0,0,0,0-0.1,0c0,0-0.1,0-0.2,0.1c-0.1,0-0.1,0.1-0.2,0.1
					c-0.1,0.1-0.1,0.1-0.2,0.2c0,0.1-0.1,0.2-0.1,0.3c0,0.1,0,0.2,0.1,0.4c0,0.1,0.1,0.2,0.1,0.2c0.1,0,0.1,0.1,0.2,0.1
					c0.1,0,0.1,0,0.2,0c0.1,0,0.2-0.1,0.2-0.2c0.1-0.1,0.1-0.2,0.1-0.3c0.1,0,0.1,0,0.1,0c0,0,0.1,0,0.1,0c0,0,0.1,0,0.1-0.1
					C118.1,122.3,118.1,122.3,118.1,122.2l0-0.1C118.1,122.1,118.1,122.1,118.1,122.2 M117.6,122.6
					C117.6,122.6,117.5,122.6,117.6,122.6c-0.1,0.1-0.2,0.1-0.2,0.1c0,0-0.1-0.1-0.1-0.2c0-0.1-0.1-0.2-0.1-0.3c0-0.1,0-0.2,0-0.3
					c0-0.1,0.1-0.1,0.2-0.2c0,0,0.1,0,0.1,0c-0.1,0.1-0.1,0.3,0,0.4c0.1,0.1,0.1,0.2,0.3,0.3C117.6,122.5,117.6,122.5,117.6,122.6z"
					/>
				<polygon id="polygon2798" class="st85" points="94.9,88.2 95.9,85.2 96.9,88.2 100,88.2 97.5,90.1 98.5,93.1 95.9,91.3 
					93.3,93.1 94.2,90.1 91.7,88.2 				"/>
				<polygon id="polygon2800" class="st90" points="94.9,88.2 95.9,85.2 96.9,88.2 100,88.2 97.5,90.1 98.5,93.1 95.9,91.3 
					93.3,93.1 94.2,90.1 91.7,88.2 				"/>
				<path id="path2802" class="st90" d="M95.9,91.3c0-0.1,0-1.7,0-1.7l1.6,0.5 M96.9,88.2l-1,1.4v-4.4 M91.7,88.2l4.2,1.4l-1.6,0.5
					 M98.5,93.1l-2.6-3.5l4.2-1.4 M94.9,88.2l1,1.4l-2.6,3.5"/>
				<polygon id="polygon2804" class="st85" points="105.4,88.2 106.4,85.2 107.4,88.2 110.6,88.2 108,90.1 109,93.1 106.4,91.3 
					103.8,93.1 104.7,90.1 102.2,88.2 				"/>
				<polygon id="polygon2806" class="st90" points="105.4,88.2 106.4,85.2 107.4,88.2 110.6,88.2 108,90.1 109,93.1 106.4,91.3 
					103.8,93.1 104.7,90.1 102.2,88.2 				"/>
				<path id="path2808" class="st90" d="M106.4,91.3c0-0.1,0-1.7,0-1.7l1.6,0.5 M107.4,88.2l-1,1.4v-4.4 M102.2,88.2l4.2,1.4
					l-1.6,0.5 M109,93.1l-2.6-3.5l4.2-1.4 M105.4,88.2l1,1.4l-2.6,3.5"/>
				<polygon id="polygon2810" class="st85" points="115.8,88.2 116.8,85.2 117.8,88.2 121,88.2 118.5,90.1 119.4,93.1 116.8,91.3 
					114.2,93.1 115.2,90.1 112.6,88.2 				"/>
				<polygon id="polygon2812" class="st90" points="115.8,88.2 116.8,85.2 117.8,88.2 121,88.2 118.5,90.1 119.4,93.1 116.8,91.3 
					114.2,93.1 115.2,90.1 112.6,88.2 				"/>
				<path id="path2814" class="st90" d="M116.8,91.3c0-0.1,0-1.7,0-1.7l1.6,0.5 M117.8,88.2l-1,1.4v-4.4 M112.6,88.2l4.2,1.4
					l-1.6,0.5 M119.4,93.1l-2.6-3.5l4.2-1.4 M115.8,88.2l1,1.4l-2.6,3.5"/>
				<polyline id="polyline2816" points="120.2,120.5 121.3,120.5 121.3,120.7 120.9,120.7 120.9,121.9 120.7,121.9 120.7,120.7 
					120.2,120.7 120.2,120.5 				"/>
				<path id="path2818" d="M122.7,121.9v-0.8c0,0,0-0.2,0-0.4h0l-0.4,1.2h-0.2l-0.4-1.2h0c0,0.1,0,0.3,0,0.3v0.8h-0.2v-1.4h0.3
					l0.4,1.2h0l0.4-1.2h0.3v1.4L122.7,121.9"/>
			</g>
		</g>
	</g>
</g>
</svg>
