<?xml version="1.0" encoding="utf-8"?>
<!-- Generator: Adobe Illustrator 19.2.1, SVG Export Plug-In . SVG Version: 6.00 Build 0)  -->
<svg version="1.1" id="Capa_1" xmlns="http://www.w3.org/2000/svg" xmlns:xlink="http://www.w3.org/1999/xlink" x="0px" y="0px"
	 viewBox="0 0 100 100" style="enable-background:new 0 0 100 100;" xml:space="preserve">
<style type="text/css">
	.st0{fill:url(#path34_4_);}
	.st1{fill:url(#path890_1_);}
	.st2{fill:#FFE500;stroke:#000000;stroke-width:2.098;stroke-miterlimit:3.863;}
	.st3{fill:#DA020E;}
	.st4{fill:#FFE500;}
	.st5{clip-path:url(#SVGID_2_);}
	.st6{fill:none;stroke:#B54005;stroke-width:10;stroke-miterlimit:3.863;}
	.st7{fill:url(#path7506_1_);}
	.st8{fill:url(#path8794_1_);}
	.st9{fill:url(#path15846_1_);}
	.st10{fill:url(#path16274_1_);}
	.st11{fill:url(#path39821_1_);}
	.st12{fill:url(#path39847_1_);}
	.st13{fill:url(#path39878_1_);}
	.st14{fill:url(#path39888_1_);}
	.st15{fill:url(#path41035_1_);}
	.st16{fill:url(#path9646-8_1_);}
	.st17{fill:url(#path41092_1_);}
	.st18{fill:url(#path41094_1_);}
	.st19{fill:none;stroke:#000000;stroke-width:2.098;stroke-miterlimit:3.863;}
	.st20{fill:url(#path41152_1_);}
	.st21{fill:url(#path39854_1_);}
	.st22{fill:url(#path39874_1_);}
	.st23{fill:#9C824A;stroke:#9C824A;stroke-width:0.793;stroke-miterlimit:282;}
	.st24{fill:#023474;stroke:#023474;stroke-width:0.793;stroke-miterlimit:282;}
	.st25{fill:#FFFFFF;stroke:#FFFFFF;stroke-width:0.793;stroke-miterlimit:282;}
	.st26{fill:#EF0107;stroke:#EF0107;stroke-width:0.793;stroke-miterlimit:282;}
	.st27{fill:#DB0007;stroke:#DB0007;stroke-width:0.793;stroke-miterlimit:282;}
	.st28{fill:#FFFFFF;}
	.st29{fill:#9C824A;}
	.st30{fill:#EF0107;stroke:#EF0107;stroke-width:0.3115;stroke-miterlimit:282;}
	.st31{fill:#DB0007;stroke:#DB0007;stroke-width:0.3115;stroke-miterlimit:282;}
	.st32{fill:#DB0007;}
	.st33{fill:#FFFFFF;stroke:#FFFFFF;stroke-width:0.3115;stroke-miterlimit:282;}
	.st34{fill:#FFFFFF;stroke:#FFFFFF;stroke-width:0.554;stroke-miterlimit:3.864;}
	.st35{fill:#231F20;}
	.st36{fill:#00B6F1;stroke:#00B6F1;stroke-width:1.700000e-02;stroke-miterlimit:3.864;}
	.st37{fill:#EF3E2E;}
	.st38{fill:#BBBDBF;}
	.st39{fill:#F0B83D;}
	.st40{fill:#00B6F1;stroke:#FFFFFF;stroke-width:1.700000e-02;stroke-miterlimit:3.864;}
	.st41{fill:#001C58;}
	.st42{fill:#94BEE5;}
	.st43{fill:none;stroke:#7A003C;stroke-width:2.2437;stroke-miterlimit:6;}
	.st44{fill:#7A003C;}
	.st45{fill:#FFE600;}
	.st46{fill:#DBA111;}
	.st47{fill:#034694;}
	.st48{fill:#D1D3D4;}
	.st49{fill:#ED1C24;}
	.st50{fill:#6A7AB5;}
	.st51{fill:none;}
	.st52{fill:#274488;}
	.st53{fill:#004798;stroke:#004798;stroke-width:9.375000e-02;}
	.st54{fill:#FFFFFF;stroke:#FFFFFF;stroke-width:9.375000e-02;}
	.st55{fill:#FABC00;stroke:#FABC00;stroke-width:9.375000e-02;}
	.st56{fill:none;stroke:#FFFFFF;stroke-width:7.865;stroke-miterlimit:3.864;}
	.st57{fill:none;stroke:#FFFFFF;stroke-width:7.865;stroke-miterlimit:12;}
	.st58{fill:none;stroke:#FFFFFF;stroke-width:7.865;stroke-miterlimit:22;}
	.st59{fill:none;stroke:#FFFFFF;stroke-width:7.865;stroke-miterlimit:6;}
	.st60{fill:#00A398;}
	.st61{fill:#D00027;}
	.st62{fill:none;stroke:#FFFFFF;stroke-width:17.3907;stroke-miterlimit:3.864;}
	.st63{fill:none;stroke:#FFFFFF;stroke-width:13.1107;stroke-miterlimit:3.864;}
	.st64{fill:#FEF667;}
	.st65{fill:#D00027;stroke:#D00027;}
	.st66{fill:#5299C6;}
	.st67{fill:#60223B;}
	.st68{fill:#F7C240;}
	.st69{fill:#292D6B;}
	.st70{fill:#1B458F;}
	.st71{fill:#C4122E;}
	.st72{fill:#27409B;}
	.st73{clip-path:url(#SVGID_4_);}
	.st74{fill:#F4F4F4;}
	.st75{fill:#D3D2D2;}
	.st76{fill:#A7A5A6;}
	.st77{fill:#091453;}
	.st78{fill:none;stroke:#FFFFFF;stroke-width:6.6301;}
	.st79{clip-path:url(#SVGID_6_);}
	.st80{fill:#724314;}
	.st81{fill:#240B08;}
	.st82{fill:#018B4B;}
	.st83{fill:#A6181D;}
	.st84{fill:#592D09;}
	.st85{fill:#FFCE65;}
	.st86{fill:#5CBFEB;}
	.st87{fill:none;stroke:#000000;stroke-width:10;}
	.st88{fill:none;stroke:#000000;}
	.st89{fill:#B2B2B2;}
	.st90{fill:none;stroke:#000000;stroke-width:0.3;}
	.st91{fill:#00A650;stroke:#000000;stroke-width:2;}
	.st92{fill:#241F20;stroke:#241F20;stroke-width:9.375000e-02;}
	.st93{fill:#FFF200;stroke:#FFF200;stroke-width:9.375000e-02;}
	.st94{fill:#A68A26;}
	.st95{fill:none;stroke:#A68A26;stroke-width:4.792100e-02;stroke-miterlimit:3.8637;}
	.st96{fill:#211E1E;}
	.st97{fill:none;stroke:#211E1E;stroke-width:4.792100e-02;stroke-miterlimit:3.8637;}
	.st98{fill:#EB172B;}
	.st99{fill:none;stroke:#EB172B;stroke-width:4.792100e-02;stroke-miterlimit:3.8637;}
	.st100{fill:#A68A26;stroke:#A68A26;stroke-width:4.792100e-02;stroke-miterlimit:3.8637;}
	.st101{fill:#D1BF7F;}
	.st102{fill:none;stroke:#D1BF7F;stroke-width:4.792100e-02;stroke-miterlimit:3.8637;}
	.st103{fill:none;stroke:#FFFFFF;stroke-width:4.792100e-02;stroke-miterlimit:3.8637;}
	.st104{fill:#EB172B;stroke:#EB172B;stroke-width:4.792100e-02;stroke-miterlimit:3.8637;}
	.st105{fill:#ED2127;}
	.st106{fill:#FBEE23;}
	.st107{stroke:#000000;}
	.st108{fill:#CF1F44;}
	.st109{fill:#1B449C;}
	.st110{fill:#E03A3E;}
	.st111{fill:#E03A3E;stroke:#E03A3E;stroke-width:0.6565;}
	.st112{fill:none;stroke:#1B449C;stroke-width:0.7493;}
	.st113{fill:none;stroke:#1B449C;stroke-width:0.7567;}
	.st114{fill:#1B449C;stroke:#1B449C;stroke-width:0.6274;}
	.st115{fill:#1B449C;stroke:#1B449C;stroke-width:0.6755;}
	.st116{fill:#2E6ABD;stroke:#2E6ABD;stroke-width:0.617;}
	.st117{fill:#FFFFFF;stroke:#FFFFFF;stroke-width:0.6175;}
	.st118{fill:#ED1248;}
	.st119{fill:#2E6ABD;}
	.st120{fill:#FDE100;}
	.st121{fill:#CC0000;}
	.st122{fill:#211E1F;}
	.st123{fill:#ED1A3B;}
	.st124{fill:#00AEEF;}
	.st125{fill:#FFC40D;}
	.st126{fill:#22B24C;}
	.st127{fill:#FFC20E;}
	.st128{fill:#0A3F86;}
	.st129{fill:#005CA9;}
	.st130{fill:#FFE000;}
	.st131{fill:#E2001A;}
	.st132{opacity:0;}
	.st133{opacity:0;fill:#FFFFFF;}
	.st134{fill:#FFFFFF;stroke:#000000;}
	.st135{fill:#0060A9;}
	.st136{fill:#E32219;}
	.st137{fill:#FFED00;}
	.st138{fill:#1D9053;}
	.st139{fill:#52A600;}
	.st140{fill:#EE2523;}
	.st141{fill:#F7D117;}
	.st142{fill:#171796;}
	.st143{fill:#009959;}
	.st144{fill:#D42E12;}
	.st145{fill:#703824;}
	.st146{fill:#E5254E;}
	.st147{fill:#8AC3EE;}
	.st148{fill:#B19221;}
	.st149{fill:#F5C03E;}
	.st150{fill:#FF1119;}
	.st151{fill:#1E6BC0;}
	.st152{fill:#B4742A;}
	.st153{fill:#371B02;}
	.st154{fill:url(#SVGID_7_);}
	.st155{fill:url(#SVGID_8_);}
	.st156{fill:url(#SVGID_9_);}
	.st157{fill:url(#SVGID_10_);}
	.st158{fill:url(#SVGID_11_);}
	.st159{fill:url(#SVGID_12_);}
	.st160{fill:url(#SVGID_13_);}
	.st161{fill:url(#SVGID_14_);}
	.st162{fill:url(#SVGID_15_);}
	.st163{fill:url(#SVGID_16_);}
	.st164{fill:#EB2626;}
	.st165{fill:#E9C32C;}
	.st166{fill:#D9D9D9;}
	.st167{fill:#009C5E;}
	.st168{fill:#1C75BC;}
	.st169{fill:#611D5C;}
	.st170{fill:#E2B900;}
	.st171{fill:#004B95;}
	.st172{fill:#A4234B;}
	.st173{fill:#DB2F36;}
	.st174{fill:#FFDF00;}
	.st175{fill:#A38D44;}
	.st176{fill:#57175E;}
	.st177{fill:#AFDCFD;}
	.st178{fill:#0090C6;}
	.st179{fill:#DB5232;}
	.st180{fill:#23C1E0;}
	.st181{fill:#F1A92A;}
	.st182{fill:#167FB6;}
	.st183{fill:#FED75D;}
	.st184{fill:#378CBF;}
	.st185{fill:#3E9692;}
	.st186{fill:#E67F29;}
	.st187{fill:#D8B43C;}
	.st188{fill:#EF3B33;}
	.st189{fill:#24923D;}
	.st190{opacity:6.000001e-02;fill:#101010;enable-background:new    ;}
	.st191{fill:#00529F;}
	.st192{fill:#EE324E;}
	.st193{fill:#FEBE10;}
	.st194{fill:#143C8B;}
	.st195{fill:#FFE24A;}
	.st196{fill:#EC1D24;}
	.st197{fill:#E6A514;}
	.st198{fill:#FFDF1C;}
	.st199{fill:#EE3524;}
	.st200{fill:#B23428;}
	.st201{fill:#D18816;}
	.st202{fill:#0097D7;}
	.st203{fill:#ED1C23;}
	.st204{fill:#E30613;}
	.st205{fill:#FFE400;}
	.st206{fill:#C51A1B;}
	.st207{clip-path:url(#SVGID_19_);}
	.st208{clip-path:url(#SVGID_20_);fill:none;stroke:#000000;stroke-width:0.8131;stroke-miterlimit:3.864;}
	.st209{fill:#0093D5;}
	.st210{fill:#004B9D;}
	.st211{fill:#FCC24F;}
	.st212{fill:#009545;}
	.st213{fill:#0072BB;}
	.st214{fill:#C4974E;}
	.st215{fill:url(#path1292_1_);}
	.st216{fill:#004996;}
	.st217{fill:#FFE667;}
	.st218{fill:none;stroke:#005187;stroke-width:0.153;stroke-miterlimit:3.864;}
	.st219{fill:#005187;}
	.st220{clip-path:url(#SVGID_22_);}
	.st221{clip-path:url(#SVGID_24_);fill:none;stroke:#000000;stroke-width:0.296;stroke-miterlimit:3.864;}
	.st222{clip-path:url(#SVGID_26_);fill:#FFE667;}
	.st223{clip-path:url(#SVGID_28_);fill:none;stroke:#000000;stroke-width:8.300000e-02;stroke-miterlimit:3.864;}
	.st224{fill:none;stroke:#000000;stroke-width:0.153;stroke-miterlimit:3.864;}
	.st225{clip-path:url(#SVGID_30_);fill:#E70005;}
	.st226{clip-path:url(#SVGID_32_);fill:none;stroke:#E70005;stroke-width:0.296;stroke-miterlimit:3.864;}
	.st227{clip-path:url(#SVGID_34_);fill:#E70005;}
	.st228{clip-path:url(#SVGID_36_);fill:none;stroke:#E70005;stroke-width:0.296;stroke-miterlimit:3.864;}
	.st229{clip-path:url(#SVGID_38_);fill:#E70005;}
	.st230{clip-path:url(#SVGID_40_);fill:none;stroke:#E70005;stroke-width:0.296;stroke-miterlimit:3.864;}
	.st231{clip-path:url(#SVGID_42_);fill:#E70005;}
	.st232{clip-path:url(#SVGID_44_);fill:none;stroke:#E70005;stroke-width:0.296;stroke-miterlimit:3.864;}
	.st233{fill:#E70005;}
	.st234{fill:none;stroke:#000000;stroke-width:0.141;stroke-miterlimit:3.864;}
	.st235{fill:#00276D;}
	.st236{fill:#C49308;}
	.st237{fill:#179D33;}
	.st238{fill:#999999;}
	.st239{fill:#FF0000;}
	.st240{fill:#E31837;}
	.st241{fill:#06357A;}
	.st242{fill:#B4053F;}
	.st243{fill:#DCA43E;}
	.st244{fill:#005CA5;}
	.st245{fill:#FAC400;}
	.st246{fill:#004083;}
	.st247{fill:#A95932;}
	.st248{fill:none;stroke:#000000;stroke-width:1.2215;}
	.st249{fill:#E62627;}
	.st250{fill:#00458C;}
	.st251{fill:#E11B22;}
	.st252{fill:#00AB4E;}
	.st253{fill:#F47920;}
	.st254{fill:#C7C8CA;}
	.st255{fill:#E11515;}
	.st256{fill:#A4965F;}
	.st257{fill:#E51636;}
	.st258{fill:#EACC00;}
	.st259{fill:#4F846B;}
	.st260{fill:#E22227;}
	.st261{fill:#FAE700;}
	.st262{fill:url(#SVGID_45_);}
	.st263{fill:#666666;}
	.st264{fill:#FFF200;}
	.st265{fill:#00275D;}
	.st266{fill:#EF3E33;}
	.st267{fill:none;stroke:#00275D;stroke-width:2.632;}
	.st268{fill:#3F7652;}
	.st269{fill:#F1D261;}
	.st270{fill:#004D8F;}
	.st271{fill:#E7B137;stroke:#E7B137;stroke-miterlimit:10;}
	.st272{fill:#E7B137;}
	.st273{fill:#162577;}
	.st274{fill:#12692C;}
	.st275{fill:#D8141D;}
	.st276{fill:#AB830D;}
	.st277{fill:#0086CB;}
	.st278{fill:#001F42;}
	.st279{fill:#9A8F4A;}
	.st280{fill:#00559D;}
	.st281{fill:#FDDE00;}
	.st282{fill:#00924C;}
	.st283{fill:#233984;}
	.st284{fill:#FFD42E;}
	.st285{fill:#BA3733;}
	.st286{fill:#46714D;}
	.st287{fill:#221F1F;}
	.st288{fill:#00559E;}
	.st289{fill:#005C46;}
	.st290{fill:#FBC860;}
	.st291{fill:#D57C48;}
	.st292{fill:#040403;}
	.st293{fill:#4AB969;}
	.st294{fill:#8ED8F8;}
	.st295{fill:#FEC34E;}
	.st296{fill:#FFC95B;}
	.st297{fill:#00644C;}
	.st298{fill:#70B865;}
	.st299{fill:#CA6F44;}
	.st300{fill:#A8B8BE;}
	.st301{fill:#1C2C80;}
	.st302{fill:#E10321;}
	.st303{fill:none;stroke:#231F20;stroke-width:0.318;stroke-miterlimit:3.864;}
	.st304{fill:#D71920;}
	.st305{fill:#484749;}
	.st306{fill:#D9DBDC;}
	.st307{fill:#DF725A;}
	.st308{fill:#F2CABA;}
	.st309{fill:#E89C84;}
	.st310{fill:#264F99;}
	.st311{clip-path:url(#SVGID_47_);}
	.st312{fill:#161413;}
	.st313{fill:#ED1B26;}
	.st314{fill:#E60D2E;}
	.st315{fill:#FCD600;}
	.st316{fill:#004D91;}
	.st317{fill:#EAB412;}
	.st318{fill:#FDD31D;}
	.st319{fill:#EFB800;}
</style>
<g>
	<path id="path3_6_"  class="st217" d="M49.9,0c1.4,0,2.5,1.1,2.5,2.5c0,0.4-0.1,0.8-0.3,1.1l0.2,0
		c1.4,0,2.5,1.1,2.5,2.5c0,1.4-1.1,2.5-2.5,2.5c-0.5,0-1-0.2-1.4-0.4c0,2.9,2.3,5.1,5.1,5.1c2.4,0,4.4-1.7,5-3.9
		c-0.4,0.1-0.9,0.2-1.3,0.1c-1.3-0.3-2.2-1.7-1.9-3c0.3-1.3,1.7-2.2,3-1.9l0.1,0c-0.1-0.4-0.1-0.8,0-1.2c0.3-1.3,1.7-2.2,3-1.9
		c1.3,0.3,2.2,1.7,1.9,3c-0.1,0.4-0.3,0.8-0.5,1l0.1,0c1.3,0.3,2.2,1.7,1.9,3c-0.3,1.3-1.7,2.2-3,1.9c-0.4-0.1-0.8-0.3-1.1-0.6
		l0,0.1c-0.6,2.8,1.1,5.5,3.8,6.1c2.4,0.5,3.9-0.2,4.7-1c-0.4-0.1-0.8-0.2-1.2-0.5c-1.1-0.9-1.2-2.5-0.3-3.5
		c0.9-1.1,2.5-1.2,3.5-0.3l0.6,0.6c0.9-1.5,1-1.8,1.5-2.5c0.8-1.2,1.9-0.8,3.1,0l1.9,1.3L77.3,14c0.1,0.2,0.1,0.5,0.1,0.7
		c0,1.2-1,2.2-2.2,2.2c-0.4,0-0.7,0-1-0.2c-2.1,1.7-5,2.5-7.8,1.9c-2.4-0.5-4.3-2-5.6-3.9l0.1-0.1c-1.9,1.1-4.3,1.5-6.6,1
		c-1.8-0.4-3.3-1.3-4.4-2.5c-1.1,1.2-2.7,2.1-4.4,2.5c-2.3,0.5-4.6,0.2-6.5-0.9l0,0.1c-1.2,1.9-3.1,3.3-5.5,3.8
		c-2.9,0.7-5.8-0.1-7.8-1.9c-0.3,0.1-0.6,0.2-1,0.2c-1.2,0-2.2-1-2.2-2.2c0-0.3,0-0.5,0.1-0.7L19,10.3l1.9-1.3
		c1.2-0.8,2.4-1.1,3.1,0c0.4,0.7,0.6,0.9,1.4,2.5l0.6-0.6c1.1-0.9,2.6-0.8,3.5,0.3c0.9,1.1,0.8,2.6-0.3,3.5
		c-0.4,0.3-0.8,0.5-1.2,0.5c0.8,0.8,2.3,1.5,4.7,1c2.8-0.6,4.5-3.4,3.8-6.1l0-0.1c-0.3,0.3-0.7,0.5-1.1,0.6c-1.3,0.3-2.7-0.5-3-1.9
		c-0.3-1.3,0.5-2.7,1.9-3l0.1,0c-0.2-0.3-0.4-0.6-0.5-1c-0.3-1.3,0.5-2.7,1.9-3c1.3-0.3,2.7,0.5,3,1.9c0.1,0.4,0.1,0.8,0,1.2l0.1,0
		c1.3-0.3,2.7,0.5,3,1.9c0.3,1.3-0.5,2.7-1.9,3c-0.4,0.1-1,0.1-1.3-0.1c0.5,2.3,2.6,3.9,5,3.9c2.8,0,5.1-2.3,5.1-5.1
		c-0.4,0.3-0.9,0.4-1.4,0.4c-1.4,0-2.5-1.1-2.5-2.5c0-1.4,1.1-2.5,2.5-2.5l0.2,0c-0.2-0.3-0.3-0.7-0.3-1.1C47.5,1.1,48.6,0,49.9,0z"
		/>
	<path id="path5_10_"  class="st218" d="M49.9,0c1.4,0,2.5,1.1,2.5,2.5c0,0.4-0.1,0.8-0.3,1.1
		l0.2,0c1.4,0,2.5,1.1,2.5,2.5c0,1.4-1.1,2.5-2.5,2.5c-0.5,0-1-0.2-1.4-0.4c0,2.9,2.3,5.1,5.1,5.1c2.4,0,4.4-1.7,5-3.9
		c-0.4,0.1-0.9,0.2-1.3,0.1c-1.3-0.3-2.2-1.7-1.9-3c0.3-1.3,1.7-2.2,3-1.9l0.1,0c-0.1-0.4-0.1-0.8,0-1.2c0.3-1.3,1.7-2.2,3-1.9
		c1.3,0.3,2.2,1.7,1.9,3c-0.1,0.4-0.3,0.8-0.5,1l0.1,0c1.3,0.3,2.2,1.7,1.9,3c-0.3,1.3-1.7,2.2-3,1.9c-0.4-0.1-0.8-0.3-1.1-0.6
		l0,0.1c-0.6,2.8,1.1,5.5,3.8,6.1c2.4,0.5,3.9-0.2,4.7-1c-0.4-0.1-0.8-0.2-1.2-0.5c-1.1-0.9-1.2-2.5-0.3-3.5
		c0.9-1.1,2.5-1.2,3.5-0.3l0.6,0.6c0.9-1.5,1-1.8,1.5-2.5c0.8-1.2,1.9-0.8,3.1,0l1.9,1.3L77.3,14c0.1,0.2,0.1,0.5,0.1,0.7
		c0,1.2-1,2.2-2.2,2.2c-0.4,0-0.7,0-1-0.2c-2.1,1.7-5,2.5-7.8,1.9c-2.4-0.5-4.3-2-5.6-3.9l0.1-0.1c-1.9,1.1-4.3,1.5-6.6,1
		c-1.8-0.4-3.3-1.3-4.4-2.5c-1.1,1.2-2.7,2.1-4.4,2.5c-2.3,0.5-4.6,0.2-6.5-0.9l0,0.1c-1.2,1.9-3.1,3.3-5.5,3.8
		c-2.9,0.7-5.8-0.1-7.8-1.9c-0.3,0.1-0.6,0.2-1,0.2c-1.2,0-2.2-1-2.2-2.2c0-0.3,0-0.5,0.1-0.7L19,10.3l1.9-1.3
		c1.2-0.8,2.4-1.1,3.1,0c0.4,0.7,0.6,0.9,1.4,2.5l0.6-0.6c1.1-0.9,2.6-0.8,3.5,0.3c0.9,1.1,0.8,2.6-0.3,3.5
		c-0.4,0.3-0.8,0.5-1.2,0.5c0.8,0.8,2.3,1.5,4.7,1c2.8-0.6,4.5-3.4,3.8-6.1l0-0.1c-0.3,0.3-0.7,0.5-1.1,0.6c-1.3,0.3-2.7-0.5-3-1.9
		c-0.3-1.3,0.5-2.7,1.9-3l0.1,0c-0.2-0.3-0.4-0.6-0.5-1c-0.3-1.3,0.5-2.7,1.9-3c1.3-0.3,2.7,0.5,3,1.9c0.1,0.4,0.1,0.8,0,1.2l0.1,0
		c1.3-0.3,2.7,0.5,3,1.9c0.3,1.3-0.5,2.7-1.9,3c-0.4,0.1-1,0.1-1.3-0.1c0.5,2.3,2.6,3.9,5,3.9c2.8,0,5.1-2.3,5.1-5.1
		c-0.4,0.3-0.9,0.4-1.4,0.4c-1.4,0-2.5-1.1-2.5-2.5c0-1.4,1.1-2.5,2.5-2.5l0.2,0c-0.2-0.3-0.3-0.7-0.3-1.1C47.5,1.1,48.6,0,49.9,0z"
		/>
	
		<circle id="circle7"     class="st28" cx="50" cy="56.5" r="40.1">
	</circle>
	
		<circle id="circle9"     class="st218" cx="50" cy="56.5" r="40.1">
	</circle>
	<path id="path11_11_"  class="st219" d="M11.4,56.7c0-21.2,17.2-38.5,38.5-38.5
		s38.5,17.2,38.5,38.5c0,21.3-17.2,38.5-38.5,38.5S11.4,78,11.4,56.7"/>
	<path id="path13_10_"  class="st28" d="M56.2,20.9l8.6,11.2l9.2,0v6.5h-4.2l13.4,17.9L54.2,95.7
		l-8.6,0L16.7,56.5l13.6-17.9h-4.6V32l9.5,0l8.5-11.2c0,0,3.3-0.4,6.1-0.4C52.2,20.4,56.2,20.9,56.2,20.9"/>
	<path id="path15_11_"  class="st217" d="M38.5,28.7c-3.9-0.1-7.3-2.2-9.1-5.4
		c-0.2-0.3-0.2-0.6-0.2-1c0-0.8,0.4-1.5,1.1-1.8c6-2.7,12.6-4.3,19.6-4.3c6.9,0,13.3,1.5,19.2,4.1l0,0c0.7,0.3,1.2,1,1.2,1.8
		c0,0.4-0.2,0.8-0.3,1.1c-1.9,3.2-5.3,5.3-9.3,5.3c-0.5,0-1.3,0-1.3,0L38.5,28.7"/>
	<g id="g17" transform="translate(-40.256163,-154.35391)">
		<g>
			<defs>
				<path id="SVGID_21_" d="M78.7,183c-3.9-0.1-7.3-2.2-9.1-5.4c-0.2-0.3-0.2-0.6-0.2-1c0-0.8,0.4-1.5,1.1-1.8
					c6-2.7,12.6-4.3,19.6-4.3c6.9,0,13.3,1.5,19.2,4.1l0,0c0.7,0.3,1.2,1,1.2,1.8c0,0.4-0.2,0.8-0.3,1.1c-1.9,3.2-5.3,5.3-9.3,5.3
					c-0.5,0-1.3,0-1.3,0L78.7,183"/>
			</defs>
			<clipPath id="SVGID_2_">
				<use xlink:href="#SVGID_21_"  style="overflow:visible;"/>
			</clipPath>
			
				<circle id="circle25"     class="st5" cx="89.9" cy="214.9" r="39.4">
			</circle>
		</g>
		<g>
			<defs>
				<path id="SVGID_23_" d="M78.7,183c-3.9-0.1-7.3-2.2-9.1-5.4c-0.2-0.3-0.2-0.6-0.2-1c0-0.8,0.4-1.5,1.1-1.8
					c6-2.7,12.6-4.3,19.6-4.3c6.9,0,13.3,1.5,19.2,4.1l0,0c0.7,0.3,1.2,1,1.2,1.8c0,0.4-0.2,0.8-0.3,1.1c-1.9,3.2-5.3,5.3-9.3,5.3
					c-0.5,0-1.3,0-1.3,0L78.7,183"/>
			</defs>
			<clipPath id="SVGID_4_">
				<use xlink:href="#SVGID_23_"  style="overflow:visible;"/>
			</clipPath>
			
				<circle id="circle27"     style="clip-path:url(#SVGID_4_);fill:none;stroke:#000000;stroke-width:0.296;stroke-miterlimit:3.864;" cx="89.9" cy="214.9" r="39.4">
			</circle>
		</g>
		<g>
			<defs>
				<path id="SVGID_25_" d="M78.7,183c-3.9-0.1-7.3-2.2-9.1-5.4c-0.2-0.3-0.2-0.6-0.2-1c0-0.8,0.4-1.5,1.1-1.8
					c6-2.7,12.6-4.3,19.6-4.3c6.9,0,13.3,1.5,19.2,4.1l0,0c0.7,0.3,1.2,1,1.2,1.8c0,0.4-0.2,0.8-0.3,1.1c-1.9,3.2-5.3,5.3-9.3,5.3
					c-0.5,0-1.3,0-1.3,0L78.7,183"/>
			</defs>
			<clipPath id="SVGID_6_">
				<use xlink:href="#SVGID_25_"  style="overflow:visible;"/>
			</clipPath>
			<path id="path29_10_"  style="clip-path:url(#SVGID_6_);fill:#FFE667;" d="M68.8,175.1
				c0.3,0.3-1.8,2.5,0.5,4.3c3.3,2.6,3.4-3.7,21.1-3.7c12.1,0,16.9,4,16.9,4l-2,0.5l-1.8,0.1l0.4-1.3l-0.6-0.8l-0.8,1l-0.5,0.1
				l-0.4-1.4l-0.6,1.2l-1.4,0.7l2.2,3.1c4.4-0.2,9.4-4.3,9.4-6.3c0-3.3-11.1-6.4-21-6.4C80.8,170.2,68.5,174.9,68.8,175.1
				L68.8,175.1z"/>
		</g>
		<g>
			<defs>
				<path id="SVGID_27_" d="M78.7,183c-3.9-0.1-7.3-2.2-9.1-5.4c-0.2-0.3-0.2-0.6-0.2-1c0-0.8,0.4-1.5,1.1-1.8
					c6-2.7,12.6-4.3,19.6-4.3c6.9,0,13.3,1.5,19.2,4.1l0,0c0.7,0.3,1.2,1,1.2,1.8c0,0.4-0.2,0.8-0.3,1.1c-1.9,3.2-5.3,5.3-9.3,5.3
					c-0.5,0-1.3,0-1.3,0L78.7,183"/>
			</defs>
			<clipPath id="SVGID_7_">
				<use xlink:href="#SVGID_27_"  style="overflow:visible;"/>
			</clipPath>
			
				<path id="path31_8_"  style="clip-path:url(#SVGID_7_);fill:none;stroke:#000000;stroke-width:8.300000e-02;stroke-miterlimit:3.864;" d="
				M68.8,175.1c0.3,0.3-1.8,2.5,0.5,4.3c3.3,2.6,3.4-3.7,21.1-3.7c12.1,0,16.9,4,16.9,4l-2,0.5l-1.8,0.1l0.4-1.3l-0.6-0.8l-0.8,1
				l-0.5,0.1l-0.4-1.4l-0.6,1.2l-1.4,0.7l2.2,3.1c4.4-0.2,9.4-4.3,9.4-6.3c0-3.3-11.1-6.4-21-6.4C80.8,170.2,68.5,174.9,68.8,175.1
				L68.8,175.1z"/>
		</g>
	</g>
	<path id="path33_11_"  class="st224" d="M38.5,28.7c-3.9-0.1-7.3-2.2-9.1-5.4
		c-0.2-0.3-0.2-0.6-0.2-1c0-0.8,0.4-1.5,1.1-1.8c6-2.7,12.6-4.3,19.6-4.3c6.9,0,13.3,1.5,19.2,4.1l0,0c0.7,0.3,1.2,1,1.2,1.8
		c0,0.4-0.2,0.8-0.3,1.1c-1.9,3.2-5.3,5.3-9.3,5.3c-0.5,0-1.3,0-1.3,0S38.5,28.7,38.5,28.7z"/>
	<path id="path35_12_"  class="st217" d="M56,22l26.1,34.5L50,100L17.9,56.4L43.9,22
		c0,0,3.2-0.4,5.9-0.4C52.2,21.5,56,22,56,22"/>
	<g id="g37" transform="translate(-40.256163,-154.35391)">
		<g>
			<defs>
				<path id="SVGID_29_" d="M96.3,176.4l26.1,34.5l-32.1,43.5l-32.1-43.6l26.1-34.5c0,0,3.2-0.4,5.9-0.4
					C92.4,175.9,96.3,176.4,96.3,176.4"/>
			</defs>
			<clipPath id="SVGID_8_">
				<use xlink:href="#SVGID_29_"  style="overflow:visible;"/>
			</clipPath>
			<polygon id="polygon45_1_" style="clip-path:url(#SVGID_8_);fill:#E70005;" points="72.1,195.3 72.1,226.6 64.8,217.6 
				64.8,204.5 			"/>
		</g>
		<g>
			<defs>
				<path id="SVGID_31_" d="M96.3,176.4l26.1,34.5l-32.1,43.5l-32.1-43.6l26.1-34.5c0,0,3.2-0.4,5.9-0.4
					C92.4,175.9,96.3,176.4,96.3,176.4"/>
			</defs>
			<clipPath id="SVGID_9_">
				<use xlink:href="#SVGID_31_"  style="overflow:visible;"/>
			</clipPath>
			
				<polygon id="polygon47_1_" style="clip-path:url(#SVGID_9_);fill:none;stroke:#E70005;stroke-width:0.296;stroke-miterlimit:3.864;" points="
				72.1,195.3 72.1,226.6 64.8,217.6 64.8,204.5 			"/>
		</g>
		<g>
			<defs>
				<path id="SVGID_33_" d="M96.3,176.4l26.1,34.5l-32.1,43.5l-32.1-43.6l26.1-34.5c0,0,3.2-0.4,5.9-0.4
					C92.4,175.9,96.3,176.4,96.3,176.4"/>
			</defs>
			<clipPath id="SVGID_10_">
				<use xlink:href="#SVGID_33_"  style="overflow:visible;"/>
			</clipPath>
			<polygon id="polygon49" style="clip-path:url(#SVGID_10_);fill:#E70005;" points="79,186.2 79,237 86.3,246.3 86.3,176.6 			"/>
		</g>
		<g>
			<defs>
				<path id="SVGID_35_" d="M96.3,176.4l26.1,34.5l-32.1,43.5l-32.1-43.6l26.1-34.5c0,0,3.2-0.4,5.9-0.4
					C92.4,175.9,96.3,176.4,96.3,176.4"/>
			</defs>
			<clipPath id="SVGID_11_">
				<use xlink:href="#SVGID_35_"  style="overflow:visible;"/>
			</clipPath>
			
				<polygon id="polygon51_1_" style="clip-path:url(#SVGID_11_);fill:none;stroke:#E70005;stroke-width:0.296;stroke-miterlimit:3.864;" points="
				79,186.2 79,237 86.3,246.3 86.3,176.6 			"/>
		</g>
		<g>
			<defs>
				<path id="SVGID_37_" d="M96.3,176.4l26.1,34.5l-32.1,43.5l-32.1-43.6l26.1-34.5c0,0,3.2-0.4,5.9-0.4
					C92.4,175.9,96.3,176.4,96.3,176.4"/>
			</defs>
			<clipPath id="SVGID_12_">
				<use xlink:href="#SVGID_37_"  style="overflow:visible;"/>
			</clipPath>
			<polygon id="polygon53_1_" style="clip-path:url(#SVGID_12_);fill:#E70005;" points="108.4,195.4 108.4,226.3 115.5,217.5 
				115.5,204.5 			"/>
		</g>
		<g>
			<defs>
				<path id="SVGID_39_" d="M96.3,176.4l26.1,34.5l-32.1,43.5l-32.1-43.6l26.1-34.5c0,0,3.2-0.4,5.9-0.4
					C92.4,175.9,96.3,176.4,96.3,176.4"/>
			</defs>
			<clipPath id="SVGID_13_">
				<use xlink:href="#SVGID_39_"  style="overflow:visible;"/>
			</clipPath>
			
				<polygon id="polygon55_1_" style="clip-path:url(#SVGID_13_);fill:none;stroke:#E70005;stroke-width:0.296;stroke-miterlimit:3.864;" points="
				108.4,195.4 108.4,226.3 115.5,217.5 115.5,204.5 			"/>
		</g>
		<g>
			<defs>
				<path id="SVGID_41_" d="M96.3,176.4l26.1,34.5l-32.1,43.5l-32.1-43.6l26.1-34.5c0,0,3.2-0.4,5.9-0.4
					C92.4,175.9,96.3,176.4,96.3,176.4"/>
			</defs>
			<clipPath id="SVGID_14_">
				<use xlink:href="#SVGID_41_"  style="overflow:visible;"/>
			</clipPath>
			<polygon id="polygon57_1_" style="clip-path:url(#SVGID_14_);fill:#E70005;" points="101.5,186.3 101.5,236.9 94.3,246.4 
				94.1,176.4 			"/>
		</g>
		<g>
			<defs>
				<path id="SVGID_43_" d="M96.3,176.4l26.1,34.5l-32.1,43.5l-32.1-43.6l26.1-34.5c0,0,3.2-0.4,5.9-0.4
					C92.4,175.9,96.3,176.4,96.3,176.4"/>
			</defs>
			<clipPath id="SVGID_15_">
				<use xlink:href="#SVGID_43_"  style="overflow:visible;"/>
			</clipPath>
			
				<polygon id="polygon59" style="clip-path:url(#SVGID_15_);fill:none;stroke:#E70005;stroke-width:0.296;stroke-miterlimit:3.864;" points="
				101.5,186.3 101.5,236.9 94.3,246.4 94.1,176.4 			"/>
		</g>
	</g>
	<path id="path61_10_"  class="st218" d="M56,22l26.1,34.5L50,100L17.9,56.4L43.9,22
		c0,0,3.2-0.4,5.9-0.4C52.2,21.5,56,22,56,22z"/>
	<path id="path63_9_"  class="st233" d="M48.4,5.7c0-0.9,0.7-1.6,1.6-1.6c0.9,0,1.5,0.7,1.5,1.6
		c0,0.9-0.7,1.6-1.5,1.6C49.1,7.3,48.4,6.6,48.4,5.7"/>
	<path id="path65_9_"  class="st233" d="M35.8,7.3c0-0.9,0.7-1.5,1.6-1.5c0.9,0,1.6,0.7,1.6,1.5
		c0,0.9-0.7,1.6-1.6,1.6C36.5,8.9,35.8,8.2,35.8,7.3"/>
	<path id="path67_9_"  class="st233" d="M61.2,7.3c0-0.9,0.7-1.5,1.5-1.5c0.9,0,1.6,0.7,1.6,1.5
		c0,0.9-0.7,1.6-1.6,1.6C61.9,8.9,61.2,8.2,61.2,7.3"/>
	<path id="path69_10_"  class="st233" d="M74.1,15.3c0-0.9,0.7-1.5,1.5-1.5c0.9,0,1.6,0.7,1.6,1.5
		c0,0.9-0.7,1.6-1.6,1.6C74.8,16.9,74.1,16.2,74.1,15.3"/>
	<path id="path71_8_"  class="st233" d="M22.6,15.3c0-0.9,0.7-1.5,1.5-1.5c0.9,0,1.6,0.7,1.6,1.5
		c0,0.9-0.7,1.6-1.6,1.6C23.3,16.9,22.6,16.2,22.6,15.3"/>
	<polyline id="polyline73" class="st233" points="49.9,17.2 46.2,18.6 49.9,20.3 53.6,18.7 49.9,17.2 	"/>
	<polyline id="polyline75" class="st219" points="33.6,20.4 30.6,23 34.7,23.3 37.5,20.4 33.6,20.4 	"/>
	<polyline id="polyline77" class="st219" points="66.1,20.4 69,23 65,23.3 62.2,20.4 66.1,20.4 	"/>
	<path id="path79_7_"  d="M38.1,47.6c-1.2-0.8-2.2-1.1-3.6-1.1c-5,0-8.6,4.4-8.6,10.3
		c0,5.6,3.7,10.1,8.4,10.1c1.4,0,2.4-0.3,3.8-1.1v-5.8c-0.9,0.8-1.8,1.3-2.8,1.3c-2.3,0-3.8-1.9-3.8-4.7c0-2.6,1.6-4.6,3.7-4.6
		c1,0,1.8,0.3,2.8,1.2L38.1,47.6"/>
	<polyline id="polyline81" points="74.1,51 74.1,46.8 62.6,46.8 62.6,66.8 67.8,66.8 67.8,58.6 73.5,58.6 73.5,54.3 67.8,54.3 
		67.8,51 74.1,51 	"/>
	<polyline id="polyline83" points="26.2,32.6 26.2,38 37,38 49.8,82.4 62.2,38 73.4,38 73.4,32.6 58.1,32.6 49.9,62.5 41.7,32.6 
		26.2,32.6 	"/>
	<polygon id="polygon85_2_" class="st217" points="36.3,24.3 37.4,26 37.3,27.5 38.5,27.4 41.7,22.7 	"/>
	<polygon id="polygon87_1_" class="st234" points="36.3,24.3 37.4,26 37.3,27.5 38.5,27.4 41.7,22.7 	"/>
</g>
</svg>
