<?xml version="1.0" encoding="utf-8"?>
<!-- Generator: Adobe Illustrator 19.2.1, SVG Export Plug-In . SVG Version: 6.00 Build 0)  -->
<svg version="1.1" id="Capa_1" xmlns="http://www.w3.org/2000/svg" xmlns:xlink="http://www.w3.org/1999/xlink" x="0px" y="0px"
	 viewBox="0 0 100 100" style="enable-background:new 0 0 100 100;" xml:space="preserve">
<style type="text/css">
	.st0{fill:url(#path34_4_);}
	.st1{fill:url(#path890_1_);}
	.st2{fill:#FFE500;stroke:#000000;stroke-width:2.098;stroke-miterlimit:3.863;}
	.st3{fill:#DA020E;}
	.st4{fill:#FFE500;}
	.st5{clip-path:url(#SVGID_2_);}
	.st6{fill:none;stroke:#B54005;stroke-width:10;stroke-miterlimit:3.863;}
	.st7{fill:url(#path7506_1_);}
	.st8{fill:url(#path8794_1_);}
	.st9{fill:url(#path15846_1_);}
	.st10{fill:url(#path16274_1_);}
	.st11{fill:url(#path39821_1_);}
	.st12{fill:url(#path39847_1_);}
	.st13{fill:url(#path39878_1_);}
	.st14{fill:url(#path39888_1_);}
	.st15{fill:url(#path41035_1_);}
	.st16{fill:url(#path9646-8_1_);}
	.st17{fill:url(#path41092_1_);}
	.st18{fill:url(#path41094_1_);}
	.st19{fill:none;stroke:#000000;stroke-width:2.098;stroke-miterlimit:3.863;}
	.st20{fill:url(#path41152_1_);}
	.st21{fill:url(#path39854_1_);}
	.st22{fill:url(#path39874_1_);}
	.st23{fill:#9C824A;stroke:#9C824A;stroke-width:0.793;stroke-miterlimit:282;}
	.st24{fill:#023474;stroke:#023474;stroke-width:0.793;stroke-miterlimit:282;}
	.st25{fill:#FFFFFF;stroke:#FFFFFF;stroke-width:0.793;stroke-miterlimit:282;}
	.st26{fill:#EF0107;stroke:#EF0107;stroke-width:0.793;stroke-miterlimit:282;}
	.st27{fill:#DB0007;stroke:#DB0007;stroke-width:0.793;stroke-miterlimit:282;}
	.st28{fill:#FFFFFF;}
	.st29{fill:#9C824A;}
	.st30{fill:#EF0107;stroke:#EF0107;stroke-width:0.3115;stroke-miterlimit:282;}
	.st31{fill:#DB0007;stroke:#DB0007;stroke-width:0.3115;stroke-miterlimit:282;}
	.st32{fill:#DB0007;}
	.st33{fill:#FFFFFF;stroke:#FFFFFF;stroke-width:0.3115;stroke-miterlimit:282;}
	.st34{fill:#FFFFFF;stroke:#FFFFFF;stroke-width:0.554;stroke-miterlimit:3.864;}
	.st35{fill:#231F20;}
	.st36{fill:#00B6F1;stroke:#00B6F1;stroke-width:1.700000e-02;stroke-miterlimit:3.864;}
	.st37{fill:#EF3E2E;}
	.st38{fill:#BBBDBF;}
	.st39{fill:#F0B83D;}
	.st40{fill:#00B6F1;stroke:#FFFFFF;stroke-width:1.700000e-02;stroke-miterlimit:3.864;}
	.st41{fill:#001C58;}
	.st42{fill:#94BEE5;}
	.st43{fill:none;stroke:#7A003C;stroke-width:2.2437;stroke-miterlimit:6;}
	.st44{fill:#7A003C;}
	.st45{fill:#FFE600;}
	.st46{fill:#DBA111;}
	.st47{fill:#034694;}
	.st48{fill:#D1D3D4;}
	.st49{fill:#ED1C24;}
	.st50{fill:#6A7AB5;}
	.st51{fill:none;}
	.st52{fill:#274488;}
	.st53{fill:#004798;stroke:#004798;stroke-width:9.375000e-02;}
	.st54{fill:#FFFFFF;stroke:#FFFFFF;stroke-width:9.375000e-02;}
	.st55{fill:#FABC00;stroke:#FABC00;stroke-width:9.375000e-02;}
	.st56{fill:none;stroke:#FFFFFF;stroke-width:7.865;stroke-miterlimit:3.864;}
	.st57{fill:none;stroke:#FFFFFF;stroke-width:7.865;stroke-miterlimit:12;}
	.st58{fill:none;stroke:#FFFFFF;stroke-width:7.865;stroke-miterlimit:22;}
	.st59{fill:none;stroke:#FFFFFF;stroke-width:7.865;stroke-miterlimit:6;}
	.st60{fill:#00A398;}
	.st61{fill:#D00027;}
	.st62{fill:none;stroke:#FFFFFF;stroke-width:17.3907;stroke-miterlimit:3.864;}
	.st63{fill:none;stroke:#FFFFFF;stroke-width:13.1107;stroke-miterlimit:3.864;}
	.st64{fill:#FEF667;}
	.st65{fill:#D00027;stroke:#D00027;}
	.st66{fill:#5299C6;}
	.st67{fill:#60223B;}
	.st68{fill:#F7C240;}
	.st69{fill:#292D6B;}
	.st70{fill:#1B458F;}
	.st71{fill:#C4122E;}
	.st72{fill:#27409B;}
	.st73{clip-path:url(#SVGID_4_);}
	.st74{fill:#F4F4F4;}
	.st75{fill:#D3D2D2;}
	.st76{fill:#A7A5A6;}
	.st77{fill:#091453;}
	.st78{fill:none;stroke:#FFFFFF;stroke-width:6.6301;}
	.st79{clip-path:url(#SVGID_6_);}
	.st80{fill:#724314;}
	.st81{fill:#240B08;}
	.st82{fill:#018B4B;}
	.st83{fill:#A6181D;}
	.st84{fill:#592D09;}
	.st85{fill:#FFCE65;}
	.st86{fill:#5CBFEB;}
	.st87{fill:none;stroke:#000000;stroke-width:10;}
	.st88{fill:none;stroke:#000000;}
	.st89{fill:#B2B2B2;}
	.st90{fill:none;stroke:#000000;stroke-width:0.3;}
	.st91{fill:#00A650;stroke:#000000;stroke-width:2;}
	.st92{fill:#241F20;stroke:#241F20;stroke-width:9.375000e-02;}
	.st93{fill:#FFF200;stroke:#FFF200;stroke-width:9.375000e-02;}
	.st94{fill:#A68A26;}
	.st95{fill:none;stroke:#A68A26;stroke-width:4.792100e-02;stroke-miterlimit:3.8637;}
	.st96{fill:#211E1E;}
	.st97{fill:none;stroke:#211E1E;stroke-width:4.792100e-02;stroke-miterlimit:3.8637;}
	.st98{fill:#EB172B;}
	.st99{fill:none;stroke:#EB172B;stroke-width:4.792100e-02;stroke-miterlimit:3.8637;}
	.st100{fill:#A68A26;stroke:#A68A26;stroke-width:4.792100e-02;stroke-miterlimit:3.8637;}
	.st101{fill:#D1BF7F;}
	.st102{fill:none;stroke:#D1BF7F;stroke-width:4.792100e-02;stroke-miterlimit:3.8637;}
	.st103{fill:none;stroke:#FFFFFF;stroke-width:4.792100e-02;stroke-miterlimit:3.8637;}
	.st104{fill:#EB172B;stroke:#EB172B;stroke-width:4.792100e-02;stroke-miterlimit:3.8637;}
	.st105{fill:#ED2127;}
	.st106{fill:#FBEE23;}
	.st107{stroke:#000000;}
	.st108{fill:#CF1F44;}
	.st109{fill:#1B449C;}
	.st110{fill:#E03A3E;}
	.st111{fill:#E03A3E;stroke:#E03A3E;stroke-width:0.6565;}
	.st112{fill:none;stroke:#1B449C;stroke-width:0.7493;}
	.st113{fill:none;stroke:#1B449C;stroke-width:0.7567;}
	.st114{fill:#1B449C;stroke:#1B449C;stroke-width:0.6274;}
	.st115{fill:#1B449C;stroke:#1B449C;stroke-width:0.6755;}
	.st116{fill:#2E6ABD;stroke:#2E6ABD;stroke-width:0.617;}
	.st117{fill:#FFFFFF;stroke:#FFFFFF;stroke-width:0.6175;}
	.st118{fill:#ED1248;}
	.st119{fill:#2E6ABD;}
	.st120{fill:#FDE100;}
	.st121{fill:#CC0000;}
	.st122{fill:#211E1F;}
	.st123{fill:#ED1A3B;}
	.st124{fill:#00AEEF;}
	.st125{fill:#FFC40D;}
	.st126{fill:#22B24C;}
	.st127{fill:#FFC20E;}
	.st128{fill:#0A3F86;}
	.st129{fill:#005CA9;}
	.st130{fill:#FFE000;}
	.st131{fill:#E2001A;}
	.st132{opacity:0;}
	.st133{opacity:0;fill:#FFFFFF;}
	.st134{fill:#FFFFFF;stroke:#000000;}
	.st135{fill:#0060A9;}
	.st136{fill:#E32219;}
	.st137{fill:#FFED00;}
	.st138{fill:#1D9053;}
	.st139{fill:#52A600;}
	.st140{fill:#EE2523;}
	.st141{fill:#F7D117;}
	.st142{fill:#171796;}
	.st143{fill:#009959;}
	.st144{fill:#D42E12;}
	.st145{fill:#703824;}
	.st146{fill:#E5254E;}
	.st147{fill:#8AC3EE;}
	.st148{fill:#B19221;}
	.st149{fill:#F5C03E;}
	.st150{fill:#FF1119;}
	.st151{fill:#1E6BC0;}
	.st152{fill:#B4742A;}
	.st153{fill:#371B02;}
	.st154{fill:url(#SVGID_7_);}
	.st155{fill:url(#SVGID_8_);}
	.st156{fill:url(#SVGID_9_);}
	.st157{fill:url(#SVGID_10_);}
	.st158{fill:url(#SVGID_11_);}
	.st159{fill:url(#SVGID_12_);}
	.st160{fill:url(#SVGID_13_);}
	.st161{fill:url(#SVGID_14_);}
	.st162{fill:url(#SVGID_15_);}
	.st163{fill:url(#SVGID_16_);}
	.st164{fill:#EB2626;}
	.st165{fill:#E9C32C;}
	.st166{fill:#D9D9D9;}
	.st167{fill:#009C5E;}
	.st168{fill:#1C75BC;}
	.st169{fill:#611D5C;}
	.st170{fill:#E2B900;}
	.st171{fill:#004B95;}
	.st172{fill:#A4234B;}
	.st173{fill:#DB2F36;}
	.st174{fill:#FFDF00;}
	.st175{fill:#A38D44;}
	.st176{fill:#57175E;}
	.st177{fill:#AFDCFD;}
	.st178{fill:#0090C6;}
	.st179{fill:#DB5232;}
	.st180{fill:#23C1E0;}
	.st181{fill:#F1A92A;}
	.st182{fill:#167FB6;}
	.st183{fill:#FED75D;}
	.st184{fill:#378CBF;}
	.st185{fill:#3E9692;}
	.st186{fill:#E67F29;}
	.st187{fill:#D8B43C;}
	.st188{fill:#EF3B33;}
	.st189{fill:#24923D;}
	.st190{opacity:6.000001e-02;fill:#101010;enable-background:new    ;}
	.st191{fill:#00529F;}
	.st192{fill:#EE324E;}
	.st193{fill:#FEBE10;}
	.st194{fill:#143C8B;}
	.st195{fill:#FFE24A;}
	.st196{fill:#EC1D24;}
	.st197{fill:#E6A514;}
	.st198{fill:#FFDF1C;}
	.st199{fill:#EE3524;}
	.st200{fill:#B23428;}
	.st201{fill:#D18816;}
	.st202{fill:#0097D7;}
	.st203{fill:#ED1C23;}
	.st204{fill:#E30613;}
	.st205{fill:#FFE400;}
	.st206{fill:#C51A1B;}
	.st207{clip-path:url(#SVGID_19_);}
	.st208{clip-path:url(#SVGID_20_);fill:none;stroke:#000000;stroke-width:0.8131;stroke-miterlimit:3.864;}
	.st209{fill:#0093D5;}
	.st210{fill:#004B9D;}
	.st211{fill:#FCC24F;}
	.st212{fill:#009545;}
	.st213{fill:#0072BB;}
	.st214{fill:#C4974E;}
	.st215{fill:url(#path1292_1_);}
	.st216{fill:#004996;}
	.st217{fill:#FFE667;}
	.st218{fill:none;stroke:#005187;stroke-width:0.153;stroke-miterlimit:3.864;}
	.st219{fill:#005187;}
	.st220{clip-path:url(#SVGID_22_);}
	.st221{clip-path:url(#SVGID_24_);fill:none;stroke:#000000;stroke-width:0.296;stroke-miterlimit:3.864;}
	.st222{clip-path:url(#SVGID_26_);fill:#FFE667;}
	.st223{clip-path:url(#SVGID_28_);fill:none;stroke:#000000;stroke-width:8.300000e-02;stroke-miterlimit:3.864;}
	.st224{fill:none;stroke:#000000;stroke-width:0.153;stroke-miterlimit:3.864;}
	.st225{clip-path:url(#SVGID_30_);fill:#E70005;}
	.st226{clip-path:url(#SVGID_32_);fill:none;stroke:#E70005;stroke-width:0.296;stroke-miterlimit:3.864;}
	.st227{clip-path:url(#SVGID_34_);fill:#E70005;}
	.st228{clip-path:url(#SVGID_36_);fill:none;stroke:#E70005;stroke-width:0.296;stroke-miterlimit:3.864;}
	.st229{clip-path:url(#SVGID_38_);fill:#E70005;}
	.st230{clip-path:url(#SVGID_40_);fill:none;stroke:#E70005;stroke-width:0.296;stroke-miterlimit:3.864;}
	.st231{clip-path:url(#SVGID_42_);fill:#E70005;}
	.st232{clip-path:url(#SVGID_44_);fill:none;stroke:#E70005;stroke-width:0.296;stroke-miterlimit:3.864;}
	.st233{fill:#E70005;}
	.st234{fill:none;stroke:#000000;stroke-width:0.141;stroke-miterlimit:3.864;}
	.st235{fill:#00276D;}
	.st236{fill:#C49308;}
	.st237{fill:#179D33;}
	.st238{fill:#999999;}
	.st239{fill:#FF0000;}
	.st240{fill:#E31837;}
	.st241{fill:#06357A;}
	.st242{fill:#B4053F;}
	.st243{fill:#DCA43E;}
	.st244{fill:#005CA5;}
	.st245{fill:#FAC400;}
	.st246{fill:#004083;}
	.st247{fill:#A95932;}
	.st248{fill:none;stroke:#000000;stroke-width:1.2215;}
	.st249{fill:#E62627;}
	.st250{fill:#00458C;}
	.st251{fill:#E11B22;}
	.st252{fill:#00AB4E;}
	.st253{fill:#F47920;}
	.st254{fill:#C7C8CA;}
	.st255{fill:#E11515;}
	.st256{fill:#A4965F;}
	.st257{fill:#E51636;}
	.st258{fill:#EACC00;}
	.st259{fill:#4F846B;}
	.st260{fill:#E22227;}
	.st261{fill:#FAE700;}
	.st262{fill:url(#SVGID_45_);}
	.st263{fill:#666666;}
	.st264{fill:#FFF200;}
	.st265{fill:#00275D;}
	.st266{fill:#EF3E33;}
	.st267{fill:none;stroke:#00275D;stroke-width:2.632;}
	.st268{fill:#3F7652;}
	.st269{fill:#F1D261;}
	.st270{fill:#004D8F;}
	.st271{fill:#E7B137;stroke:#E7B137;stroke-miterlimit:10;}
	.st272{fill:#E7B137;}
	.st273{fill:#162577;}
	.st274{fill:#12692C;}
	.st275{fill:#D8141D;}
	.st276{fill:#AB830D;}
	.st277{fill:#0086CB;}
	.st278{fill:#001F42;}
	.st279{fill:#9A8F4A;}
	.st280{fill:#00559D;}
	.st281{fill:#FDDE00;}
	.st282{fill:#00924C;}
	.st283{fill:#233984;}
	.st284{fill:#FFD42E;}
	.st285{fill:#BA3733;}
	.st286{fill:#46714D;}
	.st287{fill:#221F1F;}
	.st288{fill:#00559E;}
	.st289{fill:#005C46;}
	.st290{fill:#FBC860;}
	.st291{fill:#D57C48;}
	.st292{fill:#040403;}
	.st293{fill:#4AB969;}
	.st294{fill:#8ED8F8;}
	.st295{fill:#FEC34E;}
	.st296{fill:#FFC95B;}
	.st297{fill:#00644C;}
	.st298{fill:#70B865;}
	.st299{fill:#CA6F44;}
	.st300{fill:#A8B8BE;}
	.st301{fill:#1C2C80;}
	.st302{fill:#E10321;}
	.st303{fill:none;stroke:#231F20;stroke-width:0.318;stroke-miterlimit:3.864;}
	.st304{fill:#D71920;}
	.st305{fill:#484749;}
	.st306{fill:#D9DBDC;}
	.st307{fill:#DF725A;}
	.st308{fill:#F2CABA;}
	.st309{fill:#E89C84;}
	.st310{fill:#264F99;}
	.st311{clip-path:url(#SVGID_47_);}
	.st312{fill:#161413;}
	.st313{fill:#ED1B26;}
	.st314{fill:#E60D2E;}
	.st315{fill:#FCD600;}
	.st316{fill:#004D91;}
	.st317{fill:#EAB412;}
	.st318{fill:#FDD31D;}
	.st319{fill:#EFB800;}
</style>
<g>
	<path id="path3857" class="st91" d="M94.6,28.2L94.6,28.2L94.6,28.2L94.7,0H5.3l0.1,28.2v0v0c0,35.8,22,71.8,44.6,71.8
		S94.6,63.9,94.6,28.2L94.6,28.2z"/>
	<path id="path10" class="st92" d="M10.3,3.9c1.7,0,3.3,0,5,0c0,0.7,0,1.3,0,2c1,0,2.1,0,3.2,0c0-0.7,0-1.3,0-2c1.8,0,3.5,0,5.3,0
		c0,0.7,0,1.3,0,2c1,0,2,0,3.1,0c0-0.7,0-1.3,0-2c1.8,0,3.7,0,5.5,0c0,0.7,0,1.3,0,2c0.9,0,1.9,0,2.8,0c0-0.7,0-1.3,0-2
		c1.7,0,3.3,0,5,0c0,0.7,0,1.3,0,2c1.2,0,2.4,0,3.6,0c0-0.7,0-1.3,0-2c2,0,4,0,6,0c0,3.6,0,7.3,0,10.9c-6,0-12,0-18.1,0
		c0-1.2,0-2.4,0-3.6c-1.4,0-2.8,0-4.2,0c0,1.2,0,2.4,0,3.6c-5.7,0-11.5,0-17.3,0C10.3,11.2,10.3,7.5,10.3,3.9 M11,4.4
		c0,3.3,0,6.5,0,9.8c5.3,0,10.6,0,15.9,0c0-1.2,0-2.5,0-3.7c1.9,0,3.7,0,5.6,0c0,1.2,0,2.5,0,3.7c5.6,0,11.1,0,16.7,0
		c0-3.3,0-6.5,0-9.8c-1.5,0-3.1,0-4.6,0c0,0.7,0,1.4,0,2.1c-1.6,0-3.3,0-4.9,0c0-0.7,0-1.4,0-2.1c-1.2,0-2.5,0-3.7,0
		c0,0.7,0,1.4,0,2.1c-1.4,0-2.7,0-4.1,0c0-0.7,0-1.4,0-2.1c-1.4,0-2.8,0-4.2,0c0,0.7,0,1.4,0,2.1c-1.5,0-2.9,0-4.4,0
		c0-0.7,0-1.4,0-2.1c-1.3-0.1-2.7,0-4,0c0,0.7,0,1.4,0,2.1c-1.5,0-3,0-4.5,0c0-0.7,0-1.4,0-2.1C13.5,4.4,12.2,4.4,11,4.4L11,4.4z"/>
	<path id="path12" class="st93" d="M11,4.4c1.2,0,2.5,0,3.7,0c0,0.7,0,1.4,0,2.1c1.5,0,3,0,4.5,0c0-0.7,0-1.4,0-2.1
		c1.3,0,2.7-0.1,4,0c0,0.7,0,1.4,0,2.1c1.5,0,2.9,0,4.4,0c0-0.7,0-1.4,0-2.1c1.4,0,2.8,0,4.2,0c0,0.7,0,1.4,0,2.1c1.4,0,2.7,0,4.1,0
		c0-0.7,0-1.4,0-2.1c1.2,0,2.5,0,3.7,0c0,0.7,0,1.4,0,2.1c1.6,0,3.3,0,4.9,0c0-0.7,0-1.4,0-2.1c1.5,0,3.1,0,4.6,0c0,3.3,0,6.5,0,9.8
		c-5.6,0-11.1,0-16.7,0c0-1.2,0-2.5,0-3.7c-1.9,0-3.7,0-5.6,0c-0.1,1.2,0,2.5,0,3.7c-5.3,0.1-10.6,0-15.9,0C11,10.9,11,7.7,11,4.4
		 M16.7,8.4c0,0.9,0,1.9,0,2.8c0.2,0,0.5,0,0.7,0c0-0.9,0-1.9,0-2.8C17.2,8.4,16.9,8.4,16.7,8.4 M41.8,8.5c0,0.9,0,1.9,0,2.8
		c0.2,0,0.5,0,0.7,0c0-0.9,0-1.9,0-2.8C42.3,8.4,42.1,8.4,41.8,8.5z"/>
	<path id="path14" class="st92" d="M72.6,8.2c1.6-1.8,3.8-3.3,6.4-3.6c0.9-0.1,2-0.2,2.8,0.2c2,1,4.4,0.6,6.4,1.5
		c0.6,0.3,1.2,0.7,1.6,1.2c-1,1.7-3.4,1.8-4.5,3.5c-0.4,0.6-0.4,1.3-0.4,2c0.4,7.8-0.7,15.8-3.6,23.1c-1.5,4.2-4.4,7.7-8,10.3
		c-4.1,3-8.9,5-14,5.6c-0.5,0-0.8,0.5-1,0.8c-1.3,1.8-1.3,4.4-0.4,6.4c5.7,0.3,11.1,3.7,13.9,8.6c0.8,1.3,1.4,2.8,1.6,4.3
		c0.8,4.2,0,8.8-2.3,12.4c-2.9,4.5-8.2,7.1-13.5,7.1c-1.3,0-2.7,0-4-0.4c-5.2-1.4-9.7-5.3-11.5-10.4c-1.7-4.9-0.8-10.5,2.2-14.7
		c1.7-2.5,4.2-4.4,7-5.5c0.4-2.3-1.2-4.4-0.8-6.7c0.1-0.7,0.6-1.3,1-1.9c-1.5-0.7-3.1-0.2-4.7-0.6c-6.7,6.6-12.7,13.9-18.8,21
		c-1.3,1.9-2.6,4-3.3,6.2c-1.1-2.4-0.3-5.2-0.1-7.7c-2-0.3-4,0.4-5.9,0.5c0.7-0.6,1.4-1.1,2.1-1.7c6.4-5.3,11.5-12,17-18.2
		c0.6-0.7,1.2-1.4,1.8-2.1c8.2-9.8,16.4-19.7,24.5-29.5c0.8-1,1.6-1.9,2.4-2.9C68.6,13.9,70.2,10.8,72.6,8.2 M74.2,7.7
		c-5.5,5.5-8.6,12.9-14.2,18.3c-0.4,0.3-0.8,0.7-0.9,1.2c-0.7,2.2-1.1,4.5-2.3,6.4c1.8,0.7,3.7,0.4,5.5-0.1c2.1-0.6,4.1-1.8,5.2-3.7
		c1,0.2,2.1,0.4,3.1,0.4c3.1-0.1,6.1-1.5,8.3-3.6c0.1,0.1,0.2,0.2,0.3,0.3c-0.7,0.9-1.5,1.8-2.5,2.3c-0.3,0.1-0.6,0.2-0.7,0.6
		c-0.8,3-2.3,5.7-4.3,8c-4.1,4.7-10.1,7.4-16.2,8.8c-0.5,0.1-1,0.1-1.4,0.4c-1.8,1.7-3.8,3.4-6.3,3.8c3.6,0.7,7.3,0.9,10.9,0.6
		c4.2-0.4,8.4-1.6,12.1-3.9c3-1.8,5.7-4.2,7.6-7.1c1.9-2.8,3.1-5.9,4-9.1c1.6-6,2-12.3,2-18.6c-0.7,2.3-2.2,4.3-4.2,5.6
		c-1.1,0.5-2.4,0.6-3.6,0.3c-1.3-0.4-2.4-1.7-2.4-3.1c-0.1-1.4-0.4-3.2,0.6-4.3c0.5-0.6,1.3-0.7,1.9-1c0.4-0.3,0.2-0.9,0.5-1.3
		c0.5-0.7,1.3-0.9,2-1.1c1.1-0.4,2.2,0,3.2,0.6c1,0.7,1.1,2.3,0.2,3.1c-0.8,0.8-1.9,0.9-3,0.8c-0.7,0-1.5-0.3-2-0.8
		c-0.2-0.2-0.5-0.6-0.9-0.5c-1,0.2-1.9,1-1.9,2c-0.2,1.4-0.1,3,0.6,4.3c0.7,0.8,2,1.1,3,1c1.5-0.4,2.9-1.4,3.7-2.7
		c0.7-1.1,1.4-2.2,1.6-3.4c0.5-1.9,0.1-4-0.9-5.6c-0.4-0.6-1.1-0.8-1.7-1C78.7,4.7,75.9,5.8,74.2,7.7 M83.9,6.1
		c0.1,0.6,0.3,1.2,0.4,1.7c1.1-0.3,2.3-0.5,3.4-0.9C86.6,6.4,85.3,6.2,83.9,6.1 M84.7,8.7c0.1,0.5,0.2,1,0.4,1.4
		C86,9,87.5,8.7,88.5,7.8C87.2,7.8,85.8,8,84.7,8.7 M79.7,8.1c-0.8,0.2-1.6,0.5-2.1,1.1c-0.1,0.7,0.3,1.5,1,1.8
		c0.8,0.3,1.6,0.3,2.4,0.1c0.5-0.3,1-0.6,1.4-1c0.3-0.6-0.2-1.5-0.8-1.7C81,8.3,80.4,8,79.7,8.1 M56.7,29.7
		c-7.1,8.5-14.2,17.1-21.3,25.6c-0.4,0.5-0.8,0.9-1.2,1.4c0.9-0.4,1.8-0.9,2.6-1.4c1.9-1.1,3.7-2.5,4.7-4.5
		c-0.1-0.1-0.2-0.2-0.4-0.4c1.6-1.9,3.4-3.6,5-5.5c3.2-3.7,7-7.1,9.5-11.3c1-1.7,1.9-3.5,2.4-5.5C57.6,28.7,57.2,29.2,56.7,29.7
		 M73.4,30.3c-0.4,0.2-0.5,0.7-0.6,1.1c-1.2,3.3-3.7,6-6.6,7.9c-3.2,2-6.8,3.3-10.4,4c-2.2,0.6-4.6-0.7-6.8,0c-1,0.3-1.7,1.2-2,2.1
		c2.3,0.2,4.6,0.9,6.9,0.6c5.1-0.7,10.1-2.6,14.2-5.8c3.3-2.6,5.9-6.1,7-10.1C74.5,30,73.9,30,73.4,30.3 M65.9,32.5
		c-2.6,2.1-6.3,2.7-9.5,1.8c-0.9,1-1.7,2-2.6,3c0.4,0.5,1.1,0.5,1.7,0.6c0.5,0.1,1,0.3,1.5,0.2c4.9-0.4,9.8-3.1,12.3-7.5
		c-0.5-0.1-1-0.2-1.4-0.3C67.3,31.2,66.6,31.9,65.9,32.5 M70.2,31c-0.8,0.6-1,1.7-1.8,2.4c-1.5,1.3-3,2.6-4.7,3.6
		c-2.1,1.2-4.4,2.2-6.9,2.1c-1.3,0-2.6-0.3-3.7-0.8c-1.2,1.3-2.3,2.6-3.4,3.9c2.7,0.5,5.6,0.6,8.3-0.2c3.2-1.2,6.3-2.5,9-4.5
		c2.3-1.7,4.2-4.1,5-7C71.4,30.5,70.7,30.5,70.2,31 M46.3,45.9c-1.3,1.4-2.6,2.7-3.8,4.1c3.7,0.6,7.9-0.5,10.5-3.4
		C50.8,46.8,48.5,46.5,46.3,45.9 M42.1,51.2c-0.7,0.8-1,1.9-1.9,2.6c-0.2,0.2-0.5,0.4-0.5,0.7c-0.1,1,0,2.1,0.5,3
		c1.9-2.2,3.9-4.3,5.9-6.4c-0.6,0-1.2,0.1-1.8,0.1c-0.5,0-1-0.4-1.5-0.4C42.6,50.7,42.3,50.9,42.1,51.2 M52.4,52.3
		c-0.7,0.7-1.1,1.6-1,2.6c0.1,1.8,0.9,3.4,0.9,5.2c0.4-0.1,0.8-0.1,1.1-0.2c-0.3-1.3-1-2.4-1-3.7c0-1.5,1-2.7,1.5-4.1
		C53.3,52,52.7,51.9,52.4,52.3 M56.3,52.1c-0.4,0.8-0.2,1.7-0.8,2.4c-0.2,0.2-0.3,0.5-0.3,0.8c-0.1,2.9,2.1,5.4,2,8.3
		c0,0.4-0.2,0.7-0.4,1c-1.1,1.3-3.2,1.2-4.1,2.7c1.3-0.7,2.6-1.5,4.2-1.8c0.6-0.1,1.1,0.4,1.4,0.8c1,1.1,1.1,2.7,1.8,4
		c0.2-1.1-0.4-2.1-0.2-3.2c1-0.4,1.7,0.6,2.6,0.9c-0.9-1.2-2.4-1.6-3.5-2.6c0.7-1.1,2.2-0.8,3.3-0.9c-1.3-0.3-2.6-0.2-3.9-0.5
		c-0.3-2.9-2.1-5.6-1.9-8.6c0-1.3,0.7-2.4,1.5-3.3C57.4,52.1,56.9,52.1,56.3,52.1 M54.7,52.3c-0.5,0.9-1,1.7-1.4,2.6
		c-0.5,1.6,0.3,3.2,1,4.7c0.3,0,0.7-0.1,1-0.3c-0.4-0.6-0.8-1.3-0.8-2.1c-0.2-1.7,0.4-3.3,0.7-4.9C55,52.3,54.8,52.3,54.7,52.3
		 M38.3,55.7C35,61.1,30.7,66,25.8,70.1c-0.4,0.3-0.3,0.8-0.4,1.2c-0.2,1.7-0.8,3.4-0.3,5c0.5-0.8,0.9-1.6,1.4-2.4
		C30.2,68,35.2,63.3,39.6,58c-0.5-0.9-0.8-1.9-0.9-2.9C38.6,55.3,38.5,55.5,38.3,55.7 M33.6,57.8c-0.5,0.1-0.8,0.5-1.2,0.8
		c-3.7,4-7.2,8.4-11.6,11.7c1.2-0.4,2.4-0.1,3.6-0.3c0.5-0.1,1-0.5,1.4-0.9c4.4-3.8,8.4-8.2,11.4-13.2C36.1,56.7,35,57.5,33.6,57.8
		 M58.3,60c0.1,1.1,0.4,2.3,0.5,3.4c1.5,0.2,3,0.2,4.5,0.5c0.5,0.1,1,0.4,1.4,0.6C65,64.6,65,64.8,65,65c-1.5,0.4-3.1,0-4.7,0.3
		c0.8,0.7,1.8,1.3,2.6,2.1c0.8,0.7,1.4,1.7,1.3,2.8c-1.4-0.5-2.1-2-3.6-2.3c0.5,1.5,0.2,3.2-0.9,4.4c-0.4-1.1-0.7-2.3-1.1-3.4
		c-0.3-0.9-0.4-1.9-1.2-2.4c-0.6-0.4-1.3,0-1.8,0.2c-1.4,0.6-2.6,1.7-4.2,2.1c0-0.7,0.2-1.5,0.7-2c1.1-1.1,2.8-1.3,3.9-2.4
		c0.4-0.4,0.4-1,0.4-1.5c0-1-0.2-2-1-2.7c-0.5,0-0.9,0.1-1.4,0.2c-2.3,0.6-4.4,1.6-6.2,3c-3.8,3.1-6,8.1-5.7,13
		c0.3,6.6,5.5,12.7,12,14c4.9,1.1,10.5,0.1,14.1-3.6c4-3.9,5.9-10,4.4-15.4c-1.3-4.2-4.2-7.9-8.1-9.9C62.6,60.6,60.5,60,58.3,60
		L58.3,60z"/>
	<path id="path16" class="st93" d="M74.2,7.7c1.8-1.9,4.5-3,7-2.5c0.6,0.2,1.4,0.4,1.7,1c1,1.7,1.4,3.7,0.9,5.6
		c-0.3,1.2-1,2.4-1.6,3.4c-0.9,1.3-2.2,2.4-3.7,2.7c-1.1,0.2-2.3-0.1-3-1c-0.7-1.3-0.8-2.9-0.6-4.3c0-1,1-1.8,1.9-2
		c0.4-0.1,0.6,0.3,0.9,0.5c0.5,0.5,1.2,0.8,2,0.8c1,0.1,2.2-0.1,3-0.8c0.9-0.8,0.8-2.4-0.2-3.1c-0.9-0.5-2.1-1-3.2-0.6
		c-0.7,0.2-1.5,0.5-2,1.1c-0.3,0.4-0.1,1-0.5,1.3c-0.6,0.3-1.5,0.4-1.9,1c-1,1.2-0.7,2.9-0.6,4.3c0,1.4,1,2.7,2.4,3.1
		c1.2,0.4,2.5,0.3,3.6-0.3c2-1.2,3.5-3.3,4.2-5.6c-0.1,6.2-0.4,12.5-2,18.6c-0.9,3.2-2.1,6.3-4,9.1c-1.9,2.9-4.6,5.4-7.6,7.1
		c-3.6,2.3-7.8,3.5-12.1,3.9c-3.6,0.4-7.3,0.2-10.9-0.6c2.5-0.5,4.5-2.2,6.3-3.8c0.4-0.3,1-0.3,1.4-0.4c6-1.3,12-4,16.2-8.8
		c2-2.3,3.5-5.1,4.3-8c0.1-0.3,0.4-0.4,0.7-0.6c1.1-0.5,1.9-1.3,2.5-2.3c-0.1-0.1-0.2-0.2-0.3-0.3c-2.2,2.2-5.2,3.6-8.3,3.6
		c-1,0-2.1-0.1-3.1-0.4c-1.1,2-3.1,3.1-5.2,3.7c-1.8,0.5-3.7,0.8-5.5,0.1c1.2-2,1.6-4.3,2.3-6.4c0.1-0.5,0.5-0.9,0.9-1.2
		C65.6,20.6,68.7,13.2,74.2,7.7L74.2,7.7z"/>
	<path id="path18" class="st93" d="M83.9,6.1c1.3,0.1,2.6,0.3,3.8,0.9c-1.1,0.3-2.3,0.6-3.4,0.9C84.2,7.3,84.1,6.7,83.9,6.1
		L83.9,6.1z"/>
	<path id="path20" class="st93" d="M84.7,8.7c1.1-0.7,2.5-0.9,3.9-0.9C87.5,8.7,86,9,85.1,10.1C84.9,9.7,84.8,9.2,84.7,8.7z"/>
	<path id="path22_1_" class="st93" d="M79.7,8.1C80.4,8,81,8.3,81.6,8.5c0.7,0.2,1.1,1,0.8,1.7c-0.4,0.4-0.9,0.7-1.4,1
		c-0.8,0.2-1.7,0.2-2.4-0.1c-0.7-0.3-1.1-1.1-1-1.8C78.1,8.6,78.9,8.2,79.7,8.1 M79.4,8.5c-0.6,0.2-1.1,0.8-1,1.4
		c0.2,0.7,0.9,0.9,1.5,1c0.6,0.2,1.1-0.2,1.5-0.6c0.4-0.5,0.2-1.2-0.3-1.5C80.7,8.4,80,8.4,79.4,8.5z"/>
	<path id="path24" class="st92" d="M16.7,8.4c0.2,0,0.5,0,0.7,0c0,0.9,0,1.9,0,2.8c-0.2,0-0.5,0-0.7,0C16.7,10.3,16.7,9.4,16.7,8.4z
		"/>
	<path id="path26_1_" class="st92" d="M41.8,8.5c0.2,0,0.5,0,0.7,0c0,0.9,0,1.9,0,2.8c-0.2,0-0.5,0-0.7,0
		C41.8,10.3,41.8,9.4,41.8,8.5z"/>
	<path id="path28" class="st92" d="M79.4,8.5c0.6-0.1,1.3-0.1,1.8,0.2c0.5,0.3,0.7,1.1,0.3,1.5c-0.4,0.4-0.9,0.8-1.5,0.6
		c-0.6-0.1-1.4-0.3-1.5-1C78.3,9.3,78.8,8.7,79.4,8.5z"/>
	<path id="path30_1_" class="st92" d="M17.5,19.2c0.6-1.2,1.5-2.2,2.6-3c0.2,0.4,0.4,0.9,0.9,1c0.7,0.1,1.4-0.4,2.1-0.3
		c0.5,0.1,0.4,0.9,1,0.9c0.5,0,1-0.2,1.4-0.3c-0.4,2.2-2,4-2.9,6c2.4-0.3,4.8-0.5,7.2-0.5c2.1,0,4.3,0,6.5,0.1c3,0,6,0.1,9-0.1
		c0.7,0,1.1-1.3,0.3-1.5c-1.9-0.9-4.1-0.2-6.1-0.1c-1.4,0-2.7,0.2-4,0.4c-2.4,0.3-4.8,0.5-7.1,0.1c-0.8-0.1-1.2-0.8-1.4-1.5
		c-0.5-1.5,0.6-3.1,2.1-3.4c4.7-1.3,9.5,0.3,14.2-0.7c1.4-0.3,3-0.1,4.2,0.7c1,0.5,1.7,1.6,1.6,2.8c-0.6,0.2-1.1,0.2-1.7,0.2
		c0.9,0.5,1.8,1.4,2,2.5c0.1,1.1-0.9,2-1.8,2.4c-1.6,0.5-3.4,0.3-4.8,1.4c0.2,0.5,0.5,0.9,1,1c1.1,0.2,2.3-0.4,3.4-0.2
		c0.5,0.1,0.8,0.5,1.1,0.9c0.6-0.4,1.3-0.4,2-0.3c0.3,1.6-0.9,2.9-1.3,4.3c-0.3,0.8,0,1.6,0.2,2.3c-1.2,0-1.8-1.2-2.6-1.9
		c-0.4-0.5-1.2-0.3-1.7-0.7c-0.2-0.7,0.6-1.4,0.1-2.1c-1.1-0.3-2.1,0.5-3,1c-0.7,0.4-1.4,0.4-2.2,0.3c-0.2,0.5-0.2,0.9-0.2,1.4
		c-0.1,0.9-0.7,1.6-1.4,2c-0.6,0.4-1.1-0.3-1.6-0.3c-2-0.4-3.5,1.4-5.5,1.3c-0.8-0.1-1.8-0.6-1.8-1.5c-0.5,0.1-1,0.2-1.5,0.2
		c-0.1-0.5-0.1-1,0.2-1.4c0.4-0.5,1-0.7,1.5-1c0-0.3-0.3-0.5-0.5-0.8c0.6-0.5,1.3-0.7,2-0.6c1.6,0.3,3,1.7,4.7,1.1
		c-0.6-0.8-1.4-1.3-2-2.1c-0.4-0.7-0.2-1.7,0.5-2c0.9-0.4,1.9,0,2.8-0.3c-0.1-0.3-0.1-0.6-0.5-0.6c-0.8,0.1-1.7-0.3-2.5,0
		c-2.3,0.7-3.7,3-6,3.9c-0.8,0.3-1.7,0.2-2.6,0.4c-1.2,0.3-2.4,0.3-3.6,0.4c0.1,0.6,0.2,1.3-0.1,1.9c-0.3,0.6-0.8,1.3-1.6,1.3
		c-0.4-0.2-0.7-0.6-1-0.9c-0.7,0.8-1.8,1.2-2.8,1.1c-0.4-0.1-0.6-0.5-1-0.5c-0.8-0.1-1.8,0.2-2.3-0.5c0.2-0.2,0.4-0.4,0.5-0.7
		c-0.1-0.4-0.5-0.5-0.8-0.6c-0.8-0.1-1.6,0.1-2.3,0c-0.7,0-1.3-0.5-1.7-1c0.6-0.7-0.1-1.5,0.1-2.3c2.4,0,4.5,1.6,7,1.5
		c0.1-0.5,0.2-1,0.1-1.5c-1.3-0.2-2.6-0.2-3.9-0.6c-0.8-0.2-1.6-0.6-2.1-1.2c-0.4-0.5-0.6-1.2-0.9-1.9c0.2-0.2,0.4-0.3,0.6-0.4
		c-0.1-0.8-0.3-1.6-0.1-2.4c0.1-0.4,0.5-0.5,0.8-0.7c-0.4-0.8-1-1.6-0.8-2.6c0.1-0.5,0.7-0.7,0.8-1.2c-0.1-0.5-0.4-0.9-0.5-1.3
		c0.6-0.2,1.3-0.1,1.8,0.2c0.8,0.4,1.6,1.3,2.5,1c0.5-0.3,1.1-0.8,1.7-0.7c-0.5,2-2.3,3.3-2.8,5.3c-0.3,1.1,0.5,2.2,1.4,2.7
		c0.5,0.2,1.1,0.1,1.7,0.1C16.1,23.1,16.5,21,17.5,19.2 M42.6,17c-0.4,0.2-0.9,0.5-1.4,0.4c-2.8-0.3-5.6-0.5-8.4-0.4
		c-1.6,0-3.2,0.2-4.7,0.9c-1,0.6-1,2.1-0.3,2.9c0.3,0.2,0.7,0.3,1.1,0.4c3.2,0.8,6.5-0.6,9.7-0.5c2.1-0.1,4.3-0.9,6.4-0.2
		c0.8,0.2,1.5,0.9,1.6,1.7c0,0.7-0.6,1.2-1.2,1.3c-0.9,0.2-1.9,0.3-2.8,0.2c-7.2-0.4-14.4-0.4-21.5,0.6c0.1-0.2,0.2-0.4,0.3-0.7
		c-0.9-0.1-1.7-0.9-1.7-1.8c1-0.1,2-0.1,2.9-0.1c0.6-1.1,1.2-2.2,1.6-3.4c-0.3,0.1-0.6,0.4-0.9,0.4c-0.3-0.3-0.4-0.8-0.5-1.2
		c-0.6,0.1-1.2,0.3-1.8,0.6c-0.4-0.3-0.6-0.8-1-0.9c-1,0.7-1.7,1.7-2.2,2.7c0.5,0.7,1.6,1.3,1.1,2.3c-0.7,0-1.4,0-2,0
		c-0.3,0.8-0.5,1.6-0.4,2.5c0.3-0.3,0.6-0.7,0.9-0.9c0.8-0.2,1.5,0.2,2.1,0.7c0.6,0.6,1.1,1.3,1.7,1.8c-1.7,0.1-3.2-0.8-4.9-0.8
		c-1.1,1.6,0.3,3.4-0.1,5.1c-2.3,0.7-4.6-0.5-6.8-1c0.2,0.1,0.4,0.2,0.5,0.2c-0.2,0.4-0.5,0.9-0.7,1.3c1.5,0.6,3.1,0.1,4.5,0.4
		c0,0.6,0,1.1,0,1.7c0.9,0.2,1.6-0.6,2.2-1.2c0.5,0.3,0.8,0.8,1,1.3c0.9,0.1,1.3-1.1,2.1-1.3c0.3,0.4,0.4,0.9,0.7,1.3
		c0.3,0.2,0.7-0.1,0.8-0.4c0.5-0.8,0.2-1.8-0.1-2.6c1.5-0.4,3.2-0.3,4.7-0.5c1.4-0.2,2.8-0.6,3.9-1.3c1.5-1,2.8-2.3,4.6-3
		c1.1-0.5,2.4-0.4,3.5,0.1c0.3,1,0.1,2.1,0.2,3.1c0.1,0.6,0.6,1.4,1.3,1.3c1.1,0,2.2,0.1,3.2-0.5c0.6-0.4,1.3-0.7,2-0.8
		c0.6-0.1,1.3,0.3,1.4,1c0.1,0.5-0.1,1-0.2,1.4c0.4,0,0.9-0.1,1.2,0.2c0.5,0.6,0.6,1.6,1.5,1.9c-0.1-0.4-0.2-0.7-0.2-1.1
		c0.1-1.5,1.8-2.4,1.6-4c-0.6,0.1-0.9,0.6-1.5,0.8c-0.4-0.2-0.6-0.7-1-1c-0.8-0.4-1.8-0.3-2.6-0.1c-1.1,0.4-2.4-0.6-2.4-1.8
		c0.2-0.5,0.7-0.8,1.1-1c1.3-0.6,2.9-0.3,4.2-0.9c0.8-0.3,1.3-1.2,1.3-2.1c-0.3-0.5-0.8-0.9-1.2-1.2c-2.5-1.6-5.8-1.7-8.6-0.8
		c-0.7-1.1-2.1-1.2-3.3-1.2c-0.8,0.2-0.9,1.5-1.7,1.5c-1.3,0.2-2.6,0.5-4,0.2c-0.6-0.2-1.2-0.4-1.5-1c0.1-0.7,0.2-1.7,1-1.9
		c1.8-0.4,3.8-0.5,5.7-0.4c4.5,0.2,8.9,1.6,13.4,1.5c-0.4-0.9-1.3-1.5-2.3-1.8C44.9,16.7,43.7,16.6,42.6,17 M10.6,17.2
		c0,0.2,0.1,0.5,0.1,0.7c-0.2,0.6-0.9,0.8-0.9,1.5c-0.2,1.3,1.2,2,1.2,3.3c-0.3,0-0.7,0-1-0.1c-0.3,0.7-0.3,1.4,0,2.1
		c0.2,0.4,0.7,0.5,1,0.8c0.1,0.2-0.1,0.2-0.2,0.3c-0.4,0-0.8-0.2-1.3,0c0.3,0.7,0.8,1.5,1.5,1.8c1.3,0.5,2.8,0.5,4.2,0.4
		c0-0.7,0.1-1.3,0.2-2c-1.1,0-2.2-0.5-2.9-1.3c-0.8-0.7-0.7-1.9-0.5-2.8c0.4-1.5,1.7-2.6,2.5-3.8c-0.5,0-0.9,0.5-1.3,0.7
		C12.1,18.5,11.5,17.5,10.6,17.2 M29.7,18.4c-0.5,0.2-0.9,0.7-0.7,1.3c1.2,0.8,2.6,0.4,3.9,0.1c0.9-0.1,1.2-1.1,2-1.5
		C33.2,18.2,31.4,17.8,29.7,18.4 M37.5,18.5c0.8,0.9,2.2,0.7,3.2,0.4C39.7,18.7,38.6,18.5,37.5,18.5 M34.4,27.7
		c-0.3,0.1-0.6,0.5-0.3,0.8c0.8,0.9,1.7,1.8,2.5,2.8c-0.5,0.4-1.1,0.7-1.7,0.6c-1.6,0-2.9-1-4.5-1.2c0.2,0.2,0.4,0.4,0.6,0.6
		c-0.9,0.6-2.2,0.7-2.8,1.7c0.5-0.1,0.9-0.2,1.4-0.4c0.2,0.5,0.2,1,0.4,1.5c0.3,0.3,0.8,0.4,1.2,0.3c1.1-0.1,2-1,3.1-1.1
		c1-0.1,1.9,0.4,2.9,0.3c0.5,0,0.9-0.3,1.1-0.7c0.3-0.6,0.6-1.2,0.4-1.9c-0.4-0.9-1.5-1.4-1.9-2.3c-0.2-0.4-0.1-0.9-0.1-1.3
		C35.9,27.5,35.1,27.4,34.4,27.7L34.4,27.7z"/>
	<path id="path32" class="st93" d="M42.6,17c1.1-0.4,2.3-0.2,3.3,0.1c1,0.3,1.8,0.9,2.3,1.8c-4.5,0.1-8.9-1.2-13.4-1.5
		c-1.9-0.1-3.8-0.1-5.7,0.4c-0.8,0.2-1,1.2-1,1.9c0.2,0.6,0.9,0.9,1.5,1c1.3,0.2,2.6-0.1,4-0.2c0.9-0.1,0.9-1.3,1.7-1.5
		c1.2-0.1,2.6,0.1,3.3,1.2c2.8-0.9,6.1-0.8,8.6,0.8c0.5,0.3,1,0.7,1.2,1.2c0.1,0.9-0.4,1.7-1.3,2.1c-1.3,0.5-2.9,0.3-4.2,0.9
		c-0.4,0.2-0.9,0.5-1.1,1c0,1.1,1.3,2.2,2.4,1.8c0.8-0.2,1.8-0.4,2.6,0.1c0.4,0.2,0.6,0.8,1,1c0.5-0.1,0.9-0.7,1.5-0.8
		c0.2,1.6-1.6,2.5-1.6,4c0,0.4,0.1,0.7,0.2,1.1c-0.8-0.3-0.9-1.3-1.5-1.9c-0.3-0.3-0.8-0.2-1.2-0.2c0.1-0.5,0.3-0.9,0.2-1.4
		c-0.1-0.6-0.7-1.1-1.4-1c-0.7,0.1-1.4,0.4-2,0.8C41.2,30.1,40.1,30,39,30c-0.7,0-1.2-0.7-1.3-1.3c-0.2-1,0.1-2.1-0.2-3.1
		c-1.1-0.4-2.4-0.5-3.5-0.1c-1.7,0.7-3,2.1-4.6,3c-1.2,0.8-2.6,1.2-3.9,1.3c-1.6,0.2-3.2,0.1-4.7,0.5c0.3,0.8,0.6,1.8,0.1,2.6
		c-0.1,0.3-0.5,0.7-0.8,0.4c-0.3-0.4-0.4-0.9-0.7-1.3c-0.9,0.2-1.2,1.4-2.1,1.3c-0.2-0.5-0.5-1-1-1.3c-0.6,0.6-1.2,1.4-2.2,1.2
		c0-0.6,0-1.1,0-1.7c-1.5-0.4-3.1,0.2-4.5-0.4c0.2-0.4,0.5-0.9,0.7-1.3c-0.2-0.1-0.4-0.2-0.5-0.2c2.2,0.5,4.5,1.7,6.8,1
		c0.5-1.7-1-3.5,0.1-5.1c1.7-0.1,3.2,0.9,4.9,0.8c-0.7-0.5-1.2-1.2-1.7-1.8c-0.5-0.5-1.3-0.9-2.1-0.7c-0.4,0.2-0.6,0.6-0.9,0.9
		c-0.1-0.9,0.1-1.7,0.4-2.5c0.7,0,1.4,0,2,0c0.5-1-0.6-1.6-1.1-2.3c0.5-1.1,1.2-2.1,2.2-2.7c0.4,0.1,0.7,0.6,1,0.9
		c0.6-0.2,1.2-0.4,1.8-0.6c0.2,0.4,0.2,0.9,0.5,1.2c0.4,0,0.6-0.2,0.9-0.4c-0.4,1.2-1,2.3-1.6,3.4c-1,0.1-2,0.1-2.9,0.1
		c0,1,0.8,1.8,1.7,1.8c-0.1,0.2-0.2,0.5-0.3,0.7c7.1-1,14.3-1,21.5-0.6c0.9,0.1,1.9,0,2.8-0.2c0.6-0.2,1.2-0.7,1.2-1.3
		c-0.1-0.8-0.8-1.5-1.6-1.7c-2.1-0.6-4.3,0.1-6.4,0.2c-3.2-0.1-6.5,1.3-9.7,0.5c-0.4-0.1-0.7-0.2-1.1-0.4c-0.7-0.8-0.7-2.3,0.3-2.9
		c1.4-0.7,3.1-0.9,4.7-0.9c2.8-0.1,5.6,0.1,8.4,0.4C41.8,17.5,42.2,17.1,42.6,17L42.6,17z"/>
	<path id="path34_1_" class="st93" d="M10.6,17.2c0.9,0.3,1.5,1.3,2.6,1.4c0.5-0.2,0.8-0.7,1.3-0.7c-0.8,1.3-2.1,2.3-2.5,3.8
		c-0.2,1-0.2,2.1,0.5,2.8c0.7,0.9,1.8,1.4,2.9,1.3c-0.1,0.7-0.2,1.3-0.2,2c-1.4,0-2.9,0-4.2-0.4c-0.7-0.4-1.2-1.1-1.5-1.8
		c0.4-0.1,0.8,0,1.3,0c0.1-0.1,0.3-0.1,0.2-0.3c-0.3-0.3-0.8-0.4-1-0.8c-0.2-0.7-0.2-1.4,0-2.1c0.3,0.1,0.7,0.1,1,0.1
		c0-1.2-1.4-2-1.2-3.3c-0.1-0.6,0.7-0.9,0.9-1.5C10.7,17.7,10.6,17.4,10.6,17.2L10.6,17.2z"/>
	<path id="path40" class="st93" d="M34.4,27.7c0.7-0.4,1.5-0.2,2.3-0.2c0,0.4-0.1,0.9,0.1,1.3c0.4,0.9,1.5,1.4,1.9,2.3
		c0.3,0.6-0.1,1.3-0.4,1.9c-0.2,0.4-0.6,0.7-1.1,0.7c-1,0.1-1.9-0.4-2.9-0.3c-1.1,0.1-2,1-3.1,1.1c-0.4,0-0.9,0-1.2-0.3
		c-0.2-0.5-0.2-1-0.4-1.5c-0.5,0.1-0.9,0.3-1.4,0.4c0.6-1,1.9-1,2.8-1.7c-0.2-0.2-0.4-0.4-0.6-0.6c1.6,0.2,2.9,1.2,4.5,1.2
		c0.6,0,1.2-0.2,1.7-0.6c-0.8-0.9-1.7-1.8-2.5-2.8C33.8,28.3,34.1,27.9,34.4,27.7L34.4,27.7z"/>
	<path id="path42" class="st93" d="M56.7,29.7c0.4-0.5,0.9-1.1,1.3-1.5c-0.5,1.9-1.3,3.8-2.4,5.5c-2.6,4.2-6.3,7.6-9.5,11.3
		c-1.6,1.9-3.3,3.7-5,5.5c0.1,0.1,0.2,0.2,0.4,0.4c-1,2-2.8,3.4-4.7,4.5c-0.9,0.5-1.7,1-2.6,1.4c0.3-0.5,0.8-1,1.2-1.4
		C42.6,46.8,49.6,38.3,56.7,29.7z"/>
	<path id="path44" class="st93" d="M73.4,30.3c0.5-0.3,1.1-0.3,1.6-0.4c-1.1,4-3.7,7.6-7,10.1c-4.1,3.2-9.1,5.1-14.2,5.8
		c-2.3,0.3-4.6-0.4-6.9-0.6c0.3-0.9,1-1.8,2-2.1c2.2-0.7,4.6,0.6,6.8,0c3.7-0.7,7.3-2,10.4-4c2.9-1.9,5.4-4.6,6.6-7.9
		C72.9,31,73,30.5,73.4,30.3z"/>
	<path id="path46" class="st93" d="M65.9,32.5c0.8-0.6,1.4-1.3,2-2.1c0.5,0.1,1,0.2,1.4,0.3c-2.5,4.4-7.4,7.1-12.3,7.5
		c-0.5,0-1-0.2-1.5-0.2c-0.6-0.1-1.3-0.1-1.7-0.6c0.8-1,1.7-2,2.6-3C59.6,35.2,63.2,34.7,65.9,32.5L65.9,32.5z"/>
	<path id="path48" class="st93" d="M70.2,31c0.5-0.4,1.2-0.5,1.9-0.4c-0.7,2.8-2.6,5.2-5,7c-2.7,2-5.9,3.3-9,4.5
		c-2.7,0.7-5.6,0.6-8.3,0.2c1.1-1.3,2.2-2.6,3.4-3.9c1.2,0.5,2.4,0.8,3.7,0.8c2.5,0.1,4.8-0.9,6.9-2.1c1.7-1,3.2-2.3,4.7-3.6
		C69.2,32.7,69.4,31.6,70.2,31L70.2,31z"/>
	<path id="path50" class="st93" d="M46.3,45.9c2.2,0.5,4.5,0.9,6.7,0.8c-2.6,2.8-6.8,3.9-10.5,3.4C43.7,48.7,45,47.3,46.3,45.9z"/>
	<path id="path52" class="st93" d="M42.1,51.2c0.2-0.2,0.5-0.4,0.9-0.5c0.5,0,1,0.4,1.5,0.4c0.6,0,1.2-0.1,1.8-0.1
		c-2.1,2.1-4,4.2-5.9,6.4c-0.6-0.9-0.7-2-0.5-3c0-0.3,0.3-0.5,0.5-0.7C41.1,53.1,41.4,52,42.1,51.2L42.1,51.2z"/>
	<path id="path54" class="st93" d="M52.4,52.3c0.4-0.4,1-0.2,1.4-0.2c-0.5,1.4-1.5,2.6-1.5,4.1c0,1.3,0.7,2.5,1,3.7
		c-0.4,0.1-0.7,0.2-1.1,0.2c0-1.8-0.8-3.4-0.9-5.2C51.3,53.9,51.7,52.9,52.4,52.3L52.4,52.3z"/>
	<path id="path56" class="st93" d="M56.3,52.1c0.6,0,1.1,0,1.7,0c-0.8,0.9-1.5,2.1-1.5,3.3c-0.2,3,1.6,5.7,1.9,8.6
		c1.3,0.2,2.6,0.2,3.9,0.5c-1.1,0.1-2.6-0.2-3.3,0.9c1,1,2.5,1.5,3.5,2.6c-0.9-0.3-1.6-1.2-2.6-0.9c-0.2,1.1,0.5,2.1,0.2,3.2
		c-0.7-1.3-0.8-2.8-1.8-4c-0.4-0.4-0.8-0.9-1.4-0.8c-1.5,0.2-2.8,1.1-4.2,1.8c0.9-1.5,3-1.4,4.1-2.7c0.2-0.3,0.4-0.6,0.4-1
		c0-2.9-2.1-5.4-2-8.3c0-0.3,0.1-0.6,0.3-0.8C56.1,53.9,55.9,52.9,56.3,52.1L56.3,52.1z"/>
	<path id="path60" class="st93" d="M38.3,55.7c0.1-0.2,0.3-0.4,0.4-0.6c0.1,1,0.4,2,0.9,2.9c-4.4,5.3-9.4,10.1-13.1,15.9
		c-0.5,0.8-0.9,1.6-1.4,2.4c-0.5-1.7,0.1-3.4,0.3-5c0.1-0.4,0-0.9,0.4-1.2C30.7,66,35,61.1,38.3,55.7z"/>
	<path id="path62" class="st93" d="M33.6,57.8c1.3-0.3,2.5-1.1,3.6-1.9c-3,5-6.9,9.4-11.4,13.2c-0.4,0.4-0.8,0.8-1.4,0.9
		c-1.2,0.3-2.4-0.1-3.6,0.3c4.4-3.3,7.9-7.7,11.6-11.7C32.8,58.3,33.1,57.9,33.6,57.8L33.6,57.8z"/>
	<path id="path64" class="st93" d="M58.3,60c2.2,0.1,4.3,0.6,6.3,1.6c3.9,2,6.8,5.7,8.1,9.9c1.6,5.4-0.3,11.5-4.4,15.4
		c-3.6,3.6-9.2,4.7-14.1,3.6c-6.5-1.3-11.7-7.4-12-14c-0.3-4.9,1.9-9.9,5.7-13c1.8-1.5,4-2.5,6.2-3c0.4-0.1,0.9-0.3,1.4-0.2
		c0.7,0.7,1,1.7,1,2.7c0,0.5,0,1.1-0.4,1.5c-1.2,1.1-2.8,1.3-3.9,2.4c-0.5,0.5-0.7,1.3-0.7,2c1.5-0.4,2.7-1.5,4.2-2.1
		c0.6-0.2,1.3-0.6,1.8-0.2c0.8,0.5,0.9,1.6,1.2,2.4c0.4,1.1,0.7,2.3,1.1,3.4c1.1-1.1,1.4-2.9,0.9-4.4c1.5,0.3,2.2,1.8,3.6,2.3
		c0.1-1.1-0.6-2.1-1.3-2.8c-0.8-0.8-1.7-1.3-2.6-2.1c1.5-0.3,3.1,0.1,4.7-0.3c0-0.2,0-0.5-0.2-0.6c-0.4-0.3-0.9-0.5-1.4-0.6
		c-1.5-0.3-3-0.3-4.5-0.5C58.7,62.2,58.4,61.1,58.3,60 M49.8,72.9c-0.6,1.2-0.6,2.7-0.4,4c0.2,0,0.3,0,0.5,0c0-1.5,0.1-3,0.6-4.4
		C50.2,72.6,49.9,72.6,49.8,72.9 M47.9,73.3c-0.5,1-0.6,2.3-0.1,3.4c0.2,0,0.3,0,0.5,0c-0.4-1.2-0.1-2.5,0.3-3.7
		C48.3,73.1,48,73,47.9,73.3 M46.4,73.4c-0.3,1-0.2,2,0.1,3c0.1,0,0.3,0,0.4,0c-0.1-1-0.1-2.1,0-3.1C46.7,73.3,46.6,73.3,46.4,73.4
		 M45.4,73.6c-0.2,0.8-0.2,1.6,0,2.3c0,0.2,0.3,0.2,0.4,0.3c-0.1-0.9-0.1-1.8,0-2.7C45.6,73.5,45.5,73.6,45.4,73.6 M44.5,73.7
		c-0.3,0.7-0.2,1.5,0,2.2c0.1,0,0.2,0,0.3,0c-0.1-0.7-0.1-1.5,0-2.2C44.7,73.7,44.6,73.7,44.5,73.7 M43.1,75.6
		c0.1,0,0.2,0.1,0.2,0.1c0-0.6,0-1.2,0-1.8C42.8,74.3,43,75.1,43.1,75.6 M43.8,75.8c0.1,0,0.2,0,0.2,0.1c-0.1-0.7,0-1.3-0.1-2
		C43.4,74.3,43.7,75.1,43.8,75.8 M42.5,74.1c-0.1,0.5-0.2,1.1,0.2,1.5c0.1-0.5,0-1.1,0-1.6C42.7,74.1,42.5,74.1,42.5,74.1L42.5,74.1
		z"/>
	<path id="path66" class="st92" d="M49.8,72.9c0.1-0.3,0.4-0.3,0.6-0.3c-0.4,1.4-0.6,2.9-0.6,4.4c-0.2,0-0.3,0-0.5,0
		C49.2,75.6,49.2,74.1,49.8,72.9L49.8,72.9z"/>
	<path id="path68" class="st92" d="M47.9,73.3c0.1-0.2,0.4-0.2,0.6-0.2c-0.4,1.2-0.6,2.4-0.3,3.7c-0.2,0-0.3,0-0.5,0
		C47.2,75.6,47.4,74.3,47.9,73.3z"/>
	<path id="path70" class="st92" d="M46.4,73.4c0.2,0,0.3,0,0.5-0.1c-0.1,1-0.1,2.1,0,3.1c-0.1,0-0.3,0-0.4,0
		C46.2,75.4,46.1,74.3,46.4,73.4L46.4,73.4z"/>
	<path id="path72" class="st92" d="M45.4,73.6c0.1,0,0.3-0.1,0.4-0.1c-0.1,0.9-0.1,1.8,0,2.7c-0.2-0.1-0.4-0.1-0.4-0.3
		C45.2,75.1,45.1,74.3,45.4,73.6z"/>
	<path id="path74" class="st92" d="M44.5,73.7c0.1,0,0.2,0,0.3,0c-0.1,0.7-0.1,1.5,0,2.2c-0.1,0-0.2,0-0.3,0
		C44.3,75.2,44.2,74.4,44.5,73.7z"/>
	<path id="path76" class="st92" d="M43.1,75.6c-0.1-0.6-0.3-1.3,0.2-1.7c0,0.6,0,1.2,0,1.8C43.3,75.7,43.2,75.7,43.1,75.6z"/>
	<path id="path78" class="st92" d="M43.8,75.8c-0.1-0.6-0.4-1.5,0.2-1.9c0.1,0.7,0,1.3,0.1,2C44,75.8,43.9,75.8,43.8,75.8z"/>
	<path id="path80" class="st92" d="M42.5,74.1c0.1,0,0.2-0.1,0.2-0.1c0,0.5,0,1.1,0,1.6C42.3,75.3,42.4,74.6,42.5,74.1L42.5,74.1z"
		/>
</g>
</svg>
