<?xml version="1.0" encoding="utf-8"?>
<!-- Generator: Adobe Illustrator 19.2.1, SVG Export Plug-In . SVG Version: 6.00 Build 0)  -->
<svg version="1.1" id="Capa_1" xmlns="http://www.w3.org/2000/svg" xmlns:xlink="http://www.w3.org/1999/xlink" x="0px" y="0px"
	 viewBox="0 0 100 100" style="enable-background:new 0 0 100 100;" xml:space="preserve">
<style type="text/css">
	.st0{fill:url(#path34_4_);}
	.st1{fill:url(#path890_1_);}
	.st2{fill:#FFE500;stroke:#000000;stroke-width:2.098;stroke-miterlimit:3.863;}
	.st3{fill:#DA020E;}
	.st4{fill:#FFE500;}
	.st5{clip-path:url(#SVGID_2_);}
	.st6{fill:none;stroke:#B54005;stroke-width:10;stroke-miterlimit:3.863;}
	.st7{fill:url(#path7506_1_);}
	.st8{fill:url(#path8794_1_);}
	.st9{fill:url(#path15846_1_);}
	.st10{fill:url(#path16274_1_);}
	.st11{fill:url(#path39821_1_);}
	.st12{fill:url(#path39847_1_);}
	.st13{fill:url(#path39878_1_);}
	.st14{fill:url(#path39888_1_);}
	.st15{fill:url(#path41035_1_);}
	.st16{fill:url(#path9646-8_1_);}
	.st17{fill:url(#path41092_1_);}
	.st18{fill:url(#path41094_1_);}
	.st19{fill:none;stroke:#000000;stroke-width:2.098;stroke-miterlimit:3.863;}
	.st20{fill:url(#path41152_1_);}
	.st21{fill:url(#path39854_1_);}
	.st22{fill:url(#path39874_1_);}
	.st23{fill:#9C824A;stroke:#9C824A;stroke-width:0.793;stroke-miterlimit:282;}
	.st24{fill:#023474;stroke:#023474;stroke-width:0.793;stroke-miterlimit:282;}
	.st25{fill:#FFFFFF;stroke:#FFFFFF;stroke-width:0.793;stroke-miterlimit:282;}
	.st26{fill:#EF0107;stroke:#EF0107;stroke-width:0.793;stroke-miterlimit:282;}
	.st27{fill:#DB0007;stroke:#DB0007;stroke-width:0.793;stroke-miterlimit:282;}
	.st28{fill:#FFFFFF;}
	.st29{fill:#9C824A;}
	.st30{fill:#EF0107;stroke:#EF0107;stroke-width:0.3115;stroke-miterlimit:282;}
	.st31{fill:#DB0007;stroke:#DB0007;stroke-width:0.3115;stroke-miterlimit:282;}
	.st32{fill:#DB0007;}
	.st33{fill:#FFFFFF;stroke:#FFFFFF;stroke-width:0.3115;stroke-miterlimit:282;}
	.st34{fill:#FFFFFF;stroke:#FFFFFF;stroke-width:0.554;stroke-miterlimit:3.864;}
	.st35{fill:#231F20;}
	.st36{fill:#00B6F1;stroke:#00B6F1;stroke-width:1.700000e-02;stroke-miterlimit:3.864;}
	.st37{fill:#EF3E2E;}
	.st38{fill:#BBBDBF;}
	.st39{fill:#F0B83D;}
	.st40{fill:#00B6F1;stroke:#FFFFFF;stroke-width:1.700000e-02;stroke-miterlimit:3.864;}
	.st41{fill:#001C58;}
	.st42{fill:#94BEE5;}
	.st43{fill:none;stroke:#7A003C;stroke-width:2.2437;stroke-miterlimit:6;}
	.st44{fill:#7A003C;}
	.st45{fill:#FFE600;}
	.st46{fill:#DBA111;}
	.st47{fill:#034694;}
	.st48{fill:#D1D3D4;}
	.st49{fill:#ED1C24;}
	.st50{fill:#6A7AB5;}
	.st51{fill:none;}
	.st52{fill:#274488;}
	.st53{fill:#004798;stroke:#004798;stroke-width:9.375000e-02;}
	.st54{fill:#FFFFFF;stroke:#FFFFFF;stroke-width:9.375000e-02;}
	.st55{fill:#FABC00;stroke:#FABC00;stroke-width:9.375000e-02;}
	.st56{fill:none;stroke:#FFFFFF;stroke-width:7.865;stroke-miterlimit:3.864;}
	.st57{fill:none;stroke:#FFFFFF;stroke-width:7.865;stroke-miterlimit:12;}
	.st58{fill:none;stroke:#FFFFFF;stroke-width:7.865;stroke-miterlimit:22;}
	.st59{fill:none;stroke:#FFFFFF;stroke-width:7.865;stroke-miterlimit:6;}
	.st60{fill:#00A398;}
	.st61{fill:#D00027;}
	.st62{fill:none;stroke:#FFFFFF;stroke-width:17.3907;stroke-miterlimit:3.864;}
	.st63{fill:none;stroke:#FFFFFF;stroke-width:13.1107;stroke-miterlimit:3.864;}
	.st64{fill:#FEF667;}
	.st65{fill:#D00027;stroke:#D00027;}
	.st66{fill:#5299C6;}
	.st67{fill:#60223B;}
	.st68{fill:#F7C240;}
	.st69{fill:#292D6B;}
	.st70{fill:#1B458F;}
	.st71{fill:#C4122E;}
	.st72{fill:#27409B;}
	.st73{clip-path:url(#SVGID_4_);}
	.st74{fill:#F4F4F4;}
	.st75{fill:#D3D2D2;}
	.st76{fill:#A7A5A6;}
	.st77{fill:#091453;}
	.st78{fill:none;stroke:#FFFFFF;stroke-width:6.6301;}
	.st79{clip-path:url(#SVGID_6_);}
	.st80{fill:#724314;}
	.st81{fill:#240B08;}
	.st82{fill:#018B4B;}
	.st83{fill:#A6181D;}
	.st84{fill:#592D09;}
	.st85{fill:#FFCE65;}
	.st86{fill:#5CBFEB;}
	.st87{fill:none;stroke:#000000;stroke-width:10;}
	.st88{fill:none;stroke:#000000;}
	.st89{fill:#B2B2B2;}
	.st90{fill:none;stroke:#000000;stroke-width:0.3;}
	.st91{fill:#00A650;stroke:#000000;stroke-width:2;}
	.st92{fill:#241F20;stroke:#241F20;stroke-width:9.375000e-02;}
	.st93{fill:#FFF200;stroke:#FFF200;stroke-width:9.375000e-02;}
	.st94{fill:#A68A26;}
	.st95{fill:none;stroke:#A68A26;stroke-width:4.792100e-02;stroke-miterlimit:3.8637;}
	.st96{fill:#211E1E;}
	.st97{fill:none;stroke:#211E1E;stroke-width:4.792100e-02;stroke-miterlimit:3.8637;}
	.st98{fill:#EB172B;}
	.st99{fill:none;stroke:#EB172B;stroke-width:4.792100e-02;stroke-miterlimit:3.8637;}
	.st100{fill:#A68A26;stroke:#A68A26;stroke-width:4.792100e-02;stroke-miterlimit:3.8637;}
	.st101{fill:#D1BF7F;}
	.st102{fill:none;stroke:#D1BF7F;stroke-width:4.792100e-02;stroke-miterlimit:3.8637;}
	.st103{fill:none;stroke:#FFFFFF;stroke-width:4.792100e-02;stroke-miterlimit:3.8637;}
	.st104{fill:#EB172B;stroke:#EB172B;stroke-width:4.792100e-02;stroke-miterlimit:3.8637;}
	.st105{fill:#ED2127;}
	.st106{fill:#FBEE23;}
	.st107{stroke:#000000;}
	.st108{fill:#CF1F44;}
	.st109{fill:#1B449C;}
	.st110{fill:#E03A3E;}
	.st111{fill:#E03A3E;stroke:#E03A3E;stroke-width:0.6565;}
	.st112{fill:none;stroke:#1B449C;stroke-width:0.7493;}
	.st113{fill:none;stroke:#1B449C;stroke-width:0.7567;}
	.st114{fill:#1B449C;stroke:#1B449C;stroke-width:0.6274;}
	.st115{fill:#1B449C;stroke:#1B449C;stroke-width:0.6755;}
	.st116{fill:#2E6ABD;stroke:#2E6ABD;stroke-width:0.617;}
	.st117{fill:#FFFFFF;stroke:#FFFFFF;stroke-width:0.6175;}
	.st118{fill:#ED1248;}
	.st119{fill:#2E6ABD;}
	.st120{fill:#FDE100;}
	.st121{fill:#CC0000;}
	.st122{fill:#211E1F;}
	.st123{fill:#ED1A3B;}
	.st124{fill:#00AEEF;}
	.st125{fill:#FFC40D;}
	.st126{fill:#22B24C;}
	.st127{fill:#FFC20E;}
	.st128{fill:#0A3F86;}
	.st129{fill:#005CA9;}
	.st130{fill:#FFE000;}
	.st131{fill:#E2001A;}
	.st132{opacity:0;}
	.st133{opacity:0;fill:#FFFFFF;}
	.st134{fill:#FFFFFF;stroke:#000000;}
	.st135{fill:#0060A9;}
	.st136{fill:#E32219;}
	.st137{fill:#FFED00;}
	.st138{fill:#1D9053;}
	.st139{fill:#52A600;}
	.st140{fill:#EE2523;}
	.st141{fill:#F7D117;}
	.st142{fill:#171796;}
	.st143{fill:#009959;}
	.st144{fill:#D42E12;}
	.st145{fill:#703824;}
	.st146{fill:#E5254E;}
	.st147{fill:#8AC3EE;}
	.st148{fill:#B19221;}
	.st149{fill:#F5C03E;}
	.st150{fill:#FF1119;}
	.st151{fill:#1E6BC0;}
	.st152{fill:#B4742A;}
	.st153{fill:#371B02;}
	.st154{fill:url(#SVGID_7_);}
	.st155{fill:url(#SVGID_8_);}
	.st156{fill:url(#SVGID_9_);}
	.st157{fill:url(#SVGID_10_);}
	.st158{fill:url(#SVGID_11_);}
	.st159{fill:url(#SVGID_12_);}
	.st160{fill:url(#SVGID_13_);}
	.st161{fill:url(#SVGID_14_);}
	.st162{fill:url(#SVGID_15_);}
	.st163{fill:url(#SVGID_16_);}
	.st164{fill:#EB2626;}
	.st165{fill:#E9C32C;}
	.st166{fill:#D9D9D9;}
	.st167{fill:#009C5E;}
	.st168{fill:#1C75BC;}
	.st169{fill:#611D5C;}
	.st170{fill:#E2B900;}
	.st171{fill:#004B95;}
	.st172{fill:#A4234B;}
	.st173{fill:#DB2F36;}
	.st174{fill:#FFDF00;}
	.st175{fill:#A38D44;}
	.st176{fill:#57175E;}
	.st177{fill:#AFDCFD;}
	.st178{fill:#0090C6;}
	.st179{fill:#DB5232;}
	.st180{fill:#23C1E0;}
	.st181{fill:#F1A92A;}
	.st182{fill:#167FB6;}
	.st183{fill:#FED75D;}
	.st184{fill:#378CBF;}
	.st185{fill:#3E9692;}
	.st186{fill:#E67F29;}
	.st187{fill:#D8B43C;}
	.st188{fill:#EF3B33;}
	.st189{fill:#24923D;}
	.st190{opacity:6.000001e-02;fill:#101010;enable-background:new    ;}
	.st191{fill:#00529F;}
	.st192{fill:#EE324E;}
	.st193{fill:#FEBE10;}
	.st194{fill:#143C8B;}
	.st195{fill:#FFE24A;}
	.st196{fill:#EC1D24;}
	.st197{fill:#E6A514;}
	.st198{fill:#FFDF1C;}
	.st199{fill:#EE3524;}
	.st200{fill:#B23428;}
	.st201{fill:#D18816;}
	.st202{fill:#0097D7;}
	.st203{fill:#ED1C23;}
	.st204{fill:#E30613;}
	.st205{fill:#FFE400;}
	.st206{fill:#C51A1B;}
	.st207{clip-path:url(#SVGID_19_);}
	.st208{clip-path:url(#SVGID_20_);fill:none;stroke:#000000;stroke-width:0.8131;stroke-miterlimit:3.864;}
	.st209{fill:#0093D5;}
	.st210{fill:#004B9D;}
	.st211{fill:#FCC24F;}
	.st212{fill:#009545;}
	.st213{fill:#0072BB;}
	.st214{fill:#C4974E;}
	.st215{fill:url(#path1292_1_);}
	.st216{fill:#004996;}
	.st217{fill:#FFE667;}
	.st218{fill:none;stroke:#005187;stroke-width:0.153;stroke-miterlimit:3.864;}
	.st219{fill:#005187;}
	.st220{clip-path:url(#SVGID_22_);}
	.st221{clip-path:url(#SVGID_24_);fill:none;stroke:#000000;stroke-width:0.296;stroke-miterlimit:3.864;}
	.st222{clip-path:url(#SVGID_26_);fill:#FFE667;}
	.st223{clip-path:url(#SVGID_28_);fill:none;stroke:#000000;stroke-width:8.300000e-02;stroke-miterlimit:3.864;}
	.st224{fill:none;stroke:#000000;stroke-width:0.153;stroke-miterlimit:3.864;}
	.st225{clip-path:url(#SVGID_30_);fill:#E70005;}
	.st226{clip-path:url(#SVGID_32_);fill:none;stroke:#E70005;stroke-width:0.296;stroke-miterlimit:3.864;}
	.st227{clip-path:url(#SVGID_34_);fill:#E70005;}
	.st228{clip-path:url(#SVGID_36_);fill:none;stroke:#E70005;stroke-width:0.296;stroke-miterlimit:3.864;}
	.st229{clip-path:url(#SVGID_38_);fill:#E70005;}
	.st230{clip-path:url(#SVGID_40_);fill:none;stroke:#E70005;stroke-width:0.296;stroke-miterlimit:3.864;}
	.st231{clip-path:url(#SVGID_42_);fill:#E70005;}
	.st232{clip-path:url(#SVGID_44_);fill:none;stroke:#E70005;stroke-width:0.296;stroke-miterlimit:3.864;}
	.st233{fill:#E70005;}
	.st234{fill:none;stroke:#000000;stroke-width:0.141;stroke-miterlimit:3.864;}
	.st235{fill:#00276D;}
	.st236{fill:#C49308;}
	.st237{fill:#179D33;}
	.st238{fill:#999999;}
	.st239{fill:#FF0000;}
	.st240{fill:#E31837;}
	.st241{fill:#06357A;}
	.st242{fill:#B4053F;}
	.st243{fill:#DCA43E;}
	.st244{fill:#005CA5;}
	.st245{fill:#FAC400;}
	.st246{fill:#004083;}
	.st247{fill:#A95932;}
	.st248{fill:none;stroke:#000000;stroke-width:1.2215;}
	.st249{fill:#E62627;}
	.st250{fill:#00458C;}
	.st251{fill:#E11B22;}
	.st252{fill:#00AB4E;}
	.st253{fill:#F47920;}
	.st254{fill:#C7C8CA;}
	.st255{fill:#E11515;}
	.st256{fill:#A4965F;}
	.st257{fill:#E51636;}
	.st258{fill:#EACC00;}
	.st259{fill:#4F846B;}
	.st260{fill:#E22227;}
	.st261{fill:#FAE700;}
	.st262{fill:url(#SVGID_45_);}
	.st263{fill:#666666;}
	.st264{fill:#FFF200;}
	.st265{fill:#00275D;}
	.st266{fill:#EF3E33;}
	.st267{fill:none;stroke:#00275D;stroke-width:2.632;}
	.st268{fill:#3F7652;}
	.st269{fill:#F1D261;}
	.st270{fill:#004D8F;}
	.st271{fill:#E7B137;stroke:#E7B137;stroke-miterlimit:10;}
	.st272{fill:#E7B137;}
	.st273{fill:#162577;}
	.st274{fill:#12692C;}
	.st275{fill:#D8141D;}
	.st276{fill:#AB830D;}
	.st277{fill:#0086CB;}
	.st278{fill:#001F42;}
	.st279{fill:#9A8F4A;}
	.st280{fill:#00559D;}
	.st281{fill:#FDDE00;}
	.st282{fill:#00924C;}
	.st283{fill:#233984;}
	.st284{fill:#FFD42E;}
	.st285{fill:#BA3733;}
	.st286{fill:#46714D;}
	.st287{fill:#221F1F;}
	.st288{fill:#00559E;}
	.st289{fill:#005C46;}
	.st290{fill:#FBC860;}
	.st291{fill:#D57C48;}
	.st292{fill:#040403;}
	.st293{fill:#4AB969;}
	.st294{fill:#8ED8F8;}
	.st295{fill:#FEC34E;}
	.st296{fill:#FFC95B;}
	.st297{fill:#00644C;}
	.st298{fill:#70B865;}
	.st299{fill:#CA6F44;}
	.st300{fill:#A8B8BE;}
	.st301{fill:#1C2C80;}
	.st302{fill:#E10321;}
	.st303{fill:none;stroke:#231F20;stroke-width:0.318;stroke-miterlimit:3.864;}
	.st304{fill:#D71920;}
	.st305{fill:#484749;}
	.st306{fill:#D9DBDC;}
	.st307{fill:#DF725A;}
	.st308{fill:#F2CABA;}
	.st309{fill:#E89C84;}
	.st310{fill:#264F99;}
	.st311{clip-path:url(#SVGID_47_);}
	.st312{fill:#161413;}
	.st313{fill:#ED1B26;}
	.st314{fill:#E60D2E;}
	.st315{fill:#FCD600;}
	.st316{fill:#004D91;}
	.st317{fill:#EAB412;}
	.st318{fill:#FDD31D;}
	.st319{fill:#EFB800;}
</style>
<g id="Background">
	<g>
		<defs>
			<rect id="SVGID_46_" x="10" width="80" height="100"/>
		</defs>
		<clipPath id="SVGID_2_">
			<use xlink:href="#SVGID_46_"  style="overflow:visible;"/>
		</clipPath>
		<g id="Layer_1" class="st5">
			<path class="st312" d="M50,100c-22,0-40-18-40-40.1C10,37.8,28,19.9,50,19.9c22,0,40,18,40,40.1C90,82,72,100,50,100z"/>
			<path class="st28" d="M50,21.1c-21.4,0-38.8,17.4-38.8,38.8c0,21.5,17.4,38.8,38.8,38.8c21.4,0,38.8-17.4,38.8-38.8
				C88.8,38.5,71.4,21.1,50,21.1z"/>
			<path class="st312" d="M79,59.9c0-9.7-4.8-18.4-12.2-23.6c-0.2-0.4-0.2-1-0.2-1.4c0-0.4-0.2-0.9-0.2-1.2c0-0.3-0.3-0.8-0.6-1
				c-0.1-0.3-0.6-0.9-0.6-1.1c-0.2-0.3-0.7-0.5-0.9-0.6c-0.3-0.1-0.5,0.1-0.8,0.3c-0.2,0.4-0.5,0.8-0.7,1.3
				c-0.2,0.4-0.5,0.8-0.7,1.1c-3.7-1.7-7.8-2.6-12.1-2.6c-5.2,0-10,1.4-14.3,3.8c-0.3-0.4-1-1.4-1.4-2c-0.7-0.7-0.9-0.7-1.6-0.7
				c-0.2,0-0.6,0.6-0.8,1.1c-0.2,0.8-0.3,1.6-0.4,2.4c-0.1,0.3-0.2,0.6-0.3,0.8c-0.1,0.6-0.2,1.2-0.2,1.7C24.9,43.3,21,51.2,21,59.9
				c0,16,13,29,29,29c3.8,0,7.4-0.7,10.8-2.1c0.2-0.1,0.3-0.1,0.4-0.2C71.6,82.3,79,72,79,59.9z"/>
			<path class="st313" d="M42.1,83.4c0-2.3-0.1-4.9-0.1-7.2c0-1.4-0.5-3.3-0.5-4.6c0-0.4-0.3-1.6-0.4-2.4c-0.2-0.9-0.8-2.1-0.8-3
				c0-1,0.2-2.1,0.2-3c0-0.5-0.2-1.1-0.3-1.6l0-1.5c-0.2-0.2-0.8-0.7-0.9-0.9c0,0-0.4-0.7-0.4-0.8c0-0.2-0.1-1.1-0.3-1.2
				c-0.2-0.5-0.8-0.7-1.3-0.9c-1.3-1.7-2.6-1.5-3.9-2.7c-0.3-0.5-0.6-0.9-0.8-1.4c-0.1-0.1-0.6-2.5-0.6-2.8c0-0.4-0.1-0.9-0.1-1.4
				l0.2-1.4c-0.3-0.8-0.5-1.5-0.7-2.3c0,0-0.2-2-0.2-2.1C31,41.1,31,40,31,38.9c-5.7,5.2-9.3,12.7-9.3,21c0,13.1,8.9,24.2,21,27.4
				c-0.3-0.6-0.4-1.1-0.5-1.4C42.2,85.3,42.1,84,42.1,83.4z"/>
			<path class="st313" d="M39.8,40c0.9,1,2.9,2.6,3.7,3.5c0,0,0.7,0.8,1,1.4c0,0.2,0.1,0.4,0.2,0.6c0.2,0.2,0.5,0.4,0.5,0.5
				c0,0.1,0.1,0.5,0.1,0.7l0.7,0.3l0.2-0.4c0-0.1,0.6-0.5,0.8-0.5c0.4,0,0.4,0.1,0.4,0.5c0.2,0,0.4-0.2,0.6-0.2
				c0.2,0,0.4,0.2,0.6,0.1c0.2,0,0.4-0.2,0.5-0.2c0.4,0,0.6,0.3,0.9,0.5c0.3,0,0.5,0.1,0.8,0.2c0.2-0.2,0.5-0.4,0.8-0.4
				c0.4,0,0.9,0.4,1.4,0.5c0.3,0,0.8,0.1,0.9,0.1c0.5,0,1.1-0.5,1.7-0.5c0.3,0.1,0.6,0.2,0.9,0.4l0.5,0.1c0.1-0.2,0.1-0.3,0.1-0.5
				c0-0.1,0.1-0.2,0.2-0.3c-0.1-0.3-0.2-0.7-0.2-1c0-0.3,0-0.5,0-0.7c0.1-0.7,0-1.7,0.3-2.4c0.1-0.2,0.2-0.4,0.3-0.7
				c0.1-0.4,0.1-0.7,0.1-1.1c0.1-0.3,0.3-0.6,0.4-0.9c0.5-0.6,1-1.3,1.4-1.9c0.1-0.1,0.2-0.1,0.3-0.2c0.2-0.7,0.5-1.5,0.9-2.1
				c0.3-0.4,0.6-0.7,0.9-1.1c0-0.1,0.1-0.2,0.2-0.2c-3.6-1.6-7.5-2.5-11.7-2.5c-5.1,0-9.8,1.3-13.9,3.7c0.4,0.6,1,1.6,1.5,2.2
				C38.2,38.3,39.1,39.4,39.8,40z"/>
			<path class="st313" d="M78.3,59.9c0-9.1-4.3-17.3-11-22.5c0,0.1,0,0.3,0,0.4c0,0.7,0,1.5,0,1.6c0,0.9,0,1.8,0,2.6L67,46.1
				c0,0.3,0.2,0.6,0.2,0.9c0.1,1.1,0.4,2.3,0.3,3.5c-0.5,1.5-0.9,2.4-1.4,3.2c-0.2,0.5-0.8,1-1.4,1.6c-0.5,0.6-1,1-1.5,1.6v0.3v0.4
				l0.1,0.2l0,0.2l0.1,0.4l0,0.4l0,0.2c0.1,1,0.1,1.9-0.2,3l-0.2,0.6l-0.2,0.3c-0.1,0.3,0,0.7-0.1,1.1l0,0.6l0.5,3.3
				c0.2,0.7,1.9,6.9,1.9,6.9l0.3,0.5c0.4,0.4,2.1,3,2.3,3.2c0.2,0.5,0.9,1.7,1.3,2.4C74.8,75.5,78.3,68.1,78.3,59.9z"/>
			<path class="st312" d="M79.8,39l-1.7,0.5l-2.9,0.9l-1.8,0.6l0.8,1.3l1-0.3l0.6-0.2l1,1.5l-1.1,1.3l0.9,1.3l1.5-1.9l2.7-3.4
				L79.8,39z M78.6,41.3l-0.4,0.5l-0.5,0.6l-0.8-1.2l1.3-0.4l0.1,0c0.4-0.1,0.8-0.3,1.2-0.5l0,0C79.2,40.6,78.8,41,78.6,41.3"/>
			<path class="st312" d="M38.2,28.4L38.2,28.4c0.6-0.5,0.7-1.2,0.5-1.7c-0.2-0.5-0.6-0.8-1.1-0.9c0,0-0.1,0-0.1,0
				c-0.3,0-0.6,0-1,0.1c-0.3,0.1-0.6,0.2-0.9,0.3c-0.6,0.3-1.3,0.6-1.7,0.8l0,0l0,0.1l2.3,5.8c0.1,0,0.2,0,0.3-0.1
				c0.3-0.1,0.6-0.2,1.1-0.4c0.1,0,0.1,0,0.2-0.1c1.2-0.5,1.8-1,2.1-1.5c0.3-0.5,0.3-1,0.1-1.5C39.7,28.7,39,28.3,38.2,28.4z
				 M36.1,28.8l-0.6-1.4c0.1-0.1,0.3-0.2,0.6-0.3c0.1-0.1,0.3-0.1,0.4-0.1c0.4-0.1,0.7,0.1,0.9,0.4c0.2,0.4-0.1,0.9-0.8,1.2l-0.1,0
				L36.1,28.8z M37.7,31.3c-0.1,0-0.1,0-0.2,0.1c-0.1,0.1-0.3,0.1-0.4,0.1l-0.7-1.7l0.5-0.2c0.2-0.1,0.4-0.1,0.6-0.2
				c0.4-0.1,0.8,0.1,1,0.5C38.8,30.6,38.4,31,37.7,31.3"/>
			<path class="st312" d="M33.3,31.6l-2-3L30,29.4l2.1,3.1c0.6,0.9,0.6,1.6,0,2.1c-0.6,0.4-1.3,0.2-1.9-0.7l-1.8-2.7l-0.3-0.4
				l-1.2,0.8l1.5,2.2l0.5,0.8c1.2,1.7,2.4,1.9,3.8,1c0.7-0.5,1.1-1,1.2-1.7c0.1-0.3,0.1-0.5,0-0.8C33.8,32.6,33.6,32.1,33.3,31.6z"
				/>
			<path class="st312" d="M28.3,37.4l-1.2,1.2l-3-2.9L23.4,35l-1,1.1l1.8,1.7l2.9,2.8l1.3-1.4l1.5-1.5l-0.9-0.9L28.3,37.4z"/>
			<path class="st312" d="M24.4,42.2c-0.1,0.1-0.1,0.2-0.2,0.3c-0.7,0.8-1.7,0.9-2.7,0.3c-1.2-0.8-1.3-1.9-0.7-2.9
				c0.3-0.4,0.6-0.7,0.9-0.9l-0.8-0.9c-0.3,0.1-0.7,0.6-1.1,1.2c-1,1.7-0.8,3.7,1,4.8c1.1,0.7,2.3,0.8,3.4,0.1
				c0.4-0.3,0.8-0.7,1.1-1.2c0.4-0.7,0.6-1.3,0.6-1.6L24.8,41C24.8,41.3,24.6,41.8,24.4,42.2z"/>
			<path class="st312" d="M47.2,23.4l-4.9,0.7l0.2,1.2l1.7-0.2l0.7,5.2l1.5-0.2l-0.7-5.2l1.7-0.2L47.2,23.4z"/>
			<path class="st312" d="M77,35.3l-1-0.9l-0.9,0.9l-0.4,0.5c-0.7,0.7-1.2,1.4-1.8,2.1l0,0c0.3-0.7,0.6-1.6,0.7-2.3l0.6-2.7
				l-1.2-1.2l-4.2,4.5l-0.2,0.2l0.2,0.2l0.8,0.7l1.3-1.4c0.7-0.8,1.3-1.5,1.9-2.1l0,0c-0.3,0.8-0.5,1.7-0.7,2.4L71.5,39l1.1,1
				l2.6-2.8L77,35.3z"/>
			<path class="st312" d="M63.2,27.9l0.6-1.8l-0.6-0.2l-0.7-0.3l-1.2,3.5c-0.4,1.1-0.9,1.5-1.7,1.2c-0.7-0.2-0.9-0.9-0.6-2l1.2-3.5
				l-1.4-0.5l-1.2,3.4c-0.7,2-0.1,3.1,1.5,3.7c1.6,0.6,2.9,0,3.5-1.9L63.2,27.9z"/>
			<path class="st312" d="M49.3,23.4h1.5v6.5h-1.5V23.4z"/>
			<path class="st312" d="M69.1,28.8l-0.2-0.1l-1.5-0.8l-0.7,0.7l-3.6,3.4l-0.6,0.6l0.6,0.3l0.7,0.4l1.2-1.2l1.6,0.9l-0.4,1.7
				l0.4,0.2l1,0.5l1.2-5.8L69.1,28.8z M67.4,30.5L67,31.9l-0.3-0.2l-0.9-0.5l0.9-1l0.1-0.1c0.3-0.3,0.6-0.7,0.9-0.9l0,0
				C67.6,29.6,67.4,30.1,67.4,30.5"/>
			<path class="st312" d="M54,27.6c-0.1,1-0.6,1.2-1.2,1.1c-0.3,0-0.5-0.1-0.7-0.2l-0.3,1.1c0.3,0.1,0.7,0.3,1,0.3
				c1.4,0.2,2.4-0.3,2.6-2.1l0.6-4.1l-1.4-0.2L54,27.6z"/>
			<path class="st312" d="M27.1,86.1l3.2-0.8l0.5-0.1l0.4-0.5L30.3,84l-1.6-1.4l-0.6,0.7l1.5,1.3l0,0L27,85.2l-1.2,0.3l-0.4,0.4
				l1.5,1.3l1.2,1l0.6-0.7L27.1,86.1L27.1,86.1z"/>
			<path class="st312" d="M37.8,88.7l-0.6-0.3l-0.3-0.2l-1.2,2.4c-0.4,0.7-0.8,0.9-1.3,0.7c-0.5-0.3-0.5-0.8-0.2-1.5l1.2-2.4
				l-0.9-0.5l-1,1.8l-0.2,0.5c-0.6,1.1-0.5,1.9,0.2,2.5c0.1,0.1,0.2,0.2,0.4,0.3c1.1,0.6,2,0.3,2.7-1l0.6-1.2L37.8,88.7z"/>
			<path class="st312" d="M43.6,90.6l-0.9-0.3l-0.4,1.3c-0.2,0.7-0.4,1.3-0.5,1.9l0,0c0-0.6-0.1-1.2-0.3-1.7l-0.4-1.9L40,89.5
				l-1,3.3l-0.3,1.1L39,94l0.6,0.2l0.4-1.3c0.2-0.7,0.4-1.3,0.5-1.9l0,0c0.1,0.6,0.2,1.2,0.3,1.8l0.4,2l1,0.3l1.3-4.2L43.6,90.6
				L43.6,90.6L43.6,90.6z"/>
			<path class="st312" d="M33.5,87.6L33.5,87.6l0.7-0.5c-0.1-0.2-0.3-0.4-0.6-0.7c-0.1,0-0.1-0.1-0.2-0.1c-1-0.7-2.2-0.8-3.1,0.1
				c-0.1,0.1-0.3,0.3-0.4,0.4c-0.7,1-0.7,2.2,0.4,3.1c0.1,0.1,0.1,0.1,0.2,0.2c0.5,0.3,0.9,0.5,1.1,0.5l0.4-0.8
				c-0.2-0.1-0.5-0.2-0.8-0.4c-0.8-0.5-0.9-1.3-0.3-2.1c0.6-0.8,1.4-0.9,2.1-0.4C33.2,87.2,33.4,87.4,33.5,87.6z"/>
			<path class="st312" d="M39.4,89.2L39,89.1l-0.6-0.3l-1.1,2.8l-0.6,1.4l0.6,0.2l0.4,0.2l1.4-3.4L39.4,89.2z"/>
			<path class="st312" d="M20.7,73.9l1.3-0.6l-0.4-1l-0.8,0.4L17.9,74l-0.6,0.3l0.6,1.4l0.5,1.2l0.8-0.4l-0.7-1.7L20.7,73.9z"/>
			<path class="st312" d="M27,82.2l0.9,0.9l0.6-0.6L27,80.9l-0.9-1l-0.6,0.6l0.8,0.9l-2.4,2.2L23.6,84l0.3,0.4l0.4,0.4L27,82.2
				L27,82.2z"/>
			<path class="st312" d="M17.9,67.5l1.9,0.7l-0.2-1.2l-0.9-0.3c-0.3-0.1-0.5-0.1-0.8-0.2l0,0c0.2-0.1,0.4-0.3,0.7-0.5l0.8-0.5
				l-0.2-1.2l-1.3,1.1l-0.7,0.6l-2.5-1l0.2,1.2l0.9,0.2c0.3,0.1,0.6,0.2,0.9,0.2l0,0c-0.2,0.2-0.5,0.3-0.8,0.5l-0.8,0.5l0.2,1.2
				l2.1-1.7L17.9,67.5z"/>
			<path class="st312" d="M19.1,72.8c0.7-0.2,1.3-0.7,1.5-1.4c0.2-0.4,0.2-0.9,0-1.4l0,0c-0.4-1.2-1.5-1.8-2.7-1.5
				c-0.1,0-0.2,0-0.2,0.1c-1.2,0.4-2,1.5-1.6,2.8c0.3,0.9,0.9,1.5,1.8,1.6C18.3,73,18.7,72.9,19.1,72.8z M16.9,71.2
				c-0.2-0.6,0.2-1.2,1-1.5c0,0,0.1,0,0.1,0c0.9-0.3,1.6-0.1,1.8,0.6c0.2,0.7-0.3,1.3-1.1,1.5c-0.3,0.1-0.6,0.1-0.8,0.1
				C17.5,71.8,17.1,71.6,16.9,71.2"/>
			<path class="st312" d="M25.9,79.6l-0.6-0.8l-1.4,1.1l-1,0.8l-1.3,1l0.6,0.8l0.7-0.5l1-0.8L25.9,79.6z"/>
			<path class="st312" d="M22.9,79.7c0,0,0.1,0,0.1-0.1c0.4-0.2,0.6-0.5,0.8-0.8c0.4-0.6,0.5-1.4,0-2.2c0,0,0,0,0-0.1
				c-0.3-0.4-0.6-0.7-0.9-0.9c-0.7-0.3-1.5-0.2-2.2,0.2c0,0,0,0-0.1,0c-1.1,0.7-1.6,1.9-0.8,3.1c0.2,0.4,0.6,0.7,0.9,0.9
				C21.3,80.2,22.1,80.2,22.9,79.7z M20.7,78.8c-0.1-0.1-0.1-0.1-0.2-0.2c-0.3-0.4-0.2-0.9,0.2-1.3c0.1-0.2,0.3-0.3,0.5-0.4
				c0.6-0.4,1.3-0.5,1.7-0.1c0.1,0.1,0.2,0.2,0.2,0.3c0.3,0.4,0.1,1-0.2,1.4c-0.1,0.1-0.3,0.3-0.5,0.4
				C21.8,79.2,21.1,79.2,20.7,78.8"/>
			<path class="st312" d="M80.7,69l0.4-1.2l-0.8-0.3l-0.9,2.8l-0.2,0.5l0.2,0.1l0.7,0.2l0.4-1.2l1.9,0.6l1.7,0.6l0.3-1l-2-0.7
				L80.7,69z"/>
			<path class="st312" d="M75.3,78.1l-0.6,0.9l1.6,1.2l2.1,1.5l0.6-0.9l-2.7-1.9L75.3,78.1z"/>
			<path class="st312" d="M72.8,83.4l-1.2-0.6l-0.3-0.2l-0.2,0.2l-0.8,0.8l0.8,1.5l0.5,1l0.9,1.8l0.3-0.3l0.5-0.5l-0.5-0.9L72.7,86
				l0.1-0.1l0.9-0.8l0.4,0.2l0.7,0.4l0.8-0.8L74,84.1L72.8,83.4z M72.8,84.8l-0.5,0.5l-0.5-0.9c-0.1-0.1-0.1-0.2-0.2-0.3
				c-0.1-0.2-0.2-0.3-0.3-0.5l0,0l0.3,0.2c0.2,0.1,0.4,0.2,0.5,0.3l0.7,0.4l0.2,0.1L72.8,84.8z"/>
			<path class="st312" d="M79.5,78.4l-0.2-0.1l-0.8-0.5l0.8-1.2l0.1-0.2l-0.1-0.1L78.7,76l-0.9,1.4L77,76.9l1-1.5l-0.7-0.5l-1,1.5
				l-0.5,0.9l0.5,0.3l3,1.9l0.3,0.2l1.6-2.5l-0.7-0.5L79.5,78.4z"/>
			<path class="st312" d="M76.3,82.8L76.1,83l-2-1.7l-0.8-0.7l-0.5,0.5l-0.2,0.3l0.2,0.2l1.3,1.1l2,1.7l0.2-0.3l1.6-2l-0.7-0.6
				L76.3,82.8z"/>
			<path class="st312" d="M84.4,65.1L84.1,67L83,66.8l0.3-1.7L82.4,65l-0.2,1.3l-0.1,0.4l-0.9-0.2l0.3-1.8l-0.8-0.1l-0.4,2.8l2,0.3
				l2.5,0.4l0.5-2.9L84.4,65.1z"/>
			<path class="st312" d="M79.3,71.3L79,71.1L78.6,72l0.7,0.3l0.5,0.2c0.6,0.3,1.2,0.5,1.8,0.7l0,0c-0.6,0-1.2,0-1.7,0l-0.5,0.1
				l-1.4,0.1l-0.5,1.1l1.9,0.8l2.3,1l0.4-0.9l-1.3-0.6c-0.5-0.2-1-0.4-1.4-0.6c-0.1-0.1-0.3-0.1-0.4-0.2l0,0c0.1,0,0.3,0,0.4,0
				c0.5,0,1,0,1.4-0.1l1.5-0.1l0.5,0l0.4-1l-1-0.4L79.3,71.3z"/>
			<path class="st312" d="M48.5,91l-1,0l-0.2,4.6l2.9,0.1l0-0.9l-1.8-0.1L48.5,91z"/>
			<path class="st312" d="M52,94.8l-0.1-1.1l1.7-0.1l-0.1-0.8l-1.7,0.1l-0.1-1l1.8-0.2l-0.1-0.9l-2.8,0.2l0.4,4.6l2.9-0.3l-0.1-0.9
				L52,94.8z"/>
			<path class="st312" d="M71.3,87.5c0,0.1-0.1,0.1-0.2,0.2c-0.1,0.1-0.3,0.3-0.4,0.4c-0.8,0.5-1.5,0.4-2.1-0.4
				c-0.6-0.8-0.4-1.6,0.3-2.1c0.3-0.2,0.6-0.3,0.8-0.4l-0.3-0.8c-0.2,0-0.6,0.2-1,0.5c-1.1,0.8-1.5,2.2-0.6,3.5
				c0.8,1.1,2,1.4,3.3,0.5c0,0,0,0,0.1,0c0.2-0.2,0.4-0.3,0.5-0.4c0.1-0.1,0.2-0.3,0.3-0.4l-0.3-0.3L71.3,87.5z"/>
			<path class="st312" d="M43.7,90.6L43.7,90.6L43.7,90.6L43.6,91l-0.1,0.4l0.1,0l1.2,0.2l-0.5,3.7l1,0.1l0.5-3.7l1.2,0.2l0.1-0.9
				L43.7,90.6L43.7,90.6z"/>
			<path class="st312" d="M56.1,92.4c-0.6-0.1-0.9-0.2-1-0.5c0-0.2,0.1-0.5,0.6-0.6c0.4-0.1,0.8,0,1,0l0.1-0.9
				c-0.3-0.1-0.7-0.1-1.2,0c-1.1,0.2-1.6,0.9-1.5,1.7c0.1,0.7,0.7,1,1.5,1.1c0.6,0.1,0.8,0.2,0.9,0.5c0.1,0.3-0.2,0.5-0.6,0.6
				c-0.4,0.1-0.9,0-1.2-0.1l-0.1,0.9c0.3,0.1,0.8,0.1,1.3,0.1c1.2-0.2,1.7-1,1.6-1.7C57.4,92.9,57,92.5,56.1,92.4z"/>
			<path class="st312" d="M65.1,91.4l-0.5-1l1.5-0.8l-0.4-0.8l-1.5,0.8l-0.4-0.8l1.6-0.8l-0.4-0.8l-2.1,1.1l-0.4,0.2l0.4,0.7
				l1.8,3.4l2.6-1.4l-0.4-0.8L65.1,91.4z"/>
			<path class="st312" d="M62.8,90.3c-0.3-0.5-0.7-0.8-1.1-0.9c-0.3-0.1-0.5-0.1-0.8-0.1c-0.3,0-0.7,0.1-1.1,0.3
				c-0.5,0.2-1,0.4-1.3,0.6l1.5,4.3c0.2,0,0.5-0.1,1-0.3c0.1,0,0.1,0,0.2-0.1c0.8-0.3,1.4-0.6,1.7-1.1c0,0,0.1-0.1,0.1-0.1
				c0.3-0.5,0.4-1.2,0.1-2C62.9,90.6,62.9,90.4,62.8,90.3z M61,93.2c0,0-0.1,0-0.1,0c-0.1,0-0.2,0-0.2,0.1l-1-2.9
				c0.1,0,0.2-0.1,0.4-0.2c0.3-0.1,0.5-0.1,0.8-0.1c0.5,0.1,0.9,0.4,1.1,1C62.3,92.2,61.9,92.9,61,93.2"/>
			<path class="st313" d="M83,53.8c0.8,0,1.4,0.6,1.4,1.4c0,0.8-0.6,1.4-1.4,1.4c-0.8,0-1.4-0.6-1.4-1.4
				C81.6,54.4,82.3,53.8,83,53.8z"/>
			<path class="st313" d="M17,53.8c-0.8,0-1.4,0.6-1.4,1.4c0,0.8,0.6,1.4,1.4,1.4c0.8,0,1.4-0.6,1.4-1.4
				C18.4,54.4,17.7,53.8,17,53.8z"/>
			<path class="st312" d="M42.8,87.4c-0.3-0.6-0.5-1.1-0.5-1.5c-0.1-0.6-0.2-1.8-0.2-2.5c0-2.3-0.1-4.9-0.1-7.2
				c0-1.4-0.5-3.3-0.5-4.6c0-0.4-0.3-1.6-0.4-2.4c-0.2-0.9-0.8-2.1-0.8-3c0-1,0.2-2.1,0.2-3c0-0.5-0.2-1.1-0.3-1.6l0-1.5
				c-0.2-0.2-0.8-0.7-0.9-0.9c0,0-0.4-0.7-0.4-0.8c0-0.2-0.1-1.1-0.3-1.2c-0.2-0.5-0.8-0.7-1.3-0.9c-1.3-1.7-2.6-1.5-3.9-2.7
				c-0.3-0.5-0.6-0.9-0.8-1.4c-0.1-0.1-0.6-2.5-0.6-2.8c0-0.4-0.1-0.9-0.1-1.4l0.2-1.4c-0.3-0.8-0.5-1.5-0.7-2.3c0,0-0.2-2-0.2-2.1
				C31,41.1,31,39.8,31,38.7c0-0.9,0.1-1.6,0.3-2.5c0.1-0.3,0.2-0.6,0.3-0.8c0.1-0.8,0.3-1.6,0.4-2.4c0.2-0.5,0.5-1.1,0.8-1.1
				c0.7,0,0.9,0.1,1.6,0.7c0.4,0.7,1.4,2,1.5,2.2c0.3,0.4,1.2,1.9,1.8,2.6c0.5,0.8,1.5,1.9,2.1,2.5c0.9,1,2.9,2.6,3.7,3.5
				c0,0,0.7,0.8,1,1.4c0,0.2,0.1,0.4,0.2,0.6c0.2,0.2,0.5,0.4,0.5,0.5c0,0.1,0.1,0.5,0.1,0.7l0.7,0.3l0.2-0.4c0-0.1,0.6-0.5,0.8-0.5
				c0.4,0,0.4,0.1,0.4,0.5c0.2,0,0.4-0.2,0.6-0.2c0.2,0,0.4,0.2,0.6,0.1c0.2,0,0.4-0.2,0.5-0.2c0.4,0,0.6,0.3,0.9,0.5
				c0.3,0,0.5,0.1,0.8,0.2c0.2-0.2,0.5-0.4,0.8-0.4c0.4,0,0.9,0.4,1.4,0.5c0.3,0,0.8,0.1,0.9,0.1c0.5,0,1.1-0.5,1.7-0.5
				c0.3,0.1,0.6,0.2,0.9,0.4l0.5,0.1c0.1-0.2,0.1-0.3,0.1-0.5c0-0.1,0.1-0.2,0.2-0.3c-0.1-0.3-0.2-0.7-0.2-1c0-0.3,0-0.5,0-0.7
				c0.1-0.7,0-1.7,0.3-2.4c0.1-0.2,0.2-0.4,0.3-0.7c0.1-0.4,0.1-0.7,0.1-1.1c0.1-0.3,0.3-0.6,0.4-0.9c0.5-0.6,1-1.3,1.4-1.9
				c0.1-0.1,0.2-0.1,0.3-0.2c0.2-0.7,0.5-1.5,0.9-2.1c0.3-0.4,0.6-0.7,0.9-1.1c0.4-0.6,0.9-1.3,1.3-1.9c0.2-0.4,0.5-0.8,0.7-1.3
				c0.3-0.2,0.5-0.4,0.8-0.3c0.2,0.1,0.7,0.4,0.9,0.6c0,0.3,0.5,0.9,0.6,1.1c0.3,0.3,0.6,0.7,0.6,1c0,0.3,0.2,0.8,0.2,1.2
				c0,0.6,0,1.2,0.4,1.7c0,0.1,0.3,0.8,0.3,1.3c0,0.7,0,1.5,0,1.6c0,0.9,0,1.8,0,2.6L67,46.1c0,0.3,0.2,0.6,0.2,0.9
				c0.1,1.1,0.4,2.3,0.3,3.5c-0.5,1.5-0.9,2.4-1.4,3.2c-0.2,0.5-0.8,1-1.4,1.6c-0.5,0.6-1,1-1.5,1.6v0.3v0.4l0.1,0.2l0,0.2l0.1,0.4
				l0,0.4l0,0.2c0.1,1,0.1,1.9-0.2,3l-0.2,0.6l-0.2,0.3c-0.1,0.3,0,0.7-0.1,1.1l0,0.6l0.5,3.3c0.2,0.7,1.9,6.9,1.9,6.9l0.3,0.5
				c0.4,0.4,2.1,3,2.3,3.2c0.3,0.6,1.2,2.3,1.6,2.8c-1,0.9-2.3,2-3,2.5c-0.4,0.3-1.6,1.3-2.8,1.8c-0.9,0.4-2,1-2.5,1.3
				c-0.3,0.2-2.6,1-3.6,1.2c-0.8,0.2-3,0.6-3.9,0.7c-1,0.1-2.3,0.1-3.6,0.1c-1,0-2-0.1-2.8-0.2C46.1,88.3,44.2,87.8,42.8,87.4z"/>
			<path class="st28" d="M55.7,87l0.1-0.1L55.7,87z"/>
			<path class="st28" d="M55.9,87c0.1-0.3,0.4-0.9,0.4-0.9c0.5-0.7,2.1-3,2.4-3.5c0.2-0.1,0.4-0.5,0.5-0.7c-1.4,0.5-2.7,1.5-4.1,2.1
				c0,0-0.3-1.7-0.3-3.1c0-0.9,0-1.7,0-2.2c0-0.5,0.1-0.9,0.3-1.2c1.1-2.9,1.6-3.4,2.6-4.1c0.9,0.5,1.7,0.3,2.5-0.3
				c0.4-0.4,0.3-0.9,0.3-1.4c-0.1-0.3-0.2-0.2,0-0.5c0.1-0.3,0.2-0.8,0.2-1.1c-0.1-0.5,0.3-0.8,0.3-1.3c-0.1-0.2-0.3-0.5-0.4-0.7
				c0-0.1,0.2-0.2,0.2-0.4c0-0.1-0.1-0.3-0.2-0.4c-0.1-0.1,0-0.3,0.1-0.4c0-0.2,0-0.4,0.2-0.6c0-0.3,0.4-0.8,0.6-1l0.7-1.2l0.2,0.3
				l0.1,0.4c0,0.1,0.1,0.4,0.1,0.5c0.3,1.2,0.6,2.6,0.9,3.9c0.4,1.7,0.9,3.6,0.9,5.2l0.1,0.3c0.8,0.7,1.7,1.8,2.4,2.9
				c0.8,1.2,1.3,2.3,1.8,3.5c-1.2,1.1-3.1,2.6-4.5,3.2c-2.3,0.9-4.5,1.9-6.3,2.2C57.6,86.6,56.6,86.8,55.9,87z"/>
			<path class="st28" d="M52.4,79.3L52.4,79.3c-0.2,0-0.2-0.1-0.2-0.3c0-0.2,0.3-0.5,0.5-0.2C52.8,78.9,52.7,79.2,52.4,79.3z"/>
			<path class="st28" d="M53,78.4l-0.2,0c0-0.1,0-0.4,0-0.5l0.1-0.1c0.2-0.2,0.4-0.6,0.7-0.9c0.1-0.3,0.5-0.9,0.9-1
				c0,0.1,0,0.2-0.1,0.3c-0.2,0.3-0.4,0.5-0.5,0.9C53.7,77.6,53.5,78,53,78.4z"/>
			<path class="st28" d="M52.4,77.6v-0.2l0.2-0.2l-0.2-0.2l0.2-0.2l0,0c0.1-0.3,0.4-0.7,0.6-1c0.3-0.4,0.7-0.8,1.1-1l0.2,0.4
				l0.4-0.3L55,74.9l-0.5,0.4l0.1-0.2l-0.4,0.3c-0.2,0.2-0.4,0.5-0.5,0.7c-0.2,0.3-0.4,0.6-0.6,0.9L52.4,77.6z"/>
			<path class="st28" d="M45.5,75l0-0.1c0.2-0.1,0.2,0,0.2,0.2L45.5,75z"/>
			<path class="st28" d="M45.4,74.8l0.4-1.1l0.5-0.7l0.1-0.3l0.2-0.1l0.3-0.4l0.4-0.3h0.2c-0.2,0.2-0.4,0.4-0.6,0.7l-0.2,0.3h-0.2
				v0.1l0.2-0.3c0.2,0,0.2,0.3,0.3,0.4h-0.3l-0.2,0.3c-0.1,0.2-0.1,0.4-0.2,0.6c-0.2,0-0.2-0.1-0.2-0.2c-0.2,0.3-0.4,0.6-0.5,0.9
				L45.4,74.8z"/>
			<path class="st28" d="M45.9,74.5l-0.1-0.2l0.2,0.1L45.9,74.5L45.9,74.5z"/>
			<path class="st28" d="M59.1,73.2h-0.2l0.3-0.1l-0.1-0.3c-0.2,0-0.7-0.3-0.8-0.3c-0.2,0-1-1.1-1.1-1.4c0.4,0,1.2,1.2,2.2,1.1
				l0.4-0.4c0.2,0,0.2-0.2,0.3-0.1c0.1,0.1,0,0.3,0,0.5c0,0.1,0,0.3-0.1,0.5c-0.2,0-0.3,0.1-0.4,0.2c0,0.2,0,0.2-0.2,0.3
				c0,0.2-0.1,0-0.2,0.1H59.1z"/>
			<path class="st28" d="M48.6,71.9c-0.2-0.2-0.7-0.7-0.7-1c0.8,0.7,1.5,1.3,2.3,1.6c0.6,0.2,1.4,0.2,2.2,0.2c1.1-0.1,1-0.2,2-0.7
				l0,0.4c-0.6,0.8-1,0.4-2,0.7c-0.6,0.2-1.8,0.2-2.2,0C49.2,72.1,49,72.5,48.6,71.9z"/>
			<path class="st28" d="M60.1,71.1l0-0.4h-0.2l0.2-0.3h0.1l0.1,0.8L60.1,71.1z"/>
			<path class="st28" d="M57.7,69.9c0.1,0.1,0.2,0.2,0.2,0.3c0.2,0.1,0.5,0.4,0.7,0.5c0.2,0.1,0.5,0.3,0.8,0.4
				c0,0.2-0.1,0.1-0.2,0.1c-0.2-0.1-0.9-0.5-1.2-0.6C57.9,70.4,57.7,70.3,57.7,69.9z"/>
			<path class="st28" d="M51.6,72l-0.3-0.1l-0.6-0.1l-0.5-0.1l-0.8-0.3l-0.3-0.1l-0.3-0.4l-0.4-0.2l-0.3-0.3l0-0.2l0.3,0.2
				c0.3,0.2,0.5,0.5,0.9,0.7l0.3,0l0.4,0.3c0.4,0.1,0.9,0.1,1.3,0.1h0.3L51.6,72z"/>
			<path class="st28" d="M50.5,70.9l-0.2,0l-0.9-0.6h0.3l0.6,0.2c0.3,0,0.7,0.2,0.9,0.1l0.7,0.1l0.2,0.1l-0.3,0.2L50.5,70.9z"/>
			<path class="st28" d="M47.2,70.8l-0.6-0.6c0-0.3-1.7-2.9-2-3.4l-0.3-0.6c0.1,0,0.4-0.2,0.2-0.2l0.3,0.1c0.1,0.5,0.6,0.8,0.8,1.2
				c0.3,0.5,0.5,1.1,0.8,1.7l0.4,0.5l0.3,0.4l0.3-0.3l-0.1,0.6l0.5-0.4l-0.3,0.6L47.2,70.8z"/>
			<path class="st28" d="M59.6,70.2c-0.2-0.1-0.3-0.1-0.5-0.2c-0.3,0.1-1-0.4-1-0.5c0-0.1-0.1-0.3-0.2-0.4c0.4,0.2,0.8,0.4,1.2,0.6
				h0.5c0.1,0,0.2-0.2,0.3-0.3c0.3,0.2,0.3,0.2,0.3,0.6c-0.2,0-0.4-0.1-0.3-0.2c0,0,0,0,0,0C59.7,70,59.6,70.1,59.6,70.2z"/>
			<path class="st28" d="M52.7,70.5c-0.1-0.2,0.3-0.1,0.2,0L52.7,70.5z"/>
			<path class="st28" d="M47.9,69.9l-0.1-0.2H48L47.9,69.9z"/>
			<path class="st28" d="M51.8,69.8c-0.2-0.1-0.6-0.1-0.9-0.1v-0.2c-0.3,0-0.3-0.3-0.7-0.2c0,0,0-0.1,0-0.2l-0.7-0.6l0.4,0.1
				c0.1,0.1,0.8,0.4,1,0.4c0.3,0.1,1.4,0.2,1.5,0.4l0.1,0.3C52.4,69.9,52.1,69.9,51.8,69.8z"/>
			<path class="st28" d="M60.3,69.8v-0.3L59.7,69l-0.1-0.4l0.5,0.2l-0.2-0.4L59.5,68v-0.2l0.7-0.6l0.1,0.4l-0.2,0.2
				c0.1,0.1,0.3,0.1,0.3,0.2l0,0.4c0.1,0.3,0.4,0.5,0.3,0.8L60.3,69.8z"/>
			<path class="st28" d="M57.1,67.2l0.1-1.1l0.2-0.3V66l0.1,0.8c0,0.1,0,0.4,0,0.4c0,0.2,0.5,0.5,0.6,0.5c0.3,0,0.7,0,1.1-0.1
				c0.1,0,0.5-0.5,0.5-0.5c0.1-0.2,0.3-1.1,0.4-1.2c-0.1,0.2,0.1,0.8,0,1.1c-0.2,0.5-0.4,0.9-0.9,1.2C58,68.1,57.7,68.2,57.1,67.2z"
				/>
			<path class="st28" d="M52.3,68.1h-0.1l0-0.3l0.3,0.3H52.3z"/>
			<path class="st28" d="M52.8,65.6l0.3-0.9c0.2-0.2,0.8-0.6,0.8-0.9l0.4,0l0-0.2l0.6,0.2c0.2,0.2,0.2,0.3,0.3,0h0.2l0.5,0.3
				l0.5-0.3l0.7,0.2c0.1,0,0.3-0.3,0.4-0.4l1.9,1.4l0.1,0.3c-0.3-0.1-0.5-0.3-0.8-0.5l-0.6-0.2l-0.1,0.1l-0.5,0l-0.3-0.4l-0.6-0.1
				l-0.2-0.1l-0.6,0.3c-0.5-0.2-0.7-0.1-1.2-0.3c-0.8,0.1-0.8,0.3-1.4,0.5c-0.3,0.5-0.6,1.2-0.3,1.8c1.1,1.1,2.7,1,2.7-0.9
				c0.1,0.1,0.2,0.2,0.4,0.2c0.1,0.5-0.1,1.1-0.4,1.4c-0.3,0.3-0.7,0.5-1.4,0.4c-0.5,0-0.9-0.2-1.2-0.6
				C52.8,66.9,52.6,66.2,52.8,65.6z"/>
			<path class="st28" d="M51.5,67.8v-0.3l0.4,0.2l-0.2,0.1L51.5,67.8z"/>
			<path class="st28" d="M51.3,67.7l-0.1-0.1l-0.1-0.2h-0.2l-0.1-0.1v-0.2l0.3,0.2l0.4,0.2L51.3,67.7z"/>
			<path class="st28" d="M49,67.5c-0.1-0.2,0.3-0.1,0.2,0L49,67.5z"/>
			<path class="st28" d="M49.1,67.1l0.2-0.6l0.3,0l0,0.4l-0.3,0.2L49.1,67.1z"/>
			<path class="st28" d="M50.4,66.8L50.4,66.8l-0.2,0l-0.1-0.4L50.4,66.8L50.4,66.8z"/>
			<path class="st28" d="M49.6,66.4v-0.3l0.2-0.3L50,66l0,0.3L49.6,66.4z"/>
			<path class="st28" d="M50,66c0,0,0.1-0.2,0.1,0L50,66z"/>
			<path class="st28" d="M50.5,65.9v-0.1c0.2-0.1,0.3,0.2,0.1,0.1H50.5z"/>
			<path class="st28" d="M60.4,65.9v-0.3c-0.4-0.5-1.1-1.2-1.4-1.4c-0.3-0.2-0.9-0.7-1.5-1.1c-1,0-2-0.1-2.9-0.1
				c-0.4,0-0.7,0.1-1.1,0.4l-0.2,0.3v-0.4l-0.5-0.1V63l-0.9,0l-0.4,0.3l-0.1,0l0.2,0.6c-0.1,0-0.2,0-0.4,0c-0.3,0.2-0.7,0.6-0.7,0.7
				L50,64.4l-0.2-0.5l-0.3,0.4l-0.4-0.2L49,63.7l-0.4,0.1l-0.4-0.2l0.7-1.4h-0.2l0-0.4h0.1c0.1-0.3,0.2-0.6,0.2-0.9c0-0.3,0-0.7,0-1
				L48.8,60c0,0,0-0.8-0.1-0.5l-0.5,1.3L48,61.6l-0.1,0c-0.3,0.4-1.1,1.1-1.1,1.1c0,0-1,0.5-1.4,0.7l-0.2,0.3h0.1L44.9,65l-0.4,0.1
				l-0.2,0.5l-0.1-0.8l0.7-1.8c0.4,0.5,0.3,0.1,0-0.3c0.6-0.3,1.1-0.6,1.5-0.9c0.4-0.4,0.7-0.8,1.1-1.3c0-0.2,0-0.5-0.2-0.7
				l-0.6,0.2l0.2-0.6l-0.8-0.2l0.1-0.2l1-0.4c-0.5,0-0.9-0.1-1.7-0.4c-0.3-0.2-0.4-0.3-0.5-0.6l0.5,0.2l0-0.2l0.5,0.2h0l0.2-0.2
				c0.2,0.2,0.4,0.1,0.6,0.1c0-0.1,0.3-0.2,0.4-0.6l0.5-0.1v0.3l0.4-0.5l0.7-0.5c0.4,0.3,0.8,0.9,0.9,1c0,0,0.8,0.4,1.4,0.2
				c-0.4-0.1-0.6-0.2-0.9-0.3l-0.5-0.6l0.1-0.2c0.5,0.4,1.3,0.4,2,0.2l-0.3-0.2c-0.5,0.1-1.1-0.2-1.2-0.2c-0.1,0-0.8-0.6-0.8-0.7
				c0-0.1-0.2-0.6-0.3-0.8l0.2,0.2c0.2,0.3,0.5,0.6,0.7,0.6c0.2,0,0.7,0.2,1.1,0.1l-1.4-0.6l-0.4-0.5l-0.1-0.4l0.4-0.3l0.1-1.6
				l-0.5-0.3l0.1-0.3l0.8,0.5l0.5-0.2l-1.2-1.1l-1.6-0.1l-0.8,0.4l0.5-0.6l-0.2-0.2l-0.8,0.4l-0.4,0.5l-0.4-0.1l0.1,0.4l-1.3,0.7
				l0,0.3l1-0.5l0.4-0.3l0.4-0.1l-0.7,0.5l0,0.1c1.5-0.4,4.2,0.5,2.1,1.4l-0.2,0.7c-0.4-0.1-0.9-0.2-1.3-0.2L45,54.1v-0.3l0.3-0.1
				v-0.1l0.1-0.2l0.2,0.2c0.1-0.2,0.1-0.4,0.3-0.6l-0.3,0c0-0.2,0.2-0.2,0.3-0.5l-0.3-0.2l-0.2,0.4c-0.4,0.2-1.2,0.5-1.2,0.5
				c-0.4,0-2.2-1.3-2.4-0.6c-3.6,5,2.3,8.7,1.8,8.9c-0.7-0.7-1.3-1.1-1.8-2c-0.5-0.2-0.8-1-1.2-1.3c-0.1-0.3-0.2-0.7-0.2-0.9
				c0-0.7,0.2-1.9,0.2-2.4c0-0.6,0.8-2.6,1.3-3.2c0.5-0.9,1.1-1.6,1.8-2.5c1.1-0.9,0.8-1.7,1.4-2.3c0.1,0,0.3,0.2,0.3,0.2
				c0,0,0.2,0.1,0.4,0.1c0.3,0-0.5,0.8-0.8,1c-0.2,0.3-0.5,0.7-0.7,0.9c0,0.3-0.7,1.1-0.9,1.3c0.2-0.1,1.1-1.1,1.2-1.3
				c0.2-0.3,0.4-0.5,0.6-0.8c0.4-0.4,0.7-0.8,1-1.3c0.2-0.2,0.4-0.5,0.4-0.6c0,0,0.5-0.4,0.5-0.2c0.2,0.5-0.1,0.8-0.5,1.2
				c-0.2,0.3-0.7,0.8-0.7,0.9c0,0.2-0.3,0.5-0.6,0.9l-1,1.3c-0.1,0.1-0.7,0.8-0.7,0.8l0.4-0.4c0.3-0.2,0.7-0.7,0.9-1
				c0.3-0.4,1-1.1,1.1-1.4c0.1-0.3,0.4-0.5,0.8-0.9c0.4-0.3,0.7-0.5,1.1-0.8c0.3-0.2,0.6-0.3,0.9-0.5c0.2,0,0.4,0,0.6,0.1
				C49.2,47,49,47.1,49,47.1c-0.2,0-0.3,0.2-0.5,0.4c-0.1,0.2-0.2,0.4-0.3,0.6c-0.3,0.2-0.5,0.5-0.8,0.6c-0.2,0.2-0.4,0.4-0.6,0.6
				c0.2,0,0.6-0.3,0.8-0.4c0.3-0.3,0.4-0.3,0.7-0.6c0.2-0.2,0.4-0.5,0.6-0.8c0.3-0.1,0.5,0,0.7,0c0.4,0,0.4-0.2,0.8-0.2l0,0.3
				c-0.4,0.4-0.6,0.5-1.2,0.5c0,0-0.6,0.8-0.6,0.8c-0.3,0.2-0.5,0.2-0.8,0.4c0.3-0.1,1-0.2,1-0.2c0.1,0,0.4-0.4,0.5-0.7
				c0.4-0.1,0.9,0,1.1,0.1c0.4,0.2,0.6,0,1.2,1c1.2,1.3,0.1-0.2-0.2-0.7c-0.1-0.1-0.6-0.6-0.7-0.7c0.3,0,0.3-0.1,0.6,0
				c0.3,0.1,0.4-0.2,0.6-0.2c0.3,0,0.6,0.1,0.9,0.3c0,0.2,0,0.5,0,0.5c0,0.2,0.4,0.1,0.6,0.1c0.1,0.2,0.2,0.5,0.4,0.7
				c0.3,0.1,0.5,0.1,0.8,0.1c1.4,4.3,1,0.1,0.3-0.2c-0.1-0.1-0.7-0.4-1-0.6c-0.2-0.2-0.4-0.4-0.5-0.7c0.9,0.1,1.4,0.2,2.2,0.2
				c1.4-0.5,0.3-0.3-0.6-0.4c-0.5,0-0.9-0.1-1.4-0.1c-0.6-0.6,0.5-0.2,0.5-0.2l0.6-0.3c0.6-0.1,1.2-0.1,1.6,0c0.5,0.1,1.2,1,1.7,1.4
				c0.4,0.4,0.9,0.9,1.4,1.2c0.7,0.6,1.9,1.9,2.5,2.7c0.8,0.9,0.7,1.8,0.9,2.8c0,0.4,0.1,0.8,0.1,1.2l0.1,0.3l-0.1,0.2
				c0.2,0.4,0.3,1,0.3,1.5c0,0.9,0.1,1.9,0,2.8c-0.4,1.3-1.1,2.6-2.2,3.4L60.4,65.9z"/>
			<path class="st28" d="M59.9,65.8l-0.1-0.3l0.2,0L59.9,65.8z"/>
			<path class="st28" d="M51.6,64.9l0-0.2l-0.1-0.1h-0.1l-0.2,0.1l0.1-0.3l0.2-0.1c0.3,0,0.2,0.2,0.3,0.3L51.6,64.9z"/>
			<path class="st312" d="M50.7,63l0.4,0v-0.4L50.8,62c0.7,0.3-0.2-0.4,0.3-0.4L50.7,61c0.1-0.1,0.3-0.4,0.4-0.4l0.4-0.3L51.3,60
				l0.4-0.2v0.3l-0.1,0.7c0.2-0.2,0.4-0.4,0.5-0.6h0.2v0.4l0.3,0l-0.1,0.2v0.1l0.1,0.2h0.5l0.5,0.2l0,0.4L53,62.1l-0.8,0.2l-0.3,0.6
				l-0.6-0.1l0,0.6c-0.3-0.3-0.2,0.1-0.3,0L50.7,63z"/>
			<path class="st312" d="M61.3,59.9c-0.4,0,0.5-0.8,0.7-1.3c-0.3,0.2-0.6,0.5-0.8,0.5c-0.1,0-0.6,0.1-0.9,0.2
				c0.7-0.3,1.4-0.4,1.8-1.2c-0.7,0.3-1.3,0.3-1.7,0.3c-0.3,0-1.3-0.5-1.3-0.9h0.2c0.5,0.3,1,0.6,1.6,0.6c0.2-0.1,0.7-0.4,0.8-0.4
				c0.1,0,0.4-0.6,0.5-0.9l-0.4,0c-0.3,0.5-0.7,1-1,1c-0.7,0-1.1-0.1-1.7-0.5c-0.3,0.2-0.5,0.4-0.7,0.7l-0.4,0.9
				c0-0.2,0.1-0.5,0.1-0.7l0.8-1.1l0.3-0.3l0.1-0.5c-0.4,0.2-0.8,0.6-1.2,0.9c-0.4,0.1-0.8,0.3-1.2,0.4c0.2-0.1,0.3-0.2,0.5-0.3
				c0.5,0,1-0.5,1.3-0.9c0.1-0.1,0.5-0.5,0.7-0.5c0.6-1.7,1-0.2,1.9-0.6c0.5,0.2,0.6,0.4,1,0.8c0-0.3-0.3-1.1-0.5-1.3
				c-0.3-0.3-1.1-0.9-0.9-1.3c0.4,0.4,0.9,0.8,1.1,1.3c0.2,0.5,0.5,1.1,0.6,1.6c0.1,0.4,0.1,0.7,0.1,1.1c0,0.9-0.8,1.7-0.8,2.3
				C60.2,62.4,62,59.9,61.3,59.9z"/>
			<path class="st312" d="M49.5,58.3c-0.1-0.1,0.3-0.1,0.2,0L49.5,58.3z"/>
			<path class="st312" d="M49.2,58.2l-0.5-0.2l-0.3-0.3l-0.1-0.1l0.3-0.2l0.2,0.3l0.6,0.3L49.2,58.2z"/>
			<path class="st28" d="M61.1,58h0.1l0.2,0l0.2-0.1h0.1l0.2-0.2l0.2-0.3l0.4,0.2l-0.2,0.2l-0.5,0.3l-0.1,0.1L61.1,58z"/>
			<path class="st28" d="M45.9,57.5h-0.3v-0.2l0.2,0h0.7l0.2,0.3l-0.7,0H45.9z"/>
			<path class="st28" d="M59.6,56.5c0.2,0.2,0.4,0.4,0.7,0.5c0.2,0,0.4,0,0.6-0.1c0,0.1-0.2,0.3-0.2,0.4c-0.2,0.2-0.5,0.2-0.8,0.1
				C59.6,57.2,59,56.6,59.6,56.5z"/>
			<path class="st28" d="M62.2,57.3L62.1,57l0.3,0L62.2,57.3z"/>
			<path class="st28" d="M62.2,56.7l0.1-0.2L62.2,56.7z"/>
			<path class="st28" d="M46,56.5l-0.3-0.1l0-0.3l0.6,0.2L46.1,56L46,56.1h-0.2l-0.4-0.2c-0.1-0.2-0.2-0.5-0.2-0.8
				c0-0.3,0.1-0.5,0.4-0.6c0.1,0.1,0.1,0.4,0.2,0.5c0,0.2,0.1,0.4,0.3,0.5c0.4,0.2,0.5,0.2,0.9,0.1c0.1,0,0.1-0.1,0.2-0.1
				c0.1-0.2,0.2-0.1,0.4,0L47.6,56h0.2l-0.1,0.2h-0.2l-0.4-0.1l-0.1,0L47,56.5l-0.7-0.2l0.3,0.1L46,56.5z"/>
			<path class="st28" d="M63,56.3L63,56.3c0-0.9,0.2-1.5,0.1-2.5c-0.2-0.6-0.5-1.1-1-1.5c0.1-0.7-0.3-0.6,0.6-1
				C63,51,63,51.2,63,50.9l0.6-0.4c0.3,1.1,0.2,0.4,0.8,0.4c0,0.3-0.1,0.9,0,1.1c0,0.3,0,0.3-0.3,0.5c-0.3,0.3-0.3,0.6-0.7,0.7
				c0.4,0.1,0.6,0,1,0c0.1,0.2,0.2,0.3,0.2,0.6c0.3,0.2,0.2-0.4,0.4-0.6c0.5-0.3,0.3-0.1,0.4-0.7c0.5-0.2,0.3-0.4,0.6-0.4l-0.2-0.5
				c-0.3-0.1-0.5-0.1-0.8,0c-0.3-0.3-0.4-0.6-0.5-0.9l0.1-0.6l-0.6-0.1l-0.3-0.3c0.4-0.2,0.6-0.4,1.1-0.2c0.4,0,1,0.2,1.1,0.5
				c0.2,0.3,0.5,0.9,0.5,0.9l0.1,0l-0.1-1.9l0-1.3c0.2-0.8-0.6-0.7-0.6-1.5c0-0.4,0.2-1.1,0.3-1.5c0-0.6,0.1-0.5,0.1-1.3
				c0.1-0.9,0.2-1.9,0.2-2.8c0-0.9,0-1.8-0.1-2.7c0-0.2-0.1-0.6-0.2-0.8l0-1.1c0.1,0.3,0.3,0.6,0.4,0.9c0.1,0.6,0.2,1.1,0.2,1.7
				c0,0.7,0,1.5,0,2.3c0.1,1.4,0,2.9-0.3,4.3l-0.3,0.9h0.3l0.3,0.7c-0.2,0.6-0.1,1.4,0,2.1c0,0.5,0.1,1.1-0.1,1.6
				c-0.4,1.3-0.9,2.6-1.8,3.5C64.7,54.5,63.4,55.9,63,56.3z"/>
			<path class="st28" d="M59.9,55.9l0.3-0.2h0.2l0.4,0.4c-0.2,0-0.3,0.1-0.5,0C60.2,56.1,60,56,59.9,55.9z"/>
			<path class="st28" d="M45.5,56.1L45.5,56.1l-0.3-0.1l-0.1-0.2l0.5,0.2L45.5,56.1z"/>
			<path class="st28" d="M47.1,55l-0.5,0l0.1-0.3h0.2l0.5,0.3L47.1,55z"/>
			<path class="st28" d="M36,54.2c0,0-0.4-0.3-0.6-0.3c-0.2,0-0.2,0.2,0,0.2l0.4,0.3c-0.7-0.2-1.1-0.5-1.9-1
				c-0.8-0.9-1.2-2.1-1.2-3.1c0-0.4-0.3-1.3-0.4-1.6c0.5,0.2,0.5,0.2,0.8,0.6c0,0.1,0.4,0.5,0.4,0.5c0.1,0.3,0.1,0.4,0.2,0.7
				c-0.1,0.2-0.3,0.4-0.4,0.6c0,0.2-0.1,0.4-0.1,0.7c0,0.3,0,0.4,0.2,0.6c0.1-0.4,0.2-0.8,0.2-1.2c0.4-0.2,0.4-0.2,0.9-0.3
				c0.2,0,0.3-0.2,0.4-0.3c0.3-0.4,0.2-0.5,0-0.5c-0.1,0-0.3,0.2-0.5,0.2c0.2-0.2,0.1-0.4,0-0.6c0-0.4-0.2-1-0.4-1.3
				c-0.1-0.2-0.4-0.2-0.5-0.2c-0.2,0-0.8-1-0.8-1c0-0.3-0.3-0.9-0.6-1.3c0-0.2-0.2-0.4-0.3-0.6c0-0.2,0-0.4,0-0.6
				c0.2,0.2,0.2,0.4,0.3,0.5c0,0,0.2,0.2,0.3,0.2c0.2,0,0.3,0.1,0.4,0.2c0.2,0.1,0.2,0.4,0,0.3c-0.2-0.1-0.2-0.2-0.4-0.2
				c0,0.3,0,0.3,0.3,0.4l0.2-0.2c0.2,0.1,0.3,0.2,0.4,0.3c0,0.1,0.3,0.6,0.3,0.8c0.2,0.1,0.4,0.2,0.5,0.4c-0.1,0.3,0,0.3,0.1,0.7
				c0.4,0.4,0.6,0.9,0.9,1.3c0.3,0.4,0.7,0.9,0.9,1.2c0.4,0.4,0.8,1.4,1.2,1.3c0.3,0.3,0.5,0.9,0.9,1.1c0.2,0.1,0.5-0.2,0.7-0.3
				c0.2-0.3,0.7-0.2,0.8-0.5l-0.1,0.3l-0.1,0.4l0.5,0c0,0.2,0,0.1-0.2,0.3l-0.3,0.1l-0.2,0.5l-0.3-0.1L38.8,54l-0.4,0l0.1,0.3
				L38,54.4v-0.5h-0.2v0.3c-0.2,0.1-0.4,0.4-0.5,0.4C36.8,54.6,36.3,54.4,36,54.2z"/>
			<path class="st28" d="M45,53.3l0.4-0.3l-0.2,0.3H45z"/>
			<path class="st28" d="M49.3,52.7h-0.1v-0.3H49V52l0.4,0.3l0.1,0.4L49.3,52.7z"/>
			<path class="st28" d="M46.4,52.2l0.1-0.2l0.1-0.1h0.3l-0.1,0.3h-0.3H46.4z"/>
			<path class="st28" d="M50.3,52l-0.5-0.1l-0.1-0.2l-0.3-0.1v-0.3l0.2,0.2l0.5,0.2L50.3,52z"/>
			<path class="st28" d="M61.6,52l-0.1,0l-0.2-0.2l0.3-0.2l0.1,0.3L61.6,52z"/>
			<path class="st28" d="M48.9,51.6l-0.4,0l-0.1-0.2l0.7-0.1l0.1,0.2L48.9,51.6z"/>
			<path class="st28" d="M38.5,51.6c-0.4-0.3-0.8-1.1-1.1-1.5c-0.2-0.2-0.5-0.3-0.7-0.5v0.2c-0.1-0.2-0.1-0.2-0.3-0.3
				c0,0.2,0,0.1,0.2,0.1c0,0.2,0.1,0.4,0.2,0.4c0,0.2,0.2,0.2,0,0.3c-0.2-0.2-0.5-0.4-0.6-0.6c-0.1-0.1-0.4-0.4-0.6-0.5
				c-0.2-0.1-0.2-0.3-0.3-0.5l0.9,0.2l0.2-0.1v0.3l1,0.5l0.1,0.2l0.3,0.3l0.7,0.9l0.1,0.3l0-0.1l0.1-0.2l0.4,0.2
				c0,0.2-0.1,0.2-0.2,0.4C38.8,51.6,38.6,51.6,38.5,51.6z"/>
			<path class="st28" d="M61.2,51.6l-0.2-0.5l0.4-0.3c0.1-0.1,0.1-0.4,0.3-0.4c0.1,0,0.1,0.2,0.2,0.3L61.2,51.6z"/>
			<path class="st28" d="M59.7,49.8c-0.4-0.4-1.4-0.9-1.6-1.5c0.1-0.2,0.2-0.4,0.4-0.6c0.1-0.3-0.1-1.7-0.2-2.1
				c-0.1-0.3-0.2-1.9,0-2.1l0.3,0.8c0.6-1.2,1.4-1.7,0.3,0c0,0.9-0.1,1,0.4,1.8c0.2,0.2,0.4,0.8,0.5,0.9c-0.3,0.3-0.1,0.7-0.6,0.7
				c0.2,0.3,0.8,0.6,0.8,1C60,49,60,50,59.7,49.8z"/>
			<path class="st28" d="M62.5,48.9c0.3-0.6,0.8-1.1,1-1.7c0.1-0.3,0.2-0.6,0.3-0.9c0.4,0-0.3-0.2-0.4-0.2c-0.3,0-0.5-0.2-0.8-0.3
				C62.5,45.8,61,45,61,45c0.5,0,1.1,0,1.6,0c0.6,0.8,0.1,0.7,1.3,0.6c0.4,0.4,0.2,0.2,0.2,0.7c0,0.2,0.1,0.4,0.1,0.5
				c-0.2,0.5-0.5,0.9-0.8,1.3C63,48.5,63,48.7,62.5,48.9z"/>
			<path class="st28" d="M34.8,48.4l0.1-0.4l0.4-0.5c0,0.2,0.1,0.4,0.1,0.7c-0.2,0-0.2,0-0.2,0.2L34.8,48.4L34.8,48.4z"/>
			<path class="st28" d="M57.1,47.7l0.2-0.9l0.7-0.1c0,0.2,0.1,0.7,0.1,0.9l-0.3,0.5L57.1,47.7z"/>
			<path class="st28" d="M50.7,47.9c0-0.4,0.2-0.5,0.4-0.8c0.1-0.1,0.2,0,0.4,0c0.1,0.2,0.2,0.4,0.3,0.6
				C51.3,47.9,51.2,48.1,50.7,47.9z"/>
			<path class="st28" d="M52.1,47.6l-0.2-0.2l0.2-0.2l0.8,0.4h0.3c0,0.2-0.1,0.3-0.2,0.3L52.1,47.6z"/>
			<path class="st28" d="M44.4,47.1l-0.1-0.3L44,46.2l0.4-0.4l0.5,0.6l0.1,0.1v0.2l-0.3,0.4L44.4,47.1z"/>
			<path class="st28" d="M57.3,46.9v-0.2c0.2-0.1,0.4-0.3,0.7-0.3l0.1,0.4C57.8,46.9,57.5,46.9,57.3,46.9z"/>
			<path class="st28" d="M43.6,46.7L43.6,46.7l-0.1-0.2v-0.2l0.4-0.4l-0.2-0.4l0.4-0.3l0,0.3l0.4,0.1l0,0.1l-0.1,0.3L44,46.4h-0.1
				L43.6,46.7z"/>
			<path class="st28" d="M57.3,47.1c0-0.2-0.2-1.5-0.1-1.7c0.4-0.2,0.5-0.6,0.8-0.4l0,1.5L57.3,47.1z"/>
			<path class="st28" d="M43.6,45.5L43.6,45.5l0.1-0.1l-0.3-0.6l0.6-0.2l0.1,0.7l-0.4,0.3L43.6,45.5z"/>
			<path class="st28" d="M57.1,45.5l0.2-2.8c0.2-0.4,0.3-0.7,0.3-1.2c0.2-1.4,1.2-2.3,2-3.3l0.7-1.3c0,0.1,0,0.8-0.4,1.4
				c-0.3,0.5-0.8,1.2-0.9,1.3c-0.2,0.4-1.4,1.5-0.9,1.7C58.2,41.4,58,42.5,58,43c-0.1,0.1-0.1,0.2-0.2,0.3c-0.2,0-0.3,0.2-0.4,0.4
				c0,0.1-0.1,0.3,0.1,0.4c0.2,0,0.4-0.1,0.4,0.2l-0.1,0.4h-0.4l-0.2,0.3l0.4-0.2c0.1,0,0.2,0,0.4,0.1v0.3c-0.2,0.1-0.3,0.2-0.5,0.2
				L57.1,45.5z"/>
			<path class="st28" d="M60.8,45c-0.1-0.2,0.3-0.1,0.1,0L60.8,45z"/>
			<path class="st28" d="M43.4,44.9c-0.3-0.2-0.4-0.4-0.6-0.6c0-0.2,0-0.3,0-0.5c-0.1-0.2-0.4-0.4-0.5-0.5c-0.9-0.9-2.1-1.7-2.9-2.6
				c-0.4-0.4-2.4-3-2.7-3.7l-2.7-3.9l0.3,0l0.5,0.7c0.1,0.2,0.9,1.3,1.7,2.5c0.8,1.2,1.8,2.6,2.3,3.2c1.1,1.2,2.4,2.4,2.4,2.4
				c0.9,0.8,1.8,1.5,2.6,2.3c0,0.2,0.2,0.3,0.2,0.5L43.4,44.9z"/>
			<path class="st28" d="M58.2,43.2L58.2,43.2l-0.1-0.9l0.1,0l0.2,0.2l-0.1,0.6L58.2,43.2z"/>
			<path class="st28" d="M60.4,36.5c0.2-0.4,0.5-0.8,0.7-1.2c0.2-0.3,0.4-0.5,0.6-0.7c0.2-0.1,0.7-1.1,0.8-1.3
				c0.2-0.3,0.9-1.1,0.9-1.5c0.3-0.3,0.6-0.5,1-0.5c0.3,0,0.4,0.4,0.7,0.8c0.1,0.3,0.3,0.6,0.7,0.8c0.2,0.4,0.4,1,0.4,1.4
				c0,0.2,0.2,1.8,0.2,2.1c0,0.1-0.3-0.3-0.4-0.6c-0.1-0.4-0.2-1.1-0.3-1.4c0.2-0.5-0.3-1.4-0.6-1.8c-0.2-0.2-1.1-0.2-1.2-0.2
				c0,0,0.1,0.3,0.2,0.4c-0.4,0-0.5,0.3-0.6,0.7C63.3,33.9,63.4,34,63,34c-0.2-0.1-0.3-0.1-0.5-0.1c0,0.1-0.6,1.1-0.7,1.1
				c-0.4,0.3-0.4,0.6-0.7,1C61,36.2,59.8,38.4,60.4,36.5z"/>
			<path class="st28" d="M33.9,33.3c-0.1-0.2-0.5-0.4-0.7-0.4c-0.2,0-0.4,0.2-0.5,0.2c-0.2,0.7-0.2,1.4-0.3,2.2
				c-0.3,1.2-0.4,2.3-0.5,3.5c0,0.9,0,1.7,0,2.5c0,0.6,0,1.3,0,1.8c0,0.6,0,1.3,0,1.8c0-0.2-0.2-0.8-0.3-1.4c-0.1-0.7,0-1.6-0.1-2.3
				c0-1.2-0.1-2.5-0.1-2.9c0-0.8,0.2-1.6,0.2-2.1l0.3-1.6l0.3-1.7c0.3-0.5,0.3-0.8,0.9-0.8c0.5,0,0.7,0.4,1.1,0.7l0.1,0.3L33.9,33.3
				z"/>
			<path class="st312" d="M50,0l2.6,7.8l8.2,0l-6.6,4.9l2.5,7.8L50,15.7l-6.7,4.8l2.5-7.8l-6.6-4.9l8.2,0L50,0"/>
			<path class="st28" d="M50,3.2l-1.6,4.9l-0.2,0.7l-0.7,0l-5.2,0l4.2,3.1l0.6,0.4L46.8,13l-1.6,4.9l4.2-3.1l0.6-0.4l0.6,0.4
				l4.2,3.1L53.2,13L53,12.3l0.6-0.4l4.2-3.1l-5.2,0l-0.7,0l-0.2-0.7L50,3.2z"/>
			<path class="st313" d="M50,5.6l-0.9,2.8l-0.4,1.2l-1.3,0l-2.9,0l2.4,1.7l1,0.7l-0.4,1.2L46.6,16l2.4-1.7l1-0.7l1,0.7l2.4,1.7
				l-0.9-2.8L52.1,12l1-0.7l2.4-1.7l-2.9,0l-1.3,0l-0.4-1.2L50,5.6z"/>
		</g>
	</g>
</g>
</svg>
