<?xml version="1.0" encoding="utf-8"?>
<!-- Generator: Adobe Illustrator 19.2.1, SVG Export Plug-In . SVG Version: 6.00 Build 0)  -->
<svg version="1.1" id="Capa_1" xmlns="http://www.w3.org/2000/svg" xmlns:xlink="http://www.w3.org/1999/xlink" x="0px" y="0px"
	 viewBox="0 0 100 100" style="enable-background:new 0 0 100 100;" xml:space="preserve">
<style type="text/css">
	.st0{fill:url(#path34_4_);}
	.st1{fill:url(#path890_1_);}
	.st2{fill:#FFE500;stroke:#000000;stroke-width:2.098;stroke-miterlimit:3.863;}
	.st3{fill:#DA020E;}
	.st4{fill:#FFE500;}
	.st5{clip-path:url(#SVGID_2_);}
	.st6{fill:none;stroke:#B54005;stroke-width:10;stroke-miterlimit:3.863;}
	.st7{fill:url(#path7506_1_);}
	.st8{fill:url(#path8794_1_);}
	.st9{fill:url(#path15846_1_);}
	.st10{fill:url(#path16274_1_);}
	.st11{fill:url(#path39821_1_);}
	.st12{fill:url(#path39847_1_);}
	.st13{fill:url(#path39878_1_);}
	.st14{fill:url(#path39888_1_);}
	.st15{fill:url(#path41035_1_);}
	.st16{fill:url(#path9646-8_1_);}
	.st17{fill:url(#path41092_1_);}
	.st18{fill:url(#path41094_1_);}
	.st19{fill:none;stroke:#000000;stroke-width:2.098;stroke-miterlimit:3.863;}
	.st20{fill:url(#path41152_1_);}
	.st21{fill:url(#path39854_1_);}
	.st22{fill:url(#path39874_1_);}
	.st23{fill:#9C824A;stroke:#9C824A;stroke-width:0.793;stroke-miterlimit:282;}
	.st24{fill:#023474;stroke:#023474;stroke-width:0.793;stroke-miterlimit:282;}
	.st25{fill:#FFFFFF;stroke:#FFFFFF;stroke-width:0.793;stroke-miterlimit:282;}
	.st26{fill:#EF0107;stroke:#EF0107;stroke-width:0.793;stroke-miterlimit:282;}
	.st27{fill:#DB0007;stroke:#DB0007;stroke-width:0.793;stroke-miterlimit:282;}
	.st28{fill:#FFFFFF;}
	.st29{fill:#9C824A;}
	.st30{fill:#EF0107;stroke:#EF0107;stroke-width:0.3115;stroke-miterlimit:282;}
	.st31{fill:#DB0007;stroke:#DB0007;stroke-width:0.3115;stroke-miterlimit:282;}
	.st32{fill:#DB0007;}
	.st33{fill:#FFFFFF;stroke:#FFFFFF;stroke-width:0.3115;stroke-miterlimit:282;}
	.st34{fill:#FFFFFF;stroke:#FFFFFF;stroke-width:0.554;stroke-miterlimit:3.864;}
	.st35{fill:#231F20;}
	.st36{fill:#00B6F1;stroke:#00B6F1;stroke-width:1.700000e-02;stroke-miterlimit:3.864;}
	.st37{fill:#EF3E2E;}
	.st38{fill:#BBBDBF;}
	.st39{fill:#F0B83D;}
	.st40{fill:#00B6F1;stroke:#FFFFFF;stroke-width:1.700000e-02;stroke-miterlimit:3.864;}
	.st41{fill:#001C58;}
	.st42{fill:#94BEE5;}
	.st43{fill:none;stroke:#7A003C;stroke-width:2.2437;stroke-miterlimit:6;}
	.st44{fill:#7A003C;}
	.st45{fill:#FFE600;}
	.st46{fill:#DBA111;}
	.st47{fill:#034694;}
	.st48{fill:#D1D3D4;}
	.st49{fill:#ED1C24;}
	.st50{fill:#6A7AB5;}
	.st51{fill:none;}
	.st52{fill:#274488;}
	.st53{fill:#004798;stroke:#004798;stroke-width:9.375000e-02;}
	.st54{fill:#FFFFFF;stroke:#FFFFFF;stroke-width:9.375000e-02;}
	.st55{fill:#FABC00;stroke:#FABC00;stroke-width:9.375000e-02;}
	.st56{fill:none;stroke:#FFFFFF;stroke-width:7.865;stroke-miterlimit:3.864;}
	.st57{fill:none;stroke:#FFFFFF;stroke-width:7.865;stroke-miterlimit:12;}
	.st58{fill:none;stroke:#FFFFFF;stroke-width:7.865;stroke-miterlimit:22;}
	.st59{fill:none;stroke:#FFFFFF;stroke-width:7.865;stroke-miterlimit:6;}
	.st60{fill:#00A398;}
	.st61{fill:#D00027;}
	.st62{fill:none;stroke:#FFFFFF;stroke-width:17.3907;stroke-miterlimit:3.864;}
	.st63{fill:none;stroke:#FFFFFF;stroke-width:13.1107;stroke-miterlimit:3.864;}
	.st64{fill:#FEF667;}
	.st65{fill:#D00027;stroke:#D00027;}
	.st66{fill:#5299C6;}
	.st67{fill:#60223B;}
	.st68{fill:#F7C240;}
	.st69{fill:#292D6B;}
	.st70{fill:#1B458F;}
	.st71{fill:#C4122E;}
	.st72{fill:#27409B;}
	.st73{clip-path:url(#SVGID_4_);}
	.st74{fill:#F4F4F4;}
	.st75{fill:#D3D2D2;}
	.st76{fill:#A7A5A6;}
	.st77{fill:#091453;}
	.st78{fill:none;stroke:#FFFFFF;stroke-width:6.6301;}
	.st79{clip-path:url(#SVGID_6_);}
	.st80{fill:#724314;}
	.st81{fill:#240B08;}
	.st82{fill:#018B4B;}
	.st83{fill:#A6181D;}
	.st84{fill:#592D09;}
	.st85{fill:#FFCE65;}
	.st86{fill:#5CBFEB;}
	.st87{fill:none;stroke:#000000;stroke-width:10;}
	.st88{fill:none;stroke:#000000;}
	.st89{fill:#B2B2B2;}
	.st90{fill:none;stroke:#000000;stroke-width:0.3;}
	.st91{fill:#00A650;stroke:#000000;stroke-width:2;}
	.st92{fill:#241F20;stroke:#241F20;stroke-width:9.375000e-02;}
	.st93{fill:#FFF200;stroke:#FFF200;stroke-width:9.375000e-02;}
	.st94{fill:#A68A26;}
	.st95{fill:none;stroke:#A68A26;stroke-width:4.792100e-02;stroke-miterlimit:3.8637;}
	.st96{fill:#211E1E;}
	.st97{fill:none;stroke:#211E1E;stroke-width:4.792100e-02;stroke-miterlimit:3.8637;}
	.st98{fill:#EB172B;}
	.st99{fill:none;stroke:#EB172B;stroke-width:4.792100e-02;stroke-miterlimit:3.8637;}
	.st100{fill:#A68A26;stroke:#A68A26;stroke-width:4.792100e-02;stroke-miterlimit:3.8637;}
	.st101{fill:#D1BF7F;}
	.st102{fill:none;stroke:#D1BF7F;stroke-width:4.792100e-02;stroke-miterlimit:3.8637;}
	.st103{fill:none;stroke:#FFFFFF;stroke-width:4.792100e-02;stroke-miterlimit:3.8637;}
	.st104{fill:#EB172B;stroke:#EB172B;stroke-width:4.792100e-02;stroke-miterlimit:3.8637;}
	.st105{fill:#ED2127;}
	.st106{fill:#FBEE23;}
	.st107{stroke:#000000;}
	.st108{fill:#CF1F44;}
	.st109{fill:#1B449C;}
	.st110{fill:#E03A3E;}
	.st111{fill:#E03A3E;stroke:#E03A3E;stroke-width:0.6565;}
	.st112{fill:none;stroke:#1B449C;stroke-width:0.7493;}
	.st113{fill:none;stroke:#1B449C;stroke-width:0.7567;}
	.st114{fill:#1B449C;stroke:#1B449C;stroke-width:0.6274;}
	.st115{fill:#1B449C;stroke:#1B449C;stroke-width:0.6755;}
	.st116{fill:#2E6ABD;stroke:#2E6ABD;stroke-width:0.617;}
	.st117{fill:#FFFFFF;stroke:#FFFFFF;stroke-width:0.6175;}
	.st118{fill:#ED1248;}
	.st119{fill:#2E6ABD;}
	.st120{fill:#FDE100;}
	.st121{fill:#CC0000;}
	.st122{fill:#211E1F;}
	.st123{fill:#ED1A3B;}
	.st124{fill:#00AEEF;}
	.st125{fill:#FFC40D;}
	.st126{fill:#22B24C;}
	.st127{fill:#FFC20E;}
	.st128{fill:#0A3F86;}
	.st129{fill:#005CA9;}
	.st130{fill:#FFE000;}
	.st131{fill:#E2001A;}
	.st132{opacity:0;}
	.st133{opacity:0;fill:#FFFFFF;}
	.st134{fill:#FFFFFF;stroke:#000000;}
	.st135{fill:#0060A9;}
	.st136{fill:#E32219;}
	.st137{fill:#FFED00;}
	.st138{fill:#1D9053;}
	.st139{fill:#52A600;}
	.st140{fill:#EE2523;}
	.st141{fill:#F7D117;}
	.st142{fill:#171796;}
	.st143{fill:#009959;}
	.st144{fill:#D42E12;}
	.st145{fill:#703824;}
	.st146{fill:#E5254E;}
	.st147{fill:#8AC3EE;}
	.st148{fill:#B19221;}
	.st149{fill:#F5C03E;}
	.st150{fill:#FF1119;}
	.st151{fill:#1E6BC0;}
	.st152{fill:#B4742A;}
	.st153{fill:#371B02;}
	.st154{fill:url(#SVGID_7_);}
	.st155{fill:url(#SVGID_8_);}
	.st156{fill:url(#SVGID_9_);}
	.st157{fill:url(#SVGID_10_);}
	.st158{fill:url(#SVGID_11_);}
	.st159{fill:url(#SVGID_12_);}
	.st160{fill:url(#SVGID_13_);}
	.st161{fill:url(#SVGID_14_);}
	.st162{fill:url(#SVGID_15_);}
	.st163{fill:url(#SVGID_16_);}
	.st164{fill:#EB2626;}
	.st165{fill:#E9C32C;}
	.st166{fill:#D9D9D9;}
	.st167{fill:#009C5E;}
	.st168{fill:#1C75BC;}
	.st169{fill:#611D5C;}
	.st170{fill:#E2B900;}
	.st171{fill:#004B95;}
	.st172{fill:#A4234B;}
	.st173{fill:#DB2F36;}
	.st174{fill:#FFDF00;}
	.st175{fill:#A38D44;}
	.st176{fill:#57175E;}
	.st177{fill:#AFDCFD;}
	.st178{fill:#0090C6;}
	.st179{fill:#DB5232;}
	.st180{fill:#23C1E0;}
	.st181{fill:#F1A92A;}
	.st182{fill:#167FB6;}
	.st183{fill:#FED75D;}
	.st184{fill:#378CBF;}
	.st185{fill:#3E9692;}
	.st186{fill:#E67F29;}
	.st187{fill:#D8B43C;}
	.st188{fill:#EF3B33;}
	.st189{fill:#24923D;}
	.st190{opacity:6.000001e-02;fill:#101010;enable-background:new    ;}
	.st191{fill:#00529F;}
	.st192{fill:#EE324E;}
	.st193{fill:#FEBE10;}
	.st194{fill:#143C8B;}
	.st195{fill:#FFE24A;}
	.st196{fill:#EC1D24;}
	.st197{fill:#E6A514;}
	.st198{fill:#FFDF1C;}
	.st199{fill:#EE3524;}
	.st200{fill:#B23428;}
	.st201{fill:#D18816;}
	.st202{fill:#0097D7;}
	.st203{fill:#ED1C23;}
	.st204{fill:#E30613;}
	.st205{fill:#FFE400;}
	.st206{fill:#C51A1B;}
	.st207{clip-path:url(#SVGID_19_);}
	.st208{clip-path:url(#SVGID_20_);fill:none;stroke:#000000;stroke-width:0.8131;stroke-miterlimit:3.864;}
	.st209{fill:#0093D5;}
	.st210{fill:#004B9D;}
	.st211{fill:#FCC24F;}
	.st212{fill:#009545;}
	.st213{fill:#0072BB;}
	.st214{fill:#C4974E;}
	.st215{fill:url(#path1292_1_);}
	.st216{fill:#004996;}
	.st217{fill:#FFE667;}
	.st218{fill:none;stroke:#005187;stroke-width:0.153;stroke-miterlimit:3.864;}
	.st219{fill:#005187;}
	.st220{clip-path:url(#SVGID_22_);}
	.st221{clip-path:url(#SVGID_24_);fill:none;stroke:#000000;stroke-width:0.296;stroke-miterlimit:3.864;}
	.st222{clip-path:url(#SVGID_26_);fill:#FFE667;}
	.st223{clip-path:url(#SVGID_28_);fill:none;stroke:#000000;stroke-width:8.300000e-02;stroke-miterlimit:3.864;}
	.st224{fill:none;stroke:#000000;stroke-width:0.153;stroke-miterlimit:3.864;}
	.st225{clip-path:url(#SVGID_30_);fill:#E70005;}
	.st226{clip-path:url(#SVGID_32_);fill:none;stroke:#E70005;stroke-width:0.296;stroke-miterlimit:3.864;}
	.st227{clip-path:url(#SVGID_34_);fill:#E70005;}
	.st228{clip-path:url(#SVGID_36_);fill:none;stroke:#E70005;stroke-width:0.296;stroke-miterlimit:3.864;}
	.st229{clip-path:url(#SVGID_38_);fill:#E70005;}
	.st230{clip-path:url(#SVGID_40_);fill:none;stroke:#E70005;stroke-width:0.296;stroke-miterlimit:3.864;}
	.st231{clip-path:url(#SVGID_42_);fill:#E70005;}
	.st232{clip-path:url(#SVGID_44_);fill:none;stroke:#E70005;stroke-width:0.296;stroke-miterlimit:3.864;}
	.st233{fill:#E70005;}
	.st234{fill:none;stroke:#000000;stroke-width:0.141;stroke-miterlimit:3.864;}
	.st235{fill:#00276D;}
	.st236{fill:#C49308;}
	.st237{fill:#179D33;}
	.st238{fill:#999999;}
	.st239{fill:#FF0000;}
	.st240{fill:#E31837;}
	.st241{fill:#06357A;}
	.st242{fill:#B4053F;}
	.st243{fill:#DCA43E;}
	.st244{fill:#005CA5;}
	.st245{fill:#FAC400;}
	.st246{fill:#004083;}
	.st247{fill:#A95932;}
	.st248{fill:none;stroke:#000000;stroke-width:1.2215;}
	.st249{fill:#E62627;}
	.st250{fill:#00458C;}
	.st251{fill:#E11B22;}
	.st252{fill:#00AB4E;}
	.st253{fill:#F47920;}
	.st254{fill:#C7C8CA;}
	.st255{fill:#E11515;}
	.st256{fill:#A4965F;}
	.st257{fill:#E51636;}
	.st258{fill:#EACC00;}
	.st259{fill:#4F846B;}
	.st260{fill:#E22227;}
	.st261{fill:#FAE700;}
	.st262{fill:url(#SVGID_45_);}
	.st263{fill:#666666;}
	.st264{fill:#FFF200;}
	.st265{fill:#00275D;}
	.st266{fill:#EF3E33;}
	.st267{fill:none;stroke:#00275D;stroke-width:2.632;}
	.st268{fill:#3F7652;}
	.st269{fill:#F1D261;}
	.st270{fill:#004D8F;}
	.st271{fill:#E7B137;stroke:#E7B137;stroke-miterlimit:10;}
	.st272{fill:#E7B137;}
	.st273{fill:#162577;}
	.st274{fill:#12692C;}
	.st275{fill:#D8141D;}
	.st276{fill:#AB830D;}
	.st277{fill:#0086CB;}
	.st278{fill:#001F42;}
	.st279{fill:#9A8F4A;}
	.st280{fill:#00559D;}
	.st281{fill:#FDDE00;}
	.st282{fill:#00924C;}
	.st283{fill:#233984;}
	.st284{fill:#FFD42E;}
	.st285{fill:#BA3733;}
	.st286{fill:#46714D;}
	.st287{fill:#221F1F;}
	.st288{fill:#00559E;}
	.st289{fill:#005C46;}
	.st290{fill:#FBC860;}
	.st291{fill:#D57C48;}
	.st292{fill:#040403;}
	.st293{fill:#4AB969;}
	.st294{fill:#8ED8F8;}
	.st295{fill:#FEC34E;}
	.st296{fill:#FFC95B;}
	.st297{fill:#00644C;}
	.st298{fill:#70B865;}
	.st299{fill:#CA6F44;}
	.st300{fill:#A8B8BE;}
	.st301{fill:#1C2C80;}
	.st302{fill:#E10321;}
	.st303{fill:none;stroke:#231F20;stroke-width:0.318;stroke-miterlimit:3.864;}
	.st304{fill:#D71920;}
	.st305{fill:#484749;}
	.st306{fill:#D9DBDC;}
	.st307{fill:#DF725A;}
	.st308{fill:#F2CABA;}
	.st309{fill:#E89C84;}
	.st310{fill:#264F99;}
	.st311{clip-path:url(#SVGID_47_);}
	.st312{fill:#161413;}
	.st313{fill:#ED1B26;}
	.st314{fill:#E60D2E;}
	.st315{fill:#FCD600;}
	.st316{fill:#004D91;}
	.st317{fill:#EAB412;}
	.st318{fill:#FDD31D;}
	.st319{fill:#EFB800;}
</style>
<g id="g9060">
	<path id="path9062" class="st28" d="M86.3,57.6c-0.1,0.3-0.3,0.6-0.4,0.9l-0.3-0.8c-0.6,1.8-1.1,2.7,0.2,4.4
		c0.6,0.9,1.8,1.2,2.3,1.3c0-0.1,0.1-0.2,0.1-0.3C88.1,61.6,87,59.7,86.3,57.6L86.3,57.6z M13.7,57.7l-0.1,0.2
		c-0.4,1.4-1.7,3.9-1.7,5.2c0,0.2,0,0.3,0.1,0.3c1.6-0.3,3.3-1.9,3-3.6c-0.1-0.7-0.4-1.4-0.6-2.1l-0.3,0.8
		C14,58.2,13.8,58,13.7,57.7L13.7,57.7z M28.7,44.4c0-0.7-0.3-1.4-0.6-2l-2.4,0.9l0.2-2.9c-0.5-0.2-1.4-0.8-1.3-1.7l0,0l0,0
		c0-0.1,0.1-0.3,0.1-0.4v-2.5c0-2.4,1.4-2.4,3.3-2.4h0.3v-0.6c0-2.2,5-2.7,6.4-2.9c0.5-0.7,1.4-1.1,2.2-1.2c0.5-0.3,1.1-0.5,1.7-0.6
		c-0.6-1.5,0-3.2,2.4-4.2c0.5-1.5,2-2.2,3.4-2.2c-0.4-1.1,0.1-2.4,1.2-2.7c0.7-0.5,1.5-0.4,2.3-0.4c0.2-1-0.2-2.1,0.4-3.1
		c0-0.1,0-0.2,0-0.2c0-0.6,0.4-1.1,0.5-1.7c0.1-0.5,1.3-5.5,1.3-5.5s1.2,5,1.3,5.5c0.1,0.6,0.5,1.1,0.5,1.7c0,0.1,0,0.2,0,0.3
		c0.6,1.2,0.1,2,0.3,3c0.8-0.1,1.7-0.1,2.4,0.4c1.2,0.3,1.6,1.6,1.2,2.7c1.6,0,3.3,0.8,3.6,2.7c0.8-0.7,3.1,1.6,2.3,3.6
		c0.7,0.1,1.2,0.3,1.7,0.6c0.9,0.1,1.7,0.4,2.2,1.1c1.6,0.2,6.4,0.7,6.4,2.9v0.6h0.3c1.7,0,3.3-0.3,3.3,2.4v2.5
		c0,0.1,0.1,0.2,0.1,0.3l0.1,0.1l-0.1,0.1c0,0.8-0.5,1.3-1.2,1.6l0,2.9l-2.4-0.8c-0.4,0.6-0.6,1.3-0.6,2c1.9,0.5,2.6,2.3,2.6,4.4
		l0.1,0c0.1-0.6,0.2-1.1,0.5-1.4c-0.5-0.5-0.7-1.3-0.7-2.4c0-1.5,1.6-1.6,2.6-1.7l0.1,0c0.4-0.8,1.2-1.1,2.1-1.1h0
		c-0.1-0.6-0.2-1.3-0.2-1.6c0,0,2.5,0.9,2.8,1c1.1,0.4,2.4,0,3.8,1c1.2,0.9,2,2.2,3,3.3l-0.8-0.1c0.7,1,1.4,2,2.1,2.9
		c0,0-0.9-0.3-1.8-0.5c0.2,0.6,0.4,1.3,0.4,2c0,0.4-0.1,0.8-0.1,1.2c1-0.5,2.4-0.5,3.7,0c0.2,0.1,2.3,1,2.3,1L93,52.8
		c0.8,0.8,1.7,1.8,2.4,2.6l-1.4-0.1c0.7,1.5,1.2,3.1,1.2,4.8c1.4,1.1,1.1,2.1,2.2,3.1l1.2,1.1l-1.2,0.5c0.6,0.5,2.4,1.6,2.5,1.7
		c0,0-2.4,0.7-2.7,0.8c-0.3,0.1-0.6,0.1-0.9,0.1l0,0.1l-0.3-0.1c-0.3,0-0.6-0.1-1-0.2l0,0c-1.1-0.2-2-0.6-2.8-1.2
		c-0.1,0.3-0.2,0.6-0.4,0.9c-0.5,0.8-1.2,1.6-1.7,2.3c0.3,3.2,2.6,3.3,5.1,3.9l-1.7,1.2c0.6,0,1.4,0.1,1.4,0.1s-0.9,1.1-1.4,1.7
		l1.4,1.6h-2.8c-0.5,0.5-0.7,2.2-0.9,2.9h-4l-1.6,0.1l-0.2-0.3l-1.4-0.1c0,0-0.1-1.3-0.1-1.5c0.1-1.8,1.5-2.8,2.9-3.1
		c-1.7-1.5-3.2-1.7-4.5-2.7v6.9c0,3.1-1.3,3.6-3.6,3.6c-0.3,0-0.6,0-0.9,0v0.6c0,2.6-0.8,3.1-3.1,4.1c-2.2,0.9-11.8,3.6-24.9,3.6
		s-22.7-2.6-24.9-3.6c-2.3-1-3.1-1.5-3.1-4.1v-0.6c-0.3,0-0.6,0-0.9,0c-2,0-3.6-0.3-3.6-3.6V73c-1.3,1.1-2.9,1.3-4.5,2.7
		c2.6,0.5,3,2.4,2.8,4.6l-1.4,0.1l-0.2,0.3l-1.6-0.1h-4C8.4,80,8.1,78,7.6,77.6c-0.1,0.1-2.7,0.1-2.7,0.1l1.4-1.6
		c-0.4-0.5-1.1-1.4-1.1-1.4l1.3-0.3l-1.8-1.3c1.1-0.3,2.2-0.3,3.2-0.8c1-0.5,1.7-2,1.9-3.1C8.6,67.7,7.9,67,7.6,66
		c-0.8,0.6-1.7,0.9-2.8,1.2c-0.3,0.1-0.6,0.2-1,0.2l-0.3,0.1l0-0.1c-1.2,0-2.5-0.6-3.6-0.9c0.1-0.1,2-1.2,2.5-1.7l-1.2-0.5
		c1.5-1.3,1.5-1.1,2.2-2.7c0.2-0.5,0.5-1.1,1.2-1.5c0-1.7,0.5-3.3,1.2-4.8l-1.4,0.1c0.7-0.8,1.6-1.8,2.4-2.6l-0.6-0.3
		c0,0,2-0.9,2.3-1c1.6-0.7,2.8-0.6,3.7-0.1c-0.1-0.4-0.1-0.7-0.1-1.1c0-0.7,0.1-1.4,0.4-2c-0.9,0.3-1.8,0.5-1.8,0.5
		c0.7-1,1.4-2,2.1-2.9L12,45.9c2.3-2.5,2.9-4.1,6.6-4.3c0.5,0,2.4-0.8,3-1c0,0.3-0.2,1-0.2,1.6h0c0.9,0,1.6,0.3,2.1,1.1l0.1,0
		c1.1,0.1,2.6,0.2,2.6,1.7c0,1-0.2,1.8-0.7,2.4c0.1,0.1,0.1,0.2,0.2,0.3c0.2,0.3,0.3,0.7,0.3,1.1l0.1-0.1l0.1,0
		C25.7,48.4,26.5,45.1,28.7,44.4"/>
	<path id="path9064" class="st94" d="M73.1,39.3c-1.6,1.5-2.9,3.1-2.9,5.4v0.7h0.2c0.2,0,0.5,0,0.7,0.1c0.3,0.1,1.1,0.7,1.5,1.3
		c0.3,0.6,0.3,1.9,0.3,2.6c0.3,0.4,2.4,1.2,3.1,1.6c0.2,0.1,0.6,0.5,0.9,0.5c0.3,0,0.7-0.3,0.7-0.7c0-0.5-0.4-0.7-0.5-0.7
		c-0.4,0-0.8,0.2-1.2,0.2c-0.5,0-0.8-0.3-0.8-0.9c0-0.5,0.3-1.8,1.1-1.4c0.4,0.2,0.7,0.5,1.2,0.5c0.2,0,0.6-0.1,0.7-0.2
		c0-0.6-0.5-0.9-1.1-0.9c-1.2,0-1.5,0-1.8-1.1c-0.1-0.4-0.2-0.8-0.2-1c0-0.8,1.7-0.6,2.2-0.7c0.5-0.1,0.2-1.1,1.6-1.1
		c0.3,0,0.7,0,1.1-0.1c0.1-0.2,0-0.8,0-1c0,0,0.9,0.3,1.2,0.4c0.3,0.1,0.6,0.1,0.9,0.1c0.7,0.1,2,0.3,2.5,0.8
		c0.3,0.2,0.6,0.6,0.8,0.9c0,0-0.8-0.1-1.1-0.2c1.3,0.9,1.8,1.4,2.7,2.7c0,0-1-0.3-1.3-0.4c0.8,1.1,1.4,2.3,1.4,3.7
		c0,0.5-0.2,1.5-0.2,1.5l-0.1-0.1c0.3,1.5,0.3,2.7-0.4,4.2c0,0-0.3-0.9-0.4-1.3c0,0,0-0.1-0.1-0.1c-0.1,0.5-0.3,1.2-0.5,1.8
		c-0.4,1-1,3-1.1,3.6c-0.1,0.6,0,1.7,1,3.1c0.9,1.3,2.7,1.8,3.3,1.8c0.4,0,1-0.4,1-1.4c0-1.6-1.3-3.9-1.8-5.5
		c-0.2-0.7-0.4-1.6-0.5-2.6c-0.1-2.3,1.6-3.3,3.5-2.8c0.3,0.1,1,0.4,1,0.4L91,52.7c0.9,0.3,1.4,0.9,2,1.5l-0.7,0
		c1.1,1.9,2.1,4.2,1.9,6.5l0.1,0.1c1.4,0.8,1.1,1.8,1.9,2.8c0.1,0.1,0.5,0.5,0.5,0.5s-0.4,0.2-0.5,0.2c-0.1,0-0.2,0-0.3,0
		c-0.1,0-0.1,0-0.1,0c0.5,0.9,0.9,1.4,1.8,1.9c0,0-0.7,0.2-1,0.2c-0.8,0-1.5-0.4-2.1-0.8l0.2,0.4c0,0-0.6-0.1-0.6-0.2
		c-1.2-0.6-2-2.1-2-3.3c0-0.5,0.3-1,0.6-1.4c-0.1-1.3-0.2-2.5-0.5-3.8c-0.4-1.4-1.9-3.2-2.5-3.2C89,54,88.8,54.3,88.8,55
		c-0.1,1.2,2.2,5.4,2.5,7.2c0.2,0.9,0.3,2.6,0.2,3.2c-0.1,0.7-0.6,1.3-1,1.8v-0.5c-0.4,0.6-0.9,1.1-1.4,1.6c0.1,0.5,0.1,1,0.2,1.6
		c0.1,1,1.4,2.8,2.4,3.3c0.3,0.2,1.1,0.4,1.1,0.4S92.3,74,92.3,74c-0.4,0.4-0.3,1,0.2,1.2c0,0,0.4,0.1,0.4,0.1s-0.3,0.3-0.3,0.3
		c-0.1,0.1-0.3,0.2-0.5,0.2c0.1,0.3,0.4,0.5,0.6,0.8H92l0,0c-0.9,0.4-1.2,2-1.4,2.9h-3.2l-1,0.1l-0.1-0.2l-1.1-0.1c0,0,0-0.3,0-0.4
		c0.1-1.3,1.2-2.1,2.5-2.2c0.2,0,0.4,0,0.6,0c0.1-0.3,0.2-0.7,0.2-1C87.9,75,86.7,74,86,73.8c-1-0.4-2.1-1-3.1-1.9
		c-0.8-0.7-1.3-2-1.6-3.1c-1-0.1-2.1-0.2-3-0.8c0.2,0.7,0.5,0.9,1.1,1.3c0,0-0.5,0.2-0.6,0.2c-0.2,0-0.4,0-0.7,0
		c0.1,0.2,0.3,0.7,0.3,0.7s-0.4,0-0.5,0.1c-0.9,0.2-2.5,1.7-2.5,2.7c0,0,0.1,0.4,0.1,0.4l-5.4-0.3c0,0,0.3-0.7,0.5-1.1
		c0.8-1.4,1.6-1.4,3.1-1.3c0.5-0.3,0.7-0.5,1-1.1c-1.5-1.3-3.6-3.7-3.6-5.7c0-0.9,0.4-2.3,2.8-2.3c1.1,0,2.1,0.1,2.8,0.3
		c-0.3-0.3-0.6-0.6-0.9-1c-0.1-0.1-1.4-2-0.9-2.5c-0.3,0.1-0.4,0.6-0.5,0.9c0,0-0.3-0.4-0.3-0.4c-0.6-0.6-1-0.1-1.6,0.3
		c0,0,0.1-0.7,0.2-0.7c0-0.1,0.1-0.1,0.1-0.2c-0.4,0-1.3,0-1.6,0.3l-0.2,0.2l-0.6-0.4v10c0,3.5-0.2,6.8-3.1,9.2c-0.9,0.8-2,1.4-3,2
		c-2.1,1.2-6.2,1-8.6,1.3c-0.6,0.1-1.7,0.4-2.3,0.9l-0.7,0c0.2-0.4,1-1.2,2.9-1.4c2.3-0.3,6.5-0.1,8.4-1.2c1.9-1.2,4.1-2.4,5-4.6
		c0.9-2.2,0.9-4.1,0.9-6.1v-7H30.4v7c0,3.4,0.1,6.5,2.9,8.8c0.9,0.7,1.9,1.3,2.9,1.9c1.9,1.2,6.1,1,8.4,1.2c1.9,0.2,2.6,1.1,2.9,1.4
		l-0.7,0c-0.6-0.6-1.5-0.8-2.2-0.9c-2.4-0.3-6.6,0-8.6-1.3c-3.6-2.2-5.5-3.5-6-8.1c-0.1-1-0.1-2-0.1-3.1v-10l-0.6,0.4l-0.2-0.2
		C28.7,58,27.9,58,27.4,58c0.1,0.1,0.1,0.1,0.1,0.2c0,0.1,0.2,0.7,0.2,0.7c-0.6-0.4-1-1-1.6-0.3c0,0-0.3,0.4-0.3,0.4
		c-0.1-0.3-0.2-0.7-0.5-0.9c0.5,0.5-0.9,2.4-0.9,2.5c-0.3,0.4-0.6,0.7-0.9,1c0.7-0.1,1.7-0.3,2.8-0.3c2.4,0,2.8,1.4,2.8,2.3
		c0,2.1-2.1,4.4-3.6,5.7c0.3,0.5,0.5,0.7,1,1.1c1.5-0.1,2.3,0,3.1,1.3c0.2,0.4,0.5,1.1,0.5,1.1l-5.5,0.3c0,0,0.1-0.4,0.1-0.4
		c0-1-1.6-2.4-2.5-2.7c-0.1,0-0.5-0.1-0.5-0.1s0.2-0.5,0.3-0.7c-0.2,0.1-0.4,0.1-0.7,0c-0.1,0-0.6-0.2-0.6-0.2
		c0.5-0.4,0.9-0.6,1.1-1.3c-0.9,0.5-2,0.7-3,0.8c-0.3,1-0.8,2.4-1.6,3.1c-1,0.9-2.2,1.5-3.1,1.9c-0.8,0.3-1.9,1.3-2.5,1.9
		c0.1,0.3,0.2,0.7,0.2,1c0.2,0,0.4,0,0.6,0c1.3,0.1,2.4,0.9,2.5,2.2c0,0.1,0,0.4,0,0.4l-1.1,0.1l-0.1,0.2l-1-0.1H9.5
		c-0.2-0.9-0.5-2.4-1.4-2.9l0,0H7.3c0.2-0.2,0.5-0.5,0.6-0.8c-0.2,0-0.3-0.1-0.5-0.2c0,0-0.3-0.3-0.3-0.3s0.4-0.1,0.4-0.1
		c0.5-0.2,0.6-0.8,0.2-1.2c0,0-0.5-0.4-0.5-0.4s0.8-0.2,1.1-0.4c1-0.5,2.2-2.2,2.4-3.3c0.1-0.6,0.1-1.1,0.2-1.6
		c-0.5-0.5-1.1-1-1.4-1.6c0,0.3,0,0.5,0,0.5c-0.4-0.5-0.9-1.1-1-1.8c-0.1-0.6,0.1-2.3,0.2-3.2c0.3-1.8,2.6-6,2.5-7.2
		c-0.1-0.6-0.2-1-0.7-0.9c-0.6,0.1-2.1,1.8-2.5,3.2c-0.3,1.3-0.4,2.5-0.5,3.8c0.3,0.4,0.6,0.9,0.6,1.4c0,1.3-0.8,2.8-2,3.3
		c-0.1,0-0.6,0.2-0.6,0.2l0.2-0.4c-0.6,0.4-1.3,0.8-2.1,0.8c-0.3,0-1-0.2-1-0.2c0.9-0.6,1.3-1,1.8-1.9c0,0-0.1,0-0.1,0
		c-0.1,0-0.3,0-0.3,0c-0.1,0-0.5-0.2-0.5-0.2s0.4-0.3,0.5-0.5c0.8-1,0.5-2,1.9-2.8l0.1-0.1c-0.2-2.3,0.8-4.6,2-6.5l-0.7,0
		c0.6-0.7,1.1-1.2,2-1.5l-0.3-0.2c0,0,0.7-0.3,1-0.4c1.9-0.5,3.6,0.5,3.5,2.8c0,1-0.2,1.9-0.5,2.6c-0.5,1.6-1.8,3.9-1.8,5.5
		c0,1,0.6,1.4,1,1.4c0.5,0,2.3-0.4,3.3-1.8c1-1.4,1-2.5,1-3.1c-0.1-0.6-0.7-2.5-1.1-3.6c-0.2-0.6-0.4-1.3-0.5-1.8c0,0,0,0.1-0.1,0.1
		c-0.1,0.4-0.4,1.3-0.4,1.3c-0.7-1.4-0.7-2.6-0.4-4.2l-0.1,0.1c0,0-0.2-1.1-0.2-1.5c0-1.4,0.6-2.6,1.4-3.7c-0.4,0.1-1.3,0.4-1.3,0.4
		c0.9-1.3,1.3-1.8,2.7-2.7c-0.4,0-1.1,0.2-1.1,0.2c0.3-0.3,0.5-0.6,0.8-0.9c0.6-0.4,1.8-0.7,2.5-0.8c0.3,0,0.6,0,0.9-0.1
		c0.3-0.1,1.2-0.4,1.2-0.4c0,0.2-0.1,0.9,0,1c0.3,0.1,0.7,0.1,1.1,0.1c1.3,0,1.1,0.9,1.6,1.1c0.5,0.1,2.2-0.1,2.2,0.7
		c0,0.2-0.1,0.6-0.2,1c-0.3,1.2-0.6,1.1-1.8,1.1c-0.5,0-1.1,0.4-1.1,0.9c0.1,0.1,0.5,0.2,0.7,0.2c0.5,0,0.8-0.3,1.2-0.5
		c0.8-0.4,1.1,0.9,1.1,1.4c0,0.6-0.2,0.9-0.8,0.9c-0.4,0-0.8-0.2-1.2-0.2c-0.2,0-0.5,0.3-0.5,0.7c0,0.4,0.4,0.7,0.7,0.7
		c0.2,0,0.7-0.3,0.9-0.5c0.6-0.4,2.8-1.2,3.1-1.6c0-0.7-0.1-2,0.2-2.6c0.4-0.6,1.2-1.1,1.5-1.3c0.2-0.1,0.5-0.1,0.7-0.1h0.2v-0.7
		c0-2.3-1.4-3.9-2.9-5.4L26.6,39c-0.2-0.1-0.3-0.3-0.5-0.4c0.5-0.4,2.4-0.3,2.7-0.3c1,0,4.2,0.4,5.7,0.4c0.6,0,2.2,0,2.9-0.6h25.3
		c0.7,0.6,2.3,0.6,2.9,0.6c1.4,0,4.6-0.4,5.6-0.4c1.1,0,2,0,2.4,0.2c0.1,0.1,0.2,0.1,0.3,0.2c-0.2,0.1-0.3,0.3-0.5,0.4"/>
	<path id="path9066" class="st95" d="M73.2,39.3c-1.6,1.5-2.9,3.1-2.9,5.4v0.7h0.2c0.2,0,0.5,0,0.7,0.1c0.3,0.1,1.1,0.7,1.5,1.3
		c0.3,0.6,0.3,1.9,0.3,2.6c0.3,0.4,2.4,1.2,3.1,1.6c0.2,0.1,0.6,0.5,0.9,0.5c0.3,0,0.7-0.3,0.7-0.7c0-0.5-0.4-0.7-0.5-0.7
		c-0.4,0-0.8,0.2-1.2,0.2c-0.5,0-0.8-0.3-0.8-0.9c0-0.5,0.3-1.8,1.1-1.4c0.4,0.2,0.7,0.5,1.2,0.5c0.2,0,0.6-0.1,0.7-0.2
		c0-0.6-0.5-0.9-1.1-0.9c-1.2,0-1.5,0-1.8-1.1c-0.1-0.4-0.2-0.8-0.2-1c0-0.8,1.7-0.6,2.2-0.7c0.5-0.1,0.2-1.1,1.6-1.1
		c0.3,0,0.7,0,1.1-0.1c0.1-0.2,0-0.8,0-1c0,0,0.9,0.3,1.2,0.4c0.3,0.1,0.6,0.1,0.9,0.1c0.7,0.1,2,0.3,2.5,0.8
		c0.3,0.2,0.6,0.6,0.8,0.9c0,0-0.8-0.1-1.1-0.2c1.3,0.9,1.8,1.4,2.7,2.7c0,0-1-0.3-1.3-0.4c0.8,1.1,1.4,2.3,1.4,3.7
		c0,0.5-0.2,1.5-0.2,1.5l-0.1-0.1c0.3,1.5,0.3,2.7-0.4,4.2c0,0-0.3-0.9-0.4-1.3c0,0,0-0.1-0.1-0.1c-0.1,0.5-0.3,1.2-0.5,1.8
		c-0.4,1-1,3-1.1,3.6c-0.1,0.6,0,1.7,1,3.1c0.9,1.3,2.7,1.8,3.3,1.8c0.4,0,1-0.4,1-1.4c0-1.6-1.3-3.9-1.8-5.5
		c-0.2-0.7-0.4-1.6-0.5-2.6c-0.1-2.3,1.6-3.3,3.5-2.8c0.3,0.1,1,0.4,1,0.4L91,52.7c0.9,0.3,1.4,0.9,2,1.5l-0.7,0
		c1.1,1.9,2.1,4.2,1.9,6.5l0.1,0.1c1.4,0.8,1.1,1.8,1.9,2.8c0.1,0.1,0.5,0.5,0.5,0.5s-0.4,0.2-0.5,0.2c-0.1,0-0.2,0-0.3,0
		c-0.1,0-0.1,0-0.1,0c0.5,0.9,0.9,1.4,1.8,1.9c0,0-0.7,0.2-1,0.2c-0.8,0-1.5-0.4-2.1-0.8l0.2,0.4c0,0-0.6-0.1-0.6-0.2
		c-1.2-0.6-2-2.1-2-3.3c0-0.5,0.3-1,0.6-1.4c-0.1-1.3-0.2-2.5-0.5-3.8c-0.4-1.4-1.9-3.2-2.5-3.2c-0.5-0.1-0.7,0.3-0.7,0.9
		c-0.1,1.2,2.2,5.4,2.5,7.2c0.2,0.9,0.3,2.6,0.2,3.2c-0.1,0.7-0.6,1.3-1,1.8v-0.5c-0.4,0.6-0.9,1.1-1.4,1.6c0.1,0.5,0.1,1,0.2,1.6
		c0.1,1,1.4,2.8,2.4,3.3c0.3,0.2,1.1,0.4,1.1,0.4s-0.5,0.3-0.5,0.4c-0.4,0.4-0.3,1,0.2,1.2c0,0,0.4,0.1,0.4,0.1s-0.3,0.3-0.3,0.3
		c-0.1,0.1-0.3,0.2-0.5,0.2c0.1,0.3,0.4,0.5,0.6,0.8H92l0,0c-0.9,0.4-1.2,2-1.4,2.9h-3.2l-1,0.1l-0.1-0.2l-1.1-0.1c0,0,0-0.3,0-0.4
		c0.1-1.3,1.2-2.1,2.5-2.2c0.2,0,0.4,0,0.6,0c0.1-0.3,0.2-0.7,0.2-1C87.9,75,86.7,74,86,73.7c-1-0.4-2.1-1-3.1-1.9
		c-0.8-0.7-1.3-2-1.6-3.1c-1-0.1-2.1-0.2-3-0.8c0.2,0.7,0.5,0.9,1.1,1.3c0,0-0.5,0.2-0.6,0.2c-0.2,0-0.4,0-0.7,0
		c0.1,0.2,0.3,0.7,0.3,0.7s-0.4,0-0.5,0.1c-0.9,0.2-2.5,1.7-2.5,2.7c0,0,0.1,0.4,0.1,0.4L70,72.9c0,0,0.3-0.7,0.5-1.1
		c0.8-1.4,1.6-1.4,3.1-1.3c0.5-0.3,0.7-0.5,1-1.1c-1.5-1.3-3.6-3.7-3.6-5.7c0-0.9,0.4-2.3,2.8-2.3c1.1,0,2.1,0.1,2.8,0.3
		c-0.3-0.3-0.6-0.6-0.9-1c-0.1-0.1-1.4-2-0.9-2.5c-0.3,0.1-0.4,0.6-0.5,0.9c0,0-0.3-0.4-0.3-0.4c-0.6-0.6-1-0.1-1.6,0.3
		c0,0,0.1-0.7,0.2-0.7c0-0.1,0.1-0.1,0.1-0.2c-0.4,0-1.3,0-1.6,0.3l-0.2,0.2l-0.6-0.4v10c0,3.5-0.2,6.8-3.1,9.2c-0.9,0.8-2,1.4-3,2
		c-2.1,1.2-6.2,1-8.6,1.3c-0.6,0.1-1.7,0.4-2.3,0.9l-0.7,0c0.2-0.4,1-1.2,2.9-1.4c2.3-0.3,6.5-0.1,8.4-1.2c1.9-1.2,4.1-2.4,5-4.6
		c0.9-2.2,0.9-4.1,0.9-6.1v-7H30.3v7c0,3.4,0.1,6.5,2.9,8.8c0.9,0.7,1.9,1.3,2.9,1.9c1.9,1.2,6.1,1,8.4,1.2c1.9,0.2,2.6,1.1,2.9,1.4
		l-0.7,0c-0.6-0.6-1.5-0.8-2.2-0.9c-2.4-0.3-6.6,0-8.6-1.3c-3.6-2.2-5.5-3.5-6-8.1c-0.1-1-0.1-2-0.1-3.1v-10l-0.6,0.4L29,58.3
		C28.7,58,27.8,58,27.4,58c0.1,0.1,0.1,0.1,0.1,0.2c0,0.1,0.2,0.7,0.2,0.7c-0.6-0.4-1-1-1.6-0.3c0,0-0.3,0.4-0.3,0.4
		c-0.1-0.3-0.2-0.7-0.5-0.9c0.5,0.5-0.9,2.4-0.9,2.5c-0.3,0.4-0.6,0.7-0.9,1c0.7-0.1,1.7-0.3,2.8-0.3c2.4,0,2.8,1.4,2.8,2.3
		c0,2.1-2.1,4.4-3.6,5.7c0.3,0.5,0.5,0.7,1,1.1c1.5-0.1,2.3,0,3.1,1.3c0.2,0.4,0.5,1.1,0.5,1.1l-5.5,0.3c0,0,0.1-0.4,0.1-0.4
		c0-1-1.6-2.4-2.5-2.7c-0.1,0-0.5-0.1-0.5-0.1s0.2-0.5,0.3-0.7c-0.2,0.1-0.4,0.1-0.7,0c-0.1,0-0.6-0.2-0.6-0.2
		c0.5-0.4,0.9-0.6,1.1-1.3c-0.9,0.5-2,0.7-3,0.8c-0.3,1-0.8,2.4-1.6,3.1c-1,0.9-2.2,1.5-3.1,1.9c-0.8,0.3-1.9,1.3-2.5,1.9
		c0.1,0.3,0.2,0.7,0.2,1c0.2,0,0.4,0,0.6,0c1.3,0.1,2.4,0.9,2.5,2.2c0,0.1,0,0.4,0,0.4l-1.1,0.1l-0.1,0.2l-1-0.1H9.4
		c-0.2-0.9-0.5-2.4-1.4-2.9l0,0H7.2c0.2-0.2,0.5-0.5,0.6-0.8c-0.2,0-0.3-0.1-0.5-0.2c0,0-0.3-0.3-0.3-0.3s0.4-0.1,0.4-0.1
		c0.5-0.2,0.6-0.8,0.2-1.2c0,0-0.5-0.4-0.5-0.4s0.8-0.2,1.1-0.4c1-0.5,2.2-2.2,2.4-3.3c0.1-0.6,0.1-1.1,0.2-1.6
		c-0.5-0.5-1.1-1-1.4-1.6c0,0.3,0,0.5,0,0.5c-0.4-0.5-0.9-1.1-1-1.8c-0.1-0.6,0.1-2.3,0.2-3.2c0.3-1.8,2.6-6,2.5-7.2
		c-0.1-0.6-0.2-1-0.7-0.9c-0.6,0.1-2.1,1.8-2.5,3.2c-0.3,1.3-0.4,2.5-0.5,3.8c0.3,0.4,0.6,0.9,0.6,1.4c0,1.3-0.8,2.8-2,3.3
		C6,65.8,5.5,66,5.5,66l0.2-0.4C5,66,4.3,66.4,3.5,66.4c-0.3,0-1-0.2-1-0.2c0.9-0.6,1.3-1,1.8-1.9c0,0-0.1,0-0.1,0
		c-0.1,0-0.3,0-0.3,0c-0.1,0-0.5-0.2-0.5-0.2s0.4-0.3,0.5-0.5c0.8-1,0.5-2,1.9-2.8l0.1-0.1c-0.2-2.3,0.8-4.6,2-6.5l-0.7,0
		c0.6-0.7,1.1-1.2,2-1.5l-0.3-0.2c0,0,0.7-0.3,1-0.4c1.9-0.5,3.6,0.5,3.5,2.8c0,1-0.2,1.9-0.5,2.6c-0.5,1.6-1.8,3.9-1.8,5.5
		c0,1,0.6,1.4,1,1.4c0.5,0,2.3-0.4,3.3-1.8c1-1.4,1-2.5,1-3.1C16,59,15.3,57.1,15,56.1c-0.2-0.6-0.4-1.3-0.5-1.8c0,0,0,0.1-0.1,0.1
		c-0.1,0.4-0.4,1.3-0.4,1.3c-0.7-1.4-0.7-2.6-0.4-4.2l-0.1,0.1c0,0-0.2-1.1-0.2-1.5c0-1.4,0.6-2.6,1.4-3.7c-0.4,0.1-1.3,0.4-1.3,0.4
		c0.9-1.3,1.3-1.8,2.7-2.7c-0.4,0-1.1,0.2-1.1,0.2c0.3-0.3,0.5-0.6,0.8-0.9c0.6-0.4,1.8-0.7,2.5-0.8c0.3,0,0.6,0,0.9-0.1
		c0.3-0.1,1.2-0.4,1.2-0.4c0,0.2-0.1,0.9,0,1c0.3,0.1,0.7,0.1,1.1,0.1c1.3,0,1.1,0.9,1.6,1.1c0.5,0.1,2.2-0.1,2.2,0.7
		c0,0.2-0.1,0.6-0.2,1c-0.3,1.2-0.6,1.1-1.8,1.1c-0.5,0-1.1,0.4-1.1,0.9c0.1,0.1,0.5,0.2,0.7,0.2c0.5,0,0.8-0.3,1.2-0.5
		c0.8-0.4,1.1,0.9,1.1,1.4c0,0.6-0.2,0.9-0.8,0.9c-0.4,0-0.8-0.2-1.2-0.2c-0.2,0-0.5,0.3-0.5,0.7c0,0.4,0.4,0.7,0.7,0.7
		c0.2,0,0.7-0.3,0.9-0.5c0.6-0.4,2.8-1.2,3.1-1.6c0-0.7-0.1-2,0.2-2.6c0.4-0.6,1.2-1.1,1.5-1.3c0.2-0.1,0.5-0.1,0.7-0.1h0.2v-0.7
		c0-2.3-1.4-3.9-2.9-5.4L26.6,39c-0.2-0.1-0.3-0.3-0.5-0.4c0.5-0.4,2.4-0.3,2.7-0.3c1,0,4.2,0.4,5.7,0.4c0.6,0,2.2,0,2.9-0.6h25.3
		c0.7,0.6,2.3,0.6,2.9,0.6c1.4,0,4.6-0.4,5.6-0.4c1.1,0,2,0,2.4,0.2c0.1,0.1,0.2,0.1,0.3,0.2c-0.2,0.1-0.3,0.3-0.5,0.4L73.2,39.3z"
		/>
	<path id="path9068" class="st96" d="M42,30c-0.7-0.3-1.5-0.8-1.9-1.3c-0.9-1-0.9-1.5-0.5-2.4c0.3-0.7,1.1-1.2,2.2-1.6l0-0.1
		c0.2-1.6,1.8-2,3.2-1.7c0.2,0,0.3,0.1,0.6,0.2c0.5,0.2,1.5,0.8,1.9,0.9c0.4-0.1,0.5-0.2,0.5-0.6c0-0.4-0.4-0.7-0.7-1
		c-0.5,0-1,0-1.4-0.3c-0.6-0.4-0.9-1.1-0.6-1.6c0.2-0.3,0.4-0.4,0.7-0.4c0.2-0.3,0.6-0.4,1.1-0.4c0.2,0,0.5,0,0.7,0.1
		c0.9,0.1,1.3-0.6,1.2-1.5c0-0.5-0.1-1.3,0.1-1.8c0.1-0.3,0.3-0.5,0.5-0.8c-0.1-0.1-0.2-0.3-0.2-0.4c0-0.3,0.4-1.1,0.5-1.6
		c0.1-0.5,0.2-1.2,0.2-1.2s0.2,0.8,0.3,1.2c0.1,0.5,0.5,1.2,0.5,1.6c0,0.1-0.1,0.3-0.2,0.4c0.2,0.2,0.4,0.4,0.4,0.7
		c0.1,0.5,0.1,1.3,0.1,1.8c-0.1,0.9,0.3,1.5,1.2,1.5c0.2,0,0.5-0.1,0.7-0.1c0.4,0,0.9,0.1,1.1,0.4c0.3,0,0.5,0.1,0.7,0.4
		c0.3,0.5,0,1.2-0.6,1.6c-0.5,0.3-0.9,0.3-1.4,0.3c-0.4,0.3-0.7,0.7-0.7,1c0,0.4,0.1,0.5,0.5,0.6c0.4-0.1,1.4-0.7,1.9-0.9
		c0.2-0.1,0.4-0.2,0.6-0.2c1.4-0.3,3,0.1,3.2,1.7l0,0.1c1.1,0.4,1.9,0.9,2.2,1.6c0.4,0.9,0.4,1.4-0.5,2.4c-0.5,0.5-1.2,1-1.9,1.3
		l0.6,0.1c0.6-0.6,1.6-1,2.5-0.9c0.9,0.1,1.4,0.3,1.8,0.6c0.2,0,0.4,0,0.6,0c0.6,0.1,1.1,0.5,1.3,1c2.1,0.3,4.9,0.8,5.7,1.5
		c0.2,0.1,0.3,0.3,0.3,0.5v1.7h1.3c1.1,0,2.2-0.5,2.2,1.3v2.7c0.1,0.1,0.1,0.3,0,0.5c-0.1,0.3-0.9,0.5-1.3,0.6l0.1,2.2l-1.7-0.6
		c0.1-0.1,0.2-0.2,0.3-0.4l1,0.4l-0.1-1.3c0.1-0.1,0.3-0.3,0.4-0.4l0.4-0.4c0.3-0.1,0.6-0.2,0.5-0.4h-0.1v-0.1
		c-0.1-0.1-0.2-0.1-0.3-0.2c-0.4-0.2-1.3-0.2-2.4-0.2c-1,0-4.2,0.4-5.6,0.4c-0.7,0-3.2-0.1-3.2-1.2c0-0.1,0-0.2,0-0.3V37l-0.1,0.1
		c-0.4,0.4-0.9,0.7-1.5,0.9h-0.6c0.1,0,0.2-0.1,0.5-0.2c0.7-0.3,1.1-0.6,1.6-1.1v-0.1c-0.7,0.5-1.5,0.8-2.4,0.8
		c-1.7,0-2.4-0.8-2.8-1.8c-0.1-0.1-0.1-0.2-0.1-0.4c-0.2,0.2-0.2,0.5-0.2,0.7c0,0.7,0.4,1.5,1,2h-0.3c-0.3-0.3-0.5-0.6-0.7-1l0.1,1
		h-1.1l-0.4-3.2c-1.1,1.8-3.1,3-5.3,3c-2.3,0-4.2-1.2-5.3-3L44.3,38h-1.1l0.1-1.3c-0.2,0.5-0.4,0.9-0.8,1.3h-0.3c0.5-0.5,1-1.3,1-2
		c0-0.3-0.1-0.5-0.2-0.7c0,0.1-0.1,0.2-0.1,0.4c-0.4,1-1.2,1.8-2.9,1.8c-0.9,0-1.7-0.3-2.4-0.8v0.1c0.5,0.5,1,0.8,1.6,1.1
		c0.2,0.1,0.4,0.2,0.5,0.2h-0.5c-0.5-0.2-1-0.5-1.5-0.9L37.6,37v0.1c0,0.1,0,0.2,0,0.3c0,1.2-2.5,1.2-3.2,1.2
		c-1.4,0-4.6-0.4-5.7-0.4c-0.3,0-2.2-0.1-2.7,0.3v0.1H26c-0.1,0.2,0.5,0.3,0.5,0.3l0.4,0.4c0.1,0.1,0.3,0.3,0.4,0.4l-0.1,1.3l1-0.4
		c0.1,0.1,0.2,0.2,0.3,0.4l-1.7,0.6l0.1-2.2c-0.2,0-0.5-0.1-0.6-0.2c-0.6-0.2-0.9-0.6-0.6-0.9v-2.7c0-0.6,0.2-1.3,0.9-1.4
		c0.4,0,0.9,0.1,1.3,0.1h1.3v-1.7c0-0.8,2.1-1.2,2.5-1.3c0.7-0.2,1.8-0.4,3.5-0.7c0.2-0.6,0.7-0.9,1.3-1c0.2,0,0.4,0,0.6,0
		c0.4-0.3,1-0.5,1.8-0.6c0.9-0.1,1.9,0.3,2.5,0.9"/>
	<path id="path9070" class="st97" d="M42,30c-0.7-0.3-1.5-0.8-1.9-1.3c-0.9-1-0.9-1.5-0.5-2.4c0.3-0.7,1.1-1.2,2.2-1.6l0-0.1
		c0.2-1.6,1.8-2,3.2-1.7c0.2,0,0.3,0.1,0.6,0.2c0.5,0.2,1.5,0.8,1.9,0.9c0.4-0.1,0.5-0.2,0.5-0.6c0-0.4-0.4-0.7-0.7-1
		c-0.5,0-1,0-1.4-0.3c-0.6-0.4-0.9-1.1-0.6-1.6c0.2-0.3,0.4-0.4,0.7-0.4c0.2-0.3,0.6-0.4,1.1-0.4c0.2,0,0.5,0,0.7,0.1
		c0.9,0.1,1.3-0.6,1.2-1.5c0-0.5-0.1-1.3,0.1-1.8c0.1-0.3,0.3-0.5,0.5-0.8c-0.1-0.1-0.2-0.3-0.2-0.4c0-0.3,0.4-1.1,0.5-1.6
		c0.1-0.5,0.2-1.2,0.2-1.2s0.2,0.8,0.3,1.2c0.1,0.5,0.5,1.2,0.5,1.6c0,0.1-0.1,0.3-0.2,0.4c0.2,0.2,0.4,0.4,0.4,0.7
		c0.1,0.5,0.1,1.3,0.1,1.8c-0.1,0.9,0.3,1.5,1.2,1.5c0.2,0,0.5-0.1,0.7-0.1c0.4,0,0.9,0.1,1.1,0.4c0.3,0,0.5,0.1,0.7,0.4
		c0.3,0.5,0,1.2-0.6,1.6c-0.5,0.3-0.9,0.3-1.4,0.3c-0.4,0.3-0.7,0.7-0.7,1c0,0.4,0.1,0.5,0.5,0.6c0.4-0.1,1.4-0.7,1.9-0.9
		c0.2-0.1,0.4-0.2,0.6-0.2c1.4-0.3,3,0.1,3.2,1.7l0,0.1c1.1,0.4,1.9,0.9,2.2,1.6c0.4,0.9,0.4,1.4-0.5,2.4c-0.5,0.5-1.2,1-1.9,1.3
		l0.6,0.1c0.6-0.6,1.6-1,2.5-0.9c0.9,0.1,1.4,0.3,1.8,0.6c0.2,0,0.4,0,0.6,0c0.6,0.1,1.1,0.5,1.3,1c2.1,0.3,4.9,0.8,5.7,1.5
		c0.2,0.1,0.3,0.3,0.3,0.5v1.7h1.3c1.1,0,2.2-0.5,2.2,1.3v2.7c0.1,0.1,0.1,0.3,0,0.5c-0.1,0.3-0.9,0.5-1.3,0.6l0.1,2.2l-1.7-0.6
		c0.1-0.1,0.2-0.2,0.3-0.4l1,0.4l-0.1-1.3c0.1-0.1,0.3-0.3,0.4-0.4l0.4-0.4c0.3-0.1,0.6-0.2,0.5-0.4h-0.1v-0.1
		c-0.1-0.1-0.2-0.1-0.3-0.2c-0.4-0.2-1.3-0.2-2.4-0.2c-1,0-4.2,0.4-5.6,0.4c-0.7,0-3.2-0.1-3.2-1.2c0-0.1,0-0.2,0-0.3V37l-0.1,0.1
		c-0.4,0.4-0.9,0.7-1.5,0.9h-0.6c0.1,0,0.2-0.1,0.5-0.2c0.7-0.3,1.1-0.6,1.6-1.1v-0.1c-0.7,0.5-1.5,0.8-2.4,0.8
		c-1.7,0-2.4-0.8-2.8-1.8c-0.1-0.1-0.1-0.2-0.1-0.4c-0.2,0.2-0.2,0.5-0.2,0.7c0,0.7,0.4,1.5,1,2h-0.3c-0.3-0.3-0.5-0.6-0.7-1l0.1,1
		h-1.1l-0.4-3.2c-1.1,1.8-3.1,3-5.3,3c-2.3,0-4.2-1.2-5.3-3L44.3,38h-1.1l0.1-1.3c-0.2,0.5-0.4,0.9-0.8,1.3h-0.3c0.5-0.5,1-1.3,1-2
		c0-0.3-0.1-0.5-0.2-0.7c0,0.1-0.1,0.2-0.1,0.4c-0.4,1-1.2,1.8-2.9,1.8c-0.9,0-1.7-0.3-2.4-0.8v0.1c0.5,0.5,1,0.8,1.6,1.1
		c0.2,0.1,0.4,0.2,0.5,0.2h-0.5c-0.5-0.2-1-0.5-1.5-0.9L37.6,37v0.1c0,0.1,0,0.2,0,0.3c0,1.2-2.5,1.2-3.2,1.2
		c-1.4,0-4.6-0.4-5.7-0.4c-0.3,0-2.2-0.1-2.7,0.3v0.1H26c-0.1,0.2,0.5,0.3,0.5,0.3l0.4,0.4c0.1,0.1,0.3,0.3,0.4,0.4l-0.1,1.3l1-0.4
		c0.1,0.1,0.2,0.2,0.3,0.4l-1.7,0.6l0.1-2.2c-0.2,0-0.5-0.1-0.6-0.2c-0.6-0.2-0.9-0.6-0.6-0.9v-2.7c0-0.6,0.2-1.3,0.9-1.4
		c0.4,0,0.9,0.1,1.3,0.1h1.3v-1.7c0-0.8,2.1-1.2,2.5-1.3c0.7-0.2,1.8-0.4,3.5-0.7c0.2-0.6,0.7-0.9,1.3-1c0.2,0,0.4,0,0.6,0
		c0.4-0.3,1-0.5,1.8-0.6c0.9-0.1,1.9,0.3,2.5,0.9L42,30z"/>
	<path id="path9072" class="st96" d="M68.6,55.5c0.1,0,0.3,0.1,0.5,0.3c0.4,0.3,0.7,0.7,0.6,0.9c-0.1,0.1-0.4-0.3-0.7-0.5
		c-0.2-0.1-0.4-0.1-0.5-0.2v1.8l0.4-0.3h1.4l0.5,0.3c0.7-0.5,2.1-0.4,2.9-0.3l-0.2,0.3c0.3,0,0.5,0.1,0.7,0.3l0,0
		c0.5-0.7,1.6-0.4,2.3-0.3c0,0-0.4,0.4-0.5,0.4c-0.3,0.2-0.5,0.2-0.8,0.3c0.4,1.4,1.6,2.7,2.7,3.5l-0.2,0.5c0,0-0.4-0.1-1.1-0.3
		C75.9,62.1,75,62,73.8,62c-2.1,0-2.3,1.1-2.3,1.8c0,2,2.2,4.4,3.7,5.6c0,0-0.1,0.3-0.2,0.5c-0.3,0.6-0.7,0.8-1.2,1.2
		c-0.5,0-1.6-0.1-2.1,0.2c-0.4,0.2-0.7,0.8-1,1.2l0.6,0c0-0.1,0.2-0.6,0.4-0.9c0.1-0.2,0.7-0.4,0.7-0.2c0,0.2-0.3,0.4-0.5,0.6
		c-0.2,0.2-0.1,0.5-0.1,0.6l0.6,0c0.1-0.2,0.3-0.6,0.4-0.8c0.1-0.1,0.7-0.4,0.7-0.2c0,0.2-0.3,0.4-0.5,0.6c-0.1,0.2-0.2,0.3-0.2,0.5
		l2,0.1c0.1-1.2,1.6-2.6,2.7-3c-0.2-0.4-0.2-0.9-0.3-1.3c0,0,0.6,0.4,0.7,0.4c0.1,0,0.1,0.1,0.2,0.1c-0.5-0.6-0.5-1.4-0.6-2.1
		c0,0,0.7,0.6,1,0.8c0.9,0.6,2.1,0.7,3.1,0.7c0.2,1,0.8,2.5,1.5,3.2c1,0.9,2.1,1.5,3,1.8c0.9,0.3,2.2,1.5,2.8,2.3
		c0,0-0.1,0.5-0.2,0.8c-0.1,0.3-0.1,0.9-0.1,0.9c-1.3-0.1-2.8,0.1-3,1.6l0.5,0c0-0.1,0.1-0.4,0.2-0.6c0.2-0.4,0.6-0.7,0.7-0.6
		c0.1,0.1-0.2,0.5-0.3,0.7c-0.1,0.2-0.2,0.4-0.2,0.6l0.1,0.1l0.5,0c0-0.1,0.2-0.5,0.3-0.8c0.2-0.3,0.4-0.5,0.6-0.4
		c0.2,0-0.1,0.4-0.2,0.7c-0.1,0.2-0.1,0.3-0.2,0.5h2.5c0.2-1,0.5-2.3,1.5-2.8l0.1,0c-0.2-0.4-0.3-0.8-0.3-1.2l0.2,0.1
		c-0.2-0.4-0.2-0.9,0.1-1.2c-0.6-0.2-1.2-0.6-1.6-1.2c-0.7-1-1.3-1.9-1.4-2.6c-0.2-1.7-0.1-1.9-1.2-3.2c1.4,0.1,1.5,0,2.5-0.8
		c0,0,0,0.2-0.1,0.4c0.3-0.4,0.6-1.1,0.6-1.1s0.2,0.2,0.3,0.4c0.3-0.7,0-2.7-0.1-3.4c-0.3-1.9-2.7-5.9-2.5-7.4
		c0.1-0.6,0.3-1.5,1.3-1.4c0.9,0.1,2.5,2.1,2.9,3.6c0.3,1.4,0.5,2.7,0.5,4.1c-0.2,0.3-0.6,0.8-0.6,1.2c0,1,0.4,1.9,1.2,2.5
		c-0.1-0.3-0.1-0.8-0.1-0.8s0.7,0.6,0.9,0.8c0.4,0.3,1.2,0.8,1.8,0.9c-0.4-0.5-1.3-1.6-1-2c0.2-0.2,0.3-0.1,0.5-0.1
		c-0.8-1.1-0.4-2.1-2.1-2.8c0,0,0.1-0.6,0-1.3c-0.1-2-1.2-4.5-2.5-6l0.5,0c-0.7-0.6-1.3-0.6-2.3-0.7l0.7-0.4
		c-1.6-0.4-2.9,0.4-2.8,2.3c0.1,1.6,0.5,2.8,1.1,4.2c0.4,0.9,1.1,2.8,1.1,3.9c0,1.2-0.7,1.9-1.5,1.9c-0.6,0-2.6-0.5-3.7-2
		c-1-1.5-1.1-2.7-1-3.4c0.1-0.7,0.8-2.7,1.1-3.7c0.3-1,0.8-2.7,0.8-2.7s0.4,0.4,0.5,0.6c0.1,0.1,0.2,0.3,0.2,0.4
		c0.2-1.1,0-2.6-0.4-3.6c-0.1-0.3-0.9-1.6-0.9-1.6s1.1,0.8,1.3,0.9c0.1,0.1,0.1,0.1,0.2,0.2c0-1.6-1-3-2-4.2l1.2,0.1
		c-0.8-0.9-1.8-1.5-2.8-2.1c0,0,0.6-0.2,0.8-0.2c0.1,0,0.2,0,0.2,0c-0.6-0.3-1.7-0.4-2.4-0.5c-0.3,0-0.6-0.1-0.9-0.2l0,0.1
		c-0.1,1-0.9,0.8-1.6,0.8c-0.6,0-0.6,0.1-0.9,0.5c-0.6,0.9-1.5,0.4-2.4,0.7c0,0.3,0.2,1.2,0.4,1.5c0.3,0.1,0.7,0.1,1.1,0.1
		c0.8,0,1.6,0.6,1.6,1.5c0,0.5-0.8,0.7-1.2,0.7c-0.7,0-1.3-0.5-1.4-0.5c0,0-0.3,0.5-0.3,1c0,0.4,0.1,0.4,0.3,0.4
		c0.4,0,0.8-0.2,1.2-0.2c0.5,0,1,0.6,1,1.3c0,0.7-0.7,1.2-1.2,1.2c-0.5,0-1-0.5-1.5-0.8c-0.6-0.3-2.3-0.9-2.8-1.5
		c-0.1-0.1-0.2-0.2-0.2-0.3c0-0.6,0.1-1.9-0.2-2.4c-0.3-0.5-1-1-1.2-1c-0.1-0.1-0.4-0.1-0.6-0.1v0.4c0.2,0,0.4,0.1,0.7,0.2
		c0.5,0.2,1.1,0.8,0.9,0.9c-0.1,0.1-0.7-0.2-0.9-0.4c-0.3-0.2-0.6-0.2-0.7-0.2v0.4c0.2,0.1,0.6,0.2,0.8,0.3c0.3,0.2,0.7,0.6,0.7,0.7
		c0,0.1-0.2,0.2-0.4,0c-0.1-0.1-0.5-0.3-0.7-0.4c-0.1-0.1-0.3-0.1-0.4-0.2v1.3c0.3,0.1,0.7,0.6,0.9,0.9c0.2,0.2,0.2,0.4,0.3,0.7
		l0,0.1c0.9,0.3,1.5,1,2.1,1.7l-0.3,0.1c0.5,0.3,0.6,0.7,0.7,1.2l0,0.1c0.9-0.1,1.2,0.2,1.7,0.8c0,0-1.7,0.6-2.3,0.8
		c-0.3,0.1-2.6,1.1-3,0.7c-0.5-0.5,0.4-1.3-1.6-2.1v0.5c0.2,0,0.4,0.1,0.6,0.2c0.3,0.2,0.5,0.5,0.5,0.7c0,0.1-0.2,0.1-0.4-0.1
		c-0.2-0.2-0.2-0.2-0.5-0.3c-0.1,0-0.1,0-0.2,0"/>
	<path id="path9074" class="st97" d="M68.6,55.5c0.1,0,0.3,0.1,0.5,0.3c0.4,0.3,0.7,0.7,0.6,0.9c-0.1,0.1-0.4-0.3-0.7-0.5
		c-0.2-0.1-0.4-0.1-0.5-0.2v1.8l0.4-0.3h1.4l0.5,0.3c0.7-0.5,2.1-0.4,2.9-0.3l-0.2,0.3c0.3,0,0.5,0.1,0.7,0.3l0,0
		c0.5-0.7,1.6-0.4,2.3-0.3c0,0-0.4,0.4-0.5,0.4c-0.3,0.2-0.5,0.2-0.8,0.3c0.4,1.4,1.6,2.7,2.7,3.5l-0.2,0.5c0,0-0.4-0.1-1.1-0.3
		C75.9,62.1,75,62,73.8,62c-2.1,0-2.3,1.1-2.3,1.8c0,2,2.2,4.4,3.7,5.6c0,0-0.1,0.3-0.2,0.5c-0.3,0.6-0.7,0.8-1.2,1.2
		c-0.5,0-1.6-0.1-2.1,0.2c-0.4,0.2-0.7,0.8-1,1.2l0.6,0c0-0.1,0.2-0.6,0.4-0.9c0.1-0.2,0.7-0.4,0.7-0.2c0,0.2-0.3,0.4-0.5,0.6
		c-0.2,0.2-0.1,0.5-0.1,0.6l0.6,0c0.1-0.2,0.3-0.6,0.4-0.8c0.1-0.1,0.7-0.4,0.7-0.2c0,0.2-0.3,0.4-0.5,0.6c-0.1,0.2-0.2,0.3-0.2,0.5
		l2,0.1c0.1-1.2,1.6-2.6,2.7-3c-0.2-0.4-0.2-0.9-0.3-1.3c0,0,0.6,0.4,0.7,0.4c0.1,0,0.1,0.1,0.2,0.1c-0.5-0.6-0.5-1.4-0.6-2.1
		c0,0,0.7,0.6,1,0.8c0.9,0.6,2.1,0.7,3.1,0.7c0.2,1,0.8,2.5,1.5,3.2c1,0.9,2.1,1.5,3,1.8c0.9,0.3,2.2,1.5,2.8,2.3
		c0,0-0.1,0.5-0.2,0.8c-0.1,0.3-0.1,0.9-0.1,0.9c-1.3-0.1-2.8,0.1-3,1.6l0.5,0c0-0.1,0.1-0.4,0.2-0.6c0.2-0.4,0.6-0.7,0.7-0.6
		c0.1,0.1-0.2,0.5-0.3,0.7c-0.1,0.2-0.2,0.4-0.2,0.6l0.1,0.1l0.5,0c0-0.1,0.2-0.5,0.3-0.8c0.2-0.3,0.4-0.5,0.6-0.4
		c0.2,0-0.1,0.4-0.2,0.7c-0.1,0.2-0.1,0.3-0.2,0.5h2.5c0.2-1,0.5-2.3,1.5-2.8l0.1,0c-0.2-0.4-0.3-0.8-0.3-1.2l0.2,0.1
		c-0.2-0.4-0.2-0.9,0.1-1.2c-0.6-0.2-1.2-0.6-1.6-1.2c-0.7-1-1.3-1.9-1.4-2.6c-0.2-1.7-0.1-1.9-1.2-3.2c1.4,0.1,1.5,0,2.5-0.8
		c0,0,0,0.2-0.1,0.4c0.3-0.4,0.6-1.1,0.6-1.1s0.2,0.2,0.3,0.4c0.3-0.7,0-2.7-0.1-3.4c-0.3-1.9-2.7-5.9-2.5-7.4
		c0.1-0.6,0.3-1.5,1.3-1.4c0.9,0.1,2.5,2.1,2.9,3.6c0.3,1.4,0.5,2.7,0.5,4.1c-0.2,0.3-0.6,0.8-0.6,1.2c0,1,0.4,1.9,1.2,2.5
		c-0.1-0.3-0.1-0.8-0.1-0.8s0.7,0.6,0.9,0.8c0.4,0.3,1.2,0.8,1.8,0.9c-0.4-0.5-1.3-1.6-1-2c0.2-0.2,0.3-0.1,0.5-0.1
		c-0.8-1.1-0.4-2.1-2.1-2.8c0,0,0.1-0.6,0-1.3c-0.1-2-1.2-4.5-2.5-6l0.5,0C91,53,90.4,53,89.4,53l0.7-0.4c-1.6-0.4-2.9,0.4-2.8,2.3
		c0.1,1.6,0.5,2.8,1.1,4.2c0.4,0.9,1.1,2.8,1.1,3.9c0,1.2-0.7,1.9-1.5,1.9c-0.6,0-2.6-0.5-3.7-2c-1-1.5-1.1-2.7-1-3.4
		c0.1-0.7,0.8-2.7,1.1-3.7c0.3-1,0.8-2.7,0.8-2.7s0.4,0.4,0.5,0.6c0.1,0.1,0.2,0.3,0.2,0.4c0.2-1.1,0-2.6-0.4-3.6
		c-0.1-0.3-0.9-1.6-0.9-1.6s1.1,0.8,1.3,0.9c0.1,0.1,0.1,0.1,0.2,0.2c0-1.6-1-3-2-4.2l1.2,0.1c-0.8-0.9-1.8-1.5-2.8-2.1
		c0,0,0.6-0.2,0.8-0.2c0.1,0,0.2,0,0.2,0c-0.6-0.3-1.7-0.4-2.4-0.5c-0.3,0-0.6-0.1-0.9-0.2l0,0.1c-0.1,1-0.9,0.8-1.6,0.8
		c-0.6,0-0.6,0.1-0.9,0.5c-0.6,0.9-1.5,0.4-2.4,0.7c0,0.3,0.2,1.2,0.4,1.5c0.3,0.1,0.7,0.1,1.1,0.1c0.8,0,1.6,0.6,1.6,1.5
		c0,0.5-0.8,0.7-1.2,0.7c-0.7,0-1.3-0.5-1.4-0.5c0,0-0.3,0.5-0.3,1c0,0.4,0.1,0.4,0.3,0.4c0.4,0,0.8-0.2,1.2-0.2c0.5,0,1,0.6,1,1.3
		c0,0.7-0.7,1.2-1.2,1.2c-0.5,0-1-0.5-1.5-0.8c-0.6-0.3-2.3-0.9-2.8-1.5c-0.1-0.1-0.2-0.2-0.2-0.3c0-0.6,0.1-1.9-0.2-2.4
		c-0.3-0.5-1-1-1.2-1c-0.1-0.1-0.4-0.1-0.6-0.1v0.4c0.2,0,0.4,0.1,0.7,0.2c0.5,0.2,1.1,0.8,0.9,0.9c-0.1,0.1-0.7-0.2-0.9-0.4
		c-0.3-0.2-0.6-0.2-0.7-0.2v0.4c0.2,0.1,0.6,0.2,0.8,0.3c0.3,0.2,0.7,0.6,0.7,0.7c0,0.1-0.2,0.2-0.4,0c-0.1-0.1-0.5-0.3-0.7-0.4
		c-0.1-0.1-0.3-0.1-0.4-0.2v1.3c0.3,0.1,0.7,0.6,0.9,0.9c0.2,0.2,0.2,0.4,0.3,0.7l0,0.1c0.9,0.3,1.5,1,2.1,1.7l-0.3,0.1
		c0.5,0.3,0.6,0.7,0.7,1.2l0,0.1c0.9-0.1,1.2,0.2,1.7,0.8c0,0-1.7,0.6-2.3,0.8c-0.3,0.1-2.6,1.1-3,0.7c-0.5-0.5,0.4-1.3-1.6-2.1v0.5
		c0.2,0,0.4,0.1,0.6,0.2c0.3,0.2,0.5,0.5,0.5,0.7c0,0.1-0.2,0.1-0.4-0.1c-0.2-0.2-0.2-0.2-0.5-0.3c-0.1,0-0.1,0-0.2,0L68.6,55.5z"/>
	<path id="path9076" class="st96" d="M31.4,55.5c-0.1,0-0.3,0.1-0.5,0.3c-0.4,0.3-0.7,0.7-0.6,0.9c0.1,0.1,0.4-0.3,0.7-0.5
		c0.2-0.1,0.4-0.1,0.5-0.2v1.8l-0.4-0.3h-1.4l-0.5,0.3c-0.7-0.5-2.1-0.4-2.9-0.3l0.2,0.3c-0.3,0-0.5,0.1-0.7,0.3l0,0
		c-0.5-0.7-1.6-0.4-2.3-0.3c0,0,0.4,0.4,0.5,0.4c0.3,0.2,0.5,0.2,0.8,0.3c-0.4,1.4-1.6,2.7-2.7,3.5l0.2,0.5c0,0,0.4-0.1,1.1-0.3
		c0.7-0.1,1.7-0.3,2.8-0.3c2.1,0,2.3,1.1,2.3,1.8c0,2-2.2,4.4-3.7,5.6c0,0,0.1,0.3,0.2,0.5c0.3,0.6,0.7,0.8,1.2,1.2
		c0.5,0,1.6-0.1,2.1,0.2c0.4,0.2,0.7,0.8,1,1.2l-0.6,0c0-0.1-0.2-0.6-0.4-0.9c-0.1-0.2-0.7-0.4-0.7-0.2c0,0.2,0.3,0.4,0.5,0.6
		c0.2,0.2,0.1,0.5,0.1,0.6l-0.6,0c-0.1-0.2-0.3-0.6-0.4-0.8c-0.1-0.1-0.7-0.4-0.7-0.2c0,0.2,0.3,0.4,0.5,0.6
		c0.1,0.2,0.2,0.3,0.2,0.5l-2,0.1c-0.1-1.2-1.6-2.6-2.7-3c0.2-0.4,0.2-0.9,0.3-1.3c0,0-0.6,0.4-0.7,0.4c-0.1,0-0.1,0.1-0.2,0.1
		c0.5-0.6,0.5-1.4,0.6-2.1c0,0-0.7,0.6-0.9,0.8c-0.9,0.6-2.1,0.7-3.1,0.7c-0.2,1-0.8,2.5-1.5,3.2c-1,0.9-2.1,1.5-3,1.8
		c-0.9,0.3-2.2,1.5-2.8,2.3c0,0,0.1,0.5,0.2,0.8c0.1,0.3,0.1,0.9,0.1,0.9c1.3-0.1,2.8,0.1,3,1.6l-0.5,0c0-0.1-0.1-0.4-0.2-0.6
		c-0.2-0.4-0.6-0.7-0.7-0.6c-0.1,0.1,0.2,0.5,0.3,0.7c0.1,0.2,0.2,0.4,0.2,0.6l-0.1,0.1l-0.5,0c0-0.1-0.2-0.5-0.3-0.8
		c-0.2-0.3-0.4-0.5-0.6-0.4c-0.2,0,0.1,0.4,0.2,0.7c0.1,0.2,0.1,0.3,0.2,0.5H9.8c-0.2-1-0.5-2.3-1.5-2.8l-0.1,0
		c0.2-0.4,0.3-0.8,0.3-1.2l-0.2,0.1c0.2-0.4,0.2-0.9-0.1-1.2c0.6-0.2,1.2-0.6,1.6-1.2c0.7-1,1.3-1.9,1.4-2.6
		c0.2-1.7,0.1-1.9,1.2-3.2c-1.4,0.1-1.5,0-2.5-0.8c0,0,0,0.2,0.1,0.4c-0.3-0.4-0.6-1.1-0.6-1.1s-0.2,0.2-0.2,0.4
		c-0.3-0.7,0-2.7,0.1-3.4c0.3-1.9,2.7-5.9,2.5-7.4c-0.1-0.6-0.3-1.5-1.3-1.4c-0.9,0.1-2.5,2.1-2.9,3.6c-0.3,1.4-0.5,2.7-0.5,4.1
		c0.2,0.3,0.6,0.8,0.6,1.2c0,1-0.4,1.9-1.2,2.5c0.1-0.3,0.1-0.8,0.1-0.8S5.8,64.8,5.6,65c-0.4,0.3-1.2,0.8-1.8,0.9
		c0.4-0.5,1.3-1.6,1-2c-0.2-0.2-0.3-0.1-0.5-0.1c0.8-1.1,0.4-2.1,2.1-2.8c0,0-0.1-0.6,0-1.3c0.1-2,1.3-4.5,2.5-6l-0.5,0
		c0.7-0.6,1.3-0.6,2.3-0.7l-0.7-0.4c1.6-0.4,2.9,0.4,2.8,2.3c-0.1,1.6-0.5,2.8-1.1,4.2c-0.4,0.9-1.1,2.8-1.1,3.9
		c0,1.2,0.7,1.9,1.5,1.9c0.6,0,2.6-0.5,3.7-2c1-1.5,1.1-2.7,1-3.4c-0.1-0.7-0.8-2.7-1.1-3.7c-0.3-1-0.8-2.7-0.8-2.7
		s-0.4,0.4-0.5,0.6C14.1,53.9,14,54,14,54.2c-0.2-1.1,0-2.6,0.4-3.6c0.1-0.3,0.9-1.6,0.9-1.6s-1.1,0.8-1.2,0.9
		c-0.1,0.1-0.1,0.1-0.2,0.2c0-1.6,1-3,2-4.2l-1.2,0.1c0.8-0.9,1.8-1.5,2.8-2.1c0,0-0.6-0.2-0.8-0.2c-0.1,0-0.2,0-0.2,0
		c0.6-0.3,1.7-0.4,2.4-0.5c0.3,0,0.6-0.1,0.9-0.2V43c0.1,1,0.9,0.8,1.6,0.8c0.6,0,0.6,0.1,0.9,0.5c0.6,0.9,1.5,0.4,2.4,0.7
		c0,0.3-0.2,1.2-0.4,1.5c-0.3,0.1-0.7,0.1-1.1,0.1c-0.8,0-1.6,0.6-1.6,1.5c0,0.5,0.8,0.7,1.2,0.7c0.7,0,1.3-0.5,1.4-0.5
		c0,0,0.3,0.5,0.3,1c0,0.4-0.1,0.4-0.3,0.4c-0.4,0-0.8-0.2-1.2-0.2c-0.5,0-1,0.6-1,1.3c0,0.7,0.7,1.2,1.2,1.2c0.5,0,1-0.5,1.5-0.8
		c0.6-0.3,2.3-0.9,2.8-1.5c0.1-0.1,0.2-0.2,0.2-0.3c0-0.6-0.1-1.9,0.2-2.4c0.3-0.5,1-1,1.2-1c0.1-0.1,0.4-0.1,0.6-0.1v0.4
		c-0.2,0-0.4,0.1-0.7,0.2c-0.5,0.2-1.1,0.8-0.9,0.9c0.1,0.1,0.7-0.2,0.9-0.4c0.2-0.2,0.6-0.2,0.7-0.2v0.4c-0.2,0.1-0.6,0.2-0.8,0.3
		c-0.3,0.2-0.7,0.6-0.7,0.7c0,0.1,0.2,0.2,0.4,0c0.1-0.1,0.5-0.3,0.7-0.4c0.1-0.1,0.3-0.1,0.4-0.2v1.3c-0.3,0.1-0.7,0.6-0.9,0.9
		c-0.2,0.2-0.2,0.4-0.3,0.7l0,0.1c-0.9,0.3-1.5,1-2.1,1.7l0.3,0.1c-0.5,0.3-0.6,0.7-0.7,1.2l0,0.1c-0.9-0.1-1.2,0.2-1.7,0.8
		c0,0,1.7,0.6,2.3,0.8c0.3,0.1,2.6,1.1,3,0.7c0.5-0.5-0.4-1.3,1.6-2.1v0.5c-0.2,0-0.4,0.1-0.6,0.2c-0.3,0.2-0.5,0.5-0.5,0.7
		c0,0.1,0.2,0.1,0.4-0.1c0.2-0.2,0.2-0.2,0.5-0.3c0.1,0,0.1,0,0.2,0"/>
	<path id="path9078" class="st97" d="M31.4,55.5c-0.1,0-0.3,0.1-0.5,0.3c-0.4,0.3-0.7,0.7-0.6,0.9c0.1,0.1,0.4-0.3,0.7-0.5
		c0.2-0.1,0.4-0.1,0.5-0.2v1.8l-0.4-0.3h-1.4l-0.5,0.3c-0.7-0.5-2.1-0.4-2.9-0.3l0.2,0.3c-0.3,0-0.5,0.1-0.7,0.3l0,0
		c-0.5-0.7-1.6-0.4-2.3-0.3c0,0,0.4,0.4,0.5,0.4c0.3,0.2,0.5,0.2,0.8,0.3c-0.4,1.4-1.6,2.7-2.7,3.5l0.2,0.5c0,0,0.4-0.1,1.1-0.3
		c0.7-0.1,1.7-0.3,2.8-0.3c2.1,0,2.3,1.1,2.3,1.8c0,2-2.2,4.4-3.7,5.6c0,0,0.1,0.3,0.2,0.5c0.3,0.6,0.7,0.8,1.2,1.2
		c0.5,0,1.6-0.1,2.1,0.2c0.4,0.2,0.7,0.8,1,1.2l-0.6,0c0-0.1-0.2-0.6-0.4-0.9c-0.1-0.2-0.7-0.4-0.7-0.2c0,0.2,0.3,0.4,0.5,0.6
		c0.2,0.2,0.1,0.5,0.1,0.6l-0.6,0c-0.1-0.2-0.3-0.6-0.4-0.8c-0.1-0.1-0.7-0.4-0.7-0.2c0,0.2,0.3,0.4,0.5,0.6
		c0.1,0.2,0.2,0.3,0.2,0.5l-2,0.1c-0.1-1.2-1.6-2.6-2.7-3c0.2-0.4,0.2-0.9,0.3-1.3c0,0-0.6,0.4-0.7,0.4c-0.1,0-0.1,0.1-0.2,0.1
		c0.5-0.6,0.5-1.4,0.6-2.1c0,0-0.7,0.6-0.9,0.8c-0.9,0.6-2.1,0.7-3.1,0.7c-0.2,1-0.8,2.5-1.5,3.2c-1,0.9-2.1,1.5-3,1.8
		c-0.9,0.3-2.2,1.5-2.8,2.3c0,0,0.1,0.5,0.2,0.8c0.1,0.3,0.1,0.9,0.1,0.9c1.3-0.1,2.8,0.1,3,1.6l-0.5,0c0-0.1-0.1-0.4-0.2-0.6
		c-0.2-0.4-0.6-0.7-0.7-0.6c-0.1,0.1,0.2,0.5,0.3,0.7c0.1,0.2,0.2,0.4,0.2,0.6l-0.1,0.1l-0.5,0c0-0.1-0.2-0.5-0.3-0.8
		c-0.2-0.3-0.4-0.5-0.6-0.4c-0.2,0,0.1,0.4,0.2,0.7c0.1,0.2,0.1,0.3,0.2,0.5H9.8c-0.2-1-0.5-2.3-1.5-2.8l-0.1,0
		c0.2-0.4,0.3-0.8,0.3-1.2l-0.2,0.1c0.2-0.4,0.2-0.9-0.1-1.2c0.6-0.2,1.2-0.6,1.6-1.2c0.7-1,1.3-1.9,1.4-2.6
		c0.2-1.7,0.1-1.9,1.2-3.2c-1.4,0.1-1.5,0-2.5-0.8c0,0,0,0.2,0.1,0.4c-0.3-0.4-0.6-1.1-0.6-1.1s-0.2,0.2-0.2,0.4
		c-0.3-0.7,0-2.7,0.1-3.4c0.3-1.9,2.7-5.9,2.5-7.4c-0.1-0.6-0.3-1.5-1.3-1.4c-0.9,0.1-2.5,2.1-2.9,3.6C7.2,58.5,7,59.8,7,61.2
		c0.2,0.3,0.6,0.8,0.6,1.2c0,1-0.4,1.9-1.2,2.5c0.1-0.3,0.1-0.8,0.1-0.8S5.8,64.8,5.6,65c-0.4,0.3-1.2,0.8-1.8,0.9
		c0.4-0.5,1.3-1.6,1-2c-0.2-0.2-0.3-0.1-0.5-0.1c0.8-1.1,0.4-2.1,2.1-2.8c0,0-0.1-0.6,0-1.3c0.1-2,1.3-4.5,2.5-6l-0.5,0
		C9,53,9.6,53,10.6,53l-0.7-0.4c1.6-0.4,2.9,0.4,2.8,2.3c-0.1,1.6-0.5,2.8-1.1,4.2c-0.4,0.9-1.1,2.8-1.1,3.9c0,1.2,0.7,1.9,1.5,1.9
		c0.6,0,2.6-0.5,3.7-2c1-1.5,1.1-2.7,1-3.4c-0.1-0.7-0.8-2.7-1.1-3.7c-0.3-1-0.8-2.7-0.8-2.7s-0.4,0.4-0.5,0.6
		c-0.1,0.1-0.2,0.3-0.2,0.4c-0.2-1.1,0-2.6,0.4-3.6c0.1-0.3,0.9-1.6,0.9-1.6s-1.1,0.8-1.2,0.9c-0.1,0.1-0.1,0.1-0.2,0.2
		c0-1.6,1-3,2-4.2l-1.2,0.1c0.8-0.9,1.8-1.5,2.8-2.1c0,0-0.6-0.2-0.8-0.2c-0.1,0-0.2,0-0.2,0c0.6-0.3,1.7-0.4,2.4-0.5
		c0.3,0,0.6-0.1,0.9-0.2V43c0.1,1,0.9,0.8,1.6,0.8c0.6,0,0.6,0.1,0.9,0.5c0.6,0.9,1.5,0.4,2.4,0.7c0,0.3-0.2,1.2-0.4,1.5
		c-0.3,0.1-0.7,0.1-1.1,0.1c-0.8,0-1.6,0.6-1.6,1.5c0,0.5,0.8,0.7,1.2,0.7c0.7,0,1.3-0.5,1.4-0.5c0,0,0.3,0.5,0.3,1
		c0,0.4-0.1,0.4-0.3,0.4c-0.4,0-0.8-0.2-1.2-0.2c-0.5,0-1,0.6-1,1.3c0,0.7,0.7,1.2,1.2,1.2c0.5,0,1-0.5,1.5-0.8
		c0.6-0.3,2.3-0.9,2.8-1.5c0.1-0.1,0.2-0.2,0.2-0.3c0-0.6-0.1-1.9,0.2-2.4c0.3-0.5,1-1,1.2-1c0.1-0.1,0.4-0.1,0.6-0.1v0.4
		c-0.2,0-0.4,0.1-0.7,0.2c-0.5,0.2-1.1,0.8-0.9,0.9c0.1,0.1,0.7-0.2,0.9-0.4c0.2-0.2,0.6-0.2,0.7-0.2v0.4c-0.2,0.1-0.6,0.2-0.8,0.3
		c-0.3,0.2-0.7,0.6-0.7,0.7c0,0.1,0.2,0.2,0.4,0c0.1-0.1,0.5-0.3,0.7-0.4c0.1-0.1,0.3-0.1,0.4-0.2v1.3c-0.3,0.1-0.7,0.6-0.9,0.9
		c-0.2,0.2-0.2,0.4-0.3,0.7l0,0.1c-0.9,0.3-1.5,1-2.1,1.7l0.3,0.1c-0.5,0.3-0.6,0.7-0.7,1.2l0,0.1c-0.9-0.1-1.2,0.2-1.7,0.8
		c0,0,1.7,0.6,2.3,0.8c0.3,0.1,2.6,1.1,3,0.7c0.5-0.5-0.4-1.3,1.6-2.1v0.5c-0.2,0-0.4,0.1-0.6,0.2c-0.3,0.2-0.5,0.5-0.5,0.7
		c0,0.1,0.2,0.1,0.4-0.1c0.2-0.2,0.2-0.2,0.5-0.3c0.1,0,0.1,0,0.2,0L31.4,55.5z"/>
	<path id="path9080" class="st96" d="M47.5,81.5c-0.2-0.4-1-1.2-2.8-1.4c-2.3-0.3-6.5-0.1-8.4-1.2c-1-0.6-2-1.2-2.9-1.9
		c-2.8-2.3-2.9-5.4-2.9-8.8v-7h1.5v6.3c0,4.7,0.4,5.6,1.6,7.5c1.2,1.8,4.7,3.1,6.6,3.2c1.9,0.2,3.8,0.1,6.3,0.8
		c2.2,0.6,2.9,2.2,3.1,2.5h1.1c0.2-0.4,0.9-1.9,3.1-2.5c2.5-0.7,4.4-0.6,6.3-0.8c1.9-0.2,5.4-1.4,6.6-3.2c1.2-1.8,1.7-2.8,1.7-7.5
		v-6.3l1.5,0v6.9c0,3.4-0.1,6.5-2.9,8.8c-0.9,0.7-1.9,1.3-2.9,1.9c-1.9,1.2-6.1,1-8.4,1.2c-1.8,0.2-2.6,1.1-2.9,1.4l0.7,0
		c4.6-0.2,9.2-0.8,12.9-1.3v-2.1c0.2-0.1,0.3-0.2,0.5-0.4v2.4c2.8-0.5,5-0.9,6.1-1.3c1.1-0.3,2.9-1.2,3.6-2.3
		c-0.1-0.8-0.6-1.5-1.9-1.5c-1.6,0-2.2,0.4-3.5,0.9c-0.8,0.3-2.2,0.6-3.1,0.6c0.2-0.2,0.4-0.4,0.5-0.6c0.2,0,0.4,0,0.7-0.1
		c2.1-0.3,3.2-1.3,5.4-1.3c1.9,0,2.4,1.3,2.4,2.5v4.9c0.3,0,0.9,0.1,1.9,0.1c1.8,0,2.1-0.1,2.1-2.1v-6.6c-1,0.8-2.9,0.7-3.8,0.6
		c-2.6-0.3-6.3-0.7-7.3-0.8c0-0.2,0.1-0.3,0.1-0.5l0.3,0C70.1,72.8,70,73,70,73l5.5,0.3l0-0.1c0.6,0.1,1.1,0.1,1.6,0.2
		c0.7,0.1,3.1,0.2,3.7-0.8l0,0c-0.1-0.9-1-1-1.8-1.2c-0.8-0.2-2.2-0.4-2.5-0.5c0.2-0.2,0.4-0.3,0.6-0.5c0.4,0.1,1.3,0.3,1.9,0.4
		l0.1,0v-2.5c0.2,0.1,0.3,0.1,0.5,0.1V71c0.9,0.2,1.6,0.6,1.6,1.8v7c0,2.4-0.6,2.6-2.6,2.6c-1,0-1.6-0.1-1.9-0.1v1.8
		c0,2-0.4,2.3-2.4,3.1c-2,0.9-11.5,3.5-24.5,3.5c-12.9,0-22.4-2.6-24.4-3.5c-2-0.9-2.4-1.2-2.4-3.1v-1.8c-0.3,0-0.9,0.1-1.9,0.1
		c-1.7,0-2.6-0.1-2.6-2.6v-7c0-1.2,0.7-1.6,1.6-1.8v-2.5c0.2,0,0.3-0.1,0.5-0.1v2.5l0.1,0c0.7-0.2,1.5-0.3,2-0.4
		c0.2,0.1,0.4,0.3,0.6,0.4c-0.4,0.1-1.7,0.4-2.4,0.5c-0.8,0.2-1.6,0.3-1.8,1.2l0,0c0.6,1,3,0.8,3.7,0.8c0.5-0.1,1.1-0.1,1.6-0.2
		l0,0.1L30,73c0,0-0.1-0.2-0.2-0.5l0.4-0.1c0,0.2,0.1,0.4,0.1,0.6c-1.2,0.1-4.8,0.6-7.3,0.8c-2.2,0.2-3.3-0.2-3.8-0.6v6.7
		c0,1.9,0.3,2.1,2.1,2.1c1.1,0,1.7-0.1,1.9-0.1V77c0-1.1,0.5-2.5,2.4-2.5c2.2,0,3.3,1,5.4,1.3c0.3,0,0.5,0.1,0.6,0.1
		c0.2,0.2,0.3,0.4,0.5,0.6c-0.4,0-0.9-0.1-1.2-0.1c-0.5-0.1-1.2-0.2-1.8-0.4c-1.4-0.5-2-0.9-3.5-0.9c-1.3,0-1.7,0.7-1.9,1.5
		c0,0,0.1,0.1,0.1,0.1c0.9,1.1,2.3,1.8,3.5,2.1c1.1,0.3,3.3,0.8,6.1,1.3v-2.4c0.2,0.1,0.3,0.2,0.5,0.4v2.1c3.7,0.6,8.3,1.1,12.9,1.3
		"/>
	<path id="path9082" class="st97" d="M47.5,81.5c-0.2-0.4-1-1.2-2.8-1.4c-2.3-0.3-6.5-0.1-8.4-1.2c-1-0.6-2-1.2-2.9-1.9
		c-2.8-2.3-2.9-5.4-2.9-8.8v-7h1.5v6.3c0,4.7,0.4,5.6,1.6,7.5c1.2,1.8,4.7,3.1,6.6,3.2c1.9,0.2,3.8,0.1,6.3,0.8
		c2.2,0.6,2.9,2.2,3.1,2.5h1.1c0.2-0.4,0.9-1.9,3.1-2.5c2.5-0.7,4.4-0.6,6.3-0.8c1.9-0.2,5.4-1.4,6.6-3.2c1.2-1.8,1.7-2.8,1.7-7.5
		v-6.3l1.5,0v6.9c0,3.4-0.1,6.5-2.9,8.8c-0.9,0.7-1.9,1.3-2.9,1.9c-1.9,1.2-6.1,1-8.4,1.2c-1.8,0.2-2.6,1.1-2.9,1.4l0.7,0
		c4.6-0.2,9.2-0.8,12.9-1.3v-2.1c0.2-0.1,0.3-0.2,0.5-0.4v2.4c2.8-0.5,5-0.9,6.1-1.3c1.1-0.3,2.9-1.2,3.6-2.3
		c-0.1-0.8-0.6-1.5-1.9-1.5c-1.6,0-2.2,0.4-3.5,0.9c-0.8,0.3-2.2,0.6-3.1,0.6c0.2-0.2,0.4-0.4,0.5-0.6c0.2,0,0.4,0,0.7-0.1
		c2.1-0.3,3.2-1.3,5.4-1.3c1.9,0,2.4,1.3,2.4,2.5v4.9c0.3,0,0.9,0.1,1.9,0.1c1.8,0,2.1-0.1,2.1-2.1v-6.6c-1,0.8-2.9,0.7-3.8,0.6
		c-2.6-0.3-6.3-0.7-7.3-0.8c0-0.2,0.1-0.3,0.1-0.5l0.3,0C70.1,72.8,70,73,70,73l5.5,0.3l0-0.1c0.6,0.1,1.1,0.1,1.6,0.2
		c0.7,0.1,3.1,0.2,3.7-0.8l0,0c-0.1-0.9-1-1-1.8-1.2c-0.8-0.2-2.2-0.4-2.5-0.5c0.2-0.2,0.4-0.3,0.6-0.5c0.4,0.1,1.3,0.3,1.9,0.4
		l0.1,0v-2.5c0.2,0.1,0.3,0.1,0.5,0.1v2.5c0.9,0.2,1.6,0.6,1.6,1.8v7c0,2.4-0.6,2.6-2.6,2.6c-1,0-1.6-0.1-1.9-0.1v1.8
		c0,2-0.4,2.3-2.4,3.1c-2,0.9-11.5,3.5-24.5,3.5c-12.9,0-22.4-2.6-24.4-3.5c-2-0.9-2.4-1.2-2.4-3.1v-1.8c-0.3,0-0.9,0.1-1.9,0.1
		c-1.7,0-2.6-0.1-2.6-2.6v-7c0-1.2,0.7-1.6,1.6-1.8v-2.5c0.2,0,0.3-0.1,0.5-0.1v2.5l0.1,0c0.7-0.2,1.5-0.3,2-0.4
		c0.2,0.1,0.4,0.3,0.6,0.4c-0.4,0.1-1.7,0.4-2.4,0.5c-0.8,0.2-1.6,0.3-1.8,1.2l0,0c0.6,1,3,0.8,3.7,0.8c0.5-0.1,1.1-0.1,1.6-0.2
		l0,0.1L30,73c0,0-0.1-0.2-0.2-0.5l0.4-0.1c0,0.2,0.1,0.4,0.1,0.6c-1.2,0.1-4.8,0.6-7.3,0.8c-2.2,0.2-3.3-0.2-3.8-0.6v6.7
		c0,1.9,0.3,2.1,2.1,2.1c1.1,0,1.7-0.1,1.9-0.1V77c0-1.1,0.5-2.5,2.4-2.5c2.2,0,3.3,1,5.4,1.3c0.3,0,0.5,0.1,0.6,0.1
		c0.2,0.2,0.3,0.4,0.5,0.6c-0.4,0-0.9-0.1-1.2-0.1c-0.5-0.1-1.2-0.2-1.8-0.4c-1.4-0.5-2-0.9-3.5-0.9c-1.3,0-1.7,0.7-1.9,1.5
		c0,0,0.1,0.1,0.1,0.1c0.9,1.1,2.3,1.8,3.5,2.1c1.1,0.3,3.3,0.8,6.1,1.3v-2.4c0.2,0.1,0.3,0.2,0.5,0.4v2.1c3.7,0.6,8.3,1.1,12.9,1.3
		L47.5,81.5z"/>
	<path id="path9084" class="st98" d="M76.4,77.3c-0.9,1-2.3,1.6-3.5,2C69.9,80.1,59.3,82,50,82c-9.3,0-19.9-1.9-22.9-2.8
		c-1-0.3-2.6-1-3.5-2v6.8c0,1.7,0.2,1.8,2.1,2.7c2,0.8,11.4,3.5,24.2,3.5c12.9,0,22.3-2.6,24.2-3.5c1.9-0.8,2.1-1,2.1-2.7"/>
	<path id="path9086" class="st97" d="M76.4,77.3c-0.9,1-2.3,1.6-3.5,2C69.9,80.1,59.3,82,50,82c-9.3,0-19.9-1.9-22.9-2.8
		c-1-0.3-2.6-1-3.5-2v6.8c0,1.7,0.2,1.8,2.1,2.7c2,0.8,11.4,3.5,24.2,3.5s22.3-2.6,24.2-3.5c1.9-0.8,2.1-1,2.1-2.7L76.4,77.3z"/>
	<path id="path9088" class="st28" d="M25.1,83.5l0.2,0.1c-0.1,0.5,0,0.9,0.1,1.1c0.1,0.3,0.3,0.5,0.6,0.5c0.3,0.1,0.5,0.1,0.6,0
		c0.2-0.1,0.3-0.2,0.3-0.4c0.1-0.2,0.1-0.3,0-0.5c0-0.1-0.2-0.3-0.3-0.4l-0.3-0.3c-0.3-0.3-0.5-0.6-0.5-0.8c-0.1-0.2-0.1-0.5,0-0.8
		c0.1-0.3,0.3-0.5,0.6-0.7c0.3-0.2,0.6-0.2,1-0.1c0.2,0.1,0.4,0.2,0.5,0.3c0.2,0.1,0.3,0.2,0.3,0.2c0.1,0,0.1,0,0.1,0
		c0,0,0.1-0.1,0.1-0.1l0.2,0.1l-0.5,1.3l-0.2-0.1c0-0.3,0-0.6-0.1-0.9c-0.1-0.3-0.3-0.5-0.6-0.6c-0.2-0.1-0.4-0.1-0.5,0
		s-0.2,0.2-0.3,0.4c-0.1,0.2-0.1,0.4,0,0.5c0.1,0.1,0.2,0.4,0.5,0.7l0.3,0.4c0.1,0.2,0.3,0.3,0.3,0.5c0.1,0.3,0.1,0.6,0,0.9
		c-0.1,0.3-0.3,0.6-0.6,0.8s-0.7,0.2-1.2,0.1c-0.1,0-0.2-0.1-0.3-0.2c-0.1-0.1-0.2-0.1-0.3-0.2L25.1,85c0,0,0,0-0.1,0c0,0,0,0-0.1,0
		c-0.1,0-0.1,0-0.1,0c0,0-0.1,0.1-0.1,0.1L24.6,85"/>
	<path id="path9090" class="st28" d="M30.2,82.1l0,0.2c-0.2,0-0.4,0-0.5,0c-0.1,0.1-0.2,0.2-0.2,0.4L29,84.8
		c-0.1,0.3-0.1,0.6-0.1,0.8c0,0.4,0.2,0.6,0.6,0.7c0.4,0.1,0.8,0,1-0.3c0.1-0.2,0.2-0.4,0.3-0.8l0.5-1.9c0.1-0.2,0.1-0.4,0-0.5
		c-0.1-0.1-0.2-0.2-0.4-0.3l0-0.2l1.2,0.3l0,0.2c-0.2,0-0.3,0-0.4,0.1c-0.1,0-0.1,0.2-0.2,0.4l-0.5,2c-0.1,0.5-0.3,0.9-0.6,1.1
		c-0.3,0.2-0.7,0.3-1.2,0.2c-0.6-0.2-1-0.5-1.2-1c-0.1-0.3-0.1-0.6,0-0.9l0.5-2.1c0.1-0.2,0.1-0.4,0-0.5c0-0.1-0.2-0.1-0.3-0.2
		l0-0.2"/>
	<path id="path9092" class="st28" d="M31.1,86.6c0.2,0,0.4,0,0.4-0.1c0.1-0.1,0.1-0.2,0.2-0.4l0.5-3C32,83,32,82.8,31.9,82.8
		c0,0-0.1-0.1-0.2-0.1l0-0.2l1.2,0.2l1.5,3l0,0l0.3-1.9c0-0.2,0-0.4,0-0.5c-0.1-0.1-0.2-0.2-0.4-0.2l0-0.2l1.2,0.2l0,0.2
		c-0.2,0-0.3,0-0.4,0.1c-0.1,0-0.1,0.2-0.2,0.4l-0.7,3.7l-0.2,0l-1.9-3.8l0,0l-0.4,2.5c0,0.2,0,0.3,0,0.4c0.1,0.1,0.2,0.2,0.4,0.3
		l0,0.2L31,86.8"/>
	<path id="path9094" class="st28" d="M34.9,87.3c0.1,0,0.3,0,0.3,0c0.1-0.1,0.2-0.2,0.2-0.3l0.4-3.1c0-0.2,0-0.3-0.1-0.4
		c-0.1,0-0.2-0.1-0.3-0.1l0-0.2l1.7,0.2c0.7,0.1,1.2,0.4,1.5,0.9c0.3,0.4,0.4,1,0.3,1.6c-0.1,0.6-0.3,1-0.7,1.4
		c-0.4,0.4-1,0.5-1.6,0.5l-1.8-0.3L34.9,87.3z M36.3,87.4c0,0.1,0.1,0.1,0.2,0.1c0.3,0.1,0.6,0,0.9-0.3c0.3-0.2,0.4-0.7,0.5-1.5
		c0.1-0.4,0.1-0.8,0-1.2c-0.1-0.5-0.4-0.9-0.9-0.9c-0.2,0-0.3,0-0.3,0.1c0,0-0.1,0.1-0.1,0.3l-0.4,3.1
		C36.3,87.2,36.3,87.3,36.3,87.4"/>
	<path id="path9096" class="st28" d="M38.7,88l0-0.2c0.2,0,0.3,0,0.4-0.1c0.1-0.1,0.2-0.2,0.2-0.4l0.2-3.1c0-0.2,0-0.3-0.1-0.4
		c-0.1,0-0.2-0.1-0.3-0.1l0-0.2l3.3,0.2l-0.1,1.3l-0.1,0c0-0.4-0.1-0.7-0.3-0.9c-0.2-0.2-0.5-0.3-0.9-0.3c-0.2,0-0.3,0-0.3,0
		c-0.1,0-0.1,0.1-0.1,0.2l-0.1,1.5c0.3,0,0.6,0,0.7-0.2c0.1-0.1,0.2-0.4,0.3-0.7l0.1,0l-0.2,2.2l-0.1,0c0-0.4-0.1-0.6-0.2-0.8
		c-0.1-0.2-0.3-0.2-0.7-0.3l-0.1,1.5c0,0.1,0,0.2,0.1,0.3c0.1,0.1,0.2,0.1,0.4,0.1c0.4,0,0.7,0,0.9-0.2c0.2-0.1,0.5-0.4,0.7-0.8
		l0.2,0l-0.3,1.3"/>
	<path id="path9098" class="st28" d="M42.2,88.2c0.2,0,0.3,0,0.4-0.1c0.1-0.1,0.1-0.2,0.1-0.5l0.2-2.8c0-0.2,0-0.4-0.1-0.5
		c-0.1-0.1-0.2-0.1-0.4-0.1l0-0.2l1.9,0.1c0.4,0,0.7,0.1,0.9,0.2c0.5,0.2,0.7,0.5,0.6,1c0,0.3-0.1,0.6-0.4,0.8
		c-0.2,0.1-0.4,0.2-0.6,0.3l1.1,1.9c0,0.1,0.1,0.1,0.1,0.1c0,0,0.1,0,0.1,0l0,0.2L45,88.5l-1.1-2.1l-0.2,0l-0.1,1.3
		c0,0.2,0,0.4,0.1,0.5c0.1,0.1,0.2,0.1,0.4,0.2l0,0.2l-1.9-0.1L42.2,88.2z M44.6,86.1c0.2-0.1,0.3-0.4,0.3-0.8c0-0.2,0-0.4-0.1-0.6
		c-0.1-0.2-0.3-0.4-0.6-0.4c-0.2,0-0.3,0-0.3,0.1c-0.1,0-0.1,0.1-0.1,0.2l-0.1,1.6C44.2,86.2,44.4,86.2,44.6,86.1"/>
	<path id="path9100" class="st28" d="M46.1,88.4c0.2,0,0.3,0,0.3-0.1c0.1-0.1,0.2-0.2,0.2-0.4l0.1-3.1c0-0.2-0.1-0.3-0.2-0.4
		c-0.1,0-0.2-0.1-0.3-0.1l0-0.2l2,0l0,0.2c-0.2,0-0.4,0-0.5,0.1c-0.1,0.1-0.1,0.2-0.1,0.5l-0.1,3c0,0.1,0,0.2,0.1,0.3
		c0.1,0.1,0.2,0.1,0.4,0.1c0.3,0,0.6-0.1,0.9-0.2c0.2-0.2,0.4-0.5,0.6-1l0.2,0l-0.3,1.5l-3.3-0.1"/>
	<path id="path9102" class="st28" d="M51.8,87l-0.6-1.5h-0.1L50.7,87L51.8,87z M49.7,88.4c0.1,0,0.3-0.1,0.3-0.2
		c0.1-0.1,0.1-0.3,0.2-0.5l1.2-3.5h0.2l1.3,3.3c0.2,0.4,0.3,0.6,0.3,0.7c0.1,0.1,0.2,0.2,0.3,0.2l0,0.2l-1.9,0l0-0.2
		c0.2,0,0.3,0,0.4-0.1c0.1,0,0.1-0.1,0.1-0.2c0-0.1,0-0.1,0-0.2c0-0.1,0-0.1-0.1-0.2l-0.2-0.4l-1.3,0c-0.1,0.3-0.1,0.4-0.2,0.5
		c-0.1,0.2-0.1,0.3-0.1,0.4c0,0.1,0.1,0.2,0.2,0.2c0.1,0,0.2,0,0.3,0l0,0.2l-1.2,0"/>
	<path id="path9104" class="st28" d="M53.5,88.4c0.2,0,0.3-0.1,0.4-0.2C54,88.1,54,88,54,87.8l-0.2-3c-0.2-0.2-0.3-0.3-0.3-0.4
		c0,0-0.1-0.1-0.2-0.1l0-0.2l1.2-0.1l2.1,2.6h0l-0.1-1.9c0-0.2-0.1-0.4-0.1-0.5c-0.1-0.1-0.2-0.1-0.4-0.1l0-0.2l1.2-0.1l0,0.2
		c-0.2,0-0.3,0.1-0.4,0.2c-0.1,0.1-0.1,0.2-0.1,0.4l0.2,3.8l-0.2,0l-2.7-3.3h0l0.1,2.5c0,0.2,0,0.3,0.1,0.4c0.1,0.1,0.2,0.2,0.5,0.2
		l0,0.2l-1.3,0.1"/>
	<path id="path9106" class="st28" d="M57.4,88.2c0.1,0,0.2-0.1,0.3-0.1c0.1-0.1,0.2-0.2,0.1-0.4l-0.2-3.2c0-0.2-0.1-0.3-0.2-0.3
		c-0.1,0-0.2-0.1-0.3-0.1l0-0.2l1.8-0.1c0.7-0.1,1.3,0.1,1.7,0.5c0.4,0.4,0.6,0.9,0.6,1.5c0,0.6-0.1,1.1-0.4,1.5
		c-0.4,0.5-0.9,0.7-1.5,0.8l-1.8,0.1L57.4,88.2z M58.9,87.9c0,0.1,0.1,0.1,0.3,0.1c0.3,0,0.6-0.2,0.8-0.5c0.2-0.3,0.3-0.8,0.2-1.6
		c0-0.5-0.1-0.8-0.3-1.2c-0.2-0.5-0.6-0.7-1-0.7c-0.2,0-0.2,0.1-0.3,0.1c0,0.1,0,0.1,0,0.3l0.2,3.1C58.8,87.8,58.8,87.9,58.9,87.9"
		/>
	<path id="path9108" class="st28" d="M64.1,86.1l-0.8-1.4l-0.1,0l-0.3,1.5L64.1,86.1z M62.1,87.7c0.1,0,0.2-0.1,0.3-0.3
		c0-0.1,0.1-0.3,0.2-0.6l0.8-3.7l0.2,0l1.7,3.2c0.2,0.4,0.3,0.6,0.4,0.7c0.1,0.1,0.2,0.1,0.3,0.1l0,0.2l-1.8,0.3l0-0.2
		c0.2,0,0.3-0.1,0.4-0.1c0.1,0,0.1-0.1,0.1-0.2c0-0.1,0-0.1-0.1-0.2c0-0.1-0.1-0.1-0.1-0.2l-0.2-0.4l-1.3,0.2
		c-0.1,0.3-0.1,0.4-0.1,0.5c0,0.2,0,0.3,0,0.4c0,0.1,0.1,0.1,0.2,0.2c0.1,0,0.2,0,0.3,0l0,0.2l-1.2,0.2"/>
	<path id="path9110" class="st28" d="M66.1,86.5c0.1-0.1,0.2-0.2,0.3-0.2c0.1,0,0.3,0,0.4,0.1c0.1,0.1,0.2,0.2,0.2,0.4
		c0,0.1,0,0.3-0.1,0.4c-0.1,0.1-0.2,0.2-0.3,0.2c-0.1,0-0.3,0-0.4-0.1C66.1,87.1,66,87,66,86.9C66,86.7,66,86.6,66.1,86.5"/>
	<path id="path9112" class="st28" d="M67,87c0.2,0,0.3-0.1,0.3-0.1c0.1-0.1,0.1-0.2,0.1-0.4l-0.6-3c0-0.2-0.1-0.3-0.2-0.3
		c-0.1,0-0.2,0-0.4,0l0-0.2l3.2-0.7l0.3,1.3l-0.1,0c-0.2-0.4-0.3-0.6-0.5-0.7c-0.2-0.1-0.5-0.1-1,0c-0.2,0-0.3,0.1-0.3,0.1
		c0,0.1,0,0.1,0,0.2l0.3,1.5c0.3-0.1,0.5-0.2,0.6-0.3c0.1-0.2,0.1-0.4,0.1-0.8l0.1,0l0.4,2.1l-0.1,0c-0.1-0.3-0.2-0.6-0.4-0.7
		c-0.2-0.1-0.4-0.2-0.7-0.1l0.3,1.5c0,0.2,0.1,0.3,0.2,0.3c0.1,0,0.3,0,0.5,0l0,0.2l-2,0.4"/>
	<path id="path9114" class="st28" d="M69.8,85.7c0.1-0.1,0.2-0.2,0.3-0.2c0.1,0,0.3,0,0.4,0.1c0.1,0.1,0.2,0.2,0.2,0.3
		c0,0.1,0,0.3-0.1,0.4c-0.1,0.1-0.2,0.2-0.3,0.2c-0.1,0-0.3,0-0.4-0.1c-0.1-0.1-0.2-0.2-0.2-0.3C69.7,86,69.7,85.8,69.8,85.7"/>
	<path id="path9116" class="st28" d="M72.4,81.4c0.3,0,0.4,0,0.4,0c0.1,0,0.1-0.1,0.1-0.1c0-0.1,0-0.1,0-0.2l0.2,0l0.4,1.4l-0.1,0
		c-0.2-0.3-0.4-0.5-0.6-0.6c-0.4-0.3-0.7-0.3-1-0.2c-0.4,0.1-0.6,0.4-0.6,0.8c-0.1,0.4,0,0.9,0.2,1.5c0.1,0.4,0.3,0.8,0.4,1
		c0.3,0.5,0.7,0.7,1.2,0.5c0.3-0.1,0.5-0.2,0.7-0.5c0.1-0.1,0.2-0.4,0.4-0.6l0.2,0.1c-0.1,0.3-0.3,0.6-0.4,0.8
		c-0.2,0.3-0.5,0.5-0.9,0.6c-0.5,0.2-1.1,0.1-1.5-0.1c-0.5-0.3-0.9-0.8-1.1-1.4c-0.2-0.7-0.2-1.3,0.1-1.8c0.3-0.5,0.6-0.8,1.2-1
		C71.9,81.4,72.2,81.4,72.4,81.4"/>
	<path id="path9118" class="st28" d="M74.5,84.3c0.1-0.1,0.1-0.2,0.3-0.3c0.1,0,0.3,0,0.4,0c0.1,0.1,0.2,0.2,0.3,0.3
		c0.1,0.1,0.1,0.3,0,0.4c-0.1,0.1-0.1,0.2-0.3,0.3c-0.1,0-0.3,0-0.4,0c-0.1-0.1-0.2-0.2-0.3-0.3C74.5,84.6,74.5,84.5,74.5,84.3"/>
	<path id="path9120" class="st94" d="M80.7,46.2c0,0-0.4-0.7-0.9-0.9c-0.4-0.2-0.9-0.3-1-0.1c-0.1,0.2,0.4,0.7,0.4,0.7
		s0.3-0.1,0.6,0C80.2,46,80.7,46.2,80.7,46.2"/>
	<path id="path9122" class="st95" d="M80.7,46.2c0,0-0.4-0.7-0.9-0.9c-0.4-0.2-0.9-0.3-1-0.1c-0.1,0.2,0.4,0.7,0.4,0.7
		s0.3-0.1,0.6,0C80.2,46,80.7,46.2,80.7,46.2z"/>
	<path id="path9124" class="st28" d="M89,68.1c0.2-0.4,0.4-0.8,0.5-1c-0.3,0.1-0.5,0.2-0.8,0.2C88.8,67.6,88.9,67.9,89,68.1"/>
	<path id="path9126" class="st95" d="M89,68.1c0.2-0.4,0.4-0.8,0.5-1c-0.3,0.1-0.5,0.2-0.8,0.2C88.8,67.6,88.9,67.9,89,68.1z"/>
	<path id="path9128" class="st94" d="M19.3,46.2c0,0,0.4-0.7,0.9-0.9c0.4-0.2,0.9-0.3,1-0.1c0.1,0.2-0.4,0.7-0.4,0.7s-0.3-0.1-0.6,0
		C19.8,46,19.3,46.2,19.3,46.2"/>
	<path id="path9130" class="st97" d="M19.3,46.2c0,0,0.4-0.7,0.9-0.9c0.4-0.2,0.9-0.3,1-0.1c0.1,0.2-0.4,0.7-0.4,0.7s-0.3-0.1-0.6,0
		C19.8,46,19.3,46.2,19.3,46.2z"/>
	<path id="path9132" class="st28" d="M11,68.1c-0.2-0.4-0.4-0.8-0.5-1c0.3,0.1,0.5,0.2,0.8,0.2C11.2,67.6,11.1,67.9,11,68.1"/>
	<path id="path9134" class="st95" d="M11,68.1c-0.2-0.4-0.4-0.8-0.5-1c0.3,0.1,0.5,0.2,0.8,0.2C11.2,67.6,11.1,67.9,11,68.1z"/>
	<path id="path9136" class="st98" d="M53.6,79c-2.2,0.6-2.9,2.2-3.1,2.5H50V61.2l18.2,0v6.3c0,4.7-0.4,5.6-1.7,7.5
		c-1.2,1.8-4.7,3.1-6.6,3.2C58,78.4,56.1,78.3,53.6,79"/>
	<path id="path9138" class="st99" d="M53.6,79c-2.2,0.6-2.9,2.2-3.1,2.5H50V61.2l18.2,0v6.3c0,4.7-0.4,5.6-1.7,7.5
		c-1.2,1.8-4.7,3.1-6.6,3.2C58,78.4,56.1,78.3,53.6,79L53.6,79z"/>
	<path id="path9140" class="st94" d="M50,64.1v-0.3c0.3,0,0.8,0,1.1-0.1c0.4-0.1,1-0.1,1.1,0c0.1,0.1,0.4,0.2,0.4,0.2
		s0.5-0.1,0.8-0.1c0.3,0,0.9,0.2,0.9,0.2s0.5-0.3,0.9-0.4c0.4,0,3.6,0,7.5,0.9c3.1,0.7,4.9,1.4,5.5,1.7v0.5
		c-0.7-0.3-2.7-1.1-5.6-1.8c-3.7-0.9-6.8-0.9-7.4-0.9c-0.6,0-1.1,0.2-1.7,0.2c-0.6,0-1.2-0.1-1.7-0.2c-0.2,0-0.8,0-1.3,0
		C50.3,64.1,50.1,64.1,50,64.1L50,64.1z M50,65.2v-0.9c0.6,0,1.4-0.1,1.7,0c0.6,0.1,1.2,0.2,1.8,0.2c0.6,0,1.1-0.2,1.7-0.2
		c0.5,0,3.7,0,7.3,0.9c3,0.7,5,1.5,5.7,1.8v0.5c0,0.2,0,0.4,0,0.6c-0.7-0.3-2.5-1.2-5.5-2c-3.9-1-7-1-7.4-1c-0.2,0-0.5-0.1-0.7-0.2
		c-0.9-0.3-1.8,0-2.7,0.3C51.6,65.2,50.6,65.2,50,65.2L50,65.2z M63,66.9v10.5c-0.3,0.1-0.6,0.2-0.9,0.3V66.7
		c-0.4-0.1-0.8-0.2-1.2-0.3c-0.5-0.1-1-0.2-1.5-0.3v12.1c-0.3,0-0.6,0-0.9,0.1V66c-1.3-0.2-2.2-0.3-2.7-0.4v12.9
		c-0.3,0-0.6,0.1-0.9,0.2V65.6l-0.5-0.2c0,0-0.3,0.2-0.6,0.2c-0.3,0-0.9-0.2-0.9-0.2l-0.5,0.4c0,0-0.1,0-0.3,0v13.9
		c-0.4,0.3-0.7,0.5-0.9,0.8V65.8c-0.2,0-0.3,0-0.5,0c-0.3,0-0.6,0.1-0.8,0.1v-0.4c0.6,0,1.7,0,1.8-0.1c0.5-0.2,1.1-0.3,1.6-0.4
		c0.7-0.1,1.1,0.2,1.7,0.3c0.4,0.1,3.6,0.1,7.4,1c3.2,0.8,5.1,1.7,5.6,2l0,0.7c-0.3-0.1-0.8-0.4-1.6-0.7v6.8l-0.1,0.1
		c-0.2,0.3-0.5,0.6-0.8,0.9v-8.1C65,67.8,64,67.5,63,67.2"/>
	<path id="path9142" class="st95" d="M50,64.1v-0.3c0.3,0,0.8,0,1.1-0.1c0.4-0.1,1-0.1,1.1,0c0.1,0.1,0.4,0.2,0.4,0.2
		s0.5-0.1,0.8-0.1c0.3,0,0.9,0.2,0.9,0.2s0.5-0.3,0.9-0.4c0.4,0,3.6,0,7.5,0.9c3.1,0.7,4.9,1.4,5.5,1.7v0.5
		c-0.7-0.3-2.7-1.1-5.6-1.8c-3.7-0.9-6.8-0.9-7.4-0.9c-0.6,0-1.1,0.2-1.7,0.2c-0.6,0-1.2-0.1-1.7-0.2c-0.2,0-0.8,0-1.3,0
		C50.3,64.1,50.1,64.1,50,64.1L50,64.1z"/>
	<path id="path9144" class="st95" d="M50,65.2v-0.9c0.6,0,1.4-0.1,1.7,0c0.6,0.1,1.2,0.2,1.8,0.2c0.6,0,1.1-0.2,1.7-0.2
		c0.5,0,3.7,0,7.3,0.9c3,0.7,5,1.5,5.7,1.8v0.5c0,0.2,0,0.4,0,0.6c-0.7-0.3-2.5-1.2-5.5-2c-3.9-1-7-1-7.4-1c-0.2,0-0.5-0.1-0.7-0.2
		c-0.9-0.3-1.8,0-2.7,0.3C51.6,65.2,50.6,65.2,50,65.2L50,65.2z"/>
	<path id="path9146" class="st95" d="M63,66.9v10.5c-0.3,0.1-0.6,0.2-0.9,0.3V66.7c-0.4-0.1-0.8-0.2-1.2-0.3c-0.5-0.1-1-0.2-1.5-0.3
		v12.1c-0.3,0-0.6,0-0.9,0.1V66c-1.3-0.2-2.2-0.3-2.7-0.4v12.9c-0.3,0-0.6,0.1-0.9,0.2V65.6l-0.5-0.2c0,0-0.3,0.2-0.6,0.2
		c-0.3,0-0.9-0.2-0.9-0.2l-0.5,0.4c0,0-0.1,0-0.3,0v13.9c-0.4,0.3-0.7,0.5-0.9,0.8V65.8c-0.2,0-0.3,0-0.5,0c-0.3,0-0.6,0.1-0.8,0.1
		v-0.4c0.6,0,1.7,0,1.8-0.1c0.5-0.2,1.1-0.3,1.6-0.4c0.7-0.1,1.1,0.2,1.7,0.3c0.4,0.1,3.6,0.1,7.4,1c3.2,0.8,5.1,1.7,5.6,2l0,0.4
		c-0.3-0.1-0.8-0.4-1.6-0.7v6.8L66.6,75c-0.2,0.3-0.5,0.6-0.8,0.9v-8.1C64.9,67.5,64,67.2,63,66.9L63,66.9z"/>
	<path id="path9148" class="st98" d="M39.2,78.1c-1.1-0.2-2.4-0.7-3.6-1.3V61.2h3.6V78.1z M46.4,79L46.4,79
		c-1.4-0.4-2.5-0.6-3.6-0.6V61.2l3.6,0"/>
	<path id="path9150" class="st99" d="M39.2,78.1c-1.1-0.2-2.4-0.7-3.6-1.3V61.2h3.6V78.1z"/>
	<path id="path9152" class="st99" d="M46.4,79L46.4,79c-1.4-0.4-2.5-0.6-3.6-0.6V61.2l3.6,0L46.4,79z"/>
	<path id="path9154" class="st94" d="M32,76.5c-0.4,0-0.9-0.1-1.2-0.1c-0.5-0.1-1.2-0.2-1.8-0.4c-1.4-0.5-2-0.9-3.5-0.9
		c-1.3,0-1.7,0.7-1.9,1.5c0,0,0.1,0.1,0.1,0.1c0.9,1.1,2.3,1.8,3.5,2.1c1.1,0.3,3.3,0.8,6.1,1.3v-2.4c0,0-0.4-0.3-0.8-0.7
		C32.2,76.6,32,76.5,32,76.5"/>
	<path id="path9156" class="st95" d="M32,76.5c-0.4,0-0.9-0.1-1.2-0.1c-0.5-0.1-1.2-0.2-1.8-0.4c-1.4-0.5-2-0.9-3.5-0.9
		c-1.3,0-1.7,0.7-1.9,1.5c0,0,0.1,0.1,0.1,0.1c0.9,1.1,2.3,1.8,3.5,2.1c1.1,0.3,3.3,0.8,6.1,1.3v-2.4c0,0-0.4-0.3-0.8-0.7
		C32.2,76.6,32,76.5,32,76.5L32,76.5z"/>
	<path id="path9158" class="st94" d="M24.5,72.8c0-0.1-0.1-0.6-0.4-1c-0.3-0.5-0.9-0.9-0.9-0.9c-0.4,0.1-1.7,0.4-2.4,0.5
		c-0.8,0.2-1.6,0.3-1.8,1.2l0,0c0.6,1,3,0.8,3.7,0.8c0.5-0.1,1.1-0.1,1.6-0.2C24.5,73.1,24.5,72.9,24.5,72.8"/>
	<path id="path9160" class="st95" d="M24.5,72.8c0-0.1-0.1-0.6-0.4-1c-0.3-0.5-0.9-0.9-0.9-0.9c-0.4,0.1-1.7,0.4-2.4,0.5
		c-0.8,0.2-1.6,0.3-1.8,1.2l0,0c0.6,1,3,0.8,3.7,0.8c0.5-0.1,1.1-0.1,1.6-0.2C24.5,73.1,24.5,72.9,24.5,72.8L24.5,72.8z"/>
	<path id="path9162" class="st98" d="M20.7,68.5l0,0.8v1.7l0.1,0c0.7-0.2,1.5-0.3,2-0.4c0,0-0.4-0.2-0.6-0.3
		c-0.2-0.1-0.5-0.1-0.5-0.1l0.3-0.7c0,0-0.5,0-0.8,0c-0.3,0-0.5-0.2-0.5-0.2s0.4-0.2,0.7-0.5c0.3-0.3,0.4-0.7,0.4-0.7
		s-0.3,0.2-0.5,0.3C21,68.4,20.7,68.5,20.7,68.5"/>
	<path id="path9164" class="st99" d="M20.7,68.5l0,0.8v1.7l0.1,0c0.7-0.2,1.5-0.3,2-0.4c0,0-0.4-0.2-0.6-0.3
		c-0.2-0.1-0.5-0.1-0.5-0.1l0.3-0.7c0,0-0.5,0-0.8,0c-0.3,0-0.5-0.2-0.5-0.2s0.4-0.2,0.7-0.5c0.3-0.3,0.4-0.7,0.4-0.7
		s-0.3,0.2-0.5,0.3C21,68.4,20.7,68.5,20.7,68.5L20.7,68.5z"/>
	<path id="path9166" class="st94" d="M68,76.5c0.4,0,0.9-0.1,1.2-0.1c0.5-0.1,1.2-0.2,1.8-0.4c1.4-0.5,2-0.9,3.5-0.9
		c1.3,0,1.7,0.7,1.9,1.5c0,0-0.1,0.1-0.1,0.1c-0.8,1.1-2.3,1.8-3.5,2.1c-1.1,0.3-3.3,0.8-6.1,1.3v-2.4c0,0,0.4-0.3,0.8-0.7
		C67.7,76.6,68,76.5,68,76.5"/>
	<path id="path9168" class="st95" d="M68,76.5c0.4,0,0.9-0.1,1.2-0.1c0.5-0.1,1.2-0.2,1.8-0.4c1.4-0.5,2-0.9,3.5-0.9
		c1.3,0,1.7,0.7,1.9,1.5c0,0-0.1,0.1-0.1,0.1c-0.8,1.1-2.3,1.8-3.5,2.1c-1.1,0.3-3.3,0.8-6.1,1.3v-2.4c0,0,0.4-0.3,0.8-0.7
		C67.8,76.6,68,76.5,68,76.5L68,76.5z"/>
	<path id="path9170" class="st94" d="M75.5,72.8c0-0.1,0.1-0.6,0.4-1c0.3-0.5,0.9-0.9,0.9-0.9c0.4,0.1,1.7,0.4,2.4,0.5
		c0.8,0.2,1.6,0.3,1.8,1.2l0,0c-0.6,1-3,0.8-3.7,0.8c-0.5-0.1-1.1-0.1-1.6-0.2C75.5,73.1,75.4,72.9,75.5,72.8"/>
	<path id="path9172" class="st95" d="M75.4,72.8c0-0.1,0.1-0.6,0.4-1c0.3-0.5,0.9-0.9,0.9-0.9c0.4,0.1,1.7,0.4,2.4,0.5
		c0.8,0.2,1.6,0.3,1.8,1.2l0,0c-0.6,1-3,0.8-3.7,0.8c-0.5-0.1-1.1-0.1-1.6-0.2C75.5,73.1,75.4,72.9,75.4,72.8L75.4,72.8z"/>
	<path id="path9174" class="st98" d="M79.3,68.5v2.5l-0.1,0c-0.7-0.2-1.5-0.3-1.9-0.4c0,0,0.4-0.2,0.6-0.3c0.2-0.1,0.5-0.1,0.5-0.1
		l-0.3-0.7c0,0,0.5,0,0.8,0c0.3,0,0.5-0.2,0.5-0.2s-0.4-0.2-0.7-0.5c-0.3-0.3-0.4-0.7-0.4-0.7s0.3,0.2,0.5,0.3
		C79,68.4,79.3,68.5,79.3,68.5"/>
	<path id="path9176" class="st99" d="M79.3,68.5v2.5l-0.1,0c-0.7-0.2-1.5-0.3-1.9-0.4c0,0,0.4-0.2,0.6-0.3c0.2-0.1,0.5-0.1,0.5-0.1
		l-0.3-0.7c0,0,0.5,0,0.8,0s0.5-0.2,0.5-0.2s-0.4-0.2-0.7-0.5c-0.3-0.3-0.4-0.7-0.4-0.7s0.3,0.2,0.5,0.3S79.3,68.5,79.3,68.5
		L79.3,68.5z"/>
	<path id="path9178" class="st98" d="M69.2,74.5c-0.4,0.9-0.8,1.4-0.8,1.4c0.2,0,0.4,0,0.7-0.1c2.1-0.3,3.2-1.3,5.4-1.3
		c1.9,0,2.4,1.3,2.4,2.5v4.9c0.3,0,0.9,0.1,1.9,0.1c1.8,0,2.1-0.1,2.1-2.1v-6.6c-1,0.8-2.9,0.7-3.8,0.6c-2.6-0.3-6.3-0.7-7.3-0.8
		C69.8,73,69.6,73.7,69.2,74.5"/>
	<path id="path9180" class="st97" d="M69.2,74.5c-0.4,0.9-0.8,1.4-0.8,1.4c0.2,0,0.4,0,0.7-0.1c2.1-0.3,3.2-1.3,5.4-1.3
		c1.9,0,2.4,1.3,2.4,2.5v4.9c0.3,0,0.9,0.1,1.9,0.1c1.8,0,2.1-0.1,2.1-2.1v-6.6c-1,0.8-2.9,0.7-3.8,0.6c-2.6-0.3-6.3-0.7-7.3-0.8
		C69.8,73,69.6,73.6,69.2,74.5L69.2,74.5z"/>
	<path id="path9182" class="st98" d="M30.8,74.5c0.4,0.9,0.8,1.4,0.8,1.4c-0.2,0-0.4,0-0.7-0.1c-2.1-0.3-3.2-1.3-5.4-1.3
		c-1.9,0-2.4,1.3-2.4,2.5v4.9c-0.3,0-0.9,0.1-1.9,0.1c-1.8,0-2.1-0.1-2.1-2.1v-6.6c1,0.8,2.9,0.7,3.8,0.6c2.6-0.3,6.3-0.7,7.3-0.8
		C30.2,73,30.3,73.7,30.8,74.5"/>
	<path id="path9184" class="st97" d="M30.8,74.5c0.4,0.9,0.8,1.4,0.8,1.4c-0.2,0-0.4,0-0.7-0.1c-2.1-0.3-3.2-1.3-5.4-1.3
		c-1.9,0-2.4,1.3-2.4,2.5v4.9c-0.3,0-0.9,0.1-1.9,0.1c-1.8,0-2.1-0.1-2.1-2.1v-6.6c1,0.8,2.9,0.7,3.8,0.6c2.6-0.3,6.3-0.7,7.3-0.8
		C30.2,73,30.4,73.6,30.8,74.5L30.8,74.5z"/>
	<path id="path9186" class="st98" d="M31.8,53.5v-9.7c0-0.7-0.4-1.8-0.7-2.4c-0.3-0.7-0.9-1.4-0.9-1.4H50l0.1,17.7h-1.2v-8.5h-2.4
		v8.5h-2.8v-8.5h-2.4v8.5h-2.8v-8.5h-2.4v8.5h-4.1v-1.7l-0.3-1"/>
	<path id="path9188" class="st99" d="M31.8,53.5v-9.7c0-0.7-0.4-1.8-0.7-2.4c-0.3-0.7-0.9-1.4-0.9-1.4H50L50,57.6h-1.2v-8.5h-2.4
		v8.5h-2.8v-8.5h-2.4v8.5h-2.8v-8.5h-2.4v8.5H32v-1.7l-0.3-1L31.8,53.5z"/>
	<path id="path9190" class="st100" d="M34.4,48.8H50v-0.6H34.4V48.8z"/>
	<path id="path9192" class="st94" d="M50,47.3v0.6H34.4l10.7-4l4.9,1.8"/>
	<path id="path9194" class="st95" d="M50,47.3v0.6H34.4l10.7-4l4.9,1.8L50,47.3z"/>
	<path id="path9196" class="st101" d="M41.1,51.2c-0.7,0.5-1.5,0.8-2.3,1V49h2.3V51.2z M32.7,47c0-2.9,2.4-5.3,5.3-5.3
		c2.1,0,3.9,1.2,4.7,2.9l-9.5,3.5h1V49h1.8v2.8C34,51.1,32.7,49.2,32.7,47"/>
	<path id="path9198" class="st102" d="M41.1,51.2c-0.7,0.5-1.5,0.8-2.3,1V49h2.3V51.2z"/>
	<path id="path9200" class="st102" d="M32.7,47c0-2.9,2.4-5.3,5.3-5.3c2.1,0,3.9,1.2,4.7,2.9l-9.5,3.5h1V49h1.8v2.8
		C34,51,32.7,49.2,32.7,47L32.7,47z"/>
	<path id="path9202" class="st28" d="M29.8,54.5v-4.8c0,0-0.1,0-0.1,0.1c-0.2,0.5-0.5,0.6-0.7,1.1c0,0.1-0.1,0.4-0.1,0.4
		c-0.7,0.2-1.1,0.6-1.7,1.1l-0.1,0.1l0.9,0.4c-1,0.2-1.4,0.1-1.6,1.2c0,0.2-0.1,0.6-0.1,0.6c-0.4-0.1-0.8-0.3-1.2,0
		c1.1,0.4,2.9,1.2,4,1.4c0,0,0,0,0,0C29.4,55.2,29.5,54.8,29.8,54.5"/>
	<path id="path9204" class="st95" d="M29.8,54.5v-4.8c0,0-0.1,0-0.1,0.1c-0.2,0.5-0.5,0.6-0.7,1.1c0,0.1-0.1,0.4-0.1,0.4
		c-0.7,0.2-1.1,0.6-1.7,1.1l-0.1,0.1l0.9,0.4c-1,0.2-1.4,0.1-1.6,1.2c0,0.2-0.1,0.6-0.1,0.6c-0.4-0.1-0.8-0.3-1.2,0
		c1.1,0.4,2.9,1.2,4,1.4c0,0,0,0,0,0C29.4,55.2,29.5,54.8,29.8,54.5L29.8,54.5z"/>
	<path id="path9206" class="st28" d="M70.2,49.7v4.8c0.3,0.3,0.4,0.7,0.5,1.3v0c1.1-0.2,2.9-1,4-1.4c-0.4-0.2-0.8-0.1-1.2,0
		c0,0,0-0.4-0.1-0.6c-0.2-1-0.6-1-1.6-1.2l0.9-0.4l-0.1-0.1c-0.5-0.5-0.9-0.9-1.7-1.1c0,0,0-0.2-0.1-0.4
		C70.8,50.3,70.5,50.2,70.2,49.7C70.3,49.7,70.2,49.7,70.2,49.7"/>
	<path id="path9208" class="st95" d="M70.2,49.7v4.8c0.3,0.3,0.4,0.7,0.5,1.3v0c1.1-0.2,2.9-1,4-1.4c-0.4-0.2-0.8-0.1-1.2,0
		c0,0,0-0.4-0.1-0.6c-0.2-1-0.6-1-1.6-1.2l0.9-0.4l-0.1-0.1c-0.5-0.5-0.9-0.9-1.7-1.1c0,0,0-0.2-0.1-0.4
		C70.8,50.3,70.5,50.2,70.2,49.7C70.3,49.7,70.3,49.7,70.2,49.7L70.2,49.7z"/>
	<path id="path9210" class="st96" d="M50,39.9H30.2c0,0,0.5,0.8,0.9,1.4c0.3,0.7,0.7,1.8,0.7,2.4v9.7c0,0-0.3,0.1-0.8,0.3
		c-0.5,0.2-0.7,0.4-0.7,0.4v-9.4c0-2.7-1.6-4.5-3.5-6.1h46.4c-1.8,1.7-3.5,3.5-3.5,6.1v9.4c0,0-0.2-0.2-0.7-0.4
		c-0.5-0.2-0.8-0.3-0.8-0.3v-9.7c0-0.7,0.4-1.8,0.7-2.4c0.3-0.7,0.9-1.4,0.9-1.4"/>
	<path id="path9212" class="st97" d="M50,39.9H30.2c0,0,0.5,0.8,0.9,1.4c0.3,0.7,0.7,1.8,0.7,2.4v9.7c0,0-0.3,0.1-0.8,0.3
		c-0.5,0.2-0.7,0.4-0.7,0.4v-9.4c0-2.7-1.6-4.5-3.5-6.1h46.4c-1.8,1.7-3.5,3.5-3.5,6.1v9.4c0,0-0.2-0.2-0.7-0.4
		c-0.5-0.2-0.8-0.3-0.8-0.3v-9.7c0-0.7,0.4-1.8,0.7-2.4c0.3-0.7,0.9-1.4,0.9-1.4H50z"/>
	<path id="path9214" class="st28" d="M68,57.6v-1.7l0.3-1v-1.4l0-3.2v-6.5c0-0.7,0.4-1.8,0.7-2.4c0.3-0.7,0.9-1.4,0.9-1.4H50v17.7"
		/>
	<path id="path9216" class="st103" d="M67.9,57.6v-1.7l0.3-1v-1.4l0-3.2v-6.5c0-0.7,0.4-1.8,0.7-2.4c0.3-0.7,0.9-1.4,0.9-1.4H50
		v17.7L67.9,57.6z"/>
	<path id="path9218" class="st104" d="M61,57.6h3.6V39.9H61V57.6z"/>
	<path id="path9220" class="st104" d="M53.8,57.6h3.6V39.9h-3.6V57.6z"/>
	<path id="path9222" class="st94" d="M70.4,36.5v-0.1c-0.5-0.8-4.6-1.4-5.1-1.5c-0.5-0.1-1.3-0.2-2.5-0.4v2.2
		c0.5-0.3,1.3-0.3,1.7-0.3c0.7,0,2.3,0.5,3.1,0.7c0.3,0.1,0.6,0.1,0.7,0.1C68.9,37.2,70.4,37.3,70.4,36.5"/>
	<path id="path9224" class="st97" d="M70.4,36.5v-0.1c-0.5-0.8-4.6-1.4-5.1-1.5c-0.5-0.1-1.3-0.2-2.5-0.4v2.2
		c0.5-0.3,1.3-0.3,1.7-0.3c0.7,0,2.3,0.5,3.1,0.7c0.3,0.1,0.6,0.1,0.7,0.1C68.9,37.2,70.4,37.3,70.4,36.5L70.4,36.5z"/>
	<path id="path9226" class="st98" d="M70.8,34.8v1.5c0,0.1,0,0.1,0,0.2c0,1.2-1.7,1.2-2.5,1.2c-0.4,0-1.5-0.3-1.9-0.4
		c-0.8-0.2-1.5-0.4-1.9-0.4c-0.4,0-1.8,0-1.8,0.6c0,0.7,2.3,0.8,2.7,0.8c1.4,0,4.6-0.4,5.6-0.4c0.4,0,1.9-0.1,2.7,0.3v-2.4
		c0-0.4,0-0.9-0.5-0.9c-0.4,0-0.9,0.1-1.3,0.1"/>
	<path id="path9228" class="st97" d="M70.8,34.8v1.5c0,0.1,0,0.1,0,0.2c0,1.2-1.7,1.2-2.5,1.2c-0.4,0-1.5-0.3-1.9-0.4
		c-0.8-0.2-1.5-0.4-1.9-0.4c-0.4,0-1.8,0-1.8,0.6c0,0.7,2.3,0.8,2.7,0.8c1.4,0,4.6-0.4,5.6-0.4c0.4,0,1.9-0.1,2.7,0.3v-2.4
		c0-0.4,0-0.9-0.5-0.9c-0.4,0-0.9,0.1-1.3,0.1H70.8z"/>
	<path id="path9230" class="st98" d="M29.2,36.3v-1.5h-1.3c-0.2,0-1.3-0.1-1.5,0c-0.1,0.1-0.3,0.3-0.3,0.9v2.4c0,0,0.1,0,0.1-0.1
		c0.5-0.2,2-0.2,2.6-0.2c1,0,4.2,0.4,5.7,0.4c0.4,0,2.7-0.1,2.7-0.8c0-0.6-1.4-0.6-1.8-0.6c-0.7,0-2.2,0.5-3,0.7
		c-0.3,0.1-0.6,0.1-0.8,0.1c-0.8,0-2.5,0.1-2.5-1.2C29.1,36.4,29.2,36.4,29.2,36.3"/>
	<path id="path9232" class="st97" d="M29.2,36.3v-1.5h-1.3c-0.2,0-1.3-0.1-1.5,0c-0.1,0.1-0.3,0.3-0.3,0.9v2.4c0,0,0.1,0,0.1-0.1
		c0.5-0.2,2-0.2,2.6-0.2c1,0,4.2,0.4,5.7,0.4c0.4,0,2.7-0.1,2.7-0.8c0-0.6-1.4-0.6-1.8-0.6c-0.7,0-2.2,0.5-3,0.7
		c-0.3,0.1-0.6,0.1-0.8,0.1c-0.8,0-2.5,0.1-2.5-1.2C29.1,36.4,29.1,36.4,29.2,36.3L29.2,36.3z"/>
	<path id="path9234" class="st94" d="M29.6,36.4v0.1h0c0,0.8,1.5,0.7,2.1,0.7c0.4,0,1.4-0.3,1.8-0.4c0.8-0.2,1.6-0.4,2-0.4
		c0.4,0,1.2,0,1.7,0.3v-2.2c-1.1,0.2-2,0.3-2.5,0.4C34.2,35,30.1,35.6,29.6,36.4"/>
	<path id="path9236" class="st97" d="M29.6,36.4v0.1h0c0,0.8,1.5,0.7,2.1,0.7c0.4,0,1.4-0.3,1.8-0.4c0.8-0.2,1.6-0.4,2-0.4
		c0.4,0,1.2,0,1.7,0.3v-2.2c-1.1,0.2-2,0.3-2.5,0.4C34.2,35,30.1,35.6,29.6,36.4L29.6,36.4z"/>
	<path id="path9238" class="st98" d="M70.4,35.8v-3c0-0.4-2-0.8-2.2-0.9c-1-0.2-2.8-0.6-5.8-1c-3-0.4-6.2-0.8-12.4-0.8
		c-6.2,0-9.4,0.4-12.4,0.8c-0.8,0.1-6.7,0.8-7.8,1.7c-0.1,0.1-0.1,0.2-0.1,0.2v3c1.2-0.9,4.4-1.2,5-1.3c1.6-0.3,7.9-1.3,15.4-1.3
		c7.5,0,13.8,1,15.4,1.3C66,34.6,69.2,35,70.4,35.8"/>
	<path id="path9240" class="st97" d="M70.4,35.8v-3c0-0.4-2-0.8-2.2-0.9c-1-0.2-2.8-0.6-5.8-1c-3-0.4-6.2-0.8-12.4-0.8
		c-6.2,0-9.4,0.4-12.4,0.8c-0.8,0.1-6.7,0.8-7.8,1.7c-0.1,0.1-0.1,0.2-0.1,0.2v3c1.2-0.9,4.4-1.2,5-1.3c1.6-0.3,7.9-1.3,15.4-1.3
		s13.8,1,15.4,1.3C66,34.6,69.2,35,70.4,35.8L70.4,35.8z"/>
	<path id="path9242" class="st98" d="M27.8,40.3c-0.3-0.3-0.5-0.5-0.5-0.5l-0.1,1.3l1-0.4C28.3,40.8,28.1,40.6,27.8,40.3"/>
	<path id="path9244" class="st97" d="M27.8,40.3c-0.3-0.3-0.5-0.5-0.5-0.5l-0.1,1.3l1-0.4C28.3,40.8,28.1,40.5,27.8,40.3z"/>
	<path id="path9246" class="st98" d="M72.2,40.3c0.3-0.3,0.5-0.5,0.5-0.5l0.1,1.3l-1-0.4C71.7,40.8,71.9,40.6,72.2,40.3"/>
	<path id="path9248" class="st97" d="M72.2,40.3c0.3-0.3,0.5-0.5,0.5-0.5l0.1,1.3l-1-0.4C71.7,40.8,71.9,40.5,72.2,40.3z"/>
	<path id="path9250" class="st98" d="M60.3,38c0.1,0,0.2-0.1,0.5-0.2c0.7-0.3,1.2-0.6,1.7-1.2l0-0.1c-0.7,0.6-1.6,0.9-2.5,0.9
		c-1.7,0-2.4-0.8-2.8-1.8c-0.1-0.1-0.1-0.2-0.1-0.4c-0.2,0.2-0.2,0.5-0.2,0.7c0,0.7,0.4,1.5,1,2"/>
	<path id="path9252" class="st99" d="M60.4,38c0.1,0,0.2-0.1,0.5-0.2c0.7-0.3,1.2-0.6,1.7-1.2l0-0.1c-0.7,0.6-1.6,0.9-2.5,0.9
		c-1.7,0-2.4-0.8-2.8-1.8c-0.1-0.1-0.1-0.2-0.1-0.4c-0.2,0.2-0.2,0.5-0.2,0.7c0,0.7,0.4,1.5,1,2H60.4z"/>
	<path id="path9254" class="st98" d="M39.7,38c-0.1,0-0.2-0.1-0.5-0.2c-0.7-0.3-1.2-0.6-1.7-1.2l0-0.1c0.7,0.6,1.6,0.9,2.5,0.9
		c1.7,0,2.4-0.8,2.9-1.8c0.1-0.1,0.1-0.2,0.1-0.4c0.2,0.2,0.2,0.5,0.2,0.7c0,0.7-0.4,1.5-1,2"/>
	<path id="path9256" class="st99" d="M39.6,38c-0.1,0-0.2-0.1-0.5-0.2c-0.7-0.3-1.2-0.6-1.7-1.2l0-0.1c0.7,0.6,1.6,0.9,2.5,0.9
		c1.7,0,2.4-0.8,2.9-1.8c0.1-0.1,0.1-0.2,0.1-0.4c0.2,0.2,0.2,0.5,0.2,0.7c0,0.7-0.4,1.5-1,2H39.6z"/>
	<path id="path9258" class="st28" d="M42,24.6c0.1,0,0.1,0,0.2-0.1c0.2-0.2,0.7-0.6,1.7-0.8c0.6-0.1,1.1,0,1.5,0.1
		c0.8,0.2,1,0.3,1.6,0.3c-0.3-0.1-0.5-0.3-0.8-0.4c-0.3-0.2-0.9-0.5-1.2-0.6C43.7,22.8,42.2,23.2,42,24.6"/>
	<path id="path9260" class="st97" d="M42,24.6c0.1,0,0.1,0,0.2-0.1c0.2-0.2,0.7-0.6,1.7-0.8c0.6-0.1,1.1,0,1.5,0.1
		c0.8,0.2,1,0.3,1.6,0.3c-0.3-0.1-0.5-0.3-0.8-0.4c-0.3-0.2-0.9-0.5-1.2-0.6C43.7,22.8,42.2,23.2,42,24.6L42,24.6z"/>
	<path id="path9262" class="st98" d="M41.2,30.1c-0.6-0.5-1.5-0.8-2.2-0.7c-0.5,0-1,0.2-1.5,0.4c0.6,0,1.2,0.2,1.7,0.5l0.1,0.1
		C39.8,30.2,40.5,30.1,41.2,30.1"/>
	<path id="path9264" class="st97" d="M41.2,30.1c-0.6-0.5-1.5-0.8-2.2-0.7c-0.5,0-1,0.2-1.5,0.4c0.6,0,1.2,0.2,1.7,0.5l0.1,0.1
		C39.8,30.2,40.5,30.1,41.2,30.1z"/>
	<path id="path9266" class="st28" d="M37.2,29.9c-0.2,0.2-0.4,0.4-0.6,0.7c0.3,0,0.6-0.1,0.9-0.1l1.4-0.2c-0.3-0.2-0.7-0.3-1-0.3
		C37.7,30,37.5,29.9,37.2,29.9"/>
	<path id="path9268" class="st97" d="M37.2,29.9c-0.2,0.2-0.4,0.4-0.6,0.7c0.3,0,0.6-0.1,0.9-0.1l1.4-0.2c-0.3-0.2-0.7-0.3-1-0.3
		C37.7,30,37.5,30,37.2,29.9z"/>
	<path id="path9270" class="st28" d="M36.4,30.6c0.1-0.2,0.2-0.4,0.5-0.7c-0.6,0-1.1,0.3-1.4,0.8C35.8,30.7,36.1,30.7,36.4,30.6"/>
	<path id="path9272" class="st97" d="M36.4,30.7c0.1-0.2,0.2-0.4,0.5-0.7c-0.6,0-1.1,0.3-1.4,0.8C35.8,30.7,36.1,30.7,36.4,30.7z"/>
	<path id="path9274" class="st28" d="M64.5,30.8c-0.2-0.5-0.8-0.8-1.4-0.8c0.3,0.3,0.4,0.5,0.5,0.7C63.9,30.7,64.2,30.7,64.5,30.8"
		/>
	<path id="path9276" class="st97" d="M64.5,30.8c-0.2-0.5-0.8-0.8-1.4-0.8c0.3,0.3,0.4,0.5,0.5,0.7C63.9,30.7,64.2,30.7,64.5,30.8
		L64.5,30.8z"/>
	<path id="path9278" class="st28" d="M63.3,30.6c-0.1-0.3-0.3-0.5-0.6-0.7c-0.2,0-0.5,0-0.7,0.1c-0.4,0.1-0.7,0.1-1,0.3l1.4,0.2
		C62.6,30.5,62.9,30.6,63.3,30.6"/>
	<path id="path9280" class="st97" d="M63.3,30.6c-0.1-0.3-0.3-0.5-0.6-0.7c-0.2,0-0.5,0-0.7,0.1c-0.4,0.1-0.7,0.1-1,0.3l1.4,0.2
		C62.6,30.5,62.9,30.5,63.3,30.6z"/>
	<path id="path9282" class="st98" d="M60.7,30.3L60.7,30.3c0.5-0.4,1.1-0.5,1.7-0.5c-0.4-0.2-1-0.4-1.5-0.4c-0.7,0-1.6,0.2-2.2,0.7
		C59.5,30.1,60.1,30.2,60.7,30.3"/>
	<path id="path9284" class="st97" d="M60.7,30.3L60.7,30.3c0.5-0.4,1.1-0.5,1.7-0.5c-0.4-0.2-1-0.4-1.5-0.4c-0.7,0-1.6,0.2-2.2,0.7
		C59.5,30.2,60.1,30.2,60.7,30.3z"/>
	<path id="path9286" class="st28" d="M41.2,34c-1.4,0.1-2.6,0.3-3.7,0.4v1.9c0.6,0.6,1.6,0.9,2.4,0.9c1.6,0,2.2-0.8,2.7-1.7
		c0.1-0.2,0.1-0.3,0.1-0.5C42.2,34.4,41.3,34.1,41.2,34C41.3,34,41.3,34,41.2,34"/>
	<path id="path9288" class="st97" d="M41.3,34c-1.4,0.1-2.6,0.3-3.7,0.4v1.9c0.6,0.6,1.6,0.9,2.4,0.9c1.6,0,2.2-0.8,2.7-1.7
		c0.1-0.2,0.1-0.3,0.1-0.5C42.2,34.4,41.3,34.1,41.3,34C41.3,34.1,41.3,34,41.3,34L41.3,34z"/>
	<path id="path9290" class="st98" d="M42.5,33.9c-0.3,0-0.6,0.1-0.9,0.1c0.4,0.2,0.8,0.4,1.1,0.8c0-0.3-0.1-0.5-0.2-0.7
		C42.6,33.9,42.5,33.9,42.5,33.9"/>
	<path id="path9292" class="st99" d="M42.5,33.9c-0.3,0-0.6,0.1-0.9,0.1c0.4,0.2,0.8,0.4,1.1,0.8c0-0.3-0.1-0.5-0.2-0.7
		C42.5,33.9,42.5,33.9,42.5,33.9L42.5,33.9z"/>
	<path id="path9294" class="st28" d="M43.5,33.8c-0.3,0-0.5,0-0.8,0.1c0.2,0.3,0.3,0.7,0.2,1.1c0.2,0.2,0.3,0.5,0.4,0.8"/>
	<path id="path9296" class="st97" d="M43.5,33.8c-0.3,0-0.5,0-0.8,0.1c0.2,0.3,0.3,0.7,0.2,1.1c0.2,0.2,0.3,0.5,0.4,0.8L43.5,33.8z"
		/>
	<path id="path9298" class="st28" d="M58.8,34C58.7,34,58.7,34,58.8,34c-0.1,0.1-1,0.4-1.5,1c0,0.2,0.1,0.3,0.1,0.5
		c0.4,0.9,1.1,1.7,2.7,1.7c0.8,0,1.8-0.3,2.4-0.9v-1.9C61.4,34.3,60.2,34.1,58.8,34"/>
	<path id="path9300" class="st97" d="M58.7,34C58.7,34,58.7,34.1,58.7,34c-0.1,0.1-1,0.4-1.5,1c0,0.2,0.1,0.3,0.1,0.5
		c0.4,0.9,1.1,1.7,2.7,1.7c0.8,0,1.8-0.3,2.4-0.9v-1.9C61.4,34.3,60.2,34.1,58.7,34L58.7,34z"/>
	<path id="path9302" class="st98" d="M57.5,33.9c0,0,0,0.1-0.1,0.1c-0.1,0.2-0.2,0.5-0.2,0.7c0.3-0.3,0.8-0.6,1.1-0.8
		C58.1,33.9,57.8,33.9,57.5,33.9"/>
	<path id="path9304" class="st99" d="M57.5,33.9c0,0,0,0.1-0.1,0.1c-0.1,0.2-0.2,0.5-0.2,0.7c0.3-0.3,0.8-0.6,1.1-0.8
		C58.1,33.9,57.8,33.9,57.5,33.9L57.5,33.9z"/>
	<path id="path9306" class="st28" d="M56.7,35.5c0.1-0.2,0.2-0.4,0.3-0.5c0-0.4,0-0.8,0.2-1.1c-0.2,0-0.5,0-0.7-0.1"/>
	<path id="path9308" class="st97" d="M56.7,35.5c0.1-0.2,0.2-0.4,0.3-0.5c0-0.4,0-0.8,0.2-1.1c-0.2,0-0.5,0-0.7-0.1L56.7,35.5z"/>
	<path id="path9310" class="st98" d="M52.4,22.4L52.4,22.4c-0.6,0-1.2,0.2-1.2,0.9c0,0.5,0.4,0.7,0.8,0.8c-0.1-0.1-0.2-0.3-0.2-0.6
		C51.7,23.1,52,22.7,52.4,22.4"/>
	<path id="path9312" class="st97" d="M52.3,22.4L52.3,22.4c-0.6,0-1.2,0.2-1.2,0.9c0,0.5,0.4,0.7,0.8,0.8c-0.1-0.1-0.2-0.3-0.2-0.6
		C51.7,23.1,52,22.7,52.3,22.4z"/>
	<path id="path9314" class="st98" d="M50.5,16.1c0.5,1,0.1,2.1,0.1,3.1c0,0.7,0.7,1.2,1.2,1.3c0.5,0.1,1.3-0.2,1.9-0.3l0.1,0
		c-0.3-0.2-0.8-0.2-1.1-0.2c-0.4,0.1-0.7,0.1-1.1-0.1c-0.6-0.3-0.7-1-0.7-1.6c0-0.5,0-1.3-0.1-1.7C50.7,16.4,50.6,16.2,50.5,16.1"/>
	<path id="path9316" class="st97" d="M50.5,16.1c0.5,1,0.1,2.1,0.1,3.1c0,0.7,0.7,1.2,1.2,1.3c0.5,0.1,1.3-0.2,1.9-0.3l0.1,0
		c-0.3-0.2-0.8-0.2-1.1-0.2c-0.4,0.1-0.7,0.1-1.1-0.1c-0.6-0.3-0.7-1-0.7-1.6c0-0.5,0-1.3-0.1-1.7C50.7,16.4,50.6,16.2,50.5,16.1
		L50.5,16.1z"/>
	<path id="path9318" class="st28" d="M53,22.2c0.3,0,0.7-0.1,1-0.3c0.5-0.3,0.7-1,0.5-1.3c-0.1-0.2-0.2-0.3-0.4-0.3
		c0.1,0.3,0.2,0.8-0.1,1.2C53.7,21.8,53.3,22,53,22.2"/>
	<path id="path9320" class="st97" d="M53,22.2c0.3,0,0.7-0.1,1-0.3c0.5-0.3,0.7-1,0.5-1.3c-0.1-0.2-0.2-0.3-0.4-0.3
		c0.1,0.3,0.2,0.8-0.1,1.2C53.7,21.8,53.3,22,53,22.2z"/>
	<path id="path9322" class="st98" d="M52.3,25.9c0.1-0.3,0.4-0.5,0.6-0.6c0.7-0.3,2.2-0.1,3.9,0.3c1.7,0.4,2.6,1,2.8,1.4
		c0.2,0.4,0.4,0.8,0.4,1.2c0.5-0.7,0.4-1.1,0.1-1.7c-0.3-0.6-1-1.1-2-1.5c0,0-0.1,0-0.1-0.1c-0.1,0-0.1,0-0.2-0.1c0,0-0.1,0-0.1,0
		c-0.2-0.1-0.4-0.1-0.7-0.1c-1.6-0.3-2.9-0.1-3.7,0.2c-0.9,0.3-1.2,0.8-1.2,1C52.1,25.8,52.2,25.9,52.3,25.9"/>
	<path id="path9324" class="st97" d="M52.3,25.9c0.1-0.3,0.4-0.5,0.6-0.6c0.7-0.3,2.2-0.1,3.9,0.3c1.7,0.4,2.6,1,2.8,1.4
		c0.2,0.4,0.4,0.8,0.4,1.2c0.5-0.7,0.4-1.1,0.1-1.7c-0.3-0.6-1-1.1-2-1.5c0,0-0.1,0-0.1-0.1c-0.1,0-0.1,0-0.2-0.1c0,0-0.1,0-0.1,0
		c-0.2-0.1-0.4-0.1-0.7-0.1c-1.6-0.3-2.9-0.1-3.7,0.2c-0.9,0.3-1.2,0.8-1.2,1C52.1,25.8,52.2,25.9,52.3,25.9z"/>
	<path id="path9326" class="st28" d="M57.5,30c0.3-0.1,1-0.4,1.6-0.8c-0.1,0-0.2,0-0.3-0.1c-0.9-0.1-2-0.1-2.9,0.2
		c0.1,0.2,0.1,0.3,0.2,0.5C56.5,29.9,57,29.9,57.5,30"/>
	<path id="path9328" class="st97" d="M57.5,29.9c0.3-0.1,1-0.4,1.6-0.8c-0.1,0-0.2,0-0.3-0.1c-0.9-0.1-2-0.1-2.9,0.2
		c0.1,0.2,0.1,0.3,0.2,0.5C56.5,29.9,57,29.9,57.5,29.9L57.5,29.9z"/>
	<path id="path9330" class="st28" d="M52.5,24.3c-0.6,0.1-1.5-0.1-1.5-1c0-0.9,0.8-1.1,1.3-1.1h0.3c0.3-0.2,0.5-0.4,0.7-0.5
		c0.2-0.1,0.4-0.3,0.5-0.4c0.2-0.2,0.2-0.7,0-1c-0.1,0-0.1,0-0.2,0c-0.6,0.1-1.4,0.4-1.9,0.3c-0.6-0.1-1.3-0.7-1.4-1.5
		c0-0.8,0.2-1.6,0.2-2.2c0-0.2-0.1-0.5-0.2-0.8v9.3c0.5,0,1,0.1,1.5,0.3c0.1-0.3,0.5-0.9,1.4-1.2c0.9-0.3,2.2-0.5,3.8-0.2
		c0.1,0,0.2,0,0.3,0.1c-0.7-0.5-1.8-0.6-2.6-0.4C53.7,24.3,53.6,24.4,52.5,24.3"/>
	<path id="path9332" class="st97" d="M52.5,24.3c-0.6,0.1-1.5-0.1-1.5-1c0-0.9,0.8-1.1,1.3-1.1h0.3c0.3-0.2,0.5-0.4,0.7-0.5
		c0.2-0.1,0.4-0.3,0.5-0.4c0.2-0.2,0.2-0.7,0-1c-0.1,0-0.1,0-0.2,0c-0.6,0.1-1.4,0.4-1.9,0.3c-0.6-0.1-1.3-0.7-1.4-1.5
		c0-0.8,0.2-1.6,0.2-2.2c0-0.2-0.1-0.5-0.2-0.8v9.3c0.5,0,1,0.1,1.5,0.3c0.1-0.3,0.5-0.9,1.4-1.2c0.9-0.3,2.2-0.5,3.8-0.2
		c0.1,0,0.2,0,0.3,0.1c-0.7-0.5-1.8-0.6-2.6-0.4C53.7,24.3,53.6,24.4,52.5,24.3L52.5,24.3z"/>
	<path id="path9334" class="st28" d="M58,24.6c-0.2-1.4-1.7-1.8-3-1.5c-0.3,0.1-0.9,0.4-1.2,0.6c-0.3,0.2-0.6,0.3-0.8,0.4
		c0.7,0.1,0.9-0.1,1.6-0.3c0.4-0.1,0.9-0.1,1.5-0.1c1,0.1,1.5,0.6,1.7,0.8C57.9,24.6,57.9,24.6,58,24.6"/>
	<path id="path9336" class="st97" d="M58,24.6c-0.2-1.4-1.7-1.8-3-1.5c-0.3,0.1-0.9,0.4-1.2,0.6c-0.3,0.2-0.6,0.3-0.8,0.4
		c0.7,0.1,0.9-0.1,1.6-0.3c0.4-0.1,0.9-0.1,1.5-0.1c1,0.1,1.5,0.6,1.7,0.8C57.8,24.6,57.9,24.6,58,24.6z"/>
	<path id="path9338" class="st98" d="M47.6,22.4c0.3,0.3,0.6,0.7,0.6,1.1c0,0.3-0.1,0.5-0.2,0.6c0.4-0.1,0.8-0.3,0.8-0.8
		C48.8,22.6,48.2,22.4,47.6,22.4"/>
	<path id="path9340" class="st97" d="M47.7,22.4c0.3,0.3,0.6,0.7,0.6,1.1c0,0.3-0.1,0.5-0.2,0.6c0.4-0.1,0.8-0.3,0.8-0.8
		C48.8,22.6,48.2,22.4,47.7,22.4L47.7,22.4z"/>
	<path id="path9342" class="st98" d="M49.5,16.1c-0.1,0.2-0.2,0.3-0.3,0.5c-0.1,0.4-0.1,1.2-0.1,1.7c0.1,0.5,0,1.2-0.6,1.6
		c-0.4,0.2-0.7,0.2-1.1,0.1c-0.3,0-0.9,0-1.1,0.2l0.1,0c0.5,0.1,1.4,0.4,1.9,0.3c0.5-0.1,1.2-0.6,1.2-1.3
		C49.5,18.1,49,17.1,49.5,16.1"/>
	<path id="path9344" class="st97" d="M49.5,16.1c-0.1,0.2-0.2,0.3-0.3,0.5c-0.1,0.4-0.1,1.2-0.1,1.7c0.1,0.5,0,1.2-0.6,1.6
		c-0.4,0.2-0.7,0.2-1.1,0.1c-0.3,0-0.9,0-1.1,0.2l0.1,0c0.5,0.1,1.4,0.4,1.9,0.3c0.5-0.1,1.2-0.6,1.2-1.3
		C49.5,18.1,49,17.1,49.5,16.1L49.5,16.1z"/>
	<path id="path9346" class="st28" d="M47,22.2c-0.3-0.2-0.7-0.4-1-0.7c-0.3-0.3-0.2-0.8-0.1-1.2c-0.2,0-0.3,0.1-0.4,0.3
		c-0.2,0.3-0.1,1,0.5,1.3C46.3,22.1,46.7,22.2,47,22.2"/>
	<path id="path9348" class="st97" d="M47,22.2c-0.3-0.2-0.7-0.4-1-0.7c-0.3-0.3-0.2-0.8-0.1-1.2c-0.2,0-0.3,0.1-0.4,0.3
		c-0.2,0.3-0.1,1,0.5,1.3C46.3,22.1,46.7,22.2,47,22.2z"/>
	<path id="path9350" class="st28" d="M44.3,29.4c-0.9-0.3-2.1-0.4-3-0.2c-0.1,0-0.3,0-0.3,0.1c0.6,0.4,1.3,0.7,1.6,0.8
		c0.5,0,1-0.1,1.6-0.1C44.1,29.7,44.2,29.5,44.3,29.4"/>
	<path id="path9352" class="st97" d="M44.3,29.4c-0.9-0.3-2.1-0.4-3-0.2c-0.1,0-0.3,0-0.3,0.1c0.6,0.4,1.3,0.7,1.6,0.8
		c0.5,0,1-0.1,1.6-0.1C44.2,29.7,44.2,29.5,44.3,29.4z"/>
	<path id="path9354" class="st98" d="M48,25.8L48,25.8c0-0.2-0.4-0.8-1.3-1c-0.9-0.3-2.2-0.5-3.7-0.2c-0.2,0-0.5,0.1-0.7,0.1
		c0,0-0.1,0.1-0.1,0c-0.1,0-0.2,0-0.2,0.1c0,0.1-0.1,0.1-0.1,0.1c-1,0.4-1.8,0.9-2,1.5c-0.3,0.7-0.4,1,0.1,1.7
		c0-0.4,0.2-0.8,0.4-1.2c0.2-0.4,1.1-0.9,2.8-1.4c1.8-0.4,3.2-0.5,3.9-0.3c0.3,0.1,0.6,0.3,0.7,0.6C47.8,25.9,47.9,25.8,48,25.8"/>
	<path id="path9356" class="st97" d="M48,25.8L48,25.8c0-0.2-0.4-0.8-1.3-1c-0.9-0.3-2.2-0.5-3.7-0.2c-0.2,0-0.5,0.1-0.7,0.1
		c0,0-0.1,0.1-0.1,0c-0.1,0-0.2,0-0.2,0.1c0,0.1-0.1,0.1-0.1,0.1c-1,0.4-1.8,0.9-2,1.5c-0.3,0.7-0.4,1,0.1,1.7
		c0-0.4,0.2-0.8,0.4-1.2c0.2-0.4,1.1-0.9,2.8-1.4c1.8-0.4,3.2-0.5,3.9-0.3c0.3,0.1,0.6,0.3,0.7,0.6C47.8,25.9,47.9,25.9,48,25.8
		L48,25.8z"/>
	<path id="path9358" class="st28" d="M47.5,24.3c-1.1,0.2-1.2,0-2.2-0.2c-0.8-0.2-1.9-0.1-2.6,0.4c0.1,0,0.2,0,0.3-0.1
		c1.6-0.3,2.9-0.1,3.8,0.2c0.9,0.3,1.3,0.9,1.4,1.1c0.5-0.1,1-0.2,1.6-0.3v-9.4c-0.2,0.3-0.3,0.6-0.3,0.9c0,0.6,0.2,1.5,0.2,2.2
		c0,0.8-0.8,1.5-1.4,1.5c-0.6,0.1-1.4-0.2-1.9-0.3c-0.1,0-0.2,0-0.2,0c-0.1,0.3-0.2,0.8,0,1c0.1,0.1,0.3,0.3,0.5,0.4
		c0.2,0.1,0.5,0.3,0.7,0.5h0.3c0.5,0,1.3,0.2,1.3,1.1C49,24.2,48.1,24.4,47.5,24.3"/>
	<path id="path9360" class="st97" d="M47.5,24.3c-1.1,0.2-1.2,0-2.2-0.2c-0.8-0.2-1.9-0.1-2.6,0.4c0.1,0,0.2,0,0.3-0.1
		c1.6-0.3,2.9-0.1,3.8,0.2c0.9,0.3,1.3,0.9,1.4,1.1c0.5-0.1,1-0.2,1.6-0.3v-9.4c-0.2,0.3-0.3,0.6-0.3,0.9c0,0.6,0.2,1.5,0.2,2.2
		c0,0.8-0.8,1.5-1.4,1.5c-0.6,0.1-1.4-0.2-1.9-0.3c-0.1,0-0.2,0-0.2,0c-0.1,0.3-0.2,0.8,0,1c0.1,0.1,0.3,0.3,0.5,0.4
		c0.2,0.1,0.5,0.3,0.7,0.5h0.3c0.5,0,1.3,0.2,1.3,1.1C49,24.2,48.1,24.4,47.5,24.3L47.5,24.3z"/>
	<path id="path9362" class="st28" d="M42.1,26.2c0,0,0-0.1,0-0.1l0.1,0c0,0,0.1,0.1,0.1,0.1c1.1,1.1,3.8,1.5,5.2,0.7
		c-0.1,0.1-0.1,0.3-0.2,0.4c-0.2,0.3-1.2,1-3,0.5C43.4,27.7,42.6,27.1,42.1,26.2"/>
	<path id="path9364" class="st97" d="M42.1,26.2c0,0,0-0.1,0-0.1l0.1,0c0,0,0.1,0.1,0.1,0.1c1.1,1.1,3.8,1.5,5.2,0.7
		c-0.1,0.1-0.1,0.3-0.2,0.4c-0.2,0.3-1.2,1-3,0.5C43.4,27.7,42.6,27.1,42.1,26.2L42.1,26.2z"/>
	<path id="path9366" class="st28" d="M44.9,28.2c-0.2,0-0.4-0.1-0.6-0.1c-1.6-0.4-2.3-1.6-2.4-1.9c-0.8,0.3-1.2,0.7-1.3,0.8
		c-0.3,0.5-0.5,1.1-0.4,1.4l0.1,0.1c0.1,0.2,0.3,0.3,0.5,0.5c0.6-0.1,1.3-0.2,2-0.1c0.9,0.1,1.5,0.2,1.7,0.3
		C44.5,28.8,44.7,28.5,44.9,28.2"/>
	<path id="path9368" class="st97" d="M44.9,28.2c-0.2,0-0.4-0.1-0.6-0.1c-1.6-0.4-2.3-1.6-2.4-1.9c-0.8,0.3-1.2,0.7-1.3,0.8
		c-0.3,0.5-0.5,1.1-0.4,1.4l0.1,0.1c0.1,0.2,0.3,0.3,0.5,0.5c0.6-0.1,1.3-0.2,2-0.1c0.9,0.1,1.5,0.2,1.7,0.3
		C44.5,28.8,44.7,28.5,44.9,28.2z"/>
	<path id="path9370" class="st28" d="M57.4,25.9c-0.2-0.1-0.4-0.1-0.6-0.2c-0.4-0.1-3.9-0.9-4.3,0.1c0,0,0,0,0,0.1
		c0.7,0.3,1.3,0.7,1.8,1.2c1.2,0,2.6-0.4,3.3-1.1l0.1-0.1"/>
	<path id="path9372" class="st97" d="M57.4,25.9c-0.2-0.1-0.4-0.1-0.6-0.2c-0.4-0.1-3.9-0.9-4.3,0.1c0,0,0,0,0,0.1
		c0.7,0.3,1.3,0.7,1.8,1.2c1.2,0,2.6-0.4,3.3-1.1l0.1-0.1L57.4,25.9z"/>
	<path id="path9374" class="st28" d="M58.1,26.2c-0.1,0.3-0.7,1.5-2.4,1.9c-0.2,0-0.4,0.1-0.5,0.1c0.2,0.3,0.4,0.6,0.5,0.9
		c0.2-0.1,0.8-0.2,1.6-0.3c0.6,0,1.3,0,2,0.1c0.2-0.1,0.3-0.3,0.5-0.5l0.1-0.1c0.1-0.3-0.1-0.9-0.4-1.4
		C59.4,26.8,58.9,26.5,58.1,26.2"/>
	<path id="path9376" class="st97" d="M58.1,26.2c-0.1,0.3-0.7,1.5-2.4,1.9c-0.2,0-0.4,0.1-0.5,0.1c0.2,0.3,0.4,0.6,0.5,0.9
		c0.2-0.1,0.8-0.2,1.6-0.3c0.6,0,1.3,0,2,0.1c0.2-0.1,0.3-0.3,0.5-0.5l0.1-0.1c0.1-0.3-0.1-0.9-0.4-1.4
		C59.3,26.8,58.9,26.5,58.1,26.2L58.1,26.2z"/>
	<path id="path9378" class="st28" d="M57.8,26.1c0,0-0.1,0.1-0.1,0.1c-0.7,0.8-2.2,1.2-3.5,1.1c-0.6,0-1.2-0.2-1.7-0.4
		c0.1,0.1,0.1,0.3,0.2,0.4c0.2,0.3,1.2,1,3,0.5c0.9-0.2,1.7-0.8,2.1-1.6C57.9,26.2,57.9,26.2,57.8,26.1"/>
	<path id="path9380" class="st97" d="M57.8,26.1c0,0-0.1,0.1-0.1,0.1c-0.7,0.8-2.2,1.2-3.5,1.1c-0.6,0-1.2-0.2-1.7-0.4
		c0.1,0.1,0.1,0.3,0.2,0.4c0.2,0.3,1.2,1,3,0.5c0.9-0.2,1.7-0.8,2.1-1.6C57.9,26.2,57.9,26.1,57.8,26.1L57.8,26.1z"/>
	<path id="path9382" class="st28" d="M53.9,28.2c-0.6-0.1-1-0.3-1.2-0.5l-1.2,2c0.5,0,1,0,1.5,0l1.5-0.8
		C54.2,28.6,54.1,28.4,53.9,28.2L53.9,28.2z M46.2,28.2c-0.2,0.2-0.4,0.4-0.5,0.7l1.5,0.9c0.5,0,0.9,0,1.4,0l-1.2-2.1
		C47.2,27.8,46.8,28.1,46.2,28.2L46.2,28.2z M54.8,33.7c-0.3,0-0.6,0-0.9,0l0.7,0.4C54.7,33.9,54.8,33.8,54.8,33.7z M53,33.6
		c-0.5,0-1,0-1.5,0l1.4,2.5c0.6-0.4,1.2-0.9,1.6-1.6L53,33.6C53,33.7,53,33.7,53,33.6L53,33.6z M50.8,33.6l-0.5,0v3.3
		c0.8,0,1.5-0.2,2.1-0.6L50.8,33.6L50.8,33.6z M49.8,33.6h-0.5l0,0l-1.6,2.7c0.6,0.3,1.4,0.5,2.1,0.6L49.8,33.6z M48.6,33.6
		c-0.5,0-1,0-1.5,0c0,0-0.1,0.1-0.1,0.1l-1.4,0.8c0.4,0.6,0.9,1.2,1.6,1.6L48.6,33.6z M46.1,33.7c-0.3,0-0.6,0-0.9,0
		c0.1,0.1,0.1,0.2,0.2,0.4L46.1,33.7z M45.2,29.8c0.3,0,0.6,0,1,0l-0.8-0.4C45.3,29.5,45.3,29.6,45.2,29.8z M49.2,29.7h0.6v-3.2
		c-0.8,0-1.5,0.2-2.1,0.6L49.2,29.7z M50.3,29.7l0.6,0l1.5-2.6c-0.6-0.3-1.4-0.5-2.1-0.6L50.3,29.7z M53.9,29.7c0.3,0,0.7,0,1,0
		c-0.1-0.2-0.1-0.3-0.2-0.5"/>
	<path id="path9384" class="st97" d="M53.9,28.2c-0.6-0.1-1-0.3-1.2-0.5l-1.2,2c0.5,0,1,0,1.5,0l1.5-0.8
		C54.2,28.6,54,28.4,53.9,28.2L53.9,28.2z"/>
	<path id="path9386" class="st97" d="M46.2,28.2c-0.2,0.2-0.4,0.4-0.5,0.7l1.5,0.9c0.5,0,0.9,0,1.4,0l-1.2-2.1
		C47.2,27.8,46.8,28.1,46.2,28.2L46.2,28.2z"/>
	<path id="path9388" class="st97" d="M54.8,33.7c-0.3,0-0.6,0-0.9,0l0.7,0.4C54.7,34,54.8,33.8,54.8,33.7z"/>
	<path id="path9390" class="st97" d="M52.9,33.6c-0.5,0-1,0-1.5,0l1.4,2.5c0.6-0.4,1.2-0.9,1.6-1.6L52.9,33.6
		C53,33.7,53,33.7,52.9,33.6z"/>
	<path id="path9392" class="st97" d="M50.8,33.6l-0.5,0v3.3c0.8,0,1.5-0.2,2.1-0.6L50.8,33.6L50.8,33.6z"/>
	<path id="path9394" class="st97" d="M49.8,33.6h-0.5l0,0l-1.6,2.7c0.6,0.3,1.4,0.5,2.1,0.6L49.8,33.6z"/>
	<path id="path9396" class="st97" d="M48.6,33.6c-0.5,0-1,0-1.5,0c0,0-0.1,0.1-0.1,0.1l-1.4,0.8c0.4,0.6,0.9,1.2,1.6,1.6L48.6,33.6z
		"/>
	<path id="path9398" class="st97" d="M46.1,33.7c-0.3,0-0.6,0-0.9,0c0.1,0.1,0.1,0.2,0.2,0.4L46.1,33.7z"/>
	<path id="path9400" class="st97" d="M45.2,29.8c0.3,0,0.6,0,1,0l-0.8-0.4C45.3,29.5,45.2,29.6,45.2,29.8z"/>
	<path id="path9402" class="st97" d="M49.2,29.7h0.6v-3.2c-0.8,0-1.5,0.2-2.1,0.6L49.2,29.7z"/>
	<path id="path9404" class="st97" d="M50.3,29.7l0.6,0l1.5-2.6c-0.6-0.3-1.4-0.5-2.1-0.6V29.7z"/>
	<path id="path9406" class="st97" d="M53.9,29.8c0.3,0,0.7,0,1,0c-0.1-0.2-0.1-0.3-0.2-0.5L53.9,29.8z"/>
	<path id="path9408" class="st28" d="M31.4,32.3c0.1,0,0.2,0,0.2,0c0,0,0.1,0,0.1-0.1c0,0,0-0.1,0-0.1l0.1,0L32,33l-0.1,0
		c-0.1-0.2-0.2-0.3-0.3-0.4c-0.2-0.2-0.4-0.2-0.5-0.2c-0.2,0.1-0.3,0.2-0.3,0.4c0,0.2,0,0.5,0.1,0.9c0.1,0.3,0.1,0.5,0.2,0.6
		c0.2,0.3,0.4,0.4,0.6,0.3c0.1,0,0.3-0.1,0.4-0.3c0.1-0.1,0.1-0.2,0.2-0.3l0.1,0.1c-0.1,0.2-0.1,0.3-0.2,0.4
		c-0.1,0.2-0.3,0.3-0.4,0.3c-0.3,0.1-0.5,0-0.8-0.1c-0.3-0.2-0.4-0.5-0.5-0.8c-0.1-0.4-0.1-0.7,0.1-1c0.1-0.3,0.3-0.4,0.6-0.5
		C31.1,32.3,31.2,32.3,31.4,32.3"/>
	<path id="path9410" class="st28" d="M33.8,33.7c0-0.2,0-0.4-0.1-0.7c-0.1-0.4-0.2-0.7-0.3-0.8C33.3,32.1,33.1,32,33,32
		c-0.2,0-0.3,0.2-0.4,0.6c0,0.2,0,0.4,0.1,0.7c0.1,0.3,0.1,0.5,0.2,0.7c0.1,0.3,0.3,0.4,0.5,0.4C33.6,34.3,33.7,34.1,33.8,33.7z
		 M33.7,32.1c0.2,0.2,0.4,0.5,0.5,0.9c0.1,0.4,0,0.7-0.1,1c-0.1,0.3-0.4,0.4-0.6,0.5c-0.3,0.1-0.6,0-0.8-0.2
		c-0.2-0.2-0.4-0.5-0.4-0.8c-0.1-0.4,0-0.7,0.1-1c0.1-0.3,0.4-0.5,0.7-0.5C33.2,31.8,33.5,31.9,33.7,32.1"/>
	<path id="path9412" class="st28" d="M34.3,34.1c0.1,0,0.2-0.1,0.2-0.1c0-0.1,0-0.1,0-0.2L34.3,32c-0.1-0.1-0.2-0.2-0.2-0.2
		c0,0-0.1,0-0.1,0l0-0.1l0.6-0.1l1.2,1.4l0,0l-0.2-1.1c0-0.1-0.1-0.2-0.1-0.3c0,0-0.1-0.1-0.2-0.1l0-0.1l0.6-0.1l0,0.1
		c-0.1,0-0.1,0.1-0.2,0.1c0,0,0,0.1,0,0.2l0.3,2.1L36,34l-1.6-1.7l0,0l0.2,1.4c0,0.1,0,0.2,0.1,0.2c0.1,0.1,0.1,0.1,0.3,0.1l0,0.1
		L34.3,34.1"/>
	<path id="path9414" class="st28" d="M36.1,33L36.1,33c0.2,0.2,0.3,0.4,0.4,0.5c0.1,0.1,0.3,0.2,0.4,0.1c0.1,0,0.2-0.1,0.3-0.2
		c0-0.1,0.1-0.2,0-0.3c0-0.1-0.1-0.2-0.1-0.3c0,0-0.1-0.1-0.3-0.1l-0.2-0.1c-0.2-0.1-0.4-0.2-0.4-0.3c-0.1-0.1-0.2-0.2-0.2-0.4
		c0-0.2,0-0.3,0.1-0.5c0.1-0.2,0.2-0.3,0.4-0.3c0.1,0,0.2,0,0.3,0c0.1,0,0.2,0,0.2,0c0,0,0.1,0,0.1,0c0,0,0-0.1,0-0.1l0.1,0l0.1,0.8
		l-0.1,0c-0.1-0.2-0.2-0.3-0.3-0.4c-0.1-0.1-0.2-0.2-0.4-0.1c-0.1,0-0.2,0.1-0.2,0.1c0,0.1-0.1,0.2,0,0.3c0,0.1,0.1,0.2,0.1,0.2
		c0.1,0,0.2,0.1,0.4,0.2l0.2,0.1c0.1,0,0.2,0.1,0.3,0.2c0.1,0.1,0.2,0.3,0.2,0.5c0,0.2,0,0.4-0.1,0.5c-0.1,0.2-0.3,0.3-0.5,0.3
		c-0.1,0-0.1,0-0.2,0c-0.1,0-0.1,0-0.2,0l-0.1,0c0,0,0,0,0,0c0,0,0,0,0,0c0,0-0.1,0-0.1,0c0,0,0,0.1,0,0.1l-0.1,0"/>
	<path id="path9416" class="st28" d="M37.6,33.7L37.6,33.7c0.1-0.1,0.1-0.1,0.2-0.2c0.1,0,0.1-0.1,0.1-0.2l-0.2-1.7
		c0-0.1,0-0.2-0.1-0.2c0,0-0.1,0-0.2,0l0-0.1L39,31l0.1,0.7l-0.1,0c-0.1-0.2-0.1-0.4-0.2-0.5c-0.1-0.1-0.3-0.1-0.5-0.1
		c-0.1,0-0.1,0-0.2,0.1c0,0,0,0.1,0,0.1l0.1,0.8c0.2,0,0.3-0.1,0.3-0.1c0.1-0.1,0.1-0.2,0.1-0.4l0.1,0l0.1,1.2l-0.1,0
		c0-0.2-0.1-0.3-0.2-0.4c-0.1-0.1-0.2-0.1-0.4-0.1l0.1,0.9c0,0.1,0,0.1,0.1,0.2c0,0,0.1,0,0.2,0c0.2,0,0.3-0.1,0.4-0.2
		c0.1-0.1,0.2-0.3,0.3-0.5l0.1,0l0,0.8"/>
	<path id="path9418" class="st28" d="M40.4,30.9c0.1,0,0.2,0.1,0.2,0.1c0,0,0.1,0,0.1-0.1c0,0,0-0.1,0-0.1l0.1,0l0.1,0.8l-0.1,0
		c-0.1-0.2-0.2-0.3-0.3-0.4C40.5,31,40.3,31,40.1,31c-0.2,0-0.3,0.1-0.4,0.4c-0.1,0.2-0.1,0.5,0,0.9c0,0.3,0.1,0.5,0.1,0.6
		c0.1,0.3,0.3,0.4,0.5,0.4c0.1,0,0.3-0.1,0.4-0.2c0.1-0.1,0.1-0.2,0.2-0.3l0.1,0.1c-0.1,0.2-0.2,0.3-0.3,0.4
		c-0.1,0.1-0.3,0.2-0.5,0.2c-0.3,0-0.5-0.1-0.8-0.2c-0.2-0.2-0.4-0.5-0.4-0.9c0-0.4,0-0.7,0.2-1c0.2-0.3,0.4-0.4,0.7-0.4
		C40.2,30.8,40.3,30.9,40.4,30.9"/>
	<path id="path9420" class="st28" d="M41,30.8l1.7-0.1l0.1,0.7l-0.1,0c0-0.3-0.1-0.4-0.3-0.5c-0.1,0-0.2-0.1-0.3-0.1l0.1,1.9
		c0,0.1,0,0.2,0.1,0.3c0,0,0.1,0.1,0.2,0.1l0,0.1l-1,0.1l0-0.1c0.1,0,0.2,0,0.2-0.1c0-0.1,0.1-0.1,0-0.3l-0.1-1.9
		c-0.1,0-0.2,0.1-0.3,0.1c-0.1,0.1-0.2,0.3-0.2,0.5l-0.1,0"/>
	<path id="path9422" class="st28" d="M43.6,32.2l-0.3-0.8h0l-0.2,0.9L43.6,32.2z M42.6,33.1c0.1,0,0.1-0.1,0.2-0.1
		c0-0.1,0.1-0.2,0.1-0.3l0.5-2l0.1,0l0.8,1.9c0.1,0.2,0.2,0.3,0.2,0.4c0,0.1,0.1,0.1,0.2,0.1l0,0.1l-0.9,0.1l0-0.1
		c0.1,0,0.2,0,0.2,0c0,0,0-0.1,0-0.1c0,0,0-0.1,0-0.1c0,0,0-0.1,0-0.1l-0.1-0.2l-0.6,0c0,0.1-0.1,0.2-0.1,0.3c0,0.1,0,0.2,0,0.2
		c0,0.1,0,0.1,0.1,0.1c0,0,0.1,0,0.2,0l0,0.1L42.6,33.1"/>
	<path id="path9424" class="st28" d="M44.1,30.6l1.7-0.1l0.1,0.7l-0.1,0c-0.1-0.3-0.1-0.4-0.3-0.5c-0.1,0-0.2-0.1-0.3-0.1l0.1,1.9
		c0,0.1,0,0.2,0.1,0.3c0,0,0.1,0.1,0.2,0.1l0,0.1l-1,0.1l0-0.1c0.1,0,0.2,0,0.2-0.1c0,0,0-0.1,0-0.3l-0.1-1.9
		c-0.1,0-0.3,0.1-0.3,0.1c-0.1,0.1-0.2,0.3-0.2,0.5l-0.1,0"/>
	<path id="path9426" class="st28" d="M46,32.9c0.1,0,0.1,0,0.2,0c0.1,0,0.1-0.1,0.1-0.2l-0.1-1.8c0-0.1,0-0.2-0.1-0.2
		c0,0-0.1,0-0.2,0l0-0.1l1,0l0,0.1c-0.1,0-0.2,0-0.2,0c-0.1,0-0.1,0.1-0.1,0.2l0.1,1.8c0,0.1,0,0.2,0.1,0.2c0.1,0,0.1,0,0.2,0l0,0.1
		L46,32.9"/>
	<path id="path9428" class="st28" d="M48.4,32.4c0-0.2,0.1-0.4,0.1-0.7c0-0.4-0.1-0.7-0.2-0.9c-0.1-0.2-0.2-0.3-0.4-0.3
		c-0.2,0-0.4,0.2-0.4,0.5c0,0.2-0.1,0.4-0.1,0.7c0,0.3,0,0.5,0.1,0.7c0.1,0.3,0.2,0.5,0.5,0.5C48.2,32.8,48.3,32.7,48.4,32.4z
		 M48.6,30.7c0.2,0.2,0.3,0.5,0.3,0.9c0,0.4-0.1,0.7-0.3,0.9c-0.2,0.2-0.4,0.4-0.7,0.4c-0.3,0-0.6-0.1-0.8-0.4
		c-0.2-0.2-0.3-0.5-0.3-0.9c0-0.4,0.1-0.7,0.3-0.9c0.2-0.3,0.4-0.4,0.7-0.4C48.2,30.4,48.4,30.5,48.6,30.7"/>
	<path id="path9430" class="st28" d="M49.4,32.9L49.4,32.9c0.1-0.1,0.1-0.1,0.2-0.1c0.1,0,0.1-0.1,0.1-0.2l0-1.8
		c0-0.1,0-0.2-0.1-0.2c0,0-0.1,0-0.2-0.1v-0.1l1.7,0l0,0.7l-0.1,0c0-0.2-0.1-0.4-0.2-0.5c-0.1-0.1-0.2-0.1-0.5-0.1
		c-0.1,0-0.1,0-0.2,0c0,0,0,0.1,0,0.1l0,0.8c0.2,0,0.3,0,0.3-0.1c0.1-0.1,0.1-0.2,0.1-0.4h0.1l0,1.2h-0.1c0-0.2-0.1-0.4-0.1-0.4
		c-0.1-0.1-0.2-0.1-0.3-0.1l0,0.9c0,0.1,0,0.1,0,0.2c0,0,0.1,0,0.2,0c0.2,0,0.3,0,0.5-0.1c0.1-0.1,0.2-0.3,0.3-0.5h0.1l-0.1,0.8"/>
	<path id="path9432" class="st28" d="M51.1,32.8c0.1,0,0.1,0,0.2,0c0.1,0,0.1-0.1,0.1-0.1l0.5-0.8l-0.6-1.1c0-0.1-0.1-0.1-0.1-0.2
		c0,0-0.1-0.1-0.1-0.1v-0.1l1,0v0.1c-0.1,0-0.2,0-0.2,0c0,0,0,0,0,0.1c0,0,0,0,0,0.1c0,0,0,0,0,0.1l0.3,0.6c0.2-0.3,0.3-0.4,0.3-0.5
		c0-0.1,0.1-0.1,0.1-0.2c0-0.1,0-0.1-0.1-0.1c0,0-0.1,0-0.1,0v-0.1l0.7,0v0.1c-0.1,0-0.2,0.1-0.3,0.2c-0.1,0.1-0.2,0.3-0.5,0.8
		l0.5,1c0.1,0.1,0.1,0.2,0.1,0.3c0,0,0.1,0.1,0.1,0.1l0,0.1l-1,0v-0.1c0.1,0,0.1,0,0.2,0c0,0,0.1,0,0.1-0.1c0,0,0,0,0-0.1
		c0,0,0-0.1,0-0.1L52,31.9l-0.1,0.2c-0.1,0.2-0.2,0.3-0.2,0.3c-0.1,0.1-0.1,0.2-0.1,0.2c0,0.1,0,0.1,0.1,0.1c0,0,0.1,0,0.1,0l0,0.1
		L51.1,32.8"/>
	<path id="path9434" class="st28" d="M54.5,30.6c0.1,0.1,0.2,0.1,0.2,0.1c0,0,0.1,0,0.1-0.1c0,0,0-0.1,0-0.1l0.1,0l0,0.9l-0.1,0
		c-0.1-0.2-0.1-0.3-0.2-0.4c-0.1-0.2-0.3-0.3-0.5-0.3c-0.2,0-0.3,0.1-0.4,0.3c-0.1,0.2-0.1,0.5-0.2,0.8c0,0.3,0,0.5,0,0.6
		c0.1,0.3,0.2,0.5,0.5,0.5c0.1,0,0.3,0,0.4-0.1c0.1-0.1,0.2-0.2,0.3-0.3l0.1,0.1c-0.1,0.2-0.2,0.3-0.3,0.3C54.4,33,54.3,33,54.1,33
		c-0.3,0-0.5-0.1-0.7-0.3c-0.2-0.2-0.3-0.6-0.3-1c0-0.4,0.1-0.7,0.3-1c0.2-0.2,0.4-0.3,0.7-0.3C54.2,30.5,54.4,30.5,54.5,30.6"/>
	<path id="path9436" class="st28" d="M54.8,33L54.8,33c0.1-0.1,0.1-0.1,0.2-0.1c0.1,0,0.1-0.1,0.1-0.2l0.1-1.8c0-0.1,0-0.2-0.1-0.2
		c0,0-0.1,0-0.2-0.1l0-0.1l1.7,0.1l-0.1,0.7l-0.1,0c0-0.2-0.1-0.4-0.2-0.5c-0.1-0.1-0.2-0.1-0.5-0.2c-0.1,0-0.1,0-0.2,0
		c0,0,0,0.1,0,0.1l-0.1,0.8c0.2,0,0.3,0,0.3-0.1c0.1-0.1,0.1-0.2,0.2-0.4l0.1,0l-0.1,1.2l-0.1,0c0-0.2,0-0.4-0.1-0.4
		c-0.1-0.1-0.2-0.1-0.3-0.2l-0.1,0.9c0,0.1,0,0.1,0,0.2c0,0,0.1,0,0.2,0.1c0.2,0,0.3,0,0.5-0.1c0.1-0.1,0.2-0.2,0.3-0.5l0.1,0
		l-0.2,0.7"/>
	<path id="path9438" class="st28" d="M56.5,33c0.1,0,0.1,0,0.2,0c0.1,0,0.1-0.1,0.1-0.2l0.1-1.8c0-0.1,0-0.2-0.1-0.2
		c0,0-0.1,0-0.2-0.1l0-0.1l1,0.1l0,0.1c-0.1,0-0.2,0-0.2,0c0,0-0.1,0.1-0.1,0.3l-0.1,1.7c0,0.1,0,0.1,0,0.2c0,0,0.1,0,0.2,0.1
		c0.2,0,0.3,0,0.4-0.1c0.1-0.1,0.2-0.3,0.3-0.5l0.1,0l-0.2,0.8L56.5,33"/>
	<path id="path9440" class="st28" d="M58.3,33.1c0.1,0,0.1,0,0.2,0c0.1,0,0.1-0.1,0.1-0.2l0.2-1.8c0-0.1,0-0.2-0.1-0.2
		c0,0-0.1,0-0.2-0.1l0-0.1l1,0.1l0,0.1c-0.1,0-0.2,0-0.2,0c0,0-0.1,0.1-0.1,0.3L59,32.9c0,0.1,0,0.1,0,0.2c0,0,0.1,0,0.2,0.1
		c0.2,0,0.3,0,0.5-0.1c0.1-0.1,0.2-0.3,0.4-0.5l0.1,0l-0.2,0.8L58.3,33.1"/>
	<path id="path9442" class="st28" d="M59.9,33.4L59.9,33.4c0.1-0.1,0.2-0.1,0.2-0.1c0.1,0,0.1-0.1,0.1-0.2l0.2-1.7
		c0-0.1,0-0.2-0.1-0.2c0,0-0.1,0-0.2-0.1l0-0.1l1.7,0.2l-0.1,0.7l-0.1,0c0-0.2-0.1-0.4-0.1-0.5c-0.1-0.1-0.2-0.2-0.5-0.2
		c-0.1,0-0.1,0-0.2,0c0,0,0,0.1-0.1,0.1l-0.1,0.8c0.2,0,0.3,0,0.3-0.1c0.1-0.1,0.1-0.2,0.2-0.4l0.1,0l-0.1,1.2l-0.1,0
		c0-0.2,0-0.4-0.1-0.4c-0.1-0.1-0.2-0.1-0.3-0.2l-0.1,0.9c0,0.1,0,0.1,0,0.2c0,0,0.1,0.1,0.2,0.1c0.2,0,0.3,0,0.5-0.1
		c0.1-0.1,0.3-0.2,0.4-0.5l0.1,0l-0.2,0.7"/>
	<path id="path9444" class="st28" d="M61.6,33.4c0.1,0,0.2,0,0.2,0c0,0,0.1-0.1,0.1-0.2l0.3-1.7c-0.1-0.1-0.1-0.2-0.1-0.2
		c0,0,0,0-0.1-0.1l0-0.1l0.6,0.1l0.8,1.7l0,0l0.2-1.1c0-0.1,0-0.2,0-0.3c0-0.1-0.1-0.1-0.2-0.1l0-0.1l0.6,0.1l0,0.1
		c-0.1,0-0.2,0-0.2,0.1c0,0-0.1,0.1-0.1,0.2l-0.3,2.1l-0.1,0l-1-2.1l0,0l-0.2,1.4c0,0.1,0,0.2,0,0.2c0,0.1,0.1,0.1,0.2,0.2l0,0.1
		L61.6,33.4"/>
	<path id="path9446" class="st28" d="M63.9,31.4l1.7,0.3l-0.1,0.7l-0.1,0c0-0.3,0-0.4-0.1-0.6c-0.1-0.1-0.2-0.1-0.3-0.1l-0.3,1.9
		c0,0.1,0,0.2,0,0.3c0,0,0.1,0.1,0.2,0.1l0,0.1l-1-0.2l0-0.1c0.1,0,0.2,0,0.2,0c0,0,0.1-0.1,0.1-0.3l0.3-1.9c-0.1,0-0.3,0-0.3,0
		c-0.2,0.1-0.3,0.2-0.3,0.5l-0.1,0"/>
	<path id="path9448" class="st28" d="M65.2,34c0.1,0,0.1,0,0.2,0c0.1,0,0.1-0.1,0.1-0.2l0.3-1.7c0-0.1,0-0.2,0-0.2
		c0,0-0.1-0.1-0.2-0.1l0-0.1l1,0.2l0,0.1c-0.1,0-0.2,0-0.2,0c-0.1,0-0.1,0.1-0.1,0.2L66,33.9c0,0.1,0,0.2,0,0.2c0,0,0.1,0.1,0.2,0.1
		l0,0.1L65.2,34"/>
	<path id="path9450" class="st28" d="M67.3,33.6l-0.1-0.9l0,0l-0.4,0.8L67.3,33.6z M66.1,34.2c0.1,0,0.1,0,0.2-0.1
		c0,0,0.1-0.1,0.2-0.3l1-1.8l0.1,0l0.3,2c0,0.2,0.1,0.4,0.1,0.4c0,0.1,0.1,0.1,0.1,0.1l0,0.1l-0.9-0.2l0-0.1c0.1,0,0.2,0,0.2,0
		c0,0,0.1,0,0.1-0.1c0,0,0-0.1,0-0.1c0,0,0-0.1,0-0.1l0-0.2l-0.6-0.1c-0.1,0.1-0.1,0.2-0.1,0.3c0,0.1-0.1,0.2-0.1,0.2
		c0,0.1,0,0.1,0.1,0.1c0,0,0.1,0,0.1,0.1l0,0.1L66.1,34.2"/>
	<path id="path9452" class="st28" d="M67.9,34.6L67.9,34.6c0.1-0.1,0.2-0.1,0.2-0.1c0.1,0,0.1-0.1,0.1-0.2l0.4-1.7
		c0-0.1,0-0.2,0-0.2c0,0-0.1-0.1-0.2-0.1l0-0.1l1.6,0.4l-0.2,0.7l-0.1,0c0-0.2,0-0.4-0.1-0.5c-0.1-0.1-0.2-0.2-0.4-0.2
		c-0.1,0-0.1,0-0.2,0c0,0-0.1,0.1-0.1,0.1l-0.2,0.8c0.2,0,0.3,0,0.4,0s0.2-0.2,0.2-0.4l0.1,0l-0.3,1.2l-0.1,0c0-0.2,0-0.4,0-0.5
		c0-0.1-0.1-0.2-0.3-0.2l-0.2,0.9c0,0.1,0,0.1,0,0.2c0,0,0.1,0.1,0.2,0.1c0.2,0,0.3,0,0.5,0c0.1-0.1,0.3-0.2,0.4-0.4l0.1,0L69.5,35"
		/>
	<path id="path9454" class="st28" d="M45.8,27.1c0.5-0.5,1.1-0.9,1.7-1.1c0,0,0-0.1,0-0.1c-0.4-1-3.9-0.2-4.3-0.1
		c-0.3,0.1-0.6,0.2-0.8,0.2l0.1,0.1C43.1,26.7,44.5,27.2,45.8,27.1"/>
	<path id="path9456" class="st97" d="M45.8,27.1c0.5-0.5,1.1-0.9,1.7-1.1c0,0,0-0.1,0-0.1c-0.4-1-3.9-0.2-4.3-0.1
		c-0.3,0.1-0.6,0.2-0.8,0.2l0.1,0.1C43.1,26.8,44.5,27.2,45.8,27.1L45.8,27.1z"/>
</g>
</svg>
