<?xml version="1.0" encoding="utf-8"?>
<!-- Generator: Adobe Illustrator 19.2.1, SVG Export Plug-In . SVG Version: 6.00 Build 0)  -->
<svg version="1.1" id="Capa_1" xmlns="http://www.w3.org/2000/svg" xmlns:xlink="http://www.w3.org/1999/xlink" x="0px" y="0px"
	 viewBox="0 0 100 100" style="enable-background:new 0 0 100 100;" xml:space="preserve">
<style type="text/css">
	.st0{fill:#9C824A;stroke:#9C824A;stroke-width:0.793;stroke-miterlimit:282;}
	.st1{fill:#023474;stroke:#023474;stroke-width:0.793;stroke-miterlimit:282;}
	.st2{fill:#FFFFFF;stroke:#FFFFFF;stroke-width:0.793;stroke-miterlimit:282;}
	.st3{fill:#EF0107;stroke:#EF0107;stroke-width:0.793;stroke-miterlimit:282;}
	.st4{fill:#DB0007;stroke:#DB0007;stroke-width:0.793;stroke-miterlimit:282;}
	.st5{fill:#FFFFFF;}
	.st6{fill:#9C824A;}
	.st7{fill:#EF0107;stroke:#EF0107;stroke-width:0.3115;stroke-miterlimit:282;}
	.st8{fill:#DB0007;stroke:#DB0007;stroke-width:0.3115;stroke-miterlimit:282;}
	.st9{fill:#DB0007;}
	.st10{fill:#FFFFFF;stroke:#FFFFFF;stroke-width:0.3115;stroke-miterlimit:282;}
	.st11{fill:#FFFFFF;stroke:#FFFFFF;stroke-width:0.554;stroke-miterlimit:3.864;}
	.st12{fill:#231F20;}
	.st13{fill:#00B6F1;}
	.st14{fill:#EF3E2E;}
	.st15{fill:#BBBDBF;}
	.st16{fill:#F0B83D;}
	.st17{fill:#001C58;}
	.st18{fill:#94BEE5;}
	.st19{fill:none;stroke:#7A003C;stroke-width:2.2437;stroke-miterlimit:6;}
	.st20{fill:#7A003C;}
	.st21{fill:#FFE600;}
	.st22{fill:#DBA111;}
	.st23{fill:#034694;}
	.st24{fill:#D1D3D4;}
	.st25{fill:#ED1C24;}
	.st26{fill:#6A7AB5;}
	.st27{fill:none;}
	.st28{fill:#274488;}
	.st29{fill:#004798;stroke:#004798;stroke-width:9.375000e-02;}
	.st30{fill:#FFFFFF;stroke:#FFFFFF;stroke-width:9.375000e-02;}
	.st31{fill:#FABC00;stroke:#FABC00;stroke-width:9.375000e-02;}
	.st32{fill:#5299C6;}
	.st33{fill:#60223B;}
	.st34{fill:#F7C240;}
	.st35{fill:#292D6B;}
	.st36{fill:#1B458F;}
	.st37{fill:#C4122E;}
	.st38{fill:#27409B;}
	.st39{clip-path:url(#SVGID_2_);fill:#FFFFFF;}
	.st40{fill:#F4F4F4;}
	.st41{fill:#D3D2D2;}
	.st42{fill:#A7A5A6;}
	.st43{fill:#091453;}
	.st44{fill:none;stroke:#FFFFFF;stroke-width:6.6301;}
	.st45{clip-path:url(#SVGID_4_);}
	.st46{fill:#724314;}
	.st47{fill:#240B08;}
	.st48{fill:#018B4B;}
	.st49{fill:#A6181D;}
	.st50{fill:#592D09;}
	.st51{fill:#FFCE65;}
	.st52{fill:#5CBFEB;}
	.st53{fill:none;stroke:#000000;stroke-width:10;}
	.st54{fill:none;stroke:#000000;}
	.st55{fill:#B2B2B2;}
	.st56{fill:none;stroke:#000000;stroke-width:0.3;}
	.st57{fill:#00A650;stroke:#000000;stroke-width:2;}
	.st58{fill:#241F20;stroke:#241F20;stroke-width:9.375000e-02;}
	.st59{fill:#FFF200;stroke:#FFF200;stroke-width:9.375000e-02;}
	.st60{fill:#A68A26;}
	.st61{fill:none;stroke:#A68A26;stroke-width:4.792100e-02;stroke-miterlimit:3.8637;}
	.st62{fill:#211E1E;}
	.st63{fill:none;stroke:#211E1E;stroke-width:4.792100e-02;stroke-miterlimit:3.8637;}
	.st64{fill:#EB172B;}
	.st65{fill:none;stroke:#EB172B;stroke-width:4.792100e-02;stroke-miterlimit:3.8637;}
	.st66{fill:#A68A26;stroke:#A68A26;stroke-width:4.792100e-02;stroke-miterlimit:3.8637;}
	.st67{fill:#D1BF7F;}
	.st68{fill:none;stroke:#D1BF7F;stroke-width:4.792100e-02;stroke-miterlimit:3.8637;}
	.st69{fill:none;stroke:#FFFFFF;stroke-width:4.792100e-02;stroke-miterlimit:3.8637;}
	.st70{fill:#EB172B;stroke:#EB172B;stroke-width:4.792100e-02;stroke-miterlimit:3.8637;}
	.st71{fill:#ED2127;}
	.st72{fill:#FBEE23;}
	.st73{stroke:#000000;}
	.st74{fill:#CF1F44;}
	.st75{fill:#1B449C;}
	.st76{fill:#E03A3E;}
	.st77{fill:#2E6ABD;stroke:#2E6ABD;stroke-width:0.617;}
	.st78{fill:#FFFFFF;stroke:#FFFFFF;stroke-width:0.6175;}
	.st79{fill:#ED1248;}
	.st80{fill:#2E6ABD;}
	.st81{fill:#FDE100;}
	.st82{fill:#CC0000;}
	.st83{fill:#211E1F;}
	.st84{fill:#ED1A3B;}
	.st85{fill:#00AEEF;}
	.st86{fill:#FFC40D;}
	.st87{fill:#22B24C;}
	.st88{fill:#FFC20E;}
	.st89{fill:#0A3F86;}
	.st90{fill:#005CA9;}
	.st91{fill:#FFE000;}
	.st92{fill:#E2001A;}
	.st93{opacity:0;}
	.st94{opacity:0;fill:#FFFFFF;}
	.st95{fill:#FFFFFF;stroke:#000000;}
	.st96{fill:#0060A9;}
	.st97{fill:#E32219;}
	.st98{fill:#FFED00;}
	.st99{fill:#1D9053;}
	.st100{fill:#52A600;}
	.st101{fill:#EE2523;}
	.st102{fill:#F7D117;}
	.st103{fill:#171796;}
	.st104{fill:#009959;}
	.st105{fill:#D42E12;}
	.st106{fill:#703824;}
	.st107{fill:#E5254E;}
	.st108{fill:#8AC3EE;}
	.st109{fill:#B19221;}
	.st110{fill:#F5C03E;}
	.st111{fill:#FF1119;}
	.st112{fill:#1E6BC0;}
	.st113{fill:#B4742A;}
	.st114{fill:#371B02;}
	.st115{fill:url(#SVGID_5_);}
	.st116{fill:url(#SVGID_6_);}
	.st117{fill:url(#SVGID_7_);}
	.st118{fill:url(#SVGID_8_);}
	.st119{fill:url(#SVGID_9_);}
	.st120{fill:url(#SVGID_10_);}
	.st121{fill:url(#SVGID_11_);}
	.st122{fill:url(#SVGID_12_);}
	.st123{fill:url(#SVGID_13_);}
	.st124{fill:url(#SVGID_14_);}
	.st125{fill:#EB2626;}
	.st126{fill:#E9C32C;}
	.st127{fill:#D9D9D9;}
	.st128{fill:#009C5E;}
	.st129{fill:#1C75BC;}
	.st130{fill:#611D5C;}
	.st131{fill:#E2B900;}
	.st132{fill:#004B95;}
	.st133{fill:#A4234B;}
	.st134{fill:#DB2F36;}
	.st135{fill:#FFDF00;}
	.st136{fill:#A38D44;}
	.st137{fill:#57175E;}
	.st138{fill:#AFDCFD;}
	.st139{fill:#0090C6;}
	.st140{fill:#DB5232;}
	.st141{fill:#23C1E0;}
	.st142{fill:#F1A92A;}
	.st143{fill:#167FB6;}
	.st144{fill:#FED75D;}
	.st145{fill:#378CBF;}
	.st146{fill:#3E9692;}
	.st147{fill:#E67F29;}
	.st148{fill:#D8B43C;}
	.st149{fill:#EF3B33;}
	.st150{fill:#24923D;}
	.st151{opacity:6.000001e-02;fill:#101010;enable-background:new    ;}
	.st152{fill:#00529F;}
	.st153{fill:#EE324E;}
	.st154{fill:#FEBE10;}
	.st155{fill:#143C8B;}
	.st156{fill:#FFE24A;}
	.st157{fill:#EC1D24;}
	.st158{fill:#E6A514;}
	.st159{fill:#FFDF1C;}
	.st160{fill:#EE3524;}
	.st161{fill:#B23428;}
	.st162{fill:#D18816;}
	.st163{fill:#0097D7;}
	.st164{fill:#ED1C23;}
	.st165{fill:#E30613;}
	.st166{fill:#FFE400;}
	.st167{fill:#C51A1B;}
	.st168{clip-path:url(#SVGID_17_);}
	.st169{clip-path:url(#SVGID_18_);fill:none;stroke:#000000;stroke-width:0.8131;stroke-miterlimit:3.864;}
	.st170{fill:#0093D5;}
	.st171{fill:#004B9D;}
	.st172{fill:#FCC24F;}
	.st173{fill:#009545;}
	.st174{fill:#0072BB;}
	.st175{fill:#C4974E;}
	.st176{fill:url(#path1292_1_);}
	.st177{fill:#004996;}
	.st178{fill:#FFE667;}
	.st179{fill:none;stroke:#005187;stroke-width:0.153;stroke-miterlimit:3.864;}
	.st180{fill:#005187;}
	.st181{clip-path:url(#SVGID_20_);}
	.st182{clip-path:url(#SVGID_22_);fill:none;stroke:#000000;stroke-width:0.296;stroke-miterlimit:3.864;}
	.st183{clip-path:url(#SVGID_24_);fill:#FFE667;}
	.st184{clip-path:url(#SVGID_26_);fill:none;stroke:#000000;stroke-width:8.300000e-02;stroke-miterlimit:3.864;}
	.st185{fill:none;stroke:#000000;stroke-width:0.153;stroke-miterlimit:3.864;}
	.st186{clip-path:url(#SVGID_28_);fill:#E70005;}
	.st187{clip-path:url(#SVGID_30_);fill:none;stroke:#E70005;stroke-width:0.296;stroke-miterlimit:3.864;}
	.st188{clip-path:url(#SVGID_32_);fill:#E70005;}
	.st189{clip-path:url(#SVGID_34_);fill:none;stroke:#E70005;stroke-width:0.296;stroke-miterlimit:3.864;}
	.st190{clip-path:url(#SVGID_36_);fill:#E70005;}
	.st191{clip-path:url(#SVGID_38_);fill:none;stroke:#E70005;stroke-width:0.296;stroke-miterlimit:3.864;}
	.st192{clip-path:url(#SVGID_40_);fill:#E70005;}
	.st193{clip-path:url(#SVGID_42_);fill:none;stroke:#E70005;stroke-width:0.296;stroke-miterlimit:3.864;}
	.st194{fill:#E70005;}
	.st195{fill:none;stroke:#000000;stroke-width:0.141;stroke-miterlimit:3.864;}
	.st196{fill:#00276D;}
	.st197{fill:#C49308;}
	.st198{fill:#179D33;}
	.st199{fill:#999999;}
	.st200{fill:#FF0000;}
	.st201{fill:#E31837;}
	.st202{fill:#06357A;}
	.st203{fill:#B4053F;}
	.st204{fill:#DCA43E;}
	.st205{fill:#005CA5;}
	.st206{fill:#FAC400;}
	.st207{fill:#004083;}
	.st208{fill:#A95932;}
	.st209{fill:none;stroke:#000000;stroke-width:1.2215;}
	.st210{fill:#E62627;}
	.st211{fill:#00458C;}
	.st212{fill:#E11B22;}
	.st213{fill:#00AB4E;}
	.st214{fill:#F47920;}
	.st215{fill:#C7C8CA;}
	.st216{fill:#E11515;}
	.st217{fill:#A4965F;}
	.st218{fill:#E51636;}
	.st219{fill:#EACC00;}
	.st220{fill:#4F846B;}
	.st221{fill:#E22227;}
	.st222{fill:#FAE700;}
	.st223{fill:url(#SVGID_43_);}
	.st224{fill:#666666;}
	.st225{fill:#FFF200;}
	.st226{fill:#00275D;}
	.st227{fill:#EF3E33;}
	.st228{fill:none;stroke:#00275D;stroke-width:2.632;}
	.st229{fill:#3F7652;}
	.st230{fill:#F1D261;}
	.st231{fill:#004D8F;}
	.st232{fill:#E7B137;stroke:#E7B137;stroke-miterlimit:10;}
	.st233{fill:#E7B137;}
	.st234{fill:#162577;}
	.st235{fill:#12692C;}
	.st236{fill:#D8141D;}
	.st237{fill:#AB830D;}
	.st238{fill:#0086CB;}
	.st239{fill:#001F42;}
	.st240{fill:#9A8F4A;}
	.st241{fill:#00559D;}
	.st242{fill:#FDDE00;}
	.st243{fill:#00924C;}
	.st244{fill:#233984;}
	.st245{fill:#FFD42E;}
	.st246{fill:#BA3733;}
	.st247{fill:#46714D;}
	.st248{fill:#221F1F;}
	.st249{fill:#00559E;}
	.st250{fill:#005C46;}
	.st251{fill:#FBC860;}
	.st252{fill:#D57C48;}
	.st253{fill:#040403;}
	.st254{fill:#4AB969;}
	.st255{fill:#8ED8F8;}
	.st256{fill:#FEC34E;}
	.st257{fill:#FFC95B;}
	.st258{fill:#00644C;}
	.st259{fill:#70B865;}
	.st260{fill:#CA6F44;}
	.st261{fill:#A8B8BE;}
	.st262{fill:#1C2C80;}
	.st263{fill:#E10321;}
	.st264{fill:none;stroke:#231F20;stroke-width:0.318;stroke-miterlimit:3.864;}
	.st265{fill:#D71920;}
	.st266{fill:#484749;}
	.st267{fill:#D9DBDC;}
	.st268{fill:#DF725A;}
	.st269{fill:#F2CABA;}
	.st270{fill:#E89C84;}
	.st271{fill:#264F99;}
	.st272{clip-path:url(#SVGID_45_);}
	.st273{fill:#161413;}
	.st274{fill:#ED1B26;}
	.st275{fill:#E60D2E;}
	.st276{fill:#FCD600;}
	.st277{fill:#004D91;}
	.st278{fill:#EAB412;}
	.st279{fill:#FDD31D;}
	.st280{fill:#EFB800;}
	.st281{fill:#FFF100;}
	.st282{fill:#ED3024;}
	.st283{fill:#00A398;}
	.st284{fill:#D00027;}
	.st285{fill:#FEF667;}
</style>
<polygon id="polygon5" class="st71" points="50,100 94.5,55.5 79.8,21.9 88.1,21.9 88.1,0 11.9,0 11.9,21.9 20.2,21.9 5.5,55.5 "/>
<path id="path7_2_" class="st72" d="M16.1,4.2c0,4.2,0,9.4,0,13.6c2.1,0,65.8,0,67.9,0c0-4.2,0-9.4,0-13.6
	C76.9,4.2,23.1,4.2,16.1,4.2L16.1,4.2z"/>
<path id="path9_3_" d="M50,21.9H24.7C20.8,30.8,12,51.1,10.5,54.6C13.9,58,45.1,89.2,50,94.1V21.9L50,21.9z"/>
<path id="path11_3_" class="st72" d="M75.3,21.9H50v72.2c4.9-4.9,36.1-36.1,39.5-39.5C88,51.1,79.2,30.8,75.3,21.9L75.3,21.9z"/>
<polygon id="polygon13" points="25.7,9.2 27.2,16.1 29.1,16.1 31.4,6.4 29.7,6.4 28.2,13.8 26.7,6.4 24.9,6.4 23.4,13.8 21.9,6.4 
	20.1,6.4 22.4,16.1 24.4,16.1 "/>
<path id="path15_2_" d="M34.7,12.6l1.1-3.3l1.1,3.3H34.7L34.7,12.6z M37.9,16.1h1.9l-3.1-8.5h-1.8l-3.1,8.5h1.9l0.6-2h3.1L37.9,16.1
	L37.9,16.1z"/>
<polygon id="polygon17" points="39.8,7.6 39.8,9.1 42.1,9.1 42.1,16.1 43.9,16.1 43.9,9.1 46.2,9.1 46.5,7.6 "/>
<polygon id="polygon19" points="48,7.6 48,16.1 49.8,16.1 49.8,12.4 52.3,12.4 52.3,10.9 49.8,10.9 49.8,9.1 52.7,9.1 53.1,7.6 "/>
<path id="path21_3_" d="M58.1,14.9c-1.7,0-2.1-1.4-2.1-3.1s0.4-3.1,2.1-3.1s2.1,1.4,2.1,3.1S59.8,14.9,58.1,14.9L58.1,14.9z
	 M58.1,7.5c-2.9,0-4.1,2-4.1,4.4c0,2.4,1.2,4.4,4.1,4.4s4.1-2,4.1-4.4C62.2,9.4,61,7.5,58.1,7.5L58.1,7.5z"/>
<path id="path23_1_" d="M67.3,11.3H66V9.1h1.3c0.5,0,1.2,0.1,1.2,1S67.8,11.3,67.3,11.3L67.3,11.3z M68.4,12.5L68.4,12.5
	c0.6-0.1,2-0.6,2-2.4c0-1.8-1.4-2.4-3-2.4h-3.2v8.5H66v-3.5h0.1c0.6,0,2.7,3.5,2.7,3.5H71L68.4,12.5L68.4,12.5z"/>
<path id="path25_1_" d="M75.9,14.6h-1.3V9.1h1.3c1.2,0,1.8,1.1,1.8,2.8C77.7,13.5,77,14.6,75.9,14.6L75.9,14.6z M75.8,7.6h-3v8.5h3
	c2.7,0,3.8-1.8,3.8-4.2S78.5,7.6,75.8,7.6L75.8,7.6z"/>
<path id="path27_2_" d="M35.7,28.6c0,0.3,0,0.4,0.1,0.6c0,0.2,0.1,0.3,0.1,0.7c0,1.3-0.3,1.9-0.5,1.9c0,0-0.1,0-0.1,0
	c0,0-0.1-0.1-0.1-0.1c-0.3-0.5-0.8-1-2.1-1c-1.2,0-2,0.8-2,2.1c0,1.8,0.5,3.3,0.8,4.5c0.2,0.7,0.4,1.3,0.4,1.7
	c0,0.3-0.2,0.6-0.2,0.7c-0.5,0-0.6-0.2-1-0.5c-0.4-0.4-1.1-1-2.4-1c-0.6,0-1.9,0.2-1.9,2.1c0,0.8,0.3,1.5,0.6,2.2
	c0.3,0.7,0.6,1.4,0.6,2.4c0,0.1,0,0.8-0.2,0.8c-0.9,0-1.2-0.5-1.7-1.5c-0.4-0.8-1-1.9-2.3-1.9c-2.1,0-2.1,3.1-2.1,4.3
	c0,6.6,6.3,9,10.5,9c0.8,0,1.3-0.1,1.7-0.1c0.5-0.1,0.9-0.1,1.8-0.1c2.6,0,4.5,0.5,5.7,1.5c-0.6-0.2-1.4-0.4-2.3-0.4
	c-2.2,0-3,0.5-3.8,1.2c-0.3,0.2-0.5,0.4-0.9,0.5l-3.1,0.9l3.2,0.7c1.3,0.3,2.1,1.3,2.8,2.4c0.8,1.2,1.8,2.5,3.5,2.5
	c0.2,0,0.3,0,0.5,0c-0.1,0.8-0.3,1.9-0.3,3c0,1.7,0.4,2.4,1,3.1l0.3,0.4c0.2,0.4,0.5,0.7,0.8,1.1c0.9,1.2,1.8,2.3,1.8,3.9
	c0,0.8,0,1.5,0.1,2.2c0,0.6,0.1,1.3,0.1,2c0,2.3,1.6,3,2.4,3.4c0.1,0,0.2,0.1,0.3,0.1c0.2,0.8,0.9,1,1.4,1.2l0.2,0.1l0.2,0.1
	c0.2,0.1,0.6,0.3,1.2,0.3c1.6,0,2.3-1.2,2.4-2.2c0,0,0.1,0,0.1,0c0.7-0.3,2.2-1,2.2-3c0-1.1-0.1-1.9-0.3-2.6c-0.1-0.5-0.2-1-0.2-1.4
	c0-1.3,0.5-2,1.3-2.9c1-1.2,2.2-2.8,2.2-6.2c0-1.2-0.1-2.1-0.2-2.8c0.2,0,0.4,0.1,0.6,0.1c2.3,0,3.1-1.4,3.6-2.5
	c1.1-2.1,3.1-2,3.1-2s-1.6-2.8-5.5-2.8c-1.2,0-2.1,0.2-2.8,0.5c0.3-0.9,0.9-1.3,1.3-1.6c1.1-0.6,2.7-0.6,4.1-0.6
	c0.9,0,1.5,0.1,2.1,0.1c0.6,0.1,1.1,0.1,1.9,0.1c5.7,0,7.2-1.8,8.8-3.7c1.4-1.6,2.3-3.2,2.3-5.7c0-1.6-0.5-3.4-1.8-3.4
	c-1.2,0-1.7,1.1-2.1,2c-0.5,1-0.8,1.5-1.3,1.5c-0.6,0-1.2-0.6-1.2-1.4c0-0.7,0.5-1.6,0.9-2.5c0.5-1,1.1-2,1.1-3.1
	c0-0.6-0.2-1.1-0.7-1.5c-0.4-0.3-0.8-0.5-1.3-0.5c-1,0-1.8,0.8-2.6,1.7c-0.5,0.5-1.2,1.2-1.6,1.3c-0.1-0.1-0.2-0.4-0.2-0.6
	c0-0.7,0.3-1.8,0.6-2.8c0.3-1.1,0.6-2.1,0.6-3c0-1.8-1-2.6-2.1-2.6c-0.9,0-1.6,0.4-2.1,0.8c-0.4,0.3-0.6,0.4-0.9,0.4c0,0,0,0,0,0
	c0,0,0-0.9,0-0.9c0-0.3,0-0.5,0-0.8c0-1.9-0.1-3.2-0.8-3.9c-0.4-0.4-0.8-0.5-1.4-0.5c-2.6,0-3.8,3.4-3.8,6.9c0,1.6,0.1,3,0.1,4.3
	c0.1,1.3,0.1,2.5,0.1,3.8c0,3.2-0.6,5.8-1.2,7.1c-0.2-1.5-0.5-3.8-2.2-3.8c-1.5,0-1.8,1.9-2.2,4c-0.4,1.9-0.8,4.6-2,4.6
	c-1,0-1.3-1.8-1.6-4.3c-0.3-2.4-0.6-5-2.7-5c-2.3,0-2.4,3-2.5,4.9c0,0.2,0,0.5-0.1,0.8c-0.6-1.1-1.2-3-1.2-4.7
	c0-2.2,0.1-3.9,0.3-5.6c0.1-1.6,0.3-3.2,0.3-5.2c0-4.4-1.1-5.6-2.1-6.7L40,27.4c-0.6-0.7-1.3-1.4-2.2-1.4
	C36.4,26,35.7,27.3,35.7,28.6L35.7,28.6z"/>
<path id="path29_2_" class="st71" d="M56.1,65.3L56,65.6c0,0-0.8-0.3-1.5-0.3c-1.3,0-1.8,0.9-1.8,0.9S53.1,66,54,66
	c1.1,0,1.9,0.6,1.9,0.8c0,0.2-0.3,0.4-0.6,0.4c0,0.5-0.7,1.3-3,1.3c0,1.1,0.7,1.8,0.7,2.1c-0.6,0-0.6,0.5-0.6,1.5
	c0,0-0.8-3.1-0.8-4.3c0-1.8,0.7-3.2,2.3-3.2C55,64.6,56.1,65.3,56.1,65.3L56.1,65.3z M60.9,59.2c0.3,0,0.5,0.1,0.5,0.1
	c-2.1,0.4-2,2.9-3.7,2.9c-0.4,0-0.6-0.2-0.6-0.2c0.2-0.5,1-0.6,1-1.2c-0.5,0-0.9,0-1.4,0.2C56.7,60.7,58.3,59.2,60.9,59.2L60.9,59.2
	z M47.1,72.2v-1.3c0-0.4-0.2-0.5-0.5-0.5l0.9-2v-0.2c-1.5,0-2.8-0.3-2.8-1.4h-0.4c-0.1,0-0.3-0.1-0.3-0.3c0-0.1,0.5-0.7,1.7-0.7
	c0.9,0,1.5,0.4,1.5,0.4S46.5,65,45.1,65c-0.8,0-1,0.1-1,0.1s0.5-0.6,1.2-0.6c2.1,0,2.7,1.3,2.7,3.7C47.9,70.6,47.1,72.2,47.1,72.2
	L47.1,72.2z M41.2,61.2c0,0.2,0.7,0.4,1.1,0.4c0,0.2-0.5,0.6-0.9,0.6c-1.7,0-0.9-2.7-4.3-3.3c0,0,0.2-0.1,0.6-0.1
	c2.7,0,3.5,2.1,5,2.1C42.2,60.9,41.2,60.9,41.2,61.2L41.2,61.2z M75.7,43.5c-1.4,0-1.3,3.4-3.3,3.4c-1.1,0-2-1-2-2.2
	c0-1.8,2-3.9,2-5.6c0-0.7-0.6-1.1-1.2-1.1c-1.4,0-2.7,2.9-4.2,2.9c-0.7,0-1-0.9-1-1.4c0-1.6,1.3-4.3,1.3-5.8c0-1.2-0.5-1.8-1.3-1.8
	c-1.3,0-1.8,1.3-3,1.3c-0.5,0-0.8-0.5-0.8-0.9c0-3.3,0.2-5.3-1.4-5.3c-2,0-2.9,3-2.9,6c0,3,0.2,5.4,0.2,8.2c0,4.3-1,7.8-1.9,8.6
	c0,0-0.2,2.5,0.8,2.5c2,0,5.2-5.5,9.2-5.5c1.8,0,1.9,1.1,1.9,1.6c0,1.4-2,2.2-2,3.1c0,0.5,0.7,0.5,1.6,0.5c2.6,0,4.5-1.6,4.5-1.6
	s-1.9,2.2-4.8,2.2c-1.3,0-2.3-0.4-2.3-1.2c0-1.2,2.4-2.2,2.4-3.4c0-0.4-0.4-0.9-1.3-0.9c-3.2,0-6.7,6.1-9.4,6.1
	c-0.6,0-1.3-0.4-1.3-1.8c0-1.2-0.1-6.1-1.6-6.1c-1.8,0-0.9,8.6-4.2,8.6c-3.5,0-1.4-9.3-4.3-9.3c-1.7,0-1.5,2.5-1.7,4.8
	c-0.2,1.9-0.8,3.5-1.9,3.5c-1.5,0-2.6-0.7-3.8-1.5c-0.8-0.5-1.7-1-2.4-1.5c-1.2-0.9-1.8-1.7-3-1.7c-0.6,0-1.3,0.3-1.3,1
	c0,1.2,1.3,1.7,1.3,2.8c0,0.6-0.9,1.1-1.9,1.1c-3,0-4.9-2-4.9-2.8c0,0,1.5,2.1,5,2.1c0.8,0,1-0.2,1-0.5c0-0.7-1-1.3-1-2.6
	c0-0.8,0.7-1.5,1.6-1.5c1.2,0,2,0.9,3.3,1.8c1.8,1.3,4.1,2.8,5.9,2.8c0.7,0,1.1-0.3,1.1-1c0-0.7-2-2.5-2-6.4c0-4.4,0.5-6.8,0.5-10.8
	c0-4.2-1-5.2-1.9-6.2c-0.7-0.7-1.1-1.1-1.6-1.1c-1,0-1.3,1-1.3,1.8c0,0.4,0.1,0.5,0.1,1.3c0,1.5-0.4,2.7-1.3,2.7
	c-1.1,0-0.6-1.2-2.3-1.2c-0.8,0-1.2,0.6-1.2,1.3c0,2.9,1.2,4.9,1.2,6.2c0,0.7-0.4,1.5-1,1.5c-1.7,0-1.4-1.5-3.4-1.5
	c-0.8,0-1.1,0.5-1.1,1.2c0,1.4,1.1,2.5,1.1,4.6c0,0.9-0.3,1.6-1.1,1.6c-2.6,0-2.3-3.4-4-3.4c-0.9,0-1.3,1.1-1.3,3.5
	c0,6.2,6,8.2,9.7,8.2c1.5,0,1.7-0.3,3.5-0.3c8.5,0,7.8,5.2,7.8,5.2s-1.1-2.4-4.4-2.4c-3.3,0-2.9,1.2-4.5,1.7
	c3.3,0.7,3.5,4.9,6.2,4.9c1.2,0,1.8-0.9,1.8-0.9s-0.7,1.9-0.7,4.7c0,1.9,0.6,2.2,1.1,3c1.1,1.6,2.7,3.1,2.7,5.4
	c0.4,0,0.7-1.7,0.9-1.7c0.1,0,0.3,0.3,0.3,0.6c0,0.9-1,2.4-1,5.3c0,1.7,1.1,2.2,1.8,2.6c0.2,0,1.3-2.3,1.3-2.3
	c-0.7,1.8-0.5,2.8-0.5,2.9c0,0.5,0.5,0.6,1.1,0.8c0.3,0.1,0.5,0.3,1.1,0.3c1.4,0,1.6-1.2,1.6-1.7c0-0.5-0.5-1.4-0.5-2
	c0,0,0-0.3,0.1-0.3c0.2,0,0.9,1.9,0.9,1.9c0.6-0.3,1.7-0.7,1.7-2.3c0-1.8-1.1-4.3-1.1-5.4c0-0.3,0.1-0.4,0.2-0.4c0.2,0,0.6,1,0.6,1
	c0.5-2.8,3.4-3.1,3.4-8.2c0-3.3-0.5-4.3-0.5-4.3s0.9,0.7,1.8,0.7c3.2,0,2.4-3.2,4.9-4.2c0-0.3-1.3-1.4-3.7-1.4
	c-2.9,0-3.9,1.6-3.9,1.6c0-4.6,3.2-4.9,6.5-4.9c1.7,0,2.5,0.2,4,0.2c5.4,0,6.7-1.6,8.2-3.4c1.4-1.6,2.1-3.1,2.1-5.1
	C76.7,45,76.4,43.5,75.7,43.5L75.7,43.5z"/>
<path id="path31_2_" class="st71" d="M52.6,67.5l-0.1,0.3c0,0,0.3,0.2,0.8,0.2c1.1,0,1.6-0.9,1.5-1c-0.1-0.1-0.6,0.7-1.4,0.7
	C52.8,67.6,52.6,67.5,52.6,67.5L52.6,67.5z"/>
<path id="path33_2_" class="st71" d="M53.8,67.2c0,0.1-0.1,0.2-0.2,0.2c-0.1,0-0.2-0.1-0.2-0.2c0-0.1,0.1-0.2,0.2-0.2
	C53.7,67,53.8,67.1,53.8,67.2L53.8,67.2z"/>
<path id="path35_2_" class="st71" d="M45.4,66.8c0.1,0.1,0.3,0.7,0.9,0.7c0.4,0,0.5-0.2,0.6-0.2c0.1-0.1,0.3,0.1,0.2,0.2
	c-0.1,0.1-0.3,0.3-0.8,0.3c-0.7,0-1.1-0.6-1.2-0.7C45,66.7,45.1,66.6,45.4,66.8L45.4,66.8z"/>
<path id="path37_2_" class="st71" d="M46.4,66.9c0,0.1-0.1,0.1-0.2,0.1c-0.1,0-0.2-0.1-0.2-0.1c0-0.1,0.1-0.1,0.2-0.1
	C46.3,66.8,46.4,66.9,46.4,66.9L46.4,66.9z"/>
</svg>
