<?xml version="1.0" encoding="utf-8"?>
<!-- Generator: Adobe Illustrator 19.2.1, SVG Export Plug-In . SVG Version: 6.00 Build 0)  -->
<svg version="1.1" id="Capa_1" xmlns="http://www.w3.org/2000/svg" xmlns:xlink="http://www.w3.org/1999/xlink" x="0px" y="0px"
	 viewBox="0 0 100 100" style="enable-background:new 0 0 100 100;" xml:space="preserve">
<style type="text/css">
	.st0{fill:url(#path34_4_);}
	.st1{fill:url(#path890_1_);}
	.st2{fill:#FFE500;stroke:#000000;stroke-width:2.098;stroke-miterlimit:3.863;}
	.st3{fill:#DA020E;}
	.st4{fill:#FFE500;}
	.st5{clip-path:url(#SVGID_2_);}
	.st6{fill:none;stroke:#B54005;stroke-width:10;stroke-miterlimit:3.863;}
	.st7{fill:url(#path7506_1_);}
	.st8{fill:url(#path8794_1_);}
	.st9{fill:url(#path15846_1_);}
	.st10{fill:url(#path16274_1_);}
	.st11{fill:url(#path39821_1_);}
	.st12{fill:url(#path39847_1_);}
	.st13{fill:url(#path39878_1_);}
	.st14{fill:url(#path39888_1_);}
	.st15{fill:url(#path41035_1_);}
	.st16{fill:url(#path9646-8_1_);}
	.st17{fill:url(#path41092_1_);}
	.st18{fill:url(#path41094_1_);}
	.st19{fill:none;stroke:#000000;stroke-width:2.098;stroke-miterlimit:3.863;}
	.st20{fill:url(#path41152_1_);}
	.st21{fill:url(#path39854_1_);}
	.st22{fill:url(#path39874_1_);}
	.st23{fill:#9C824A;stroke:#9C824A;stroke-width:0.793;stroke-miterlimit:282;}
	.st24{fill:#023474;stroke:#023474;stroke-width:0.793;stroke-miterlimit:282;}
	.st25{fill:#FFFFFF;stroke:#FFFFFF;stroke-width:0.793;stroke-miterlimit:282;}
	.st26{fill:#EF0107;stroke:#EF0107;stroke-width:0.793;stroke-miterlimit:282;}
	.st27{fill:#DB0007;stroke:#DB0007;stroke-width:0.793;stroke-miterlimit:282;}
	.st28{fill:#FFFFFF;}
	.st29{fill:#9C824A;}
	.st30{fill:#EF0107;stroke:#EF0107;stroke-width:0.3115;stroke-miterlimit:282;}
	.st31{fill:#DB0007;stroke:#DB0007;stroke-width:0.3115;stroke-miterlimit:282;}
	.st32{fill:#DB0007;}
	.st33{fill:#FFFFFF;stroke:#FFFFFF;stroke-width:0.3115;stroke-miterlimit:282;}
	.st34{fill:#FFFFFF;stroke:#FFFFFF;stroke-width:0.554;stroke-miterlimit:3.864;}
	.st35{fill:#231F20;}
	.st36{fill:#00B6F1;stroke:#00B6F1;stroke-width:1.700000e-02;stroke-miterlimit:3.864;}
	.st37{fill:#EF3E2E;}
	.st38{fill:#BBBDBF;}
	.st39{fill:#F0B83D;}
	.st40{fill:#00B6F1;stroke:#FFFFFF;stroke-width:1.700000e-02;stroke-miterlimit:3.864;}
	.st41{fill:#001C58;}
	.st42{fill:#94BEE5;}
	.st43{fill:none;stroke:#7A003C;stroke-width:2.2437;stroke-miterlimit:6;}
	.st44{fill:#7A003C;}
	.st45{fill:#FFE600;}
	.st46{fill:#DBA111;}
	.st47{fill:#034694;}
	.st48{fill:#D1D3D4;}
	.st49{fill:#ED1C24;}
	.st50{fill:#6A7AB5;}
	.st51{fill:none;}
	.st52{fill:#274488;}
	.st53{fill:#004798;stroke:#004798;stroke-width:9.375000e-02;}
	.st54{fill:#FFFFFF;stroke:#FFFFFF;stroke-width:9.375000e-02;}
	.st55{fill:#FABC00;stroke:#FABC00;stroke-width:9.375000e-02;}
	.st56{fill:none;stroke:#FFFFFF;stroke-width:7.865;stroke-miterlimit:3.864;}
	.st57{fill:none;stroke:#FFFFFF;stroke-width:7.865;stroke-miterlimit:12;}
	.st58{fill:none;stroke:#FFFFFF;stroke-width:7.865;stroke-miterlimit:22;}
	.st59{fill:none;stroke:#FFFFFF;stroke-width:7.865;stroke-miterlimit:6;}
	.st60{fill:#00A398;}
	.st61{fill:#D00027;}
	.st62{fill:none;stroke:#FFFFFF;stroke-width:17.3907;stroke-miterlimit:3.864;}
	.st63{fill:none;stroke:#FFFFFF;stroke-width:13.1107;stroke-miterlimit:3.864;}
	.st64{fill:#FEF667;}
	.st65{fill:#D00027;stroke:#D00027;}
	.st66{fill:#5299C6;}
	.st67{fill:#60223B;}
	.st68{fill:#F7C240;}
	.st69{fill:#292D6B;}
	.st70{fill:#1B458F;}
	.st71{fill:#C4122E;}
	.st72{fill:#27409B;}
	.st73{clip-path:url(#SVGID_4_);}
	.st74{fill:#F4F4F4;}
	.st75{fill:#D3D2D2;}
	.st76{fill:#A7A5A6;}
	.st77{fill:#091453;}
	.st78{fill:none;stroke:#FFFFFF;stroke-width:6.6301;}
	.st79{clip-path:url(#SVGID_6_);}
	.st80{fill:#724314;}
	.st81{fill:#240B08;}
	.st82{fill:#018B4B;}
	.st83{fill:#A6181D;}
	.st84{fill:#592D09;}
	.st85{fill:#FFCE65;}
	.st86{fill:#5CBFEB;}
	.st87{fill:none;stroke:#000000;stroke-width:10;}
	.st88{fill:none;stroke:#000000;}
	.st89{fill:#B2B2B2;}
	.st90{fill:none;stroke:#000000;stroke-width:0.3;}
	.st91{fill:#00A650;stroke:#000000;stroke-width:2;}
	.st92{fill:#241F20;stroke:#241F20;stroke-width:9.375000e-02;}
	.st93{fill:#FFF200;stroke:#FFF200;stroke-width:9.375000e-02;}
	.st94{fill:#A68A26;}
	.st95{fill:none;stroke:#A68A26;stroke-width:4.792100e-02;stroke-miterlimit:3.8637;}
	.st96{fill:#211E1E;}
	.st97{fill:none;stroke:#211E1E;stroke-width:4.792100e-02;stroke-miterlimit:3.8637;}
	.st98{fill:#EB172B;}
	.st99{fill:none;stroke:#EB172B;stroke-width:4.792100e-02;stroke-miterlimit:3.8637;}
	.st100{fill:#A68A26;stroke:#A68A26;stroke-width:4.792100e-02;stroke-miterlimit:3.8637;}
	.st101{fill:#D1BF7F;}
	.st102{fill:none;stroke:#D1BF7F;stroke-width:4.792100e-02;stroke-miterlimit:3.8637;}
	.st103{fill:none;stroke:#FFFFFF;stroke-width:4.792100e-02;stroke-miterlimit:3.8637;}
	.st104{fill:#EB172B;stroke:#EB172B;stroke-width:4.792100e-02;stroke-miterlimit:3.8637;}
	.st105{fill:#ED2127;}
	.st106{fill:#FBEE23;}
	.st107{stroke:#000000;}
	.st108{fill:#CF1F44;}
	.st109{fill:#1B449C;}
	.st110{fill:#E03A3E;}
	.st111{fill:#E03A3E;stroke:#E03A3E;stroke-width:0.6565;}
	.st112{fill:none;stroke:#1B449C;stroke-width:0.7493;}
	.st113{fill:none;stroke:#1B449C;stroke-width:0.7567;}
	.st114{fill:#1B449C;stroke:#1B449C;stroke-width:0.6274;}
	.st115{fill:#1B449C;stroke:#1B449C;stroke-width:0.6755;}
	.st116{fill:#2E6ABD;stroke:#2E6ABD;stroke-width:0.617;}
	.st117{fill:#FFFFFF;stroke:#FFFFFF;stroke-width:0.6175;}
	.st118{fill:#ED1248;}
	.st119{fill:#2E6ABD;}
	.st120{fill:#FDE100;}
	.st121{fill:#CC0000;}
	.st122{fill:#211E1F;}
	.st123{fill:#ED1A3B;}
	.st124{fill:#00AEEF;}
	.st125{fill:#FFC40D;}
	.st126{fill:#22B24C;}
	.st127{fill:#FFC20E;}
	.st128{fill:#0A3F86;}
	.st129{fill:#005CA9;}
	.st130{fill:#FFE000;}
	.st131{fill:#E2001A;}
	.st132{opacity:0;}
	.st133{opacity:0;fill:#FFFFFF;}
	.st134{fill:#FFFFFF;stroke:#000000;}
	.st135{fill:#0060A9;}
	.st136{fill:#E32219;}
	.st137{fill:#FFED00;}
	.st138{fill:#1D9053;}
	.st139{fill:#52A600;}
	.st140{fill:#EE2523;}
	.st141{fill:#F7D117;}
	.st142{fill:#171796;}
	.st143{fill:#009959;}
	.st144{fill:#D42E12;}
	.st145{fill:#703824;}
	.st146{fill:#E5254E;}
	.st147{fill:#8AC3EE;}
	.st148{fill:#B19221;}
	.st149{fill:#F5C03E;}
	.st150{fill:#FF1119;}
	.st151{fill:#1E6BC0;}
	.st152{fill:#B4742A;}
	.st153{fill:#371B02;}
	.st154{fill:url(#SVGID_7_);}
	.st155{fill:url(#SVGID_8_);}
	.st156{fill:url(#SVGID_9_);}
	.st157{fill:url(#SVGID_10_);}
	.st158{fill:url(#SVGID_11_);}
	.st159{fill:url(#SVGID_12_);}
	.st160{fill:url(#SVGID_13_);}
	.st161{fill:url(#SVGID_14_);}
	.st162{fill:url(#SVGID_15_);}
	.st163{fill:url(#SVGID_16_);}
	.st164{fill:#EB2626;}
	.st165{fill:#E9C32C;}
	.st166{fill:#D9D9D9;}
	.st167{fill:#009C5E;}
	.st168{fill:#1C75BC;}
	.st169{fill:#611D5C;}
	.st170{fill:#E2B900;}
	.st171{fill:#004B95;}
	.st172{fill:#A4234B;}
	.st173{fill:#DB2F36;}
	.st174{fill:#FFDF00;}
	.st175{fill:#A38D44;}
	.st176{fill:#57175E;}
	.st177{fill:#AFDCFD;}
	.st178{fill:#0090C6;}
	.st179{fill:#DB5232;}
	.st180{fill:#23C1E0;}
	.st181{fill:#F1A92A;}
	.st182{fill:#167FB6;}
	.st183{fill:#FED75D;}
	.st184{fill:#378CBF;}
	.st185{fill:#3E9692;}
	.st186{fill:#E67F29;}
	.st187{fill:#D8B43C;}
	.st188{fill:#EF3B33;}
	.st189{fill:#24923D;}
	.st190{opacity:6.000001e-02;fill:#101010;enable-background:new    ;}
	.st191{fill:#00529F;}
	.st192{fill:#EE324E;}
	.st193{fill:#FEBE10;}
	.st194{fill:#143C8B;}
	.st195{fill:#FFE24A;}
	.st196{fill:#EC1D24;}
	.st197{fill:#E6A514;}
	.st198{fill:#FFDF1C;}
	.st199{fill:#EE3524;}
	.st200{fill:#B23428;}
	.st201{fill:#D18816;}
	.st202{fill:#0097D7;}
	.st203{fill:#ED1C23;}
	.st204{fill:#E30613;}
	.st205{fill:#FFE400;}
	.st206{fill:#C51A1B;}
	.st207{clip-path:url(#SVGID_19_);}
	.st208{clip-path:url(#SVGID_20_);fill:none;stroke:#000000;stroke-width:0.8131;stroke-miterlimit:3.864;}
	.st209{fill:#0093D5;}
	.st210{fill:#004B9D;}
	.st211{fill:#FCC24F;}
	.st212{fill:#009545;}
	.st213{fill:#0072BB;}
	.st214{fill:#C4974E;}
	.st215{fill:url(#path1292_1_);}
	.st216{fill:#004996;}
	.st217{fill:#FFE667;}
	.st218{fill:none;stroke:#005187;stroke-width:0.153;stroke-miterlimit:3.864;}
	.st219{fill:#005187;}
	.st220{clip-path:url(#SVGID_22_);}
	.st221{clip-path:url(#SVGID_24_);fill:none;stroke:#000000;stroke-width:0.296;stroke-miterlimit:3.864;}
	.st222{clip-path:url(#SVGID_26_);fill:#FFE667;}
	.st223{clip-path:url(#SVGID_28_);fill:none;stroke:#000000;stroke-width:8.300000e-02;stroke-miterlimit:3.864;}
	.st224{fill:none;stroke:#000000;stroke-width:0.153;stroke-miterlimit:3.864;}
	.st225{clip-path:url(#SVGID_30_);fill:#E70005;}
	.st226{clip-path:url(#SVGID_32_);fill:none;stroke:#E70005;stroke-width:0.296;stroke-miterlimit:3.864;}
	.st227{clip-path:url(#SVGID_34_);fill:#E70005;}
	.st228{clip-path:url(#SVGID_36_);fill:none;stroke:#E70005;stroke-width:0.296;stroke-miterlimit:3.864;}
	.st229{clip-path:url(#SVGID_38_);fill:#E70005;}
	.st230{clip-path:url(#SVGID_40_);fill:none;stroke:#E70005;stroke-width:0.296;stroke-miterlimit:3.864;}
	.st231{clip-path:url(#SVGID_42_);fill:#E70005;}
	.st232{clip-path:url(#SVGID_44_);fill:none;stroke:#E70005;stroke-width:0.296;stroke-miterlimit:3.864;}
	.st233{fill:#E70005;}
	.st234{fill:none;stroke:#000000;stroke-width:0.141;stroke-miterlimit:3.864;}
	.st235{fill:#00276D;}
	.st236{fill:#C49308;}
	.st237{fill:#179D33;}
	.st238{fill:#999999;}
	.st239{fill:#FF0000;}
	.st240{fill:#E31837;}
	.st241{fill:#06357A;}
	.st242{fill:#B4053F;}
	.st243{fill:#DCA43E;}
	.st244{fill:#005CA5;}
	.st245{fill:#FAC400;}
	.st246{fill:#004083;}
	.st247{fill:#A95932;}
	.st248{fill:none;stroke:#000000;stroke-width:1.2215;}
	.st249{fill:#E62627;}
	.st250{fill:#00458C;}
	.st251{fill:#E11B22;}
	.st252{fill:#00AB4E;}
	.st253{fill:#F47920;}
	.st254{fill:#C7C8CA;}
	.st255{fill:#E11515;}
	.st256{fill:#A4965F;}
	.st257{fill:#E51636;}
	.st258{fill:#EACC00;}
	.st259{fill:#4F846B;}
	.st260{fill:#E22227;}
	.st261{fill:#FAE700;}
	.st262{fill:url(#SVGID_45_);}
	.st263{fill:#666666;}
	.st264{fill:#FFF200;}
	.st265{fill:#00275D;}
	.st266{fill:#EF3E33;}
	.st267{fill:none;stroke:#00275D;stroke-width:2.632;}
	.st268{fill:#3F7652;}
	.st269{fill:#F1D261;}
	.st270{fill:#004D8F;}
	.st271{fill:#E7B137;stroke:#E7B137;stroke-miterlimit:10;}
	.st272{fill:#E7B137;}
	.st273{fill:#162577;}
	.st274{fill:#12692C;}
	.st275{fill:#D8141D;}
	.st276{fill:#AB830D;}
	.st277{fill:#0086CB;}
	.st278{fill:#001F42;}
	.st279{fill:#9A8F4A;}
	.st280{fill:#00559D;}
	.st281{fill:#FDDE00;}
	.st282{fill:#00924C;}
	.st283{fill:#233984;}
	.st284{fill:#FFD42E;}
	.st285{fill:#BA3733;}
	.st286{fill:#46714D;}
	.st287{fill:#221F1F;}
	.st288{fill:#00559E;}
	.st289{fill:#005C46;}
	.st290{fill:#FBC860;}
	.st291{fill:#D57C48;}
	.st292{fill:#040403;}
	.st293{fill:#4AB969;}
	.st294{fill:#8ED8F8;}
	.st295{fill:#FEC34E;}
	.st296{fill:#FFC95B;}
	.st297{fill:#00644C;}
	.st298{fill:#70B865;}
	.st299{fill:#CA6F44;}
	.st300{fill:#A8B8BE;}
	.st301{fill:#1C2C80;}
	.st302{fill:#E10321;}
	.st303{fill:none;stroke:#231F20;stroke-width:0.318;stroke-miterlimit:3.864;}
	.st304{fill:#D71920;}
	.st305{fill:#484749;}
	.st306{fill:#D9DBDC;}
	.st307{fill:#DF725A;}
	.st308{fill:#F2CABA;}
	.st309{fill:#E89C84;}
	.st310{fill:#264F99;}
	.st311{clip-path:url(#SVGID_47_);}
	.st312{fill:#161413;}
	.st313{fill:#ED1B26;}
	.st314{fill:#E60D2E;}
	.st315{fill:#FCD600;}
	.st316{fill:#004D91;}
	.st317{fill:#EAB412;}
	.st318{fill:#FDD31D;}
	.st319{fill:#EFB800;}
</style>
<g id="layer1_2_" transform="matrix(0.26115791,0,0,0.26115791,-89.377093,-127.09307)">
	<path id="path2724" class="st42" d="M540.9,857c4.2-3.2,7.2-4.9,14.2-7.4c37.3-13.6,109.7-21.8,109.7-71.8V492.4H402.6v285.4
		c0,49.1,70.6,58.8,108.8,71.4c0,0,8.5,3.4,12,5.8c5,3.4,10,8.8,10,8.8S538.1,859.2,540.9,857"/>
	<path id="path2726" class="st43" d="M540.9,857c4.2-3.2,7.2-4.9,14.2-7.4c37.3-13.6,109.7-21.8,109.7-71.8V492.4H402.6v285.4
		c0,49.1,70.6,58.8,108.8,71.4c0,0,8.5,3.4,12,5.8c5,3.4,10,8.8,10,8.8S538.1,859.2,540.9,857z"/>
	<path id="path2728" class="st28" d="M462.1,582.5l4.2,8.7l9.5,1.4l-6.9,6.8l1.6,9.6l-8.5-4.5l-8.5,4.5l1.6-9.6l-6.8-6.8l9.5-1.4
		L462.1,582.5"/>
	<path id="path2730" class="st44" d="M453.6,510.1c-0.2,0-0.6,0.3-1.1,0.7l-3.7,2.8c-0.8,0.6-1.4,1.7-1.9,3.3
		c-0.5,1.6-0.9,3.2-1.2,4.5l-9.6,28.5c-1.3,3.8-2.5,6.5-3.6,8.1c-1.1,1.6-2.6,2.3-4.7,2.3c-0.7,0-1.2,0.4-1.2,1.1v1.2
		c0,0.4,0.3,0.7,0.8,0.7c0.3,0,1.5-0.2,3.4-0.3c1.9-0.1,3.4-0.1,4.3-0.1c0.9,0,2.2,0,4,0.1c1.8,0.1,3,0.3,3.6,0.3
		c0.9,0,1.4-0.3,1.4-0.7v-1.4c0-0.6-0.3-1-1-1c-3.4,0-5.1-0.9-5.1-2.9c0-0.8,0.3-2,0.8-3.6l3.4-10.3h15l3.6,8.4c0.8,2,1.3,3.4,1.5,4
		c0.2,0.6,0.4,1.1,0.4,1.7c0,1.8-1.5,2.8-4.4,2.8c-0.8,0-1.2,0.4-1.2,1.1v1.2c0,0.4,0.3,0.7,0.7,0.7c0.6,0,2.2-0.2,5.1-0.3
		c2.9-0.1,4.9-0.1,5.9-0.1c1.2,0,2.9,0,5,0.1c2.1,0.1,3.6,0.3,4.4,0.3c0.5,0,0.8-0.3,0.8-1v-1.2c0-0.4-0.3-0.7-1-0.8
		c-1.8-0.3-3.1-0.6-3.9-1.4c-0.7-0.7-1.6-2.3-2.5-4.5l-17.3-43.2C454,510.5,453.8,510.1,453.6,510.1L453.6,510.1z M619.8,511.2
		c-8.1,0-15.1,2.4-20.6,7.4c-5.6,5-8.3,11.1-8.3,18.2c0,8.9,2.8,15.7,8.4,20.5c5.6,4.8,12.4,7.2,20.6,7.2c6.4,0,12-1.2,16.9-3.7
		l2.2-9.1c0.2-0.6,0.3-1,0.3-1.1c0-0.3-0.4-0.6-1.1-0.8c-0.8-0.3-1.3-0.4-1.7-0.4c-0.2,0-0.5,0.5-1,1.5c-1.6,3.5-3.4,6.1-5.4,7.7
		c-2,1.6-4.9,2.3-9.1,2.3c-5.7,0-10.4-2.3-14.2-6.7c-3.8-4.5-5.6-10-5.6-16.7c0-6.6,1.7-12,5.2-16.2c3.5-4.3,8-6.5,13.6-6.5
		c3.8,0,6.8,1,9.2,3.2c2.4,2.1,4.1,4.5,5,7.3c0.1,0.4,0.2,0.8,0.3,1c0.1,0.2,0.2,0.1,0.4,0.1c0.4,0,1,0,1.7-0.1
		c0.7-0.1,1.1-0.4,1.1-0.6c0-0.3-0.2-1.9-0.6-4.7c-0.4-2.8-0.7-4.3-0.8-4.7c-0.4-0.8-2.2-1.9-5.8-3.2
		C627.1,511.9,623.5,511.2,619.8,511.2L619.8,511.2z M478.6,512.4c-0.6,0-0.8,0.3-0.8,0.8v1.2c0,0.5,0.3,0.8,1.1,0.8
		c2,0,3.5,0.3,4.5,1.1c1.1,0.8,2.1,2.5,3,4.7l17.1,42.3c0.2,0.5,0.3,0.8,0.6,1c0.2,0.1,0.7,0.1,1.2,0.1h1.2c0.4,0,0.7,0,1-0.1
		c0.2-0.1,0.4-0.4,0.6-0.8l16.9-42c1-2.5,1.7-4.3,2.3-5.1c0.6-0.8,1.8-1.1,3.4-1.1c0.6,0,0.8-0.3,0.8-1v-1.1c0-0.6-0.3-0.8-0.8-0.8
		c-0.5,0-1.4,0-2.9,0.1c-1.5,0.1-2.6,0.1-3.3,0.1c-1,0-2.7,0-5-0.1c-2.3-0.1-3.5-0.1-4-0.1c-0.6,0-0.8,0.3-0.8,0.8v1.1
		c0,0.6,0.3,1,1.1,1c2,0,3.4,0.1,4.1,0.4c0.7,0.3,1.1,1,1.1,2.1c0,1.1-0.2,2.4-0.7,3.7L509,551.4l-12.5-30.7
		c-0.6-1.6-0.8-2.8-0.8-3.4c0-0.7,0.4-1.2,1.1-1.5c0.7-0.3,2.1-0.4,3.9-0.4c0.7,0,1-0.3,1-0.8v-1.2c0-0.6-0.3-0.8-1.1-0.8
		c-0.6,0-2.5,0-5.6,0.1c-3.1,0.1-5.4,0.1-6.6,0.1c-1.4,0-3.2,0-5.5-0.1C480.4,512.5,479.1,512.4,478.6,512.4z M543.5,512.4
		c-0.8,0-1.4,0.2-1.4,0.7v1.4c0,0.5,0.6,0.8,1.5,0.8c2.1,0,3.4,0.5,4.1,1.5c0.7,1.1,1.1,3,1.1,5.8v31.5c0,2.1-0.5,3.7-1.4,4.7
		c-0.9,1-2.3,1.5-4.1,1.5c-0.8,0-1.2,0.3-1.2,0.8v1.4c0,0.5,0.4,0.8,1.2,0.8c0.5,0,2.3-0.2,5.4-0.3c3.1-0.1,5-0.1,5.9-0.1
		c1,0,2.7,0,5.1,0.1c2.4,0.1,3.9,0.3,4.3,0.3c0.8,0,1.1-0.3,1.1-0.7V561c0-0.4-0.3-0.7-1.1-0.7c-1.9,0-3.4-0.5-4.3-1.4
		c-0.9-0.9-1.4-2.5-1.4-4.8v-16.7h9.9c2.1,0,3.7,0.5,4.7,1.4c1,0.9,1.9,2.4,2.3,4.5c0.1,0.6,0.4,0.8,0.8,0.8h1.5
		c0.4,0,0.4-0.2,0.4-1c0-0.5,0-1.6-0.1-3.2c-0.1-1.6-0.1-2.6-0.1-3.3c0-1,0-2.4,0.1-4.1c0.1-1.7,0.1-2.7,0.1-3.2
		c0-0.5-0.2-0.8-0.7-0.8H576c-0.4,0-0.6,0.2-0.7,0.7c-0.4,2-1,3.4-1.8,4c-0.8,0.6-2.2,1-4.4,1h-10.7v-14.2c0-1.8,0.6-3,1.5-3.6
		c1-0.6,2.8-0.8,5.5-0.8h2.2c3.8,0,6.4,0.4,7.7,1.1c1.3,0.8,2.3,2,3,4l0.8,2.1c0.2,0.7,0.5,1.1,1,1.1h1.1c0.5,0,0.7-0.2,0.7-0.8v-10
		c0-0.5-0.2-0.7-0.7-0.7c-0.7,0-4.5,0-11.3,0.1c-6.7,0.1-10.9,0.1-12.7,0.1c-2.1,0-4.8,0-8.1-0.1C545.8,512.5,544,512.4,543.5,512.4
		L543.5,512.4z M448.8,523.6l6.7,16.4h-12L448.8,523.6z M483.2,804.5c-2.5-0.1-5,0.3-5,0.3v18.4h2.6v-9.6c0,0,7.4-1.7,7.4-6.1
		C488.3,805.4,485.8,804.7,483.2,804.5z M496.7,804.5c-2.5-0.1-5.1,0.3-5.1,0.3v18.4h2.8v-9.6c0,0,1.4-0.4,2.9-1.1
		c0.2,0.3,1.1,1.8,2.3,4.8c1.4,3.4,1.8,5.9,1.8,5.9h2.6c0,0-0.6-3.3-1.8-6.3c-1-2.5-2.5-4.7-2.9-5.4c1.4-0.9,2.5-2.3,2.5-4
		C501.8,805.4,499.3,804.7,496.7,804.5z M525.6,804.5c-2.5-0.1-5.1,0.3-5.1,0.3v18.4h2.8v-9.6c0,0,7.4-1.7,7.4-6.1
		C530.7,805.4,528.2,804.7,525.6,804.5z M553.2,804.5c-2.5-0.1-5.1,0.3-5.1,0.3v18.4h2.6v-9.6c0,0,1.4-0.4,2.9-1.1
		c0.2,0.3,1.2,1.8,2.5,4.8c1.4,3.4,1.7,5.9,1.7,5.9h2.6c0,0-0.6-3.3-1.8-6.3c-1-2.6-2.4-4.9-2.8-5.5c1.3-0.9,2.3-2.2,2.3-3.9
		C558.1,805.4,555.7,804.7,553.2,804.5z M577.9,804.5c-1.1,0.1-1.9,0.3-1.9,0.3v18.4h2.8c0,0,8.9,0.2,8.9-11.3
		C587.7,804.9,581.2,804.3,577.9,804.5z M508,804.8v2.1v3.7v2.1v8.4v2.2h8.1V821h-5.5v-8.4h3.7v-2.1h-3.7v-3.7h5.5v-2.1H508z
		 M536,804.8l-5.8,18.4h2.9l3-10.6h3.6l3,10.6h2.8l-5.6-18.4h-1.5H536z M563.5,804.8v2.1v3.7v2.1v10.6h8.1V821h-5.4v-8.4h3.6v-2.1
		h-3.6v-3.7h5.4v-2.1H563.5z M537.9,806.3l1.2,4.3h-2.5L537.9,806.3z M483.2,806.6c1.2,0,2.3,0.3,2.3,1c0,2.5-4.7,3.4-4.7,3.4v-4.3
		C480.9,806.7,482.1,806.6,483.2,806.6L483.2,806.6z M496.7,806.6c1.2,0,2.2,0.3,2.2,1c0,2.5-4.5,3.4-4.5,3.4v-4.3
		C494.4,806.7,495.6,806.6,496.7,806.6L496.7,806.6z M525.6,806.6c1.2,0,2.3,0.3,2.3,1c0,2.5-4.7,3.4-4.7,3.4v-4.3
		C523.3,806.7,524.5,806.6,525.6,806.6L525.6,806.6z M553,806.6c1.2,0,2.3,0.3,2.3,1c0,2.5-4.7,3.4-4.7,3.4v-4.3
		C550.7,806.7,551.9,806.6,553,806.6L553,806.6z M579.5,806.9c1.9-0.1,5.5,0.3,5.5,5.2c0,8.3-4.6,9.2-6.2,9.4V807
		C578.9,807,579.1,806.9,579.5,806.9L579.5,806.9z"/>
	<path id="path2776" class="st45" d="M541.3,590.1c-1.5,2.4-5.5,3.8-5.5,3.8s-0.9,0-0.2-1.7c0.6-1.5,0.9-2.2,0.9-2.2l-3.2,1.2
		c0,0,1.1-1,1.6-2.6c0.4-1.6,0.3-2.7,0.3-2.7s-0.4,1.4-2,2c-1.2,0.5-3.8,0.8-3.8,0.8s3.1-6.3,7.8-5.9
		C541.9,583.3,542.8,587.8,541.3,590.1L541.3,590.1z M519.9,597.1c-0.6,1.4-2,2.8-3.5,3.2c-1.3,0.3-2.5,0.3-3.4,0
		c-2.4-0.8-2.8-2.5-2.8-2.5l2.5-1.2c0.4,1.3,1.3,2,2.4,2c1.1,0,1.8-0.5,2.1-1.4c0.2-0.5,0.1-1.3,0.1-1.3s-0.3,0.7-1,0.7
		c-0.5,0-1.2-0.3-0.9-1.4l5.7-2.7C521,592.5,520.8,594.8,519.9,597.1L519.9,597.1z M633.4,616.2c0,0-5.2,7.2-10.9,8.4
		c-4,0.8-6.7,0.4-6.7,0.4s1.5-0.1,2.6-1c1.3-1,2-2.7,2-2.7s-2.3,1.2-6.3,0.2c-1.8-0.5-5.7-0.8-8.8,0.3c-2.3,0.9-5.2,3.3-5.2,3.3
		s0.9-0.9,1.4-2c0.6-1.4,0.3-3,0.3-3s-0.3,1.5-2.3,2.4c-1.2,0.5-3.7,1.6-4.8,3.3c-1.5,2.2-1.3,4.9-1.9,5.5
		c-0.5,0.5-14.8,7-15.8,20.2c-1,13.2,8.8,23.3,12.1,27c3.2,3.7,16.8,19.6,19,23.2c1.8,2.8,3.3,5.9,1.6,9.5c-1,2.2-4.4,4.7-9.5,2.3
		c-5.1-2.4-8.6-5.8-14-8.2c-4.3-1.9-9.3-3.3-10.5-4.1c-0.8-0.6-8.3-5.4-9.1-14.1c-0.6-6.8,2.2-17.4,2.6-24.8
		c0.6-10.2-2.4-14.5-2.4-14.9c-0.1-0.7,2.6,0.2,3.7,2.2c1.6,2.8,1.4,3.9,1.4,3.9s3.5-6.5,2-14.7c-1.7-9.3-7.4-10.4-7.5-11.1
		c0-0.5,1.7-0.9,3.5-0.3c5.1,1.6,5.9,6.5,5.9,6.5s2.2-6.8-0.8-13.8c-2.8-6.3-6.8-6.9-6.9-7.7c-0.1-0.4,1.3-1,4-0.3
		c4.2,1.1,5.1,4.6,5.1,4.6s1-6-0.8-11c-3.2-9.1-9.7-10-9.8-10.7c0-0.4,1.9-0.9,3.7-0.4c3.2,0.9,3.6,1.8,3.6,1.8s-0.1-2.2-1.9-5.5
		c-1.9-3.6-6.5-8.4-8.4-9.6c-10.6-6.4-16.4-5.1-18.3-5.2c-0.5,0-1.6-1-1.1-2.5c0.7-2.4,2.4-3.2,2.4-3.2s-4.5-0.1-8.5,1.4
		c-4.7,1.8-7.1,4.4-7.7,4.4c-0.5,0-1.1-0.8-1.1-2c0-1.7,0.6-2.3,0.6-2.3s-5.6,1.9-8.2,3.8c-1.9,1.4-4.7,3.6-6.2,7
		c-1.1,2.7-1.7,6.2-1.7,6.2s-1.3-0.9-3,0.3c-1.8,1.3-3.8,3.9-4.9,5.4c-1,1.4-2.4,3-3.4,3.4c-1.1,0.4-7.4,2.6-8.6,3.4
		c-1.1,0.7-1.6,3-1.4,3.9c0.1,0.4,0.5,1.5,1.5,2.6c0.5,0.6,0.9,0.1,1.2-0.6c0.2-0.4,0.4-0.6,0.6-0.5c1.3,0.7,0.2,3.7,0.5,4.5
		c0.4,1,1.4,2,2.5,2.7c1.4,0.9,4.3,1.9,4.3,1.9s-0.4-1.3,0.1-2.1c0.4-0.7,1.6-1.6,2.8-1.7c2.3-0.3,5.7-0.1,7.5,1.4
		c2.5,2.2,2.2,5,2.2,5s-4.5,1.7-6.6,2.1c-2.2,0.3-3.8,0.3-5.4-0.3c-1.6-0.6-3-2.2-3-2.2s-0.5,2.5-0.7,2.8c-0.2,0.2-1.3,0.8-1.2,1.5
		c0.2,1.4,2.2,1.5,2.4,1.9c0.3,0.5-1.2,1.9-0.2,4.1c0.6,1.2,1.8,2.2,2.9,2.8c1.3,0.7,2.4,1,2.4,1s-0.4-1.8,0.6-3
		c0.5-0.7,1.6-0.9,1.8-0.9c0.3,0.1,0.3,0.8,1.6,1.5c1.3,0.7,3,0.5,3,0.5s-1.3-1.6-0.1-3c0.8-0.9,2.4-1.3,2.7-1.2
		c0.4,0.1,1.8,1.8,5.2,2.8c1.6,0.5,4.1,0.7,5.3,0c2.9-1.6,3-2.9,5.9-3.4c0,0-1.6,0.7-3.1,4.5c-1.3,3.4-5,4.6-7.4,5.3
		c-2.8,0.9-6,1.5-8.8,2.8c-1.9,0.9-4.3,2.4-6.5,4.4c-2.1,1.9-4.1,5-5.2,5.7c-1.1,0.6-10.7,1.8-19.7-1.2c-9-3-12.4-7.6-16.1-12.5
		c-3.9-5.1-7.6-8.8-10.1-9.7c-2.3-0.8-3.9-1.3-5.9-0.8c-1.6,0.3-2.8,1.3-3.2,2.8c-0.7,2.4-0.2,3.5,0.4,4.3c0.7,0.9,2.7,1.5,2.7,1.5
		s-2.4-0.4-3.8,0.9c-1.3,1.3-1.7,5.4,0.2,7c1.6,1.3,3.1,1.3,3.1,1.3s-1,0-1.4,0.7c-0.7,1.2-1.2,3.2-0.3,4.5c2.3,3.3,4.5,2,7,2.5
		c3.4,0.7,4.7,0.9,7.2,2.2c3.9,1.9,7.6,5.4,11.3,9.1c4.4,4.3,8.1,6.6,9.3,7.6c10,8,20.1,7.1,20.1,7.1s-0.8-0.4-2.1-1.1
		c-1-0.5-1.7-1.2-1.4-1.2c0.7-0.1,3,0.6,6.2,0.5c3.1-0.2,4.6-0.9,4.9-0.9c0.5,0.1-0.3,5.3-3.8,8.4c-3.3,3-5.5,3.7-9.2,3.9
		c-3.1,0.2-14.2,1.5-16.6,1.2c-2.4-0.4-6.4-2.2-8-2.5c-1.6-0.3-2.9-0.6-4.6,0.9c-1.7,1.5-3.3,5.4-2.5,7.3c0.9,1.9,3.6,2.1,3.6,2.1
		s-3.8,0-5.2,2c-1.2,1.7-1.8,3.9-0.3,7.2c0.9,1.9,3.1,3.6,4.6,3.3c1.4-0.2,3.3-1.7,3.3-1.7s-2.1,2.6-1.2,4c0.9,1.4,3.8,2.8,6.1,2.6
		c2.3-0.1,4.7-3.6,6.2-5.8c1.7-2.4,4-3.3,6.6-4.3c2.9-1.2,21.1-3.5,23.9-3c2.9,0.5,2.8,0.6,4.4,1c0,0-0.2-0.9-0.8-2
		c-0.8-1.4-1.7-2.1-1.5-2.3c0.3-0.3,4.2-0.4,7.3,0.3c3.7,0.8,6.6,3.2,6.6,3.2s-2.6-0.8-5.3-0.6c-1.8,0.1-3.3,0.6-3.3,0.6
		c0.3,0.4,0.3,0.7,0.5,1.2c0.5,1.2,0.9,3,0.6,3c-0.4,0-1.8-0.5-3.6-0.8c-2.2-0.4-3-0.8-4.9-0.6c-1.2,0.1-13.8,3.3-17.7,10.6
		c-3.7,6.9-1.8,10.9-0.6,13.1c1.2,2.1,4.7,5.2,5.8,6.1c1.8,1.4,8.1,4.3,8,4.9c0,0.6-4.2,2.1-8.8,2.6c-4.7,0.5-11.4-1.2-13.5-3.5
		c-1.4-1.5-4.2-6.3-5.9-8.2c-1.7-1.9-6-3.9-8.8-2.8c-1.9,0.7-2.8,2.3-3.5,3.8c-0.7,1.5-0.1,2.8,0.5,3.3c0.4,0.3,1.4,1,1.4,1
		s-1.2-0.3-2.5,0.8c-1.1,1-1.8,2-2.1,4.7c-0.2,2.3,0.5,3.7,1.6,4.6c1.1,0.9,2.5,0.7,2.5,0.7s-2.1,0.7-2.2,2.2
		c-0.1,1.6,0.9,4.1,2.9,5.1c2,1,9.1-0.2,12.3-0.6c2.4-0.2,6.6,0.3,8.9,1.8c1.5,1,2.6,2.7,4,3.7c1,0.8,2.9,1,4.1,0.1
		c1.1-0.8,1.1-1.6,1.7-2.2c0.6-0.5,1-0.9,5.8-1.2c3.9-0.3,5.5,1.3,6.1,2.2c0.2,0.4,0.4,0,0.5,1.2c0.2,1.8-0.4,2.5-0.4,2.5
		s2.2-0.1,3.8-1.1c0.9-0.6,2.2-1.5,2.4-1.7c0.3-0.3,1-0.6,1.2,0.3c0.3,1.1-0.1,1.4-0.1,1.4s2.1-0.3,3.7-1.3c1.8-1.2,2.3-1.8,2.9-1.9
		c0.4,0,0.6,0.4,0.3,1.6c0,0,7-1.4,6.2-9c-1-10.1-2.1-14.1-1.1-18.2c1-4.1,4.6-8,4.6-8l1.5,2.3c0,0-2.7,3.8-3,8.6
		c-0.2,3,0.7,8.9,1.7,11.6c1.1,3.3,2.9,6,3.8,7.1c1.8,2.2,3.1,2.4,3.1,2.4s0-0.6,0.3-1.5c0.2-0.7,0.8-0.8,0.9-0.8
		c0.3,0.1,0.5,1.2,1.7,2.2c1.3,1.2,4.9,1.7,4.9,1.7s-0.3-0.5-0.2-1.4c0.1-0.8,0.6-1.4,0.8-1.3c0.4,0.1,0,0.7,2.2,1.7
		c2,1,4.2,0.5,4.2,0.5s-0.4-0.6-0.4-1.2c0-0.7,0.4-1.3,0.7-1.4c0.3-0.1-0.1,0.3,2.5,0.8c2.4,0.5,4-1.1,4-1.1s-1.1-1-1.6-2.1
		c-0.4-0.7-0.2-1.4,0.1-1.7c0.4-0.4,3.6-0.5,5.1,1.7c1.4,1.9,2.4,10.6,2,15.5c-0.3,3.6-3.7,10-8.5,12.9c-4.2,2.6-5.7,1.5-7.1,0.4
		c-1.7-1.3-4.7-3.8-6.7-4.1c-2-0.3-3.9-0.3-5.5,0c-1.3,0.3-0.7,0-3,0.7c-1.6,0.4-4.2,1.3-5.3,3.3c-0.9,1.8-0.8,5,0.7,6.1
		c1.4,1.1,2.8,1.3,3.5,0.7c0,0-0.8,0.7-1.4,1.7c-0.9,1.5-0.9,2.9,0.6,5.1c1.3,1.9,3.3,2.7,4.3,2.8c1.6,0.1,2.5-0.3,2.5-0.3
		s0.4-0.1,1.2-1.1c0,0-1.8,2.7-0.8,4.6c0.5,0.9,2.2,1.9,4.1,1.9c2.6,0,5-0.4,6.2-1.1c1.9-1,3.5-2.3,4.9-3.4c2.5-2.1,4.7-4.7,8-6.9
		c1.8-1.2,9-5,12.4-5.6c1.9-0.4,2.8-0.6,4-1.7c1.1-1,2.2-3.8,1.1-6.3c-1.1-2.5-0.2-5.9,0.7-10.7c0.9-4.7,2.1-7.8,3.6-8.9
		c1.5-1.1,3.2-0.9,6.2-2.9c3.2-2.1,2.8-5.6,2.8-5.6s-0.9,0.4-3.3-0.8c-2-1-1.8-2.3-1.7-2.8c0.1-0.6,0.6-0.5,2.4-2.1
		c2.1-1.8,1.5-6.3,1.5-6.3s-0.7,1-2.8,0.9c-1.5,0-3-0.1-3.3-1.5c-0.3-1.4,0.9-1.6,1.1-3.5c0.3-2.3-0.9-3.8-0.9-3.8s-0.9,1.6-4.8,1.8
		c-2.4,0.2-3.7-0.2-4.7-0.6c-1.5-0.7-3.2-2.4-3.5-4.3c-0.7-3.7,0.6-5.4,1-5.8c1.4-1.6,4.8-0.9,9,2c4.7,3.3,14,7.9,21.5,4.8
		c7-2.9,13.3-15.3,6-25.9c-6.5-9.4-25.1-29.4-27.1-32.7c-1.8-2.9-4.8-7.9-4.2-12.7c0.6-4.1,2.4-6.8,4.3-8.4c1.8-1.6,4.1-2.7,4.8-2.7
		c0.6-0.1,5.7,3,10.1,3.5c4.1,0.5,7.9-1.4,10.8-3c2.4-1.3,4.5-1,4.5-1c-1.1-0.6-0.7-0.7-1.9-1.1c-0.7-0.3-2.3-0.2-2.3-0.2
		s6.5-1.9,9.9-5.8C632.5,626.7,633.4,616.2,633.4,616.2"/>
</g>
</svg>
