<?xml version="1.0" encoding="utf-8"?>
<!-- Generator: Adobe Illustrator 19.2.1, SVG Export Plug-In . SVG Version: 6.00 Build 0)  -->
<svg version="1.1" id="Capa_1" xmlns="http://www.w3.org/2000/svg" xmlns:xlink="http://www.w3.org/1999/xlink" x="0px" y="0px"
	 viewBox="0 0 100 100" style="enable-background:new 0 0 100 100;" xml:space="preserve">
<style type="text/css">
	.st0{fill:url(#path34_4_);}
	.st1{fill:url(#path890_1_);}
	.st2{fill:#FFE500;stroke:#000000;stroke-width:2.098;stroke-miterlimit:3.863;}
	.st3{fill:#DA020E;}
	.st4{fill:#FFE500;}
	.st5{clip-path:url(#SVGID_2_);}
	.st6{fill:none;stroke:#B54005;stroke-width:10;stroke-miterlimit:3.863;}
	.st7{fill:url(#path7506_1_);}
	.st8{fill:url(#path8794_1_);}
	.st9{fill:url(#path15846_1_);}
	.st10{fill:url(#path16274_1_);}
	.st11{fill:url(#path39821_1_);}
	.st12{fill:url(#path39847_1_);}
	.st13{fill:url(#path39878_1_);}
	.st14{fill:url(#path39888_1_);}
	.st15{fill:url(#path41035_1_);}
	.st16{fill:url(#path9646-8_1_);}
	.st17{fill:url(#path41092_1_);}
	.st18{fill:url(#path41094_1_);}
	.st19{fill:none;stroke:#000000;stroke-width:2.098;stroke-miterlimit:3.863;}
	.st20{fill:url(#path41152_1_);}
	.st21{fill:url(#path39854_1_);}
	.st22{fill:url(#path39874_1_);}
	.st23{fill:#9C824A;stroke:#9C824A;stroke-width:0.793;stroke-miterlimit:282;}
	.st24{fill:#023474;stroke:#023474;stroke-width:0.793;stroke-miterlimit:282;}
	.st25{fill:#FFFFFF;stroke:#FFFFFF;stroke-width:0.793;stroke-miterlimit:282;}
	.st26{fill:#EF0107;stroke:#EF0107;stroke-width:0.793;stroke-miterlimit:282;}
	.st27{fill:#DB0007;stroke:#DB0007;stroke-width:0.793;stroke-miterlimit:282;}
	.st28{fill:#FFFFFF;}
	.st29{fill:#9C824A;}
	.st30{fill:#EF0107;stroke:#EF0107;stroke-width:0.3115;stroke-miterlimit:282;}
	.st31{fill:#DB0007;stroke:#DB0007;stroke-width:0.3115;stroke-miterlimit:282;}
	.st32{fill:#DB0007;}
	.st33{fill:#FFFFFF;stroke:#FFFFFF;stroke-width:0.3115;stroke-miterlimit:282;}
	.st34{fill:#FFFFFF;stroke:#FFFFFF;stroke-width:0.554;stroke-miterlimit:3.864;}
	.st35{fill:#231F20;}
	.st36{fill:#00B6F1;stroke:#00B6F1;stroke-width:1.700000e-02;stroke-miterlimit:3.864;}
	.st37{fill:#EF3E2E;}
	.st38{fill:#BBBDBF;}
	.st39{fill:#F0B83D;}
	.st40{fill:#00B6F1;stroke:#FFFFFF;stroke-width:1.700000e-02;stroke-miterlimit:3.864;}
	.st41{fill:#001C58;}
	.st42{fill:#94BEE5;}
	.st43{fill:none;stroke:#7A003C;stroke-width:2.2437;stroke-miterlimit:6;}
	.st44{fill:#7A003C;}
	.st45{fill:#FFE600;}
	.st46{fill:#DBA111;}
	.st47{fill:#034694;}
	.st48{fill:#D1D3D4;}
	.st49{fill:#ED1C24;}
	.st50{fill:#6A7AB5;}
	.st51{fill:none;}
	.st52{fill:#274488;}
	.st53{fill:#004798;stroke:#004798;stroke-width:9.375000e-02;}
	.st54{fill:#FFFFFF;stroke:#FFFFFF;stroke-width:9.375000e-02;}
	.st55{fill:#FABC00;stroke:#FABC00;stroke-width:9.375000e-02;}
	.st56{fill:none;stroke:#FFFFFF;stroke-width:7.865;stroke-miterlimit:3.864;}
	.st57{fill:none;stroke:#FFFFFF;stroke-width:7.865;stroke-miterlimit:12;}
	.st58{fill:none;stroke:#FFFFFF;stroke-width:7.865;stroke-miterlimit:22;}
	.st59{fill:none;stroke:#FFFFFF;stroke-width:7.865;stroke-miterlimit:6;}
	.st60{fill:#00A398;}
	.st61{fill:#D00027;}
	.st62{fill:none;stroke:#FFFFFF;stroke-width:17.3907;stroke-miterlimit:3.864;}
	.st63{fill:none;stroke:#FFFFFF;stroke-width:13.1107;stroke-miterlimit:3.864;}
	.st64{fill:#FEF667;}
	.st65{fill:#D00027;stroke:#D00027;}
	.st66{fill:#5299C6;}
	.st67{fill:#60223B;}
	.st68{fill:#F7C240;}
	.st69{fill:#292D6B;}
	.st70{fill:#1B458F;}
	.st71{fill:#C4122E;}
	.st72{fill:#27409B;}
	.st73{clip-path:url(#SVGID_4_);}
	.st74{fill:#F4F4F4;}
	.st75{fill:#D3D2D2;}
	.st76{fill:#A7A5A6;}
	.st77{fill:#091453;}
	.st78{fill:none;stroke:#FFFFFF;stroke-width:6.6301;}
	.st79{clip-path:url(#SVGID_6_);}
	.st80{fill:#724314;}
	.st81{fill:#240B08;}
	.st82{fill:#018B4B;}
	.st83{fill:#A6181D;}
	.st84{fill:#592D09;}
	.st85{fill:#FFCE65;}
	.st86{fill:#5CBFEB;}
	.st87{fill:none;stroke:#000000;stroke-width:10;}
	.st88{fill:none;stroke:#000000;}
	.st89{fill:#B2B2B2;}
	.st90{fill:none;stroke:#000000;stroke-width:0.3;}
	.st91{fill:#00A650;stroke:#000000;stroke-width:2;}
	.st92{fill:#241F20;stroke:#241F20;stroke-width:9.375000e-02;}
	.st93{fill:#FFF200;stroke:#FFF200;stroke-width:9.375000e-02;}
	.st94{fill:#A68A26;}
	.st95{fill:none;stroke:#A68A26;stroke-width:4.792100e-02;stroke-miterlimit:3.8637;}
	.st96{fill:#211E1E;}
	.st97{fill:none;stroke:#211E1E;stroke-width:4.792100e-02;stroke-miterlimit:3.8637;}
	.st98{fill:#EB172B;}
	.st99{fill:none;stroke:#EB172B;stroke-width:4.792100e-02;stroke-miterlimit:3.8637;}
	.st100{fill:#A68A26;stroke:#A68A26;stroke-width:4.792100e-02;stroke-miterlimit:3.8637;}
	.st101{fill:#D1BF7F;}
	.st102{fill:none;stroke:#D1BF7F;stroke-width:4.792100e-02;stroke-miterlimit:3.8637;}
	.st103{fill:none;stroke:#FFFFFF;stroke-width:4.792100e-02;stroke-miterlimit:3.8637;}
	.st104{fill:#EB172B;stroke:#EB172B;stroke-width:4.792100e-02;stroke-miterlimit:3.8637;}
	.st105{fill:#ED2127;}
	.st106{fill:#FBEE23;}
	.st107{stroke:#000000;}
	.st108{fill:#CF1F44;}
	.st109{fill:#1B449C;}
	.st110{fill:#E03A3E;}
	.st111{fill:#E03A3E;stroke:#E03A3E;stroke-width:0.6565;}
	.st112{fill:none;stroke:#1B449C;stroke-width:0.7493;}
	.st113{fill:none;stroke:#1B449C;stroke-width:0.7567;}
	.st114{fill:#1B449C;stroke:#1B449C;stroke-width:0.6274;}
	.st115{fill:#1B449C;stroke:#1B449C;stroke-width:0.6755;}
	.st116{fill:#2E6ABD;stroke:#2E6ABD;stroke-width:0.617;}
	.st117{fill:#FFFFFF;stroke:#FFFFFF;stroke-width:0.6175;}
	.st118{fill:#ED1248;}
	.st119{fill:#2E6ABD;}
	.st120{fill:#FDE100;}
	.st121{fill:#CC0000;}
	.st122{fill:#211E1F;}
	.st123{fill:#ED1A3B;}
	.st124{fill:#00AEEF;}
	.st125{fill:#FFC40D;}
	.st126{fill:#22B24C;}
	.st127{fill:#FFC20E;}
	.st128{fill:#0A3F86;}
	.st129{fill:#005CA9;}
	.st130{fill:#FFE000;}
	.st131{fill:#E2001A;}
	.st132{opacity:0;}
	.st133{opacity:0;fill:#FFFFFF;}
	.st134{fill:#FFFFFF;stroke:#000000;}
	.st135{fill:#0060A9;}
	.st136{fill:#E32219;}
	.st137{fill:#FFED00;}
	.st138{fill:#1D9053;}
	.st139{fill:#52A600;}
	.st140{fill:#EE2523;}
	.st141{fill:#F7D117;}
	.st142{fill:#171796;}
	.st143{fill:#009959;}
	.st144{fill:#D42E12;}
	.st145{fill:#703824;}
	.st146{fill:#E5254E;}
	.st147{fill:#8AC3EE;}
	.st148{fill:#B19221;}
	.st149{fill:#F5C03E;}
	.st150{fill:#FF1119;}
	.st151{fill:#1E6BC0;}
	.st152{fill:#B4742A;}
	.st153{fill:#371B02;}
	.st154{fill:url(#SVGID_7_);}
	.st155{fill:url(#SVGID_8_);}
	.st156{fill:url(#SVGID_9_);}
	.st157{fill:url(#SVGID_10_);}
	.st158{fill:url(#SVGID_11_);}
	.st159{fill:url(#SVGID_12_);}
	.st160{fill:url(#SVGID_13_);}
	.st161{fill:url(#SVGID_14_);}
	.st162{fill:url(#SVGID_15_);}
	.st163{fill:url(#SVGID_16_);}
	.st164{fill:#EB2626;}
	.st165{fill:#E9C32C;}
	.st166{fill:#D9D9D9;}
	.st167{fill:#009C5E;}
	.st168{fill:#1C75BC;}
	.st169{fill:#611D5C;}
	.st170{fill:#E2B900;}
	.st171{fill:#004B95;}
	.st172{fill:#A4234B;}
	.st173{fill:#DB2F36;}
	.st174{fill:#FFDF00;}
	.st175{fill:#A38D44;}
	.st176{fill:#57175E;}
	.st177{fill:#AFDCFD;}
	.st178{fill:#0090C6;}
	.st179{fill:#DB5232;}
	.st180{fill:#23C1E0;}
	.st181{fill:#F1A92A;}
	.st182{fill:#167FB6;}
	.st183{fill:#FED75D;}
	.st184{fill:#378CBF;}
	.st185{fill:#3E9692;}
	.st186{fill:#E67F29;}
	.st187{fill:#D8B43C;}
	.st188{fill:#EF3B33;}
	.st189{fill:#24923D;}
	.st190{opacity:6.000001e-02;fill:#101010;enable-background:new    ;}
	.st191{fill:#00529F;}
	.st192{fill:#EE324E;}
	.st193{fill:#FEBE10;}
	.st194{fill:#143C8B;}
	.st195{fill:#FFE24A;}
	.st196{fill:#EC1D24;}
	.st197{fill:#E6A514;}
	.st198{fill:#FFDF1C;}
	.st199{fill:#EE3524;}
	.st200{fill:#B23428;}
	.st201{fill:#D18816;}
	.st202{fill:#0097D7;}
	.st203{fill:#ED1C23;}
	.st204{fill:#E30613;}
	.st205{fill:#FFE400;}
	.st206{fill:#C51A1B;}
	.st207{clip-path:url(#SVGID_19_);}
	.st208{clip-path:url(#SVGID_20_);fill:none;stroke:#000000;stroke-width:0.8131;stroke-miterlimit:3.864;}
	.st209{fill:#0093D5;}
	.st210{fill:#004B9D;}
	.st211{fill:#FCC24F;}
	.st212{fill:#009545;}
	.st213{fill:#0072BB;}
	.st214{fill:#C4974E;}
	.st215{fill:url(#path1292_1_);}
	.st216{fill:#004996;}
	.st217{fill:#FFE667;}
	.st218{fill:none;stroke:#005187;stroke-width:0.153;stroke-miterlimit:3.864;}
	.st219{fill:#005187;}
	.st220{clip-path:url(#SVGID_22_);}
	.st221{clip-path:url(#SVGID_24_);fill:none;stroke:#000000;stroke-width:0.296;stroke-miterlimit:3.864;}
	.st222{clip-path:url(#SVGID_26_);fill:#FFE667;}
	.st223{clip-path:url(#SVGID_28_);fill:none;stroke:#000000;stroke-width:8.300000e-02;stroke-miterlimit:3.864;}
	.st224{fill:none;stroke:#000000;stroke-width:0.153;stroke-miterlimit:3.864;}
	.st225{clip-path:url(#SVGID_30_);fill:#E70005;}
	.st226{clip-path:url(#SVGID_32_);fill:none;stroke:#E70005;stroke-width:0.296;stroke-miterlimit:3.864;}
	.st227{clip-path:url(#SVGID_34_);fill:#E70005;}
	.st228{clip-path:url(#SVGID_36_);fill:none;stroke:#E70005;stroke-width:0.296;stroke-miterlimit:3.864;}
	.st229{clip-path:url(#SVGID_38_);fill:#E70005;}
	.st230{clip-path:url(#SVGID_40_);fill:none;stroke:#E70005;stroke-width:0.296;stroke-miterlimit:3.864;}
	.st231{clip-path:url(#SVGID_42_);fill:#E70005;}
	.st232{clip-path:url(#SVGID_44_);fill:none;stroke:#E70005;stroke-width:0.296;stroke-miterlimit:3.864;}
	.st233{fill:#E70005;}
	.st234{fill:none;stroke:#000000;stroke-width:0.141;stroke-miterlimit:3.864;}
	.st235{fill:#00276D;}
	.st236{fill:#C49308;}
	.st237{fill:#179D33;}
	.st238{fill:#999999;}
	.st239{fill:#FF0000;}
	.st240{fill:#E31837;}
	.st241{fill:#06357A;}
	.st242{fill:#B4053F;}
	.st243{fill:#DCA43E;}
	.st244{fill:#005CA5;}
	.st245{fill:#FAC400;}
	.st246{fill:#004083;}
	.st247{fill:#A95932;}
	.st248{fill:none;stroke:#000000;stroke-width:1.2215;}
	.st249{fill:#E62627;}
	.st250{fill:#00458C;}
	.st251{fill:#E11B22;}
	.st252{fill:#00AB4E;}
	.st253{fill:#F47920;}
	.st254{fill:#C7C8CA;}
	.st255{fill:#E11515;}
	.st256{fill:#A4965F;}
	.st257{fill:#E51636;}
	.st258{fill:#EACC00;}
	.st259{fill:#4F846B;}
	.st260{fill:#E22227;}
	.st261{fill:#FAE700;}
	.st262{fill:url(#SVGID_45_);}
	.st263{fill:#666666;}
	.st264{fill:#FFF200;}
	.st265{fill:#00275D;}
	.st266{fill:#EF3E33;}
	.st267{fill:none;stroke:#00275D;stroke-width:2.632;}
	.st268{fill:#3F7652;}
	.st269{fill:#F1D261;}
	.st270{fill:#004D8F;}
	.st271{fill:#E7B137;stroke:#E7B137;stroke-miterlimit:10;}
	.st272{fill:#E7B137;}
	.st273{fill:#162577;}
	.st274{fill:#12692C;}
	.st275{fill:#D8141D;}
	.st276{fill:#AB830D;}
	.st277{fill:#0086CB;}
	.st278{fill:#001F42;}
	.st279{fill:#9A8F4A;}
	.st280{fill:#00559D;}
	.st281{fill:#FDDE00;}
	.st282{fill:#00924C;}
	.st283{fill:#233984;}
	.st284{fill:#FFD42E;}
	.st285{fill:#BA3733;}
	.st286{fill:#46714D;}
	.st287{fill:#221F1F;}
	.st288{fill:#00559E;}
	.st289{fill:#005C46;}
	.st290{fill:#FBC860;}
	.st291{fill:#D57C48;}
	.st292{fill:#040403;}
	.st293{fill:#4AB969;}
	.st294{fill:#8ED8F8;}
	.st295{fill:#FEC34E;}
	.st296{fill:#FFC95B;}
	.st297{fill:#00644C;}
	.st298{fill:#70B865;}
	.st299{fill:#CA6F44;}
	.st300{fill:#A8B8BE;}
	.st301{fill:#1C2C80;}
	.st302{fill:#E10321;}
	.st303{fill:none;stroke:#231F20;stroke-width:0.318;stroke-miterlimit:3.864;}
	.st304{fill:#D71920;}
	.st305{fill:#484749;}
	.st306{fill:#D9DBDC;}
	.st307{fill:#DF725A;}
	.st308{fill:#F2CABA;}
	.st309{fill:#E89C84;}
	.st310{fill:#264F99;}
	.st311{clip-path:url(#SVGID_47_);}
	.st312{fill:#161413;}
	.st313{fill:#ED1B26;}
	.st314{fill:#E60D2E;}
	.st315{fill:#FCD600;}
	.st316{fill:#004D91;}
	.st317{fill:#EAB412;}
	.st318{fill:#FDD31D;}
	.st319{fill:#EFB800;}
</style>
<g>
	<path class="st315" d="M75.2,6.8c-3.7-2.2-7.7-3.9-11.9-5C59,0.6,54.6,0,50,0c-4.6,0-9,0.6-13.3,1.8c-4.3,1.2-8.2,2.8-11.9,5
		c-3.7,2.2-7.1,4.8-10.1,7.8c-3,3-5.7,6.4-7.8,10.1c-2.2,3.7-3.9,7.7-5,11.9C0.6,41,0,45.4,0,50c0,4.6,0.6,9,1.8,13.2
		c1.2,4.3,2.8,8.2,5,11.9c2.2,3.7,4.8,7.1,7.8,10.1c3,3,6.4,5.7,10.1,7.8c3.7,2.2,7.7,3.9,11.9,5.1C41,99.4,45.4,100,50,100
		c4.6,0,9-0.6,13.2-1.7c4.3-1.2,8.2-2.9,11.9-5.1c3.7-2.2,7.1-4.8,10.1-7.8c3-3,5.7-6.4,7.8-10.1c2.2-3.7,3.9-7.7,5.1-11.9
		C99.4,59,100,54.6,100,50c0-4.6-0.6-9-1.7-13.3c-1.2-4.3-2.9-8.2-5.1-11.9c-2.2-3.7-4.8-7.1-7.8-10.1C82.3,11.6,78.9,9,75.2,6.8
		L75.2,6.8z M84.2,23.9v-6.2c2.4,2.6,4.6,5.5,6.5,8.6c2,3.4,3.6,7.2,4.7,11.2c0.9,3.1,1.4,6.3,1.6,9.5l1.3-0.1l0.3,3.4l-0.8,4.8
		L96.8,55l-1.4,7.5c-1.1,4-2.7,7.8-4.7,11.2c-2.1,3.5-4.5,6.7-7.4,9.6c-2.9,2.8-6.1,5.3-9.6,7.4c-3.5,2-7.2,3.6-11.2,4.7
		c-4,1.1-8.2,1.7-12.5,1.7c-4.4,0-8.5-0.6-12.5-1.7c-4-1.1-7.7-2.7-11.2-4.7c-3.5-2.1-6.7-4.5-9.6-7.4c-2.8-2.9-5.3-6.1-7.4-9.6
		l-1.6-3L5.3,71l-0.8-2.4l1.4-1.9l-1.4-4.2c-1.1-4-1.7-8.2-1.7-12.5c0-4.4,0.6-8.5,1.7-12.5c1.1-4,2.7-7.7,4.8-11.2
		c2.1-3.5,4.5-6.7,7.4-9.6c2.8-2.8,6-5.3,9.6-7.4c3.4-2.1,7.2-3.7,11.2-4.8c4-1.1,8.2-1.7,12.5-1.7c4.3,0,8.5,0.6,12.5,1.7
		s7.8,2.7,11.2,4.8l3.8,2.5l-5,0.5c-1.6-1.7-3.4-2.9-5.4-3.7c-2-0.8-4.1-1.3-6.3-1.3l-6.8,0.8c-2.3,0.5-4.6,1.3-6.9,2.4
		c-2.3,1.1-4.6,2.3-6.7,3.7l-6,4.6c-1.9,1.6-3.5,3.3-4.9,5c-2.8,3.3-5,6.9-6.8,10.8c-1.8,3.9-2.9,7.9-3.5,12.2l-0.3,4.2l1.1-0.1
		c0.2-2.5,0.6-4.9,1.2-7.3c0.9-3.6,2.2-7.1,4-10.4c1.7-3.4,3.8-6.4,6.2-9.2c2.4-2.8,5.1-5.3,8.1-7.4c3-2.1,6.2-3.9,9.7-5.2
		c3.4-1.3,7.1-2.1,10.9-2.4l4.4,0.3c1.4,0.3,2.8,0.9,4,1.6l3.3,2.7l6.6-0.4c0.8,0.1,1.4,0.3,2,0.7c0.5,0.3,0.9,0.9,1.2,1.7l0.5,3.2
		L82,24l-2.3,1l-5,3.2l-0.3,0.3L73.3,29L72,28.7l-0.2-0.1l-7.5-0.2l-3,0.4c-0.3,1-0.5,2-0.5,3c-0.1,1.2,0.2,2.4,0.6,3.6l1.5,2.2
		c0.6,0.6,1.3,1,2.2,1.4l2.6,0.5h2.4l2.4-0.4c0.8-0.3,1.6-0.5,2.3-0.7l2-0.2c0.6,0.1,1,0.2,1.4,0.4l0.9,0.8l1.6,2.1l2.1-0.1l0.6-0.3
		l-2.9-3.8l-4.1-3.7c1.6,0.9,3,2,4.3,3.2l3.4,3.9l0.1-0.1l0.4-1.3c0-0.8-0.2-1.5-0.6-2.1l-1.7-1.7l-3.8-2.3c0.2-0.6,0.6-1.1,1.1-1.6
		l5.1-4.8l0.5-1.3c-0.1-0.4-0.4-0.8-1-1.1c-0.9,0.4-1.7,1-2.4,1.7l-2.1,2.4l-3.3,5.2c0.4-1.3,1-2.6,1.8-3.9c0.8-1.3,1.7-2.4,2.7-3.4
		C81.9,25.4,83,24.5,84.2,23.9L84.2,23.9z"/>
	<path class="st316" d="M84.2,17.7v6.2h0.1v0.6h-0.1c0.6,0.3,0.9,0.7,1,1.1l-0.5,1.3l-5.1,4.8c-0.6,0.5-0.9,1-1.1,1.6l3.8,2.3
		l1.7,1.7c0.4,0.6,0.6,1.3,0.6,2.1l-0.4,1.3L84,40.7l-0.7,0.5l0,0l-0.6,0.3l-2.1,0.1l0,0l-0.1,0l-0.5,0c-1.8,0.8-3.9,1.3-6.2,1.6
		l-7.4,0.4l-8.4-0.5l-1.1,2.3l-2.1,3.2L53.8,50l16.6-1.1h1.7l0.8,0.2l0.7,0.3l0.4,0.3l0.1-0.1l1-0.5l0.1-0.1l0.5-0.2h0.1l0.8-0.2
		l0.1-0.1l0.9-0.1h0.1l5.9-0.4l1.7,0.4l0.2,0.2l0.2,0.2l0.2-0.2l0.6-0.3l0.1-0.1l1.3-0.5H88l0.5-0.1h0.1l0.2-0.1L97,47
		c-0.2-3.3-0.7-6.4-1.6-9.5c-1.1-4-2.7-7.7-4.7-11.2C88.8,23.2,86.6,20.3,84.2,17.7L84.2,17.7z"/>
	<path class="st28" d="M84.3,23.9L84.3,23.9c-1.3,0.7-2.4,1.5-3.4,2.5c-1,1-1.9,2.2-2.7,3.4c-0.8,1.3-1.4,2.6-1.8,3.9l3.3-5.2
		l2.1-2.4c0.7-0.7,1.5-1.3,2.4-1.7h0.1L84.3,23.9L84.3,23.9z"/>
	<path class="st317" d="M68.4,11c-1.3-0.7-2.6-1.3-4-1.6L60,9.1c-3.8,0.3-7.4,1-10.9,2.4c-3.4,1.3-6.7,3-9.7,5.2
		c-3,2.1-5.8,4.6-8.1,7.4c-2.4,2.8-4.5,5.8-6.2,9.2c-1.7,3.3-3,6.8-4,10.4c-0.6,2.4-1,4.8-1.2,7.3l2.4-0.1l2.4-3.1l5.7-5.8
		c2-1.8,4-3.3,6-4.6l5.8-3.3c1.9-0.9,3.6-1.5,5.2-1.9l4-0.5L50,33.6c-1.3,1.2-1.3,1.6-0.2,1.3l-0.2,0.6l-0.6,0.8l-0.8,0.8L47.6,38
		l-0.1,0.7l0.8,0.3l9.8-8.1l1.3-1.7l1-0.2l0.6-1.4l1.7-3.2l1.2-1.2l-1.3,2.4l-1.2,3l-0.2,0.3l3-0.4l7.5,0.2
		c-0.3-0.3-0.4-0.7-0.3-1.2l0.5-1.1c0.2-0.4,0.5-0.7,0.8-1c0.3-0.3,0.6-0.4,1-0.5l0.9,0.2l0.5,0.1c0.3,0.3,0.4,0.8,0.4,1.4l-0.5,1.1
		l-0.5,0.6l5-3.2l2.3-1l0.1-5l-0.5-3.2c-0.3-0.8-0.7-1.4-1.2-1.7c-0.6-0.4-1.2-0.6-2-0.7l-6.6,0.4L68.4,11L68.4,11z M71.7,14.9
		l0.7,0.4l0.8,0.2l-13.7,1.7l-11.2,2.7c-2.5,0.9-4.8,2.1-7,3.6c-2.3,1.5-4.5,3.3-6.6,5.4c-2.2,2.2-4.4,4.7-6.5,7.5
		c-2.2,2.8-4.4,6.1-6.8,9.7c0.2-0.9,0.5-1.9,0.9-3.1c0.4-1.2,1.1-2.4,1.9-3.7l-0.8-0.1l0.9-0.9l0.5-0.2l0.8-1.3L25,36.7l-0.8,0.1
		c0.7-0.7,1.4-1,2.2-0.9l0.8-1.1c-0.4-0.2-1.2-0.2-2.1,0l1.1-0.8l1.9-0.3l1.1-1.3l-1.5-0.2l-1.6,0.3c0.6-0.5,1.2-0.9,1.9-1.1
		l2.3-0.3l1.2-1.3l-1.7-0.3l-2.1,0.3c0.9-0.7,1.8-1.1,2.7-1.3l2.5-0.1l1.4-1.3L31.8,27l-2.7,0.4c1-0.6,2.1-1.1,3.2-1.4l3.5-0.3
		l1.4-1.2l-2.7-0.4l-3,0.2c0.7-0.4,1.5-0.6,2.3-0.8l2.4-0.4l2.7,0.2l1.1-0.9l-2.4-0.7l-3.6,0.2c0.8-0.4,1.7-0.6,2.5-0.8l2.7-0.4
		l2.7,0.4l1.1-0.6c-0.6-0.5-1.4-0.8-2.4-0.9l-3.6-0.2l1.8-0.8c0.7-0.2,1.5-0.2,2.5,0l3.4,0.9l1-0.5L44.3,18l-1.9-0.7L40,16.7
		l2.2-0.4l2.3,0.4l2.4,1.5l1-0.4l-1.1-1.3l-1.6-1l-1.9-0.8l2.1-0.2c0.7,0.1,1.3,0.3,2,0.8c0.6,0.4,1.2,1.1,1.8,2l1.2-0.5l-1.6-1.9
		c-0.7-0.6-1.5-1.2-2.4-1.6l1.8,0.2c0.6,0.1,1.2,0.4,1.7,0.9l1.8,2.1l1.8-0.2l-2-2.3l-2.9-1.8c0.5-0.2,0.9-0.2,1.4,0l1.6,0.8
		l3.2,3.1l1.6-0.2c-0.6-0.9-1.3-1.8-2.3-2.5l-3.3-2.3l2.4,0.6c0.8,0.3,1.6,0.7,2.4,1.4l2.4,2.7l1.9-0.2c-1-1-2.1-1.9-3.3-2.7
		l-3.6-2.4l3,0.9l2.7,1.6l2.5,2.4l2.6-0.2c-1.1-1.1-2.3-2.1-3.7-3c-1.5-0.9-3.1-1.7-4.8-2.4l3.7,0.9c1.3,0.3,2.5,0.9,3.6,1.6
		c1.1,0.7,2.2,1.6,3.3,2.7l2.8-0.2c-1.4-1.4-2.9-2.5-4.7-3.4c-1.8-0.9-3.8-1.5-6-2c2.5,0,4.8,0.4,7,1.3c2.1,0.8,4.1,2.1,5.8,3.9
		L71.7,14.9L71.7,14.9z"/>
	<path class="st315" d="M72.4,15.3l-0.7-0.4L71,14.8c-1.8-1.8-3.7-3.1-5.8-3.9c-2.2-0.9-4.5-1.3-7-1.3c2.2,0.4,4.2,1.1,6,2
		c1.8,0.9,3.4,2,4.7,3.4l-2.8,0.2c-1.1-1.2-2.2-2.1-3.3-2.7c-1.2-0.7-2.4-1.3-3.6-1.6l-3.7-0.9c1.7,0.7,3.3,1.5,4.8,2.4
		c1.4,0.9,2.6,1.9,3.7,3l-2.6,0.2l-2.5-2.4l-2.7-1.6l-3-0.9l3.6,2.4c1.2,0.8,2.3,1.7,3.3,2.7l-1.9,0.2l-2.4-2.7
		c-0.9-0.7-1.7-1.1-2.4-1.4l-2.4-0.6l3.3,2.3c1,0.8,1.7,1.6,2.3,2.5l-1.6,0.2l-3.2-3.1L50,12.2c-0.5-0.2-1-0.2-1.4,0l2.9,1.8l2,2.3
		l-1.8,0.2l-1.8-2.1c-0.6-0.5-1.1-0.8-1.7-0.9l-1.8-0.2c0.9,0.4,1.7,1,2.4,1.6l1.6,1.9l-1.2,0.5c-0.6-0.9-1.2-1.6-1.8-2
		c-0.7-0.5-1.3-0.7-2-0.8l-2.1,0.2l1.9,0.8l1.6,1l1.1,1.3l-1,0.4l-2.4-1.5l-2.3-0.4L40,16.7l2.4,0.5l1.9,0.7l1.2,1.1l-1,0.5
		l-3.4-0.9c-1-0.2-1.9-0.2-2.5,0l-1.8,0.8l3.6,0.2c1.1,0.2,1.9,0.5,2.4,0.9l-1.1,0.6l-2.7-0.4l-2.7,0.4c-0.9,0.2-1.7,0.5-2.5,0.8
		l3.6-0.2l2.4,0.7l-1.1,0.9l-2.7-0.2l-2.4,0.4c-0.8,0.2-1.6,0.5-2.3,0.8l3-0.2l2.7,0.4l-1.4,1.2l-3.5,0.3c-1.1,0.3-2.2,0.8-3.2,1.4
		l2.7-0.4l2.4,0.2l-1.4,1.3l-2.5,0.1c-0.9,0.2-1.8,0.6-2.7,1.3l2.1-0.3l1.7,0.3l-1.2,1.3L28,31.4c-0.7,0.2-1.4,0.6-1.9,1.1l1.6-0.3
		l1.5,0.2l-1.1,1.3l-1.9,0.3l-1.1,0.8c1-0.2,1.7-0.2,2.1,0l-0.8,1.1c-0.8-0.1-1.5,0.3-2.2,0.9l0.8-0.1l0.7,0.2l-0.8,1.3l-0.5,0.2
		l-0.9,0.9l0.8,0.1c-0.8,1.3-1.5,2.5-1.9,3.7s-0.8,2.2-0.9,3.1c2.3-3.6,4.6-6.9,6.8-9.7c2.2-2.8,4.4-5.3,6.5-7.5
		c2.1-2.1,4.3-3.9,6.6-5.4c2.2-1.5,4.5-2.7,7-3.6l11.2-2.7l13.7-1.7L72.4,15.3L72.4,15.3z"/>
	<path class="st316" d="M77.5,11.9l-3.8-2.5c-3.5-2.1-7.2-3.7-11.2-4.8S54.3,2.9,50,2.9c-4.4,0-8.5,0.6-12.5,1.7
		c-4,1.1-7.7,2.7-11.2,4.8c-3.5,2.1-6.7,4.5-9.6,7.4c-2.8,2.8-5.3,6-7.4,9.6c-2.1,3.4-3.7,7.2-4.8,11.2c-1.1,4-1.7,8.2-1.7,12.5
		c0,4.3,0.6,8.5,1.7,12.5l1.4,4.2L6.4,66v-0.1l0.1-0.1v-0.1l0.1-0.1l3.7-9.4v-0.2l0.1-0.1l0.1-0.2l-1.7-3.9l10.1-0.8l0.3-4.2
		c0.6-4.3,1.7-8.4,3.5-12.2c1.7-3.9,4-7.5,6.8-10.8c1.4-1.7,3.1-3.4,4.9-5l6-4.6c2.1-1.4,4.4-2.7,6.7-3.7c2.3-1.1,4.6-1.9,6.9-2.4
		l6.8-0.8c2.2,0,4.3,0.5,6.3,1.3c2,0.8,3.8,2,5.4,3.7L77.5,11.9L77.5,11.9z"/>
	<path class="st28" d="M75.2,25l-0.5-0.1l0.5,1.2l-0.3,1.2l-1,0.9l-1.3,0.2c1-0.4,1.6-0.8,2-1.4c0.4-0.6,0.4-1.3,0.1-2.2l-0.9-0.2
		c-0.4,0.1-0.7,0.3-1,0.5c-0.4,0.2-0.6,0.6-0.8,1l-0.5,1.1c-0.1,0.5,0.1,0.8,0.3,1.2l0.2,0.1l1.3,0.2l1.1-0.5l0.3-0.3l0.5-0.6
		l0.5-1.1C75.6,25.8,75.5,25.3,75.2,25L75.2,25z"/>
	<path class="st316" d="M74.8,24.9c0.3,0.9,0.3,1.7-0.1,2.2c-0.4,0.6-1,1-2,1.4l1.3-0.2l1-0.9l0.3-1.2L74.8,24.9L74.8,24.9z"/>
	<path class="st28" d="M80.6,36.8c-1.3-1.2-2.8-2.3-4.3-3.2l4.1,3.7l2.9,3.8l0,0l0.7-0.5L80.6,36.8L80.6,36.8z"/>
	<path class="st315" d="M71.1,41l-3.7,0.2c-1.5-0.2-2.9-0.5-4-1.1c-1.2-0.7-2.2-1.7-3-3l-0.4-1.4c-0.3-1.2-0.4-2.3-0.2-3.5l0.8-3.1
		l-1,0.2l-1.3,1.7L48.4,39l-0.8-0.3l0.1-0.7l0.6-0.8l0.8-0.8l0.6-0.8l0.2-0.6c-1.1,0.3-1-0.1,0.2-1.3l1.4-1.8l-4,0.5
		c-1.6,0.4-3.3,1-5.2,1.9l-5.8,3.3c-2,1.3-4,2.8-6,4.6l-5.7,5.8l-2.4,3.1l2.2-0.1l0.6,0.1l0.9,0.3l1,0.7l0.4,0.4h0.1l0.5-0.2
		l1.1-0.3h0.1l0.8-0.1H30l0.1-0.1l4.8-0.3l4-3.5c1.4-1,2.8-1.7,4.2-2.3l4.2-1.2l-0.9,2.5l-2,3.8l2-0.1l1.5-2.7l1.3-4.1l2.8-0.6
		c-0.6,2-1.4,3.8-2.5,5.4L48,50.7l0.7,0.2l0.2,0.1l0.5-0.5l2.4-3.6l1.4-3.7l3.2-0.4l-1.9,4.3l-2.2,3l1.6-0.2l1.2-1.4l2.1-3.2
		l1.1-2.3l8.4,0.5l7.4-0.4c2.3-0.3,4.3-0.8,6.2-1.6l0.5,0L79.5,41l-1.1-0.8c-0.4-0.3-0.8-0.4-1.3-0.5l-1.9,0.2L71.1,41L71.1,41z"/>
	<path class="st28" d="M67.4,41.1l3.7-0.2l4.1-1.1l1.9-0.2c0.5,0.1,0.9,0.3,1.3,0.5l1.1,0.8l1.1,0.6l0.1,0l0,0L79,39.5l-0.9-0.8
		c-0.4-0.2-0.8-0.3-1.4-0.4l-2,0.2c-0.7,0.2-1.5,0.4-2.3,0.7l-2.4,0.4h-2.4L65.1,39c-0.9-0.4-1.6-0.8-2.2-1.4l-1.5-2.2
		c-0.5-1.2-0.7-2.4-0.6-3.6c0.1-1.1,0.2-2.1,0.5-3l0.2-0.3l1.2-3l1.3-2.4l-1.2,1.2l-1.7,3.2L60.5,29l-0.8,3.1
		c-0.2,1.2-0.1,2.3,0.2,3.5l0.4,1.4c0.8,1.3,1.8,2.3,3,3C64.5,40.6,65.9,41,67.4,41.1L67.4,41.1z"/>
	<path class="st318" d="M72.1,48.9h-1.7L53.8,50l-1.6,0.2l-2.4,0.2l0.5,1.9l-0.5-0.5l-0.6-0.5L48.8,51l-0.2-0.1L48,50.7l-0.2-0.1
		h-1.4l-2,0.1L37.1,51L37,51.6l-0.4-0.2L36,51.3h-1.1l-4.8,0.3L30,51.7H30l-0.8,0.1h-0.1L28,52.1l-0.5,0.2h-0.1L27,51.9l-1-0.7
		l-0.9-0.3l-0.6-0.1l-2.2,0.1L19.9,51l-1.1,0.1L8.7,51.9l1.7,3.9L10.3,56l-0.1,0.1v0.2l-3.7,9.4l-0.1,0.1v0.1l-0.1,0.1V66l-0.5,0.7
		l-1.4,1.9L5.3,71l2.4-0.2L18.6,70h0.2l0.2-0.1h0.5l0.1-0.1h0.1l0.9-0.2h0.1l0.1-0.1h0.1l0.7-0.2l0.8-0.4l0.8-0.7l0.3-0.2l0.2-0.3
		l-0.1-0.1l0.5-1.6l0.5,1l1,0.2l8.4-0.5l18.4-1.3l-0.8-0.8l1.1-1.4h0.1l0.1,10c1.1,0.7,2.3,1.1,3.8,1.3h4.9l22.9-4l4.9,0.1l0.7-7.8
		l1.9-0.4l2.1-1.1l1.4-2.1l1.5-4.3l0.9,0.2l0.8-4.8l-0.3-3.4L97,47l-8.2,0.6l-0.2,0.1h-0.1L88,47.8h-0.3l-1.3,0.5l-0.1,0.1l-0.6,0.3
		l-0.2,0.2l-0.2-0.2l-0.2-0.2l-1.7-0.4l-5.9,0.4h-0.1l-0.9,0.1l-0.1,0.1l-0.8,0.2h-0.1L75.1,49L75,49.1l-1,0.5l-0.1,0.1l-0.4-0.3
		l-0.7-0.3L72.1,48.9L72.1,48.9z M88.5,69.7l-4.8-0.1l-21.8,3.9l-4.6,0.2c-1.4-0.1-2.6-0.4-3.7-0.9l-0.1-6.9c1,0.6,2.2,1,3.6,1.1
		h4.6l16.3-3.2l0.5-0.2l5.5-0.8l4.8,0.2L88.5,69.7L88.5,69.7z M71.1,63.3l0.7,0.5l0.2,0.1l0.1,0.1l-11.2,2l-4.8-0.1l-1.4-0.4
		l12.8-0.9l1-0.2h0.2l0.7-0.2l1.2-0.6L71.1,63.3L71.1,63.3L71.1,63.3z M83,49.2L83,49.2l0.8,0.1l0.6,0.2l0.8,0.5l0.3,0.3l0.1-0.2
		l0.2-0.2l0.7-0.4h0.1l0.1-0.2l0.2-0.1h0.1l0.7-0.3h0.2l0.1-0.1l0.6-0.1h0.2l9.4-0.7l-1.5,5.9l-1-0.2v0.5l-0.1,0.6v0.2l-0.1,0.1v0.2
		l-1.5,3.8l-0.5,0.8l-0.8,0.8l-0.2,0.1l-1,0.6h-0.2l-0.1,0.1h-0.1l-0.2,0.1h-0.3l-0.1,0.1L81,62.2v-0.1l-0.2,0.1l-7.7,0.6l-0.6-0.1
		l-0.5-0.2L71.4,62l-0.2-0.3l-0.2,0.2l-0.2,0.2l-0.3,0.3l-0.7,0.4l-1.2,0.3l-0.1,0.1l-14.6,1V62l-1.7,0.2l-1.9,2.3L26.8,66l-0.2,0.1
		h-1L25.6,66h-0.4l-0.3-0.1l-0.7-0.4L24,65.3l-0.4,0.6l-0.1,0.2v0.1l-0.1,0.1l-0.1,0.2L23,66.8l-1.2,1.1l-0.5,0.2l-0.1,0.1l-0.7,0.3
		h-0.2l-0.5,0.2h-0.4l-0.1,0.1h-0.6l-0.1,0.1h-0.2l-13.6,1l2.3-3.1l0.1-0.1v-0.1l0.1-0.1l0.2-0.3l0.1-0.1l0.2-0.5v-0.1l3.4-8.6v-0.2
		l0.2-0.5v-0.2l0.1-0.1v-0.4l0.1-0.1v-0.2l-1.1-2.4L24.6,52h0.1l0.4,0.2h0.2l0.3,0.2h0.2l0.4,0.4l0.7,0.9l0.1,0.2l1.1-0.6l0.2-0.1
		h0.2l0.3-0.2h0.2l0.1-0.1l5.7-0.4l0.1-0.1h0.8l0.1,0.1h0.4l0.2,0.1h0.1l0.2,0.1l0.9,0.6l0.3-1.1l9.4-0.5l0.5,0.1l0.5,0.2l0.5,0.3
		l0.5,0.4l0.4,0.6l0.2,0.5L50,55L50,55.4v0.2l-0.1,0.1v0.2l2-2.5l-0.5-1.9l8.7-0.6l0.4,5.5l1-2.5v-0.2h0.1v-0.2h0.1v-0.4h-0.1
		l-0.4-2.2l9.2-0.7h1.5l0.2,0.1h0.1l0.5,0.1l0.6,0.4l0.7,0.6l0.5-0.4l0.6-0.5l1.7-0.5l0.1-0.1l6-0.4l0.1-0.1L83,49.2L83,49.2z"/>
	<path class="st317" d="M83.7,69.6l4.8,0.1l0.4-6.7l-4.8-0.2l-5.5,0.8l-0.5,0.2l-16.3,3.2h-4.6c-1.4-0.2-2.6-0.5-3.6-1.1l0.1,6.9
		c1,0.5,2.2,0.8,3.7,0.9l4.6-0.2L83.7,69.6L83.7,69.6z M86,67.8l-1.5,0.1l-0.2,0.8h-0.5l-0.5,0.1l1.5-4.8l1.4-0.1l1.1,4.7l-0.5,0.1
		h-0.6L86,67.8L86,67.8z M68.7,66.8l0.9-0.2l1.6,2l0.2,0.3l0.3,0.5l-0.4-3.2l1-0.2l0.4,4.6l-1,0.2l-1.5-2L70,68.4L69.7,68l0.2,0.5
		v0.4l0.2,2.2l-1,0.2L68.7,66.8L68.7,66.8z M65.6,68.2l-0.4-0.1c-0.2,0-0.3,0.1-0.3,0.2c-0.1,0.1-0.1,0.2-0.1,0.3l0.1,0.2
		c0.1,0,0.2,0.1,0.4,0.2l0.1,0.1c0.4,0,0.7,0.2,0.8,0.4l0.2,0.3l0.1,0.5l-0.4,1.2l-0.5,0.4L65.1,72l-0.8-0.1l-0.6-0.5l0.4-1l0.5,0.4
		l0.5,0.1l0.4-0.2l0.1-0.3l-0.1-0.4l-1.4-0.6l-0.2-0.8c0-0.5,0.1-0.8,0.4-1.1c0.2-0.3,0.5-0.5,0.9-0.5h0.5l0.5,0.3L66,68.4
		L65.6,68.2L65.6,68.2z M66.9,67.1l0.5-0.2l0.6-0.1l0.4,4.6l-1.1,0.2L66.9,67.1L66.9,67.1z M81,64.2l0.8,0.1l0.6,0.4l0.4,0.7l0.2,1
		L83,67.2l-0.4,0.9l-0.5,0.6L81.4,69l-0.7-0.1l-0.6-0.4l-0.4-0.8l-0.2-0.8c-0.1-0.3,0-0.7,0.1-0.9l0.3-0.8c0.1-0.3,0.3-0.5,0.5-0.7
		L81,64.2L81,64.2z M76.7,65l1.1-0.2l0.2,3.6l1.2-0.2l0.1,1.1L77,69.7L76.7,65L76.7,65z M73.8,65.6l1.2-0.2l1.7,4.3l-1,0.2l-0.3-0.8
		L74,69.4l-0.2,0.9l-0.5,0.1l-0.5,0.2L73.8,65.6L73.8,65.6z M58.9,68l2.3-0.2l0.1,1L60,69v0.8h0.6l0.6-0.1l0.1,1L60,70.8v0.8
		l1.4-0.1v1.1L59,72.8L58.9,68L58.9,68z M56.8,67.8l0.5,0.2l0.6,0.4l0.5,0.9l0.2,1.1l-0.2,1.1l-0.5,0.7l-0.6,0.2l-0.5,0.1l-0.6-0.1
		l-0.1-0.1l-0.8-0.1l-0.1-4.7L56.8,67.8L56.8,67.8z"/>
	<path class="st28" d="M84.5,67.8l1.5-0.1l0.2,0.8h0.6l0.5-0.1l-1.1-4.7l-1.4,0.1l-1.5,4.8l0.5-0.1h0.5L84.5,67.8L84.5,67.8z
		 M85.5,65.1v0.2l0.4,1.5l-0.6,0.1h-0.5l0.5-1.6l0.2-0.7L85.5,65.1L85.5,65.1z"/>
	<polygon class="st317" points="85.5,65.3 85.5,65.1 85.4,64.6 85.2,65.3 84.7,66.9 85.2,66.9 85.9,66.8 	"/>
	<polygon class="st28" points="69.7,66.5 68.7,66.8 69.1,71.3 70.1,71.1 69.9,68.9 69.9,68.5 69.7,68 70,68.4 70.2,68.7 71.7,70.8 
		72.7,70.6 72.3,66 71.3,66.2 71.7,69.4 71.4,68.9 71.3,68.6 	"/>
	<path class="st28" d="M65.3,68.1l0.4,0.1l0.4,0.2l0.2-0.8l-0.5-0.3h-0.5c-0.4,0-0.7,0.2-0.9,0.5c-0.3,0.2-0.4,0.6-0.4,1.1l0.2,0.8
		l1.4,0.6l0.1,0.4l-0.1,0.3L65.1,71l-0.5-0.1l-0.5-0.4l-0.4,1l0.6,0.5l0.8,0.1l0.6-0.2l0.5-0.4l0.4-1.2l-0.1-0.5l-0.2-0.3
		c-0.2-0.2-0.4-0.3-0.8-0.4L65.3,69c-0.2-0.1-0.3-0.1-0.4-0.2l-0.1-0.2c-0.1-0.2,0-0.3,0.1-0.3C65,68.2,65.1,68.1,65.3,68.1
		L65.3,68.1z"/>
	<polygon class="st28" points="67.5,66.9 66.9,67.1 67.4,71.6 68.4,71.4 68.1,66.8 	"/>
	<path class="st28" d="M81.8,64.3L81,64.2l-0.6,0.3c-0.3,0.2-0.4,0.4-0.5,0.7L79.5,66c-0.1,0.3-0.1,0.6-0.1,0.9l0.2,0.8l0.4,0.8
		l0.6,0.4l0.7,0.1l0.7-0.2l0.5-0.6l0.4-0.9l0.1-0.9l-0.2-1l-0.4-0.7L81.8,64.3L81.8,64.3z M80.6,67.7l-0.3-0.9c0-0.4,0.1-0.7,0.2-1
		c0.1-0.3,0.3-0.5,0.6-0.5c0.2-0.1,0.4,0,0.6,0.3l0.3,0.9l-0.2,1L81.3,68C81,68,80.8,67.9,80.6,67.7L80.6,67.7z"/>
	<path class="st317" d="M80.3,66.8l0.3,0.9c0.1,0.2,0.4,0.3,0.7,0.3l0.6-0.5l0.2-1l-0.3-0.9c-0.2-0.3-0.4-0.4-0.6-0.3
		c-0.3,0-0.5,0.2-0.6,0.5C80.4,66,80.3,66.4,80.3,66.8L80.3,66.8z"/>
	<polygon class="st28" points="77.8,64.9 76.7,65 77,69.7 79.3,69.3 79.2,68.2 78,68.4 	"/>
	<path class="st28" d="M75,65.4l-1.2,0.2l-0.9,5l0.5-0.2l0.5-0.1l0.2-0.9l1.4-0.3l0.3,0.8l1-0.2L75,65.4L75,65.4z M74.1,68.4
		l0.2-1.6v-0.3l0.1-0.3l0.1,0.4l0.6,1.7L74.1,68.4L74.1,68.4z"/>
	<polygon class="st317" points="74.4,66.8 74.1,68.4 75.1,68.3 74.5,66.6 74.5,66.2 74.4,66.5 	"/>
	<polygon class="st28" points="61.2,67.8 58.9,68 59,72.8 61.4,72.5 61.4,71.5 60,71.6 60,70.8 61.3,70.7 61.2,69.7 60.6,69.7 
		60,69.7 60,69 61.3,68.8 	"/>
	<path class="st28" d="M57.3,68l-0.5-0.2l-1.5-0.2l0.1,4.7l0.8,0.1l0.1,0.1l0.6,0.1l0.5-0.1l0.6-0.2l0.5-0.7l0.2-1.1l-0.2-1.1
		l-0.5-0.9L57.3,68L57.3,68z M56.3,71.5v-2.6h0.2c0.4,0.1,0.6,0.2,0.8,0.5l0.3,1l-0.3,1l-0.8,0.2L56.3,71.5L56.3,71.5z"/>
	<path class="st317" d="M56.3,68.9v2.6h0.2l0.8-0.2l0.3-1l-0.3-1c-0.2-0.3-0.5-0.4-0.8-0.5L56.3,68.9L56.3,68.9z"/>
	<polygon class="st316" points="71.8,63.7 71.1,63.3 71,63.3 70.7,63.6 69.5,64.2 68.8,64.3 68.6,64.3 67.6,64.5 54.8,65.4 
		56.2,65.8 61,65.9 72.2,63.9 72,63.8 	"/>
	<path class="st316" d="M83,49.3L83,49.3l-0.3-0.1l-0.1,0.1l-6,0.4l-0.1,0.1l-1.7,0.5l-0.6,0.5l-0.5,0.4l-0.7-0.6l-0.6-0.4l-0.5-0.1
		H72L71.9,50h-1.5l-9.2,0.7l0.4,2.2h0.1v0.4h-0.1v0.2h-0.1v0.2l-1,2.5L60,50.8l-8.7,0.6l0.5,1.9l-2,2.5v-0.2l0.1-0.1v-0.2L50,55
		l-0.2-1.1l-0.2-0.5l-0.4-0.6l-0.5-0.4l-0.5-0.3l-0.5-0.2l-0.5-0.1l-9.4,0.5l-0.3,1.1l-0.9-0.6l-0.2-0.1h-0.1l-0.2-0.1h-0.4
		l-0.1-0.1h-0.8l-0.1,0.1l-5.7,0.4L29.1,53h-0.2l-0.3,0.2h-0.2l-0.2,0.1L27,53.8l-0.1-0.2l-0.7-0.9l-0.4-0.4h-0.2l-0.3-0.2h-0.2
		L24.7,52h-0.1l-14.2,0.9l1.1,2.4v0.2l-0.1,0.1v0.4l-0.1,0.1v0.2l-0.2,0.5V57l-3.4,8.6v0.1l-0.2,0.5l-0.1,0.1l-0.2,0.3l-0.1,0.1v0.1
		l-0.1,0.1l-2.3,3.1l13.6-1h0.2l0.1-0.1h0.6l0.1-0.1h0.4l0.5-0.2h0.2l0.7-0.3l0.1-0.1l0.5-0.2l1.2-1.1l0.4-0.4l0.1-0.2l0.1-0.1v-0.1
		l0.1-0.2l0.4-0.6l0.2,0.2l0.7,0.4l0.3,0.1h0.4l0.1,0.1h1l0.2-0.1l23.4-1.6l1.9-2.3l1.7-0.2v2.2l14.6-1l0.1-0.1l1.2-0.3l0.7-0.4
		l0.3-0.3l0.2-0.2l0.2-0.2l0.2,0.3l0.5,0.5l0.5,0.2l0.6,0.1l7.7-0.6l0.2-0.1v0.1l9.5-0.5l0.1-0.1h0.3l0.2-0.1h0.1l0.1-0.1h0.2l1-0.6
		l0.2-0.1l0.8-0.8l0.5-0.8l1.5-3.8v-0.2l0.1-0.1v-0.2l0.1-0.6v-0.5l1,0.2l1.5-5.9l-9.4,0.7h-0.2l-0.6,0.1L87.8,49h-0.2l-0.7,0.3
		h-0.1l-0.2,0.1l-0.1,0.2h-0.1L85.7,50l-0.2,0.2l-0.1,0.2L85.1,50l-0.8-0.5l-0.6-0.2L83,49.3L83,49.3z M95.8,50.1l-0.4,1.8L94,51.8
		l-4.3,0.4l-0.2,0.2l-0.3,0.8l0.5,0.3l2.8-0.2l1,0.2l0.3,1l-1.6,4.3l-0.6,0.6l-0.8,0.5l-7.6,0.6l0.5-2l0.7,0.2l4-0.2l0.5-0.2
		l0.3-0.2l0.2-0.8c0.1-0.3-0.1-0.4-0.4-0.3l-2.7,0.2c-1.2,0-1.7-0.4-1.6-1.2l1.7-4.3l0.8-0.6c0.2-0.2,0.5-0.3,0.8-0.4l1-0.2
		L95.8,50.1L95.8,50.1z M84.4,52.9l-0.2,0.8l-2.3,5.7L81.4,60l-0.9,0.4l-1.3,0.2l-4.7,0.4h-1.1l-0.6-0.3c-0.4-0.4-0.5-0.8-0.5-1.4
		l2.1-5.7l0.6-1.1c0.2-0.3,0.4-0.5,0.7-0.7l2-0.5l5.6-0.3l0.6,0.3C84.3,51.7,84.5,52.2,84.4,52.9L84.4,52.9z M71.6,51.9l0.6,0.2
		l0.5,0.6l0.2,0.8l-0.2,0.8l-2.2,5.7l-0.7,0.8l-0.8,0.5l-1.3,0.2l-7.7,0.5l0.4-0.8l3-7.8l-0.1-1.1L71.6,51.9L71.6,51.9z M13.2,55.5
		l-0.2-1l11.1-0.7l0.8,0.2l0.6,0.9l0.2,1.2l-0.3,1.1l-3.1,7.8l-0.8,1l-1.1,0.7l-1.8,0.3l-10,0.8L9,67.1l4.1-10.5L13.2,55.5
		L13.2,55.5z M53.6,53.5l-0.1-0.5l4.9-0.4l0.6,7.8l0.2,0.9l0.3,0.6l-4,0.3v-2.3l-4.2,0.4l-1.8,2.3L46.2,63l7.2-8.9L53.6,53.5
		L53.6,53.5z M47.7,53.8l0.5,0.6l0.1,0.8l-0.2,0.6l-0.9,2.4l-0.3,0.3l-1.3,0.4h-0.2l0.2,3l0.2,0.6L46,63l-3.9,0.3l-0.3-3.8h-0.9
		l-1.1,2.7l-0.2,0.8v0.5l-4.2,0.3l0.9-1.7l2.5-6.8l0.3-1.4l7.9-0.4L47.7,53.8L47.7,53.8z M35.7,54.4l0.7,0.3
		c0.4,0.3,0.6,0.8,0.4,1.4L36.7,57l-1.7,4.7l-0.5,1l-0.6,0.6l-0.9,0.5L31.7,64l-5.9,0.3L25.2,64c-0.4-0.4-0.6-0.8-0.5-1.4l0.2-0.9
		l2.4-5.8l0.8-0.6c0.5-0.4,1.2-0.5,2-0.5L35.7,54.4L35.7,54.4z"/>
	<path class="st28" d="M95.4,51.9l0.4-1.8l-7,0.5l-1,0.2c-0.3,0-0.6,0.2-0.8,0.4l-0.8,0.6l-1.7,4.3c-0.1,0.9,0.4,1.3,1.6,1.2
		l2.7-0.2c0.3-0.1,0.5,0.1,0.4,0.3l-0.2,0.8l-0.3,0.2l-0.5,0.2l-4,0.2l-0.7-0.2l-0.5,2l7.6-0.6l0.8-0.5l0.6-0.6l1.6-4.3l-0.3-1
		l-1-0.2l-2.8,0.2l-0.5-0.3l0.3-0.8l0.2-0.2l4.3-0.4L95.4,51.9L95.4,51.9z"/>
	<path class="st28" d="M84.2,53.7l0.2-0.8c0.1-0.7-0.1-1.1-0.5-1.4l-0.6-0.3l-5.6,0.3l-2,0.5c-0.3,0.1-0.5,0.4-0.7,0.7l-0.6,1.1
		l-2.1,5.7c-0.1,0.6,0.1,1,0.5,1.4l0.6,0.3h1.1l4.7-0.4l1.3-0.2l0.9-0.4l0.5-0.6L84.2,53.7L84.2,53.7z M78.9,52.9l1.3-0.1
		c0.4-0.1,0.7,0.1,0.6,0.4l-0.2,0.5l-1.8,4.6l-0.4,0.8l-0.6,0.2L76,59.3l-0.1-0.4l0.1-0.4l1.8-4.6l0.4-0.8L78.9,52.9L78.9,52.9z"/>
	<path class="st316" d="M80.2,52.8l-1.3,0.1l-0.8,0.2l-0.4,0.8L76,58.5l-0.1,0.4l0.1,0.4l1.9-0.1l0.6-0.2l0.4-0.8l1.8-4.6l0.2-0.5
		C80.9,52.9,80.7,52.7,80.2,52.8L80.2,52.8z"/>
	<path class="st28" d="M72.2,52.1l-0.6-0.2l-8.4,0.5l0.1,1.1l-3,7.8l-0.4,0.8l7.7-0.5l1.3-0.2l0.8-0.5l0.7-0.8l2.2-5.7l0.2-0.8
		l-0.2-0.8L72.2,52.1L72.2,52.1z M68.5,53.5l0.5,0.1l0.1,0.4l-0.1,0.4l-1.7,4.5l-0.5,1l-0.8,0.2l-1.8,0.1l2.4-6.5L68.5,53.5
		L68.5,53.5z"/>
	<polygon class="st316" points="69.1,53.6 68.5,53.5 66.7,53.7 64.3,60.2 66.1,60.1 66.8,59.9 67.4,58.9 69.1,54.4 69.1,54 	"/>
	<path class="st28" d="M13.1,54.5l0.2,1l-0.2,1.1L9,67.1l-0.4,0.8l10-0.8l1.8-0.3l1.1-0.7l0.8-1l3.1-7.8l0.3-1.1L25.6,55l-0.6-0.9
		l-0.8-0.2L13.1,54.5L13.1,54.5z M17,56.4l3.4-0.3l0.6,0.1l0.2,0.4l-2.3,6.2L18.2,64l-1,0.3l-3.3,0.2L17,56.4L17,56.4z"/>
	<path class="st316" d="M20.4,56.1L17,56.4l-3,8.1l3.3-0.2l1-0.3l0.7-1.2l2.3-6.2L21,56.2L20.4,56.1L20.4,56.1z M18.1,58h0.8
		l-1.8,4.5l-0.8,0.1L18.1,58L18.1,58z"/>
	<polygon class="st318" points="18.9,58 18.1,58 16.4,62.6 17.2,62.5 	"/>
	<path class="st28" d="M53.5,53.1l0.1,0.5l-0.1,0.5L46.2,63l3.4-0.2l1.8-2.3l4.2-0.4v2.3l4-0.3l-0.3-0.6l-0.2-0.9l-0.6-7.8
		L53.5,53.1L53.5,53.1z M55.6,58.3l-2.9,0.2l3-4.1L55.6,58.3L55.6,58.3z"/>
	<polygon class="st316" points="52.7,58.6 55.6,58.3 55.7,54.5 	"/>
	<path class="st28" d="M48.2,54.4l-0.5-0.6l-0.5-0.2l-7.9,0.4l-0.3,1.4l-2.5,6.8l-0.9,1.7l4.2-0.3v-0.5l0.2-0.8l1.1-2.7h0.9l0.3,3.8
		L46,63l-0.3-0.4l-0.2-0.6l-0.2-3h0.2l1.3-0.4l0.3-0.3l0.9-2.4l0.2-0.6L48.2,54.4L48.2,54.4z M44.2,55.2l0.5,0.4l-0.1,0.3l-0.4,1
		L44,57.3l-0.7,0.2l-1.7,0.1l0.9-2.3L44.2,55.2L44.2,55.2z"/>
	<polygon class="st316" points="44.7,55.6 44.2,55.2 42.4,55.4 41.5,57.6 43.3,57.5 44,57.3 44.3,56.9 44.6,55.9 	"/>
	<path class="st28" d="M36.4,54.7l-0.7-0.3l-5.6,0.3c-0.9,0-1.5,0.2-2,0.5l-0.8,0.6L25,61.7l-0.2,0.9c-0.1,0.6,0.1,1.1,0.5,1.4
		l0.5,0.2l5.9-0.3l1.2-0.2l0.9-0.5l0.6-0.6l0.5-1l1.7-4.7l0.2-0.8C37,55.5,36.8,55,36.4,54.7L36.4,54.7z M33.3,56.7L33.2,57
		l-1.8,4.6L31,62.4l-0.5,0.2l-1.9,0.1l-0.2-0.4l1.9-5.1l0.5-0.8c0.1-0.2,0.3-0.2,0.7-0.2l1.3-0.1c0.4-0.1,0.7,0,0.7,0.3L33.3,56.7
		L33.3,56.7z"/>
	<path class="st316" d="M33.2,57l0.2-0.3l0.1-0.3c0-0.3-0.2-0.4-0.7-0.3l-1.3,0.1c-0.4,0-0.6,0.1-0.7,0.2l-0.5,0.8l-1.9,5.1l0.2,0.4
		l1.9-0.1l0.5-0.2l0.4-0.8L33.2,57L33.2,57z"/>
	<path class="st316" d="M95.3,59.2l-1.4,2.1l-2.1,1.1l-1.9,0.4l-0.7,7.8l-4.9-0.1l-22.9,4h-4.9c-1.5-0.2-2.7-0.6-3.8-1.3l-0.1-10
		h-0.1l-1.1,1.4l0.8,0.8L34,66.8l1,1.1c1.1,1,2.3,1.9,3.6,2.6c1.3,0.6,2.7,1,4.1,1.2l8.4,1.6c1.2,0.4,2.4,1,3.5,1.7l3.1,2.8l1.8,2.5
		l1.1,2.8c0.2,0.9,0.1,1.8-0.2,2.5c-0.5,0.1-1.2-0.3-2-0.9l-2-1.4c-0.8-0.5-1.6-0.9-2.5-1.3L50.6,81L46,81.5
		c-1.2,0.5-2.1,1.3-2.7,2.2c-0.6,0.9-0.9,2-0.8,3.2c0,1.2,0.4,2.5,1.1,3.8c0.7,1.3,1.8,2.6,3.2,3.9l0.7,1.1l-0.2,0.8
		c-1.2,0.2-2.3,0.2-3.3,0l-2.8-1.3l-2.2-2l-1.5-2.2l-0.8-1.8c-0.3-1.3-0.5-2.8-0.4-4.3c0.1-1.6,0.5-3.2,1.1-5
		c-2.4-0.8-4.7-1.9-6.8-3.4c-2.1-1.5-4-3.3-5.6-5.3l-2.1-3L22.3,69l-0.8,0.4l-0.7,0.2h-0.1l-0.1,0.1h-0.1l-0.9,0.2h-0.1L19.4,70
		h-0.5L18.8,70h-0.2L7.7,70.8l1.6,3c2.1,3.5,4.5,6.7,7.4,9.6c2.8,2.8,6,5.3,9.6,7.4c3.4,2,7.2,3.6,11.2,4.7c4,1.1,8.2,1.7,12.5,1.7
		c4.3,0,8.5-0.6,12.5-1.7c4-1.1,7.8-2.7,11.2-4.7c3.5-2.1,6.7-4.5,9.6-7.4c2.8-2.9,5.3-6.1,7.4-9.6c2-3.5,3.6-7.2,4.7-11.2l1.4-7.5
		L95.3,59.2L95.3,59.2z"/>
	<path class="st316" d="M47.3,44.3l-4.2,1.2c-1.5,0.6-2.9,1.3-4.2,2.3l-4,3.5H36l0.5,0.1l0.4,0.2l0.2-0.5l7.2-0.4l2-3.8L47.3,44.3
		L47.3,44.3z"/>
	<path class="st319" d="M49.2,43.8l-1.3,4.1l-1.5,2.7h1.4l0.2,0.1l1.5-2.1c1.1-1.6,1.9-3.4,2.5-5.4L49.2,43.8L49.2,43.8z"/>
	<polygon class="st319" points="56.3,42.8 53.2,43.2 51.7,46.9 49.3,50.4 48.8,51 49.3,51.2 49.9,51.7 50.3,52.3 49.9,50.3 
		52.3,50.2 54.5,47.1 	"/>
	<path class="st315" d="M51.1,73.2l-8.4-1.6c-1.4-0.2-2.8-0.6-4.1-1.2c-1.3-0.7-2.5-1.6-3.6-2.6l-1-1.1l-8.4,0.5l-1-0.2
		c0.7,1.2,1.5,2.5,2.6,3.7c1.3,1.5,2.9,3,4.9,4.5l6.8,4.3l-0.7,0.2c-1.8-0.5-3.4-1.2-4.9-2.1c-1.6-0.9-3-1.9-4.3-3l-3.3-3.4
		l-2.1-3.4l-0.2,0.3l-0.3,0.2l2.1,3c1.6,2,3.4,3.8,5.6,5.3c2.1,1.5,4.3,2.6,6.8,3.4c-0.7,1.7-1,3.4-1.1,5c-0.1,1.6,0,3,0.4,4.3
		l0.8,1.8l1.5,2.2l2.2,2l2.8,1.3c1,0.2,2.1,0.2,3.3,0l0.2-0.8l-0.7-1.1c-1.4-1.3-2.5-2.6-3.2-3.9c-0.8-1.3-1.1-2.6-1.1-3.8
		c-0.1-1.2,0.2-2.3,0.8-3.2c0.6-1,1.5-1.7,2.7-2.2l4.6-0.5l3.2,0.9c0.9,0.3,1.8,0.8,2.5,1.3l2,1.4c0.9,0.7,1.5,1,2,0.9
		c0.3-0.8,0.4-1.6,0.2-2.5l-1.1-2.8l-1.8-2.5l-3.1-2.8C53.5,74.2,52.3,73.6,51.1,73.2L51.1,73.2z M38,80.1l1.4,0.2
		c-0.7,2.8-0.9,5.3-0.6,7.5c0.2,2.2,1.1,4,2.4,5.5c1.3,1.5,3.2,2.5,5.8,3.2l-3.8-0.6c-1.1-0.4-2.1-1.1-2.9-1.8
		c-0.9-0.8-1.6-1.7-2.1-2.7c-0.6-1.1-1-2.3-1.1-3.5c-0.2-1.2-0.2-2.5,0-3.8L38,80.1L38,80.1z M59.9,84.6c-1.7-1.7-3.5-3-5.2-3.7
		c-1.8-0.8-3.5-1.2-5.2-1.1c-1.8,0-3.5,0.5-5,1.4c1.3-1.1,2.6-1.9,3.8-2.2l3.5-0.3c1.1,0.2,2.1,0.6,3.1,1.1l2.7,2.1L59.9,84.6
		L59.9,84.6z"/>
	<path class="st317" d="M39.4,80.2L38,80.1l-1,4c-0.2,1.3-0.2,2.6,0,3.8c0.2,1.2,0.5,2.4,1.1,3.5c0.6,1,1.3,1.8,2.1,2.7
		c0.8,0.8,1.8,1.4,2.9,1.8l3.8,0.6c-2.5-0.7-4.5-1.7-5.8-3.2c-1.4-1.5-2.2-3.4-2.4-5.5C38.5,85.6,38.7,83.1,39.4,80.2L39.4,80.2z"/>
	<path class="st317" d="M54.6,80.9c1.8,0.8,3.5,2,5.2,3.7l-2.4-2.6l-2.7-2.1c-1-0.6-2.1-0.9-3.1-1.1l-3.5,0.3
		c-1.2,0.3-2.5,1.1-3.8,2.2c1.6-0.9,3.3-1.4,5-1.4C51.1,79.8,52.8,80.1,54.6,80.9L54.6,80.9z"/>
	<path class="st317" d="M23.6,67.7L23.6,67.7l2.1,3.5l3.3,3.4c1.3,1.1,2.7,2,4.3,3c1.5,0.9,3.2,1.6,4.9,2.1l0.7-0.2L32,75.3
		c-2-1.5-3.6-3-4.9-4.5c-1.1-1.3-1.9-2.5-2.6-3.7l-0.5-1L23.6,67.7L23.6,67.7z"/>
</g>
</svg>
