<?xml version="1.0" encoding="utf-8"?>
<!-- Generator: Adobe Illustrator 19.2.1, SVG Export Plug-In . SVG Version: 6.00 Build 0)  -->
<svg version="1.1" id="Capa_1" xmlns="http://www.w3.org/2000/svg" xmlns:xlink="http://www.w3.org/1999/xlink" x="0px" y="0px"
	 viewBox="0 0 100 100" style="enable-background:new 0 0 100 100;" xml:space="preserve">
<style type="text/css">
	.st0{fill:url(#path34_4_);}
	.st1{fill:url(#path890_1_);}
	.st2{fill:#FFE500;stroke:#000000;stroke-width:2.098;stroke-miterlimit:3.863;}
	.st3{fill:#DA020E;}
	.st4{fill:#FFE500;}
	.st5{clip-path:url(#SVGID_2_);}
	.st6{fill:none;stroke:#B54005;stroke-width:10;stroke-miterlimit:3.863;}
	.st7{fill:url(#path7506_1_);}
	.st8{fill:url(#path8794_1_);}
	.st9{fill:url(#path15846_1_);}
	.st10{fill:url(#path16274_1_);}
	.st11{fill:url(#path39821_1_);}
	.st12{fill:url(#path39847_1_);}
	.st13{fill:url(#path39878_1_);}
	.st14{fill:url(#path39888_1_);}
	.st15{fill:url(#path41035_1_);}
	.st16{fill:url(#path9646-8_1_);}
	.st17{fill:url(#path41092_1_);}
	.st18{fill:url(#path41094_1_);}
	.st19{fill:none;stroke:#000000;stroke-width:2.098;stroke-miterlimit:3.863;}
	.st20{fill:url(#path41152_1_);}
	.st21{fill:url(#path39854_1_);}
	.st22{fill:url(#path39874_1_);}
	.st23{fill:#9C824A;stroke:#9C824A;stroke-width:0.793;stroke-miterlimit:282;}
	.st24{fill:#023474;stroke:#023474;stroke-width:0.793;stroke-miterlimit:282;}
	.st25{fill:#FFFFFF;stroke:#FFFFFF;stroke-width:0.793;stroke-miterlimit:282;}
	.st26{fill:#EF0107;stroke:#EF0107;stroke-width:0.793;stroke-miterlimit:282;}
	.st27{fill:#DB0007;stroke:#DB0007;stroke-width:0.793;stroke-miterlimit:282;}
	.st28{fill:#FFFFFF;}
	.st29{fill:#9C824A;}
	.st30{fill:#EF0107;stroke:#EF0107;stroke-width:0.3115;stroke-miterlimit:282;}
	.st31{fill:#DB0007;stroke:#DB0007;stroke-width:0.3115;stroke-miterlimit:282;}
	.st32{fill:#DB0007;}
	.st33{fill:#FFFFFF;stroke:#FFFFFF;stroke-width:0.3115;stroke-miterlimit:282;}
	.st34{fill:#FFFFFF;stroke:#FFFFFF;stroke-width:0.554;stroke-miterlimit:3.864;}
	.st35{fill:#231F20;}
	.st36{fill:#00B6F1;stroke:#00B6F1;stroke-width:1.700000e-02;stroke-miterlimit:3.864;}
	.st37{fill:#EF3E2E;}
	.st38{fill:#BBBDBF;}
	.st39{fill:#F0B83D;}
	.st40{fill:#00B6F1;stroke:#FFFFFF;stroke-width:1.700000e-02;stroke-miterlimit:3.864;}
	.st41{fill:#001C58;}
	.st42{fill:#94BEE5;}
	.st43{fill:none;stroke:#7A003C;stroke-width:2.2437;stroke-miterlimit:6;}
	.st44{fill:#7A003C;}
	.st45{fill:#FFE600;}
	.st46{fill:#DBA111;}
	.st47{fill:#034694;}
	.st48{fill:#D1D3D4;}
	.st49{fill:#ED1C24;}
	.st50{fill:#6A7AB5;}
	.st51{fill:none;}
	.st52{fill:#274488;}
	.st53{fill:#004798;stroke:#004798;stroke-width:9.375000e-02;}
	.st54{fill:#FFFFFF;stroke:#FFFFFF;stroke-width:9.375000e-02;}
	.st55{fill:#FABC00;stroke:#FABC00;stroke-width:9.375000e-02;}
	.st56{fill:none;stroke:#FFFFFF;stroke-width:7.865;stroke-miterlimit:3.864;}
	.st57{fill:none;stroke:#FFFFFF;stroke-width:7.865;stroke-miterlimit:12;}
	.st58{fill:none;stroke:#FFFFFF;stroke-width:7.865;stroke-miterlimit:22;}
	.st59{fill:none;stroke:#FFFFFF;stroke-width:7.865;stroke-miterlimit:6;}
	.st60{fill:#00A398;}
	.st61{fill:#D00027;}
	.st62{fill:none;stroke:#FFFFFF;stroke-width:17.3907;stroke-miterlimit:3.864;}
	.st63{fill:none;stroke:#FFFFFF;stroke-width:13.1107;stroke-miterlimit:3.864;}
	.st64{fill:#FEF667;}
	.st65{fill:#D00027;stroke:#D00027;}
	.st66{fill:#5299C6;}
	.st67{fill:#60223B;}
	.st68{fill:#F7C240;}
	.st69{fill:#292D6B;}
	.st70{fill:#1B458F;}
	.st71{fill:#C4122E;}
	.st72{fill:#27409B;}
	.st73{clip-path:url(#SVGID_4_);}
	.st74{fill:#F4F4F4;}
	.st75{fill:#D3D2D2;}
	.st76{fill:#A7A5A6;}
	.st77{fill:#091453;}
	.st78{fill:none;stroke:#FFFFFF;stroke-width:6.6301;}
	.st79{clip-path:url(#SVGID_6_);}
	.st80{fill:#724314;}
	.st81{fill:#240B08;}
	.st82{fill:#018B4B;}
	.st83{fill:#A6181D;}
	.st84{fill:#592D09;}
	.st85{fill:#FFCE65;}
	.st86{fill:#5CBFEB;}
	.st87{fill:none;stroke:#000000;stroke-width:10;}
	.st88{fill:none;stroke:#000000;}
	.st89{fill:#B2B2B2;}
	.st90{fill:none;stroke:#000000;stroke-width:0.3;}
	.st91{fill:#00A650;stroke:#000000;stroke-width:2;}
	.st92{fill:#241F20;stroke:#241F20;stroke-width:9.375000e-02;}
	.st93{fill:#FFF200;stroke:#FFF200;stroke-width:9.375000e-02;}
	.st94{fill:#A68A26;}
	.st95{fill:none;stroke:#A68A26;stroke-width:4.792100e-02;stroke-miterlimit:3.8637;}
	.st96{fill:#211E1E;}
	.st97{fill:none;stroke:#211E1E;stroke-width:4.792100e-02;stroke-miterlimit:3.8637;}
	.st98{fill:#EB172B;}
	.st99{fill:none;stroke:#EB172B;stroke-width:4.792100e-02;stroke-miterlimit:3.8637;}
	.st100{fill:#A68A26;stroke:#A68A26;stroke-width:4.792100e-02;stroke-miterlimit:3.8637;}
	.st101{fill:#D1BF7F;}
	.st102{fill:none;stroke:#D1BF7F;stroke-width:4.792100e-02;stroke-miterlimit:3.8637;}
	.st103{fill:none;stroke:#FFFFFF;stroke-width:4.792100e-02;stroke-miterlimit:3.8637;}
	.st104{fill:#EB172B;stroke:#EB172B;stroke-width:4.792100e-02;stroke-miterlimit:3.8637;}
	.st105{fill:#ED2127;}
	.st106{fill:#FBEE23;}
	.st107{stroke:#000000;}
	.st108{fill:#CF1F44;}
	.st109{fill:#1B449C;}
	.st110{fill:#E03A3E;}
	.st111{fill:#E03A3E;stroke:#E03A3E;stroke-width:0.6565;}
	.st112{fill:none;stroke:#1B449C;stroke-width:0.7493;}
	.st113{fill:none;stroke:#1B449C;stroke-width:0.7567;}
	.st114{fill:#1B449C;stroke:#1B449C;stroke-width:0.6274;}
	.st115{fill:#1B449C;stroke:#1B449C;stroke-width:0.6755;}
	.st116{fill:#2E6ABD;stroke:#2E6ABD;stroke-width:0.617;}
	.st117{fill:#FFFFFF;stroke:#FFFFFF;stroke-width:0.6175;}
	.st118{fill:#ED1248;}
	.st119{fill:#2E6ABD;}
	.st120{fill:#FDE100;}
	.st121{fill:#CC0000;}
	.st122{fill:#211E1F;}
	.st123{fill:#ED1A3B;}
	.st124{fill:#00AEEF;}
	.st125{fill:#FFC40D;}
	.st126{fill:#22B24C;}
	.st127{fill:#FFC20E;}
	.st128{fill:#0A3F86;}
	.st129{fill:#005CA9;}
	.st130{fill:#FFE000;}
	.st131{fill:#E2001A;}
	.st132{opacity:0;}
	.st133{opacity:0;fill:#FFFFFF;}
	.st134{fill:#FFFFFF;stroke:#000000;}
	.st135{fill:#0060A9;}
	.st136{fill:#E32219;}
	.st137{fill:#FFED00;}
	.st138{fill:#1D9053;}
	.st139{fill:#52A600;}
	.st140{fill:#EE2523;}
	.st141{fill:#F7D117;}
	.st142{fill:#171796;}
	.st143{fill:#009959;}
	.st144{fill:#D42E12;}
	.st145{fill:#703824;}
	.st146{fill:#E5254E;}
	.st147{fill:#8AC3EE;}
	.st148{fill:#B19221;}
	.st149{fill:#F5C03E;}
	.st150{fill:#FF1119;}
	.st151{fill:#1E6BC0;}
	.st152{fill:#B4742A;}
	.st153{fill:#371B02;}
	.st154{fill:url(#SVGID_7_);}
	.st155{fill:url(#SVGID_8_);}
	.st156{fill:url(#SVGID_9_);}
	.st157{fill:url(#SVGID_10_);}
	.st158{fill:url(#SVGID_11_);}
	.st159{fill:url(#SVGID_12_);}
	.st160{fill:url(#SVGID_13_);}
	.st161{fill:url(#SVGID_14_);}
	.st162{fill:url(#SVGID_15_);}
	.st163{fill:url(#SVGID_16_);}
	.st164{fill:#EB2626;}
	.st165{fill:#E9C32C;}
	.st166{fill:#D9D9D9;}
	.st167{fill:#009C5E;}
	.st168{fill:#1C75BC;}
	.st169{fill:#611D5C;}
	.st170{fill:#E2B900;}
	.st171{fill:#004B95;}
	.st172{fill:#A4234B;}
	.st173{fill:#DB2F36;}
	.st174{fill:#FFDF00;}
	.st175{fill:#A38D44;}
	.st176{fill:#57175E;}
	.st177{fill:#AFDCFD;}
	.st178{fill:#0090C6;}
	.st179{fill:#DB5232;}
	.st180{fill:#23C1E0;}
	.st181{fill:#F1A92A;}
	.st182{fill:#167FB6;}
	.st183{fill:#FED75D;}
	.st184{fill:#378CBF;}
	.st185{fill:#3E9692;}
	.st186{fill:#E67F29;}
	.st187{fill:#D8B43C;}
	.st188{fill:#EF3B33;}
	.st189{fill:#24923D;}
	.st190{opacity:6.000001e-02;fill:#101010;enable-background:new    ;}
	.st191{fill:#00529F;}
	.st192{fill:#EE324E;}
	.st193{fill:#FEBE10;}
	.st194{fill:#143C8B;}
	.st195{fill:#FFE24A;}
	.st196{fill:#EC1D24;}
	.st197{fill:#E6A514;}
	.st198{fill:#FFDF1C;}
	.st199{fill:#EE3524;}
	.st200{fill:#B23428;}
	.st201{fill:#D18816;}
	.st202{fill:#0097D7;}
	.st203{fill:#ED1C23;}
	.st204{fill:#E30613;}
	.st205{fill:#FFE400;}
	.st206{fill:#C51A1B;}
	.st207{clip-path:url(#SVGID_19_);}
	.st208{clip-path:url(#SVGID_20_);fill:none;stroke:#000000;stroke-width:0.8131;stroke-miterlimit:3.864;}
	.st209{fill:#0093D5;}
	.st210{fill:#004B9D;}
	.st211{fill:#FCC24F;}
	.st212{fill:#009545;}
	.st213{fill:#0072BB;}
	.st214{fill:#C4974E;}
	.st215{fill:url(#path1292_1_);}
	.st216{fill:#004996;}
	.st217{fill:#FFE667;}
	.st218{fill:none;stroke:#005187;stroke-width:0.153;stroke-miterlimit:3.864;}
	.st219{fill:#005187;}
	.st220{clip-path:url(#SVGID_22_);}
	.st221{clip-path:url(#SVGID_24_);fill:none;stroke:#000000;stroke-width:0.296;stroke-miterlimit:3.864;}
	.st222{clip-path:url(#SVGID_26_);fill:#FFE667;}
	.st223{clip-path:url(#SVGID_28_);fill:none;stroke:#000000;stroke-width:8.300000e-02;stroke-miterlimit:3.864;}
	.st224{fill:none;stroke:#000000;stroke-width:0.153;stroke-miterlimit:3.864;}
	.st225{clip-path:url(#SVGID_30_);fill:#E70005;}
	.st226{clip-path:url(#SVGID_32_);fill:none;stroke:#E70005;stroke-width:0.296;stroke-miterlimit:3.864;}
	.st227{clip-path:url(#SVGID_34_);fill:#E70005;}
	.st228{clip-path:url(#SVGID_36_);fill:none;stroke:#E70005;stroke-width:0.296;stroke-miterlimit:3.864;}
	.st229{clip-path:url(#SVGID_38_);fill:#E70005;}
	.st230{clip-path:url(#SVGID_40_);fill:none;stroke:#E70005;stroke-width:0.296;stroke-miterlimit:3.864;}
	.st231{clip-path:url(#SVGID_42_);fill:#E70005;}
	.st232{clip-path:url(#SVGID_44_);fill:none;stroke:#E70005;stroke-width:0.296;stroke-miterlimit:3.864;}
	.st233{fill:#E70005;}
	.st234{fill:none;stroke:#000000;stroke-width:0.141;stroke-miterlimit:3.864;}
	.st235{fill:#00276D;}
	.st236{fill:#C49308;}
	.st237{fill:#179D33;}
	.st238{fill:#999999;}
	.st239{fill:#FF0000;}
	.st240{fill:#E31837;}
	.st241{fill:#06357A;}
	.st242{fill:#B4053F;}
	.st243{fill:#DCA43E;}
	.st244{fill:#005CA5;}
	.st245{fill:#FAC400;}
	.st246{fill:#004083;}
	.st247{fill:#A95932;}
	.st248{fill:none;stroke:#000000;stroke-width:1.2215;}
	.st249{fill:#E62627;}
	.st250{fill:#00458C;}
	.st251{fill:#E11B22;}
	.st252{fill:#00AB4E;}
	.st253{fill:#F47920;}
	.st254{fill:#C7C8CA;}
	.st255{fill:#E11515;}
	.st256{fill:#A4965F;}
	.st257{fill:#E51636;}
	.st258{fill:#EACC00;}
	.st259{fill:#4F846B;}
	.st260{fill:#E22227;}
	.st261{fill:#FAE700;}
	.st262{fill:url(#SVGID_45_);}
	.st263{fill:#666666;}
	.st264{fill:#FFF200;}
	.st265{fill:#00275D;}
	.st266{fill:#EF3E33;}
	.st267{fill:none;stroke:#00275D;stroke-width:2.632;}
	.st268{fill:#3F7652;}
	.st269{fill:#F1D261;}
	.st270{fill:#004D8F;}
	.st271{fill:#E7B137;stroke:#E7B137;stroke-miterlimit:10;}
	.st272{fill:#E7B137;}
	.st273{fill:#162577;}
	.st274{fill:#12692C;}
	.st275{fill:#D8141D;}
	.st276{fill:#AB830D;}
	.st277{fill:#0086CB;}
	.st278{fill:#001F42;}
	.st279{fill:#9A8F4A;}
	.st280{fill:#00559D;}
	.st281{fill:#FDDE00;}
	.st282{fill:#00924C;}
	.st283{fill:#233984;}
	.st284{fill:#FFD42E;}
	.st285{fill:#BA3733;}
	.st286{fill:#46714D;}
	.st287{fill:#221F1F;}
	.st288{fill:#00559E;}
	.st289{fill:#005C46;}
	.st290{fill:#FBC860;}
	.st291{fill:#D57C48;}
	.st292{fill:#040403;}
	.st293{fill:#4AB969;}
	.st294{fill:#8ED8F8;}
	.st295{fill:#FEC34E;}
	.st296{fill:#FFC95B;}
	.st297{fill:#00644C;}
	.st298{fill:#70B865;}
	.st299{fill:#CA6F44;}
	.st300{fill:#A8B8BE;}
	.st301{fill:#1C2C80;}
	.st302{fill:#E10321;}
	.st303{fill:none;stroke:#231F20;stroke-width:0.318;stroke-miterlimit:3.864;}
	.st304{fill:#D71920;}
	.st305{fill:#484749;}
	.st306{fill:#D9DBDC;}
	.st307{fill:#DF725A;}
	.st308{fill:#F2CABA;}
	.st309{fill:#E89C84;}
	.st310{fill:#264F99;}
	.st311{clip-path:url(#SVGID_47_);}
	.st312{fill:#161413;}
	.st313{fill:#ED1B26;}
	.st314{fill:#E60D2E;}
	.st315{fill:#FCD600;}
	.st316{fill:#004D91;}
	.st317{fill:#EAB412;}
	.st318{fill:#FDD31D;}
	.st319{fill:#EFB800;}
</style>
<g>
	<path id="path3381" class="st46" d="M100,50c0,27.6-22.4,50-50,50C22.4,100,0,77.6,0,50C0,22.4,22.4,0,50,0C77.6,0,100,22.4,100,50
		"/>
	<path id="path3383" class="st47" d="M98.3,50c0,26.7-21.6,48.3-48.3,48.3C23.3,98.3,1.7,76.7,1.7,50C1.7,23.3,23.3,1.7,50,1.7
		C76.7,1.7,98.3,23.3,98.3,50"/>
	<path id="path3385" class="st46" d="M84.4,50C84.4,69,69,84.4,50,84.4C31,84.4,15.6,69,15.6,50C15.6,31,31,15.6,50,15.6
		C69,15.6,84.4,31,84.4,50"/>
	<path id="path3387" class="st28" d="M83.4,50c0,18.4-15,33.4-33.4,33.4c-18.4,0-33.4-15-33.4-33.4s15-33.4,33.4-33.4
		C68.4,16.6,83.4,31.6,83.4,50"/>
	<path id="path3389" class="st46" d="M21.4,78.8c0.4,0.4,1.3,1.2,1.3,1.2l0.9-0.9l-2.6-2.5L20.6,77l-3.5,3.7l1.3,1.3
		c0,0,1.1-1.2,1.5-1.6c0.3,0.3,1.2,1.1,1.2,1.1l0.9-0.9c0,0-0.8-0.8-1.2-1.1C21.1,79.2,21.2,79,21.4,78.8"/>
	<path id="path3391" class="st46" d="M27.6,83c-0.1-0.7-0.5-1.3-1.1-1.7c-0.6-0.4-1.3-0.6-2-0.5c-0.8,0.1-1.4,0.6-1.9,1.2
		c-0.5,0.7-0.7,1.5-0.5,2.2c0.1,0.7,0.5,1.3,1.1,1.7c0.6,0.4,1.3,0.6,2,0.5c0.8-0.1,1.4-0.6,1.9-1.2c0.4-0.5,0.6-1.1,0.6-1.8
		C27.7,83.3,27.7,83.1,27.6,83 M23.9,84.9c-0.6-0.4-0.1-1.3,0.2-1.8c0.4-0.5,1-1.3,1.6-0.8c0.6,0.5,0,1.4-0.2,1.8
		C25.3,84.5,24.6,85.4,23.9,84.9z"/>
	<path id="path3393" class="st46" d="M31.7,84.4c-1.4-0.7-3-0.1-3.8,1.3c-0.4,0.7-0.4,1.5-0.2,2.3c0.2,0.7,0.7,1.2,1.4,1.6
		c0.7,0.3,1.4,0.4,2.1,0.2c0.7-0.2,1.3-0.8,1.7-1.5C33.6,86.7,33.1,85.1,31.7,84.4 M30.2,88.5c-0.2,0.1-0.3,0-0.5-0.1
		c-0.3-0.1-0.4-0.4-0.4-0.7c0-0.4,0.2-0.9,0.3-1.2c0.3-0.5,0.8-1.4,1.5-1.1c0.2,0.1,0.3,0.2,0.3,0.4c0.1,0.3,0,0.9-0.3,1.5
		C30.9,87.9,30.5,88.4,30.2,88.5z"/>
	<path id="path3395" class="st46" d="M34.6,86.4l-0.3,0.7c0,0,0.7,0.2,0.9,0.3c-0.3,0.7-1.4,4-1.4,4l1.7,0.6c0,0,1.2-3.3,1.4-4
		c0.2,0.1,0.9,0.3,0.9,0.3l0.4-1.2L34.8,86L34.6,86.4"/>
	<path id="path3397" class="st46" d="M41.8,88l-2.3-0.5L39.4,88l-1,4.9l2.4,0.5c0.8,0.2,1.3,0,1.5-0.2c0.4-0.2,0.6-0.6,0.7-1.1
		c0-0.1,0-0.2,0-0.4c0-0.3-0.1-0.6-0.3-0.9c0.3-0.2,0.5-0.5,0.5-0.9c0-0.1,0-0.2,0-0.3C43.3,89,42.9,88.2,41.8,88 M41.1,91.8
		c0,0.1-0.1,0.3-0.2,0.3c-0.1,0.1-0.2,0.1-0.4,0c0,0-0.1,0-0.2,0c0.1-0.4,0.1-0.6,0.2-1c0.1,0,0.2,0,0.2,0c0.3,0.1,0.4,0.3,0.4,0.5
		C41.2,91.7,41.2,91.8,41.1,91.8L41.1,91.8z M41,89.1c0.2,0,0.4,0.1,0.4,0.2c0,0,0,0.1,0,0.2c0,0,0,0.1,0,0.1c0,0.1-0.1,0.3-0.5,0.3
		c0,0-0.1,0-0.1,0C40.9,89.6,40.9,89.4,41,89.1L41,89.1z"/>
	<path id="path3399" class="st46" d="M46.1,88.8L43.6,94l1.4,0.1c0,0,0.4-0.8,0.5-1.2c0.3,0,0.6,0,0.9,0.1c0.1,0.3,0.4,1.2,0.4,1.2
		l1.9,0.1l-2.1-6.7L46.1,88.8"/>
	<path id="path3401" class="st46" d="M51.8,93c0-0.8-0.2-4.2-0.2-4.2l-1.8,0.1l0.2,5.5l3.7-0.2l-0.1-1.3
		C53.6,92.9,52.3,92.9,51.8,93"/>
	<path id="path3403" class="st46" d="M56.8,92.4c-0.1-0.7-0.7-4.2-0.7-4.2l-0.5,0.1l-1.3,0.2l0.9,5.5l3.6-0.6l-0.2-1.3
		C58.6,92.1,57.3,92.3,56.8,92.4"/>
	<path id="path3405" class="st46" d="M67.3,88.7c0,0.5-0.3,0.9-0.7,1.1c-0.2,0.1-0.5,0.1-0.7,0c-0.4-0.2-0.7-0.5-0.9-1
		c-0.2-0.6-0.3-1.1-0.1-1.4c0.1-0.2,0.3-0.4,0.6-0.6c0.3-0.1,0.7,0,1.1,0.2l0.4,0.2l0.7-1.1l-0.4-0.3c-0.7-0.5-1.6-0.6-2.4-0.3
		c-0.7,0.3-1.3,0.8-1.6,1.5c-0.3,0.7-0.3,1.5,0,2.3c0.6,1.5,2.2,2.2,3.7,1.6c1-0.4,1.6-1.2,1.7-2.3l0-0.5l-1.3-0.1L67.3,88.7"/>
	<path id="path3407" class="st46" d="M71.6,87.2c-0.4-0.7-2.1-3.7-2.1-3.7l-0.4,0.2l-1.2,0.7l2.7,4.8l3.2-1.8l-0.6-1.2
		C73.2,86.3,72,87,71.6,87.2"/>
	<path id="path3409" class="st46" d="M75.1,79.8l-0.4,0.3L74,80.6l2.2,3.1c0.1,0.1,0.1,0.2,0.1,0.3c0,0.2-0.2,0.3-0.3,0.4
		c-0.1,0-0.2,0.1-0.4,0.1c-0.1,0-0.2-0.1-0.3-0.2l-2.2-3l-1.5,1.1l2.2,3c0.3,0.4,0.7,0.7,1.2,0.8c0.5,0.1,1.1-0.1,1.7-0.5
		c1.2-0.8,1.1-2,0.6-2.7L75.1,79.8"/>
	<path id="path3411" class="st46" d="M81.8,78.7c-0.3-0.4-0.8-0.5-1.2-0.5c0-0.3-0.2-0.7-0.4-0.9c-0.5-0.5-1.5-0.8-2.4,0.1L76.1,79
		l3.9,4l1.7-1.7c0.6-0.5,0.7-1.1,0.7-1.4C82.4,79.4,82.2,79,81.8,78.7 M78.9,78.5c0.1,0.1,0.1,0.1,0.1,0.2c0,0.1,0,0.2-0.2,0.3
		c0,0,0,0-0.1,0.1c-0.2-0.2-0.3-0.3-0.5-0.6C78.6,78.2,78.8,78.4,78.9,78.5L78.9,78.5z M79.8,79.9c0.3-0.3,0.6,0,0.7,0.1
		c0.1,0.1,0.2,0.2,0.2,0.3c0,0,0,0,0,0c0,0.1-0.1,0.2-0.2,0.4c0,0-0.1,0.1-0.1,0.1c-0.3-0.3-0.4-0.4-0.7-0.7
		C79.8,80,79.8,79.9,79.8,79.9L79.8,79.9z"/>
	<path id="path3413" class="st28" d="M21.4,78.3c0.2,0.1,1.3,1.2,1.3,1.2l0.4-0.4l-2.1-2l-0.1,0.1l-3.2,3.4l0.8,0.8
		c0,0,1.4-1.4,1.5-1.6c0.2,0.1,1.2,1.1,1.2,1.1l0.4-0.4c0,0-1-1-1.2-1.1C20.5,79.3,21.2,78.4,21.4,78.3"/>
	<path id="path3415" class="st28" d="M26.3,81.5c-0.5-0.4-1.1-0.5-1.7-0.4c-0.7,0.1-1.3,0.5-1.7,1.1c-0.4,0.6-0.6,1.3-0.5,1.9
		c0.1,0.6,0.4,1.1,1,1.5c0.5,0.4,1.1,0.5,1.7,0.4c0.7-0.1,1.3-0.5,1.7-1.1c0.3-0.5,0.5-1,0.5-1.5c0-0.1,0-0.3,0-0.4
		C27.2,82.4,26.8,81.9,26.3,81.5 M25.9,84.3c-0.3,0.5-1.3,1.6-2.2,0.9c-0.9-0.6-0.2-1.8,0.2-2.3c0.3-0.5,1.3-1.6,2.2-0.9
		C26.9,82.6,26.2,83.8,25.9,84.3L25.9,84.3z"/>
	<path id="path3417" class="st28" d="M31.6,84.7c-1.2-0.6-2.6-0.1-3.3,1.2c-0.3,0.6-0.4,1.4-0.2,2c0.2,0.6,0.6,1.1,1.2,1.3
		c0.6,0.3,1.2,0.3,1.8,0.1c0.6-0.2,1.2-0.7,1.5-1.3C33.2,86.8,32.8,85.3,31.6,84.7 M29.5,88.7c-1-0.5-0.5-1.8-0.2-2.3
		c0.3-0.5,1-1.7,2-1.2c0.3,0.1,0.4,0.3,0.5,0.6c0.2,0.6-0.1,1.3-0.3,1.8c-0.2,0.4-0.6,1.1-1.2,1.3C30,88.9,29.8,88.9,29.5,88.7
		L29.5,88.7z"/>
	<path id="path3419" class="st28" d="M35,86.5l-0.1,0.4c0,0,0.7,0.2,0.9,0.3c-0.1,0.2-1.4,4-1.4,4l1,0.4c0,0,1.3-3.8,1.4-4
		c0.2,0.1,0.9,0.3,0.9,0.3l0.2-0.5l-2.8-1L35,86.5"/>
	<path id="path3421" class="st28" d="M41.7,88.4l-2-0.4l0,0.1l-1,4.6l2,0.4c0.5,0.1,0.9,0.1,1.3-0.2c0.3-0.2,0.5-0.5,0.6-0.9
		c0-0.1,0-0.2,0-0.3c0-0.4-0.2-0.7-0.6-1c0.4-0.1,0.7-0.4,0.8-0.9c0-0.1,0-0.2,0-0.2C42.9,89.2,42.6,88.6,41.7,88.4 M41,88.8
		c0.3,0.1,0.6,0.2,0.7,0.4c0.1,0.1,0.1,0.2,0.1,0.4c0,0.1,0,0.1,0,0.2c-0.1,0.6-0.6,0.6-0.9,0.5c0,0-0.3-0.1-0.5-0.1
		c0-0.2,0.3-1.3,0.3-1.5C40.8,88.7,41,88.8,41,88.8L41,88.8z M40.9,90.8c0.6,0.1,0.6,0.6,0.6,0.8c0,0.1,0,0.2,0,0.2
		c-0.1,0.3-0.2,0.4-0.3,0.5c-0.2,0.1-0.4,0.1-0.7,0.1c0,0-0.4-0.1-0.6-0.1c0-0.2,0.3-1.5,0.4-1.7C40.5,90.7,40.9,90.8,40.9,90.8
		L40.9,90.8z"/>
	<path id="path3423" class="st28" d="M46.4,89l-2.3,4.7l0.7,0c0,0,0.5-1,0.6-1.2c0.1,0,1.3,0.1,1.4,0.1c0,0.1,0.4,1.2,0.4,1.2
		l1.1,0.1l-1.7-5.3L46.4,89 M46.2,90.9c0.1,0.4,0.3,1,0.4,1.3c-0.2,0-0.7-0.1-1-0.1C45.7,91.8,46,91.2,46.2,90.9L46.2,90.9z"/>
	<path id="path3425" class="st28" d="M51.4,93.3c0-0.2-0.2-4.2-0.2-4.2l-0.1,0l-1,0l0.2,4.8l2.9-0.1l0-0.6
		C53.3,93.3,51.7,93.3,51.4,93.3"/>
	<path id="path3427" class="st28" d="M56.5,92.8c0-0.2-0.7-4.2-0.7-4.2l-0.1,0l-1,0.2l0.7,4.8l2.9-0.5l-0.1-0.6
		C58.3,92.6,56.7,92.8,56.5,92.8"/>
	<path id="path3429" class="st28" d="M67.7,88.7c0,0.6-0.4,1.2-1,1.4c-0.3,0.1-0.7,0.1-1,0c-0.4-0.2-0.8-0.6-1.1-1.2
		c-0.3-0.7-0.3-1.3-0.1-1.7c0.1-0.3,0.4-0.6,0.8-0.7c0.5-0.2,1,0,1.4,0.3l0.1,0.1l0.3-0.5l-0.1-0.1c-0.6-0.4-1.4-0.5-2.1-0.2
		c-0.6,0.3-1.1,0.7-1.4,1.3c-0.3,0.6-0.3,1.3,0,2c0.5,1.3,1.9,1.9,3.2,1.4c0.9-0.4,1.4-1,1.5-2l0-0.1l-0.6,0L67.7,88.7"/>
	<path id="path3431" class="st28" d="M71.4,87.7c-0.1-0.2-2.1-3.7-2.1-3.7l-0.1,0.1l-0.9,0.5l2.3,4.2l2.6-1.4L73,86.8
		C73,86.8,71.6,87.6,71.4,87.7"/>
	<path id="path3433" class="st28" d="M75,80.3L75,80.3l-0.5,0.4l2,2.8c0.1,0.2,0.2,0.4,0.2,0.6c0,0.3-0.3,0.6-0.5,0.7
		c-0.1,0.1-0.4,0.2-0.7,0.2c-0.2,0-0.4-0.1-0.5-0.3l-2-2.7l-0.9,0.7l2,2.7c0.3,0.4,0.6,0.6,1,0.6c0.6,0.1,1.1-0.2,1.4-0.4
		c1-0.7,1-1.6,0.6-2.2L75,80.3"/>
	<path id="path3435" class="st28" d="M81.6,78.9c-0.4-0.4-0.8-0.5-1.3-0.3c0-0.1,0.1-0.2,0.1-0.4c0-0.3-0.1-0.6-0.3-0.8
		c-0.3-0.3-1.1-0.7-1.9,0.1L76.6,79l3.3,3.5l1.5-1.4c0.4-0.4,0.6-0.7,0.6-1.1C82,79.5,81.9,79.2,81.6,78.9 M79.4,78.8
		c0,0.2-0.2,0.4-0.3,0.6c0,0-0.2,0.2-0.3,0.3c-0.1-0.1-0.9-0.9-1-1.1c0.1-0.1,0.2-0.2,0.2-0.2c0.5-0.4,0.9-0.5,1.2-0.1
		C79.4,78.4,79.4,78.6,79.4,78.8L79.4,78.8z M80.3,81.3c-0.1-0.1-1-1.1-1.2-1.2c0.1-0.1,0.4-0.4,0.4-0.4c0.6-0.6,1.2,0,1.2,0.1
		c0.2,0.2,0.3,0.4,0.3,0.6c0,0,0,0,0,0c0,0.2-0.1,0.4-0.3,0.6C80.8,80.9,80.5,81.2,80.3,81.3L80.3,81.3z"/>
	<path id="path3437" class="st46" d="M27.8,17.1l-2,0.5l0.2,0.7c0.3,0.9,0,1.8-0.7,2.4c-0.4,0.3-0.8,0.5-1.3,0.5
		c-0.7,0-1.6-0.5-2.2-1.3c-0.8-0.9-1.2-1.7-1.1-2.5c0-0.5,0.3-1,0.8-1.4c0.5-0.5,1.2-0.5,2.2-0.3l0.7,0.1l0.4-1.9l-0.7-0.2
		c-1.5-0.4-3.1,0-4.2,1c-2.2,1.9-2.4,5-0.4,7.3c1.8,2.1,4.9,2.3,7,0.5c1.5-1.3,2-2.9,1.5-4.8L27.8,17.1"/>
	<path id="path3439" class="st46" d="M33.3,6.9l-2.1,1c0,0,1.2,2.4,1.5,3.3c-0.6,0.3-1.2,0.5-1.7,0.8c-0.4-0.8-1.6-3.3-1.6-3.3
		L26.7,10l4.1,8.8l2.7-1.3c0,0-1.3-2.7-1.7-3.6c0.6-0.3,1.2-0.5,1.7-0.8c0.4,0.9,1.7,3.6,1.7,3.6l2.7-1.3l-4.1-8.8L33.3,6.9"/>
	<path id="path3441" class="st46" d="M42.5,12.4c-0.1-0.7-0.3-1.3-0.4-2c0.8-0.2,3.1-0.6,3.1-0.6l-0.4-2c0,0-2.2,0.5-3.1,0.6
		c-0.1-0.6-0.2-1.1-0.3-1.7c0.9-0.2,3.3-0.7,3.3-0.7l-0.4-1.9l-0.7,0.1L38,5.4l1.9,9.5l6.3-1.3l-0.4-1.9
		C45.8,11.7,43.4,12.2,42.5,12.4"/>
	<path id="path3443" class="st46" d="M51.4,3.9l-3-0.1l0,0.7l-0.2,9l6.3,0.1l0-2.1c0,0-2.4-0.1-3.3-0.1C51.2,10.3,51.4,3.9,51.4,3.9
		"/>
	<path id="path3445" class="st46" d="M61.1,8.8c-0.8-0.6-1-0.8-0.9-1.1c0-0.2,0.2-0.7,0.8-0.5c0.3,0.1,0.7,0.3,0.8,1l0.2,0.8l2-0.7
		l-0.1-0.6c-0.2-1.2-1.3-2.3-2.6-2.6c-0.9-0.2-1.9-0.1-2.6,0.4c-0.7,0.4-1.2,1.1-1.4,1.9c-0.5,2,0.8,2.9,1.7,3.6
		c0.9,0.7,1.1,0.9,1,1.4c0,0.2-0.1,0.3-0.3,0.4c-0.2,0.1-0.4,0.1-0.6,0.1c-0.5-0.1-0.7-0.3-0.9-1l-0.2-0.7l-2,0.8l0.2,0.6
		c0.4,1.2,1.3,2,2.7,2.4c1.6,0.4,3.6-0.3,4.1-2.3C63.5,10.5,62,9.5,61.1,8.8"/>
	<path id="path3447" class="st46" d="M68.3,14c0.8,0.4,2.8,1.4,2.8,1.4l0.9-1.8c0,0-2-1-2.8-1.4c0.3-0.5,0.5-1,0.8-1.5
		c0.8,0.4,3,1.5,3,1.5l0.9-1.8l-5.7-2.9l-0.3,0.6l-4.1,8l5.7,2.9l0.9-1.8c0,0-2.2-1.1-3-1.5C67.7,15.2,68,14.6,68.3,14"/>
	<path id="path3449" class="st46" d="M79.5,14.9l-9.1,4.7l1.7,1.5c0,0,1.5-0.8,2-1.1c0.4,0.4,1,0.9,1.4,1.2
		c-0.2,0.6-0.7,2.2-0.7,2.2l2.4,2.1l3.9-11.4L79.5,14.9"/>
	<path id="path3451" class="st28" d="M27.4,17.7l-1.1,0.3l0.1,0.2c0.3,1.1,0,2.2-0.8,2.9c-0.5,0.4-1,0.6-1.7,0.6
		c-0.9-0.1-1.8-0.6-2.6-1.4c-0.9-1-1.3-2-1.2-2.8c0-0.6,0.4-1.2,0.9-1.7c0.8-0.7,1.7-0.5,2.6-0.4l0.2,0l0.2-1L24,14.3
		c-1.3-0.3-2.7,0-3.7,0.9c-2,1.7-2.1,4.5-0.4,6.6c1.6,1.9,4.5,2.1,6.3,0.5c1.3-1.2,1.8-2.6,1.3-4.3L27.4,17.7"/>
	<path id="path3453" class="st28" d="M33.5,7.4l-1.6,0.8c0,0,1.4,2.9,1.5,3.3c-0.3,0.2-2.3,1.1-2.6,1.2c-0.2-0.4-1.5-3.3-1.5-3.3
		l-1.8,0.9l3.7,7.9l1.8-0.9c0,0-1.5-3.2-1.7-3.6c0.3-0.2,2.3-1.1,2.6-1.2c0.2,0.4,1.7,3.6,1.7,3.6l1.8-0.9l-3.7-7.9L33.5,7.4"/>
	<path id="path3455" class="st28" d="M42.1,12.9c-0.1-0.4-0.5-2.5-0.6-2.9c0.4-0.1,3.1-0.6,3.1-0.6l-0.2-1c0,0-2.7,0.5-3.1,0.6
		c-0.1-0.4-0.5-2.3-0.5-2.6C41.2,6.3,44,5.7,44,5.7l-0.2-1l-5.3,1.1l1.7,8.6l5.3-1.1l-0.2-1C45.4,12.3,42.5,12.9,42.1,12.9"/>
	<path id="path3457" class="st28" d="M50.9,4.4l-2,0l0,0.2l-0.2,8.5l5.4,0.1l0-1.1c0,0-2.9-0.1-3.3-0.1C50.7,11.5,50.9,4.4,50.9,4.4
		"/>
	<path id="path3459" class="st28" d="M61.1,6.7c0.6,0.2,1,0.6,1.2,1.4l0.1,0.3L63.4,8l0-0.2c-0.2-1-1.1-1.9-2.2-2.2
		c-0.8-0.2-1.6-0.1-2.3,0.3c-0.6,0.4-1,0.9-1.2,1.6c-0.4,1.7,0.7,2.4,1.5,3.1c0.9,0.6,1.4,1.1,1.2,2c-0.1,0.4-0.3,0.6-0.5,0.7
		c-0.3,0.2-0.6,0.2-1,0.2c-0.6-0.2-1-0.5-1.2-1.3l-0.1-0.2l-1.1,0.4l0.1,0.2c0.3,1.1,1.1,1.7,2.4,2c1.4,0.4,3.1-0.3,3.5-2
		c0.4-1.8-0.7-2.6-1.7-3.3c-0.8-0.6-1.3-1-1.1-1.6C59.8,7,60.3,6.5,61.1,6.7"/>
	<path id="path3461" class="st28" d="M69.7,10c0.4,0.2,3,1.5,3,1.5l0.5-0.9l-4.8-2.4l-0.1,0.2L64.4,16l4.8,2.4l0.5-0.9
		c0,0-2.6-1.3-3-1.5c0.2-0.3,1.2-2.3,1.3-2.7c0.4,0.2,2.8,1.4,2.8,1.4l0.5-0.9c0,0-2.4-1.2-2.8-1.4C68.7,12.1,69.6,10.4,69.7,10"/>
	<path id="path3463" class="st28" d="M79.8,15.3l-8.4,4.4l0.9,0.8c0,0,1.8-0.9,2-1.1c0.2,0.2,1.7,1.5,1.9,1.6
		c-0.1,0.3-0.8,2.2-0.8,2.2l1.6,1.4l3.3-9.6L79.8,15.3 M75.3,18.9c0.4-0.2,1.4-0.7,2-1.1c-0.2,0.7-0.6,1.7-0.8,2.2
		C76.3,19.7,75.6,19.2,75.3,18.9z"/>
	<path id="path3465" class="st48" d="M73.9,48.7c-0.7-1.8-3.1-2.6-5.3-1.8c-0.9,0.4-1.7,0.9-2.2,1.6c1.5-4.2,7.5-5.1,7.5-9.1
		c0-6.6-9.4-4.8-8,0c0-2.2,3.4-2.6,3.4,0c0,2.6-6,4.2-6,8.5c0,4.8,4.8,5.2,4.3,9.5c-0.1,0.7-0.9,1.7-2.1,1.7c-7.3,0-4.7-9-7.2-11.7
		l0.1-1.8c1.5,0.9,5.4-1.2,2.8-4.4c0,1.6-3.3,1.5-3.3-1.5c0-4.1,3.8-1.9,4-1c-0.2-1.5-0.3-2.4,0-3.3c-2,0.7-2.2-0.5-2-1
		c0.3-0.5,0.7-1.1,1.5-1.1c0.4,0,0.7,0.1,0.8,0.2c0.3,0.2,0.4-0.2,0.4,0.1c0.2-0.3,0.1,0.1,0.3-0.3c0.2-0.3,0.5-0.7,1-1.2l0-0.7
		l0.6,0.2l0.6-0.9c-0.6-1.3-1.5-0.7-2.1-2.2c-0.5-0.1-8.5,0.7-8.3-2.5c-0.7,0-2.2,0.4-1.2,1.7c-0.7,0.1-1.3-0.8-2.4,1.5
		c1.4-0.3,0.7,1.3,0.7,1.8c0,2.9-3.9,2.9-3.9,1.5c-0.9,0.9-0.4,2.9,1,3.4c0,0-0.5,2.1-1.9,3.5c-2-0.1-5.1-0.4-6.9-2.1
		c-0.8-0.7-1.4-1.1-1.9-1.3v-1c0.8-0.4,1.6-1,2.5-2.2c0.7-0.8,1.1-1.9,1-3.1c0-0.1,0-0.3-0.1-0.4c0,0,0-0.1,0-0.1
		c0-0.1,0-0.2-0.1-0.3c0,0,0-0.1,0-0.1c0-0.1-0.1-0.2-0.1-0.3c0,0,0-0.1,0-0.1c0-0.1-0.1-0.2-0.2-0.3c0,0-0.1-0.1-0.1-0.1
		c0-0.1-0.1-0.1-0.1-0.2c0-0.1-0.1-0.1-0.1-0.2c0,0-0.1-0.1-0.1-0.1c0-0.1-0.1-0.1-0.1-0.2c0,0-0.1-0.1-0.1-0.1
		c-0.1-0.1-0.2-0.2-0.4-0.4c0,0,0,0,0,0c-0.1-0.1-0.1-0.1-0.2-0.2c0,0,0,0-0.1,0c-0.1-0.1-0.2-0.1-0.3-0.2c0,0,0,0,0,0
		c-0.8-0.5-1.8-0.8-2.9-0.7c-2.5,0.2-4.4,2.3-4.2,4.7c0.2,1.9,1.5,3.4,3.4,3.9c-0.6,0.4-1.2,0.6-1.3,0.6c0,0,0,0,0.1,0c0,0,0,0,0,0
		c0,0,0.1,0,0.1,0c0,0,0,0,0,0c0,0,0.1,0,0.1,0.1c0,0,0,0,0,0c0,0,0.1,0,0.1,0.1c0,0,0,0,0,0c0.1,0,0.2,0.1,0.4,0.1c0,0,0,0,0.1,0
		c0.1,0,0.1,0,0.2,0c0,0,0,0,0.1,0c0.1,0,0.1,0,0.2,0c0,0,0,0,0,0v0.5c0,0-0.1,0-0.1,0c-0.8,0.1-1.4,0.4-1.6,1.1
		c-0.2,0.7,0,1,0.4,1.5c-0.3,0.6-1.2,0.8-0.1,2.1c-0.1,0.5,0,1.3,0.7,1.5c0.2,0.1,0.4,0.1,0.6,0.2l0,9.7c-0.7,0.4-1.1,0.8-1.2,1.3
		c0,0-0.6-1.3-0.5,1.2c0.6-0.5,0.4,0.6,0.4,0.6c-0.9,1.1,0.2,1.1,0.2,1.1c0.8-0.8,0.6,0.3,0.6,0.3c0,1.3,0.5,1.9,0.5,1.9v7.4l-0.6,0
		l0,2l1.1,0c-0.6,0.3-1,0.9-1,1.6c0.1,0.9,0.9,1.5,1.8,1.4c0.9-0.1,1.6-0.8,1.5-1.7c-0.1-0.6-0.4-1.1-1-1.3l1,0l0-2l-0.6,0l0-6.5
		c0.1,0.1,0.3,0.1,0.4,0.2c0.1,0,0.1,0,0.2,0c0,0,0.1,0,0.1,0c-0.2-0.9,0.3-1.4,0.3-1.4c0.3-0.4,0.6-0.7,1.1-0.9
		c1.3-0.6,3.1-0.5,3.6,0.6c3.3-0.9,6.2-4.2,6.2-4.2l1.6,2.8c-3.5,1.2-11.1,7.8-5.8,10.1c0,0.7-0.1,5.6-3.3,5.2
		c-4.6-0.6-5.7,1.3-4.8,3.5c-0.4,1.8,1,2.4,1,2.4c-0.2-1,0.3-1.9,2.2-1.9c0,1.9,1.2,2.2,1.2,2.2c0-1.6,1.1-2.2,2.1-2.2
		c0,1.3,1.5,1.8,1.5,1.8s-0.4-1.5,1.4-1.8c4.4-0.8,0.3-5.3,7-6.6c0,0-3.4-0.5-3.4-2.3c0-1.7,3-2.8,4.1-2.8c2.1,4.1,4.5,4.1,5.1,4.2
		c0.9,1.1,0.6,4.6-0.7,4.6c-5-0.3-4.8,2.8-4.3,3.4c-0.1,1.2,0.9,1.9,0.9,1.9c0-1.3,1.2-1.6,2.8-1.5c-0.1,1.6,0.9,1.8,0.9,1.8
		c0-1.6,1.2-1.8,2-1.8c-0.1,1.1,1,1.4,1,1.4s-0.1-1.4,1.4-1.4c2.8,0-1.3-5.9,4.2-11.8c-4.8,2.2-7.3-3.3-7.3-4.4
		c2.4,2.9,10.4,3.4,10.4-1.5c0-4.7-5.1-6.4-2.7-8.2c1.4-1,4.1,1.1,2.6,3.2C73.3,52.7,74.6,50.5,73.9,48.7 M43.5,48.8
		c-1.8,1.1-3,2.4-4.6,3c-0.2,0.1-0.4,0.1-0.6,0.1v-9.1c0.4,0,1.6,0.2,2.9,0.7c1.3,0.7,1.3,2.2-0.3,2.5c1,2,4.6,1,5.4-0.6
		c0.4,0,0.7,0.7,1,1.3C46.7,47,45.7,47.5,43.5,48.8z M63.6,33.7c-0.2,0.3-0.4,0.5-0.6,0.8c0.5,0.8,1.3,1.2,2.2,1.1
		c1.3-0.1,2.2-1.3,2.1-2.6c0,0,0-0.1,0-0.1c-0.1,0.7-0.9,1.2-1.9,1.3C64.7,34.3,64,34.1,63.6,33.7z"/>
	<path id="path3467" class="st47" d="M34.6,28.2C34.6,28.2,34.6,28.3,34.6,28.2L34.6,28.2c0,0,0-0.1,0.1-0.1
		C34.6,28.2,34.6,28.2,34.6,28.2 M34.7,66.5C34.7,66.5,34.7,66.5,34.7,66.5L34.7,66.5C34.7,66.5,34.7,66.5,34.7,66.5L34.7,66.5z
		 M34.6,24.4L34.6,24.4L34.6,24.4z M33.9,66.2l1.1,0c-0.1,0.1-0.3,0.1-0.4,0.2c0.1,0,0.2-0.1,0.4-0.1c0.6,0,1,0.5,1,1
		c0,0.6-0.5,1-1,1c-0.5,0-0.8-0.3-1-0.7v0.1c0.1,0.9,0.9,1.5,1.8,1.4c0.9-0.1,1.6-0.8,1.5-1.7c-0.1-0.6-0.4-1.1-1-1.3l1,0l0-2
		l-0.6,0v-6.5c-0.6-0.3-1-1-0.8-1.7c0.4,0,0.7,0.1,1,0.3c-0.4,0.8,0.5,1.6,0.5,1.6c-0.2-0.9,0.3-1.4,0.3-1.4
		c0.3-0.4,0.6-0.7,1.1-0.9c1.3-0.7,3.1-0.5,3.6,0.6c3.3-0.9,6.2-4.2,6.2-4.2l1.6,2.8c3.9,0,2.5-2.9,2.3-3.1c0.9,0,2.1,0.7,2.1,2.1
		c0,3.6-10.3,4.1-10.3,8.4c0,1.8,1.8,2.5,1.8,2.5c0,3.9-2.7,6.3-4.6,6.3c-3,0-5.2-0.6-5.2,2.6h1c-1,1-0.1,2.4-0.1,2.4
		c-0.2-1,0.3-1.9,2.2-1.9h1.2c-0.7,0.7-0.3,1.9,0,2.2c0-1.6,1.1-2.2,2.1-2.2c0.4,0,0.9,0,0.9,0c-0.2,0.2,0.1,1.3,0.7,1.8
		c0,0-0.4-1.5,1.4-1.8c4.4-0.8,0.3-5.3,7-6.6c0,0-3.4-0.5-3.4-2.3c0-1.7,3-2.8,4.1-2.8c0.8-0.1,1.6-0.1,2.3,0.1
		c0.3,2.6,3.3,2.5,4,2.5c2.6,2.6-0.7,6.7-0.7,6.7c-4,0-5.5,0.5-5.5,2.8h0.7c-0.4,0.4-0.2,1.6,0.1,1.9c0-1.3,1.2-1.6,2.8-1.5h0.8
		c-0.4,0.4-0.3,1.4,0.1,1.8c0-1.6,1.2-1.8,2-1.8h0.7c-0.3,0.3,0,1.1,0.3,1.4c0,0-0.1-1.4,1.4-1.4c2.8,0-1.3-5.9,4.2-11.8
		c-4.8,2.2-7.3-3.3-7.3-4.4c2.4,2.9,10.4,3.4,10.4-1.5c0-3.9-3.7-5.8-3.4-7.4c0.1-1.2,1.1-2.1,2.3-2.1c1.3,0,2.3,1,2.3,2.3
		c0,1-0.6,1.8-1.5,2.2c0,0,0,0,0,0c0,0,0,0,0,0c2.3-0.8,3.5-3,2.8-4.8c-0.7-1.8-3.1-2.6-5.3-1.8c-0.9,0.4-1.7,0.9-2.2,1.6
		c1.5-4.2,7.5-5.1,7.5-9.1c0-6.6-9.4-4.8-8,0c0-0.1,0-0.1,0-0.2c0.2-2.7,5-3.2,5,0.3c0,3-6.2,4.7-6.2,8.7c0,4.1,4.5,5.2,4.5,9.5
		c0,0.5-0.3,2.8-3.3,2.8c-2.9,0-4.3-1.6-5.1-3.8l0,0c-1.5-2.9-0.9-7.3-2.6-9.1l0.1-1.8c1.5,0.9,5.4-1.2,2.8-4.4
		c0,1.6-3.3,1.5-3.3-1.5c0-4.1,3.8-1.9,4-1c-0.2-1.5-0.3-2.4,0-3.3c-2,0.7-2.2-0.5-2-1c0.3-0.5,0.7-1.1,1.5-1.1c1.1,0,1.1,0.4,1,1
		c0.4-0.7,0.6-1.2,1.6-2.2l0-0.7l0.6,0.2l0.6-0.9c-0.6-1.3-1.5-0.7-2.1-2.2c-0.5-0.1-7.3-0.8-7-4c-0.6,0-2.2,2.1-1.1,3.2
		c0,0-0.9,0-1.4,0c-0.7,0.1-2.5-0.4-3.6,1.9c2.8-2.8,4.6,3.8-0.5,3.8v0l0,0c-0.8,0-1.4-0.3-1.4-0.8c-0.5,2.2,2.7,2.9,2.7,2.9
		c0,0.7-1.6,4.2-2.4,5c0.5,0.5,0.7,3.7-1.7,3.7c0.9-2.4-1.7-4.4-4.2-5.7c0,0,0,0,0,0c-0.5-0.2-0.9-0.4-1.3-0.6
		c-1.5-0.7-2.8-1.1-2.8-1.1v-1.9c0.8-0.4,1.6-1,2.5-2.2c0.7-0.8,1.1-1.9,1-3.1c0-0.1,0-0.3-0.1-0.4c0,0,0-0.1,0-0.1
		c0-0.1,0-0.2-0.1-0.3c0,0,0-0.1,0-0.1c0-0.1-0.1-0.2-0.1-0.3c0,0,0-0.1,0-0.1c-0.1-0.1-0.1-0.2-0.2-0.3c0,0-0.1-0.1-0.1-0.1
		c0-0.1-0.1-0.1-0.1-0.2c0-0.1-0.1-0.1-0.1-0.2c0,0-0.1-0.1-0.1-0.1c0-0.1-0.1-0.1-0.1-0.2c0,0-0.1-0.1-0.1-0.1
		c-0.1-0.1-0.2-0.2-0.4-0.4c0,0,0,0,0,0c-0.1-0.1-0.1-0.1-0.2-0.2c0,0,0,0-0.1,0c-0.1-0.1-0.2-0.1-0.3-0.2c0,0,0,0,0,0
		c-0.8-0.5-1.8-0.8-2.9-0.7c-0.2,0-0.4,0.1-0.7,0.1c-1.5,0.6-2.5,2.3-2.5,4.3c0,1.9,0.9,3.5,2.3,4.2c0,0,0,0,0.1,0
		c-0.6,0.4-1.2,0.6-1.3,0.6c0,0,0,0,0.1,0c0,0,0,0,0,0c0,0,0.1,0,0.1,0c0,0,0,0,0,0c0,0,0.1,0,0.1,0.1c0,0,0,0,0,0
		c0,0,0.1,0,0.1,0.1c0,0,0,0,0,0c0.1,0,0.2,0.1,0.4,0.1c0,0,0,0,0.1,0c0.1,0,0.1,0,0.2,0c0,0,0,0,0.1,0c0.1,0,0.1,0,0.2,0
		c0,0,0,0,0,0c0.5,0,1.1-0.1,1.1-0.1v1.1c-0.1,0-0.8-0.2-1.1-0.5c0,0-0.1,0-0.1,0c-0.8,0.1-1.4,0.4-1.6,1.1c-0.2,0.7,0,1,0.4,1.5
		c-0.3,0.6-1.2,0.8-0.1,2.1c-0.1,0.5,0,1.3,0.7,1.5c0.2,0.1,0.4,0.1,0.6,0.2c0.4,0,1.1,0.4,1.1,1.2v8.3c0.4,0,0.8,0.1,1.2,0.1v-9.1
		c0.4,0,1.6,0.2,2.9,0.7c0,0,0,0,0,0c0,0,0,0,0,0c0.1,0,0.2,0,0.4,0.1c0.9,0.3,1.4,1,1.2,1.7c-0.2,0.7-1.1,1-2,0.7
		c1,2,4.6,1,5.4-0.6c0.4,0,0.7,0.7,1,1.3c0,0,0.9,0.3,3.1,0.3c0,0-9,5.8-11.6,5.8c-1.1,0-3.6,0-3.6,0.8c-0.7,0-1.7,1.2-1.7,1.8
		c0.6-0.5,1.2-0.5,1.2-0.5c0.5,0,0.9,0.2,0.9,0.2c-0.2,0.2-1.1,1.2-1.1,2C33.7,55,34,55,34,55s0.8-0.1,1.1,0.2
		c-0.2,0.2-0.5,0.9-0.5,1.7c0,0,0.5-0.9,1.1-0.9v8.7c0,0.3-1.2,0.5-1.7,0.5 M34.3,40c-0.2,0-0.3-0.3-0.3-0.4c0-0.1,0.1-0.4,0.3-0.4
		c0.5,0,1.6,0.2,1.6,0.3C35.9,39.6,34.8,40,34.3,40z M33.9,38.6c-0.3,0-0.4-0.4-0.4-0.6c0-0.1,0.2-0.5,0.5-0.5
		c0.7,0.1,2.2,0.6,2.1,0.7C36.2,38.3,34.7,38.6,33.9,38.6z M33.8,36.7c-0.3-0.1-0.4-0.6-0.3-0.7c0-0.2,0.3-0.5,0.6-0.5
		c0.8,0.2,2.2,1,2.2,1.2C36.2,36.9,34.6,36.9,33.8,36.7L33.8,36.7z M36.2,31.6c0.1-0.3,0.1-0.8,0-1.2c0,0,0,0,0,0
		c-0.9,0-1.7-0.8-1.7-1.7c0-0.2,0-0.3,0.1-0.5h0c0,0,0,0,0,0c0.2-0.7,0.8-1.2,1.6-1.2c0.9,0,1.7,0.8,1.7,1.7
		C37.9,29.8,37.1,30.8,36.2,31.6L36.2,31.6z"/>
	<path id="path3469" class="st49" d="M61.5,33c0.5,0.8,1.3,1.2,2.2,1.1c1.3-0.1,2.2-1.3,2.1-2.6c0,0,0-0.1,0-0.1
		c-0.1,0.7-0.9,1.2-1.9,1.3c-0.8,0.1-1.5-0.1-1.9-0.5C61.9,32.5,61.7,32.8,61.5,33"/>
	<path id="path3471" class="st28" d="M58.4,28.7l0.8,0l-0.4,0.6C58.8,29.3,58.3,29.4,58.4,28.7 M56.4,28.7h1.2c0,0,0,0.9,0.8,1
		L58.3,30C58.3,30,56,29.4,56.4,28.7z"/>
	<path id="path3473" class="st50" d="M36.3,36.8c0-0.2-1.4-1-2.2-1.2c-0.3-0.1-0.6,0.3-0.6,0.5c0,0.2,0,0.6,0.3,0.7
		C34.6,36.9,36.2,36.9,36.3,36.8 M36.2,38.2c0-0.1-1.4-0.7-2.1-0.7c-0.3,0-0.5,0.4-0.5,0.5c0,0.1,0.1,0.6,0.4,0.6
		C34.7,38.6,36.2,38.3,36.2,38.2z M34.6,33.9v0.5c0.2,0.2,1,0.5,1.1,0.5v-1.1C35.6,33.8,35,33.9,34.6,33.9z M34.3,39.2
		c-0.2,0-0.3,0.3-0.3,0.4c0,0.1,0.1,0.4,0.3,0.4c0.5,0,1.6-0.4,1.6-0.5C35.8,39.4,34.8,39.2,34.3,39.2z M33.2,53.6
		c-0.9,1.1-0.2,2.2-0.2,2.2c0-0.8,0.9-1.8,1.1-2C34,53.7,33.7,53.6,33.2,53.6z M36,56c-0.1,0.7,0.2,1.4,0.8,1.7
		c0.1,0.1,0.3,0.1,0.4,0.1c0.1,0,0.1,0,0.2,0c0,0,0.1,0,0.1,0c0,0-0.9-0.8-0.5-1.6C36.7,56.1,36.4,56,36,56L36,56z M34.4,32.8
		c-1.3-0.6-2.3-2.3-2.3-4.2c0-2,1.1-3.7,2.5-4.3c-2.2,0.5-3.7,2.4-3.5,4.6C31.2,30.8,32.6,32.3,34.4,32.8z M48.5,28.2
		c1.4-0.3,1.9,1,1.9,1.4c0,1.7-1.3,2.4-2.4,2.4v0C53,32,51.2,25.4,48.5,28.2L48.5,28.2z M45.1,42.8c2.4,0,2.3-3.2,1.7-3.7
		c0.8-0.8,2.4-4.4,2.4-5c0,0-3.2-0.7-2.7-2.9c0,0,0,0,0,0l0,0c-0.9,0.9-0.3,2.8,1,3.3c0,0-0.5,2.1-1.9,3.5c-1.3-0.1-3.2-0.2-4.8-0.8
		C43.4,38.4,45.9,40.4,45.1,42.8L45.1,42.8z M35.6,27.5c0.6-0.1,1.2,0.4,1.2,1c0.1,0.6-0.4,1.1-1,1.2c-0.6,0.1-1.2-0.4-1.2-1
		c0,0.9,0.8,1.7,1.7,1.7c0,0,0,0,0,0c0.1,0.4,0.1,0.9,0,1.2c0.9-0.8,1.7-1.8,1.7-2.9c0-0.9-0.8-1.7-1.7-1.7c-0.8,0-1.4,0.5-1.6,1.2
		C34.7,27.9,35.1,27.6,35.6,27.5L35.6,27.5z M53.5,26.3c-1.1-1.1,0.5-3.2,1.1-3.2c-0.7,0-3.5,1.9-2.5,3.2
		C52.6,26.3,53.5,26.3,53.5,26.3z M39.3,44.6c0.9,0.3,1.7-0.1,2-0.7c0.2-0.7-0.3-1.4-1.2-1.7c-0.1,0-0.2-0.1-0.4-0.1
		C41,42.8,40.9,44.3,39.3,44.6z M36.8,35.3c0,0,1.3,0.4,2.8,1.1c-0.3-0.2-0.6-0.4-0.9-0.7c-0.8-0.7-1.4-1.1-1.9-1.3L36.8,35.3
		L36.8,35.3z M37.3,51.4c2.6,0,11.6-5.8,11.6-5.8c-2.2,0-3.1-0.3-3.1-0.3c-0.5,0.3-1.5,0.8-3.7,2.1c-1.8,1.1-3,2.4-4.6,3
		c-0.2,0.1-0.4,0.1-0.6,0.1c-0.4,0-0.8-0.1-1.2-0.1v-8.3c0-0.9-0.6-1.2-1.1-1.2v9.7c-0.7,0.4-1.1,0.8-1.2,1.3c0,0-1.3-0.2-1.3,2.3
		c0-0.7,1-1.8,1.7-1.8C33.7,51.4,36.1,51.4,37.3,51.4z M59.8,64.8c-0.7,0-3.7,0.1-4-2.5c-0.7-0.1-1.5-0.2-2.3-0.1
		c2.1,4.1,4.5,4.1,5.1,4.2c0.9,1.1,0.6,4.6-0.7,4.6c-5-0.3-4.8,2.8-4.3,3.4c0-2.3,1.6-2.8,5.5-2.8C59.1,71.5,62.4,67.4,59.8,64.8z
		 M60.8,74.7h-0.7c-0.1,1.1,1,1.4,1,1.4C60.8,75.7,60.6,74.9,60.8,74.7z M54.5,76.2c-0.3-0.3-0.5-1.4-0.1-1.9h-0.7
		C53.6,75.5,54.5,76.2,54.5,76.2z M69.5,38.1c0-3.5-4.8-3-5-0.3c0.2-2,3.4-2.3,3.4,0.2c0,2.6-6,4.2-6,8.5c0,4.8,4.8,5.2,4.3,9.5
		c-0.1,0.8-0.9,1.7-2.1,1.7c-2.5,0-3.8-1.1-4.6-2.6c0.8,2.1,2.2,3.8,5.1,3.8c3,0,3.3-2.2,3.3-2.8c0-4.4-4.5-5.4-4.5-9.5
		C63.3,42.7,69.5,41.1,69.5,38.1L69.5,38.1z M34,55c0,1.3,0.5,1.9,0.5,1.9c0-0.8,0.3-1.5,0.5-1.7C34.8,54.9,34,55,34,55z M68.8,47.6
		c-1.2,0-2.2,0.9-2.3,2.1c0.1-0.3,0.2-0.6,0.6-0.8c1.4-1,4.1,1.1,2.6,3.2c0.9-0.3,1.5-1.2,1.5-2.2C71.1,48.6,70,47.6,68.8,47.6z
		 M58.1,74.7h-0.8c-0.1,1.6,0.9,1.8,0.9,1.8C57.7,76,57.7,75.1,58.1,74.7z M35,66.4c-0.1,0-0.2,0-0.4,0.1c-0.4,0.3-0.6,0.8-0.6,1.3
		c0.1,0.4,0.5,0.7,1,0.7c0.6,0,1-0.5,1-1C36,66.8,35.6,66.4,35,66.4z M40.8,73.9h-1.2c0,1.9,1.2,2.2,1.2,2.2
		C40.4,75.8,40,74.7,40.8,73.9z M44.4,62c0-4.3,10.3-4.8,10.3-8.4c0-1.4-1.3-2.1-2.1-2.1c0.3,0.3,1.6,3.1-2.3,3.1
		c-3.5,1.2-11.1,7.8-5.8,10.1c0,0.7-0.1,5.6-3.3,5.2c-4.6-0.6-5.7,1.3-4.8,3.4c0-3.2,2.3-2.6,5.2-2.6c1.8,0,4.6-2.3,4.6-6.3
		C46.2,64.5,44.4,63.8,44.4,62z M35.6,64.6V56c-0.6,0-1.1,0.9-1.1,0.9v7.4v0l-0.6,0l0,0.9C34.4,65.1,35.6,64.9,35.6,64.6L35.6,64.6z
		 M37.4,75.8c0,0-0.9-1.4,0.1-2.4h-1C36,75.2,37.4,75.8,37.4,75.8z M43.8,73.9c0,0-0.5,0-0.9,0c0,1.3,1.5,1.8,1.5,1.8
		C43.9,75.2,43.5,74.2,43.8,73.9z"/>
	<path id="path3477" class="st28" d="M15,59.5l-0.1-0.2l0-0.2c-0.1-0.6-0.2-1.8-1.1-2c-0.2-0.1-0.5,0-0.8,0.1c0.1-0.3,0.1-0.5,0-0.8
		c-0.3-0.9-1.5-0.8-2.1-0.8h-0.2l-0.2,0c-0.6-0.1-1.8-0.3-2.2,0.5c-0.1,0.2-0.2,0.5-0.2,0.7c-0.2-0.2-0.5-0.2-0.7-0.2
		c-0.9,0-1.3,1.2-1.5,1.8l-0.1,0.2l-0.1,0.2c-0.3,0.6-0.9,1.6-0.3,2.3c0.2,0.2,0.4,0.3,0.7,0.4C6,61.6,5.8,61.8,5.8,62
		c-0.2,0.9,0.7,1.6,1.2,1.9l0.1,0.1l0.1,0.1c0.4,0.5,1.2,1.3,2.1,0.9c0.2-0.1,0.4-0.3,0.6-0.5c0.1,0.3,0.3,0.5,0.5,0.6
		c0.8,0.5,1.7-0.2,2.2-0.6l0.1-0.1l0.2-0.1c0.6-0.3,1.6-0.8,1.5-1.7c0-0.2-0.1-0.5-0.3-0.7c0.3,0,0.5-0.1,0.7-0.3
		C15.6,61.2,15.2,60.1,15,59.5"/>
	<path id="path3479" class="st49" d="M11,60.3c5.2,3,3.6-0.3,3.5-0.8C14.3,59,14.3,55.3,11,60.3"/>
	<path id="path3481" class="st49" d="M10.6,61c-1.3,5.8,1.4,3.3,1.8,3C12.9,63.8,16.4,62.6,10.6,61"/>
	<path id="path3483" class="st49" d="M9.8,61c-6,0.6-2.7,2.3-2.3,2.7C7.9,64,10.1,67,9.8,61"/>
	<path id="path3485" class="st49" d="M9.6,60.2c-2.4-5.5-3.1-1.8-3.3-1.4C6.2,59.2,4,62.3,9.6,60.2"/>
	<path id="path3487" class="st28" d="M94.7,58.7l-0.1-0.2l-0.1-0.2c-0.2-0.6-0.5-1.7-1.5-1.8c-0.2,0-0.5,0.1-0.7,0.2
		c0-0.3,0-0.5-0.2-0.7c-0.5-0.8-1.6-0.6-2.2-0.5l-0.2,0h-0.2c-0.6,0-1.8,0-2.1,0.8c-0.1,0.2-0.1,0.5,0,0.8c-0.3-0.1-0.5-0.1-0.8-0.1
		c-0.9,0.2-1.1,1.4-1.1,2l0,0.2l-0.1,0.2c-0.2,0.6-0.6,1.7,0.1,2.3c0.2,0.2,0.4,0.2,0.7,0.3c-0.2,0.2-0.3,0.4-0.3,0.7
		c-0.1,0.9,1,1.4,1.5,1.7l0.2,0.1l0.1,0.1c0.5,0.4,1.4,1.1,2.2,0.6c0.2-0.1,0.4-0.3,0.5-0.6c0.1,0.2,0.3,0.4,0.6,0.5
		c0.8,0.4,1.7-0.5,2.1-0.9l0.1-0.1l0.1-0.1c0.5-0.4,1.5-1,1.2-1.9c-0.1-0.2-0.2-0.4-0.4-0.6c0.3-0.1,0.5-0.2,0.7-0.4
		C95.6,60.3,95,59.3,94.7,58.7"/>
	<path id="path3489" class="st49" d="M90.2,59.7c-4.5-4-0.8-3.5-0.3-3.5C90.3,56.2,93.9,55.1,90.2,59.7"/>
	<path id="path3491" class="st49" d="M89.5,60.3c-5.2,3-3.6-0.3-3.5-0.8C86.2,59,86.2,55.3,89.5,60.3"/>
	<path id="path3493" class="st49" d="M89.9,61c1.3,5.8-1.4,3.3-1.8,3C87.6,63.8,84.1,62.6,89.9,61"/>
	<path id="path3495" class="st49" d="M90.7,61c6,0.6,2.7,2.3,2.3,2.7C92.6,64,90.4,67,90.7,61"/>
	<path id="path3497" class="st49" d="M90.9,60.2c2.4-5.5,3.1-1.8,3.3-1.4C94.3,59.2,96.5,62.3,90.9,60.2"/>
	<path id="path3499" class="st28" d="M92,60.3c0,0,0-0.1,0-0.1c0.5-0.4,1-0.7,1-0.7l0-0.1c0,0-0.6,0.1-1.2,0.2
		c-0.3-0.5-0.8-0.8-1.4-0.9c-0.2-0.5-0.4-1.1-0.4-1.1l-0.1,0c0,0-0.1,0.6-0.2,1.1c-0.3,0.1-0.7,0.3-0.9,0.6
		c-0.1,0.2-0.2,0.3-0.3,0.5c-0.6,0-1.2,0-1.2,0l0,0.1c0,0,0.6,0.3,1.1,0.5c0,0,0,0.1,0,0.1c0,0.5,0.3,0.9,0.6,1.2
		c-0.2,0.6-0.4,1.2-0.4,1.2l0.1,0.1c0,0,0.5-0.5,0.9-0.9c0.2,0.1,0.5,0.1,0.7,0.1c0.2,0,0.5-0.1,0.7-0.2c0.5,0.4,1.1,0.8,1.1,0.8
		l0.1-0.1c0,0-0.3-0.6-0.6-1.1C91.9,61.3,92.1,60.8,92,60.3"/>
	<path id="path3501" class="st49" d="M90.1,59.4c-0.3,0-0.5,0.2-0.7,0.4c-0.2,0.2-0.3,0.5-0.2,0.8c0,0.6,0.6,1,1.1,1
		c0.3,0,0.5-0.2,0.7-0.4c0.2-0.2,0.3-0.5,0.2-0.8C91.2,59.8,90.7,59.4,90.1,59.4"/>
	<path id="path3503" class="st49" d="M10.3,59.7c4.5-4,0.8-3.5,0.3-3.5C10.1,56.2,6.6,55.1,10.3,59.7"/>
	<path id="path3505" class="st28" d="M12,60.5c0.5-0.3,1.1-0.5,1.1-0.5l0-0.1c0,0-0.6,0-1.2,0c-0.1-0.2-0.2-0.4-0.3-0.5
		c-0.2-0.3-0.5-0.5-0.9-0.6c-0.1-0.6-0.2-1.1-0.2-1.1l-0.1,0c0,0-0.2,0.6-0.4,1.1c-0.6,0.1-1.1,0.4-1.4,0.9
		c-0.6-0.1-1.2-0.2-1.2-0.2l0,0.1c0,0,0.5,0.4,1,0.7c0,0,0,0.1,0,0.1c0,0.5,0.1,0.9,0.4,1.3c-0.3,0.5-0.6,1.1-0.6,1.1l0.1,0.1
		c0,0,0.6-0.4,1.1-0.8c0.2,0.1,0.4,0.2,0.7,0.2c0.2,0,0.5,0,0.7-0.1c0.4,0.4,0.9,0.9,0.9,0.9l0.1-0.1c0,0-0.2-0.7-0.4-1.2
		c0.4-0.3,0.6-0.7,0.6-1.2C12.1,60.6,12,60.6,12,60.5"/>
	<path id="path3507" class="st49" d="M11.1,59.8c-0.2-0.2-0.4-0.4-0.7-0.4c-0.6-0.1-1.1,0.4-1.1,1c0,0.3,0.1,0.6,0.2,0.8
		c0.2,0.2,0.4,0.3,0.7,0.4c0.6,0.1,1.1-0.4,1.1-1C11.3,60.3,11.3,60,11.1,59.8"/>
	<path id="path3509" class="st28" d="M11,34.9c-2.5-0.4-4.9,1.2-5.4,3.7c-0.4,2.5,1.2,4.9,3.7,5.4c2.5,0.4,4.9-1.2,5.4-3.7
		C15.2,37.7,13.5,35.3,11,34.9"/>
	<path id="path3511" class="st49" d="M12,38.3c0,0-0.1-0.1-0.2-0.1c-0.4-0.3-1.1-0.7-1.1-0.8c-0.1-0.1-0.2-0.1-0.3-0.2
		c-0.3-0.2-0.6-0.4-0.9-0.6c-0.1-0.1-0.2-0.1-0.3-0.2c-0.4-0.2-0.9-0.4-1.4-0.4c-0.4,0.3-0.7,0.6-1,1c1.1,0.4,2.3,1.1,4.6,2.5
		C11.6,39.4,12,38.4,12,38.3"/>
	<path id="path3513" class="st49" d="M11,40.8c0-0.1,0.3-0.6,0.3-0.8c-2.4-1.5-3.5-2.1-4.7-2.6c-0.2,0.3-0.3,0.7-0.4,1
		C6.9,39.4,8.7,40.3,11,40.8"/>
	<path id="path3515" class="st49" d="M10.7,37c0.9-0.5,1.9-0.4,2.7-0.1c-0.3-0.4-0.6-0.7-1.1-1c-0.7-0.1-1.8-0.2-2.6,0.5
		C10.1,36.6,10.4,36.8,10.7,37"/>
	<path id="path3517" class="st49" d="M7.1,41.3c0.1,0.1,0.2,0.2,0.4,0.2c0.3,0.1,0.5,0.3,0.8,0.4c0.1,0,0.3,0.1,0.4,0.1
		c0.4,0.1,1.5,0.4,1.6,0.4c0,0,0.4-1,0.5-1.4c-1.8-0.4-3.7-1.2-4.7-2.2c-0.1,0.5,0,0.9,0.1,1.4C6.4,40.7,6.7,41.1,7.1,41.3"/>
	<path id="path3519" class="st49" d="M10.4,42.9L10,42.8c-0.3-0.1-0.7-0.2-1.1-0.3c0.2,0.4,0.5,0.7,0.8,0.9c0.4,0.1,0.8,0,1.2,0
		C10.6,43.2,10.4,42.9,10.4,42.9"/>
	<path id="path3521" class="st49" d="M14.1,38.2c-0.1-0.3-0.2-0.5-0.3-0.8C13,37.1,12,36.8,11,37.3l1.3,0.9c0.3,0,0.5,0,0.7,0
		c0.1,0,0.2,0,0.3,0C13.7,38.1,13.9,38.2,14.1,38.2"/>
	<path id="path3523" class="st49" d="M13.4,38.5c0,2.1-1,3.8-1.9,4.8c1.3-0.5,2.4-1.6,2.7-3.1c0.1-0.5,0.1-1,0-1.5
		C14,38.5,13.7,38.5,13.4,38.5"/>
	<path id="path3525" class="st49" d="M9.4,36.3c0.6-0.5,1.3-0.7,2-0.7c-0.2-0.1-0.3-0.1-0.5-0.1c-0.9-0.2-1.9,0-2.6,0.4
		C8.7,35.9,9.1,36.1,9.4,36.3"/>
	<path id="path3527" class="st49" d="M12.4,38.5c-0.3,0.6-0.5,1-0.6,1.4c0,0.1-0.1,0.2-0.1,0.3c-0.1,0.2-0.3,0.7-0.3,0.7l-0.1,0.3
		l-0.6,1.4c0.2,0.2,0.3,0.4,0.5,0.5c0.8-1,1.9-2.6,1.9-4.7C12.9,38.4,12.6,38.4,12.4,38.5"/>
	<path id="path3529" class="st49" d="M8.5,42.3c-0.3-0.1-0.6-0.2-0.8-0.3c0.1,0.3,0.2,0.6,0.4,0.8c0.3,0.2,0.6,0.3,1,0.5
		C8.8,43,8.6,42.7,8.5,42.3"/>
	<path id="path3531" class="st49" d="M7.2,41.8c-0.2-0.1-0.4-0.2-0.5-0.4c0.2,0.3,0.4,0.6,0.7,0.9C7.3,42.1,7.2,42,7.2,41.8"/>
	<path id="path3533" class="st28" d="M85.2,40.2c0.4,2.5,2.8,4.2,5.4,3.7c2.5-0.4,4.2-2.8,3.7-5.4c-0.4-2.5-2.8-4.2-5.4-3.7
		C86.5,35.3,84.8,37.7,85.2,40.2"/>
	<path id="path3535" class="st49" d="M88,38.3c0,0,0.1-0.1,0.2-0.1c0.4-0.3,1.1-0.7,1.1-0.8c0.1-0.1,0.2-0.1,0.3-0.2
		c0.3-0.2,0.6-0.4,0.9-0.6c0.1-0.1,0.2-0.1,0.3-0.2c0.4-0.2,0.9-0.4,1.4-0.4c0.4,0.3,0.7,0.6,1,1c-1.1,0.4-2.3,1.1-4.6,2.5
		C88.4,39.4,88,38.4,88,38.3"/>
	<path id="path3537" class="st49" d="M89,40.8c0-0.1-0.3-0.6-0.3-0.8c2.4-1.5,3.5-2.1,4.7-2.6c0.2,0.3,0.3,0.7,0.4,1
		C93.1,39.4,91.3,40.3,89,40.8"/>
	<path id="path3539" class="st49" d="M89.3,37c-0.9-0.5-1.9-0.4-2.7-0.1c0.3-0.4,0.7-0.7,1.1-1c0.7-0.1,1.8-0.2,2.6,0.5
		C89.9,36.6,89.6,36.8,89.3,37"/>
	<path id="path3541" class="st49" d="M92.9,41.3c-0.1,0.1-0.2,0.2-0.4,0.2c-0.3,0.1-0.5,0.3-0.8,0.4c-0.1,0-0.3,0.1-0.4,0.1
		c-0.4,0.1-1.5,0.4-1.6,0.4c0,0-0.4-1-0.5-1.4c1.8-0.4,3.7-1.2,4.7-2.2c0.1,0.5,0,0.9-0.1,1.4C93.6,40.7,93.3,41.1,92.9,41.3"/>
	<path id="path3543" class="st49" d="M89.6,42.9l0.4-0.1c0.3-0.1,0.7-0.2,1.1-0.3c-0.2,0.4-0.5,0.7-0.8,0.9c-0.4,0.1-0.8,0-1.2,0
		C89.4,43.2,89.6,42.9,89.6,42.9"/>
	<path id="path3545" class="st49" d="M85.9,38.2c0.1-0.3,0.2-0.5,0.3-0.8c0.7-0.3,1.8-0.6,2.7-0.2l-1.3,0.9c-0.3,0-0.5,0-0.7,0
		c-0.1,0-0.2,0-0.3,0C86.3,38.1,86.1,38.2,85.9,38.2"/>
	<path id="path3547" class="st49" d="M86.6,38.5c0,2.1,1,3.8,1.9,4.8c-1.4-0.5-2.4-1.6-2.7-3.1c-0.1-0.5-0.1-1,0-1.5
		C86,38.5,86.3,38.5,86.6,38.5"/>
	<path id="path3549" class="st49" d="M90.6,36.3c-0.6-0.5-1.3-0.7-2-0.7c0.2-0.1,0.3-0.1,0.5-0.1c0.9-0.2,1.9,0,2.6,0.4
		C91.3,35.9,90.9,36.1,90.6,36.3"/>
	<path id="path3551" class="st49" d="M87.6,38.5c0.3,0.6,0.5,1,0.6,1.4c0,0.1,0.1,0.2,0.1,0.3c0.1,0.2,0.3,0.7,0.3,0.7l0.1,0.3
		l0.6,1.4c-0.2,0.2-0.3,0.4-0.5,0.5c-0.8-1-1.9-2.6-1.9-4.7C87.1,38.4,87.4,38.4,87.6,38.5"/>
	<path id="path3553" class="st49" d="M91.5,42.3c0.3-0.1,0.6-0.2,0.8-0.3c-0.1,0.3-0.2,0.6-0.4,0.8c-0.3,0.2-0.6,0.3-1,0.5
		C91.2,43,91.4,42.7,91.5,42.3"/>
</g>
</svg>
