<?xml version="1.0" encoding="utf-8"?>
<!-- Generator: Adobe Illustrator 19.2.1, SVG Export Plug-In . SVG Version: 6.00 Build 0)  -->
<svg version="1.1" id="Capa_1" xmlns="http://www.w3.org/2000/svg" xmlns:xlink="http://www.w3.org/1999/xlink" x="0px" y="0px"
	 viewBox="0 0 100 100" style="enable-background:new 0 0 100 100;" xml:space="preserve">
<style type="text/css">
	.st0{fill:#9C824A;stroke:#9C824A;stroke-width:0.793;stroke-miterlimit:282;}
	.st1{fill:#023474;stroke:#023474;stroke-width:0.793;stroke-miterlimit:282;}
	.st2{fill:#FFFFFF;stroke:#FFFFFF;stroke-width:0.793;stroke-miterlimit:282;}
	.st3{fill:#EF0107;stroke:#EF0107;stroke-width:0.793;stroke-miterlimit:282;}
	.st4{fill:#DB0007;stroke:#DB0007;stroke-width:0.793;stroke-miterlimit:282;}
	.st5{fill:#FFFFFF;}
	.st6{fill:#9C824A;}
	.st7{fill:#EF0107;stroke:#EF0107;stroke-width:0.3115;stroke-miterlimit:282;}
	.st8{fill:#DB0007;stroke:#DB0007;stroke-width:0.3115;stroke-miterlimit:282;}
	.st9{fill:#DB0007;}
	.st10{fill:#FFFFFF;stroke:#FFFFFF;stroke-width:0.3115;stroke-miterlimit:282;}
	.st11{fill:#FFFFFF;stroke:#FFFFFF;stroke-width:0.554;stroke-miterlimit:3.864;}
	.st12{fill:#231F20;}
	.st13{fill:#00B6F1;}
	.st14{fill:#EF3E2E;}
	.st15{fill:#BBBDBF;}
	.st16{fill:#F0B83D;}
	.st17{fill:#001C58;}
	.st18{fill:#94BEE5;}
	.st19{fill:none;stroke:#7A003C;stroke-width:2.2437;stroke-miterlimit:6;}
	.st20{fill:#7A003C;}
	.st21{fill:#FFE600;}
	.st22{fill:#DBA111;}
	.st23{fill:#034694;}
	.st24{fill:#D1D3D4;}
	.st25{fill:#ED1C24;}
	.st26{fill:#6A7AB5;}
	.st27{fill:none;}
	.st28{fill:#274488;}
	.st29{fill:#004798;stroke:#004798;stroke-width:9.375000e-02;}
	.st30{fill:#FFFFFF;stroke:#FFFFFF;stroke-width:9.375000e-02;}
	.st31{fill:#FABC00;stroke:#FABC00;stroke-width:9.375000e-02;}
	.st32{fill:#5299C6;}
	.st33{fill:#60223B;}
	.st34{fill:#F7C240;}
	.st35{fill:#292D6B;}
	.st36{fill:#1B458F;}
	.st37{fill:#C4122E;}
	.st38{fill:#27409B;}
	.st39{clip-path:url(#SVGID_2_);fill:#FFFFFF;}
	.st40{fill:#F4F4F4;}
	.st41{fill:#D3D2D2;}
	.st42{fill:#A7A5A6;}
	.st43{fill:#091453;}
	.st44{fill:none;stroke:#FFFFFF;stroke-width:6.6301;}
	.st45{clip-path:url(#SVGID_4_);}
	.st46{fill:#724314;}
	.st47{fill:#240B08;}
	.st48{fill:#018B4B;}
	.st49{fill:#A6181D;}
	.st50{fill:#592D09;}
	.st51{fill:#FFCE65;}
	.st52{fill:#5CBFEB;}
	.st53{fill:none;stroke:#000000;stroke-width:10;}
	.st54{fill:none;stroke:#000000;}
	.st55{fill:#B2B2B2;}
	.st56{fill:none;stroke:#000000;stroke-width:0.3;}
	.st57{fill:#00A650;stroke:#000000;stroke-width:2;}
	.st58{fill:#241F20;stroke:#241F20;stroke-width:9.375000e-02;}
	.st59{fill:#FFF200;stroke:#FFF200;stroke-width:9.375000e-02;}
	.st60{fill:#A68A26;}
	.st61{fill:none;stroke:#A68A26;stroke-width:4.792100e-02;stroke-miterlimit:3.8637;}
	.st62{fill:#211E1E;}
	.st63{fill:none;stroke:#211E1E;stroke-width:4.792100e-02;stroke-miterlimit:3.8637;}
	.st64{fill:#EB172B;}
	.st65{fill:none;stroke:#EB172B;stroke-width:4.792100e-02;stroke-miterlimit:3.8637;}
	.st66{fill:#A68A26;stroke:#A68A26;stroke-width:4.792100e-02;stroke-miterlimit:3.8637;}
	.st67{fill:#D1BF7F;}
	.st68{fill:none;stroke:#D1BF7F;stroke-width:4.792100e-02;stroke-miterlimit:3.8637;}
	.st69{fill:none;stroke:#FFFFFF;stroke-width:4.792100e-02;stroke-miterlimit:3.8637;}
	.st70{fill:#EB172B;stroke:#EB172B;stroke-width:4.792100e-02;stroke-miterlimit:3.8637;}
	.st71{fill:#ED2127;}
	.st72{fill:#FBEE23;}
	.st73{stroke:#000000;}
	.st74{fill:#CF1F44;}
	.st75{fill:#1B449C;}
	.st76{fill:#E03A3E;}
	.st77{fill:#2E6ABD;stroke:#2E6ABD;stroke-width:0.617;}
	.st78{fill:#FFFFFF;stroke:#FFFFFF;stroke-width:0.6175;}
	.st79{fill:#ED1248;}
	.st80{fill:#2E6ABD;}
	.st81{fill:#FDE100;}
	.st82{fill:#CC0000;}
	.st83{fill:#211E1F;}
	.st84{fill:#ED1A3B;}
	.st85{fill:#00AEEF;}
	.st86{fill:#FFC40D;}
	.st87{fill:#22B24C;}
	.st88{fill:#FFC20E;}
	.st89{fill:#0A3F86;}
	.st90{fill:#005CA9;}
	.st91{fill:#FFE000;}
	.st92{fill:#E2001A;}
	.st93{opacity:0;}
	.st94{opacity:0;fill:#FFFFFF;}
	.st95{fill:#FFFFFF;stroke:#000000;}
	.st96{fill:#0060A9;}
	.st97{fill:#E32219;}
	.st98{fill:#FFED00;}
	.st99{fill:#1D9053;}
	.st100{fill:#52A600;}
	.st101{fill:#EE2523;}
	.st102{fill:#F7D117;}
	.st103{fill:#171796;}
	.st104{fill:#009959;}
	.st105{fill:#D42E12;}
	.st106{fill:#703824;}
	.st107{fill:#E5254E;}
	.st108{fill:#8AC3EE;}
	.st109{fill:#B19221;}
	.st110{fill:#F5C03E;}
	.st111{fill:#FF1119;}
	.st112{fill:#1E6BC0;}
	.st113{fill:#B4742A;}
	.st114{fill:#371B02;}
	.st115{fill:url(#SVGID_5_);}
	.st116{fill:url(#SVGID_6_);}
	.st117{fill:url(#SVGID_7_);}
	.st118{fill:url(#SVGID_8_);}
	.st119{fill:url(#SVGID_9_);}
	.st120{fill:url(#SVGID_10_);}
	.st121{fill:url(#SVGID_11_);}
	.st122{fill:url(#SVGID_12_);}
	.st123{fill:url(#SVGID_13_);}
	.st124{fill:url(#SVGID_14_);}
	.st125{fill:#EB2626;}
	.st126{fill:#E9C32C;}
	.st127{fill:#D9D9D9;}
	.st128{fill:#009C5E;}
	.st129{fill:#1C75BC;}
	.st130{fill:#611D5C;}
	.st131{fill:#E2B900;}
	.st132{fill:#004B95;}
	.st133{fill:#A4234B;}
	.st134{fill:#DB2F36;}
	.st135{fill:#FFDF00;}
	.st136{fill:#A38D44;}
	.st137{fill:#57175E;}
	.st138{fill:#AFDCFD;}
	.st139{fill:#0090C6;}
	.st140{fill:#DB5232;}
	.st141{fill:#23C1E0;}
	.st142{fill:#F1A92A;}
	.st143{fill:#167FB6;}
	.st144{fill:#FED75D;}
	.st145{fill:#378CBF;}
	.st146{fill:#3E9692;}
	.st147{fill:#E67F29;}
	.st148{fill:#D8B43C;}
	.st149{fill:#EF3B33;}
	.st150{fill:#24923D;}
	.st151{opacity:6.000001e-02;fill:#101010;enable-background:new    ;}
	.st152{fill:#00529F;}
	.st153{fill:#EE324E;}
	.st154{fill:#FEBE10;}
	.st155{fill:#143C8B;}
	.st156{fill:#FFE24A;}
	.st157{fill:#EC1D24;}
	.st158{fill:#E6A514;}
	.st159{fill:#FFDF1C;}
	.st160{fill:#EE3524;}
	.st161{fill:#B23428;}
	.st162{fill:#D18816;}
	.st163{fill:#0097D7;}
	.st164{fill:#ED1C23;}
	.st165{fill:#E30613;}
	.st166{fill:#FFE400;}
	.st167{fill:#C51A1B;}
	.st168{clip-path:url(#SVGID_17_);}
	.st169{clip-path:url(#SVGID_18_);fill:none;stroke:#000000;stroke-width:0.8131;stroke-miterlimit:3.864;}
	.st170{fill:#0093D5;}
	.st171{fill:#004B9D;}
	.st172{fill:#FCC24F;}
	.st173{fill:#009545;}
	.st174{fill:#0072BB;}
	.st175{fill:#C4974E;}
	.st176{fill:url(#path1292_1_);}
	.st177{fill:#004996;}
	.st178{fill:#FFE667;}
	.st179{fill:none;stroke:#005187;stroke-width:0.153;stroke-miterlimit:3.864;}
	.st180{fill:#005187;}
	.st181{clip-path:url(#SVGID_20_);}
	.st182{clip-path:url(#SVGID_22_);fill:none;stroke:#000000;stroke-width:0.296;stroke-miterlimit:3.864;}
	.st183{clip-path:url(#SVGID_24_);fill:#FFE667;}
	.st184{clip-path:url(#SVGID_26_);fill:none;stroke:#000000;stroke-width:8.300000e-02;stroke-miterlimit:3.864;}
	.st185{fill:none;stroke:#000000;stroke-width:0.153;stroke-miterlimit:3.864;}
	.st186{clip-path:url(#SVGID_28_);fill:#E70005;}
	.st187{clip-path:url(#SVGID_30_);fill:none;stroke:#E70005;stroke-width:0.296;stroke-miterlimit:3.864;}
	.st188{clip-path:url(#SVGID_32_);fill:#E70005;}
	.st189{clip-path:url(#SVGID_34_);fill:none;stroke:#E70005;stroke-width:0.296;stroke-miterlimit:3.864;}
	.st190{clip-path:url(#SVGID_36_);fill:#E70005;}
	.st191{clip-path:url(#SVGID_38_);fill:none;stroke:#E70005;stroke-width:0.296;stroke-miterlimit:3.864;}
	.st192{clip-path:url(#SVGID_40_);fill:#E70005;}
	.st193{clip-path:url(#SVGID_42_);fill:none;stroke:#E70005;stroke-width:0.296;stroke-miterlimit:3.864;}
	.st194{fill:#E70005;}
	.st195{fill:none;stroke:#000000;stroke-width:0.141;stroke-miterlimit:3.864;}
	.st196{fill:#00276D;}
	.st197{fill:#C49308;}
	.st198{fill:#179D33;}
	.st199{fill:#999999;}
	.st200{fill:#FF0000;}
	.st201{fill:#E31837;}
	.st202{fill:#06357A;}
	.st203{fill:#B4053F;}
	.st204{fill:#DCA43E;}
	.st205{fill:#005CA5;}
	.st206{fill:#FAC400;}
	.st207{fill:#004083;}
	.st208{fill:#A95932;}
	.st209{fill:none;stroke:#000000;stroke-width:1.2215;}
	.st210{fill:#E62627;}
	.st211{fill:#00458C;}
	.st212{fill:#E11B22;}
	.st213{fill:#00AB4E;}
	.st214{fill:#F47920;}
	.st215{fill:#C7C8CA;}
	.st216{fill:#E11515;}
	.st217{fill:#A4965F;}
	.st218{fill:#E51636;}
	.st219{fill:#EACC00;}
	.st220{fill:#4F846B;}
	.st221{fill:#E22227;}
	.st222{fill:#FAE700;}
	.st223{fill:url(#SVGID_43_);}
	.st224{fill:#666666;}
	.st225{fill:#FFF200;}
	.st226{fill:#00275D;}
	.st227{fill:#EF3E33;}
	.st228{fill:none;stroke:#00275D;stroke-width:2.632;}
	.st229{fill:#3F7652;}
	.st230{fill:#F1D261;}
	.st231{fill:#004D8F;}
	.st232{fill:#E7B137;stroke:#E7B137;stroke-miterlimit:10;}
	.st233{fill:#E7B137;}
	.st234{fill:#162577;}
	.st235{fill:#12692C;}
	.st236{fill:#D8141D;}
	.st237{fill:#AB830D;}
	.st238{fill:#0086CB;}
	.st239{fill:#001F42;}
	.st240{fill:#9A8F4A;}
	.st241{fill:#00559D;}
	.st242{fill:#FDDE00;}
	.st243{fill:#00924C;}
	.st244{fill:#233984;}
	.st245{fill:#FFD42E;}
	.st246{fill:#BA3733;}
	.st247{fill:#46714D;}
	.st248{fill:#221F1F;}
	.st249{fill:#00559E;}
	.st250{fill:#005C46;}
	.st251{fill:#FBC860;}
	.st252{fill:#D57C48;}
	.st253{fill:#040403;}
	.st254{fill:#4AB969;}
	.st255{fill:#8ED8F8;}
	.st256{fill:#FEC34E;}
	.st257{fill:#FFC95B;}
	.st258{fill:#00644C;}
	.st259{fill:#70B865;}
	.st260{fill:#CA6F44;}
	.st261{fill:#A8B8BE;}
	.st262{fill:#1C2C80;}
	.st263{fill:#E10321;}
	.st264{fill:none;stroke:#231F20;stroke-width:0.318;stroke-miterlimit:3.864;}
	.st265{fill:#D71920;}
	.st266{fill:#484749;}
	.st267{fill:#D9DBDC;}
	.st268{fill:#DF725A;}
	.st269{fill:#F2CABA;}
	.st270{fill:#E89C84;}
	.st271{fill:#264F99;}
	.st272{clip-path:url(#SVGID_45_);}
	.st273{fill:#161413;}
	.st274{fill:#ED1B26;}
	.st275{fill:#E60D2E;}
	.st276{fill:#FCD600;}
	.st277{fill:#004D91;}
	.st278{fill:#EAB412;}
	.st279{fill:#FDD31D;}
	.st280{fill:#EFB800;}
	.st281{fill:#FFF100;}
	.st282{fill:#ED3024;}
	.st283{fill:#00A398;}
	.st284{fill:#D00027;}
	.st285{fill:#FEF667;}
</style>
<path id="path3247_1_"  d="M78.5,68.1c0,0,19.1-6.7,13.8-22.5c-2.1-6.3-14-12-20.2-16
	c-6.2-4-18.7-8.1-14-18c1.6-3.5,6.5-4.3,11.8-2.2c5.2,2,8,6.4,15,10.4c0.5,0.3,0.5-1.3,0.4-1.9c-0.2-1.4-2.1-2.7-2.3-4.1
	c-0.1-1.3,1.9-3,1.3-4.1c-1.6-2.9-6.9-4.9-11.6-6.4c-9.7-3.1-18.9,1.7-21.5,6.9c-5.1,10.2,2.1,20.1,16.1,27.3
	c11.4,5.9,21.5,8.7,20.1,19.3C86.8,61,78.5,68.1,78.5,68.1z"/>
<path id="path3249_1_" class="st5" d="M53.9,9.1c0,0,2.2-3,4.2-4.1c2.4-1.3,5.9-2.1,7.2-2c1,0.1,1.9-0.2,2.9-0.1
	c1.1,0.1,2.4,0.3,3.5,0.6C73.6,4,76.8,5.2,78.5,6c1.4,0.7,4.7,2.8,5,3.8c0.1,0.3-2-0.2-2.5-0.5c-1.8-1.1-2.2-1.5-4-2.4
	c-1.9-0.9-5.5-2.6-8-2.8c-1.6-0.1-3.2-0.1-5,0c-0.8,0.1-3.7,0.9-5.7,1.9C55.8,7.3,53.9,9.1,53.9,9.1z"/>
<path id="path3817" class="st5" d="M55.7,16.2c0,0,5.1,7.4,8.2,9.4c4.7,3,9.8,5.5,14.3,8.4c3.7,2.4,9.6,5.1,11.7,8.9
	c1.5,2.7,2.1,10.1,2.1,10.1s-0.5-4.6-2.4-8.3c-0.8-1.6-2.6-3.2-3.8-4.1c-2.3-1.7-5.4-3.4-7.9-5c-2.8-1.8-4.6-3.1-8.2-4.9
	c-2.8-1.5-6.8-4.2-9.9-7.3C57.9,21.6,55.7,16.2,55.7,16.2z"/>
<path id="path4111"  d="M5.2,59.8c0,0,13,3.4,19.6,2.4c11.4-1.8,17.3-15.5,25-20.8c1.9-1.2,7.2-2,7.2-2
	s-6.2-5.9-13.3-4.8c-11.4,1.7-16,14.4-26.4,21.4C11.2,60,5.2,59.8,5.2,59.8z"/>
<path id="path4113" class="st5" d="M11.7,59.5c0,0,2.8,0,4.2-0.6c1.6-0.7,3.2-1.7,4.6-2.9c3-2.6,6.1-6.1,9-9.4
	c3.1-3.5,7.1-7.5,10.6-9.2c1.4-0.7,3.6-0.5,5.1-0.5c2.7,0,9,1.3,9,1.3s-4.7-2.6-7.2-3c-1.8-0.3-4.5,0.3-6.1,1.1
	C32.7,40.3,26,52,18.2,57c-0.7,0.5-1.8,0.8-2.6,1.1C14.4,58.5,11.7,59.5,11.7,59.5z"/>
<path id="path4480"  d="M18.6,67.6c0,0,13,3.4,19.6,2.4c11.4-1.8,17.3-15.5,25-20.8
	c1.9-1.2,7.2-2,7.2-2s-6.2-5.9-13.3-4.8c-11.4,1.7-16,14.4-26.4,21.4C24.6,67.9,18.6,67.6,18.6,67.6z"/>
<path id="path4482" class="st5" d="M25.2,67.3c0,0,2.8,0,4.2-0.6C31,66,32.6,65,34,63.8c3-2.6,6.1-6.1,9-9.4
	c3.1-3.5,7.1-7.5,10.6-9.2c1.4-0.7,3.6-0.5,5.1-0.5c2.7,0,9,1.3,9,1.3s-4.7-2.6-7.2-3c-1.8-0.3-4.5,0.3-6.1,1.1
	c-8.3,4.1-15,15.8-22.9,20.8c-0.7,0.5-1.8,0.8-2.6,1.1C27.9,66.3,25.2,67.3,25.2,67.3z"/>
<path id="path4486"  d="M31.7,75.3c0,0,13,3.4,19.6,2.4c11.4-1.8,17.3-15.5,25-20.8
	c1.9-1.2,7.2-2,7.2-2s-6.2-5.9-13.3-4.8c-11.4,1.7-16,14.4-26.4,21.4C37.7,75.5,31.7,75.3,31.7,75.3z"/>
<path id="path4488" class="st5" d="M38.2,75c0,0,2.8,0,4.2-0.6c1.6-0.7,3.2-1.7,4.6-2.9c3-2.6,6.1-6.1,9-9.4
	c3.1-3.5,7.1-7.5,10.6-9.2c1.4-0.7,3.6-0.5,5.1-0.5c2.7,0,9,1.3,9,1.3s-4.7-2.6-7.2-3c-1.8-0.3-4.5,0.3-6.1,1.1
	c-8.3,4.1-15,15.8-22.9,20.8c-0.7,0.5-1.8,0.8-2.6,1.1C40.9,74,38.2,75,38.2,75z"/>
<path id="text4511" class="st73" d="M0,70.7l0.9-0.6c0.1,0.7,0.3,1.1,0.4,1.4c0.1,0.3,0.2,0.5,0.4,0.7c0.3,0.3,0.5,0.6,0.9,0.6
	c0.3,0.1,0.6,0,0.9-0.2c0.2-0.1,0.3-0.3,0.4-0.6c0.1-0.2,0.1-0.6,0-1.2l-0.1-0.6c-0.1-0.8-0.1-1.4,0-1.8C4,68,4.2,67.7,4.5,67.5
	c0.3-0.2,0.6-0.3,1-0.4c0.4,0,0.7,0,1,0.2c0.3,0.2,0.6,0.4,0.9,0.8c0.3,0.5,0.6,1,0.8,1.7l-0.8,0.6c-0.2-0.6-0.3-1-0.4-1.2
	C7.1,69,7,68.8,6.9,68.6C6.6,68.3,6.3,68.1,6,68c-0.3,0-0.6,0-0.7,0.2c-0.1,0.1-0.2,0.2-0.3,0.4c-0.1,0.2-0.1,0.4-0.1,0.6
	c0,0.2,0,0.5,0.1,0.8L5,70.6C5.1,71.4,5,72,4.9,72.4c-0.1,0.4-0.4,0.7-0.7,1c-0.5,0.3-1,0.5-1.6,0.4c-0.6-0.1-1.2-0.5-1.7-1.2
	c-0.2-0.2-0.3-0.4-0.4-0.7C0.3,71.6,0.2,71.2,0,70.7L0,70.7z M5.6,78l4-6.7l0.7,0.7l-3.1,5.3l5.2-3.2l0.7,0.7L9.9,80l5.3-3l0.6,0.6
	L9,81.5l-0.8-0.8l3.2-5l-5.1,3.1L5.6,78z M11.8,84l6.8-4.3l0.9,0.6l-2,7.8l-0.9-0.7l0.6-2.2l-2.6-1.9l-1.9,1.2L11.8,84z M15.2,82.9
	l2.1,1.5l0.9-3.4L15.2,82.9z M19.6,89.3l3.5-6.7l0.9,0.5l0.7,6.9l2.7-5.2l0.8,0.4L24.7,92l-0.9-0.5l-0.7-6.9l-2.7,5.2L19.6,89.3z
	 M27.3,92.9l0.4-1c0.5,0.5,0.8,0.8,1.1,0.9c0.2,0.1,0.5,0.3,0.7,0.3c0.4,0.1,0.8,0.2,1.1,0c0.3-0.1,0.5-0.4,0.6-0.7
	c0.1-0.2,0.1-0.5,0.1-0.7c-0.1-0.2-0.3-0.6-0.7-1.1l-0.4-0.5c-0.5-0.6-0.8-1.1-0.9-1.5c-0.1-0.4-0.1-0.8,0-1.1
	c0.1-0.3,0.3-0.6,0.6-0.8c0.3-0.2,0.6-0.4,1-0.4c0.4-0.1,0.8,0,1.2,0.2c0.5,0.2,1.1,0.5,1.6,0.9l-0.3,0.9c-0.4-0.4-0.8-0.7-0.9-0.8
	c-0.2-0.1-0.4-0.2-0.6-0.3c-0.4-0.1-0.7-0.2-1,0c-0.3,0.1-0.5,0.3-0.5,0.5c-0.1,0.2-0.1,0.3,0,0.5c0,0.2,0.1,0.4,0.2,0.5
	c0.1,0.2,0.3,0.4,0.5,0.6l0.4,0.5c0.5,0.6,0.8,1.1,0.9,1.5c0.1,0.4,0.1,0.8-0.1,1.2c-0.2,0.6-0.6,1-1.2,1.2s-1.3,0.2-2.1-0.1
	c-0.3-0.1-0.5-0.2-0.7-0.3C28.1,93.5,27.7,93.3,27.3,92.9L27.3,92.9z M34.1,95.4l1.8-7.3l4.1,1l-0.2,0.8l-3-0.7l-0.6,2.3l2.6,0.6
	l-0.2,0.8L36,92.2l-0.6,2.6l3.3,0.8l-0.2,0.8L34.1,95.4z M40.5,96.9l3.8-7.2l1.1,0.1l2.1,7.8l-1.1-0.1l-0.6-2.2L42.5,95l-1,2
	L40.5,96.9z M42.9,94.3l2.6,0.3l-0.9-3.4L42.9,94.3z M59.5,96.6c-0.3,0.2-0.6,0.3-0.8,0.4c-0.2,0.1-0.5,0.2-0.7,0.2
	c-0.3,0.1-0.5,0.1-0.8,0.1c-1.3,0.1-2.2-0.2-2.9-0.8c-0.7-0.7-1-1.6-1.2-2.7c-0.1-1.2,0.1-2.1,0.6-2.9c0.5-0.8,1.4-1.3,2.7-1.4
	c0.7-0.1,1.5,0,2.4,0.1l0.1,1c-0.8-0.2-1.3-0.3-1.6-0.3c-0.3,0-0.6,0-0.8,0c-0.9,0.1-1.5,0.5-1.9,1.1c-0.3,0.6-0.5,1.4-0.4,2.3
	c0.1,0.9,0.4,1.6,0.9,2.2c0.5,0.5,1.2,0.7,2.1,0.7c0.2,0,0.5-0.1,0.7-0.1c0.2-0.1,0.5-0.2,0.7-0.3c0.2-0.1,0.5-0.3,0.8-0.5
	L59.5,96.6z M62.9,96.3L61.3,89l1-0.2l1.6,7.4L62.9,96.3z M68.5,94.8l-2.1-6.4l-2.5,0.8l-0.2-0.8l6.1-2l0.2,0.8l-2.5,0.8l2.1,6.4
	L68.5,94.8z M76.3,91.8L74.9,89l-4.2-2.8l1.1-0.5l3.2,2.2l0.4-4l0.9-0.4l-0.5,5.1l1.4,2.8L76.3,91.8z M84.5,87.2l-2.2-7.8l0.8-0.6
	l6.9,4.2l-0.9,0.7l-1.9-1.2l-2.5,1.9l0.6,2.2L84.5,87.2z M84.5,83.6l2-1.6l-3-1.8L84.5,83.6z M91.8,81.4L86.5,76l3-3l0.6,0.6
	l-2.2,2.2l1.8,1.8l1.9-1.8l0.6,0.6l-1.9,1.8l2.4,2.4L91.8,81.4z M100,71.4c-0.1,0.3-0.1,0.6-0.2,0.9c-0.1,0.2-0.2,0.5-0.3,0.7
	c-0.1,0.2-0.3,0.5-0.5,0.7c-0.8,1-1.6,1.5-2.6,1.5c-1,0-1.9-0.3-2.8-1c-0.9-0.7-1.5-1.5-1.7-2.5c-0.2-0.9,0.1-1.9,0.8-2.9
	c0.4-0.5,1-1.1,1.7-1.7l0.8,0.6c-0.7,0.4-1.1,0.8-1.3,1c-0.2,0.2-0.4,0.4-0.6,0.6c-0.6,0.7-0.7,1.4-0.5,2.1c0.2,0.7,0.7,1.3,1.4,1.9
	c0.7,0.6,1.5,0.8,2.2,0.8c0.7,0,1.4-0.4,1.9-1c0.1-0.2,0.3-0.4,0.4-0.6c0.1-0.2,0.2-0.4,0.3-0.7c0.1-0.2,0.1-0.5,0.2-0.9L100,71.4z"
	/>
</svg>
