<?xml version="1.0" encoding="utf-8"?>
<!-- Generator: Adobe Illustrator 19.2.1, SVG Export Plug-In . SVG Version: 6.00 Build 0)  -->
<svg version="1.1" id="Capa_1" xmlns="http://www.w3.org/2000/svg" xmlns:xlink="http://www.w3.org/1999/xlink" x="0px" y="0px"
	 viewBox="0 0 100 100" style="enable-background:new 0 0 100 100;" xml:space="preserve">
<style type="text/css">
	.st0{fill:url(#path34_4_);}
	.st1{fill:url(#path890_1_);}
	.st2{fill:#FFE500;stroke:#000000;stroke-width:2.098;stroke-miterlimit:3.863;}
	.st3{fill:#DA020E;}
	.st4{fill:#FFE500;}
	.st5{clip-path:url(#SVGID_2_);}
	.st6{fill:none;stroke:#B54005;stroke-width:10;stroke-miterlimit:3.863;}
	.st7{fill:url(#path7506_1_);}
	.st8{fill:url(#path8794_1_);}
	.st9{fill:url(#path15846_1_);}
	.st10{fill:url(#path16274_1_);}
	.st11{fill:url(#path39821_1_);}
	.st12{fill:url(#path39847_1_);}
	.st13{fill:url(#path39878_1_);}
	.st14{fill:url(#path39888_1_);}
	.st15{fill:url(#path41035_1_);}
	.st16{fill:url(#path9646-8_1_);}
	.st17{fill:url(#path41092_1_);}
	.st18{fill:url(#path41094_1_);}
	.st19{fill:none;stroke:#000000;stroke-width:2.098;stroke-miterlimit:3.863;}
	.st20{fill:url(#path41152_1_);}
	.st21{fill:url(#path39854_1_);}
	.st22{fill:url(#path39874_1_);}
	.st23{fill:#9C824A;stroke:#9C824A;stroke-width:0.793;stroke-miterlimit:282;}
	.st24{fill:#023474;stroke:#023474;stroke-width:0.793;stroke-miterlimit:282;}
	.st25{fill:#FFFFFF;stroke:#FFFFFF;stroke-width:0.793;stroke-miterlimit:282;}
	.st26{fill:#EF0107;stroke:#EF0107;stroke-width:0.793;stroke-miterlimit:282;}
	.st27{fill:#DB0007;stroke:#DB0007;stroke-width:0.793;stroke-miterlimit:282;}
	.st28{fill:#FFFFFF;}
	.st29{fill:#9C824A;}
	.st30{fill:#EF0107;stroke:#EF0107;stroke-width:0.3115;stroke-miterlimit:282;}
	.st31{fill:#DB0007;stroke:#DB0007;stroke-width:0.3115;stroke-miterlimit:282;}
	.st32{fill:#DB0007;}
	.st33{fill:#FFFFFF;stroke:#FFFFFF;stroke-width:0.3115;stroke-miterlimit:282;}
	.st34{fill:#FFFFFF;stroke:#FFFFFF;stroke-width:0.554;stroke-miterlimit:3.864;}
	.st35{fill:#231F20;}
	.st36{fill:#00B6F1;stroke:#00B6F1;stroke-width:1.700000e-02;stroke-miterlimit:3.864;}
	.st37{fill:#EF3E2E;}
	.st38{fill:#BBBDBF;}
	.st39{fill:#F0B83D;}
	.st40{fill:#00B6F1;stroke:#FFFFFF;stroke-width:1.700000e-02;stroke-miterlimit:3.864;}
	.st41{fill:#001C58;}
	.st42{fill:#94BEE5;}
	.st43{fill:none;stroke:#7A003C;stroke-width:2.2437;stroke-miterlimit:6;}
	.st44{fill:#7A003C;}
	.st45{fill:#FFE600;}
	.st46{fill:#DBA111;}
	.st47{fill:#034694;}
	.st48{fill:#D1D3D4;}
	.st49{fill:#ED1C24;}
	.st50{fill:#6A7AB5;}
	.st51{fill:none;}
	.st52{fill:#274488;}
	.st53{fill:#004798;stroke:#004798;stroke-width:9.375000e-02;}
	.st54{fill:#FFFFFF;stroke:#FFFFFF;stroke-width:9.375000e-02;}
	.st55{fill:#FABC00;stroke:#FABC00;stroke-width:9.375000e-02;}
	.st56{fill:none;stroke:#FFFFFF;stroke-width:7.865;stroke-miterlimit:3.864;}
	.st57{fill:none;stroke:#FFFFFF;stroke-width:7.865;stroke-miterlimit:12;}
	.st58{fill:none;stroke:#FFFFFF;stroke-width:7.865;stroke-miterlimit:22;}
	.st59{fill:none;stroke:#FFFFFF;stroke-width:7.865;stroke-miterlimit:6;}
	.st60{fill:#00A398;}
	.st61{fill:#D00027;}
	.st62{fill:none;stroke:#FFFFFF;stroke-width:17.3907;stroke-miterlimit:3.864;}
	.st63{fill:none;stroke:#FFFFFF;stroke-width:13.1107;stroke-miterlimit:3.864;}
	.st64{fill:#FEF667;}
	.st65{fill:#D00027;stroke:#D00027;}
	.st66{fill:#5299C6;}
	.st67{fill:#60223B;}
	.st68{fill:#F7C240;}
	.st69{fill:#292D6B;}
	.st70{fill:#1B458F;}
	.st71{fill:#C4122E;}
	.st72{fill:#27409B;}
	.st73{clip-path:url(#SVGID_4_);}
	.st74{fill:#F4F4F4;}
	.st75{fill:#D3D2D2;}
	.st76{fill:#A7A5A6;}
	.st77{fill:#091453;}
	.st78{fill:none;stroke:#FFFFFF;stroke-width:6.6301;}
	.st79{clip-path:url(#SVGID_6_);}
	.st80{fill:#724314;}
	.st81{fill:#240B08;}
	.st82{fill:#018B4B;}
	.st83{fill:#A6181D;}
	.st84{fill:#592D09;}
	.st85{fill:#FFCE65;}
	.st86{fill:#5CBFEB;}
	.st87{fill:none;stroke:#000000;stroke-width:10;}
	.st88{fill:none;stroke:#000000;}
	.st89{fill:#B2B2B2;}
	.st90{fill:none;stroke:#000000;stroke-width:0.3;}
	.st91{fill:#00A650;stroke:#000000;stroke-width:2;}
	.st92{fill:#241F20;stroke:#241F20;stroke-width:9.375000e-02;}
	.st93{fill:#FFF200;stroke:#FFF200;stroke-width:9.375000e-02;}
	.st94{fill:#A68A26;}
	.st95{fill:none;stroke:#A68A26;stroke-width:4.792100e-02;stroke-miterlimit:3.8637;}
	.st96{fill:#211E1E;}
	.st97{fill:none;stroke:#211E1E;stroke-width:4.792100e-02;stroke-miterlimit:3.8637;}
	.st98{fill:#EB172B;}
	.st99{fill:none;stroke:#EB172B;stroke-width:4.792100e-02;stroke-miterlimit:3.8637;}
	.st100{fill:#A68A26;stroke:#A68A26;stroke-width:4.792100e-02;stroke-miterlimit:3.8637;}
	.st101{fill:#D1BF7F;}
	.st102{fill:none;stroke:#D1BF7F;stroke-width:4.792100e-02;stroke-miterlimit:3.8637;}
	.st103{fill:none;stroke:#FFFFFF;stroke-width:4.792100e-02;stroke-miterlimit:3.8637;}
	.st104{fill:#EB172B;stroke:#EB172B;stroke-width:4.792100e-02;stroke-miterlimit:3.8637;}
	.st105{fill:#ED2127;}
	.st106{fill:#FBEE23;}
	.st107{stroke:#000000;}
	.st108{fill:#CF1F44;}
	.st109{fill:#1B449C;}
	.st110{fill:#E03A3E;}
	.st111{fill:#E03A3E;stroke:#E03A3E;stroke-width:0.6565;}
	.st112{fill:none;stroke:#1B449C;stroke-width:0.7493;}
	.st113{fill:none;stroke:#1B449C;stroke-width:0.7567;}
	.st114{fill:#1B449C;stroke:#1B449C;stroke-width:0.6274;}
	.st115{fill:#1B449C;stroke:#1B449C;stroke-width:0.6755;}
	.st116{fill:#2E6ABD;stroke:#2E6ABD;stroke-width:0.617;}
	.st117{fill:#FFFFFF;stroke:#FFFFFF;stroke-width:0.6175;}
	.st118{fill:#ED1248;}
	.st119{fill:#2E6ABD;}
	.st120{fill:#FDE100;}
	.st121{fill:#CC0000;}
	.st122{fill:#211E1F;}
	.st123{fill:#ED1A3B;}
	.st124{fill:#00AEEF;}
	.st125{fill:#FFC40D;}
	.st126{fill:#22B24C;}
	.st127{fill:#FFC20E;}
	.st128{fill:#0A3F86;}
	.st129{fill:#005CA9;}
	.st130{fill:#FFE000;}
	.st131{fill:#E2001A;}
	.st132{opacity:0;}
	.st133{opacity:0;fill:#FFFFFF;}
	.st134{fill:#FFFFFF;stroke:#000000;}
	.st135{fill:#0060A9;}
	.st136{fill:#E32219;}
	.st137{fill:#FFED00;}
	.st138{fill:#1D9053;}
	.st139{fill:#52A600;}
	.st140{fill:#EE2523;}
	.st141{fill:#F7D117;}
	.st142{fill:#171796;}
	.st143{fill:#009959;}
	.st144{fill:#D42E12;}
	.st145{fill:#703824;}
	.st146{fill:#E5254E;}
	.st147{fill:#8AC3EE;}
	.st148{fill:#B19221;}
	.st149{fill:#F5C03E;}
	.st150{fill:#FF1119;}
	.st151{fill:#1E6BC0;}
	.st152{fill:#B4742A;}
	.st153{fill:#371B02;}
	.st154{fill:url(#SVGID_7_);}
	.st155{fill:url(#SVGID_8_);}
	.st156{fill:url(#SVGID_9_);}
	.st157{fill:url(#SVGID_10_);}
	.st158{fill:url(#SVGID_11_);}
	.st159{fill:url(#SVGID_12_);}
	.st160{fill:url(#SVGID_13_);}
	.st161{fill:url(#SVGID_14_);}
	.st162{fill:url(#SVGID_15_);}
	.st163{fill:url(#SVGID_16_);}
	.st164{fill:#EB2626;}
	.st165{fill:#E9C32C;}
	.st166{fill:#D9D9D9;}
	.st167{fill:#009C5E;}
	.st168{fill:#1C75BC;}
	.st169{fill:#611D5C;}
	.st170{fill:#E2B900;}
	.st171{fill:#004B95;}
	.st172{fill:#A4234B;}
	.st173{fill:#DB2F36;}
	.st174{fill:#FFDF00;}
	.st175{fill:#A38D44;}
	.st176{fill:#57175E;}
	.st177{fill:#AFDCFD;}
	.st178{fill:#0090C6;}
	.st179{fill:#DB5232;}
	.st180{fill:#23C1E0;}
	.st181{fill:#F1A92A;}
	.st182{fill:#167FB6;}
	.st183{fill:#FED75D;}
	.st184{fill:#378CBF;}
	.st185{fill:#3E9692;}
	.st186{fill:#E67F29;}
	.st187{fill:#D8B43C;}
	.st188{fill:#EF3B33;}
	.st189{fill:#24923D;}
	.st190{opacity:6.000001e-02;fill:#101010;enable-background:new    ;}
	.st191{fill:#00529F;}
	.st192{fill:#EE324E;}
	.st193{fill:#FEBE10;}
	.st194{fill:#143C8B;}
	.st195{fill:#FFE24A;}
	.st196{fill:#EC1D24;}
	.st197{fill:#E6A514;}
	.st198{fill:#FFDF1C;}
	.st199{fill:#EE3524;}
	.st200{fill:#B23428;}
	.st201{fill:#D18816;}
	.st202{fill:#0097D7;}
	.st203{fill:#ED1C23;}
	.st204{fill:#E30613;}
	.st205{fill:#FFE400;}
	.st206{fill:#C51A1B;}
	.st207{clip-path:url(#SVGID_19_);}
	.st208{clip-path:url(#SVGID_20_);fill:none;stroke:#000000;stroke-width:0.8131;stroke-miterlimit:3.864;}
	.st209{fill:#0093D5;}
	.st210{fill:#004B9D;}
	.st211{fill:#FCC24F;}
	.st212{fill:#009545;}
	.st213{fill:#0072BB;}
	.st214{fill:#C4974E;}
	.st215{fill:url(#path1292_1_);}
	.st216{fill:#004996;}
	.st217{fill:#FFE667;}
	.st218{fill:none;stroke:#005187;stroke-width:0.153;stroke-miterlimit:3.864;}
	.st219{fill:#005187;}
	.st220{clip-path:url(#SVGID_22_);}
	.st221{clip-path:url(#SVGID_24_);fill:none;stroke:#000000;stroke-width:0.296;stroke-miterlimit:3.864;}
	.st222{clip-path:url(#SVGID_26_);fill:#FFE667;}
	.st223{clip-path:url(#SVGID_28_);fill:none;stroke:#000000;stroke-width:8.300000e-02;stroke-miterlimit:3.864;}
	.st224{fill:none;stroke:#000000;stroke-width:0.153;stroke-miterlimit:3.864;}
	.st225{clip-path:url(#SVGID_30_);fill:#E70005;}
	.st226{clip-path:url(#SVGID_32_);fill:none;stroke:#E70005;stroke-width:0.296;stroke-miterlimit:3.864;}
	.st227{clip-path:url(#SVGID_34_);fill:#E70005;}
	.st228{clip-path:url(#SVGID_36_);fill:none;stroke:#E70005;stroke-width:0.296;stroke-miterlimit:3.864;}
	.st229{clip-path:url(#SVGID_38_);fill:#E70005;}
	.st230{clip-path:url(#SVGID_40_);fill:none;stroke:#E70005;stroke-width:0.296;stroke-miterlimit:3.864;}
	.st231{clip-path:url(#SVGID_42_);fill:#E70005;}
	.st232{clip-path:url(#SVGID_44_);fill:none;stroke:#E70005;stroke-width:0.296;stroke-miterlimit:3.864;}
	.st233{fill:#E70005;}
	.st234{fill:none;stroke:#000000;stroke-width:0.141;stroke-miterlimit:3.864;}
	.st235{fill:#00276D;}
	.st236{fill:#C49308;}
	.st237{fill:#179D33;}
	.st238{fill:#999999;}
	.st239{fill:#FF0000;}
	.st240{fill:#E31837;}
	.st241{fill:#06357A;}
	.st242{fill:#B4053F;}
	.st243{fill:#DCA43E;}
	.st244{fill:#005CA5;}
	.st245{fill:#FAC400;}
	.st246{fill:#004083;}
	.st247{fill:#A95932;}
	.st248{fill:none;stroke:#000000;stroke-width:1.2215;}
	.st249{fill:#E62627;}
	.st250{fill:#00458C;}
	.st251{fill:#E11B22;}
	.st252{fill:#00AB4E;}
	.st253{fill:#F47920;}
	.st254{fill:#C7C8CA;}
	.st255{fill:#E11515;}
	.st256{fill:#A4965F;}
	.st257{fill:#E51636;}
	.st258{fill:#EACC00;}
	.st259{fill:#4F846B;}
	.st260{fill:#E22227;}
	.st261{fill:#FAE700;}
	.st262{fill:url(#SVGID_45_);}
	.st263{fill:#666666;}
	.st264{fill:#FFF200;}
	.st265{fill:#00275D;}
	.st266{fill:#EF3E33;}
	.st267{fill:none;stroke:#00275D;stroke-width:2.632;}
	.st268{fill:#3F7652;}
	.st269{fill:#F1D261;}
	.st270{fill:#004D8F;}
	.st271{fill:#E7B137;stroke:#E7B137;stroke-miterlimit:10;}
	.st272{fill:#E7B137;}
	.st273{fill:#162577;}
	.st274{fill:#12692C;}
	.st275{fill:#D8141D;}
	.st276{fill:#AB830D;}
	.st277{fill:#0086CB;}
	.st278{fill:#001F42;}
	.st279{fill:#9A8F4A;}
	.st280{fill:#00559D;}
	.st281{fill:#FDDE00;}
	.st282{fill:#00924C;}
	.st283{fill:#233984;}
	.st284{fill:#FFD42E;}
	.st285{fill:#BA3733;}
	.st286{fill:#46714D;}
	.st287{fill:#221F1F;}
	.st288{fill:#00559E;}
	.st289{fill:#005C46;}
	.st290{fill:#FBC860;}
	.st291{fill:#D57C48;}
	.st292{fill:#040403;}
	.st293{fill:#4AB969;}
	.st294{fill:#8ED8F8;}
	.st295{fill:#FEC34E;}
	.st296{fill:#FFC95B;}
	.st297{fill:#00644C;}
	.st298{fill:#70B865;}
	.st299{fill:#CA6F44;}
	.st300{fill:#A8B8BE;}
	.st301{fill:#1C2C80;}
	.st302{fill:#E10321;}
	.st303{fill:none;stroke:#231F20;stroke-width:0.318;stroke-miterlimit:3.864;}
	.st304{fill:#D71920;}
	.st305{fill:#484749;}
	.st306{fill:#D9DBDC;}
	.st307{fill:#DF725A;}
	.st308{fill:#F2CABA;}
	.st309{fill:#E89C84;}
	.st310{fill:#264F99;}
	.st311{clip-path:url(#SVGID_47_);}
	.st312{fill:#161413;}
	.st313{fill:#ED1B26;}
	.st314{fill:#E60D2E;}
	.st315{fill:#FCD600;}
	.st316{fill:#004D91;}
	.st317{fill:#EAB412;}
	.st318{fill:#FDD31D;}
	.st319{fill:#EFB800;}
</style>
<g>
	<circle class="st28" cx="50" cy="50" r="50"/>
	<path class="st240" d="M68.9,68.9H31.1V31.1h37.7V68.9z M50,34.4c-8.6,0-15.6,7-15.6,15.6s7,15.6,15.6,15.6c8.6,0,15.6-7,15.6-15.6
		C65.6,41.4,58.6,34.4,50,34.4z"/>
	<polygon class="st241" points="62.3,45.9 54.1,45.9 54.1,37.7 45.9,37.7 45.9,45.9 37.7,45.9 37.7,54.1 45.9,54.1 45.9,62.3 
		54.1,62.3 54.1,54.1 62.3,54.1 	"/>
	<path class="st241" d="M67,70.2v-1h0.4l0.1,0.6h0l0.1-0.6H68v1h-0.2l0-0.8h0l-0.2,0.8h-0.2l-0.2-0.8h0l0,0.8H67z"/>
	<path class="st241" d="M68.4,70.2h-0.3v-1h0.4c0.2,0,0.3,0.1,0.3,0.3c0,0.1,0,0.2-0.1,0.2v0c0.1,0,0.1,0.1,0.1,0.1
		c0,0.1,0,0.3,0,0.3c0,0,0,0,0,0v0h-0.3c0,0,0,0,0-0.1c0-0.1,0-0.2,0-0.2c0-0.1,0-0.1-0.1-0.1h-0.1L68.4,70.2L68.4,70.2z M68.4,69.6
		L68.4,69.6c0.2,0,0.2-0.1,0.2-0.1c0-0.1-0.1-0.1-0.2-0.1V69.6z"/>
	<path class="st241" d="M31.1,29.5V23l1.7,0c0.6,0,1.2,0,1.7,0.3l0,0c0.6,0.4,0.7,1,0.7,1.6l0,0v2.9c0,0.7-0.2,1.2-0.7,1.4l0,0
		c-0.4,0.3-0.9,0.3-1.4,0.3l0,0L31.1,29.5L31.1,29.5z M32.9,28.2c0.3,0,0.5-0.1,0.6-0.2l0,0c0.1-0.1,0.1-0.3,0.1-0.6l0,0
		c0-0.1,0-0.2,0-0.3l0,0V25c0-0.4-0.1-0.5-0.2-0.6l0,0c-0.1-0.1-0.3-0.1-0.7-0.1l0,0v4C32.8,28.2,32.9,28.2,32.9,28.2L32.9,28.2z"/>
	<path class="st241" d="M35.7,29.5V23h3.6v1.4h-1.9v1.1h1.9v1.4h-1.9v1.3h2.1v1.4L35.7,29.5L35.7,29.5z"/>
	<path class="st241" d="M39.8,29.5V23h1.9c0.6,0,1.4,0,1.9,0.6l0,0c0.4,0.4,0.4,0.9,0.4,1.4l0,0c0,0.7-0.2,1.5-0.9,1.8l0,0
		C42.6,27,42,27,41.4,27l0,0v2.5L39.8,29.5L39.8,29.5z M41.4,25.7c0.3,0,0.6,0,0.8-0.1l0,0c0.1-0.2,0.2-0.4,0.2-0.6l0,0
		c0-0.2,0-0.6-0.2-0.7l0,0c-0.1,0-0.3,0-0.6,0l0,0h-0.1L41.4,25.7L41.4,25.7z"/>
	<path class="st241" d="M46.4,29.7c-0.8,0-1.3-0.2-1.6-0.6l0,0c-0.3-0.4-0.5-1-0.5-1.7l0,0v-2.6c0-0.6,0.2-1.1,0.6-1.5l0,0
		c0.4-0.3,0.9-0.5,1.6-0.5l0,0c0.7,0,1.2,0.2,1.6,0.5l0,0c0.4,0.3,0.5,0.8,0.5,1.5l0,0v2.6c0,0.7-0.1,1.3-0.5,1.7l0,0
		C47.7,29.5,47.2,29.7,46.4,29.7L46.4,29.7C46.4,29.7,46.4,29.7,46.4,29.7L46.4,29.7z M46,24.3c-0.1,0.2-0.1,0.4-0.1,0.6l0,0v2.6
		c0,0.2,0,0.4,0.1,0.6l0,0c0.1,0.2,0.2,0.3,0.4,0.3l0,0c0.2,0,0.3-0.1,0.4-0.3l0,0c0.1-0.2,0.1-0.4,0.1-0.6l0,0v-2.6
		c0-0.2,0-0.4-0.1-0.6l0,0c-0.1-0.2-0.2-0.2-0.4-0.3l0,0C46.2,24.1,46.1,24.2,46,24.3L46,24.3z"/>
	<path class="st241" d="M51.6,29.5L51.6,29.5c-0.1-0.2-0.1-0.3-0.1-0.4l0,0c0-0.2,0-0.4,0-0.6l0,0c0-0.1,0-0.1,0-0.2l0,0
		c0-0.3,0-0.5,0-0.7l0,0c0-0.4-0.1-0.6-0.5-0.6l0,0h-0.4v2.5v0.1h-1.6V23h2.3c0.6,0,1.1,0.1,1.4,0.4l0,0c0.3,0.3,0.5,0.8,0.5,1.4
		l0,0c0,0.7-0.2,1.2-0.7,1.5l0,0c0.4,0.1,0.6,0.4,0.7,0.8l0,0c0,0.5,0.1,1.6,0.1,2l0,0c0,0.1,0.1,0.1,0.1,0.2l0,0l0,0v0v0.1
		L51.6,29.5L51.6,29.5z M51,25.7c0.2,0,0.3-0.1,0.4-0.2l0,0c0.1-0.1,0.1-0.3,0.1-0.5l0,0c0-0.3-0.1-0.5-0.2-0.6l0,0
		c-0.1-0.1-0.3-0.1-0.6-0.1l0,0c0,0-0.1,0-0.2,0l0,0v1.5H51L51,25.7z"/>
	<path class="st241" d="M54.4,29.5v-5.2h-1.2V23V23h4v1.4H56v5.2L54.4,29.5L54.4,29.5z"/>
	<path class="st241" d="M57.7,29.5V23h1.6v6.6H57.7z"/>
	<path class="st241" d="M61.2,29.5L59.8,23h1.6l0.7,4.3l0.7-4.3h1.6l-1.4,6.6H61.2z"/>
	<path class="st241" d="M66.8,29.7c-0.8,0-1.3-0.2-1.6-0.6l0,0c-0.3-0.4-0.5-1-0.5-1.7l0,0v-2.6c0-0.6,0.2-1.1,0.6-1.5l0,0
		c0.4-0.3,0.9-0.5,1.6-0.5l0,0c0.7,0,1.2,0.2,1.6,0.5l0,0c0.4,0.3,0.5,0.8,0.5,1.5l0,0v2.6c0,0.7-0.1,1.3-0.5,1.7l0,0
		C68.1,29.5,67.5,29.7,66.8,29.7L66.8,29.7C66.8,29.7,66.8,29.7,66.8,29.7L66.8,29.7z M66.4,24.3c-0.1,0.2-0.1,0.4-0.1,0.6l0,0v2.6
		c0,0.2,0,0.4,0.1,0.6l0,0c0.1,0.2,0.2,0.3,0.4,0.3l0,0c0.2,0,0.3-0.1,0.4-0.3l0,0c0.1-0.2,0.1-0.4,0.1-0.6l0,0v-2.6
		c0-0.2,0-0.4-0.1-0.6l0,0c-0.1-0.2-0.2-0.2-0.4-0.2l0,0C66.5,24.1,66.4,24.2,66.4,24.3L66.4,24.3z"/>
	<path class="st241" d="M31.6,76.7c-0.3-0.4-0.5-0.9-0.5-1.6l0,0v-2.7c0-0.7,0.2-1.3,0.5-1.6l0,0c0.4-0.4,0.9-0.5,1.6-0.5l0,0
		c0.7,0,1.2,0.1,1.6,0.5l0,0c0.4,0.3,0.6,0.8,0.6,1.5l0,0v0.6h-1.6v-0.5c0-0.3,0-0.5-0.1-0.6l0,0c-0.1-0.1-0.2-0.2-0.3-0.2l0,0
		c0,0,0,0,0,0l0,0c-0.2,0-0.3,0.1-0.4,0.2l0,0c-0.1,0.1-0.1,0.3-0.1,0.5l0,0l0,3.2c0,0.4,0.1,0.5,0.5,0.5l0,0c0.2,0,0.4-0.1,0.4-0.3
		l0,0c0.1-0.2,0.1-0.4,0.1-0.6l0,0v-0.6h1.6v0.9c0,0.6-0.2,1.1-0.5,1.4l0,0c-0.4,0.3-0.9,0.5-1.7,0.5l0,0C32.5,77.2,32,77,31.6,76.7
		L31.6,76.7z"/>
	<path class="st241" d="M38.8,77.1L38.8,77.1c-0.1-0.2-0.1-0.3-0.1-0.4l0,0c0-0.2,0-0.4,0-0.6l0,0c0-0.1,0-0.1,0-0.2l0,0
		c0-0.3,0-0.5,0-0.7l0,0c0-0.4-0.1-0.6-0.5-0.6l0,0h-0.4V77v0.1h-1.6v-6.6h2.3c0.6,0,1.1,0.1,1.4,0.4l0,0c0.3,0.3,0.5,0.8,0.5,1.4
		l0,0c0,0.7-0.2,1.2-0.7,1.5l0,0c0.4,0.1,0.7,0.4,0.7,0.9l0,0c0,0.5,0.1,1.6,0.1,2l0,0c0,0.1,0.1,0.1,0.1,0.2l0,0l0,0v0v0.1
		L38.8,77.1L38.8,77.1z M37.7,73.2l0.5,0c0.2,0,0.3-0.1,0.4-0.2l0,0c0.1-0.1,0.1-0.3,0.1-0.5l0,0c0-0.3-0.1-0.5-0.2-0.6l0,0
		c-0.1-0.1-0.3-0.1-0.6-0.1l0,0c0,0-0.1,0-0.2,0l0,0L37.7,73.2L37.7,73.2z"/>
	<path class="st241" d="M43,77.2c-0.7,0-1.2-0.2-1.5-0.5l0,0c-0.4-0.3-0.6-0.8-0.6-1.5l0,0v-4.7v-0.1h1.6v5c0,0.3,0.1,0.5,0.5,0.5
		l0,0c0.4,0,0.5-0.3,0.5-0.6l0,0v-4.9h1.6v4.8c0,0.6-0.1,1.1-0.5,1.4l0,0C44.3,77,43.8,77.2,43,77.2L43,77.2
		C43,77.2,43,77.2,43,77.2L43,77.2z"/>
	<path class="st241" d="M45.6,77.1v-1.2l1.9-4h-1.8v-1.4v-0.1h3.6v1.3l-1.9,3.9h1.9v1.4L45.6,77.1L45.6,77.1z"/>
	<path class="st241" d="M53.9,77.1l-0.2-1.3h-1.1l-0.2,1.3h-1.7l1.4-6.6h1.9l1.4,6.6H53.9L53.9,77.1z M52.7,74.6h0.8L53.1,72
		L52.7,74.6L52.7,74.6z"/>
	<path class="st241" d="M55.8,77.1v-1.2l1.9-4H56v-1.4v-0.1h3.6v1.3l-1.9,3.9h1.9v1.4L55.8,77.1L55.8,77.1z"/>
	<path class="st241" d="M62.3,77.2c-0.7,0-1.2-0.2-1.5-0.5l0,0c-0.4-0.3-0.6-0.8-0.6-1.5l0,0v-4.7v-0.1h1.6l0,5
		c0,0.3,0.1,0.5,0.5,0.5l0,0c0.4,0,0.5-0.3,0.5-0.6l0,0v-4.9h1.6v4.8c0,0.6-0.1,1.1-0.5,1.4l0,0C63.6,77,63.1,77.2,62.3,77.2
		L62.3,77.2C62.3,77.2,62.3,77.2,62.3,77.2L62.3,77.2z"/>
	<path class="st241" d="M65.2,77.1v-6.6h1.6l0,5.2h1.9v1.4H65.2z"/>
	<path class="st241" d="M98.4,50c0,26.7-21.7,48.4-48.4,48.4C23.3,98.4,1.6,76.7,1.6,50S23.3,1.6,50,1.6C76.7,1.6,98.4,23.3,98.4,50
		z M50,13.1c-20.4,0-36.9,16.5-36.9,36.9S29.6,86.9,50,86.9c20.4,0,36.9-16.5,36.9-36.9S70.4,13.1,50,13.1z"/>
	<polygon class="st28" points="95.4,41 93,42.3 93.5,45.1 91.4,43.2 89,44.6 90.2,42 88.1,40.1 90.9,40.4 92.1,37.9 92.6,40.6 	"/>
	<polygon class="st28" points="88.5,24.3 86.8,26.5 88.3,28.8 85.7,27.9 83.9,30.1 84,27.2 81.4,26.3 84.1,25.5 84.2,22.7 85.8,25 	
		"/>
	<polygon class="st28" points="75.7,11.5 75,14.2 77.3,15.8 74.5,15.9 73.7,18.6 72.8,16 69.9,16.1 72.1,14.3 71.2,11.7 73.5,13.2 	
		"/>
	<polygon class="st28" points="59,4.6 59.4,7.4 62.1,7.9 59.6,9.1 59.9,11.9 58,9.8 55.4,11 56.8,8.6 54.9,6.5 57.7,7 	"/>
	<polygon class="st28" points="41,4.6 42.3,7 45.1,6.5 43.2,8.6 44.6,11 42,9.8 40.1,11.9 40.4,9.1 37.9,7.9 40.6,7.4 	"/>
	<polygon class="st28" points="24.3,11.5 26.5,13.2 28.8,11.7 27.9,14.3 30.1,16.1 27.2,16 26.3,18.6 25.5,15.9 22.7,15.8 25,14.2 	
		"/>
	<polygon class="st28" points="11.5,24.3 14.2,25 15.8,22.7 15.9,25.5 18.6,26.3 16,27.2 16.1,30.1 14.3,27.9 11.7,28.8 13.2,26.5 	
		"/>
	<polygon class="st28" points="4.6,41 7.4,40.6 7.9,37.9 9.1,40.4 11.9,40.1 9.8,42 11,44.6 8.6,43.2 6.5,45.1 7,42.3 	"/>
	<path class="st241" d="M67,70.1v-1h0.3l0.1,0.6h0l0.1-0.6H68v1h-0.2l0-0.8h0l-0.2,0.8h-0.2l-0.2-0.8h0l0,0.8H67z"/>
	<path class="st241" d="M68.4,70.1h-0.2v-1h0.4c0.2,0,0.3,0.1,0.3,0.3c0,0.1,0,0.2-0.1,0.2v0c0.1,0,0.1,0.1,0.1,0.1
		c0,0.1,0,0.3,0,0.3c0,0,0,0,0,0v0h-0.3c0,0,0,0,0-0.1c0-0.1,0-0.2,0-0.2c0-0.1,0-0.1-0.1-0.1h-0.1V70.1z M68.4,69.6L68.4,69.6
		c0.2,0,0.2-0.1,0.2-0.1c0-0.1-0.1-0.1-0.2-0.1L68.4,69.6L68.4,69.6z"/>
	<path class="st28" d="M18.2,82.7l3.5-4.2l1.7,1.5L22,83l0,0l2.7-1.9l1.7,1.5l-3.5,4.2l-1.2-1l2.9-3.2l0,0L21,85.1l-0.9-0.8l1.9-4
		l0,0l-2.7,3.4L18.2,82.7z"/>
	<path class="st28" d="M30.9,91.3l2.1-5.1l3.4,1.4l-0.4,1l-1.9-0.8l-0.4,0.9l1.9,0.8l-0.4,1l-1.9-0.8L32.8,91l2,0.8l-0.4,1
		L30.9,91.3z"/>
	<path class="st28" d="M45.8,91.5L45.8,91.5l0.9-1.6l1.6,0.2l-1.7,2.6l1.2,2.9l-1.6-0.2l-0.6-1.7l0,0l-1.1,1.5L43,95l1.8-2.6
		l-1.2-2.9l1.6,0.2L45.8,91.5z"/>
	<path class="st28" d="M56.7,95l-0.9-5.4l1.6-0.3l0.9,5.4L56.7,95z"/>
	<path class="st28" d="M68.1,87.8L68,87.5c-0.2-0.4-0.5-0.6-0.8-0.4c-0.5,0.2-0.5,0.5-0.3,0.8l1.1,2.5c0.1,0.3,0.3,0.4,0.7,0.2
		c0.5-0.2,0.3-0.7,0.2-1l-0.2-0.4l1.5-0.7l0.3,0.6c0.4,0.9,0.1,1.7-1.4,2.4c-1.3,0.6-2.1,0.3-2.6-0.7l-0.9-2
		c-0.5-1.1-0.1-1.9,1.2-2.5c1.2-0.6,2.2-0.5,2.6,0.5l0.2,0.4L68.1,87.8z"/>
	<path class="st28" d="M80.8,81.2c0.8,0.9,0.8,1.8-0.4,2.8c-1.2,1.1-2.1,1-2.9,0.1L76,82.4c-0.7-0.8-0.5-1.7,0.5-2.7
		c1-0.9,2-1,2.7-0.2L80.8,81.2z M78.1,80.7c-0.2-0.2-0.5-0.5-0.9-0.2c-0.4,0.3-0.2,0.7,0.1,0.9l1.5,1.7c0.2,0.2,0.6,0.5,1,0.2
		c0.4-0.3,0.1-0.7-0.1-1L78.1,80.7z"/>
</g>
</svg>
