<?xml version="1.0" encoding="utf-8"?>
<!-- Generator: Adobe Illustrator 19.2.1, SVG Export Plug-In . SVG Version: 6.00 Build 0)  -->
<svg version="1.1" id="Capa_1" xmlns="http://www.w3.org/2000/svg" xmlns:xlink="http://www.w3.org/1999/xlink" x="0px" y="0px"
	 viewBox="0 0 100 100" style="enable-background:new 0 0 100 100;" xml:space="preserve">
<style type="text/css">
	.st0{fill:url(#path34_4_);}
	.st1{fill:url(#path890_1_);}
	.st2{fill:#FFE500;stroke:#000000;stroke-width:2.098;stroke-miterlimit:3.863;}
	.st3{fill:#DA020E;}
	.st4{fill:#FFE500;}
	.st5{clip-path:url(#SVGID_2_);}
	.st6{fill:none;stroke:#B54005;stroke-width:10;stroke-miterlimit:3.863;}
	.st7{fill:url(#path7506_1_);}
	.st8{fill:url(#path8794_1_);}
	.st9{fill:url(#path15846_1_);}
	.st10{fill:url(#path16274_1_);}
	.st11{fill:url(#path39821_1_);}
	.st12{fill:url(#path39847_1_);}
	.st13{fill:url(#path39878_1_);}
	.st14{fill:url(#path39888_1_);}
	.st15{fill:url(#path41035_1_);}
	.st16{fill:url(#path9646-8_1_);}
	.st17{fill:url(#path41092_1_);}
	.st18{fill:url(#path41094_1_);}
	.st19{fill:none;stroke:#000000;stroke-width:2.098;stroke-miterlimit:3.863;}
	.st20{fill:url(#path41152_1_);}
	.st21{fill:url(#path39854_1_);}
	.st22{fill:url(#path39874_1_);}
	.st23{fill:#9C824A;stroke:#9C824A;stroke-width:0.793;stroke-miterlimit:282;}
	.st24{fill:#023474;stroke:#023474;stroke-width:0.793;stroke-miterlimit:282;}
	.st25{fill:#FFFFFF;stroke:#FFFFFF;stroke-width:0.793;stroke-miterlimit:282;}
	.st26{fill:#EF0107;stroke:#EF0107;stroke-width:0.793;stroke-miterlimit:282;}
	.st27{fill:#DB0007;stroke:#DB0007;stroke-width:0.793;stroke-miterlimit:282;}
	.st28{fill:#FFFFFF;}
	.st29{fill:#9C824A;}
	.st30{fill:#EF0107;stroke:#EF0107;stroke-width:0.3115;stroke-miterlimit:282;}
	.st31{fill:#DB0007;stroke:#DB0007;stroke-width:0.3115;stroke-miterlimit:282;}
	.st32{fill:#DB0007;}
	.st33{fill:#FFFFFF;stroke:#FFFFFF;stroke-width:0.3115;stroke-miterlimit:282;}
	.st34{fill:#FFFFFF;stroke:#FFFFFF;stroke-width:0.554;stroke-miterlimit:3.864;}
	.st35{fill:#231F20;}
	.st36{fill:#00B6F1;stroke:#00B6F1;stroke-width:1.700000e-02;stroke-miterlimit:3.864;}
	.st37{fill:#EF3E2E;}
	.st38{fill:#BBBDBF;}
	.st39{fill:#F0B83D;}
	.st40{fill:#00B6F1;stroke:#FFFFFF;stroke-width:1.700000e-02;stroke-miterlimit:3.864;}
	.st41{fill:#001C58;}
	.st42{fill:#94BEE5;}
	.st43{fill:none;stroke:#7A003C;stroke-width:2.2437;stroke-miterlimit:6;}
	.st44{fill:#7A003C;}
	.st45{fill:#FFE600;}
	.st46{fill:#DBA111;}
	.st47{fill:#034694;}
	.st48{fill:#D1D3D4;}
	.st49{fill:#ED1C24;}
	.st50{fill:#6A7AB5;}
	.st51{fill:none;}
	.st52{fill:#274488;}
	.st53{fill:#004798;stroke:#004798;stroke-width:9.375000e-02;}
	.st54{fill:#FFFFFF;stroke:#FFFFFF;stroke-width:9.375000e-02;}
	.st55{fill:#FABC00;stroke:#FABC00;stroke-width:9.375000e-02;}
	.st56{fill:none;stroke:#FFFFFF;stroke-width:7.865;stroke-miterlimit:3.864;}
	.st57{fill:none;stroke:#FFFFFF;stroke-width:7.865;stroke-miterlimit:12;}
	.st58{fill:none;stroke:#FFFFFF;stroke-width:7.865;stroke-miterlimit:22;}
	.st59{fill:none;stroke:#FFFFFF;stroke-width:7.865;stroke-miterlimit:6;}
	.st60{fill:#00A398;}
	.st61{fill:#D00027;}
	.st62{fill:none;stroke:#FFFFFF;stroke-width:17.3907;stroke-miterlimit:3.864;}
	.st63{fill:none;stroke:#FFFFFF;stroke-width:13.1107;stroke-miterlimit:3.864;}
	.st64{fill:#FEF667;}
	.st65{fill:#D00027;stroke:#D00027;}
	.st66{fill:#5299C6;}
	.st67{fill:#60223B;}
	.st68{fill:#F7C240;}
	.st69{fill:#292D6B;}
	.st70{fill:#1B458F;}
	.st71{fill:#C4122E;}
	.st72{fill:#27409B;}
	.st73{clip-path:url(#SVGID_4_);}
	.st74{fill:#F4F4F4;}
	.st75{fill:#D3D2D2;}
	.st76{fill:#A7A5A6;}
	.st77{fill:#091453;}
	.st78{fill:none;stroke:#FFFFFF;stroke-width:6.6301;}
	.st79{clip-path:url(#SVGID_6_);}
	.st80{fill:#724314;}
	.st81{fill:#240B08;}
	.st82{fill:#018B4B;}
	.st83{fill:#A6181D;}
	.st84{fill:#592D09;}
	.st85{fill:#FFCE65;}
	.st86{fill:#5CBFEB;}
	.st87{fill:none;stroke:#000000;stroke-width:10;}
	.st88{fill:none;stroke:#000000;}
	.st89{fill:#B2B2B2;}
	.st90{fill:none;stroke:#000000;stroke-width:0.3;}
	.st91{fill:#00A650;stroke:#000000;stroke-width:2;}
	.st92{fill:#241F20;stroke:#241F20;stroke-width:9.375000e-02;}
	.st93{fill:#FFF200;stroke:#FFF200;stroke-width:9.375000e-02;}
	.st94{fill:#A68A26;}
	.st95{fill:none;stroke:#A68A26;stroke-width:4.792100e-02;stroke-miterlimit:3.8637;}
	.st96{fill:#211E1E;}
	.st97{fill:none;stroke:#211E1E;stroke-width:4.792100e-02;stroke-miterlimit:3.8637;}
	.st98{fill:#EB172B;}
	.st99{fill:none;stroke:#EB172B;stroke-width:4.792100e-02;stroke-miterlimit:3.8637;}
	.st100{fill:#A68A26;stroke:#A68A26;stroke-width:4.792100e-02;stroke-miterlimit:3.8637;}
	.st101{fill:#D1BF7F;}
	.st102{fill:none;stroke:#D1BF7F;stroke-width:4.792100e-02;stroke-miterlimit:3.8637;}
	.st103{fill:none;stroke:#FFFFFF;stroke-width:4.792100e-02;stroke-miterlimit:3.8637;}
	.st104{fill:#EB172B;stroke:#EB172B;stroke-width:4.792100e-02;stroke-miterlimit:3.8637;}
	.st105{fill:#ED2127;}
	.st106{fill:#FBEE23;}
	.st107{stroke:#000000;}
	.st108{fill:#CF1F44;}
	.st109{fill:#1B449C;}
	.st110{fill:#E03A3E;}
	.st111{fill:#E03A3E;stroke:#E03A3E;stroke-width:0.6565;}
	.st112{fill:none;stroke:#1B449C;stroke-width:0.7493;}
	.st113{fill:none;stroke:#1B449C;stroke-width:0.7567;}
	.st114{fill:#1B449C;stroke:#1B449C;stroke-width:0.6274;}
	.st115{fill:#1B449C;stroke:#1B449C;stroke-width:0.6755;}
	.st116{fill:#2E6ABD;stroke:#2E6ABD;stroke-width:0.617;}
	.st117{fill:#FFFFFF;stroke:#FFFFFF;stroke-width:0.6175;}
	.st118{fill:#ED1248;}
	.st119{fill:#2E6ABD;}
	.st120{fill:#FDE100;}
	.st121{fill:#CC0000;}
	.st122{fill:#211E1F;}
	.st123{fill:#ED1A3B;}
	.st124{fill:#00AEEF;}
	.st125{fill:#FFC40D;}
	.st126{fill:#22B24C;}
	.st127{fill:#FFC20E;}
	.st128{fill:#0A3F86;}
	.st129{fill:#005CA9;}
	.st130{fill:#FFE000;}
	.st131{fill:#E2001A;}
	.st132{opacity:0;}
	.st133{opacity:0;fill:#FFFFFF;}
	.st134{fill:#FFFFFF;stroke:#000000;}
	.st135{fill:#0060A9;}
	.st136{fill:#E32219;}
	.st137{fill:#FFED00;}
	.st138{fill:#1D9053;}
	.st139{fill:#52A600;}
	.st140{fill:#EE2523;}
	.st141{fill:#F7D117;}
	.st142{fill:#171796;}
	.st143{fill:#009959;}
	.st144{fill:#D42E12;}
	.st145{fill:#703824;}
	.st146{fill:#E5254E;}
	.st147{fill:#8AC3EE;}
	.st148{fill:#B19221;}
	.st149{fill:#F5C03E;}
	.st150{fill:#FF1119;}
	.st151{fill:#1E6BC0;}
	.st152{fill:#B4742A;}
	.st153{fill:#371B02;}
	.st154{fill:url(#SVGID_7_);}
	.st155{fill:url(#SVGID_8_);}
	.st156{fill:url(#SVGID_9_);}
	.st157{fill:url(#SVGID_10_);}
	.st158{fill:url(#SVGID_11_);}
	.st159{fill:url(#SVGID_12_);}
	.st160{fill:url(#SVGID_13_);}
	.st161{fill:url(#SVGID_14_);}
	.st162{fill:url(#SVGID_15_);}
	.st163{fill:url(#SVGID_16_);}
	.st164{fill:#EB2626;}
	.st165{fill:#E9C32C;}
	.st166{fill:#D9D9D9;}
	.st167{fill:#009C5E;}
	.st168{fill:#1C75BC;}
	.st169{fill:#611D5C;}
	.st170{fill:#E2B900;}
	.st171{fill:#004B95;}
	.st172{fill:#A4234B;}
	.st173{fill:#DB2F36;}
	.st174{fill:#FFDF00;}
	.st175{fill:#A38D44;}
	.st176{fill:#57175E;}
	.st177{fill:#AFDCFD;}
	.st178{fill:#0090C6;}
	.st179{fill:#DB5232;}
	.st180{fill:#23C1E0;}
	.st181{fill:#F1A92A;}
	.st182{fill:#167FB6;}
	.st183{fill:#FED75D;}
	.st184{fill:#378CBF;}
	.st185{fill:#3E9692;}
	.st186{fill:#E67F29;}
	.st187{fill:#D8B43C;}
	.st188{fill:#EF3B33;}
	.st189{fill:#24923D;}
	.st190{opacity:6.000001e-02;fill:#101010;enable-background:new    ;}
	.st191{fill:#00529F;}
	.st192{fill:#EE324E;}
	.st193{fill:#FEBE10;}
	.st194{fill:#143C8B;}
	.st195{fill:#FFE24A;}
	.st196{fill:#EC1D24;}
	.st197{fill:#E6A514;}
	.st198{fill:#FFDF1C;}
	.st199{fill:#EE3524;}
	.st200{fill:#B23428;}
	.st201{fill:#D18816;}
	.st202{fill:#0097D7;}
	.st203{fill:#ED1C23;}
	.st204{fill:#E30613;}
	.st205{fill:#FFE400;}
	.st206{fill:#C51A1B;}
	.st207{clip-path:url(#SVGID_19_);}
	.st208{clip-path:url(#SVGID_20_);fill:none;stroke:#000000;stroke-width:0.8131;stroke-miterlimit:3.864;}
	.st209{fill:#0093D5;}
	.st210{fill:#004B9D;}
	.st211{fill:#FCC24F;}
	.st212{fill:#009545;}
	.st213{fill:#0072BB;}
	.st214{fill:#C4974E;}
	.st215{fill:url(#path1292_1_);}
	.st216{fill:#004996;}
	.st217{fill:#FFE667;}
	.st218{fill:none;stroke:#005187;stroke-width:0.153;stroke-miterlimit:3.864;}
	.st219{fill:#005187;}
	.st220{clip-path:url(#SVGID_22_);}
	.st221{clip-path:url(#SVGID_24_);fill:none;stroke:#000000;stroke-width:0.296;stroke-miterlimit:3.864;}
	.st222{clip-path:url(#SVGID_26_);fill:#FFE667;}
	.st223{clip-path:url(#SVGID_28_);fill:none;stroke:#000000;stroke-width:8.300000e-02;stroke-miterlimit:3.864;}
	.st224{fill:none;stroke:#000000;stroke-width:0.153;stroke-miterlimit:3.864;}
	.st225{clip-path:url(#SVGID_30_);fill:#E70005;}
	.st226{clip-path:url(#SVGID_32_);fill:none;stroke:#E70005;stroke-width:0.296;stroke-miterlimit:3.864;}
	.st227{clip-path:url(#SVGID_34_);fill:#E70005;}
	.st228{clip-path:url(#SVGID_36_);fill:none;stroke:#E70005;stroke-width:0.296;stroke-miterlimit:3.864;}
	.st229{clip-path:url(#SVGID_38_);fill:#E70005;}
	.st230{clip-path:url(#SVGID_40_);fill:none;stroke:#E70005;stroke-width:0.296;stroke-miterlimit:3.864;}
	.st231{clip-path:url(#SVGID_42_);fill:#E70005;}
	.st232{clip-path:url(#SVGID_44_);fill:none;stroke:#E70005;stroke-width:0.296;stroke-miterlimit:3.864;}
	.st233{fill:#E70005;}
	.st234{fill:none;stroke:#000000;stroke-width:0.141;stroke-miterlimit:3.864;}
	.st235{fill:#00276D;}
	.st236{fill:#C49308;}
	.st237{fill:#179D33;}
	.st238{fill:#999999;}
	.st239{fill:#FF0000;}
	.st240{fill:#E31837;}
	.st241{fill:#06357A;}
	.st242{fill:#B4053F;}
	.st243{fill:#DCA43E;}
	.st244{fill:#005CA5;}
	.st245{fill:#FAC400;}
	.st246{fill:#004083;}
	.st247{fill:#A95932;}
	.st248{fill:none;stroke:#000000;stroke-width:1.2215;}
	.st249{fill:#E62627;}
	.st250{fill:#00458C;}
	.st251{fill:#E11B22;}
	.st252{fill:#00AB4E;}
	.st253{fill:#F47920;}
	.st254{fill:#C7C8CA;}
	.st255{fill:#E11515;}
	.st256{fill:#A4965F;}
	.st257{fill:#E51636;}
	.st258{fill:#EACC00;}
	.st259{fill:#4F846B;}
	.st260{fill:#E22227;}
	.st261{fill:#FAE700;}
	.st262{fill:url(#SVGID_45_);}
	.st263{fill:#666666;}
	.st264{fill:#FFF200;}
	.st265{fill:#00275D;}
	.st266{fill:#EF3E33;}
	.st267{fill:none;stroke:#00275D;stroke-width:2.632;}
	.st268{fill:#3F7652;}
	.st269{fill:#F1D261;}
	.st270{fill:#004D8F;}
	.st271{fill:#E7B137;stroke:#E7B137;stroke-miterlimit:10;}
	.st272{fill:#E7B137;}
	.st273{fill:#162577;}
	.st274{fill:#12692C;}
	.st275{fill:#D8141D;}
	.st276{fill:#AB830D;}
	.st277{fill:#0086CB;}
	.st278{fill:#001F42;}
	.st279{fill:#9A8F4A;}
	.st280{fill:#00559D;}
	.st281{fill:#FDDE00;}
	.st282{fill:#00924C;}
	.st283{fill:#233984;}
	.st284{fill:#FFD42E;}
	.st285{fill:#BA3733;}
	.st286{fill:#46714D;}
	.st287{fill:#221F1F;}
	.st288{fill:#00559E;}
	.st289{fill:#005C46;}
	.st290{fill:#FBC860;}
	.st291{fill:#D57C48;}
	.st292{fill:#040403;}
	.st293{fill:#4AB969;}
	.st294{fill:#8ED8F8;}
	.st295{fill:#FEC34E;}
	.st296{fill:#FFC95B;}
	.st297{fill:#00644C;}
	.st298{fill:#70B865;}
	.st299{fill:#CA6F44;}
	.st300{fill:#A8B8BE;}
	.st301{fill:#1C2C80;}
	.st302{fill:#E10321;}
	.st303{fill:none;stroke:#231F20;stroke-width:0.318;stroke-miterlimit:3.864;}
	.st304{fill:#D71920;}
	.st305{fill:#484749;}
	.st306{fill:#D9DBDC;}
	.st307{fill:#DF725A;}
	.st308{fill:#F2CABA;}
	.st309{fill:#E89C84;}
	.st310{fill:#264F99;}
	.st311{clip-path:url(#SVGID_47_);}
	.st312{fill:#161413;}
	.st313{fill:#ED1B26;}
	.st314{fill:#E60D2E;}
	.st315{fill:#FCD600;}
	.st316{fill:#004D91;}
	.st317{fill:#EAB412;}
	.st318{fill:#FDD31D;}
	.st319{fill:#EFB800;}
</style>
<g>
	<path d="M76.3,49.8v-1.3l1.3-0.3v1.3L76.3,49.8z M25.3,60v-8.2l1.4-0.3v7l2.2-0.4v1.2L25.3,60z M29.8,59.1v-8.2l3.8-0.7v1.2
		l-2.4,0.5v2.1l1.8-0.4v1.2l-1.8,0.4v2.4l2.5-0.5v1.2L29.8,59.1z M37.7,49.3l1.4-0.3l-1.7,8.5l-1.4,0.3L34.2,50l1.4-0.3l1,5.5
		L37.7,49.3z M41.1,53.8l1.1-0.2l-0.6-3.4L41.1,53.8z M40.7,56.9l-1.4,0.3l1.5-8.5l1.7-0.3l1.5,7.9l-1.4,0.3l-0.2-1.8L40.9,55
		L40.7,56.9z M44.9,56.1v-8.2l1.3-0.3l1.7,4.3l0-4.7l1.3-0.3v8.2L48,55.5l-1.8-4.8l0,5.1L44.9,56.1z M51.4,47.8L50,48.1v-1.2
		l4.1-0.8v1.2l-1.4,0.3v7l-1.4,0.3L51.4,47.8L51.4,47.8z M55,54.1v-8.2l3.8-0.7v1.2l-2.4,0.5v2.1l1.8-0.4v1.2l-1.8,0.4v2.4l2.5-0.5
		v1.2L55,54.1z M62.5,44.4l1.4-0.3v6.2c0,0.6,0.2,0.8,0.7,0.7c0.5-0.1,0.7-0.4,0.7-1v-6.2l1.4-0.3v6.1c0,0.7-0.2,1.3-0.6,1.7
		c-0.4,0.4-0.9,0.7-1.6,0.9c-0.7,0.1-1.2,0.1-1.6-0.2c-0.4-0.3-0.6-0.8-0.6-1.5V44.4z M68.1,51.4v-1.3l1.3-0.3v1.3L68.1,51.4z
		 M72.1,49.5l0.5-0.1c0.4-0.1,0.6-0.2,0.8-0.4c0.2-0.2,0.2-0.5,0.2-0.9v-3.6c0-0.4-0.1-0.7-0.2-0.9c-0.1-0.1-0.4-0.2-0.8-0.1
		l-0.5,0.1V49.5z M70.7,42.7l2.1-0.4c0.7-0.1,1.3-0.1,1.7,0.3c0.4,0.3,0.6,0.9,0.6,1.8v3.2c0,0.8-0.2,1.5-0.6,2
		c-0.4,0.5-0.9,0.8-1.7,0.9l-2.1,0.4V42.7z"/>
	<path d="M40.9,4.5c0-4.5,0-4.5,4.5-4.5c1.7,0,3.2,0.9,3.9,2.3h1.2C51.4,0.9,52.9,0,54.6,0c4.5,0,4.5,0,4.5,4.5
		c0,2.4-1.8,4.3-4.2,4.5c-0.3,0.7-0.4,1.5-0.4,2.3c0,3.8,3,6.8,6.8,6.8c3.8,0,6.8-3,6.8-6.8c0-2.6-1.4-4.8-3.5-5.9l1.6-3.2
		c23.6,6.6,33.3,31.5,16.5,61.9c0.9,1.1,1.4,2.6,1.4,4.1c0,3.8-3,6.8-6.8,6.8c-0.5,0-1-0.1-1.5-0.2c-4.9,6.7-11.1,13.6-18.7,20.6
		c-6.6,6.1-7.6,6.1-14.2,0c-7.6-7-13.8-13.9-18.7-20.6c-0.5,0.1-1,0.2-1.5,0.2c-3.8,0-6.8-3-6.8-6.8c0-1.5,0.5-3,1.4-4.1
		C0.5,33.7,10.2,8.8,33.8,2.2l1.6,3.2c-2.1,1.2-3.5,3.4-3.5,5.9c0,3.8,3,6.8,6.8,6.8c3.8,0,6.8-3,6.8-6.8c0-0.8-0.1-1.6-0.4-2.3
		C42.7,8.9,40.9,6.9,40.9,4.5 M52.4,81c1.1-0.3,2-0.8,2.7-1.3C54.3,80.3,53.4,80.7,52.4,81 M55.1,79.7c0.2-0.2,0.5-0.4,0.7-0.6
		C55.6,79.3,55.3,79.5,55.1,79.7"/>
	<path class="st28" d="M76.3,49.8l1.3-0.3v-1.3l-1.3,0.3V49.8z M25.3,60l3.6-0.7V58l-2.2,0.4v-7l-1.4,0.3V60z M29.8,59.1l3.9-0.8
		v-1.2l-2.5,0.5v-2.4l1.8-0.4v-1.2l-1.8,0.4v-2.1l2.4-0.5v-1.2l-3.8,0.7L29.8,59.1L29.8,59.1z M37.7,49.3l-1,5.9l-1-5.5L34.2,50
		l1.7,7.9l1.4-0.3l1.7-8.5L37.7,49.3z M40.7,56.9l0.2-1.9l1.5-0.3l0.2,1.8l1.4-0.3l-1.5-7.9l-1.7,0.3l-1.5,8.5L40.7,56.9z
		 M44.9,56.1l1.3-0.3l0-5.1l1.8,4.8l1.2-0.2V47l-1.3,0.3l0,4.7l-1.7-4.3l-1.3,0.3V56.1z M51.4,47.8v7l1.4-0.3v-7l1.4-0.3V46L50,46.9
		v1.2L51.4,47.8z M55,54.1l3.9-0.8v-1.2l-2.5,0.5v-2.4l1.8-0.4v-1.2l-1.8,0.4v-2.1l2.4-0.5v-1.2L55,45.9L55,54.1L55,54.1z
		 M62.5,44.4v6.1c0,0.7,0.2,1.2,0.6,1.5c0.4,0.3,0.9,0.4,1.6,0.2c0.7-0.1,1.2-0.4,1.6-0.9c0.4-0.4,0.6-1,0.6-1.7v-6.1l-1.4,0.3V50
		c0,0.6-0.2,0.9-0.7,1c-0.5,0.1-0.7-0.1-0.7-0.7v-6.2L62.5,44.4z M68.1,51.4l1.3-0.3v-1.3l-1.3,0.3V51.4z M70.7,42.7v8.2l2.1-0.4
		c0.7-0.1,1.3-0.5,1.7-0.9c0.4-0.5,0.6-1.1,0.6-2v-3.2c0-0.8-0.2-1.4-0.6-1.8c-0.4-0.3-0.9-0.4-1.7-0.3L70.7,42.7z M82,39.4
		c0.3,3.3,0.1,6.9-0.7,10.7L22.8,61.7c-1.6-3.4-2.8-6.7-3.6-9.9L82,39.4z M41.1,53.8l0.6-3.6l0.6,3.4L41.1,53.8z M72.1,49.5v-5.9
		l0.5-0.1c0.4-0.1,0.6,0,0.8,0.1c0.2,0.1,0.2,0.4,0.2,0.9V48c0,0.4-0.1,0.7-0.2,0.9c-0.1,0.2-0.4,0.3-0.8,0.4L72.1,49.5z"/>
	<path class="st242" d="M70,73.8c-3.4,4.7-7.6,9.5-12.7,14.4v-9.2c1.4-1.7,2.3-3.8,2.3-6.2c0-2.4-0.9-4.5-2.3-6.2V55.9L70,53.3V73.8
		z M57.3,31.7c0.6,0.2,1.2,0.3,1.8,0.3c0.6,0,1.2-0.1,1.7-0.3c0.7,1.6,2.2,2.9,3.9,3.3l5.2,1v4.7l-12.7,2.5L57.3,31.7L57.3,31.7z
		 M42.7,88.1c-5.1-4.9-9.2-9.7-12.7-14.4V61.3l12.7-2.5v7.8c-1.4,1.7-2.3,3.8-2.3,6.2c0,2.4,0.9,4.5,2.3,6.2V88.1z M30,36
		c3-0.6,5.2-1.1,5.2-1.1c1.8-0.4,3.2-1.6,3.9-3.3c0.6,0.1,1.1,0.3,1.7,0.3c0.6,0,1.2-0.1,1.8-0.3v14.5L30,48.7L30,36L30,36z"/>
	<path class="st243" d="M57.7,76.6c-0.1-1.5-1.6-2.5-3.6-1.9c0-1.8-2-2.7-4-2.3c-1.8-2-1.2-4.4,2.1-3.9c1.9,0.3,4.8,1.7,6.4,4.7
		C58.5,74.4,58.2,75.6,57.7,76.6 M42.8,77.5c1.3,0.7,2.9-0.2,3.4-2.1c1.5,0.9,3.3-0.4,4-2.3c2.6-0.5,4.4,1.2,2.3,3.8
		c-1.2,1.5-3.9,3.2-7.2,3.2C44.4,79.3,43.5,78.5,42.8,77.5 M45,65.7c-1.3,2.8-1.1,5.7-0.4,7.4c0.3,0.8,0.7,1.4,1.1,1.8
		c-0.5,2.6-3,3.1-4,0c-0.2-0.7-0.3-1.4-0.3-2.2C41.4,69.8,42.8,67.3,45,65.7 M49.5,64.1c-1.3,0.8-1.4,2.6,0.1,4.1
		c-1.5,0.9-1.3,3.1,0,4.6c-0.8,2.5-3.2,3.2-4.4,0.1c-0.7-1.8-0.9-5,0.9-7.9C47.1,64.5,48.3,64.2,49.5,64.1 M58.6,72
		c-1.8-2.5-4.4-3.8-6.2-4.1c-0.8-0.1-1.5-0.1-2.1,0c-2.1-1.8-1.1-4.3,2.2-3.4c1,0.3,2.7,1.1,4,2.6C57.7,68.4,58.4,70.1,58.6,72
		 M55.1,79.7c0.3-0.2,0.5-0.4,0.7-0.6C55.6,79.3,55.3,79.5,55.1,79.7 M52.4,81c-0.8,0.2-1.6,0.3-2.4,0.3c-1.3,0-2.5-0.3-3.6-0.8
		c3-0.3,5.4-1.9,6.6-3.4c0.5-0.7,0.9-1.3,1-1.8c2.6-0.9,4.3,1.2,1.8,3.6l-0.1,0.1c-0.2,0.2-0.4,0.4-0.7,0.6
		C54.3,80.3,53.4,80.7,52.4,81 M52.4,81c1-0.3,1.9-0.7,2.7-1.3C54.4,80.2,53.5,80.7,52.4,81"/>
	<path class="st244" d="M43.7,65.5v-7l12.7-2.5v9.5c-1.7-1.5-3.9-2.4-6.3-2.4C47.6,63.2,45.4,64.1,43.7,65.5 M29.1,72.4
		c-2.3-3.3-4.3-6.6-5.8-9.7l5.8-1.2V72.4z M56.3,89.1c-0.6,0.5-1.2,1.1-1.8,1.6c-0.5,0.4-3.7,3.7-4.5,3.8c-0.8,0-4.2-3.3-4.6-3.8
		c-0.6-0.6-1.2-1.1-1.8-1.6v-9.2c1.7,1.5,3.9,2.4,6.3,2.4c2.4,0,4.6-0.9,6.3-2.4L56.3,89.1L56.3,89.1z M81,51.1
		c-1.6,6.5-4.8,13.7-10.1,21.3V53.1L81,51.1z M18.9,50.9c-1.2-5.2-1.3-10.1-0.5-14.3c0.8-4,2.8-6,4.3-6c0.7,0,1.3,0.6,1.3,1.3
		c0,0.7-0.6,1.3-1.3,1.3l-1,0l0,4.2c0,0,1.4,0,3-0.3c1.5-0.3,3-0.6,4.3-0.8v12.6L18.9,50.9z M70.9,36.2l4.4,0.9
		c1.1,0.2,2.1,0.3,3,0.3l0-4.2l-1,0c-0.8,0-1.3-0.6-1.3-1.3c0-0.7,0.6-1.3,1.3-1.3c1.5,0,3.6,2,4.3,6c0.1,0.6,0.2,1.2,0.3,1.8
		l-11,2.2V36.2z M43.7,31.3c0.5-0.3,1-0.7,1.4-1.1c1.3,1.1,3.1,1.8,5,1.8c1.9,0,3.6-0.7,5-1.8c0.4,0.4,0.8,0.8,1.3,1.1v12.2L43.7,46
		L43.7,31.3L43.7,31.3z"/>
	<path class="st89" d="M68.9,5.8c12.7,4.9,20.4,16.3,19.5,31.6c-0.2-10.7-5.1-19.1-13.2-24l-0.6-0.3c-1.1,5.2-5.3,9.3-10.9,9.3
		c-3.3,0-6.1-1.4-8.1-3.5c1.6,1.2,3.5,1.8,5.6,1.8c5.2,0,9.4-4.2,9.4-9.4C70.7,9.3,70,7.4,68.9,5.8 M31.1,5.8
		c-1.1,1.5-1.8,3.5-1.8,5.5c0,5.2,4.2,9.4,9.4,9.4c2.1,0,4-0.7,5.6-1.8c-1.9,2.1-4.8,3.5-8.1,3.5c-5.5,0-9.8-4.1-10.9-9.3l-0.6,0.3
		c-8.1,4.9-13,13.3-13.2,24C10.7,22.1,18.4,10.8,31.1,5.8"/>
	<g>
		<path class="st245" d="M50,31c-2,0-3.9-0.9-5.1-2.3c-0.8,1.4-2.3,2.3-4,2.3c-0.4,0-0.8,0-1.1-0.1c0.1-0.4,0.2-0.9,0.2-1.3
			c0-0.4,0-0.7-0.1-1.1c0.3,0.2,0.7,0.3,1.1,0.3c1.3,0,2.3-1,2.3-2.3l0-1.5h2.3c0.4,2.1,2.2,3.8,4.5,3.8c2.2,0,4.1-1.6,4.5-3.8h2.3
			l0,1.5c0,1.3,1,2.3,2.3,2.3c0.4,0,0.8-0.1,1.1-0.3c-0.1,0.3-0.1,0.7-0.1,1.1c0,0.5,0.1,0.9,0.2,1.3C59.9,31,59.5,31,59.1,31
			c-1.7,0-3.2-0.9-4-2.3C53.9,30.1,52.1,31,50,31 M25,31.8c0-1.3-1-2.3-2.3-2.3c-2.3,0-4.5,2.7-5.3,6.8
			c-2.7,14.3,4.6,34.2,27.3,55.1c6,5.5,4.8,5.2,10.5,0c22.7-20.8,30-40.8,27.3-55.1c-0.8-4.1-3-6.8-5.3-6.8c-1.3,0-2.3,1-2.3,2.3
			c0,1.3,1,2.3,2.3,2.3l0,2.3c-2.5,0-4.6-2-4.6-4.6c0-2.5,2-4.6,4.6-4.6c4.5,0,6.5,4.6,7.3,9.1c2.7,15.2-5.3,35.7-28,56.5
			c-7,6.4-6.1,6.4-13.1,0c-22.7-20.8-30.7-41.4-28-56.5c0.8-4.5,2.8-9.1,7.3-9.1c2.5,0,4.6,2,4.6,4.6c0,2.5-2,4.6-4.6,4.6l0-2.3
			C24,34.1,25,33.1,25,31.8 M33.6,25c0.1,0,0.3,0,0.5,0c2.5,0,4.6,2.1,4.6,4.6c0,2.2-1.5,4-3.6,4.5l-0.2,0l-7.6,1.5
			c0.8-1,1.3-2.3,1.3-3.7c0-2.3-1.3-4.2-3.2-5.2L33.6,25z M66.4,25l8.2,1.6c-1.9,1-3.2,2.9-3.2,5.2c0,1.4,0.5,2.7,1.3,3.7l-7.6-1.5
			L65,34c-2.1-0.4-3.6-2.3-3.6-4.5c0-2.5,2.1-4.6,4.6-4.6C66.1,25,66.3,25,66.4,25"/>
	</g>
</g>
</svg>
