<?xml version="1.0" encoding="utf-8"?>
<!-- Generator: Adobe Illustrator 19.2.1, SVG Export Plug-In . SVG Version: 6.00 Build 0)  -->
<svg version="1.1" id="Capa_1" xmlns="http://www.w3.org/2000/svg" xmlns:xlink="http://www.w3.org/1999/xlink" x="0px" y="0px"
	 viewBox="0 0 40 120" style="enable-background:new 0 0 40 120;" xml:space="preserve">
<style type="text/css">
	.st0{fill:#FFF100;}
</style>
<g>
	<polygon class="st0" points="40,90 0,120 0,30 40,0 	"/>
	<path d="M14.2,52c-0.1,0-0.2,0-0.3,0.1l-1.8,1.8c-0.2,0.2-0.1,0.5,0.1,0.7l5.4,5.4l-5.4,5.4c-0.2,0.2-0.2,0.5-0.1,0.7l1.8,1.8
		c0.2,0.2,0.5,0.1,0.7-0.1l5.4-5.4l5.4,5.4c0.2,0.2,0.5,0.2,0.7,0.1l1.8-1.8c0.2-0.2,0.1-0.5-0.1-0.7L22.4,60l5.4-5.4
		c0.2-0.2,0.2-0.5,0.1-0.7l-1.8-1.8c-0.2-0.2-0.5-0.1-0.7,0.1L20,57.6l-5.4-5.4C14.5,52.1,14.3,52,14.2,52z"/>
</g>
</svg>
