<?xml version="1.0" encoding="utf-8"?>
<!-- Generator: Adobe Illustrator 19.2.1, SVG Export Plug-In . SVG Version: 6.00 Build 0)  -->
<svg version="1.1" id="Capa_1" xmlns="http://www.w3.org/2000/svg" xmlns:xlink="http://www.w3.org/1999/xlink" x="0px" y="0px"
	 viewBox="0 0 40 120" style="enable-background:new 0 0 40 120;" xml:space="preserve">
<style type="text/css">
	.st0{fill:#FFF100;}
</style>
<g>
	<polygon class="st0" points="40,90 0,120 0,30 40,0 	"/>
	<g>
		<path d="M26.5,91.3h-13v-3.6c0-1.5,0.3-2.7,1-3.4c0.7-0.8,1.6-1.1,2.9-1.1s2.2,0.4,2.9,1.1c0.7,0.8,1,1.9,1,3.4v1.1h5.2V91.3z
			 M19.2,88.8v-1.3c0-1.2-0.6-1.8-1.8-1.8s-1.8,0.6-1.8,1.8v1.3H19.2z"/>
		<path d="M26.5,81.3h-13v-2.5h13V81.3z"/>
		<path d="M13.5,76.4v-7.2h2.1l8.7,4.9v-5h2.2v7.8h-2.1L15.7,72v4.4H13.5z"/>
		<path d="M26.5,68.3l-13-3.2v-3.2l13-3.1v2.4l-2.7,0.6v3.4l2.7,0.7V68.3z M21.6,64.7v-2.5l-5.3,1.2v0L21.6,64.7z"/>
		<path d="M26.5,51.6l-5.3,2.2v1.2h5.3v2.5h-13v-3.6c0-1.5,0.3-2.6,1-3.3c0.7-0.7,1.6-1.1,2.9-1.1c0.8,0,1.5,0.2,2.1,0.5
			s1,0.8,1.2,1.5l5.8-2.4V51.6z M19.2,54.9v-1.3c0-0.6-0.1-1-0.4-1.3c-0.3-0.3-0.7-0.5-1.4-0.5c-0.6,0-1.1,0.2-1.4,0.5
			c-0.3,0.3-0.4,0.7-0.4,1.3v1.3H19.2z"/>
		<path d="M26.5,41.6l-5.3,2.2v1.2h5.3v2.5h-13v-3.6c0-1.5,0.3-2.6,1-3.3c0.7-0.7,1.6-1.1,2.9-1.1c0.8,0,1.5,0.2,2.1,0.5
			s1,0.8,1.2,1.5l5.8-2.4V41.6z M19.2,44.9v-1.3c0-0.6-0.1-1-0.4-1.3c-0.3-0.3-0.7-0.5-1.4-0.5c-0.6,0-1.1,0.2-1.4,0.5
			c-0.3,0.3-0.4,0.7-0.4,1.3v1.3H19.2z"/>
		<path d="M26.5,38.3l-13-3.2v-3.2l13-3.1v2.4l-2.7,0.6v3.4l2.7,0.7V38.3z M21.6,34.7v-2.5l-5.3,1.2v0L21.6,34.7z"/>
	</g>
</g>
</svg>
