<?xml version="1.0" encoding="utf-8"?>
<!-- Generator: Adobe Illustrator 19.2.1, SVG Export Plug-In . SVG Version: 6.00 Build 0)  -->
<svg version="1.1" id="Capa_1" xmlns="http://www.w3.org/2000/svg" xmlns:xlink="http://www.w3.org/1999/xlink" x="0px" y="0px"
	 viewBox="0 0 40 120" style="enable-background:new 0 0 40 120;" xml:space="preserve">
<style type="text/css">
	.st0{fill:#FFF100;}
	.st1{enable-background:new    ;}
</style>
<g>
	<polygon class="st0" points="40,90 0,120 0,30 40,0 	"/>
	<g class="st1">
		<path d="M13.8,93.6v-5.1c0-1.1,0.3-2,0.8-2.5c0.5-0.6,1.3-0.8,2.3-0.8c1,0,1.8,0.3,2.4,0.9c0.6,0.6,0.9,1.5,0.9,2.8v1.7h3.7v3.1
			H13.8z M18.1,90.5v-0.8c0-0.6-0.1-1-0.3-1.3c-0.2-0.2-0.5-0.4-0.8-0.4c-0.3,0-0.6,0.1-0.8,0.3s-0.3,0.6-0.3,1.2v0.9H18.1z"/>
		<path d="M13.8,83.4v-3.1h10v3.1H13.8z"/>
		<path d="M13.8,78.3v-8.8h2l5.9,5.6v-5.8h2.2v9.5h-2.1L16,73.3v5H13.8z"/>
		<path d="M22.2,61.8v3.5l1.7,0.5v3.2l-10-3.8v-3.4l10-3.8v3.2L22.2,61.8z M20,62.4l-3.6,1.1l3.6,1.1V62.4z"/>
		<path d="M23.9,57h-10v-5.2c0-1,0.1-1.7,0.2-2.2s0.5-0.9,0.9-1.2c0.4-0.3,1-0.5,1.6-0.5c0.6,0,1,0.1,1.4,0.4c0.4,0.2,0.7,0.6,1,1
			c0.2,0.3,0.3,0.6,0.4,1.1c0.1-0.4,0.2-0.6,0.4-0.8c0.1-0.1,0.3-0.3,0.5-0.5c0.3-0.2,0.5-0.4,0.6-0.4l2.9-1.5v3.5l-3.1,1.7
			c-0.4,0.2-0.7,0.4-0.8,0.6c-0.2,0.2-0.2,0.5-0.2,0.8v0.3h4.1V57z M17.9,53.9v-1.3c0-0.1,0-0.4-0.1-0.8c0-0.2-0.1-0.4-0.3-0.5
			s-0.4-0.2-0.6-0.2c-0.3,0-0.6,0.1-0.7,0.3s-0.3,0.6-0.3,1.2v1.4H17.9z"/>
		<path d="M23.9,46.1h-10V41c0-1,0.1-1.7,0.2-2.2s0.5-0.9,0.9-1.2c0.4-0.3,1-0.5,1.6-0.5c0.6,0,1,0.1,1.4,0.4c0.4,0.2,0.7,0.6,1,1
			c0.2,0.3,0.3,0.6,0.4,1.1c0.1-0.4,0.2-0.6,0.4-0.8c0.1-0.1,0.3-0.3,0.5-0.5c0.3-0.2,0.5-0.4,0.6-0.4l2.9-1.5v3.5l-3.1,1.7
			c-0.4,0.2-0.7,0.4-0.8,0.6c-0.2,0.2-0.2,0.5-0.2,0.8V43h4.1V46.1z M17.9,43v-1.3c0-0.1,0-0.4-0.1-0.8c0-0.2-0.1-0.4-0.3-0.5
			s-0.4-0.2-0.6-0.2c-0.3,0-0.6,0.1-0.7,0.3s-0.3,0.6-0.3,1.2V43H17.9z"/>
		<path d="M22.2,29.1v3.5l1.7,0.5v3.2l-10-3.8v-3.4l10-3.8v3.2L22.2,29.1z M20,29.8l-3.6,1.1L20,32V29.8z"/>
	</g>
</g>
</svg>
