<?xml version="1.0" standalone="no"?>
<!DOCTYPE svg PUBLIC "-//W3C//DTD SVG 1.1//EN" "http://www.w3.org/Graphics/SVG/1.1/DTD/svg11.dtd" >
<svg>
<metadata>
Created by FontForge 20120731 at Tue Oct 27 02:17:27 2015
 By ,,,
Copyright 2012 AE Type. http://www.aetype.com. wf-rip
</metadata>
<defs>
<font id="Acronym-Regular" horiz-adv-x="1268" >
  <font-face 
    font-family="Acronym"
    font-weight="400"
    font-stretch="normal"
    units-per-em="2000"
    panose-1="2 0 0 0 0 0 0 0 0 0"
    ascent="1556"
    descent="-444"
    x-height="1038"
    cap-height="1420"
    bbox="-319 -512 2480 2160"
    underline-thickness="70"
    underline-position="-20"
    unicode-range="U+0020-FB04"
  />
<missing-glyph horiz-adv-x="1062" 
d="M947 0h-831v1420h831v-1420zM914 1392h-766v-1363h766v1363z" />
    <glyph glyph-name="AE" unicode="AE" horiz-adv-x="2013" 
d="M1927 0h-929v360h-564l-239 -360h-212l967 1420h970v-164h-736v-467h634v-158h-634v-467h743v-164zM998 1210l-462 -696h462v696z" />
    <glyph glyph-name="ae" unicode="ae" horiz-adv-x="1824" 
d="M1755 457h-788q15 -161 100 -253q86 -92 213 -92q86 0 154.5 43t108.5 121h184q-55 -144 -171 -222.5t-277 -78.5q-140 0 -243.5 62t-161.5 177q-99 -239 -429 -239q-184 0 -279.5 75t-95.5 217q0 128 77 203q35 34 82 55q77 35 193 53q30 4 78 9l78 9q52 8 68 11
q63 13 107 48q42 33 42 105q0 59 -52 111q-59 62 -198 62q-116 0 -183 -47.5t-81 -135.5h-170q8 98 65 172q99 139 366 142q278 0 373 -176q126 176 360 176q223 0 352 -149t129 -401zM574 474l-100 -16q-78 -13 -123 -32q-106 -44 -106 -153q0 -80 58.5 -124.5t168.5 -44.5
q161 0 242 97.5t81 284.5v78q-48 -48 -137 -71q-36 -9 -84 -19zM1279 927q-130 0 -214 -95q-85 -95 -98 -255h613q-14 170 -95 259q-81 91 -206 91z" />
    <glyph glyph-name="OE" unicode="OE" horiz-adv-x="2261" 
d="M756 -32q-194 -3 -348.5 91.5t-240.5 265.5t-84 385q0 331 187 536q188 206 486 206q160 0 291 -66t219 -189v223h903v-164h-736v-467h633v-158h-633v-467h743v-164h-910v222q-87 -123 -218 -188.5t-292 -65.5zM571 167q88 -38 185 -38t184 38q188 82 262 293
q40 111 40 250t-40 250q-74 211 -262 293q-87 38 -184 38t-185 -38q-187 -82 -262 -293q-39 -112 -39 -250t39 -250q75 -211 262 -293z" />
    <glyph glyph-name="oe" unicode="oe" horiz-adv-x="1921" 
d="M1853 514l-1 -57h-788q15 -161 100 -253q86 -92 213 -92q86 0 154.5 43t108.5 121h184q-55 -144 -171 -222.5t-277 -78.5q-139 0 -242.5 59.5t-161.5 170.5q-61 -111 -165.5 -170.5t-239.5 -59.5q-231 0 -364 148t-133 396t133 396q134 149 364 149q134 0 239.5 -61
t166.5 -172q58 112 160 172.5t239 60.5q223 0 352 -149t129 -401zM569 922q-141 0 -233 -110q-90 -110 -90 -293q0 -184 90 -293q91 -109 233 -109q135 0 229 111q94 110 94 291t-94 291q-94 112 -229 112zM1376 927q-130 0 -214 -95q-85 -95 -98 -255h613q-14 170 -95 259
q-81 91 -206 91z" />
    <glyph glyph-name="ff" unicode="ff" horiz-adv-x="1431" 
d="M423 0h-174v891h-211v147h211v66q0 169 72 246.5t224 77.5q75 0 121 -8l17 -2v-149q-66 10 -118 10q-79 0 -111 -39q-31 -38 -31 -136v-66h255v-147h-255v-891zM1138 0h-174v891h-185v147h185v66q0 169 72 246.5t225 77.5q74 0 120 -8l17 -2v-149q-64 10 -117 10
q-81 0 -112 -39q-31 -38 -31 -136v-66h260v-147h-260v-891z" />
    <glyph glyph-name="fi" unicode="fi" horiz-adv-x="1135" 
d="M423 0h-174v891h-211v147h211v66q0 169 72 246.5t224 77.5q75 0 121 -8l17 -2v-149q-66 10 -118 10q-79 0 -111 -39q-31 -38 -31 -136v-66h260v-147h-260v-891zM1012 0h-174v1038h174v-1038zM834 1420h182v-212h-182v212z" />
    <glyph glyph-name="fl" unicode="fl" horiz-adv-x="1135" 
d="M423 0h-174v891h-211v147h211v66q0 169 72 246.5t224 77.5q75 0 121 -8l17 -2v-149q-66 10 -118 10q-79 0 -111 -39q-31 -38 -31 -136v-66h260v-147h-260v-891zM1012 0h-174v1420h174v-1420z" />
    <glyph glyph-name="ffi" unicode="ffi" horiz-adv-x="1850" 
d="M423 0h-174v891h-211v147h211v66q0 169 72 246.5t224 77.5q75 0 121 -8l17 -2v-149q-66 10 -118 10q-79 0 -111 -39q-31 -38 -31 -136v-66h255v-147h-255v-891zM1138 0h-174v891h-185v147h185v66q0 169 72 246.5t225 77.5q74 0 120 -8l17 -2v-149q-64 10 -117 10
q-81 0 -112 -39q-31 -38 -31 -136v-66h260v-147h-260v-891zM1727 0h-174v1038h174v-1038zM1549 1420h182v-212h-182v212z" />
    <glyph glyph-name="ffl" unicode="ffl" horiz-adv-x="1850" 
d="M423 0h-174v891h-211v147h211v66q0 169 72 246.5t224 77.5q75 0 121 -8l17 -2v-149q-66 10 -118 10q-79 0 -111 -39q-31 -38 -31 -136v-66h255v-147h-255v-891zM1138 0h-174v891h-185v147h185v66q0 169 72 246.5t225 77.5q74 0 120 -8l17 -2v-149q-64 10 -117 10
q-81 0 -112 -39q-31 -38 -31 -136v-66h260v-147h-260v-891zM1727 0h-174v1420h174v-1420z" />
    <glyph glyph-name="ffj" unicode="ffj" horiz-adv-x="1850" 
d="M423 0h-174v891h-211v147h211v66q0 169 72 246.5t224 77.5q75 0 121 -8l17 -2v-149q-66 10 -118 10q-79 0 -111 -39q-31 -38 -31 -136v-66h255v-147h-255v-891zM1138 0h-174v891h-185v147h185v66q0 169 72 246.5t225 77.5q74 0 120 -8l17 -2v-149q-64 10 -117 10
q-81 0 -112 -39q-31 -38 -31 -136v-66h260v-147h-260v-891zM1727 1038v-1099q0 -321 -287 -321h-64v141h24q77 0 115 45t38 145v1089h174zM1549 1420h182v-212h-182v212z" />
    <glyph glyph-name="fj" unicode="fj" horiz-adv-x="1135" 
d="M423 0h-174v891h-211v147h211v66q0 169 72 246.5t224 77.5q75 0 121 -8l17 -2v-149q-66 10 -118 10q-79 0 -111 -39q-31 -38 -31 -136v-66h260v-147h-260v-891zM1012 1038v-1099q0 -321 -288 -321h-63v141h24q77 0 115 45t38 145v1089h174zM834 1420h182v-212h-182v212z
" />
    <glyph glyph-name=".notdef" horiz-adv-x="1062" 
d="M947 0h-831v1420h831v-1420zM914 1392h-766v-1363h766v1363z" />
    <glyph glyph-name=".null" horiz-adv-x="0" 
 />
    <glyph glyph-name="nonmarkingreturn" horiz-adv-x="666" 
 />
    <glyph glyph-name="space" unicode=" " horiz-adv-x="358" 
 />
    <glyph glyph-name="exclam" unicode="!" horiz-adv-x="404" 
d="M149 391l-34 521v508h173v-508l-34 -521h-105zM299 0h-195v255h195v-255z" />
    <glyph glyph-name="quotedbl" unicode="&#x22;" horiz-adv-x="638" 
d="M180 927h-103v493h167zM508 927h-103v493h167z" />
    <glyph glyph-name="numbersign" unicode="#" horiz-adv-x="1290" 
d="M859 0h-147l54 394h-330l-54 -394h-146l54 394h-245l20 142h245l48 347h-246l20 142h245l55 395h146l-55 -395h331l55 395h146l-55 -395h245l-20 -142h-244l-48 -347h244l-19 -142h-245zM834 883h-330l-48 -347h330z" />
    <glyph glyph-name="dollar" unicode="$" horiz-adv-x="1198" 
d="M646 -199h-95v169q-226 14 -357 128q-132 115 -132 304h195q0 -126 81 -197q84 -72 217 -82v530l-103 26q-37 10 -95 30q-54 19 -90 39q-97 56 -134 113q-51 83 -51 185q0 171 130 282q130 112 339 123v168h95v-169q207 -15 338 -131q130 -115 130 -293h-186
q0 110 -78 182q-77 72 -208 86v-497q202 -49 282 -85q158 -72 197 -206q15 -49 15 -112q0 -178 -130 -296q-129 -118 -360 -129v-168zM951 389q0 84 -48 135q-24 25 -64 44q-61 30 -197 64v-510q87 4 155 33q70 29 112 90t42 144zM267 1049q0 -95 73 -146q63 -43 215 -83
v475q-129 -8 -208 -72q-80 -63 -80 -174z" />
    <glyph glyph-name="percent" unicode="%" horiz-adv-x="1702" 
d="M709 1012q0 -193 -91 -308t-248 -115t-248 115t-91 308q0 194 91 309t248 115t248 -115t91 -309zM499 -32h-134l839 1484h133zM566 1012q0 139 -52 221q-53 83 -144 83t-144 -83q-52 -82 -52 -221q0 -138 52 -220t144 -82t144 82t52 220zM1671 407q0 -193 -91 -308
t-248 -115q-158 0 -249 115t-91 308q0 194 91 309t249 115q157 0 248 -115t91 -309zM1527 407q0 138 -52 220q-51 83 -143 83q-91 0 -144 -83q-52 -82 -52 -220t52 -220q53 -83 144 -83q92 0 143 83q52 82 52 220z" />
    <glyph glyph-name="ampersand" unicode="&#x26;" horiz-adv-x="1322" 
d="M986 1121q0 -116 -77 -204q-31 -36 -84 -73q-53 -36 -93 -57q-41 -21 -100 -47l354 -379q129 193 147 433h172q-12 -142 -62 -293q-50 -150 -140 -265l221 -236h-220l-113 120q-185 -152 -446 -152q-223 0 -357 107t-134 300q0 165 98 265q83 84 218 145q-82 93 -119 170
t-37 162q0 152 106 243q107 92 276 92q174 0 281 -94q109 -93 109 -237zM563 120q178 0 316 120l-403 431q-116 -57 -178 -123q-60 -66 -60 -170q0 -122 86 -190t239 -68zM383 1118q0 -59 32 -120q32 -57 113 -147q88 37 129 58q51 27 88 55q76 58 76 155q0 89 -57 138.5
t-161 49.5q-106 0 -163 -50t-57 -139z" />
    <glyph glyph-name="quotesingle" unicode="'" horiz-adv-x="310" 
d="M180 927h-103v493h167z" />
    <glyph glyph-name="parenleft" unicode="(" horiz-adv-x="504" 
d="M430 -304l20 -40h-165q0 1 -8.5 15t-13.5 24q-11 21 -47 113q-34 88 -60 186q-26 99 -48 251q-43 316 -1 632q21 149 50 255q61 215 107 298l21 38h165l-21 -41q-12 -27 -45 -117q-32 -90 -57 -189q-24 -93 -46 -251q-40 -301 -1 -615q20 -151 48 -254q55 -208 102 -305z
" />
    <glyph glyph-name="parenright" unicode=")" horiz-adv-x="504" 
d="M240 -306l-21 -38h-165q9 16 20 41q14 27 45 117q31 84 58 188q25 99 45 251q42 309 1 615q-20 158 -47 255q-55 208 -102 305l-20 40h165l21 -39q15 -28 48 -113q34 -88 60 -186q27 -101 47 -252q44 -314 1 -631q-19 -146 -49 -255q-61 -215 -107 -298z" />
    <glyph glyph-name="asterisk" unicode="*" horiz-adv-x="961" 
d="M423 1070l-7 350h129l-7 -350l328 118l42 -121l-337 -105l219 -280l-101 -79l-209 291l-209 -291l-101 79l220 280l-337 105l42 121z" />
    <glyph glyph-name="plus" unicode="+" horiz-adv-x="1128" 
d="M486 441h-383v156h383v387h156v-387h383v-156h-383v-387h-156v387z" />
    <glyph glyph-name="comma" unicode="," horiz-adv-x="401" 
d="M226 -238h-120l81 238h-84v255h195v-226q0 -65 -26 -140z" />
    <glyph glyph-name="hyphen" unicode="-" horiz-adv-x="744" 
d="M641 441h-538v156h538v-156z" />
    <glyph glyph-name="period" unicode="." horiz-adv-x="401" 
d="M298 0h-195v255h195v-255z" />
    <glyph glyph-name="slash" unicode="/" horiz-adv-x="861" 
d="M229 0h-182l585 1420h182z" />
    <glyph glyph-name="zero" unicode="0" horiz-adv-x="1274" 
d="M124 421q-35 135 -35 289t35 289q77 286 275 395q106 58 238 58q133 0 237 -58q200 -109 275 -395q36 -133 36 -289t-36 -289q-75 -286 -275 -395q-104 -58 -237 -58q-132 0 -238 58q-198 109 -275 395zM902 283q96 156 96 427t-96 427t-265 156t-265 -156t-96 -427
t96 -427t265 -156t265 156z" />
    <glyph glyph-name="one" unicode="1" horiz-adv-x="740" 
d="M66 894v162q186 5 283 119q86 103 103 245h152v-1420h-186v1057q-103 -163 -352 -163z" />
    <glyph glyph-name="two" unicode="2" horiz-adv-x="1108" 
d="M842 1007q0 129 -80 207q-79 79 -209 79q-139 0 -218 -91q-79 -89 -79 -242v-41h-183v43q0 228 129 358q129 132 353 132q213 0 343 -118q131 -119 131 -316q0 -105 -37 -189q-34 -79 -91 -137.5t-142 -116.5q-53 -36 -156.5 -96t-144.5 -87q-160 -102 -199 -230h783
v-162h-969v45q0 150 69 262q31 52 84 100q60 53 107 87q58 41 134 87q169 104 229 153q123 102 142 217q4 25 4 56z" />
    <glyph glyph-name="three" unicode="3" horiz-adv-x="1174" 
d="M586 -32q-250 0 -385 120t-135 351h187q0 -77 22 -137t58 -95q35 -34 81 -53q79 -31 174 -31q170 0 255 78q86 78 86 199q0 131 -88 198t-215 67h-125v142h144q113 0 177 63.5t64 169.5q0 124 -87 190q-85 67 -210 67q-131 0 -226 -78q-102 -83 -102 -252h-179
q0 153 68 265q68 110 179.5 165t255.5 55q133 0 238 -46q110 -47 174.5 -138.5t64.5 -210.5q0 -109 -54 -192.5t-149 -123.5q54 -17 98 -44t82 -67.5t59 -100.5t21 -134q0 -191 -138 -309q-137 -118 -395 -118z" />
    <glyph glyph-name="four" unicode="4" horiz-adv-x="1257" 
d="M785 302h-725v165l707 953h203v-963h234v-155h-234v-302h-185v302zM785 1203l-541 -746h541v746z" />
    <glyph glyph-name="five" unicode="5" horiz-adv-x="1200" 
d="M1045 1420v-161h-684l-64 -419q136 148 350 148q221 0 354 -144q133 -143 133 -365q0 -229 -143 -370t-389 -141q-241 0 -386 130t-145 337h187q0 -99 50 -173q97 -139 297 -139q164 0 254 102q91 103 91 259q0 160 -94 261q-93 103 -250 103q-128 0 -215 -65
q-72 -53 -99 -99l-11 -19h-181l118 755h827z" />
    <glyph glyph-name="six" unicode="6" horiz-adv-x="1235" 
d="M662 1297q-177 0 -284 -158q-105 -156 -116 -412q40 117 147 194t274 77q214 0 349 -141t135 -370q0 -237 -147 -378q-146 -141 -375 -141q-54 0 -105 9q-119 19 -214 85q-105 74 -170 214q-69 160 -69 390q0 347 145 561q72 107 182 166t246 59q173 0 288 -88
q75 -56 121.5 -135t62.5 -159h-194q-21 71 -57 119q-77 108 -219 108zM293 478q0 -32 5 -70q50 -158 152 -224q94 -60 192 -60q148 0 244 100q97 100 97 268q0 165 -94 262q-93 98 -249 98q-155 0 -251 -106q-96 -105 -96 -268z" />
    <glyph glyph-name="seven" unicode="7" horiz-adv-x="1157" 
d="M477 0h-208q21 151 61 292q41 148 85 256q46 114 103 220q50 93 106 182q44 67 102 143q62 79 83 102q2 2 23.5 26t32.5 36h-790v163h998v-146q-11 -9 -27 -27q-17 -19 -68 -80q-43 -52 -100 -133q-47 -69 -112 -184q-61 -109 -115 -234q-52 -120 -100 -284
q-49 -165 -74 -332z" />
    <glyph glyph-name="eight" unicode="8" horiz-adv-x="1244" 
d="M1114 1061q0 -215 -215 -299q137 -48 211.5 -142.5t74.5 -226.5q0 -178 -136 -299q-142 -126 -427 -126t-427 126q-136 121 -136 299q0 132 74.5 226.5t211.5 142.5q-215 84 -215 299q0 171 134 281t358 110t358 -110t134 -281zM997 403q0 132 -102 207q-101 76 -273 76
t-273 -76q-102 -75 -102 -207q0 -125 96 -203q97 -78 279 -78t278 78q97 78 97 203zM307 1050q0 -108 81.5 -167.5t233.5 -59.5t233.5 59.5t81.5 167.5q0 114 -85 181q-86 68 -230 68t-230 -68q-85 -67 -85 -181z" />
    <glyph glyph-name="nine" unicode="9" horiz-adv-x="1235" 
d="M573 123q176 0 283 158q106 157 117 412q-40 -118 -148 -195q-106 -76 -273 -76q-214 0 -349 141t-135 370q0 237 146 378q147 141 376 141q54 0 105 -9q120 -19 213 -85q110 -76 170 -215q70 -151 70 -389q0 -347 -145 -562q-72 -107 -182 -165.5t-246 -58.5
q-172 0 -289 88q-75 57 -121 136t-62 158h194q20 -69 57 -120q79 -107 219 -107zM942 942q0 32 -5 70q-50 158 -153 224q-92 60 -191 60q-148 0 -245 -100q-96 -100 -96 -268q0 -164 93 -262q95 -98 250 -98t251 105q96 107 96 269z" />
    <glyph glyph-name="colon" unicode=":" horiz-adv-x="401" 
d="M298 0h-195v255h195v-255zM298 783h-195v255h195v-255z" />
    <glyph glyph-name="semicolon" unicode=";" horiz-adv-x="401" 
d="M226 -238h-120l81 238h-84v255h195v-226q0 -65 -26 -140zM298 783h-195v255h195v-255z" />
    <glyph glyph-name="less" unicode="&#x3c;" horiz-adv-x="1108" 
d="M1009 38l-922 396v170l922 397v-168l-734 -314l734 -314v-167z" />
    <glyph glyph-name="equal" unicode="=" horiz-adv-x="1128" 
d="M1025 667h-922v155h922v-155zM1025 216h-922v155h922v-155z" />
    <glyph glyph-name="greater" unicode="&#x3e;" horiz-adv-x="1108" 
d="M99 1001l922 -397v-170l-922 -396v167l734 314l-734 314v168z" />
    <glyph glyph-name="question" unicode="?" horiz-adv-x="1013" 
d="M966 1014q1 -106 -40 -179t-111 -131q-16 -14 -73.5 -60t-83.5 -71q-76 -74 -76 -182h-161q-1 186 142 306q17 15 60.5 50t63.5 54.5t47 53.5t38.5 73.5t11.5 87.5q0 129 -82 205q-83 77 -204 77q-126 0 -204 -83q-77 -83 -80 -225v-19h-178v31q1 108 38.5 195.5
t102.5 142.5q133 112 323 112q127 0 232 -50q103 -49 169 -151q65 -101 65 -237zM599 0h-195v255h195v-255z" />
    <glyph glyph-name="at" unicode="@" horiz-adv-x="1588" 
d="M807 -186q-326 0 -531 197q-203 197 -203 519q0 155 51.5 294t146.5 245q95 107 239 168t313 61q211 0 372 -92t245 -252q84 -161 84 -364q3 -208 -88 -339t-254 -131q-172 0 -211 161q-72 -160 -245 -160q-136 0 -212 103t-76 284q0 207 94 343q95 137 250 137
q153 0 208 -151l10 125h134l-40 -478q-8 -98 -8 -135q0 -146 111 -146q99 0 165 104q67 103 67 279q0 178 -71 320q-71 143 -209 225q-138 84 -325 84q-150 0 -276.5 -55.5t-209.5 -152.5q-82 -96 -126 -219t-44 -258q0 -182 77 -325q76 -142 223 -225q146 -83 339 -83
q122 0 211 28q77 23 112 43l14 8l41 -72q-17 -12 -63 -31q-32 -15 -77 -28q-103 -31 -238 -31zM798 858q-93 0 -152 -98q-58 -97 -58 -244q0 -125 46.5 -195t125.5 -70q92 0 145 92q54 93 54 244q0 132 -42.5 201.5t-118.5 69.5z" />
    <glyph glyph-name="A" unicode="A" horiz-adv-x="1272" 
d="M1274 0h-192l-132 358h-627l-131 -358h-194l545 1420h185zM893 512l-257 699l-256 -699h513z" />
    <glyph glyph-name="B" unicode="B" horiz-adv-x="1282" 
d="M747 0h-632v1420h595q219 0 337 -96q119 -96 119 -270q0 -221 -186 -314q118 -44 180 -132.5t62 -213.5q0 -180 -125 -287t-350 -107zM720 657h-420v-498h420q315 0 315 245q0 253 -315 253zM704 1261h-404v-464h404q281 0 281 236q0 228 -281 228z" />
    <glyph glyph-name="C" unicode="C" horiz-adv-x="1455" 
d="M740 129q104 0 193 43q93 46 160.5 139t90.5 218h189q-38 -254 -211 -408q-173 -153 -419 -153q-191 0 -341 93t-235 262q-84 169 -84 387q0 216 84 386q86 171 235 263q150 93 341 93q247 0 419 -154q173 -152 211 -407h-189q-36 189 -161 295q-125 105 -283 105
q-192 0 -328 -147q-67 -73 -104.5 -185.5t-37.5 -248.5t37.5 -248.5t104.5 -185.5q136 -147 328 -147z" />
    <glyph glyph-name="D" unicode="D" horiz-adv-x="1350" 
d="M594 0h-479v1420h479q309 0 491 -191t182 -519t-182 -519t-491 -191zM594 1258h-293v-1096h293q209 0 344 133q68 67 105 174t37 241t-37 241t-105 173q-134 134 -344 134z" />
    <glyph glyph-name="E" unicode="E" horiz-adv-x="1200" 
d="M1114 0h-999v1420h992v-164h-806v-467h704v-158h-704v-467h813v-164z" />
    <glyph glyph-name="F" unicode="F" horiz-adv-x="1142" 
d="M301 0h-186v1420h954v-164h-768v-484h679v-158h-679v-614z" />
    <glyph glyph-name="G" unicode="G" horiz-adv-x="1497" 
d="M1231 569h-428v152h589v-721h-152l-3 227q-70 -122 -197 -190.5t-293 -68.5q-143 0 -265.5 51.5t-211.5 146.5t-138 234t-49 304q0 164 49 304.5t137 238.5q89 98 213 151.5t267 53.5q226 2 400.5 -122.5t221.5 -330.5h-188q-45 139 -165 215q-121 77 -269 77
q-96 0 -183 -39t-153 -111q-67 -73 -105 -185.5t-38 -247.5q0 -264 137 -422t357 -158q187 0 314 118t153 323z" />
    <glyph glyph-name="H" unicode="H" horiz-adv-x="1357" 
d="M301 0h-186v1420h186v-628h755v628h186v-1420h-186v628h-755v-628z" />
    <glyph glyph-name="I" unicode="I" horiz-adv-x="458" 
d="M322 0h-186v1420h186v-1420z" />
    <glyph glyph-name="J" unicode="J" horiz-adv-x="1187" 
d="M562 -32q-265 0 -399 161q-117 139 -117 400v50h187v-45q0 -106 18.5 -176.5t60.5 -121.5q89 -107 249 -107q161 0 250 107q42 51 60 121.5t18 176.5v886h187v-898q0 -252 -117 -393q-132 -161 -397 -161z" />
    <glyph glyph-name="K" unicode="K" horiz-adv-x="1257" 
d="M1274 0h-213l-417 724l-343 -404v-320h-186v1420h186v-855l701 855h234l-467 -549z" />
    <glyph glyph-name="L" unicode="L" horiz-adv-x="1118" 
d="M1042 0h-927v1420h186v-1255h741v-165z" />
    <glyph glyph-name="M" unicode="M" horiz-adv-x="1685" 
d="M929 0h-173l-459 1151v-1151h-182v1420h238l489 -1223l491 1223h237v-1420h-182v1149z" />
    <glyph glyph-name="N" unicode="N" horiz-adv-x="1339" 
d="M1224 0h-171l-752 1102v-1102h-186v1420h170l752 -1102v1102h187v-1420z" />
    <glyph glyph-name="O" unicode="O" horiz-adv-x="1512" 
d="M756 -32q-299 0 -486 205t-187 537q0 331 187 536q188 206 486 206q195 3 349.5 -91.5t240 -265t83.5 -385.5q2 -215 -83.5 -385.5t-240 -265t-349.5 -91.5zM571 167q88 -38 185 -38t184 38q188 82 262 293q40 111 40 250t-40 250q-74 211 -262 293q-87 38 -184 38
t-185 -38q-187 -82 -262 -293q-39 -112 -39 -250t39 -250q75 -211 262 -293z" />
    <glyph glyph-name="P" unicode="P" horiz-adv-x="1224" 
d="M301 0h-186v1420h606q215 0 339 -115q124 -114 124 -322t-124 -323q-123 -114 -339 -114h-420v-546zM701 1255h-400v-550h400q122 0 205 58q92 65 92 217q0 151 -92 216q-82 59 -205 59z" />
    <glyph glyph-name="Q" unicode="Q" horiz-adv-x="1512" 
d="M756 -32q-299 0 -486 205t-187 537q0 331 187 536q188 206 486 206q195 3 349.5 -91.5t240 -265t83.5 -385.5q0 -174 -55 -319t-158 -245l176 -204l-110 -98l-183 213q-154 -89 -343 -89zM756 129q126 0 229 60l-235 274l110 98l239 -279q143 161 143 428
q1 203 -83 345.5t-219 197.5q-130 59 -278.5 28.5t-245.5 -138.5q-66 -69 -107 -183q-39 -112 -39 -250t39 -250q57 -160 177 -245.5t270 -85.5z" />
    <glyph glyph-name="R" unicode="R" horiz-adv-x="1290" 
d="M115 1420h621q216 0 341 -117q124 -115 124 -328q0 -150 -63.5 -253.5t-182.5 -151.5l309 -570h-204l-278 532q-10 -1 -46 -1h-435v-531h-186v1420zM720 1256h-419v-565h419q140 0 217.5 70t77.5 212t-77.5 212.5t-217.5 70.5z" />
    <glyph glyph-name="S" unicode="S" horiz-adv-x="1245" 
d="M628 -32q-252 0 -403 117q-150 117 -150 317h195q0 -137 99 -209t259 -72q73 0 135.5 15.5t113 46.5t79.5 84t29 122q0 68 -25 103q-12 18 -19 26.5t-20.5 20t-32.5 20.5q-25 13 -52 24q-19 9 -68 22q-40 12 -76 21q-6 2 -22.5 6t-34 8t-35.5 8l-84 20q-3 1 -81 22
q-41 12 -79 26q-54 24 -70 32q-58 28 -115 85q-75 81 -75 213q0 180 144 293q146 113 372 113q237 0 386 -118q150 -119 150 -308h-186q0 121 -96 196q-95 75 -251 75q-146 0 -241 -65q-94 -64 -94 -183q3 -53 19 -86t55 -59q18 -12 55 -31q25 -13 76 -28q14 -4 44 -12.5
t45 -12.5l28 -7t40 -9.5t41 -9.5q201 -47 281 -85q162 -76 197 -224q9 -42 9 -91q0 -182 -138 -301q-68 -59 -172.5 -92t-231.5 -33z" />
    <glyph glyph-name="T" unicode="T" horiz-adv-x="1290" 
d="M552 1255h-478v165h1142v-165h-478v-1255h-186v1255z" />
    <glyph glyph-name="U" unicode="U" horiz-adv-x="1342" 
d="M263 117q-152 152 -152 460v843h186v-841q0 -231 94 -335q49 -55 122 -85t158 -30t158 30t122 85q94 104 94 335v841h186v-843q0 -308 -152 -460q-152 -149 -408 -149t-408 149z" />
    <glyph glyph-name="V" unicode="V" horiz-adv-x="1214" 
d="M709 0h-198l-499 1420h194l404 -1205l401 1205h191z" />
    <glyph glyph-name="W" unicode="W" horiz-adv-x="1894" 
d="M1497 0h-212l-338 1162l-338 -1162h-212l-353 1420h193l273 -1189l344 1189h186l344 -1189l273 1189h193z" />
    <glyph glyph-name="X" unicode="X" horiz-adv-x="1204" 
d="M710 716l488 -716h-217l-379 572l-378 -572h-218l488 715l-480 705h211l378 -568l376 568h212z" />
    <glyph glyph-name="Y" unicode="Y" horiz-adv-x="1256" 
d="M1046 1420h206l-531 -963v-457h-187v458l-530 962h206l417 -774z" />
    <glyph glyph-name="Z" unicode="Z" horiz-adv-x="1209" 
d="M83 0v147l802 1108h-794v165h1025v-145l-805 -1110h815v-165h-1043z" />
    <glyph glyph-name="bracketleft" unicode="[" horiz-adv-x="678" 
d="M595 -344h-492v1812h492v-142h-329v-1528h329v-142z" />
    <glyph glyph-name="backslash" unicode="\" horiz-adv-x="861" 
d="M47 1420h182l585 -1420h-182z" />
    <glyph glyph-name="bracketright" unicode="]" horiz-adv-x="678" 
d="M83 1468h492v-1812h-492v142h329v1528h-329v142z" />
    <glyph glyph-name="asciicircum" unicode="^" horiz-adv-x="974" 
d="M405 1420h164l369 -750h-188l-263 561l-265 -561h-186z" />
    <glyph glyph-name="underscore" unicode="_" horiz-adv-x="1220" 
d="M1117 0h-1014v147h1014v-147z" />
    <glyph glyph-name="grave" unicode="`" horiz-adv-x="611" 
d="M512 1156h-138l-290 266h198z" />
    <glyph glyph-name="a" unicode="a" horiz-adv-x="1079" 
d="M965 707v-437q0 -74 8 -146q7 -61 16 -96l8 -28h-172q-19 59 -26 163q-105 -188 -372 -188q-173 0 -265 76t-92 216q0 128 76 202q35 34 82 55q77 37 194 54q28 4 77 9t78 9q60 10 68 11q61 11 107 47q43 33 43 106q0 59 -52 111q-59 62 -198 62q-116 0 -183 -47.5
t-81 -135.5h-170q8 98 65 172q99 139 367 142q230 0 330 -110q92 -98 92 -247zM456 455q-73 -12 -120 -35q-91 -44 -91 -144q0 -82 57.5 -127t167.5 -45q162 0 243.5 97.5t81.5 284.5v78q-32 -33 -91 -55t-106 -31q-62 -11 -142 -23z" />
    <glyph glyph-name="b" unicode="b" horiz-adv-x="1158" 
d="M283 0h-174v1420h174v-550q114 194 365 194q204 0 322 -154q119 -154 119 -391q0 -155 -51 -277t-153 -195q-101 -72 -237 -72q-251 0 -365 192v-167zM598 117q141 0 229 106t88 296t-88 296q-89 107 -229 107q-138 0 -227 -107q-88 -106 -88 -296t88 -296t227 -106z" />
    <glyph glyph-name="c" unicode="c" horiz-adv-x="1102" 
d="M560 1064q187 0 309 -109q123 -108 161 -294h-178q-33 121 -111 191t-182 70q-139 0 -227 -111q-88 -109 -88 -292t88 -292q89 -110 227 -110q107 0 184 70q78 71 110 190h177q-34 -187 -162 -295q-128 -107 -308 -107q-230 0 -360 148t-130 396t130 396q131 149 360 149
z" />
    <glyph glyph-name="d" unicode="d" horiz-adv-x="1158" 
d="M875 1420h174v-1420h-174v167q-114 -192 -365 -192q-136 0 -238 72q-100 72 -151.5 193.5t-51.5 278.5q0 237 119 391q118 154 322 154q251 0 365 -194v550zM560 922q-140 0 -229 -107q-88 -106 -88 -296t88 -296t229 -106q139 0 227 106t88 296t-88 296
q-89 107 -227 107z" />
    <glyph glyph-name="e" unicode="e" horiz-adv-x="1101" 
d="M1033 514l-2 -57h-787q15 -161 100 -253q86 -92 212 -92q86 0 154 42.5t110 121.5h183q-54 -144 -170 -222.5t-277 -78.5q-229 0 -358 147q-128 149 -128 393q0 246 127 397q128 152 355 152q223 0 352 -149t129 -401zM555 927q-130 0 -214 -95q-84 -96 -97 -255h613
q-14 170 -95 259q-82 91 -207 91z" />
    <glyph glyph-name="f" unicode="f" horiz-adv-x="715" 
d="M423 0h-174v891h-211v147h211v66q0 169 72 246.5t224 77.5q75 0 121 -8l17 -2v-149q-66 10 -118 10q-79 0 -111 -39q-31 -38 -31 -136v-66h260v-147h-260v-891z" />
    <glyph glyph-name="g" unicode="g" horiz-adv-x="1157" 
d="M565 -275q187 0 250 107q33 55 46 125.5t13 181.5v27q-116 -189 -363 -189q-136 0 -237 71q-100 71 -152 192.5t-52 278.5q0 236 119 391q118 154 322 154q247 0 363 -192v166h174v-884q0 -78 -4 -127q-9 -133 -52 -221q-49 -106 -145 -155q-108 -58 -285 -58
q-210 0 -314 78q-91 68 -133 188h175q71 -134 275 -134zM874 519q0 190 -88 296q-87 107 -226 107t-228 -107q-88 -106 -88 -296q0 -189 87 -295q89 -105 229 -105q139 0 226 106q88 106 88 294z" />
    <glyph glyph-name="h" unicode="h" horiz-adv-x="1128" 
d="M1021 0h-174v619q0 156 -62 227t-186 71q-152 0 -234 -107.5t-82 -308.5v-501h-174v1420h174v-574q90 218 368 218q370 0 370 -409v-655z" />
    <glyph glyph-name="i" unicode="i" horiz-adv-x="420" 
d="M297 0h-174v1038h174v-1038zM119 1420h182v-212h-182v212z" />
    <glyph glyph-name="j" unicode="j" horiz-adv-x="420" 
d="M297 1038v-1099q0 -321 -288 -321h-64v141h25q77 0 115 45t38 145v1089h174zM119 1420h182v-212h-182v212z" />
    <glyph glyph-name="k" unicode="k" horiz-adv-x="1036" 
d="M1046 0h-197l-330 506l-236 -248v-258h-174v1420h174v-958l522 576h221l-387 -406z" />
    <glyph glyph-name="l" unicode="l" horiz-adv-x="421" 
d="M298 0h-175v1420h175v-1420z" />
    <glyph glyph-name="m" unicode="m" horiz-adv-x="1732" 
d="M954 0h-174v630q0 149 -53 218t-160 69q-134 0 -209 -103t-75 -296v-518h-174v1038h174v-181q31 77 102 137q83 70 233 70q245 0 310 -221q32 84 108 146q88 75 248 75q341 0 341 -392v-672h-175v630q0 149 -53 218t-158 69q-134 0 -209.5 -103.5t-75.5 -295.5v-518z" />
    <glyph glyph-name="n" unicode="n" horiz-adv-x="1124" 
d="M1017 0h-174v619q0 158 -60.5 228t-184.5 70q-152 0 -233.5 -107t-81.5 -309v-501h-174v1038h174v-192q90 218 366 218q368 0 368 -409v-655z" />
    <glyph glyph-name="o" unicode="o" horiz-adv-x="1138" 
d="M203 915q134 149 366 149q231 0 365 -149t134 -396t-134 -396q-133 -148 -365 -148q-233 0 -366 148t-133 396t133 396zM801 812q-90 110 -232 110q-141 0 -233 -110q-90 -110 -90 -293q0 -184 90 -293q91 -109 233 -109t232 109q91 109 91 293t-91 293z" />
    <glyph glyph-name="p" unicode="p" horiz-adv-x="1158" 
d="M283 -382h-174v1420h174v-168q113 194 365 194q201 1 322.5 -155t118.5 -390q0 -237 -119 -391q-118 -153 -322 -153q-251 0 -365 193v-550zM283 519q0 -190 88 -296t227 -106q141 0 229 106t88 296t-88 296q-89 107 -229 107q-138 0 -227 -107q-88 -106 -88 -296z" />
    <glyph glyph-name="q" unicode="q" horiz-adv-x="1158" 
d="M875 1038h174v-1420h-174v550q-114 -193 -365 -193q-204 0 -322 153q-119 154 -119 391q0 155 51 277q53 125 154.5 196.5t235.5 71.5q252 0 365 -194v168zM875 519q0 190 -88 296q-89 107 -227 107q-140 0 -229 -107q-88 -106 -88 -296t88 -296t229 -106q139 0 227 106
t88 296z" />
    <glyph glyph-name="r" unicode="r" horiz-adv-x="771" 
d="M611 1050q65 0 99 -9l12 -3v-151q-42 13 -108 13q-331 0 -331 -460v-440h-174v1038h174v-194q31 75 103 136q81 70 225 70z" />
    <glyph glyph-name="s" unicode="s" horiz-adv-x="1032" 
d="M514 -25q-217 0 -328.5 84.5t-111.5 235.5h177q0 -92 67.5 -140t198.5 -48q132 0 199.5 47t67.5 130q6 81 -74 126q-18 11 -55 21q-37 11 -63 15l-76 14q-156 27 -221 46q-159 51 -193 166q-11 38 -11 80q0 141 107 227q106 85 311 85q199 0 315 -84q116 -83 116 -227
h-170q0 82 -67.5 130.5t-191.5 48.5q-119 0 -183 -45.5t-64 -122.5q-8 -74 68 -116q14 -9 53 -20l58 -13l73 -13q171 -29 225 -46q165 -51 204 -169q13 -39 13 -90q0 -146 -109 -234q-107 -88 -335 -88z" />
    <glyph glyph-name="t" unicode="t" horiz-adv-x="740" 
d="M532 -8q-152 0 -221.5 82.5t-69.5 259.5v557h-211v147h211v293l175 68v-361h260v-147h-260v-547q0 -114 41 -162.5t129 -48.5q43 0 78 7l12 3v-140q-83 -11 -144 -11z" />
    <glyph glyph-name="u" unicode="u" horiz-adv-x="1117" 
d="M107 1038h174v-617q0 -158 59.5 -228.5t182.5 -70.5q152 0 231.5 107t79.5 310v499h174v-1038h-174v193q-90 -218 -361 -218q-182 0 -274 100t-92 309v654z" />
    <glyph glyph-name="v" unicode="v" horiz-adv-x="1026" 
d="M832 1038h189l-408 -1038h-200l-409 1038h190l318 -868z" />
    <glyph glyph-name="w" unicode="w" horiz-adv-x="1642" 
d="M1275 0h-193l-262 830l-260 -830h-193l-339 1038h189l251 -841l268 841h169l268 -839l251 839h190z" />
    <glyph glyph-name="x" unicode="x" horiz-adv-x="1056" 
d="M1034 0h-215l-292 399l-291 -399h-214l397 525l-394 513h207l295 -396l296 396h208l-396 -513z" />
    <glyph glyph-name="y" unicode="y" horiz-adv-x="1026" 
d="M423 -25l-419 1063h190l318 -860l319 860h190l-562 -1420h-187z" />
    <glyph glyph-name="z" unicode="z" horiz-adv-x="988" 
d="M76 1038h820v-141l-626 -756h649v-141h-850v141l626 756h-619v141z" />
    <glyph glyph-name="braceleft" unicode="{" horiz-adv-x="794" 
d="M528 1468h182v-142h-156q-64 0 -92.5 -30t-28.5 -103v-324q0 -250 -150 -307q150 -57 150 -307v-324q0 -73 28.5 -103t92.5 -30h156v-142h-182q-133 0 -195.5 67t-62.5 207v312q0 142 -47 195q-46 54 -155 54v142q108 0 155 53q47 55 47 196v312q0 140 62.5 207t195.5 67
z" />
    <glyph glyph-name="bar" unicode="|" horiz-adv-x="394" 
d="M278 -275h-162v1925h162v-1925z" />
    <glyph glyph-name="braceright" unicode="}" horiz-adv-x="794" 
d="M240 1326h-156v142h182q133 0 195.5 -67t62.5 -207v-312q0 -141 47 -196q47 -53 155 -53v-142q-108 0 -155 -54q-47 -53 -47 -195v-312q0 -140 -62.5 -207t-195.5 -67h-182v142h156q64 0 92.5 30t28.5 103v324q0 250 150 307q-150 57 -150 307v324q0 73 -28.5 103
t-92.5 30z" />
    <glyph glyph-name="asciitilde" unicode="~" horiz-adv-x="1202" 
d="M973 687h144q0 -153 -72 -241t-205 -88q-62 0 -113 19q-53 20 -133 65q-71 40 -91 50q-68 38 -132 38q-137 0 -142 -179h-144q0 153 72 241q72 89 205 89q57 0 111 -20q59 -22 134 -65l90 -50q74 -38 133 -38q137 0 143 179z" />
    <glyph glyph-name="nbspace" unicode="&#xa0;" horiz-adv-x="358" 
 />
    <glyph glyph-name="exclamdown" unicode="&#xa1;" horiz-adv-x="404" 
d="M288 -382h-173v508l34 521h105l34 -521v-508zM299 783h-195v255h195v-255z" />
    <glyph glyph-name="cent" unicode="&#xa2;" horiz-adv-x="1102" 
d="M597 -192h-94v170q-204 20 -319 164q-114 146 -114 377t114 377q116 146 319 165v169h94v-167q171 -10 284 -119q115 -109 149 -283h-178q-31 111 -99 179.5t-160 79.5v-801q93 11 161.5 79t98.5 179h177q-35 -178 -150 -284t-283 -117v-168zM506 122v795
q-118 -21 -190 -128t-72 -270t72 -270q72 -106 190 -127z" />
    <glyph glyph-name="sterling" unicode="&#xa3;" horiz-adv-x="1205" 
d="M302 553h-205v126h163q-17 38 -28 61l-30 69q-2 6 -9.5 26.5t-12.5 35.5q-24 75 -24 154q0 190 130 308q131 119 342 119q224 0 358 -134t134 -341v-23h-186v21q0 152 -86 235t-217 83q-126 0 -208 -77q-81 -76 -81 -205q0 -42 10 -88q11 -49 21 -76l33 -89l31 -79h356
v-126h-319q8 -48 8 -84q0 -190 -156 -307h794v-162h-1023v143q42 17 93 58q34 28 59 60q28 35 46 87.5t18 107.5q0 45 -11 97z" />
    <glyph glyph-name="currency" unicode="&#xa4;" horiz-adv-x="1115" 
d="M1058 305l-96 -96l-196 195q-92 -59 -208 -59q-118 0 -209 59l-196 -195l-96 96l194 195q-62 91 -62 210t62 210l-194 195l96 96l196 -195q91 59 209 59q116 0 208 -59l196 195l96 -96l-195 -195q63 -92 63 -210t-62 -210zM391 534q66 -68 167 -68t167 68t66 176t-66 176
t-167 68t-167 -68t-66 -176t66 -176z" />
    <glyph glyph-name="yen" unicode="&#xa5;" horiz-adv-x="1190" 
d="M1058 796v-126h-263l-84 -162h347v-126h-369v-382h-187v382h-369v126h347l-85 162h-262v126h196l-325 624h200l391 -778l392 778h199l-325 -624h197z" />
    <glyph glyph-name="brokenbar" unicode="&#xa6;" horiz-adv-x="394" 
d="M278 -275h-162v841h162v-841zM278 934h-162v716h162v-716z" />
    <glyph glyph-name="section" unicode="&#xa7;" horiz-adv-x="1138" 
d="M1063 509q0 -187 -157 -278q128 -86 128 -240q0 -165 -129 -266q-129 -102 -332 -102q-211 0 -344 109q-134 110 -134 285h172q0 -109 84 -176q85 -68 221 -68q126 0 208 57q82 55 82 159q7 87 -83 139q-24 15 -69 29q-39 14 -86 26q-80 21 -111 28q-42 10 -93 23
q-34 9 -87 27q-55 19 -84 34t-69 44q-39 29 -57 59q-48 73 -48 169q0 185 156 277q-127 85 -127 240q0 165 129 267t332 102q210 0 344 -107t134 -277h-172q0 103 -84 168q-85 65 -221 65q-126 0 -208 -57q-82 -55 -82 -158q-7 -87 83 -139q23 -14 69 -30q53 -17 86 -26
q64 -17 111 -28q47 -10 72 -18q2 -1 27 -8t42 -12q37 -10 68 -23q33 -13 61 -27q52 -25 101 -77q67 -67 67 -190zM553 730q-122 27 -187 50q-131 -59 -131 -204q-7 -94 88 -150q25 -15 70 -30q28 -9 85 -25q11 -3 27.5 -7t39.5 -9.5t40 -9.5q121 -27 186 -50q132 59 132 205
q0 57 -23 89q-29 42 -67 61q-62 30 -110 42q-61 17 -69 19q-53 13 -81 19z" />
    <glyph glyph-name="dieresis" unicode="&#xa8;" horiz-adv-x="744" 
d="M645 1166h-158v224h158v-224zM99 1390h157v-224h-157v224z" />
    <glyph glyph-name="copyright" unicode="&#xa9;" horiz-adv-x="1583" 
d="M791 1446q148 0 278.5 -53t226.5 -150q97 -97 150.5 -235t53.5 -298t-53.5 -298.5t-150.5 -235.5q-96 -96 -226.5 -149t-278.5 -53q-146 0 -277 53t-227 149q-97 97 -150.5 235.5t-53.5 298.5t53.5 298t150.5 235q96 97 226.5 150t277.5 53zM791 44q177 0 322 83
q145 84 227 237q83 154 83 346t-83 346q-83 153 -227 236q-144 84 -322 84q-132 0 -248.5 -48.5t-201.5 -136.5q-85 -87 -133 -212.5t-48 -268.5t48 -268.5t133 -213.5q85 -87 202 -135.5t248 -48.5zM799 387q88 0 155 56q65 55 85 163h118q-21 -145 -119 -234
q-97 -88 -238 -88q-168 0 -271 118q-104 119 -104 309q0 189 104 308t271 119q141 0 238 -88q98 -89 119 -234h-118q-18 104 -84 161.5t-156 57.5q-111 0 -184 -84q-72 -84 -72 -240t72 -240q73 -84 184 -84z" />
    <glyph glyph-name="ordfeminine" unicode="&#xaa;" horiz-adv-x="797" 
d="M709 1193v-311q0 -112 17 -169l5 -20h-134q-13 36 -19 109q-76 -127 -265 -127q-125 0 -190.5 55t-65.5 153q0 185 251 221l63 7q71 7 117 17q43 11 63.5 32.5t23.5 64.5q0 50 -43 83t-127 33q-81 0 -131 -33t-58 -90h-130q8 86 75 149q76 71 241 71q160 0 233 -69
q74 -69 74 -176zM394 1026l-58 -9q-142 -25 -142 -126q0 -55 41.5 -87t118.5 -32q108 0 164.5 66.5t56.5 190.5v65q-16 -20 -47.5 -35.5t-62.5 -21.5z" />
    <glyph glyph-name="guillemotleft" unicode="&#xab;" horiz-adv-x="1161" 
d="M564 230v-207l-471 415v180l471 415v-207l-357 -298zM1056 230v-207l-471 415v180l471 415v-207l-357 -298z" />
    <glyph glyph-name="logicalnot" unicode="&#xac;" horiz-adv-x="1128" 
d="M868 581h-765v156h922v-602h-157v446z" />
    <glyph glyph-name="uni00AD" unicode="&#xad;" horiz-adv-x="744" 
d="M641 441h-538v156h538v-156z" />
    <glyph glyph-name="registered" unicode="&#xae;" horiz-adv-x="1059" 
d="M207 633q-128 131 -128 337t128 337t322 131t322 -131q129 -130 129 -337q0 -206 -129 -337q-127 -130 -322 -130t-322 130zM139 970q0 -180 111 -296q112 -115 279 -115q168 0 279 115q112 115 112 296q0 182 -112 297q-111 115 -279 115t-279 -115t-111 -297zM349 1229
h218q78 0 122.5 -42.5t44.5 -117.5q0 -115 -98 -148l114 -201h-93l-104 190h-119v-190h-85v509zM562 1153h-128v-167h128q41 0 64 21t23 61q0 41 -23.5 63t-63.5 22z" />
    <glyph glyph-name="overscore" unicode="&#xaf;" horiz-adv-x="757" 
d="M658 1222h-559v118h559v-118z" />
    <glyph glyph-name="degree" unicode="&#xb0;" horiz-adv-x="806" 
d="M73 1111q0 143 94 234q95 93 236 93t236 -93q94 -91 94 -234q0 -141 -94 -234q-95 -92 -236 -92t-236 92q-94 93 -94 234zM608 1111q0 92 -59 153q-59 60 -146 60q-89 0 -147 -60q-58 -59 -58 -153q0 -92 58 -153q58 -60 147 -60q87 0 146 60q59 62 59 153z" />
    <glyph glyph-name="plusminus" unicode="&#xb1;" horiz-adv-x="1128" 
d="M486 596h-383v155h383v376h156v-376h383v-155h-383v-309h-156v309zM1025 0h-922v156h922v-156z" />
    <glyph glyph-name="twosuperior" unicode="&#xb2;" horiz-adv-x="682" 
d="M486 1432q0 64 -40.5 103.5t-105.5 39.5q-69 0 -109.5 -46t-40.5 -124v-24h-130v25q0 131 75 206q75 76 206 76q123 0 200 -68t77 -182q0 -66 -27 -119q-13 -26 -29.5 -47t-40 -40t-41 -31.5t-49.5 -33.5q-47 -29 -98 -57q-48 -25 -87 -61.5t-56 -74.5h436v-113h-566v29
q0 123 67 196q37 40 72 66q34 26 100 67l63 39l48 36q30 23 43 41q33 47 33 97z" />
    <glyph glyph-name="threesuperior" unicode="&#xb3;" horiz-adv-x="721" 
d="M361 842q-148 0 -227 69.5t-79 202.5h133q0 -100 61 -135q51 -29 114 -29q85 0 129.5 39.5t44.5 102.5q0 62 -44 98t-113 36h-70v105h80q58 0 90 32.5t32 85.5q0 61 -43 96t-108 35q-70 0 -120 -44q-49 -43 -49 -126h-128q0 130 83 204q85 74 212 74q117 0 199 -62
q81 -62 81 -164q0 -63 -31.5 -109.5t-87.5 -68.5q151 -46 151 -198q0 -108 -80 -176t-230 -68z" />
    <glyph glyph-name="acute" unicode="&#xb4;" horiz-adv-x="611" 
d="M329 1422h198l-290 -266h-138z" />
    <glyph glyph-name="mu" unicode="&#xb5;" horiz-adv-x="1119" 
d="M109 1038h174v-617q0 -158 59.5 -228.5t182.5 -70.5q152 0 231.5 107t79.5 310v499h174v-1038h-174v193q-90 -218 -361 -218q-115 0 -192 45v-402h-174v1420z" />
    <glyph glyph-name="paragraph" unicode="&#xb6;" horiz-adv-x="1284" 
d="M502 1420h667v-1734h-160v1606h-211v-1606h-158v865h-138q-214 0 -339 113q-123 114 -123 322t123 320q125 114 339 114z" />
    <glyph glyph-name="middot" unicode="&#xb7;" horiz-adv-x="401" 
d="M298 391h-195v255h195v-255z" />
    <glyph glyph-name="cedilla" unicode="&#xb8;" horiz-adv-x="698" 
d="M391 -117q91 0 155 -42q65 -44 65 -127q0 -88 -73 -131q-74 -44 -192 -44q-72 0 -136 18q-60 16 -87 31q-23 14 -36 24l27 70q4 -4 31 -20q21 -12 74 -28q51 -15 102 -15q69 0 106.5 25.5t37.5 73.5q0 46 -34 73t-94 27q-58 0 -87 -20l-10 -6l-50 27l136 181h89l-93 -123
q32 6 69 6z" />
    <glyph glyph-name="onesuperior" unicode="&#xb9;" horiz-adv-x="481" 
d="M55 1353v114q99 1 155 60q55 58 66 143h110v-809h-132v578q-59 -86 -199 -86z" />
    <glyph glyph-name="ordmasculine" unicode="&#xba;" horiz-adv-x="857" 
d="M788 1056q0 -171 -98 -277q-98 -104 -262 -104t-262 104q-97 104 -97 277t97 277q98 105 262 105t262 -105q98 -104 98 -277zM428 780q98 0 160 71q63 72 63 205t-63 205q-62 72 -160 72q-97 0 -160 -72q-62 -73 -62 -205t62 -205q63 -71 160 -71z" />
    <glyph glyph-name="guillemotright" unicode="&#xbb;" horiz-adv-x="1161" 
d="M576 618v-180l-471 -415v207l357 298l-357 298v207zM1068 618v-180l-471 -415v207l357 298l-357 298v207z" />
    <glyph glyph-name="onequarter" unicode="&#xbc;" horiz-adv-x="1574" 
d="M1267 166h-406v112l392 531h147v-535h124v-108h-124v-166h-133v166zM1267 659l-277 -385h277v385zM55 1103v114q99 1 155 60q55 58 66 143h110v-809h-132v578q-59 -86 -199 -86zM386 -32h-132l888 1484h132z" />
    <glyph glyph-name="onehalf" unicode="&#xbd;" horiz-adv-x="1615" 
d="M1419 571q0 64 -40.5 103.5t-105.5 39.5q-69 0 -109.5 -46t-40.5 -124v-24h-130v25q0 131 75 206q75 76 206 76q123 0 200 -68t77 -182q0 -67 -27 -119q-13 -26 -29.5 -47t-40 -40t-41 -31.5t-49.5 -33.5q-47 -29 -98 -57q-48 -25 -87 -61.5t-56 -74.5h436v-113h-566v29
q0 123 67 196q38 41 72 66q34 26 100 67l63 39l48 36q30 23 43 41q33 47 33 97zM55 1103v114q99 1 155 60q55 58 66 143h110v-809h-132v578q-59 -86 -199 -86zM386 -32h-132l888 1484h132z" />
    <glyph glyph-name="threequarters" unicode="&#xbe;" horiz-adv-x="1722" 
d="M361 592q-148 0 -227 69.5t-79 202.5h133q0 -100 61 -135q51 -29 114 -29q85 0 129.5 39.5t44.5 102.5q0 62 -44 98t-113 36h-70v105h80q58 0 90 32.5t32 85.5q0 61 -43 96t-108 35q-70 0 -120 -44q-49 -43 -49 -126h-128q0 130 83 204q85 74 212 74q117 0 199 -62
q81 -62 81 -164q0 -63 -31.5 -109.5t-87.5 -68.5q151 -46 151 -198q0 -108 -80 -176t-230 -68zM1415 166h-406v112l392 531h147v-535h124v-108h-124v-166h-133v166zM1415 659l-277 -385h277v385zM534 -32h-132l888 1484h132z" />
    <glyph glyph-name="questiondown" unicode="&#xbf;" horiz-adv-x="1013" 
d="M47 24q-1 106 40 179t111 131q16 14 73.5 60t83.5 71q76 74 76 182h161q0 -188 -143 -307q-15 -12 -51 -41t-53 -43.5t-43.5 -43.5t-39.5 -53.5t-23 -60.5t-10 -76q0 -129 82 -205q83 -77 204 -77q126 0 203 83q78 83 81 225v19h178v-31q-1 -108 -38.5 -195.5
t-103.5 -142.5q-130 -112 -322 -112q-127 0 -233 50q-104 50 -169 151q-64 100 -64 237zM414 1038h195v-255h-195v255z" />
    <glyph glyph-name="Agrave" unicode="&#xc0;" horiz-adv-x="1272" 
d="M1274 0h-192l-132 358h-627l-131 -358h-194l545 1420h185zM893 512l-257 699l-256 -699h513zM759 1538h-138l-290 266h198z" />
    <glyph glyph-name="Aacute" unicode="&#xc1;" horiz-adv-x="1272" 
d="M1274 0h-192l-132 358h-627l-131 -358h-194l545 1420h185zM893 512l-257 699l-256 -699h513zM742 1804h198l-290 -266h-138z" />
    <glyph glyph-name="Acircumflex" unicode="&#xc2;" horiz-adv-x="1272" 
d="M1274 0h-192l-132 358h-627l-131 -358h-194l545 1420h185zM893 512l-257 699l-256 -699h513zM960 1518h-164l-161 204l-159 -204h-164l246 286h155z" />
    <glyph glyph-name="Atilde" unicode="&#xc3;" horiz-adv-x="1272" 
d="M620 1613q-51 28 -80 39q-24 10 -55 10q-48 0 -70 -28t-23 -93h-103q1 235 183 235q43 0 80 -13t99 -48q89 -50 135 -50q45 0 67.5 28t23.5 92h105q-2 -95 -39 -160q-44 -73 -147 -73q-41 0 -76 13q-34 13 -100 48zM1274 0h-192l-132 358h-627l-131 -358h-194l545 1420
h185zM893 512l-257 699l-256 -699h513z" />
    <glyph glyph-name="Adieresis" unicode="&#xc4;" horiz-adv-x="1272" 
d="M1274 0h-192l-132 358h-627l-131 -358h-194l545 1420h185zM893 512l-257 699l-256 -699h513zM909 1548h-158v224h158v-224zM363 1772h157v-224h-157v224z" />
    <glyph glyph-name="Aring" unicode="&#xc5;" horiz-adv-x="1272" 
d="M485 1819q56 50 152 50q95 0 151 -50t56 -128t-56 -128t-151 -50q-96 0 -152 50q-55 49 -55 128t55 128zM708 1760q-26 27 -71 27t-72 -27q-26 -28 -26 -69t26 -69q27 -27 72 -27t71 27q27 27 27 69t-27 69zM1274 0h-192l-132 358h-627l-131 -358h-194l545 1420h185z
M893 512l-257 699l-256 -699h513z" />
    <glyph glyph-name="Ccedilla" unicode="&#xc7;" horiz-adv-x="1455" 
d="M764 -117q91 0 155 -42q65 -44 65 -127q0 -88 -73 -131q-74 -44 -192 -44q-71 0 -136 18q-60 16 -87 31q-22 14 -36 24l27 70q3 -4 31 -20q21 -12 74 -28q51 -15 102 -15q69 0 106.5 25.5t37.5 73.5q0 46 -34 73t-94 27q-58 0 -87 -20l-10 -6l-50 27l114 152
q-264 24 -429 227q-165 202 -165 512q0 216 84 386q86 171 235 263q150 93 341 93q247 0 419 -154q173 -152 211 -407h-189q-36 189 -161 295q-125 105 -283 105q-192 0 -328 -147q-67 -73 -104.5 -185.5t-37.5 -248.5t37.5 -248.5t104.5 -185.5q136 -147 328 -147
q104 0 193 43q93 46 160.5 139t90.5 218h189q-38 -250 -204 -401q-168 -153 -405 -160l-69 -91q31 6 69 6z" />
    <glyph glyph-name="Egrave" unicode="&#xc8;" horiz-adv-x="1200" 
d="M1114 0h-999v1420h992v-164h-806v-467h704v-158h-704v-467h813v-164zM732 1538h-138l-290 266h198z" />
    <glyph glyph-name="Eacute" unicode="&#xc9;" horiz-adv-x="1200" 
d="M1114 0h-999v1420h992v-164h-806v-467h704v-158h-704v-467h813v-164zM714 1804h198l-290 -266h-138z" />
    <glyph glyph-name="Ecircumflex" unicode="&#xca;" horiz-adv-x="1200" 
d="M1114 0h-999v1420h992v-164h-806v-467h704v-158h-704v-467h813v-164zM939 1518h-164l-161 204l-159 -204h-164l246 286h155z" />
    <glyph glyph-name="Edieresis" unicode="&#xcb;" horiz-adv-x="1200" 
d="M1114 0h-999v1420h992v-164h-806v-467h704v-158h-704v-467h813v-164zM888 1548h-158v224h158v-224zM342 1772h157v-224h-157v224z" />
    <glyph glyph-name="Igrave" unicode="&#xcc;" horiz-adv-x="458" 
d="M348 1538h-138l-290 266h198zM322 0h-186v1420h186v-1420z" />
    <glyph glyph-name="Iacute" unicode="&#xcd;" horiz-adv-x="458" 
d="M340 1804h198l-290 -266h-138zM322 0h-186v1420h186v-1420z" />
    <glyph glyph-name="Icircumflex" unicode="&#xce;" horiz-adv-x="458" 
d="M553 1518h-164l-161 204l-159 -204h-164l246 286h155zM322 0h-186v1420h186v-1420z" />
    <glyph glyph-name="Idieresis" unicode="&#xcf;" horiz-adv-x="458" 
d="M502 1548h-158v224h158v-224zM-44 1772h157v-224h-157v224zM322 0h-186v1420h186v-1420z" />
    <glyph glyph-name="Eth" unicode="&#xd0;" horiz-adv-x="1412" 
d="M716 629h-715v162h715v-162zM656 0h-479v1420h479q309 0 491 -191t182 -519t-182 -519t-491 -191zM656 1258h-293v-1096h293q209 0 344 133q68 67 105 174t37 241t-37 241t-105 173q-134 134 -344 134z" />
    <glyph glyph-name="Ntilde" unicode="&#xd1;" horiz-adv-x="1339" 
d="M653 1613q-51 28 -80 39q-24 10 -55 10q-48 0 -70 -28t-23 -93h-103q1 235 183 235q43 0 80 -13t99 -48q89 -50 135 -50q45 0 67.5 28t23.5 92h105q-2 -95 -39 -160q-44 -73 -147 -73q-41 0 -76 13q-34 13 -100 48zM1224 0h-171l-752 1102v-1102h-186v1420h170l752 -1102
v1102h187v-1420z" />
    <glyph glyph-name="Ograve" unicode="&#xd2;" horiz-adv-x="1512" 
d="M756 -32q-299 0 -486 205t-187 537q0 331 187 536q188 206 486 206q195 3 349.5 -91.5t240 -265t83.5 -385.5q2 -215 -83.5 -385.5t-240 -265t-349.5 -91.5zM571 167q88 -38 185 -38t184 38q188 82 262 293q40 111 40 250t-40 250q-74 211 -262 293q-87 38 -184 38
t-185 -38q-187 -82 -262 -293q-39 -112 -39 -250t39 -250q75 -211 262 -293zM875 1538h-138l-290 266h198z" />
    <glyph glyph-name="Oacute" unicode="&#xd3;" horiz-adv-x="1512" 
d="M756 -32q-299 0 -486 205t-187 537q0 331 187 536q188 206 486 206q195 3 349.5 -91.5t240 -265t83.5 -385.5q2 -215 -83.5 -385.5t-240 -265t-349.5 -91.5zM571 167q88 -38 185 -38t184 38q188 82 262 293q40 111 40 250t-40 250q-74 211 -262 293q-87 38 -184 38
t-185 -38q-187 -82 -262 -293q-39 -112 -39 -250t39 -250q75 -211 262 -293zM867 1804h198l-290 -266h-138z" />
    <glyph glyph-name="Ocircumflex" unicode="&#xd4;" horiz-adv-x="1512" 
d="M756 -32q-299 0 -486 205t-187 537q0 331 187 536q188 206 486 206q195 3 349.5 -91.5t240 -265t83.5 -385.5q2 -215 -83.5 -385.5t-240 -265t-349.5 -91.5zM571 167q88 -38 185 -38t184 38q188 82 262 293q40 111 40 250t-40 250q-74 211 -262 293q-87 38 -184 38
t-185 -38q-187 -82 -262 -293q-39 -112 -39 -250t39 -250q75 -211 262 -293zM1080 1518h-164l-161 204l-159 -204h-164l246 286h155z" />
    <glyph glyph-name="Otilde" unicode="&#xd5;" horiz-adv-x="1512" 
d="M756 -32q-299 0 -486 205t-187 537q0 331 187 536q188 206 486 206q195 3 349.5 -91.5t240 -265t83.5 -385.5q2 -215 -83.5 -385.5t-240 -265t-349.5 -91.5zM571 167q88 -38 185 -38t184 38q188 82 262 293q40 111 40 250t-40 250q-74 211 -262 293q-87 38 -184 38
t-185 -38q-187 -82 -262 -293q-39 -112 -39 -250t39 -250q75 -211 262 -293zM740 1613q-51 28 -80 39q-24 10 -55 10q-48 0 -70 -28t-23 -93h-103q1 235 183 235q43 0 80 -13t99 -48q89 -50 135 -50q45 0 67.5 28t23.5 92h105q-2 -95 -39 -160q-44 -73 -147 -73
q-41 0 -76 13q-34 13 -100 48z" />
    <glyph glyph-name="Odieresis" unicode="&#xd6;" horiz-adv-x="1512" 
d="M756 -32q-299 0 -486 205t-187 537q0 331 187 536q188 206 486 206q195 3 349.5 -91.5t240 -265t83.5 -385.5q2 -215 -83.5 -385.5t-240 -265t-349.5 -91.5zM571 167q88 -38 185 -38t184 38q188 82 262 293q40 111 40 250t-40 250q-74 211 -262 293q-87 38 -184 38
t-185 -38q-187 -82 -262 -293q-39 -112 -39 -250t39 -250q75 -211 262 -293zM1030 1548h-158v224h158v-224zM484 1772h157v-224h-157v224z" />
    <glyph glyph-name="multiply" unicode="&#xd7;" horiz-adv-x="1039" 
d="M519 411l-309 -309l-107 108l309 309l-309 309l107 107l309 -309l310 310l107 -108l-309 -309l309 -309l-108 -108z" />
    <glyph glyph-name="Oslash" unicode="&#xd8;" horiz-adv-x="1512" 
d="M756 -32q-258 0 -436 156l-144 -172l-60 55l147 174q-180 205 -180 529q0 331 187 536q188 206 486 206q262 0 441 -160l148 176l60 -55l-151 -180q175 -202 175 -523q2 -215 -83.5 -385.5t-240 -265t-349.5 -91.5zM270 710q0 -234 111 -389l701 835q-134 135 -326 135
q-200 0 -340 -148q-68 -73 -107 -185.5t-39 -247.5zM756 129q201 0 339 147q69 73 108 185.5t39 248.5q0 227 -107 382l-701 -833q133 -130 322 -130z" />
    <glyph glyph-name="Ugrave" unicode="&#xd9;" horiz-adv-x="1342" 
d="M263 117q-152 152 -152 460v843h186v-841q0 -231 94 -335q49 -55 122 -85t158 -30t158 30t122 85q94 104 94 335v841h186v-843q0 -308 -152 -460q-152 -149 -408 -149t-408 149zM799 1538h-138l-290 266h198z" />
    <glyph glyph-name="Uacute" unicode="&#xda;" horiz-adv-x="1342" 
d="M263 117q-152 152 -152 460v843h186v-841q0 -231 94 -335q49 -55 122 -85t158 -30t158 30t122 85q94 104 94 335v841h186v-843q0 -308 -152 -460q-152 -149 -408 -149t-408 149zM773 1804h198l-290 -266h-138z" />
    <glyph glyph-name="Ucircumflex" unicode="&#xdb;" horiz-adv-x="1342" 
d="M263 117q-152 152 -152 460v843h186v-841q0 -231 94 -335q49 -55 122 -85t158 -30t158 30t122 85q94 104 94 335v841h186v-843q0 -308 -152 -460q-152 -149 -408 -149t-408 149zM995 1518h-164l-161 204l-159 -204h-164l246 286h155z" />
    <glyph glyph-name="Udieresis" unicode="&#xdc;" horiz-adv-x="1342" 
d="M263 117q-152 152 -152 460v843h186v-841q0 -231 94 -335q49 -55 122 -85t158 -30t158 30t122 85q94 104 94 335v841h186v-843q0 -308 -152 -460q-152 -149 -408 -149t-408 149zM944 1549h-158v224h158v-224zM398 1773h157v-224h-157v224z" />
    <glyph glyph-name="Yacute" unicode="&#xdd;" horiz-adv-x="1256" 
d="M1046 1420h206l-531 -963v-457h-187v458l-530 962h206l417 -774zM728 1804h198l-290 -266h-138z" />
    <glyph glyph-name="Thorn" unicode="&#xde;" horiz-adv-x="1224" 
d="M301 0h-186v1420h186v-234h420q215 0 339 -115q124 -114 124 -322t-124 -323q-123 -114 -339 -114h-420v-312zM701 1021h-400v-550h400q122 0 205 58q92 65 92 217q0 151 -92 216q-82 59 -205 59z" />
    <glyph glyph-name="germandbls" unicode="&#xdf;" horiz-adv-x="1136" 
d="M1001 1081q0 -233 -210 -305q134 -42 208 -143.5t74 -248.5q0 -179 -111 -287q-110 -108 -318 -108q-73 0 -135 11l-21 3v136q51 -14 116 -14q140 0 216 75q76 76 76 198q0 138 -92 221t-238 83h-78v133h43q170 0 239 75q59 64 59 160q0 115 -74 180q-73 66 -192 66
q-129 0 -206 -84q-77 -83 -77 -262v-970h-175v935q0 267 121.5 392t335.5 125q198 0 319 -98q120 -98 120 -273z" />
    <glyph glyph-name="agrave" unicode="&#xe0;" horiz-adv-x="1079" 
d="M965 707v-437q0 -74 8 -146q7 -61 16 -96l8 -28h-172q-19 59 -26 163q-105 -188 -372 -188q-173 0 -265 76t-92 216q0 128 76 202q35 34 82 55q77 37 194 54q28 4 77 9t78 9q60 10 68 11q61 11 107 47q43 33 43 106q0 59 -52 111q-59 62 -198 62q-116 0 -183 -47.5
t-81 -135.5h-170q8 98 65 172q99 139 367 142q230 0 330 -110q92 -98 92 -247zM456 455q-73 -12 -120 -35q-91 -44 -91 -144q0 -82 57.5 -127t167.5 -45q162 0 243.5 97.5t81.5 284.5v78q-32 -33 -91 -55t-106 -31q-62 -11 -142 -23zM683 1156h-138l-290 266h198z" />
    <glyph glyph-name="aacute" unicode="&#xe1;" horiz-adv-x="1079" 
d="M965 707v-437q0 -74 8 -146q7 -61 16 -96l8 -28h-172q-19 59 -26 163q-105 -188 -372 -188q-173 0 -265 76t-92 216q0 128 76 202q35 34 82 55q77 37 194 54q28 4 77 9t78 9q60 10 68 11q61 11 107 47q43 33 43 106q0 59 -52 111q-59 62 -198 62q-116 0 -183 -47.5
t-81 -135.5h-170q8 98 65 172q99 139 367 142q230 0 330 -110q92 -98 92 -247zM456 455q-73 -12 -120 -35q-91 -44 -91 -144q0 -82 57.5 -127t167.5 -45q162 0 243.5 97.5t81.5 284.5v78q-32 -33 -91 -55t-106 -31q-62 -11 -142 -23zM657 1422h198l-290 -266h-138z" />
    <glyph glyph-name="acircumflex" unicode="&#xe2;" horiz-adv-x="1079" 
d="M965 707v-437q0 -74 8 -146q7 -61 16 -96l8 -28h-172q-19 59 -26 163q-105 -188 -372 -188q-173 0 -265 76t-92 216q0 128 76 202q35 34 82 55q77 37 194 54q28 4 77 9t78 9q60 10 68 11q61 11 107 47q43 33 43 106q0 59 -52 111q-59 62 -198 62q-116 0 -183 -47.5
t-81 -135.5h-170q8 98 65 172q99 139 367 142q230 0 330 -110q92 -98 92 -247zM456 455q-73 -12 -120 -35q-91 -44 -91 -144q0 -82 57.5 -127t167.5 -45q162 0 243.5 97.5t81.5 284.5v78q-32 -33 -91 -55t-106 -31q-62 -11 -142 -23zM875 1136h-164l-161 204l-159 -204h-164
l246 286h155z" />
    <glyph glyph-name="atilde" unicode="&#xe3;" horiz-adv-x="1079" 
d="M965 707v-437q0 -74 8 -146q7 -61 16 -96l8 -28h-172q-19 59 -26 163q-105 -188 -372 -188q-173 0 -265 76t-92 216q0 128 76 202q35 34 82 55q77 37 194 54q28 4 77 9t78 9q60 10 68 11q61 11 107 47q43 33 43 106q0 59 -52 111q-59 62 -198 62q-116 0 -183 -47.5
t-81 -135.5h-170q8 98 65 172q99 139 367 142q230 0 330 -110q92 -98 92 -247zM456 455q-73 -12 -120 -35q-91 -44 -91 -144q0 -82 57.5 -127t167.5 -45q162 0 243.5 97.5t81.5 284.5v78q-32 -33 -91 -55t-106 -31q-62 -11 -142 -23zM535 1231q-51 28 -80 39q-24 10 -55 10
q-48 0 -70 -28t-23 -93h-103q1 235 183 235q43 0 80 -13t99 -48q89 -50 135 -50q45 0 67.5 28t23.5 92h105q-2 -95 -39 -160q-44 -73 -147 -73q-41 0 -76 13q-34 13 -100 48z" />
    <glyph glyph-name="adieresis" unicode="&#xe4;" horiz-adv-x="1079" 
d="M965 707v-437q0 -74 8 -146q7 -61 16 -96l8 -28h-172q-19 59 -26 163q-105 -188 -372 -188q-173 0 -265 76t-92 216q0 128 76 202q35 34 82 55q77 37 194 54q28 4 77 9t78 9q60 10 68 11q61 11 107 47q43 33 43 106q0 59 -52 111q-59 62 -198 62q-116 0 -183 -47.5
t-81 -135.5h-170q8 98 65 172q99 139 367 142q230 0 330 -110q92 -98 92 -247zM456 455q-73 -12 -120 -35q-91 -44 -91 -144q0 -82 57.5 -127t167.5 -45q162 0 243.5 97.5t81.5 284.5v78q-32 -33 -91 -55t-106 -31q-62 -11 -142 -23zM824 1166h-158v224h158v-224zM278 1390
h157v-224h-157v224z" />
    <glyph glyph-name="aring" unicode="&#xe5;" horiz-adv-x="1079" 
d="M965 707v-437q0 -74 8 -146q7 -61 16 -96l8 -28h-172q-19 59 -26 163q-105 -188 -372 -188q-173 0 -265 76t-92 216q0 128 76 202q35 34 82 55q77 37 194 54q28 4 77 9t78 9q60 10 68 11q61 11 107 47q43 33 43 106q0 59 -52 111q-59 62 -198 62q-116 0 -183 -47.5
t-81 -135.5h-170q8 98 65 172q99 139 367 142q230 0 330 -110q92 -98 92 -247zM456 455q-73 -12 -120 -35q-91 -44 -91 -144q0 -82 57.5 -127t167.5 -45q162 0 243.5 97.5t81.5 284.5v78q-32 -33 -91 -55t-106 -31q-62 -11 -142 -23zM399 1437q56 50 152 50q95 0 151 -50
t56 -128t-56 -128t-151 -50q-96 0 -152 50q-55 49 -55 128t55 128zM622 1378q-26 27 -71 27t-72 -27q-26 -28 -26 -69t26 -69q27 -27 72 -27t71 27q27 27 27 69t-27 69z" />
    <glyph glyph-name="ccedilla" unicode="&#xe7;" horiz-adv-x="1102" 
d="M581 -117q91 0 155 -42q65 -44 65 -127q0 -88 -73 -131q-74 -44 -192 -44q-72 0 -136 18q-60 16 -87 31q-23 14 -36 24l27 70q3 -4 31 -20q21 -12 74 -28q51 -15 102 -15q69 0 106.5 25.5t37.5 73.5q0 46 -34 73t-94 27q-58 0 -87 -20l-10 -6l-50 27l119 159
q-202 19 -316 165q-113 146 -113 376q0 248 130 396q131 149 360 149q187 0 309 -109q123 -108 161 -294h-178q-33 121 -111 191t-182 70q-139 0 -227 -111q-88 -109 -88 -292t88 -292q89 -110 227 -110q107 0 184 70q78 71 110 190h177q-35 -181 -153 -287t-291 -115
l-74 -98q32 6 69 6z" />
    <glyph glyph-name="egrave" unicode="&#xe8;" horiz-adv-x="1101" 
d="M1033 514l-2 -57h-787q15 -161 100 -253q86 -92 212 -92q86 0 154 42.5t110 121.5h183q-54 -144 -170 -222.5t-277 -78.5q-229 0 -358 147q-128 149 -128 393q0 246 127 397q128 152 355 152q223 0 352 -149t129 -401zM555 927q-130 0 -214 -95q-84 -96 -97 -255h613
q-14 170 -95 259q-82 91 -207 91zM674 1156h-138l-290 266h198z" />
    <glyph glyph-name="eacute" unicode="&#xe9;" horiz-adv-x="1101" 
d="M1033 514l-2 -57h-787q15 -161 100 -253q86 -92 212 -92q86 0 154 42.5t110 121.5h183q-54 -144 -170 -222.5t-277 -78.5q-229 0 -358 147q-128 149 -128 393q0 246 127 397q128 152 355 152q223 0 352 -149t129 -401zM555 927q-130 0 -214 -95q-84 -96 -97 -255h613
q-14 170 -95 259q-82 91 -207 91zM659 1422h198l-290 -266h-138z" />
    <glyph glyph-name="ecircumflex" unicode="&#xea;" horiz-adv-x="1101" 
d="M1033 514l-2 -57h-787q15 -161 100 -253q86 -92 212 -92q86 0 154 42.5t110 121.5h183q-54 -144 -170 -222.5t-277 -78.5q-229 0 -358 147q-128 149 -128 393q0 246 127 397q128 152 355 152q223 0 352 -149t129 -401zM555 927q-130 0 -214 -95q-84 -96 -97 -255h613
q-14 170 -95 259q-82 91 -207 91zM877 1136h-164l-161 204l-159 -204h-164l246 286h155z" />
    <glyph glyph-name="edieresis" unicode="&#xeb;" horiz-adv-x="1101" 
d="M1033 514l-2 -57h-787q15 -161 100 -253q86 -92 212 -92q86 0 154 42.5t110 121.5h183q-54 -144 -170 -222.5t-277 -78.5q-229 0 -358 147q-128 149 -128 393q0 246 127 397q128 152 355 152q223 0 352 -149t129 -401zM555 927q-130 0 -214 -95q-84 -96 -97 -255h613
q-14 170 -95 259q-82 91 -207 91zM826 1166h-158v224h158v-224zM280 1390h157v-224h-157v224z" />
    <glyph glyph-name="igrave" unicode="&#xec;" horiz-adv-x="420" 
d="M323 1156h-138l-290 266h198zM297 0h-174v1038h174v-1038z" />
    <glyph glyph-name="iacute" unicode="&#xed;" horiz-adv-x="420" 
d="M326 1422h198l-290 -266h-138zM297 0h-174v1038h174v-1038z" />
    <glyph glyph-name="icircumflex" unicode="&#xee;" horiz-adv-x="420" 
d="M534 1136h-164l-161 204l-159 -204h-164l246 286h155zM297 0h-174v1038h174v-1038z" />
    <glyph glyph-name="idieresis" unicode="&#xef;" horiz-adv-x="420" 
d="M483 1166h-158v224h158v-224zM-63 1390h157v-224h-157v224zM297 0h-174v1038h174v-1038z" />
    <glyph glyph-name="eth" unicode="&#xf0;" horiz-adv-x="1120" 
d="M285 1203l607 317l69 -71l-607 -317zM554 -25q-224 0 -354 151q-131 152 -131 399q0 153 51 274t153 193t239 72q230 0 343 -173q-42 105 -107 194q-64 90 -125 151q-62 62 -132 112q-75 57 -103 71q-40 24 -61 35l136 64q12 -5 45 -23q30 -17 87 -57q61 -42 115 -92
q57 -50 121 -132q64 -81 110 -171q50 -94 80 -219.5t30 -256.5q0 -272 -130 -432t-367 -160zM557 117q148 0 233 112q86 113 86 307q0 52 -10 104t-34.5 103.5t-60.5 90.5t-91.5 63.5t-124.5 24.5q-136 0 -225 -107q-87 -106 -87 -295q0 -191 88 -297t226 -106z" />
    <glyph glyph-name="ntilde" unicode="&#xf1;" horiz-adv-x="1124" 
d="M547 1229q-51 28 -80 39q-24 10 -55 10q-48 0 -70 -28t-23 -93h-103q1 235 183 235q43 0 80 -13t99 -48q89 -50 135 -50q45 0 67.5 28t23.5 92h105q-2 -95 -39 -160q-44 -73 -147 -73q-41 0 -76 13q-34 13 -100 48zM1017 0h-174v619q0 158 -60.5 228t-184.5 70
q-152 0 -233.5 -107t-81.5 -309v-501h-174v1038h174v-192q90 218 366 218q368 0 368 -409v-655z" />
    <glyph glyph-name="ograve" unicode="&#xf2;" horiz-adv-x="1138" 
d="M203 915q134 149 366 149q231 0 365 -149t134 -396t-134 -396q-133 -148 -365 -148q-233 0 -366 148t-133 396t133 396zM801 812q-90 110 -232 110q-141 0 -233 -110q-90 -110 -90 -293q0 -184 90 -293q91 -109 233 -109t232 109q91 109 91 293t-91 293zM695 1156h-138
l-290 266h198z" />
    <glyph glyph-name="oacute" unicode="&#xf3;" horiz-adv-x="1138" 
d="M203 915q134 149 366 149q231 0 365 -149t134 -396t-134 -396q-133 -148 -365 -148q-233 0 -366 148t-133 396t133 396zM801 812q-90 110 -232 110q-141 0 -233 -110q-90 -110 -90 -293q0 -184 90 -293q91 -109 233 -109t232 109q91 109 91 293t-91 293zM672 1422h198
l-290 -266h-138z" />
    <glyph glyph-name="ocircumflex" unicode="&#xf4;" horiz-adv-x="1138" 
d="M203 915q134 149 366 149q231 0 365 -149t134 -396t-134 -396q-133 -148 -365 -148q-233 0 -366 148t-133 396t133 396zM801 812q-90 110 -232 110q-141 0 -233 -110q-90 -110 -90 -293q0 -184 90 -293q91 -109 233 -109t232 109q91 109 91 293t-91 293zM893 1136h-164
l-161 204l-159 -204h-164l246 286h155z" />
    <glyph glyph-name="otilde" unicode="&#xf5;" horiz-adv-x="1138" 
d="M553 1231q-51 28 -80 39q-24 10 -55 10q-48 0 -70 -28t-23 -93h-103q1 235 183 235q43 0 80 -13t99 -48q89 -50 135 -50q45 0 67.5 28t23.5 92h105q-2 -95 -39 -160q-44 -73 -147 -73q-41 0 -76 13q-34 13 -100 48zM203 915q134 149 366 149q231 0 365 -149t134 -396
t-134 -396q-133 -148 -365 -148q-233 0 -366 148t-133 396t133 396zM801 812q-90 110 -232 110q-141 0 -233 -110q-90 -110 -90 -293q0 -184 90 -293q91 -109 233 -109t232 109q91 109 91 293t-91 293z" />
    <glyph glyph-name="odieresis" unicode="&#xf6;" horiz-adv-x="1138" 
d="M203 915q134 149 366 149q231 0 365 -149t134 -396t-134 -396q-133 -148 -365 -148q-233 0 -366 148t-133 396t133 396zM801 812q-90 110 -232 110q-141 0 -233 -110q-90 -110 -90 -293q0 -184 90 -293q91 -109 233 -109t232 109q91 109 91 293t-91 293zM842 1166h-158
v224h158v-224zM296 1390h157v-224h-157v224z" />
    <glyph glyph-name="divide" unicode="&#xf7;" horiz-adv-x="1128" 
d="M1025 441h-922v156h922v-156zM661 -11h-194v247h194v-247zM661 786h-194v247h194v-247z" />
    <glyph glyph-name="oslash" unicode="&#xf8;" horiz-adv-x="1138" 
d="M136 -53l-56 51l917 1051l56 -51zM203 915q134 149 366 149q231 0 365 -149t134 -396t-134 -396q-133 -148 -365 -148q-233 0 -366 148t-133 396t133 396zM801 812q-90 110 -232 110q-141 0 -233 -110q-90 -110 -90 -293q0 -184 90 -293q91 -109 233 -109t232 109
q91 109 91 293t-91 293z" />
    <glyph glyph-name="ugrave" unicode="&#xf9;" horiz-adv-x="1117" 
d="M107 1038h174v-617q0 -158 59.5 -228.5t182.5 -70.5q152 0 231.5 107t79.5 310v499h174v-1038h-174v193q-90 -218 -361 -218q-182 0 -274 100t-92 309v654zM685 1156h-138l-290 266h198z" />
    <glyph glyph-name="uacute" unicode="&#xfa;" horiz-adv-x="1117" 
d="M107 1038h174v-617q0 -158 59.5 -228.5t182.5 -70.5q152 0 231.5 107t79.5 310v499h174v-1038h-174v193q-90 -218 -361 -218q-182 0 -274 100t-92 309v654zM661 1422h198l-290 -266h-138z" />
    <glyph glyph-name="ucircumflex" unicode="&#xfb;" horiz-adv-x="1117" 
d="M107 1038h174v-617q0 -158 59.5 -228.5t182.5 -70.5q152 0 231.5 107t79.5 310v499h174v-1038h-174v193q-90 -218 -361 -218q-182 0 -274 100t-92 309v654zM882 1136h-164l-161 204l-159 -204h-164l246 286h155z" />
    <glyph glyph-name="udieresis" unicode="&#xfc;" horiz-adv-x="1117" 
d="M107 1038h174v-617q0 -158 59.5 -228.5t182.5 -70.5q152 0 231.5 107t79.5 310v499h174v-1038h-174v193q-90 -218 -361 -218q-182 0 -274 100t-92 309v654zM831 1166h-158v224h158v-224zM285 1390h157v-224h-157v224z" />
    <glyph glyph-name="yacute" unicode="&#xfd;" horiz-adv-x="1025" 
d="M423 -25l-419 1063h190l318 -860l319 860h190l-562 -1420h-187zM620 1422h198l-290 -266h-138z" />
    <glyph glyph-name="thorn" unicode="&#xfe;" horiz-adv-x="1158" 
d="M283 -382h-174v1802h174v-550q113 194 365 194q201 1 322.5 -155t118.5 -390q0 -237 -119 -391q-118 -153 -322 -153q-251 0 -365 193v-550zM283 519q0 -190 88 -296t227 -106q141 0 229 106t88 296t-88 296q-89 107 -229 107q-138 0 -227 -107q-88 -106 -88 -296z" />
    <glyph glyph-name="ydieresis" unicode="&#xff;" horiz-adv-x="1025" 
d="M423 -25l-419 1063h190l318 -860l319 860h190l-562 -1420h-187zM786 1166h-158v224h158v-224zM240 1390h157v-224h-157v224z" />
    <glyph glyph-name="Amacron" unicode="&#x100;" horiz-adv-x="1272" 
d="M1274 0h-192l-132 358h-627l-131 -358h-194l545 1420h185zM893 512l-257 699l-256 -699h513zM916 1604h-559v118h559v-118z" />
    <glyph glyph-name="amacron" unicode="&#x101;" horiz-adv-x="1079" 
d="M965 707v-437q0 -74 8 -146q7 -61 16 -96l8 -28h-172q-19 59 -26 163q-105 -188 -372 -188q-173 0 -265 76t-92 216q0 128 76 202q35 34 82 55q77 37 194 54q28 4 77 9t78 9q60 10 68 11q61 11 107 47q43 33 43 106q0 59 -52 111q-59 62 -198 62q-116 0 -183 -47.5
t-81 -135.5h-170q8 98 65 172q99 139 367 142q230 0 330 -110q92 -98 92 -247zM456 455q-73 -12 -120 -35q-91 -44 -91 -144q0 -82 57.5 -127t167.5 -45q162 0 243.5 97.5t81.5 284.5v78q-32 -33 -91 -55t-106 -31q-62 -11 -142 -23zM831 1222h-559v118h559v-118z" />
    <glyph glyph-name="Abreve" unicode="&#x102;" horiz-adv-x="1272" 
d="M813 1793h104q-2 -50 -18.5 -94.5t-48.5 -82t-87 -59.5t-127 -22t-127 22t-87 59.5t-48.5 82t-18.5 94.5h103q6 -70 54.5 -111t123.5 -41t123.5 41t53.5 111zM1274 0h-192l-132 358h-627l-131 -358h-194l545 1420h185zM893 512l-257 699l-256 -699h513z" />
    <glyph glyph-name="abreve" unicode="&#x103;" horiz-adv-x="1079" 
d="M965 707v-437q0 -74 8 -146q7 -61 16 -96l8 -28h-172q-19 59 -26 163q-105 -188 -372 -188q-173 0 -265 76t-92 216q0 128 76 202q35 34 82 55q77 37 194 54q28 4 77 9t78 9q60 10 68 11q61 11 107 47q43 33 43 106q0 59 -52 111q-59 62 -198 62q-116 0 -183 -47.5
t-81 -135.5h-170q8 98 65 172q99 139 367 142q230 0 330 -110q92 -98 92 -247zM456 455q-73 -12 -120 -35q-91 -44 -91 -144q0 -82 57.5 -127t167.5 -45q162 0 243.5 97.5t81.5 284.5v78q-32 -33 -91 -55t-106 -31q-62 -11 -142 -23zM728 1411h104q-2 -50 -18.5 -94.5
t-48.5 -82t-87 -59.5t-127 -22t-127 22t-87 59.5t-48.5 82t-18.5 94.5h103q6 -70 54.5 -111t123.5 -41t123.5 41t53.5 111z" />
    <glyph glyph-name="Aogonek" unicode="&#x104;" horiz-adv-x="1272" 
d="M1151 0h-69l-132 358h-627l-131 -358h-194l545 1420h185l546 -1420q-85 -32 -156 -77q-137 -87 -137 -192q0 -107 130 -107q36 0 72 11q52 14 71 36v-76q-10 -9 -29 -20q-22 -13 -67.5 -24.5t-94.5 -11.5q-102 0 -157.5 43.5t-55.5 119.5q0 56 30.5 108t82.5 90
q98 69 188 100zM893 512l-257 699l-256 -699h513z" />
    <glyph glyph-name="aogonek" unicode="&#x105;" horiz-adv-x="1079" 
d="M786 -461q-102 0 -157.5 43.5t-55.5 119.5q0 56 30.5 108t82.5 90q98 69 188 100h-49q-19 59 -26 163q-105 -188 -372 -188q-173 0 -265 76t-92 216q0 128 76 202q35 34 82 55q77 37 194 54q28 4 77 9t78 9q60 10 68 11q61 11 107 47q43 33 43 106q0 59 -52 111
q-59 62 -198 62q-116 0 -183 -47.5t-81 -135.5h-170q8 98 65 172q99 139 367 142q230 0 330 -110q92 -98 92 -247v-437q0 -74 8 -146q7 -61 16 -96l8 -28q-85 -32 -156 -77q-137 -87 -137 -192q0 -107 130 -107q36 0 72 11q52 14 71 36v-76q-9 -9 -29 -20
q-22 -13 -67.5 -24.5t-94.5 -11.5zM456 455q-73 -12 -120 -35q-91 -44 -91 -144q0 -82 57.5 -127t167.5 -45q162 0 243.5 97.5t81.5 284.5v78q-32 -33 -91 -55t-106 -31q-62 -11 -142 -23z" />
    <glyph glyph-name="Cacute" unicode="&#x106;" horiz-adv-x="1455" 
d="M740 129q104 0 193 43q93 46 160.5 139t90.5 218h189q-38 -254 -211 -408q-173 -153 -419 -153q-191 0 -341 93t-235 262q-84 169 -84 387q0 216 84 386q86 171 235 263q150 93 341 93q247 0 419 -154q173 -152 211 -407h-189q-36 189 -161 295q-125 105 -283 105
q-192 0 -328 -147q-67 -73 -104.5 -185.5t-37.5 -248.5t37.5 -248.5t104.5 -185.5q136 -147 328 -147zM864 1804h198l-290 -266h-138z" />
    <glyph glyph-name="cacute" unicode="&#x107;" horiz-adv-x="1102" 
d="M560 1064q187 0 309 -109q123 -108 161 -294h-178q-33 121 -111 191t-182 70q-139 0 -227 -111q-88 -109 -88 -292t88 -292q89 -110 227 -110q107 0 184 70q78 71 110 190h177q-34 -187 -162 -295q-128 -107 -308 -107q-230 0 -360 148t-130 396t130 396q131 149 360 149
zM657 1422h198l-290 -266h-138z" />
    <glyph glyph-name="Ccircumflex" unicode="&#x108;" horiz-adv-x="1455" 
d="M740 129q104 0 193 43q93 46 160.5 139t90.5 218h189q-38 -254 -211 -408q-173 -153 -419 -153q-191 0 -341 93t-235 262q-84 169 -84 387q0 216 84 386q86 171 235 263q150 93 341 93q247 0 419 -154q173 -152 211 -407h-189q-36 189 -161 295q-125 105 -283 105
q-192 0 -328 -147q-67 -73 -104.5 -185.5t-37.5 -248.5t37.5 -248.5t104.5 -185.5q136 -147 328 -147zM1055 1518h-164l-161 204l-159 -204h-164l246 286h155z" />
    <glyph glyph-name="ccircumflex" unicode="&#x109;" horiz-adv-x="1102" 
d="M560 1064q187 0 309 -109q123 -108 161 -294h-178q-33 121 -111 191t-182 70q-139 0 -227 -111q-88 -109 -88 -292t88 -292q89 -110 227 -110q107 0 184 70q78 71 110 190h177q-34 -187 -162 -295q-128 -107 -308 -107q-230 0 -360 148t-130 396t130 396q131 149 360 149
zM879 1136h-164l-161 204l-159 -204h-164l246 286h155z" />
    <glyph glyph-name="Cdotaccent" unicode="&#x10a;" horiz-adv-x="1455" 
d="M740 129q104 0 193 43q93 46 160.5 139t90.5 218h189q-38 -254 -211 -408q-173 -153 -419 -153q-191 0 -341 93t-235 262q-84 169 -84 387q0 216 84 386q86 171 235 263q150 93 341 93q247 0 419 -154q173 -152 211 -407h-189q-36 189 -161 295q-125 105 -283 105
q-192 0 -328 -147q-67 -73 -104.5 -185.5t-37.5 -248.5t37.5 -248.5t104.5 -185.5q136 -147 328 -147zM654 1772h160v-224h-160v224z" />
    <glyph glyph-name="cdotaccent" unicode="&#x10b;" horiz-adv-x="1102" 
d="M560 1064q187 0 309 -109q123 -108 161 -294h-178q-33 121 -111 191t-182 70q-139 0 -227 -111q-88 -109 -88 -292t88 -292q89 -110 227 -110q107 0 184 70q78 71 110 190h177q-34 -187 -162 -295q-128 -107 -308 -107q-230 0 -360 148t-130 396t130 396q131 149 360 149
zM475 1390h160v-224h-160v224z" />
    <glyph glyph-name="Ccaron" unicode="&#x10c;" horiz-adv-x="1455" 
d="M740 129q104 0 193 43q93 46 160.5 139t90.5 218h189q-38 -254 -211 -408q-173 -153 -419 -153q-191 0 -341 93t-235 262q-84 169 -84 387q0 216 84 386q86 171 235 263q150 93 341 93q247 0 419 -154q173 -152 211 -407h-189q-36 189 -161 295q-125 105 -283 105
q-192 0 -328 -147q-67 -73 -104.5 -185.5t-37.5 -248.5t37.5 -248.5t104.5 -185.5q136 -147 328 -147zM571 1804l159 -204l161 204h164l-247 -286h-155l-246 286h164z" />
    <glyph glyph-name="ccaron" unicode="&#x10d;" horiz-adv-x="1102" 
d="M560 1064q187 0 309 -109q123 -108 161 -294h-178q-33 121 -111 191t-182 70q-139 0 -227 -111q-88 -109 -88 -292t88 -292q89 -110 227 -110q107 0 184 70q78 71 110 190h177q-34 -187 -162 -295q-128 -107 -308 -107q-230 0 -360 148t-130 396t130 396q131 149 360 149
zM395 1422l159 -204l161 204h164l-247 -286h-155l-246 286h164z" />
    <glyph glyph-name="Dcaron" unicode="&#x10e;" horiz-adv-x="1350" 
d="M594 0h-479v1420h479q309 0 491 -191t182 -519t-182 -519t-491 -191zM594 1258h-293v-1096h293q209 0 344 133q68 67 105 174t37 241t-37 241t-105 173q-134 134 -344 134zM454 1804l159 -204l161 204h164l-247 -286h-155l-246 286h164z" />
    <glyph glyph-name="dcaron" unicode="&#x10f;" horiz-adv-x="1236" 
d="M1328 1034h-110l82 386h150zM1049 0h-174v167q-114 -192 -365 -192q-136 0 -238 72q-101 74 -152 195q-51 122 -51 277q0 237 119 391q118 154 322 154q251 0 365 -194v550h174v-1420zM560 117q139 0 227 106t88 296t-88 296q-89 107 -227 107q-140 0 -229 -107
q-88 -106 -88 -296t88 -296t229 -106z" />
    <glyph glyph-name="Dcroat" unicode="&#x110;" horiz-adv-x="1412" 
d="M716 629h-715v162h715v-162zM656 0h-479v1420h479q309 0 491 -191t182 -519t-182 -519t-491 -191zM656 1258h-293v-1096h293q209 0 344 133q68 67 105 174t37 241t-37 241t-105 173q-134 134 -344 134z" />
    <glyph glyph-name="dslash" unicode="&#x111;" horiz-adv-x="1158" 
d="M1166 1176h-653v115h653v-115zM875 1420h174v-1420h-174v167q-114 -192 -365 -192q-136 0 -238 72q-100 72 -151.5 193.5t-51.5 278.5q0 237 119 391q118 154 322 154q251 0 365 -194v550zM560 922q-140 0 -229 -107q-88 -106 -88 -296t88 -296t229 -106q139 0 227 106
t88 296t-88 296q-89 107 -227 107z" />
    <glyph glyph-name="Emacron" unicode="&#x112;" horiz-adv-x="1200" 
d="M1114 0h-999v1420h992v-164h-806v-467h704v-158h-704v-467h813v-164zM894 1604h-559v118h559v-118z" />
    <glyph glyph-name="emacron" unicode="&#x113;" horiz-adv-x="1101" 
d="M1033 514l-2 -57h-787q15 -161 100 -253q86 -92 212 -92q86 0 154 42.5t110 121.5h183q-54 -144 -170 -222.5t-277 -78.5q-229 0 -358 147q-128 149 -128 393q0 246 127 397q128 152 355 152q223 0 352 -149t129 -401zM555 927q-130 0 -214 -95q-84 -96 -97 -255h613
q-14 170 -95 259q-82 91 -207 91zM833 1222h-559v118h559v-118z" />
    <glyph glyph-name="Ebreve" unicode="&#x114;" horiz-adv-x="1200" 
d="M791 1793h104q-2 -50 -18.5 -94.5t-48.5 -82t-87 -59.5t-127 -22t-127 22t-87 59.5t-48.5 82t-18.5 94.5h103q6 -70 54.5 -111t123.5 -41t123.5 41t53.5 111zM1114 0h-999v1420h992v-164h-806v-467h704v-158h-704v-467h813v-164z" />
    <glyph glyph-name="ebreve" unicode="&#x115;" horiz-adv-x="1101" 
d="M1033 514l-2 -57h-787q15 -161 100 -253q86 -92 212 -92q86 0 154 42.5t110 121.5h183q-54 -144 -170 -222.5t-277 -78.5q-229 0 -358 147q-128 149 -128 393q0 246 127 397q128 152 355 152q223 0 352 -149t129 -401zM555 927q-130 0 -214 -95q-84 -96 -97 -255h613
q-14 170 -95 259q-82 91 -207 91zM730 1411h104q-2 -50 -18.5 -94.5t-48.5 -82t-87 -59.5t-127 -22t-127 22t-87 59.5t-48.5 82t-18.5 94.5h103q6 -70 54.5 -111t123.5 -41t123.5 41t53.5 111z" />
    <glyph glyph-name="Edotaccent" unicode="&#x116;" horiz-adv-x="1200" 
d="M1114 0h-999v1420h992v-164h-806v-467h704v-158h-704v-467h813v-164zM535 1772h160v-224h-160v224z" />
    <glyph glyph-name="edotaccent" unicode="&#x117;" horiz-adv-x="1101" 
d="M1033 514l-2 -57h-787q15 -161 100 -253q86 -92 212 -92q86 0 154 42.5t110 121.5h183q-54 -144 -170 -222.5t-277 -78.5q-229 0 -358 147q-128 149 -128 393q0 246 127 397q128 152 355 152q223 0 352 -149t129 -401zM555 927q-130 0 -214 -95q-84 -96 -97 -255h613
q-14 170 -95 259q-82 91 -207 91zM473 1390h160v-224h-160v224z" />
    <glyph glyph-name="Eogonek" unicode="&#x118;" horiz-adv-x="1200" 
d="M991 0h-876v1420h992v-164h-806v-467h704v-158h-704v-467h813v-164q-85 -32 -156 -77q-137 -87 -137 -192q0 -107 130 -107q36 0 72 11q52 14 71 36v-76q-10 -9 -29 -20q-22 -13 -67.5 -24.5t-94.5 -11.5q-102 0 -157.5 43.5t-55.5 119.5q0 56 30.5 108t82.5 90
q98 69 188 100z" />
    <glyph glyph-name="eogonek" unicode="&#x119;" horiz-adv-x="1101" 
d="M1033 514l-2 -57h-787q15 -161 100 -253q86 -92 212 -92q86 0 154 42.5t110 121.5h183q-61 -166 -206 -244q-262 -145 -262 -298q0 -53 33 -81.5t96 -28.5q37 0 73.5 11.5t54.5 24.5l16 11v-76l-21 -15q-12 -9 -64 -25q-48 -16 -106 -16q-101 0 -157 44t-56 120
q0 78 54 148q52 68 135 125q-8 -1 -37 -1q-229 0 -358 147q-128 149 -128 393q0 246 127 397q128 152 355 152q223 0 352 -149t129 -401zM555 927q-130 0 -214 -95q-84 -96 -97 -255h613q-14 170 -95 259q-82 91 -207 91z" />
    <glyph glyph-name="Ecaron" unicode="&#x11a;" horiz-adv-x="1200" 
d="M1114 0h-999v1420h992v-164h-806v-467h704v-158h-704v-467h813v-164zM455 1804l159 -204l161 204h164l-247 -286h-155l-246 286h164z" />
    <glyph glyph-name="ecaron" unicode="&#x11b;" horiz-adv-x="1101" 
d="M1033 514l-2 -57h-787q15 -161 100 -253q86 -92 212 -92q86 0 154 42.5t110 121.5h183q-54 -144 -170 -222.5t-277 -78.5q-229 0 -358 147q-128 149 -128 393q0 246 127 397q128 152 355 152q223 0 352 -149t129 -401zM555 927q-130 0 -214 -95q-84 -96 -97 -255h613
q-14 170 -95 259q-82 91 -207 91zM393 1422l159 -204l161 204h164l-247 -286h-155l-246 286h164z" />
    <glyph glyph-name="Gcircumflex" unicode="&#x11c;" horiz-adv-x="1497" 
d="M1231 569h-428v152h589v-721h-152l-3 227q-70 -122 -197 -190.5t-293 -68.5q-143 0 -265.5 51.5t-211.5 146.5t-138 234t-49 304q0 164 49 304.5t137 238.5q89 98 213 151.5t267 53.5q226 2 400.5 -122.5t221.5 -330.5h-188q-45 139 -165 215q-121 77 -269 77
q-96 0 -183 -39t-153 -111q-67 -73 -105 -185.5t-38 -247.5q0 -264 137 -422t357 -158q187 0 314 118t153 323zM1073 1518h-164l-161 204l-159 -204h-164l246 286h155z" />
    <glyph glyph-name="gcircumflex" unicode="&#x11d;" horiz-adv-x="1157" 
d="M565 -275q187 0 250 107q33 55 46 125.5t13 181.5v27q-116 -189 -363 -189q-136 0 -237 71q-100 71 -152 192.5t-52 278.5q0 236 119 391q118 154 322 154q247 0 363 -192v166h174v-884q0 -78 -4 -127q-9 -133 -52 -221q-49 -106 -145 -155q-108 -58 -285 -58
q-210 0 -314 78q-91 68 -133 188h175q71 -134 275 -134zM874 519q0 190 -88 296q-87 107 -226 107t-228 -107q-88 -106 -88 -296q0 -189 87 -295q89 -105 229 -105q139 0 226 106q88 106 88 294zM907 1136h-164l-161 204l-159 -204h-164l246 286h155z" />
    <glyph glyph-name="Gbreve" unicode="&#x11e;" horiz-adv-x="1497" 
d="M1231 569h-428v152h589v-721h-152l-3 227q-70 -122 -197 -190.5t-293 -68.5q-143 0 -265.5 51.5t-211.5 146.5t-138 234t-49 304q0 164 49 304.5t137 238.5q89 98 213 151.5t267 53.5q226 2 400.5 -122.5t221.5 -330.5h-188q-45 139 -165 215q-121 77 -269 77
q-96 0 -183 -39t-153 -111q-67 -73 -105 -185.5t-38 -247.5q0 -264 137 -422t357 -158q187 0 314 118t153 323zM926 1793h104q-2 -50 -18.5 -94.5t-48.5 -82t-87 -59.5t-127 -22t-127 22t-87 59.5t-48.5 82t-18.5 94.5h103q6 -70 54.5 -111t123.5 -41t123.5 41t53.5 111z
" />
    <glyph glyph-name="gbreve" unicode="&#x11f;" horiz-adv-x="1157" 
d="M565 -275q187 0 250 107q33 55 46 125.5t13 181.5v27q-116 -189 -363 -189q-136 0 -237 71q-100 71 -152 192.5t-52 278.5q0 236 119 391q118 154 322 154q247 0 363 -192v166h174v-884q0 -78 -4 -127q-9 -133 -52 -221q-49 -106 -145 -155q-108 -58 -285 -58
q-210 0 -314 78q-91 68 -133 188h175q71 -134 275 -134zM874 519q0 190 -88 296q-87 107 -226 107t-228 -107q-88 -106 -88 -296q0 -189 87 -295q89 -105 229 -105q139 0 226 106q88 106 88 294zM760 1411h104q-2 -50 -18.5 -94.5t-48.5 -82t-87 -59.5t-127 -22t-127 22
t-87 59.5t-48.5 82t-18.5 94.5h103q6 -70 54.5 -111t123.5 -41t123.5 41t53.5 111z" />
    <glyph glyph-name="Gdotaccent" unicode="&#x120;" horiz-adv-x="1497" 
d="M1231 569h-428v152h589v-721h-152l-3 227q-70 -122 -197 -190.5t-293 -68.5q-143 0 -265.5 51.5t-211.5 146.5t-138 234t-49 304q0 164 49 304.5t137 238.5q89 98 213 151.5t267 53.5q226 2 400.5 -122.5t221.5 -330.5h-188q-45 139 -165 215q-121 77 -269 77
q-96 0 -183 -39t-153 -111q-67 -73 -105 -185.5t-38 -247.5q0 -264 137 -422t357 -158q187 0 314 118t153 323zM669 1772h160v-224h-160v224z" />
    <glyph glyph-name="gdotaccent" unicode="&#x121;" horiz-adv-x="1157" 
d="M565 -275q187 0 250 107q33 55 46 125.5t13 181.5v27q-116 -189 -363 -189q-136 0 -237 71q-100 71 -152 192.5t-52 278.5q0 236 119 391q118 154 322 154q247 0 363 -192v166h174v-884q0 -78 -4 -127q-9 -133 -52 -221q-49 -106 -145 -155q-108 -58 -285 -58
q-210 0 -314 78q-91 68 -133 188h175q71 -134 275 -134zM874 519q0 190 -88 296q-87 107 -226 107t-228 -107q-88 -106 -88 -296q0 -189 87 -295q89 -105 229 -105q139 0 226 106q88 106 88 294zM503 1390h160v-224h-160v224z" />
    <glyph glyph-name="Gcommaaccent" unicode="&#x122;" horiz-adv-x="1497" 
d="M1231 569h-428v152h589v-721h-152l-3 227q-70 -122 -197 -190.5t-293 -68.5q-143 0 -265.5 51.5t-211.5 146.5t-138 234t-49 304q0 164 49 304.5t137 238.5q89 98 213 151.5t267 53.5q226 2 400.5 -122.5t221.5 -330.5h-188q-45 139 -165 215q-121 77 -269 77
q-96 0 -183 -39t-153 -111q-67 -73 -105 -185.5t-38 -247.5q0 -264 137 -422t357 -158q187 0 314 118t153 323zM775 -512h-102l59 183h-62v201h160v-174q0 -54 -20 -111z" />
    <glyph glyph-name="gcommaaccent" unicode="&#x123;" horiz-adv-x="1157" 
d="M557 1550h102l-59 -183h62v-201h-160v174q0 54 20 111zM565 -275q187 0 250 107q33 55 46 125.5t13 181.5v27q-116 -189 -363 -189q-136 0 -237 71q-100 71 -152 192.5t-52 278.5q0 236 119 391q118 154 322 154q247 0 363 -192v166h174v-884q0 -78 -4 -127
q-9 -133 -52 -221q-49 -106 -145 -155q-108 -58 -285 -58q-210 0 -314 78q-91 68 -133 188h175q71 -134 275 -134zM874 519q0 190 -88 296q-87 107 -226 107t-228 -107q-88 -106 -88 -296q0 -189 87 -295q89 -105 229 -105q139 0 226 106q88 106 88 294z" />
    <glyph glyph-name="Hcircumflex" unicode="&#x124;" horiz-adv-x="1357" 
d="M301 0h-186v1420h186v-628h755v628h186v-1420h-186v628h-755v-628zM1003 1518h-164l-161 204l-159 -204h-164l246 286h155z" />
    <glyph glyph-name="hcircumflex" unicode="&#x125;" horiz-adv-x="1128" 
d="M1021 0h-174v619q0 156 -62 227t-186 71q-152 0 -234 -107.5t-82 -308.5v-501h-174v1420h174v-574q90 218 368 218q370 0 370 -409v-655zM520 1518h-164l-161 204l-159 -204h-164l246 286h155z" />
    <glyph glyph-name="Hbar" unicode="&#x126;" horiz-adv-x="1383" 
d="M1432 1101h-1481v112h1481v-112zM314 0h-186v1420h186v-628h755v628h186v-1420h-186v628h-755v-628z" />
    <glyph glyph-name="hbar" unicode="&#x127;" horiz-adv-x="1128" 
d="M645 1176h-653v115h653v-115zM1021 0h-174v619q0 156 -62 227t-186 71q-152 0 -234 -107.5t-82 -308.5v-501h-174v1420h174v-574q90 218 368 218q370 0 370 -409v-655z" />
    <glyph glyph-name="Itilde" unicode="&#x128;" horiz-adv-x="458" 
d="M213 1613q-51 28 -80 39q-24 10 -55 10q-48 0 -70 -28t-23 -93h-103q1 235 183 235q43 0 80 -13t99 -48q89 -50 135 -50q45 0 67.5 28t23.5 92h105q-2 -95 -39 -160q-44 -73 -147 -73q-41 0 -76 13q-34 13 -100 48zM322 0h-186v1420h186v-1420z" />
    <glyph glyph-name="itilde" unicode="&#x129;" horiz-adv-x="420" 
d="M194 1231q-51 28 -80 39q-24 10 -55 10q-48 0 -70 -28t-23 -93h-103q1 235 183 235q43 0 80 -13t99 -48q89 -50 135 -50q45 0 67.5 28t23.5 92h105q-2 -95 -39 -160q-44 -73 -147 -73q-41 0 -76 13q-34 13 -100 48zM297 0h-174v1038h174v-1038z" />
    <glyph glyph-name="Imacron" unicode="&#x12a;" horiz-adv-x="458" 
d="M509 1604h-559v118h559v-118zM322 0h-186v1420h186v-1420z" />
    <glyph glyph-name="imacron" unicode="&#x12b;" horiz-adv-x="420" 
d="M490 1222h-559v118h559v-118zM297 0h-174v1038h174v-1038z" />
    <glyph glyph-name="Ibreve" unicode="&#x12c;" horiz-adv-x="458" 
d="M406 1793h104q-2 -50 -18.5 -94.5t-48.5 -82t-87 -59.5t-127 -22t-127 22t-87 59.5t-48.5 82t-18.5 94.5h103q6 -70 54.5 -111t123.5 -41t123.5 41t53.5 111zM322 0h-186v1420h186v-1420z" />
    <glyph glyph-name="ibreve" unicode="&#x12d;" horiz-adv-x="420" 
d="M387 1411h104q-2 -50 -18.5 -94.5t-48.5 -82t-87 -59.5t-127 -22t-127 22t-87 59.5t-48.5 82t-18.5 94.5h103q6 -70 54.5 -111t123.5 -41t123.5 41t53.5 111zM297 0h-174v1038h174v-1038z" />
    <glyph glyph-name="Iogonek" unicode="&#x12e;" horiz-adv-x="458" 
d="M206 0h-70v1420h186v-1420q-223 -117 -223 -269q0 -107 130 -107q36 0 72 11q52 14 71 36v-76q-10 -9 -29 -20q-22 -13 -67.5 -24.5t-94.5 -11.5q-102 0 -157.5 43.5t-55.5 119.5q0 102 83 185q74 71 155 113z" />
    <glyph glyph-name="iogonek" unicode="&#x12f;" horiz-adv-x="420" 
d="M181 0h-58v1038h174v-1038q-223 -117 -223 -269q0 -107 130 -107q36 0 72 11q52 14 71 36v-76q-9 -9 -29 -20q-22 -13 -67.5 -24.5t-94.5 -11.5q-102 0 -157.5 43.5t-55.5 119.5q0 102 83 185q74 71 155 113zM119 1420h182v-212h-182v212z" />
    <glyph glyph-name="Idot" unicode="&#x130;" horiz-adv-x="458" 
d="M149 1772h160v-224h-160v224zM322 0h-186v1420h186v-1420z" />
    <glyph glyph-name="dotlessi" unicode="&#x131;" horiz-adv-x="420" 
d="M297 0h-174v1038h174v-1038z" />
    <glyph glyph-name="IJ" unicode="&#x132;" horiz-adv-x="1645" 
d="M1020 -32q-265 0 -399 161q-117 139 -117 400v50h187v-45q0 -106 18.5 -176.5t60.5 -121.5q89 -107 249 -107q161 0 250 107q42 51 60 121.5t18 176.5v886h187v-898q0 -252 -117 -393q-132 -161 -397 -161zM322 0h-186v1420h186v-1420z" />
    <glyph glyph-name="ij" unicode="&#x133;" horiz-adv-x="840" 
d="M717 1038v-1099q0 -321 -288 -321h-64v141h25q77 0 115 45t38 145v1089h174zM539 1420h182v-212h-182v212zM297 0h-174v1038h174v-1038zM119 1420h182v-212h-182v212z" />
    <glyph glyph-name="Jcircumflex" unicode="&#x134;" horiz-adv-x="1187" 
d="M562 -32q-265 0 -399 161q-117 139 -117 400v50h187v-45q0 -106 18.5 -176.5t60.5 -121.5q89 -107 249 -107q161 0 250 107q42 51 60 121.5t18 176.5v886h187v-898q0 -252 -117 -393q-132 -161 -397 -161zM1307 1518h-164l-161 204l-159 -204h-164l246 286h155z" />
    <glyph glyph-name="jcircumflex" unicode="&#x135;" horiz-adv-x="420" 
d="M297 1038v-1099q0 -321 -288 -321h-64v141h25q77 0 115 45t38 145v1089h174zM534 1136h-164l-161 204l-159 -204h-164l246 286h155z" />
    <glyph glyph-name="Kcommaaccent" unicode="&#x136;" horiz-adv-x="1257" 
d="M1274 0h-213l-417 724l-343 -404v-320h-186v1420h186v-855l701 855h234l-467 -549zM662 -512h-102l59 183h-62v201h160v-174q0 -54 -20 -111z" />
    <glyph glyph-name="kcommaaccent" unicode="&#x137;" horiz-adv-x="1036" 
d="M1046 0h-197l-330 506l-236 -248v-258h-174v1420h174v-958l522 576h221l-387 -406zM566 -512h-102l59 183h-62v201h160v-174q0 -54 -20 -111z" />
    <glyph glyph-name="kgreenlandic" unicode="&#x138;" horiz-adv-x="1036" 
d="M1046 0h-197l-330 506l-236 -248v-258h-174v1038h174v-576l522 576h221l-387 -406z" />
    <glyph glyph-name="Lacute" unicode="&#x139;" horiz-adv-x="1118" 
d="M1042 0h-927v1420h186v-1255h741v-165zM319 1804h198l-290 -266h-138z" />
    <glyph glyph-name="lacute" unicode="&#x13a;" horiz-adv-x="421" 
d="M327 1804h198l-290 -266h-138zM298 0h-175v1420h175v-1420z" />
    <glyph glyph-name="Lcommaaccent" unicode="&#x13b;" horiz-adv-x="1118" 
d="M604 -512h-102l59 183h-62v201h160v-174q0 -54 -20 -111zM1042 0h-927v1420h186v-1255h741v-165z" />
    <glyph glyph-name="lcommaaccent" unicode="&#x13c;" horiz-adv-x="421" 
d="M236 -512h-102l59 183h-62v201h160v-174q0 -54 -20 -111zM298 0h-175v1420h175v-1420z" />
    <glyph glyph-name="Lcaron" unicode="&#x13d;" horiz-adv-x="1118" 
d="M1042 0h-927v1420h186v-1255h741v-165zM714 1034h-110l82 386h150z" />
    <glyph glyph-name="lcaron" unicode="&#x13e;" horiz-adv-x="499" 
d="M591 1034h-110l82 386h150zM298 0h-175v1420h175v-1420z" />
    <glyph glyph-name="Ldot" unicode="&#x13f;" horiz-adv-x="1118" 
d="M1042 0h-927v1420h186v-1255h741v-165zM931 582h-195v255h195v-255z" />
    <glyph glyph-name="ldot" unicode="&#x140;" horiz-adv-x="822" 
d="M719 570h-195v255h195v-255zM298 0h-175v1420h175v-1420z" />
    <glyph glyph-name="Lslash" unicode="&#x141;" horiz-adv-x="1181" 
d="M21 527v136l773 344v-136zM1104 0h-927v1420h186v-1255h741v-165z" />
    <glyph glyph-name="lslash" unicode="&#x142;" horiz-adv-x="503" 
d="M514 1011v-147l-508 -389v147zM339 0h-175v1420h175v-1420z" />
    <glyph glyph-name="Nacute" unicode="&#x143;" horiz-adv-x="1339" 
d="M1224 0h-171l-752 1102v-1102h-186v1420h170l752 -1102v1102h187v-1420zM771 1804h198l-290 -266h-138z" />
    <glyph glyph-name="nacute" unicode="&#x144;" horiz-adv-x="1124" 
d="M1017 0h-174v619q0 158 -60.5 228t-184.5 70q-152 0 -233.5 -107t-81.5 -309v-501h-174v1038h174v-192q90 218 366 218q368 0 368 -409v-655zM666 1422h198l-290 -266h-138z" />
    <glyph glyph-name="Ncommaaccent" unicode="&#x145;" horiz-adv-x="1339" 
d="M1224 0h-171l-752 1102v-1102h-186v1420h170l752 -1102v1102h187v-1420zM696 -512h-102l59 183h-62v201h160v-174q0 -54 -20 -111z" />
    <glyph glyph-name="ncommaaccent" unicode="&#x146;" horiz-adv-x="1124" 
d="M1017 0h-174v619q0 158 -60.5 228t-184.5 70q-152 0 -233.5 -107t-81.5 -309v-501h-174v1038h174v-192q90 218 366 218q368 0 368 -409v-655zM589 -512h-102l59 183h-62v201h160v-174q0 -54 -20 -111z" />
    <glyph glyph-name="Ncaron" unicode="&#x147;" horiz-adv-x="1339" 
d="M1224 0h-171l-752 1102v-1102h-186v1420h170l752 -1102v1102h187v-1420zM509 1804l159 -204l161 204h164l-247 -286h-155l-246 286h164z" />
    <glyph glyph-name="ncaron" unicode="&#x148;" horiz-adv-x="1124" 
d="M1017 0h-174v619q0 158 -60.5 228t-184.5 70q-152 0 -233.5 -107t-81.5 -309v-501h-174v1038h174v-192q90 218 366 218q368 0 368 -409v-655zM403 1422l159 -204l161 204h164l-247 -286h-155l-246 286h164z" />
    <glyph glyph-name="Eng" unicode="&#x14a;" horiz-adv-x="1339" 
d="M285 1420l752 -1102v1102h187v-1481q0 -321 -304 -321q-58 0 -130 8l-20 3v151q46 -11 98 -11q87 0 128 41t41 139v74l-736 1079v-1102h-186v1420h170z" />
    <glyph glyph-name="eng" unicode="&#x14b;" horiz-adv-x="1124" 
d="M692 -246q75 0 113 44t38 141v680q0 158 -60.5 228t-184.5 70q-152 0 -233.5 -107t-81.5 -309v-501h-174v1038h174v-192q90 218 366 218q368 0 368 -409v-716q0 -321 -285 -321q-47 0 -103 8l-16 3v137q35 -12 79 -12z" />
    <glyph glyph-name="Omacron" unicode="&#x14c;" horiz-adv-x="1512" 
d="M756 -32q-299 0 -486 205t-187 537q0 331 187 536q188 206 486 206q195 3 349.5 -91.5t240 -265t83.5 -385.5q2 -215 -83.5 -385.5t-240 -265t-349.5 -91.5zM571 167q88 -38 185 -38t184 38q188 82 262 293q40 111 40 250t-40 250q-74 211 -262 293q-87 38 -184 38
t-185 -38q-187 -82 -262 -293q-39 -112 -39 -250t39 -250q75 -211 262 -293zM1036 1604h-559v118h559v-118z" />
    <glyph glyph-name="omacron" unicode="&#x14d;" horiz-adv-x="1138" 
d="M203 915q134 149 366 149q231 0 365 -149t134 -396t-134 -396q-133 -148 -365 -148q-233 0 -366 148t-133 396t133 396zM801 812q-90 110 -232 110q-141 0 -233 -110q-90 -110 -90 -293q0 -184 90 -293q91 -109 233 -109t232 109q91 109 91 293t-91 293zM849 1222h-559
v118h559v-118z" />
    <glyph glyph-name="Obreve" unicode="&#x14e;" horiz-adv-x="1512" 
d="M756 -32q-299 0 -486 205t-187 537q0 331 187 536q188 206 486 206q195 3 349.5 -91.5t240 -265t83.5 -385.5q2 -215 -83.5 -385.5t-240 -265t-349.5 -91.5zM571 167q88 -38 185 -38t184 38q188 82 262 293q40 111 40 250t-40 250q-74 211 -262 293q-87 38 -184 38
t-185 -38q-187 -82 -262 -293q-39 -112 -39 -250t39 -250q75 -211 262 -293zM933 1793h104q-2 -50 -18.5 -94.5t-48.5 -82t-87 -59.5t-127 -22t-127 22t-87 59.5t-48.5 82t-18.5 94.5h103q6 -70 54.5 -111t123.5 -41t123.5 41t53.5 111z" />
    <glyph glyph-name="obreve" unicode="&#x14f;" horiz-adv-x="1138" 
d="M203 915q134 149 366 149q231 0 365 -149t134 -396t-134 -396q-133 -148 -365 -148q-233 0 -366 148t-133 396t133 396zM801 812q-90 110 -232 110q-141 0 -233 -110q-90 -110 -90 -293q0 -184 90 -293q91 -109 233 -109t232 109q91 109 91 293t-91 293zM746 1411h104
q-2 -50 -18.5 -94.5t-48.5 -82t-87 -59.5t-127 -22t-127 22t-87 59.5t-48.5 82t-18.5 94.5h103q6 -70 54.5 -111t123.5 -41t123.5 41t53.5 111z" />
    <glyph glyph-name="Ohungarumlaut" unicode="&#x150;" horiz-adv-x="1512" 
d="M756 -32q-299 0 -486 205t-187 537q0 331 187 536q188 206 486 206q195 3 349.5 -91.5t240 -265t83.5 -385.5q2 -215 -83.5 -385.5t-240 -265t-349.5 -91.5zM571 167q88 -38 185 -38t184 38q188 82 262 293q40 111 40 250t-40 250q-74 211 -262 293q-87 38 -184 38
t-185 -38q-187 -82 -262 -293q-39 -112 -39 -250t39 -250q75 -211 262 -293zM711 1804h187l-281 -266h-135zM1098 1804h186l-280 -266h-135z" />
    <glyph glyph-name="ohungarumlaut" unicode="&#x151;" horiz-adv-x="1138" 
d="M203 915q134 149 366 149q231 0 365 -149t134 -396t-134 -396q-133 -148 -365 -148q-233 0 -366 148t-133 396t133 396zM801 812q-90 110 -232 110q-141 0 -233 -110q-90 -110 -90 -293q0 -184 90 -293q91 -109 233 -109t232 109q91 109 91 293t-91 293zM508 1422h187
l-281 -266h-135zM895 1422h186l-280 -266h-135z" />
    <glyph glyph-name="Racute" unicode="&#x154;" horiz-adv-x="1290" 
d="M115 1420h621q216 0 341 -117q124 -115 124 -328q0 -150 -63.5 -253.5t-182.5 -151.5l309 -570h-204l-278 532q-10 -1 -46 -1h-435v-531h-186v1420zM720 1256h-419v-565h419q140 0 217.5 70t77.5 212t-77.5 212.5t-217.5 70.5zM711 1804h198l-290 -266h-138z" />
    <glyph glyph-name="racute" unicode="&#x155;" horiz-adv-x="771" 
d="M611 1050q65 0 99 -9l12 -3v-151q-42 13 -108 13q-331 0 -331 -460v-440h-174v1038h174v-194q31 75 103 136q81 70 225 70zM529 1422h198l-290 -266h-138z" />
    <glyph glyph-name="Rcommaaccent" unicode="&#x156;" horiz-adv-x="1290" 
d="M115 1420h621q216 0 341 -117q124 -115 124 -328q0 -150 -63.5 -253.5t-182.5 -151.5l309 -570h-204l-278 532q-10 -1 -46 -1h-435v-531h-186v1420zM720 1256h-419v-565h419q140 0 217.5 70t77.5 212t-77.5 212.5t-217.5 70.5zM662 -512h-102l59 183h-62v201h160v-174
q0 -54 -20 -111z" />
    <glyph glyph-name="rcommaaccent" unicode="&#x157;" horiz-adv-x="771" 
d="M611 1050q65 0 99 -9l12 -3v-151q-42 13 -108 13q-331 0 -331 -460v-440h-174v1038h174v-194q31 75 103 136q81 70 225 70zM222 -512h-102l59 183h-62v201h160v-174q0 -54 -20 -111z" />
    <glyph glyph-name="Rcaron" unicode="&#x158;" horiz-adv-x="1290" 
d="M115 1420h621q216 0 341 -117q124 -115 124 -328q0 -150 -63.5 -253.5t-182.5 -151.5l309 -570h-204l-278 532q-10 -1 -46 -1h-435v-531h-186v1420zM720 1256h-419v-565h419q140 0 217.5 70t77.5 212t-77.5 212.5t-217.5 70.5zM443 1804l159 -204l161 204h164l-247 -286
h-155l-246 286h164z" />
    <glyph glyph-name="rcaron" unicode="&#x159;" horiz-adv-x="771" 
d="M611 1050q65 0 99 -9l12 -3v-151q-42 13 -108 13q-331 0 -331 -460v-440h-174v1038h174v-194q31 75 103 136q81 70 225 70zM256 1422l159 -204l161 204h164l-247 -286h-155l-246 286h164z" />
    <glyph glyph-name="Sacute" unicode="&#x15a;" horiz-adv-x="1245" 
d="M628 -32q-252 0 -403 117q-150 117 -150 317h195q0 -137 99 -209t259 -72q73 0 135.5 15.5t113 46.5t79.5 84t29 122q0 68 -25 103q-12 18 -19 26.5t-20.5 20t-32.5 20.5q-25 13 -52 24q-19 9 -68 22q-40 12 -76 21q-6 2 -22.5 6t-34 8t-35.5 8l-84 20q-3 1 -81 22
q-41 12 -79 26q-54 24 -70 32q-58 28 -115 85q-75 81 -75 213q0 180 144 293q146 113 372 113q237 0 386 -118q150 -119 150 -308h-186q0 121 -96 196q-95 75 -251 75q-146 0 -241 -65q-94 -64 -94 -183q3 -53 19 -86t55 -59q18 -12 55 -31q25 -13 76 -28q14 -4 44 -12.5
t45 -12.5l28 -7t40 -9.5t41 -9.5q201 -47 281 -85q162 -76 197 -224q9 -42 9 -91q0 -182 -138 -301q-68 -59 -172.5 -92t-231.5 -33zM730 1804h198l-290 -266h-138z" />
    <glyph glyph-name="sacute" unicode="&#x15b;" horiz-adv-x="1032" 
d="M514 -25q-217 0 -328.5 84.5t-111.5 235.5h177q0 -92 67.5 -140t198.5 -48q132 0 199.5 47t67.5 130q6 81 -74 126q-18 11 -55 21q-37 11 -63 15l-76 14q-156 27 -221 46q-159 51 -193 166q-11 38 -11 80q0 141 107 227q106 85 311 85q199 0 315 -84q116 -83 116 -227
h-170q0 82 -67.5 130.5t-191.5 48.5q-119 0 -183 -45.5t-64 -122.5q-8 -74 68 -116q14 -9 53 -20l58 -13l73 -13q171 -29 225 -46q165 -51 204 -169q13 -39 13 -90q0 -146 -109 -234q-107 -88 -335 -88zM623 1422h198l-290 -266h-138z" />
    <glyph glyph-name="Scircumflex" unicode="&#x15c;" horiz-adv-x="1245" 
d="M628 -32q-252 0 -403 117q-150 117 -150 317h195q0 -137 99 -209t259 -72q73 0 135.5 15.5t113 46.5t79.5 84t29 122q0 68 -25 103q-12 18 -19 26.5t-20.5 20t-32.5 20.5q-25 13 -52 24q-19 9 -68 22q-40 12 -76 21q-6 2 -22.5 6t-34 8t-35.5 8l-84 20q-3 1 -81 22
q-41 12 -79 26q-54 24 -70 32q-58 28 -115 85q-75 81 -75 213q0 180 144 293q146 113 372 113q237 0 386 -118q150 -119 150 -308h-186q0 121 -96 196q-95 75 -251 75q-146 0 -241 -65q-94 -64 -94 -183q3 -53 19 -86t55 -59q18 -12 55 -31q25 -13 76 -28q14 -4 44 -12.5
t45 -12.5l28 -7t40 -9.5t41 -9.5q201 -47 281 -85q162 -76 197 -224q9 -42 9 -91q0 -182 -138 -301q-68 -59 -172.5 -92t-231.5 -33zM947 1518h-164l-161 204l-159 -204h-164l246 286h155z" />
    <glyph glyph-name="scircumflex" unicode="&#x15d;" horiz-adv-x="1032" 
d="M514 -25q-217 0 -328.5 84.5t-111.5 235.5h177q0 -92 67.5 -140t198.5 -48q132 0 199.5 47t67.5 130q6 81 -74 126q-18 11 -55 21q-37 11 -63 15l-76 14q-156 27 -221 46q-159 51 -193 166q-11 38 -11 80q0 141 107 227q106 85 311 85q199 0 315 -84q116 -83 116 -227
h-170q0 82 -67.5 130.5t-191.5 48.5q-119 0 -183 -45.5t-64 -122.5q-8 -74 68 -116q14 -9 53 -20l58 -13l73 -13q171 -29 225 -46q165 -51 204 -169q13 -39 13 -90q0 -146 -109 -234q-107 -88 -335 -88zM840 1136h-164l-161 204l-159 -204h-164l246 286h155z" />
    <glyph glyph-name="Scedilla" unicode="&#x15e;" horiz-adv-x="1245" 
d="M653 -117q91 0 155 -42q65 -44 65 -127q0 -88 -73 -131q-74 -44 -192 -44q-72 0 -136 18q-60 16 -87 31q-23 14 -36 24l27 70q4 -4 31 -20q21 -12 74 -28q51 -15 102 -15q69 0 106.5 25.5t37.5 73.5q0 46 -34 73t-94 27q-58 0 -87 -20l-10 -6l-50 27l113 151
q-227 15 -358 130q-132 115 -132 302h195q0 -137 99 -209t259 -72q73 0 135.5 15.5t113 46.5t79.5 84t29 122q0 68 -25 103q-12 18 -19 26.5t-20.5 20t-32.5 20.5q-25 13 -52 24q-19 9 -68 22q-40 12 -76 21q-6 2 -22.5 6t-34 8t-35.5 8l-84 20q-3 1 -81 22q-41 12 -79 26
q-54 24 -70 32q-58 28 -115 85q-75 81 -75 213q0 180 144 293q146 113 372 113q237 0 386 -118q150 -119 150 -308h-186q0 121 -96 196q-95 75 -251 75q-146 0 -241 -65q-94 -64 -94 -183q3 -53 19 -86t55 -59q18 -12 55 -31q25 -13 76 -28q14 -4 44 -12.5t45 -12.5l28 -7
t40 -9.5t41 -9.5q201 -47 281 -85q162 -76 197 -224q9 -42 9 -91q0 -180 -137 -300q-137 -119 -380 -126l-69 -91q32 6 69 6z" />
    <glyph glyph-name="scedilla" unicode="&#x15f;" horiz-adv-x="1032" 
d="M547 -117q91 0 155 -42q65 -44 65 -127q0 -88 -73 -131q-74 -44 -192 -44q-72 0 -136 18q-60 16 -87 31q-23 14 -36 24l27 70q4 -4 31 -20q21 -12 74 -28q51 -15 102 -15q69 0 106.5 25.5t37.5 73.5q0 46 -34 73t-94 27q-58 0 -87 -20l-10 -6l-50 27l118 157
q-194 10 -292 93t-98 226h177q0 -92 67.5 -140t198.5 -48q132 0 199.5 47t67.5 130q6 81 -74 126q-18 11 -55 21q-37 11 -63 15l-76 14q-156 27 -221 46q-159 51 -193 166q-11 38 -11 80q0 141 107 227q106 85 311 85q199 0 315 -84q116 -83 116 -227h-170q0 82 -67.5 130.5
t-191.5 48.5q-119 0 -183 -45.5t-64 -122.5q-8 -74 68 -116q14 -9 53 -20l58 -13l73 -13q171 -29 225 -46q165 -51 204 -169q13 -39 13 -90q0 -139 -99 -226q-100 -88 -306 -95l-75 -99q32 6 69 6z" />
    <glyph glyph-name="Scaron" unicode="&#x160;" horiz-adv-x="1245" 
d="M628 -32q-252 0 -403 117q-150 117 -150 317h195q0 -137 99 -209t259 -72q73 0 135.5 15.5t113 46.5t79.5 84t29 122q0 68 -25 103q-12 18 -19 26.5t-20.5 20t-32.5 20.5q-25 13 -52 24q-19 9 -68 22q-40 12 -76 21q-6 2 -22.5 6t-34 8t-35.5 8l-84 20q-3 1 -81 22
q-41 12 -79 26q-54 24 -70 32q-58 28 -115 85q-75 81 -75 213q0 180 144 293q146 113 372 113q237 0 386 -118q150 -119 150 -308h-186q0 121 -96 196q-95 75 -251 75q-146 0 -241 -65q-94 -64 -94 -183q3 -53 19 -86t55 -59q18 -12 55 -31q25 -13 76 -28q14 -4 44 -12.5
t45 -12.5l28 -7t40 -9.5t41 -9.5q201 -47 281 -85q162 -76 197 -224q9 -42 9 -91q0 -182 -138 -301q-68 -59 -172.5 -92t-231.5 -33zM463 1804l159 -204l161 204h164l-247 -286h-155l-246 286h164z" />
    <glyph glyph-name="scaron" unicode="&#x161;" horiz-adv-x="1032" 
d="M514 -25q-217 0 -328.5 84.5t-111.5 235.5h177q0 -92 67.5 -140t198.5 -48q132 0 199.5 47t67.5 130q6 81 -74 126q-18 11 -55 21q-37 11 -63 15l-76 14q-156 27 -221 46q-159 51 -193 166q-11 38 -11 80q0 141 107 227q106 85 311 85q199 0 315 -84q116 -83 116 -227
h-170q0 82 -67.5 130.5t-191.5 48.5q-119 0 -183 -45.5t-64 -122.5q-8 -74 68 -116q14 -9 53 -20l58 -13l73 -13q171 -29 225 -46q165 -51 204 -169q13 -39 13 -90q0 -146 -109 -234q-107 -88 -335 -88zM356 1422l159 -204l161 204h164l-247 -286h-155l-246 286h164z" />
    <glyph glyph-name="Tcommaaccent" unicode="&#x162;" horiz-adv-x="1290" 
d="M671 -512h-102l59 183h-62v201h160v-174q0 -54 -20 -111zM552 1255h-478v165h1142v-165h-478v-1255h-186v1255z" />
    <glyph glyph-name="tcommaaccent" unicode="&#x163;" horiz-adv-x="740" 
d="M431 -512h-102l59 183h-62v201h160v-174q0 -54 -20 -111zM532 -8q-152 0 -221.5 82.5t-69.5 259.5v557h-211v147h211v293l175 68v-361h260v-147h-260v-547q0 -114 41 -162.5t129 -48.5q43 0 78 7l12 3v-140q-83 -11 -144 -11z" />
    <glyph glyph-name="Tcaron" unicode="&#x164;" horiz-adv-x="1290" 
d="M485 1804l159 -204l161 204h164l-247 -286h-155l-246 286h164zM552 1255h-478v165h1142v-165h-478v-1255h-186v1255z" />
    <glyph glyph-name="tcaron" unicode="&#x165;" horiz-adv-x="740" 
d="M532 -8q-152 0 -221.5 82.5t-69.5 259.5v557h-211v147h211v293l175 68v-361h260v-147h-260v-547q0 -114 41 -162.5t129 -48.5q43 0 78 7l12 3v-140q-83 -11 -144 -11zM695 1207h-110l82 386h150z" />
    <glyph glyph-name="Tbar" unicode="&#x166;" horiz-adv-x="1290" 
d="M552 1255h-478v165h1142v-165h-478v-492h309v-123h-309v-640h-186v640h-309v123h309v492z" />
    <glyph glyph-name="tbar" unicode="&#x167;" horiz-adv-x="792" 
d="M275 482h-210v115h210v294h-211v147h211v293l175 68v-361h260v-147h-260v-294h260v-115h-260v-138q0 -114 41 -162.5t129 -48.5q43 0 78 7l12 3v-140q-83 -11 -144 -11q-152 0 -221.5 82.5t-69.5 259.5v148z" />
    <glyph glyph-name="Utilde" unicode="&#x168;" horiz-adv-x="1342" 
d="M655 1614q-51 28 -80 39q-24 10 -55 10q-48 0 -70 -28t-23 -93h-103q1 235 183 235q43 0 80 -13t99 -48q89 -50 135 -50q45 0 67.5 28t23.5 92h105q-2 -95 -39 -160q-44 -73 -147 -73q-41 0 -76 13q-34 13 -100 48zM263 117q-152 152 -152 460v843h186v-841
q0 -231 94 -335q49 -55 122 -85t158 -30t158 30t122 85q94 104 94 335v841h186v-843q0 -308 -152 -460q-152 -149 -408 -149t-408 149z" />
    <glyph glyph-name="utilde" unicode="&#x169;" horiz-adv-x="1117" 
d="M542 1231q-51 28 -80 39q-24 10 -55 10q-48 0 -70 -28t-23 -93h-103q1 235 183 235q43 0 80 -13t99 -48q89 -50 135 -50q45 0 67.5 28t23.5 92h105q-2 -95 -39 -160q-44 -73 -147 -73q-41 0 -76 13q-34 13 -100 48zM107 1038h174v-617q0 -158 59.5 -228.5t182.5 -70.5
q152 0 231.5 107t79.5 310v499h174v-1038h-174v193q-90 -218 -361 -218q-182 0 -274 100t-92 309v654z" />
    <glyph glyph-name="Umacron" unicode="&#x16a;" horiz-adv-x="1342" 
d="M263 117q-152 152 -152 460v843h186v-841q0 -231 94 -335q49 -55 122 -85t158 -30t158 30t122 85q94 104 94 335v841h186v-843q0 -308 -152 -460q-152 -149 -408 -149t-408 149zM951 1605h-559v118h559v-118z" />
    <glyph glyph-name="umacron" unicode="&#x16b;" horiz-adv-x="1117" 
d="M107 1038h174v-617q0 -158 59.5 -228.5t182.5 -70.5q152 0 231.5 107t79.5 310v499h174v-1038h-174v193q-90 -218 -361 -218q-182 0 -274 100t-92 309v654zM837 1222h-559v118h559v-118z" />
    <glyph glyph-name="Ubreve" unicode="&#x16c;" horiz-adv-x="1342" 
d="M263 117q-152 152 -152 460v843h186v-841q0 -231 94 -335q49 -55 122 -85t158 -30t158 30t122 85q94 104 94 335v841h186v-843q0 -308 -152 -460q-152 -149 -408 -149t-408 149zM848 1793h104q-2 -50 -18.5 -94.5t-48.5 -82t-87 -59.5t-127 -22t-127 22t-87 59.5
t-48.5 82t-18.5 94.5h103q6 -70 54.5 -111t123.5 -41t123.5 41t53.5 111z" />
    <glyph glyph-name="ubreve" unicode="&#x16d;" horiz-adv-x="1117" 
d="M107 1038h174v-617q0 -158 59.5 -228.5t182.5 -70.5q152 0 231.5 107t79.5 310v499h174v-1038h-174v193q-90 -218 -361 -218q-182 0 -274 100t-92 309v654zM734 1411h104q-2 -50 -18.5 -94.5t-48.5 -82t-87 -59.5t-127 -22t-127 22t-87 59.5t-48.5 82t-18.5 94.5h103
q6 -70 54.5 -111t123.5 -41t123.5 41t53.5 111z" />
    <glyph glyph-name="Uring" unicode="&#x16e;" horiz-adv-x="1342" 
d="M263 117q-152 152 -152 460v843h186v-841q0 -231 94 -335q49 -55 122 -85t158 -30t158 30t122 85q94 104 94 335v841h186v-843q0 -308 -152 -460q-152 -149 -408 -149t-408 149zM519 1820q56 50 152 50q95 0 151 -50t56 -128t-56 -128t-151 -50q-96 0 -152 50
q-55 49 -55 128t55 128zM742 1761q-26 27 -71 27t-72 -27q-26 -28 -26 -69t26 -69q27 -27 72 -27t71 27q27 27 27 69t-27 69z" />
    <glyph glyph-name="uring" unicode="&#x16f;" horiz-adv-x="1117" 
d="M107 1038h174v-617q0 -158 59.5 -228.5t182.5 -70.5q152 0 231.5 107t79.5 310v499h174v-1038h-174v193q-90 -218 -361 -218q-182 0 -274 100t-92 309v654zM406 1437q56 50 152 50q95 0 151 -50t56 -128t-56 -128t-151 -50q-96 0 -152 50q-55 49 -55 128t55 128z
M629 1378q-26 27 -71 27t-72 -27q-26 -28 -26 -69t26 -69q27 -27 72 -27q46 0 71 27q27 27 27 69t-27 69z" />
    <glyph glyph-name="Uhungarumlaut" unicode="&#x170;" horiz-adv-x="1342" 
d="M263 117q-152 152 -152 460v843h186v-841q0 -231 94 -335q49 -55 122 -85t158 -30t158 30t122 85q94 104 94 335v841h186v-843q0 -308 -152 -460q-152 -149 -408 -149t-408 149zM610 1804h187l-281 -266h-135zM997 1804h186l-280 -266h-135z" />
    <glyph glyph-name="uhungarumlaut" unicode="&#x171;" horiz-adv-x="1117" 
d="M107 1038h174v-617q0 -158 59.5 -228.5t182.5 -70.5q152 0 231.5 107t79.5 310v499h174v-1038h-174v193q-90 -218 -361 -218q-182 0 -274 100t-92 309v654zM493 1422h187l-281 -266h-135zM880 1422h186l-280 -266h-135z" />
    <glyph glyph-name="Uogonek" unicode="&#x172;" horiz-adv-x="1342" 
d="M754 -28q-32 -4 -83 -4q-256 0 -408 149q-152 152 -152 460v843h186v-841q0 -231 94 -335q49 -55 122 -85t158 -30t158 30t122 85q94 104 94 335v841h186v-843q0 -308 -152 -460q-50 -48 -105 -79q-273 -149 -273 -304q0 -53 33 -81.5t96 -28.5q37 0 73.5 11.5t54.5 24.5
l16 11v-76l-21 -15q-12 -9 -64 -25q-48 -16 -106 -16q-101 0 -157 44t-56 120q0 140 184 269z" />
    <glyph glyph-name="uogonek" unicode="&#x173;" horiz-adv-x="1117" 
d="M107 1038h174v-617q0 -158 59.5 -228.5t182.5 -70.5q152 0 231.5 107t79.5 310v499h174v-1038q-85 -32 -156 -77q-137 -87 -137 -192q0 -107 130 -107q36 0 72 11q52 14 71 36v-76q-10 -9 -29 -20q-22 -13 -67.5 -24.5t-94.5 -11.5q-102 0 -157.5 43.5t-55.5 119.5
q0 56 30.5 108t82.5 90q98 69 188 100h-51v193q-90 -218 -361 -218q-182 0 -274 100t-92 309v654z" />
    <glyph glyph-name="Wcircumflex" unicode="&#x174;" horiz-adv-x="1894" 
d="M1497 0h-212l-338 1162l-338 -1162h-212l-353 1420h193l273 -1189l344 1189h186l344 -1189l273 1189h193zM1271 1518h-164l-161 204l-159 -204h-164l246 286h155z" />
    <glyph glyph-name="wcircumflex" unicode="&#x175;" horiz-adv-x="1642" 
d="M1275 0h-193l-262 830l-260 -830h-193l-339 1038h189l251 -841l268 841h169l268 -839l251 839h190zM1145 1136h-164l-161 204l-159 -204h-164l246 286h155z" />
    <glyph glyph-name="Ycircumflex" unicode="&#x176;" horiz-adv-x="1256" 
d="M1046 1420h206l-531 -963v-457h-187v458l-530 962h206l417 -774zM952 1518h-164l-161 204l-159 -204h-164l246 286h155z" />
    <glyph glyph-name="ycircumflex" unicode="&#x177;" horiz-adv-x="1025" 
d="M423 -25l-419 1063h190l318 -860l319 860h190l-562 -1420h-187zM837 1136h-164l-161 204l-159 -204h-164l246 286h155z" />
    <glyph glyph-name="Ydieresis" unicode="&#x178;" horiz-adv-x="1256" 
d="M1046 1420h206l-531 -963v-457h-187v458l-530 962h206l417 -774zM901 1548h-158v224h158v-224zM355 1772h157v-224h-157v224z" />
    <glyph glyph-name="Zacute" unicode="&#x179;" horiz-adv-x="1209" 
d="M83 0v147l802 1108h-794v165h1025v-145l-805 -1110h815v-165h-1043zM706 1804h198l-290 -266h-138z" />
    <glyph glyph-name="zacute" unicode="&#x17a;" horiz-adv-x="988" 
d="M76 1038h820v-141l-626 -756h649v-141h-850v141l626 756h-619v141zM601 1422h198l-290 -266h-138z" />
    <glyph glyph-name="Zdotaccent" unicode="&#x17b;" horiz-adv-x="1209" 
d="M83 0v147l802 1108h-794v165h1025v-145l-805 -1110h815v-165h-1043zM527 1772h160v-224h-160v224z" />
    <glyph glyph-name="zdotaccent" unicode="&#x17c;" horiz-adv-x="988" 
d="M76 1038h820v-141l-626 -756h649v-141h-850v141l626 756h-619v141zM414 1390h160v-224h-160v224z" />
    <glyph glyph-name="Zcaron" unicode="&#x17d;" horiz-adv-x="1209" 
d="M83 0v147l802 1108h-794v165h1025v-145l-805 -1110h815v-165h-1043zM444 1804l159 -204l161 204h164l-247 -286h-155l-246 286h164z" />
    <glyph glyph-name="zcaron" unicode="&#x17e;" horiz-adv-x="988" 
d="M76 1038h820v-141l-626 -756h649v-141h-850v141l626 756h-619v141zM334 1422l159 -204l161 204h164l-247 -286h-155l-246 286h164z" />
    <glyph glyph-name="florin" unicode="&#x192;" horiz-adv-x="1205" 
d="M533 771h-253v93h265q29 222 62 332q33 115 88 188q106 139 264 139q82 0 129.5 -39.5t47.5 -105.5q0 -55 -33.5 -89.5t-84.5 -34.5q-48 0 -80.5 29t-32.5 77q0 41 26.5 69.5t61.5 32.5q-12 2 -23 2q-102 0 -161 -102q-31 -54 -50 -159q-22 -116 -43 -339h285v-93h-294
l-9 -106q-36 -407 -77 -600q-41 -189 -111 -282q-106 -139 -264 -139q-82 0 -129.5 39.5t-47.5 105.5q0 55 33.5 89.5t84.5 34.5q48 0 80.5 -29t32.5 -77q0 -41 -26.5 -69.5t-61.5 -32.5q12 -2 23 -2q103 0 161 102q34 61 57 202q23 139 54 495q20 217 26 269z" />
    <glyph glyph-name="Aringacute" unicode="&#x1fa;" horiz-adv-x="1272" 
d="M913 2160l-225 -198h-133l172 198h186zM1274 0h-192l-132 358h-627l-131 -358h-194l545 1420h185zM893 512l-257 699l-256 -699h513zM484 1819q56 50 152 50q95 0 151 -50t56 -128t-56 -128t-151 -50q-96 0 -152 50q-55 49 -55 128t55 128zM707 1760q-25 27 -71 27
q-45 0 -72 -27q-26 -28 -26 -69t26 -69q27 -27 72 -27q46 0 71 27q27 27 27 69t-27 69z" />
    <glyph glyph-name="aringacute" unicode="&#x1fb;" horiz-adv-x="1079" 
d="M824 1756l-225 -202h-132l172 202h185zM965 707v-437q0 -74 8 -146q7 -61 16 -96l8 -28h-172q-19 59 -26 163q-105 -188 -372 -188q-173 0 -265 76t-92 216q0 128 76 202q35 34 82 55q77 37 194 54q28 4 77 9t78 9q60 10 68 11q61 11 107 47q43 33 43 106q0 59 -52 111
q-59 62 -198 62q-116 0 -183 -47.5t-81 -135.5h-170q8 98 65 172q99 139 367 142q230 0 330 -110q92 -98 92 -247zM456 455q-73 -12 -120 -35q-91 -44 -91 -144q0 -82 57.5 -127t167.5 -45q162 0 243.5 97.5t81.5 284.5v78q-32 -33 -91 -55t-106 -31q-62 -11 -142 -23z
M399 1437q56 50 152 50q95 0 151 -50t56 -128t-56 -128t-151 -50q-96 0 -152 50q-55 49 -55 128t55 128zM622 1378q-26 27 -71 27t-72 -27q-26 -28 -26 -69t26 -69q27 -27 72 -27t71 27q27 27 27 69t-27 69z" />
    <glyph glyph-name="AEacute" unicode="&#x1fc;" horiz-adv-x="2013" 
d="M1927 0h-929v360h-564l-239 -360h-212l967 1420h970v-164h-736v-467h634v-158h-634v-467h743v-164zM998 1210l-462 -696h462v696zM1510 1804h198l-290 -266h-138z" />
    <glyph glyph-name="aeacute" unicode="&#x1fd;" horiz-adv-x="1824" 
d="M1755 457h-788q15 -161 100 -253q86 -92 213 -92q86 0 154.5 43t108.5 121h184q-55 -144 -171 -222.5t-277 -78.5q-140 0 -243.5 62t-161.5 177q-99 -239 -429 -239q-184 0 -279.5 75t-95.5 217q0 128 77 203q35 34 82 55q77 35 193 53q30 4 78 9l78 9q52 8 68 11
q63 13 107 48q42 33 42 105q0 59 -52 111q-59 62 -198 62q-116 0 -183 -47.5t-81 -135.5h-170q8 98 65 172q99 139 366 142q278 0 373 -176q126 176 360 176q223 0 352 -149t129 -401zM574 474l-100 -16q-78 -13 -123 -32q-106 -44 -106 -153q0 -80 58.5 -124.5t168.5 -44.5
q161 0 242 97.5t81 284.5v78q-48 -48 -137 -71q-36 -9 -84 -19zM1279 927q-130 0 -214 -95q-85 -95 -98 -255h613q-14 170 -95 259q-81 91 -206 91zM1026 1422h198l-290 -266h-138z" />
    <glyph glyph-name="Oslashacute" unicode="&#x1fe;" horiz-adv-x="1512" 
d="M756 -32q-258 0 -436 156l-144 -172l-60 55l147 174q-180 205 -180 529q0 331 187 536q188 206 486 206q262 0 441 -160l148 176l60 -55l-151 -180q175 -202 175 -523q2 -215 -83.5 -385.5t-240 -265t-349.5 -91.5zM270 710q0 -234 111 -389l701 835q-134 135 -326 135
q-200 0 -340 -148q-68 -73 -107 -185.5t-39 -247.5zM756 129q201 0 339 147q69 73 108 185.5t39 248.5q0 227 -107 382l-701 -833q133 -130 322 -130zM867 1804h198l-290 -266h-138z" />
    <glyph glyph-name="oslashacute" unicode="&#x1ff;" horiz-adv-x="1138" 
d="M136 -53l-56 51l917 1051l56 -51zM672 1422h198l-290 -266h-138zM203 915q134 149 366 149q231 0 365 -149t134 -396t-134 -396q-133 -148 -365 -148q-233 0 -366 148t-133 396t133 396zM801 812q-90 110 -232 110q-141 0 -233 -110q-90 -110 -90 -293q0 -184 90 -293
q91 -109 233 -109t232 109q91 109 91 293t-91 293z" />
    <glyph glyph-name="Scommaaccent" unicode="&#x218;" horiz-adv-x="1245" 
d="M628 -32q-252 0 -403 117q-150 117 -150 317h195q0 -137 99 -209t259 -72q73 0 135.5 15.5t113 46.5t79.5 84t29 122q0 68 -25 103q-12 18 -19 26.5t-20.5 20t-32.5 20.5q-25 13 -52 24q-19 9 -68 22q-40 12 -76 21q-6 2 -22.5 6t-34 8t-35.5 8l-84 20q-3 1 -81 22
q-41 12 -79 26q-54 24 -70 32q-58 28 -115 85q-75 81 -75 213q0 180 144 293q146 113 372 113q237 0 386 -118q150 -119 150 -308h-186q0 121 -96 196q-95 75 -251 75q-146 0 -241 -65q-94 -64 -94 -183q3 -53 19 -86t55 -59q18 -12 55 -31q25 -13 76 -28q14 -4 44 -12.5
t45 -12.5l28 -7t40 -9.5t41 -9.5q201 -47 281 -85q162 -76 197 -224q9 -42 9 -91q0 -182 -138 -301q-68 -59 -172.5 -92t-231.5 -33zM649 -512h-102l59 183h-62v201h160v-174q0 -54 -20 -111z" />
    <glyph glyph-name="scommaaccent" unicode="&#x219;" horiz-adv-x="1032" 
d="M514 -25q-217 0 -328.5 84.5t-111.5 235.5h177q0 -92 67.5 -140t198.5 -48q132 0 199.5 47t67.5 130q6 81 -74 126q-18 11 -55 21q-37 11 -63 15l-76 14q-156 27 -221 46q-159 51 -193 166q-11 38 -11 80q0 141 107 227q106 85 311 85q199 0 315 -84q116 -83 116 -227
h-170q0 82 -67.5 130.5t-191.5 48.5q-119 0 -183 -45.5t-64 -122.5q-8 -74 68 -116q14 -9 53 -20l58 -13l73 -13q171 -29 225 -46q165 -51 204 -169q13 -39 13 -90q0 -146 -109 -234q-107 -88 -335 -88zM542 -512h-102l59 183h-62v201h160v-174q0 -54 -20 -111z" />
    <glyph glyph-name="uni021A" unicode="&#x21a;" horiz-adv-x="1290" 
d="M671 -512h-102l59 183h-62v201h160v-174q0 -54 -20 -111zM552 1255h-478v165h1142v-165h-478v-1255h-186v1255z" />
    <glyph glyph-name="uni021B" unicode="&#x21b;" horiz-adv-x="740" 
d="M431 -512h-102l59 183h-62v201h160v-174q0 -54 -20 -111zM532 -8q-152 0 -221.5 82.5t-69.5 259.5v557h-211v147h211v293l175 68v-361h260v-147h-260v-547q0 -114 41 -162.5t129 -48.5q43 0 78 7l12 3v-140q-83 -11 -144 -11z" />
    <glyph glyph-name="uni0237" unicode="&#x237;" horiz-adv-x="420" 
d="M297 1038v-1099q0 -321 -288 -321h-64v141h25q77 0 115 45t38 145v1089h174z" />
    <glyph glyph-name="schwa" unicode="&#x259;" horiz-adv-x="1101" 
d="M68 525l2 57h787q-15 161 -100 252q-85 93 -212 93q-86 0 -154 -42.5t-110 -121.5h-183q54 144 170 222.5t277 78.5q230 0 357 -148q129 -147 129 -392q0 -246 -128 -398q-127 -151 -354 -151q-223 0 -352 149q-129 148 -129 401zM546 112q130 0 213 95q85 95 98 255
h-613q13 -169 94 -260q82 -90 208 -90z" />
    <glyph glyph-name="circumflex" unicode="&#x2c6;" horiz-adv-x="826" 
d="M737 1136h-164l-161 204l-159 -204h-164l246 286h155z" />
    <glyph glyph-name="caron" unicode="&#x2c7;" horiz-adv-x="826" 
d="M253 1422l159 -204l161 204h164l-247 -286h-155l-246 286h164z" />
    <glyph glyph-name="uni02C9" unicode="&#x2c9;" horiz-adv-x="757" 
d="M658 1222h-559v118h559v-118z" />
    <glyph glyph-name="breve" unicode="&#x2d8;" horiz-adv-x="736" 
d="M545 1411h104q-2 -50 -18.5 -94.5t-48.5 -82t-87 -59.5t-127 -22t-127 22t-87 59.5t-48.5 82t-18.5 94.5h103q6 -70 54.5 -111t123.5 -41t123.5 41t53.5 111z" />
    <glyph glyph-name="dotaccent" unicode="&#x2d9;" horiz-adv-x="358" 
d="M99 1390h160v-224h-160v224z" />
    <glyph glyph-name="ring" unicode="&#x2da;" horiz-adv-x="592" 
d="M144 1437q56 50 152 50q95 0 151 -50t56 -128t-56 -128t-151 -50q-96 0 -152 50q-55 49 -55 128t55 128zM367 1378q-25 27 -71 27q-45 0 -72 -27q-26 -28 -26 -69t26 -69q27 -27 72 -27q46 0 71 27q27 27 27 69t-27 69z" />
    <glyph glyph-name="ogonek" unicode="&#x2db;" horiz-adv-x="593" 
d="M300 -461q-102 0 -157.5 43.5t-55.5 119.5q0 56 30.5 108t82.5 90q98 69 188 100h123q-85 -32 -156 -77q-137 -87 -137 -192q0 -107 130 -107q36 0 72 11q52 14 71 36v-76q-9 -9 -29 -20q-22 -13 -67.5 -24.5t-94.5 -11.5z" />
    <glyph glyph-name="tilde" unicode="&#x2dc;" horiz-adv-x="785" 
d="M377 1231q-51 28 -80 39q-24 10 -55 10q-48 0 -70 -28t-23 -93h-103q1 235 183 235q43 0 80 -13t99 -48q89 -50 135 -50q45 0 67.5 28t23.5 92h105q-2 -95 -39 -160q-44 -73 -147 -73q-41 0 -76 13q-34 13 -100 48z" />
    <glyph glyph-name="hungarumlaut" unicode="&#x2dd;" horiz-adv-x="984" 
d="M328 1422h187l-281 -266h-135zM715 1422h186l-280 -266h-135z" />
    <glyph glyph-name="anoteleia" unicode="&#x387;" horiz-adv-x="394" 
d="M298 391h-195v255h195v-255z" />
    <glyph glyph-name="pi" unicode="&#x3c0;" horiz-adv-x="1285" 
d="M1076 -8q-152 0 -219.5 77t-67.5 249v579h-317v-897h-175v897h-256v141h1179v-141h-257v-557q0 -111 40.5 -159t127.5 -48q43 0 78 7l11 3v-140q-80 -11 -144 -11z" />
    <glyph glyph-name="Wgrave" unicode="&#x1e80;" horiz-adv-x="1894" 
d="M1497 0h-212l-338 1162l-338 -1162h-212l-353 1420h193l273 -1189l344 1189h186l344 -1189l273 1189h193zM1067 1538h-138l-290 266h198z" />
    <glyph glyph-name="wgrave" unicode="&#x1e81;" horiz-adv-x="1642" 
d="M1275 0h-193l-262 830l-260 -830h-193l-339 1038h189l251 -841l268 841h169l268 -839l251 839h190zM943 1156h-138l-290 266h198z" />
    <glyph glyph-name="Wacute" unicode="&#x1e82;" horiz-adv-x="1894" 
d="M1497 0h-212l-338 1162l-338 -1162h-212l-353 1420h193l273 -1189l344 1189h186l344 -1189l273 1189h193zM1057 1804h198l-290 -266h-138z" />
    <glyph glyph-name="wacute" unicode="&#x1e83;" horiz-adv-x="1642" 
d="M1275 0h-193l-262 830l-260 -830h-193l-339 1038h189l251 -841l268 841h169l268 -839l251 839h190zM928 1422h198l-290 -266h-138z" />
    <glyph glyph-name="Wdieresis" unicode="&#x1e84;" horiz-adv-x="1894" 
d="M1497 0h-212l-338 1162l-338 -1162h-212l-353 1420h193l273 -1189l344 1189h186l344 -1189l273 1189h193zM1221 1548h-158v224h158v-224zM675 1772h157v-224h-157v224z" />
    <glyph glyph-name="wdieresis" unicode="&#x1e85;" horiz-adv-x="1642" 
d="M1275 0h-193l-262 830l-260 -830h-193l-339 1038h189l251 -841l268 841h169l268 -839l251 839h190zM1094 1166h-158v224h158v-224zM548 1390h157v-224h-157v224z" />
    <glyph glyph-name="uni1E9E" unicode="&#x1e9e;" horiz-adv-x="1345" 
d="M115 1420h1088l-341 -520q195 -15 316 -137q120 -121 120 -327q0 -199 -116 -327q-58 -65 -152 -101t-213 -36q-74 0 -139 13q-68 12 -96 25l-31 13v162l26 -15q21 -9 75 -23q59 -14 118 -14q166 0 253 91q88 91 88 233q0 145 -92 234t-255 89q-79 0 -139 -20l-18 -7v16
l310 488h-616v-1257h-186v1420z" />
    <glyph glyph-name="Ygrave" unicode="&#x1ef2;" horiz-adv-x="1256" 
d="M1046 1420h206l-531 -963v-457h-187v458l-530 962h206l417 -774zM758 1538h-138l-290 266h198z" />
    <glyph glyph-name="ygrave" unicode="&#x1ef3;" horiz-adv-x="1025" 
d="M423 -25l-419 1063h190l318 -860l319 860h190l-562 -1420h-187zM635 1156h-138l-290 266h198z" />
    <glyph glyph-name="uni2011" unicode="&#x2011;" horiz-adv-x="744" 
d="M641 441h-538v156h538v-156z" />
    <glyph glyph-name="figuredash" unicode="&#x2012;" horiz-adv-x="1096" 
d="M993 441h-890v156h890v-156z" />
    <glyph glyph-name="endash" unicode="&#x2013;" horiz-adv-x="1096" 
d="M993 441h-890v156h890v-156z" />
    <glyph glyph-name="emdash" unicode="&#x2014;" horiz-adv-x="1520" 
d="M1417 441h-1314v156h1314v-156z" />
    <glyph glyph-name="uni2015" unicode="&#x2015;" horiz-adv-x="1520" 
d="M1417 441h-1314v156h1314v-156z" />
    <glyph glyph-name="quoteleft" unicode="&#x2018;" horiz-adv-x="401" 
d="M175 1420h120l-81 -238h84v-255h-195v226q0 71 24 135z" />
    <glyph glyph-name="quoteright" unicode="&#x2019;" horiz-adv-x="401" 
d="M226 927h-120l81 238h-84v255h195v-226q0 -70 -24 -135z" />
    <glyph glyph-name="quotesinglbase" unicode="&#x201a;" horiz-adv-x="401" 
d="M226 -238h-120l81 238h-84v255h195v-226q0 -71 -24 -135z" />
    <glyph glyph-name="quotedblleft" unicode="&#x201c;" horiz-adv-x="769" 
d="M175 1420h120l-81 -238h84v-255h-195v226q0 71 24 135zM543 1420h120l-81 -238h84v-255h-195v226q0 71 24 135z" />
    <glyph glyph-name="quotedblright" unicode="&#x201d;" horiz-adv-x="769" 
d="M226 927h-120l81 238h-84v255h195v-226q0 -70 -24 -135zM594 927h-120l81 238h-84v255h195v-226q0 -70 -24 -135z" />
    <glyph glyph-name="quotedblbase" unicode="&#x201e;" horiz-adv-x="769" 
d="M226 -238h-120l81 238h-84v255h195v-226q0 -71 -24 -135zM594 -238h-120l81 238h-84v255h195v-226q0 -71 -24 -135z" />
    <glyph glyph-name="dagger" unicode="&#x2020;" horiz-adv-x="782" 
d="M470 326h-159l12 547l-3 109l-219 -16v159l217 -17l-7 312h159l-8 -312l219 17v-159l-222 16l-2 -109z" />
    <glyph glyph-name="daggerdbl" unicode="&#x2021;" horiz-adv-x="781" 
d="M101 573v159l218 -17l4 158l-4 157l-218 -16v159l216 -17l-6 264h159l-7 -264l217 17v-159l-220 16l-3 -157l3 -158l220 17v-159l-217 16l7 -263h-159l6 263z" />
    <glyph glyph-name="bullet" unicode="&#x2022;" horiz-adv-x="769" 
d="M384 450q-112 0 -186 73q-75 73 -75 187t75 187q74 73 186 73q113 0 187 -73q75 -73 75 -187t-75 -187q-74 -73 -187 -73z" />
    <glyph glyph-name="ellipsis" unicode="&#x2026;" horiz-adv-x="1187" 
d="M298 0h-195v255h195v-255zM691 0h-195v255h195v-255zM1084 0h-195v255h195v-255z" />
    <glyph glyph-name="perthousand" unicode="&#x2030;" horiz-adv-x="2511" 
d="M709 1012q0 -193 -91 -308t-248 -115t-248 115t-91 308q0 194 91 309t248 115t248 -115t91 -309zM499 -32h-134l839 1484h133zM566 1012q0 139 -52 221q-53 83 -144 83t-144 -83q-52 -82 -52 -221q0 -138 52 -220t144 -82t144 82t52 220zM1671 407q0 -193 -91 -308
t-248 -115q-158 0 -249 115t-91 308q0 194 91 309t249 115q157 0 248 -115t91 -309zM1527 407q0 138 -52 220q-51 83 -143 83q-91 0 -144 -83q-52 -82 -52 -220t52 -220q53 -83 144 -83q92 0 143 83q52 82 52 220zM2480 407q0 -193 -91 -308t-248 -115q-158 0 -249 115
t-91 308q0 194 91 309t249 115q157 0 248 -115t91 -309zM2336 407q0 138 -52 220q-51 83 -143 83q-91 0 -144 -83q-52 -82 -52 -220t52 -220q53 -83 144 -83q92 0 143 83q52 82 52 220z" />
    <glyph glyph-name="guilsinglleft" unicode="&#x2039;" horiz-adv-x="669" 
d="M564 230v-207l-471 415v180l471 415v-207l-357 -298z" />
    <glyph glyph-name="guilsinglright" unicode="&#x203a;" horiz-adv-x="669" 
d="M576 618v-180l-471 -415v207l357 298l-357 298v207z" />
    <glyph glyph-name="fraction" unicode="&#x2044;" horiz-adv-x="382" 
d="M-187 -32h-132l888 1484h132z" />
    <glyph glyph-name="zerosuperior" unicode="&#x2070;" horiz-adv-x="777" 
d="M69 1265q0 183 84 303t236 120q102 0 175 -58q144 -112 144 -365q3 -181 -83 -302.5t-236 -120.5q-152 0 -236 119q-84 120 -84 304zM389 955q87 0 137 82.5t50 227.5t-50 227t-137 82q-88 0 -138 -82t-50 -227t50 -227.5t138 -82.5z" />
    <glyph glyph-name="foursuperior" unicode="&#x2074;" horiz-adv-x="765" 
d="M458 1027h-406v112l392 531h147v-535h124v-108h-124v-166h-133v166zM458 1520l-277 -385h277v385z" />
    <glyph glyph-name="fivesuperior" unicode="&#x2075;" horiz-adv-x="735" 
d="M628 1670v-114h-386l-30 -203q74 68 189 68q124 0 201 -80t77 -207q0 -133 -82 -212q-83 -80 -228 -80q-143 0 -227 75q-83 75 -83 193h131q0 -73 52 -116q52 -42 128 -42q82 0 130 52t48 135t-49 135q-48 54 -129 54q-63 0 -105 -27.5t-57 -54.5l-6 -10h-127l67 434h486
z" />
    <glyph glyph-name="sixsuperior" unicode="&#x2076;" horiz-adv-x="755" 
d="M399 1579q-86 0 -139 -74q-52 -73 -63 -197q65 114 220 114q123 0 202 -78t79 -207q0 -134 -84 -215q-85 -80 -218 -80q-100 0 -178 47q-149 89 -150 352q0 197 85 321q85 126 246 126q120 0 191 -68q72 -69 88 -151h-138q-14 48 -49.5 79t-91.5 31zM212 1134
q0 -20 1 -25q23 -78 71 -117t107 -39q77 0 127 51q50 52 50 139q0 84 -49 134.5t-130 50.5q-79 0 -128 -55q-49 -53 -49 -139z" />
    <glyph glyph-name="sevensuperior" unicode="&#x2077;" horiz-adv-x="709" 
d="M312 861h-148q15 109 50 220q35 104 74 181q36 70 84 140q44 65 74 99q29 32 52 55h-437v114h582v-103l-29 -29q-22 -26 -66 -86q-51 -70 -90 -143q-40 -74 -84 -197q-43 -125 -62 -251z" />
    <glyph glyph-name="eightsuperior" unicode="&#x2078;" horiz-adv-x="756" 
d="M666 1472q0 -124 -132 -171q82 -27 126.5 -81t44.5 -131q0 -108 -85 -178q-84 -69 -242 -69t-243 69q-84 71 -84 178q0 77 44.5 131t126.5 81q-132 47 -132 171q0 96 80 156q79 60 208 60q128 0 208 -60t80 -156zM572 1096q0 70 -51.5 110t-142.5 40t-142.5 -40
t-51.5 -110q0 -67 51.5 -107t142.5 -40t142.5 40t51.5 107zM217 1460q0 -54 43 -85t118 -31t118 31t43 85q0 55 -44.5 88t-116.5 33t-116.5 -33t-44.5 -88z" />
    <glyph glyph-name="ninesuperior" unicode="&#x2079;" horiz-adv-x="755" 
d="M356 951q86 0 139 74q52 73 63 197q-65 -114 -220 -114q-122 0 -202 78q-79 78 -79 207q0 135 84 214q84 81 218 81q100 0 177 -48q148 -85 151 -351q0 -195 -86 -322q-86 -125 -245 -125q-121 0 -191 67q-72 69 -88 152h138q14 -48 49.5 -79t91.5 -31zM543 1396
q0 20 -1 25q-23 78 -71 117t-107 39q-78 0 -127 -51q-50 -52 -50 -139q0 -84 49 -134.5t130 -50.5q78 0 128 54q49 55 49 140z" />
    <glyph glyph-name="uni2080" unicode="&#x2080;" horiz-adv-x="777" 
d="M69 404q0 183 84 303t236 120q102 0 175 -58q144 -112 144 -365q3 -181 -83 -302.5t-236 -120.5q-152 0 -236 119q-84 120 -84 304zM389 94q87 0 137 82.5t50 227.5t-50 227t-137 82q-88 0 -138 -82t-50 -227t50 -227.5t138 -82.5z" />
    <glyph glyph-name="uni2081" unicode="&#x2081;" horiz-adv-x="481" 
d="M55 492v114q99 1 155 60q55 58 66 143h110v-809h-132v578q-59 -86 -199 -86z" />
    <glyph glyph-name="uni2082" unicode="&#x2082;" horiz-adv-x="682" 
d="M486 571q0 64 -40.5 103.5t-105.5 39.5q-69 0 -109.5 -46t-40.5 -124v-24h-130v25q0 131 75 206q75 76 206 76q123 0 200 -68t77 -182q0 -67 -27 -119q-13 -26 -29.5 -47t-40 -40t-41 -31.5t-49.5 -33.5q-47 -29 -98 -57q-48 -25 -87 -61.5t-56 -74.5h436v-113h-566v29
q0 123 67 196q37 41 72 66q34 26 100 67l63 39l48 36q30 23 43 41q33 47 33 97z" />
    <glyph glyph-name="uni2083" unicode="&#x2083;" horiz-adv-x="721" 
d="M361 -19q-148 0 -227 69.5t-79 202.5h133q0 -100 61 -135q51 -29 114 -29q85 0 129.5 39.5t44.5 102.5q0 62 -44 98t-113 36h-70v105h80q58 0 90 32.5t32 85.5q0 61 -43 96t-108 35q-70 0 -120 -44q-49 -43 -49 -126h-128q0 130 83 204q85 74 212 74q117 0 199 -62
q81 -61 81 -164q0 -63 -31.5 -109.5t-87.5 -68.5q151 -46 151 -198q0 -108 -80 -176t-230 -68z" />
    <glyph glyph-name="uni2084" unicode="&#x2084;" horiz-adv-x="765" 
d="M458 166h-406v112l392 531h147v-535h124v-108h-124v-166h-133v166zM458 659l-277 -385h277v385z" />
    <glyph glyph-name="uni2085" unicode="&#x2085;" horiz-adv-x="735" 
d="M628 809v-114h-386l-30 -203q74 68 189 68q124 0 201 -80t77 -207q0 -133 -82 -212q-83 -80 -228 -80q-143 0 -227 75q-83 75 -83 193h131q0 -73 52 -116q52 -42 128 -42q82 0 130 52t48 135t-49 135q-48 54 -129 54q-63 0 -106 -28t-56 -55l-6 -9h-127l67 434h486z" />
    <glyph glyph-name="uni2086" unicode="&#x2086;" horiz-adv-x="755" 
d="M399 718q-86 0 -139 -74q-52 -73 -63 -197q65 114 220 114q123 0 202 -78t79 -207q0 -134 -84 -215q-85 -80 -218 -80q-100 0 -178 47q-149 89 -150 352q0 197 85 321q85 126 246 126q120 0 191 -68q72 -69 88 -151h-138q-14 48 -49.5 79t-91.5 31zM212 273q0 -20 1 -25
q23 -78 71 -117t107 -39q77 0 127 51q50 52 50 139q0 84 -49 134.5t-130 50.5q-79 0 -128 -55q-49 -53 -49 -139z" />
    <glyph glyph-name="uni2087" unicode="&#x2087;" horiz-adv-x="709" 
d="M312 0h-148q15 109 50 220q35 104 74 181q36 70 84 140q44 65 74 99q29 32 52 55h-437v114h582v-103q-2 -2 -7.5 -7t-11 -10.5t-10.5 -11.5q-22 -26 -66 -86q-51 -70 -90 -143q-40 -74 -84 -197q-43 -125 -62 -251z" />
    <glyph glyph-name="uni2088" unicode="&#x2088;" horiz-adv-x="756" 
d="M666 611q0 -125 -132 -171q82 -27 126.5 -81t44.5 -131q0 -108 -85 -178q-84 -69 -242 -69t-243 69q-84 70 -84 178q0 77 44.5 131t126.5 81q-132 46 -132 171q0 96 80 156q79 60 208 60q128 0 208 -60t80 -156zM572 235q0 70 -51.5 110t-142.5 40t-142.5 -40t-51.5 -110
q0 -67 51.5 -107t142.5 -40t142.5 40t51.5 107zM217 599q0 -54 43 -85t118 -31t118 31t43 85q0 55 -44.5 88t-116.5 33t-116.5 -33t-44.5 -88z" />
    <glyph glyph-name="uni2089" unicode="&#x2089;" horiz-adv-x="755" 
d="M356 90q86 0 139 74q52 73 63 197q-65 -114 -220 -114q-122 0 -202 78q-79 78 -79 207q0 134 84 214q84 81 218 81q100 0 177 -48q148 -85 151 -351q0 -195 -86 -322q-86 -125 -245 -125q-121 0 -191 67q-72 69 -88 152h138q14 -48 49.5 -79t91.5 -31zM543 535
q0 20 -1 25q-23 78 -71 117t-107 39q-78 0 -127 -51q-50 -52 -50 -139q0 -84 49 -134.5t130 -50.5q78 0 128 54q49 55 49 140z" />
    <glyph glyph-name="Euro" unicode="&#x20ac;" horiz-adv-x="1310" 
d="M165 791h-146l18 126h143q44 243 180 388q138 147 354 147q220 0 357 -152q138 -153 175 -400h-187q-30 187 -120 290t-226 103q-134 0 -223.5 -98t-122.5 -278h414l-19 -126h-410q-2 -70 -2 -81t2 -81h411l-18 -126h-378q33 -180 122.5 -278t223.5 -98q136 0 226 103
t120 290h188q-26 -166 -92 -285q-66 -121 -180 -195q-113 -72 -261 -72q-216 0 -354 146q-136 147 -180 389h-161l18 126h128q-2 70 -2 81q0 9 2 81z" />
    <glyph glyph-name="numero" unicode="&#x2116;" horiz-adv-x="2338" 
d="M2223 1183q52 -117 52 -267t-52.5 -268.5t-154.5 -189.5q-103 -71 -240 -71t-241 71q-101 71 -154 191q-52 117 -52 267t52.5 268.5t153.5 188.5q103 72 241 72t240 -72q101 -69 155 -190zM2029 636q74 110 74 280t-74 279q-73 109 -201 109t-201 -109q-74 -109 -74 -279
t74 -280q73 -108 201 -108t201 108zM1224 0h-171l-752 1102v-1102h-186v1420h170l752 -1102v1102h187v-1420z" />
    <glyph glyph-name="uni2117" unicode="&#x2117;" horiz-adv-x="1583" 
d="M791 1446q148 0 278.5 -53t226.5 -150q97 -97 150.5 -235t53.5 -298t-53.5 -298.5t-150.5 -235.5q-96 -96 -226.5 -149t-278.5 -53q-146 0 -277 53t-227 149q-97 97 -150.5 235.5t-53.5 298.5t53.5 298t150.5 235q96 97 226.5 150t277.5 53zM791 44q177 0 322 83
q145 84 227 237q83 154 83 346t-83 346q-83 153 -227 236q-144 84 -322 84q-132 0 -248.5 -48.5t-201.5 -136.5q-85 -87 -133 -212.5t-48 -268.5t48 -268.5t133 -213.5q85 -87 202 -135.5t248 -48.5zM648 314h-115v800h337q124 0 193 -63.5t69 -180.5q0 -119 -69.5 -185.5
t-192.5 -66.5h-222v-304zM862 1013h-214v-294h214q156 0 156 150q0 144 -156 144z" />
    <glyph glyph-name="servicemark" unicode="&#x2120;" horiz-adv-x="1518" 
d="M1116 767h-100l-182 492v-492h-109v653h142l199 -537l199 537h142v-653h-109v492zM355 754q-122 0 -192 54.5t-70 147.5h108q0 -54 41.5 -83.5t111.5 -29.5q68 0 109 27t41 79q0 44 -35 64q-36 21 -133 44l-61 15q-73 20 -103 40q-70 51 -70 129q0 88 68 141
q68 52 178 52q113 0 183 -55t70 -144h-106q0 48 -40.5 79t-106.5 31q-61 0 -100 -27.5t-39 -72.5q0 -43 37 -62t137 -42q81 -18 133 -42q47 -21 69.5 -55.5t25.5 -90.5q0 -90 -67.5 -144.5t-188.5 -54.5z" />
    <glyph glyph-name="trademark" unicode="&#x2122;" horiz-adv-x="1523" 
d="M1121 767h-100l-182 492v-492h-109v653h142l199 -537l199 537h142v-653h-109v492zM298 1324h-211v96h533v-96h-212v-557h-110v557z" />
    <glyph glyph-name="Omega" unicode="&#x2126;" horiz-adv-x="1558" 
d="M302 769q0 -90 18 -174q28 -131 109 -262q70 -107 178 -190l18 -12v-131h-548v156h351q-111 79 -204 227q-108 178 -108 429q0 138 45.5 256t130.5 203q85 86 211 133.5t276 47.5t276 -47.5t211 -133.5q85 -85 130.5 -203t45.5 -256q0 -255 -109 -429q-89 -147 -204 -227
h352v-156h-548v131l18 12q8 5 45 37q32 28 64 63q81 89 132 207q64 144 64 319q0 123 -37.5 224t-104.5 166q-135 132 -335 132q-199 0 -336 -132q-66 -65 -103.5 -166t-37.5 -224z" />
    <glyph glyph-name="estimated" unicode="&#x212e;" horiz-adv-x="1800" 
d="M900 -26q-235 0 -424 94t-299 264q-108 170 -108 378q0 152 61.5 288.5t171.5 235.5q110 98 264 155q155 57 334 57q238 0 428 -97q191 -98 297 -265t106 -374q0 -30 -1 -34h-1445v-326q92 -144 254 -229q161 -83 361 -83q184 0 340 62q156 63 257 176h115
q-92 -112 -257 -201q-192 -101 -455 -101zM285 1069v-325h1231v322q-93 147 -255 231q-160 85 -361 85q-200 0 -361 -84q-162 -85 -254 -229z" />
    <glyph glyph-name="partialdiff" unicode="&#x2202;" horiz-adv-x="1226" 
d="M222 1144l-77 137q41 46 135 100q125 71 291 71q273 0 425 -212q151 -211 151 -576q0 -334 -145 -511q-82 -101 -199 -146q-102 -39 -216 -39q-229 0 -374 141q-146 141 -146 381q0 229 134 369q135 139 351 139q165 0 271 -76t148 -193q-10 263 -118 416
q-107 152 -295 152q-125 0 -218 -59q-76 -47 -118 -94zM591 124q68 0 129.5 26.5t103.5 71.5q82 87 111 188q5 37 5 67q0 164 -96 269q-96 106 -251 106q-156 0 -249 -98t-93 -262q0 -168 96 -268t244 -100z" />
    <glyph glyph-name="increment" unicode="&#x2206;" horiz-adv-x="1245" 
d="M531 1420h183l533 -1420h-1249zM1001 154l-378 1052l-377 -1052h755z" />
    <glyph glyph-name="product" unicode="&#x220f;" horiz-adv-x="1250" 
d="M297 1266h-256v154h1168v-154h-256v-1610h-181v1610h-294v-1610h-181v1610z" />
    <glyph glyph-name="summation" unicode="&#x2211;" horiz-adv-x="1075" 
d="M510 538l-469 736v146h954v-154h-763l468 -728l-468 -728h763v-154h-954v146z" />
    <glyph glyph-name="minus" unicode="&#x2212;" horiz-adv-x="1128" 
d="M1025 441h-922v156h922v-156z" />
    <glyph glyph-name="radical" unicode="&#x221a;" horiz-adv-x="996" 
d="M228 740l-201 -85l-43 125l333 137l217 -698l365 1475h145l-418 -1694h-167z" />
    <glyph glyph-name="infinity" unicode="&#x221e;" horiz-adv-x="1579" 
d="M1180 834q134 0 223 -83t89 -232q0 -150 -89 -233q-88 -82 -223 -82q-116 0 -205 58q-91 59 -186 163q-95 -104 -186 -163q-89 -58 -204 -58q-135 0 -223 82q-89 83 -89 233q0 149 89 232t223 83q120 0 220 -69q50 -35 86 -68q37 -35 84 -84q53 56 83 84q33 30 87 68
q100 69 221 69zM414 699q-82 0 -131.5 -48t-49.5 -132t49.5 -132t131.5 -48q73 0 138.5 43t151.5 137q-87 95 -152 137.5t-138 42.5zM1165 339q82 0 131 48t49 132t-49 132t-131 48q-74 0 -138.5 -42.5t-152.5 -137.5q86 -94 151.5 -137t139.5 -43z" />
    <glyph glyph-name="integral" unicode="&#x222b;" horiz-adv-x="1205" 
d="M246 -356q-82 0 -129.5 39.5t-47.5 105.5q0 55 33.5 89.5t84.5 34.5q48 0 80.5 -29t32.5 -77q0 -41 -26.5 -69.5t-61.5 -32.5q12 -2 23 -2q103 0 161 102q34 61 57 202q23 139 54 495q36 407 77 600q40 189 111 282q106 139 264 139q82 0 129.5 -39.5t47.5 -105.5
q0 -55 -33.5 -89.5t-84.5 -34.5q-48 0 -80.5 29t-32.5 77q0 41 26.5 69.5t61.5 32.5q-12 2 -23 2q-102 0 -161 -102q-34 -61 -57 -202q-22 -140 -54 -495q-36 -407 -77 -600q-41 -189 -111 -282q-106 -139 -264 -139z" />
    <glyph glyph-name="approxequal" unicode="&#x2248;" horiz-adv-x="1202" 
d="M973 908h144q0 -152 -72 -241q-72 -88 -205 -88q-62 0 -113 19q-53 20 -133 65q-71 40 -91 50q-68 38 -132 38q-137 0 -142 -179h-144q0 152 72 241t205 89q57 0 111 -20q59 -22 134 -65l90 -50q74 -38 133 -38q137 0 143 179zM973 467h144q0 -153 -72 -241t-205 -88
q-62 0 -113 19q-53 20 -133 65q-71 40 -91 50q-68 38 -132 38q-137 0 -142 -179h-144q0 152 72 241t205 89q57 0 111 -20q59 -22 134 -65l90 -50q74 -38 133 -38q137 0 143 179z" />
    <glyph glyph-name="notequal" unicode="&#x2260;" horiz-adv-x="1128" 
d="M566 667h-463v155h529l130 304h122l-130 -304h271v-155h-338l-126 -296h464v-155h-530l-130 -304h-122l130 304h-270v155h336z" />
    <glyph glyph-name="lessequal" unicode="&#x2264;" horiz-adv-x="1128" 
d="M1025 263l-922 396v170l922 397v-168l-734 -314l734 -314v-167zM1025 0h-922v156h922v-156z" />
    <glyph glyph-name="greaterequal" unicode="&#x2265;" horiz-adv-x="1128" 
d="M103 1226l922 -397v-170l-922 -396v167l734 314l-734 314v168zM103 156h922v-156h-922v156z" />
    <glyph glyph-name="dotmath" unicode="&#x22c5;" horiz-adv-x="394" 
d="M298 391h-195v255h195v-255z" />
    <glyph glyph-name="lozenge" unicode="&#x25ca;" horiz-adv-x="1185" 
d="M682 -344h-179l-482 882l482 882h179l482 -882zM592 -178l376 716l-376 716l-375 -716z" />
    <glyph glyph-name="uniF638" unicode="&#xf638;" horiz-adv-x="1274" 
d="M124 421q-35 135 -35 289t35 289q77 286 275 395q106 58 238 58q133 0 237 -58q200 -109 275 -395q36 -133 36 -289t-36 -289q-75 -286 -275 -395q-104 -58 -237 -58q-132 0 -238 58q-198 109 -275 395zM998 710q0 258 -90 416l-493 -900q90 -99 222 -99q169 0 265 156
t96 427zM276 710q0 -262 89 -416l494 900q-90 99 -222 99q-169 0 -265 -156t-96 -427z" />
    <glyph glyph-name="commaaccent" unicode="&#xf6c3;" horiz-adv-x="358" 
d="M204 -512h-102l59 183h-62v201h160v-174q0 -54 -20 -111z" />
    <glyph glyph-name="centsuperior" unicode="&#xf6e0;" horiz-adv-x="675" 
d="M369 501h-62v96q-116 10 -183 94q-66 84 -66 215q0 132 66 214q66 85 183 95v96h62v-95q96 -8 161 -69.5t85 -161.5h-124q-14 54 -46.5 87.5t-77.5 41.5v-415q46 8 78.5 41.5t45.5 87.5h124q-18 -101 -85 -162q-66 -61 -161 -69v-96zM181 906q0 -88 34 -141t94 -65v413
q-60 -12 -94 -65t-34 -142z" />
    <glyph glyph-name="dollarsuperior" unicode="&#xf6e4;" horiz-adv-x="733" 
d="M397 497h-62v96q-132 7 -207 75t-75 176h132q0 -63 40.5 -99.5t111.5 -43.5v272q-69 17 -87 23q-36 12 -72 28q-40 19 -62 40q-51 53 -51 134q0 105 75 168q74 63 195 71v96h62v-96q122 -9 195 -76q74 -68 74 -169h-125q0 55 -39.5 92t-106.5 45v-255q16 -4 51 -13
q36 -9 50 -13q37 -10 91 -39q16 -8 28.5 -19t19.5 -20t19 -26q26 -37 26 -103q0 -103 -73 -172q-73 -68 -210 -76v-96zM547 834q0 52 -34 77q-35 26 -118 48v-258q70 5 111 39t41 94zM194 1204q0 -46 31 -70t112 -46v242q-66 -5 -104.5 -38.5t-38.5 -87.5z" />
    <glyph glyph-name="apple" unicode="&#xf8ff;" horiz-adv-x="972" 
d="M869 327h-766v766h766v-766zM511 842v-264h171v32h-133v84h107v32h-107v84h133v32h-171zM358 842l-96 -264h39l23 63h102l23 -63h39l-96 264h-34zM416 673h-82l41 112z" />
    <glyph glyph-name="NULL" horiz-adv-x="0" 
 />
    <glyph glyph-name="CR" horiz-adv-x="666" 
 />
    <glyph glyph-name="Aringacute.alt2" horiz-adv-x="1272" 
d="M843 1531q0 -109 -98 -156l529 -1375h-192l-132 358h-627l-131 -358h-194l528 1376q-47 21 -72 62t-25 93q0 79 56 128.5t151 49.5t151 -49.5t56 -128.5zM893 512l-257 699l-256 -699h513zM913 1996l-225 -198h-133l172 198h186zM707 1600q-25 27 -71 27q-45 0 -72 -27
q-26 -28 -26 -69t26 -69q27 -27 72 -27q46 0 71 27q27 27 27 69t-27 69z" />
    <glyph glyph-name="altogonek" horiz-adv-x="574" 
d="M300 -461q-101 0 -157 44t-56 120q0 60 36 120.5t93 106.5q109 86 193 118h101q-112 -60 -194 -131q-98 -90 -98 -183q0 -53 33 -81.5t96 -28.5q37 0 73.5 11.5t54.5 24.5l16 11v-76l-21 -15q-12 -9 -64 -25q-48 -16 -106 -16z" />
    <glyph glyph-name="acute.cap" horiz-adv-x="611" 
d="M329 1804h198l-290 -266h-138z" />
    <glyph glyph-name="altcedilla" horiz-adv-x="698" 
d="M391 -117q91 0 155 -42q65 -44 65 -127q0 -88 -73 -131q-74 -44 -192 -44q-72 0 -136 18q-60 16 -87 31q-23 14 -36 24l27 70q4 -4 31 -20q21 -12 74 -28q51 -15 102 -15q69 0 106.5 25.5t37.5 73.5q0 46 -34 73t-94 27q-58 0 -87 -20l-10 -6l-50 27l172 229h89
l-129 -171q32 6 69 6z" />
    <glyph glyph-name="anoteleia.cap" horiz-adv-x="401" 
d="M298 582h-195v255h195v-255z" />
    <glyph glyph-name="approxequal.cap" horiz-adv-x="1202" 
d="M973 657h144q0 -153 -72 -241t-205 -88q-62 0 -113 19q-53 20 -133 65q-71 40 -91 50q-68 38 -132 38q-137 0 -142 -179h-144q0 153 72 241q72 89 205 89q57 0 111 -20q59 -22 134 -65l90 -50q74 -38 133 -38q137 0 143 179zM973 1098h144q0 -152 -72 -241
q-72 -88 -205 -88q-62 0 -113 19q-53 20 -133 65q-71 40 -91 50q-68 38 -132 38q-137 0 -142 -179h-144q0 153 72 241q72 89 205 89q57 0 111 -20q59 -22 134 -65l90 -50q74 -38 133 -38q137 0 143 179z" />
    <glyph glyph-name="approxequal.lt" 
d="M1006 908h144q0 -152 -72 -241q-72 -88 -205 -88q-62 0 -113 19q-53 20 -133 65q-71 40 -91 50q-68 38 -132 38q-137 0 -142 -179h-144q0 152 72 241t205 89q57 0 111 -20q59 -22 134 -65l90 -50q74 -38 133 -38q137 0 143 179zM1006 467h144q0 -153 -72 -241t-205 -88
q-62 0 -113 19q-53 20 -133 65q-71 40 -91 50q-68 38 -132 38q-137 0 -142 -179h-144q0 152 72 241t205 89q57 0 111 -20q59 -22 134 -65l90 -50q74 -38 133 -38q137 0 143 179z" />
    <glyph glyph-name="asciitilde.cap" horiz-adv-x="1202" 
d="M973 878h144q0 -152 -72 -241q-72 -88 -205 -88q-62 0 -113 19q-53 20 -133 65q-71 40 -91 50q-68 38 -132 38q-137 0 -142 -179h-144q0 152 72 241t205 89q57 0 111 -20q59 -22 134 -65l90 -50q74 -38 133 -38q137 0 143 179z" />
    <glyph glyph-name="at.cap" horiz-adv-x="1588" 
d="M807 -32q-326 0 -531 197q-203 197 -203 519q0 155 51.5 294t146.5 245q95 107 239 168t313 61q211 0 372 -92t245 -252t84 -364q3 -208 -88 -339t-254 -131q-172 0 -211 161q-72 -160 -245 -160q-136 0 -212 103t-76 284q0 207 94 343q95 137 250 137q153 0 208 -151
l10 125h134l-40 -478q-8 -98 -8 -135q0 -146 111 -146q99 0 165 104q67 103 67 279q0 178 -71 320q-71 143 -209 225q-138 84 -325 84q-150 0 -276.5 -55.5t-209.5 -152.5q-82 -96 -126 -219t-44 -258q0 -182 77 -325t223 -226q145 -82 339 -82q119 0 211 27q79 25 112 44
l14 8l41 -72q-17 -12 -63 -32q-35 -14 -77 -27q-103 -31 -238 -31zM798 1012q-93 0 -152 -98q-58 -97 -58 -244q0 -125 46.5 -195t125.5 -70q92 0 145 92q54 93 54 244q0 132 -42.5 201.5t-118.5 69.5z" />
    <glyph glyph-name="breve.cap" horiz-adv-x="736" 
d="M545 1793h104q-2 -50 -18.5 -94.5t-48.5 -82t-87 -59.5t-127 -22t-127 22t-87 59.5t-48.5 82t-18.5 94.5h103q6 -70 54.5 -111t123.5 -41t123.5 41t53.5 111z" />
    <glyph glyph-name="caron.cap" horiz-adv-x="826" 
d="M253 1804l159 -204l161 204h164l-247 -286h-155l-246 286h164z" />
    <glyph glyph-name="caronSlovak" horiz-adv-x="414" 
d="M209 1034h-110l82 386h150z" />
    <glyph glyph-name="circumflex.cap" horiz-adv-x="826" 
d="M737 1518h-164l-161 204l-159 -204h-164l246 286h155z" />
    <glyph glyph-name="colon.tab" horiz-adv-x="638" 
d="M417 0h-195v255h195v-255zM417 783h-195v255h195v-255z" />
    <glyph glyph-name="comma.tab" horiz-adv-x="638" 
d="M345 -238h-120l81 238h-84v255h195v-226q0 -65 -26 -140z" />
    <glyph glyph-name="dieresis.cap" horiz-adv-x="744" 
d="M645 1548h-158v224h158v-224zM99 1772h157v-224h-157v224z" />
    <glyph glyph-name="divide.cap" horiz-adv-x="1128" 
d="M1025 632h-922v156h922v-156zM661 180h-194v247h194v-247zM661 977h-194v247h194v-247z" />
    <glyph glyph-name="divide.lt" 
d="M1095 441h-922v156h922v-156zM731 -11h-194v247h194v-247zM731 786h-194v247h194v-247z" />
    <glyph glyph-name="dotaccent.cap" horiz-adv-x="358" 
d="M99 1772h160v-224h-160v224z" />
    <glyph glyph-name="dotbelow" horiz-adv-x="358" 
d="M99 -128h160v-224h-160v224z" />
    <glyph glyph-name="dotmath.cap" horiz-adv-x="401" 
d="M298 582h-195v255h195v-255z" />
    <glyph glyph-name="doublebar" horiz-adv-x="1013" 
d="M278 -275h-162v1925h162v-1925zM897 -275h-162v1925h162v-1925z" />
    <glyph glyph-name="doublegrave" horiz-adv-x="984" 
d="M885 1156h-135l-281 266h187zM498 1156h-135l-280 266h186z" />
    <glyph glyph-name="doublegrave.cap" horiz-adv-x="984" 
d="M885 1538h-135l-281 266h187zM498 1538h-135l-280 266h186z" />
    <glyph glyph-name="eight.dnom" horiz-adv-x="756" 
d="M666 611q0 -125 -132 -171q82 -27 126.5 -81t44.5 -131q0 -108 -85 -178q-84 -69 -242 -69t-243 69q-84 70 -84 178q0 77 44.5 131t126.5 81q-132 46 -132 171q0 96 80 156q79 60 208 60q128 0 208 -60t80 -156zM572 235q0 70 -51.5 110t-142.5 40t-142.5 -40t-51.5 -110
q0 -67 51.5 -107t142.5 -40t142.5 40t51.5 107zM217 599q0 -54 43 -85t118 -31t118 31t43 85q0 55 -44.5 88t-116.5 33t-116.5 -33t-44.5 -88z" />
    <glyph glyph-name="eight.numr" horiz-adv-x="756" 
d="M666 1222q0 -124 -132 -171q82 -27 126.5 -81t44.5 -131q0 -108 -85 -178q-84 -69 -242 -69t-243 69q-84 71 -84 178q0 77 44.5 131t126.5 81q-132 47 -132 171q0 96 80 156q79 60 208 60q128 0 208 -60t80 -156zM572 846q0 70 -51.5 110t-142.5 40t-142.5 -40
t-51.5 -110q0 -67 51.5 -107t142.5 -40t142.5 40t51.5 107zM217 1210q0 -54 43 -85t118 -31t118 31t43 85q0 55 -44.5 88t-116.5 33t-116.5 -33t-44.5 -88z" />
    <glyph glyph-name="eight.inf" horiz-adv-x="756" 
d="M666 361q0 -125 -132 -171q82 -27 126.5 -81t44.5 -131q0 -108 -85 -177q-83 -70 -242 -70q-158 0 -243 70q-84 69 -84 177q0 77 44.5 131t126.5 81q-132 46 -132 171q0 96 80 156q79 60 208 60q128 0 208 -60t80 -156zM572 -15q0 70 -51.5 110t-142.5 40t-142.5 -40
t-51.5 -110q0 -67 51.5 -107t142.5 -40t142.5 40t51.5 107zM217 349q0 -54 43 -85t118 -31t118 31t43 85q0 55 -44.5 88t-116.5 33t-116.5 -33t-44.5 -88z" />
    <glyph glyph-name="eight.lt" 
d="M1126 1061q0 -215 -215 -299q137 -48 211.5 -142.5t74.5 -226.5q0 -178 -136 -299q-142 -126 -427 -126t-427 126q-136 121 -136 299q0 132 74.5 226.5t211.5 142.5q-215 84 -215 299q0 171 134 281t358 110t358 -110t134 -281zM1009 403q0 132 -102 207q-101 76 -273 76
t-273 -76q-102 -75 -102 -207q0 -125 96 -203q97 -78 279 -78t278 78q97 78 97 203zM319 1050q0 -108 81.5 -167.5t233.5 -59.5t233.5 59.5t81.5 167.5q0 114 -85 181q-86 68 -230 68t-230 -68q-85 -67 -85 -181z" />
    <glyph glyph-name="emdash.cap" horiz-adv-x="1520" 
d="M1417 632h-1314v156h1314v-156z" />
    <glyph glyph-name="endash.cap" horiz-adv-x="1096" 
d="M993 632h-890v156h890v-156z" />
    <glyph glyph-name="equal.cap" horiz-adv-x="1128" 
d="M1025 858h-922v155h922v-155zM1025 407h-922v155h922v-155z" />
    <glyph glyph-name="equal.lt" 
d="M1095 667h-922v155h922v-155zM1095 216h-922v155h922v-155z" />
    <glyph glyph-name="exclamdown.cap" horiz-adv-x="404" 
d="M288 0h-173v508l34 521h105l34 -521v-508zM299 1165h-195v255h195v-255z" />
    <glyph glyph-name="figuredash.cap" horiz-adv-x="1096" 
d="M993 632h-890v156h890v-156z" />
    <glyph glyph-name="five.dnom" horiz-adv-x="735" 
d="M628 809v-114h-386l-30 -203q74 68 189 68q124 0 201 -80t77 -207q0 -133 -82 -212q-83 -80 -228 -80q-143 0 -227 75q-83 75 -83 193h131q0 -73 52 -116q52 -42 128 -42q82 0 130 52t48 135t-49 135q-48 54 -129 54q-63 0 -106 -28t-56 -55l-6 -9h-127l67 434h486z" />
    <glyph glyph-name="five.numr" horiz-adv-x="735" 
d="M628 1420v-114h-386l-30 -203q74 68 189 68q124 0 201 -80t77 -207q0 -133 -82 -212q-83 -80 -228 -80q-143 0 -227 75q-83 75 -83 193h131q0 -73 52 -116q52 -42 128 -42q82 0 130 52t48 135t-49 135q-48 54 -129 54q-63 0 -105 -27.5t-57 -54.5l-6 -10h-127l67 434h486
z" />
    <glyph glyph-name="five.inf" horiz-adv-x="735" 
d="M628 559v-114h-386l-30 -203q74 68 189 68q124 0 201 -80t77 -207q0 -133 -82 -212q-83 -80 -228 -80q-143 0 -227 75q-83 75 -83 193h131q0 -73 52 -115q52 -43 128 -43q82 0 130 52t48 135t-49 135q-48 54 -129 54q-63 0 -106 -28t-56 -55l-6 -9h-127l67 434h486z" />
    <glyph glyph-name="five.lt" 
d="M1079 1420v-161h-684l-64 -419q136 148 350 148q221 0 354 -144q133 -143 133 -365q0 -229 -143 -370q-142 -141 -389 -141q-241 0 -386 130t-145 337h187q0 -99 50 -173q97 -139 297 -139q164 0 254 102q91 103 91 259q0 160 -94 261q-93 103 -250 103q-128 0 -215 -65
q-72 -53 -99 -99l-11 -19h-181l118 755h827z" />
    <glyph glyph-name="four.dnom" horiz-adv-x="765" 
d="M458 166h-406v112l392 531h147v-535h124v-108h-124v-166h-133v166zM458 659l-277 -385h277v385z" />
    <glyph glyph-name="four.numr" horiz-adv-x="765" 
d="M458 777h-406v112l392 531h147v-535h124v-108h-124v-166h-133v166zM458 1270l-277 -385h277v385z" />
    <glyph glyph-name="four.inf" horiz-adv-x="765" 
d="M458 -84h-406v112l392 531h147v-535h124v-108h-124v-166h-133v166zM458 409l-277 -385h277v385z" />
    <glyph glyph-name="four.lt" 
d="M791 302h-725v165l707 953h203v-963h234v-155h-234v-302h-185v302zM791 1203l-541 -746h541v746z" />
    <glyph glyph-name="grave.cap" horiz-adv-x="611" 
d="M512 1538h-138l-290 266h198z" />
    <glyph glyph-name="greater.cap" horiz-adv-x="1108" 
d="M99 1192l922 -397v-170l-922 -396v167l734 314l-734 314v168z" />
    <glyph glyph-name="greater.lt" 
d="M179 1001l922 -397v-170l-922 -396v167l734 314l-734 314v168z" />
    <glyph glyph-name="greaterequal.cap" horiz-adv-x="1128" 
d="M103 1323l922 -397v-170l-922 -396v167l734 314l-734 314v168zM103 253h922v-156h-922v156z" />
    <glyph glyph-name="greaterequal.lt" 
d="M173 1226l922 -397v-170l-922 -396v167l734 314l-734 314v168zM173 156h922v-156h-922v156z" />
    <glyph glyph-name="guillemotleft.cap" horiz-adv-x="1160" 
d="M564 412v-207l-471 415v180l471 415v-207l-357 -298zM1055 412v-207l-471 415v180l471 415v-207l-357 -298z" />
    <glyph glyph-name="guillemotright.cap" horiz-adv-x="1160" 
d="M576 800v-180l-471 -415v207l357 298l-357 298v207zM1067 800v-180l-471 -415v207l357 298l-357 298v207z" />
    <glyph glyph-name="guilsinglleft.cap" horiz-adv-x="669" 
d="M564 412v-207l-471 415v180l471 415v-207l-357 -298z" />
    <glyph glyph-name="guilsinglright.cap" horiz-adv-x="669" 
d="M576 800v-180l-471 -415v207l357 298l-357 298v207z" />
    <glyph glyph-name="hcircumflex.alt2" horiz-adv-x="1128" 
d="M1021 0h-174v619q0 156 -62 227t-186 71q-152 0 -234 -107.5t-82 -308.5v-501h-174v1420h174v-574q90 218 368 218q370 0 370 -409v-655zM847 1518h-164l-161 204l-159 -204h-164l246 286h155z" />
    <glyph glyph-name="hungarumlaut.cap" horiz-adv-x="984" 
d="M328 1804h187l-281 -266h-135zM715 1804h186l-280 -266h-135z" />
    <glyph glyph-name="hyphen.cap" horiz-adv-x="744" 
d="M641 632h-538v156h538v-156z" />
    <glyph glyph-name="infinity.cap" horiz-adv-x="1579" 
d="M1180 1025q134 0 223 -83t89 -232q0 -150 -89 -233q-88 -82 -223 -82q-116 0 -205 58q-91 59 -186 163q-95 -104 -186 -163q-89 -58 -204 -58q-135 0 -223 82q-89 83 -89 233q0 149 89 232t223 83q120 0 220 -69q50 -35 86 -68q37 -34 84 -84q53 56 83 84q33 30 87 68
q100 69 221 69zM414 890q-82 0 -131.5 -48t-49.5 -132t49.5 -132t131.5 -48q73 0 138.5 43t151.5 137q-87 95 -152 137.5t-138 42.5zM1165 530q82 0 131 48t49 132t-49 132t-131 48q-74 0 -138.5 -42.5t-152.5 -137.5q86 -94 151.5 -137t139.5 -43z" />
    <glyph glyph-name="invertedbreve" horiz-adv-x="736" 
d="M190 1153h-103q2 50 18.5 94.5t48.5 82t87 59.5t127 22t127 -22t87 -59.5t48.5 -82t18.5 -94.5h-104q-5 70 -53.5 111t-123.5 41t-123.5 -41t-54.5 -111z" />
    <glyph glyph-name="invertedbreve.cap" horiz-adv-x="736" 
d="M190 1535h-103q2 50 18.5 94.5t48.5 82t87 59.5t127 22t127 -22t87 -59.5t48.5 -82t18.5 -94.5h-104q-5 70 -53.5 111t-123.5 41t-123.5 -41t-54.5 -111z" />
    <glyph glyph-name="less.cap" horiz-adv-x="1108" 
d="M1009 229l-922 396v170l922 397v-168l-734 -314l734 -314v-167z" />
    <glyph glyph-name="less.lt" 
d="M1089 38l-922 396v170l922 397v-168l-734 -314l734 -314v-167z" />
    <glyph glyph-name="lessequal.cap" horiz-adv-x="1128" 
d="M1025 360l-922 396v170l922 397v-168l-734 -314l734 -314v-167zM1025 97h-922v156h922v-156z" />
    <glyph glyph-name="lessequal.lt" 
d="M1095 263l-922 396v170l922 397v-168l-734 -314l734 -314v-167zM1095 0h-922v156h922v-156z" />
    <glyph glyph-name="logicalnot.cap" horiz-adv-x="1128" 
d="M868 818h-765v156h922v-602h-157v446z" />
    <glyph glyph-name="macron.cap" horiz-adv-x="757" 
d="M658 1604h-559v118h559v-118z" />
    <glyph glyph-name="minus.cap" horiz-adv-x="1128" 
d="M1025 632h-922v156h922v-156z" />
    <glyph glyph-name="minus.lt" 
d="M1095 441h-922v156h922v-156z" />
    <glyph glyph-name="multiply.cap" horiz-adv-x="1039" 
d="M519 602l-309 -309l-107 108l309 309l-309 309l107 107l309 -309l310 310l107 -108l-309 -309l309 -309l-108 -108z" />
    <glyph glyph-name="multiply.lt" 
d="M634 411l-309 -309l-107 108l309 309l-309 309l107 107l309 -309l310 310l107 -108l-309 -309l309 -309l-108 -108z" />
    <glyph glyph-name="nine.dnom" horiz-adv-x="755" 
d="M356 90q86 0 139 74q52 73 63 197q-65 -114 -220 -114q-122 0 -202 78q-79 78 -79 207q0 134 84 214q84 81 218 81q100 0 177 -48q148 -85 151 -351q0 -195 -86 -322q-86 -125 -245 -125q-121 0 -191 67q-72 69 -88 152h138q14 -48 49.5 -79t91.5 -31zM543 535
q0 20 -1 25q-23 78 -71 117t-107 39q-78 0 -127 -51q-50 -52 -50 -139q0 -84 49 -134.5t130 -50.5q78 0 128 54q49 55 49 140z" />
    <glyph glyph-name="six.numr" horiz-adv-x="755" 
d="M399 1329q-86 0 -139 -74q-52 -73 -63 -197q65 114 220 114q123 0 202 -78t79 -207q0 -134 -84 -215q-85 -80 -218 -80q-100 0 -178 47q-149 89 -150 352q0 197 85 321q85 126 246 126q120 0 191 -68q72 -69 88 -151h-138q-14 48 -49.5 79t-91.5 31zM212 884q0 -20 1 -25
q23 -78 71 -117t107 -39q77 0 127 51q50 52 50 139q0 84 -49 134.5t-130 50.5q-79 0 -128 -55q-49 -53 -49 -139z" />
    <glyph glyph-name="nine.inf" horiz-adv-x="755" 
d="M356 -160q86 0 139 74q52 73 63 197q-65 -114 -220 -114q-122 0 -202 78q-79 78 -79 207q0 135 84 214q84 81 218 81q100 0 177 -48q148 -85 151 -351q0 -196 -86 -321q-85 -126 -245 -126q-120 0 -191 68q-72 69 -88 151h138q14 -48 49.5 -79t91.5 -31zM543 285
q0 20 -1 25q-23 78 -71 117t-107 39q-78 0 -127 -51q-50 -52 -50 -139q0 -84 49 -134.5t130 -50.5q78 0 128 54q49 55 49 140z" />
    <glyph glyph-name="nine.lt" 
d="M589 123q176 0 283 158q106 157 117 412q-40 -118 -148 -195q-106 -76 -273 -76q-214 0 -349 141t-135 370q0 237 146 378q147 141 376 141q54 0 105 -9q120 -19 213 -85q110 -76 170 -215q70 -151 70 -389q0 -347 -145 -562q-72 -107 -182 -165.5t-246 -58.5
q-172 0 -289 88q-75 57 -121 136t-62 158h194q20 -69 57 -120q79 -107 219 -107zM958 942q0 32 -5 70q-50 158 -153 224q-92 60 -191 60q-148 0 -245 -100q-96 -100 -96 -268q0 -164 93 -262q95 -98 250 -98t251 105q96 107 96 269z" />
    <glyph glyph-name="nine.numr" horiz-adv-x="755" 
d="M356 701q86 0 139 74q52 73 63 197q-65 -114 -220 -114q-122 0 -202 78q-79 78 -79 207q0 135 84 214q84 81 218 81q100 0 177 -48q148 -85 151 -351q0 -195 -86 -322q-86 -125 -245 -125q-121 0 -191 67q-72 69 -88 152h138q14 -48 49.5 -79t91.5 -31zM543 1146
q0 20 -1 25q-23 78 -71 117t-107 39q-78 0 -127 -51q-50 -52 -50 -139q0 -84 49 -134.5t130 -50.5q78 0 128 54q49 55 49 140z" />
    <glyph glyph-name="notequal.cap" horiz-adv-x="1128" 
d="M566 858h-463v155h529l130 304h122l-130 -304h271v-155h-338l-126 -296h464v-155h-530l-130 -304h-122l130 304h-270v155h336z" />
    <glyph glyph-name="notequal.lt" 
d="M636 667h-463v155h529l130 304h122l-130 -304h271v-155h-338l-126 -296h464v-155h-530l-130 -304h-122l130 304h-270v155h336z" />
    <glyph glyph-name="numero.alt3" horiz-adv-x="2338" 
d="M2236 90h-817v139h817v-139zM2223 1183q52 -117 52 -267t-52.5 -268.5t-154.5 -189.5q-103 -71 -240 -71t-241 71q-101 71 -154 191q-52 117 -52 267t52.5 268.5t153.5 188.5q103 72 241 72t240 -72q101 -69 155 -190zM2029 636q74 110 74 280t-74 279q-73 109 -201 109
t-201 -109q-74 -109 -74 -279t74 -280q73 -108 201 -108t201 108zM1224 0h-171l-752 1102v-1102h-186v1420h170l752 -1102v1102h187v-1420z" />
    <glyph glyph-name="one.dnom" horiz-adv-x="481" 
d="M55 492v114q99 1 155 60q55 58 66 143h110v-809h-132v578q-59 -86 -199 -86z" />
    <glyph glyph-name="one.numr" horiz-adv-x="481" 
d="M55 1103v114q99 1 155 60q55 58 66 143h110v-809h-132v578q-59 -86 -199 -86z" />
    <glyph glyph-name="one.inf" horiz-adv-x="481" 
d="M55 242v114q99 1 155 60q55 58 66 143h110v-809h-132v578q-59 -86 -199 -86z" />
    <glyph glyph-name="one.lt" 
d="M305 894v162q186 5 283 119q86 103 103 245h152v-1420h-186v1057q-103 -163 -352 -163z" />
    <glyph glyph-name="two.numr" horiz-adv-x="682" 
d="M486 1182q0 64 -40.5 103.5t-105.5 39.5q-69 0 -109.5 -46t-40.5 -124v-24h-130v25q0 131 75 206q75 76 206 76q123 0 200 -68t77 -182q0 -66 -27 -119q-13 -26 -29.5 -47t-40 -40t-41 -31.5t-49.5 -33.5q-47 -29 -98 -57q-48 -25 -87 -61.5t-56 -74.5h436v-113h-566v29
q0 123 67 196q37 40 72 66q34 26 100 67l63 39l48 36q30 23 43 41q33 47 33 97z" />
    <glyph glyph-name="period.tab" horiz-adv-x="638" 
d="M417 0h-195v255h195v-255z" />
    <glyph glyph-name="periodcentered.cap" horiz-adv-x="394" 
d="M298 582h-195v255h195v-255z" />
    <glyph glyph-name="plus.cap" horiz-adv-x="1128" 
d="M486 632h-383v156h383v387h156v-387h383v-156h-383v-387h-156v387z" />
    <glyph glyph-name="plus.lt" 
d="M556 441h-383v156h383v387h156v-387h383v-156h-383v-387h-156v387z" />
    <glyph glyph-name="plusminus.cap" horiz-adv-x="1128" 
d="M486 743h-383v155h383v376h156v-376h383v-155h-383v-309h-156v309zM1025 147h-922v156h922v-156z" />
    <glyph glyph-name="plusminus.lt" 
d="M556 596h-383v155h383v376h156v-376h383v-155h-383v-309h-156v309zM1095 0h-922v156h922v-156z" />
    <glyph glyph-name="questiondown.cap" horiz-adv-x="1013" 
d="M47 406q-1 106 40 179t111 131q16 14 73.5 60t83.5 71q76 74 76 182h161q0 -188 -143 -307q-15 -12 -51 -41t-53 -43.5t-43.5 -43.5t-39.5 -53.5t-23 -60.5t-10 -76q0 -130 82 -206t204 -76q127 0 203 82q78 82 81 226v19h178v-31q-2 -221 -142 -339q-131 -111 -322 -111
q-127 0 -233 50q-104 50 -169 151q-64 100 -64 237zM414 1420h195v-255h-195v255z" />
    <glyph glyph-name="registered.cap" horiz-adv-x="1583" 
d="M791 1446q148 0 278.5 -53t226.5 -150q97 -97 150.5 -235t53.5 -298t-53.5 -298.5t-150.5 -235.5q-96 -96 -226.5 -149t-278.5 -53q-146 0 -277 53t-227 149q-97 97 -150.5 235.5t-53.5 298.5t53.5 298t150.5 235q96 97 226.5 150t277.5 53zM791 44q177 0 322 83
q145 84 227 237q83 154 83 346t-83 346q-83 153 -227 236q-144 84 -322 84q-132 0 -248.5 -48.5t-201.5 -136.5q-85 -87 -133 -212.5t-48 -268.5t48 -268.5t133 -213.5q85 -87 202 -135.5t248 -48.5zM507 1116h343q124 0 193 -62.5t69 -179.5q0 -90 -40.5 -150t-115.5 -85
l181 -323h-126l-166 308h-223v-308h-115v800zM842 1015h-220v-289h220q156 0 156 147q0 142 -156 142z" />
    <glyph glyph-name="ring.cap" horiz-adv-x="592" 
d="M144 1819q56 50 152 50q95 0 151 -50t56 -128t-56 -128t-151 -50q-96 0 -152 50q-55 49 -55 128t55 128zM367 1760q-25 27 -71 27q-45 0 -72 -27q-26 -28 -26 -69t26 -69q27 -27 72 -27q46 0 71 27q27 27 27 69t-27 69z" />
    <glyph glyph-name="semicolon.tab" horiz-adv-x="638" 
d="M345 -238h-120l81 238h-84v255h195v-226q0 -65 -26 -140zM417 783h-195v255h195v-255z" />
    <glyph glyph-name="seven.dnom" horiz-adv-x="709" 
d="M312 0h-148q15 109 50 220q35 104 74 181q36 70 84 140q44 65 74 99q29 32 52 55h-437v114h582v-103q-2 -2 -7.5 -7t-11 -10.5t-10.5 -11.5q-22 -26 -66 -86q-51 -70 -90 -143q-40 -74 -84 -197q-43 -125 -62 -251z" />
    <glyph glyph-name="seven.numr" horiz-adv-x="709" 
d="M312 611h-148q15 109 50 220q35 104 74 181q36 70 84 140q44 65 74 99q29 31 52 55h-437v114h582v-103q-2 -2 -7.5 -7t-11 -10.5t-10.5 -11.5q-22 -26 -66 -86q-51 -70 -90 -143q-40 -74 -84 -197q-43 -125 -62 -251z" />
    <glyph glyph-name="seven.inf" horiz-adv-x="709" 
d="M312 -250h-148q15 109 50 220q35 104 74 181q36 70 84 140q44 65 74 99q29 31 52 55h-437v114h582v-103l-29 -29q-22 -26 -66 -86q-51 -70 -90 -143q-40 -74 -84 -197q-43 -125 -62 -251z" />
    <glyph glyph-name="seven.lt" 
d="M532 0h-208q21 151 61 292q41 148 85 256q46 114 103 220q50 93 106 182q44 67 102 143q62 79 83 102q2 2 23.5 26t32.5 36h-790v163h998v-146q-10 -9 -27 -27q-17 -19 -68 -80q-43 -52 -100 -133q-47 -69 -112 -184q-61 -109 -115 -234q-52 -120 -100 -284
q-49 -165 -74 -332z" />
    <glyph glyph-name="six.dnom" horiz-adv-x="755" 
d="M399 718q-86 0 -139 -74q-52 -73 -63 -197q65 114 220 114q123 0 202 -78t79 -207q0 -134 -84 -215q-85 -80 -218 -80q-100 0 -178 47q-149 89 -150 352q0 197 85 321q85 126 246 126q120 0 191 -68q72 -69 88 -151h-138q-14 48 -49.5 79t-91.5 31zM212 273q0 -20 1 -25
q23 -78 71 -117t107 -39q77 0 127 51q50 52 50 139q0 84 -49 134.5t-130 50.5q-79 0 -128 -55q-49 -53 -49 -139z" />
    <glyph glyph-name="six.inf" horiz-adv-x="755" 
d="M399 468q-86 0 -139 -74q-52 -73 -63 -197q65 114 220 114q123 0 202 -78t79 -207q0 -134 -84 -214q-84 -81 -218 -81q-100 0 -178 48q-68 40 -108.5 127.5t-41.5 223.5q0 197 85 321q85 126 246 126q120 0 191 -68q72 -69 88 -151h-138q-14 48 -49.5 79t-91.5 31z
M212 23q0 -20 1 -25q23 -78 71 -117t107 -39q77 0 127 51q50 52 50 139q0 84 -49 134.5t-130 50.5q-79 0 -128 -55q-49 -53 -49 -139z" />
    <glyph glyph-name="six.lt" 
d="M679 1297q-177 0 -284 -158q-105 -156 -116 -412q40 117 147 194t274 77q214 0 349 -141t135 -370q0 -237 -147 -378q-145 -141 -375 -141q-54 0 -105 9q-119 19 -214 85q-105 74 -170 214q-69 160 -69 390q0 347 145 561q72 107 182 166t246 59q173 0 288 -88
q75 -56 121.5 -135t62.5 -159h-194q-21 71 -57 119q-77 108 -219 108zM310 478q0 -32 5 -70q50 -158 152 -224q94 -60 192 -60q148 0 244 100q97 100 97 268q0 165 -94 262q-93 98 -249 98q-155 0 -251 -106q-96 -105 -96 -268z" />
    <glyph glyph-name="space.frac" horiz-adv-x="104" 
 />
    <glyph glyph-name="space.tab" horiz-adv-x="630" 
 />
    <glyph glyph-name="space_uni0326" horiz-adv-x="358" 
d="M99 -128h160v-224h-160v224z" />
    <glyph glyph-name="three.dnom" horiz-adv-x="721" 
d="M361 -19q-148 0 -227 69.5t-79 202.5h133q0 -100 61 -135q51 -29 114 -29q85 0 129.5 39.5t44.5 102.5q0 62 -44 98t-113 36h-70v105h80q58 0 90 32.5t32 85.5q0 61 -43 96t-108 35q-70 0 -120 -44q-49 -43 -49 -126h-128q0 130 83 204q85 74 212 74q117 0 199 -62
q81 -61 81 -164q0 -63 -31.5 -109.5t-87.5 -68.5q151 -46 151 -198q0 -108 -80 -176t-230 -68z" />
    <glyph glyph-name="three.numr" horiz-adv-x="721" 
d="M361 592q-148 0 -227 69.5t-79 202.5h133q0 -100 61 -135q51 -29 114 -29q85 0 129.5 39.5t44.5 102.5q0 62 -44 98t-113 36h-70v105h80q58 0 90 32.5t32 85.5q0 61 -43 96t-108 35q-70 0 -120 -44q-49 -43 -49 -126h-128q0 130 83 204q85 74 212 74q117 0 199 -62
q81 -62 81 -164q0 -63 -31.5 -109.5t-87.5 -68.5q151 -46 151 -198q0 -108 -80 -176t-230 -68z" />
    <glyph glyph-name="three.inf" horiz-adv-x="721" 
d="M361 -269q-148 0 -227 69.5t-79 202.5h133q0 -100 61 -135q51 -29 114 -29q85 0 129.5 39.5t44.5 102.5q0 62 -44 98t-113 36h-70v105h80q58 0 90 32.5t32 85.5q0 61 -43 96t-108 35q-70 0 -120 -44q-49 -43 -49 -126h-128q0 130 83 204q85 74 212 74q117 0 199 -62
q81 -61 81 -164q0 -63 -31.5 -109.5t-87.5 -68.5q151 -46 151 -198q0 -108 -80 -176t-230 -68z" />
    <glyph glyph-name="three.lt" 
d="M634 -32q-250 0 -385 120t-135 351h187q0 -77 22 -137t58 -95q35 -34 81 -53q79 -31 174 -31q170 0 255 78q86 78 86 199q0 131 -88 198t-215 67h-125v142h144q113 0 177 63.5t64 169.5q0 124 -87 190q-85 67 -210 67q-131 0 -226 -78q-102 -83 -102 -252h-179
q0 153 68 265q68 110 179.5 165t255.5 55q133 0 238 -46q110 -47 174.5 -138.5t64.5 -210.5q0 -109 -54 -192.5t-149 -123.5q54 -17 98 -44t82 -67.5t59 -100.5t21 -134q0 -191 -138 -309q-137 -118 -395 -118z" />
    <glyph glyph-name="tilde.cap" horiz-adv-x="785" 
d="M377 1613q-51 28 -80 39q-24 10 -55 10q-48 0 -70 -28t-23 -93h-103q1 235 183 235q43 0 80 -13t99 -48q89 -50 135 -50q45 0 67.5 28t23.5 92h105q-2 -95 -39 -160q-44 -73 -147 -73q-41 0 -76 13q-34 13 -100 48z" />
    <glyph glyph-name="two.dnom" horiz-adv-x="682" 
d="M486 571q0 64 -40.5 103.5t-105.5 39.5q-69 0 -109.5 -46t-40.5 -124v-24h-130v25q0 131 75 206q75 76 206 76q123 0 200 -68t77 -182q0 -67 -27 -119q-13 -26 -29.5 -47t-40 -40t-41 -31.5t-49.5 -33.5q-47 -29 -98 -57q-48 -25 -87 -61.5t-56 -74.5h436v-113h-566v29
q0 123 67 196q37 41 72 66q34 26 100 67l63 39l48 36q30 23 43 41q33 47 33 97z" />
    <glyph glyph-name="two.inf" horiz-adv-x="682" 
d="M486 321q0 64 -40.5 103.5t-105.5 39.5q-69 0 -109.5 -46t-40.5 -124v-24h-130v25q0 131 75 206q75 76 206 76q123 0 200 -68t77 -182q0 -67 -27 -119q-13 -26 -29.5 -47t-40 -40t-41 -31.5t-49.5 -33.5q-53 -33 -98 -56q-48 -26 -87 -62.5t-56 -74.5h436v-113h-566v29
q0 123 67 197q39 41 72 65q34 26 100 67l63 39l48 36q30 23 43 41q33 47 33 97z" />
    <glyph glyph-name="two.lt" 
d="M923 1007q0 129 -80 207q-79 79 -209 79q-139 0 -218 -91q-79 -89 -79 -242v-41h-183v43q0 228 129 358q129 132 353 132q213 0 343 -118q131 -119 131 -316q0 -105 -37 -189q-34 -79 -91 -137.5t-142 -116.5q-53 -36 -156.5 -96t-144.5 -87q-160 -102 -199 -230h783
v-162h-969v45q0 150 69 262q31 52 84 100q60 53 107 87q58 41 134 87q169 104 229 153q123 102 142 217q4 25 4 56z" />
    <glyph glyph-name="uni2011.cap" horiz-adv-x="744" 
d="M641 632h-538v156h538v-156z" />
    <glyph glyph-name="uni2015.cap" horiz-adv-x="1520" 
d="M1417 632h-1314v156h1314v-156z" />
    <glyph glyph-name="zero.numr" horiz-adv-x="777" 
d="M69 1015q0 183 84 303t236 120q102 0 175 -58q144 -112 144 -365q3 -181 -83 -302.5t-236 -120.5q-152 0 -236 119q-84 120 -84 304zM389 705q87 0 137 82.5t50 227.5t-50 227t-137 82q-88 0 -138 -82t-50 -227t50 -227.5t138 -82.5z" />
    <glyph glyph-name="zero.dnom" horiz-adv-x="777" 
d="M69 404q0 183 84 303t236 120q102 0 175 -58q144 -112 144 -365q3 -181 -83 -302.5t-236 -120.5q-152 0 -236 119q-84 120 -84 304zM389 94q87 0 137 82.5t50 227.5t-50 227t-137 82q-88 0 -138 -82t-50 -227t50 -227.5t138 -82.5z" />
    <glyph glyph-name="zero.inf" horiz-adv-x="777" 
d="M69 154q0 183 84 303t236 120q102 0 175 -58q144 -112 144 -365q3 -181 -83 -302.5t-236 -120.5q-152 0 -236 120q-84 119 -84 303zM389 -156q87 0 137 82.5t50 227.5t-50 227t-137 82q-88 0 -138 -82t-50 -227t50 -227.5t138 -82.5z" />
    <glyph glyph-name="zero.lt" 
d="M121 421q-35 135 -35 289t35 289q77 286 275 395q106 58 238 58q133 0 237 -58q200 -109 275 -395q36 -133 36 -289t-36 -289q-75 -286 -275 -395q-104 -58 -237 -58q-132 0 -238 58q-198 109 -275 395zM899 283q96 156 96 427t-96 427t-265 156t-265 -156t-96 -427
t96 -427t265 -156t265 156z" />
    <glyph glyph-name="zero_slash.lt" 
d="M121 421q-35 135 -35 289t35 289q77 286 275 395q106 58 238 58q133 0 237 -58q200 -109 275 -395q36 -133 36 -289t-36 -289q-75 -286 -275 -395q-104 -58 -237 -58q-132 0 -238 58q-198 109 -275 395zM995 710q0 258 -90 416l-493 -900q90 -99 222 -99q169 0 265 156
t96 427zM273 710q0 -262 89 -416l494 900q-90 99 -222 99q-169 0 -265 -156t-96 -427z" />
    <glyph glyph-name="R.alt" horiz-adv-x="1298" 
d="M301 567v-567h-186v1420h610q239 0 361 -107.5t122 -305.5q0 -125 -47 -217.5t-141 -141.5q171 -70 171 -280v-146q0 -138 40 -222h-196q-31 80 -31 235v118q0 142 -86 187q-52 27 -153 27h-464zM701 1259h-400v-541h460q126 0 191 67q26 28 43 67q26 59 26 135
q0 132 -80 202t-240 70z" />
    <glyph glyph-name="Racute.alt" horiz-adv-x="1298" 
d="M301 567v-567h-186v1420h610q239 0 361 -107.5t122 -305.5q0 -125 -47 -217.5t-141 -141.5q171 -70 171 -280v-146q0 -138 40 -222h-196q-31 80 -31 235v118q0 142 -86 187q-52 27 -153 27h-464zM701 1259h-400v-541h460q126 0 191 67q26 28 43 67q26 59 26 135
q0 132 -80 202t-240 70zM737 1804h198l-290 -266h-138z" />
    <glyph glyph-name="Rcaron.alt" horiz-adv-x="1298" 
d="M301 567v-567h-186v1420h610q239 0 361 -107.5t122 -305.5q0 -125 -47 -217.5t-141 -141.5q171 -70 171 -280v-146q0 -138 40 -222h-196q-31 80 -31 235v118q0 142 -86 187q-52 27 -153 27h-464zM701 1259h-400v-541h460q126 0 191 67q26 28 43 67q26 59 26 135
q0 132 -80 202t-240 70zM470 1804l159 -204l161 204h164l-247 -286h-155l-246 286h164z" />
    <glyph glyph-name="Rcommaaccent.alt" horiz-adv-x="1298" 
d="M301 567v-567h-186v1420h610q239 0 361 -107.5t122 -305.5q0 -125 -47 -217.5t-141 -141.5q171 -70 171 -280v-146q0 -138 40 -222h-196q-31 80 -31 235v118q0 142 -86 187q-52 27 -153 27h-464zM701 1259h-400v-541h460q126 0 191 67q26 28 43 67q26 59 26 135
q0 132 -80 202t-240 70zM694 -512h-102l59 183h-62v201h160v-174q0 -54 -20 -111z" />
    <glyph glyph-name="bracketleft.cap" horiz-adv-x="678" 
d="M595 -232h-492v1812h492v-142h-329v-1528h329v-142z" />
    <glyph glyph-name="bracketright.cap" horiz-adv-x="678" 
d="M83 1580h492v-1812h-492v142h329v1528h-329v142z" />
    <glyph glyph-name="braceleft.cap" horiz-adv-x="794" 
d="M528 1580h182v-142h-156q-64 0 -92.5 -30t-28.5 -103v-324q0 -250 -150 -307q150 -57 150 -307v-324q0 -73 28.5 -103t92.5 -30h156v-142h-182q-133 0 -195.5 67t-62.5 207v312q0 142 -47 195q-46 54 -155 54v142q108 0 155 53q47 55 47 196v312q0 140 62.5 207t195.5 67
z" />
    <glyph glyph-name="braceright.cap" horiz-adv-x="794" 
d="M240 1438h-156v142h182q133 0 195.5 -67t62.5 -207v-312q0 -141 47 -196q47 -53 155 -53v-142q-108 0 -155 -54q-47 -53 -47 -195v-312q0 -140 -62.5 -207t-195.5 -67h-182v142h156q64 0 92.5 30t28.5 103v324q0 250 150 307q-150 57 -150 307v324q0 73 -28.5 103
t-92.5 30z" />
    <glyph glyph-name="parenleft.cap" horiz-adv-x="504" 
d="M430 -192l20 -40h-165q0 1 -8.5 15t-13.5 24q-11 21 -47 113q-35 91 -60 185q-26 97 -48 252q-43 316 -1 632q21 149 50 255q61 215 107 298l21 38h165l-21 -41q-12 -27 -45 -117q-32 -90 -57 -189q-24 -93 -46 -251q-40 -301 -1 -615q20 -151 48 -254q55 -208 102 -305z
" />
    <glyph glyph-name="parenright.cap" horiz-adv-x="504" 
d="M240 -194l-21 -38h-165q9 16 20 41q14 27 45 117q31 84 58 188q25 99 45 251q42 309 1 615q-20 158 -47 255q-55 208 -102 305l-20 40h165l21 -39q15 -28 48 -113q34 -88 60 -186q27 -101 47 -252q44 -314 1 -631q-19 -145 -49 -256q-61 -214 -107 -297z" />
    </font>
</defs>
</svg>
