<?xml version="1.0" standalone="no"?>
<!DOCTYPE svg PUBLIC "-//W3C//DTD SVG 1.1//EN" "http://www.w3.org/Graphics/SVG/1.1/DTD/svg11.dtd" >
<svg>
<metadata>
Created by FontForge 20120731 at Tue Oct 27 02:17:23 2015
 By ,,,
Copyright 2012 AE Type. http://www.aetype.com. wf-rip
</metadata>
<defs>
<font id="Acronym-Light" horiz-adv-x="1262" >
  <font-face 
    font-family="Acronym Light"
    font-weight="300"
    font-stretch="normal"
    units-per-em="2000"
    panose-1="2 0 0 0 0 0 0 0 0 0"
    ascent="1556"
    descent="-444"
    x-height="1038"
    cap-height="1420"
    bbox="-310 -499 2461 2148"
    underline-thickness="70"
    underline-position="-20"
    unicode-range="U+0020-FB04"
  />
<missing-glyph horiz-adv-x="1057" 
d="M932 0h-807v1420h807v-1420zM906 1397h-755v-1374h755v1374z" />
    <glyph glyph-name="AE" unicode="AE" horiz-adv-x="2014" 
d="M1919 0h-895v402h-606l-278 -402h-148l999 1420h921v-114h-759v-539h661v-114h-661v-539h766v-114zM1024 1278l-527 -762h527v762z" />
    <glyph glyph-name="ae" unicode="ae" horiz-adv-x="1823" 
d="M240 763h-121q4 45 19 85.5t46.5 80.5t76.5 69.5t115 47.5t157 18q154 0 248 -56.5t129 -154.5q58 102 152.5 156.5t217.5 54.5q216 0 341 -149t125 -399l-1 -49h-805q14 -179 108 -285q95 -107 238 -107q95 0 171.5 49t122.5 139h136q-58 -139 -167 -213.5t-263 -74.5
q-143 0 -247.5 70.5t-158.5 199.5q-88 -270 -437 -270q-181 0 -272.5 74t-91.5 214q0 129 74 200q31 31 79 54q77 37 186 51q12 2 71 8l71 7q87 9 128 23q66 22 93 54q36 41 36 108q0 66 -57 124q-30 33 -89.5 52.5t-136.5 19.5q-129 0 -204 -52t-90 -149zM1286 964
q-145 0 -240 -110q-94 -109 -106 -287h681q-12 189 -104 293t-231 104zM561 488l-120 -18q-82 -12 -135 -36q-106 -49 -106 -164q0 -92 65 -143.5t190 -51.5q362 0 362 436v75q-49 -52 -158 -78q-41 -9 -98 -20z" />
    <glyph glyph-name="OE" unicode="OE" horiz-adv-x="2281" 
d="M756 -32q-190 -3 -342.5 91.5t-238 265.5t-83.5 385q-2 214 83.5 385t238 265.5t342.5 91.5q173 0 311 -81q138 -79 224 -225v274h888v-114h-759v-539h661v-114h-661v-539h766v-114h-895v273q-86 -146 -224 -225q-139 -80 -311 -80zM549 122q97 -43 207 -43t207 43
q205 94 285 322q43 120 43 266t-43 265q-81 232 -285 322q-97 44 -207 44t-207 -44q-204 -90 -286 -322q-42 -120 -42 -265q0 -144 42 -266q81 -228 286 -322z" />
    <glyph glyph-name="oe" unicode="oe" horiz-adv-x="1923" 
d="M1846 516l-1 -49h-805q14 -179 108 -285q95 -107 238 -107q95 0 171.5 49t122.5 139h136q-58 -139 -167 -213.5t-263 -74.5q-146 0 -251 71.5t-157 203.5q-57 -130 -166 -202.5t-250 -72.5q-224 0 -354 148q-129 149 -129 396t129 396q131 149 354 149q141 0 251 -74
q109 -74 165 -204q52 133 155.5 205.5t246.5 72.5q216 0 341 -149t125 -399zM562 964q-157 0 -259 -124q-102 -123 -102 -321t102 -321t259 -123q150 0 255 124q106 124 106 320t-106 320q-105 125 -255 125zM1386 964q-145 0 -240 -110q-94 -109 -106 -287h681
q-12 189 -104 293t-231 104z" />
    <glyph glyph-name="ff" unicode="ff" horiz-adv-x="1428" 
d="M396 0h-121v932h-228v106h228v88q0 157 66.5 229.5t205.5 72.5q57 0 110 -8l15 -3v-114q-75 11 -125 11q-84 0 -117.5 -42t-33.5 -146v-88h276v-106h-276v-932zM1110 0h-121v932h-207v106h207v88q0 157 66.5 229.5t205.5 72.5q57 0 110 -8l15 -3v-114q-75 11 -125 11
q-84 0 -117.5 -42t-33.5 -146v-88h276v-106h-276v-932z" />
    <glyph glyph-name="fi" unicode="fi" horiz-adv-x="1107" 
d="M396 0h-121v932h-228v106h228v88q0 157 66.5 229.5t205.5 72.5q57 0 110 -8l15 -3v-114q-75 11 -125 11q-84 0 -117.5 -42t-33.5 -146v-88h276v-106h-276v-932zM971 0h-121v1038h121v-1038zM845 1420h131v-193h-131v193z" />
    <glyph glyph-name="fl" unicode="fl" horiz-adv-x="1107" 
d="M396 0h-121v932h-228v106h228v88q0 157 66.5 229.5t205.5 72.5q57 0 110 -8l15 -3v-114q-75 11 -125 11q-84 0 -117.5 -42t-33.5 -146v-88h276v-106h-276v-932zM971 0h-121v1420h121v-1420z" />
    <glyph glyph-name="ffi" unicode="ffi" horiz-adv-x="1821" 
d="M396 0h-121v932h-228v106h228v88q0 157 66.5 229.5t205.5 72.5q57 0 110 -8l15 -3v-114q-75 11 -125 11q-84 0 -117.5 -42t-33.5 -146v-88h276v-106h-276v-932zM1110 0h-121v932h-207v106h207v88q0 157 66.5 229.5t205.5 72.5q57 0 110 -8l15 -3v-114q-75 11 -125 11
q-84 0 -117.5 -42t-33.5 -146v-88h276v-106h-276v-932zM1685 0h-121v1038h121v-1038zM1559 1420h131v-193h-131v193z" />
    <glyph glyph-name="ffl" unicode="ffl" horiz-adv-x="1821" 
d="M396 0h-121v932h-228v106h228v88q0 157 66.5 229.5t205.5 72.5q57 0 110 -8l15 -3v-114q-75 11 -125 11q-84 0 -117.5 -42t-33.5 -146v-88h276v-106h-276v-932zM1110 0h-121v932h-207v106h207v88q0 157 66.5 229.5t205.5 72.5q57 0 110 -8l15 -3v-114q-75 11 -125 11
q-84 0 -117.5 -42t-33.5 -146v-88h276v-106h-276v-932zM1685 0h-121v1420h121v-1420z" />
    <glyph glyph-name="ffj" unicode="ffj" horiz-adv-x="1821" 
d="M396 0h-121v932h-228v106h228v88q0 157 66.5 229.5t205.5 72.5q57 0 110 -8l15 -3v-114q-75 11 -125 11q-84 0 -117.5 -42t-33.5 -146v-88h276v-106h-276v-932zM1110 0h-121v932h-207v106h207v88q0 157 66.5 229.5t205.5 72.5q57 0 110 -8l15 -3v-114q-75 11 -125 11
q-84 0 -117.5 -42t-33.5 -146v-88h276v-106h-276v-932zM1685 1038v-1120q0 -300 -263 -300h-45v98h19q84 0 126 49.5t42 159.5v1113h121zM1559 1420h131v-193h-131v193z" />
    <glyph glyph-name="fj" unicode="fj" horiz-adv-x="1107" 
d="M396 0h-121v932h-228v106h228v88q0 157 66.5 229.5t205.5 72.5q57 0 110 -8l15 -3v-114q-75 11 -125 11q-84 0 -117.5 -42t-33.5 -146v-88h276v-106h-276v-932zM971 1038v-1120q0 -300 -263 -300h-45v98h19q84 0 126 49.5t42 159.5v1113h121zM845 1420h131v-193h-131v193
z" />
    <glyph glyph-name=".notdef" horiz-adv-x="1057" 
d="M932 0h-807v1420h807v-1420zM906 1397h-755v-1374h755v1374z" />
    <glyph glyph-name=".null" horiz-adv-x="0" 
 />
    <glyph glyph-name="nonmarkingreturn" horiz-adv-x="666" 
 />
    <glyph glyph-name="space" unicode=" " horiz-adv-x="375" 
 />
    <glyph glyph-name="exclam" unicode="!" horiz-adv-x="371" 
d="M148 362l-23 518v540h120v-540l-23 -518h-74zM257 0h-145v215h145v-215z" />
    <glyph glyph-name="quotedbl" unicode="&#x22;" horiz-adv-x="583" 
d="M162 987h-80v433h127zM462 987h-80v433h127z" />
    <glyph glyph-name="numbersign" unicode="#" horiz-adv-x="1265" 
d="M830 0h-110l55 411h-364l-55 -411h-110l55 411h-247l14 108h247l51 381h-247l14 108h248l55 412h110l-55 -412h364l55 412h110l-55 -412h246l-15 -108h-246l-51 -381h246l-14 -108h-246zM840 900h-364l-51 -381h364z" />
    <glyph glyph-name="dollar" unicode="$" horiz-adv-x="1186" 
d="M633 -199h-80v168q-215 12 -348 121q-134 110 -134 295h138q0 -137 96 -217q95 -77 248 -88v599q-12 3 -101 26q-35 9 -92 29q-61 22 -88 38q-95 53 -132 109q-49 79 -49 178q0 165 130 274q132 111 332 118v168h80v-168q201 -13 331 -127q129 -113 129 -281h-132
q0 121 -91 202q-90 81 -237 95v-563q193 -47 265 -78q155 -67 199 -194q18 -54 18 -122q0 -174 -131 -290q-130 -115 -351 -124v-168zM986 383q5 115 -90 183q-25 19 -71 36q-42 18 -86 30q-22 6 -106 28v-580q73 4 134.5 23t111.5 54t78.5 93t28.5 133zM220 1059
q0 -58 20 -97.5t65 -69.5q48 -31 101 -51q61 -21 147 -44v543q-147 -8 -240 -80q-93 -74 -93 -201z" />
    <glyph glyph-name="percent" unicode="%" horiz-adv-x="1697" 
d="M480 -32h-113l851 1484h112zM128 1320q89 116 241 116q151 0 240 -116t89 -306t-89 -306t-240 -116q-152 0 -241 116q-88 115 -88 306t88 306zM530 1252q-58 91 -161 91t-161 -91q-59 -92 -59 -238t59 -238q58 -91 161 -91t161 91q59 92 59 238t-59 238zM1087 712
q89 116 241 116q151 0 240 -116t89 -306t-89 -306t-240 -116q-152 0 -241 116q-88 115 -88 306t88 306zM1489 644q-58 91 -161 91t-161 -91q-59 -92 -59 -238t59 -238q58 -91 161 -91t161 91q59 92 59 238t-59 238z" />
    <glyph glyph-name="ampersand" unicode="&#x26;" horiz-adv-x="1304" 
d="M967 1133q-6 -138 -101 -222q-63 -56 -137 -95l-73 -36l-74 -31l412 -431q70 97 112 222t51 254h121q-12 -160 -62.5 -307t-135.5 -259l217 -228h-163l-134 140q-184 -172 -458 -172q-219 0 -349 106t-130 296q0 170 103 268q51 50 102 81q56 34 122 64q-87 97 -128 178
t-41 168q0 144 101 233q102 90 269 90q169 0 272 -91q104 -92 104 -228zM551 79q209 0 366 149l-449 472q-128 -58 -197 -126q-79 -78 -79 -203q0 -139 96 -216q95 -76 263 -76zM344 1128q0 -68 36 -136q37 -69 124 -162l107 45q34 15 84 41q48 26 67 43q87 72 82 168
q0 101 -65 157t-184 56q-121 0 -186 -56.5t-65 -155.5z" />
    <glyph glyph-name="quotesingle" unicode="'" horiz-adv-x="283" 
d="M162 987h-80v433h127z" />
    <glyph glyph-name="parenleft" unicode="(" horiz-adv-x="474" 
d="M391 -306l20 -38h-115q0 1 -8.5 15t-13.5 24q-15 28 -48 113q-32 82 -61 185q-26 99 -48 251q-43 317 -1 634q21 149 50 255q63 216 110 298l20 37h115l-21 -40q-8 -16 -47 -115q-34 -91 -59 -187q-24 -94 -46 -252q-43 -310 -1 -623q19 -150 48 -254q62 -219 106 -303z
" />
    <glyph glyph-name="parenright" unicode=")" horiz-adv-x="474" 
d="M198 -307l-20 -37h-115l21 40q11 20 46 115q31 79 59 187q26 101 47 251q43 313 1 623q-19 145 -49 255q-57 210 -105 303l-20 38h115l21 -39q15 -28 48 -113q37 -93 61 -185q27 -97 48 -252q45 -315 1 -633q-19 -150 -50 -255q-61 -214 -109 -298z" />
    <glyph glyph-name="asterisk" unicode="*" horiz-adv-x="972" 
d="M443 1053l-5 367h96l-5 -367l351 120l30 -91l-354 -110l226 -302l-77 -57l-219 310l-219 -310l-77 57l226 302l-354 110l30 91z" />
    <glyph glyph-name="plus" unicode="+" horiz-adv-x="1117" 
d="M504 465h-392v108h392v398h109v-398h392v-108h-392v-398h-109v398z" />
    <glyph glyph-name="comma" unicode="," horiz-adv-x="369" 
d="M178 0h-66v215h145v-187q0 -59 -20 -130l-33 -116h-88z" />
    <glyph glyph-name="hyphen" unicode="-" horiz-adv-x="749" 
d="M637 465h-525v108h525v-108z" />
    <glyph glyph-name="period" unicode="." horiz-adv-x="369" 
d="M257 0h-145v215h145v-215z" />
    <glyph glyph-name="slash" unicode="/" horiz-adv-x="875" 
d="M196 0h-131l613 1420h132z" />
    <glyph glyph-name="zero" unicode="0" horiz-adv-x="1268" 
d="M635 1452q169 0 293 -101q121 -100 181.5 -264t60.5 -377q0 -208 -60 -375q-59 -165 -182 -266q-124 -101 -293 -101q-126 0 -229.5 57t-171.5 160q-136 210 -136 525t136 524q68 104 171.5 161t229.5 57zM274 1039q-47 -144 -47 -329q0 -188 48 -330t140 -222
q94 -80 220 -80q125 0 218.5 79.5t139.5 222.5q47 144 47 330q0 390 -186 551q-92 81 -219 81q-126 0 -219.5 -79.5t-141.5 -223.5z" />
    <glyph glyph-name="one" unicode="1" horiz-adv-x="722" 
d="M75 919v112q77 2 143 26.5t110 63.5q123 112 138 299h106v-1420h-129v1117q-105 -198 -368 -198z" />
    <glyph glyph-name="two" unicode="2" horiz-adv-x="1093" 
d="M875 1019q0 145 -91 233q-92 89 -236 89q-157 0 -247 -102q-90 -101 -90 -268v-35h-129v36q0 223 127 351q128 129 340 129q206 0 330 -118q126 -118 126 -308q0 -107 -40 -193q-36 -80 -95.5 -139.5t-150.5 -121.5q-49 -32 -156 -97.5t-157 -99.5q-160 -112 -189 -261
h801v-114h-936v32q4 169 86 276q59 77 137 134q30 23 84 59q39 25 96 60q24 14 90 55q33 21 81 54q52 38 74 58q80 73 106 128q39 75 39 163z" />
    <glyph glyph-name="three" unicode="3" horiz-adv-x="1159" 
d="M579 -32q-232 0 -369 113q-135 114 -135 344h129q0 -180 107 -268q59 -46 138 -64q61 -14 131 -14q188 0 285 87q99 88 99 225q0 74 -29 133t-79 94q-97 70 -230 70h-125v107h151q125 0 194 71q69 70 69 187q0 138 -99 213q-97 75 -235 75q-144 0 -251 -86
q-54 -43 -84.5 -115t-30.5 -163h-123q0 112 38.5 204t106.5 151q139 120 341 120q124 0 227 -45t168 -135q65 -89 65 -207q0 -111 -57 -200q-56 -86 -158 -124q114 -35 188 -115q83 -89 83 -239q0 -188 -135 -304q-134 -115 -380 -115z" />
    <glyph glyph-name="four" unicode="4" horiz-adv-x="1255" 
d="M820 321h-751v116l747 983h132v-985h244v-114h-244v-321h-128v321zM820 1239l-611 -804h611v804z" />
    <glyph glyph-name="five" unicode="5" horiz-adv-x="1190" 
d="M1027 1420v-111h-693l-78 -473q147 157 368 157q150 0 262 -70q112 -69 170 -184.5t58 -261.5q0 -224 -140 -367q-139 -142 -378 -142q-226 0 -371 126q-145 127 -145 332h129q0 -85 32.5 -153t89.5 -110q115 -84 268 -84q184 0 284 115q101 116 101 286q0 176 -105 291
q-103 115 -278 115q-69 0 -132.5 -20.5t-105.5 -51.5q-82 -62 -111 -109l-12 -21h-127l122 736h792z" />
    <glyph glyph-name="six" unicode="6" horiz-adv-x="1222" 
d="M659 1338q-136 0 -237.5 -87.5t-153 -234.5t-54.5 -334q41 142 154 230q116 90 293 90q216 0 350 -143q133 -142 133 -372q0 -160 -69 -280q-67 -118 -180 -178.5t-256 -60.5q-51 0 -94 7q-108 16 -205 78q-107 73 -172 210q-72 159 -72 398q0 229 63 405q65 178 192 281
q129 105 307 105q168 0 278 -89q48 -38 86 -91q65 -90 86 -193h-134q-25 91 -90 166q-36 43 -95 68t-130 25zM245 470q0 -40 6 -84q46 -141 134 -216q38 -32 85 -55q81 -36 165 -36q165 0 272 111q108 113 108 298q0 180 -104 290t-278 110q-175 0 -281 -120
q-107 -119 -107 -298z" />
    <glyph glyph-name="seven" unicode="7" horiz-adv-x="1150" 
d="M445 0h-144q23 161 64 308q41 149 89 269q48 119 108 231q64 119 109 189q55 84 104 147q51 67 83 103q18 21 54 59h-828v114h973v-103l-28 -28q-22 -24 -70 -83q-58 -72 -103 -138q-56 -81 -115 -190q-66 -119 -119 -242q-52 -123 -102 -293q-48 -169 -75 -343z" />
    <glyph glyph-name="eight" unicode="8" horiz-adv-x="1238" 
d="M71 387q0 135 78.5 232.5t221.5 143.5q-110 39 -168.5 116.5t-58.5 186.5q0 169 128 277q128 109 347 109t346 -109q129 -108 129 -277q0 -109 -58.5 -186.5t-168.5 -116.5q143 -46 221.5 -143.5t78.5 -232.5q0 -179 -134 -296q-67 -58 -174 -90.5t-240 -32.5t-240 32.5
t-174 90.5q-134 117 -134 296zM1037 392q0 147 -115 231q-114 84 -303 84t-304 -84q-114 -84 -114 -231q0 -141 108 -227q110 -86 310 -86t309 86q109 85 109 227zM267 1064q0 -119 91 -184.5t261 -65.5t261 65.5t91 184.5q0 123 -95 200t-257 77t-257 -77t-95 -200z" />
    <glyph glyph-name="nine" unicode="9" horiz-adv-x="1222" 
d="M563 82q136 0 237.5 87.5t153 234.5t54.5 334q-41 -142 -155 -231q-115 -89 -292 -89q-217 0 -350 142t-133 373q0 160 68 279q68 118 181 179t256 61q50 0 93 -7q113 -16 205 -79q108 -69 172 -210q73 -154 73 -397q0 -230 -64 -406q-63 -176 -192 -281
q-128 -104 -306 -104q-82 0 -155 24.5t-124 64.5q-47 38 -85 90q-65 91 -86 194h134q25 -90 89 -166q80 -93 226 -93zM977 950q0 40 -6 84q-46 141 -134 216q-38 33 -86 54q-78 37 -164 37q-165 0 -273 -112q-107 -112 -107 -297q0 -182 103 -291t279 -109q174 0 281 119
q107 121 107 299z" />
    <glyph glyph-name="colon" unicode=":" horiz-adv-x="369" 
d="M257 0h-145v215h145v-215zM257 823h-145v215h145v-215z" />
    <glyph glyph-name="semicolon" unicode=";" horiz-adv-x="369" 
d="M178 0h-66v215h145v-187q0 -59 -20 -130l-33 -116h-88zM257 823h-145v215h145v-215z" />
    <glyph glyph-name="less" unicode="&#x3c;" horiz-adv-x="1097" 
d="M989 41l-893 419v118l893 420v-117l-773 -362l773 -361v-117z" />
    <glyph glyph-name="equal" unicode="=" horiz-adv-x="1117" 
d="M1005 686h-893v108h893v-108zM1005 244h-893v108h893v-108z" />
    <glyph glyph-name="greater" unicode="&#x3e;" horiz-adv-x="1097" 
d="M108 998l893 -420v-118l-893 -419v117l773 361l-773 362v117z" />
    <glyph glyph-name="question" unicode="?" horiz-adv-x="1005" 
d="M949 1015q0 -107 -42 -182t-114 -137q-20 -17 -55.5 -46t-56.5 -46.5t-48.5 -47t-42.5 -55t-26 -62t-11 -77.5h-112q-1 185 150 307q13 11 40 33.5t42.5 36t36.5 33t37 36.5q76 83 76 210q0 149 -95 238t-235 89q-143 0 -232 -95t-93 -253v-13h-123v21q5 212 132 329
q127 118 319 118q193 0 323 -118t130 -319zM570 0h-145v215h145v-215z" />
    <glyph glyph-name="at" unicode="@" horiz-adv-x="1590" 
d="M1106 -49l36 19l39 -66q-17 -12 -62 -31q-32 -15 -75 -28q-103 -31 -235 -31q-211 0 -375 88q-165 87 -259 250q-93 163 -93 376q0 152 49.5 290t141.5 246q92 107 234 170q141 64 315 64q157 0 288.5 -53t220.5 -149q90 -96 138 -227t48 -283q0 -211 -88 -338t-241 -127
q-171 0 -206 167q-74 -167 -246 -167q-133 0 -209 103q-75 104 -75 286q0 209 94 343q94 135 246 135q159 0 212 -170l12 144h104l-41 -494q-7 -81 -7 -117q0 -155 122 -155q104 0 168 106q66 106 66 280q0 182 -72 325q-70 144 -210 228q-138 84 -323 84q-148 0 -274 -56.5
t-209 -155.5q-81 -96 -125 -219.5t-44 -258.5q0 -279 176 -458q175 -178 462 -178q91 0 176 20q87 20 121 38zM977 586q0 147 -48 224.5t-131 77.5q-102 0 -167 -108q-65 -109 -65 -266q0 -138 51.5 -215.5t140.5 -77.5q102 0 160 100q59 101 59 265z" />
    <glyph glyph-name="A" unicode="A" horiz-adv-x="1254" 
d="M1246 0h-134l-153 399h-665l-152 -399h-134l555 1420h128zM916 513l-289 755l-289 -755h578z" />
    <glyph glyph-name="B" unicode="B" horiz-adv-x="1269" 
d="M734 0h-610v1420h579q213 0 327.5 -94.5t114.5 -268.5q0 -234 -195 -321q121 -41 185.5 -130.5t64.5 -218.5q0 -178 -121 -283q-122 -104 -345 -104zM715 676h-462v-564h462q356 0 356 277q0 143 -90.5 215t-265.5 72zM698 1308h-445v-524h445q156 0 237 67.5t81 199.5
q0 257 -318 257z" />
    <glyph glyph-name="C" unicode="C" horiz-adv-x="1454" 
d="M741 79q177 0 314 116q139 118 176 321h131q-39 -249 -211 -398q-171 -150 -408 -150q-187 0 -335 93t-232 262t-84 387q0 216 84 386q85 171 232 263q148 93 335 93q237 0 408 -150q172 -149 211 -398h-131q-38 203 -176 320q-137 117 -314 117q-105 0 -199.5 -43
t-166.5 -122q-72 -80 -113 -201t-41 -265t41 -265t113 -201q72 -79 166.5 -122t199.5 -43z" />
    <glyph glyph-name="D" unicode="D" horiz-adv-x="1340" 
d="M581 0h-457v1420h457q308 0 487 -191q180 -191 180 -519q0 -330 -180 -520q-178 -190 -487 -190zM586 1308h-333v-1196h333q238 0 385 157q148 157 148 441q0 283 -148 440q-147 158 -385 158z" />
    <glyph glyph-name="E" unicode="E" horiz-adv-x="1190" 
d="M1095 0h-971v1420h964v-114h-835v-539h737v-114h-737v-539h842v-114z" />
    <glyph glyph-name="F" unicode="F" horiz-adv-x="1133" 
d="M253 0h-129v1420h927v-114h-798v-550h709v-114h-709v-642z" />
    <glyph glyph-name="G" unicode="G" horiz-adv-x="1494" 
d="M1268 593h-468v111h580v-704h-112v264q-68 -137 -202 -217q-133 -79 -313 -79q-143 0 -265 52t-211 148q-88 96 -136.5 235t-48.5 303q0 220 84 390q85 172 232 263q148 93 338 93q220 0 390 -119q169 -118 223 -321h-130q-49 153 -185 241q-133 88 -300 88
q-107 0 -202 -43.5t-167 -124.5q-72 -80 -113 -200.5t-41 -263.5q0 -285 150 -458q150 -172 389 -172q209 0 351 140q140 139 157 374z" />
    <glyph glyph-name="H" unicode="H" horiz-adv-x="1344" 
d="M253 0h-129v1420h129v-653h838v653h129v-1420h-129v653h-838v-653z" />
    <glyph glyph-name="I" unicode="I" horiz-adv-x="429" 
d="M279 0h-129v1420h129v-1420z" />
    <glyph glyph-name="J" unicode="J" horiz-adv-x="1168" 
d="M548 -32q-252 0 -382 154q-119 140 -119 397v46h130v-43q0 -215 90 -323q101 -120 280 -120q181 0 281 120q48 57 69 133t21 190v898h130v-906q0 -252 -119 -392q-130 -154 -381 -154z" />
    <glyph glyph-name="K" unicode="K" horiz-adv-x="1238" 
d="M1246 0h-150l-451 773l-392 -448v-325h-129v1420h129v-921l788 921h168l-477 -546z" />
    <glyph glyph-name="L" unicode="L" horiz-adv-x="1110" 
d="M1024 0h-900v1420h129v-1306h771v-114z" />
    <glyph glyph-name="M" unicode="M" horiz-adv-x="1662" 
d="M893 0h-124l-519 1190v-1190h-126v1420h152l555 -1269l555 1269h152v-1420h-126v1190z" />
    <glyph glyph-name="N" unicode="N" horiz-adv-x="1325" 
d="M1201 0h-118l-830 1198v-1198h-129v1420h118l830 -1198v1198h129v-1420z" />
    <glyph glyph-name="O" unicode="O" horiz-adv-x="1512" 
d="M1100 61q-152 -93 -344 -93t-344 93q-150 92 -236 262q-84 169 -84 387t84 387q86 170 236 262q152 93 344 93t344 -93q151 -93 235 -262q85 -169 85 -387t-85 -387q-84 -169 -235 -262zM549 122q97 -43 207 -43t207 43q205 94 285 322q43 120 43 266t-43 265
q-81 232 -285 322q-97 44 -207 44t-207 -44q-204 -90 -286 -322q-42 -120 -42 -265q0 -144 42 -266q81 -228 286 -322z" />
    <glyph glyph-name="P" unicode="P" horiz-adv-x="1211" 
d="M253 0h-129v1420h588q209 0 330 -110q120 -110 120 -312t-120 -312q-119 -109 -330 -109h-459v-577zM699 1306h-446v-615h446q69 0 127 16t105.5 50t74.5 95.5t27 145.5t-27 145.5t-74.5 96t-105.5 50.5t-127 16z" />
    <glyph glyph-name="Q" unicode="Q" horiz-adv-x="1512" 
d="M756 -32q-192 0 -344 93q-150 92 -236 262q-84 169 -84 387t84 387q86 170 236 262q152 93 344 93q190 3 342.5 -91.5t238 -265.5t83.5 -385q0 -182 -59.5 -331.5t-170.5 -249.5l184 -216l-77 -69l-189 222q-157 -98 -352 -98zM756 79q153 0 274 79l-261 309l77 68
l265 -312q180 177 180 487q0 146 -43 265q-81 232 -285 322q-99 44 -207 44q-109 0 -206.5 -43t-170.5 -123q-72 -78 -116 -200q-42 -120 -42 -265q0 -144 42 -266q61 -173 192.5 -268t300.5 -97z" />
    <glyph glyph-name="R" unicode="R" horiz-adv-x="1273" 
d="M124 1420h604q211 0 329 -112q119 -113 119 -318q0 -152 -67 -254.5t-192 -145.5l323 -590h-141l-303 564q-33 -3 -68 -3h-475v-561h-129v1420zM717 1306h-464v-631h464q151 0 240 76q90 77 90 239t-90 239q-91 77 -240 77z" />
    <glyph glyph-name="S" unicode="S" horiz-adv-x="1232" 
d="M623 -32q-233 -3 -386.5 111t-152.5 306h138q0 -99 54 -170q107 -136 343 -136q80 0 149.5 17t127 52t90.5 95.5t33 139.5q0 75 -28 116q-17 28 -33 44.5t-46 30.5q-44 23 -56 28q-24 11 -73 25q-60 17 -81 22l-96 23q-205 48 -290 87q-173 78 -204 223q-8 38 -8 77
q0 171 142 282t360 111q226 0 372 -115q148 -114 148 -294h-132q0 133 -108 215q-109 83 -278 83q-162 0 -269 -74q-106 -73 -106 -208q0 -66 27 -108q34 -46 81 -73q65 -32 135 -54l87 -24q23 -6 102 -25q195 -47 272 -81q156 -69 195 -198q16 -49 16 -113
q0 -182 -143 -299q-143 -116 -382 -116z" />
    <glyph glyph-name="T" unicode="T" horiz-adv-x="1296" 
d="M584 1306h-500v114h1128v-114h-500v-1306h-128v1306z" />
    <glyph glyph-name="U" unicode="U" horiz-adv-x="1328" 
d="M270 114q-150 147 -150 458v848h129v-850q0 -250 105 -364q54 -60 136 -93.5t174 -33.5t174 33.5t136 93.5q105 114 105 364v850h129v-848q0 -311 -150 -458q-149 -146 -394 -146t-394 146z" />
    <glyph glyph-name="V" unicode="V" horiz-adv-x="1198" 
d="M1045 1420h132l-507 -1420h-139l-510 1420h134l446 -1265z" />
    <glyph glyph-name="W" unicode="W" horiz-adv-x="1866" 
d="M1456 0h-146l-377 1248l-377 -1248h-146l-357 1420h134l300 -1247l376 1247h140l376 -1247l300 1247h134z" />
    <glyph glyph-name="X" unicode="X" horiz-adv-x="1189" 
d="M595 813l420 607h151l-498 -707l505 -713h-156l-423 611l-422 -611h-156l505 713l-498 707h151z" />
    <glyph glyph-name="Y" unicode="Y" horiz-adv-x="1248" 
d="M1090 1420h144l-546 -949v-471h-129v472l-545 948h144l465 -818z" />
    <glyph glyph-name="Z" unicode="Z" horiz-adv-x="1203" 
d="M92 0v103l850 1203h-842v114h1001v-102l-851 -1204h861v-114h-1019z" />
    <glyph glyph-name="bracketleft" unicode="[" horiz-adv-x="667" 
d="M571 -344h-459v1812h459v-99h-346v-1614h346v-99z" />
    <glyph glyph-name="backslash" unicode="\" horiz-adv-x="875" 
d="M65 1420h132l613 -1420h-131z" />
    <glyph glyph-name="bracketright" unicode="]" horiz-adv-x="667" 
d="M96 1468h459v-1812h-459v99h346v1614h-346v99z" />
    <glyph glyph-name="asciicircum" unicode="^" horiz-adv-x="967" 
d="M425 1420h117l380 -750h-136l-303 614l-303 -614h-135z" />
    <glyph glyph-name="underscore" unicode="_" horiz-adv-x="1213" 
d="M1101 0h-989v102h989v-102z" />
    <glyph glyph-name="grave" unicode="`" horiz-adv-x="592" 
d="M484 1158h-102l-289 262h146z" />
    <glyph glyph-name="a" unicode="a" horiz-adv-x="1064" 
d="M240 763h-121q4 45 19 85.5t46.5 80.5t77 69.5t115.5 47.5t157 18q180 0 279 -74q125 -92 125 -263v-460q0 -71 8 -143q7 -61 16 -96l7 -28h-122q-20 64 -28 188q-95 -213 -384 -213q-175 0 -265.5 75t-90.5 214q0 125 73 198q31 31 79 54q79 38 187 52q12 2 71 8l71 7
q87 9 128 23q66 22 93 54q36 41 36 108q0 66 -57 124q-30 33 -89.5 52.5t-136.5 19.5q-129 0 -204 -52t-90 -149zM561 488l-120 -18q-82 -12 -135 -36q-106 -49 -106 -164q0 -92 65 -143.5t190 -51.5q362 0 362 436v75q-49 -52 -158 -78q-41 -9 -98 -20z" />
    <glyph glyph-name="b" unicode="b" horiz-adv-x="1146" 
d="M118 0v1420h121v-569q115 213 386 213q199 2 323 -154.5t120 -390.5q0 -239 -121 -391q-120 -153 -322 -153q-270 0 -386 212v-187h-121zM592 75q156 0 255 119q100 118 100 325t-100 325q-99 120 -255 120q-154 0 -254 -120q-99 -118 -99 -325t99 -325
q101 -119 254 -119z" />
    <glyph glyph-name="c" unicode="c" horiz-adv-x="1091" 
d="M555 1064q177 0 295 -105q119 -104 160 -285h-126q-38 135 -125 212q-89 78 -204 78q-155 0 -255 -124q-100 -122 -100 -321q0 -197 99 -321q101 -123 256 -123q116 0 204 79q89 80 126 210h125q-37 -179 -161 -285q-122 -104 -294 -104q-222 0 -349 148t-127 396
t127 396q128 149 349 149z" />
    <glyph glyph-name="d" unicode="d" horiz-adv-x="1146" 
d="M907 851v569h121v-1420h-121v187q-116 -212 -386 -212q-201 0 -323 153q-120 153 -120 391q-4 234 120 390.5t323 154.5q271 0 386 -213zM554 964q-156 0 -256 -120q-99 -118 -99 -325t99 -325q101 -119 256 -119q154 0 253 119q100 118 100 325t-100 325
q-99 120 -253 120z" />
    <glyph glyph-name="e" unicode="e" horiz-adv-x="1086" 
d="M1008 467h-805q13 -179 108 -285q95 -107 238 -107q95 0 171.5 49t122.5 139h136q-58 -139 -167 -213.5t-263 -74.5q-221 0 -345 147q-125 149 -125 395t123 396q124 151 341 151q216 0 341 -149t125 -399zM549 964q-145 0 -240 -110q-94 -109 -106 -287h681
q-12 189 -104 293t-231 104z" />
    <glyph glyph-name="f" unicode="f" horiz-adv-x="714" 
d="M396 0h-121v932h-228v106h228v88q0 157 66.5 229.5t205.5 72.5q57 0 110 -8l15 -3v-114q-75 11 -125 11q-84 0 -117.5 -42t-33.5 -146v-88h276v-106h-276v-932z" />
    <glyph glyph-name="g" unicode="g" horiz-adv-x="1147" 
d="M558 -307q213 0 284 121q37 60 51.5 138.5t14.5 201.5v33q-116 -212 -386 -212q-202 0 -323 153q-120 153 -120 391q-4 234 120 390.5t323 154.5q270 0 386 -213v187h121v-884q0 -78 -4 -127q-9 -138 -49 -221q-49 -106 -141 -155q-105 -58 -279 -58q-199 0 -299 74
q-89 66 -131 179h122q80 -153 310 -153zM555 964q-155 0 -256 -120q-99 -118 -99 -325t99 -325q101 -119 256 -119q154 0 253 119q100 118 100 325t-100 325q-99 120 -253 120z" />
    <glyph glyph-name="h" unicode="h" horiz-adv-x="1114" 
d="M998 0h-121v632q0 173 -70 251.5t-209 78.5q-173 0 -266 -122.5t-93 -347.5v-492h-121v1420h121v-573q94 217 380 217q190 0 284.5 -101.5t94.5 -314.5v-648z" />
    <glyph glyph-name="i" unicode="i" horiz-adv-x="393" 
d="M257 0h-121v1038h121v-1038zM131 1420h131v-193h-131v193z" />
    <glyph glyph-name="j" unicode="j" horiz-adv-x="393" 
d="M257 1038v-1120q0 -300 -263 -300h-45v98h19q84 0 126 49.5t42 159.5v1113h121zM131 1420h131v-193h-131v193z" />
    <glyph glyph-name="k" unicode="k" horiz-adv-x="1016" 
d="M1017 0h-138l-371 544l-269 -277v-267h-121v1420h121v-1006l589 624h163l-396 -405z" />
    <glyph glyph-name="l" unicode="l" horiz-adv-x="393" 
d="M257 0h-121v1420h121v-1420z" />
    <glyph glyph-name="m" unicode="m" horiz-adv-x="1715" 
d="M1599 0h-121v646q0 316 -238 316q-150 0 -236 -117q-85 -116 -85 -332v-513h-121v646q0 316 -239 316q-151 0 -236 -117q-84 -117 -84 -332v-513h-121v1038h121v-180q90 206 343 206q259 0 315 -239q32 91 107 158q89 81 259 81q336 0 336 -395v-669z" />
    <glyph glyph-name="n" unicode="n" horiz-adv-x="1110" 
d="M994 0h-121v632q0 177 -71 254q-70 76 -206 76q-173 0 -265 -122.5t-92 -347.5v-492h-121v1038h121v-190q95 216 378 216q190 0 283.5 -101t93.5 -315v-648z" />
    <glyph glyph-name="o" unicode="o" horiz-adv-x="1125" 
d="M562 -25q-224 0 -354 148q-129 149 -129 396t129 396q131 149 354 149q216 0 349 -151q135 -150 135 -394t-135 -394q-133 -150 -349 -150zM562 964q-157 0 -259 -124q-102 -123 -102 -321t102 -321t259 -123q150 0 255 124q106 124 106 320t-106 320q-105 125 -255 125z
" />
    <glyph glyph-name="p" unicode="p" horiz-adv-x="1146" 
d="M239 187v-569h-121v1420h121v-187q115 213 386 213q200 2 323.5 -154t119.5 -391q0 -239 -121 -391q-120 -153 -322 -153q-270 0 -386 212zM592 75q156 0 255 119q100 118 100 325t-100 325q-99 120 -255 120q-154 0 -254 -120q-99 -118 -99 -325t99 -325
q101 -119 254 -119z" />
    <glyph glyph-name="q" unicode="q" horiz-adv-x="1146" 
d="M1028 1038v-1420h-121v569q-116 -212 -386 -212q-201 0 -323 153q-120 153 -120 391q-4 235 119.5 391t323.5 154q271 0 386 -213v187h121zM554 964q-156 0 -256 -120q-99 -118 -99 -325t99 -325q101 -119 256 -119q154 0 253 119q100 118 100 325t-100 325
q-99 120 -253 120z" />
    <glyph glyph-name="r" unicode="r" horiz-adv-x="758" 
d="M582 1050q66 0 106 -10l12 -4v-107q-44 15 -114 15q-347 0 -347 -496v-448h-121v1038h121v-197q34 79 111 141q84 68 232 68z" />
    <glyph glyph-name="s" unicode="s" horiz-adv-x="1014" 
d="M504 -25q-205 0 -312 81t-107 228h122q0 -102 76.5 -155.5t222.5 -53.5q149 0 226 54t77 150q0 97 -83 143q-24 14 -61 24q-61 17 -151 32q-3 1 -7 1h-1h-1l-1 1h-1h-1h-1h-1h-1l-1 1h-1h-1q-172 29 -243 60q-144 62 -152 205v17q0 135 101 218q103 83 298 83
q191 0 301 -81q111 -81 111 -220h-118q0 90 -77.5 145.5t-215.5 55.5q-135 0 -207.5 -52.5t-72.5 -140.5q0 -97 84 -137q50 -23 194 -48h1h1h1h1l1 -1h1h2q177 -31 242 -55q148 -55 174 -181q6 -28 6 -62q0 -142 -106 -227q-104 -85 -319 -85z" />
    <glyph glyph-name="t" unicode="t" horiz-adv-x="738" 
d="M536 -8q-138 0 -203.5 79.5t-65.5 244.5v616h-228v106h228v314l121 47v-361h276v-106h-276v-616q0 -122 45 -174t139 -52q41 0 81 8l11 3v-97q-66 -12 -128 -12z" />
    <glyph glyph-name="u" unicode="u" horiz-adv-x="1103" 
d="M116 1038h121v-631q0 -178 70 -254t204 -76q173 0 263 121.5t90 348.5v491h121v-1038h-121v186q-94 -211 -374 -211q-189 0 -281.5 101t-92.5 315v647z" />
    <glyph glyph-name="v" unicode="v" horiz-adv-x="1009" 
d="M862 1038h133l-424 -1038h-133l-424 1038h133l357 -903z" />
    <glyph glyph-name="w" unicode="w" horiz-adv-x="1608" 
d="M1227 0h-137l-286 886l-286 -886h-137l-344 1038h133l279 -884l289 884h132l288 -884l280 884h133z" />
    <glyph glyph-name="x" unicode="x" horiz-adv-x="1040" 
d="M1008 0h-157l-332 432l-331 -432h-157l414 522l-411 516h148l337 -429l338 429h148l-411 -516z" />
    <glyph glyph-name="y" unicode="y" horiz-adv-x="1009" 
d="M444 -11l-430 1049h133l357 -899l357 899h134l-583 -1420h-127z" />
    <glyph glyph-name="z" unicode="z" horiz-adv-x="977" 
d="M85 1038h791v-98l-657 -842h680v-98h-821v98l656 842h-649v98z" />
    <glyph glyph-name="braceleft" unicode="{" horiz-adv-x="798" 
d="M535 -245h166v-99h-172q-122 0 -180.5 62.5t-58.5 192.5v347q0 144 -51 199q-50 56 -162 56v98q113 0 162 55q51 56 51 200v347q0 130 58.5 192.5t180.5 62.5h172v-99h-166q-68 0 -100 -33.5t-32 -110.5v-364q0 -241 -142 -299q142 -58 142 -299v-364q0 -77 32 -110.5
t100 -33.5z" />
    <glyph glyph-name="bar" unicode="|" horiz-adv-x="363" 
d="M238 -275h-113v1925h113v-1925z" />
    <glyph glyph-name="braceright" unicode="}" horiz-adv-x="798" 
d="M269 -344h-172v99h166q68 0 100 33.5t32 110.5v364q0 241 142 299q-142 58 -142 299v364q0 77 -32 110.5t-100 33.5h-166v99h172q122 0 180.5 -62.5t58.5 -192.5v-347q0 -144 50 -200q51 -55 163 -55v-98q-112 0 -163 -56q-50 -56 -50 -199v-347q0 -130 -58.5 -192.5
t-180.5 -62.5z" />
    <glyph glyph-name="asciitilde" unicode="~" horiz-adv-x="1185" 
d="M984 673h107q0 -143 -69 -222q-69 -80 -188 -80q-58 0 -111 21q-49 20 -143 75q-82 48 -97 56q-74 40 -132 40q-147 0 -150 -198h-107q0 143 69 222q69 80 188 80q59 0 111 -21q49 -20 143 -75l96 -56q74 -40 132 -40q147 0 151 198z" />
    <glyph glyph-name="nbspace" unicode="&#xa0;" horiz-adv-x="375" 
 />
    <glyph glyph-name="exclamdown" unicode="&#xa1;" horiz-adv-x="371" 
d="M245 -382h-120v540l23 518h74l23 -518v-540zM257 823h-145v215h145v-215z" />
    <glyph glyph-name="cent" unicode="&#xa2;" horiz-adv-x="1091" 
d="M584 -192h-80v169q-200 17 -313 163q-112 146 -112 379t112 378q112 147 313 165v168h80v-167q163 -9 276 -113q112 -104 150 -276h-126q-34 123 -115 201q-80 77 -185 87v-886q107 11 186 88q80 77 115 200h125q-38 -173 -151 -276t-275 -112v-168zM504 79v881
q-136 -21 -220 -141t-84 -300t84 -300q84 -121 220 -140z" />
    <glyph glyph-name="sterling" unicode="&#xa3;" horiz-adv-x="1194" 
d="M405 670h377v-108h-341q16 -60 16 -120q0 -107 -49 -190q-48 -83 -118 -138h810v-114h-994v101q37 15 92 61q37 31 65 66q31 39 52 96.5t21 117.5q0 54 -17 120h-213v108h174l-30 65l-31 71q-55 135 -50 225q0 184 128 303q127 118 329 118q208 0 341 -128
q133 -127 133 -333v-17h-129v16q0 168 -99 259q-99 93 -246 93q-141 0 -235 -86q-93 -86 -93 -225q0 -43 12 -96q11 -48 23 -83q5 -15 37 -96q29 -70 35 -86z" />
    <glyph glyph-name="currency" unicode="&#xa4;" horiz-adv-x="1098" 
d="M549 361q-121 0 -213 67l-202 -201l-68 67l202 202q-69 92 -69 214t69 214l-202 202l68 67l202 -202q92 68 213 68q120 0 212 -68l203 202l68 -67l-202 -202q69 -93 69 -214t-69 -214l202 -202l-68 -67l-203 201q-92 -67 -212 -67zM731 899q-72 75 -182 75
q-109 0 -183 -75q-72 -75 -72 -189t72 -189q74 -75 183 -75q110 0 182 75q73 74 73 189t-73 189z" />
    <glyph glyph-name="yen" unicode="&#xa5;" horiz-adv-x="1181" 
d="M655 0h-129v391h-383v108h371l-98 180h-273v108h215l-344 633h136l440 -820l441 820h136l-344 -633h215v-108h-274l-97 -180h371v-108h-383v-391z" />
    <glyph glyph-name="brokenbar" unicode="&#xa6;" horiz-adv-x="363" 
d="M238 -275h-113v841h113v-841zM238 934h-113v716h113v-716z" />
    <glyph glyph-name="section" unicode="&#xa7;" horiz-adv-x="1126" 
d="M1042 502q0 -192 -162 -286q136 -84 136 -239q0 -159 -127 -256q-127 -98 -322 -98q-200 0 -332 105q-131 105 -131 270h122q0 -117 95 -191q97 -74 247 -74q141 0 235 65q94 64 94 179q5 72 -52 126q-22 24 -95 54q-17 8 -67 23q-43 13 -77 21l-91 23l-96 24
q-42 12 -88 28q-52 18 -82 34q-90 52 -120 100q-45 74 -45 164q0 190 162 286q-136 84 -136 239q0 159 126 256q128 98 323 98q200 0 331 -102q132 -102 132 -263h-122q0 114 -96 184q-95 71 -246 71q-141 0 -236 -65q-93 -64 -93 -179q-5 -72 52 -127q20 -20 94 -53
q16 -7 68 -23q47 -14 76 -21l92 -23q72 -18 96 -25q36 -9 87 -27q49 -17 82 -35q87 -45 121 -100q45 -72 45 -163zM198 574q3 -56 18.5 -90t53.5 -60q30 -19 52 -30q27 -14 70 -26q72 -21 80 -23l96 -22q153 -37 211 -59q71 34 110 95t39 143q-4 56 -19.5 90t-52.5 59
q-27 19 -52 31q-27 14 -70 26q-63 18 -80 22q-47 12 -96 23q-141 33 -212 59q-70 -34 -109 -94.5t-39 -143.5z" />
    <glyph glyph-name="dieresis" unicode="&#xa8;" horiz-adv-x="719" 
d="M611 1173h-116v210h116v-210zM108 1383h116v-210h-116v210z" />
    <glyph glyph-name="copyright" unicode="&#xa9;" horiz-adv-x="1594" 
d="M147 410q-55 138 -55 300t55 299q107 272 373 383q130 54 277 54t277 -54q267 -111 373 -383q55 -137 55 -299t-55 -300q-106 -271 -373 -382q-130 -54 -277 -54t-277 54q-266 111 -373 382zM206 984q-49 -125 -49 -274t49 -275q100 -250 339 -352q117 -49 252 -49
t252 49q242 103 338 352q50 129 50 275q0 147 -50 274q-97 252 -338 352q-120 50 -252 50t-252 -50q-239 -99 -339 -352zM805 361q101 0 172.5 62.5t92.5 175.5h87q-23 -143 -119 -229q-97 -86 -232 -86q-165 0 -268 118q-102 118 -102 309q0 189 102 308q104 119 268 119
q135 0 232 -86q96 -86 119 -229h-87q-21 112 -92.5 175t-172.5 63q-125 0 -204 -93q-78 -92 -78 -257t78 -258q80 -92 204 -92z" />
    <glyph glyph-name="ordfeminine" unicode="&#xaa;" horiz-adv-x="789" 
d="M693 1208v-328q0 -105 16 -167l5 -20h-100q-16 45 -20 126q-72 -144 -273 -144q-126 0 -190.5 55t-64.5 151q0 184 243 217q23 3 64 6q82 7 124 18q48 11 70.5 35.5t25.5 72.5q0 50 -45 89t-145 39q-90 0 -145.5 -35t-64.5 -96h-99q9 87 83 149q76 62 222 62
q81 0 140.5 -20t91.5 -54t47 -73t15 -83zM392 1035l-64 -8q-162 -26 -162 -140q0 -61 46 -96.5t133 -35.5q122 0 185 74.5t63 217.5v63q-20 -26 -56 -42q-34 -15 -65 -22q-43 -7 -80 -11z" />
    <glyph glyph-name="guillemotleft" unicode="&#xab;" horiz-adv-x="1131" 
d="M556 182v-159l-456 449v112l456 449v-159l-359 -346zM1018 182v-159l-456 449v112l456 449v-159l-359 -346z" />
    <glyph glyph-name="logicalnot" unicode="&#xac;" horiz-adv-x="1117" 
d="M896 605h-784v108h893v-578h-109v470z" />
    <glyph glyph-name="uni00AD" unicode="&#xad;" horiz-adv-x="749" 
d="M637 465h-525v108h525v-108z" />
    <glyph glyph-name="registered" unicode="&#xae;" horiz-adv-x="1077" 
d="M90 970q0 206 128 337t320 131t320 -131q129 -130 129 -337q0 -206 -129 -337q-127 -130 -320 -130t-320 130q-128 131 -128 337zM538 555q168 0 281 116t113 299t-113 299q-112 117 -281 117q-168 0 -281 -117q-112 -115 -112 -299q0 -183 113 -299t280 -116zM364 1228
h213q75 0 118 -41.5t43 -113.5q0 -117 -105 -147l120 -207h-75l-114 200h-131v-200h-69v509zM574 1166h-141v-185h141q44 0 69.5 23.5t25.5 67.5t-26 69t-69 25z" />
    <glyph glyph-name="overscore" unicode="&#xaf;" horiz-adv-x="755" 
d="M647 1236h-539v90h539v-90z" />
    <glyph glyph-name="degree" unicode="&#xb0;" horiz-adv-x="814" 
d="M639 884q-94 -92 -232 -92t-232 92q-93 92 -93 231t93 231q94 92 232 92t232 -92q93 -92 93 -231t-93 -231zM245 948q66 -67 162 -67q97 0 161 67q66 68 66 167t-66 167q-64 67 -161 67q-96 0 -162 -67q-65 -68 -65 -167t65 -167z" />
    <glyph glyph-name="plusminus" unicode="&#xb1;" horiz-adv-x="1117" 
d="M504 599h-392v108h392v398h109v-398h392v-108h-392v-345h-109v345zM1005 0h-893v108h893v-108z" />
    <glyph glyph-name="twosuperior" unicode="&#xb2;" horiz-adv-x="676" 
d="M503 1435q0 72 -46 115q-45 45 -118 45q-78 0 -124 -51.5t-46 -136.5v-20h-100v21q0 127 73 200q74 74 197 74q120 0 191 -67q73 -67 73 -177q0 -83 -40 -141t-112 -107q-25 -17 -66.5 -42t-70 -43t-60 -42.5t-51.5 -53t-29 -61.5h437v-87h-542v21q0 92 45 165
q22 33 56 61q40 35 65 51q31 21 80 52q57 36 75 49q29 21 56 46q57 54 57 129z" />
    <glyph glyph-name="threesuperior" unicode="&#xb3;" horiz-adv-x="715" 
d="M358 842q-140 0 -216.5 66.5t-76.5 195.5h100q0 -87 48 -131q60 -51 148 -47q93 0 144 44t51 115t-52 110q-50 40 -122 40h-69v87h82q61 0 96.5 36.5t35.5 93.5q0 70 -50 108t-119 38q-76 0 -132 -48q-55 -48 -55 -138h-97q0 128 81 198q81 72 202 72q111 0 189 -60
q78 -58 78 -160q0 -65 -33 -113t-92 -68q73 -21 115 -71.5t42 -129.5q0 -106 -78 -172q-77 -66 -220 -66z" />
    <glyph glyph-name="acute" unicode="&#xb4;" horiz-adv-x="592" 
d="M353 1420h146l-289 -262h-102z" />
    <glyph glyph-name="mu" unicode="&#xb5;" horiz-adv-x="1105" 
d="M118 1038h121v-631q0 -178 70 -254t204 -76q173 0 263 121.5t90 348.5v491h121v-1038h-121v186q-94 -211 -374 -211q-170 0 -253 90v-447h-121v1420z" />
    <glyph glyph-name="paragraph" unicode="&#xb6;" horiz-adv-x="1270" 
d="M498 1420h648v-1734h-122v1636h-233v-1636h-121v895h-172q-211 0 -330 109q-119 110 -119 311q0 202 119 310q119 109 330 109z" />
    <glyph glyph-name="middot" unicode="&#xb7;" horiz-adv-x="369" 
d="M257 411h-145v215h145v-215z" />
    <glyph glyph-name="cedilla" unicode="&#xb8;" horiz-adv-x="686" 
d="M379 -124q88 0 149 -43q62 -44 62 -125q0 -84 -69 -126q-67 -43 -178 -43q-66 0 -128 17q-78 23 -119 57l20 58q11 -9 32 -22q23 -14 73 -30q51 -16 106 -16q75 0 115.5 27.5t40.5 80.5q0 51 -37.5 80.5t-103.5 29.5q-64 0 -94 -21l-10 -7l-42 23l131 184h71l-96 -133
q33 9 77 9z" />
    <glyph glyph-name="onesuperior" unicode="&#xb9;" horiz-adv-x="478" 
d="M65 1361v87q104 3 158 67q56 65 63 149h85v-803h-100v608q-58 -108 -206 -108z" />
    <glyph glyph-name="ordmasculine" unicode="&#xba;" horiz-adv-x="852" 
d="M78 1056q0 171 95 277q96 105 253 105q158 0 252 -105q96 -105 96 -277q0 -171 -96 -276q-94 -105 -252 -105q-157 0 -253 105q-95 106 -95 276zM603 834q71 80 71 222t-71 222t-177 80q-107 0 -178 -80q-70 -79 -70 -222t70 -222t178 -79q107 0 177 79z" />
    <glyph glyph-name="guillemotright" unicode="&#xbb;" horiz-adv-x="1131" 
d="M569 584v-112l-456 -449v159l359 346l-359 346v159zM1031 584v-112l-456 -449v159l359 346l-359 346v159z" />
    <glyph glyph-name="onequarter" unicode="&#xbc;" horiz-adv-x="1561" 
d="M1274 176h-417v83l410 544h107v-542h128v-85h-128v-176h-100v176zM1274 676l-313 -415h313v415zM65 1117v87q104 3 158 67q56 65 63 149h85v-803h-100v608q-58 -108 -206 -108zM365 -32h-103l889 1484h102z" />
    <glyph glyph-name="onehalf" unicode="&#xbd;" horiz-adv-x="1595" 
d="M1422 574q0 72 -46 115q-45 45 -118 45q-78 0 -124 -51.5t-46 -136.5v-20h-100v21q0 127 73 200q74 74 197 74q120 0 191 -67q73 -67 73 -177q0 -83 -40 -141t-112 -107q-25 -17 -66.5 -42t-70 -43t-60 -42.5t-51.5 -53t-29 -61.5h437v-87h-542v21q0 92 45 165
q22 33 56 61q40 35 65 51q31 21 80 52q57 36 75 49q29 21 56 46q57 54 57 129zM65 1117v87q104 3 158 67q56 65 63 149h85v-803h-100v608q-58 -108 -206 -108zM365 -32h-103l889 1484h102z" />
    <glyph glyph-name="threequarters" unicode="&#xbe;" horiz-adv-x="1704" 
d="M358 598q-140 0 -216.5 66.5t-76.5 195.5h100q0 -87 48 -131q60 -51 148 -47q93 0 144 44t51 115t-52 110q-50 40 -122 40h-69v87h82q61 0 96.5 36.5t35.5 93.5q0 70 -50 108t-119 38q-76 0 -132 -48q-55 -48 -55 -138h-97q0 128 81 198q81 72 202 72q111 0 189 -60
q78 -58 78 -160q0 -65 -33 -113t-92 -68q73 -21 115 -71.5t42 -129.5q0 -106 -78 -172q-77 -66 -220 -66zM1417 176h-417v83l410 544h107v-542h128v-85h-128v-176h-100v176zM1417 676l-313 -415h313v415zM508 -32h-103l889 1484h102z" />
    <glyph glyph-name="questiondown" unicode="&#xbf;" horiz-adv-x="1005" 
d="M56 23q-1 107 41.5 182t114.5 137q20 17 55.5 46t56.5 46.5t48.5 47t42.5 55t26 62t11 77.5h112q1 -106 -40 -178t-111 -130q-14 -12 -45.5 -37.5t-47.5 -39.5t-42 -39t-39.5 -46.5t-28.5 -50.5t-21.5 -63t-6.5 -72q0 -149 95 -238t235 -89q143 0 232 95t93 253v13h123
v-21q-5 -212 -132 -329q-127 -118 -319 -118q-193 0 -323 118t-130 319zM435 1038h145v-215h-145v215z" />
    <glyph glyph-name="Agrave" unicode="&#xc0;" horiz-adv-x="1254" 
d="M1246 0h-134l-153 399h-665l-152 -399h-134l555 1420h128zM916 513l-289 755l-289 -755h578zM743 1540h-102l-289 262h146z" />
    <glyph glyph-name="Aacute" unicode="&#xc1;" horiz-adv-x="1254" 
d="M1246 0h-134l-153 399h-665l-152 -399h-134l555 1420h128zM916 513l-289 755l-289 -755h578zM756 1802h146l-289 -262h-102z" />
    <glyph glyph-name="Acircumflex" unicode="&#xc2;" horiz-adv-x="1254" 
d="M1246 0h-134l-153 399h-665l-152 -399h-134l555 1420h128zM916 513l-289 755l-289 -755h578zM933 1520h-126l-180 217l-179 -217h-126l250 282h110z" />
    <glyph glyph-name="Atilde" unicode="&#xc3;" horiz-adv-x="1254" 
d="M608 1628q-55 31 -84 43q-27 11 -54 11q-50 0 -74 -31t-25 -102h-79q2 219 169 219q45 0 81 -16q36 -14 104 -53q55 -32 83 -43t57 -11q95 0 96 132h80q-1 -59 -15 -106q-14 -48 -55 -79.5t-102 -31.5q-39 0 -76 14q-38 15 -106 54zM1246 0h-134l-153 399h-665l-152 -399
h-134l555 1420h128zM916 513l-289 755l-289 -755h578z" />
    <glyph glyph-name="Adieresis" unicode="&#xc4;" horiz-adv-x="1254" 
d="M1246 0h-134l-153 399h-665l-152 -399h-134l555 1420h128zM916 513l-289 755l-289 -755h578zM879 1555h-116v210h116v-210zM376 1765h116v-210h-116v210z" />
    <glyph glyph-name="Aring" unicode="&#xc5;" horiz-adv-x="1254" 
d="M765 1809q51 -48 51 -121t-51 -121t-138 -48t-138 48t-51 121t51 121t138 48t138 -48zM702 1615q28 28 28 73t-28 73q-29 29 -75 29t-75 -29q-28 -28 -28 -73t28 -73q29 -29 75 -29t75 29zM1246 0h-134l-153 399h-665l-152 -399h-134l555 1420h128zM916 513l-289 755
l-289 -755h578z" />
    <glyph glyph-name="Ccedilla" unicode="&#xc7;" horiz-adv-x="1454" 
d="M741 79q177 0 314 116q139 118 176 321h131q-39 -245 -207 -395q-166 -148 -400 -153l-73 -101q33 9 77 9q88 0 149 -43q62 -44 62 -125q0 -84 -69 -126q-67 -43 -178 -43q-66 0 -128 17q-78 23 -119 57l20 58q11 -9 32 -22q23 -14 73 -30q51 -16 106 -16
q75 0 115.5 27.5t40.5 80.5q0 51 -37.5 80.5t-103.5 29.5q-64 0 -94 -21l-10 -7l-42 23l110 154q-262 22 -429 225q-165 204 -165 515q0 216 84 386q85 171 232 263q148 93 335 93q237 0 408 -150q172 -149 211 -398h-131q-38 203 -176 320q-137 117 -314 117
q-105 0 -199.5 -43t-166.5 -122q-72 -80 -113 -201t-41 -265t41 -265t113 -201q72 -79 166.5 -122t199.5 -43z" />
    <glyph glyph-name="Egrave" unicode="&#xc8;" horiz-adv-x="1190" 
d="M1095 0h-971v1420h964v-114h-835v-539h737v-114h-737v-539h842v-114zM713 1540h-102l-289 262h146z" />
    <glyph glyph-name="Eacute" unicode="&#xc9;" horiz-adv-x="1190" 
d="M1095 0h-971v1420h964v-114h-835v-539h737v-114h-737v-539h842v-114zM736 1802h146l-289 -262h-102z" />
    <glyph glyph-name="Ecircumflex" unicode="&#xca;" horiz-adv-x="1190" 
d="M1095 0h-971v1420h964v-114h-835v-539h737v-114h-737v-539h842v-114zM915 1520h-126l-180 217l-179 -217h-126l250 282h110z" />
    <glyph glyph-name="Edieresis" unicode="&#xcb;" horiz-adv-x="1190" 
d="M1095 0h-971v1420h964v-114h-835v-539h737v-114h-737v-539h842v-114zM861 1555h-116v210h116v-210zM358 1765h116v-210h-116v210z" />
    <glyph glyph-name="Igrave" unicode="&#xcc;" horiz-adv-x="429" 
d="M322 1540h-102l-289 262h146zM279 0h-129v1420h129v-1420z" />
    <glyph glyph-name="Iacute" unicode="&#xcd;" horiz-adv-x="429" 
d="M352 1802h146l-289 -262h-102zM279 0h-129v1420h129v-1420z" />
    <glyph glyph-name="Icircumflex" unicode="&#xce;" horiz-adv-x="429" 
d="M520 1520h-126l-180 217l-179 -217h-126l250 282h110zM279 0h-129v1420h129v-1420z" />
    <glyph glyph-name="Idieresis" unicode="&#xcf;" horiz-adv-x="429" 
d="M466 1555h-116v210h116v-210zM-37 1765h116v-210h-116v210zM279 0h-129v1420h129v-1420z" />
    <glyph glyph-name="Eth" unicode="&#xd0;" horiz-adv-x="1401" 
d="M698 653h-699v114h699v-114zM642 0h-457v1420h457q308 0 487 -191q180 -191 180 -519q0 -330 -180 -520q-178 -190 -487 -190zM647 1308h-333v-1196h333q238 0 385 157q148 157 148 441q0 283 -148 440q-147 158 -385 158z" />
    <glyph glyph-name="Ntilde" unicode="&#xd1;" horiz-adv-x="1325" 
d="M643 1628q-55 31 -84 43q-27 11 -54 11q-50 0 -74 -31t-25 -102h-79q1 219 169 219q45 0 81 -16q36 -14 104 -53q55 -32 83 -43t57 -11q95 0 96 132h80q-1 -59 -15 -106q-14 -48 -55 -79.5t-102 -31.5q-39 0 -76 14q-38 15 -106 54zM1201 0h-118l-830 1198v-1198h-129
v1420h118l830 -1198v1198h129v-1420z" />
    <glyph glyph-name="Ograve" unicode="&#xd2;" horiz-adv-x="1512" 
d="M1100 61q-152 -93 -344 -93t-344 93q-150 92 -236 262q-84 169 -84 387t84 387q86 170 236 262q152 93 344 93t344 -93q151 -93 235 -262q85 -169 85 -387t-85 -387q-84 -169 -235 -262zM549 122q97 -43 207 -43t207 43q205 94 285 322q43 120 43 266t-43 265
q-81 232 -285 322q-97 44 -207 44t-207 -44q-204 -90 -286 -322q-42 -120 -42 -265q0 -144 42 -266q81 -228 286 -322zM861 1540h-102l-289 262h146z" />
    <glyph glyph-name="Oacute" unicode="&#xd3;" horiz-adv-x="1512" 
d="M1100 61q-152 -93 -344 -93t-344 93q-150 92 -236 262q-84 169 -84 387t84 387q86 170 236 262q152 93 344 93t344 -93q151 -93 235 -262q85 -169 85 -387t-85 -387q-84 -169 -235 -262zM549 122q97 -43 207 -43t207 43q205 94 285 322q43 120 43 266t-43 265
q-81 232 -285 322q-97 44 -207 44t-207 -44q-204 -90 -286 -322q-42 -120 -42 -265q0 -144 42 -266q81 -228 286 -322zM896 1802h146l-289 -262h-102z" />
    <glyph glyph-name="Ocircumflex" unicode="&#xd4;" horiz-adv-x="1512" 
d="M1100 61q-152 -93 -344 -93t-344 93q-150 92 -236 262q-84 169 -84 387t84 387q86 170 236 262q152 93 344 93t344 -93q151 -93 235 -262q85 -169 85 -387t-85 -387q-84 -169 -235 -262zM549 122q97 -43 207 -43t207 43q205 94 285 322q43 120 43 266t-43 265
q-81 232 -285 322q-97 44 -207 44t-207 -44q-204 -90 -286 -322q-42 -120 -42 -265q0 -144 42 -266q81 -228 286 -322zM1062 1520h-126l-180 217l-179 -217h-126l250 282h110z" />
    <glyph glyph-name="Otilde" unicode="&#xd5;" horiz-adv-x="1512" 
d="M1100 61q-152 -93 -344 -93t-344 93q-150 92 -236 262q-84 169 -84 387t84 387q86 170 236 262q152 93 344 93t344 -93q151 -93 235 -262q85 -169 85 -387t-85 -387q-84 -169 -235 -262zM549 122q97 -43 207 -43t207 43q205 94 285 322q43 120 43 266t-43 265
q-81 232 -285 322q-97 44 -207 44t-207 -44q-204 -90 -286 -322q-42 -120 -42 -265q0 -144 42 -266q81 -228 286 -322zM737 1628q-55 31 -84 43q-27 11 -54 11q-50 0 -74 -31t-25 -102h-79q1 219 169 219q45 0 81 -16q36 -14 104 -53q55 -32 83 -43t57 -11q95 0 96 132h80
q-1 -59 -15 -106q-14 -48 -55 -79.5t-102 -31.5q-39 0 -76 14q-38 15 -106 54z" />
    <glyph glyph-name="Odieresis" unicode="&#xd6;" horiz-adv-x="1512" 
d="M1100 61q-152 -93 -344 -93t-344 93q-150 92 -236 262q-84 169 -84 387t84 387q86 170 236 262q152 93 344 93t344 -93q151 -93 235 -262q85 -169 85 -387t-85 -387q-84 -169 -235 -262zM549 122q97 -43 207 -43t207 43q205 94 285 322q43 120 43 266t-43 265
q-81 232 -285 322q-97 44 -207 44t-207 -44q-204 -90 -286 -322q-42 -120 -42 -265q0 -144 42 -266q81 -228 286 -322zM1008 1555h-116v210h116v-210zM505 1765h116v-210h-116v210z" />
    <glyph glyph-name="multiply" unicode="&#xd7;" horiz-adv-x="1009" 
d="M578 519l319 -319l-74 -74l-319 319l-319 -319l-73 74l319 319l-319 319l73 73l319 -319l320 320l73 -74z" />
    <glyph glyph-name="Oslash" unicode="&#xd8;" horiz-adv-x="1512" 
d="M756 -32q-255 0 -430 157l-143 -173l-55 49l146 177q-182 206 -182 532q-2 214 83.5 385t238 265.5t342.5 91.5q258 0 436 -163l148 179l55 -49l-152 -184q177 -204 177 -525q2 -214 -83.5 -385t-238 -265.5t-342.5 -91.5zM221 710q0 -266 133 -435l760 919
q-148 147 -358 147q-109 0 -206.5 -43t-170.5 -123q-74 -80 -116 -201.5t-42 -263.5zM756 79q109 0 206.5 43t170.5 123q74 80 116 201.5t42 263.5q0 255 -128 428l-759 -918q144 -141 352 -141z" />
    <glyph glyph-name="Ugrave" unicode="&#xd9;" horiz-adv-x="1328" 
d="M270 114q-150 147 -150 458v848h129v-850q0 -250 105 -364q54 -60 136 -93.5t174 -33.5t174 33.5t136 93.5q105 114 105 364v850h129v-848q0 -311 -150 -458q-149 -146 -394 -146t-394 146zM776 1540h-102l-289 262h146z" />
    <glyph glyph-name="Uacute" unicode="&#xda;" horiz-adv-x="1328" 
d="M270 114q-150 147 -150 458v848h129v-850q0 -250 105 -364q54 -60 136 -93.5t174 -33.5t174 33.5t136 93.5q105 114 105 364v850h129v-848q0 -311 -150 -458q-149 -146 -394 -146t-394 146zM797 1802h146l-289 -262h-102z" />
    <glyph glyph-name="Ucircumflex" unicode="&#xdb;" horiz-adv-x="1328" 
d="M270 114q-150 147 -150 458v848h129v-850q0 -250 105 -364q54 -60 136 -93.5t174 -33.5t174 33.5t136 93.5q105 114 105 364v850h129v-848q0 -311 -150 -458q-149 -146 -394 -146t-394 146zM970 1520h-126l-180 217l-179 -217h-126l250 282h110z" />
    <glyph glyph-name="Udieresis" unicode="&#xdc;" horiz-adv-x="1328" 
d="M270 114q-150 147 -150 458v848h129v-850q0 -250 105 -364q54 -60 136 -93.5t174 -33.5t174 33.5t136 93.5q105 114 105 364v850h129v-848q0 -311 -150 -458q-149 -146 -394 -146t-394 146zM916 1556h-116v210h116v-210zM413 1766h116v-210h-116v210z" />
    <glyph glyph-name="Yacute" unicode="&#xdd;" horiz-adv-x="1248" 
d="M1090 1420h144l-546 -949v-471h-129v472l-545 948h144l465 -818zM750 1802h146l-289 -262h-102z" />
    <glyph glyph-name="Thorn" unicode="&#xde;" horiz-adv-x="1211" 
d="M253 0h-129v1420h129v-250h459q209 0 330 -110q120 -110 120 -312t-120 -312q-119 -109 -330 -109h-459v-327zM699 1056h-446v-615h446q69 0 127 16t105.5 50t74.5 95.5t27 145.5t-27 145.5t-74.5 96t-105.5 50.5t-127 16z" />
    <glyph glyph-name="germandbls" unicode="&#xdf;" horiz-adv-x="1125" 
d="M983 1085q0 -101 -47 -182q-51 -91 -180 -132q138 -39 217 -143q79 -103 79 -252q0 -175 -110 -282q-109 -106 -311 -106q-76 0 -135 11l-21 4v98q55 -15 130 -15q157 0 240 83q84 84 84 217q0 150 -103 241q-103 92 -265 92h-86v98h44q81 0 142.5 15.5t98.5 40.5
t60 60.5t31.5 70.5t8.5 75q0 127 -84 201q-85 74 -218 74q-144 0 -233 -93.5t-89 -293.5v-967h-122v944q0 136 33.5 236t95 158.5t140 86t175.5 27.5q191 0 307 -97q118 -97 118 -270z" />
    <glyph glyph-name="agrave" unicode="&#xe0;" horiz-adv-x="1064" 
d="M240 763h-121q4 45 19 85.5t46.5 80.5t77 69.5t115.5 47.5t157 18q180 0 279 -74q125 -92 125 -263v-460q0 -71 8 -143q7 -61 16 -96l7 -28h-122q-20 64 -28 188q-95 -213 -384 -213q-175 0 -265.5 75t-90.5 214q0 125 73 198q31 31 79 54q79 38 187 52q12 2 71 8l71 7
q87 9 128 23q66 22 93 54q36 41 36 108q0 66 -57 124q-30 33 -89.5 52.5t-136.5 19.5q-129 0 -204 -52t-90 -149zM561 488l-120 -18q-82 -12 -135 -36q-106 -49 -106 -164q0 -92 65 -143.5t190 -51.5q362 0 362 436v75q-49 -52 -158 -78q-41 -9 -98 -20zM687 1158h-102
l-289 262h146z" />
    <glyph glyph-name="aacute" unicode="&#xe1;" horiz-adv-x="1064" 
d="M240 763h-121q4 45 19 85.5t46.5 80.5t77 69.5t115.5 47.5t157 18q180 0 279 -74q125 -92 125 -263v-460q0 -71 8 -143q7 -61 16 -96l7 -28h-122q-20 64 -28 188q-95 -213 -384 -213q-175 0 -265.5 75t-90.5 214q0 125 73 198q31 31 79 54q79 38 187 52q12 2 71 8l71 7
q87 9 128 23q66 22 93 54q36 41 36 108q0 66 -57 124q-30 33 -89.5 52.5t-136.5 19.5q-129 0 -204 -52t-90 -149zM561 488l-120 -18q-82 -12 -135 -36q-106 -49 -106 -164q0 -92 65 -143.5t190 -51.5q362 0 362 436v75q-49 -52 -158 -78q-41 -9 -98 -20zM702 1420h146
l-289 -262h-102z" />
    <glyph glyph-name="acircumflex" unicode="&#xe2;" horiz-adv-x="1064" 
d="M240 763h-121q4 45 19 85.5t46.5 80.5t77 69.5t115.5 47.5t157 18q180 0 279 -74q125 -92 125 -263v-460q0 -71 8 -143q7 -61 16 -96l7 -28h-122q-20 64 -28 188q-95 -213 -384 -213q-175 0 -265.5 75t-90.5 214q0 125 73 198q31 31 79 54q79 38 187 52q12 2 71 8l71 7
q87 9 128 23q66 22 93 54q36 41 36 108q0 66 -57 124q-30 33 -89.5 52.5t-136.5 19.5q-129 0 -204 -52t-90 -149zM561 488l-120 -18q-82 -12 -135 -36q-106 -49 -106 -164q0 -92 65 -143.5t190 -51.5q362 0 362 436v75q-49 -52 -158 -78q-41 -9 -98 -20zM873 1138h-126
l-180 217l-179 -217h-126l250 282h110z" />
    <glyph glyph-name="atilde" unicode="&#xe3;" horiz-adv-x="1064" 
d="M240 763h-121q4 45 19 85.5t46.5 80.5t77 69.5t115.5 47.5t157 18q180 0 279 -74q125 -92 125 -263v-460q0 -71 8 -143q7 -61 16 -96l7 -28h-122q-20 64 -28 188q-95 -213 -384 -213q-175 0 -265.5 75t-90.5 214q0 125 73 198q31 31 79 54q79 38 187 52q12 2 71 8l71 7
q87 9 128 23q66 22 93 54q36 41 36 108q0 66 -57 124q-30 33 -89.5 52.5t-136.5 19.5q-129 0 -204 -52t-90 -149zM561 488l-120 -18q-82 -12 -135 -36q-106 -49 -106 -164q0 -92 65 -143.5t190 -51.5q362 0 362 436v75q-49 -52 -158 -78q-41 -9 -98 -20zM548 1246
q-55 31 -84 43q-27 11 -54 11q-50 0 -74 -31t-25 -102h-79q2 219 169 219q45 0 81 -16q36 -14 104 -53q55 -32 83 -43t57 -11q95 0 96 132h80q-1 -59 -15 -106q-14 -48 -55 -79.5t-102 -31.5q-39 0 -76 14q-38 15 -106 54z" />
    <glyph glyph-name="adieresis" unicode="&#xe4;" horiz-adv-x="1064" 
d="M240 763h-121q4 45 19 85.5t46.5 80.5t77 69.5t115.5 47.5t157 18q180 0 279 -74q125 -92 125 -263v-460q0 -71 8 -143q7 -61 16 -96l7 -28h-122q-20 64 -28 188q-95 -213 -384 -213q-175 0 -265.5 75t-90.5 214q0 125 73 198q31 31 79 54q79 38 187 52q12 2 71 8l71 7
q87 9 128 23q66 22 93 54q36 41 36 108q0 66 -57 124q-30 33 -89.5 52.5t-136.5 19.5q-129 0 -204 -52t-90 -149zM561 488l-120 -18q-82 -12 -135 -36q-106 -49 -106 -164q0 -92 65 -143.5t190 -51.5q362 0 362 436v75q-49 -52 -158 -78q-41 -9 -98 -20zM819 1173h-116v210
h116v-210zM316 1383h116v-210h-116v210z" />
    <glyph glyph-name="aring" unicode="&#xe5;" horiz-adv-x="1064" 
d="M240 763h-121q4 45 19 85.5t46.5 80.5t77 69.5t115.5 47.5t157 18q180 0 279 -74q125 -92 125 -263v-460q0 -71 8 -143q7 -61 16 -96l7 -28h-122q-20 64 -28 188q-95 -213 -384 -213q-175 0 -265.5 75t-90.5 214q0 125 73 198q31 31 79 54q79 38 187 52q12 2 71 8l71 7
q87 9 128 23q66 22 93 54q36 41 36 108q0 66 -57 124q-30 33 -89.5 52.5t-136.5 19.5q-129 0 -204 -52t-90 -149zM561 488l-120 -18q-82 -12 -135 -36q-106 -49 -106 -164q0 -92 65 -143.5t190 -51.5q362 0 362 436v75q-49 -52 -158 -78q-41 -9 -98 -20zM705 1427
q51 -48 51 -121t-51 -121t-138 -48t-138 48t-51 121t51 121t138 48t138 -48zM642 1233q28 28 28 73t-28 73q-29 29 -75 29t-75 -29q-28 -28 -28 -73t28 -73q29 -29 75 -29t75 29z" />
    <glyph glyph-name="ccedilla" unicode="&#xe7;" horiz-adv-x="1091" 
d="M570 -124q88 0 149 -43q62 -44 62 -125q0 -84 -69 -126q-67 -43 -178 -43q-66 0 -128 17q-78 23 -119 57l20 58q11 -9 32 -22q23 -14 73 -30q51 -16 106 -16q75 0 115.5 27.5t40.5 80.5q0 51 -37.5 80.5t-103.5 29.5q-64 0 -94 -21l-10 -7l-42 23l115 162
q-199 18 -311 163t-112 378q0 248 127 396q128 149 349 149q177 0 295 -105q119 -104 160 -285h-126q-38 135 -125 212q-89 78 -204 78q-155 0 -255 -124q-100 -122 -100 -321q0 -197 99 -321q101 -123 256 -123q116 0 204 79q89 80 126 210h125q-38 -178 -155 -280
q-120 -105 -284 -109l-78 -108q33 9 77 9z" />
    <glyph glyph-name="egrave" unicode="&#xe8;" horiz-adv-x="1086" 
d="M1008 467h-805q13 -179 108 -285q95 -107 238 -107q95 0 171.5 49t122.5 139h136q-58 -139 -167 -213.5t-263 -74.5q-221 0 -345 147q-125 149 -125 395t123 396q124 151 341 151q216 0 341 -149t125 -399zM549 964q-145 0 -240 -110q-94 -109 -106 -287h681
q-12 189 -104 293t-231 104zM654 1158h-102l-289 262h146z" />
    <glyph glyph-name="eacute" unicode="&#xe9;" horiz-adv-x="1086" 
d="M1008 467h-805q13 -179 108 -285q95 -107 238 -107q95 0 171.5 49t122.5 139h136q-58 -139 -167 -213.5t-263 -74.5q-221 0 -345 147q-125 149 -125 395t123 396q124 151 341 151q216 0 341 -149t125 -399zM549 964q-145 0 -240 -110q-94 -109 -106 -287h681
q-12 189 -104 293t-231 104zM679 1420h146l-289 -262h-102z" />
    <glyph glyph-name="ecircumflex" unicode="&#xea;" horiz-adv-x="1086" 
d="M1008 467h-805q13 -179 108 -285q95 -107 238 -107q95 0 171.5 49t122.5 139h136q-58 -139 -167 -213.5t-263 -74.5q-221 0 -345 147q-125 149 -125 395t123 396q124 151 341 151q216 0 341 -149t125 -399zM549 964q-145 0 -240 -110q-94 -109 -106 -287h681
q-12 189 -104 293t-231 104zM852 1138h-126l-180 217l-179 -217h-126l250 282h110z" />
    <glyph glyph-name="edieresis" unicode="&#xeb;" horiz-adv-x="1086" 
d="M1008 467h-805q13 -179 108 -285q95 -107 238 -107q95 0 171.5 49t122.5 139h136q-58 -139 -167 -213.5t-263 -74.5q-221 0 -345 147q-125 149 -125 395t123 396q124 151 341 151q216 0 341 -149t125 -399zM549 964q-145 0 -240 -110q-94 -109 -106 -287h681
q-12 189 -104 293t-231 104zM798 1173h-116v210h116v-210zM295 1383h116v-210h-116v210z" />
    <glyph glyph-name="igrave" unicode="&#xec;" horiz-adv-x="393" 
d="M300 1158h-102l-289 262h146zM257 0h-121v1038h121v-1038z" />
    <glyph glyph-name="iacute" unicode="&#xed;" horiz-adv-x="393" 
d="M338 1420h146l-289 -262h-102zM257 0h-121v1038h121v-1038z" />
    <glyph glyph-name="icircumflex" unicode="&#xee;" horiz-adv-x="393" 
d="M502 1138h-126l-180 217l-179 -217h-126l250 282h110zM257 0h-121v1038h121v-1038z" />
    <glyph glyph-name="idieresis" unicode="&#xef;" horiz-adv-x="393" 
d="M448 1173h-116v210h116v-210zM-55 1383h116v-210h-116v210zM257 0h-121v1038h121v-1038z" />
    <glyph glyph-name="eth" unicode="&#xf0;" horiz-adv-x="1107" 
d="M297 1202l583 311l58 -61l-583 -311zM547 -25q-215 0 -342 151t-127 397q0 236 119 388q120 153 322 153q249 0 361 -184q-29 79 -70 151q-79 138 -178 232q-42 41 -91 82q-30 25 -86 62q-48 31 -66 42l-43 24l94 45q19 -9 47 -24q25 -13 89 -59q56 -39 115 -93
q59 -52 119 -132q64 -82 110 -173q49 -94 78.5 -219.5t29.5 -256.5q0 -270 -127 -428q-128 -158 -354 -158zM549 75q166 0 262 126q96 127 96 339q0 117 -49 220q-38 90 -117 146.5t-193 57.5q-153 0 -251 -119t-98 -325q0 -207 98 -326q99 -119 252 -119z" />
    <glyph glyph-name="ntilde" unicode="&#xf1;" horiz-adv-x="1110" 
d="M537 1245q-55 31 -84 43q-27 11 -54 11q-50 0 -74 -31t-25 -102h-79q1 219 169 219q45 0 81 -16q36 -14 104 -53q55 -32 83 -43t57 -11q95 0 96 132h80q-1 -59 -15 -106q-14 -48 -55 -79.5t-102 -31.5q-39 0 -76 14q-38 15 -106 54zM994 0h-121v632q0 177 -71 254
q-70 76 -206 76q-173 0 -265 -122.5t-92 -347.5v-492h-121v1038h121v-190q95 216 378 216q190 0 283.5 -101t93.5 -315v-648z" />
    <glyph glyph-name="ograve" unicode="&#xf2;" horiz-adv-x="1125" 
d="M562 -25q-224 0 -354 148q-129 149 -129 396t129 396q131 149 354 149q216 0 349 -151q135 -150 135 -394t-135 -394q-133 -150 -349 -150zM562 964q-157 0 -259 -124q-102 -123 -102 -321t102 -321t259 -123q150 0 255 124q106 124 106 320t-106 320q-105 125 -255 125z
M676 1158h-102l-289 262h146z" />
    <glyph glyph-name="oacute" unicode="&#xf3;" horiz-adv-x="1125" 
d="M562 -25q-224 0 -354 148q-129 149 -129 396t129 396q131 149 354 149q216 0 349 -151q135 -150 135 -394t-135 -394q-133 -150 -349 -150zM562 964q-157 0 -259 -124q-102 -123 -102 -321t102 -321t259 -123q150 0 255 124q106 124 106 320t-106 320q-105 125 -255 125z
M693 1420h146l-289 -262h-102z" />
    <glyph glyph-name="ocircumflex" unicode="&#xf4;" horiz-adv-x="1125" 
d="M562 -25q-224 0 -354 148q-129 149 -129 396t129 396q131 149 354 149q216 0 349 -151q135 -150 135 -394t-135 -394q-133 -150 -349 -150zM562 964q-157 0 -259 -124q-102 -123 -102 -321t102 -321t259 -123q150 0 255 124q106 124 106 320t-106 320q-105 125 -255 125z
M868 1138h-126l-180 217l-179 -217h-126l250 282h110z" />
    <glyph glyph-name="otilde" unicode="&#xf5;" horiz-adv-x="1125" 
d="M543 1246q-55 31 -84 43q-27 11 -54 11q-50 0 -74 -31t-25 -102h-79q1 219 169 219q45 0 81 -16q36 -14 104 -53q55 -32 83 -43t57 -11q95 0 96 132h80q-1 -59 -15 -106q-14 -48 -55 -79.5t-102 -31.5q-39 0 -76 14q-38 15 -106 54zM562 -25q-224 0 -354 148
q-129 149 -129 396t129 396q131 149 354 149q216 0 349 -151q135 -150 135 -394t-135 -394q-133 -150 -349 -150zM562 964q-157 0 -259 -124q-102 -123 -102 -321t102 -321t259 -123q150 0 255 124q106 124 106 320t-106 320q-105 125 -255 125z" />
    <glyph glyph-name="odieresis" unicode="&#xf6;" horiz-adv-x="1125" 
d="M562 -25q-224 0 -354 148q-129 149 -129 396t129 396q131 149 354 149q216 0 349 -151q135 -150 135 -394t-135 -394q-133 -150 -349 -150zM562 964q-157 0 -259 -124q-102 -123 -102 -321t102 -321t259 -123q150 0 255 124q106 124 106 320t-106 320q-105 125 -255 125z
M814 1173h-116v210h116v-210zM311 1383h116v-210h-116v210z" />
    <glyph glyph-name="divide" unicode="&#xf7;" horiz-adv-x="1117" 
d="M1005 465h-893v108h893v-108zM631 786h-145v215h145v-215zM631 17h-145v215h145v-215z" />
    <glyph glyph-name="oslash" unicode="&#xf8;" horiz-adv-x="1125" 
d="M140 -53l-51 45l889 1047l51 -45zM562 -25q-224 0 -354 148q-129 149 -129 396t129 396q131 149 354 149q216 0 349 -151q135 -150 135 -394t-135 -394q-133 -150 -349 -150zM562 964q-157 0 -259 -124q-102 -123 -102 -321t102 -321t259 -123q150 0 255 124
q106 124 106 320t-106 320q-105 125 -255 125z" />
    <glyph glyph-name="ugrave" unicode="&#xf9;" horiz-adv-x="1103" 
d="M116 1038h121v-631q0 -178 70 -254t204 -76q173 0 263 121.5t90 348.5v491h121v-1038h-121v186q-94 -211 -374 -211q-189 0 -281.5 101t-92.5 315v647zM666 1158h-102l-289 262h146z" />
    <glyph glyph-name="uacute" unicode="&#xfa;" horiz-adv-x="1103" 
d="M116 1038h121v-631q0 -178 70 -254t204 -76q173 0 263 121.5t90 348.5v491h121v-1038h-121v186q-94 -211 -374 -211q-189 0 -281.5 101t-92.5 315v647zM680 1420h146l-289 -262h-102z" />
    <glyph glyph-name="ucircumflex" unicode="&#xfb;" horiz-adv-x="1103" 
d="M116 1038h121v-631q0 -178 70 -254t204 -76q173 0 263 121.5t90 348.5v491h121v-1038h-121v186q-94 -211 -374 -211q-189 0 -281.5 101t-92.5 315v647zM856 1138h-126l-180 217l-179 -217h-126l250 282h110z" />
    <glyph glyph-name="udieresis" unicode="&#xfc;" horiz-adv-x="1103" 
d="M116 1038h121v-631q0 -178 70 -254t204 -76q173 0 263 121.5t90 348.5v491h121v-1038h-121v186q-94 -211 -374 -211q-189 0 -281.5 101t-92.5 315v647zM802 1173h-116v210h116v-210zM299 1383h116v-210h-116v210z" />
    <glyph glyph-name="yacute" unicode="&#xfd;" horiz-adv-x="1009" 
d="M444 -11l-430 1049h133l357 -899l357 899h134l-583 -1420h-127zM639 1420h146l-289 -262h-102z" />
    <glyph glyph-name="thorn" unicode="&#xfe;" horiz-adv-x="1146" 
d="M239 187v-569h-121v1802h121v-569q115 213 386 213q200 2 323.5 -154t119.5 -391q2 -153 -52 -277.5t-156.5 -196t-234.5 -70.5q-270 0 -386 212zM592 75q156 0 255 119q100 118 100 325t-100 325q-99 120 -255 120q-154 0 -254 -120q-99 -118 -99 -325t99 -325
q101 -119 254 -119z" />
    <glyph glyph-name="ydieresis" unicode="&#xff;" horiz-adv-x="1009" 
d="M444 -11l-430 1049h133l357 -899l357 899h134l-583 -1420h-127zM756 1173h-116v210h116v-210zM253 1383h116v-210h-116v210z" />
    <glyph glyph-name="Amacron" unicode="&#x100;" horiz-adv-x="1254" 
d="M1246 0h-134l-153 399h-665l-152 -399h-134l555 1420h128zM916 513l-289 755l-289 -755h578zM897 1618h-539v90h539v-90z" />
    <glyph glyph-name="amacron" unicode="&#x101;" horiz-adv-x="1064" 
d="M240 763h-121q4 45 19 85.5t46.5 80.5t77 69.5t115.5 47.5t157 18q180 0 279 -74q125 -92 125 -263v-460q0 -71 8 -143q7 -61 16 -96l7 -28h-122q-20 64 -28 188q-95 -213 -384 -213q-175 0 -265.5 75t-90.5 214q0 125 73 198q31 31 79 54q79 38 187 52q12 2 71 8l71 7
q87 9 128 23q66 22 93 54q36 41 36 108q0 66 -57 124q-30 33 -89.5 52.5t-136.5 19.5q-129 0 -204 -52t-90 -149zM561 488l-120 -18q-82 -12 -135 -36q-106 -49 -106 -164q0 -92 65 -143.5t190 -51.5q362 0 362 436v75q-49 -52 -158 -78q-41 -9 -98 -20zM837 1236h-539v90
h539v-90z" />
    <glyph glyph-name="Abreve" unicode="&#x102;" horiz-adv-x="1254" 
d="M812 1788h80q-1 -45 -16 -86.5t-45 -78.5t-82.5 -59.5t-121.5 -22.5t-121.5 22.5t-82.5 59.5t-45 78.5t-16 86.5h80q4 -76 54.5 -120.5t130.5 -44.5t130.5 44.5t54.5 120.5zM1246 0h-134l-153 399h-665l-152 -399h-134l555 1420h128zM916 513l-289 755l-289 -755h578z
" />
    <glyph glyph-name="abreve" unicode="&#x103;" horiz-adv-x="1064" 
d="M240 763h-121q4 45 19 85.5t46.5 80.5t77 69.5t115.5 47.5t157 18q180 0 279 -74q125 -92 125 -263v-460q0 -71 8 -143q7 -61 16 -96l7 -28h-122q-20 64 -28 188q-95 -213 -384 -213q-175 0 -265.5 75t-90.5 214q0 125 73 198q31 31 79 54q79 38 187 52q12 2 71 8l71 7
q87 9 128 23q66 22 93 54q36 41 36 108q0 66 -57 124q-30 33 -89.5 52.5t-136.5 19.5q-129 0 -204 -52t-90 -149zM561 488l-120 -18q-82 -12 -135 -36q-106 -49 -106 -164q0 -92 65 -143.5t190 -51.5q362 0 362 436v75q-49 -52 -158 -78q-41 -9 -98 -20zM752 1406h80
q-1 -45 -16 -86.5t-45 -78.5t-82.5 -59.5t-121.5 -22.5t-121.5 22.5t-82.5 59.5t-45 78.5t-16 86.5h80q4 -76 54.5 -120.5t130.5 -44.5t130.5 44.5t54.5 120.5z" />
    <glyph glyph-name="Aogonek" unicode="&#x104;" horiz-adv-x="1254" 
d="M1046 -461q-95 0 -148 43t-53 118q0 84 66 157q26 28 67 57q65 45 139 75l-158 410h-665l-152 -399h-134l555 1420h128l555 -1420q-83 -30 -153 -73q-146 -87 -150 -207q0 -115 135 -115q40 0 75 12q53 18 73 40v-62q-21 -21 -69 -38.5t-111 -17.5zM916 513l-289 755
l-289 -755h578z" />
    <glyph glyph-name="aogonek" unicode="&#x105;" horiz-adv-x="1064" 
d="M769 -461q-95 0 -148 43t-53 118q0 93 80 171q30 29 78 59q70 43 144 70h-23q-20 64 -28 188q-95 -213 -384 -213q-175 0 -265.5 75t-90.5 214q0 125 73 198q31 31 79 54q79 38 187 52q12 2 71 8l71 7q87 9 128 23q66 22 93 54q36 41 36 108q0 66 -57 124
q-30 33 -89.5 52.5t-136.5 19.5q-129 0 -204 -52t-90 -149h-121q4 45 19 85.5t46.5 80.5t77 69.5t115.5 47.5t157 18q180 0 279 -74q125 -92 125 -263v-460q0 -71 8 -143q7 -61 16 -96l7 -28q-83 -30 -153 -73q-146 -87 -150 -207q0 -115 135 -115q41 0 75 12q53 18 73 40
v-62q-21 -21 -69 -38.5t-111 -17.5zM561 488l-120 -18q-82 -12 -135 -36q-106 -49 -106 -164q0 -92 65 -143.5t190 -51.5q362 0 362 436v75q-49 -52 -158 -78q-41 -9 -98 -20z" />
    <glyph glyph-name="Cacute" unicode="&#x106;" horiz-adv-x="1454" 
d="M741 79q177 0 314 116q139 118 176 321h131q-39 -249 -211 -398q-171 -150 -408 -150q-187 0 -335 93t-232 262t-84 387q0 216 84 386q85 171 232 263q148 93 335 93q237 0 408 -150q172 -149 211 -398h-131q-38 203 -176 320q-137 117 -314 117q-105 0 -199.5 -43
t-166.5 -122q-72 -80 -113 -201t-41 -265t41 -265t113 -201q72 -79 166.5 -122t199.5 -43zM901 1802h146l-289 -262h-102z" />
    <glyph glyph-name="cacute" unicode="&#x107;" horiz-adv-x="1091" 
d="M555 1064q177 0 295 -105q119 -104 160 -285h-126q-38 135 -125 212q-89 78 -204 78q-155 0 -255 -124q-100 -122 -100 -321q0 -197 99 -321q101 -123 256 -123q116 0 204 79q89 80 126 210h125q-37 -179 -161 -285q-122 -104 -294 -104q-222 0 -349 148t-127 396
t127 396q128 149 349 149zM679 1420h146l-289 -262h-102z" />
    <glyph glyph-name="Ccircumflex" unicode="&#x108;" horiz-adv-x="1454" 
d="M741 79q177 0 314 116q139 118 176 321h131q-39 -249 -211 -398q-171 -150 -408 -150q-187 0 -335 93t-232 262t-84 387q0 216 84 386q85 171 232 263q148 93 335 93q237 0 408 -150q172 -149 211 -398h-131q-38 203 -176 320q-137 117 -314 117q-105 0 -199.5 -43
t-166.5 -122q-72 -80 -113 -201t-41 -265t41 -265t113 -201q72 -79 166.5 -122t199.5 -43zM1037 1520h-126l-180 217l-179 -217h-126l250 282h110z" />
    <glyph glyph-name="ccircumflex" unicode="&#x109;" horiz-adv-x="1091" 
d="M555 1064q177 0 295 -105q119 -104 160 -285h-126q-38 135 -125 212q-89 78 -204 78q-155 0 -255 -124q-100 -122 -100 -321q0 -197 99 -321q101 -123 256 -123q116 0 204 79q89 80 126 210h125q-37 -179 -161 -285q-122 -104 -294 -104q-222 0 -349 148t-127 396
t127 396q128 149 349 149zM856 1138h-126l-180 217l-179 -217h-126l250 282h110z" />
    <glyph glyph-name="Cdotaccent" unicode="&#x10a;" horiz-adv-x="1454" 
d="M741 79q177 0 314 116q139 118 176 321h131q-39 -249 -211 -398q-171 -150 -408 -150q-187 0 -335 93t-232 262t-84 387q0 216 84 386q85 171 232 263q148 93 335 93q237 0 408 -150q172 -149 211 -398h-131q-38 203 -176 320q-137 117 -314 117q-105 0 -199.5 -43
t-166.5 -122q-72 -80 -113 -201t-41 -265t41 -265t113 -201q72 -79 166.5 -122t199.5 -43zM675 1765h120v-210h-120v210z" />
    <glyph glyph-name="cdotaccent" unicode="&#x10b;" horiz-adv-x="1091" 
d="M555 1064q177 0 295 -105q119 -104 160 -285h-126q-38 135 -125 212q-89 78 -204 78q-155 0 -255 -124q-100 -122 -100 -321q0 -197 99 -321q101 -123 256 -123q116 0 204 79q89 80 126 210h125q-37 -179 -161 -285q-122 -104 -294 -104q-222 0 -349 148t-127 396
t127 396q128 149 349 149zM490 1383h120v-210h-120v210z" />
    <glyph glyph-name="Ccaron" unicode="&#x10c;" horiz-adv-x="1454" 
d="M741 79q177 0 314 116q139 118 176 321h131q-39 -249 -211 -398q-171 -150 -408 -150q-187 0 -335 93t-232 262t-84 387q0 216 84 386q85 171 232 263q148 93 335 93q237 0 408 -150q172 -149 211 -398h-131q-38 203 -176 320q-137 117 -314 117q-105 0 -199.5 -43
t-166.5 -122q-72 -80 -113 -201t-41 -265t41 -265t113 -201q72 -79 166.5 -122t199.5 -43zM552 1802l179 -217l180 217h126l-251 -282h-110l-250 282h126z" />
    <glyph glyph-name="ccaron" unicode="&#x10d;" horiz-adv-x="1091" 
d="M555 1064q177 0 295 -105q119 -104 160 -285h-126q-38 135 -125 212q-89 78 -204 78q-155 0 -255 -124q-100 -122 -100 -321q0 -197 99 -321q101 -123 256 -123q116 0 204 79q89 80 126 210h125q-37 -179 -161 -285q-122 -104 -294 -104q-222 0 -349 148t-127 396
t127 396q128 149 349 149zM371 1420l179 -217l180 217h126l-251 -282h-110l-250 282h126z" />
    <glyph glyph-name="Dcaron" unicode="&#x10e;" horiz-adv-x="1340" 
d="M581 0h-457v1420h457q308 0 487 -191q180 -191 180 -519q0 -330 -180 -520q-178 -190 -487 -190zM586 1308h-333v-1196h333q238 0 385 157q148 157 148 441q0 283 -148 440q-147 158 -385 158zM429 1802l179 -217l180 217h126l-251 -282h-110l-250 282h126z" />
    <glyph glyph-name="dcaron" unicode="&#x10f;" horiz-adv-x="1216" 
d="M1300 1048h-83l90 372h111zM1028 1420v-1420h-121v187q-116 -212 -386 -212q-201 0 -323 153q-120 153 -120 391q-4 234 120 390.5t323 154.5q271 0 386 -213v569h121zM554 75q154 0 253 119q100 118 100 325t-100 325q-99 120 -253 120q-156 0 -256 -120
q-99 -118 -99 -325t99 -325q101 -119 256 -119z" />
    <glyph glyph-name="Dcroat" unicode="&#x110;" horiz-adv-x="1401" 
d="M698 653h-699v114h699v-114zM642 0h-457v1420h457q308 0 487 -191q180 -191 180 -519q0 -330 -180 -520q-178 -190 -487 -190zM647 1308h-333v-1196h333q238 0 385 157q148 157 148 441q0 283 -148 440q-147 158 -385 158z" />
    <glyph glyph-name="dslash" unicode="&#x111;" horiz-adv-x="1146" 
d="M1151 1191h-634v90h634v-90zM907 851v569h121v-1420h-121v187q-116 -212 -386 -212q-201 0 -323 153q-120 153 -120 391q-4 234 120 390.5t323 154.5q271 0 386 -213zM554 964q-156 0 -256 -120q-99 -118 -99 -325t99 -325q101 -119 256 -119q154 0 253 119
q100 118 100 325t-100 325q-99 120 -253 120z" />
    <glyph glyph-name="Emacron" unicode="&#x112;" horiz-adv-x="1190" 
d="M1095 0h-971v1420h964v-114h-835v-539h737v-114h-737v-539h842v-114zM879 1618h-539v90h539v-90z" />
    <glyph glyph-name="emacron" unicode="&#x113;" horiz-adv-x="1086" 
d="M1008 467h-805q13 -179 108 -285q95 -107 238 -107q95 0 171.5 49t122.5 139h136q-58 -139 -167 -213.5t-263 -74.5q-221 0 -345 147q-125 149 -125 395t123 396q124 151 341 151q216 0 341 -149t125 -399zM549 964q-145 0 -240 -110q-94 -109 -106 -287h681
q-12 189 -104 293t-231 104zM816 1236h-539v90h539v-90z" />
    <glyph glyph-name="Ebreve" unicode="&#x114;" horiz-adv-x="1190" 
d="M794 1788h80q-1 -45 -16 -86.5t-45 -78.5t-82.5 -59.5t-121.5 -22.5t-121.5 22.5t-82.5 59.5t-45 78.5t-16 86.5h80q4 -76 54.5 -120.5t130.5 -44.5t130.5 44.5t54.5 120.5zM1095 0h-971v1420h964v-114h-835v-539h737v-114h-737v-539h842v-114z" />
    <glyph glyph-name="ebreve" unicode="&#x115;" horiz-adv-x="1086" 
d="M1008 467h-805q13 -179 108 -285q95 -107 238 -107q95 0 171.5 49t122.5 139h136q-58 -139 -167 -213.5t-263 -74.5q-221 0 -345 147q-125 149 -125 395t123 396q124 151 341 151q216 0 341 -149t125 -399zM549 964q-145 0 -240 -110q-94 -109 -106 -287h681
q-12 189 -104 293t-231 104zM731 1406h80q-1 -45 -16 -86.5t-45 -78.5t-82.5 -59.5t-121.5 -22.5t-121.5 22.5t-82.5 59.5t-45 78.5t-16 86.5h80q4 -76 54.5 -120.5t130.5 -44.5t130.5 44.5t54.5 120.5z" />
    <glyph glyph-name="Edotaccent" unicode="&#x116;" horiz-adv-x="1190" 
d="M1095 0h-971v1420h964v-114h-835v-539h737v-114h-737v-539h842v-114zM549 1765h120v-210h-120v210z" />
    <glyph glyph-name="edotaccent" unicode="&#x117;" horiz-adv-x="1086" 
d="M1008 467h-805q13 -179 108 -285q95 -107 238 -107q95 0 171.5 49t122.5 139h136q-58 -139 -167 -213.5t-263 -74.5q-221 0 -345 147q-125 149 -125 395t123 396q124 151 341 151q216 0 341 -149t125 -399zM549 964q-145 0 -240 -110q-94 -109 -106 -287h681
q-12 189 -104 293t-231 104zM486 1383h120v-210h-120v210z" />
    <glyph glyph-name="Eogonek" unicode="&#x118;" horiz-adv-x="1190" 
d="M996 0h-872v1420h964v-114h-835v-539h737v-114h-737v-539h842v-114q-83 -30 -153 -73q-146 -87 -150 -207q0 -115 135 -115q41 0 75 12q53 18 73 40v-62q-21 -21 -69 -38.5t-111 -17.5q-95 0 -148 43t-53 118q0 93 80 171q30 29 78 59q70 43 144 70z" />
    <glyph glyph-name="eogonek" unicode="&#x119;" horiz-adv-x="1086" 
d="M618 -461q-96 0 -148.5 43.5t-52.5 119.5q0 145 191 276q-28 -3 -59 -3q-221 0 -345 147q-125 149 -125 395t123 396q124 151 341 151q216 0 341 -149t125 -399l-1 -49h-805q13 -179 108 -285q95 -107 238 -107q95 0 171.5 49t122.5 139h136q-66 -162 -202 -235
q-94 -49 -174 -124q-88 -86 -88 -181q0 -57 34.5 -87.5t99.5 -30.5q40 0 78 12.5t55 26.5l16 13v-62q-12 -10 -20 -15q-12 -10 -60 -25q-45 -16 -100 -16zM549 964q-145 0 -240 -110q-94 -109 -106 -287h681q-12 189 -104 293t-231 104z" />
    <glyph glyph-name="Ecaron" unicode="&#x11a;" horiz-adv-x="1190" 
d="M1095 0h-971v1420h964v-114h-835v-539h737v-114h-737v-539h842v-114zM430 1802l179 -217l180 217h126l-251 -282h-110l-250 282h126z" />
    <glyph glyph-name="ecaron" unicode="&#x11b;" horiz-adv-x="1086" 
d="M1008 467h-805q13 -179 108 -285q95 -107 238 -107q95 0 171.5 49t122.5 139h136q-58 -139 -167 -213.5t-263 -74.5q-221 0 -345 147q-125 149 -125 395t123 396q124 151 341 151q216 0 341 -149t125 -399zM549 964q-145 0 -240 -110q-94 -109 -106 -287h681
q-12 189 -104 293t-231 104zM367 1420l179 -217l180 217h126l-251 -282h-110l-250 282h126z" />
    <glyph glyph-name="Gcircumflex" unicode="&#x11c;" horiz-adv-x="1494" 
d="M1268 593h-468v111h580v-704h-112v264q-68 -137 -202 -217q-133 -79 -313 -79q-143 0 -265 52t-211 148q-88 96 -136.5 235t-48.5 303q0 220 84 390q85 172 232 263q148 93 338 93q220 0 390 -119q169 -118 223 -321h-130q-49 153 -185 241q-133 88 -300 88
q-107 0 -202 -43.5t-167 -124.5q-72 -80 -113 -200.5t-41 -263.5q0 -285 150 -458q150 -172 389 -172q209 0 351 140q140 139 157 374zM1052 1520h-126l-180 217l-179 -217h-126l250 282h110z" />
    <glyph glyph-name="gcircumflex" unicode="&#x11d;" horiz-adv-x="1147" 
d="M558 -307q213 0 284 121q37 60 51.5 138.5t14.5 201.5v33q-116 -212 -386 -212q-202 0 -323 153q-120 153 -120 391q-4 234 120 390.5t323 154.5q270 0 386 -213v187h121v-884q0 -78 -4 -127q-9 -138 -49 -221q-49 -106 -141 -155q-105 -58 -279 -58q-199 0 -299 74
q-89 66 -131 179h122q80 -153 310 -153zM555 964q-155 0 -256 -120q-99 -118 -99 -325t99 -325q101 -119 256 -119q154 0 253 119q100 118 100 325t-100 325q-99 120 -253 120zM882 1138h-126l-180 217l-179 -217h-126l250 282h110z" />
    <glyph glyph-name="Gbreve" unicode="&#x11e;" horiz-adv-x="1494" 
d="M1268 593h-468v111h580v-704h-112v264q-68 -137 -202 -217q-133 -79 -313 -79q-143 0 -265 52t-211 148q-88 96 -136.5 235t-48.5 303q0 220 84 390q85 172 232 263q148 93 338 93q220 0 390 -119q169 -118 223 -321h-130q-49 153 -185 241q-133 88 -300 88
q-107 0 -202 -43.5t-167 -124.5q-72 -80 -113 -200.5t-41 -263.5q0 -285 150 -458q150 -172 389 -172q209 0 351 140q140 139 157 374zM931 1788h80q-1 -45 -16 -86.5t-45 -78.5t-82.5 -59.5t-121.5 -22.5t-121.5 22.5t-82.5 59.5t-45 78.5t-16 86.5h80q4 -76 54.5 -120.5
t130.5 -44.5t130.5 44.5t54.5 120.5z" />
    <glyph glyph-name="gbreve" unicode="&#x11f;" horiz-adv-x="1147" 
d="M558 -307q213 0 284 121q37 60 51.5 138.5t14.5 201.5v33q-116 -212 -386 -212q-202 0 -323 153q-120 153 -120 391q-4 234 120 390.5t323 154.5q270 0 386 -213v187h121v-884q0 -78 -4 -127q-9 -138 -49 -221q-49 -106 -141 -155q-105 -58 -279 -58q-199 0 -299 74
q-89 66 -131 179h122q80 -153 310 -153zM555 964q-155 0 -256 -120q-99 -118 -99 -325t99 -325q101 -119 256 -119q154 0 253 119q100 118 100 325t-100 325q-99 120 -253 120zM761 1406h80q-1 -45 -16 -86.5t-45 -78.5t-82.5 -59.5t-121.5 -22.5t-121.5 22.5t-82.5 59.5
t-45 78.5t-16 86.5h80q4 -76 54.5 -120.5t130.5 -44.5t130.5 44.5t54.5 120.5z" />
    <glyph glyph-name="Gdotaccent" unicode="&#x120;" horiz-adv-x="1494" 
d="M1268 593h-468v111h580v-704h-112v264q-68 -137 -202 -217q-133 -79 -313 -79q-143 0 -265 52t-211 148q-88 96 -136.5 235t-48.5 303q0 220 84 390q85 172 232 263q148 93 338 93q220 0 390 -119q169 -118 223 -321h-130q-49 153 -185 241q-133 88 -300 88
q-107 0 -202 -43.5t-167 -124.5q-72 -80 -113 -200.5t-41 -263.5q0 -285 150 -458q150 -172 389 -172q209 0 351 140q140 139 157 374zM686 1765h120v-210h-120v210z" />
    <glyph glyph-name="gdotaccent" unicode="&#x121;" horiz-adv-x="1147" 
d="M558 -307q213 0 284 121q37 60 51.5 138.5t14.5 201.5v33q-116 -212 -386 -212q-202 0 -323 153q-120 153 -120 391q-4 234 120 390.5t323 154.5q270 0 386 -213v187h121v-884q0 -78 -4 -127q-9 -138 -49 -221q-49 -106 -141 -155q-105 -58 -279 -58q-199 0 -299 74
q-89 66 -131 179h122q80 -153 310 -153zM555 964q-155 0 -256 -120q-99 -118 -99 -325t99 -325q101 -119 256 -119q154 0 253 119q100 118 100 325t-100 325q-99 120 -253 120zM516 1383h120v-210h-120v210z" />
    <glyph glyph-name="Gcommaaccent" unicode="&#x122;" horiz-adv-x="1494" 
d="M1268 593h-468v111h580v-704h-112v264q-68 -137 -202 -217q-133 -79 -313 -79q-143 0 -265 52t-211 148q-88 96 -136.5 235t-48.5 303q0 220 84 390q85 172 232 263q148 93 338 93q220 0 390 -119q169 -118 223 -321h-130q-49 153 -185 241q-133 88 -300 88
q-107 0 -202 -43.5t-167 -124.5q-72 -80 -113 -200.5t-41 -263.5q0 -285 150 -458q150 -172 389 -172q209 0 351 140q140 139 157 374zM740 -316h-54v181h120v-162q0 -51 -16 -108l-28 -94h-72z" />
    <glyph glyph-name="gcommaaccent" unicode="&#x123;" horiz-adv-x="1147" 
d="M582 1354h54v-181h-120v162q0 51 16 108l28 94h72zM558 -307q213 0 284 121q37 60 51.5 138.5t14.5 201.5v33q-116 -212 -386 -212q-202 0 -323 153q-120 153 -120 391q-4 234 120 390.5t323 154.5q270 0 386 -213v187h121v-884q0 -78 -4 -127q-9 -138 -49 -221
q-49 -106 -141 -155q-105 -58 -279 -58q-199 0 -299 74q-89 66 -131 179h122q80 -153 310 -153zM555 964q-155 0 -256 -120q-99 -118 -99 -325t99 -325q101 -119 256 -119q154 0 253 119q100 118 100 325t-100 325q-99 120 -253 120z" />
    <glyph glyph-name="Hcircumflex" unicode="&#x124;" horiz-adv-x="1344" 
d="M253 0h-129v1420h129v-653h838v653h129v-1420h-129v653h-838v-653zM978 1520h-126l-180 217l-179 -217h-126l250 282h110z" />
    <glyph glyph-name="hcircumflex" unicode="&#x125;" horiz-adv-x="1114" 
d="M998 0h-121v632q0 173 -70 251.5t-209 78.5q-173 0 -266 -122.5t-93 -347.5v-492h-121v1420h121v-573q94 217 380 217q190 0 284.5 -101.5t94.5 -314.5v-648zM484 1520h-126l-180 217l-179 -217h-126l250 282h110z" />
    <glyph glyph-name="Hbar" unicode="&#x126;" horiz-adv-x="1370" 
d="M1419 1118h-1468v78h1468v-78zM266 0h-129v1420h129v-653h838v653h129v-1420h-129v653h-838v-653z" />
    <glyph glyph-name="hbar" unicode="&#x127;" horiz-adv-x="1114" 
d="M629 1191h-634v90h634v-90zM998 0h-121v632q0 173 -70 251.5t-209 78.5q-173 0 -266 -122.5t-93 -347.5v-492h-121v1420h121v-573q94 217 380 217q190 0 284.5 -101.5t94.5 -314.5v-648z" />
    <glyph glyph-name="Itilde" unicode="&#x128;" horiz-adv-x="429" 
d="M195 1628q-55 31 -84 43q-27 11 -54 11q-50 0 -74 -31t-25 -102h-79q1 219 169 219q45 0 81 -16q36 -14 104 -53q55 -32 83 -43t57 -11q95 0 96 132h80q-1 -59 -15 -106q-14 -48 -55 -79.5t-102 -31.5q-39 0 -76 14q-38 15 -106 54zM279 0h-129v1420h129v-1420z" />
    <glyph glyph-name="itilde" unicode="&#x129;" horiz-adv-x="393" 
d="M177 1246q-55 31 -84 43q-27 11 -54 11q-50 0 -74 -31t-25 -102h-79q1 219 169 219q45 0 81 -16q36 -14 104 -53q55 -32 83 -43t57 -11q95 0 96 132h80q-1 -59 -15 -106q-14 -48 -55 -79.5t-102 -31.5q-39 0 -76 14q-38 15 -106 54zM257 0h-121v1038h121v-1038z" />
    <glyph glyph-name="Imacron" unicode="&#x12a;" horiz-adv-x="429" 
d="M484 1618h-539v90h539v-90zM279 0h-129v1420h129v-1420z" />
    <glyph glyph-name="imacron" unicode="&#x12b;" horiz-adv-x="393" 
d="M466 1236h-539v90h539v-90zM257 0h-121v1038h121v-1038z" />
    <glyph glyph-name="Ibreve" unicode="&#x12c;" horiz-adv-x="429" 
d="M399 1788h80q-1 -45 -16 -86.5t-45 -78.5t-82.5 -59.5t-121.5 -22.5t-121.5 22.5t-82.5 59.5t-45 78.5t-16 86.5h80q4 -76 54.5 -120.5t130.5 -44.5t130.5 44.5t54.5 120.5zM279 0h-129v1420h129v-1420z" />
    <glyph glyph-name="ibreve" unicode="&#x12d;" horiz-adv-x="393" 
d="M381 1406h80q-1 -45 -16 -86.5t-45 -78.5t-82.5 -59.5t-121.5 -22.5t-121.5 22.5t-82.5 59.5t-45 78.5t-16 86.5h80q4 -76 54.5 -120.5t130.5 -44.5t130.5 44.5t54.5 120.5zM257 0h-121v1038h121v-1038z" />
    <glyph glyph-name="Iogonek" unicode="&#x12e;" horiz-adv-x="429" 
d="M188 0h-38v1420h129v-1420q-217 -118 -217 -280q0 -115 135 -115q41 0 75 12q53 18 73 40v-62q-21 -21 -69 -38.5t-111 -17.5q-95 0 -148 43t-53 118q0 107 76 186q66 68 148 114z" />
    <glyph glyph-name="iogonek" unicode="&#x12f;" horiz-adv-x="393" 
d="M166 0h-30v1038h121v-1038q-217 -118 -217 -280q0 -115 135 -115q41 0 75 12q53 18 73 40v-62q-21 -21 -69 -38.5t-111 -17.5q-95 0 -148 43t-53 118q0 107 76 186q66 68 148 114zM131 1420h131v-193h-131v193z" />
    <glyph glyph-name="Idot" unicode="&#x130;" horiz-adv-x="429" 
d="M154 1765h120v-210h-120v210zM279 0h-129v1420h129v-1420z" />
    <glyph glyph-name="dotlessi" unicode="&#x131;" horiz-adv-x="393" 
d="M257 0h-121v1038h121v-1038z" />
    <glyph glyph-name="IJ" unicode="&#x132;" horiz-adv-x="1597" 
d="M977 -32q-252 0 -382 154q-119 140 -119 397v46h130v-43q0 -215 90 -323q100 -120 280 -120t281 120q48 57 69 133t21 190v898h130v-906q0 -252 -119 -392q-130 -154 -381 -154zM279 0h-129v1420h129v-1420z" />
    <glyph glyph-name="ij" unicode="&#x133;" horiz-adv-x="786" 
d="M650 1038v-1120q0 -300 -263 -300h-45v98h19q84 0 126 49.5t42 159.5v1113h121zM524 1420h131v-193h-131v193zM257 0h-121v1038h121v-1038zM131 1420h131v-193h-131v193z" />
    <glyph glyph-name="Jcircumflex" unicode="&#x134;" horiz-adv-x="1168" 
d="M548 -32q-252 0 -382 154q-119 140 -119 397v46h130v-43q0 -215 90 -323q101 -120 280 -120q181 0 281 120q48 57 69 133t21 190v898h130v-906q0 -252 -119 -392q-130 -154 -381 -154zM1289 1520h-126l-180 217l-179 -217h-126l250 282h110z" />
    <glyph glyph-name="jcircumflex" unicode="&#x135;" horiz-adv-x="393" 
d="M257 1038v-1120q0 -300 -263 -300h-45v98h19q84 0 126 49.5t42 159.5v1113h121zM502 1138h-126l-180 217l-179 -217h-126l250 282h110z" />
    <glyph glyph-name="Kcommaaccent" unicode="&#x136;" horiz-adv-x="1238" 
d="M1246 0h-150l-451 773l-392 -448v-325h-129v1420h129v-921l788 921h168l-477 -546zM622 -316h-54v181h120v-162q0 -51 -16 -108l-28 -94h-72z" />
    <glyph glyph-name="kcommaaccent" unicode="&#x137;" horiz-adv-x="1016" 
d="M1017 0h-138l-371 544l-269 -277v-267h-121v1420h121v-1006l589 624h163l-396 -405zM522 -316h-54v181h120v-162q0 -51 -16 -108l-28 -94h-72z" />
    <glyph glyph-name="kgreenlandic" unicode="&#x138;" horiz-adv-x="1016" 
d="M1017 0h-138l-371 544l-269 -277v-267h-121v1038h121v-624l589 624h163l-396 -405z" />
    <glyph glyph-name="Lacute" unicode="&#x139;" horiz-adv-x="1110" 
d="M1024 0h-900v1420h129v-1306h771v-114zM326 1802h146l-289 -262h-102z" />
    <glyph glyph-name="lacute" unicode="&#x13a;" horiz-adv-x="393" 
d="M338 1802h146l-289 -262h-102zM257 0h-121v1420h121v-1420z" />
    <glyph glyph-name="Lcommaaccent" unicode="&#x13b;" horiz-adv-x="1110" 
d="M568 -316h-54v181h120v-162q0 -51 -16 -108l-28 -94h-72zM1024 0h-900v1420h129v-1306h771v-114z" />
    <glyph glyph-name="lcommaaccent" unicode="&#x13c;" horiz-adv-x="393" 
d="M190 -316h-54v181h120v-162q0 -51 -16 -108l-28 -94h-72zM257 0h-121v1420h121v-1420z" />
    <glyph glyph-name="Lcaron" unicode="&#x13d;" horiz-adv-x="1110" 
d="M1024 0h-900v1420h129v-1306h771v-114zM679 1048h-83l90 372h111z" />
    <glyph glyph-name="lcaron" unicode="&#x13e;" horiz-adv-x="463" 
d="M529 1048h-83l90 372h111zM257 0h-121v1420h121v-1420z" />
    <glyph glyph-name="Ldot" unicode="&#x13f;" horiz-adv-x="1110" 
d="M1024 0h-900v1420h129v-1306h771v-114zM894 602h-145v215h145v-215z" />
    <glyph glyph-name="ldot" unicode="&#x140;" horiz-adv-x="762" 
d="M650 587h-145v215h145v-215zM257 0h-121v1420h121v-1420z" />
    <glyph glyph-name="Lslash" unicode="&#x141;" horiz-adv-x="1171" 
d="M24 546v99l751 343v-99zM1085 0h-900v1420h129v-1306h771v-114z" />
    <glyph glyph-name="lslash" unicode="&#x142;" horiz-adv-x="467" 
d="M484 978v-113l-482 -364v113zM294 0h-121v1420h121v-1420z" />
    <glyph glyph-name="Nacute" unicode="&#x143;" horiz-adv-x="1325" 
d="M1201 0h-118l-830 1198v-1198h-129v1420h118l830 -1198v1198h129v-1420zM790 1802h146l-289 -262h-102z" />
    <glyph glyph-name="nacute" unicode="&#x144;" horiz-adv-x="1110" 
d="M994 0h-121v632q0 177 -71 254q-70 76 -206 76q-173 0 -265 -122.5t-92 -347.5v-492h-121v1038h121v-190q95 216 378 216q190 0 283.5 -101t93.5 -315v-648zM686 1420h146l-289 -262h-102z" />
    <glyph glyph-name="Ncommaaccent" unicode="&#x145;" horiz-adv-x="1325" 
d="M1201 0h-118l-830 1198v-1198h-129v1420h118l830 -1198v1198h129v-1420zM656 -316h-54v181h120v-162q0 -51 -16 -108l-28 -94h-72z" />
    <glyph glyph-name="ncommaaccent" unicode="&#x146;" horiz-adv-x="1110" 
d="M994 0h-121v632q0 177 -71 254q-70 76 -206 76q-173 0 -265 -122.5t-92 -347.5v-492h-121v1038h121v-190q95 216 378 216q190 0 283.5 -101t93.5 -315v-648zM550 -316h-54v181h120v-162q0 -51 -16 -108l-28 -94h-72z" />
    <glyph glyph-name="Ncaron" unicode="&#x147;" horiz-adv-x="1325" 
d="M1201 0h-118l-830 1198v-1198h-129v1420h118l830 -1198v1198h129v-1420zM483 1802l179 -217l180 217h126l-251 -282h-110l-250 282h126z" />
    <glyph glyph-name="ncaron" unicode="&#x148;" horiz-adv-x="1110" 
d="M994 0h-121v632q0 177 -71 254q-70 76 -206 76q-173 0 -265 -122.5t-92 -347.5v-492h-121v1038h121v-190q95 216 378 216q190 0 283.5 -101t93.5 -315v-648zM377 1420l179 -217l180 217h126l-251 -282h-110l-250 282h126z" />
    <glyph glyph-name="Eng" unicode="&#x14a;" horiz-adv-x="1325" 
d="M242 1420l830 -1198v1198h129v-1502q0 -151 -68.5 -225.5t-213.5 -74.5q-69 0 -121 9l-16 3v110q46 -11 102 -11q96 0 142 44.5t46 151.5v91l-819 1182v-1198h-129v1420h118z" />
    <glyph glyph-name="eng" unicode="&#x14b;" horiz-adv-x="1110" 
d="M873 -82v714q0 177 -71 254q-70 76 -206 76q-173 0 -265 -122.5t-92 -347.5v-492h-121v1038h121v-190q95 216 378 216q190 0 283.5 -101t93.5 -315v-730q0 -300 -260 -300q-53 0 -96 9l-15 3v98q36 -12 84 -12q166 0 166 202z" />
    <glyph glyph-name="Omacron" unicode="&#x14c;" horiz-adv-x="1512" 
d="M1100 61q-152 -93 -344 -93t-344 93q-150 92 -236 262q-84 169 -84 387t84 387q86 170 236 262q152 93 344 93t344 -93q151 -93 235 -262q85 -169 85 -387t-85 -387q-84 -169 -235 -262zM549 122q97 -43 207 -43t207 43q205 94 285 322q43 120 43 266t-43 265
q-81 232 -285 322q-97 44 -207 44t-207 -44q-204 -90 -286 -322q-42 -120 -42 -265q0 -144 42 -266q81 -228 286 -322zM1026 1618h-539v90h539v-90z" />
    <glyph glyph-name="omacron" unicode="&#x14d;" horiz-adv-x="1125" 
d="M562 -25q-224 0 -354 148q-129 149 -129 396t129 396q131 149 354 149q216 0 349 -151q135 -150 135 -394t-135 -394q-133 -150 -349 -150zM562 964q-157 0 -259 -124q-102 -123 -102 -321t102 -321t259 -123q150 0 255 124q106 124 106 320t-106 320q-105 125 -255 125z
M832 1236h-539v90h539v-90z" />
    <glyph glyph-name="Obreve" unicode="&#x14e;" horiz-adv-x="1512" 
d="M1100 61q-152 -93 -344 -93t-344 93q-150 92 -236 262q-84 169 -84 387t84 387q86 170 236 262q152 93 344 93t344 -93q151 -93 235 -262q85 -169 85 -387t-85 -387q-84 -169 -235 -262zM549 122q97 -43 207 -43t207 43q205 94 285 322q43 120 43 266t-43 265
q-81 232 -285 322q-97 44 -207 44t-207 -44q-204 -90 -286 -322q-42 -120 -42 -265q0 -144 42 -266q81 -228 286 -322zM941 1788h80q-1 -45 -16 -86.5t-45 -78.5t-82.5 -59.5t-121.5 -22.5t-121.5 22.5t-82.5 59.5t-45 78.5t-16 86.5h80q4 -76 54.5 -120.5t130.5 -44.5
t130.5 44.5t54.5 120.5z" />
    <glyph glyph-name="obreve" unicode="&#x14f;" horiz-adv-x="1125" 
d="M562 -25q-224 0 -354 148q-129 149 -129 396t129 396q131 149 354 149q216 0 349 -151q135 -150 135 -394t-135 -394q-133 -150 -349 -150zM562 964q-157 0 -259 -124q-102 -123 -102 -321t102 -321t259 -123q150 0 255 124q106 124 106 320t-106 320q-105 125 -255 125z
M747 1406h80q-1 -45 -16 -86.5t-45 -78.5t-82.5 -59.5t-121.5 -22.5t-121.5 22.5t-82.5 59.5t-45 78.5t-16 86.5h80q4 -76 54.5 -120.5t130.5 -44.5t130.5 44.5t54.5 120.5z" />
    <glyph glyph-name="Ohungarumlaut" unicode="&#x150;" horiz-adv-x="1512" 
d="M1100 61q-152 -93 -344 -93t-344 93q-150 92 -236 262q-84 169 -84 387t84 387q86 170 236 262q152 93 344 93t344 -93q151 -93 235 -262q85 -169 85 -387t-85 -387q-84 -169 -235 -262zM549 122q97 -43 207 -43t207 43q205 94 285 322q43 120 43 266t-43 265
q-81 232 -285 322q-97 44 -207 44t-207 -44q-204 -90 -286 -322q-42 -120 -42 -265q0 -144 42 -266q81 -228 286 -322zM748 1802h144l-288 -262h-99zM1126 1802h144l-288 -262h-99z" />
    <glyph glyph-name="ohungarumlaut" unicode="&#x151;" horiz-adv-x="1125" 
d="M562 -25q-224 0 -354 148q-129 149 -129 396t129 396q131 149 354 149q216 0 349 -151q135 -150 135 -394t-135 -394q-133 -150 -349 -150zM562 964q-157 0 -259 -124q-102 -123 -102 -321t102 -321t259 -123q150 0 255 124q106 124 106 320t-106 320q-105 125 -255 125z
M540 1420h144l-288 -262h-99zM918 1420h144l-288 -262h-99z" />
    <glyph glyph-name="Racute" unicode="&#x154;" horiz-adv-x="1273" 
d="M124 1420h604q211 0 329 -112q119 -113 119 -318q0 -152 -67 -254.5t-192 -145.5l323 -590h-141l-303 564q-33 -3 -68 -3h-475v-561h-129v1420zM717 1306h-464v-631h464q151 0 240 76q90 77 90 239t-90 239q-91 77 -240 77zM730 1802h146l-289 -262h-102z" />
    <glyph glyph-name="racute" unicode="&#x155;" horiz-adv-x="758" 
d="M582 1050q66 0 106 -10l12 -4v-107q-44 15 -114 15q-347 0 -347 -496v-448h-121v1038h121v-197q34 79 111 141q84 68 232 68zM549 1420h146l-289 -262h-102z" />
    <glyph glyph-name="Rcommaaccent" unicode="&#x156;" horiz-adv-x="1273" 
d="M124 1420h604q211 0 329 -112q119 -113 119 -318q0 -152 -67 -254.5t-192 -145.5l323 -590h-141l-303 564q-33 -3 -68 -3h-475v-561h-129v1420zM717 1306h-464v-631h464q151 0 240 76q90 77 90 239t-90 239q-91 77 -240 77zM623 -316h-54v181h120v-162q0 -51 -16 -108
l-28 -94h-72z" />
    <glyph glyph-name="rcommaaccent" unicode="&#x157;" horiz-adv-x="758" 
d="M582 1050q66 0 106 -10l12 -4v-107q-44 15 -114 15q-347 0 -347 -496v-448h-121v1038h121v-197q34 79 111 141q84 68 232 68zM172 -316h-54v181h120v-162q0 -51 -16 -108l-28 -94h-72z" />
    <glyph glyph-name="Rcaron" unicode="&#x158;" horiz-adv-x="1273" 
d="M124 1420h604q211 0 329 -112q119 -113 119 -318q0 -152 -67 -254.5t-192 -145.5l323 -590h-141l-303 564q-33 -3 -68 -3h-475v-561h-129v1420zM717 1306h-464v-631h464q151 0 240 76q90 77 90 239t-90 239q-91 77 -240 77zM415 1802l179 -217l180 217h126l-251 -282
h-110l-250 282h126z" />
    <glyph glyph-name="rcaron" unicode="&#x159;" horiz-adv-x="758" 
d="M582 1050q66 0 106 -10l12 -4v-107q-44 15 -114 15q-347 0 -347 -496v-448h-121v1038h121v-197q34 79 111 141q84 68 232 68zM230 1420l179 -217l180 217h126l-251 -282h-110l-250 282h126z" />
    <glyph glyph-name="Sacute" unicode="&#x15a;" horiz-adv-x="1232" 
d="M623 -32q-233 -3 -386.5 111t-152.5 306h138q0 -99 54 -170q107 -136 343 -136q80 0 149.5 17t127 52t90.5 95.5t33 139.5q0 75 -28 116q-17 28 -33 44.5t-46 30.5q-44 23 -56 28q-24 11 -73 25q-60 17 -81 22l-96 23q-205 48 -290 87q-173 78 -204 223q-8 38 -8 77
q0 171 142 282t360 111q226 0 372 -115q148 -114 148 -294h-132q0 133 -108 215q-109 83 -278 83q-162 0 -269 -74q-106 -73 -106 -208q0 -66 27 -108q34 -46 81 -73q65 -32 135 -54l87 -24q23 -6 102 -25q195 -47 272 -81q156 -69 195 -198q16 -49 16 -113
q0 -182 -143 -299q-143 -116 -382 -116zM751 1802h146l-289 -262h-102z" />
    <glyph glyph-name="sacute" unicode="&#x15b;" horiz-adv-x="1014" 
d="M504 -25q-205 0 -312 81t-107 228h122q0 -102 76.5 -155.5t222.5 -53.5q149 0 226 54t77 150q0 97 -83 143q-24 14 -61 24q-61 17 -151 32q-3 1 -7 1h-1h-1l-1 1h-1h-1h-1h-1h-1l-1 1h-1h-1q-172 29 -243 60q-144 62 -152 205v17q0 135 101 218q103 83 298 83
q191 0 301 -81q111 -81 111 -220h-118q0 90 -77.5 145.5t-215.5 55.5q-135 0 -207.5 -52.5t-72.5 -140.5q0 -97 84 -137q50 -23 194 -48h1h1h1h1l1 -1h1h2q177 -31 242 -55q148 -55 174 -181q6 -28 6 -62q0 -142 -106 -227q-104 -85 -319 -85zM641 1420h146l-289 -262h-102z
" />
    <glyph glyph-name="Scircumflex" unicode="&#x15c;" horiz-adv-x="1232" 
d="M623 -32q-233 -3 -386.5 111t-152.5 306h138q0 -99 54 -170q107 -136 343 -136q80 0 149.5 17t127 52t90.5 95.5t33 139.5q0 75 -28 116q-17 28 -33 44.5t-46 30.5q-44 23 -56 28q-24 11 -73 25q-60 17 -81 22l-96 23q-205 48 -290 87q-173 78 -204 223q-8 38 -8 77
q0 171 142 282t360 111q226 0 372 -115q148 -114 148 -294h-132q0 133 -108 215q-109 83 -278 83q-162 0 -269 -74q-106 -73 -106 -208q0 -66 27 -108q34 -46 81 -73q65 -32 135 -54l87 -24q23 -6 102 -25q195 -47 272 -81q156 -69 195 -198q16 -49 16 -113
q0 -182 -143 -299q-143 -116 -382 -116zM922 1520h-126l-180 217l-179 -217h-126l250 282h110z" />
    <glyph glyph-name="scircumflex" unicode="&#x15d;" horiz-adv-x="1014" 
d="M504 -25q-205 0 -312 81t-107 228h122q0 -102 76.5 -155.5t222.5 -53.5q149 0 226 54t77 150q0 97 -83 143q-24 14 -61 24q-61 17 -151 32q-3 1 -7 1h-1h-1l-1 1h-1h-1h-1h-1h-1l-1 1h-1h-1q-172 29 -243 60q-144 62 -152 205v17q0 135 101 218q103 83 298 83
q191 0 301 -81q111 -81 111 -220h-118q0 90 -77.5 145.5t-215.5 55.5q-135 0 -207.5 -52.5t-72.5 -140.5q0 -97 84 -137q50 -23 194 -48h1h1h1h1l1 -1h1h2q177 -31 242 -55q148 -55 174 -181q6 -28 6 -62q0 -142 -106 -227q-104 -85 -319 -85zM813 1138h-126l-180 217
l-179 -217h-126l250 282h110z" />
    <glyph glyph-name="Scedilla" unicode="&#x15e;" horiz-adv-x="1232" 
d="M641 -124q88 0 149 -43q62 -44 62 -125q0 -84 -69 -126q-67 -43 -178 -43q-66 0 -128 17q-78 23 -119 57l20 58q11 -9 32 -22q23 -14 73 -30q51 -16 106 -16q75 0 115.5 27.5t40.5 80.5q0 51 -37.5 80.5t-103.5 29.5q-64 0 -94 -21l-10 -7l-42 23l109 154
q-217 14 -349 122q-134 110 -134 293h138q0 -99 54 -170q107 -136 343 -136q80 0 149.5 17t127 52t90.5 95.5t33 139.5q0 75 -28 116q-17 28 -33 44.5t-46 30.5q-44 23 -56 28q-24 11 -73 25q-60 17 -81 22l-96 23q-205 48 -290 87q-173 78 -204 223q-8 38 -8 77
q0 171 142 282t360 111q226 0 372 -115q148 -114 148 -294h-132q0 133 -108 215q-109 83 -278 83q-162 0 -269 -74q-106 -73 -106 -208q0 -66 27 -108q34 -46 81 -73q65 -32 135 -54l87 -24q23 -6 102 -25q195 -47 272 -81q156 -69 195 -198q16 -49 16 -113
q0 -180 -139 -295q-139 -116 -372 -120l-73 -101q33 9 77 9z" />
    <glyph glyph-name="scedilla" unicode="&#x15f;" horiz-adv-x="1014" 
d="M532 -124q88 0 149 -43q62 -44 62 -125q0 -84 -69 -126q-67 -43 -178 -43q-66 0 -128 17q-78 23 -119 57l20 58q11 -9 32 -22q23 -14 73 -30q51 -16 106 -16q75 0 115.5 27.5t40.5 80.5q0 51 -37.5 80.5t-103.5 29.5q-64 0 -94 -21l-10 -7l-42 23l114 160q-186 9 -282 89
t-96 219h122q0 -102 76.5 -155.5t222.5 -53.5q149 0 226 54t77 150q0 97 -83 143q-24 14 -61 24q-61 17 -151 32q-3 1 -7 1h-1h-1l-1 1h-1h-1h-1h-1h-1l-1 1h-1h-1q-172 29 -243 60q-144 62 -152 205v17q0 135 101 218q103 83 298 83q191 0 301 -81q111 -81 111 -220h-118
q0 90 -77.5 145.5t-215.5 55.5q-135 0 -207.5 -52.5t-72.5 -140.5q0 -97 84 -137q50 -23 194 -48h1h1h1h1l1 -1h1h2q177 -31 242 -55q148 -55 174 -181q6 -28 6 -62q0 -136 -98 -222q-97 -84 -298 -90l-78 -108q33 9 77 9z" />
    <glyph glyph-name="Scaron" unicode="&#x160;" horiz-adv-x="1232" 
d="M623 -32q-233 -3 -386.5 111t-152.5 306h138q0 -99 54 -170q107 -136 343 -136q80 0 149.5 17t127 52t90.5 95.5t33 139.5q0 75 -28 116q-17 28 -33 44.5t-46 30.5q-44 23 -56 28q-24 11 -73 25q-60 17 -81 22l-96 23q-205 48 -290 87q-173 78 -204 223q-8 38 -8 77
q0 171 142 282t360 111q226 0 372 -115q148 -114 148 -294h-132q0 133 -108 215q-109 83 -278 83q-162 0 -269 -74q-106 -73 -106 -208q0 -66 27 -108q34 -46 81 -73q65 -32 135 -54l87 -24q23 -6 102 -25q195 -47 272 -81q156 -69 195 -198q16 -49 16 -113
q0 -182 -143 -299q-143 -116 -382 -116zM437 1802l179 -217l180 217h126l-251 -282h-110l-250 282h126z" />
    <glyph glyph-name="scaron" unicode="&#x161;" horiz-adv-x="1014" 
d="M504 -25q-205 0 -312 81t-107 228h122q0 -102 76.5 -155.5t222.5 -53.5q149 0 226 54t77 150q0 97 -83 143q-24 14 -61 24q-61 17 -151 32q-3 1 -7 1h-1h-1l-1 1h-1h-1h-1h-1h-1l-1 1h-1h-1q-172 29 -243 60q-144 62 -152 205v17q0 135 101 218q103 83 298 83
q191 0 301 -81q111 -81 111 -220h-118q0 90 -77.5 145.5t-215.5 55.5q-135 0 -207.5 -52.5t-72.5 -140.5q0 -97 84 -137q50 -23 194 -48h1h1h1h1l1 -1h1h2q177 -31 242 -55q148 -55 174 -181q6 -28 6 -62q0 -142 -106 -227q-104 -85 -319 -85zM328 1420l179 -217l180 217
h126l-251 -282h-110l-250 282h126z" />
    <glyph glyph-name="Tcommaaccent" unicode="&#x162;" horiz-adv-x="1296" 
d="M642 -316h-54v181h120v-162q0 -51 -16 -108l-28 -94h-72zM584 1306h-500v114h1128v-114h-500v-1306h-128v1306z" />
    <glyph glyph-name="tcommaaccent" unicode="&#x163;" horiz-adv-x="738" 
d="M397 -316h-54v181h120v-162q0 -51 -16 -108l-28 -94h-72zM536 -8q-138 0 -203.5 79.5t-65.5 244.5v616h-228v106h228v314l121 47v-361h276v-106h-276v-616q0 -122 45 -174t139 -52q41 0 81 8l11 3v-97q-66 -12 -128 -12z" />
    <glyph glyph-name="Tcaron" unicode="&#x164;" horiz-adv-x="1296" 
d="M469 1802l179 -217l180 217h126l-251 -282h-110l-250 282h126zM584 1306h-500v114h1128v-114h-500v-1306h-128v1306z" />
    <glyph glyph-name="tcaron" unicode="&#x165;" horiz-adv-x="738" 
d="M536 -8q-138 0 -203.5 79.5t-65.5 244.5v608h-228v114h228v314l121 47v-361h276v-114h-276v-608q0 -122 45 -174t139 -52q41 0 81 8l11 3v-97q-66 -12 -128 -12zM660 1227h-83l90 372h111z" />
    <glyph glyph-name="Tbar" unicode="&#x166;" horiz-adv-x="1296" 
d="M1038 674h-780v90h780v-90zM584 1306h-500v114h1128v-114h-500v-1306h-128v1306z" />
    <glyph glyph-name="tbar" unicode="&#x167;" horiz-adv-x="793" 
d="M305 500h-228v90h228v342h-228v106h228v314l121 47v-361h276v-106h-276v-342h276v-90h-276v-184q0 -122 45 -174t139 -52q41 0 81 8l11 3v-97q-66 -12 -128 -12q-138 0 -203.5 79.5t-65.5 244.5v184z" />
    <glyph glyph-name="Utilde" unicode="&#x168;" horiz-adv-x="1328" 
d="M645 1629q-55 31 -84 43q-27 11 -54 11q-50 0 -74 -31t-25 -102h-79q1 219 169 219q45 0 81 -16q36 -14 104 -53q55 -32 83 -43t57 -11q95 0 96 132h80q-1 -59 -15 -106q-14 -48 -55 -79.5t-102 -31.5q-39 0 -76 14q-38 15 -106 54zM270 114q-150 147 -150 458v848h129
v-850q0 -250 105 -364q54 -60 136 -93.5t174 -33.5t174 33.5t136 93.5q105 114 105 364v850h129v-848q0 -311 -150 -458q-149 -146 -394 -146t-394 146z" />
    <glyph glyph-name="utilde" unicode="&#x169;" horiz-adv-x="1103" 
d="M531 1246q-55 31 -84 43q-27 11 -54 11q-50 0 -74 -31t-25 -102h-79q1 219 169 219q45 0 81 -16q36 -14 104 -53q55 -32 83 -43t57 -11q95 0 96 132h80q-1 -59 -15 -106q-14 -48 -55 -79.5t-102 -31.5q-39 0 -76 14q-38 15 -106 54zM116 1038h121v-631q0 -178 70 -254
t204 -76q173 0 263 121.5t90 348.5v491h121v-1038h-121v186q-94 -211 -374 -211q-189 0 -281.5 101t-92.5 315v647z" />
    <glyph glyph-name="Umacron" unicode="&#x16a;" horiz-adv-x="1328" 
d="M270 114q-150 147 -150 458v848h129v-850q0 -250 105 -364q54 -60 136 -93.5t174 -33.5t174 33.5t136 93.5q105 114 105 364v850h129v-848q0 -311 -150 -458q-149 -146 -394 -146t-394 146zM934 1619h-539v90h539v-90z" />
    <glyph glyph-name="umacron" unicode="&#x16b;" horiz-adv-x="1103" 
d="M116 1038h121v-631q0 -178 70 -254t204 -76q173 0 263 121.5t90 348.5v491h121v-1038h-121v186q-94 -211 -374 -211q-189 0 -281.5 101t-92.5 315v647zM820 1236h-539v90h539v-90z" />
    <glyph glyph-name="Ubreve" unicode="&#x16c;" horiz-adv-x="1328" 
d="M270 114q-150 147 -150 458v848h129v-850q0 -250 105 -364q54 -60 136 -93.5t174 -33.5t174 33.5t136 93.5q105 114 105 364v850h129v-848q0 -311 -150 -458q-149 -146 -394 -146t-394 146zM849 1788h80q-1 -45 -16 -86.5t-45 -78.5t-82.5 -59.5t-121.5 -22.5
t-121.5 22.5t-82.5 59.5t-45 78.5t-16 86.5h80q4 -76 54.5 -120.5t130.5 -44.5t130.5 44.5t54.5 120.5z" />
    <glyph glyph-name="ubreve" unicode="&#x16d;" horiz-adv-x="1103" 
d="M116 1038h121v-631q0 -178 70 -254t204 -76q173 0 263 121.5t90 348.5v491h121v-1038h-121v186q-94 -211 -374 -211q-189 0 -281.5 101t-92.5 315v647zM735 1406h80q-1 -45 -16 -86.5t-45 -78.5t-82.5 -59.5t-121.5 -22.5t-121.5 22.5t-82.5 59.5t-45 78.5t-16 86.5h80
q4 -76 54.5 -120.5t130.5 -44.5t130.5 44.5t54.5 120.5z" />
    <glyph glyph-name="Uring" unicode="&#x16e;" horiz-adv-x="1328" 
d="M270 114q-150 147 -150 458v848h129v-850q0 -250 105 -364q54 -60 136 -93.5t174 -33.5t174 33.5t136 93.5q105 114 105 364v850h129v-848q0 -311 -150 -458q-149 -146 -394 -146t-394 146zM802 1810q51 -48 51 -121t-51 -121t-138 -48t-138 48t-51 121t51 121t138 48
t138 -48zM739 1616q28 28 28 73t-28 73q-29 29 -75 29t-75 -29q-28 -28 -28 -73t28 -73q29 -29 75 -29t75 29z" />
    <glyph glyph-name="uring" unicode="&#x16f;" horiz-adv-x="1103" 
d="M116 1038h121v-631q0 -178 70 -254t204 -76q173 0 263 121.5t90 348.5v491h121v-1038h-121v186q-94 -211 -374 -211q-189 0 -281.5 101t-92.5 315v647zM688 1427q51 -48 51 -121t-51 -121t-138 -48t-138 48t-51 121t51 121t138 48t138 -48zM625 1233q28 28 28 73t-28 73
q-29 29 -75 29t-75 -29q-28 -28 -28 -73t28 -73q29 -29 75 -29t75 29z" />
    <glyph glyph-name="Uhungarumlaut" unicode="&#x170;" horiz-adv-x="1328" 
d="M270 114q-150 147 -150 458v848h129v-850q0 -250 105 -364q54 -60 136 -93.5t174 -33.5t174 33.5t136 93.5q105 114 105 364v850h129v-848q0 -311 -150 -458q-149 -146 -394 -146t-394 146zM640 1802h144l-288 -262h-99zM1018 1802h144l-288 -262h-99z" />
    <glyph glyph-name="uhungarumlaut" unicode="&#x171;" horiz-adv-x="1103" 
d="M116 1038h121v-631q0 -178 70 -254t204 -76q173 0 263 121.5t90 348.5v491h121v-1038h-121v186q-94 -211 -374 -211q-189 0 -281.5 101t-92.5 315v647zM525 1420h144l-288 -262h-99zM903 1420h144l-288 -262h-99z" />
    <glyph glyph-name="Uogonek" unicode="&#x172;" horiz-adv-x="1328" 
d="M766 -24q-56 -8 -102 -8q-245 0 -394 146q-150 147 -150 458v848h129v-850q0 -250 105 -364q54 -60 136 -93.5t174 -33.5t174 33.5t136 93.5q105 114 105 364v850h129v-848q0 -311 -150 -458q-52 -50 -114 -83q-103 -56 -176 -124q-91 -86 -91 -184q0 -57 34.5 -87.5
t99.5 -30.5q40 0 78 12.5t55 26.5l16 13v-62q-13 -10 -20 -15q-12 -10 -60 -25q-45 -16 -100 -16q-96 0 -148.5 43.5t-52.5 119.5q0 144 187 274z" />
    <glyph glyph-name="uogonek" unicode="&#x173;" horiz-adv-x="1103" 
d="M116 1038h121v-631q0 -178 70 -254t204 -76q173 0 263 121.5t90 348.5v491h121v-1038q-83 -30 -153 -73q-146 -87 -150 -207q0 -115 135 -115q41 0 75 12q53 18 73 40v-62q-21 -21 -69 -38.5t-111 -17.5q-95 0 -148 43t-53 118q0 93 80 171q30 29 78 59q70 43 144 70h-22
v186q-94 -211 -374 -211q-189 0 -281.5 101t-92.5 315v647z" />
    <glyph glyph-name="Wcircumflex" unicode="&#x174;" horiz-adv-x="1866" 
d="M1456 0h-146l-377 1248l-377 -1248h-146l-357 1420h134l300 -1247l376 1247h140l376 -1247l300 1247h134zM1239 1520h-126l-180 217l-179 -217h-126l250 282h110z" />
    <glyph glyph-name="wcircumflex" unicode="&#x175;" horiz-adv-x="1608" 
d="M1227 0h-137l-286 886l-286 -886h-137l-344 1038h133l279 -884l289 884h132l288 -884l280 884h133zM1110 1138h-126l-180 217l-179 -217h-126l250 282h110z" />
    <glyph glyph-name="Ycircumflex" unicode="&#x176;" horiz-adv-x="1248" 
d="M1090 1420h144l-546 -949v-471h-129v472l-545 948h144l465 -818zM930 1520h-126l-180 217l-179 -217h-126l250 282h110z" />
    <glyph glyph-name="ycircumflex" unicode="&#x177;" horiz-adv-x="1009" 
d="M444 -11l-430 1049h133l357 -899l357 899h134l-583 -1420h-127zM810 1138h-126l-180 217l-179 -217h-126l250 282h110z" />
    <glyph glyph-name="Ydieresis" unicode="&#x178;" horiz-adv-x="1248" 
d="M1090 1420h144l-546 -949v-471h-129v472l-545 948h144l465 -818zM876 1555h-116v210h116v-210zM373 1765h116v-210h-116v210z" />
    <glyph glyph-name="Zacute" unicode="&#x179;" horiz-adv-x="1203" 
d="M92 0v103l850 1203h-842v114h1001v-102l-851 -1204h861v-114h-1019zM729 1802h146l-289 -262h-102z" />
    <glyph glyph-name="zacute" unicode="&#x17a;" horiz-adv-x="977" 
d="M85 1038h791v-98l-657 -842h680v-98h-821v98l656 842h-649v98zM623 1420h146l-289 -262h-102z" />
    <glyph glyph-name="Zdotaccent" unicode="&#x17b;" horiz-adv-x="1203" 
d="M92 0v103l850 1203h-842v114h1001v-102l-851 -1204h861v-114h-1019zM545 1765h120v-210h-120v210z" />
    <glyph glyph-name="zdotaccent" unicode="&#x17c;" horiz-adv-x="977" 
d="M85 1038h791v-98l-657 -842h680v-98h-821v98l656 842h-649v98zM428 1383h120v-210h-120v210z" />
    <glyph glyph-name="Zcaron" unicode="&#x17d;" horiz-adv-x="1203" 
d="M92 0v103l850 1203h-842v114h1001v-102l-851 -1204h861v-114h-1019zM422 1802l179 -217l180 217h126l-251 -282h-110l-250 282h126z" />
    <glyph glyph-name="zcaron" unicode="&#x17e;" horiz-adv-x="977" 
d="M85 1038h791v-98l-657 -842h680v-98h-821v98l656 842h-649v98zM309 1420l179 -217l180 217h126l-251 -282h-110l-250 282h126z" />
    <glyph glyph-name="florin" unicode="&#x192;" horiz-adv-x="1183" 
d="M549 784h-270v66h278q28 223 61 349q32 116 80 185q47 66 112 102.5t137 36.5q73 0 115.5 -37t42.5 -96q0 -51 -31 -83t-79 -32q-46 0 -77 28.5t-31 73.5q0 41 28.5 70t65.5 31q-22 2 -26 2q-54 0 -100.5 -30t-76.5 -84t-51 -164q-20 -104 -46 -352h298v-66h-305l-5 -44
q-1 -11 -4 -49.5t-5 -52.5q-37 -405 -77 -589q-37 -180 -98 -266q-47 -66 -112 -102.5t-137 -36.5q-73 0 -115.5 37t-42.5 96q0 51 31 83t79 32q46 0 77 -28.5t31 -73.5q0 -41 -28.5 -70t-65.5 -31q22 -2 26 -2q54 0 100.5 30t76.5 84q35 66 59 212q23 136 59 516
q1 13 5.5 56.5t9.5 94t11 104.5z" />
    <glyph glyph-name="Aringacute" unicode="&#x1fa;" horiz-adv-x="1254" 
d="M882 2148l-222 -192h-95l180 192h137zM1246 0h-134l-153 399h-665l-152 -399h-134l555 1420h128zM916 513l-289 755l-289 -755h578zM765 1809q51 -48 51 -121t-51 -121t-138 -48t-138 48t-51 121t51 121t138 48t138 -48zM702 1615q28 28 28 73t-28 73q-29 29 -75 29
t-75 -29q-28 -28 -28 -73t28 -73q29 -29 75 -29t75 29z" />
    <glyph glyph-name="aringacute" unicode="&#x1fb;" horiz-adv-x="1064" 
d="M818 1740l-222 -192h-95l180 192h137zM240 763h-121q4 45 19 85.5t46.5 80.5t77 69.5t115.5 47.5t157 18q180 0 279 -74q125 -92 125 -263v-460q0 -71 8 -143q7 -61 16 -96l7 -28h-122q-20 64 -28 188q-95 -213 -384 -213q-175 0 -265.5 75t-90.5 214q0 125 73 198
q31 31 79 54q79 38 187 52q12 2 71 8l71 7q87 9 128 23q66 22 93 54q36 41 36 108q0 66 -57 124q-30 33 -89.5 52.5t-136.5 19.5q-129 0 -204 -52t-90 -149zM561 488l-120 -18q-82 -12 -135 -36q-106 -49 -106 -164q0 -92 65 -143.5t190 -51.5q362 0 362 436v75
q-49 -52 -158 -78q-41 -9 -98 -20zM705 1427q51 -48 51 -121t-51 -121t-138 -48t-138 48t-51 121t51 121t138 48t138 -48zM642 1233q28 28 28 73t-28 73q-29 29 -75 29t-75 -29q-28 -28 -28 -73t28 -73q29 -29 75 -29t75 29z" />
    <glyph glyph-name="AEacute" unicode="&#x1fc;" horiz-adv-x="2014" 
d="M1919 0h-895v402h-606l-278 -402h-148l999 1420h921v-114h-759v-539h661v-114h-661v-539h766v-114zM1024 1278l-527 -762h527v762zM1564 1802h146l-289 -262h-102z" />
    <glyph glyph-name="aeacute" unicode="&#x1fd;" horiz-adv-x="1823" 
d="M240 763h-121q4 45 19 85.5t46.5 80.5t76.5 69.5t115 47.5t157 18q154 0 248 -56.5t129 -154.5q58 102 152.5 156.5t217.5 54.5q216 0 341 -149t125 -399l-1 -49h-805q14 -179 108 -285q95 -107 238 -107q95 0 171.5 49t122.5 139h136q-58 -139 -167 -213.5t-263 -74.5
q-143 0 -247.5 70.5t-158.5 199.5q-88 -270 -437 -270q-181 0 -272.5 74t-91.5 214q0 129 74 200q31 31 79 54q77 37 186 51q12 2 71 8l71 7q87 9 128 23q66 22 93 54q36 41 36 108q0 66 -57 124q-30 33 -89.5 52.5t-136.5 19.5q-129 0 -204 -52t-90 -149zM1286 964
q-145 0 -240 -110q-94 -109 -106 -287h681q-12 189 -104 293t-231 104zM561 488l-120 -18q-82 -12 -135 -36q-106 -49 -106 -164q0 -92 65 -143.5t190 -51.5q362 0 362 436v75q-49 -52 -158 -78q-41 -9 -98 -20zM1059 1420h146l-289 -262h-102z" />
    <glyph glyph-name="Oslashacute" unicode="&#x1fe;" horiz-adv-x="1512" 
d="M756 -32q-255 0 -430 157l-143 -173l-55 49l146 177q-182 206 -182 532q-2 214 83.5 385t238 265.5t342.5 91.5q258 0 436 -163l148 179l55 -49l-152 -184q177 -204 177 -525q2 -214 -83.5 -385t-238 -265.5t-342.5 -91.5zM221 710q0 -266 133 -435l760 919
q-148 147 -358 147q-109 0 -206.5 -43t-170.5 -123q-74 -80 -116 -201.5t-42 -263.5zM756 79q109 0 206.5 43t170.5 123q74 80 116 201.5t42 263.5q0 255 -128 428l-759 -918q144 -141 352 -141zM896 1802h146l-289 -262h-102z" />
    <glyph glyph-name="oslashacute" unicode="&#x1ff;" horiz-adv-x="1125" 
d="M140 -53l-51 45l889 1047l51 -45zM693 1420h146l-289 -262h-102zM562 -25q-224 0 -354 148q-129 149 -129 396t129 396q131 149 354 149q216 0 349 -151q135 -150 135 -394t-135 -394q-133 -150 -349 -150zM562 964q-157 0 -259 -124q-102 -123 -102 -321t102 -321
t259 -123q150 0 255 124q106 124 106 320t-106 320q-105 125 -255 125z" />
    <glyph glyph-name="Scommaaccent" unicode="&#x218;" horiz-adv-x="1232" 
d="M623 -32q-233 -3 -386.5 111t-152.5 306h138q0 -99 54 -170q107 -136 343 -136q80 0 149.5 17t127 52t90.5 95.5t33 139.5q0 75 -28 116q-17 28 -33 44.5t-46 30.5q-44 23 -56 28q-24 11 -73 25q-60 17 -81 22l-96 23q-205 48 -290 87q-173 78 -204 223q-8 38 -8 77
q0 171 142 282t360 111q226 0 372 -115q148 -114 148 -294h-132q0 133 -108 215q-109 83 -278 83q-162 0 -269 -74q-106 -73 -106 -208q0 -66 27 -108q34 -46 81 -73q65 -32 135 -54l87 -24q23 -6 102 -25q195 -47 272 -81q156 -69 195 -198q16 -49 16 -113
q0 -182 -143 -299q-143 -116 -382 -116zM610 -316h-54v181h120v-162q0 -51 -16 -108l-28 -94h-72z" />
    <glyph glyph-name="scommaaccent" unicode="&#x219;" horiz-adv-x="1014" 
d="M504 -25q-205 0 -312 81t-107 228h122q0 -102 76.5 -155.5t222.5 -53.5q149 0 226 54t77 150q0 97 -83 143q-24 14 -61 24q-61 17 -151 32q-3 1 -7 1h-1h-1l-1 1h-1h-1h-1h-1h-1l-1 1h-1h-1q-172 29 -243 60q-144 62 -152 205v17q0 135 101 218q103 83 298 83
q191 0 301 -81q111 -81 111 -220h-118q0 90 -77.5 145.5t-215.5 55.5q-135 0 -207.5 -52.5t-72.5 -140.5q0 -97 84 -137q50 -23 194 -48h1h1h1h1l1 -1h1h2q177 -31 242 -55q148 -55 174 -181q6 -28 6 -62q0 -142 -106 -227q-104 -85 -319 -85zM501 -316h-54v181h120v-162
q0 -51 -16 -108l-28 -94h-72z" />
    <glyph glyph-name="uni021A" unicode="&#x21a;" horiz-adv-x="1296" 
d="M642 -316h-54v181h120v-162q0 -51 -16 -108l-28 -94h-72zM584 1306h-500v114h1128v-114h-500v-1306h-128v1306z" />
    <glyph glyph-name="uni021B" unicode="&#x21b;" horiz-adv-x="738" 
d="M397 -316h-54v181h120v-162q0 -51 -16 -108l-28 -94h-72zM536 -8q-138 0 -203.5 79.5t-65.5 244.5v616h-228v106h228v314l121 47v-361h276v-106h-276v-616q0 -122 45 -174t139 -52q41 0 81 8l11 3v-97q-66 -12 -128 -12z" />
    <glyph glyph-name="uni0237" unicode="&#x237;" horiz-adv-x="393" 
d="M257 1038v-1120q0 -300 -263 -300h-45v98h19q84 0 126 49.5t42 159.5v1113h121z" />
    <glyph glyph-name="schwa" unicode="&#x259;" horiz-adv-x="1086" 
d="M78 572h805q-13 178 -108 285t-238 107q-95 0 -171.5 -49t-122.5 -139h-136q58 139 167 213.5t263 74.5q221 0 345 -148q125 -148 125 -394t-124 -397q-123 -150 -340 -150q-216 0 -341 149t-125 399zM537 75q146 0 240 109t106 288h-681q12 -190 103 -293
q92 -104 232 -104z" />
    <glyph glyph-name="circumflex" unicode="&#x2c6;" horiz-adv-x="807" 
d="M709 1138h-126l-180 217l-179 -217h-126l250 282h110z" />
    <glyph glyph-name="caron" unicode="&#x2c7;" horiz-adv-x="807" 
d="M224 1420l179 -217l180 217h126l-251 -282h-110l-250 282h126z" />
    <glyph glyph-name="uni02C9" unicode="&#x2c9;" horiz-adv-x="755" 
d="M647 1236h-539v90h539v-90z" />
    <glyph glyph-name="breve" unicode="&#x2d8;" horiz-adv-x="722" 
d="M546 1406h80q-1 -45 -16 -86.5t-45 -78.5t-82.5 -59.5t-121.5 -22.5t-121.5 22.5t-82.5 59.5t-45 78.5t-16 86.5h80q4 -76 54.5 -120.5t130.5 -44.5t130.5 44.5t54.5 120.5z" />
    <glyph glyph-name="dotaccent" unicode="&#x2d9;" horiz-adv-x="336" 
d="M108 1383h120v-210h-120v210z" />
    <glyph glyph-name="ring" unicode="&#x2da;" horiz-adv-x="574" 
d="M425 1427q51 -48 51 -121t-51 -121t-138 -48t-138 48t-51 121t51 121t138 48t138 -48zM362 1233q28 28 28 73t-28 73q-29 29 -75 29t-75 -29q-28 -28 -28 -73t28 -73q29 -29 75 -29t75 29z" />
    <glyph glyph-name="ogonek" unicode="&#x2db;" horiz-adv-x="587" 
d="M297 -461q-95 0 -148 43t-53 118q0 93 80 171q30 29 78 59q70 43 144 70h99q-83 -30 -153 -73q-146 -87 -150 -207q0 -115 135 -115q41 0 75 12q53 18 73 40v-62q-21 -21 -69 -38.5t-111 -17.5z" />
    <glyph glyph-name="tilde" unicode="&#x2dc;" horiz-adv-x="760" 
d="M361 1246q-55 31 -84 43q-27 11 -54 11q-50 0 -74 -31t-25 -102h-79q1 219 169 219q45 0 81 -16q36 -14 104 -53q55 -32 83 -43t57 -11q95 0 96 132h80q-1 -59 -15 -106q-14 -48 -55 -79.5t-102 -31.5q-39 0 -76 14q-38 15 -106 54z" />
    <glyph glyph-name="hungarumlaut" unicode="&#x2dd;" horiz-adv-x="965" 
d="M351 1420h144l-288 -262h-99zM729 1420h144l-288 -262h-99z" />
    <glyph glyph-name="anoteleia" unicode="&#x387;" horiz-adv-x="361" 
d="M257 411h-145v215h145v-215z" />
    <glyph glyph-name="pi" unicode="&#x3c0;" horiz-adv-x="1270" 
d="M1066 -8q-138 0 -201 72.5t-63 231.5v644h-359v-940h-121v940h-272v98h1145v-98h-272v-630q0 -118 44.5 -169t136.5 -51q40 0 80 8l11 3v-97q-63 -12 -129 -12z" />
    <glyph glyph-name="Wgrave" unicode="&#x1e80;" horiz-adv-x="1866" 
d="M1456 0h-146l-377 1248l-377 -1248h-146l-357 1420h134l300 -1247l376 1247h140l376 -1247l300 1247h134zM1040 1540h-102l-289 262h146z" />
    <glyph glyph-name="wgrave" unicode="&#x1e81;" horiz-adv-x="1608" 
d="M1227 0h-137l-286 886l-286 -886h-137l-344 1038h133l279 -884l289 884h132l288 -884l280 884h133zM914 1158h-102l-289 262h146z" />
    <glyph glyph-name="Wacute" unicode="&#x1e82;" horiz-adv-x="1866" 
d="M1456 0h-146l-377 1248l-377 -1248h-146l-357 1420h134l300 -1247l376 1247h140l376 -1247l300 1247h134zM1071 1802h146l-289 -262h-102z" />
    <glyph glyph-name="wacute" unicode="&#x1e83;" horiz-adv-x="1608" 
d="M1227 0h-137l-286 886l-286 -886h-137l-344 1038h133l279 -884l289 884h132l288 -884l280 884h133zM939 1420h146l-289 -262h-102z" />
    <glyph glyph-name="Wdieresis" unicode="&#x1e84;" horiz-adv-x="1866" 
d="M1456 0h-146l-377 1248l-377 -1248h-146l-357 1420h134l300 -1247l376 1247h140l376 -1247l300 1247h134zM1185 1555h-116v210h116v-210zM682 1765h116v-210h-116v210z" />
    <glyph glyph-name="wdieresis" unicode="&#x1e85;" horiz-adv-x="1608" 
d="M1227 0h-137l-286 886l-286 -886h-137l-344 1038h133l279 -884l289 884h132l288 -884l280 884h133zM1056 1173h-116v210h116v-210zM553 1383h116v-210h-116v210z" />
    <glyph glyph-name="uni1E9E" unicode="&#x1e9e;" horiz-adv-x="1335" 
d="M124 1420h1049l-363 -514q207 -4 339 -130q130 -124 130 -339q0 -99 -30 -182.5t-87.5 -147t-149 -99.5t-207.5 -36q-70 0 -140 14q-61 12 -98 28l-31 13v113l29 -16q18 -8 80 -25q60 -16 128 -16q181 0 278 103q98 104 98 263q0 164 -104 265q-103 100 -280 100
q-86 0 -147 -22l-20 -8v15l351 507h-696v-1306h-129v1420z" />
    <glyph glyph-name="Ygrave" unicode="&#x1ef2;" horiz-adv-x="1248" 
d="M1090 1420h144l-546 -949v-471h-129v472l-545 948h144l465 -818zM743 1540h-102l-289 262h146z" />
    <glyph glyph-name="ygrave" unicode="&#x1ef3;" horiz-adv-x="1009" 
d="M444 -11l-430 1049h133l357 -899l357 899h134l-583 -1420h-127zM614 1158h-102l-289 262h146z" />
    <glyph glyph-name="uni2011" unicode="&#x2011;" horiz-adv-x="749" 
d="M637 465h-525v108h525v-108z" />
    <glyph glyph-name="figuredash" unicode="&#x2012;" horiz-adv-x="1092" 
d="M980 465h-868v108h868v-108z" />
    <glyph glyph-name="endash" unicode="&#x2013;" horiz-adv-x="1092" 
d="M980 465h-868v108h868v-108z" />
    <glyph glyph-name="emdash" unicode="&#x2014;" horiz-adv-x="1505" 
d="M1393 465h-1281v108h1281v-108z" />
    <glyph glyph-name="uni2015" unicode="&#x2015;" horiz-adv-x="1505" 
d="M1393 465h-1281v108h1281v-108z" />
    <glyph glyph-name="quoteleft" unicode="&#x2018;" horiz-adv-x="369" 
d="M191 1202h66v-215h-145v187q0 59 20 130l33 116h88z" />
    <glyph glyph-name="quoteright" unicode="&#x2019;" horiz-adv-x="369" 
d="M178 1205h-66v215h145v-187q0 -59 -20 -130l-33 -116h-88z" />
    <glyph glyph-name="quotesinglbase" unicode="&#x201a;" horiz-adv-x="369" 
d="M178 0h-66v215h145v-187q0 -59 -20 -130l-33 -116h-88z" />
    <glyph glyph-name="quotedblleft" unicode="&#x201c;" horiz-adv-x="703" 
d="M191 1202h66v-215h-145v187q0 59 20 130l33 116h88zM525 1202h66v-215h-145v187q0 59 20 130l33 116h88z" />
    <glyph glyph-name="quotedblright" unicode="&#x201d;" horiz-adv-x="703" 
d="M178 1205h-66v215h145v-187q0 -59 -20 -130l-33 -116h-88zM512 1205h-66v215h145v-187q0 -59 -20 -130l-33 -116h-88z" />
    <glyph glyph-name="quotedblbase" unicode="&#x201e;" horiz-adv-x="703" 
d="M178 0h-66v215h145v-187q0 -59 -20 -130l-33 -116h-88zM512 0h-66v215h145v-187q0 -59 -20 -130l-33 -116h-88z" />
    <glyph glyph-name="dagger" unicode="&#x2020;" horiz-adv-x="783" 
d="M451 326h-120l8 547l-2 128l-227 -12v120l225 -12l-4 323h120l-5 -323l227 12v-120l-228 12l-2 -128z" />
    <glyph glyph-name="daggerdbl" unicode="&#x2021;" horiz-adv-x="782" 
d="M110 589v120l226 -12l3 176l-3 176l-226 -12v120l225 -12l-4 275h120l-4 -275l225 12v-120l-227 12l-2 -176l2 -176l227 12v-120l-225 12l4 -275h-120l4 275z" />
    <glyph glyph-name="bullet" unicode="&#x2022;" horiz-adv-x="746" 
d="M545 537q-68 -67 -172 -67t-172 67q-69 67 -69 173t69 173q68 67 172 67t172 -67q69 -67 69 -173t-69 -173z" />
    <glyph glyph-name="ellipsis" unicode="&#x2026;" horiz-adv-x="1095" 
d="M257 0h-145v215h145v-215zM620 0h-145v215h145v-215zM983 0h-145v215h145v-215z" />
    <glyph glyph-name="perthousand" unicode="&#x2030;" horiz-adv-x="2501" 
d="M480 -32h-113l851 1484h112zM128 1320q89 116 241 116q151 0 240 -116t89 -306t-89 -306t-240 -116q-152 0 -241 116q-88 115 -88 306t88 306zM530 1252q-58 91 -161 91t-161 -91q-59 -92 -59 -238t59 -238q58 -91 161 -91t161 91q59 92 59 238t-59 238zM1087 712
q89 116 241 116q151 0 240 -116t89 -306t-89 -306t-240 -116q-152 0 -241 116q-88 115 -88 306t88 306zM1489 644q-58 91 -161 91t-161 -91q-59 -92 -59 -238t59 -238q58 -91 161 -91t161 91q59 92 59 238t-59 238zM1891 712q89 116 241 116q151 0 240 -116t89 -306
t-89 -306t-240 -116q-152 0 -241 116q-88 115 -88 306t88 306zM2293 644q-58 91 -161 91t-161 -91q-59 -92 -59 -238t59 -238q58 -91 161 -91t161 91q59 92 59 238t-59 238z" />
    <glyph glyph-name="guilsinglleft" unicode="&#x2039;" horiz-adv-x="669" 
d="M556 182v-159l-456 449v112l456 449v-159l-359 -346z" />
    <glyph glyph-name="guilsinglright" unicode="&#x203a;" horiz-adv-x="669" 
d="M569 584v-112l-456 -449v159l359 346l-359 346v159z" />
    <glyph glyph-name="fraction" unicode="&#x2044;" horiz-adv-x="371" 
d="M-207 -32h-103l889 1484h102z" />
    <glyph glyph-name="zerosuperior" unicode="&#x2070;" horiz-adv-x="776" 
d="M112 1050q-34 93 -34 212q0 251 140 363q72 57 170 57q96 0 168.5 -56t106.5 -152q35 -96 35 -212q0 -251 -141 -363q-71 -57 -169 -57q-96 0 -168 56t-108 152zM234 1504q-56 -92 -56 -242t56 -242q55 -91 154 -91t154 91q56 92 56 242t-56 242q-55 91 -154 91t-154 -91
z" />
    <glyph glyph-name="foursuperior" unicode="&#x2074;" horiz-adv-x="766" 
d="M479 1037h-417v83l410 544h107v-542h128v-85h-128v-176h-100v176zM479 1537l-313 -415h313v415z" />
    <glyph glyph-name="fivesuperior" unicode="&#x2075;" horiz-adv-x="732" 
d="M617 1664v-87h-387l-35 -226q76 69 194 69q125 0 201 -82q76 -80 76 -208t-80 -208t-219 -80q-133 0 -216 72t-83 189h98q0 -81 59 -128q58 -46 143 -46q94 0 146 58t52 148t-54 150q-53 60 -143 60q-113 0 -180 -91l-6 -10h-96l68 420h462z" />
    <glyph glyph-name="sixsuperior" unicode="&#x2076;" horiz-adv-x="750" 
d="M399 1595q-99 0 -157 -85t-67 -222q30 60 89.5 95.5t140.5 35.5q125 0 201 -79q78 -78 78 -205q0 -134 -83 -214q-82 -79 -208 -79q-90 0 -164 43q-44 27 -77 68q-75 98 -75 282q0 127 34 225q36 102 111 162t177 60q123 0 190 -75q60 -66 74 -137h-104q-16 55 -56 90
t-104 35zM189 1128q0 -16 2 -32q25 -89 82 -129q56 -38 115 -38q84 0 140 57q56 58 56 153q0 93 -54 148q-54 57 -144 57q-87 0 -143 -62q-54 -62 -54 -154z" />
    <glyph glyph-name="sevensuperior" unicode="&#x2077;" horiz-adv-x="708" 
d="M524 1577h-454v87h563v-79q-4 -3 -16 -15q-21 -24 -38 -46q-29 -34 -57 -75q-73 -108 -128 -237q-69 -164 -97 -351h-111q16 123 52 232q36 108 76 188q37 73 87 146q50 71 74 98q25 29 49 52z" />
    <glyph glyph-name="eightsuperior" unicode="&#x2078;" horiz-adv-x="754" 
d="M653 1473q0 -129 -141 -173q87 -24 134 -80t47 -136q0 -106 -83 -174t-233 -68q-151 0 -234 68q-82 67 -82 174q0 80 47 136t134 80q-141 44 -141 173q0 93 76 151t200 58q123 0 199 -58q77 -59 77 -151zM593 1089q0 77 -58 122t-158 45t-158 -45t-58 -122
q0 -74 58 -118.5t158 -44.5t158 44.5t58 118.5zM198 1465q0 -59 47.5 -92.5t131.5 -33.5t131.5 33.5t47.5 92.5q0 60 -50 96.5t-129 36.5t-129 -36.5t-50 -96.5z" />
    <glyph glyph-name="ninesuperior" unicode="&#x2079;" horiz-adv-x="750" 
d="M351 929q98 0 156 85q59 86 68 222q-30 -60 -89.5 -95.5t-140.5 -35.5q-124 0 -202 78q-77 80 -77 206q0 133 83 213t208 80q91 0 163 -44q45 -26 77 -68q76 -95 76 -281q0 -125 -35 -225t-109 -161q-73 -61 -178 -61q-123 0 -191 75q-60 67 -73 137h104q16 -55 56 -90
t104 -35zM561 1396q0 16 -2 32q-25 90 -82 128q-55 39 -115 39q-86 0 -141 -57q-55 -56 -55 -153q0 -92 54 -149q54 -56 144 -56q88 0 142 61q55 61 55 155z" />
    <glyph glyph-name="uni2080" unicode="&#x2080;" horiz-adv-x="776" 
d="M112 189q-34 93 -34 212q0 251 140 363q72 57 170 57q96 0 168.5 -56t106.5 -152q35 -96 35 -212q0 -251 -141 -363q-71 -57 -169 -57q-96 0 -168 56t-108 152zM234 643q-56 -92 -56 -242t56 -242q55 -91 154 -91t154 91q56 92 56 242t-56 242q-55 91 -154 91t-154 -91z
" />
    <glyph glyph-name="uni2081" unicode="&#x2081;" horiz-adv-x="478" 
d="M65 500v87q104 3 158 67q56 65 63 149h85v-803h-100v608q-58 -108 -206 -108z" />
    <glyph glyph-name="uni2082" unicode="&#x2082;" horiz-adv-x="676" 
d="M503 574q0 72 -46 115q-45 45 -118 45q-78 0 -124 -51.5t-46 -136.5v-20h-100v21q0 127 73 200q74 74 197 74q120 0 191 -67q73 -67 73 -177q0 -83 -40 -141t-112 -107q-25 -17 -66.5 -42t-70 -43t-60 -42.5t-51.5 -53t-29 -61.5h437v-87h-542v21q0 92 45 165
q22 33 56 61q40 35 65 51q31 21 80 52q57 36 75 49q29 21 56 46q57 54 57 129z" />
    <glyph glyph-name="uni2083" unicode="&#x2083;" horiz-adv-x="715" 
d="M358 -19q-140 0 -216.5 66.5t-76.5 195.5h100q0 -87 48 -131q60 -51 148 -47q93 0 144 44t51 115t-52 110q-50 40 -122 40h-69v87h82q61 0 96.5 36.5t35.5 93.5q0 70 -50 108t-119 38q-76 0 -132 -48q-55 -48 -55 -138h-97q0 127 81 198q81 72 202 72q111 0 189 -60
q78 -58 78 -160q0 -65 -33 -113t-92 -68q73 -21 115 -71.5t42 -129.5q0 -106 -78 -172q-77 -66 -220 -66z" />
    <glyph glyph-name="uni2084" unicode="&#x2084;" horiz-adv-x="766" 
d="M479 176h-417v83l410 544h107v-542h128v-85h-128v-176h-100v176zM479 676l-313 -415h313v415z" />
    <glyph glyph-name="uni2085" unicode="&#x2085;" horiz-adv-x="732" 
d="M617 803v-87h-387l-35 -226q77 69 194 69q125 0 201 -82q76 -80 76 -208t-80 -208t-219 -80q-133 0 -216 72t-83 189h98q0 -81 59 -128q58 -46 143 -46q94 0 146 58t52 148t-54 150q-52 60 -143 60q-69 0 -115 -30t-65 -60l-6 -11h-96l68 420h462z" />
    <glyph glyph-name="uni2086" unicode="&#x2086;" horiz-adv-x="750" 
d="M399 734q-99 0 -157 -85t-67 -222q30 60 89.5 95.5t140.5 35.5q125 0 201 -79q78 -78 78 -205q0 -134 -83 -214q-82 -79 -208 -79q-90 0 -164 43q-44 27 -77 68q-75 98 -75 282q0 127 34 225q36 102 111 162t177 60q123 0 190 -75q60 -66 74 -137h-104q-16 55 -56 90
t-104 35zM189 267q0 -16 2 -32q25 -89 82 -129q56 -38 115 -38q84 0 140 57q56 58 56 153q0 92 -54 148q-54 57 -144 57q-87 0 -143 -62q-54 -61 -54 -154z" />
    <glyph glyph-name="uni2087" unicode="&#x2087;" horiz-adv-x="708" 
d="M524 716h-454v87h563v-79q-4 -3 -16 -15q-21 -24 -38 -46q-29 -35 -57 -75q-73 -108 -128 -237q-69 -164 -97 -351h-111q16 123 52 232q36 108 76 188q37 73 87 146q50 71 74 98q25 29 49 52z" />
    <glyph glyph-name="uni2088" unicode="&#x2088;" horiz-adv-x="754" 
d="M653 612q0 -130 -141 -173q87 -24 134 -80t47 -136q0 -106 -83 -174t-233 -68q-151 0 -234 68q-82 67 -82 174q0 80 47 136t134 80q-141 43 -141 173q0 93 76 151t200 58q123 0 199 -58q77 -59 77 -151zM593 228q0 77 -58 122t-158 45t-158 -45t-58 -122q0 -74 58 -118.5
t158 -44.5t158 44.5t58 118.5zM198 604q0 -59 47.5 -92.5t131.5 -33.5t131.5 33.5t47.5 92.5q0 60 -50 96.5t-129 36.5t-129 -36.5t-50 -96.5z" />
    <glyph glyph-name="uni2089" unicode="&#x2089;" horiz-adv-x="750" 
d="M351 68q98 0 156 85q59 86 68 222q-30 -60 -89.5 -95.5t-140.5 -35.5q-124 0 -202 78q-77 80 -77 206q0 133 83 213t208 80q91 0 163 -44q45 -26 77 -68q76 -95 76 -281q0 -125 -35 -225t-109 -161q-73 -61 -178 -61q-123 0 -191 75q-60 67 -73 137h104q16 -55 56 -90
t104 -35zM561 535q0 16 -2 32q-25 90 -82 128q-55 39 -115 39q-86 0 -141 -57q-55 -56 -55 -153q0 -92 54 -149q54 -56 144 -56q88 0 142 61q55 61 55 155z" />
    <glyph glyph-name="Euro" unicode="&#x20ac;" horiz-adv-x="1303" 
d="M317 908h458l-16 -108h-454q-6 -90 0 -180h458l-16 -108h-430q35 -203 136 -318q104 -116 258 -116t254 115t135 317h130q-39 -245 -173 -394q-133 -148 -346 -148q-212 0 -347 149q-136 151 -176 395h-163l16 108h135q-3 44 -3 90q0 45 3 90h-151l16 108h147
q41 245 176 394q136 150 347 150q212 0 346 -149t173 -393h-130q-34 200 -135 316t-254 116q-155 0 -258 -117q-101 -115 -136 -317z" />
    <glyph glyph-name="numero" unicode="&#x2116;" horiz-adv-x="2312" 
d="M2190 1181q50 -120 50 -265q0 -149 -50.5 -267.5t-150.5 -189.5q-101 -72 -233 -72q-134 0 -234 72q-100 73 -150 192q-50 120 -50 265q0 149 51 267t149 189q100 73 234 73q133 0 233 -73q102 -73 151 -191zM2034 609q84 122 84 307q0 186 -84 307q-84 122 -228 122
t-228 -122q-84 -121 -84 -307t84 -307q84 -122 228 -122t228 122zM1201 0h-118l-830 1198v-1198h-129v1420h118l830 -1198v1198h129v-1420z" />
    <glyph glyph-name="uni2117" unicode="&#x2117;" horiz-adv-x="1594" 
d="M634 314h-85v800h326q120 0 186.5 -61t66.5 -175q0 -116 -67.5 -180t-185.5 -64h-241v-320zM870 1039h-236v-330h236q173 0 173 169q0 161 -173 161zM147 410q-55 138 -55 300t55 299q107 272 373 383q130 54 277 54t277 -54q267 -111 373 -383q55 -137 55 -299t-55 -300
q-106 -271 -373 -382q-130 -54 -277 -54t-277 54q-266 111 -373 382zM206 984q-49 -125 -49 -274t49 -275q100 -250 339 -352q117 -49 252 -49t252 49q242 103 338 352q50 129 50 275q0 147 -50 274q-97 252 -338 352q-120 50 -252 50t-252 -50q-239 -99 -339 -352z" />
    <glyph glyph-name="servicemark" unicode="&#x2120;" horiz-adv-x="1502" 
d="M1094 773h-78l-204 505v-505h-84v647h103l224 -553l224 553h103v-647h-84v505zM354 760q-115 0 -183.5 51.5t-68.5 140.5h81q0 -56 47 -88.5t122 -32.5q71 0 119 30q49 31 49 90q0 49 -38 72q-35 21 -141 47q-47 10 -72 18q-29 9 -60 22q-34 15 -53 32q-45 43 -45 107
q0 85 66 134q68 50 171 50q108 0 175 -52q68 -53 68 -136h-81q0 51 -46 84q-47 33 -116 33q-68 0 -112 -31t-44 -81q0 -34 30 -62q10 -9 40 -20q24 -9 49 -16l66 -16q104 -24 158 -58q66 -40 66 -126q0 -88 -65.5 -140t-181.5 -52z" />
    <glyph glyph-name="trademark" unicode="&#x2122;" horiz-adv-x="1511" 
d="M1103 773h-78l-204 505v-505h-84v647h103l224 -553l224 553h103v-647h-84v505zM314 1346h-218v74h520v-74h-218v-573h-84v573z" />
    <glyph glyph-name="Omega" unicode="&#x2126;" horiz-adv-x="1556" 
d="M254 776q0 -95 20 -189q34 -149 121 -281q80 -117 198 -202l20 -13v-91h-527v114h362q-90 64 -167 172q-44 63 -79 136q-77 170 -77 383q0 288 178 467q179 180 475 180q297 0 475 -180q178 -179 178 -467q0 -215 -78 -383q-32 -71 -78 -136q-77 -108 -167 -172h362v-114
h-527v91l20 12q12 8 50 40q40 34 72 67q35 36 75 96q43 61 71 125q71 156 71 345q0 130 -40 237.5t-112 179.5q-145 148 -372 148q-225 0 -373 -148q-71 -73 -111 -180.5t-40 -236.5z" />
    <glyph glyph-name="estimated" unicode="&#x212e;" horiz-adv-x="1818" 
d="M909 -26q-174 0 -327 55q-154 56 -264 151q-112 98 -176 234q-64 137 -64 296q0 206 107 375q107 168 297 264q190 97 427 97q236 0 426 -97q192 -97 298 -264q107 -169 107 -375v-31h-1477v-307q92 -155 263 -247q169 -91 383 -91q191 0 352 63q163 66 265 179h95
q-87 -107 -248 -196q-88 -49 -209.5 -77.5t-254.5 -28.5zM909 1386q-213 0 -383 -91q-171 -92 -263 -247v-307h1293v305q-94 156 -264 248t-383 92z" />
    <glyph glyph-name="partialdiff" unicode="&#x2202;" horiz-adv-x="1213" 
d="M559 1002q177 0 292 -89q113 -88 154 -231q-5 299 -121 477q-116 179 -325 179q-117 0 -206 -51q-89 -50 -148 -115l-58 106q44 50 140 106q117 68 278 68q264 0 411 -210q148 -209 148 -581q0 -120 -20 -225q-37 -186 -131 -297q-81 -95 -197 -137q-92 -34 -195 -34
q-141 0 -255 60q-113 60 -182 179q-68 121 -68 280q0 230 133 372q134 143 350 143zM585 79q86 0 164 36q156 71 219 271q7 36 7 84q0 179 -107 298q-106 120 -281 120t-279 -110q-103 -109 -103 -290q0 -185 107 -298q108 -111 273 -111z" />
    <glyph glyph-name="increment" unicode="&#x2206;" horiz-adv-x="1225" 
d="M550 1420h125l542 -1420h-1209zM1042 114l-430 1152l-430 -1152h860z" />
    <glyph glyph-name="product" unicode="&#x220f;" horiz-adv-x="1231" 
d="M321 1306h-271v114h1131v-114h-271v-1650h-129v1650h-331v-1650h-129v1650z" />
    <glyph glyph-name="summation" unicode="&#x2211;" horiz-adv-x="1066" 
d="M977 -230v-114h-927v109l500 773l-500 773v109h927v-114h-789l499 -768l-499 -768h789z" />
    <glyph glyph-name="minus" unicode="&#x2212;" horiz-adv-x="1117" 
d="M1005 465h-893v108h893v-108z" />
    <glyph glyph-name="radical" unicode="&#x221a;" horiz-adv-x="964" 
d="M225 780l-210 -93l-32 93l315 137l225 -734l374 1511h116l-419 -1694h-129z" />
    <glyph glyph-name="infinity" unicode="&#x221e;" horiz-adv-x="1557" 
d="M1167 820q124 0 209 -80q85 -79 85 -221q0 -143 -85 -222q-83 -79 -209 -79q-124 0 -221 70q-45 32 -86 69q-28 27 -82 86q-55 -60 -83 -86q-37 -36 -85 -69q-97 -70 -220 -70q-125 0 -210 79q-84 79 -84 222q0 141 84 221q86 80 210 80q123 0 220 -70q44 -31 85 -70
q34 -31 83 -85q46 51 82 85q45 41 86 70q97 70 221 70zM1156 322q89 0 143.5 52.5t54.5 144.5t-54.5 144.5t-143.5 52.5q-84 0 -155 -50q-70 -50 -155 -147q85 -97 155 -147q71 -50 155 -50zM401 716q-89 0 -143.5 -52.5t-54.5 -144.5t54.5 -144.5t143.5 -52.5q83 0 153 50
q69 49 157 147q-88 98 -157 147q-70 50 -153 50z" />
    <glyph glyph-name="integral" unicode="&#x222b;" horiz-adv-x="1183" 
d="M228 -313q54 0 100.5 30t76.5 84q35 66 59 212q23 136 59 516q37 400 76 589q39 181 99 266q47 66 112 102.5t137 36.5q73 0 115.5 -37t42.5 -96q0 -51 -31 -83t-79 -32q-46 0 -77 28.5t-31 73.5q0 41 28.5 70t65.5 31q-22 2 -26 2q-54 0 -100.5 -30t-76.5 -84
q-34 -64 -60 -213q-23 -143 -58 -515q-37 -405 -77 -589q-37 -180 -98 -266q-47 -66 -112 -102.5t-137 -36.5q-73 0 -115.5 37t-42.5 96q0 51 31 83t79 32q46 0 77 -28.5t31 -73.5q0 -41 -28.5 -70t-65.5 -31q22 -2 26 -2z" />
    <glyph glyph-name="approxequal" unicode="&#x2248;" horiz-adv-x="1185" 
d="M984 886h107q0 -142 -69 -222t-188 -80q-58 0 -111 21q-49 20 -143 75q-82 48 -97 56q-74 40 -132 40q-147 0 -150 -198h-107q0 142 69 222t188 80q59 0 111 -21q49 -20 143 -75l96 -56q74 -40 132 -40q147 0 151 198zM984 461h107q0 -143 -69 -222q-69 -80 -188 -80
q-58 0 -111 21q-49 20 -143 75q-82 48 -97 56q-74 40 -132 40q-147 0 -150 -198h-107q0 143 69 222q69 80 188 80q59 0 111 -21q49 -20 143 -75l96 -56q74 -40 132 -40q147 0 151 198z" />
    <glyph glyph-name="notequal" unicode="&#x2260;" horiz-adv-x="1117" 
d="M582 686h-470v108h516l144 332h96l-144 -332h281v-108h-327l-144 -334h471v-108h-518l-143 -332h-96l143 332h-279v108h326z" />
    <glyph glyph-name="lessequal" unicode="&#x2264;" horiz-adv-x="1117" 
d="M1005 234l-893 419v118l893 420v-117l-773 -362l773 -361v-117zM1005 0h-893v108h893v-108z" />
    <glyph glyph-name="greaterequal" unicode="&#x2265;" horiz-adv-x="1117" 
d="M112 1191l893 -420v-118l-893 -419v117l773 361l-773 362v117zM112 108h893v-108h-893v108z" />
    <glyph glyph-name="dotmath" unicode="&#x22c5;" horiz-adv-x="361" 
d="M257 411h-145v215h145v-215z" />
    <glyph glyph-name="lozenge" unicode="&#x25ca;" horiz-adv-x="1167" 
d="M646 -344h-125l-491 882l491 882h125l491 -882zM583 -232l418 770l-418 770l-417 -770z" />
    <glyph glyph-name="uniF638" unicode="&#xf638;" horiz-adv-x="1268" 
d="M635 1452q169 0 293 -101q121 -100 181.5 -264t60.5 -377q0 -208 -60 -375q-59 -165 -182 -266q-124 -101 -293 -101q-126 0 -229.5 57t-171.5 160q-136 210 -136 525t136 524q68 104 171.5 161t229.5 57zM1040 710q0 290 -108 460l-549 -980q100 -112 252 -112
q189 -1 298.5 174t106.5 458zM227 710q0 -287 109 -459l549 980q-102 111 -250 111q-189 2 -300 -174t-108 -458z" />
    <glyph glyph-name="commaaccent" unicode="&#xf6c3;" horiz-adv-x="336" 
d="M162 -316h-54v181h120v-162q0 -51 -16 -108l-28 -94h-72z" />
    <glyph glyph-name="centsuperior" unicode="&#xf6e0;" horiz-adv-x="671" 
d="M363 508h-54v95q-113 11 -177 93t-64 214t63 214q65 83 178 93v95h54v-94q91 -7 154 -66t84 -156h-94q-16 60 -54 97.5t-90 45.5v-458q53 8 91 45.5t53 98.5h94q-20 -96 -84 -155t-154 -67v-95zM161 910q0 -96 40 -156t108 -72v456q-68 -11 -108 -71t-40 -157z" />
    <glyph glyph-name="dollarsuperior" unicode="&#xf6e4;" horiz-adv-x="729" 
d="M391 504h-54v94q-126 8 -200 71q-74 65 -74 169h98q0 -68 47.5 -108t128.5 -46v306q-66 17 -84 23q-38 13 -70 28q-55 26 -80 64t-29 103q0 100 74 162q73 61 189 67v95h54v-95q115 -7 189 -72q73 -64 73 -161h-94q0 59 -46 99.5t-122 48.5v-287q38 -9 81 -20
q30 -7 72 -27q43 -18 65 -40q57 -51 57 -139q0 -102 -73 -168q-73 -65 -202 -73v-94zM566 835q0 61 -39 88q-37 27 -136 53v-293q79 6 127 44.5t48 107.5zM171 1210q0 -54 37 -81q39 -26 129 -50v274q-75 -5 -120.5 -43.5t-45.5 -99.5z" />
    <glyph glyph-name="apple" unicode="&#xf8ff;" horiz-adv-x="990" 
d="M878 327h-766v766h766v-766zM520 842v-264h171v32h-133v84h107v32h-107v84h133v32h-171zM367 842l-96 -264h39l23 63h102l23 -63h39l-96 264h-34zM425 673h-82l41 112z" />
    <glyph glyph-name="NULL" horiz-adv-x="0" 
 />
    <glyph glyph-name="CR" horiz-adv-x="666" 
 />
    <glyph glyph-name="eight.inf" horiz-adv-x="754" 
d="M653 368q0 -130 -141 -173q87 -24 134 -80t47 -136q0 -106 -83 -174t-233 -68q-151 0 -234 68q-82 67 -82 174q0 80 47 136t134 80q-141 43 -141 173q0 93 76 151t200 58q123 0 199 -58q77 -59 77 -151zM593 -16q0 77 -58 122t-158 45t-158 -45t-58 -122q0 -74 58 -118.5
t158 -44.5t158 44.5t58 118.5zM198 360q0 -59 47.5 -92.5t131.5 -33.5t131.5 33.5t47.5 92.5q0 60 -50 96.5t-129 36.5t-129 -36.5t-50 -96.5z" />
    <glyph glyph-name="eight.lt" 
d="M83 387q0 135 78.5 232.5t221.5 143.5q-110 39 -168.5 116.5t-58.5 186.5q0 169 128 277q128 109 347 109t346 -109q129 -108 129 -277q0 -109 -58.5 -186.5t-168.5 -116.5q143 -46 221.5 -143.5t78.5 -232.5q0 -179 -134 -296q-67 -58 -174 -90.5t-240 -32.5t-240 32.5
t-174 90.5q-134 117 -134 296zM1049 392q0 147 -115 231q-114 84 -303 84t-304 -84q-114 -84 -114 -231q0 -141 108 -227q110 -86 310 -86t309 86q109 85 109 227zM279 1064q0 -119 91 -184.5t261 -65.5t261 65.5t91 184.5q0 123 -95 200t-257 77t-257 -77t-95 -200z" />
    <glyph glyph-name="six.inf" horiz-adv-x="750" 
d="M399 490q-99 0 -157 -85t-67 -222q30 60 89.5 95.5t140.5 35.5q125 0 201 -79q78 -78 78 -205q0 -133 -83 -213t-208 -80q-91 0 -164 44q-44 26 -77 68q-75 96 -75 281q0 127 34 225q36 102 111 162t177 60q123 0 190 -75q60 -66 74 -137h-104q-16 55 -56 90t-104 35z
M189 23q0 -16 2 -32q25 -90 82 -128q55 -39 115 -39q84 0 140 57q56 58 56 153q0 92 -54 148q-54 57 -144 57q-87 0 -143 -62q-54 -62 -54 -154z" />
    <glyph glyph-name="six.numr" horiz-adv-x="750" 
d="M399 1351q-99 0 -157 -85t-67 -222q30 60 89.5 95.5t140.5 35.5q125 0 201 -79q78 -78 78 -205q0 -134 -83 -214q-82 -79 -208 -79q-90 0 -164 43q-44 27 -77 68q-75 98 -75 282q0 127 34 225q36 102 111 162t177 60q123 0 190 -75q60 -66 74 -137h-104q-16 55 -56 90
t-104 35zM189 884q0 -16 2 -32q25 -89 82 -129q56 -38 115 -38q84 0 140 57q56 58 56 153q0 93 -54 148q-54 57 -144 57q-87 0 -143 -62q-54 -62 -54 -154z" />
    <glyph glyph-name="space.frac" horiz-adv-x="111" 
 />
    <glyph glyph-name="space.tab" horiz-adv-x="627" 
 />
    <glyph glyph-name="space_uni0326" horiz-adv-x="336" 
d="M108 -135h120v-210h-120v210z" />
    <glyph glyph-name="dotbelow" horiz-adv-x="336" 
d="M108 -135h120v-210h-120v210z" />
    <glyph glyph-name="emdash.cap" horiz-adv-x="1505" 
d="M1393 656h-1281v108h1281v-108z" />
    <glyph glyph-name="endash.cap" horiz-adv-x="1092" 
d="M980 656h-868v108h868v-108z" />
    <glyph glyph-name="three.dnom" horiz-adv-x="715" 
d="M358 -19q-140 0 -216.5 66.5t-76.5 195.5h100q0 -87 48 -131q60 -51 148 -47q93 0 144 44t51 115t-52 110q-50 40 -122 40h-69v87h82q61 0 96.5 36.5t35.5 93.5q0 70 -50 108t-119 38q-76 0 -132 -48q-55 -48 -55 -138h-97q0 127 81 198q81 72 202 72q111 0 189 -60
q78 -58 78 -160q0 -65 -33 -113t-92 -68q73 -21 115 -71.5t42 -129.5q0 -106 -78 -172q-77 -66 -220 -66z" />
    <glyph glyph-name="three.lt" 
d="M631 -32q-232 0 -369 113q-135 114 -135 344h129q0 -180 107 -268q59 -46 138 -64q61 -14 131 -14q188 0 285 87q99 88 99 225q0 74 -29 133t-79 94q-97 70 -230 70h-125v107h151q125 0 194 71q69 70 69 187q0 138 -99 213q-97 75 -235 75q-144 0 -251 -86
q-54 -43 -84.5 -115t-30.5 -163h-123q0 112 38.5 204t106.5 151q139 120 341 120q124 0 227 -45t168 -135q65 -89 65 -207q0 -111 -57 -200q-56 -86 -158 -124q114 -35 188 -115q83 -89 83 -239q0 -188 -135 -304q-134 -115 -380 -115z" />
    <glyph glyph-name="three.numr" horiz-adv-x="715" 
d="M358 598q-140 0 -216.5 66.5t-76.5 195.5h100q0 -87 48 -131q60 -51 148 -47q93 0 144 44t51 115t-52 110q-50 40 -122 40h-69v87h82q61 0 96.5 36.5t35.5 93.5q0 70 -50 108t-119 38q-76 0 -132 -48q-55 -48 -55 -138h-97q0 128 81 198q81 72 202 72q111 0 189 -60
q78 -58 78 -160q0 -65 -33 -113t-92 -68q73 -21 115 -71.5t42 -129.5q0 -106 -78 -172q-77 -66 -220 -66z" />
    <glyph glyph-name="equal.cap" horiz-adv-x="1117" 
d="M1005 877h-893v108h893v-108zM1005 435h-893v108h893v-108z" />
    <glyph glyph-name="tilde.cap" horiz-adv-x="760" 
d="M361 1628q-55 31 -84 43q-27 11 -54 11q-50 0 -74 -31t-25 -102h-79q1 219 169 219q45 0 81 -16q36 -14 104 -53q55 -32 83 -43t57 -11q95 0 96 132h80q-1 -59 -15 -106q-14 -48 -55 -79.5t-102 -31.5q-39 0 -76 14q-38 15 -106 54z" />
    <glyph glyph-name="two.dnom" horiz-adv-x="676" 
d="M503 574q0 72 -46 115q-45 45 -118 45q-78 0 -124 -51.5t-46 -136.5v-20h-100v21q0 127 73 200q74 74 197 74q120 0 191 -67q73 -67 73 -177q0 -83 -40 -141t-112 -107q-25 -17 -66.5 -42t-70 -43t-60 -42.5t-51.5 -53t-29 -61.5h437v-87h-542v21q0 92 45 165
q22 33 56 61q40 35 65 51q31 21 80 52q57 36 75 49q29 21 56 46q57 54 57 129z" />
    <glyph glyph-name="two.lt" 
d="M960 1019q0 145 -91 233q-92 89 -236 89q-157 0 -247 -102q-90 -101 -90 -268v-35h-129v36q0 223 127 351q128 129 340 129q206 0 330 -118q126 -118 126 -308q0 -107 -40 -193q-36 -80 -95.5 -139.5t-150.5 -121.5q-49 -32 -156 -97.5t-157 -99.5q-160 -112 -189 -261
h801v-114h-936v32q4 169 86 276q59 77 137 134q30 23 84 59q39 25 96 60q24 14 90 55q33 21 81 54q52 38 74 58q80 73 106 128q39 75 39 163z" />
    <glyph glyph-name="two.numr" horiz-adv-x="676" 
d="M503 1191q0 72 -46 115q-45 45 -118 45q-78 0 -124 -51.5t-46 -136.5v-20h-100v21q0 127 73 200q74 74 197 74q120 0 191 -67q73 -67 73 -177q0 -83 -40 -141t-112 -107q-25 -17 -66.5 -42t-70 -43t-60 -42.5t-51.5 -53t-29 -61.5h437v-87h-542v21q0 92 45 165
q22 33 56 61q40 35 65 51q31 21 80 52q57 36 75 49q29 21 56 46q57 54 57 129z" />
    <glyph glyph-name="exclamdown.cap" horiz-adv-x="371" 
d="M245 0h-120v540l23 518h74l23 -518v-540zM257 1205h-145v215h145v-215z" />
    <glyph glyph-name="five.dnom" horiz-adv-x="732" 
d="M617 803v-87h-387l-35 -226q77 69 194 69q125 0 201 -82q76 -80 76 -208t-80 -208t-219 -80q-133 0 -216 72t-83 189h98q0 -81 59 -128q58 -46 143 -46q94 0 146 58t52 148t-54 150q-52 60 -143 60q-69 0 -115 -30t-65 -60l-6 -11h-96l68 420h462z" />
    <glyph glyph-name="five.inf" horiz-adv-x="732" 
d="M617 559v-87h-387l-35 -226q77 69 194 69q125 0 201 -82q76 -80 76 -208t-80 -208t-219 -80q-133 0 -216 72t-83 189h98q0 -81 59 -128q58 -46 143 -46q93 0 146 59q52 58 52 147q0 90 -54 150q-52 60 -143 60q-69 0 -115 -30t-65 -60l-6 -11h-96l68 420h462z" />
    <glyph glyph-name="five.lt" 
d="M1063 1420v-111h-693l-78 -473q147 157 368 157q150 0 262 -70q112 -69 170 -184.5t58 -261.5q0 -224 -140 -367q-139 -142 -378 -142q-225 0 -371 126q-145 127 -145 332h129q0 -85 32.5 -153t89.5 -110q115 -84 268 -84q184 0 284 115q101 116 101 286q0 176 -105 291
q-103 115 -278 115q-69 0 -132.5 -20.5t-105.5 -51.5q-82 -62 -111 -109l-12 -21h-127l122 736h792z" />
    <glyph glyph-name="five.numr" horiz-adv-x="732" 
d="M617 1420v-87h-387l-35 -226q76 69 194 69q125 0 201 -82q76 -80 76 -208t-80 -208t-219 -80q-133 0 -216 72t-83 189h98q0 -81 59 -128q58 -46 143 -46q94 0 146 58t52 148t-54 150q-53 60 -143 60q-113 0 -180 -91l-6 -10h-96l68 420h462z" />
    <glyph glyph-name="zero.dnom" horiz-adv-x="776" 
d="M112 189q-34 93 -34 212q0 251 140 363q72 57 170 57q96 0 168.5 -56t106.5 -152q35 -96 35 -212q0 -251 -141 -363q-71 -57 -169 -57q-96 0 -168 56t-108 152zM234 643q-56 -92 -56 -242t56 -242q55 -91 154 -91t154 91q56 92 56 242t-56 242q-55 91 -154 91t-154 -91z
" />
    <glyph glyph-name="zero.inf" horiz-adv-x="776" 
d="M112 -55q-34 93 -34 212q0 251 140 363q72 57 170 57q96 0 168.5 -56t106.5 -152q35 -96 35 -212q0 -251 -141 -363q-70 -57 -169 -57q-96 0 -168 56t-108 152zM234 399q-56 -92 -56 -242t56 -242q55 -91 154 -91t154 91q56 92 56 242t-56 242q-55 91 -154 91t-154 -91z
" />
    <glyph glyph-name="zero.lt" 
d="M632 1452q169 0 293 -101q121 -100 181.5 -264t60.5 -377q0 -208 -60 -375q-59 -165 -182 -266q-124 -101 -293 -101q-126 0 -229.5 57t-171.5 160q-136 210 -136 525t136 524q68 104 171.5 161t229.5 57zM271 1039q-47 -144 -47 -329q0 -188 48 -330t140 -222
q94 -80 220 -80q125 0 218.5 79.5t139.5 222.5q47 144 47 330q0 390 -186 551q-91 81 -219 81q-126 0 -219.5 -79.5t-141.5 -223.5z" />
    <glyph glyph-name="zero.numr" horiz-adv-x="776" 
d="M112 806q-34 93 -34 212q0 251 140 363q72 57 170 57q96 0 168.5 -56t106.5 -152q35 -96 35 -212q0 -251 -141 -363q-71 -57 -169 -57q-96 0 -168 56t-108 152zM234 1260q-56 -92 -56 -242t56 -242q55 -91 154 -91t154 91q56 92 56 242t-56 242q-55 91 -154 91t-154 -91z
" />
    <glyph glyph-name="four.dnom" horiz-adv-x="766" 
d="M479 176h-417v83l410 544h107v-542h128v-85h-128v-176h-100v176zM479 676l-313 -415h313v415z" />
    <glyph glyph-name="four.inf" horiz-adv-x="766" 
d="M479 -68h-417v83l410 544h107v-542h128v-85h-128v-176h-100v176zM479 432l-313 -415h313v415z" />
    <glyph glyph-name="four.lt" 
d="M824 321h-751v116l747 983h132v-985h244v-114h-244v-321h-128v321zM824 1239l-611 -804h611v804z" />
    <glyph glyph-name="four.numr" horiz-adv-x="766" 
d="M479 793h-417v83l410 544h107v-542h128v-85h-128v-176h-100v176zM479 1293l-313 -415h313v415z" />
    <glyph glyph-name="acute.cap" horiz-adv-x="592" 
d="M353 1802h146l-289 -262h-102z" />
    <glyph glyph-name="altcedilla" horiz-adv-x="686" 
d="M379 -124q88 0 149 -43q62 -44 62 -125q0 -84 -69 -126q-67 -43 -178 -43q-66 0 -128 17q-78 23 -119 57l20 58q11 -9 32 -22q23 -14 73 -30q51 -16 106 -16q75 0 115.5 27.5t40.5 80.5q0 51 -37.5 80.5t-103.5 29.5q-64 0 -94 -21l-10 -7l-42 23l165 232h71l-130 -182
q36 10 77 10z" />
    <glyph glyph-name="grave.cap" horiz-adv-x="592" 
d="M484 1540h-102l-289 262h146z" />
    <glyph glyph-name="greater.cap" horiz-adv-x="1097" 
d="M108 1189l893 -420v-118l-893 -419v117l773 361l-773 362v117z" />
    <glyph glyph-name="greater.lt" 
d="M191 998l893 -420v-118l-893 -419v117l773 361l-773 362v117z" />
    <glyph glyph-name="anoteleia.cap" horiz-adv-x="369" 
d="M257 602h-145v215h145v-215z" />
    <glyph glyph-name="greaterequal.cap" horiz-adv-x="1117" 
d="M112 1305l893 -420v-118l-893 -419v117l773 361l-773 362v117zM112 222h893v-108h-893v108z" />
    <glyph glyph-name="greaterequal.lt" 
d="M185 1191l893 -420v-118l-893 -419v117l773 361l-773 362v117zM185 108h893v-108h-893v108z" />
    <glyph glyph-name="guillemotleft.cap" horiz-adv-x="1130" 
d="M556 364v-159l-456 449v112l456 449v-159l-359 -346zM1017 364v-159l-456 449v112l456 449v-159l-359 -346z" />
    <glyph glyph-name="approxequal.cap" horiz-adv-x="1185" 
d="M984 652h107q0 -142 -69 -222t-188 -80q-58 0 -111 21q-49 20 -143 75q-82 48 -97 56q-74 40 -132 40q-147 0 -150 -198h-107q0 142 69 222t188 80q59 0 111 -21q49 -20 143 -75l96 -56q74 -40 132 -40q147 0 151 198zM984 1077h107q0 -143 -69 -222q-69 -80 -188 -80
q-58 0 -111 21q-49 20 -143 75q-82 48 -97 56q-74 40 -132 40q-147 0 -150 -198h-107q0 143 69 222q69 80 188 80q59 0 111 -21q49 -20 143 -75l96 -56q74 -40 132 -40q147 0 151 198z" />
    <glyph glyph-name="guillemotright.cap" horiz-adv-x="1130" 
d="M569 766v-112l-456 -449v159l359 346l-359 346v159zM1030 766v-112l-456 -449v159l359 346l-359 346v159z" />
    <glyph glyph-name="approxequal.lt" 
d="M1022 886h107q0 -142 -69 -222t-188 -80q-58 0 -111 21q-49 20 -143 75q-82 48 -97 56q-74 40 -132 40q-147 0 -150 -198h-107q0 142 69 222t188 80q59 0 111 -21q49 -20 143 -75l96 -56q74 -40 132 -40q147 0 151 198zM1022 461h107q0 -143 -69 -222q-69 -80 -188 -80
q-58 0 -111 21q-49 20 -143 75q-82 48 -97 56q-74 40 -132 40q-147 0 -150 -198h-107q0 143 69 222q69 80 188 80q59 0 111 -21q49 -20 143 -75l96 -56q74 -40 132 -40q147 0 151 198z" />
    <glyph glyph-name="guilsinglleft.cap" horiz-adv-x="669" 
d="M556 364v-159l-456 449v112l456 449v-159l-359 -346z" />
    <glyph glyph-name="guilsinglright.cap" horiz-adv-x="669" 
d="M569 766v-112l-456 -449v159l359 346l-359 346v159z" />
    <glyph glyph-name="hungarumlaut.cap" horiz-adv-x="965" 
d="M351 1802h144l-288 -262h-99zM729 1802h144l-288 -262h-99z" />
    <glyph glyph-name="hyphen.cap" horiz-adv-x="749" 
d="M637 656h-525v108h525v-108z" />
    <glyph glyph-name="asciitilde.cap" horiz-adv-x="1185" 
d="M984 864h107q0 -142 -69 -222t-188 -80q-58 0 -111 21q-49 20 -143 75q-82 48 -97 56q-74 40 -132 40q-147 0 -150 -198h-107q0 142 69 222t188 80q59 0 111 -21q49 -20 143 -75l96 -56q74 -40 132 -40q147 0 151 198z" />
    <glyph glyph-name="infinity.cap" horiz-adv-x="1557" 
d="M1167 1011q124 0 209 -80q85 -79 85 -221q0 -143 -85 -222q-83 -79 -209 -79q-124 0 -221 70q-45 32 -86 69q-28 27 -82 86q-55 -60 -83 -86q-37 -36 -85 -69q-97 -70 -220 -70q-125 0 -210 79q-84 80 -84 222t84 221q86 80 210 80q123 0 220 -70q44 -31 85 -70
q34 -31 83 -85q46 51 82 85q45 42 86 70q97 70 221 70zM1156 513q89 0 143.5 52.5t54.5 144.5t-54.5 144.5t-143.5 52.5q-84 0 -155 -50q-70 -50 -155 -147q85 -97 155 -147q71 -50 155 -50zM401 907q-89 0 -143.5 -52.5t-54.5 -144.5t54.5 -144.5t143.5 -52.5q83 0 153 50
q69 49 157 147q-88 98 -157 147q-70 50 -153 50z" />
    <glyph glyph-name="at.cap" horiz-adv-x="1590" 
d="M1106 105l36 19l39 -66q-18 -13 -62 -32q-35 -15 -75 -27q-103 -31 -235 -31q-210 0 -375 87q-165 89 -259 251q-93 164 -93 376q0 152 49.5 290t141.5 246q92 107 234 170q141 64 315 64q157 0 288.5 -53t220.5 -149q90 -96 138 -227t48 -283q0 -211 -88 -338t-241 -127
q-171 0 -206 167q-74 -167 -246 -167q-133 0 -209 103q-75 104 -75 286q0 209 94 343q94 135 246 135q159 0 212 -170l12 144h104l-41 -494q-7 -83 -7 -117q0 -155 122 -155q104 0 168 106q66 106 66 280q0 183 -72 325q-70 144 -210 228q-138 84 -323 84q-148 0 -274 -56.5
t-209 -155.5q-81 -96 -125 -219.5t-44 -258.5q0 -279 176 -458q175 -178 462 -178q96 0 176 19q83 19 121 39zM977 740q0 147 -48 224.5t-131 77.5q-102 0 -167 -108q-65 -109 -65 -266q0 -138 51.5 -215.5t140.5 -77.5q102 0 160 100q59 101 59 265z" />
    <glyph glyph-name="invertedbreve" horiz-adv-x="722" 
d="M176 1159h-80q1 45 16 86.5t45 78.5t82.5 59.5t121.5 22.5t121.5 -22.5t82.5 -59.5t45 -78.5t16 -86.5h-80q-4 76 -54.5 120.5t-130.5 44.5t-130.5 -44.5t-54.5 -120.5z" />
    <glyph glyph-name="invertedbreve.cap" horiz-adv-x="722" 
d="M176 1541h-80q1 45 16 86.5t45 78.5t82.5 59.5t121.5 22.5t121.5 -22.5t82.5 -59.5t45 -78.5t16 -86.5h-80q-4 76 -54.5 120.5t-130.5 44.5t-130.5 -44.5t-54.5 -120.5z" />
    <glyph glyph-name="less.cap" horiz-adv-x="1097" 
d="M989 232l-893 419v118l893 420v-117l-773 -362l773 -361v-117z" />
    <glyph glyph-name="six.dnom" horiz-adv-x="750" 
d="M399 734q-99 0 -157 -85t-67 -222q30 60 89.5 95.5t140.5 35.5q125 0 201 -79q78 -78 78 -205q0 -134 -83 -214q-82 -79 -208 -79q-90 0 -164 43q-44 27 -77 68q-75 98 -75 282q0 127 34 225q36 102 111 162t177 60q123 0 190 -75q60 -66 74 -137h-104q-16 55 -56 90
t-104 35zM189 267q0 -16 2 -32q25 -89 82 -129q56 -38 115 -38q84 0 140 57q56 58 56 153q0 92 -54 148q-54 57 -144 57q-87 0 -143 -62q-54 -61 -54 -154z" />
    <glyph glyph-name="six.lt" 
d="M679 1338q-136 0 -237.5 -87.5t-153 -234.5t-54.5 -334q41 142 154 230q116 90 293 90q216 0 350 -143q133 -142 133 -372q0 -160 -69 -280q-67 -118 -180 -178.5t-256 -60.5q-51 0 -94 7q-108 16 -205 78q-107 73 -172 210q-72 159 -72 398q0 229 63 405q65 178 192 281
q129 105 307 105q168 0 278 -89q48 -38 86 -91q65 -90 86 -193h-134q-25 91 -90 166q-36 43 -95 68t-130 25zM265 470q0 -40 6 -84q46 -141 134 -216q38 -32 85 -55q81 -36 165 -36q165 0 272 111q108 113 108 298q0 180 -104 290t-278 110q-175 0 -281 -120
q-107 -119 -107 -298z" />
    <glyph glyph-name="eight.numr" horiz-adv-x="754" 
d="M653 1229q0 -129 -141 -173q87 -24 134 -80t47 -136q0 -106 -83 -174t-233 -68q-151 0 -234 68q-82 67 -82 174q0 80 47 136t134 80q-141 44 -141 173q0 93 76 151t200 58q123 0 199 -58q77 -59 77 -151zM593 845q0 77 -58 122t-158 45t-158 -45t-58 -122
q0 -74 58 -118.5t158 -44.5t158 44.5t58 118.5zM198 1221q0 -59 47.5 -92.5t131.5 -33.5t131.5 33.5t47.5 92.5q0 60 -50 96.5t-129 36.5t-129 -36.5t-50 -96.5z" />
    <glyph glyph-name="less.lt" 
d="M1071 41l-893 419v118l893 420v-117l-773 -362l773 -361v-117z" />
    <glyph glyph-name="lessequal.cap" horiz-adv-x="1117" 
d="M1005 348l-893 419v118l893 420v-117l-773 -362l773 -361v-117zM1005 114h-893v108h893v-108z" />
    <glyph glyph-name="lessequal.lt" 
d="M1077 234l-893 419v118l893 420v-117l-773 -362l773 -361v-117zM1077 0h-893v108h893v-108z" />
    <glyph glyph-name="logicalnot.cap" horiz-adv-x="1117" 
d="M896 854h-784v108h893v-578h-109v470z" />
    <glyph glyph-name="breve.cap" horiz-adv-x="722" 
d="M546 1788h80q-1 -45 -16 -86.5t-45 -78.5t-82.5 -59.5t-121.5 -22.5t-121.5 22.5t-82.5 59.5t-45 78.5t-16 86.5h80q4 -76 54.5 -120.5t130.5 -44.5t130.5 44.5t54.5 120.5z" />
    <glyph glyph-name="macron.cap" horiz-adv-x="755" 
d="M647 1618h-539v90h539v-90z" />
    <glyph glyph-name="three.inf" horiz-adv-x="715" 
d="M358 -263q-140 0 -216.5 66.5t-76.5 195.5h100q0 -87 48 -130q56 -50 148 -48q93 0 144 44t51 115t-52 110q-50 40 -122 40h-69v87h82q61 0 96.5 36.5t35.5 93.5q0 70 -50 108t-119 38q-76 0 -132 -48q-55 -48 -55 -138h-97q0 127 81 198q81 72 202 72q111 0 189 -60
q78 -58 78 -160q0 -65 -33 -113t-92 -68q73 -21 115 -71.5t42 -129.5q0 -106 -78 -172q-77 -66 -220 -66z" />
    <glyph glyph-name="minus.cap" horiz-adv-x="1117" 
d="M1005 656h-893v108h893v-108z" />
    <glyph glyph-name="minus.lt" 
d="M1077 465h-893v108h893v-108z" />
    <glyph glyph-name="multiply.lt" 
d="M704 519l319 -319l-74 -74l-319 319l-319 -319l-73 74l319 319l-319 319l73 73l319 -319l320 320l73 -74z" />
    <glyph glyph-name="caron.cap" horiz-adv-x="807" 
d="M224 1802l179 -217l180 217h126l-251 -282h-110l-250 282h126z" />
    <glyph glyph-name="equal.lt" 
d="M1077 686h-893v108h893v-108zM1077 244h-893v108h893v-108z" />
    <glyph glyph-name="caronSlovak" horiz-adv-x="401" 
d="M191 1048h-83l90 372h111z" />
    <glyph glyph-name="nine.dnom" horiz-adv-x="750" 
d="M351 68q98 0 156 85q59 86 68 222q-30 -60 -89.5 -95.5t-140.5 -35.5q-124 0 -202 78q-77 80 -77 206q0 133 83 213t208 80q91 0 163 -44q45 -26 77 -68q76 -95 76 -281q0 -125 -35 -225t-109 -161q-73 -61 -178 -61q-123 0 -191 75q-60 67 -73 137h104q16 -55 56 -90
t104 -35zM561 535q0 16 -2 32q-25 90 -82 128q-55 39 -115 39q-86 0 -141 -57q-55 -56 -55 -153q0 -92 54 -149q54 -56 144 -56q88 0 142 61q55 61 55 155z" />
    <glyph glyph-name="two.inf" horiz-adv-x="676" 
d="M503 330q0 72 -46 115q-45 45 -118 45q-78 0 -124 -51.5t-46 -136.5v-20h-100v21q0 127 73 200q74 74 197 74q120 0 191 -67q73 -67 73 -177q0 -83 -40 -141t-112 -107q-25 -17 -66.5 -42t-70 -43t-60 -42.5t-51.5 -53t-29 -61.5h437v-87h-542v21q0 92 45 165
q22 33 56 61q40 35 65 51q31 21 80 52q57 36 75 49q29 21 56 46q57 54 57 129z" />
    <glyph glyph-name="nine.inf" horiz-adv-x="750" 
d="M351 -176q98 0 156 85q59 86 68 222q-30 -60 -89.5 -95.5t-140.5 -35.5q-124 0 -202 78q-77 80 -77 206q0 133 83 213t208 80q91 0 163 -44q45 -26 77 -68q76 -95 76 -281q0 -125 -35 -225q-34 -99 -109 -160q-74 -62 -178 -62q-123 0 -191 75q-60 67 -73 137h104
q16 -55 56 -90t104 -35zM561 291q0 16 -2 32q-25 90 -82 128q-55 39 -115 39q-86 0 -141 -57q-55 -56 -55 -153q0 -92 54 -149q54 -56 144 -56q88 0 142 61q55 61 55 155z" />
    <glyph glyph-name="nine.lt" 
d="M582 82q136 0 237.5 87.5t153 234.5t54.5 334q-41 -142 -155 -231q-115 -89 -292 -89q-217 0 -350 142t-133 373q0 160 68 279q68 118 181 179t256 61q50 0 93 -7q113 -16 205 -79q108 -69 172 -210q73 -154 73 -397q0 -230 -64 -406q-63 -176 -192 -281
q-128 -104 -306 -104q-82 0 -155 24.5t-124 64.5q-47 38 -85 90q-65 91 -86 194h134q25 -90 89 -166q80 -93 226 -93zM996 950q0 40 -6 84q-46 141 -134 216q-38 33 -86 54q-78 37 -164 37q-165 0 -273 -112q-107 -112 -107 -297q0 -182 103 -291t279 -109q174 0 281 119
q107 121 107 299z" />
    <glyph glyph-name="nine.numr" horiz-adv-x="750" 
d="M351 685q98 0 156 85q59 86 68 222q-30 -60 -89.5 -95.5t-140.5 -35.5q-124 0 -202 78q-77 80 -77 206q0 133 83 213t208 80q91 0 163 -44q45 -26 77 -68q76 -95 76 -281q0 -125 -35 -225t-109 -161q-73 -61 -178 -61q-123 0 -191 75q-60 67 -73 137h104q16 -55 56 -90
t104 -35zM561 1152q0 16 -2 32q-25 90 -82 128q-55 39 -115 39q-86 0 -141 -57q-55 -56 -55 -153q0 -92 54 -149q54 -56 144 -56q88 0 142 61q55 61 55 155z" />
    <glyph glyph-name="notequal.cap" horiz-adv-x="1117" 
d="M582 877h-470v108h516l144 332h96l-144 -332h281v-108h-327l-144 -334h471v-108h-518l-143 -332h-96l143 332h-279v108h326z" />
    <glyph glyph-name="notequal.lt" 
d="M654 686h-470v108h516l144 332h96l-144 -332h281v-108h-327l-144 -334h471v-108h-518l-143 -332h-96l143 332h-279v108h326z" />
    <glyph glyph-name="circumflex.cap" horiz-adv-x="807" 
d="M709 1520h-126l-180 217l-179 -217h-126l250 282h110z" />
    <glyph glyph-name="colon.tab" horiz-adv-x="633" 
d="M389 0h-145v215h145v-215zM389 823h-145v215h145v-215z" />
    <glyph glyph-name="comma.tab" horiz-adv-x="633" 
d="M310 0h-66v215h145v-187q0 -59 -20 -130l-33 -116h-88z" />
    <glyph glyph-name="one.dnom" horiz-adv-x="478" 
d="M65 500v87q104 3 158 67q56 65 63 149h85v-803h-100v608q-58 -108 -206 -108z" />
    <glyph glyph-name="one.inf" horiz-adv-x="478" 
d="M65 256v87q104 3 158 67q56 65 63 149h85v-803h-100v608q-58 -108 -206 -108z" />
    <glyph glyph-name="one.lt" 
d="M317 919v112q77 2 143 26.5t110 63.5q123 112 138 299h106v-1420h-129v1117q-105 -198 -368 -198z" />
    <glyph glyph-name="one.numr" horiz-adv-x="478" 
d="M65 1117v87q104 3 158 67q56 65 63 149h85v-803h-100v608q-58 -108 -206 -108z" />
    <glyph glyph-name="dieresis.cap" horiz-adv-x="719" 
d="M611 1555h-116v210h116v-210zM108 1765h116v-210h-116v210z" />
    <glyph glyph-name="divide.cap" horiz-adv-x="1117" 
d="M1005 656h-893v108h893v-108zM631 977h-145v215h145v-215zM631 208h-145v215h145v-215z" />
    <glyph glyph-name="period.tab" horiz-adv-x="633" 
d="M389 0h-145v215h145v-215z" />
    <glyph glyph-name="divide.lt" 
d="M1077 465h-893v108h893v-108zM703 786h-145v215h145v-215zM703 17h-145v215h145v-215z" />
    <glyph glyph-name="periodcentered.cap" horiz-adv-x="361" 
d="M257 602h-145v215h145v-215z" />
    <glyph glyph-name="plus.cap" horiz-adv-x="1117" 
d="M504 656h-392v108h392v398h109v-398h392v-108h-392v-398h-109v398z" />
    <glyph glyph-name="plus.lt" 
d="M576 465h-392v108h392v398h109v-398h392v-108h-392v-398h-109v398z" />
    <glyph glyph-name="plusminus.cap" horiz-adv-x="1117" 
d="M504 757h-392v108h392v398h109v-398h392v-108h-392v-345h-109v345zM1005 158h-893v108h893v-108z" />
    <glyph glyph-name="plusminus.lt" 
d="M576 599h-392v108h392v398h109v-398h392v-108h-392v-345h-109v345zM1077 0h-893v108h893v-108z" />
    <glyph glyph-name="dotaccent.cap" horiz-adv-x="336" 
d="M108 1765h120v-210h-120v210z" />
    <glyph glyph-name="questiondown.cap" horiz-adv-x="1005" 
d="M56 405q-1 107 41.5 182t114.5 137q20 17 55.5 46t56.5 46.5t48.5 47t42.5 55t26 62t11 77.5h112q1 -106 -40 -178t-111 -130q-14 -12 -45.5 -37.5t-47.5 -39.5t-42 -39t-39.5 -46.5t-28.5 -50.5t-21.5 -63t-6.5 -72q0 -150 95 -239q94 -88 235 -88q144 0 232 94t93 254
v13h123v-21q-4 -211 -132 -330q-128 -117 -319 -117q-193 0 -323 118t-130 319zM435 1420h145v-215h-145v215z" />
    <glyph glyph-name="dotmath.cap" horiz-adv-x="369" 
d="M257 602h-145v215h145v-215z" />
    <glyph glyph-name="doublebar" horiz-adv-x="1007" 
d="M238 -275h-113v1925h113v-1925zM882 -275h-113v1925h113v-1925z" />
    <glyph glyph-name="doublegrave" horiz-adv-x="965" 
d="M857 1158h-99l-288 262h144zM479 1158h-99l-288 262h144z" />
    <glyph glyph-name="doublegrave.cap" horiz-adv-x="965" 
d="M857 1540h-99l-288 262h144zM479 1540h-99l-288 262h144z" />
    <glyph glyph-name="registered.cap" horiz-adv-x="1594" 
d="M147 410q-55 138 -55 300t55 299q107 272 373 383q130 54 277 54t277 -54q267 -111 373 -383q55 -137 55 -299t-55 -300q-106 -271 -373 -382q-130 -54 -277 -54t-277 54q-266 111 -373 382zM206 984q-49 -125 -49 -274t49 -275q100 -250 339 -352q117 -49 252 -49
t252 49q242 103 338 352q50 129 50 275q0 147 -50 274q-97 252 -338 352q-120 50 -252 50t-252 -50q-239 -99 -339 -352zM523 1115h334q120 0 186.5 -60t66.5 -173q0 -92 -43.5 -151.5t-125.5 -80.5l193 -335h-93l-183 326h-250v-326h-85v800zM852 1040h-244v-324h244
q173 0 173 166q0 158 -173 158z" />
    <glyph glyph-name="ring.cap" horiz-adv-x="574" 
d="M425 1809q51 -48 51 -121t-51 -121t-138 -48t-138 48t-51 121t51 121t138 48t138 -48zM362 1615q28 28 28 73t-28 73q-29 29 -75 29t-75 -29q-28 -28 -28 -73t28 -73q29 -29 75 -29t75 29z" />
    <glyph glyph-name="semicolon.tab" horiz-adv-x="633" 
d="M310 0h-66v215h145v-187q0 -59 -20 -130l-33 -116h-88zM389 823h-145v215h145v-215z" />
    <glyph glyph-name="zero_slash.lt" 
d="M632 1452q169 0 293 -101q121 -100 181.5 -264t60.5 -377q0 -208 -60 -375q-59 -165 -182 -266q-124 -101 -293 -101q-126 0 -229.5 57t-171.5 160q-136 210 -136 525t136 524q68 104 171.5 161t229.5 57zM1037 710q0 290 -108 460l-549 -980q100 -112 252 -112
q189 -1 298.5 174t106.5 458zM224 710q0 -287 109 -459l549 980q-102 111 -250 111q-189 2 -300 -174t-108 -458z" />
    <glyph glyph-name="seven.dnom" horiz-adv-x="708" 
d="M524 716h-454v87h563v-79q-4 -3 -16 -15q-21 -24 -38 -46q-29 -35 -57 -75q-73 -108 -128 -237q-69 -164 -97 -351h-111q16 123 52 232q36 108 76 188q37 73 87 146q50 71 74 98q25 29 49 52z" />
    <glyph glyph-name="seven.inf" horiz-adv-x="708" 
d="M524 472h-454v87h563v-79q-4 -3 -16 -15q-21 -24 -38 -46q-29 -35 -57 -75q-73 -108 -128 -237q-69 -164 -97 -351h-111q16 123 52 232q36 108 76 188q37 73 87 146q50 71 74 98q25 29 49 52z" />
    <glyph glyph-name="seven.lt" 
d="M500 0h-144q23 161 64 308q41 149 89 269q48 119 108 231q64 119 109 189q55 84 104 147q51 67 83 103q18 21 54 59h-828v114h973v-103l-28 -28q-22 -24 -70 -83q-58 -72 -103 -138q-56 -81 -115 -190q-66 -119 -119 -242q-52 -123 -102 -293q-48 -169 -75 -343z" />
    <glyph glyph-name="seven.numr" horiz-adv-x="708" 
d="M524 1333h-454v87h563v-79q-4 -3 -16 -15q-21 -24 -38 -46q-29 -34 -57 -75q-73 -108 -128 -237q-69 -164 -97 -351h-111q16 123 52 232q36 108 76 188q37 73 87 146q50 71 74 98q25 29 49 52z" />
    <glyph glyph-name="eight.dnom" horiz-adv-x="754" 
d="M653 612q0 -130 -141 -173q87 -24 134 -80t47 -136q0 -106 -83 -174t-233 -68q-151 0 -234 68q-82 67 -82 174q0 80 47 136t134 80q-141 43 -141 173q0 93 76 151t200 58q123 0 199 -58q77 -59 77 -151zM593 228q0 77 -58 122t-158 45t-158 -45t-58 -122q0 -74 58 -118.5
t158 -44.5t158 44.5t58 118.5zM198 604q0 -59 47.5 -92.5t131.5 -33.5t131.5 33.5t47.5 92.5q0 60 -50 96.5t-129 36.5t-129 -36.5t-50 -96.5z" />
    <glyph glyph-name="uni2011.cap" horiz-adv-x="749" 
d="M637 656h-525v108h525v-108z" />
    <glyph glyph-name="figuredash.cap" horiz-adv-x="1092" 
d="M980 656h-868v108h868v-108z" />
    <glyph glyph-name="uni2015.cap" horiz-adv-x="1505" 
d="M1393 656h-1281v108h1281v-108z" />
    <glyph glyph-name="hcircumflex.alt2" horiz-adv-x="1114" 
d="M998 0h-121v632q0 173 -70 251.5t-209 78.5q-173 0 -266 -122.5t-93 -347.5v-492h-121v1420h121v-573q94 217 380 217q190 0 284.5 -101.5t94.5 -314.5v-648zM823 1520h-126l-180 217l-179 -217h-126l250 282h110z" />
    <glyph glyph-name="multiply.cap" horiz-adv-x="1009" 
d="M578 710l319 -319l-74 -74l-319 319l-319 -319l-73 74l319 319l-319 319l73 73l319 -319l320 320l73 -74z" />
    <glyph glyph-name="Aringacute.alt2" horiz-adv-x="1254" 
d="M882 1996l-222 -192h-95l180 192h137zM816 1541q0 -55 -29 -96.5t-82 -60.5l541 -1384h-134l-153 399h-665l-152 -399h-134l541 1384q-53 19 -82 60.5t-29 96.5q0 73 51 121t138 48t138 -48t51 -121zM916 513l-289 755l-289 -755h578zM702 1468q28 28 28 73t-28 73
q-29 29 -75 29t-75 -29q-28 -28 -28 -73t28 -73q29 -29 75 -29t75 29z" />
    <glyph glyph-name="numero.alt3" horiz-adv-x="2312" 
d="M2202 112h-793v98h793v-98zM2190 1181q50 -120 50 -265q0 -149 -50.5 -267.5t-150.5 -189.5q-101 -72 -233 -72q-134 0 -234 72q-100 73 -150 192q-50 120 -50 265q0 149 51 267t149 189q100 73 234 73q133 0 233 -73q102 -73 151 -191zM2034 609q84 122 84 307
q0 186 -84 307q-84 122 -228 122t-228 -122q-84 -121 -84 -307t84 -307q84 -122 228 -122t228 122zM1201 0h-118l-830 1198v-1198h-129v1420h118l830 -1198v1198h129v-1420z" />
    <glyph glyph-name="altogonek" horiz-adv-x="568" 
d="M297 -461q-96 0 -148.5 43.5t-52.5 119.5q0 51 26 103t67 92q37 36 86 72q82 57 140 79h81q-106 -51 -194 -125q-108 -93 -108 -200q0 -57 34.5 -87.5t99.5 -30.5q40 0 78 12.5t56 26.5l15 13v-62q-13 -10 -20 -15q-12 -10 -60 -25q-45 -16 -100 -16z" />
    <glyph glyph-name="R.alt" horiz-adv-x="1278" 
d="M253 594v-594h-129v1420h584q244 0 360 -108q116 -107 116 -295q0 -128 -51 -222t-151 -139q181 -60 181 -281v-153q0 -135 38 -222h-135q-32 84 -32 231v134q0 153 -95 200q-60 29 -168 29h-518zM693 1306h-440v-598h516q71 0 126.5 22t86.5 56q30 33 46 76
q27 66 27 143q0 146 -90 223.5t-272 77.5z" />
    <glyph glyph-name="Racute.alt" horiz-adv-x="1278" 
d="M253 594v-594h-129v1420h584q244 0 360 -108q116 -107 116 -295q0 -128 -51 -222t-151 -139q181 -60 181 -281v-153q0 -135 38 -222h-135q-32 84 -32 231v134q0 153 -95 200q-60 29 -168 29h-518zM693 1306h-440v-598h516q71 0 126.5 22t86.5 56q30 33 46 76
q27 66 27 143q0 146 -90 223.5t-272 77.5zM761 1802h146l-289 -262h-102z" />
    <glyph glyph-name="Rcaron.alt" horiz-adv-x="1278" 
d="M253 594v-594h-129v1420h584q244 0 360 -108q116 -107 116 -295q0 -128 -51 -222t-151 -139q181 -60 181 -281v-153q0 -135 38 -222h-135q-32 84 -32 231v134q0 153 -95 200q-60 29 -168 29h-518zM693 1306h-440v-598h516q71 0 126.5 22t86.5 56q30 33 46 76
q27 66 27 143q0 146 -90 223.5t-272 77.5zM446 1802l179 -217l180 217h126l-251 -282h-110l-250 282h126z" />
    <glyph glyph-name="Rcommaaccent.alt" horiz-adv-x="1278" 
d="M253 594v-594h-129v1420h584q244 0 360 -108q116 -107 116 -295q0 -128 -51 -222t-151 -139q181 -60 181 -281v-153q0 -135 38 -222h-135q-32 84 -32 231v134q0 153 -95 200q-60 29 -168 29h-518zM693 1306h-440v-598h516q71 0 126.5 22t86.5 56q30 33 46 76
q27 66 27 143q0 146 -90 223.5t-272 77.5zM653 -316h-54v181h120v-162q0 -51 -16 -108l-28 -94h-72z" />
    <glyph glyph-name="bracketleft.cap" horiz-adv-x="667" 
d="M571 -232h-459v1812h459v-99h-346v-1614h346v-99z" />
    <glyph glyph-name="bracketright.cap" horiz-adv-x="667" 
d="M96 1580h459v-1812h-459v99h346v1614h-346v99z" />
    <glyph glyph-name="braceleft.cap" horiz-adv-x="798" 
d="M535 -133h166v-99h-172q-122 0 -180.5 62.5t-58.5 192.5v347q0 144 -51 199q-50 56 -162 56v98q113 0 162 55q51 56 51 200v347q0 130 58.5 192.5t180.5 62.5h172v-99h-166q-68 0 -100 -33.5t-32 -110.5v-364q0 -241 -142 -299q142 -58 142 -299v-364q0 -77 32 -110.5
t100 -33.5z" />
    <glyph glyph-name="braceright.cap" horiz-adv-x="798" 
d="M269 -232h-172v99h166q68 0 100 33.5t32 110.5v364q0 241 142 299q-142 58 -142 299v364q0 77 -32 110.5t-100 33.5h-166v99h172q122 0 180.5 -62.5t58.5 -192.5v-347q0 -144 50 -200q51 -55 163 -55v-98q-112 0 -163 -56q-50 -56 -50 -199v-347q0 -130 -58.5 -192.5
t-180.5 -62.5z" />
    <glyph glyph-name="parenleft.cap" horiz-adv-x="474" 
d="M391 -194l20 -38h-115q0 1 -8.5 15t-13.5 24q-15 28 -48 113q-33 84 -61 184q-25 98 -48 252q-43 317 -1 634q21 149 50 255q63 216 110 298l20 37h115l-21 -40q-8 -16 -47 -115q-34 -91 -59 -187q-24 -94 -46 -252q-43 -310 -1 -623q19 -150 48 -254q62 -219 106 -303z
" />
    <glyph glyph-name="parenright.cap" horiz-adv-x="474" 
d="M198 -195l-20 -37h-115l21 40q11 20 46 115q31 79 59 187q26 101 47 251q43 313 1 623q-19 145 -49 255q-57 210 -105 303l-20 38h115l21 -39q15 -28 48 -113q37 -93 61 -185q27 -97 48 -252q45 -315 1 -633q-19 -149 -50 -256q-61 -213 -109 -297z" />
    </font>
</defs>
</svg>
